<svg viewBox="0 0 330 200" xmlns="http://www.w3.org/2000/svg"><g><g><g><g><g><line x1="72.34375" y1="177" x2="67.34375" y2="177" style="visibility: inherit;" fill="rgb(0, 0, 0)" stroke="rgb(204, 204, 204)" stroke-width="1px"></line><line x1="72.34375" y1="165.2" x2="67.34375" y2="165.2" style="visibility: inherit;" fill="rgb(0, 0, 0)" stroke="rgb(204, 204, 204)" stroke-width="1px"></line><line x1="72.34375" y1="153.4" x2="67.34375" y2="153.4" style="visibility: inherit;" fill="rgb(0, 0, 0)" stroke="rgb(204, 204, 204)" stroke-width="1px"></line><line x1="72.34375" y1="141.6" x2="67.34375" y2="141.6" style="visibility: inherit;" fill="rgb(0, 0, 0)" stroke="rgb(204, 204, 204)" stroke-width="1px"></line><line x1="72.34375" y1="129.8" x2="67.34375" y2="129.8" style="visibility: inherit;" fill="rgb(0, 0, 0)" stroke="rgb(204, 204, 204)" stroke-width="1px"></line><line x1="72.34375" y1="118.00000000000001" x2="67.34375" y2="118.00000000000001" style="visibility: inherit;" fill="rgb(0, 0, 0)" stroke="rgb(204, 204, 204)" stroke-width="1px"></line><line x1="72.34375" y1="106.2" x2="67.34375" y2="106.2" style="visibility: inherit;" fill="rgb(0, 0, 0)" stroke="rgb(204, 204, 204)" stroke-width="1px"></line><line x1="72.34375" y1="94.4" x2="67.34375" y2="94.4" style="visibility: inherit;" fill="rgb(0, 0, 0)" stroke="rgb(204, 204, 204)" stroke-width="1px"></line><line x1="72.34375" y1="82.6" x2="67.34375" y2="82.6" style="visibility: inherit;" fill="rgb(0, 0, 0)" stroke="rgb(204, 204, 204)" stroke-width="1px"></line><line x1="72.34375" y1="70.8" x2="67.34375" y2="70.8" style="visibility: inherit;" fill="rgb(0, 0, 0)" stroke="rgb(204, 204, 204)" stroke-width="1px"></line><line x1="72.34375" y1="59.00000000000001" x2="67.34375" y2="59.00000000000001" style="visibility: inherit;" fill="rgb(0, 0, 0)" stroke="rgb(204, 204, 204)" stroke-width="1px"></line><line x1="72.34375" y1="47.20000000000001" x2="67.34375" y2="47.20000000000001" style="visibility: inherit;" fill="rgb(0, 0, 0)" stroke="rgb(204, 204, 204)" stroke-width="1px"></line><line x1="72.34375" y1="35.39999999999999" x2="67.34375" y2="35.39999999999999" style="visibility: inherit;" fill="rgb(0, 0, 0)" stroke="rgb(204, 204, 204)" stroke-width="1px"></line><line x1="72.34375" y1="23.599999999999994" x2="67.34375" y2="23.599999999999994" style="visibility: inherit;" fill="rgb(0, 0, 0)" stroke="rgb(204, 204, 204)" stroke-width="1px"></line><line x1="72.34375" y1="11.799999999999997" x2="67.34375" y2="11.799999999999997" style="visibility: inherit;" fill="rgb(0, 0, 0)" stroke="rgb(204, 204, 204)" stroke-width="1px"></line><line x1="72.34375" y1="0" x2="67.34375" y2="0" style="visibility: inherit;" fill="rgb(0, 0, 0)" stroke="rgb(204, 204, 204)" stroke-width="1px"></line></g><g transform="translate(62.34375, 0)"><text x="0" y="177" dx="0em" dy="0.3em" style="text-anchor: end; visibility: hidden; font-family: Roboto, sans-serif; font-size: 12px; font-weight: 200;" fill="rgb(33, 33, 33)" stroke="none" stroke-width="1px">-2e+3</text><text x="0" y="165.2" dx="0em" dy="0.3em" style="text-anchor: end; visibility: inherit; font-family: Roboto, sans-serif; font-size: 12px; font-weight: 200;" fill="rgb(33, 33, 33)" stroke="none" stroke-width="1px">0</text><text x="0" y="153.4" dx="0em" dy="0.3em" style="text-anchor: end; visibility: hidden; font-family: Roboto, sans-serif; font-size: 12px; font-weight: 200;" fill="rgb(33, 33, 33)" stroke="none" stroke-width="1px">2e+3</text><text x="0" y="141.6" dx="0em" dy="0.3em" style="text-anchor: end; visibility: inherit; font-family: Roboto, sans-serif; font-size: 12px; font-weight: 200;" fill="rgb(33, 33, 33)" stroke="none" stroke-width="1px">4e+3</text><text x="0" y="129.8" dx="0em" dy="0.3em" style="text-anchor: end; visibility: hidden; font-family: Roboto, sans-serif; font-size: 12px; font-weight: 200;" fill="rgb(33, 33, 33)" stroke="none" stroke-width="1px">6e+3</text><text x="0" y="118.00000000000001" dx="0em" dy="0.3em" style="text-anchor: end; visibility: inherit; font-family: Roboto, sans-serif; font-size: 12px; font-weight: 200;" fill="rgb(33, 33, 33)" stroke="none" stroke-width="1px">8e+3</text><text x="0" y="106.2" dx="0em" dy="0.3em" style="text-anchor: end; visibility: hidden; font-family: Roboto, sans-serif; font-size: 12px; font-weight: 200;" fill="rgb(33, 33, 33)" stroke="none" stroke-width="1px">1e+4</text><text x="0" y="94.4" dx="0em" dy="0.3em" style="text-anchor: end; visibility: inherit; font-family: Roboto, sans-serif; font-size: 12px; font-weight: 200;" fill="rgb(33, 33, 33)" stroke="none" stroke-width="1px">1.2e+4</text><text x="0" y="82.6" dx="0em" dy="0.3em" style="text-anchor: end; visibility: hidden; font-family: Roboto, sans-serif; font-size: 12px; font-weight: 200;" fill="rgb(33, 33, 33)" stroke="none" stroke-width="1px">1.4e+4</text><text x="0" y="70.8" dx="0em" dy="0.3em" style="text-anchor: end; visibility: inherit; font-family: Roboto, sans-serif; font-size: 12px; font-weight: 200;" fill="rgb(33, 33, 33)" stroke="none" stroke-width="1px">1.6e+4</text><text x="0" y="59.00000000000001" dx="0em" dy="0.3em" style="text-anchor: end; visibility: hidden; font-family: Roboto, sans-serif; font-size: 12px; font-weight: 200;" fill="rgb(33, 33, 33)" stroke="none" stroke-width="1px">1.8e+4</text><text x="0" y="47.20000000000001" dx="0em" dy="0.3em" style="text-anchor: end; visibility: inherit; font-family: Roboto, sans-serif; font-size: 12px; font-weight: 200;" fill="rgb(33, 33, 33)" stroke="none" stroke-width="1px">2e+4</text><text x="0" y="35.39999999999999" dx="0em" dy="0.3em" style="text-anchor: end; visibility: hidden; font-family: Roboto, sans-serif; font-size: 12px; font-weight: 200;" fill="rgb(33, 33, 33)" stroke="none" stroke-width="1px">2.2e+4</text><text x="0" y="23.599999999999994" dx="0em" dy="0.3em" style="text-anchor: end; visibility: inherit; font-family: Roboto, sans-serif; font-size: 12px; font-weight: 200;" fill="rgb(33, 33, 33)" stroke="none" stroke-width="1px">2.4e+4</text><text x="0" y="11.799999999999997" dx="0em" dy="0.3em" style="text-anchor: end; visibility: hidden; font-family: Roboto, sans-serif; font-size: 12px; font-weight: 200;" fill="rgb(33, 33, 33)" stroke="none" stroke-width="1px">2.6e+4</text><text x="0" y="0" dx="0em" dy="0.3em" style="text-anchor: end; visibility: hidden; font-family: Roboto, sans-serif; font-size: 12px; font-weight: 200;" fill="rgb(33, 33, 33)" stroke="none" stroke-width="1px">2.8e+4</text></g><line x1="72.34375" y1="0" x2="72.34375" y2="177" fill="rgb(0, 0, 0)" stroke="rgb(204, 204, 204)" stroke-width="1px"></line></g></g><g transform="translate(72, 0)" clip-path="url(#clip_0)"><clipPath id="clip_0"><rect width="257" height="177"></rect></clipPath><g><g><g><line x1="0" y1="0" x2="0" y2="177" fill="rgb(0, 0, 0)" stroke="rgb(66, 66, 66)" stroke-width="1px" opacity="0.25"></line><line x1="25.765625" y1="0" x2="25.765625" y2="177" fill="rgb(0, 0, 0)" stroke="rgb(66, 66, 66)" stroke-width="1px" opacity="0.25"></line><line x1="51.53125" y1="0" x2="51.53125" y2="177" fill="rgb(0, 0, 0)" stroke="rgb(66, 66, 66)" stroke-width="1px" opacity="0.25"></line><line x1="77.296875" y1="0" x2="77.296875" y2="177" fill="rgb(0, 0, 0)" stroke="rgb(66, 66, 66)" stroke-width="1px" opacity="0.25"></line><line x1="103.0625" y1="0" x2="103.0625" y2="177" fill="rgb(0, 0, 0)" stroke="rgb(66, 66, 66)" stroke-width="1px" opacity="0.25"></line><line x1="128.828125" y1="0" x2="128.828125" y2="177" fill="rgb(0, 0, 0)" stroke="rgb(66, 66, 66)" stroke-width="1px" opacity="0.25"></line><line x1="154.59375" y1="0" x2="154.59375" y2="177" fill="rgb(0, 0, 0)" stroke="rgb(66, 66, 66)" stroke-width="1px" opacity="0.25"></line><line x1="180.359375" y1="0" x2="180.359375" y2="177" fill="rgb(0, 0, 0)" stroke="rgb(66, 66, 66)" stroke-width="1px" opacity="0.25"></line><line x1="206.125" y1="0" x2="206.125" y2="177" fill="rgb(0, 0, 0)" stroke="rgb(66, 66, 66)" stroke-width="1px" opacity="0.25"></line><line x1="231.890625" y1="0" x2="231.890625" y2="177" fill="rgb(0, 0, 0)" stroke="rgb(66, 66, 66)" stroke-width="1px" opacity="0.25"></line><line x1="257.65625" y1="0" x2="257.65625" y2="177" fill="rgb(0, 0, 0)" stroke="rgb(66, 66, 66)" stroke-width="1px" opacity="0.25"></line></g><g><line x1="0" y1="177" x2="257.65625" y2="177" fill="rgb(0, 0, 0)" stroke="rgb(66, 66, 66)" stroke-width="1px" opacity="0.25"></line><line x1="0" y1="165.2" x2="257.65625" y2="165.2" fill="rgb(0, 0, 0)" stroke="rgb(66, 66, 66)" stroke-width="1px" opacity="0.25"></line><line x1="0" y1="153.4" x2="257.65625" y2="153.4" fill="rgb(0, 0, 0)" stroke="rgb(66, 66, 66)" stroke-width="1px" opacity="0.25"></line><line x1="0" y1="141.6" x2="257.65625" y2="141.6" fill="rgb(0, 0, 0)" stroke="rgb(66, 66, 66)" stroke-width="1px" opacity="0.25"></line><line x1="0" y1="129.8" x2="257.65625" y2="129.8" fill="rgb(0, 0, 0)" stroke="rgb(66, 66, 66)" stroke-width="1px" opacity="0.25"></line><line x1="0" y1="118.00000000000001" x2="257.65625" y2="118.00000000000001" fill="rgb(0, 0, 0)" stroke="rgb(66, 66, 66)" stroke-width="1px" opacity="0.25"></line><line x1="0" y1="106.2" x2="257.65625" y2="106.2" fill="rgb(0, 0, 0)" stroke="rgb(66, 66, 66)" stroke-width="1px" opacity="0.25"></line><line x1="0" y1="94.4" x2="257.65625" y2="94.4" fill="rgb(0, 0, 0)" stroke="rgb(66, 66, 66)" stroke-width="1px" opacity="0.25"></line><line x1="0" y1="82.6" x2="257.65625" y2="82.6" fill="rgb(0, 0, 0)" stroke="rgb(66, 66, 66)" stroke-width="1px" opacity="0.25"></line><line x1="0" y1="70.8" x2="257.65625" y2="70.8" fill="rgb(0, 0, 0)" stroke="rgb(66, 66, 66)" stroke-width="1px" opacity="0.25"></line><line x1="0" y1="59.00000000000001" x2="257.65625" y2="59.00000000000001" fill="rgb(0, 0, 0)" stroke="rgb(66, 66, 66)" stroke-width="1px" opacity="0.25"></line><line x1="0" y1="47.20000000000001" x2="257.65625" y2="47.20000000000001" fill="rgb(0, 0, 0)" stroke="rgb(66, 66, 66)" stroke-width="1px" opacity="0.25"></line><line x1="0" y1="35.39999999999999" x2="257.65625" y2="35.39999999999999" fill="rgb(0, 0, 0)" stroke="rgb(66, 66, 66)" stroke-width="1px" opacity="0.25"></line><line x1="0" y1="23.599999999999994" x2="257.65625" y2="23.599999999999994" fill="rgb(0, 0, 0)" stroke="rgb(66, 66, 66)" stroke-width="1px" opacity="0.25"></line><line x1="0" y1="11.799999999999997" x2="257.65625" y2="11.799999999999997" fill="rgb(0, 0, 0)" stroke="rgb(66, 66, 66)" stroke-width="1px" opacity="0.25"></line><line x1="0" y1="0" x2="257.65625" y2="0" fill="rgb(0, 0, 0)" stroke="rgb(66, 66, 66)" stroke-width="1px" opacity="0.25"></line></g></g></g><g><g><line x1="0" y1="165.2" x2="257.65625" y2="165.2" fill="rgb(0, 0, 0)" stroke="rgb(153, 153, 153)" stroke-width="1.5px"></line></g></g><g><g><line x1="25.765625" y1="0" x2="25.765625" y2="177" fill="rgb(0, 0, 0)" stroke="rgb(153, 153, 153)" stroke-width="1.5px"></line></g></g><g><g><g><g><g><path stroke="rgb(255, 112, 67)" stroke-width="2px" d="M26.10444296875,164.21175L26.1649921875,164.05503124999998L26.17401015625,163.548L26.18818125,163.31075275735296L26.1959109375,163.5224101318529L26.291243750000003,163.6631106001611L26.36725234375,163.40936305275355L26.61460234375,163.54977623390894L26.66226875,163.60269908070683L26.663557031249997,163.6103658061813L26.67386328125,163.59125013260783L26.751160156250002,163.31965888453325L27.017834375,163.45837650556024L27.021699218749998,163.22264117131198L27.0513296875,162.43791573667082L27.074518750000003,162.59879482776228L27.08868984375,162.96083817850237L27.09513125,163.2842357513449L27.144085937499998,163.06522810536273L27.182734375,163.00463464782484L27.44167890625,162.6378727430571L27.543453125,162.55942261326027L27.58338984375,162.70705473385163L27.615596874999998,162.42983152672173L27.882271093750003,162.81220000311762L27.908036718749997,163.09472048379888L27.914478125000002,163.3468325483136L27.928649218750003,163.39779956028673L27.971162500000002,163.1392796409187L28.0149640625,163.39716784156354L28.14765703125,162.99730065189803L28.190170312499998,163.22348040913968L28.206917968750002,163.38278825309106L28.233971874999998,162.38097292315146L28.29967421875,162.82418376150997L28.32801640625,163.09601025970974L28.353782031250002,162.16170615004376L28.3705296875,162.72802369212909L28.47616875,162.58991421496975L28.558618749999997,163.06164852961246L28.659104687499998,163.32698911798028L28.6719875,163.45669347085058L28.70934765625,163.50501608252432L28.7106359375,163.59300964952985L28.9064546875,163.59860578971848L28.914184375,163.61376347383202L28.97215703125,163.5225580842958L28.986328125,163.52093485057745L29.073931249999998,163.51996091034644L29.16024609375,163.63737654620883L29.3547765625,163.6222759277252L29.36894765625,163.53356555663487L29.54673046875,163.47738933398082L29.5609015625,163.53513360038855L29.656234374999997,163.39278016023303L29.73739609375,163.2424680961398L29.7721796875,163.12278085768384L29.79923359375,163.2633685146103L29.83659375,163.2828211087662L29.868800781250002,163.32989266525973L29.8855484375,163.27553559915583L29.94094453125,163.2547213594935L29.94609765625,163.1714328156961L29.9576921875,163.07425968941766L30.101979687500002,163.1162558136506L30.139339843749998,163.04115348819036L30.17541171875,163.08459209291422L30.192159375000003,163.07525525574854L30.19860078125,163.0224531534491L30.2153484375,163.13827189206947L30.4575453125,163.06026313524168L30.46141015625,162.87775788114502L30.6275984375,162.927554728687L30.6920125,162.9987328372122L30.7100484375,162.54583970232733L30.71391328125,162.6753038213964L30.820840625000002,162.72938229283784L30.9393625,162.6674293757027L30.975434375,162.63025762542162L31.015371093749998,162.60795457525296L31.06432578125,162.50607274515178L31.11456875,161.90214364709107L31.124875000000003,161.93508618825464L31.283333593749997,162.22625171295277L31.331,162.18265102777167L31.3335765625,162.392490616663L31.503629687500002,162.0758943699978L31.51522421875,162.05703662199866L31.519089062499997,162.24042197319923L31.56933203125,162.16755318391952L31.6582234375,162.4188319103517L31.685277343750002,162.36899914621102L31.736808593750002,162.55149948772663L31.79091640625,162.56069969263595L31.8025109375,162.56031981558158L31.8540421875,162.31229188934896L31.886249218750002,162.00417513360938L31.89655546875,162.03760508016563L31.9261859375,162.26416304809936L31.93906875,162.34109782885963L32.00090625,162.05685869731576L32.06403203125,161.85681521838947L32.267580468750005,161.7485891310337L32.294634375,161.7544534786202L32.304940625,161.95267208717212L32.316535156250005,161.89165325230329L32.36291328125,161.96419195138196L32.37579609375,161.9428151708292L32.548425781249996,161.9299891024975L32.562596875,161.5210934614985L32.583209374999996,161.2934560768991L32.59866875,161.57577364613948L32.6373171875,161.47966418768368L32.6940015625,161.4042985126102L32.72105546875,161.35907910756612L32.8125234375,161.49124746453967L32.8279828125,161.5882484787238L32.86791953125,161.56974908723427L32.913009375,161.45834945234057L32.92975703125,161.54490967140435L32.9928828125,161.5437458028426L33.24667421875,161.63154748170558L33.25182734375,161.41872848902335L33.3123765625,161.373637093414L33.3278359375,161.3642822560484L33.39225,161.48256935362903L33.439916406250006,161.1818416121774L33.63058203125,161.45570496730645L33.65377109375,161.40762298038388L33.7503921875,161.47317378823033L33.76198671875,161.54200427293821L33.82124765625,161.47120256376292L33.8379953125,161.13372153825776L33.9075625,161.36783292295465L33.9513640625,161.3666997537728L34.00933671875,161.38371985226368L34.05056171875,161.37623191135822L34.075039062500004,161.42483914681492L34.089210156250005,161.37140348808896L34.23349765625,161.30984209285336L34.241227343750005,161.36140525571201L34.321100781249996,161.4041431534272L34.41385703125,161.37668589205632L34.426739843750006,161.3307115352338L34.53237890625,161.3503269211403L34.644459375,161.37979615268418L34.674089843750004,161.0670776916105L34.87763828125,161.1862466149663L35.0077546875,161.1397479689798L35.04511484375,161.1649487813879L35.0798984375,161.16826926883272L35.092781249999994,161.14666156129965L35.1030875,161.19859693677978L35.12756484375,160.83445816206788L35.15590703125,160.94047489724073L35.2035734375,161.08078493834444L35.20615,161.12367096300667L35.233203906250004,161.04910257780398L35.324671875,161.28166154668241L35.592634375,161.35629692800944L35.704714843750004,161.30667815680567L35.77170546875,161.20020689408338L35.77685859375,161.17762413645005L35.7858765625,161.14932448187002L35.806489062500006,161.206094689122L35.8374078125,161.0572568134732L35.921146093750004,161.11545408808394L36.1337125,161.16807245285037L36.1569015625,161.17014347171022L36.171072656250004,161.21268608302614L36.21229765625,161.1438116498157L36.32566640625,161.1378869898894L36.328242968750004,161.08123219393363L36.4403234375,161.1062393163602L36.46222421875,161.0150435898161L36.607800000000005,161.01342615388967L36.65031328125,160.9888556923338L36.69926796875,160.98296341540026L36.82423125,160.92337804924017L36.90539296875,160.8522268295441L36.94404140625,160.86263609772647L36.99428437500001,160.8393816586359L37.18108515625,160.8903289951815L37.19139140625,160.8913973971089L37.29187734375,160.89203843826533L37.325372656249996,160.8747230629592L37.355003124999996,160.81123383777552L37.4297234375,160.77904030266532L37.442606250000004,160.9544241815992L37.544380468750006,160.86495450895953L37.787865625,160.9587727053757L37.83295546875,160.64336362322544L37.84068515625,160.66356817393526L38.035215625,160.54884090436116L38.127971875,160.4564045426167L38.20398046875,160.58974272557L38.33796171875,160.557645635342L38.551816406250005,159.7949873812052L38.60334765625,159.7326924287231L38.79401328125,159.67171545723386L38.803031250000004,160.09532927434034L38.88934609375001,160.11939756460418L38.935724218749996,160.16923853876253L38.944742187500005,159.89234312325752L39.1147953125,160.0094058739545L39.26552421875,160.1386435243727L39.3054609375,160.15128611462362L39.31705546875,160.21787166877417L39.47937890625,160.13982300126452L39.48710859375,159.84519380075872L39.74218828125,159.63891628045522L39.85813359375,158.86024976827315L39.975367187500005,158.08034986096388L39.976655468749996,158.89270991657833L40.003709375,159.439125949947L40.0629703125,159.6961755699682L40.26007734375,159.93300534198093L40.40951796875,159.67980320518856L40.457184375,158.54258192311315L40.4700671875,159.22314915386787L40.519021875,159.24798949232073L40.5473640625,159.1684936953924L40.5937421875,159.51019621723546L40.7792546875,159.59721773034127L40.79857890625,159.17153063820476L40.838515625,159.34681838292286L40.8410921875,159.1864910297537L40.859128125,159.63309461785224L40.879740625,159.43495677071135L40.9235421875,158.3366740624268L41.031757812500004,157.14670443745607L41.14126171875,158.54492266247365L41.235306249999994,159.0239535974842L41.2430359375,159.28777215849053L41.3976296875,159.1569632950943L41.61019609375,157.64477797705658L41.625655468750004,158.37176678623396L41.6398265625,157.70466007174036L41.7325828125,156.65539604304422L41.78797890625,156.13203762582654L41.858834375,156.50242257549593L41.861410937500004,157.47395354529755L42.08686015625,158.1630721271785L42.18992265625,156.4289432763071L42.24145390625,155.84866596578428L42.3097328125,155.61259957947055L42.33421015625,156.35005974768234L42.41021875,156.4680358486094L42.662721875,155.24672150916564L42.68977578125,155.44613290549938L42.731000781249996,156.58057974329964L42.7322890625,156.0753478459798L42.7477484375,157.03480870758787L42.832775,156.49538522455273L42.892035937500005,154.18933113473162L42.99381015625001,155.41939868083898L43.0389,155.3019392085034L43.113620312500004,155.74476352510203L43.1599984375,156.10485811506123L43.2527546875,156.88141486903672L43.33778125,157.02284892142205L43.36483515625,157.20210935285323L43.467897656249995,157.64596561171194L43.528446875,157.34587936702715L43.56323046875,157.05372762021628L43.7629140625,157.08493657212978L43.7989859375,156.40156194327787L43.829904687500004,156.1154371659667L43.89045390625,156.29186229958003L43.97805703125,156.557017379748L44.15068671875,157.17631042784882L44.184182031249996,156.59208625670928L44.274361718749994,155.9524517540256L44.394171875000005,156.21177105241534L44.4276671875,156.0900626314492L44.580972656250005,156.6365375788695L44.5848375,154.5867225473217L44.672440625,155.06193352839304L44.7574671875,155.93706011703583L44.8502234375,155.27623607022147L44.87985390625,155.1098416421329L45.254743749999996,154.42000498527975L45.517553125000006,154.93240299116783L45.5613546875,154.5908417947007L45.569084374999996,155.36530507682042L45.589696874999994,154.96858304609228L45.72754296875,155.32054982765536L45.8447765625,154.87682989659322L45.848641406249996,155.51919793795594L45.9066140625,155.83381876277355L45.910478906250006,155.43849125766414L46.090838281249994,155.51399475459849L46.1101625,155.32919685275908L46.31757578125,155.29501811165545L46.36910703125,155.12701086699326L46.45671015625,154.04680652019596L46.4734578125,155.35158391211758L46.5301421875,155.76275034727055L46.63578125,156.00355020836233L46.65639375,155.81763012501742L46.664123437499995,154.38447807501043L46.69633046875,154.31518684500625L46.776203906250004,154.07301210700376L46.95398671875,154.36430726420227L47.04803125,154.60988435852136L47.07250859375,154.39733061511282L47.0815265625,154.9541983690677L47.33016484375,154.39151902144062L47.355930468749996,154.86811141286438L47.4989296875,154.87086684771862L47.53371328125,155.12622010863117L47.58266796875,155.1142320651787L47.6741359375,155.54953923910722L47.74241484375,156.62492354346435L47.87381953125,155.2759541260786L48.096692187500004,153.35147247564714L48.170124218750004,154.4682834853883L48.19846640625,154.672270091233L48.563050000000004,154.7710620547398L48.6738421875,155.04273723284388L48.69703125,155.6541423397063L48.7872109375,156.2451854038238L48.8851203125,155.32541124229428L48.93021015625,154.81484674537657L49.03327265625,155.08670804722593L49.165965625,154.93712482833556L49.2432625,155.50817489700134L49.2819109375,154.5705049382008L49.3952796875,153.4238029629205L49.48030625,153.4732817777523L49.516378124999996,152.89821906665136L49.64907109375,153.84233143999083L49.717349999999996,152.41459886399448L49.96083515625,152.9444593183967L49.97887109375,153.47477559103802L49.99948359375,152.6985153546228L50.044573437500006,151.4038092127737L50.052303124999995,151.3172855276642L50.08966328125,152.4984713165985L50.21333828125,152.75878278995913L50.24941015625,152.89136967397548L50.253274999999995,153.3190218043853L50.49031875,153.59921308263117L50.58822812499999,154.0210278495787L50.6036875,154.32131670974724L50.65393046875,154.61949002584834L50.680984375,153.990094015509L50.84201953125,154.6095564093054L51.08808125,154.16703384558323L51.22850390625,153.80712030734995L51.2452515625,153.02477218440995L51.4488,153.57606331064596L51.4513765625,155.05733798638758L51.5132140625,154.26460279183254L51.59179921875,155.02206167509954L51.75412265625,154.9809370050597L52.0233734375,155.55806220303583L52.096805468750006,154.3762373218215L52.2604171875,154.4695423930929L52.3119484375,153.64052543585575L52.358326562500004,152.81271526151343L52.53095625,152.67002915690807L52.6159828125,153.46351749414484L52.8014953125,153.5148104964869L52.86075625,153.68128629789214L52.86204453125,153.4507717787353L52.87235078125,154.68716306724116L53.27429453125,153.48789784034471L53.34643828125,153.37603870420682L53.45207734375,154.0641232225241L53.528085937499995,155.60387393351445L53.5744640625,155.79612436010868L53.713598437499996,154.2063746160652L53.747093750000005,153.50032476963912L53.7805890625,154.43959486178346L53.79991328125,152.54285691707008L53.8784984375,154.43151415024207L54.00603828125001,153.71800849014522L54.020209375,152.83560509408716L54.263694531249996,152.26486305645227L54.279153906249995,151.81031783387138L54.35129765625,152.66449070032283L54.37963984375,153.84369442019369L54.411846875,152.31511665211622L54.45178359375,151.19146999126974L54.60895390625,151.83298199476184L54.65404375,153.3329891968571L54.68882734375,154.24479351811425L54.71459296875,154.88627611086855L54.788025,155.21216566652114L54.8060609375,153.41349939991267L54.86918671875,151.76789963994761L55.057275781250006,152.81013978396857L55.1100953125,151.78348387038113L55.250517968749996,152.99059032222868L55.27113046875,152.4581541933372L55.314932031249995,153.92639251600232L56.035081250000005,154.2940355096014L56.297890625,153.87742130576083L56.5117453125,154.9077527834565L56.6354203125,154.8120516700739L56.64186171875,154.12333100204435L56.960067187499995,154.39449860122662L57.001292187500006,153.25919916073596L57.131408593749995,151.63991949644156L57.29888515625,151.42355169786495L57.56040625,152.00763101871897L57.5835953125,153.17227861123138L57.631261718750004,151.12756716673883L57.80904453125,152.07194030004328L57.932719531249994,150.19596418002598L57.95075546875,149.0998785080156L58.019034375,149.69892710480937L58.0216109375,151.10265626288563L58.14399765625,152.26349375773137L58.284420312499996,152.46439625463884L58.3411046875,152.4905377527833L58.688940625,152.15812265166997L58.840957812499994,151.97047359100196L59.152721875000005,152.4065841546012L59.55337734375,151.66525049276072L59.726007031250006,149.33245029565643L59.8793125,151.08927017739387L59.884465625,151.5887621064363L60.0313296875,152.30145726386178L60.08157265625,152.72317435831707L60.203959375000004,152.02040461499024L60.32119296875,151.70494276899413L60.44615625,150.40056566139648L60.63553359375,151.26993939683788L60.670317187500004,151.30776363810273L60.85840625,148.71085818286164L61.22298984375,149.99651490971698L61.77695078125,149.79440894583018L62.222696093749995,150.09204536749812L62.39532578125,149.13782722049888L62.39790234375,149.50929633229933L62.543478125,149.4194777993796L62.74316171875,147.83158667962775L62.79984609375,148.73735200777665L63.096150781249996,149.900311204666L63.1180515625,150.45648672279958L63.257185937500005,149.48039203367978L63.40405,147.35483522020786L63.492941406250004,149.13570113212472L63.659129687500005,147.20112067927482L63.95414609375,149.5862724075649L64.285234375,149.28276344453894L64.48234140625,149.23635806672334L64.5712328125,149.544814840034L64.57509765625,149.33458890402042L64.6176109375,149.52115334241225L64.62147578125,145.82169200544735L65.38156171875,148.85301520326843L65.40732734375,149.78090912196103L65.59283984375,148.90689547317663L65.6740015625,150.373737283906L65.74485703124999,152.7996423703436L65.78479374999999,150.50868542220616L66.09011640624999,148.7447112533237L66.26403437500001,149.6982267519942L66.32587187499999,145.33203605119652L66.35034921875,145.33192163071791L66.93522890625,145.70355297843074L67.057615625,144.47513178705844L67.2585875,144.01537907223508L67.320425,145.17912744334103L67.45182968750001,145.37587646600463L67.48146015625,143.78292587960277L67.4930546875,145.32875552776167L67.64893671875,145.123453316657L67.72236875,144.4102719899942L67.748134375,145.52816319399653L67.78291796875,145.0896979163979L67.80610703125,146.69101874983875L67.84217890625,146.08831124990326L68.0006375,149.26078674994193L68.09468203125,147.37057204996515L68.3716625,146.9798432299791L68.99647890625,146.13180593798748L69.0492984375,144.21288356279248L69.0931,146.5897301376755L69.33916171874999,146.9715380826053L69.34689140625001,144.74622284956317L69.479584375,144.1013337097379L69.541421875,146.31630022584275L69.56847578125,144.67168013550565L69.629025,144.5522080813034L69.89054609375,146.62222484878203L70.10440078125,146.16503490926922L70.39684062500001,145.67832094556155L70.6519203125,144.34789256733694L70.654496875,145.66183554040217L70.93663046875,146.2260013242413L71.00362109375,146.9185007945448L71.03067499999999,148.10100047672685L71.03196328125,147.33550028603614L71.05515234375,147.05910017162168L71.6928515625,145.223560102973L71.87707578125,142.81243606178379L71.891246875,143.04136163707028L71.9453546875,142.05181698224217L72.10638984375001,144.5437901893453L72.24294765625,142.1980741136072L72.29834375,142.04144446816431L72.46453203125,140.95036668089858L72.56888281250001,143.26047000853916L72.72991796875,145.03298200512347L72.880646875,144.8220892030741L73.035240625,145.26785352184447L73.10094296875,144.76241211310668L73.174375,143.479747267864L73.2284828125,145.1704483607184L73.25811328125,145.06976901643105L73.43331953125,145.65246140985863L73.55570625,147.19387684591518L73.58791328125,148.5258261075491L73.70643515625001,148.25709566452946L73.79146171875,145.93645739871766L73.8623171875,146.9807744392306L73.86489375,146.19136466353837L73.90998359375001,146.77381879812302L74.24622500000001,145.64239127887382L74.3054859375,145.4001347673243L74.31192734375,144.13968086039458L74.42529609374999,146.54580851623675L74.53093515625,144.20758510974204L74.58504296875,146.60425106584523L74.73963671875,146.36075063950713L74.83754609375,146.45655038370427L74.89036562499999,146.14233023022257L74.95606796874999,145.39919813813356L75.24721953125,144.75271888288015L75.49456953125001,144.0757313297281L75.53064140625,145.25663879783684L76.04853046875,143.7408832787021L76.0575484375,144.12942996722126L76.42213203125,142.15005798033275L76.70813046875,142.72063478819965L76.7403375,145.2518808729198L76.78929218750001,144.43422852375187L76.931003125,144.41563711425113L77.21313671875001,142.83508226855068L77.2350375,144.7364493611304L77.41024374999999,144.83296961667824L77.47981093749999,145.60478177000695L77.54680156250001,143.69606906200417L77.66274687500001,145.6660414372025L78.1033390625,142.7711248623215L78.14585234375,143.65967491739292L78.1651765625,144.25180495043574L78.384184375,142.08188297026143L78.4743640625,144.56772978215687L78.5310484375,143.5812378692941L78.80287578125,139.80334272157648L78.97808203125,142.04420563294588L79.02317187499999,143.55392337976753L79.1442703125,143.81075402786053L79.157153125,142.08865241671631L79.22543203125001,144.0938914500298L79.31818828124999,143.66863487001788L79.37358437500001,142.47538092201074L79.51400703125,139.98942855320644L79.64798828125,140.68085713192386L79.68792499999999,141.3907142791543L80.2315796875,141.23842856749258L80.34366015625001,139.85495714049554L80.3655609375,141.34947428429734L80.65800078125001,142.8538845705784L80.7417390625,143.18423074234704L80.7778109375,144.29693844540822L81.00970156250001,144.28016306724493L81.22742109375,135.45549784034696L81.40005078125,139.67739870420817L81.51084296875,141.1426392225249L81.66157187499999,142.14568353351495L81.78653515625,143.69151012010897L81.85094921875,142.51270607206538L81.88702109375001,140.09442364323922L82.01069609375,140.82055418594354L82.34178437499999,143.03213251156612L82.65998984375,139.68627950693968L82.78495312499999,142.2040677041638L83.18174375000001,140.16294062249827L83.32216640624999,142.04166437349897L83.578534375,139.5580986240994L83.6635609375,139.79665917445962L84.1737203125,139.6860955046758L84.38113359375,142.1567573028055L84.470025,141.4620543816833L84.63363671875,141.23993262900996L84.94540078125,139.89715957740597L85.03558046875001,141.79369574644357L85.21851640625,142.46551744786615L85.53543359375,141.78301046871968L85.69775703124999,138.84830628123183L85.82658515624999,136.9517837687391L85.85492734374999,137.47767026124345L85.8639453125,140.10010215674606L85.9154765625,142.11606129404763L86.06362890625,139.1366367764286L86.13577265625001,143.57348206585715L86.14350234375,142.5244892395143L86.38569921874999,141.62369354370858L86.40373515625001,143.19541612622515L86.44753671875,139.64264967573507L86.64335546875,137.09208980544105L86.680715625,140.62985388326464L87.11873125,140.06801232995878L87.34546875000001,137.10540739797526L87.63404374999999,135.03284443878516L87.71520546875,135.5593066632711L88.62730859374999,135.82208399796266L88.69429921875,135.97385039877759L89.1001078125,135.91741023926656L89.25341328125,132.80374614355992L89.27402578125,136.22194768613596L89.6205734375,134.78006861168157L89.73007734375,136.71154116700893L89.73780703125,138.87932470020536L89.91816640625,138.8524948201232L90.0147875,139.68599689207392L90.030246875,135.77879813524436L90.473415625,136.9154788811466L90.49016328124999,139.66838732868797L90.7697203125,142.60633239721278L90.96940390625001,140.62259943832765L91.05571875,141.9811596629966L91.22190703125,137.39779579779795L91.61354453125,139.40907747867877L92.2692796875,141.39464648720727L92.31565781249999,136.66238789232435L92.60938593750001,136.8438327353946L92.658340625,130.42139964123677L92.74723203125,136.99323978474206L93.01004140625,135.67354387084524L93.5421015625,132.86392632250713L93.74436171875,133.21365579350427L94.13342265624999,133.47659347610258L94.4335921875,133.75825608566154L95.245209375,133.31365365139695L95.6291171875,134.55729219083815L95.8867734375,134.8373753145029L96.5824453125,130.96982518870175L96.88776796875,127.55189511322102L96.8967859375,125.74893706793262L97.23560390625,130.4550622407596L97.32320703124999,130.17828734445573L97.39792734375,125.38367240667345L97.56798046875,127.66940344400409L97.708403125,124.87544206640246L97.9634828125,125.55906523984147L98.07556328125,129.30273914390486L98.44401171875,133.50774348634292L98.45689453125,132.00694609180576L98.66817265625,125.28906765508344L98.93484687499999,129.70714059305007L99.13453046875,128.97728435583005L99.18348515625,121.89597061349804L99.25305234375,120.29628236809883L99.7670765625,124.48126942085929L99.9500125,117.41066165251557L100.18319140624999,116.31889699150936L100.80543125,122.9798381949056L100.99996171875,125.74330291694335L101.73557031249999,127.37778175016602L101.82059687499999,130.4824690500996L102.0602171875,134.10938143005978L102.2148109375,131.66582885803587L102.57810624999999,120.71839731482152L102.68116875,125.1180383888929L103.211940625,121.07312303333575L103.4129125,122.31007382000145L103.41677734375,115.28784429200086L103.48376796875,116.45530657520052L103.50953359375,124.47768394512032L103.6525328125,120.80691036707219L103.75173046875,114.07324622024332L103.92049531250001,116.104147732146L104.08668359375,122.5854886392876L104.21808828124999,121.61859318357257L104.30826796875,118.04715591014353L104.505375,121.96949354608613L105.1031375,120.46429612765168L105.34919921875,118.410677676591L105.75371953125,119.53850660595461L106.43135546875001,120.25060396357277L106.5125171875,121.56876237814366L106.75084921874999,127.1681574268862L106.87967734375,120.50959445613172L107.30094531249999,126.70965667367904L107.4555390625,110.12189400420742L107.6358984375,116.04023640252444L108.050725,114.87124184151467L108.21433671875,114.41764510490881L108.78633359375,114.43458706294528L108.82498203125,113.96685223776717L109.2488265625,118.07581134266032L109.63015781249999,119.96888680559618L109.64819375,118.09573208335772L110.0321015625,113.10143925001464L110.47398203125,109.68596355000878L111.2946171875,118.77587813000525L111.40927421875,119.55702687800317L111.6089578125,113.2584161268019L111.7583984375,121.19074967608115L112.4411875,109.66024980564869L114.12110625,112.19964988338921L114.35943828125,108.31298993003352L114.45734765625,109.50919395802012L114.559121875,123.83821637481206L114.682796875,117.49682982488726L114.744634375,109.39679789493235L114.77941796875,110.5606787369594L114.95720078125,107.31190724217564L115.2212984375,108.21234434530538L116.5714171875,121.56740660718323L117.22199921875,116.47654396430994L117.63167265624999,121.77052637858597L117.97435546874999,122.48071582715157L117.9988328125,118.72962949629094L118.27838984374999,122.08987769777458L118.31961484375,122.35962661866475L118.51028046875,116.66277597119885L119.23429453125,112.05876558271929L119.47133828125,112.38205934963158L120.0600828125,116.12783560977896L120.10774921875,124.85940136586737L120.2146765625,124.10394081952043L120.23786562500001,117.30226449171225L120.53288203125001,120.43695869502736L120.69520546875,111.83347521701643L120.76477265625,106.41178513020985L121.39603046875,105.81967107812592L121.58154296875,101.28720264687556L121.67558749999999,109.19362158812532L122.36224140625,106.69227295287519L122.59284375,100.96706377172512L122.659834375,110.27003826303508L122.68688828125,107.32632295782105L122.7345546875,108.57499377469263L122.89043671875001,114.81709626481558L123.05018359375,98.30175775888935L124.38870781249999,103.81515465533361L124.52655390625,105.61869279320017L125.03928984375,105.80401567592008L125.13462265625,96.71710940555205L125.29179296875,98.33316564333124L125.7542859375,105.56269938599873L125.895996875,97.95291963159926L126.98974765625,104.28435177895956L127.895409375,88.15301106737574L128.0216609375,86.77550664042545L128.29606484375,77.65360398425527L128.34759609374998,79.55546239055317L128.6297296875,72.35397743433191L128.85646718750002,87.20808646059913L129.63845390625,78.23765187635948L129.9205875,74.49559112581568L130.16149609375,76.69305467548942L131.63786640625003,76.01733280529365L132.12741328125,82.9809996831762L132.522915625,81.00549980990571L132.85400390625,73.14729988594341L133.13484921875002,71.68917993156606L133.811196875,80.06550795893963L133.94517812499998,88.39530477536378L133.99155624999997,88.80888286521828L134.45404921875001,83.02722971913097L134.66790390625002,84.5968378314786L134.98482109374999,86.87200269888716L136.13525625000003,91.2461016193323L136.35297578125002,79.01436097159939L136.68921718750002,71.68711658295965L137.32949296875,61.08396994977576L137.5704015625,55.21178196986546L138.21583046875,66.24376918191928L138.6731703125,46.088761509151574L138.7040890625,59.29495690549095L138.80715156250002,66.54607414329459L139.40362578124999,62.73114448597676L140.00911796875,68.41308669158607L140.23199062499998,59.892452014951644L140.36983671875,64.125671208971L141.02686015625,54.718102725382586L141.582109375,50.63706163522958L141.82172968749998,54.80233698113777L142.60629296875,65.75030218868265L142.9683,64.68448131320957L143.468153125,78.03388878792576L143.53256718749998,55.84143327275547L143.89972734375,43.2221599636533L144.70619140625,53.74589597819198L145.11844140624999,61.800637586915194L146.01250859375,45.53508255214911L146.15293125,33.36559953128947L146.37580390624998,45.54275971877368L146.43248828125,61.78755583126421L147.1242953125,55.67523349875855L147.96940781249998,53.43564009925515L148.0183625,58.369484059553095L148.08921796875,57.82519043573185L148.4434953125,44.294414261439115L148.78488984375002,48.070348556863465L149.02064531250002,57.00290913411807L150.68896953125,52.85754548047086L151.09864296875,52.158027288282526L151.4426140625,54.068816372969515L151.6873875,66.48428982378172L152.455203125,41.11777389426905L153.40853125,33.20206433656143L153.93801484374998,41.18483860193686L154.372165625,45.018703161162115L154.44946249999998,40.91752189669728L155.55738437500003,39.31821313801837L156.5802796875,55.032027882811036L156.61248671875,60.64891672968662L156.9049265625,54.142450037811955L157.36870781250002,49.96717002268716L158.01156015625,41.95730201361232L159.29984140624998,30.307381208167378L159.37713828125,38.10872872490042L159.99036015625,34.22863723494026L160.80970703125,34.083582340964135L161.28894765625,41.94974940457849L161.59427031250002,45.3802996427471L161.602,56.09097978564827L161.9395296875,64.39358787138897L163.0654875,60.041352722833395L163.43393593750002,44.29071163370005L163.5679171875,39.73732698022004L163.70576328125,50.59889618813203L163.96084296875,51.59343771287922L164.42462421875,33.99456262772753L164.83687421874998,25.158037576636534L164.88325234375,16.40462254598192L165.080359375,28.156373527589153L166.32741562500001,24.563824116553494L166.41373046875,29.435194469932092L167.77802031250002,18.26881668195925L168.677240625,19.238990009175566L169.12813906250003,50.88459400550533L170.09821484375,42.15375640330322L170.46666328125,40.272353841981946L170.90210234375,34.70671230518918L171.58746796875,40.8427273831135L172.59232734375,35.24363642986811L172.9414515625,37.67208185792086L173.24033281250001,21.311149114752535L173.45289921875,27.459989468851536L174.1421296875,27.514893681310905L174.48867734375,26.533036208786534L175.08901640624998,37.34862172527193L175.84652578125,25.571573035163155L176.0487859375,40.270443821097885L176.06295703125,23.778766292658748L176.67360234375002,26.851959775595255L177.19922109375,42.64347586535717L178.2388640625,43.92328551921428L178.70651015625,37.49907131152858L178.993796875,39.48554278691713L179.2437234375,39.38532567215029L179.3107140625,26.917495403290175L179.79381953125,36.36979724197411L179.98190859375,46.643178345184474L181.39128828124998,39.437807007110685L182.13849140625,27.68058420426641L182.55847109375,16.224850522559834L182.8302984375,-4.13008968646407L182.997775,3.0030461881215635L184.20231796874998,16.628527712872927L186.27516250000002,19.411216627723768L186.826546875,29.90132997663425L187.77085703125,35.10979798598056L188.44205156249998,24.54687879158835L189.10036328125003,28.658027274953L189.63371171875,19.773116364971802L189.71100859375,11.86976981898309L191.08689296875002,6.77376189138986L191.20927968750001,9.745957134833935L191.29430625,13.912874280900354L191.43988203125,28.490324568540217L191.46822421874998,44.16929474112414L191.53135,35.67607684467449L191.60091718750002,18.060346106804708L192.48983124999998,13.975007664082819L193.59002343749998,14.45610459844969L193.74075234375002,15.50586275906982L193.94430078125,20.27751765544191L194.30501953125003,23.093310593265148L194.3887578125,17.885686355959102L194.4351359375,20.006211813575455L194.556234375,14.104127088145272L194.99038515625,0.3145762528871845L196.45644921875,13.741045751732319L196.6922046875,8.451127451039376L197.49738046874998,17.855976470623627L197.854234375,1.7514858823741974L198.08998984375,1.4992915294245124L199.44139687499998,14.091974917654708L199.84720546875,5.009584950592828L200.13578046875,-8.015449029644293L201.3403234375,14.525030582213445L201.81569921875,21.276118349328055L201.842753125,25.645371009596847L202.58480312499998,40.91652260575813L202.98030546875,33.28191356345487L203.0460078125,19.733148138072934L203.06533203125,17.468488882843744L203.17097109374998,13.926693329706257L203.8550484375,18.36241599782375L203.85633671875,16.864349598694258L203.88725546875,6.55500975921655L204.594521875,26.09340585552994L205.51435468749997,13.732643513317976L205.98715390625,4.268886107990795L206.24481015625,17.087131664794473L206.800059375,16.48857899887669L207.37849765625,33.504947399326014L207.41456953124998,26.988268439595615L208.20042109374998,30.081561063757384L208.35759140624998,27.97863663825445L209.49127890625002,16.380081982952674L210.0387984375,5.845549189771603L210.13799609375002,24.84762951386297L210.18695078124998,25.711477708317766L210.47037265625,19.50378662499067L210.59662421875,18.699671974994402L210.82465,16.665503184996652L212.45690234375,14.017201910997988L212.602478125,17.744121146598797L213.42826640625,30.51767268795929L213.68849921875,35.37340361277557L214.37772968750002,17.689942167665325L214.46017968750002,19.227965300599188L214.5117109375,17.348279180359512L214.80415078125,18.686667508215717L214.97291562499998,19.63130050492944L215.58227265625,6.020380302957683L215.632515625,22.598428181774622L216.05120703125,20.479756909064772L216.4235203125,12.311454145438873L217.0058234375,-3.8467275127366767L218.99621796875002,-7.317393371390388L219.66097109375002,5.208863977165751L219.80268203125,4.505918386299456L220.01782500000002,10.69215103177967L220.17241875,26.487090619067807L220.23812109374998,2.5110543714406925L221.23782734374998,14.47483262286443L221.36407890625,15.345999573718652L222.7515578125,8.05119974423119L223.12387109375,16.02891984653872L224.28847734375,33.695251907923236L224.9029875,27.00805114475393L226.2402234375,12.812330686852366L226.763265625,22.443298412111435L226.82123828125,1.4653790472668535L227.59291875,8.53152742836011L227.6109546875,-2.232483542983914L227.94204296875,21.34010987420965L229.20971171875001,31.784365924525797L229.23547734375,27.826219554715472L229.26124296875,26.938131732829298L229.31277421875,26.63537903969759L229.33853984375,25.993527423818552L229.40295390625002,28.788516454291138L229.45448515625,22.288109872574708L229.51889921875,10.239965923544828L229.89250078125,7.141079554126877L229.91826640625,8.249447732476149L230.03421171875002,6.967468639485699L230.04709453125,3.4370811836914386L230.05997734375,-5.855551289785161L230.35628203125,-4.722830773871105L230.40781328125,2.134101535677348L230.44646171875002,-2.212339078593576L230.47222734375,10.773496552843838L230.49799296875,10.434797931706306L230.78141484375,6.396578759023781L230.92312578124998,9.737947255414282L230.93600859375,33.06536835324858L230.96177421875,25.644821011949134L230.98753984375,31.558792607169494L231.02618828125,28.48737556430172L231.15501640624998,15.405025338581028L231.19366484374999,30.707215203148635L231.20654765625,21.321229121889193L231.28384453125,36.49893747313353L231.30961015625002,34.01796248388011L231.33537578125,26.658877490328088L231.39978984375,19.777226494196867L231.42555546875,26.22693589651814L231.47708671875,29.223561537910882L231.50285234375002,28.578936922746557L231.63168046875,30.386962153647925" style="fill: none;" fill="none"></path></g></g></g></g><g opacity="0.2"><g><g><g><path stroke="rgb(255, 112, 67)" stroke-width="2px" d="M26.10444296875,164.21175L26.1649921875,163.961L26.17401015625,163.06125L26.18818125,163.03175000000002L26.1959109375,163.79875L26.291243750000003,163.85774999999998L26.36725234375,163.0465L26.61460234375,163.7545L26.66226875,163.68075L26.663557031249997,163.62175L26.67386328125,163.56275L26.751160156250002,162.91375L27.017834375,163.666L27.021699218749998,162.86950000000002L27.0513296875,161.26175L27.074518750000003,162.84L27.08868984375,163.50375L27.09513125,163.76925L27.144085937499998,162.73675L27.182734375,162.91375L27.44167890625,162.08775L27.543453125,162.44174999999998L27.58338984375,162.92849999999999L27.615596874999998,162.014L27.882271093750003,163.38575L27.908036718749997,163.5185L27.914478125000002,163.725L27.928649218750003,163.47424999999998L27.971162500000002,162.7515L28.0149640625,163.784L28.14765703125,162.3975L28.190170312499998,163.56275L28.206917968750002,163.62175L28.233971874999998,160.87825L28.29967421875,163.489L28.32801640625,163.50375L28.353782031250002,160.76025L28.3705296875,163.57750000000001L28.47616875,162.38275L28.558618749999997,163.76925L28.659104687499998,163.725L28.6719875,163.65125L28.70934765625,163.57750000000001L28.7106359375,163.725L28.9064546875,163.607L28.914184375,163.63649999999998L28.97215703125,163.38575L28.986328125,163.5185L29.073931249999998,163.5185L29.16024609375,163.8135L29.3547765625,163.599625L29.36894765625,163.4005L29.54673046875,163.393125L29.5609015625,163.62175L29.656234374999997,163.17925L29.73739609375,163.017L29.7721796875,162.94325L29.79923359375,163.47424999999998L29.83659375,163.31199999999998L29.868800781250002,163.4005L29.8855484375,163.19400000000002L29.94094453125,163.2235L29.94609765625,163.0465L29.9576921875,162.92849999999999L30.101979687500002,163.17925L30.139339843749998,162.92849999999999L30.17541171875,163.14974999999998L30.192159375000003,163.06125L30.19860078125,162.94325L30.2153484375,163.31199999999998L30.4575453125,162.94325L30.46141015625,162.60399999999998L30.6275984375,163.00224999999998L30.6920125,163.1055L30.7100484375,161.8665L30.71391328125,162.86950000000002L30.820840625000002,162.8105L30.9393625,162.5745L30.975434375,162.5745L31.015371093749998,162.5745L31.06432578125,162.35325L31.11456875,160.99625L31.124875000000003,161.9845L31.283333593749997,162.663L31.331,162.11725L31.3335765625,162.70725000000002L31.503629687500002,161.601L31.51522421875,162.02875L31.519089062499997,162.5155L31.56933203125,162.05825L31.6582234375,162.79575L31.685277343750002,162.29425L31.736808593750002,162.82525L31.79091640625,162.5745L31.8025109375,162.55975L31.8540421875,161.94025000000002L31.886249218750002,161.542L31.89655546875,162.08775L31.9261859375,162.60399999999998L31.93906875,162.45649999999998L32.00090625,161.6305L32.06403203125,161.55675L32.267580468750005,161.58625L32.294634375,161.76325L32.304940625,162.25L32.316535156250005,161.80012499999998L32.36291328125,162.07299999999998L32.37579609375,161.91074999999998L32.548425781249996,161.91074999999998L32.562596875,160.90775L32.583209374999996,160.952L32.59866875,161.99925L32.6373171875,161.3355L32.6940015625,161.29125L32.72105546875,161.29125L32.8125234375,161.6895L32.8279828125,161.73375000000001L32.86791953125,161.542L32.913009375,161.29125L32.92975703125,161.67475L32.9928828125,161.542L33.24667421875,161.76325L33.25182734375,161.0995L33.3123765625,161.306L33.3278359375,161.35025L33.39225,161.66L33.439916406250006,160.73075L33.63058203125,161.8665L33.65377109375,161.3355L33.7503921875,161.57150000000001L33.76198671875,161.64525L33.82124765625,161.36499999999998L33.8379953125,160.6275L33.9075625,161.719L33.9513640625,161.36499999999998L34.00933671875,161.40925000000001L34.05056171875,161.36499999999998L34.075039062500004,161.49775L34.089210156250005,161.29125L34.23349765625,161.2175L34.241227343750005,161.43875L34.321100781249996,161.46825L34.41385703125,161.3355L34.426739843750006,161.26175L34.53237890625,161.37975L34.644459375,161.424L34.674089843750004,160.59799999999998L34.87763828125,161.36499999999998L35.0077546875,161.07L35.04511484375,161.20274999999998L35.0798984375,161.17325L35.092781249999994,161.11425L35.1030875,161.2765L35.12756484375,160.28825L35.15590703125,161.0995L35.2035734375,161.29125L35.20615,161.188L35.233203906250004,160.93725L35.324671875,161.6305L35.592634375,161.46825L35.704714843750004,161.23225L35.77170546875,161.04049999999998L35.77685859375,161.14375L35.7858765625,161.106875L35.806489062500006,161.29125L35.8374078125,160.834L35.921146093750004,161.20274999999998L36.1337125,161.247L36.1569015625,161.17325L36.171072656250004,161.2765L36.21229765625,161.04049999999998L36.32566640625,161.129L36.328242968750004,160.99625L36.4403234375,161.14375L36.46222421875,160.87825L36.607800000000005,161.011L36.65031328125,160.952L36.69926796875,160.97412500000002L36.82423125,160.834L36.90539296875,160.7455L36.94404140625,160.87825L36.99428437500001,160.8045L37.18108515625,160.96675L37.19139140625,160.893L37.29187734375,160.893L37.325372656249996,160.84875L37.355003124999996,160.716L37.4297234375,160.73075L37.442606250000004,161.2175L37.544380468750006,160.73075L37.787865625,161.0995L37.83295546875,160.17025L37.84068515625,160.693875L38.035215625,160.37675000000002L38.127971875,160.31775000000002L38.20398046875,160.78975L38.33796171875,160.5095L38.551816406250005,158.651L38.60334765625,159.63925L38.79401328125,159.58025L38.803031250000004,160.73075L38.88934609375001,160.15550000000002L38.935724218749996,160.244L38.944742187500005,159.477L39.1147953125,160.185L39.26552421875,160.3325L39.3054609375,160.17025L39.31705546875,160.31775000000002L39.47937890625,160.02275L39.48710859375,159.40324999999999L39.74218828125,159.3295L39.85813359375,157.69225L39.975367187500005,156.91049999999998L39.976655468749996,160.11124999999998L40.003709375,160.25875L40.0629703125,160.08175L40.26007734375,160.28825L40.40951796875,159.3L40.457184375,156.83675L40.4700671875,160.244L40.519021875,159.28525000000002L40.5473640625,159.04925L40.5937421875,160.02275L40.7792546875,159.72775L40.79857890625,158.533L40.838515625,159.60975000000002L40.8410921875,158.946L40.859128125,160.303L40.879740625,159.13775L40.9235421875,156.68925L41.031757812500004,155.36175L41.14126171875,160.64225L41.235306249999994,159.7425L41.2430359375,159.6835L41.3976296875,158.96075L41.61019609375,155.3765L41.625655468750004,159.46225L41.6398265625,156.704L41.7325828125,155.0815L41.78797890625,155.347L41.858834375,157.058L41.861410937500004,158.93125L42.08686015625,159.19675L42.18992265625,153.82775L42.24145390625,154.97825L42.3097328125,155.2585L42.33421015625,157.45625L42.41021875,156.645L42.662721875,153.41475L42.68977578125,155.74525L42.731000781249996,158.28225L42.7322890625,155.3175L42.7477484375,158.474L42.832775,155.68625L42.892035937500005,150.73025L42.99381015625001,157.2645L43.0389,155.12574999999998L43.113620312500004,156.40900000000002L43.1599984375,156.645L43.2527546875,158.04625000000001L43.33778125,157.23499999999999L43.36483515625,157.47099999999998L43.467897656249995,158.31175L43.528446875,156.89575L43.56323046875,156.6155L43.7629140625,157.13175L43.7989859375,155.3765L43.829904687500004,155.68625L43.89045390625,156.5565L43.97805703125,156.95475000000002L44.15068671875,158.10524999999998L44.184182031249996,155.71575L44.274361718749994,154.993L44.394171875000005,156.60075L44.4276671875,155.9075L44.580972656250005,157.45625L44.5848375,151.512L44.672440625,155.77475L44.7574671875,157.24975L44.8502234375,154.285L44.87985390625,154.86025L45.254743749999996,153.38525L45.517553125000006,155.701L45.5613546875,154.07850000000002L45.569084374999996,156.527L45.589696874999994,154.3735L45.72754296875,155.8485L45.8447765625,154.21125L45.848641406249996,156.48275L45.9066140625,156.30575L45.910478906250006,154.84550000000002L46.090838281249994,155.62725L46.1101625,155.052L46.31757578125,155.24375L46.36910703125,154.875L46.45671015625,152.4265L46.4734578125,157.30875L46.5301421875,156.37949999999998L46.63578125,156.36475L46.65639375,155.53875L46.664123437499995,152.23475L46.69633046875,154.21125L46.776203906250004,153.70974999999999L46.95398671875,154.80124999999998L47.04803125,154.97825L47.07250859375,154.07850000000002L47.0815265625,155.7895L47.33016484375,153.54749999999999L47.355930468749996,155.583L47.4989296875,154.875L47.53371328125,155.50924999999998L47.58266796875,155.09625L47.6741359375,156.20250000000001L47.74241484375,158.238L47.87381953125,153.2525L48.096692187500004,150.46474999999998L48.170124218750004,156.1435L48.19846640625,154.97825L48.563050000000004,154.91925L48.6738421875,155.45024999999998L48.69703125,156.57125L48.7872109375,157.13175L48.8851203125,153.94575L48.93021015625,154.049L49.03327265625,155.49450000000002L49.165965625,154.71275L49.2432625,156.36475L49.2819109375,153.164L49.3952796875,151.70374999999999L49.48030625,153.54749999999999L49.516378124999996,152.03562499999998L49.64907109375,155.2585L49.717349999999996,150.273L49.96083515625,153.73925L49.97887109375,154.27025L49.99948359375,151.53412500000002L50.044573437500006,149.46175L50.052303124999995,151.1875L50.08966328125,154.27025L50.21333828125,153.14925L50.24941015625,153.09025L50.253274999999995,153.9605L50.49031875,154.0195L50.58822812499999,154.65375L50.6036875,154.77175L50.65393046875,155.06674999999998L50.680984375,153.046L50.84201953125,155.53875L51.08808125,153.50324999999998L51.22850390625,153.26725L51.2452515625,151.85125L51.4488,154.403L51.4513765625,157.27925L51.5132140625,153.0755L51.59179921875,156.15825L51.75412265625,154.91925L52.0233734375,156.42375L52.096805468750006,152.6035L52.2604171875,154.6095L52.3119484375,152.397L52.358326562500004,151.571L52.53095625,152.456L52.6159828125,154.65375L52.8014953125,153.59175L52.86075625,153.931L52.86204453125,153.105L52.87235078125,156.54174999999998L53.27429453125,151.689L53.34643828125,153.20825000000002L53.45207734375,155.09625L53.528085937499995,157.9135L53.5744640625,156.0845L53.713598437499996,151.82175L53.747093750000005,152.44125L53.7805890625,155.8485L53.79991328125,149.69775L53.8784984375,157.2645L54.00603828125001,152.64775L54.020209375,151.512L54.263694531249996,151.40875L54.279153906249995,151.1285L54.35129765625,153.94575L54.37963984375,155.6125L54.411846875,150.02225L54.45178359375,149.506L54.60895390625,152.79524999999998L54.65404375,155.583L54.68882734375,155.6125L54.71459296875,155.8485L54.788025,155.701L54.8060609375,150.71550000000002L54.86918671875,149.2995L55.057275781250006,154.3735L55.1100953125,150.2435L55.250517968749996,154.80124999999998L55.27113046875,151.6595L55.314932031249995,156.12875L56.035081250000005,154.84550000000002L56.297890625,153.2525L56.5117453125,156.45325L56.6354203125,154.6685L56.64186171875,153.09025L56.960067187499995,154.80124999999998L57.001292187500006,151.55625L57.131408593749995,149.21099999999998L57.29888515625,151.099L57.56040625,152.88375L57.5835953125,154.91925L57.631261718750004,148.0605L57.80904453125,153.4885L57.932719531249994,147.382L57.95075546875,147.45575000000002L58.019034375,150.5975L58.0216109375,153.20825000000002L58.14399765625,154.00475L58.284420312499996,152.76575L58.3411046875,152.52975L58.688940625,151.6595L58.840957812499994,151.689L59.152721875000005,153.06075L59.55337734375,150.55325L59.726007031250006,145.83325L59.8793125,153.7245L59.884465625,152.338L60.0313296875,153.37050000000002L60.08157265625,153.35575L60.203959375000004,150.96625L60.32119296875,151.23174999999998L60.44615625,148.444L60.63553359375,152.57399999999998L60.670317187500004,151.3645L60.85840625,144.81550000000001L61.22298984375,151.925L61.77695078125,149.49125L62.222696093749995,150.5385L62.39532578125,147.7065L62.39790234375,150.0665L62.543478125,149.28475L62.74316171875,145.44975L62.79984609375,150.096L63.096150781249996,151.64475000000002L63.1180515625,151.29075L63.257185937500005,148.01624999999999L63.40405,144.1665L63.492941406250004,151.80700000000002L63.659129687500005,144.29925L63.95414609375,153.164L64.285234375,148.8275L64.48234140625,149.16675L64.5712328125,150.0075L64.57509765625,149.01925L64.6176109375,149.80100000000002L64.62147578125,140.2725L65.38156171875,153.4L65.40732734375,151.17275L65.59283984375,147.595875L65.6740015625,152.57399999999998L65.74485703124999,156.4385L65.78479374999999,147.07225L66.09011640624999,146.09875L66.26403437500001,151.1285L66.32587187499999,138.78275L66.35034921875,145.33175L66.93522890625,146.261L67.057615625,142.63250000000002L67.2585875,143.32575L67.320425,146.92475L67.45182968750001,145.671L67.48146015625,141.3935L67.4930546875,147.6475L67.64893671875,144.81550000000001L67.72236875,143.3405L67.748134375,147.205L67.78291796875,144.43200000000002L67.80610703125,149.09300000000002L67.84217890625,145.18425000000002L68.0006375,154.0195L68.09468203125,144.53525L68.3716625,146.39375L68.99647890625,144.85975L69.0492984375,141.3345L69.0931,150.155L69.33916171874999,147.54425L69.34689140625001,141.40825L69.479584375,143.134L69.541421875,149.63875000000002L69.56847578125,142.20475L69.629025,144.373L69.89054609375,149.72725L70.10440078125,145.47924999999998L70.39684062500001,144.94825L70.6519203125,142.35225L70.654496875,147.63275L70.93663046875,147.07225L71.00362109375,147.95725L71.03067499999999,149.87475L71.03196328125,146.18725L71.05515234375,146.6445L71.6928515625,142.47025000000002L71.87707578125,139.19575L71.891246875,143.38475L71.9453546875,140.5675L72.10638984375001,148.28175L72.24294765625,138.6795L72.29834375,141.8065L72.46453203125,139.31375L72.56888281250001,146.725625L72.72991796875,147.69175L72.880646875,144.50575L73.035240625,145.9365L73.10094296875,144.00424999999998L73.174375,141.55575L73.2284828125,147.7065L73.25811328125,144.91875L73.43331953125,146.5265L73.55570625,149.506L73.58791328125,150.52374999999998L73.70643515625001,147.854L73.79146171875,142.4555L73.8623171875,148.54725000000002L73.86489375,145.00725L73.90998359375001,147.6475L74.24622500000001,143.94525000000002L74.3054859375,145.03675L74.31192734375,142.249L74.42529609374999,150.155L74.53093515625,140.70025L74.58504296875,150.19925L74.73963671875,145.9955L74.83754609375,146.60025L74.89036562499999,145.671L74.95606796874999,144.2845L75.24721953125,143.78300000000002L75.49456953125001,143.06025L75.53064140625,147.028L76.04853046875,141.46725L76.0575484375,144.71225L76.42213203125,139.181L76.70813046875,143.5765L76.7403375,149.04874999999998L76.78929218750001,143.20775L76.931003125,144.38774999999998L77.21313671875001,140.46425L77.2350375,147.5885L77.41024374999999,144.97775000000001L77.47981093749999,146.7625L77.54680156250001,140.833L77.66274687500001,148.621L78.1033390625,138.42875L78.14585234375,144.99249999999998L78.1651765625,145.14000000000001L78.384184375,138.827L78.4743640625,148.2965L78.5310484375,142.1015L78.80287578125,134.1365L78.97808203125,145.4055L79.02317187499999,145.8185L79.1442703125,144.196L79.157153125,139.5055L79.22543203125001,147.10175L79.31818828124999,143.03074999999998L79.37358437500001,140.6855L79.51400703125,136.2605L79.64798828125,141.718L79.68792499999999,142.4555L80.2315796875,141.01L80.34366015625001,137.77975L80.3655609375,143.59125L80.65800078125001,145.1105L80.7417390625,143.67974999999998L80.7778109375,145.966L81.00970156250001,144.255L81.22742109375,122.2185L81.40005078125,146.01024999999998L81.51084296875,143.3405L81.66157187499999,143.65025L81.78653515625,146.01024999999998L81.85094921875,140.74450000000002L81.88702109375001,136.467L82.01069609375,141.90975L82.34178437499999,146.3495L82.65998984375,134.66750000000002L82.78495312499999,145.98075L83.18174375000001,137.10125000000002L83.32216640624999,144.85975L83.578534375,135.83275L83.6635609375,140.1545L84.1737203125,139.52025L84.38113359375,145.86274999999998L84.470025,140.42L84.63363671875,140.90675000000002L84.94540078125,137.883L85.03558046875001,144.6385L85.21851640625,143.47325L85.53543359375,140.75925L85.69775703124999,134.44625L85.82658515624999,134.107L85.85492734374999,138.2665L85.8639453125,144.03375L85.9154765625,145.14000000000001L86.06362890625,134.66750000000002L86.13577265625001,150.22875L86.14350234375,140.951L86.38569921874999,140.2725L86.40373515625001,145.553L86.44753671875,134.3135L86.64335546875,133.26625L86.680715625,145.9365L87.11873125,139.22525L87.34546875000001,132.66150000000002L87.63404374999999,131.924L87.71520546875,136.349L88.62730859374999,136.21625L88.69429921875,136.20149999999998L89.1001078125,135.83275L89.25341328125,128.13325L89.27402578125,141.34924999999998L89.6205734375,132.61724999999998L89.73007734375,139.60875000000001L89.73780703125,142.131L89.91816640625,138.81225L90.0147875,140.93625L90.030246875,129.918L90.473415625,138.6205L90.49016328124999,143.79775L90.7697203125,147.01325L90.96940390625001,137.64700000000002L91.05571875,144.019L91.22190703125,130.52275L91.61354453125,142.426L92.2692796875,144.373L92.31565781249999,129.564L92.60938593750001,137.11599999999999L92.658340625,120.78775L92.74723203125,146.851L93.01004140625,133.694L93.5421015625,128.6495L93.74436171875,133.73825L94.13342265624999,133.87099999999998L94.4335921875,134.18075L95.245209375,132.64675L95.6291171875,136.42275L95.8867734375,135.2575L96.5824453125,125.16850000000001L96.88776796875,122.425L96.8967859375,123.04450000000001L97.23560390625,137.51425L97.32320703124999,129.763125L97.39792734375,118.19175000000001L97.56798046875,131.09799999999998L97.708403125,120.68449999999999L97.9634828125,126.5845L98.07556328125,134.91825L98.44401171875,139.81525L98.45689453125,129.75575L98.66817265625,115.21224999999998L98.93484687499999,136.33425L99.13453046875,127.88249999999998L99.18348515625,111.274L99.25305234375,117.89675000000001L99.7670765625,130.75875L99.9500125,106.80475000000001L100.18319140624999,114.68125L100.80543125,132.97125L100.99996171875,129.8885L101.73557031249999,129.8295L101.82059687499999,135.1395L102.0602171875,139.54975L102.2148109375,128.00050000000002L102.57810624999999,104.29725L102.68116875,131.7175L103.211940625,115.00575L103.4129125,124.16550000000001L103.41677734375,104.7545L103.48376796875,118.20649999999999L103.50953359375,136.51125L103.6525328125,115.30075L103.75173046875,103.97275L103.92049531250001,119.15050000000001L104.08668359375,132.3075L104.21808828124999,120.16824999999999L104.30826796875,112.69000000000001L104.505375,127.853L105.1031375,118.20649999999999L105.34919921875,115.33025L105.75371953125,121.23025L106.43135546875001,121.31875L106.5125171875,123.54599999999999L106.75084921874999,135.56725L106.87967734375,110.52175L107.30094531249999,136.00975L107.4555390625,85.24025L107.6358984375,124.91775L108.050725,113.11775L108.21433671875,113.73724999999999L108.78633359375,114.46000000000001L108.82498203125,113.26525000000001L109.2488265625,124.23925000000001L109.63015781249999,122.8085L109.64819375,115.286L110.0321015625,105.61L110.47398203125,104.56275L111.2946171875,132.41075L111.40927421875,120.72875L111.6089578125,103.8105L111.7583984375,133.08925L112.4411875,92.3645L114.12110625,116.00874999999999L114.35943828125,102.48299999999999L114.45734765625,111.3035L114.559121875,145.33175L114.682796875,107.98474999999999L114.744634375,97.24675L114.77941796875,112.30650000000001L114.95720078125,102.43875L115.2212984375,109.563L116.5714171875,141.6L117.22199921875,108.84025L117.63167265624999,129.7115L117.97435546874999,123.54599999999999L117.9988328125,113.10300000000001L118.27838984374999,127.13025L118.31961484375,122.76425L118.51028046875,108.1175L119.23429453125,105.15275L119.47133828125,112.86699999999999L120.0600828125,121.7465L120.10774921875,137.95675L120.2146765625,122.97075L120.23786562500001,107.09975L120.53288203125001,125.13900000000001L120.69520546875,98.92825L120.76477265625,98.27925L121.39603046875,104.9315L121.58154296875,94.4885L121.67558749999999,121.05325L122.36224140625,102.94025L122.59284375,92.37924999999998L122.659834375,124.22449999999999L122.68688828125,102.91075000000001L122.7345546875,110.448L122.89043671875001,124.18025L123.05018359375,73.52875L124.38870781249999,112.08525L124.52655390625,108.324L125.03928984375,106.082L125.13462265625,83.08675000000001L125.29179296875,100.75725L125.7542859375,116.407L125.895996875,86.53825L126.98974765625,113.78150000000001L127.895409375,63.95599999999999L128.0216609375,84.70925000000001L128.29606484375,63.97075000000001L128.34759609374998,82.40825000000001L128.6297296875,61.55175L128.85646718750002,109.48924999999998L129.63845390625,64.782L129.9205875,68.8825L130.16149609375,79.98925L131.63786640625003,75.00375L132.12741328125,93.4265L132.522915625,78.04225L132.85400390625,61.36L133.13484921875002,69.50200000000001L133.811196875,92.63L133.94517812499998,100.89000000000001L133.99155624999997,89.42925L134.45404921875001,74.35475000000001L134.66790390625002,86.95124999999999L134.98482109374999,90.28475L136.13525625000003,97.80725L136.35297578125002,60.66675L136.68921718750002,60.69625L137.32949296875,45.179249999999996L137.5704015625,46.4035L138.21583046875,82.79175L138.6731703125,15.856250000000003L138.7040890625,79.10425L138.80715156250002,77.42275000000001L139.40362578124999,57.008750000000006L140.00911796875,76.93599999999999L140.23199062499998,47.1115L140.36983671875,70.4755L141.02686015625,40.606750000000005L141.582109375,44.51549999999999L141.82172968749998,61.05025L142.60629296875,82.17225L142.9683,63.08575000000001L143.468153125,98.058L143.53256718749998,22.552749999999993L143.89972734375,24.293249999999997L144.70619140625,69.53150000000001L145.11844140624999,73.88275L146.01250859375,21.136749999999992L146.15293125,15.111374999999995L146.37580390624998,63.80850000000001L146.43248828125,86.15475L147.1242953125,46.506750000000004L147.96940781249998,50.07625000000001L148.0183625,65.77025L148.08921796875,57.008750000000006L148.4434953125,23.99824999999999L148.78488984375002,53.734249999999996L149.02064531250002,70.40175L150.68896953125,46.63949999999999L151.09864296875,51.10874999999999L151.4426140625,56.934999999999995L151.6873875,85.1075L152.455203125,3.067999999999996L153.40853125,21.32850000000001L153.93801484374998,53.159L154.372165625,50.76950000000001L154.44946249999998,34.765750000000004L155.55738437500003,36.919250000000005L156.5802796875,78.60275000000001L156.61248671875,69.07424999999999L156.9049265625,44.38275L157.36870781250002,43.70425L158.01156015625,29.942500000000003L159.29984140624998,12.832500000000001L159.37713828125,49.81075L159.99036015625,28.408499999999997L160.80970703125,33.86600000000001L161.28894765625,53.748999999999995L161.59427031250002,50.52612500000001L161.602,72.157L161.9395296875,76.84750000000001L163.0654875,53.513000000000005L163.43393593750002,20.664750000000005L163.5679171875,32.90724999999999L163.70576328125,66.89125L163.96084296875,53.08525000000001L164.42462421875,7.596250000000008L164.83687421874998,11.903250000000005L164.88325234375,3.274499999999993L165.080359375,45.784000000000006L166.32741562500001,19.17499999999999L166.41373046875,36.74225L167.77802031250002,1.5192500000000095L168.677240625,20.69425L169.12813906250003,98.353L170.09821484375,29.057500000000005L170.46666328125,37.450250000000004L170.90210234375,26.358250000000005L171.58746796875,50.04674999999999L172.59232734375,26.84499999999999L172.9414515625,41.31475000000001L173.24033281250001,-3.2302500000000176L173.45289921875,36.68325000000001L174.1421296875,27.597250000000006L174.48867734375,25.060249999999993L175.08901640624998,53.571999999999996L175.84652578125,7.9059999999999935L176.0487859375,62.318749999999994L176.06295703125,-0.9587499999999927L176.67360234375002,31.461749999999995L177.19922109375,66.33075000000001L178.2388640625,45.843L178.70651015625,27.86275L178.993796875,42.46525L179.2437234375,39.235L179.3107140625,8.21575L179.79381953125,50.548249999999996L179.98190859375,62.053250000000006L181.39128828124998,28.62974999999999L182.13849140625,10.044749999999993L182.55847109375,-0.9587499999999927L182.8302984375,-34.662499999999994L182.997775,13.702750000000004L184.20231796874998,37.066750000000006L186.27516250000002,23.585249999999995L186.826546875,45.636500000000005L187.77085703125,42.92250000000001L188.44205156249998,8.702500000000004L189.10036328125003,34.824749999999995L189.63371171875,6.445749999999998L189.71100859375,0.014749999999998376L191.08689296875002,-0.8702500000000024L191.20927968750001,14.204250000000007L191.29430625,20.16325L191.43988203125,50.3565L191.46822421874998,67.68775L191.53135,22.93625000000001L191.60091718750002,-8.363250000000003L192.48983124999998,7.847L193.59002343749998,15.17775L193.74075234375002,17.080500000000004L193.94430078125,27.435000000000006L194.30501953125003,27.316999999999997L194.3887578125,10.07424999999999L194.4351359375,23.187L194.556234375,5.2509999999999915L194.99038515625,-20.369750000000018L196.45644921875,33.88075L196.6922046875,0.5162500000000021L197.49738046874998,31.96325L197.854234375,-22.405249999999988L198.08998984375,1.1209999999999944L199.44139687499998,32.981L199.84720546875,-8.613999999999994L200.13578046875,-27.55299999999999L201.3403234375,48.335750000000004L201.81569921875,31.40275L201.842753125,32.19924999999999L202.58480312499998,63.82325000000001L202.98030546875,21.829999999999995L203.0460078125,-0.5900000000000136L203.06533203125,14.071500000000002L203.17097109374998,8.613999999999994L203.8550484375,25.015999999999995L203.85633671875,14.617250000000002L203.88725546875,-8.909L204.594521875,55.40099999999999L205.51435468749997,-4.808499999999981L205.98715390625,-9.926749999999988L206.24481015625,36.31450000000001L206.800059375,15.590749999999993L207.37849765625,59.029500000000006L207.41456953124998,17.21324999999999L208.20042109374998,34.721500000000006L208.35759140624998,24.82425L209.49127890625002,-1.0177499999999862L210.0387984375,-9.956249999999985L210.13799609375002,53.35075L210.18695078124998,27.007249999999992L210.47037265625,10.192249999999998L210.59662421875,17.493499999999997L210.82465,13.614249999999995L212.45690234375,10.044749999999993L212.602478125,23.334500000000006L213.42826640625,49.67799999999999L213.68849921875,42.657L214.37772968750002,-8.83524999999999L214.46017968750002,21.535000000000007L214.5117109375,14.528749999999992L214.80415078125,20.69425L214.97291562499998,21.04825L215.58227265625,-14.395999999999987L215.632515625,47.4655L216.05120703125,17.301750000000002L216.4235203125,0.0589999999999935L217.0058234375,-28.08400000000001L217.4283796875,-2.374749999999994L217.62033359375,3.7317500000000017L218.178159375,-13.304499999999988L218.99621796875002,-5.324749999999984L219.66097109375002,23.99824999999999L219.80268203125,3.451499999999993L220.01782500000002,19.971500000000002L220.17241875,50.1795L220.23812109374998,-33.45300000000001L221.23782734374998,32.420500000000004L221.36407890625,16.652749999999994L222.7515578125,-2.890999999999996L223.12387109375,27.995500000000003L224.28847734375,60.19474999999999L224.9029875,16.977249999999998L226.2402234375,-8.481249999999989L226.763265625,36.88975000000001L226.82123828125,-30.001499999999997L227.59291875,19.130749999999995L227.6109546875,-18.37850000000002L227.94204296875,56.699000000000005L229.20971171875001,47.45075L229.23547734375,21.889000000000006L229.26124296875,25.60600000000001L229.31277421875,26.181250000000006L229.33853984375,25.030749999999994L229.40295390625002,32.981L229.45448515625,12.537499999999994L229.51889921875,-7.832249999999982L229.89250078125,2.4927500000000005L229.91826640625,9.91200000000001L230.03421171875002,5.044499999999995L230.04709453125,-1.8584999999999918L230.35628203125,-3.023750000000001L230.40781328125,12.419500000000008L230.44646171875002,-8.731999999999982L230.47222734375,30.252250000000007L230.49799296875,9.926750000000007L230.78141484375,0.33925000000000194L230.92312578124998,14.750000000000007L230.93600859375,68.05649999999999L230.96177421875,14.513999999999994L230.98753984375,40.429750000000006L231.02618828125,23.880250000000004L231.15501640624998,-4.218500000000007L231.19366484374999,53.660500000000006L231.20654765625,7.242250000000008L231.28384453125,59.265499999999996L231.30961015625002,30.296500000000005L231.33537578125,15.62025000000001L231.39978984375,9.45475L231.42555546875,35.9015L231.47708671875,33.7185L231.50285234375002,27.612000000000005L231.63168046875,33.09900000000001" style="fill: none;" fill="none"></path></g></g></g></g></g></g><g transform="translate(72, 177)" clip-path="url(#clip_1)"><clipPath id="clip_1"><rect width="257" height="23"></rect></clipPath><g><g><line x1="0" y1="0" x2="0" y2="5" style="visibility: inherit;" fill="rgb(0, 0, 0)" stroke="rgb(204, 204, 204)" stroke-width="1px"></line><line x1="25.765625" y1="0" x2="25.765625" y2="5" style="visibility: inherit;" fill="rgb(0, 0, 0)" stroke="rgb(204, 204, 204)" stroke-width="1px"></line><line x1="51.53125" y1="0" x2="51.53125" y2="5" style="visibility: inherit;" fill="rgb(0, 0, 0)" stroke="rgb(204, 204, 204)" stroke-width="1px"></line><line x1="77.296875" y1="0" x2="77.296875" y2="5" style="visibility: inherit;" fill="rgb(0, 0, 0)" stroke="rgb(204, 204, 204)" stroke-width="1px"></line><line x1="103.0625" y1="0" x2="103.0625" y2="5" style="visibility: inherit;" fill="rgb(0, 0, 0)" stroke="rgb(204, 204, 204)" stroke-width="1px"></line><line x1="128.828125" y1="0" x2="128.828125" y2="5" style="visibility: inherit;" fill="rgb(0, 0, 0)" stroke="rgb(204, 204, 204)" stroke-width="1px"></line><line x1="154.59375" y1="0" x2="154.59375" y2="5" style="visibility: inherit;" fill="rgb(0, 0, 0)" stroke="rgb(204, 204, 204)" stroke-width="1px"></line><line x1="180.359375" y1="0" x2="180.359375" y2="5" style="visibility: inherit;" fill="rgb(0, 0, 0)" stroke="rgb(204, 204, 204)" stroke-width="1px"></line><line x1="206.125" y1="0" x2="206.125" y2="5" style="visibility: inherit;" fill="rgb(0, 0, 0)" stroke="rgb(204, 204, 204)" stroke-width="1px"></line><line x1="231.890625" y1="0" x2="231.890625" y2="5" style="visibility: inherit;" fill="rgb(0, 0, 0)" stroke="rgb(204, 204, 204)" stroke-width="1px"></line><line x1="257.65625" y1="0" x2="257.65625" y2="5" style="visibility: inherit;" fill="rgb(0, 0, 0)" stroke="rgb(204, 204, 204)" stroke-width="1px"></line></g><g transform="translate(0, 8)"><text x="0" y="0" dx="0em" dy="0.95em" style="text-anchor: middle; visibility: hidden; font-family: Roboto, sans-serif; font-size: 12px; font-weight: 200;" fill="rgb(33, 33, 33)" stroke="none" stroke-width="1px">-20k</text><text x="25.765625" y="0" dx="0em" dy="0.95em" style="text-anchor: middle; visibility: inherit; font-family: Roboto, sans-serif; font-size: 12px; font-weight: 200;" fill="rgb(33, 33, 33)" stroke="none" stroke-width="1px">0</text><text x="51.53125" y="0" dx="0em" dy="0.95em" style="text-anchor: middle; visibility: hidden; font-family: Roboto, sans-serif; font-size: 12px; font-weight: 200;" fill="rgb(33, 33, 33)" stroke="none" stroke-width="1px">20k</text><text x="77.296875" y="0" dx="0em" dy="0.95em" style="text-anchor: middle; visibility: inherit; font-family: Roboto, sans-serif; font-size: 12px; font-weight: 200;" fill="rgb(33, 33, 33)" stroke="none" stroke-width="1px">40k</text><text x="103.0625" y="0" dx="0em" dy="0.95em" style="text-anchor: middle; visibility: hidden; font-family: Roboto, sans-serif; font-size: 12px; font-weight: 200;" fill="rgb(33, 33, 33)" stroke="none" stroke-width="1px">60k</text><text x="128.828125" y="0" dx="0em" dy="0.95em" style="text-anchor: middle; visibility: inherit; font-family: Roboto, sans-serif; font-size: 12px; font-weight: 200;" fill="rgb(33, 33, 33)" stroke="none" stroke-width="1px">80k</text><text x="154.59375" y="0" dx="0em" dy="0.95em" style="text-anchor: middle; visibility: hidden; font-family: Roboto, sans-serif; font-size: 12px; font-weight: 200;" fill="rgb(33, 33, 33)" stroke="none" stroke-width="1px">100k</text><text x="180.359375" y="0" dx="0em" dy="0.95em" style="text-anchor: middle; visibility: inherit; font-family: Roboto, sans-serif; font-size: 12px; font-weight: 200;" fill="rgb(33, 33, 33)" stroke="none" stroke-width="1px">120k</text><text x="206.125" y="0" dx="0em" dy="0.95em" style="text-anchor: middle; visibility: hidden; font-family: Roboto, sans-serif; font-size: 12px; font-weight: 200;" fill="rgb(33, 33, 33)" stroke="none" stroke-width="1px">140k</text><text x="231.890625" y="0" dx="0em" dy="0.95em" style="text-anchor: middle; visibility: inherit; font-family: Roboto, sans-serif; font-size: 12px; font-weight: 200;" fill="rgb(33, 33, 33)" stroke="none" stroke-width="1px">160k</text><text x="257.65625" y="0" dx="0em" dy="0.95em" style="text-anchor: middle; visibility: hidden; font-family: Roboto, sans-serif; font-size: 12px; font-weight: 200;" fill="rgb(33, 33, 33)" stroke="none" stroke-width="1px">180k</text></g><line x1="0" y1="0" x2="257.65625" y2="0" fill="rgb(0, 0, 0)" stroke="rgb(204, 204, 204)" stroke-width="1px"></line></g></g></g></g></svg>