<svg viewBox="0 0 330 200" xmlns="http://www.w3.org/2000/svg"><g><g><g><g><g><line x1="53.1875" y1="177" x2="48.1875" y2="177" style="visibility: inherit;" fill="rgb(0, 0, 0)" stroke="rgb(204, 204, 204)" stroke-width="1px"></line><line x1="53.1875" y1="157.33333333333334" x2="48.1875" y2="157.33333333333334" style="visibility: inherit;" fill="rgb(0, 0, 0)" stroke="rgb(204, 204, 204)" stroke-width="1px"></line><line x1="53.1875" y1="137.66666666666669" x2="48.1875" y2="137.66666666666669" style="visibility: inherit;" fill="rgb(0, 0, 0)" stroke="rgb(204, 204, 204)" stroke-width="1px"></line><line x1="53.1875" y1="118" x2="48.1875" y2="118" style="visibility: inherit;" fill="rgb(0, 0, 0)" stroke="rgb(204, 204, 204)" stroke-width="1px"></line><line x1="53.1875" y1="98.33333333333334" x2="48.1875" y2="98.33333333333334" style="visibility: inherit;" fill="rgb(0, 0, 0)" stroke="rgb(204, 204, 204)" stroke-width="1px"></line><line x1="53.1875" y1="78.66666666666666" x2="48.1875" y2="78.66666666666666" style="visibility: inherit;" fill="rgb(0, 0, 0)" stroke="rgb(204, 204, 204)" stroke-width="1px"></line><line x1="53.1875" y1="59" x2="48.1875" y2="59" style="visibility: inherit;" fill="rgb(0, 0, 0)" stroke="rgb(204, 204, 204)" stroke-width="1px"></line><line x1="53.1875" y1="39.33333333333334" x2="48.1875" y2="39.33333333333334" style="visibility: inherit;" fill="rgb(0, 0, 0)" stroke="rgb(204, 204, 204)" stroke-width="1px"></line><line x1="53.1875" y1="19.666666666666686" x2="48.1875" y2="19.666666666666686" style="visibility: inherit;" fill="rgb(0, 0, 0)" stroke="rgb(204, 204, 204)" stroke-width="1px"></line><line x1="53.1875" y1="0" x2="48.1875" y2="0" style="visibility: inherit;" fill="rgb(0, 0, 0)" stroke="rgb(204, 204, 204)" stroke-width="1px"></line></g><g transform="translate(43.1875, 0)"><text x="0" y="177" dx="0em" dy="0.3em" style="text-anchor: end; visibility: hidden; font-family: &quot;Helvetica Neue&quot;, sans-serif; font-size: 12px; font-weight: 200;" fill="rgb(50, 49, 63)" stroke="none" stroke-width="1px">-100</text><text x="0" y="157.33333333333334" dx="0em" dy="0.3em" style="text-anchor: end; visibility: inherit; font-family: &quot;Helvetica Neue&quot;, sans-serif; font-size: 12px; font-weight: 200;" fill="rgb(50, 49, 63)" stroke="none" stroke-width="1px">0</text><text x="0" y="137.66666666666669" dx="0em" dy="0.3em" style="text-anchor: end; visibility: hidden; font-family: &quot;Helvetica Neue&quot;, sans-serif; font-size: 12px; font-weight: 200;" fill="rgb(50, 49, 63)" stroke="none" stroke-width="1px">100</text><text x="0" y="118" dx="0em" dy="0.3em" style="text-anchor: end; visibility: inherit; font-family: &quot;Helvetica Neue&quot;, sans-serif; font-size: 12px; font-weight: 200;" fill="rgb(50, 49, 63)" stroke="none" stroke-width="1px">200</text><text x="0" y="98.33333333333334" dx="0em" dy="0.3em" style="text-anchor: end; visibility: hidden; font-family: &quot;Helvetica Neue&quot;, sans-serif; font-size: 12px; font-weight: 200;" fill="rgb(50, 49, 63)" stroke="none" stroke-width="1px">300</text><text x="0" y="78.66666666666666" dx="0em" dy="0.3em" style="text-anchor: end; visibility: inherit; font-family: &quot;Helvetica Neue&quot;, sans-serif; font-size: 12px; font-weight: 200;" fill="rgb(50, 49, 63)" stroke="none" stroke-width="1px">400</text><text x="0" y="59" dx="0em" dy="0.3em" style="text-anchor: end; visibility: hidden; font-family: &quot;Helvetica Neue&quot;, sans-serif; font-size: 12px; font-weight: 200;" fill="rgb(50, 49, 63)" stroke="none" stroke-width="1px">500</text><text x="0" y="39.33333333333334" dx="0em" dy="0.3em" style="text-anchor: end; visibility: inherit; font-family: &quot;Helvetica Neue&quot;, sans-serif; font-size: 12px; font-weight: 200;" fill="rgb(50, 49, 63)" stroke="none" stroke-width="1px">600</text><text x="0" y="19.666666666666686" dx="0em" dy="0.3em" style="text-anchor: end; visibility: hidden; font-family: &quot;Helvetica Neue&quot;, sans-serif; font-size: 12px; font-weight: 200;" fill="rgb(50, 49, 63)" stroke="none" stroke-width="1px">700</text><text x="0" y="0" dx="0em" dy="0.3em" style="text-anchor: end; visibility: hidden; font-family: &quot;Helvetica Neue&quot;, sans-serif; font-size: 12px; font-weight: 200;" fill="rgb(50, 49, 63)" stroke="none" stroke-width="1px">800</text></g><line x1="53.1875" y1="0" x2="53.1875" y2="177" fill="rgb(0, 0, 0)" stroke="rgb(204, 204, 204)" stroke-width="1px"></line></g></g><g transform="translate(53, 0)" clip-path="url(#clip_0)"><clipPath id="clip_0"><rect width="276" height="177"></rect></clipPath><g><g><g><line x1="0" y1="0" x2="0" y2="177" fill="rgb(0, 0, 0)" stroke="rgb(60, 60, 60)" stroke-width="1px" opacity="0.25"></line><line x1="30.756944444444443" y1="0" x2="30.756944444444443" y2="177" fill="rgb(0, 0, 0)" stroke="rgb(60, 60, 60)" stroke-width="1px" opacity="0.25"></line><line x1="61.513888888888886" y1="0" x2="61.513888888888886" y2="177" fill="rgb(0, 0, 0)" stroke="rgb(60, 60, 60)" stroke-width="1px" opacity="0.25"></line><line x1="92.27083333333333" y1="0" x2="92.27083333333333" y2="177" fill="rgb(0, 0, 0)" stroke="rgb(60, 60, 60)" stroke-width="1px" opacity="0.25"></line><line x1="123.02777777777777" y1="0" x2="123.02777777777777" y2="177" fill="rgb(0, 0, 0)" stroke="rgb(60, 60, 60)" stroke-width="1px" opacity="0.25"></line><line x1="153.78472222222223" y1="0" x2="153.78472222222223" y2="177" fill="rgb(0, 0, 0)" stroke="rgb(60, 60, 60)" stroke-width="1px" opacity="0.25"></line><line x1="184.54166666666666" y1="0" x2="184.54166666666666" y2="177" fill="rgb(0, 0, 0)" stroke="rgb(60, 60, 60)" stroke-width="1px" opacity="0.25"></line><line x1="215.29861111111111" y1="0" x2="215.29861111111111" y2="177" fill="rgb(0, 0, 0)" stroke="rgb(60, 60, 60)" stroke-width="1px" opacity="0.25"></line><line x1="246.05555555555554" y1="0" x2="246.05555555555554" y2="177" fill="rgb(0, 0, 0)" stroke="rgb(60, 60, 60)" stroke-width="1px" opacity="0.25"></line><line x1="276.8125" y1="0" x2="276.8125" y2="177" fill="rgb(0, 0, 0)" stroke="rgb(60, 60, 60)" stroke-width="1px" opacity="0.25"></line></g><g><line x1="0" y1="177" x2="276.8125" y2="177" fill="rgb(0, 0, 0)" stroke="rgb(60, 60, 60)" stroke-width="1px" opacity="0.25"></line><line x1="0" y1="157.33333333333334" x2="276.8125" y2="157.33333333333334" fill="rgb(0, 0, 0)" stroke="rgb(60, 60, 60)" stroke-width="1px" opacity="0.25"></line><line x1="0" y1="137.66666666666669" x2="276.8125" y2="137.66666666666669" fill="rgb(0, 0, 0)" stroke="rgb(60, 60, 60)" stroke-width="1px" opacity="0.25"></line><line x1="0" y1="118" x2="276.8125" y2="118" fill="rgb(0, 0, 0)" stroke="rgb(60, 60, 60)" stroke-width="1px" opacity="0.25"></line><line x1="0" y1="98.33333333333334" x2="276.8125" y2="98.33333333333334" fill="rgb(0, 0, 0)" stroke="rgb(60, 60, 60)" stroke-width="1px" opacity="0.25"></line><line x1="0" y1="78.66666666666666" x2="276.8125" y2="78.66666666666666" fill="rgb(0, 0, 0)" stroke="rgb(60, 60, 60)" stroke-width="1px" opacity="0.25"></line><line x1="0" y1="59" x2="276.8125" y2="59" fill="rgb(0, 0, 0)" stroke="rgb(60, 60, 60)" stroke-width="1px" opacity="0.25"></line><line x1="0" y1="39.33333333333334" x2="276.8125" y2="39.33333333333334" fill="rgb(0, 0, 0)" stroke="rgb(60, 60, 60)" stroke-width="1px" opacity="0.25"></line><line x1="0" y1="19.666666666666686" x2="276.8125" y2="19.666666666666686" fill="rgb(0, 0, 0)" stroke="rgb(60, 60, 60)" stroke-width="1px" opacity="0.25"></line><line x1="0" y1="0" x2="276.8125" y2="0" fill="rgb(0, 0, 0)" stroke="rgb(60, 60, 60)" stroke-width="1px" opacity="0.25"></line></g></g></g><g><g><line x1="0" y1="157.33333333333334" x2="276.8125" y2="157.33333333333334" fill="rgb(0, 0, 0)" stroke="rgb(153, 153, 153)" stroke-width="1.5px"></line></g></g><g><g><line x1="30.756944444444443" y1="0" x2="30.756944444444443" y2="177" fill="rgb(0, 0, 0)" stroke="rgb(153, 153, 153)" stroke-width="1.5px"></line></g></g><g><g><g><g><g><path stroke="rgb(255, 112, 67)" stroke-width="2px" d="M30.94148611111111,156.7564444319407L31.36285625,156.67996295501788L31.415143055555557,156.61673275204743L31.47204340277778,156.62561504181693L31.830361805555555,156.5345066730617L31.88726215277778,156.41366239219403L31.93647326388889,156.36048661927364L31.97184375,156.3162150457993L32.04412256944444,156.35791395122163L32.37783541666666,156.29537019254096L32.382448958333335,156.26466629073204L32.38860034722222,156.1951396403565L32.566990625,156.19808763449885L32.65464791666667,156.1089414611357L32.65926145833333,156.0826325111095L32.66848854166667,155.949796014574L32.67310208333333,156.06825059811828L32.88840069444445,156.05084601850362L33.345141319444444,155.92181158832088L33.498926041666664,155.79469151879252L33.70345972222222,155.36999077148556L33.880312152777776,155.41782842587202L33.886463541666664,155.26362918610303L34.13251909722222,154.80825868727607L34.57080555555555,154.1884117834564L34.73996875,153.63950446707156L34.935275347222216,153.60761931427547L35.236693402777775,153.10173794457313L35.37509965277778,152.15166741668418L35.48582465277778,151.1932085714536L35.84721875,150.36984170032386L36.09942569444445,149.7578216381524L36.18862083333334,148.9235262763855L36.625369444444445,148.0910740753139L36.64689930555556,147.66043610445203L37.23589479166667,146.86367832111978L37.245121875,146.50116532376174L37.38506597222223,146.37461586045382L37.39736875,146.75839451712733L37.406595833333334,146.17987004283637L37.59728888888889,146.55550535933645L37.989439930555555,146.42934488220783L38.335455555555555,145.96277359585665L38.36159895833333,146.1204141575413L38.37851527777777,146.18795682786512L38.53076215277778,146.19406576338613L38.91676180555556,146.04777279135953L39.15359027777778,145.75595534147584L39.39041875,145.81932320488636L39.462697569444444,145.2378439229271L39.97480069444444,145.31178968708997L40.214704861111116,145.208657145587L40.38540590277778,145.05581928735194L40.57148541666667,145.45086657241157L40.64683993055555,145.27858244344685L40.78524618055555,144.93060779940132L40.80523819444444,144.54482301297404L41.70949236111111,143.96918547445102L41.855587847222225,143.46155295133724L41.883269097222225,144.03459843746904L41.95401006944444,143.50571739581474L42.08011354166666,143.87180543748883L42.140089583333335,143.5088332624933L42.553770486111105,143.45821662416265L42.75522847222223,143.0025549744976L42.78290972222222,143.84278298469854L43.072025,143.73971145748578L43.11508472222222,143.4148268744915L43.13969027777778,143.55177112469488L43.19812847222222,143.55527100815027L43.45341111111111,143.87941260489015L43.891697569444446,144.09848089626743L44.48376875,144.04063020442712L44.57603958333333,143.6912531226563L44.89437395833334,143.73975187359378L45.14042951388889,143.76885112415624L45.172724305555555,144.17964400782708L45.62331354166667,143.49441140469625L45.62638923611111,143.56633434281775L46.30765555555555,143.18050893902398L46.988921875,142.19922203008105L47.03351944444445,141.27611655138196L47.09349548611111,140.79846159749584L47.311869791666666,141.0969519584975L47.596371527777784,140.25583784176519L47.61482569444445,139.27179437172578L47.64250694444444,138.9812849563688L47.96545486111111,138.00802097382126L48.29762986111111,138.03618758429278L48.572904513888886,136.94437921724233L48.732840625,136.15654419701207L48.76359756944444,136.0009681848739L49.02656944444444,136.05758091092434L49.02964513888889,136.12596521322126L50.01386736111111,135.66057912793275L50.018480902777775,134.47422247675965L50.04616215277778,134.10657515272246L50.645922569444444,133.49265342496682L51.056527777777774,133.0185920549801L51.21800173611111,132.03844689965473L51.284129166666666,132.4533598064595L51.72395347222222,131.88859921720905L51.897730208333336,131.6038261969921L51.916184375,131.0027540515286L52.082271875,131.48531909758384L52.243745833333335,130.83577479188364L52.64051041666667,131.84975654179684L53.220278819444445,132.12627059174477L53.337155208333336,130.75080402171352L53.463258680555555,130.1861074130281L53.633959722222215,130.10541444781688L53.826190625,130.22170700202346L53.87232604166667,130.0751492012141L54.18758472222222,129.7045061873951L54.24602291666667,129.9295370457704L54.50284340277778,129.67368056079556L54.53513819444444,129.485750003144L54.704301388888894,129.3975750018864L54.80733715277778,129.04229500113183L54.847321180555554,129.7583770006791L54.86731319444445,130.89356786707413L55.41171111111112,131.3435990535778L55.56857152777778,130.73107609881336L55.633161111111114,129.88910399262136L55.957646875,129.34704572890615L56.18986180555555,128.92101910401036L56.53433958333333,129.1029864624062L56.921877083333335,128.63200021077705L57.34017152777778,128.15765845979956L57.51702395833333,127.84355340921309L57.54931875,127.23471537886118L57.57853784722222,127.15212089398338L57.593916319444446,127.15418920305669L57.61237048611111,127.168951021834L57.72309548611111,128.24103727976706L58.00452152777778,128.5302890345269L58.33208298611112,127.2067150873828L58.44127013888889,128.31532071909635L58.47510277777778,127.73656743145781L58.80573993055556,128.29644045887468L58.97028958333333,127.84078094199147L59.04564409722222,127.97055189852821L59.090241666666664,126.5611228057836L59.140990625,125.52125701680349L59.26709409722222,125.7061292100821L59.34244861111111,126.85446919271592L59.63463958333333,126.02176484896289L59.65463159722222,125.63768390937773L59.920679166666666,126.34140201229329L59.94836041666667,126.42192454070931L60.471228472222215,125.07144639109225L60.72343541666666,124.08415950132203L60.90028784722222,124.81191236745988L61.09405659722222,125.96148075380927L61.134040625,126.0022217856189L61.19709236111112,125.87916640470465L61.40008819444444,127.5949998428228L61.723036111111114,128.30491657236036L61.86451805555555,130.7098249434162L61.88604791666667,129.62560329938304L62.241290625,132.08732031296316L62.60883611111111,132.3818921877779L62.85642951388889,134.2376769793334L62.905640625000004,133.84173118760003L62.93024618055556,133.2108303792267L63.05019826388889,135.63970656086934L63.30548090277778,135.62694893652161L63.64534513888889,135.74221102857962L63.693018402777774,136.4505349504811L63.772986458333335,136.81161263695535L63.892938541666666,136.6988425821732L64.06671527777777,136.62380554930394L64.49116111111111,135.96419999624902L64.52653159722223,136.8762699977494L64.74798159722222,137.7234286653163L64.760284375,136.85259886585646L64.77258715277777,136.03018431951386L65.00633993055555,136.205402258375L65.01249131944444,134.0513246883583L65.38003680555556,131.87387814634832L65.74912013888888,131.21886855447565L65.76296076388888,129.71223779935207L66.07206805555556,130.4823843462779L66.13358194444444,129.23593060776676L66.46421909722221,127.60551669799338L66.49343819444444,127.01814335212936L66.51189236111111,126.21830267794428L66.6010875,124.6886899400999L66.83176458333334,124.97796396405994L67.0362982638889,125.85707004510263L67.5976125,125.74045036039492L67.66527777777777,126.62677021623696L67.76831354166666,126.1063954630755L68.07434513888889,124.76904561117863L68.45265555555555,123.90271903337384L68.90785833333334,123.3558814200243L69.36459895833333,123.38177885201458L69.50146736111111,122.12144231120874L69.8336423611111,121.27919872005859L70.16274166666666,121.05410256536848L70.53182500000001,119.99225320588776L70.85631076388889,119.94022692353265L72.70787881944445,120.06880282078626L72.84474722222221,119.76982335913843L72.9062611111111,119.86331068214972L73.26150381944444,120.36436140928983L73.645965625,119.32765851224056L73.86741562499999,118.82117844067767L73.97660277777779,118.25179039773994L74.44103263888888,116.83586590531063L75.42833055555556,117.18843620985305L75.71744583333334,116.99927005924516L76.31105486111112,117.82485370221377L76.54480763888888,117.07628722132827L76.62938923611111,117.07210566613028L76.69397881944444,117.19005506634484L76.87852048611111,115.95790803980691L76.92158020833332,115.68570315721747L77.17071145833333,115.52238022766383L77.3337232638889,115.13921980326495L77.56747604166667,114.08578188195897L78.63320416666667,116.97405246250872L78.74700486111111,116.61988981083857L79.01920381944444,117.26535055316981L79.33907604166667,116.50950199856857L79.46825520833335,115.54465953247447L80.16028645833335,115.17717071948468L80.24486805555554,114.72559409835748L80.40172847222223,115.83623145901448L80.52168055555555,114.21390554207535L80.96304270833333,115.18750999191188L81.22755243055556,115.47913099514713L81.60586284722221,115.28535359708829L81.79501805555556,115.42967049158631L81.80424513888889,113.30621896161844L81.96418125,113.19002304363774L82.17025277777779,112.30782632618264L82.227153125,112.68686246237625L82.23022881944445,111.64824247742575L82.51626840277778,112.85898715312211L82.55317673611111,111.83018395853993L82.91610868055557,112.05611037512395L82.95916840277778,111.60412455840772L83.89879305555556,108.9606414017113L84.192521875,108.03584317436012L84.34784444444445,108.95104757128273L84.4616451388889,108.74054520943629L84.47702361111111,109.71066045899511L84.72154131944444,108.1982296087304L84.84149340277779,107.60297943190491L84.95221840277779,106.89674599247628L85.31207465277778,107.31867259548576L86.04408993055556,106.17795355729145L86.12098229166666,104.91827213437487L86.42240034722222,104.68117161395826L86.66999375,104.0742863017083L86.78687013888889,105.77269678102498L87.48505277777778,103.78765973528165L88.33548229166666,100.61030417450232L88.61075694444445,101.35151583803473L88.92755347222223,102.3518261694875L89.00290798611111,101.2065957016925L89.09979236111111,101.89612408768217L89.39967256944443,100.3874244526093L89.98405451388888,100.6867880048989L90.17628541666666,99.22178113627267L90.40081111111111,99.87677701509693L90.81295416666667,98.28344120905817L90.8698545138889,100.08323139210155L90.90214930555555,98.88177216859427L91.54650729166667,99.1491466344899L91.943271875,102.80286298069393L92.58762986111111,105.64409278841636L92.59839479166668,105.64520567304982L92.60147048611111,104.7534984038299L93.49188402777779,103.20318237563127L93.53186805555556,104.8394927587121L93.60568472222222,103.06057065522727L93.93017048611111,101.68592572646969L93.98707083333333,103.63413876921514L94.67141284722223,102.91014992819575L94.79905416666666,103.68525662358412L96.42455868055555,102.72940397415047L96.59218402777778,101.50443405115695L97.04123541666668,99.41245209736083L97.14888472222223,96.73880459174983L97.15196041666667,95.48369942171657L98.72825381944445,92.13217798636326L98.95431736111111,90.11143179181795L99.32801423611112,89.70777574175743L99.71862743055556,91.15691544505447L99.79398194444444,88.16189926703268L100.427575,89.2853895602196L100.47063472222221,86.39981706946509L100.81049895833334,90.19480690834573L100.93045104166666,91.90884247834076L101.22110416666666,92.18993048700446L101.61171736111112,92.54295829220267L102.36833819444443,91.2871499753216L102.97732569444445,91.34983165185963L103.01115833333333,89.46994065778244L103.01423402777777,89.73833939466947L103.08805069444445,86.93954530346835L104.3244798611111,87.98656051541434L104.5736111111111,84.02506130924861L104.98882986111111,88.88795345221583L105.01343541666667,86.83248040466283L105.06726006944444,87.31019657613103L105.10570625,85.64982627901195L105.24257465277778,85.47714576740717L105.49785729166666,83.99441246044431L105.85617569444445,83.60873080959993L106.50514722222222,83.16836348575995L107.31866840277777,86.48101809145598L107.63700277777778,84.21323585487357L107.77848472222223,84.72581651292414L107.79386319444444,83.05194824108781L107.89843680555556,82.53191894465269L107.90766388888889,80.81619303345828L108.51972708333334,80.03013248674164L108.77347187500001,78.40062115871166L109.73770208333335,78.26858102856033L109.82997291666666,81.35077361713618L109.92378159722222,78.30554750361505L109.95761423611111,80.37732850216902L110.27902430555557,79.17189710130143L110.65425902777778,76.41805492744751L110.71577291666668,76.87008295646852L110.84495208333333,74.94846644054778L111.16636215277777,74.11507986432866L111.44471250000001,72.4350479185972L111.54313472222222,74.83182041782497L112.16750069444446,74.27863391736166L113.15941215277778,73.29034701708366L113.80223229166667,73.20010404358355L114.337403125,72.32856242615011L114.81874930555556,71.78597078902341L115.62458125,73.41479080674738L115.70916284722223,71.8083744840484L115.79220659722222,73.4356080237624L115.86909895833332,73.4114064809241L115.98289965277777,71.63671888855447L116.0321107638889,72.59757299979935L117.19472326388889,73.56741879987959L117.37465138888889,76.35445127992776L117.38080277777777,74.17200410128999L118.20662673611112,74.51453579410732L118.36348715277778,74.24559647646441L118.70335138888889,76.16398288587862L118.71872986111111,76.87005639819384L119.09704027777778,74.95336717224964L119.126259375,74.31960363668311L119.24621145833333,75.93551218200987L119.59068923611112,73.51009897587261L119.69218715277779,72.66451771885687L121.08547673611112,71.00421063131414L121.54375520833334,73.86023471212181L121.60526909722222,75.75576582727308L122.337284375,76.55875116303052L123.34765,77.88620903115165L123.45222361111111,78.84493375202433L123.54603229166666,82.45621025121461L123.71673333333334,83.24385115072876L123.81361770833333,80.63122735710391L124.274971875,81.31794474759569L124.4210673611111,80.3926418485574L124.45951354166667,77.13329344246777L124.72863680555555,75.369434398814L124.91010277777778,74.46845230595507L124.99160868055556,75.57248805023973L125.61905034722223,74.91970116347714L126.06348819444445,75.59986236475295L126.07117743055555,75.68837575218511L126.64633229166667,74.92777545131106L127.00003715277778,76.09391527078662L127.75204444444444,75.21780749580532L128.17956597222224,77.81914283081652L128.19186875,76.39061069848991L128.26260972222224,71.5313247524273L128.4563784722222,76.15546151812305L128.65783645833332,76.6609019108738L129.57746909722223,75.20891614652429L129.6020746527778,74.09680802124792L130.0311340277778,73.92612647941543L130.39560381944443,72.10042588764925L130.55092638888888,69.40708886592287L130.9384638888889,69.62500331955371L131.77351493055556,69.53204365839889L132.24255833333333,69.23289286170602L132.2671638888889,71.78215238369026L132.65931493055555,71.90554143021417L133.21755347222222,68.54036652479517L133.39286805555554,69.38767824821042L134.02953680555555,70.70977361559292L134.06952083333334,69.71090583602242L134.40938506944445,68.33721016828012L134.94609375,70.0622844343014L135.0845,70.00091232724753L135.13063541666668,71.70458906301516L135.485878125,72.18350343780911L135.56430833333334,69.8551853960188L135.9087861111111,70.45681957094459L136.56237118055554,71.3635500759001L137.4035736111111,71.70846337887339L137.58350173611112,71.77282802732405L137.58965312499998,71.82128014972776L137.88338194444444,68.48243475650332L137.88799548611112,69.02596085390198L138.46622604166666,72.84168067900787L138.5461940972222,71.94142507407139L139.33203402777778,71.57335504444283L139.5058107638889,71.11159635999903L139.53964340277776,72.42754114933274L139.6811253472222,72.92702468959966L139.7011173611111,71.41492314709313L139.89488611111113,72.8652038882559L140.26089375,72.39066399962022L140.99906041666665,70.25727339977215L141.00367395833334,73.07773903986326L141.2374267361111,74.48485175725129L141.37890868055555,75.37091105435076L141.4035142361111,73.06071329927715L142.23702743055554,72.52517797956631L142.39388784722223,70.80506512107311L143.02132951388887,69.1903724059772L143.1612736111111,67.75939011025298L143.16896284722222,66.37225906615178L143.49652430555557,68.35968877302442L143.63646840277778,65.42460493048131L143.76410972222223,66.54717962495545L143.79179097222223,68.52855777497327L143.83331284722223,70.50405133165061L144.15626076388887,68.70001413232369L145.3188732638889,66.86288347939421L146.27541423611112,69.10393842096984L146.59528645833333,67.27486305258192L146.88132604166665,66.08645949821583L146.97974826388887,67.32533403226282L147.83171562500002,65.52674208602437L148.5975635416667,64.13537858494796L149.20962673611112,65.3434354843021L149.31420034722223,65.13410295724793L149.37417638888888,65.73371177434876L150.00161805555555,65.74685206460926L150.08466180555558,63.83231957209887L150.3445579861111,62.19439174325932L151.37952916666666,63.06521837928892L151.6978635416667,64.12117269424004L151.98851666666667,60.71570361654402L152.24072361111112,64.14221383659309L152.32991875,66.89628663528919L153.21418090277777,62.81343864784016L153.54943159722222,63.86439652203744L153.57249930555557,65.82247124655579L154.47829131944445,62.43219108126681L154.5382673611111,61.36906464876007L154.6674465277778,58.88989712258939L154.7043548611111,59.40102160688694L154.87966944444443,60.71561296413219L155.5809277777778,58.723992778479314L156.41751666666667,58.10918733375425L156.80966770833334,57.57067906691921L157.45248784722222,60.23936577348485L157.81541979166667,58.47511946409091L158.19834375,59.415196678454535L158.28600104166665,60.90849300707272L158.48592118055558,63.24013747091031L158.84577743055556,59.810957482546186L159.0364704861111,57.67478282286103L159.59778472222223,61.130286360383295L160.18831805555556,57.12904681622996L160.36670833333335,56.203303089737986L160.4605170138889,56.67544018717612L160.66043715277777,54.67493077897235L160.90956840277778,52.20366680071673L161.01260416666668,54.789450080430015L161.08488298611113,53.33929504825804L161.6508107638889,55.999368695621484L162.07833229166667,55.6361212173729L163.12099270833335,51.06446439709039L163.32091284722222,49.41051197158758L163.35782118055556,49.22201551628589L164.45738194444445,50.982167643104845L164.5558041666667,52.81755058586289L164.79263263888888,51.46290535151773L165.31857638888889,51.80553487757729L165.436990625,50.275529259879704L165.71841666666668,46.91148422259448L165.78146840277776,46.562265533556655L166.16900590277777,49.98123432013399L166.69956319444447,53.660032258747066L166.72109305555554,52.150311021914916L167.11170625,52.0188532798156L167.2178177083333,50.76489530122271L167.35622395833335,48.89397884740029L167.65764201388887,48.02463730844019L168.05902013888888,46.04524071839745L168.12668541666667,45.45497776437182L168.17282083333333,45.68590332528976L169.49383159722223,46.827458661840524L170.1305003472222,41.73285019710434L170.5518704861111,40.1215851182626L170.5641732638889,39.53095107095757L170.61799791666667,39.6018623092412L170.76255555555556,38.04157571887805L170.87020486111112,35.54927876466016L171.27312083333334,37.29152559212943L171.64835555555555,35.740873688611L171.84827569444445,37.2860242131666L172.24811597222222,33.87907286123328L172.50955,38.54615205007332L172.64334270833334,37.96864956337731L173.00627465277776,38.809523071359735L173.17082430555556,38.65767217614919L173.21388402777777,38.02081163902284L173.77827395833333,38.22623698341371L173.89053680555557,36.626200523381584L174.29191493055555,39.92401198069561L174.59640868055556,37.9988655217507L174.65946041666666,36.0964443130504L174.93319722222225,35.57694992116359L175.03469513888888,37.21225328603151L175.7282642361111,36.93476863828556L175.7974673611111,38.331777849638L176.232678125,39.693608376449475L176.45105243055556,38.83904002586971L176.79860590277778,40.99604901552178L176.85243055555554,41.53554607597977L176.9939125,44.58553597892117L177.02466944444444,39.601029920686045L177.40913125,39.27024295241162L177.98121041666667,39.890395771446975L178.11654097222223,44.77844579620154L178.78242881944445,44.52773414438758L178.80395868055555,46.74222381996586L178.9377513888889,43.01658429197954L179.07923333333335,41.631783908521044L179.2207152777778,42.285737011779304L179.41140833333333,42.12006720706759L180.56940729166666,42.30583199090722L180.62476979166667,45.310749194544314L180.813925,44.918407850059936L181.0830482638889,43.136711376702635L181.33064166666668,42.76340182602155L181.39061770833334,40.550624428946264L181.8150635416667,40.26529132403442L182.14570069444443,39.10092479442065L182.2933340277778,39.78634654331907L183.28832118055558,41.41201625932476L183.50515763888887,39.9585847555949L183.64971527777777,44.15315085335692L183.94805763888888,41.49755717868081L184.07416111111112,41.428367640541836L184.10491805555554,42.920853917658434L184.18181041666668,38.946387350595046L184.20949166666665,43.944082410357055L184.21871875,44.48682444621423L184.32944375000002,41.35113633439519L184.5432045138889,39.459890133970475L184.80310069444445,36.95339241371562L184.94150694444446,35.1176187815627L185.05223194444443,35.50590460227093L185.12297291666664,35.64545942802923L185.34749861111112,36.134817323484185L185.78578506944444,36.92747372742386L186.59930625,37.270317569787636L186.81768055555554,37.51781554187261L187.04681979166665,36.27981432512357L187.51740104166666,36.03113859507414L188.15099409722222,34.566724823711155L188.17559965277778,39.620034894226706L188.38936041666668,43.05272926986933L188.6677107638889,40.01867922858827L188.9045392361111,38.85708253715296L188.92760694444442,42.67362452229179L188.97989375,41.14821638004173L189.32590937499998,39.41680482802505L189.37204479166667,40.62241623014839L189.37512048611111,40.93769973808904L189.56119999999999,40.95478650952009L190.83146180555556,40.54958023904538L190.83915104166667,43.03520647676058L190.93142187499998,41.54462388605634L190.93449756944446,39.22689933163383L191.30973229166668,38.72618126564697L191.67573993055558,42.35662542605485L192.13709409722222,39.63051692229959L192.80144409722223,39.794351820046444L193.090559375,40.101611092027866L193.94406458333333,39.72054998855006L194.01941909722223,40.96937165979671L194.02864618055557,38.19341466254468L194.04863819444446,39.97442379752681L194.38235104166668,40.3006126118494L195.0359361111111,38.06749256710964L195.18049374999998,38.73116220693245L195.30813506944443,38.67211399082612L195.47883611111112,36.994518394495685L196.22622986111114,45.558252703364076L196.60454027777777,45.73557662201844L196.61530520833335,46.105012639877714L196.84290659722222,44.03796591725995L197.61183020833332,43.141904550355974L198.08856284722225,42.54280939688027L198.56221979166668,40.31256063812816L198.58067395833334,42.98886971621022L198.60220381944444,40.68344682972614L198.72523159722223,39.33952643116902L198.75598854166665,39.96884085870141L199.02203611111113,40.8749711818875L200.46453680555555,39.855149375799186L200.49836944444445,41.197631292146184L200.94895868055556,41.06649544195437L200.95972361111112,40.52073059850596L201.43799409722223,42.92939669243691L201.5533326388889,47.796596348795475L201.71480659722224,44.03762447594397L201.7886232638889,43.71940801889971L201.86090208333331,42.193603144673176L202.63751493055557,46.36687022013723L202.66980972222223,45.549622132082334L203.11424756944444,45.954106612582706L203.23881319444445,44.19817230088296L203.40028715277776,46.974695047196434L203.48025520833332,51.47015036165121L203.6309642361111,47.94784021699073L203.68017534722225,47.15949579686111L203.86933055555554,50.605072478116696L203.9892826388889,55.05946015353666L204.7320628472222,51.097051092122015L205.03348090277777,49.60706398860654L205.25031736111112,48.86548839316393L205.36258020833333,50.71416803589837L205.53635694444444,49.59858415487237L205.8577670138889,48.82844215959008L206.211471875,47.00566946242071L206.22223680555555,44.96677667745243L206.48367083333332,41.79398267313812L206.64975833333335,41.36038960388288L207.09265833333333,41.8610879289964L207.21568611111113,44.112194424064484L207.4863472222222,44.21894165443868L207.84005208333335,46.527448325996545L208.121478125,48.51238566226459L208.14762152777777,46.78776473069209L208.20298402777777,48.27524217174857L208.22451388888888,49.494686969715815L208.31832256944446,44.13460384849617L208.59974861111112,44.61342897576438L208.9088559027778,43.58305738545863L208.9319236111111,43.08775109794183L209.2625607638889,39.088317325431774L210.01303020833333,41.12594872859236L210.2344802083333,40.89565257048878L210.4697708333333,45.33489154229326L210.67122881944442,46.42510159204264L210.67276666666666,45.90660262189226L210.86499756944445,45.03008657313535L211.01878229166667,43.49380194388121L211.05107708333333,45.63511449966205L211.09721249999998,46.76256869979724L211.8676739583333,45.52645788654502L212.1475621527778,42.58704139859367L212.17985694444445,46.11372483915622L212.26136284722222,43.340109903493726L212.47512361111112,45.02664927542955L212.83036631944444,45.11669789859107L213.68387152777777,47.21360207248799L213.99451666666667,46.925452910159464L214.04680347222222,46.698480079429004L214.60042847222223,50.20308804765739L214.903384375,47.90543616192775L215.4216388888889,47.065220030489996L215.6723079861111,46.08663201829398L215.86146319444444,50.18506254430973L216.08752673611113,50.520120859919146L217.24552569444444,50.632655849284816L217.87758090277777,47.673968509570926L217.91602708333335,46.87225610574254L217.96062465277777,47.67202033011219L218.18207465277777,44.71512886473397L218.501946875,46.78336898550705L219.1509184027778,49.843479724637575L219.21089444444445,46.841546168115855L219.25549201388887,49.185136034202856L219.27548402777776,47.39545662052171L219.44772291666666,47.84335730564635L219.47386631944445,46.275722716721134L219.50308541666666,47.76397529669936L219.90907708333333,47.20651017801961L221.62531458333333,45.53223944014508L221.62839027777778,47.29084366408705L221.66529861111113,46.502256198452244L222.08820659722224,49.32818705240467L222.85559236111112,49.18245389810946L222.91249270833333,48.849180672199026L223.13855625000002,47.643758403319424L223.89056354166667,47.655546708658306L223.8982527777778,45.65907802519499L224.28732812500002,49.6409051484503L224.44265069444447,49.768334755736845L224.47955902777778,48.942584186775434L224.58259479166668,49.17725884539861L225.63294444444443,51.61906364057249L226.031246875,52.243396517676814L226.3895652777778,49.011621243939445L226.66945347222222,46.33997274636366L227.20308645833333,43.94785864781821L227.24614618055554,43.95317352202426L227.526034375,46.827695779881225L227.59985104166668,48.27215913459537L227.65521354166668,47.79658714742388L228.09042430555556,45.12174395512099L228.16731666666666,43.558629706405924L228.45643194444443,42.96492782384354L228.97930000000002,43.50108169430612L229.11463055555555,49.20898234991701L229.1792201388889,46.873847743283534L229.30071006944445,45.01305864597012L229.4421920138889,46.65237685424876L229.79128333333333,45.78484277921592L230.16498020833333,45.758447334196205L230.23418333333333,45.518901733851095L230.24341041666668,47.18204937364396L230.32030277777778,45.030812957519714L231.23839756944443,48.72065444117851L232.04730520833334,48.227934331373746L232.39639652777777,51.64930226549092L233.560546875,48.48799802596122L233.97422777777777,52.1224654822434L234.21259409722222,46.93552095601268L234.24335104166664,44.62477090694094L234.40328715277778,42.326279210831245L234.93538229166666,41.25201752649872L235.3306090277778,40.228877182565924L235.55205902777777,41.78570130953955L236.079540625,45.94267078572372L236.23486319444444,46.30301913810092L236.3502017361111,44.65089481619387L236.71620937499998,46.582578556383L236.79463958333335,47.1614221338298L236.96841631944446,44.12114494696456L236.9914840277778,42.49610363484541L237.18371493055557,40.975328847573934L237.2221611111111,43.170197308544346L237.23753958333333,41.24457671845994L237.46667881944444,45.16566269774262L237.62353923611113,45.42135595197891L237.93726006944445,44.92331357118735L237.9695548611111,48.31444647604576L238.1494829861111,44.665459552294095L238.653896875,45.7112340647098L238.83228715277778,43.214157105492546L238.89072534722223,42.873785929962196L238.90764166666665,46.961813224643976L239.15523506944444,48.14858793478638L239.37514722222224,48.43781942753853L239.4628045138889,48.31389998985645L240.15022222222223,47.48483999391388L240.53929756944444,48.89507066301499L240.5977357638889,48.00808406447567L240.60850069444444,46.168058772018725L240.72076354166668,45.12058526321124L240.74075555555555,49.5931428245934L241.54658750000002,45.9046773614227L241.7880295138889,47.074264750186956L241.85108125000002,44.67114218344551L242.00794166666665,44.237185310067304L242.7291920138889,44.446352852707065L242.95217986111112,42.86577004495754L243.15671354166665,44.52079536030786L243.67804375,43.200518882851384L244.09172465277777,41.5626863297108L244.20091180555556,43.60127846449316L244.4884892361111,45.68485041202922L244.91908645833334,44.33407691388422L245.21281527777776,44.010362814997194L245.29585902777777,43.816134355664985L245.5542173611111,46.418513946732304L245.57728506944443,44.19902503470604L245.74491041666667,40.16562335415696L245.88177881944443,43.866832345827504L246.2862326388889,46.340766074163184L246.5245989583333,43.40504297783124L246.61225625,43.944609120032055L246.64916458333335,45.5983071386859L246.709140625,45.08848428321156L247.05823194444446,44.58100723659359L248.1547170138889,47.61493767528947L248.53917881944443,45.044712605173714L248.72064479166664,43.15595256310422L248.73294756944446,43.44852987119586L249.07896319444444,43.41265958938419L249.12663645833334,43.62467908696385L249.16354479166668,43.985432452178316L249.31886736111113,43.76430113797363L249.76484305555556,44.806705682784184L250.07548819444446,42.48706507633719L251.41341527777777,41.232947379135624L251.66100868055557,42.40289342748139L251.80095277777778,41.61511105648884L252.20079305555555,41.61444163389331L252.6313902777778,42.11062331366932L252.6590715277778,42.74020732153491L252.6790635416667,44.01770772625429L252.94049756944446,42.69216630241925L253.28036180555554,41.60921644811822L253.34187569444444,41.89607153553757L253.48489548611113,41.98460125465587L253.96009027777777,42.06967741946019L254.54447222222223,44.188181451676115L254.58138055555557,43.17549220433898L255.0212048611111,42.84075365593674L255.0627267361111,40.687993860228715L255.1872923611111,43.15267131613723L255.5025510416667,42.841811123015674L255.68401701388888,43.80333667380941L256.0638652777778,43.4854186709523L256.1699767361111,44.96141786923806L256.5159923611111,44.26630905487619L256.7112989583333,45.554097932925686L256.7774263888889,45.651958759755416L257.52789583333333,45.840966922519925L258.02462048611113,43.55012182017862L258.25683541666666,46.17286475877384L258.41369583333335,48.651177188597615L258.48289895833335,47.77324797982524L258.49212604166667,46.322157121228486L258.6751298611111,44.93033593940376L258.9150340277778,45.73986823030893L259.4824996527778,43.101045938185365L260.1837579861111,45.47321089624455L260.44826770833333,44.684009871080065L260.63588506944444,47.27111425598136L260.8557972222222,48.81108522025548L261.04649027777776,46.032817798819934L261.2202670138889,48.07548234595862L261.37866527777777,50.596622740908515L261.49246597222225,49.19864031121176L261.66162916666667,50.41255918672705L262.0799236111111,49.68311884536958L262.4013336805556,46.280704640555086L262.4813017361111,46.225589450999735L262.6550784722222,44.23322867059986L263.31481493055554,47.66931220235992L263.66236840277776,45.62800398808261L263.68697395833334,47.235219059516226L263.88381840277776,47.47433976904307L264.32210486111114,47.48752052809249L265.2924864583333,43.596512316855495L265.43550625,42.761490723446656L265.49086875,45.94797776740134L265.753840625,47.79349499377415L266.19366493055554,44.60363866293116L266.37205520833334,42.20297486442536L266.57043749999997,44.01986825198853L266.79496319444445,43.03271261785977L267.00872395833335,40.451627570715885L267.55619756944446,42.99855987576285L267.58387881944446,45.10688592545773L267.68845243055557,43.11213155527466L267.8929861111111,42.018528933164816L268.4758302083333,44.08620069323223L268.48505729166664,45.30959541593933L268.4896708333333,46.2943822495636L268.49889791666664,46.82379601640483L268.5112006944445,46.96690260984292L268.5158142361111,49.02189156590575L268.51888993055553,51.73234327287679L268.5204277777778,53.15703096372606L268.5281170138889,51.39126024490231L268.5296548611111,47.26625614694137L268.5342684027778,49.294920354831504L268.5373440972222,50.63257721289891L268.5388819444444,50.08062966107268L268.5419576388889,46.82896112997693L268.549646875,46.92575167798617L268.5650253472222,48.51782600679172L268.57425243055553,46.81807060407505L268.577328125,47.521509029111684L268.5788659722222,46.308780417467005L268.5850173611111,46.394851583813534L268.5865552083333,46.95291095028813L268.5927065972222,46.71003823683955L268.5957822916667,48.73256460877042L268.605009375,49.71991376526225L268.6065472222222,48.93565659249069L268.6111607638889,48.5216439554944L268.6173121527778,49.37948637329666L268.63576631944443,47.605483490644644L268.64345555555553,47.57358176105345L268.6449934027778,45.868024056632095L268.6480690972222,47.71110610064591L268.6619097222222,47.49191366038755L268.66344756944443,49.051731529565856L268.6726746527778,49.20587225107285L268.6742125,46.11481501731038L268.6957423611111,47.01843067705289L268.70189375,45.29401673956508L268.70496944444443,44.12907671040571L268.7080451388889,43.764446026243405L268.7126586805556,44.19712594907935L268.7172722222222,44.4960672361143L268.7311128472222,47.52218200833525L268.74033993055554,45.001350871667825L268.743415625,47.56231052300069L268.76033194444443,50.52717798046709L268.76186979166664,49.8207234549469L268.771096875,49.00720490630148L268.78186180555554,51.2269479437809L268.8187701388889,49.82758543293521L268.8203079861111,47.12946792642779L268.82338368055554,47.0323057558567L268.8279972222222,48.117133453514015L268.83107291666664,48.40173840544173L268.8633677083333,48.92650137659837L268.86798125,48.80377582595901L268.8741326388889,52.503682162242086L268.8756704861111,52.18662596401191L268.87720833333333,51.70139224507383L268.8802840277778,51.42254368037763L268.8864354166667,48.77969287489324L268.89104895833333,47.378357391602606L268.8941246527778,48.08138943496158L268.8972003472222,45.1451253276436L268.9079652777778,45.05257519658613L268.91257881944443,46.71542011795171L268.9141166666667,45.812835404104334L268.91873020833333,45.44336790912928L268.92641944444443,47.338312412144234L268.9387222222222,47.59273744728654L268.9448736111111,48.868850801705264L268.94794930555554,50.934977147689835L268.951025,49.75073628861391L268.9525628472222,50.955233439835L268.9617899305556,51.128494230567654L268.96794131944444,49.16130487167392L268.9710170138889,47.56061625633768L268.97409270833333,44.45161975380262L268.97870625,49.43022185228156L268.992546875,46.11175811136894L268.99562256944444,45.40884653348803L268.99716041666665,49.81280792009282L269.00331180555554,48.829143085389035L269.01100104166665,48.98873585123343L269.0140767361111,50.83728317740672L269.02945520833333,49.58886990644402L269.03253090277775,49.171696943866436L269.0356065972222,49.72772649965317L269.0555986111111,48.89609423312527L269.06175,48.11932320654179L269.06482569444444,49.91861475725841L269.08020416666665,54.06741885435507L269.0878934027778,50.779617979279706L269.09865833333333,49.88860412090118L269.10327187499996,48.07812080587402L269.10634756944444,45.686455816857745L269.1155746527778,45.22987349011464L269.12633958333333,44.18400742740212L269.13710451388886,45.068362789774596L269.1386423611111,46.86501767386477L269.14018020833333,48.20359393765216L269.1432559027778,48.18073969592464L269.14786944444444,48.08098548422146L269.15094513888886,47.477841290532865L269.16017222222223,49.60378810765306L269.1663236111111,47.88387703125849L269.16786145833333,45.149534552088426L269.1770885416667,44.49963739791974L269.17862638888886,45.20119910541851L269.1801642361111,48.19109446325109L269.18785347222223,48.603448344617306L269.18939131944444,47.899485673437056L269.19554270833333,45.31377473739556L269.21245902777775,47.5752231757707L269.2216861111111,49.059925572129075L269.2278375,48.86662200994414L269.23091319444444,50.55259820596646L269.2355267361111,48.292142256913195L269.23860243055555,46.24753535414794L269.2478295138889,48.02731287915543L269.25244305555555,46.87038772749324L269.25859444444444,43.62448263649597L269.26474583333334,44.75231458189759L269.26782152777776,46.85976374913855L269.27243506944444,48.25206658281647L269.2755107638889,45.8424482830232L269.28166215277776,45.59142730314727L269.28473784722223,49.50443971522169L269.2893513888889,49.44308049579969L269.297040625,48.331973297479834L269.3031920138889,46.23210064515456L269.30472986111107,47.24859372042607L269.30780555555555,47.55119789892231L269.32164618055555,48.69396873935338L269.32318402777776,46.64104791027867L269.34010034722223,46.822837079500545L269.34317604166665,47.02532724770032L269.3447138888889,45.755404681953536L269.35240312499997,47.35836780917211" style="fill: none;" fill="none"></path></g></g></g></g><g opacity="0.2"><g><g><g><path stroke="rgb(255, 112, 67)" stroke-width="2px" d="M30.94148611111111,156.7564444319407L31.36285625,156.63407406886418L31.415143055555557,156.5560317571958L31.47204340277778,156.6360606145859L31.830361805555555,156.4155555868149L31.88726215277778,156.2464912478129L31.93647326388889,156.28444441318513L31.97184375,156.25166666666667L32.04412256944444,156.41941173712414L32.37783541666666,156.2025L32.382448958333335,156.2188889201482L32.38860034722222,156.09122802575428L32.566990625,156.2025L32.65464791666667,155.9753968477249L32.65926145833333,156.04320001125336L32.66848854166667,155.75063495635987L32.67310208333333,156.2458823474248L32.88840069444445,156.0247435681025L33.345141319444444,155.72827960014342L33.498926041666664,155.60402303377788L33.70345972222222,154.7329629421234L33.880312152777776,155.48958333333334L33.886463541666664,155.03233337084453L34.13251909722222,154.12520833333332L34.57080555555555,153.25864583333333L34.73996875,152.81614583333334L34.935275347222216,153.55979166666668L35.236693402777775,152.34291666666667L35.37509965277778,150.7265625L35.48582465277778,149.75552083333332L35.84721875,149.13479166666667L36.09942569444445,148.83979166666666L36.18862083333334,147.67208333333332L36.625369444444445,146.84239583333334L36.64689930555556,147.01447916666666L37.23589479166667,145.66854166666667L37.245121875,145.95739583333332L37.38506597222223,146.18479166666668L37.39736875,147.33406250000002L37.406595833333334,145.31208333333333L37.59728888888889,147.11895833333332L37.989439930555555,146.24010416666667L38.335455555555555,145.26291666666668L38.36159895833333,146.356875L38.37851527777777,146.28927083333332L38.53076215277778,146.20322916666666L38.91676180555556,145.82833333333332L39.15359027777778,145.31822916666667L39.39041875,145.914375L39.462697569444444,144.365625L39.97480069444444,145.42270833333333L40.214704861111116,145.05395833333333L40.38540590277778,144.8265625L40.57148541666667,146.0434375L40.64683993055555,145.02015625L40.78524618055555,144.40864583333334L40.80523819444444,143.96614583333334L41.70949236111111,143.10572916666666L41.855587847222225,142.70010416666668L41.883269097222225,144.89416666666668L41.95401006944444,142.71239583333335L42.08011354166666,144.4209375L42.140089583333335,142.964375L42.553770486111105,143.38229166666667L42.75522847222223,142.3190625L42.78290972222222,145.103125L43.072025,143.58510416666667L43.11508472222222,142.9275L43.13969027777778,143.7571875L43.19812847222222,143.56052083333333L43.45341111111111,144.365625L43.891697569444446,144.42708333333331L44.48376875,143.95385416666667L44.57603958333333,143.1671875L44.89437395833334,143.8125L45.14042951388889,143.8125L45.172724305555555,144.79583333333335L45.62331354166667,142.4665625L45.62638923611111,143.67421875L46.30765555555555,142.60177083333332L46.988921875,140.72729166666667L47.03351944444445,139.89145833333333L47.09349548611111,140.08197916666666L47.311869791666666,141.5446875L47.596371527777784,138.99416666666667L47.61482569444445,137.79572916666666L47.64250694444444,138.54552083333334L47.96545486111111,136.548125L48.29762986111111,138.0784375L48.572904513888886,135.30666666666667L48.732840625,134.97479166666668L48.76359756944444,135.76760416666667L49.02656944444444,136.14249999999998L49.02964513888889,136.22854166666667L50.01386736111111,134.9625L50.018480902777775,132.6946875L50.04616215277778,133.55510416666667L50.645922569444444,132.57177083333335L51.056527777777774,132.3075L51.21800173611111,130.56822916666667L51.284129166666666,133.07572916666666L51.72395347222222,131.04145833333334L51.897730208333336,131.17666666666668L51.916184375,130.10114583333333L52.082271875,132.20916666666668L52.243745833333335,129.86145833333333L52.64051041666667,133.37072916666665L53.220278819444445,132.54104166666667L53.337155208333336,128.6876041666667L53.463258680555555,129.3390625L53.633959722222215,129.984375L53.826190625,130.39614583333332L53.87232604166667,129.8553125L54.18758472222222,129.14854166666666L54.24602291666667,130.26708333333335L54.50284340277778,129.28989583333333L54.53513819444444,129.20385416666667L54.704301388888894,129.2653125L54.80733715277778,128.509375L54.847321180555554,130.8325L54.86731319444445,132.59635416666666L55.41171111111112,132.01864583333332L55.56857152777778,129.81229166666668L55.633161111111114,128.62614583333334L55.957646875,128.53395833333332L56.18986180555555,128.28197916666667L56.53433958333333,129.37593750000002L56.921877083333335,127.92552083333334L57.34017152777778,127.44614583333333L57.51702395833333,127.37239583333334L57.54931875,126.32145833333334L57.57853784722222,127.02822916666668L57.593916319444446,127.15729166666667L57.61237048611111,127.19109375L57.72309548611111,129.84916666666666L58.00452152777778,128.96416666666667L58.33208298611112,125.22135416666667L58.44127013888889,129.97822916666667L58.47510277777778,126.8684375L58.80573993055556,129.13625L58.97028958333333,127.15729166666667L59.04564409722222,128.16520833333334L59.090241666666664,124.44697916666667L59.140990625,123.96145833333333L59.26709409722222,125.98343750000001L59.34244861111111,128.57697916666666L59.63463958333333,124.77270833333333L59.65463159722222,125.0615625L59.920679166666666,127.39697916666667L59.94836041666667,126.54270833333334L60.471228472222215,123.04572916666666L60.72343541666666,122.60322916666667L60.90028784722222,125.90354166666667L61.09405659722222,127.68583333333333L61.134040625,126.06333333333333L61.19709236111112,125.69458333333333L61.40008819444444,130.16875L61.723036111111114,129.36979166666669L61.86451805555555,134.3171875L61.88604791666667,127.99927083333333L62.241290625,135.77989583333334L62.60883611111111,132.82375000000002L62.85642951388889,137.02135416666667L62.905640625000004,133.2478125L62.93024618055556,132.26447916666666L63.05019826388889,139.28302083333332L63.30548090277778,135.6078125L63.64534513888889,135.91510416666665L63.693018402777774,137.51302083333331L63.772986458333335,137.35322916666667L63.892938541666666,136.5296875L64.06671527777777,136.51125L64.49116111111111,134.97479166666668L64.52653159722223,138.244375L64.74798159722222,138.99416666666667L64.760284375,135.54635416666667L64.77258715277777,134.7965625L65.00633993055555,136.46822916666667L65.01249131944444,130.82020833333334L65.38003680555556,128.60770833333333L65.74912013888888,130.23635416666667L65.76296076388888,127.45229166666667L66.07206805555556,131.63760416666668L66.13358194444444,127.36625000000001L66.46421909722221,125.15989583333334L66.49343819444444,126.13708333333332L66.51189236111111,125.01854166666666L66.6010875,122.39427083333334L66.83176458333334,125.41187500000001L67.0362982638889,127.17572916666667L67.5976125,125.56552083333332L67.66527777777777,127.95625L67.76831354166666,125.32583333333334L68.07434513888889,122.76302083333334L68.45265555555555,122.60322916666667L68.90785833333334,122.53562500000001L69.36459895833333,123.420625L69.50146736111111,120.2309375L69.8336423611111,120.01583333333335L70.16274166666666,120.71645833333332L70.53182500000001,118.39947916666667L70.85631076388889,119.8621875L72.70787881944445,120.26166666666667L72.84474722222221,119.32135416666668L72.9062611111111,120.00354166666668L73.26150381944444,121.1159375L73.645965625,117.77260416666667L73.86741562499999,118.06145833333333L73.97660277777779,117.39770833333333L74.44103263888888,114.71197916666667L75.42833055555556,117.71729166666667L75.71744583333334,116.71552083333333L76.31105486111112,119.06322916666667L76.54480763888888,115.9534375L76.62938923611111,117.06583333333333L76.69397881944444,117.36697916666667L76.87852048611111,114.1096875L76.92158020833332,115.27739583333334L77.17071145833333,115.27739583333334L77.3337232638889,114.56447916666667L77.56747604166667,112.505625L78.63320416666667,121.30645833333332L78.74700486111111,116.08864583333333L79.01920381944444,118.23354166666667L79.33907604166667,115.37572916666667L79.46825520833335,114.09739583333334L80.16028645833335,114.62593749999999L80.24486805555554,114.04822916666667L80.40172847222223,117.5021875L80.52168055555555,111.78041666666667L80.96304270833333,116.64791666666667L81.22755243055556,115.9165625L81.60586284722221,114.9946875L81.79501805555556,115.64614583333334L81.80424513888889,110.12104166666667L81.96418125,113.01572916666666L82.17025277777779,110.98453125L82.227153125,113.25541666666666L82.23022881944445,110.09031250000001L82.51626840277778,114.67510416666667L82.55317673611111,110.28697916666667L82.91610868055557,112.395L82.95916840277778,110.92614583333334L83.89879305555556,104.99541666666667L84.192521875,106.64864583333333L84.34784444444445,110.32385416666666L84.4616451388889,108.42479166666666L84.47702361111111,111.16583333333332L84.72154131944444,105.92958333333334L84.84149340277779,106.71010416666667L84.95221840277779,105.83739583333333L85.31207465277778,107.95156250000001L86.04408993055556,104.466875L86.12098229166666,103.02875L86.42240034722222,104.32552083333333L86.66999375,103.16395833333334L86.78687013888889,108.3203125L87.48505277777778,100.81010416666666L88.33548229166666,95.84427083333333L88.61075694444445,102.46333333333334L88.92755347222223,103.85229166666667L89.00290798611111,99.48875L89.09979236111111,102.93041666666666L89.39967256944443,98.124375L89.98405451388888,101.13583333333334L90.17628541666666,97.02427083333333L90.40081111111111,100.85927083333333L90.81295416666667,95.89343749999999L90.8698545138889,102.78291666666667L90.90214930555555,97.07958333333333L91.54650729166667,99.55020833333333L91.943271875,108.28343749999999L92.58762986111111,109.9059375L92.59839479166668,105.646875L92.60147048611111,103.4159375L93.49188402777779,100.87770833333333L93.53186805555556,107.29395833333334L93.60568472222222,100.3921875L93.93017048611111,99.62395833333333L93.98707083333333,106.55645833333334L94.67141284722223,101.82416666666667L94.79905416666666,104.84791666666666L96.42455868055555,101.295625L96.59218402777778,99.66697916666666L97.04123541666668,96.27447916666667L97.14888472222223,92.72833333333334L97.15196041666667,93.60104166666667L98.72825381944445,87.10489583333333L98.95431736111111,87.08031249999999L99.32801423611112,89.10229166666666L99.71862743055556,93.330625L99.79398194444444,83.66937499999999L100.427575,90.970625L100.47063472222221,82.07145833333333L100.81049895833334,95.88729166666666L100.93045104166666,94.47989583333333L101.22110416666666,92.6115625L101.61171736111112,93.07249999999999L102.36833819444443,89.40343750000001L102.97732569444445,91.44385416666667L103.01115833333333,86.65010416666667L103.01423402777777,90.1409375L103.08805069444445,82.74135416666667L104.3244798611111,89.55708333333334L104.5736111111111,78.0828125L104.98882986111111,96.18229166666667L105.01343541666667,83.74927083333334L105.06726006944444,88.02677083333334L105.10570625,83.15927083333332L105.24257465277778,85.218125L105.49785729166666,81.7703125L105.85617569444445,83.03020833333335L106.50514722222222,82.5078125L107.31866840277777,91.45L107.63700277777778,80.8115625L107.77848472222223,85.4946875L107.79386319444444,80.54114583333333L107.89843680555556,81.75187500000001L107.90766388888889,78.24260416666668L108.51972708333334,78.85104166666667L108.77347187500001,75.95635416666667L109.73770208333335,78.07052083333333L109.82997291666666,85.9740625L109.92378159722222,73.73770833333333L109.95761423611111,83.485L110.27902430555557,77.36375000000001L110.65425902777778,72.28729166666666L110.71577291666668,77.548125L110.84495208333333,72.06604166666668L111.16636215277777,72.865L111.44471250000001,69.915L111.54313472222222,78.42697916666667L112.16750069444446,73.44885416666668L113.15941215277778,71.80791666666667L113.80223229166667,73.06473958333333L114.337403125,71.02125L114.81874930555556,70.97208333333333L115.62458125,75.85802083333334L115.70916284722223,69.39875L115.79220659722222,75.87645833333333L115.86909895833332,73.37510416666666L115.98289965277777,68.97468749999999L116.0321107638889,74.03885416666667L117.19472326388889,75.0221875L117.37465138888889,80.535L117.38080277777777,70.89833333333333L118.20662673611112,75.02833333333334L118.36348715277778,73.84218750000001L118.70335138888889,79.0415625L118.71872986111111,77.92916666666666L119.09704027777778,72.07833333333335L119.126259375,73.36895833333332L119.24621145833333,78.359375L119.59068923611112,69.87197916666666L119.69218715277779,71.39614583333334L121.08547673611112,68.51375L121.54375520833334,78.14427083333332L121.60526909722222,78.5990625L122.337284375,77.76322916666666L123.34765,79.87739583333334L123.45222361111111,80.28302083333332L123.54603229166666,87.873125L123.71673333333334,84.42531249999999L123.81361770833333,76.71229166666667L124.274971875,82.34802083333334L124.4210673611111,79.0046875L124.45951354166667,72.24427083333333L124.72863680555555,72.72364583333332L124.91010277777778,73.11697916666665L124.99160868055556,77.22854166666667L125.61905034722223,73.94052083333334L126.06348819444445,76.62010416666668L126.07117743055555,75.82114583333333L126.64633229166667,73.786875L127.00003715277778,77.843125L127.75204444444444,73.90364583333333L128.17956597222224,81.72114583333334L128.19186875,74.2478125L128.26260972222224,64.24239583333333L128.4563784722222,83.09166666666667L128.65783645833332,77.4190625L129.57746909722223,73.0309375L129.6020746527778,72.42864583333333L130.0311340277778,73.67010416666666L130.39560381944443,69.361875L130.55092638888888,65.36708333333333L130.9384638888889,69.95187500000002L131.77351493055556,69.39260416666667L132.24255833333333,68.78416666666666L132.2671638888889,75.60604166666667L132.65931493055555,72.090625L133.21755347222222,63.492604166666666L133.39286805555554,70.65864583333334L134.02953680555555,72.69291666666668L134.06952083333334,68.21260416666667L134.40938506944445,66.27666666666667L134.94609375,72.64989583333333L135.0845,69.90885416666667L135.13063541666668,74.26010416666666L135.485878125,72.901875L135.56430833333334,66.36270833333333L135.9087861111111,71.35927083333333L136.56237118055554,72.72364583333332L137.4035736111111,72.22583333333333L137.58350173611112,71.86937499999999L137.58965312499998,71.89395833333333L137.88338194444444,63.47416666666666L137.88799548611112,69.84124999999999L138.46622604166666,78.56526041666667L138.5461940972222,70.59104166666665L139.33203402777778,71.02125L139.5058107638889,70.41895833333334L139.53964340277776,74.40145833333332L139.6811253472222,73.67625L139.7011173611111,69.14677083333333L139.89488611111113,75.040625L140.26089375,71.67885416666667L140.99906041666665,67.05718750000001L141.00367395833334,77.3084375L141.2374267361111,76.59552083333334L141.37890868055555,76.7L141.4035142361111,69.59541666666667L142.23702743055554,71.721875L142.39388784722223,68.22489583333333L143.02132951388887,66.76833333333333L143.1612736111111,65.61291666666666L143.16896284722222,64.29156250000001L143.49652430555557,71.34083333333332L143.63646840277778,61.02197916666667L143.76410972222223,68.23104166666666L143.79179097222223,71.500625L143.83331284722223,73.46729166666667L144.15626076388887,65.99395833333334L145.3188732638889,64.1071875L146.27541423611112,72.46552083333334L146.59528645833333,64.53125L146.88132604166665,64.30385416666665L146.97974826388887,69.18364583333334L147.83171562500002,62.82885416666666L148.5975635416667,62.04833333333333L149.20962673611112,67.15552083333334L149.31420034722223,64.82010416666665L149.37417638888888,66.633125L150.00161805555555,65.7665625L150.08466180555558,60.960520833333334L150.3445579861111,59.7375L151.37952916666666,64.37145833333334L151.6978635416667,65.70510416666666L151.98851666666667,55.6075L152.24072361111112,69.28197916666667L152.32991875,71.02739583333333L153.21418090277777,56.689166666666665L153.54943159722222,65.44083333333333L153.57249930555557,68.75958333333334L154.47829131944445,57.34677083333334L154.5382673611111,59.774375000000006L154.6674465277778,55.17114583333333L154.7043548611111,60.16770833333332L154.87966944444443,62.6875L155.5809277777778,55.736562500000005L156.41751666666667,57.18697916666666L156.80966770833334,56.762916666666655L157.45248784722222,64.24239583333333L157.81541979166667,55.82875L158.19834375,60.825312499999995L158.28600104166665,63.1484375L158.48592118055558,66.73760416666667L158.84577743055556,54.6671875L159.0364704861111,54.47052083333334L159.59778472222223,66.31354166666665L160.18831805555556,51.12718749999999L160.36670833333335,54.814687500000005L160.4605170138889,57.38364583333335L160.66043715277777,51.674166666666665L160.90956840277778,48.49677083333333L161.01260416666668,58.66812499999999L161.08488298611113,51.1640625L161.6508107638889,59.98947916666667L162.07833229166667,55.09125L163.12099270833335,44.206979166666656L163.32091284722222,46.92958333333334L163.35782118055556,48.93927083333335L164.45738194444445,53.62239583333333L164.5558041666667,55.57062500000001L164.79263263888888,49.4309375L165.31857638888889,52.31947916666667L165.436990625,47.980520833333316L165.71841666666668,41.865416666666675L165.78146840277776,46.038437500000015L166.16900590277777,55.10968750000001L166.69956319444447,59.17822916666667L166.72109305555554,49.885729166666664L167.11170625,51.82166666666667L167.2178177083333,48.88395833333334L167.35622395833335,46.087604166666665L167.65764201388887,46.720624999999984L168.05902013888888,43.07614583333333L168.12668541666667,44.56958333333333L168.17282083333333,46.03229166666668L169.49383159722223,48.53979166666667L170.1305003472222,34.090937499999995L170.5518704861111,37.704687500000006L170.5641732638889,38.64500000000001L170.61799791666667,39.708229166666655L170.76255555555556,35.70114583333333L170.87020486111112,31.810833333333335L171.27312083333334,39.90489583333334L171.64835555555555,33.41489583333333L171.84827569444445,39.60374999999999L172.24811597222222,28.768645833333323L172.50955,45.54677083333334L172.64334270833334,37.10239583333333L173.00627465277776,40.070833333333326L173.17082430555556,38.42989583333332L173.21388402777777,37.06552083333332L173.77827395833333,38.53437499999998L173.89053680555557,34.226145833333334L174.29191493055555,44.87072916666668L174.59640868055556,35.11114583333335L174.65946041666666,33.242812500000014L174.93319722222225,34.79770833333333L175.03469513888888,39.66520833333331L175.7282642361111,36.518541666666664L175.7974673611111,40.42729166666666L176.232678125,41.73635416666667L176.45105243055556,37.5571875L176.79860590277778,44.231562499999995L176.85243055555554,42.34479166666665L176.9939125,49.16052083333334L177.02466944444444,32.12427083333333L177.40913125,38.774062500000014L177.98121041666667,40.82062500000001L178.11654097222223,52.110520833333325L178.78242881944445,44.15166666666667L178.80395868055555,50.06395833333333L178.9377513888889,37.428124999999994L179.07923333333335,39.55458333333334L179.2207152777778,43.26666666666668L179.41140833333333,41.87156250000001L180.56940729166666,42.584479166666654L180.62476979166667,49.81812500000001L180.813925,44.329895833333325L181.0830482638889,40.46416666666667L181.33064166666668,42.20343750000001L181.39061770833334,37.231458333333336L181.8150635416667,39.83729166666666L182.14570069444443,37.354375000000005L182.2933340277778,40.81447916666667L183.28832118055558,43.85052083333332L183.50515763888887,37.778437499999995L183.64971527777777,50.44500000000001L183.94805763888888,37.51416666666668L184.07416111111112,41.32458333333332L184.10491805555554,45.15958333333333L184.18181041666668,32.98468750000001L184.20949166666665,51.440625L184.21871875,45.3009375L184.32944375000002,36.64760416666667L184.5432045138889,36.62302083333333L184.80310069444445,33.193645833333335L184.94150694444446,32.36395833333333L185.05223194444443,36.08833333333334L185.12297291666664,35.85479166666667L185.34749861111112,36.868854166666665L185.78578506944444,38.11645833333333L186.59930625,37.78458333333333L186.81768055555554,37.889062499999994L187.04681979166665,34.42281249999999L187.51740104166666,35.658124999999984L188.15099409722222,32.370104166666664L188.17559965277778,47.20000000000002L188.38936041666668,48.20177083333334L188.6677107638889,35.46760416666666L188.9045392361111,37.1146875L188.92760694444442,48.3984375L188.97989375,38.86010416666667L189.32590937499998,36.819687499999986L189.37204479166667,42.43083333333331L189.37512048611111,41.41062500000001L189.56119999999999,40.980416666666656L190.83146180555556,39.94177083333332L190.83915104166667,46.76364583333333L190.93142187499998,39.30875L190.93449756944446,35.75031250000001L191.30973229166668,37.97510416666668L191.67573993055558,47.80229166666666L192.13709409722222,35.54135416666665L192.80144409722223,40.04010416666665L193.090559375,40.5625L193.94406458333333,39.148958333333354L194.01941909722223,42.84260416666666L194.02864618055557,34.02947916666665L194.04863819444446,42.6459375L194.38235104166668,40.78989583333333L195.0359361111111,34.71781250000001L195.18049374999998,39.72666666666666L195.30813506944443,38.58354166666666L195.47883611111112,34.478125000000006L196.22622986111114,58.40385416666666L196.60454027777777,46.001562500000006L196.61530520833335,46.659166666666664L196.84290659722222,40.93739583333334L197.61183020833332,41.79781250000002L198.08856284722225,41.64416666666668L198.56221979166668,36.967187499999994L198.58067395833334,47.00333333333333L198.60220381944444,37.2253125L198.72523159722223,37.32364583333333L198.75598854166665,40.9128125L199.02203611111113,42.23416666666665L200.46453680555555,38.325416666666655L200.49836944444445,43.211354166666666L200.94895868055556,40.86979166666666L200.95972361111112,39.70208333333332L201.43799409722223,46.54239583333333L201.5533326388889,55.09739583333334L201.71480659722224,38.39916666666667L201.7886232638889,43.24208333333334L201.86090208333331,39.90489583333334L202.63751493055557,52.626770833333325L202.66980972222223,44.32374999999999L203.11424756944444,46.560833333333335L203.23881319444445,41.564270833333325L203.40028715277776,51.13947916666666L203.48025520833332,58.21333333333334L203.6309642361111,42.66437500000001L203.68017534722225,45.976979166666666L203.86933055555554,55.7734375L203.9892826388889,61.741041666666675L204.7320628472222,45.153437499999995L205.03348090277777,47.372083333333336L205.25031736111112,47.75312500000001L205.36258020833333,53.487187500000005L205.53635694444444,47.92520833333333L205.8577670138889,47.67322916666666L206.211471875,44.27151041666667L206.22223680555555,41.90843750000002L206.48367083333332,37.03479166666665L206.64975833333335,40.71000000000001L207.09265833333333,42.61213541666669L207.21568611111113,47.48885416666667L207.4863472222222,44.3790625L207.84005208333335,49.99020833333333L208.121478125,51.48979166666666L208.14762152777777,44.20083333333332L208.20298402777777,50.50645833333333L208.22451388888888,51.32385416666668L208.31832256944446,36.09447916666667L208.59974861111112,45.33166666666665L208.9088559027778,42.037499999999994L208.9319236111111,42.34479166666665L209.2625607638889,33.08916666666667L210.01303020833333,44.182395833333345L210.2344802083333,40.55020833333333L210.4697708333333,51.99374999999999L210.67122881944442,48.06041666666667L210.67276666666666,45.128854166666656L210.86499756944445,43.71531249999998L211.01878229166667,41.189374999999984L211.05107708333333,48.84708333333333L211.09721249999998,48.453750000000014L211.8676739583333,43.672291666666666L212.1475621527778,38.17791666666665L212.17985694444445,51.40375L212.26136284722222,39.1796875L212.47512361111112,47.55645833333335L212.83036631944444,45.251770833333325L213.68387152777777,50.35895833333332L213.99451666666667,46.49322916666665L214.04680347222222,46.35802083333334L214.60042847222223,55.46000000000001L214.903384375,44.45895833333333L215.4216388888889,45.80489583333335L215.6723079861111,44.618750000000006L215.86146319444444,56.33270833333333L216.08752673611113,51.02270833333333L217.24552569444444,50.80145833333333L217.87758090277777,43.235937500000006L217.91602708333335,45.66968750000001L217.96062465277777,48.87166666666667L218.18207465277777,40.27979166666668L218.501946875,49.885729166666664L219.1509184027778,54.43364583333333L219.21089444444445,42.33864583333332L219.25549201388887,52.70052083333334L219.27548402777776,44.7109375L219.44772291666666,48.515208333333334L219.47386631944445,43.92427083333334L219.50308541666666,49.99635416666666L219.90907708333333,46.37031250000001L221.62531458333333,43.02083333333334L221.62839027777778,49.92875000000001L221.66529861111113,45.31937499999998L222.08820659722224,53.56708333333333L222.85559236111112,48.963854166666664L222.91249270833333,48.34927083333332L223.13855625000002,45.83562499999999L223.89056354166667,47.67322916666666L223.8982527777778,42.66437500000001L224.28732812500002,55.61364583333334L224.44265069444447,49.95947916666667L224.47955902777778,47.70395833333333L224.58259479166668,49.52927083333333L225.63294444444443,55.281770833333326L226.031246875,53.17989583333333L226.3895652777778,44.16395833333334L226.66945347222222,42.33249999999998L227.20308645833333,40.35968750000001L227.24614618055554,43.96114583333332L227.526034375,51.13947916666666L227.59985104166668,50.43885416666667L227.65521354166668,47.083229166666655L228.09042430555556,41.10947916666666L228.16731666666666,41.21395833333332L228.45643194444443,42.074375L228.97930000000002,44.305312500000014L229.11463055555555,57.77083333333333L229.1792201388889,43.371145833333344L229.30071006944445,42.22187500000001L229.4421920138889,49.11135416666666L229.79128333333333,44.48354166666667L230.16498020833333,45.71885416666666L230.23418333333333,45.15958333333333L230.24341041666668,49.676770833333336L230.32030277777778,41.80395833333333L231.23839756944443,54.25541666666666L232.04730520833334,47.48885416666667L232.39639652777777,56.78135416666666L233.560546875,43.746041666666656L233.97422777777777,57.57416666666667L234.21259409722222,39.15510416666669L234.24335104166664,41.15864583333334L234.40328715277778,38.87854166666668L234.93538229166666,39.640625L235.3306090277778,38.69416666666666L235.55205902777777,44.1209375L236.079540625,52.178124999999994L236.23486319444444,46.84354166666665L236.3502017361111,42.17270833333333L236.71620937499998,49.48010416666666L236.79463958333335,48.029687499999994L236.96841631944446,39.56072916666665L236.9914840277778,40.058541666666656L237.18371493055557,38.69416666666666L237.2221611111111,46.462500000000006L237.23753958333333,38.35614583333333L237.46667881944444,51.047291666666666L237.62353923611113,45.80489583333335L237.93726006944445,44.17625000000001L237.9695548611111,53.40114583333333L238.1494829861111,39.19197916666667L238.653896875,47.27989583333334L238.83228715277778,39.46854166666665L238.89072534722223,42.363229166666656L238.90764166666665,53.093854166666674L239.15523506944444,49.92875000000001L239.37514722222224,48.87166666666667L239.4628045138889,48.12802083333332L240.15022222222223,46.24125000000001L240.53929756944444,51.01041666666666L240.5977357638889,46.67760416666667L240.60850069444444,43.40802083333335L240.72076354166668,43.549375L240.74075555555555,56.30197916666667L241.54658750000002,40.37197916666668L241.7880295138889,48.828645833333354L241.85108125000002,41.066458333333316L242.00794166666665,43.58625000000001L242.7291920138889,44.76010416666668L242.95217986111112,40.494895833333345L243.15671354166665,47.00333333333333L243.67804375,41.22010416666666L244.09172465277777,39.10593750000001L244.20091180555556,46.659166666666664L244.4884892361111,48.81020833333335L244.91908645833334,42.30791666666667L245.21281527777776,43.52479166666666L245.29585902777777,43.52479166666666L245.5542173611111,50.32208333333334L245.57728506944443,40.86979166666666L245.74491041666667,34.115520833333335L245.88177881944443,49.41864583333333L246.2862326388889,50.05166666666668L246.5245989583333,39.001458333333346L246.61225625,44.753958333333344L246.64916458333335,48.07885416666667L246.709140625,44.32374999999999L247.05823194444446,43.819791666666646L248.1547170138889,52.16583333333334L248.53917881944443,41.189374999999984L248.72064479166664,40.3228125L248.73294756944446,43.88739583333333L249.07896319444444,43.358854166666674L249.12663645833334,43.942708333333314L249.16354479166668,44.52656250000001L249.31886736111113,43.432604166666664L249.76484305555556,46.37031250000001L250.07548819444446,39.00760416666668L251.41341527777777,39.35177083333335L251.66100868055557,44.157812500000006L251.80095277777778,40.4334375L252.20079305555555,41.6134375L252.6313902777778,42.85489583333333L252.6590715277778,43.684583333333336L252.6790635416667,45.93395833333335L252.94049756944446,40.70385416666667L253.28036180555554,39.984791666666666L253.34187569444444,42.32635416666665L253.48489548611113,42.11739583333335L253.96009027777777,42.19729166666667L254.54447222222223,47.3659375L254.58138055555557,41.65645833333335L255.0212048611111,42.33864583333332L255.0627267361111,37.45885416666667L255.1872923611111,46.84968749999999L255.5025510416667,42.375520833333326L255.68401701388888,45.24562499999999L256.0638652777778,43.00854166666667L256.1699767361111,47.17541666666668L256.5159923611111,43.223645833333336L256.7112989583333,47.48578125L256.7774263888889,45.79875000000001L257.52789583333333,46.124479166666674L258.02462048611113,40.11385416666667L258.25683541666666,50.10697916666666L258.41369583333335,52.36864583333333L258.48289895833335,46.45635416666667L258.49212604166667,44.145520833333336L258.6751298611111,42.84260416666666L258.9150340277778,46.95416666666665L259.4824996527778,39.14281250000002L260.1837579861111,49.03145833333333L260.44826770833333,43.50020833333335L260.63588506944444,51.15177083333333L260.8557972222222,51.121041666666656L261.04649027777776,41.865416666666675L261.2202670138889,51.13947916666666L261.37866527777777,54.37833333333333L261.49246597222225,47.10166666666666L261.66162916666667,52.233437499999994L262.0799236111111,48.58895833333332L262.4013336805556,41.177083333333314L262.4813017361111,46.14291666666668L262.6550784722222,41.2446875L263.31481493055554,52.8234375L263.66236840277776,42.56604166666665L263.68697395833334,49.64604166666666L263.88381840277776,47.833020833333336L264.32210486111114,47.507291666666674L265.2924864583333,37.76000000000002L265.43550625,41.50895833333334L265.49086875,50.727708333333325L265.753840625,50.56177083333334L266.19366493055554,39.818854166666654L266.37205520833334,38.601979166666666L266.57043749999997,46.74520833333332L266.79496319444445,41.551979166666655L267.00872395833335,36.58000000000001L267.55619756944446,46.81895833333334L267.58387881944446,48.269375L267.68845243055557,40.120000000000005L267.8929861111111,40.37812500000001L268.4758302083333,47.18770833333335L268.48505729166664,47.1446875L268.4896708333333,47.77156249999999L268.49889791666664,47.61791666666667L268.5112006944445,47.18156250000001L268.5158142361111,52.104375000000005L268.51888993055553,55.798020833333325L268.5204277777778,55.294062499999995L268.5281170138889,48.742604166666666L268.5296548611111,41.078749999999985L268.5342684027778,52.33791666666667L268.5373440972222,52.639062499999994L268.5388819444444,49.25270833333333L268.5419576388889,41.951458333333335L268.549646875,47.070937500000014L268.5650253472222,50.90593749999999L268.57425243055553,44.268437500000005L268.577328125,48.57666666666668L268.5788659722222,44.4896875L268.5850173611111,46.523958333333326L268.5865552083333,47.78999999999999L268.5927065972222,46.34572916666667L268.5957822916667,51.76635416666666L268.605009375,51.20093750000001L268.6065472222222,47.75927083333332L268.6111607638889,47.90062499999999L268.6173121527778,50.666250000000005L268.63576631944443,44.94447916666667L268.64345555555553,47.52572916666668L268.6449934027778,43.309687499999995L268.6480690972222,50.47572916666665L268.6619097222222,47.16312500000001L268.66344756944443,51.39145833333333L268.6726746527778,49.437083333333334L268.6742125,41.478229166666665L268.6957423611111,48.37385416666666L268.70189375,42.70739583333332L268.70496944444443,42.38166666666666L268.7080451388889,43.2175L268.7126586805556,44.84614583333334L268.7172722222222,44.94447916666667L268.7311128472222,52.061354166666675L268.74033993055554,41.22010416666666L268.743415625,51.40375L268.76033194444443,54.97447916666667L268.76186979166664,48.76104166666667L268.771096875,47.786927083333325L268.78186180555554,54.5565625L268.8187701388889,47.72854166666667L268.8203079861111,43.08229166666666L268.82338368055554,46.8865625L268.8279972222222,49.74437499999999L268.83107291666664,48.828645833333354L268.8633677083333,49.713645833333345L268.86798125,48.6196875L268.8741326388889,58.05354166666666L268.8756704861111,51.711041666666674L268.87720833333333,50.97354166666668L268.8802840277778,51.00427083333332L268.8864354166667,44.815416666666664L268.89104895833333,45.276354166666664L268.8941246527778,49.1359375L268.8972003472222,40.74072916666668L268.9079652777778,44.91374999999999L268.91257881944443,49.209687500000015L268.9141166666667,44.45895833333333L268.91873020833333,44.88916666666668L268.92641944444443,50.180729166666666L268.9387222222222,47.97437499999998L268.9448736111111,50.78302083333334L268.94794930555554,54.034166666666664L268.951025,47.97437499999998L268.9525628472222,52.76197916666666L268.9617899305556,51.388385416666665L268.96794131944444,46.210520833333334L268.9710170138889,45.15958333333333L268.97409270833333,39.78812499999998L268.97870625,56.89812499999999L268.992546875,41.1340625L268.99562256944444,44.354479166666664L268.99716041666665,56.41875L269.00331180555554,47.35364583333333L269.01100104166665,49.22812499999999L269.0140767361111,53.61010416666667L269.02945520833333,47.71625L269.03253090277775,48.54593750000001L269.0356065972222,50.56177083333334L269.0555986111111,47.64864583333335L269.06175,46.95416666666665L269.06482569444444,52.61755208333334L269.08020416666665,60.29062499999999L269.0878934027778,45.84791666666666L269.09865833333333,48.55208333333334L269.10327187499996,45.36239583333332L269.10634756944444,42.09895833333334L269.1155746527778,44.545000000000016L269.12633958333333,42.61520833333333L269.13710451388886,46.39489583333332L269.1386423611111,49.56L269.14018020833333,50.21145833333334L269.1432559027778,48.14645833333333L269.14786944444444,47.931354166666665L269.15094513888886,46.573125000000005L269.16017222222223,52.79270833333334L269.1663236111111,45.30401041666667L269.16786145833333,41.04802083333331L269.1770885416667,43.52479166666666L269.17862638888886,46.25354166666668L269.1801642361111,52.6759375L269.18785347222223,49.22197916666666L269.18939131944444,46.84354166666665L269.19554270833333,41.43520833333332L269.21245902777775,50.96739583333334L269.2216861111111,51.28697916666667L269.2278375,48.57666666666668L269.23091319444444,53.081562500000004L269.2355267361111,44.90145833333332L269.23860243055555,43.18062500000002L269.2478295138889,50.696979166666665L269.25244305555555,45.13499999999999L269.25859444444444,38.75562500000001L269.26474583333334,46.4440625L269.26782152777776,50.0209375L269.27243506944444,50.34052083333334L269.2755107638889,42.22802083333332L269.28166215277776,45.214895833333316L269.28473784722223,55.37395833333335L269.2893513888889,49.35104166666666L269.297040625,46.6653125L269.3031920138889,43.08229166666666L269.30472986111107,48.77333333333334L269.30780555555555,48.005104166666655L269.32164618055555,50.408125L269.32318402777776,43.56166666666667L269.34010034722223,47.095520833333325L269.34317604166665,47.32906250000002L269.3447138888889,43.85052083333332L269.35240312499997,49.762812499999995" style="fill: none;" fill="none"></path></g></g></g></g></g></g><g transform="translate(53, 177)" clip-path="url(#clip_1)"><clipPath id="clip_1"><rect width="276" height="23"></rect></clipPath><g><g><line x1="0" y1="0" x2="0" y2="5" style="visibility: inherit;" fill="rgb(0, 0, 0)" stroke="rgb(204, 204, 204)" stroke-width="1px"></line><line x1="30.756944444444443" y1="0" x2="30.756944444444443" y2="5" style="visibility: inherit;" fill="rgb(0, 0, 0)" stroke="rgb(204, 204, 204)" stroke-width="1px"></line><line x1="61.513888888888886" y1="0" x2="61.513888888888886" y2="5" style="visibility: inherit;" fill="rgb(0, 0, 0)" stroke="rgb(204, 204, 204)" stroke-width="1px"></line><line x1="92.27083333333333" y1="0" x2="92.27083333333333" y2="5" style="visibility: inherit;" fill="rgb(0, 0, 0)" stroke="rgb(204, 204, 204)" stroke-width="1px"></line><line x1="123.02777777777777" y1="0" x2="123.02777777777777" y2="5" style="visibility: inherit;" fill="rgb(0, 0, 0)" stroke="rgb(204, 204, 204)" stroke-width="1px"></line><line x1="153.78472222222223" y1="0" x2="153.78472222222223" y2="5" style="visibility: inherit;" fill="rgb(0, 0, 0)" stroke="rgb(204, 204, 204)" stroke-width="1px"></line><line x1="184.54166666666666" y1="0" x2="184.54166666666666" y2="5" style="visibility: inherit;" fill="rgb(0, 0, 0)" stroke="rgb(204, 204, 204)" stroke-width="1px"></line><line x1="215.29861111111111" y1="0" x2="215.29861111111111" y2="5" style="visibility: inherit;" fill="rgb(0, 0, 0)" stroke="rgb(204, 204, 204)" stroke-width="1px"></line><line x1="246.05555555555554" y1="0" x2="246.05555555555554" y2="5" style="visibility: inherit;" fill="rgb(0, 0, 0)" stroke="rgb(204, 204, 204)" stroke-width="1px"></line><line x1="276.8125" y1="0" x2="276.8125" y2="5" style="visibility: inherit;" fill="rgb(0, 0, 0)" stroke="rgb(204, 204, 204)" stroke-width="1px"></line></g><g transform="translate(0, 8)"><text x="0" y="0" dx="0em" dy="0.95em" style="text-anchor: middle; visibility: hidden; font-family: &quot;Helvetica Neue&quot;, sans-serif; font-size: 12px; font-weight: 200;" fill="rgb(50, 49, 63)" stroke="none" stroke-width="1px">-20k</text><text x="30.756944444444443" y="0" dx="0em" dy="0.95em" style="text-anchor: middle; visibility: inherit; font-family: &quot;Helvetica Neue&quot;, sans-serif; font-size: 12px; font-weight: 200;" fill="rgb(50, 49, 63)" stroke="none" stroke-width="1px">0</text><text x="61.513888888888886" y="0" dx="0em" dy="0.95em" style="text-anchor: middle; visibility: inherit; font-family: &quot;Helvetica Neue&quot;, sans-serif; font-size: 12px; font-weight: 200;" fill="rgb(50, 49, 63)" stroke="none" stroke-width="1px">20k</text><text x="92.27083333333333" y="0" dx="0em" dy="0.95em" style="text-anchor: middle; visibility: inherit; font-family: &quot;Helvetica Neue&quot;, sans-serif; font-size: 12px; font-weight: 200;" fill="rgb(50, 49, 63)" stroke="none" stroke-width="1px">40k</text><text x="123.02777777777777" y="0" dx="0em" dy="0.95em" style="text-anchor: middle; visibility: inherit; font-family: &quot;Helvetica Neue&quot;, sans-serif; font-size: 12px; font-weight: 200;" fill="rgb(50, 49, 63)" stroke="none" stroke-width="1px">60k</text><text x="153.78472222222223" y="0" dx="0em" dy="0.95em" style="text-anchor: middle; visibility: inherit; font-family: &quot;Helvetica Neue&quot;, sans-serif; font-size: 12px; font-weight: 200;" fill="rgb(50, 49, 63)" stroke="none" stroke-width="1px">80k</text><text x="184.54166666666666" y="0" dx="0em" dy="0.95em" style="text-anchor: middle; visibility: inherit; font-family: &quot;Helvetica Neue&quot;, sans-serif; font-size: 12px; font-weight: 200;" fill="rgb(50, 49, 63)" stroke="none" stroke-width="1px">100k</text><text x="215.29861111111111" y="0" dx="0em" dy="0.95em" style="text-anchor: middle; visibility: inherit; font-family: &quot;Helvetica Neue&quot;, sans-serif; font-size: 12px; font-weight: 200;" fill="rgb(50, 49, 63)" stroke="none" stroke-width="1px">120k</text><text x="246.05555555555554" y="0" dx="0em" dy="0.95em" style="text-anchor: middle; visibility: inherit; font-family: &quot;Helvetica Neue&quot;, sans-serif; font-size: 12px; font-weight: 200;" fill="rgb(50, 49, 63)" stroke="none" stroke-width="1px">140k</text><text x="276.8125" y="0" dx="0em" dy="0.95em" style="text-anchor: middle; visibility: hidden; font-family: &quot;Helvetica Neue&quot;, sans-serif; font-size: 12px; font-weight: 200;" fill="rgb(50, 49, 63)" stroke="none" stroke-width="1px">160k</text></g><line x1="0" y1="0" x2="276.8125" y2="0" fill="rgb(0, 0, 0)" stroke="rgb(204, 204, 204)" stroke-width="1px"></line></g></g></g></g></svg>