<svg viewBox="0 0 330 200" xmlns="http://www.w3.org/2000/svg"><g><g><g><g><g><line x1="74.78125" y1="177" x2="69.78125" y2="177" style="visibility: inherit;" fill="rgb(0, 0, 0)" stroke="rgb(204, 204, 204)" stroke-width="1px"></line><line x1="74.78125" y1="160.9090909090909" x2="69.78125" y2="160.9090909090909" style="visibility: inherit;" fill="rgb(0, 0, 0)" stroke="rgb(204, 204, 204)" stroke-width="1px"></line><line x1="74.78125" y1="144.8181818181818" x2="69.78125" y2="144.8181818181818" style="visibility: inherit;" fill="rgb(0, 0, 0)" stroke="rgb(204, 204, 204)" stroke-width="1px"></line><line x1="74.78125" y1="128.72727272727275" x2="69.78125" y2="128.72727272727275" style="visibility: inherit;" fill="rgb(0, 0, 0)" stroke="rgb(204, 204, 204)" stroke-width="1px"></line><line x1="74.78125" y1="112.63636363636364" x2="69.78125" y2="112.63636363636364" style="visibility: inherit;" fill="rgb(0, 0, 0)" stroke="rgb(204, 204, 204)" stroke-width="1px"></line><line x1="74.78125" y1="96.54545454545455" x2="69.78125" y2="96.54545454545455" style="visibility: inherit;" fill="rgb(0, 0, 0)" stroke="rgb(204, 204, 204)" stroke-width="1px"></line><line x1="74.78125" y1="80.45454545454547" x2="69.78125" y2="80.45454545454547" style="visibility: inherit;" fill="rgb(0, 0, 0)" stroke="rgb(204, 204, 204)" stroke-width="1px"></line><line x1="74.78125" y1="64.36363636363636" x2="69.78125" y2="64.36363636363636" style="visibility: inherit;" fill="rgb(0, 0, 0)" stroke="rgb(204, 204, 204)" stroke-width="1px"></line><line x1="74.78125" y1="48.27272727272728" x2="69.78125" y2="48.27272727272728" style="visibility: inherit;" fill="rgb(0, 0, 0)" stroke="rgb(204, 204, 204)" stroke-width="1px"></line><line x1="74.78125" y1="32.18181818181819" x2="69.78125" y2="32.18181818181819" style="visibility: inherit;" fill="rgb(0, 0, 0)" stroke="rgb(204, 204, 204)" stroke-width="1px"></line><line x1="74.78125" y1="16.090909090909093" x2="69.78125" y2="16.090909090909093" style="visibility: inherit;" fill="rgb(0, 0, 0)" stroke="rgb(204, 204, 204)" stroke-width="1px"></line><line x1="74.78125" y1="0" x2="69.78125" y2="0" style="visibility: inherit;" fill="rgb(0, 0, 0)" stroke="rgb(204, 204, 204)" stroke-width="1px"></line></g><g transform="translate(64.78125, 0)"><text x="0" y="177" dx="0em" dy="0.3em" style="text-anchor: end; visibility: hidden; font-family: &quot;Helvetica Neue&quot;, sans-serif; font-size: 12px; font-weight: 200;" fill="rgb(50, 49, 63)" stroke="none" stroke-width="1px">-2e+3</text><text x="0" y="160.9090909090909" dx="0em" dy="0.3em" style="text-anchor: end; visibility: inherit; font-family: &quot;Helvetica Neue&quot;, sans-serif; font-size: 12px; font-weight: 200;" fill="rgb(50, 49, 63)" stroke="none" stroke-width="1px">0</text><text x="0" y="144.8181818181818" dx="0em" dy="0.3em" style="text-anchor: end; visibility: hidden; font-family: &quot;Helvetica Neue&quot;, sans-serif; font-size: 12px; font-weight: 200;" fill="rgb(50, 49, 63)" stroke="none" stroke-width="1px">2e+3</text><text x="0" y="128.72727272727275" dx="0em" dy="0.3em" style="text-anchor: end; visibility: inherit; font-family: &quot;Helvetica Neue&quot;, sans-serif; font-size: 12px; font-weight: 200;" fill="rgb(50, 49, 63)" stroke="none" stroke-width="1px">4e+3</text><text x="0" y="112.63636363636364" dx="0em" dy="0.3em" style="text-anchor: end; visibility: hidden; font-family: &quot;Helvetica Neue&quot;, sans-serif; font-size: 12px; font-weight: 200;" fill="rgb(50, 49, 63)" stroke="none" stroke-width="1px">6e+3</text><text x="0" y="96.54545454545455" dx="0em" dy="0.3em" style="text-anchor: end; visibility: inherit; font-family: &quot;Helvetica Neue&quot;, sans-serif; font-size: 12px; font-weight: 200;" fill="rgb(50, 49, 63)" stroke="none" stroke-width="1px">8e+3</text><text x="0" y="80.45454545454547" dx="0em" dy="0.3em" style="text-anchor: end; visibility: hidden; font-family: &quot;Helvetica Neue&quot;, sans-serif; font-size: 12px; font-weight: 200;" fill="rgb(50, 49, 63)" stroke="none" stroke-width="1px">1e+4</text><text x="0" y="64.36363636363636" dx="0em" dy="0.3em" style="text-anchor: end; visibility: inherit; font-family: &quot;Helvetica Neue&quot;, sans-serif; font-size: 12px; font-weight: 200;" fill="rgb(50, 49, 63)" stroke="none" stroke-width="1px">1.2e+4</text><text x="0" y="48.27272727272728" dx="0em" dy="0.3em" style="text-anchor: end; visibility: hidden; font-family: &quot;Helvetica Neue&quot;, sans-serif; font-size: 12px; font-weight: 200;" fill="rgb(50, 49, 63)" stroke="none" stroke-width="1px">1.4e+4</text><text x="0" y="32.18181818181819" dx="0em" dy="0.3em" style="text-anchor: end; visibility: inherit; font-family: &quot;Helvetica Neue&quot;, sans-serif; font-size: 12px; font-weight: 200;" fill="rgb(50, 49, 63)" stroke="none" stroke-width="1px">1.6e+4</text><text x="0" y="16.090909090909093" dx="0em" dy="0.3em" style="text-anchor: end; visibility: hidden; font-family: &quot;Helvetica Neue&quot;, sans-serif; font-size: 12px; font-weight: 200;" fill="rgb(50, 49, 63)" stroke="none" stroke-width="1px">1.8e+4</text><text x="0" y="0" dx="0em" dy="0.3em" style="text-anchor: end; visibility: hidden; font-family: &quot;Helvetica Neue&quot;, sans-serif; font-size: 12px; font-weight: 200;" fill="rgb(50, 49, 63)" stroke="none" stroke-width="1px">2e+4</text></g><line x1="74.78125" y1="0" x2="74.78125" y2="177" fill="rgb(0, 0, 0)" stroke="rgb(204, 204, 204)" stroke-width="1px"></line></g></g><g transform="translate(74, 0)" clip-path="url(#clip_0)"><clipPath id="clip_0"><rect width="255" height="177"></rect></clipPath><g><g><g><line x1="0" y1="0" x2="0" y2="177" fill="rgb(0, 0, 0)" stroke="rgb(60, 60, 60)" stroke-width="1px" opacity="0.25"></line><line x1="28.357638888888886" y1="0" x2="28.357638888888886" y2="177" fill="rgb(0, 0, 0)" stroke="rgb(60, 60, 60)" stroke-width="1px" opacity="0.25"></line><line x1="56.71527777777777" y1="0" x2="56.71527777777777" y2="177" fill="rgb(0, 0, 0)" stroke="rgb(60, 60, 60)" stroke-width="1px" opacity="0.25"></line><line x1="85.07291666666666" y1="0" x2="85.07291666666666" y2="177" fill="rgb(0, 0, 0)" stroke="rgb(60, 60, 60)" stroke-width="1px" opacity="0.25"></line><line x1="113.43055555555554" y1="0" x2="113.43055555555554" y2="177" fill="rgb(0, 0, 0)" stroke="rgb(60, 60, 60)" stroke-width="1px" opacity="0.25"></line><line x1="141.78819444444446" y1="0" x2="141.78819444444446" y2="177" fill="rgb(0, 0, 0)" stroke="rgb(60, 60, 60)" stroke-width="1px" opacity="0.25"></line><line x1="170.14583333333331" y1="0" x2="170.14583333333331" y2="177" fill="rgb(0, 0, 0)" stroke="rgb(60, 60, 60)" stroke-width="1px" opacity="0.25"></line><line x1="198.50347222222223" y1="0" x2="198.50347222222223" y2="177" fill="rgb(0, 0, 0)" stroke="rgb(60, 60, 60)" stroke-width="1px" opacity="0.25"></line><line x1="226.8611111111111" y1="0" x2="226.8611111111111" y2="177" fill="rgb(0, 0, 0)" stroke="rgb(60, 60, 60)" stroke-width="1px" opacity="0.25"></line><line x1="255.21875" y1="0" x2="255.21875" y2="177" fill="rgb(0, 0, 0)" stroke="rgb(60, 60, 60)" stroke-width="1px" opacity="0.25"></line></g><g><line x1="0" y1="177" x2="255.21875" y2="177" fill="rgb(0, 0, 0)" stroke="rgb(60, 60, 60)" stroke-width="1px" opacity="0.25"></line><line x1="0" y1="160.9090909090909" x2="255.21875" y2="160.9090909090909" fill="rgb(0, 0, 0)" stroke="rgb(60, 60, 60)" stroke-width="1px" opacity="0.25"></line><line x1="0" y1="144.8181818181818" x2="255.21875" y2="144.8181818181818" fill="rgb(0, 0, 0)" stroke="rgb(60, 60, 60)" stroke-width="1px" opacity="0.25"></line><line x1="0" y1="128.72727272727275" x2="255.21875" y2="128.72727272727275" fill="rgb(0, 0, 0)" stroke="rgb(60, 60, 60)" stroke-width="1px" opacity="0.25"></line><line x1="0" y1="112.63636363636364" x2="255.21875" y2="112.63636363636364" fill="rgb(0, 0, 0)" stroke="rgb(60, 60, 60)" stroke-width="1px" opacity="0.25"></line><line x1="0" y1="96.54545454545455" x2="255.21875" y2="96.54545454545455" fill="rgb(0, 0, 0)" stroke="rgb(60, 60, 60)" stroke-width="1px" opacity="0.25"></line><line x1="0" y1="80.45454545454547" x2="255.21875" y2="80.45454545454547" fill="rgb(0, 0, 0)" stroke="rgb(60, 60, 60)" stroke-width="1px" opacity="0.25"></line><line x1="0" y1="64.36363636363636" x2="255.21875" y2="64.36363636363636" fill="rgb(0, 0, 0)" stroke="rgb(60, 60, 60)" stroke-width="1px" opacity="0.25"></line><line x1="0" y1="48.27272727272728" x2="255.21875" y2="48.27272727272728" fill="rgb(0, 0, 0)" stroke="rgb(60, 60, 60)" stroke-width="1px" opacity="0.25"></line><line x1="0" y1="32.18181818181819" x2="255.21875" y2="32.18181818181819" fill="rgb(0, 0, 0)" stroke="rgb(60, 60, 60)" stroke-width="1px" opacity="0.25"></line><line x1="0" y1="16.090909090909093" x2="255.21875" y2="16.090909090909093" fill="rgb(0, 0, 0)" stroke="rgb(60, 60, 60)" stroke-width="1px" opacity="0.25"></line><line x1="0" y1="0" x2="255.21875" y2="0" fill="rgb(0, 0, 0)" stroke="rgb(60, 60, 60)" stroke-width="1px" opacity="0.25"></line></g></g></g><g><g><line x1="0" y1="160.9090909090909" x2="255.21875" y2="160.9090909090909" fill="rgb(0, 0, 0)" stroke="rgb(153, 153, 153)" stroke-width="1.5px"></line></g></g><g><g><line x1="28.357638888888886" y1="0" x2="28.357638888888886" y2="177" fill="rgb(0, 0, 0)" stroke="rgb(153, 153, 153)" stroke-width="1.5px"></line></g></g><g><g><g><g><g><path stroke="rgb(255, 112, 67)" stroke-width="2px" d="M28.42144357638889,158.57012642045456L28.47532309027778,158.517328125L28.567485416666667,158.48420742305433L28.634125868055555,158.47848552904188L28.636961631944445,158.49054927719186L28.662483506944447,158.501898540686L28.821286284722223,158.51598849133302L28.831211458333335,158.53476462265567L28.83546510416667,158.54829433793668L28.892180381944446,158.53138047189861L28.89359826388889,158.49393825776275L28.89785190972222,158.45746505526586L28.91344861111111,158.428679294419L28.931881076388887,158.44154293077827L28.955985069444445,158.44244298496724L28.965910243055554,158.44709824791056L28.967328125,158.44222004717344L28.972999652777776,158.42931438016393L29.019789756944444,158.44010082656723L29.0311328125,158.46572201786205L29.046729513888888,158.4501739930548L29.0566546875,158.46406518268364L29.058072569444445,158.46295750903028L29.060908333333334,158.42927718729726L29.07225138888889,158.4558278353875L29.11336996527778,158.451678068367L29.119041493055555,158.43622517411157L29.134638194444445,158.4013263785401L29.13605607638889,158.4146081055296L29.150234895833332,158.4173401700137L29.167249479166667,158.39919144078817L29.233889930555556,158.39265319163326L29.37851388888889,158.3924425856723L29.53164513888889,158.3612983095511L29.5670921875,158.36972034641167L29.588360416666667,158.3788796563647L29.602539236111113,158.39732230182153L29.63798628472222,158.40363017778284L29.63940416666667,158.40284344385884L29.683358506944444,158.38981208101512L29.7202234375,158.3968494901218L29.776938715277776,158.38392744536898L29.80246059027778,158.395277885499L29.8223109375,158.38680944955473L29.843579166666668,158.37014885861396L29.860593750000003,158.38445114918193L29.862011631944444,158.37496854099265L29.86342951388889,158.3574138269975L29.888951388888888,158.36393892907068L29.922980555555554,158.35759786711938L29.93432361111111,158.36197557345037L29.944248784722223,158.3558379054183L29.966934895833333,158.34819899425253L29.9754421875,158.36410974189158L30.002381944444444,158.35246902387382L30.012307118055556,158.3494111894817L30.01939652777778,158.35883435008782L30.063350868055554,158.3434987106658L30.10021579861111,158.34663236923396L30.111558854166667,158.33305453393706L30.124319791666668,158.34780987631353L30.14417013888889,158.36055639109668L30.219317881944445,158.35404975657144L30.24625763888889,158.36246777409414L30.33841996527778,158.35629996328186L30.436253819444445,158.3750606107376L30.439089583333335,158.37820242051788L30.468865104166664,158.36940491857774L30.4858796875,158.36571526708065L30.498640625,158.35922518518882L30.5114015625,158.34546067161887L30.576624131944445,158.3510346208967L30.602146006944444,158.35340951632932L30.614906944444442,158.37931572037508L30.624832118055554,158.3778048961682L30.668786458333333,158.37486078414713L30.711322916666667,158.347916772909L30.75669513888889,158.34849059129843L30.786470659722223,158.33897288652375L30.804903125,158.3425536529048L30.806321006944444,158.37112435993362L30.858782638888886,158.35564696908483L30.87154357638889,158.36125631897488L30.91266215277778,158.33831745581324L30.933930381944442,158.3372109936269L30.941019791666665,158.34836022285094L30.959452256944445,158.34466529173426L30.96795954861111,158.34028386186804L30.972213194444443,158.36115795272283L30.97646684027778,158.3619915107215L31.027510590277778,158.36115764338882L31.045943055555554,158.34351067653128L31.08847951388889,158.31970842910658L31.089897395833333,158.32204707808148L31.09982256944444,158.3384080209934L31.128180208333333,158.34890869513725L31.138105381944445,158.34779917724327L31.157955729166666,158.34838461962576L31.19482065972222,158.35788748925455L31.247282291666668,158.3542960881183L31.329519444444447,158.3325840000461L31.367802256944447,158.3336349976534L31.386234722222223,158.32243704810472L31.495411631944446,158.30760700530664L31.513844097222222,158.2831721999437L31.518097743055556,158.287580468312L31.58048454861111,158.30791557755006L31.597499131944446,158.2977057212393L31.62443888888889,158.32811600182296L31.6343640625,158.31271817949002L31.640035590277776,158.30044412855193L31.681154166666666,158.31315691333728L31.6854078125,158.30453491379168L31.692497222222222,158.30680686235414L31.699586631944445,158.3072676559114L31.701004513888886,158.31349021071966L31.709511805555557,158.3169785630546L31.76480920138889,158.33463766635563L31.774734375,158.32650753532147L31.78040590277778,158.32658220816683L31.8640609375,158.32823336714893L31.87398611111111,158.3191597226093L31.885329166666665,158.3030736840708L31.906597395833334,158.30707569914284L31.94204444444444,158.31331743090323L31.95055173611111,158.30995926159522L31.97181996527778,158.31327271555347L32.038460416666666,158.31836675789745L32.06965381944444,158.33403905057858L32.09942934027778,158.33388855444218L32.12920486111111,158.34484076123297L32.17174131944444,158.3256586562513L32.17599496527778,158.3189544328504L32.17741284722222,158.29232928239608L32.22420295138889,158.29582178261492L32.236963888888894,158.28682141714955L32.278082465277784,158.26393755856512L32.33479774305555,158.29297250996342L32.34046927083333,158.31540808125402L32.4255421875,158.30972891862623L32.46666076388889,158.30461767268488L32.48225746527778,158.30371343353792L32.489346875,158.2902280238245L32.50352569444444,158.28231502054015L32.52479392361111,158.2450982825856L32.574419791666664,158.25067396685398L32.58009131944444,158.25754002316245L32.61128472222222,158.2808789225178L32.67508940972222,158.2749567964107L32.71479010416667,158.25959520557586L32.71620798611111,158.26372119689023L32.75449079861111,158.2922497905918L32.80269878472222,158.27727083276508L32.809788194444444,158.28702102309154L32.82963854166666,158.27098099334947L32.835310069444446,158.29931158925737L32.83956371527778,158.2994659417054L32.840981597222225,158.31386039951943L32.85799618055555,158.33262322419893L32.86650347222222,158.31835877041635L32.86792135416667,158.31344050679982L32.883518055555555,158.30743012066017L32.94023333333333,158.3146923645287L32.95157638888889,158.30538889482992L32.98276979166667,158.30176761888123L32.99269496527778,158.31857182332845L33.02530625,158.34003140284915L33.18836267361112,158.3445615012937L33.23798854166667,158.34705464098315L33.240824305555556,158.3281791481616L33.24933159722222,158.32650271059305L33.26492829861111,158.29912275166464L33.30037534722222,158.29454414121537L33.38970190972222,158.2972871703056L33.409552256944444,158.29078018616565L33.449252951388885,158.28967574708474L33.494625173611105,158.29712947925378L33.50313246527778,158.29591809381975L33.50455034722222,158.30380355721587L33.5229828125,158.29400501961925L33.52581857638889,158.28254642100657L33.55559409722222,158.28015342662195L33.565519270833335,158.2785277146347L33.58820538194445,158.23957778393202L33.61939878472222,158.24517753396708L33.64775642361111,158.2628888999432L33.67186041666667,158.28569290773945L33.70305381944445,158.27295358852456L33.70588958333333,158.26940794557325L33.758351215277784,158.27519257716398L33.75976909722222,158.26561522283924L33.78387309027778,158.273363075568L33.78954461805556,158.25552094412126L33.7909625,158.2452708383319L33.81790225694444,158.24554943631722L33.82215590277778,158.25688781656132L33.850513541666665,158.26286849513826L33.921407638888894,158.2407959921961L33.932750694444444,158.26633727367835L33.96394409722222,158.25764544971346L34.10147864583333,158.24665491041696L34.10573229166666,158.25629879438077L34.11565746527778,158.26550627290197L34.169536979166665,158.2611214126552L34.17095486111111,158.22919194183092L34.18229791666666,158.24375002038056L34.256027777777774,158.23784490470416L34.26028142361111,158.22566652218458L34.30707152777778,158.2189298415552L34.321250347222225,158.23293018126677L34.32408611111111,158.22652310063864L34.34110069444445,158.22498059171085L34.377965624999995,158.20616889617276L34.42759149305556,158.20560584178267L34.43042725694445,158.19981926328538L34.46162065972222,158.18510764945492L34.47438159722222,158.18929063450992L34.48288888888889,158.1914713721955L34.50841076388889,158.17284270088328L34.563708159722225,158.15290899897505L34.61333402777778,158.1645357127148L34.62893072916666,158.15071253916963L34.648781076388886,158.1646708307081L34.69415329861111,158.15716994081868L34.69840694444444,158.16837056037375L34.70124270833334,158.15680381683583L34.72534670138889,158.14269786696985L34.738107638888884,158.14161813709103L34.73952552083333,158.13959041429095L34.74377916666666,158.13829344672544L34.766465277777776,158.11547887477957L34.79340503472222,158.1197609588926L34.90258194444444,158.13628642550373L34.97347604166667,158.1421836352262L34.976311805555554,158.15699481715836L35.02451979166667,158.17982857407927L35.03302708333334,158.16236418258018L35.05996684027778,158.16090177000396L35.085488715277776,158.16328147936724L35.10108541666667,158.14219196779393L35.12518940972222,158.1348270323781L35.143621874999994,158.14351009618582L35.14929340277778,158.15238081952185L35.160636458333336,158.14505296484234L35.197501388888895,158.16644099222188L35.23436631944444,158.17354660890882L35.26697760416666,158.19525316960895L35.27548489583333,158.19683765378443L35.30242465277778,158.18717604749685L35.325110763888894,158.16158514729253L35.40309427083333,158.14647308142688L35.407347916666666,158.1476557448751L35.41869097222222,158.15822383516033L35.43995920138889,158.1571754573261L35.46831684027778,158.1514800706844L35.53637517361111,158.13526658066138L35.603015625000005,158.1185625078225L35.608687152777776,158.10880867181297L35.61861232638889,158.07732695235887L35.642716319444446,158.05613374575933L35.65689513888889,158.06318244504706L35.67816336805556,158.05157485395142L35.693760069444444,158.06171935719266L35.729207118055555,158.07665722260975L35.812862152777775,158.0769017276215L35.858234375,158.04808271963208L35.86248802083334,158.03376123744158L35.86674166666667,157.99447275574286L35.90786024305556,157.97653655971402L35.957486111111116,157.9561701196517L35.974500694444444,157.9388962895047L36.0241265625,157.9222938764633L36.03830538194445,157.92213522745334L36.090767013888886,157.94469571038985L36.10352795138889,157.94335284389632L36.10494583333333,157.95323190609759L36.10919947916666,157.9615950791242L36.11203524305556,157.95275446325724L36.1517359375,157.93423824988605L36.18434722222222,157.91810164080653L36.18718298611111,157.93261775513497L36.20986909722222,157.933538650076L36.218376388888885,157.93383947256842L36.26091284722222,157.92935836622067L36.370089756944445,157.94327679096224L36.39844739583334,157.93574002095693L36.405536805555556,157.93265280863395L36.4324765625,157.94096195958875L36.4579984375,157.92045709885713L36.460834201388884,157.8922350395396L36.55299652777778,157.89561025717654L36.56292170138889,157.89178417464072L36.60120451388889,157.87302919467663L36.64232309027778,157.86565340589078L36.653666145833334,157.86165511075626L36.66075555555555,157.85436076445336L36.71747083333334,157.81664485846258L36.73732118055556,157.7900923044345L36.75858940972223,157.77358676717287L36.80254375,157.7481721245465L36.816722569444444,157.7305787757282L36.92306371527778,157.7200245913372L36.94433194444444,157.7348130412944L36.967018055555556,157.73967491898313L37.00246510416667,157.72345927367573L37.00388298611111,157.72576064744453L37.008136631944446,157.69562492360916L37.02231545138889,157.6743357267028L37.0450015625,157.66940584721434L37.07335920138889,157.68186441022016L37.07619496527778,157.67723762828905L37.08044861111111,157.6585665643238L37.11873142361111,157.65626956698233L37.1215671875,157.660286644375L37.12582083333333,157.66890528107385L37.16693940972222,157.6616145398983L37.24066927083334,157.6510930006812L37.27895208333334,157.62895202447672L37.34275677083333,157.63912017430175L37.372532291666666,157.65302335573523L37.389546875,157.66184033834352L37.40372569444445,157.64126454314552L37.42641180555555,157.64703354337644L37.48596284722222,157.6400820356297L37.50297743055555,157.6605013888849L37.58805034722222,157.6506191477237L37.59939340277778,157.6301095056786L37.657526562499996,157.64596971988345L37.6830484375,157.61589334448604L37.691555729166666,157.58829662367378L37.697227256944444,157.54445218857913L37.72133125,157.52927941290304L37.729838541666666,157.5161518977491L37.78797170138889,157.52968031592874L37.86879097222222,157.5149287616086L37.91841684027778,157.50270832862955L37.92692413194444,157.4695346548575L37.92834201388889,157.4549898541445L37.970878472222225,157.40494072668457L37.98080364583333,157.40477506310702L37.99498246527777,157.37822681815996L38.08005538194445,157.38126052838942L38.099905729166665,157.36445549827775L38.138188541666665,157.35355483481362L38.13960642361111,157.33740844224135L38.175053472222224,157.34030012642629L38.17647135416667,157.31227963082912L38.18781440972222,157.29656487797348L38.19632170138889,157.30618083335796L38.24311180555556,157.2805163011585L38.253036979166666,157.26111410286086L38.289901909722225,157.25315581757476L38.295573437499996,157.2459933608173L38.30408072916667,157.23585126905374L38.335274131944445,157.220664153512L38.46997291666666,157.18665583475172L38.512509375,157.15051709786746L38.5507921875,157.10926794489887L38.55929947916666,157.09167907654535L38.574896180555555,157.0924931291181L38.58198559027778,157.09428174234264L38.604671701388895,157.06870037208566L38.654297569444445,157.06519993714983L38.67414791666666,157.06393519911666L38.6784015625,157.03478869625044L38.69966979166667,157.00669633230723L38.818771875,156.98935809112194L38.85138315972222,156.95869358882794L38.90242690972222,156.9609140026724L38.930784548611115,156.9365132274052L38.939291840277775,156.90426943307375L38.94638125,156.86071791590274L38.94921701388889,156.8376376015852L39.00026076388889,156.81900239256305L39.015857465277776,156.7985096817158L39.02436475694444,156.8141085714988L39.10376614583333,156.79330069730344L39.15480989583334,156.784881849164L39.178913888888886,156.776500340384L39.18600329861111,156.76684505066376L39.205853645833336,156.7668795796883L39.214360937500004,156.76824318421947L39.2398828125,156.76021815557024L39.24271857638889,156.7648626752405L39.24413645833333,156.7423921747619L39.25264375,156.7456513947857L39.261151041666665,156.7433048632617L39.34622395833333,156.74488886557188L39.38876041666666,156.72149926878743L39.40152135416667,156.71603669986322L39.419953819444444,156.69027763214962L39.46816180555555,156.67340512461647L39.50077309027778,156.65427256670029L39.52913072916667,156.66370383275753L39.536220138888886,156.61861427334543L39.540473784722224,156.59993239146542L39.70211232638889,156.5712516523189L39.71770902777778,156.54727435640518L39.78434947916667,156.5299186537192L39.80419982638889,156.51905036789273L39.80987135416667,156.5240524333762L39.811289236111115,156.5005711957204L39.815542881944445,156.48499447387562L39.887854861111116,156.4567198844426L39.896362152777776,156.43577318008926L39.941734375,156.4211450098076L40.03956822916667,156.4385775258723L40.072179513888884,156.41811252896687L40.094865625,156.39393650334293L40.11329809027777,156.35342211437228L40.11613385416667,156.36973231770776L40.175684895833335,156.3054906200279L40.178520659722224,156.3120618705251L40.19128159722222,156.31508466074533L40.21396770833333,156.27742704694353L40.22531076388889,156.2699092002037L40.2607578125,156.25577651881972L40.297622743055555,156.24011548625592L40.345830729166664,156.25483334103942L40.35150225694444,156.21427543307183L40.37277048611111,156.20331763408285L40.379859895833334,156.21666172294726L40.386949305555554,156.21813688587983L40.44366458333334,156.20915629388276L40.44791822916667,156.2105774542672L40.449336111111116,156.21663348724957L40.46209704861111,156.21071971238825L40.501797743055555,156.18085867864943L40.55142361111111,156.19830917442084L40.63507864583333,156.15724388197876L40.768359548611116,156.1184497494627L40.772613194444446,156.11629511542552L40.81798541666667,156.11518563229205L40.84492517361112,156.1081278645174L40.84634305555555,156.0702980326111L40.8477609375,156.06395771798637L40.90589409722222,156.04980370755138L40.92007291666666,156.01330586520533L40.97111666666667,155.9963224377757L40.99522065972222,155.99790766558903L41.05051805555556,155.9745191717574L41.0519359375,155.98464566367258L41.059025347222224,155.98400439275986L41.115740625,155.95486588530207L41.12566579861111,155.97090500699912L41.144098263888885,155.98083979039012L41.15969496527778,155.9570461522602L41.16394861111112,155.9346261961251L41.188052604166664,155.9547760765126L41.19088836805556,155.9309488949977L41.22491753472222,155.9073924998161L41.25894670138889,155.87827199983448L41.33409444444444,155.8634277543965L41.36670572916667,155.80943838804774L41.385138194444444,155.78749852651572L41.38797395833333,155.77934313409142L41.40357065972222,155.77436663318227L41.420585243055555,155.78864374827313L41.429092534722216,155.75691630526399L41.43759982638889,155.7504866065558L41.46737534722222,155.74761635499112L41.52550850694444,155.74689363994653L41.55386614583333,155.78951265663372L41.660207291666666,155.78565627733397L41.75520538194444,155.76159420073694L41.76796631944445,155.7183161727087L41.78639878472222,155.68358981111965L41.80057760416667,155.67028750614406L41.855875000000005,155.71639355666602L41.86154652777778,155.68102976918124L41.8941578125,155.65528673544492L41.94803732638889,155.64401019258224L41.95370885416666,155.60215718468766L41.97214131944444,155.60371106849163L42.01467777777778,155.5833114105061L42.064303645833334,155.58584475809187L42.07139305555555,155.5564457936463L42.08273611111111,155.54396570291803L42.09407916666667,155.54092992808077L42.109675868055554,155.52975000345452L42.15363020833333,155.5281357985636L42.24012100694444,155.50028386643453L42.265642881944444,155.49130803660924L42.272732291666664,155.47664257385742L42.28265746527778,155.47450615738077L42.345044270833334,155.4525451723245L42.36205885416667,155.44728724600114L42.44713177083333,155.41545198731012L42.48399670138889,155.39303548176093L42.52653315972223,155.37819074040303L42.53078680555556,155.36402592772635L42.53787621527778,155.35660770995372L42.54921927083333,155.35674480827652L42.57757690972222,155.36609532744887L42.587502083333334,155.33179445947673L42.613023958333336,155.3298873146654L42.65556041666667,155.31074744683522L42.70518628472222,155.3249239805608L42.863989062499996,155.300522917732L42.87249635416667,155.28067389300423L42.87675,155.293105935522L42.92637586805556,155.26502289878798L42.93346527777778,155.2558139327728L42.99585208333333,155.2407626531319L42.99726996527777,155.20871195600054L43.032717013888885,155.239478118355L43.056821006944446,155.2513281758377L43.066746180555555,155.24353896620846L43.0936859375,155.2486220014058L43.09935746527778,155.23288196035614L43.1830125,155.22950186091143L43.19010190972222,155.20971516913846L43.23405625,155.19653328290644L43.24398142361111,155.17994288075215L43.25248871527778,155.1608127972224L43.29218940972222,155.16315623340927L43.36591927083333,155.18500183165924L43.41129149305555,155.16958971667512L43.421216666666666,155.14752250637125L43.45241006944444,155.11529213073413L43.459499479166666,155.0902069517516L43.50628958333333,155.0893027338492L43.514796875,155.07818069910064L43.52330416666667,155.07425524282695L43.5530796875,155.04879846854425L43.55733333333333,155.02880384896255L43.56442274305556,155.0406271572481L43.65658506944444,155.05991699834146L43.667928125,155.02611379282553L43.700539409722225,155.0126366464975L43.70337517361111,155.00734585116595L43.75441892361111,155.00942277173115L43.784194444444445,154.98919214228533L43.89620711805556,154.96329110987497L43.989787326388885,154.95584481138746L44.04224895833333,154.9311917222942L44.05075625,154.91478661256477L44.05784565972222,154.92239843426285L44.060681423611115,154.8905303237911L44.067770833333334,154.86443865504836L44.09754635416667,154.80827149408896L44.16276892361111,154.7799214753619L44.182619270833335,154.78940418578026L44.19538020833333,154.77136348311132L44.27478159722222,154.7830345211638L44.3187359375,154.7632674326838L44.32298958333333,154.74859466668815L44.345675694444445,154.76229116592842L44.40239097222222,154.7773082141083L44.40522673611111,154.79233208019747L44.511567881944444,154.7597430483141L44.55268645833333,154.75072769234632L44.637759375,154.7175221106117L44.64484878472222,154.70511080864142L44.73842899305556,154.67681890391364L44.741264756944446,154.68426712715865L44.75686145833333,154.69049282921551L44.76111510416667,154.6828712451576L44.8036515625,154.67125997291456L44.80932309027777,154.66400286766856L44.82350190972222,154.6646369559017L44.87029201388889,154.6462505330388L44.877381423611105,154.6249006217804L44.92842517361111,154.60488115619324L44.96812586805555,154.5728846598921L45.04043784722222,154.5915308529938L45.07588489583333,154.58218984155806L45.12692864583334,154.5603319369477L45.20491215277777,154.52612772052566L45.28289565972222,154.509901170064L45.33110364583334,154.49346190533035L45.49841371527778,154.4822870216155L45.590576041666665,154.46624581945395L45.626023090277776,154.417263567054L45.92944982638888,154.40510993762132L45.94362864583333,154.36938161431374L46.07690954861111,154.378107089246L46.1307890625,154.36770689168503L46.15772881944444,154.35359486728925L46.17190763888889,154.34904006806033L46.17616128472222,154.3234694419361L46.19884739583333,154.3172759068334L46.44555885416666,154.23383681046826L46.47108072916667,154.16452429419417L46.51645295138889,154.09480155227473L46.550482118055555,154.03524412432L46.56182517361111,154.0612421550698L46.987189756944446,153.9711743316083L47.189946875000004,153.92108829049292L47.24524427083334,153.8850117057618L47.41255434027778,153.8147794272311L47.45509079861111,153.78546185382615L47.73583142361111,153.81061723094354L47.863440798611116,153.72851530898555L47.89605208333334,153.63174431785973L47.91023090277778,153.54046427527828L47.92866336805556,153.41377310343228L47.9428421875,153.31086383286177L47.94567795138889,153.3442071370756L48.00097534722222,153.24335176427712L48.02507934027778,153.21191715603123L48.20798611111111,153.0670926279281L48.20940399305556,153.0282927401353L48.470294270833335,152.97041815362178L48.57805329861111,152.73899281553233L49.21042864583333,152.64120930102456L49.237368402777776,152.32453723455845L49.24020416666667,152.1898566645117L49.384828125,152.11829969124236L49.41885729166666,152.02335083007267L49.50251232638889,151.79906248001993L49.627285937500005,151.6544514024725L49.70526944444444,151.45294830767978L49.876833159722224,151.35878813600272L49.92504114583333,151.34750903831153L50.353241493055556,151.44285387311675L52.448871006944444,150.9767209005778L52.715432812500005,149.80075250370183L53.39318038194445,148.5749349237862L53.54205798611111,148.16675094845303L53.62571302083334,148.15207798428955L53.87526024305556,147.74406677676967L54.15316510416667,146.59360654795634L54.43390572916667,146.6586093874789L54.53882899305555,146.16355952827647L54.636662847222226,145.84716934249428L54.77277951388889,145.49631973779032L54.81531597222222,145.1439482753749L54.85359878472222,144.44588682851924L55.04075920138889,144.25077868544003L55.101728125,143.78727979416877L55.30873888888889,143.54562226929733L55.64903055555556,143.18947211623123L55.75537170138889,143.27093314324446L55.895742013888885,142.86604636301095L55.94678576388889,142.2871866130735L56.18357204861111,141.95191198585704L56.255884027777775,141.7802749065895L56.325360243055556,141.1175048022942L56.38349340277777,140.7791702311557L56.39341857638889,140.53470832167648L56.691173784722224,139.94475254632704L57.21011857638889,139.56004362692158L57.27392326388889,139.32480773013853L57.45257638888889,138.83168050826103L57.863762152777774,138.7905410085713L58.009803993055556,137.66499060089598L58.134577604166665,137.74064580217L59.20649635416667,136.92690338104393L59.99200295138889,135.94308960543952L60.03453940972222,135.22756715057739L60.26707204861111,134.45328571961056L61.0355640625,134.23521240333133L61.47794322916667,134.03489854936183L61.62682083333333,133.67087801260746L61.84801041666667,133.04846904657398L62.73844027777778,132.7576477100984L62.95821197916667,132.67117370613403L63.19783402777777,131.84197707415697L63.260220833333335,131.4542759576504L63.307010937499996,131.27304239597626L63.68133177083333,131.38337707683317L63.71961458333334,131.06740712483167L63.945057812499996,130.66350888393941L64.46683836805556,130.5009859785L64.56325434027778,130.33475257951366L64.93757517361111,129.75202050338046L65.13891440972222,129.68866674849698L65.18854027777778,129.3655449600109L65.24809131944446,130.02573321969163L65.39271527777778,129.036733193177L65.59972604166667,129.0636892772684L66.28598090277778,128.8271261734052L66.42635121527778,128.23663614129197L66.49015590277777,127.95731954420822L66.55254270833333,127.78379952160557L67.16223194444444,127.22364911489957L67.24588697916667,127.11160394772779L67.55498524305555,126.67624838250046L67.87684444444444,126.11361331697769L68.18594270833333,126.03719587732539L69.3812171875,125.58691478391103L69.55987031250001,125.12343282256538L69.69598697916668,125.64138201189974L70.07314357638889,125.02341128230069L70.78775607638889,124.01314714270698L71.55199444444445,124.08372007048175L71.74057274305555,123.24368087593356L72.44809583333333,122.41501023152202L72.52891510416667,123.04482852655164L73.3087501736111,121.88533672503283L73.73127899305555,120.7874872854841L73.78799427083334,121.37884608534478L74.93647864583335,121.90900735749213L75.60004739583334,121.70507963310655L75.83541579861111,121.38064865843225L76.98673593749999,121.09537370736174L80.1514484375,120.4533244048074L80.78240590277777,120.3208462256903L80.93979079861111,119.11899938721217L81.50977934027777,118.03698524394551L81.56365885416666,117.45574041273278L81.57358402777777,118.46696367259585L81.6317171875,118.40182980533628L81.64873177083334,117.56639554639355L82.563265625,118.38208610539056L82.72915781249999,119.07361698348788L82.89646788194445,118.08358511468455L83.10773229166666,116.35087617707971L83.1275826388889,116.88722875823538L83.13183628472223,116.4023544619573L83.17862638888889,117.0876045271252L83.62100555555556,117.01458271077631L84.3597220486111,117.46515497947141L84.63195538194444,116.6869322372061L84.72837135416667,113.8652973941673L86.02431545138889,114.2037856945233L86.90765590277778,113.48617473870735L88.86291510416667,111.40803283301841L89.454171875,112.44344673721658L90.41124218750001,112.0114387112222L91.31159722222222,110.66668063555453L92.3735907986111,109.04240944699907L92.516796875,109.99689193979917L92.78052291666667,109.86796950718286L93.0910390625,108.24779130646459L93.98288680555555,107.27959910763632L95.22069774305555,104.68969189573632L95.34688923611112,104.22557228002634L96.32522777777777,101.30497400088733L99.00644253472221,101.85371125988951L100.29387934027778,100.72080902594602L102.68017465277778,100.71776533926051L103.32531093749999,101.09203099283445L103.75351128472222,101.5236304503692L104.27670972222222,100.24193416669591L105.14587135416666,98.17479586366267L105.28057013888889,95.74681485684185L105.28765954861112,95.57478067229404L105.54713194444444,95.32174507665553L105.57974322916667,95.32537014285361L105.67190555555555,93.99874420811372L107.1280703125,92.1977764634387L108.5544595486111,92.64717694209483L109.62212465277779,92.64237515697626L109.72279427083333,88.82775141968773L110.0148779513889,88.48399431749166L110.32964774305555,87.42334346528797L111.4157453125,86.49022900512281L111.60857725694444,85.73726661597418L112.41535208333333,87.34815515324037L114.39755104166666,87.99315796177997L114.59747239583334,87.50919656901105L115.47797708333334,88.7371296109736L116.03662256944443,85.34732417828533L116.76399600694444,81.92756491386588L117.06033333333333,80.46264379179748L117.68561927083334,79.19055157170865L117.93091284722222,81.50357979521961L119.68483281249999,81.697464429334L121.12681875000001,80.85295349776425L121.59755555555556,78.77313740935145L121.90807170138888,78.79492636727996L122.1349328125,76.08031384418832L123.6917671875,76.69632095408767L123.77542222222222,76.2671453927698L126.64379739583333,72.864545910311L126.89618038194445,72.67772725677992L127.14289184027778,73.32984970155647L127.46616892361111,73.88304441890082L127.9950388888889,73.66422051678347L128.3083907986111,74.14058298215059L128.5494307291667,75.56387823507188L131.26467465277779,77.48744950247378L131.48586423611113,77.38261548972642L131.90839305555556,75.52072879870832L132.24017743055555,75.07211344724656L132.25293836805554,74.09710721615828L132.5506935763889,74.4599341365879L135.29429513888888,72.55145109224729L136.363378125,70.11319504552257L137.0226932291667,70.33981787051576L137.82663229166667,70.15530866869145L138.15983454861112,68.61440791545867L139.20764930555555,70.43547081709461L140.57448749999998,69.16174660470334L141.0438064236111,66.96423103514208L141.1841767361111,67.94128591458242L141.4734246527778,67.56172280607872L141.53155781249998,67.04035038342538L142.00513038194447,67.06784659508284L142.79347274305556,65.43942827080183L143.7292748263889,65.47264453463072L143.8285265625,65.41753391639493L143.92636041666665,67.75145055316453L144.91745989583333,69.78140180466627L145.92840972222223,68.49220253329055L146.45586180555557,68.84565031973425L146.7607064236111,69.9553506286699L146.99891059027777,70.87840334989383L147.3831565972222,69.82239113990444L147.55613819444443,71.4338791565958L147.7744920138889,71.10519237729986L148.54581979166664,70.28259813956986L148.80245642361112,67.62251730288558L150.20332378472222,65.64467111236975L150.7903269097222,65.19444775113277L150.808759375,64.90889772033769L151.02427743055554,65.9923508460312L151.3858373263889,66.48875411370081L152.60946944444444,66.4423306909671L153.02774461805555,66.17022333209766L153.76787899305555,64.78000597047881L154.1804826388889,65.35957866888548L154.47256631944444,65.47542662586055L155.10777743055556,64.81011691781995L157.3834779513889,63.11592440217433L157.9137657986111,60.947514774456906L159.90730781250002,60.14544042769303L160.05902118055553,59.05348260651465L160.09305034722223,59.406995141317736L161.15929756944445,60.047502587413234L163.06776666666667,58.18525630594465L163.2662701388889,55.76455240830471L163.72849965277777,55.43843509361059L163.85752690972222,56.742429936522285L164.62743680555556,54.31477927241551L164.94504236111112,53.18882634517395L165.66390850694447,54.60270692088383L166.92724131944442,54.61455213788635L166.9570168402778,57.00772334455226L167.9339375,59.13437373736977L168.8810826388889,57.639474857950944L168.90660451388888,58.71675336647404L169.2965220486111,58.58556013209936L169.69920052083336,55.00132840866215L169.71905086805555,54.5610322155232L169.79136284722222,53.79683694851636L170.3868732638889,54.467033367301084L170.69880729166664,53.546803326025525L171.30707864583334,53.05172839115025L171.69841406249998,53.50780498385342L172.61294791666666,54.33090516728625L172.7164532986111,53.36155854260308L173.02555156250003,52.330324279251855L173.0794310763889,53.499764010417564L174.79223246527778,56.05510039346672L175.28707326388889,55.77867316662004L176.1619064236111,53.9289940601853L176.8283109375,51.57337945530314L178.3596234375,50.93391622568191L179.138040625,52.53813923379555L180.08235,52.56123837859781L180.15466197916666,52.29623797823804L180.80830555555556,53.75952724859606L181.19964097222223,55.51840932487282L181.99223697916665,55.29411754011281L183.14355711805555,54.64017581451063L183.22295850694445,52.12278081828683L184.90740225694444,51.115057281912684L185.57380677083333,51.795373712812335L186.26289739583333,50.688973415394756L186.3834173611111,50.15748615908255L186.56065260416668,51.00335402044702L186.56915989583334,50.69934148772052L187.04556822916666,49.73663702644846L188.7441907986111,49.18918014198543L189.15679444444444,46.242655593695986L189.90401822916667,46.98676986387184L191.09929270833334,46.65456219566647L191.79121909722224,46.6158457488271L192.19956909722222,44.46014370235349L192.94962864583334,45.24297080939084L194.51213454861113,45.309611228451786L195.0892125,45.68283234992478L196.46739375,47.32948675697776L196.47022951388888,47.44910370627997L196.81761059027778,45.31863921633379L197.4272998263889,46.47463509583676L197.79594913194444,44.88668195557128L199.57964461805557,43.59567966910507L199.60942013888888,44.10612590674003L201.39736927083334,43.86698092970238L201.46542760416668,44.4921233196867L202.49480989583333,44.289075618399835L202.53876423611112,43.663656692923496L203.03785868055556,45.25454784181298L203.74396388888889,43.917305557631664L204.16649270833335,43.252832956413954L204.1820894097222,42.16202352440891L205.07677291666667,44.38997884242255L205.47094409722223,43.72470141272578L205.64817934027778,44.987896186225925L206.03951475694447,44.19562233464882L207.36239861111113,45.29710243072938L209.00997743055555,43.622874858111004L209.16169079861112,42.18161535525442L209.68488923611113,41.247658649274456L210.09465711805555,42.082186392301566L210.3867407986111,42.022656673525944L211.1807546875,41.306360750491535L211.33530381944445,37.098790016351444L211.98327586805556,37.81971882721632L213.26929479166668,38.128257171767444L213.9583854166667,36.769144238681605L214.90269479166665,35.96068578072254L215.1550777777778,34.13170072537753L215.31388055555556,33.919942726703425L216.26102569444444,33.10206649380581L216.41132118055555,32.22988399215251L217.45204652777778,34.365872297482696L218.7834376736111,34.31466148818899L219.0698498263889,35.00390116323371L220.47071718750001,35.38727823441033L220.90742482638888,35.58317498483294L221.08749583333332,39.251284759076924L221.8999421875,40.11350344226014L222.44440885416668,38.55644414917049L222.63582291666665,40.09620726266252L223.01156163194443,39.699573894350806L224.77966041666667,38.394899601506665L224.98383541666666,38.79073805044692L226.17485625,38.01919592153857L226.26276493055556,37.89331993733927L226.6314142361111,38.4926576879235L227.92594045138887,37.22175896458572L228.38675208333333,37.5299535226726L229.2785998263889,38.240048369269005L229.29703229166665,37.62057321984207L229.6557564236111,35.48271717626696L229.7918730902778,38.28975114045846L229.8145592013889,38.0190794355035L230.9119998263889,38.86636311127134L230.9346859375,36.96660208423515L231.14878611111112,37.211736904220686L231.31609618055555,36.94156037288957L232.68151649305557,38.42226584128244L233.1012095486111,39.87641226851781L233.601721875,40.61366535984783L233.60313975694444,38.42414924999943L233.74918159722222,36.71503688181764L234.3489456597222,34.11008390386317L235.22661458333332,33.86284994529504L235.41661076388888,32.99532020644733L236.53248385416666,34.456434492620815L236.65300381944445,34.450625134267824L238.2339421875,34.30789486515923L238.70893263888888,34.50145694114332L240.15659010416667,32.28103383225624L240.97754375000002,32.66493726721245L242.18841493055555,33.03345533026393L242.39826145833334,33.434513632464785L242.82362604166667,33.47098286580925L242.8732519097222,33.81674821559196L243.8133076388889,33.39645435994183L245.3517095486111,32.3732209978113L245.79550659722224,33.529245062802914L245.79692447916665,33.90470990311351L245.7983423611111,34.05665254916579L245.79976024305557,37.442381754476514L245.80117812499998,37.78075920402884L245.80259600694444,38.441259988171424L245.8040138888889,37.876461262081534L245.8054317708333,35.82545164155519L245.80684965277777,34.64467579558149L245.80826753472223,34.298475545568834L245.80968541666667,38.379260945557405L245.8111032986111,34.58440317486529L245.81252118055556,33.4948715221515L245.8139390625,31.888557807436342L245.81535694444443,31.44370486760181L245.8167748263889,30.307580403568863L245.81819270833333,31.73309906775745L245.81961059027776,29.71370847916353L245.82102847222222,28.700852688065396L245.82244635416666,28.433924521531566L245.82386423611112,29.424719143242044L245.82528211805555,31.48206981414512L245.8267,33.52091823045785L245.82811788194445,35.050732799457535L245.82953576388888,32.721301564966296L245.83095364583335,33.89810663574241L245.83237152777778,32.120931909668144L245.83378940972221,33.22454624711045L245.83520729166668,32.57853778717214L245.8366251736111,32.84667988913671L245.83804305555557,32.55640437181398L245.8394609375,35.32801620735984L245.8422967013889,35.708045978669276L245.84371458333334,36.75118385239327L245.84513246527777,34.67972569442668L245.84655034722223,35.378468892029446L245.84796822916667,36.69557612214473L245.8493861111111,38.34770956106661L245.85080399305556,37.84046317882357L245.852221875,36.52141842344122L245.85363975694443,35.37918183677891L245.8550576388889,31.902685670146468L245.85647552083336,29.496999773586367L245.85789340277776,30.34676570531866" style="fill: none;" fill="none"></path></g></g></g></g><g opacity="0.2"><g><g><g><path stroke="rgb(255, 112, 67)" stroke-width="2px" d="M28.42144357638889,158.57012642045456L28.47532309027778,158.4698096590909L28.567485416666667,158.42757102272728L28.634125868055555,158.46452982954546L28.636961631944445,158.52788778409092L28.662483506944447,158.54372727272727L28.821286284722223,158.57540625000001L28.831211458333335,158.62292471590908L28.83546510416667,158.61764488636362L28.892180381944446,158.43813068181817L28.89359826388889,158.27445596590908L28.89785190972222,158.23221732954545L28.91344861111111,158.24277698863636L28.931881076388887,158.52788778409092L28.955985069444445,158.44869034090908L28.965910243055554,158.48036931818183L28.967328125,158.40645170454545L28.972999652777776,158.3325340909091L29.019789756944444,158.52260795454546L29.0311328125,158.6651633522727L29.046729513888888,158.32725426136363L29.0566546875,158.57540625000001L29.058072569444445,158.45397017045454L29.060908333333334,158.15301988636364L29.07225138888889,158.67572301136363L29.11336996527778,158.41701136363636L29.119041493055555,158.30613494318183L29.134638194444445,158.10550142045454L29.13605607638889,158.52788778409092L29.150234895833332,158.4407705965909L29.167249479166667,158.24277698863636L29.233889930555556,158.33605397727274L29.37851388888889,158.3906122159091L29.53164513888889,158.08966193181817L29.5670921875,158.44341051136365L29.588360416666667,158.45925L29.602539236111113,158.55956676136364L29.63798628472222,158.45925L29.63940416666667,158.39589204545456L29.683358506944444,158.27445596590908L29.7202234375,158.45925L29.776938715277776,158.26917613636363L29.80246059027778,158.49620880681817L29.8223109375,158.31141477272726L29.843579166666668,158.22165767045453L29.860593750000003,158.51204829545455L29.862011631944444,158.29029545454546L29.86342951388889,158.20053835227273L29.888951388888888,158.42229119318182L29.922980555555554,158.30085511363637L29.93432361111111,158.401171875L29.944248784722223,158.30085511363637L29.966934895833333,158.27973579545454L29.9754421875,158.5067684659091L30.002381944444444,158.24805681818182L30.012307118055556,158.32197443181818L30.01939652777778,158.44341051136365L30.063350868055554,158.2058181818182L30.10021579861111,158.37477272727273L30.111558854166667,158.21109801136365L30.124319791666668,158.48036931818183L30.14417013888889,158.47508948863637L30.219317881944445,158.29557528409092L30.24625763888889,158.43813068181817L30.33841996527778,158.30085511363637L30.436253819444445,158.54372727272727L30.439089583333335,158.40645170454545L30.468865104166664,158.29029545454546L30.4858796875,158.3325340909091L30.498640625,158.30085511363637L30.5114015625,158.22165767045453L30.576624131944445,158.401171875L30.602146006944444,158.37477272727273L30.614906944444442,158.6123650568182L30.624832118055554,158.3642130681818L30.668786458333333,158.34837357954547L30.711322916666667,158.10550142045454L30.75669513888889,158.3536534090909L30.786470659722223,158.25333664772728L30.804903125,158.37477272727273L30.806321006944444,158.62820454545454L30.858782638888886,158.2163778409091L30.87154357638889,158.4117315340909L30.91266215277778,158.1319005681818L30.933930381944442,158.32725426136363L30.941019791666665,158.44869034090908L30.959452256944445,158.31141477272726L30.96795954861111,158.30085511363637L30.972213194444443,158.54900710227272L30.97646684027778,158.36949289772727L31.027510590277778,158.3536534090909L31.045943055555554,158.18469886363636L31.08847951388889,158.10550142045454L31.089897395833333,158.34309375L31.09982256944444,158.48564914772726L31.128180208333333,158.44341051136365L31.138105381944445,158.33781392045455L31.157955729166666,158.3536534090909L31.19482065972222,158.44341051136365L31.247282291666668,158.32197443181818L31.329519444444447,158.13718039772726L31.367802256944447,158.34309375L31.386234722222223,158.22165767045453L31.495411631944446,158.17413920454544L31.513844097222222,158.0632627840909L31.518097743055556,158.32725426136363L31.58048454861111,158.49092897727272L31.597499131944446,158.2058181818182L31.62443888888889,158.60180539772728L31.6343640625,158.17413920454544L31.640035590277776,158.1899786931818L31.681154166666666,158.42757102272728L31.6854078125,158.2269375L31.692497222222222,158.32725426136363L31.699586631944445,158.31141477272726L31.701004513888886,158.36949289772727L31.709511805555557,158.34837357954547L31.76480920138889,158.49356889204546L31.774734375,158.25333664772728L31.78040590277778,158.32725426136363L31.8640609375,158.34309375L31.87398611111111,158.2374971590909L31.885329166666665,158.1582997159091L31.906597395833334,158.34309375L31.94204444444444,158.36949289772727L31.95055173611111,158.27973579545454L31.97181996527778,158.34309375L32.038460416666666,158.3642130681818L32.06965381944444,158.47508948863637L32.09942934027778,158.3325340909091L32.12920486111111,158.44341051136365L32.17174131944444,158.15301988636364L32.17599496527778,158.25861647727274L32.17741284722222,158.052703125L32.22420295138889,158.32725426136363L32.236963888888894,158.2058181818182L32.278082465277784,158.05798295454545L32.33479774305555,158.55428693181818L32.34046927083333,158.517328125L32.4255421875,158.25861647727274L32.46666076388889,158.25861647727274L32.48225746527778,158.29557528409092L32.489346875,158.168859375L32.50352569444444,158.21109801136365L32.52479392361111,157.91014772727272L32.574419791666664,158.30085511363637L32.58009131944444,158.31933451704546L32.61128472222222,158.49092897727272L32.67508940972222,158.22165767045453L32.71479010416667,158.12134090909092L32.71620798611111,158.30085511363637L32.75449079861111,158.54900710227272L32.80269878472222,158.14246022727272L32.809788194444444,158.37477272727273L32.82963854166666,158.12662073863638L32.835310069444446,158.55428693181818L32.83956371527778,158.30085511363637L32.840981597222225,158.44341051136365L32.85799618055555,158.50148863636363L32.86650347222222,158.1899786931818L32.86792135416667,158.26917613636363L32.883518055555555,158.25333664772728L32.94023333333333,158.38005255681819L32.95157638888889,158.22165767045453L32.98276979166667,158.26917613636363L32.99269496527778,158.4698096590909L33.02530625,158.53316761363635L33.18836267361112,158.38533238636364L33.23798854166667,158.36949289772727L33.240824305555556,158.1582997159091L33.24933159722222,158.31141477272726L33.26492829861111,158.052703125L33.30037534722222,158.25333664772728L33.38970190972222,158.32197443181818L33.409552256944444,158.23221732954545L33.449252951388885,158.27973579545454L33.494625173611105,158.3642130681818L33.50313246527778,158.285015625L33.50455034722222,158.37477272727273L33.5229828125,158.2058181818182L33.52581857638889,158.1794190340909L33.55559409722222,158.25861647727274L33.565519270833335,158.2638963068182L33.58820538194445,157.8890284090909L33.61939878472222,158.29557528409092L33.64775642361111,158.42229119318182L33.67186041666667,158.49092897727272L33.70305381944445,158.1582997159091L33.70588958333333,158.2374971590909L33.758351215277784,158.32725426136363L33.75976909722222,158.1794190340909L33.78387309027778,158.34309375L33.78954461805556,158.09494176136363L33.7909625,158.15301988636364L33.81790225694444,158.24805681818182L33.82215590277778,158.35893323863635L33.850513541666665,158.31669460227272L33.921407638888894,158.04214346590908L33.932750694444444,158.49620880681817L33.96394409722222,158.1794190340909L34.10147864583333,158.14774005681818L34.10573229166666,158.34309375L34.11565746527778,158.34837357954547L34.169536979166665,158.22165767045453L34.17095486111111,157.94182670454546L34.18229791666666,158.37477272727273L34.256027777777774,158.18469886363636L34.26028142361111,158.11606107954546L34.30707152777778,158.1582997159091L34.321250347222225,158.35893323863635L34.32408611111111,158.168859375L34.34110069444445,158.21109801136365L34.377965624999995,158.03686363636365L34.42759149305556,158.20053835227273L34.43042725694445,158.14774005681818L34.46162065972222,158.052703125L34.47438159722222,158.2269375L34.48288888888889,158.21109801136365L34.50841076388889,158.0051846590909L34.563708159722225,157.97350568181818L34.61333402777778,158.26917613636363L34.62893072916666,158.02630397727273L34.648781076388886,158.29029545454546L34.69415329861111,158.08966193181817L34.69840694444444,158.26917613636363L34.70124270833334,158.052703125L34.72534670138889,158.01574431818182L34.738107638888884,158.1319005681818L34.73952552083333,158.12134090909092L34.74377916666666,158.12662073863638L34.766465277777776,157.91014772727272L34.79340503472222,158.1582997159091L34.90258194444444,158.285015625L34.97347604166667,158.19525852272727L34.976311805555554,158.29029545454546L35.02451979166667,158.38533238636364L35.03302708333334,158.0051846590909L35.05996684027778,158.14774005681818L35.085488715277776,158.18469886363636L35.10108541666667,157.95238636363638L35.12518940972222,158.06854261363637L35.143621874999994,158.22165767045453L35.14929340277778,158.23221732954545L35.160636458333336,158.07910227272728L35.197501388888895,158.35893323863635L35.23436631944444,158.2374971590909L35.26697760416666,158.3906122159091L35.27548489583333,158.21109801136365L35.30242465277778,158.1002215909091L35.325110763888894,157.93126704545455L35.40309427083333,158.01046448863636L35.407347916666666,158.1582997159091L35.41869097222222,158.25333664772728L35.43995920138889,158.14774005681818L35.46831684027778,158.1002215909091L35.53637517361111,157.98934517045456L35.603015625000005,157.96822585227272L35.608687152777776,158.02102414772727L35.61861232638889,157.79399147727273L35.642716319444446,157.86539488636365L35.65689513888889,158.12662073863638L35.67816336805556,157.94710653409092L35.693760069444444,158.15301988636364L35.729207118055555,158.21109801136365L35.812862152777775,158.07910227272728L35.858234375,157.78871164772727L35.86248802083334,157.90486789772729L35.86674166666667,157.64087642045456L35.90786024305556,157.81511079545453L35.957486111111116,157.77287215909092L35.974500694444444,157.7834318181818L36.0241265625,157.77287215909092L36.03830538194445,157.92070738636363L36.090767013888886,158.14774005681818L36.10352795138889,157.93126704545455L36.10494583333333,158.04214346590908L36.10919947916666,158.03686363636365L36.11203524305556,157.87318892045454L36.1517359375,157.76759232954547L36.18434722222222,157.77287215909092L36.18718298611111,158.0632627840909L36.20986909722222,157.94182670454546L36.218376388888885,157.936546875L36.26091284722222,157.8890284090909L36.370089756944445,158.06854261363637L36.39844739583334,157.86790909090908L36.405536805555556,157.90486789772729L36.4324765625,158.01574431818182L36.4579984375,157.73591335227272L36.460834201388884,157.63823650568182L36.55299652777778,157.9259872159091L36.56292170138889,157.8573494318182L36.60120451388889,157.704234375L36.64232309027778,157.79927130681818L36.653666145833334,157.82567045454545L36.66075555555555,157.78871164772727L36.71747083333334,157.47720170454545L36.73732118055556,157.5511193181818L36.75858940972223,157.6250369318182L36.80254375,157.51944034090909L36.816722569444444,157.57223863636364L36.92306371527778,157.6250369318182L36.94433194444444,157.86790909090908L36.967018055555556,157.7834318181818L37.00246510416667,157.5775184659091L37.00388298611111,157.74647301136363L37.008136631944446,157.4244034090909L37.02231545138889,157.48273295454544L37.0450015625,157.6250369318182L37.07335920138889,157.79399147727273L37.07619496527778,157.6355965909091L37.08044861111111,157.49052698863636L37.11873142361111,157.6355965909091L37.1215671875,157.69644034090908L37.12582083333333,157.74647301136363L37.16693940972222,157.59599786931818L37.24066927083334,157.55639914772726L37.27895208333334,157.42968323863636L37.34275677083333,157.73063352272726L37.372532291666666,157.77815198863635L37.389546875,157.74119318181818L37.40372569444445,157.45608238636365L37.42641180555555,157.69895454545454L37.48596284722222,157.5775184659091L37.50297743055555,157.8442755681818L37.58805034722222,157.56167897727272L37.59939340277778,157.44552272727273L37.657526562499996,157.78871164772727L37.6830484375,157.3452059659091L37.691555729166666,157.33992613636363L37.697227256944444,157.1498522727273L37.72133125,157.39272443181818L37.729838541666666,157.39800426136364L37.78797170138889,157.65143607954545L37.86879097222222,157.38216477272726L37.91841684027778,157.39272443181818L37.92692413194444,157.1709715909091L37.92834201388889,157.32408664772726L37.970878472222225,156.95449857954546L37.98080364583333,157.4032840909091L37.99498246527777,157.13929261363637L38.08005538194445,157.40856392045455L38.099905729166665,157.21321022727273L38.138188541666665,157.25544886363636L38.13960642361111,157.19209090909092L38.175053472222224,157.36632528409092L38.17647135416667,157.06009517045453L38.18781440972222,157.15513210227272L38.19632170138889,157.39272443181818L38.24311180555556,157.04953551136364L38.253036979166666,157.08649431818182L38.289901909722225,157.18153125L38.295573437499996,157.18153125L38.30408072916667,157.14457244318183L38.335274131944445,157.08398011363636L38.46997291666666,156.88058096590908L38.512509375,156.8252684659091L38.5507921875,156.73802556818183L38.55929947916666,156.93337926136363L38.574896180555555,157.09981960227273L38.58198559027778,157.11037926136365L38.604671701388895,156.83846803977272L38.654297569444445,157.03369602272727L38.67414791666666,157.05255255681817L38.6784015625,156.77247017045454L38.69966979166667,156.75386505681817L38.818771875,156.83331392045454L38.85138315972222,156.6827130681818L38.90242690972222,156.98089772727272L38.930784548611115,156.71690625L38.939291840277775,156.61407528409092L38.94638125,156.46875426136364L38.94921701388889,156.62991477272726L39.00026076388889,156.65128551136362L39.015857465277776,156.61407528409092L39.02436475694444,156.95449857954546L39.10376614583333,156.60602982954546L39.15480989583334,156.7091122159091L39.178913888888886,156.70106676136365L39.18600329861111,156.67994744318182L39.205853645833336,156.76719034090908L39.214360937500004,156.780515625L39.2398828125,156.68799289772727L39.24271857638889,156.80666335227272L39.24413645833333,156.54015767045453L39.25264375,156.774984375L39.261151041666665,156.72218607954545L39.34622395833333,156.75914488636363L39.38876041666666,156.51099289772728L39.40152135416667,156.66687357954547L39.419953819444444,156.4584460227273L39.46816180555555,156.5215525568182L39.50077309027778,156.48207954545455L39.52913072916667,156.7485852272727L39.536220138888886,156.21280823863637L39.540473784722224,156.43179545454547L39.70211232638889,156.313125L39.71770902777778,156.33147869318182L39.78434947916667,156.37371732954546L39.80419982638889,156.42123579545455L39.80987135416667,156.56907102272726L39.811289236111115,156.2892400568182L39.815542881944445,156.34480397727273L39.887854861111116,156.20224857954545L39.896362152777776,156.24725284090908L39.941734375,156.28949147727272L40.03956822916667,156.59547017045455L40.072179513888884,156.23392755681817L40.094865625,156.17635227272729L40.11329809027777,155.98879261363635L40.11613385416667,156.51652414772727L40.175684895833335,155.7273153409091L40.178520659722224,156.371203125L40.19128159722222,156.34228977272727L40.21396770833333,155.93850852272726L40.22531076388889,156.20224857954545L40.2607578125,156.12858238636363L40.297622743055555,156.09916619318182L40.345830729166664,156.3872940340909L40.35150225694444,155.84925426136363L40.37277048611111,156.1046974431818L40.379859895833334,156.33675852272728L40.386949305555554,156.23141335227274L40.44366458333334,156.1283309659091L40.44791822916667,156.22336789772726L40.449336111111116,156.2711377840909L40.46209704861111,156.15749573863636L40.501797743055555,155.912109375L40.55142361111111,156.35536363636365L40.63507864583333,155.78765625L40.768359548611116,155.7693025568182L40.772613194444446,156.0969034090909L40.81798541666667,156.1052002840909L40.84492517361112,156.04460795454546L40.84634305555555,155.72982954545455L40.8477609375,156.00689488636363L40.90589409722222,155.92241761363636L40.92007291666666,155.68482528409092L40.97111666666667,155.84347159090908L40.99522065972222,156.01217471590908L41.05051805555556,155.76402272727273L41.0519359375,156.07578409090908L41.059025347222224,155.97823295454546L41.115740625,155.6926193181818L41.12566579861111,156.11525710227272L41.144098263888885,156.0702528409091L41.15969496527778,155.7429034090909L41.16394861111112,155.7328465909091L41.188052604166664,156.136125L41.19088836805556,155.71650426136364L41.22491753472222,155.6953849431818L41.25894670138889,155.6161875L41.33409444444444,155.72982954545455L41.36670572916667,155.32353409090908L41.385138194444444,155.59003977272727L41.38797395833333,155.70594460227272L41.40357065972222,155.729578125L41.420585243055555,155.9171377840909L41.429092534722216,155.47136931818181L41.43759982638889,155.6926193181818L41.46737534722222,155.7217840909091L41.52550850694444,155.74038920454547L41.55386614583333,156.17308380681817L41.660207291666666,155.75094886363635L41.75520538194444,155.54503551136364L41.76796631944445,155.32881392045454L41.78639878472222,155.37105255681817L41.80057760416667,155.55056676136363L41.855875000000005,156.13134801136363L41.86154652777778,155.3627556818182L41.8941578125,155.4235994318182L41.94803732638889,155.54252130681817L41.95370885416666,155.22548011363637L41.97214131944444,155.61769602272727L42.01467777777778,155.39971448863636L42.064303645833334,155.60864488636363L42.07139305555555,155.29185511363636L42.08273611111111,155.43164488636364L42.09407916666667,155.51360795454545L42.109675868055554,155.42913068181818L42.15363020833333,155.51360795454545L42.24012100694444,155.24961647727272L42.265642881944444,155.4105255681818L42.272732291666664,155.3446534090909L42.28265746527778,155.4552784090909L42.345044270833334,155.25489630681818L42.36205885416667,155.3999659090909L42.44713177083333,155.1289346590909L42.48399670138889,155.19128693181818L42.52653315972223,155.24458806818183L42.53078680555556,155.23654261363637L42.53787621527778,155.28984375L42.54921927083333,155.35797869318182L42.57757690972222,155.45025L42.587502083333334,155.02308664772727L42.613023958333336,155.31272301136363L42.65556041666667,155.13848863636363L42.70518628472222,155.4525127840909L42.863989062499996,155.08091335227272L42.87249635416667,155.10203267045455L42.87675,155.40499431818182L42.92637586805556,155.01227556818182L42.93346527777778,155.17293323863638L42.99585208333333,155.10530113636364L42.99726996527777,154.9202556818182L43.032717013888885,155.51637357954544L43.056821006944446,155.35797869318182L43.066746180555555,155.17343607954547L43.0936859375,155.29436931818182L43.09935746527778,155.0912215909091L43.1830125,155.1990809659091L43.19010190972222,155.0316349431818L43.23405625,155.0778963068182L43.24398142361111,155.03062926136363L43.25248871527778,154.98864204545455L43.29218940972222,155.18424715909092L43.36591927083333,155.3816122159091L43.41129149305555,155.0308806818182L43.421216666666666,154.94891761363635L43.45241006944444,154.82521875L43.459499479166666,154.86444034090908L43.50628958333333,155.08116477272728L43.514796875,154.97808238636364L43.52330416666667,155.03892613636364L43.5530796875,154.8196875L43.55733333333333,154.84885227272727L43.56442274305556,155.14703693181818L43.65658506944444,155.23352556818182L43.667928125,154.7218849431818L43.700539409722225,154.89134232954547L43.70337517361111,154.95972869318183L43.75441892361111,155.0281150568182L43.784194444444445,154.80711647727273L43.89620711805556,154.73018181818182L43.989787326388885,154.888828125L44.04224895833333,154.70931392045455L44.05075625,154.767140625L44.05784565972222,154.99090482954546L44.060681423611115,154.60371732954545L44.067770833333334,154.62961363636364L44.09754635416667,154.30276704545454L44.16276892361111,154.5247713068182L44.182619270833335,154.87474857954544L44.19538020833333,154.6089971590909L44.27478159722222,154.88807386363635L44.3187359375,154.58536363636364L44.32298958333333,154.61653977272726L44.345675694444445,154.88555965909092L44.40239097222222,154.91246164772727L44.40522673611111,154.927546875L44.511567881944444,154.46644176136363L44.55268645833333,154.66958948863635L44.637759375,154.418671875L44.64484878472222,154.5934090909091L44.73842899305556,154.42219176136365L44.741264756944446,154.75130113636362L44.75686145833333,154.74652414772726L44.76111510416667,154.61427698863636L44.8036515625,154.56675852272727L44.80932309027777,154.59868892045455L44.82350190972222,154.67034375L44.87029201388889,154.48077272727272L44.877381423611105,154.43275142045454L44.92842517361111,154.42470596590908L44.96812586805555,154.28491619318183L45.04043784722222,154.7593465909091L45.07588489583333,154.49812073863637L45.12692864583334,154.36361079545455L45.20491215277777,154.21828977272727L45.28289565972222,154.36386221590908L45.33110364583334,154.34550852272727L45.49841371527778,154.38171306818182L45.590576041666665,154.321875L45.626023090277776,153.97642329545454L45.92944982638888,154.29572727272728L45.94362864583333,154.04782670454546L46.07690954861111,154.45663636363636L46.1307890625,154.27410511363638L46.15772881944444,154.2265866477273L46.17190763888889,154.308046875L46.17616128472222,154.09333380681818L46.19884739583333,154.2615340909091L46.44555885416666,153.48288494318183L46.47108072916667,153.54071164772728L46.51645295138889,153.467296875L46.550482118055555,153.49922727272727L46.56182517361111,154.29522443181818L46.987189756944446,153.16056392045454L47.189946875000004,153.47031392045454L47.24524427083334,153.5603224431818L47.41255434027778,153.18268892045455L47.45509079861111,153.52160369318182L47.73583142361111,154.037015625L47.863440798611116,152.98959801136363L47.89605208333334,152.76080539772727L47.91023090277778,152.71894389204544L47.92866336805556,152.27355255681817L47.9428421875,152.38468039772727L47.94567795138889,153.644296875L48.00097534722222,152.33565340909092L48.02507934027778,152.92900568181818L48.20798611111111,151.763671875L48.20940399305556,152.67909375L48.470294270833335,152.449546875L48.57805329861111,150.65616477272727L49.21042864583333,151.76115767045454L49.237368402777776,149.47448863636365L49.24020416666667,150.9777315340909L49.384828125,151.4742869318182L49.41885729166666,151.16881107954546L49.50251232638889,149.78046732954544L49.627285937500005,150.35295170454546L49.70526944444444,149.63942045454547L49.876833159722224,150.51134659090908L49.92504114583333,151.2459971590909L50.353241493055556,152.30095738636362L52.448871006944444,146.78152414772728L52.715432812500005,139.2170369318182L53.39318038194445,137.54257670454547L53.54205798611111,144.49309517045455L53.62571302083334,148.0200213068182L53.87526024305556,144.07196590909092L54.15316510416667,136.23946448863637L54.43390572916667,147.24363494318183L54.53882899305555,141.70811079545456L54.636662847222226,142.99965767045455L54.77277951388889,142.33867329545456L54.81531597222222,141.97260511363635L54.85359878472222,138.16333380681817L55.04075920138889,142.49480539772728L55.101728125,139.61578977272728L55.30873888888889,141.37070454545454L55.64903055555556,139.98412073863636L55.75537170138889,144.00408238636362L55.895742013888885,139.2220653409091L55.94678576388889,137.07744886363636L56.18357204861111,138.93444034090908L56.255884027777775,140.2355411931818L56.325360243055556,135.15257386363635L56.38349340277777,137.7341590909091L56.39341857638889,138.33455113636364L56.691173784722224,134.6351505681818L57.21011857638889,136.09766335227272L57.27392326388889,137.20768465909092L57.45257638888889,134.39353551136364L57.863762152777774,138.42028551136363L58.009803993055556,127.53503693181818L58.134577604166665,138.42154261363635L59.20649635416667,129.60322159090907L59.99200295138889,127.08876562500001L60.03453940972222,128.7878650568182L60.26707204861111,127.4847528409091L61.0355640625,132.27255255681817L61.47794322916667,132.23207386363637L61.62682083333333,130.39469318181818L61.84801041666667,127.44678835227273L62.73844027777778,130.1402556818182L62.95821197916667,131.89290767045455L63.19783402777777,124.37920738636365L63.260220833333335,127.9649659090909L63.307010937499996,129.6419403409091L63.68133177083333,132.37638920454546L63.71961458333334,128.2236775568182L63.945057812499996,127.0284247159091L64.46683836805556,129.03827982954544L64.56325434027778,128.83865198863637L64.93757517361111,124.50743181818181L65.13891440972222,129.11848295454544L65.18854027777778,126.45744886363636L65.24809131944446,135.96742755681817L65.39271527777778,120.13573295454546L65.59972604166667,129.3062940340909L66.28598090277778,126.69805823863635L66.42635121527778,122.92222585227273L66.49015590277777,125.44347017045455L66.55254270833333,126.22211931818183L67.16223194444444,122.18229545454545L67.24588697916667,126.10319744318181L67.55498524305555,122.75804829545454L67.87684444444444,121.04989772727274L68.18594270833333,125.34943892045455L69.3812171875,121.5343849431818L69.55987031250001,120.95209517045456L69.69598697916668,130.30292471590909L70.07314357638889,119.46167471590908L70.78775607638889,114.92076988636364L71.55199444444445,124.71887642045454L71.74057274305555,115.683328125L72.44809583333333,114.95697443181818L72.52891510416667,128.71319318181818L73.3087501736111,111.44991051136364L73.73127899305555,110.90684232954546L73.78799427083334,126.7010752840909L74.93647864583335,126.6804588068182L75.60004739583334,119.86973011363636L75.83541579861111,118.46076988636364L76.98673593749999,118.52789914772728L80.1514484375,114.67488068181818L80.78240590277777,119.12854261363637L80.93979079861111,108.30237784090909L81.50977934027777,108.29885795454545L81.56365885416666,112.22453693181818L81.57358402777777,127.56797301136363L81.6317171875,117.81562500000001L81.64873177083334,110.04748721590909L82.563265625,125.72330113636363L82.72915781249999,125.29739488636363L82.89646788194445,109.17329829545454L83.10773229166666,100.75649573863636L83.1275826388889,121.71440198863635L83.13183628472223,112.03848579545455L83.17862638888889,123.25485511363637L83.62100555555556,116.35738636363637L84.3597220486111,121.52030539772727L84.63195538194444,109.68292755681819L84.72837135416667,88.47058380681818L86.02431545138889,117.25018039772728L86.90765590277778,107.02767613636364L88.86291510416667,92.70475568181818L89.454171875,121.762171875L90.41124218750001,108.12336647727273L91.31159722222222,98.56385795454545L92.3735907986111,94.42396875L92.516796875,118.58723437500001L92.78052291666667,108.70766761363636L93.0910390625,93.66618749999999L93.98288680555555,98.56586931818181L95.22069774305555,81.38052698863636L95.34688923611112,100.04849573863636L96.32522777777777,75.01958948863637L99.00644253472221,106.79234659090909L100.29387934027778,90.52468892045455L102.68017465277778,100.69037215909091L103.32531093749999,104.46042187500001L103.75351128472222,105.40802556818181L104.27670972222222,88.70666761363637L105.14587135416666,79.57055113636365L105.28057013888889,73.89498579545455L105.28765954861112,94.02647301136363L105.54713194444444,93.04442471590909L105.57974322916667,95.35799573863636L105.67190555555555,82.05911079545454L107.1280703125,75.98906676136365L108.5544595486111,96.69178125L109.62212465277779,92.5991590909091L109.72279427083333,54.49613778409092L110.0148779513889,85.39018039772726L110.32964774305555,77.87748579545453L111.4157453125,78.09219886363636L111.60857725694444,78.96060511363636L112.41535208333333,101.84615198863636L114.39755104166666,93.79818323863637L114.59747239583334,83.15354403409091L115.47797708333334,99.78852698863636L116.03662256944443,54.839075284090896L116.76399600694444,51.149731534090904L117.06033333333333,67.27835369318181L117.68561927083334,67.74172159090908L117.93091284722222,102.32083380681819L119.68483281249999,83.44242613636364L121.12681875000001,73.25235511363636L121.59755555555556,60.054792613636366L121.90807170138888,78.99102698863636L122.1349328125,51.64880113636363L123.6917671875,82.24038494318182L123.77542222222222,72.40456534090909L126.64379739583333,42.24115056818181L126.89618038194445,70.996359375L127.14289184027778,79.19895170454546L127.46616892361111,78.861796875L127.9950388888889,71.69480539772728L128.3083907986111,78.42784517045455L128.5494307291667,88.37353551136364L131.26467465277779,94.79959090909091L131.48586423611113,76.439109375L131.90839305555556,58.76374857954545L132.24017743055555,71.0345752840909L132.25293836805554,65.32205113636364L132.5506935763889,77.72537642045454L135.29429513888888,55.37510369318183L136.363378125,48.16889062500002L137.0226932291667,72.37942329545454L137.82663229166667,68.49472585227272L138.15983454861112,54.74630113636363L139.20764930555555,86.82503693181818L140.57448749999998,57.69822869318182L141.0438064236111,47.18659090909091L141.1841767361111,76.73477982954545L141.4734246527778,64.14565482954545L141.53155781249998,62.34799857954545L142.00513038194447,67.3153125L142.79347274305556,50.783663352272725L143.7292748263889,65.7715909090909L143.8285265625,64.92153835227273L143.92636041666665,88.75670028409091L144.91745989583333,88.05096306818182L145.92840972222223,56.88940909090908L146.45586180555557,72.02668039772726L146.7607064236111,79.94265340909091L146.99891059027777,79.1858778409091L147.3831565972222,60.31828125000001L147.55613819444443,85.93727130681819L147.7744920138889,68.14701136363637L148.54581979166664,62.87925L148.80245642361112,43.681789772727285L150.20332378472222,47.84405539772726L150.7903269097222,61.142437499999986L150.808759375,62.33894744318182L151.02427743055554,75.74342897727273L151.3858373263889,70.95638352272726L152.60946944444444,66.02451988636363L153.02774461805555,63.72125710227273L153.76787899305555,52.268049715909086L154.1804826388889,70.57573295454546L154.47256631944444,66.51805823863636L155.10777743055556,58.82232954545454L157.3834779513889,47.86819176136365L157.9137657986111,41.43182812500001L159.90730781250002,52.92677130681818L160.05902118055553,49.225862215909075L160.09305034722223,62.588607954545466L161.15929756944445,65.81206960227273L163.06776666666667,41.425039772727274L163.2662701388889,33.97821732954546L163.72849965277777,52.503379261363634L163.85752690972222,68.47838352272728L164.62743680555556,32.46592329545456L164.94504236111112,43.05525L165.66390850694447,67.32763210227273L166.92724131944442,54.72115909090908L166.9570168402778,78.54626420454545L167.9339375,78.27422727272727L168.8810826388889,44.185384943181816L168.90660451388888,68.41225994318182L169.2965220486111,57.40482102272726L169.69920052083336,22.74324289772727L169.71905086805555,50.598366477272734L169.79136284722222,46.91907954545454L170.3868732638889,60.49880113636364L170.69880729166664,45.26473295454545L171.30707864583334,48.59605397727273L171.69841406249998,57.61249431818182L172.61294791666666,61.738806818181814L172.7164532986111,44.63743892045454L173.02555156250003,43.04921590909092L173.0794310763889,64.0247215909091L174.79223246527778,79.05312784090908L175.28707326388889,53.29082812499999L176.1619064236111,37.281882102272704L176.8283109375,30.37284801136363L178.3596234375,45.1787471590909L179.138040625,66.97614630681818L180.08235,52.76913068181818L180.15466197916666,49.91123437499999L180.80830555555556,66.92913068181818L181.19964097222223,71.34834801136363L181.99223697916665,53.27549147727272L183.14355711805555,48.754700284090916L183.22295850694445,29.466225852272743L184.90740225694444,42.04554545454545L185.57380677083333,57.918221590909084L186.26289739583333,40.73137073863637L186.3834173611111,45.37410085227273L186.56065260416668,58.616164772727274L186.56915989583334,47.96322869318183L187.04556822916666,41.072296875000006L188.7441907986111,44.262068181818165L189.15679444444444,19.7239346590909L189.90401822916667,53.68379829545455L191.09929270833334,43.664693181818166L191.79121909722224,46.26739772727274L192.19956909722222,25.058825284090915L192.94962864583334,52.288414772727265L194.51213454861113,45.90937500000001L195.0892125,49.04182244318183L196.46739375,62.149376420454544L196.47022951388888,48.52565625L196.81761059027778,26.144458806818164L197.4272998263889,56.878598011363636L197.79594913194444,30.595103693181812L199.57964461805557,31.976659090909095L199.60942013888888,48.700142045454555L201.39736927083334,41.714676136363636L201.46542760416668,50.118404829545455L202.49480989583333,42.46164630681818L202.53876423611112,38.03488636363636L203.03785868055556,59.572568181818184L203.74396388888889,31.882125000000002L204.16649270833335,37.27257954545456L204.1820894097222,32.344738636363644L205.07677291666667,64.44157670454547L205.47094409722223,37.737204545454546L205.64817934027778,56.35664914772727L206.03951475694447,37.06515767045454L207.36239861111113,55.21042329545455L209.00997743055555,28.554826704545434L209.16169079861112,29.210279829545442L209.68488923611113,32.84204829545453L210.09465711805555,49.59293607954544L210.3867407986111,41.48688920454546L211.1807546875,34.85969744318183L211.33530381944445,-0.7693465909090946L211.98327586805556,44.30807812500001L213.26929479166668,40.90510227272728L213.9583854166667,24.53712784090908L214.90269479166665,28.684559659090922L215.1550777777778,17.670835227272732L215.31388055555556,32.014120738636365L216.26102569444444,25.741180397727277L216.41132118055555,24.380241477272733L217.45204652777778,53.58976704545455L218.7834376736111,33.853764204545456L219.0698498263889,41.207058238636364L220.47071718750001,38.837671874999984L220.90742482638888,37.346245738636384L221.08749583333332,72.26427272727273L221.8999421875,47.87347159090908L222.44440885416668,24.54291051136363L222.63582291666665,53.95407528409092L223.01156163194443,36.12987357954546L224.77966041666667,26.65283096590909L224.98383541666666,42.353284090909085L226.17485625,31.075316761363638L226.26276493055556,36.76043607954546L226.6314142361111,43.886697443181816L227.92594045138887,25.783670454545472L228.38675208333333,40.303704545454536L229.2785998263889,44.63090198863637L229.29703229166665,32.04529687500002L229.6557564236111,16.242012784090917L229.7918730902778,63.55305681818183L229.8145592013889,35.58303409090908L230.9119998263889,46.49191619318182L230.9346859375,19.86875284090908L231.14878611111112,39.41795028409092L231.31609618055555,34.50997159090909L232.68151649305557,51.74861505681818L233.1012095486111,52.96373011363636L233.601721875,47.24894318181816L233.60313975694444,18.71850426136365L233.74918159722222,21.333025568181824L234.3489456597222,10.665507102272727L235.22661458333332,31.637744318181802L235.41661076388888,25.18755255681819L236.53248385416666,47.606463068181824L236.65300381944445,34.398340909090905L238.2339421875,33.023322443181826L238.70893263888888,36.243515624999986L240.15659010416667,12.297225852272732L240.97754375000002,36.1200681818182L242.18841493055555,36.35011789772727L242.39826145833334,37.04403835227271L242.82362604166667,33.799205965909096L242.8732519097222,36.92863636363637L243.8133076388889,29.61380965909092L245.3517095486111,23.16412073863637L245.79550659722224,43.933461647727285L245.79692447916665,37.283893465909074L245.7983423611111,35.424136363636364L245.79976024305557,67.91394460227272L245.80117812499998,40.82615625L245.80259600694444,44.38576704545454L245.8040138888889,32.79327272727272L245.8054317708333,17.366365056818182L245.80684965277777,24.017693181818174L245.80826753472223,31.18267329545455L245.80968541666667,75.10632954545456L245.8111032986111,0.4306832386363624L245.81252118055556,23.689086647727294L245.8139390625,17.43173437499999L245.81535694444443,27.4400284090909L245.8167748263889,20.082460227272747L245.81819270833333,44.562767045454535L245.81961059027776,11.539193181818177L245.82102847222222,19.58515056818183L245.82244635416666,26.031571022727263L245.82386423611112,38.34187073863637L245.82528211805555,49.99822585227274L245.8267,51.870553977272735L245.82811788194445,48.81906392045454L245.82953576388888,11.756420454545463L245.83095364583335,44.489352272727274L245.83237152777778,16.12635937500002L245.83378940972221,43.15707528409092L245.83520729166668,26.764461647727273L245.8366251736111,35.25995880681819L245.83804305555557,29.943924715909105L245.8394609375,60.27252272727273L245.8422967013889,39.12831392045456L245.84371458333334,46.13942471590909L245.84513246527777,16.036602272727265L245.84655034722223,41.66715767045454L245.84796822916667,48.549541193181824L245.8493861111111,53.216910511363636L245.85080399305556,33.27524573863636L245.852221875,24.65001562499998L245.85363975694443,25.09905255681818L245.8550576388889,0.6142201704545585L245.85647552083336,7.845826704545459L245.85789340277776,37.99465909090907" style="fill: none;" fill="none"></path></g></g></g></g></g></g><g transform="translate(74, 177)" clip-path="url(#clip_1)"><clipPath id="clip_1"><rect width="255" height="23"></rect></clipPath><g><g><line x1="0" y1="0" x2="0" y2="5" style="visibility: inherit;" fill="rgb(0, 0, 0)" stroke="rgb(204, 204, 204)" stroke-width="1px"></line><line x1="28.357638888888886" y1="0" x2="28.357638888888886" y2="5" style="visibility: inherit;" fill="rgb(0, 0, 0)" stroke="rgb(204, 204, 204)" stroke-width="1px"></line><line x1="56.71527777777777" y1="0" x2="56.71527777777777" y2="5" style="visibility: inherit;" fill="rgb(0, 0, 0)" stroke="rgb(204, 204, 204)" stroke-width="1px"></line><line x1="85.07291666666666" y1="0" x2="85.07291666666666" y2="5" style="visibility: inherit;" fill="rgb(0, 0, 0)" stroke="rgb(204, 204, 204)" stroke-width="1px"></line><line x1="113.43055555555554" y1="0" x2="113.43055555555554" y2="5" style="visibility: inherit;" fill="rgb(0, 0, 0)" stroke="rgb(204, 204, 204)" stroke-width="1px"></line><line x1="141.78819444444446" y1="0" x2="141.78819444444446" y2="5" style="visibility: inherit;" fill="rgb(0, 0, 0)" stroke="rgb(204, 204, 204)" stroke-width="1px"></line><line x1="170.14583333333331" y1="0" x2="170.14583333333331" y2="5" style="visibility: inherit;" fill="rgb(0, 0, 0)" stroke="rgb(204, 204, 204)" stroke-width="1px"></line><line x1="198.50347222222223" y1="0" x2="198.50347222222223" y2="5" style="visibility: inherit;" fill="rgb(0, 0, 0)" stroke="rgb(204, 204, 204)" stroke-width="1px"></line><line x1="226.8611111111111" y1="0" x2="226.8611111111111" y2="5" style="visibility: inherit;" fill="rgb(0, 0, 0)" stroke="rgb(204, 204, 204)" stroke-width="1px"></line><line x1="255.21875" y1="0" x2="255.21875" y2="5" style="visibility: inherit;" fill="rgb(0, 0, 0)" stroke="rgb(204, 204, 204)" stroke-width="1px"></line></g><g transform="translate(0, 8)"><text x="0" y="0" dx="0em" dy="0.95em" style="text-anchor: middle; visibility: hidden; font-family: &quot;Helvetica Neue&quot;, sans-serif; font-size: 12px; font-weight: 200;" fill="rgb(50, 49, 63)" stroke="none" stroke-width="1px">-20k</text><text x="28.357638888888886" y="0" dx="0em" dy="0.95em" style="text-anchor: middle; visibility: inherit; font-family: &quot;Helvetica Neue&quot;, sans-serif; font-size: 12px; font-weight: 200;" fill="rgb(50, 49, 63)" stroke="none" stroke-width="1px">0</text><text x="56.71527777777777" y="0" dx="0em" dy="0.95em" style="text-anchor: middle; visibility: hidden; font-family: &quot;Helvetica Neue&quot;, sans-serif; font-size: 12px; font-weight: 200;" fill="rgb(50, 49, 63)" stroke="none" stroke-width="1px">20k</text><text x="85.07291666666666" y="0" dx="0em" dy="0.95em" style="text-anchor: middle; visibility: inherit; font-family: &quot;Helvetica Neue&quot;, sans-serif; font-size: 12px; font-weight: 200;" fill="rgb(50, 49, 63)" stroke="none" stroke-width="1px">40k</text><text x="113.43055555555554" y="0" dx="0em" dy="0.95em" style="text-anchor: middle; visibility: hidden; font-family: &quot;Helvetica Neue&quot;, sans-serif; font-size: 12px; font-weight: 200;" fill="rgb(50, 49, 63)" stroke="none" stroke-width="1px">60k</text><text x="141.78819444444446" y="0" dx="0em" dy="0.95em" style="text-anchor: middle; visibility: inherit; font-family: &quot;Helvetica Neue&quot;, sans-serif; font-size: 12px; font-weight: 200;" fill="rgb(50, 49, 63)" stroke="none" stroke-width="1px">80k</text><text x="170.14583333333331" y="0" dx="0em" dy="0.95em" style="text-anchor: middle; visibility: hidden; font-family: &quot;Helvetica Neue&quot;, sans-serif; font-size: 12px; font-weight: 200;" fill="rgb(50, 49, 63)" stroke="none" stroke-width="1px">100k</text><text x="198.50347222222223" y="0" dx="0em" dy="0.95em" style="text-anchor: middle; visibility: inherit; font-family: &quot;Helvetica Neue&quot;, sans-serif; font-size: 12px; font-weight: 200;" fill="rgb(50, 49, 63)" stroke="none" stroke-width="1px">120k</text><text x="226.8611111111111" y="0" dx="0em" dy="0.95em" style="text-anchor: middle; visibility: hidden; font-family: &quot;Helvetica Neue&quot;, sans-serif; font-size: 12px; font-weight: 200;" fill="rgb(50, 49, 63)" stroke="none" stroke-width="1px">140k</text><text x="255.21875" y="0" dx="0em" dy="0.95em" style="text-anchor: middle; visibility: hidden; font-family: &quot;Helvetica Neue&quot;, sans-serif; font-size: 12px; font-weight: 200;" fill="rgb(50, 49, 63)" stroke="none" stroke-width="1px">160k</text></g><line x1="0" y1="0" x2="255.21875" y2="0" fill="rgb(0, 0, 0)" stroke="rgb(204, 204, 204)" stroke-width="1px"></line></g></g></g></g></svg>