<svg viewBox="0 0 330 200" xmlns="http://www.w3.org/2000/svg"><g><g><g><g><g><line x1="61.953125" y1="177" x2="56.953125" y2="177" style="visibility: inherit;" fill="rgb(0, 0, 0)" stroke="rgb(204, 204, 204)" stroke-width="1px"></line><line x1="61.953125" y1="159.3" x2="56.953125" y2="159.3" style="visibility: inherit;" fill="rgb(0, 0, 0)" stroke="rgb(204, 204, 204)" stroke-width="1px"></line><line x1="61.953125" y1="141.6" x2="56.953125" y2="141.6" style="visibility: inherit;" fill="rgb(0, 0, 0)" stroke="rgb(204, 204, 204)" stroke-width="1px"></line><line x1="61.953125" y1="123.89999999999999" x2="56.953125" y2="123.89999999999999" style="visibility: inherit;" fill="rgb(0, 0, 0)" stroke="rgb(204, 204, 204)" stroke-width="1px"></line><line x1="61.953125" y1="106.2" x2="56.953125" y2="106.2" style="visibility: inherit;" fill="rgb(0, 0, 0)" stroke="rgb(204, 204, 204)" stroke-width="1px"></line><line x1="61.953125" y1="88.5" x2="56.953125" y2="88.5" style="visibility: inherit;" fill="rgb(0, 0, 0)" stroke="rgb(204, 204, 204)" stroke-width="1px"></line><line x1="61.953125" y1="70.8" x2="56.953125" y2="70.8" style="visibility: inherit;" fill="rgb(0, 0, 0)" stroke="rgb(204, 204, 204)" stroke-width="1px"></line><line x1="61.953125" y1="53.10000000000001" x2="56.953125" y2="53.10000000000001" style="visibility: inherit;" fill="rgb(0, 0, 0)" stroke="rgb(204, 204, 204)" stroke-width="1px"></line><line x1="61.953125" y1="35.39999999999999" x2="56.953125" y2="35.39999999999999" style="visibility: inherit;" fill="rgb(0, 0, 0)" stroke="rgb(204, 204, 204)" stroke-width="1px"></line><line x1="61.953125" y1="17.699999999999996" x2="56.953125" y2="17.699999999999996" style="visibility: inherit;" fill="rgb(0, 0, 0)" stroke="rgb(204, 204, 204)" stroke-width="1px"></line><line x1="61.953125" y1="0" x2="56.953125" y2="0" style="visibility: inherit;" fill="rgb(0, 0, 0)" stroke="rgb(204, 204, 204)" stroke-width="1px"></line></g><g transform="translate(51.953125, 0)"><text x="0" y="177" dx="0em" dy="0.3em" style="text-anchor: end; visibility: hidden; font-family: Roboto, sans-serif; font-size: 12px; font-weight: 200;" fill="rgb(33, 33, 33)" stroke="none" stroke-width="1px">-1e+4</text><text x="0" y="159.3" dx="0em" dy="0.3em" style="text-anchor: end; visibility: inherit; font-family: Roboto, sans-serif; font-size: 12px; font-weight: 200;" fill="rgb(33, 33, 33)" stroke="none" stroke-width="1px">0</text><text x="0" y="141.6" dx="0em" dy="0.3em" style="text-anchor: end; visibility: hidden; font-family: Roboto, sans-serif; font-size: 12px; font-weight: 200;" fill="rgb(33, 33, 33)" stroke="none" stroke-width="1px">1e+4</text><text x="0" y="123.89999999999999" dx="0em" dy="0.3em" style="text-anchor: end; visibility: inherit; font-family: Roboto, sans-serif; font-size: 12px; font-weight: 200;" fill="rgb(33, 33, 33)" stroke="none" stroke-width="1px">2e+4</text><text x="0" y="106.2" dx="0em" dy="0.3em" style="text-anchor: end; visibility: hidden; font-family: Roboto, sans-serif; font-size: 12px; font-weight: 200;" fill="rgb(33, 33, 33)" stroke="none" stroke-width="1px">3e+4</text><text x="0" y="88.5" dx="0em" dy="0.3em" style="text-anchor: end; visibility: inherit; font-family: Roboto, sans-serif; font-size: 12px; font-weight: 200;" fill="rgb(33, 33, 33)" stroke="none" stroke-width="1px">4e+4</text><text x="0" y="70.8" dx="0em" dy="0.3em" style="text-anchor: end; visibility: hidden; font-family: Roboto, sans-serif; font-size: 12px; font-weight: 200;" fill="rgb(33, 33, 33)" stroke="none" stroke-width="1px">5e+4</text><text x="0" y="53.10000000000001" dx="0em" dy="0.3em" style="text-anchor: end; visibility: inherit; font-family: Roboto, sans-serif; font-size: 12px; font-weight: 200;" fill="rgb(33, 33, 33)" stroke="none" stroke-width="1px">6e+4</text><text x="0" y="35.39999999999999" dx="0em" dy="0.3em" style="text-anchor: end; visibility: hidden; font-family: Roboto, sans-serif; font-size: 12px; font-weight: 200;" fill="rgb(33, 33, 33)" stroke="none" stroke-width="1px">7e+4</text><text x="0" y="17.699999999999996" dx="0em" dy="0.3em" style="text-anchor: end; visibility: inherit; font-family: Roboto, sans-serif; font-size: 12px; font-weight: 200;" fill="rgb(33, 33, 33)" stroke="none" stroke-width="1px">8e+4</text><text x="0" y="0" dx="0em" dy="0.3em" style="text-anchor: end; visibility: hidden; font-family: Roboto, sans-serif; font-size: 12px; font-weight: 200;" fill="rgb(33, 33, 33)" stroke="none" stroke-width="1px">9e+4</text></g><line x1="61.953125" y1="0" x2="61.953125" y2="177" fill="rgb(0, 0, 0)" stroke="rgb(204, 204, 204)" stroke-width="1px"></line></g></g><g transform="translate(61, 0)" clip-path="url(#clip_0)"><clipPath id="clip_0"><rect width="268" height="177"></rect></clipPath><g><g><g><line x1="0" y1="0" x2="0" y2="177" fill="rgb(0, 0, 0)" stroke="rgb(66, 66, 66)" stroke-width="1px" opacity="0.25"></line><line x1="26.8046875" y1="0" x2="26.8046875" y2="177" fill="rgb(0, 0, 0)" stroke="rgb(66, 66, 66)" stroke-width="1px" opacity="0.25"></line><line x1="53.609375" y1="0" x2="53.609375" y2="177" fill="rgb(0, 0, 0)" stroke="rgb(66, 66, 66)" stroke-width="1px" opacity="0.25"></line><line x1="80.4140625" y1="0" x2="80.4140625" y2="177" fill="rgb(0, 0, 0)" stroke="rgb(66, 66, 66)" stroke-width="1px" opacity="0.25"></line><line x1="107.21875" y1="0" x2="107.21875" y2="177" fill="rgb(0, 0, 0)" stroke="rgb(66, 66, 66)" stroke-width="1px" opacity="0.25"></line><line x1="134.0234375" y1="0" x2="134.0234375" y2="177" fill="rgb(0, 0, 0)" stroke="rgb(66, 66, 66)" stroke-width="1px" opacity="0.25"></line><line x1="160.828125" y1="0" x2="160.828125" y2="177" fill="rgb(0, 0, 0)" stroke="rgb(66, 66, 66)" stroke-width="1px" opacity="0.25"></line><line x1="187.6328125" y1="0" x2="187.6328125" y2="177" fill="rgb(0, 0, 0)" stroke="rgb(66, 66, 66)" stroke-width="1px" opacity="0.25"></line><line x1="214.4375" y1="0" x2="214.4375" y2="177" fill="rgb(0, 0, 0)" stroke="rgb(66, 66, 66)" stroke-width="1px" opacity="0.25"></line><line x1="241.2421875" y1="0" x2="241.2421875" y2="177" fill="rgb(0, 0, 0)" stroke="rgb(66, 66, 66)" stroke-width="1px" opacity="0.25"></line><line x1="268.046875" y1="0" x2="268.046875" y2="177" fill="rgb(0, 0, 0)" stroke="rgb(66, 66, 66)" stroke-width="1px" opacity="0.25"></line></g><g><line x1="0" y1="177" x2="268.046875" y2="177" fill="rgb(0, 0, 0)" stroke="rgb(66, 66, 66)" stroke-width="1px" opacity="0.25"></line><line x1="0" y1="159.3" x2="268.046875" y2="159.3" fill="rgb(0, 0, 0)" stroke="rgb(66, 66, 66)" stroke-width="1px" opacity="0.25"></line><line x1="0" y1="141.6" x2="268.046875" y2="141.6" fill="rgb(0, 0, 0)" stroke="rgb(66, 66, 66)" stroke-width="1px" opacity="0.25"></line><line x1="0" y1="123.89999999999999" x2="268.046875" y2="123.89999999999999" fill="rgb(0, 0, 0)" stroke="rgb(66, 66, 66)" stroke-width="1px" opacity="0.25"></line><line x1="0" y1="106.2" x2="268.046875" y2="106.2" fill="rgb(0, 0, 0)" stroke="rgb(66, 66, 66)" stroke-width="1px" opacity="0.25"></line><line x1="0" y1="88.5" x2="268.046875" y2="88.5" fill="rgb(0, 0, 0)" stroke="rgb(66, 66, 66)" stroke-width="1px" opacity="0.25"></line><line x1="0" y1="70.8" x2="268.046875" y2="70.8" fill="rgb(0, 0, 0)" stroke="rgb(66, 66, 66)" stroke-width="1px" opacity="0.25"></line><line x1="0" y1="53.10000000000001" x2="268.046875" y2="53.10000000000001" fill="rgb(0, 0, 0)" stroke="rgb(66, 66, 66)" stroke-width="1px" opacity="0.25"></line><line x1="0" y1="35.39999999999999" x2="268.046875" y2="35.39999999999999" fill="rgb(0, 0, 0)" stroke="rgb(66, 66, 66)" stroke-width="1px" opacity="0.25"></line><line x1="0" y1="17.699999999999996" x2="268.046875" y2="17.699999999999996" fill="rgb(0, 0, 0)" stroke="rgb(66, 66, 66)" stroke-width="1px" opacity="0.25"></line><line x1="0" y1="0" x2="268.046875" y2="0" fill="rgb(0, 0, 0)" stroke="rgb(66, 66, 66)" stroke-width="1px" opacity="0.25"></line></g></g></g><g><g><line x1="0" y1="159.3" x2="268.046875" y2="159.3" fill="rgb(0, 0, 0)" stroke="rgb(153, 153, 153)" stroke-width="1.5px"></line></g></g><g><g><line x1="26.8046875" y1="0" x2="26.8046875" y2="177" fill="rgb(0, 0, 0)" stroke="rgb(153, 153, 153)" stroke-width="1.5px"></line></g></g><g><g><g><g><g><path stroke="rgb(255, 112, 67)" stroke-width="2px" d="M27.25768671875,157.3707L27.474804687499997,156.92266875L27.492227734375,156.8397L27.543156640625,157.27081213235294L27.55521875,157.44848296322L27.571301562499997,157.32858585861976L27.607487890625002,157.5990322842319L27.666458203125,157.156893130572L27.675839843749998,157.21467821889667L27.95996953125,157.06911677696132L28.099353906250002,156.94503991898887L28.11007578125,156.57819541074772L28.132859765625003,156.64571543228277L28.22265546875,156.84028172962218L28.32451328125,156.92327806140227L28.378122656250003,156.8916079023414L28.396885937500002,156.58228238292762L28.42101015625,156.81802337160116L28.445134375000002,156.83908530639022L28.522867968750003,156.84464138697325L28.53358984375,156.9329367691154L28.694417968750003,156.9558223626933L28.76947109375,156.9430033163801L28.94102109375,156.87690167661327L29.16081953125,157.01955141152527L29.215769140625,156.7529103920743L29.231851953125,156.77169625447175L29.26267734375,156.6183576585187L29.387319140625,156.7706146512113L29.49319765625,156.91860882344443L29.525363281249998,157.1808653288535L29.530724218750002,157.14174919419898L29.56288984375,157.20677951962472L29.587014062500003,156.90772770320663L29.74516171875,157.26814662811984L29.770626171874998,157.27907797698467L29.863102343749997,157.37413678677908L29.87382421875,157.25240207161542L29.875164453125,157.32627124313382L29.920732421875,157.15465274565088L30.048054687500002,157.0835416473335L30.153933203125,157.17008498844174L30.172696484375,157.2768809930959L30.180737890625,157.18165859584104L30.314761328125,157.02717515748856L30.316101562500002,157.45840509452003L30.320122265625,157.4144730567104L30.371051171875,157.29607383402356L30.4447640625,156.98431430040995L30.463527343750002,156.83265858024473L30.487651562499998,156.88149514814708L30.598891015625,156.87008708888823L30.606932421874998,156.84200225333288L30.62435546875,156.77028135199967L30.751677734374997,157.14850881120003L30.825390625,157.28694528672006L30.834772265625,157.132827172032L30.837452734375,157.1129263032192L30.842813671875,157.08505578193152L30.899103515625,156.87009346915892L30.947351953125,156.98537608149536L30.990239453125,156.9235656488972L31.0130234375,156.94488938933833L31.134984765625,157.178933633603L31.1524078125,157.04324018016177L31.264987499999997,157.19015410809706L31.321277343749998,157.20042246485824L31.50086875,157.33048347891494L31.617469140625,157.12001008734896L31.630871484375,157.2362160524094L31.63221171875,157.30770963144562L31.900258593750003,157.4019357788674L31.925723046875,156.99650146732043L31.9458265625,156.87183088039225L32.154903125,157.05544852823536L32.188408984375,157.1850891169412L32.1924296875,156.79736347016473L32.23263671875,157.06209808209883L32.30768984375,157.1536788492593L32.381402734375,157.37146730955558L32.432331640625,157.67383038573334L32.491301953125,157.30123823144L32.5462515625,157.251142938864L32.571716015625,157.2193157633184L32.583778125,157.07454945799103L32.711100390625,157.15937967479462L32.772751171875,157.07221780487677L32.898733203125,157.04470068292605L32.960383984375,156.93438040975565L32.9804875,157.12837824585338L32.98316796875,157.34743694751202L33.022034765625,157.29302216850724L33.292762109375,156.98602330110432L33.3235875,157.3115839806626L33.416063671875,157.18301038839758L33.464312109375,157.13241623303853L33.472353515625,156.81885973982313L33.580912500000004,156.80418584389386L33.60235625,157.0732715063363L33.670708203125,157.18339290380177L33.739060156250005,157.00520574228108L33.74442109375,157.02573344536864L33.77390625,156.7672400672212L33.796690234375,156.7661340403327L33.812773046875,156.9991104241996L33.861021484375,157.14597625451978L34.00710703125,156.57742575271186L34.158553515624995,156.73012545162712L34.196080078125,157.01998527097626L34.297937890625,157.23461116258576L34.4386625,157.08195669755145L34.50299375,157.10541401853087L34.517736328125,157.28940841111853L34.643718359375,157.25112504667112L34.708049609374996,157.30426502800267L34.7227921875,157.1874690168016L34.825990234375006,157.30147141008098L34.834031640625,157.18933284604856L34.874238671875,157.34860970762915L35.11146015625,157.13265582457748L35.1195015625,157.1818534947465L35.14898671875,157.2078320968479L35.2374421875,157.28890925810876L35.238782421875,157.13931555486525L35.29909296875,156.83892933291915L35.319196484375,156.8144575997515L35.327237890625,157.01748455985089L35.42239453125,157.12691073591054L35.5054890625,157.11645644154632L35.58858359375,157.0836338649278L35.596625,157.12766031895669L35.638172265624995,156.865566191374L35.651574609375004,157.12779971482442L35.7842578125,157.18778982889464L35.799000390625004,157.09280389733678L35.83250625,157.15086233840208L35.833846484375,157.33260740304124L35.981272265625,157.10712444182474L36.107254296875,157.06387466509483L36.166224609375,157.0219947990569L36.19973046875,157.14731687943413L36.327052734375,157.03489012766047L36.356537890625,157.11788407659628L36.373960937499994,157.28804044595776L36.399425390625,157.48394426757466L36.443653125,157.0439365605448L36.454375000000006,157.16756193632688L36.514685546875,157.09305716179614L36.541490234375,157.11738429707768L36.5669546875,157.27358057824662L36.81891875,157.32835834694797L36.830980859374996,157.0461650081688L36.84840390625,156.99897900490126L36.872528124999995,156.94765740294076L36.90737421875,156.98412444176446L36.940880078125,156.56350466505867L36.951601953125,156.8509827990352L37.03603671875,156.9562096794211L37.048098828125,157.23351580765268L37.115110546875,157.3007794845916L37.14861640625,157.31812769075498L37.237071875,157.20286661445297L37.297382421875,157.0310499686718L37.332228515625005,156.76688998120306L37.399240234375,156.83495398872185L37.442127734375,156.8368523932331L37.505118749999994,156.93003143593987L37.687390625,157.0531988615639L37.724917187500004,156.85982931693835L37.821414062500004,156.82522759016302L37.82945546875,156.8434065540978L37.83883710937501,156.7339539324587L37.873683203125005,156.8364323594752L37.8857453125,157.01119941568513L38.03853203125,156.82046964941108L38.223484375,156.70249178964664L38.287815625,156.69896507378797L38.29585703125,157.0880190442728L38.321321484375005,157.04533142656368L38.37091015625,156.9825488559382L38.382972265625,156.9944393135629L38.470087500000005,156.54137358813776L38.490191015625,156.85894415288266L38.538439453124994,157.0441764917296L38.659060546875,157.14292589503773L38.731433203125,157.22872553702265L38.81586796875,156.98461532221359L38.8399921875,156.98328919332818L38.941849999999995,156.85328351599688L38.975355859375,156.72749010959814L39.010201953125,156.39536406575888L39.11608046875,156.57132843945533L39.176391015625,156.7530170636732L39.267526953125,156.70804023820392L39.30907421875,156.74654414292235L39.3653640625,156.82628648575343L39.37340546875,156.78209189145204L39.52083124999999,156.85469513487124L39.6119671875,156.98498708092274L39.747330859375,157.08263224855364L39.787537890625,157.0828093491322L39.798259765625,157.05636560947931L39.818363281249994,156.9484593656876L39.9014578125,156.75627561941255L40.068987109375,156.62326537164753L40.1695046875,157.05321922298853L40.272702734374995,157.0279915337931L40.29548671875,156.74027492027585L40.32229140625,156.39418495216552L40.328992578125,156.66266097129932L40.339714453125,156.6538265827796L40.345075390625006,156.38302594966777L40.389303125000005,156.60463556980065L40.414767578124994,156.6668013418804L40.4589953125,156.48993080512824L40.465696484374995,156.67939848307694L40.511264453125,157.06565908984618L40.572915234375,156.8832354539077L40.693536328125,157.04636127234463L40.7592078125,157.00794676340678L40.9414796875,156.95923305804405L41.119730859375004,157.02469983482644L41.1559171875,156.94361990089587L41.1988046875,156.71266194053752L41.275198046875005,156.49620716432253L41.32210625,156.6990942985935L41.36231328125,156.81374657915612L41.40520078125,157.08254794749368L41.461490625,156.6898187684962L41.51241953125,156.77986126109772L41.606235937499996,157.06752675665862L41.87964375,156.89674605399517L41.88634492187499,156.8261376323971L41.901087499999996,156.82448257943827L41.92521171875,156.83056954766295L41.961398046875,156.8607717285978L42.1101640625,157.05589303715865L42.13160781249999,156.9428658222952L42.340684374999995,157.02903949337713L42.400994921875,157.12853369602627L42.4157375,157.15991021761576L42.429139843749994,157.01235613056946L42.4747078125,156.6777936783417L42.551101171875,156.434576207005L42.559142578125,156.748845724203L42.66502109375,156.8064274345218L42.702547656250005,156.84805646071308L42.837911328125,156.87480387642785L42.902242578125,156.92359732585672L42.97059453125,157.05995839551403L42.990698046874996,157.2108050373084L43.049668359375,157.26414302238504L43.146165234375,157.13684581343102L43.2145171875,157.25516748805862L43.40483046875,157.15447049283517L43.430294921875,157.1029022957011L43.545555078125,156.98346137742067L43.629989843749996,156.9082568264524L43.65679453124999,157.05783409587144L43.659475,156.81128045752286L43.761332812499994,156.77308827451373L43.80958125,156.85814296470824L43.88195390625,156.88616577882493L43.88731484375,157.05165946729497L43.904737890625,156.98457568037696L43.9864921875,157.02043540822618L43.99453359375,157.0083212449357L44.0454625,157.08247274696143L44.2330953125,156.94288364817686L44.2545390625,157.0839201889061L44.2759828125,157.21102211334366L44.290725390625,157.2111732680062L44.454233984375,157.20595396080373L44.644547265625,157.37628237648224L44.695476171875,157.23598942588933L44.791973046875,157.1889836555336L44.88176875,157.11830019332015L44.97558515625,156.9714601159921L45.18466171875,156.69042606959525L45.198064062499995,156.73243564175715L45.258374609375,156.7647213850543L45.344149609375,157.05844283103258L45.4232234375,157.04528569861955L45.46879140625,157.31882141917174L45.48219375,157.20151285150303L45.507658203125004,157.03023771090182L45.53848359375,156.98942262654109L45.64034140625,156.86935357592466L45.66714609375,156.8451021455548L45.724776171875,157.05711128733287L45.73147734375,156.70818677239973L45.865500781250006,156.82451206343984L45.912408984375,156.7527072380639L46.003544921875,156.79635434283833L46.081278515625,156.833162605703L46.108083203125,156.7189575634218L46.263550390625,156.95664453805307L46.297056250000004,156.72224672283184L46.368088671875,156.69488803369913L46.4632453125,156.25544282021946L46.518194921875,156.53870569213169L46.732632421875,156.768843415279L46.751395703125,156.6254960491674L46.7634578125,156.41027762950046L46.80902578125,156.35194657770026L46.979235546875,156.32756794662015L46.987276953125004,156.45454076797208L47.04490703125,156.61037446078325L47.05026796875,156.66316467646996L47.113258984375,156.88776880588196L47.188312109375005,156.5747212835292L47.30223203125,156.5417677701175L47.303572265625,156.5883706620705L47.585021484375,156.3207423972423L47.6748171875,156.06989543834538L47.76863359375,156.48755726300723L47.788737109375,156.69567435780434L47.796778515625,156.6417746146826L47.834305078125,156.93865476880956L47.851728125,156.83446786128573L48.019257421875,156.66133071677143L48.024618359375,155.97511843006288L48.137198046875,156.26077105803773L48.188126953125,156.24985263482262L48.22431328125,156.42207158089357L48.257819140625,156.26875294853613L48.29400546875,156.5042117691217L48.312768750000004,156.47910706147303L48.356996484375,156.47466423688383L48.511123437500004,156.58527854213028L48.608960546875004,156.57022712527817L48.617001953125005,156.7275762751669L48.917214453125,156.96535576510016L48.9721640625,156.7894234590601L49.011030859375005,157.05202407543607L49.138353125,157.08037444526164L49.206705078125,156.70798466715698L49.21072578125,156.13586080029418L49.233509765625,156.12888648017653L49.343408984375,156.0096518881059L49.372894140625,155.93634113286353L49.525680859375,156.35166967971813L49.568568359375,156.29377180783086L49.590012109375,155.8147630846985L49.624858203125,156.0371178508191L49.808470312500006,156.10150071049148L49.81651171875,156.3897004262949L49.831254296874995,156.28119025577695L50.008165234375,156.20369415346616L50.166312890624994,156.25808649207968L50.222602734375,156.3491318952478L50.274871875,156.12940913714868L50.3660078125,155.86836548228922L50.67158125,156.29937928937352L50.702406640625,156.3349675736241L50.74931484375,155.71027054417448L50.76003671875,155.8965423265047L50.789521875000005,156.0507853959028L50.796223046875,155.9486312375417L50.85653359375,156.074958742525L50.916844140625,155.931275245515L50.94766953125,156.03445514730902L50.9878765625,155.6237730883854L51.262624609375,155.85172385303125L51.337677734375,155.86459431181873L51.379225,155.86877658709125L51.41407109375,155.63764595225473L51.549434765625,155.97686757135287L51.608405078125,155.71843054281172L51.723665234375,155.653638325687L51.797378125,155.83601299541223L52.009135156250004,155.75781779724733L52.031919140625,155.79940067834838L52.07748710937501,155.34822040700905L52.09491015625,155.28991224420542L52.1351171875,155.52396734652325L52.262439453125005,155.57767040791396L52.372338671875,155.79928224474835L52.391101953124995,155.710999346849L52.551930078125004,155.95184960810943L52.573373828125,155.62199976486565L52.7355421875,155.59400985891938L52.947299218750004,155.55243591535162L53.01163046875,155.10446154921098L53.11884921875,155.3277369295266L53.331946484375,155.29709215771595L53.369473046875,155.28932529462958L53.48339296875,155.88823517677775L53.650922265625,155.26523110606666L53.691129296875005,155.77819866363998L53.72463515625,155.795699198184L53.927010546875,155.7477895189104L53.996702734375006,155.97392371134623L54.019486718749995,156.09367422680774L54.085158203125005,156.33544453608465L54.46444453125,156.38138672165078L54.58238515625,155.61068203299047L54.782080078125,155.0155092197943L54.883937890625,154.42299553187658L54.894659765625,154.86752731912594L54.896,155.22805639147558L54.97373359375,155.55057383488534L54.980434765625,155.5600043009312L55.202913671874995,154.99395258055873L55.358380859374996,155.24019154833522L55.363741796875004,155.69414492900114L55.371783203125005,155.53817695740068L55.407969531250004,155.8729361744404L55.66529453125,155.32685170466425L55.747048828124996,155.67711102279853L55.765812109375005,155.69610661367912L55.883752734375,155.5216539682075L55.9628265625,155.40105238092448L56.02983828125,155.6172014285547L56.135716796875,155.1433208571328L56.214790625,154.77934251427968L56.312627734375,154.92557550856782L56.437269531249996,154.8894153051407L56.457373046875,154.96152918308442L56.481497265625,154.43662750985067L56.500260546875,153.95707650591038L56.588716015624996,153.84634590354622L56.98408515625,153.90734754212775L57.060478515625,154.12625852527663L57.0993453125,154.77975511516598L57.10738671875,154.5346530690996L57.132851171875004,154.71858184145975L57.355330078125,154.06960910487587L57.403578515625,153.7032354629255L57.419661328124995,153.7259012777553L57.65420234375,153.84570076665318L57.752039453125,154.25742045999192L57.762761328124995,154.62658227599513L57.780184375,154.3170793655971L57.930290625000005,153.97915761935823L57.963796484374996,153.83658457161496L57.98658046875,154.03158574296899L58.097819921875,154.19549144578136L58.210399609375,154.40888486746883L58.532055859375,154.1599109204813L58.557520312499996,152.88657655228877L58.562881250000004,152.81641593137329L58.659378125,153.48762955882395L58.7290703125,153.34431273529438L58.966291796875005,153.31407764117662L59.454137109375,153.40036658470598L59.744967968750004,153.6910899508236L60.01837578125,153.14867397049414L60.183224609375,153.4267943822965L60.25425703125,153.2732966293779L60.260958203125,152.64665797762675L60.494158984375,152.96274478657602L60.713957421875,153.13646687194563L60.939116796875,152.58934012316737L61.121388671875,150.96011407390043L61.205823437499994,151.86231844434025L61.35056875,152.26381106660415L61.4417046875,151.1364966399625L61.678926171875,150.7910979839775L61.70707109375,148.7147387903865L61.7204734375,149.8938232742319L61.75531953125,149.03482396453916L61.942952343749994,149.46460437872346L61.96439609375,150.97740262723408L62.166771484375,151.52046157634047L62.4281171875,149.50989694580426L62.547398046874996,150.47180816748255L62.665338671875,151.58349490048954L62.696164062499996,151.05398694029373L62.752453906250004,151.65314216417622L62.757814843750005,151.41437529850575L62.863693359375006,148.64266517910343L63.1357609375,148.22217910746207L63.26174296875,146.98399746447723L63.292568359375004,147.10661847868633L63.32071328125,145.6827710872118L63.512366796875,146.71351265232707L63.858147265625,150.03120759139625L63.941241796875005,150.41466455483774L64.045780078125,150.31020873290265L64.104750390625,151.58742523974158L64.413004296875,150.13063514384496L64.597956640625,148.01048108630698L64.60197734375,148.54555865178418L65.04291445312501,148.9798851910705L65.4302421875,149.7219211146423L65.47044921875,148.7015826687854L65.595091015625,146.77072960127123L65.77066171875,146.47243776076274L65.7840640625,148.78739265645765L65.785404296875,148.60814559387458L65.8591171875,148.08464735632475L65.94355195312501,149.53346841379485L66.06015234375,151.9249610482769L66.283971484375,147.50292662896615L67.061307421875,149.03929597737968L67.31461171875,148.52210758642784L67.672454296875,149.13396455185668L67.76225000000001,148.582448731114L67.81317890625,147.22759423866842L67.91637695312501,147.55898654320106L68.00215195312501,145.92764192592062L68.674949609375,146.70290515555237L68.776807421875,147.13797309333142L69.082380859375,147.00607385599884L69.337025390625,146.47204431359933L69.381253125,146.9764465881596L69.43218203125,142.65230795289574L69.83961328125,143.70933477173747L70.10766015625,146.79323086304248L70.389109375,146.5638185178255L70.529833984375,145.7500311106953L70.59282499999999,145.87771866641717L70.860871875,142.2373311998503L71.22809609375001,141.2035987199102L71.371501171875,144.6331192319461L71.84996484375,143.79511153916766L71.853985546875,142.8533469235006L71.85934648437501,145.86899815410035L72.05904140625,147.36686889246022L72.13945546875,146.81242133547613L72.47987499999999,145.34164280128567L72.54286601562501,146.70176568077142L73.0963828125,147.32136940846283L73.103083984375,145.9726916450777L73.48505078125,144.9988749870466L73.4930921875,144.41635499222798L73.63113632812501,145.1872529953368L73.70216875,144.86037179720208L74.143105859375,145.71562307832124L74.25970625000001,146.85358384699276L74.46878281250001,148.41074030819564L74.48352539062499,143.1553441849174L74.62156953125,142.81463651095044L74.62693046875,143.99612190657024L74.848069140625,145.09795314394216L75.45787578125,143.1394518863653L75.499423046875,140.50941113181915L75.826440234375,144.74052667909152L75.900153125,142.60816600745488L76.019433984375,141.95355960447293L77.319461328125,143.11839576268378L77.453484765625,142.69334745761026L77.826069921875,142.48787847456614L78.220098828125,141.6371270847397L78.313915234375,141.2434962508438L78.327317578125,143.1313177505063L78.409071875,144.93661065030378L78.730728125,142.11516639018225L78.91434023437499,141.89670983410937L79.506723828125,144.9994259004656L79.53754921875,148.52485554027936L79.56703437499999,144.06633332416763L80.104468359375,142.2390499945006L80.125912109375,143.42774999670033L80.15941796874999,143.6630699980202L80.377876171875,139.0111019988121L80.723656640625,144.36723119928726L81.334803515625,145.59319871957237L81.56398359375,144.06140923174343L81.656459765625,143.76006553904605L82.01966328124999,143.45712932342764L82.04110703125001,135.9227875940566L82.205955859375,139.31408255643396L82.4136921875,142.51882953386036L82.46998203125,145.62049772031622L82.49678671875,144.82118863218972L82.56111796875,143.90972317931383L83.07174726562499,139.97683390758831L83.08917031249999,140.36945034455297L83.291545703125,142.2068702067318L83.35051601562499,137.36389212403907L83.52876718750001,136.53077527442343L83.76196796875,133.74052516465406L83.9898078125,135.74266509879243L84.37847578125,135.89787905927545L84.56476835937501,137.42824743556528L85.07003671874999,142.02275846133918L85.8232484375,143.1864650768035L85.91438437500001,141.3925290460821L86.261505078125,140.83300742764928L86.612646484375,143.02839445658955L87.363177734375,142.35083667395375L87.636585546875,138.56183200437223L88.025253515625,137.87257920262334L88.156596484375,139.844987521574L88.165978125,138.9451425129444L88.43670546875,140.91332550776664L88.79856875,142.24114530465997L88.91382890625,139.267737182796L89.051873046875,142.10516230967758L89.27033125,137.92236738580655L89.604049609375,139.9049504314839L89.7796203125,139.96170025889035L90.39746835937501,140.3267401553342L90.582420703125,142.89986409320053L90.7928375,143.1799584559203L91.697495703125,140.0044850735522L92.053998046875,141.18785104413132L92.37431406249999,137.3578206264788L92.71205312500001,140.04412237588727L93.03236914062501,141.54616342553237L93.694444921875,142.95714805531944L94.43559453125,141.58769883319167L94.76529218750001,140.001389299915L94.973028515625,138.596483579949L95.289323828125,138.8226201479694L95.78655078125,137.14759208878164L96.02243203124999,134.206195253269L96.535741796875,134.6414671519614L96.92306953125001,137.09566029117684L97.17503359375,138.6212761747061L97.65751796875,133.11685570482365L97.75401484375,138.9367834228942L97.87195546875,136.3788800537365L97.908141796875,134.02993803224192L97.959070703125,134.91980281934514L98.50454609375,138.0379216916071L98.881151953125,136.34224301496425L99.00311328125001,135.33191580897855L100.05519726562501,136.26561948538713L100.270975,133.53895169123228L100.99738203125,136.71027101473936L101.344502734375,137.09263260884362L101.518733203125,133.56964956530618L101.80554335937501,131.79038973918372L101.864513671875,134.26106384351021L101.947608203125,131.37864830610613L101.96503125000001,136.13801898366367L103.28248164062501,129.73831139019822L104.22734687500001,133.78383683411894L104.515497265625,133.11011210047135L104.763440625,138.07251726028284L104.87333984375,136.2125503561697L105.10654062500001,141.1694402137018L105.26736875,136.78391412822108L105.75119335937501,134.00922847693266L106.440073828125,131.5178270861596L107.26699843749999,133.38952625169574L107.57257187500001,121.62871575101745L107.670408984375,127.82421945061046L107.85938203125001,126.12178167036627L108.386094140625,128.59783900221976L108.482591015625,126.28505340133188L109.28807187500001,129.58788204079914L109.388589453125,131.71825922447945L109.64457421875001,129.5803855346877L109.98499375,123.75053132081263L110.401806640625,130.86376879248758L110.554593359375,130.25182127549255L111.0089328125,135.18757276529553L111.19656562499999,128.63881365917732L111.262237109375,130.0407981955064L111.53162421875001,125.96846891730382L112.35586835937501,125.4260513503823L112.8638171875,123.60141081022938L112.910725390625,124.90143648613763L112.98711875000001,125.45843189168257L113.16671015625,126.26167913500956L113.328878515625,126.43387748100575L113.77249609375,127.03456648860345L113.8663125,122.58588989316205L113.899818359375,120.46361393589724L114.7830328125,123.08424836153833L114.88757109375,132.06584901692298L115.073863671875,132.8705094101538L116.86977773437499,128.92830564609227L117.183392578125,131.68713338765536L117.220919140625,132.95834003259324L117.844128125,135.27866401955595L117.915160546875,129.15366841173355L118.183207421875,130.83292104704014L118.705898828125,128.9412126282241L118.791673828125,127.48050757693444L118.898892578125,129.26262454616068L119.280859375,133.42585472769642L119.300962890625,132.19086283661784L119.47117265625,131.6781977019707L120.1225265625,132.87155862118243L120.15201171874999,137.10456517270944L120.28335468750001,127.71279910362567L120.3798515625,131.0728794621754L121.919780859375,128.67808767730526L121.95060624999999,122.78789260638314L122.161023046875,127.5072855638299L123.377955859375,126.51572133829794L123.42486406249999,128.48020280297877L124.11910546875,121.82664168178725L124.241066796875,122.80643500907235L124.25178867187499,123.81203100544343L124.283954296875,123.88969860326605L124.35498671875,127.63028916195962L124.38983281249999,127.04441349717578L124.46890664062501,130.48068809830545L124.627054296875,133.95668285898327L126.03966132812499,123.30358971538996L126.5985390625,129.262793829234L126.712458984375,109.18934629754038L127.556806640625,111.72476777852422L127.666705859375,118.35247066711453L127.944134375,116.61022240026871L128.749615234375,119.23054344016124L129.693140234375,118.18313606409674L129.824483203125,108.13475163845804L130.028198828125,107.92194098307482L130.416866796875,113.6759645898449L130.564292578125,115.84866875390694L130.749244921875,117.49301625234415L131.20090390625,101.4548797514065L131.761121875,114.3340078508439L131.936692578125,120.29148471050634L132.318659375,129.1830508263038L132.350825,125.06973049578228L132.404434375,129.83041829746938L132.94052812500001,134.1205309784816L133.04506640625002,133.73692858708898L133.191151953125,130.9561971522534L133.88137265625,134.11100829135202L134.26199921875,135.64281497481122L134.266019921875,129.76332898488673L134.50860234375,130.00573739093204L134.77396875,131.7441824345592L134.836959765625,137.02639946073555L134.849021875,131.31386967644133L135.0688203125,120.5178418058648L135.126450390625,121.13615508351889L135.149234375,124.61526305011132L136.319258984375,117.63501783006679L136.35812578125,124.02970069804007L136.573903515625,129.03648041882406L136.88885859375,128.41912825129444L136.90092070312502,126.96724695077666L137.235979296875,123.27650817046599L137.81093984375,124.1471749022796L138.09506953125,123.27304494136777L138.24249531249998,121.44053696482065L138.375178515625,123.0438221788924L138.667349609375,130.43974330733542L138.698175,131.09657598440126L139.29055859374998,135.06076559064076L139.691288671875,124.07754935438444L140.59862734375002,127.73768961263067L140.935026171875,130.4134437675784L142.29402382812498,131.21885626054703L142.2953640625,134.61021375632822L142.953419140625,124.22139825379693L142.97084218749998,128.22047895227817L143.67848593750003,130.9332173713669L143.79374609375,136.51504042282014L144.08189648437502,138.1684742536921L144.307055859375,140.34997455221526L144.75469414062502,132.85135473132917L145.255941796875,123.12891283879748L145.69285820312498,124.31703770327852L145.8443046875,122.5041226219671L146.34019140625,125.07850357318026L146.3750375,124.83366214390816L146.797211328125,121.75917728634491L146.964740625,121.30039637180693L147.925688671875,115.69565782308416L148.0208453125,113.81607469385051L148.47652499999998,108.2137648163103L149.38520390624998,114.9714688897862L149.87572968749998,108.7813313338717L149.882430859375,114.95800880032303L150.563269921875,112.52211528019382L151.112766015625,119.49993916811631L151.45050507812502,128.0673835008698L151.9236078125,125.14550010052187L152.28011015625,121.01880006031313L153.034662109375,114.21690003618787L153.64580898437498,108.84543002171273L153.9500421875,110.04931801302763L154.061281640625,108.35914080781657L154.632221484375,118.58807448468997L155.01954921875,119.39950469081397L155.027590625,103.80237281448838L155.597190234375,110.32453368869302L156.24050273437499,108.94730021321581L156.331638671875,113.1017401279295L156.345041015625,108.9515940767577L158.213327734375,110.53781644605463L158.3460109375,114.87024986763277L158.706533984375,117.22013992057967L159.148811328125,120.0159839523478L159.73449375,118.08977037140869L160.13924453125,100.0110722228452L160.537294140625,109.98259333370711L160.8227640625,108.47132600022427L161.48215937499998,107.64598560013455L162.038356640625,105.84275136008077L162.16031796875,108.50436081604843L162.571769921875,101.50443648962907L163.298176953125,113.25572189377745L164.44273710937497,115.24960313626646L165.035120703125,110.60316188175989L165.4653359375,116.46351712905592L165.51626484375,113.21302027743356L166.166278515625,112.96546216646016L166.270816796875,113.40456729987609L166.688969921875,102.23560037992564L166.907428125,117.7335602279554L168.029204296875,112.18734613677324L168.04126640625,114.84398768206393L168.9713890625,107.37911260923836L169.551710546875,104.864887565543L169.6361453125,103.11563253932582L170.60245429687498,110.6470395235955L171.732271875,117.77309371415728L171.985576171875,119.66276622849438L172.45331796874999,109.83672973709663L172.632909375,116.30809784225798L173.339212890625,119.03864870535479L173.851182421875,116.99006922321287L174.133971875,116.94505153392774L175.10966249999998,106.23609092035665L176.18989140624998,109.99883455221398L176.59196171875,102.5002407313284L176.7393875,103.39427443879704L176.834544140625,108.85483466327823L177.10661171875,102.27050079796695L178.343648046875,104.63526047878017L178.445505859375,98.49621628726811L179.29119375000002,101.31222977236087L180.00151796875,85.26289786341651L180.136881640625,95.1546287180499L180.15698515625,103.16233723082995L180.5992625,112.08929233849798L180.82442187499998,103.62353540309878L180.943702734375,102.92306124185926L181.25597734375,77.92632674511556L181.29886484375,80.24065604706934L182.39919726562502,71.99337362824161L182.57610820312502,83.19271417694497L182.661883203125,83.54031850616698L183.31993828125002,100.4452911037002L183.59334609375,111.78833466222015L185.65194609374998,111.36725079733209L185.6867921875,102.28230047839925L186.22556640624998,106.91856028703955L186.382373828125,102.73536617222373L186.7750625,93.19677970333424L187.253526171875,80.03962782200054L187.494768359375,94.85797669320033L187.81776484375,96.55039601592019L189.63512265625002,90.24158760955214L189.92461328125,87.75194256573128L190.129669140625,92.00534553943878L191.481965625,95.49194732366327L191.59990625,104.18423839419798L193.32746835937502,95.95469303651879L194.5430609375,79.18274582191125L194.82451015625,92.04815749314676L195.88463554687502,98.21511449588805L196.26124140625,97.80003869753284L197.50497890625,111.65789321851969L197.66580703125,93.96068593111184L199.17491093750002,73.3454015586671L200.1613234375,69.09699093520027L200.26050078125002,46.87085456112016L200.87164765625,46.56591273667209L201.67712851562501,78.05709764200326L201.87950390625,87.53540858520196L202.3807515625,83.36172515112118L202.84983359375002,104.47993509067271L203.738408984375,100.16948105440362L204.53048750000002,111.46177863264218L204.783791796875,105.84007717958531L207.172089453125,90.50008630775119L208.744184375,84.68210178465071L209.303062109375,88.70142107079045L209.64616210937498,88.08631264247425L210.34174375,97.62924758548455L211.677957421875,106.84898855129074L212.38426093750002,108.78596313077445L212.39230234375,99.75294787846467L213.30098125,87.17879872707881L216.61672109375002,76.90319923624727L217.776023828125,85.77398954174836L218.30541640625,83.56511372504903L218.3134578125,83.76729823502941L220.409584375,74.74655894101764L222.464163671875,92.2166753646106L225.71959296875,47.31190521876634L226.42723671874998,66.23151313125982L231.88065039062502,48.24552787875589L234.164409765625,38.935426727253535L234.469983203125,4.854136036352118L234.93370429687502,22.037331621811266L236.17074062499998,9.13723897308677L237.607471875,12.760583383852058L238.075213671875,55.05518003031123L238.088616015625,50.50477801818674L238.169030078125,17.350006810912063L238.195834765625,47.54637408654725L238.20923710937498,54.80524445192834L238.22263945312503,64.16789667115701L238.276248828125,81.21083800269422L238.289651171875,-25.742707198383457L238.303053515625,-0.7776343190300654L238.329858203125,27.86403940858194L238.370065234375,6.710843645149159L238.396869921875,5.722166187089501L238.46388164062498,18.9845197122537L238.477283984375,30.802301827352238L238.517491015625,21.747031096411327L238.584502734375,-15.44524134215321L238.597905078125,23.732735194708066L238.638112109375,19.61513111682486L238.70512382812498,41.650218670094915L238.731928515625,-58.77865879794305L238.798940234375,-18.18234070035566L238.839147265625,23.543645579786602L238.879354296875,12.772137347871942L238.91956132812498,38.30906240872318L238.973170703125,52.35150744523389L239.02678007812503,58.704304467140346L239.053584765625,27.742562680284223L239.120596484375,30.497557608170517L239.13399882812502,13.754944564902303L239.160803515625,-11.503773261058596L239.20101054687498,15.374956043364822L239.26802226562498,-22.49165637398112L239.402045703125,16.138346175611343L239.415448046875,9.516627705366805L239.469057421875,21.331996623220082L239.495862109375,40.72094797393207L239.562873828125,40.497088784359256L239.58967851562502,20.075033270615542L239.616483203125,26.465209962369354L239.643287890625,4.890965977421609L239.683494921875,10.237599586452975L239.750506640625,14.778389751871769L239.763908984375,52.61258385112306L239.777311328125,55.93868031067384L239.79071367187498,64.7169781864043L239.804116015625,70.85302691184259L239.817518359375,50.59540614710554L239.87112773437502,73.66206368826333L239.897932421875,75.646598212958L239.924737109375,61.618858927774795L239.964944140625,24.591935356664873L240.00515117187499,-30.431168786001084L240.018553515625,22.325628728399355L240.058760546875,44.798717237039625L240.192783984375,35.44072034222377L240.206186328125,48.98617220533427L240.273198046875,47.75722332320054L240.28660039062498,32.19433399392035L240.367014453125,-4.443879603647806L240.43402617187502,15.584142237811319L240.487635546875,13.499365342686806L240.501037890625,-5.644430794387905L240.56804960937498,38.91280152336725L240.581451953125,30.16926091402036L240.608256640625,14.984586548412201L240.67526835937502,16.90973192904733L240.688670703125,25.445719157428396L240.742280078125,49.440821494457026L240.795889453125,42.465132896674234L240.822694140625,49.28734973800455L240.862901171875,2.6011498428027258L240.903108203125,40.20686990568165L240.943315234375,40.767431943408994L240.99692460937501,-51.85663083395461L241.023729296875,8.840231499627231L241.037131640625,4.387278899776349L241.077338671875,21.64924733986579L241.09074101562499,12.407218403919487L241.144350390625,-6.179358957648324L241.18455742187498,-16.32948537458899L241.197959765625,26.940428775246595L241.21136210937502,-10.106082734852015L241.358787890625,-6.92083178454675L241.466006640625,30.04390092927196L241.533018359375,28.039230557563208L241.546420703125,47.84986833453792L241.559823046875,2.5882610007227482L241.573225390625,33.533316600433665L241.613432421875,18.337599960260206L241.667041796875,-0.7484700238438988L241.73405351562502,5.42731798569365L241.76085820312503,-0.030499208583813386L241.881479296875,8.097150474849707L241.921686328125,32.349930284909846L241.948491015625,34.74700817094591L242.08251445312501,56.159704902567555L242.122721484375,70.71183294154054L242.149526171875,78.75103976492433L242.17633085937499,45.3372538589546L242.21653789062498,38.144492315372744L242.24334257812498,-49.242574610776344" style="fill: none;" fill="none"></path></g></g></g></g><g opacity="0.2"><g><g><g><path stroke="rgb(255, 112, 67)" stroke-width="2px" d="M27.25768671875,157.3707L27.474804687499997,156.65385L27.492227734375,156.76005L27.543156640625,157.77779999999998L27.55521875,157.68045L27.571301562499997,157.162725L27.607487890625002,157.985775L27.666458203125,156.51225L27.675839843749998,157.2999L27.95996953125,156.85297500000001L28.099353906250002,156.76005L28.11007578125,156.029925L28.132859765625003,156.746775L28.22265546875,157.13175L28.32451328125,157.047675L28.378122656250003,156.84412500000002L28.396885937500002,156.118425L28.42101015625,157.171575L28.445134375000002,156.870675L28.522867968750003,156.85297500000001L28.53358984375,157.06537500000002L28.694417968750003,156.99015L28.76947109375,156.923775L28.94102109375,156.77775L29.16081953125,157.23352500000001L29.215769140625,156.35295L29.231851953125,156.799875L29.26267734375,156.38835L29.387319140625,156.999L29.49319765625,157.1406L29.525363281249998,157.57425L29.530724218750002,157.083075L29.56288984375,157.304325L29.587014062500003,156.45915L29.74516171875,157.808775L29.770626171874998,157.295475L29.863102343749997,157.516725L29.87382421875,157.0698L29.875164453125,157.437075L29.920732421875,156.897225L30.048054687500002,156.976875L30.153933203125,157.2999L30.172696484375,157.437075L30.180737890625,157.038825L30.314761328125,156.79545000000002L30.316101562500002,158.10524999999998L30.320122265625,157.34857499999998L30.371051171875,157.118475L30.4447640625,156.516675L30.463527343750002,156.605175L30.487651562499998,156.95475000000002L30.598891015625,156.85297500000001L30.606932421874998,156.799875L30.62435546875,156.6627L30.751677734374997,157.71585L30.825390625,157.49460000000002L30.834772265625,156.90165L30.837452734375,157.083075L30.842813671875,157.04325L30.899103515625,156.54765L30.947351953125,157.1583L30.990239453125,156.83085L31.0130234375,156.976875L31.134984765625,157.53L31.1524078125,156.8397L31.264987499999997,157.410525L31.321277343749998,157.215825L31.50086875,157.525575L31.617469140625,156.8043L31.630871484375,157.410525L31.63221171875,157.41495L31.900258593750003,157.543275L31.925723046875,156.38835L31.9458265625,156.68482500000002L32.154903125,157.330875L32.188408984375,157.37955L32.1924296875,156.215775L32.23263671875,157.45919999999998L32.30768984375,157.29104999999998L32.381402734375,157.69815L32.432331640625,158.127375L32.491301953125,156.74235000000002L32.5462515625,157.17600000000002L32.571716015625,157.171575L32.583778125,156.85739999999998L32.711100390625,157.286625L32.772751171875,156.941475L32.898733203125,157.003425L32.960383984375,156.7689L32.9804875,157.419375L32.98316796875,157.676025L33.022034765625,157.2114L33.292762109375,156.52552500000002L33.3235875,157.799925L33.416063671875,156.99015L33.464312109375,157.056525L33.472353515625,156.348525L33.580912500000004,156.782175L33.60235625,157.4769L33.670708203125,157.34857499999998L33.739060156250005,156.737925L33.74442109375,157.056525L33.77390625,156.37949999999998L33.796690234375,156.764475L33.812773046875,157.34857499999998L33.861021484375,157.366275L34.00710703125,155.7246L34.158553515624995,156.959175L34.196080078125,157.454775L34.297937890625,157.55655L34.4386625,156.85297500000001L34.50299375,157.1406L34.517736328125,157.5654L34.643718359375,157.1937L34.708049609374996,157.38397500000002L34.7227921875,157.01227500000002L34.825990234375006,157.472475L34.834031640625,157.02112499999998L34.874238671875,157.587525L35.11146015625,156.80872499999998L35.1195015625,157.25565L35.14898671875,157.2468L35.2374421875,157.410525L35.238782421875,156.914925L35.29909296875,156.38835L35.319196484375,156.77775L35.327237890625,157.322025L35.42239453125,157.29104999999998L35.5054890625,157.100775L35.58858359375,157.0344L35.596625,157.1937L35.638172265624995,156.47242500000002L35.651574609375004,157.52115L35.7842578125,157.277775L35.799000390625004,156.950325L35.83250625,157.23794999999998L35.833846484375,157.605225L35.981272265625,156.7689L36.107254296875,156.999L36.166224609375,156.959175L36.19973046875,157.33530000000002L36.327052734375,156.86625L36.356537890625,157.242375L36.373960937499994,157.543275L36.399425390625,157.77779999999998L36.443653125,156.383925L36.454375000000006,157.353L36.514685546875,156.9813L36.541490234375,157.153875L36.5669546875,157.50787499999998L36.81891875,157.410525L36.830980859374996,156.622875L36.84840390625,156.9282L36.872528124999995,156.870675L36.90737421875,157.038825L36.940880078125,155.93257499999999L36.951601953125,157.28220000000002L37.03603671875,157.11405000000002L37.048098828125,157.649475L37.115110546875,157.401675L37.14861640625,157.34415L37.237071875,157.029975L37.297382421875,156.773325L37.332228515625005,156.37064999999998L37.399240234375,156.93705L37.442127734375,156.8397L37.505118749999994,157.0698L37.687390625,157.23794999999998L37.724917187500004,156.569775L37.821414062500004,156.773325L37.82945546875,156.870675L37.83883710937501,156.569775L37.873683203125005,156.99015L37.8857453125,157.27335L38.03853203125,156.534375L38.223484375,156.52552500000002L38.287815625,156.693675L38.29585703125,157.6716L38.321321484375005,156.9813L38.37091015625,156.888375L38.382972265625,157.01227500000002L38.470087500000005,155.861775L38.490191015625,157.33530000000002L38.538439453124994,157.322025L38.659060546875,157.29104999999998L38.731433203125,157.35742499999998L38.81586796875,156.61845L38.8399921875,156.9813L38.941849999999995,156.658275L38.975355859375,156.53879999999998L39.010201953125,155.897175L39.11608046875,156.835275L39.176391015625,157.02555L39.267526953125,156.64057499999998L39.30907421875,156.8043L39.3653640625,156.9459L39.37340546875,156.7158L39.52083124999999,156.9636L39.6119671875,157.18042499999999L39.747330859375,157.2291L39.787537890625,157.083075L39.798259765625,157.0167L39.818363281249994,156.7866L39.9014578125,156.468L40.068987109375,156.42375L40.1695046875,157.69815L40.272702734374995,156.99015L40.29548671875,156.3087L40.32229140625,155.87505000000002L40.328992578125,157.06537500000002L40.339714453125,156.64057499999998L40.345075390625006,155.97682500000002L40.389303125000005,156.93705L40.414767578124994,156.76005L40.4589953125,156.224625L40.465696484374995,156.9636L40.511264453125,157.64505L40.572915234375,156.6096L40.693536328125,157.29104999999998L40.7592078125,156.950325L40.9414796875,156.88616249999998L41.119730859375004,157.12290000000002L41.1559171875,156.822L41.1988046875,156.36622500000001L41.275198046875005,156.171525L41.32210625,157.003425L41.36231328125,156.985725L41.40520078125,157.48575L41.461490625,156.10072499999998L41.51241953125,156.914925L41.606235937499996,157.499025L41.87964375,156.64057499999998L41.88634492187499,156.720225L41.901087499999996,156.822L41.92521171875,156.8397L41.961398046875,156.90607500000002L42.1101640625,157.34857499999998L42.13160781249999,156.773325L42.340684374999995,157.1583L42.400994921875,157.277775L42.4157375,157.206975L42.429139843749994,156.791025L42.4747078125,156.17595L42.551101171875,156.06975L42.559142578125,157.22025L42.66502109375,156.8928L42.702547656250005,156.91049999999998L42.837911328125,156.914925L42.902242578125,156.9967875L42.97059453125,157.2645L42.990698046874996,157.437075L43.049668359375,157.34415L43.146165234375,156.9459L43.2145171875,157.43265L43.40483046875,157.003425L43.430294921875,157.02555L43.545555078125,156.8043L43.629989843749996,156.79545000000002L43.65679453124999,157.28220000000002L43.659475,156.44145L43.761332812499994,156.7158L43.80958125,156.985725L43.88195390625,156.9282L43.88731484375,157.2999L43.904737890625,156.88395L43.9864921875,157.074225L43.99453359375,156.99015L44.0454625,157.1937L44.2330953125,156.7335L44.2545390625,157.295475L44.2759828125,157.401675L44.290725390625,157.2114L44.454233984375,157.198125L44.644547265625,157.631775L44.695476171875,157.02555L44.791973046875,157.118475L44.88176875,157.01227500000002L44.97558515625,156.75119999999998L45.18466171875,156.26887499999998L45.198064062499995,156.79545000000002L45.258374609375,156.81315L45.344149609375,157.499025L45.4232234375,157.02555L45.46879140625,157.72912499999998L45.48219375,157.02555L45.507658203125004,156.773325L45.53848359375,156.9282L45.64034140625,156.68925L45.66714609375,156.80872499999998L45.724776171875,157.375125L45.73147734375,156.1848L45.865500781250006,156.999L45.912408984375,156.645L46.003544921875,156.861825L46.081278515625,156.888375L46.108083203125,156.54765L46.263550390625,157.313175L46.297056250000004,156.37064999999998L46.368088671875,156.65385L46.4632453125,155.59627500000002L46.518194921875,156.9636L46.732632421875,157.11405000000002L46.751395703125,156.410475L46.7634578125,156.08745L46.80902578125,156.26445L46.979235546875,156.291L46.987276953125004,156.645L47.04490703125,156.84412500000002L47.05026796875,156.74235000000002L47.113258984375,157.22467500000002L47.188312109375005,156.10515L47.30223203125,156.4923375L47.303572265625,156.658275L47.585021484375,155.9193L47.6748171875,155.693625L47.76863359375,157.11405000000002L47.788737109375,157.00785L47.796778515625,156.560925L47.834305078125,157.38397500000002L47.851728125,156.6781875L48.019257421875,156.401625L48.024618359375,154.9458L48.137198046875,156.68925L48.188126953125,156.233475L48.22431328125,156.6804L48.257819140625,156.038775L48.29400546875,156.85739999999998L48.312768750000004,156.44145L48.356996484375,156.468L48.511123437500004,156.75119999999998L48.608960546875004,156.54765L48.617001953125005,156.9636L48.917214453125,157.322025L48.9721640625,156.52552500000002L49.011030859375005,157.445925L49.138353125,157.12290000000002L49.206705078125,156.14939999999999L49.21072578125,155.27767500000002L49.233509765625,156.118425L49.343408984375,155.83079999999998L49.372894140625,155.826375L49.525680859375,156.9746625L49.568568359375,156.206925L49.590012109375,155.09625L49.624858203125,156.37064999999998L49.808470312500006,156.198075L49.81651171875,156.822L49.831254296874995,156.118425L50.008165234375,156.08745L50.166312890624994,156.339675L50.222602734375,156.4857L50.274871875,155.799825L50.3660078125,155.4768L50.67158125,156.9459L50.702406640625,156.38835L50.74931484375,154.773225L50.76003671875,156.17595L50.789521875000005,156.28215L50.796223046875,155.7954L50.85653359375,156.26445L50.916844140625,155.71575L50.94766953125,156.189225L50.9878765625,155.00775000000002L51.262624609375,156.19365L51.337677734375,155.8839L51.379225,155.87505000000002L51.41407109375,155.29094999999998L51.549434765625,156.4857L51.608405078125,155.330775L51.723665234375,155.55645L51.797378125,156.10957499999998L52.009135156250004,155.640525L52.031919140625,155.861775L52.07748710937501,154.67145L52.09491015625,155.20245L52.1351171875,155.87505000000002L52.262439453125005,155.65822500000002L52.372338671875,156.1317L52.391101953124995,155.578575L52.551930078125004,156.31312499999999L52.573373828125,155.127225L52.7355421875,155.552025L52.947299218750004,155.490075L53.01163046875,154.4325L53.11884921875,155.66264999999999L53.331946484375,155.251125L53.369473046875,155.27767500000002L53.48339296875,156.7866L53.650922265625,154.330725L53.691129296875005,156.54765L53.72463515625,155.82195L53.927010546875,155.675925L53.996702734375006,156.31312499999999L54.019486718749995,156.2733L54.085158203125005,156.69809999999998L54.46444453125,156.4503L54.58238515625,154.454625L54.782080078125,154.12275L54.883937890625,153.534225L54.894659765625,155.534325L54.896,155.76885L54.97373359375,156.03435000000002L54.980434765625,155.57415L55.202913671874995,154.144875L55.358380859374996,155.60954999999998L55.363741796875004,156.375075L55.371783203125005,155.304225L55.407969531250004,156.375075L55.66529453125,154.507725L55.747048828124996,156.20250000000001L55.765812109375005,155.7246L55.883752734375,155.259975L55.9628265625,155.22015L56.02983828125,155.94142499999998L56.135716796875,154.4325L56.214790625,154.233375L56.312627734375,155.144925L56.437269531249996,154.835175L56.457373046875,155.0697L56.481497265625,153.64927500000002L56.500260546875,153.23775L56.588716015624996,153.68025L56.98408515625,153.99885L57.060478515625,154.454625L57.0993453125,155.76L57.10738671875,154.167L57.132851171875004,154.994475L57.355330078125,153.09615L57.403578515625,153.153675L57.419661328124995,153.75990000000002L57.65420234375,154.0254L57.752039453125,154.875L57.762761328124995,155.18032499999998L57.780184375,153.852825L57.930290625000005,153.472275L57.963796484374996,153.622725L57.98658046875,154.32408750000002L58.097819921875,154.44135L58.210399609375,154.72897500000002L58.532055859375,153.78645L58.557520312499996,150.976575L58.562881250000004,152.711175L58.659378125,154.49445L58.7290703125,153.1293375L58.966291796875005,153.26872500000002L59.454137109375,153.5298L59.744967968750004,154.127175L60.01837578125,152.33505L60.183224609375,153.843975L60.25425703125,153.04305L60.260958203125,151.70669999999998L60.494158984375,153.43687500000001L60.713957421875,153.39705L60.939116796875,151.76865L61.121388671875,148.516275L61.205823437499994,153.215625L61.35056875,152.86605L61.4417046875,149.445525L61.678926171875,150.273L61.70707109375,145.6002L61.7204734375,151.66245L61.75531953125,147.74632499999998L61.942952343749994,150.109275L61.96439609375,153.2466L62.166771484375,152.33505L62.4281171875,146.49405L62.547398046874996,151.914675L62.665338671875,153.251025L62.696164062499996,150.259725L62.752453906250004,152.551875L62.757814843750005,151.056225L62.863693359375006,144.48510000000002L63.1357609375,147.59145L63.26174296875,145.126725L63.292568359375004,147.29055L63.32071328125,143.547L63.512366796875,148.259625L63.858147265625,155.00775000000002L63.941241796875005,150.98985L64.045780078125,150.153525L64.104750390625,153.50324999999998L64.413004296875,147.94545L64.597956640625,144.83025L64.60197734375,149.348175L65.04291445312501,149.631375L65.4302421875,150.83497500000001L65.47044921875,147.171075L65.595091015625,143.87445L65.77066171875,146.025L65.7840640625,152.259825L65.785404296875,148.33927500000001L65.8591171875,147.29940000000002L65.94355195312501,151.70669999999998L66.06015234375,155.5122L66.283971484375,140.869875L67.061307421875,151.34385L67.31461171875,147.74632499999998L67.672454296875,150.05175L67.76225000000001,147.755175L67.81317890625,145.1953125L67.91637695312501,148.056075L68.00215195312501,143.480625L68.674949609375,147.8658L68.776807421875,147.790575L69.082380859375,146.808225L69.337025390625,145.671L69.381253125,147.73305L69.43218203125,136.1661L69.83961328125,145.294875L70.10766015625,151.419075L70.389109375,146.21970000000002L70.529833984375,144.52935L70.59282499999999,146.06925L70.860871875,136.77675000000002L71.22809609375001,139.65300000000002L71.371501171875,149.7774L71.84996484375,142.53810000000001L71.853985546875,141.4407L71.85934648437501,150.392475L72.05904140625,149.613675L72.13945546875,145.98075L72.47987499999999,143.135475L72.54286601562501,148.74195L73.0963828125,148.250775L73.103083984375,143.94967499999998L73.48505078125,143.53815L73.4930921875,143.542575L73.63113632812501,146.3436L73.70216875,144.37005L74.143105859375,146.9985L74.25970625000001,148.56052499999998L74.46878281250001,150.746475L74.48352539062499,135.27224999999999L74.62156953125,142.303575L74.62693046875,145.76835L74.848069140625,146.7507L75.45787578125,140.20170000000002L75.499423046875,136.56435L75.826440234375,151.0872L75.900153125,139.409625L76.019433984375,140.97165L77.319461328125,144.86565L77.453484765625,142.055775L77.826069921875,142.179675L78.220098828125,140.36100000000002L78.313915234375,140.65305L78.327317578125,145.96305L78.409071875,147.64454999999998L78.730728125,137.883L78.91434023437499,141.569025L79.506723828125,149.6535L79.53754921875,153.813L79.56703437499999,137.37855L80.104468359375,139.498125L80.125912109375,145.2108L80.15941796874999,144.01605L80.377876171875,132.03315L80.723656640625,152.40142500000002L81.334803515625,147.43215L81.56398359375,141.763725L81.656459765625,143.30805L82.01966328124999,143.002725L82.04110703125001,124.621275L82.205955859375,144.401025L82.4136921875,147.32595L82.46998203125,150.273L82.49678671875,143.62222500000001L82.56111796875,142.542525L83.07174726562499,134.07750000000001L83.08917031249999,140.95837500000002L83.291545703125,144.963L83.35051601562499,130.099425L83.52876718750001,135.2811L83.76196796875,129.55515L83.9898078125,138.74587499999998L84.37847578125,136.1307L84.56476835937501,139.7238L85.07003671874999,148.914525L85.8232484375,144.932025L85.91438437500001,138.701625L86.261505078125,139.993725L86.612646484375,146.32147500000002L87.363177734375,141.3345L87.636585546875,132.878325L88.025253515625,136.8387L88.156596484375,142.8036L88.165978125,137.59537500000002L88.43670546875,143.8656L88.79856875,144.232875L88.91382890625,134.807625L89.051873046875,146.3613L89.27033125,131.648175L89.604049609375,142.878825L89.7796203125,140.046825L90.39746835937501,140.8743L90.582420703125,146.75955000000002L90.7928375,143.6001L91.697495703125,135.241275L92.053998046875,142.9629L92.37431406249999,131.612775L92.71205312500001,144.073575L93.03236914062501,143.79922499999998L93.694444921875,145.07362500000002L94.43559453125,139.533525L94.76529218750001,137.621925L94.973028515625,136.489125L95.289323828125,139.161825L95.78655078125,134.63505L96.02243203124999,129.79410000000001L96.535741796875,135.294375L96.92306953125001,140.77695L97.17503359375,140.90970000000002L97.65751796875,124.860225L97.75401484375,147.666675L97.87195546875,132.54202500000002L97.908141796875,130.506525L97.959070703125,136.2546L98.50454609375,142.7151L98.881151953125,133.798725L99.00311328125001,133.81642499999998L100.05519726562501,137.666175L100.270975,129.44895L100.99738203125,141.46725L101.344502734375,137.666175L101.518733203125,128.28517499999998L101.80554335937501,129.1215L101.864513671875,137.967075L101.947608203125,127.05502499999999L101.96503125000001,143.277075L103.28248164062501,120.13874999999999L104.22734687500001,139.852125L104.515497265625,132.099525L104.763440625,145.516125L104.87333984375,133.42260000000002L105.10654062500001,148.604775L105.26736875,130.205625L105.75119335937501,129.84720000000002L106.440073828125,127.78072499999999L107.26699843749999,136.197075L107.57257187500001,103.9875L107.670408984375,137.117475L107.85938203125001,123.568125L108.386094140625,132.311925L108.482591015625,122.815875L109.28807187500001,134.542125L109.388589453125,134.913825L109.64457421875001,126.373575L109.98499375,115.00575L110.401806640625,141.533625L110.554593359375,129.3339L111.0089328125,142.5912L111.19656562499999,118.81567500000001L111.262237109375,132.143775L111.53162421875001,119.85997500000002L112.35586835937501,124.612425L112.8638171875,120.86444999999999L112.910725390625,126.851475L112.98711875000001,126.29392499999999L113.16671015625,127.46655000000001L113.328878515625,126.692175L113.77249609375,127.9356L113.8663125,115.912875L113.899818359375,117.28020000000001L114.7830328125,127.01520000000001L114.88757109375,145.53825L115.073863671875,134.07750000000001L116.86977773437499,123.01500000000001L117.183392578125,135.825375L117.220919140625,134.86515L117.844128125,138.75915L117.915160546875,119.966175L118.183207421875,133.3518L118.705898828125,126.10365L118.791673828125,125.28945L118.898892578125,131.9358L119.280859375,139.6707L119.300962890625,130.338375L119.47117265625,130.9092L120.1225265625,134.6616L120.15201171874999,143.45407500000002L120.28335468750001,113.62515L120.3798515625,136.113L121.919780859375,125.0859L121.95060624999999,113.95259999999999L122.161023046875,134.586375L123.377955859375,125.028375L123.42486406249999,131.426925L124.11910546875,111.8463L124.241066796875,124.276125L124.25178867187499,125.320425L124.283954296875,124.0062L124.35498671875,133.241175L124.38983281249999,126.1656L124.46890664062501,135.6351L124.627054296875,139.17067500000002L126.03966132812499,107.32395L126.5985390625,138.20159999999998L126.712458984375,79.079175L127.556806640625,115.52790000000002L127.666705859375,128.294025L127.944134375,113.99685L128.749615234375,123.16102500000001L129.693140234375,116.612025L129.824483203125,93.062175L130.028198828125,107.602725L130.416866796875,122.30700000000002L130.564292578125,119.107725L130.749244921875,119.9595375L131.20090390625,77.39767499999999L131.761121875,133.6527L131.936692578125,129.2277L132.318659375,142.5204L132.350825,118.89975000000001L132.404434375,136.97145L132.94052812500001,140.5557L133.04506640625002,133.161525L133.191151953125,126.78509999999999L133.88137265625,138.84322500000002L134.26199921875,137.940525L134.266019921875,120.9441L134.50860234375,130.36935L134.77396875,134.35185L134.836959765625,144.949725L134.849021875,122.74507500000001L135.0688203125,104.32379999999999L135.126450390625,122.06362499999999L135.149234375,129.833925L136.319258984375,107.16465000000001L136.35812578125,133.62172500000003L136.573903515625,136.54665L136.88885859375,127.49309999999998L136.90092070312502,124.78942500000001L137.235979296875,117.74040000000001L137.81093984375,125.45317499999999L138.09506953125,121.96184999999998L138.24249531249998,118.69177499999999L138.375178515625,125.44875L138.667349609375,141.533625L138.698175,132.081825L139.29055859374998,141.00705L139.691288671875,107.602725L140.59862734375002,133.2279L140.935026171875,134.427075L142.29402382812498,132.426975L142.2953640625,139.69725L142.953419140625,108.63817499999999L142.97084218749998,134.2191L143.67848593750003,135.00232499999998L143.79374609375,144.887775L144.08189648437502,140.648625L144.307055859375,143.62222500000001L144.75469414062502,121.603425L145.255941796875,108.54525000000001L145.69285820312498,126.09922499999999L145.8443046875,119.78474999999999L146.34019140625,128.940075L146.3750375,124.46640000000001L146.797211328125,117.14745L146.964740625,120.612225L147.925688671875,107.28855L148.0208453125,110.9967L148.47652499999998,99.81030000000001L149.38520390624998,125.10802500000001L149.87572968749998,99.49612499999999L149.882430859375,124.22302499999999L150.563269921875,108.86827500000001L151.112766015625,129.966675L151.45050507812502,140.91855L151.9236078125,120.76267499999999L152.28011015625,114.82874999999999L153.034662109375,104.01405L153.64580898437498,100.78822500000001L153.9500421875,111.85515000000001L154.061281640625,105.82387499999999L154.632221484375,133.931475L155.01954921875,120.61665L155.027590625,80.40667499999999L155.597190234375,120.10777499999999L156.24050273437499,106.88145L156.331638671875,119.3334L156.345041015625,102.72637499999999L158.213327734375,112.91715L158.3460109375,121.3689L158.706533984375,120.744975L159.148811328125,124.20975L159.73449375,115.20044999999999L160.13924453125,72.893025L160.537294140625,124.939875L160.8227640625,106.204425L161.48215937499998,106.40797500000001L162.038356640625,103.1379L162.16031796875,112.496775L162.571769921875,91.00455L163.298176953125,130.88264999999998L164.44273710937497,118.240425L165.035120703125,103.6335L165.4653359375,125.25405L165.51626484375,108.33727499999999L166.166278515625,112.594125L166.270816796875,114.063225L166.688969921875,85.48215L166.907428125,140.9805L168.029204296875,103.86802499999999L168.04126640625,118.82895L168.9713890625,96.1818L169.551710546875,101.09355000000001L169.6361453125,100.49175L170.60245429687498,121.94415L171.732271875,128.462175L171.985576171875,122.497275L172.45331796874999,95.097675L172.632909375,126.01515000000002L173.339212890625,123.13447500000001L173.851182421875,113.9172L174.133971875,116.877525L175.10966249999998,90.17264999999999L176.18989140624998,115.64295L176.59196171875,91.25234999999999L176.7393875,104.735325L176.834544140625,117.04567500000002L177.10661171875,92.394L178.343648046875,108.18239999999999L178.445505859375,89.28765000000001L179.29119375000002,105.53625L180.00151796875,61.188900000000004L180.136881640625,109.992225L180.15698515625,115.1739L180.5992625,125.479725L180.82442187499998,90.92490000000001L180.943702734375,101.87235L181.25597734375,40.431225L181.29886484375,83.71215L182.39919726562502,59.62244999999999L182.57610820312502,99.991725L182.661883203125,84.06172500000001L183.31993828125002,125.80275L183.59334609375,128.8029L185.65194609374998,110.735625L185.6867921875,88.65487499999999L186.22556640624998,113.87295L186.382373828125,96.46057499999999L186.7750625,78.88889999999999L187.253526171875,60.3039L187.494768359375,117.0855L187.81776484375,99.089025L189.63512265625002,80.778375L189.92461328125,84.01747499999999L190.129669140625,98.38544999999999L191.481965625,100.72185L191.59990625,117.222675L193.32746835937502,83.610375L194.5430609375,54.02482499999999L194.82451015625,111.346275L195.88463554687502,107.46555000000001L196.26124140625,97.177425L197.50497890625,132.44467500000002L197.66580703125,67.414875L199.17491093750002,42.42247499999999L200.1613234375,62.724375L200.26050078125002,13.531650000000003L200.87164765625,46.10849999999999L201.67712851562501,125.293875L201.87950390625,101.752875L202.3807515625,77.10119999999999L202.84983359375002,136.15725L203.738408984375,93.7038L204.53048750000002,128.400225L204.783791796875,97.40752499999999L207.172089453125,67.4901L208.744184375,75.955125L209.303062109375,94.7304L209.64616210937498,87.16365L210.34174375,111.94364999999999L211.677957421875,120.67859999999999L212.38426093750002,111.691425L212.39230234375,86.20342500000001L213.30098125,68.31757499999999L216.61672109375002,61.48980000000001L217.776023828125,99.080175L218.30541640625,80.2518L218.3134578125,84.070575L220.409584375,61.21545L222.464163671875,118.42184999999999L225.71959296875,-20.045250000000014L226.42723671874998,94.61092499999998L231.88065039062502,21.266549999999995L234.164409765625,24.97027499999999L234.469983203125,-46.267800000000015L234.93370429687502,47.81212499999999L236.17074062499998,-10.212900000000015L237.607471875,18.1956L238.075213671875,118.49707500000001L238.088616015625,43.679174999999994L238.169030078125,-32.38214999999999L238.195834765625,92.840925L238.20923710937498,65.69355L238.22263945312503,78.211875L238.276248828125,106.77525000000001L238.289651171875,-186.173025L238.303053515625,36.669975L238.329858203125,70.82655L238.370065234375,-25.018950000000014L238.396869921875,4.239150000000005L238.46388164062498,38.87805L238.477283984375,48.52897499999999L238.517491015625,8.164124999999995L238.584502734375,-71.23365L238.597905078125,82.49969999999999L238.638112109375,13.438725000000003L238.70512382812498,74.70285000000001L238.731928515625,-209.42197499999997L238.772135546875,33.311400000000006L238.78553789062502,27.40845000000001L238.798940234375,-42.15255000000001L238.839147265625,86.13262499999999L238.879354296875,-3.38512500000001L238.91956132812498,76.61444999999999L238.973170703125,73.415175L239.02678007812503,68.23349999999999L239.053584765625,-18.700050000000005L239.120596484375,34.63005L239.13399882812502,-11.358975000000017L239.160803515625,-49.391850000000005L239.20101054687498,55.69305L239.26802226562498,-79.29157500000001L239.402045703125,74.08335L239.415448046875,-0.41595000000001314L239.469057421875,39.05505L239.495862109375,69.80437500000001L239.562873828125,40.1613L239.58967851562502,-10.558049999999996L239.616483203125,36.050475000000006L239.643287890625,-27.4704L239.683494921875,18.257549999999995L239.750506640625,21.58957499999999L239.763908984375,109.363875L239.777311328125,60.927825L239.79071367187498,77.884425L239.804116015625,80.0571L239.817518359375,20.208975000000006L239.87112773437502,108.26205L239.897932421875,78.6234L239.924737109375,40.57724999999999L239.964944140625,-30.94844999999999L240.00515117187499,-112.96582500000001L240.018553515625,101.460825L240.058760546875,78.50835L240.192783984375,21.40372499999999L240.206186328125,69.30434999999999L240.273198046875,45.913799999999995L240.28660039062498,8.850000000000009L240.367014453125,-59.40119999999998L240.43402617187502,45.626174999999996L240.487635546875,10.372199999999998L240.501037890625,-34.36012500000002L240.56804960937498,105.74865000000001L240.581451953125,17.053950000000007L240.608256640625,-7.792424999999996L240.67526835937502,19.79745L240.688670703125,38.24969999999999L240.742280078125,85.43347499999999L240.795889453125,32.001599999999996L240.822694140625,59.520675L240.862901171875,-67.42814999999999L240.903108203125,96.61545L240.943315234375,41.608275000000006L240.99692460937501,-190.792725L241.023729296875,99.88552499999999L241.037131640625,-2.292150000000003L241.077338671875,47.542199999999994L241.09074101562499,-1.455824999999987L241.18455742187498,-31.554674999999992L241.197959765625,91.84529999999998L241.21136210937502,-65.67585000000001L241.23816679687502,-101.58030000000001L241.358787890625,52.741575L241.466006640625,85.491L241.533018359375,25.032225000000004L241.546420703125,77.56582499999999L241.559823046875,-65.30414999999998L241.573225390625,79.9509L241.613432421875,-4.455974999999991L241.667041796875,-29.377574999999997L241.73405351562502,14.690999999999994L241.76085820312503,-8.217224999999988L241.881479296875,20.288624999999996L241.921686328125,68.7291L241.948491015625,38.34262499999999L242.08251445312501,88.27875L242.122721484375,92.540025L242.149526171875,90.80985L242.17633085937499,-4.783425000000014L242.21653789062498,27.355349999999994L242.24334257812498,-180.32317500000005L242.270147265625,72.680625L242.29695195312502,-54.53370000000001" style="fill: none;" fill="none"></path></g></g></g></g></g></g><g transform="translate(61, 177)" clip-path="url(#clip_1)"><clipPath id="clip_1"><rect width="268" height="23"></rect></clipPath><g><g><line x1="0" y1="0" x2="0" y2="5" style="visibility: inherit;" fill="rgb(0, 0, 0)" stroke="rgb(204, 204, 204)" stroke-width="1px"></line><line x1="26.8046875" y1="0" x2="26.8046875" y2="5" style="visibility: inherit;" fill="rgb(0, 0, 0)" stroke="rgb(204, 204, 204)" stroke-width="1px"></line><line x1="53.609375" y1="0" x2="53.609375" y2="5" style="visibility: inherit;" fill="rgb(0, 0, 0)" stroke="rgb(204, 204, 204)" stroke-width="1px"></line><line x1="80.4140625" y1="0" x2="80.4140625" y2="5" style="visibility: inherit;" fill="rgb(0, 0, 0)" stroke="rgb(204, 204, 204)" stroke-width="1px"></line><line x1="107.21875" y1="0" x2="107.21875" y2="5" style="visibility: inherit;" fill="rgb(0, 0, 0)" stroke="rgb(204, 204, 204)" stroke-width="1px"></line><line x1="134.0234375" y1="0" x2="134.0234375" y2="5" style="visibility: inherit;" fill="rgb(0, 0, 0)" stroke="rgb(204, 204, 204)" stroke-width="1px"></line><line x1="160.828125" y1="0" x2="160.828125" y2="5" style="visibility: inherit;" fill="rgb(0, 0, 0)" stroke="rgb(204, 204, 204)" stroke-width="1px"></line><line x1="187.6328125" y1="0" x2="187.6328125" y2="5" style="visibility: inherit;" fill="rgb(0, 0, 0)" stroke="rgb(204, 204, 204)" stroke-width="1px"></line><line x1="214.4375" y1="0" x2="214.4375" y2="5" style="visibility: inherit;" fill="rgb(0, 0, 0)" stroke="rgb(204, 204, 204)" stroke-width="1px"></line><line x1="241.2421875" y1="0" x2="241.2421875" y2="5" style="visibility: inherit;" fill="rgb(0, 0, 0)" stroke="rgb(204, 204, 204)" stroke-width="1px"></line><line x1="268.046875" y1="0" x2="268.046875" y2="5" style="visibility: inherit;" fill="rgb(0, 0, 0)" stroke="rgb(204, 204, 204)" stroke-width="1px"></line></g><g transform="translate(0, 8)"><text x="0" y="0" dx="0em" dy="0.95em" style="text-anchor: middle; visibility: hidden; font-family: Roboto, sans-serif; font-size: 12px; font-weight: 200;" fill="rgb(33, 33, 33)" stroke="none" stroke-width="1px">-20k</text><text x="26.8046875" y="0" dx="0em" dy="0.95em" style="text-anchor: middle; visibility: inherit; font-family: Roboto, sans-serif; font-size: 12px; font-weight: 200;" fill="rgb(33, 33, 33)" stroke="none" stroke-width="1px">0</text><text x="53.609375" y="0" dx="0em" dy="0.95em" style="text-anchor: middle; visibility: hidden; font-family: Roboto, sans-serif; font-size: 12px; font-weight: 200;" fill="rgb(33, 33, 33)" stroke="none" stroke-width="1px">20k</text><text x="80.4140625" y="0" dx="0em" dy="0.95em" style="text-anchor: middle; visibility: inherit; font-family: Roboto, sans-serif; font-size: 12px; font-weight: 200;" fill="rgb(33, 33, 33)" stroke="none" stroke-width="1px">40k</text><text x="107.21875" y="0" dx="0em" dy="0.95em" style="text-anchor: middle; visibility: hidden; font-family: Roboto, sans-serif; font-size: 12px; font-weight: 200;" fill="rgb(33, 33, 33)" stroke="none" stroke-width="1px">60k</text><text x="134.0234375" y="0" dx="0em" dy="0.95em" style="text-anchor: middle; visibility: inherit; font-family: Roboto, sans-serif; font-size: 12px; font-weight: 200;" fill="rgb(33, 33, 33)" stroke="none" stroke-width="1px">80k</text><text x="160.828125" y="0" dx="0em" dy="0.95em" style="text-anchor: middle; visibility: hidden; font-family: Roboto, sans-serif; font-size: 12px; font-weight: 200;" fill="rgb(33, 33, 33)" stroke="none" stroke-width="1px">100k</text><text x="187.6328125" y="0" dx="0em" dy="0.95em" style="text-anchor: middle; visibility: inherit; font-family: Roboto, sans-serif; font-size: 12px; font-weight: 200;" fill="rgb(33, 33, 33)" stroke="none" stroke-width="1px">120k</text><text x="214.4375" y="0" dx="0em" dy="0.95em" style="text-anchor: middle; visibility: hidden; font-family: Roboto, sans-serif; font-size: 12px; font-weight: 200;" fill="rgb(33, 33, 33)" stroke="none" stroke-width="1px">140k</text><text x="241.2421875" y="0" dx="0em" dy="0.95em" style="text-anchor: middle; visibility: inherit; font-family: Roboto, sans-serif; font-size: 12px; font-weight: 200;" fill="rgb(33, 33, 33)" stroke="none" stroke-width="1px">160k</text><text x="268.046875" y="0" dx="0em" dy="0.95em" style="text-anchor: middle; visibility: hidden; font-family: Roboto, sans-serif; font-size: 12px; font-weight: 200;" fill="rgb(33, 33, 33)" stroke="none" stroke-width="1px">180k</text></g><line x1="0" y1="0" x2="268.046875" y2="0" fill="rgb(0, 0, 0)" stroke="rgb(204, 204, 204)" stroke-width="1px"></line></g></g></g></g></svg>