<svg viewBox="0 0 330 200" xmlns="http://www.w3.org/2000/svg"><g><g><g><g><g><line x1="63.984375" y1="177" x2="58.984375" y2="177" style="visibility: inherit;" fill="rgb(0, 0, 0)" stroke="rgb(204, 204, 204)" stroke-width="1px"></line><line x1="63.984375" y1="157.33333333333334" x2="58.984375" y2="157.33333333333334" style="visibility: inherit;" fill="rgb(0, 0, 0)" stroke="rgb(204, 204, 204)" stroke-width="1px"></line><line x1="63.984375" y1="137.66666666666669" x2="58.984375" y2="137.66666666666669" style="visibility: inherit;" fill="rgb(0, 0, 0)" stroke="rgb(204, 204, 204)" stroke-width="1px"></line><line x1="63.984375" y1="118" x2="58.984375" y2="118" style="visibility: inherit;" fill="rgb(0, 0, 0)" stroke="rgb(204, 204, 204)" stroke-width="1px"></line><line x1="63.984375" y1="98.33333333333334" x2="58.984375" y2="98.33333333333334" style="visibility: inherit;" fill="rgb(0, 0, 0)" stroke="rgb(204, 204, 204)" stroke-width="1px"></line><line x1="63.984375" y1="78.66666666666666" x2="58.984375" y2="78.66666666666666" style="visibility: inherit;" fill="rgb(0, 0, 0)" stroke="rgb(204, 204, 204)" stroke-width="1px"></line><line x1="63.984375" y1="59" x2="58.984375" y2="59" style="visibility: inherit;" fill="rgb(0, 0, 0)" stroke="rgb(204, 204, 204)" stroke-width="1px"></line><line x1="63.984375" y1="39.33333333333334" x2="58.984375" y2="39.33333333333334" style="visibility: inherit;" fill="rgb(0, 0, 0)" stroke="rgb(204, 204, 204)" stroke-width="1px"></line><line x1="63.984375" y1="19.666666666666686" x2="58.984375" y2="19.666666666666686" style="visibility: inherit;" fill="rgb(0, 0, 0)" stroke="rgb(204, 204, 204)" stroke-width="1px"></line><line x1="63.984375" y1="0" x2="58.984375" y2="0" style="visibility: inherit;" fill="rgb(0, 0, 0)" stroke="rgb(204, 204, 204)" stroke-width="1px"></line></g><g transform="translate(53.984375, 0)"><text x="0" y="177" dx="0em" dy="0.3em" style="text-anchor: end; visibility: hidden; font-family: &quot;Helvetica Neue&quot;, sans-serif; font-size: 12px; font-weight: 200;" fill="rgb(50, 49, 63)" stroke="none" stroke-width="1px">-1e+5</text><text x="0" y="157.33333333333334" dx="0em" dy="0.3em" style="text-anchor: end; visibility: inherit; font-family: &quot;Helvetica Neue&quot;, sans-serif; font-size: 12px; font-weight: 200;" fill="rgb(50, 49, 63)" stroke="none" stroke-width="1px">0</text><text x="0" y="137.66666666666669" dx="0em" dy="0.3em" style="text-anchor: end; visibility: hidden; font-family: &quot;Helvetica Neue&quot;, sans-serif; font-size: 12px; font-weight: 200;" fill="rgb(50, 49, 63)" stroke="none" stroke-width="1px">1e+5</text><text x="0" y="118" dx="0em" dy="0.3em" style="text-anchor: end; visibility: inherit; font-family: &quot;Helvetica Neue&quot;, sans-serif; font-size: 12px; font-weight: 200;" fill="rgb(50, 49, 63)" stroke="none" stroke-width="1px">2e+5</text><text x="0" y="98.33333333333334" dx="0em" dy="0.3em" style="text-anchor: end; visibility: hidden; font-family: &quot;Helvetica Neue&quot;, sans-serif; font-size: 12px; font-weight: 200;" fill="rgb(50, 49, 63)" stroke="none" stroke-width="1px">3e+5</text><text x="0" y="78.66666666666666" dx="0em" dy="0.3em" style="text-anchor: end; visibility: inherit; font-family: &quot;Helvetica Neue&quot;, sans-serif; font-size: 12px; font-weight: 200;" fill="rgb(50, 49, 63)" stroke="none" stroke-width="1px">4e+5</text><text x="0" y="59" dx="0em" dy="0.3em" style="text-anchor: end; visibility: hidden; font-family: &quot;Helvetica Neue&quot;, sans-serif; font-size: 12px; font-weight: 200;" fill="rgb(50, 49, 63)" stroke="none" stroke-width="1px">5e+5</text><text x="0" y="39.33333333333334" dx="0em" dy="0.3em" style="text-anchor: end; visibility: inherit; font-family: &quot;Helvetica Neue&quot;, sans-serif; font-size: 12px; font-weight: 200;" fill="rgb(50, 49, 63)" stroke="none" stroke-width="1px">6e+5</text><text x="0" y="19.666666666666686" dx="0em" dy="0.3em" style="text-anchor: end; visibility: hidden; font-family: &quot;Helvetica Neue&quot;, sans-serif; font-size: 12px; font-weight: 200;" fill="rgb(50, 49, 63)" stroke="none" stroke-width="1px">7e+5</text><text x="0" y="0" dx="0em" dy="0.3em" style="text-anchor: end; visibility: hidden; font-family: &quot;Helvetica Neue&quot;, sans-serif; font-size: 12px; font-weight: 200;" fill="rgb(50, 49, 63)" stroke="none" stroke-width="1px">8e+5</text></g><line x1="63.984375" y1="0" x2="63.984375" y2="177" fill="rgb(0, 0, 0)" stroke="rgb(204, 204, 204)" stroke-width="1px"></line></g></g><g transform="translate(63, 0)" clip-path="url(#clip_0)"><clipPath id="clip_0"><rect width="266" height="177"></rect></clipPath><g><g><g><line x1="0" y1="0" x2="0" y2="177" fill="rgb(0, 0, 0)" stroke="rgb(60, 60, 60)" stroke-width="1px" opacity="0.25"></line><line x1="29.557291666666664" y1="0" x2="29.557291666666664" y2="177" fill="rgb(0, 0, 0)" stroke="rgb(60, 60, 60)" stroke-width="1px" opacity="0.25"></line><line x1="59.11458333333333" y1="0" x2="59.11458333333333" y2="177" fill="rgb(0, 0, 0)" stroke="rgb(60, 60, 60)" stroke-width="1px" opacity="0.25"></line><line x1="88.671875" y1="0" x2="88.671875" y2="177" fill="rgb(0, 0, 0)" stroke="rgb(60, 60, 60)" stroke-width="1px" opacity="0.25"></line><line x1="118.22916666666666" y1="0" x2="118.22916666666666" y2="177" fill="rgb(0, 0, 0)" stroke="rgb(60, 60, 60)" stroke-width="1px" opacity="0.25"></line><line x1="147.78645833333334" y1="0" x2="147.78645833333334" y2="177" fill="rgb(0, 0, 0)" stroke="rgb(60, 60, 60)" stroke-width="1px" opacity="0.25"></line><line x1="177.34375" y1="0" x2="177.34375" y2="177" fill="rgb(0, 0, 0)" stroke="rgb(60, 60, 60)" stroke-width="1px" opacity="0.25"></line><line x1="206.90104166666666" y1="0" x2="206.90104166666666" y2="177" fill="rgb(0, 0, 0)" stroke="rgb(60, 60, 60)" stroke-width="1px" opacity="0.25"></line><line x1="236.45833333333331" y1="0" x2="236.45833333333331" y2="177" fill="rgb(0, 0, 0)" stroke="rgb(60, 60, 60)" stroke-width="1px" opacity="0.25"></line><line x1="266.015625" y1="0" x2="266.015625" y2="177" fill="rgb(0, 0, 0)" stroke="rgb(60, 60, 60)" stroke-width="1px" opacity="0.25"></line></g><g><line x1="0" y1="177" x2="266.015625" y2="177" fill="rgb(0, 0, 0)" stroke="rgb(60, 60, 60)" stroke-width="1px" opacity="0.25"></line><line x1="0" y1="157.33333333333334" x2="266.015625" y2="157.33333333333334" fill="rgb(0, 0, 0)" stroke="rgb(60, 60, 60)" stroke-width="1px" opacity="0.25"></line><line x1="0" y1="137.66666666666669" x2="266.015625" y2="137.66666666666669" fill="rgb(0, 0, 0)" stroke="rgb(60, 60, 60)" stroke-width="1px" opacity="0.25"></line><line x1="0" y1="118" x2="266.015625" y2="118" fill="rgb(0, 0, 0)" stroke="rgb(60, 60, 60)" stroke-width="1px" opacity="0.25"></line><line x1="0" y1="98.33333333333334" x2="266.015625" y2="98.33333333333334" fill="rgb(0, 0, 0)" stroke="rgb(60, 60, 60)" stroke-width="1px" opacity="0.25"></line><line x1="0" y1="78.66666666666666" x2="266.015625" y2="78.66666666666666" fill="rgb(0, 0, 0)" stroke="rgb(60, 60, 60)" stroke-width="1px" opacity="0.25"></line><line x1="0" y1="59" x2="266.015625" y2="59" fill="rgb(0, 0, 0)" stroke="rgb(60, 60, 60)" stroke-width="1px" opacity="0.25"></line><line x1="0" y1="39.33333333333334" x2="266.015625" y2="39.33333333333334" fill="rgb(0, 0, 0)" stroke="rgb(60, 60, 60)" stroke-width="1px" opacity="0.25"></line><line x1="0" y1="19.666666666666686" x2="266.015625" y2="19.666666666666686" fill="rgb(0, 0, 0)" stroke="rgb(60, 60, 60)" stroke-width="1px" opacity="0.25"></line><line x1="0" y1="0" x2="266.015625" y2="0" fill="rgb(0, 0, 0)" stroke="rgb(60, 60, 60)" stroke-width="1px" opacity="0.25"></line></g></g></g><g><g><line x1="0" y1="157.33333333333334" x2="266.015625" y2="157.33333333333334" fill="rgb(0, 0, 0)" stroke="rgb(153, 153, 153)" stroke-width="1.5px"></line></g></g><g><g><line x1="29.557291666666664" y1="0" x2="29.557291666666664" y2="177" fill="rgb(0, 0, 0)" stroke="rgb(153, 153, 153)" stroke-width="1.5px"></line></g></g><g><g><g><g><g><path stroke="rgb(255, 112, 67)" stroke-width="2px" d="M29.560247395833333,157.28355208333335L29.682910156250003,157.28727192982456L29.70064453125,157.28748677736777L29.703600260416668,157.28857651206746L29.712467447916666,157.2884751583193L29.73611328125,157.28827704381945L29.75828125,157.28899115886827L29.761236979166668,157.28835988256634L29.7671484375,157.2892304349879L29.76862630208333,157.28831143526645L29.773059895833335,157.28878218450592L29.7848828125,157.2892095674576L29.818873697916665,157.28904378225204L29.823307291666666,157.28904891055032L29.826263020833334,157.28755531992533L29.835130208333332,157.28834637136083L29.83660807291667,157.28895113310662L29.843997395833334,157.2888289507999L29.845475260416666,157.2886807193489L29.857298177083333,157.28841171340457L29.858776041666665,157.28914271502217L29.867643229166667,157.28957924413697L29.888333333333332,157.2897945706451L29.941536458333335,157.28975067465348L29.943014322916667,157.28941393253953L29.945970052083336,157.28957569951572L29.96666015625,157.28975180770928L30.084889322916666,157.290297366108L30.1041015625,157.28894453438187L30.200162760416667,157.28902320766178L30.20902994791667,157.28925309506977L30.216419270833335,157.28872636601926L30.22380859375,157.2884461102982L30.229720052083334,157.28889095499562L30.265188802083333,157.2884063969206L30.27701171875,157.2884756507396L30.278489583333336,157.2888199626149L30.284401041666666,157.28865898720693L30.293268229166664,157.28938946019255L30.2991796875,157.28823554157054L30.30361328125,157.28844603759893L30.316914062499997,157.28829282870996L30.322825520833334,157.2879689096928L30.333170572916668,157.28851586461536L30.359772135416666,157.28832511328315L30.36716145833333,157.28825208107511L30.38341796875,157.28907854914132L30.415930989583334,157.28926458625614L30.42775390625,157.28797920449873L30.43514322916667,157.28842996131482L30.442532552083335,157.2888969437335L30.44548828125,157.28860708097795L30.449921874999998,157.28729770341494L30.47061197916667,157.28685622548082L30.500169270833332,157.28630904188142L30.504602864583333,157.2861866566557L30.517903645833336,157.2862305993103L30.553372395833335,157.28608534212165L30.63465494791667,157.28690918201926L30.659778645833335,157.2875271868784L30.664212239583332,157.28771383255435L30.668645833333333,157.28751246869805L30.70263671875,157.2873312969896L30.723326822916665,157.28752258648905L30.757317708333332,157.28770958877135L30.763229166666665,157.28750875059276L30.7780078125,157.2877893667243L30.782441406249998,157.2875190751334L30.785397135416666,157.28702984785406L30.79278645833333,157.28748131261352L30.794264322916664,157.28699592846726L30.811998697916668,157.28720477494946L30.828255208333335,157.28680859565603L30.8312109375,157.28675948673518L30.8489453125,157.2868075141646L30.90658203125,157.2870351718891L30.911015625,157.28730152619076L30.916927083333334,157.28738754260553L30.93318359375,157.28751105791156L30.947962239583333,157.28656182807123L30.953873697916666,157.2863530000362L30.962740885416665,157.2867951220224L30.96421875,157.2869010433567L30.990820312500002,157.28592069433003L31.036634114583332,157.2858682014584L31.066191406250002,157.28622048471487L31.104615885416667,157.28595361669016L31.129739583333333,157.2865432063031L31.150429687499997,157.2869508993472L31.16373046875,157.28658026034486L31.1681640625,157.28670765971148L31.169641927083333,157.28691451067047L31.2125,157.287238963038L31.24353515625,157.28736194788098L31.246490885416666,157.28750336362071L31.24796875,157.2874462541133L31.25240234375,157.28721047427788L31.30560546875,157.28647586109412L31.330729166666664,157.28667515586642L31.34107421875,157.28688525002684L31.344029947916667,157.2867670346982L31.346985677083335,157.2867835607506L31.348463541666668,157.28747448888748L31.355852864583333,157.2870515117942L31.379498697916667,157.28645572627033L31.401666666666664,157.28595025067477L31.417923177083335,157.2849114624103L31.42087890625,157.28459114584015L31.441569010416668,157.28488672179773L31.4519140625,157.28497331919846L31.45634765625,157.28496947682993L31.466692708333333,157.28421314847316L31.49625,157.2842238649482L31.521373697916665,157.28424887443867L31.522851562499998,157.28433284162068L31.527285156250002,157.28410111881809L31.587877604166668,157.2843535080543L31.614479166666666,157.2846421167328L31.632213541666665,157.28453311300174L31.663248697916664,157.28415844632502L31.676549479166667,157.2843743731534L31.68541666666667,157.28475308266198L31.71349609375,157.28444860701234L31.7179296875,157.28405166213676L31.734186197916664,157.28440118408957L31.760787760416665,157.28440846152643L31.777044270833333,157.28555199214003L31.785911458333334,157.28556710544703L31.790345052083335,157.28527341536824L31.802167968750002,157.2854085739836L31.803645833333334,157.28525365392824L31.836158854166666,157.28526787188173L31.852415364583337,157.28598743945085L31.853893229166665,157.28595900798476L31.87310546875,157.28636362828865L31.884928385416668,157.28645122384552L31.918919270833335,157.28686808085214L31.94256510416667,157.28721252293388L31.986901041666666,157.28675429127392L31.998723958333333,157.28640334117543L32.01202473958333,157.28639477788818L32.03271484375,157.28657144598887L32.034192708333336,157.2867433337166L32.040104166666666,157.28654712529442L32.04158203125,157.28597105846475L32.04305989583333,157.2867739527858L32.085917968749996,157.2870048908839L32.105130208333335,157.28733565185144L32.12434244791667,157.28717239914144L32.12877604166667,157.28616505492275L32.140598958333335,157.2861803202657L32.152421875,157.28705447583604L32.16424479166667,157.28602819481668L32.18050130208333,157.28593422949325L32.211536458333335,157.28560382735054L32.223359375,157.28579813212963L32.22927083333333,157.28575790224738L32.2322265625,157.28578315369077L32.26030598958334,157.28632827585062L32.261783854166666,157.2853746148867L32.292819010416665,157.2850694450516L32.31942057291667,157.28507135471318L32.368190104166665,157.28488869840217L32.37557942708333,157.2846628493882L32.41548177083333,157.28433666860687L32.443561197916665,157.2845040434171L32.46129557291667,157.28407082656548L32.468684895833334,157.2839267647393L32.477552083333336,157.28404294243418L32.48789713541667,157.28396312735612L32.50119791666667,157.28358400211482L32.514498697916665,157.28378567145054L32.53075520833333,157.28379304180558L32.53814453125,157.28502884180517L32.54553385416667,157.28426658261716L32.55292317708333,157.28364200768326L32.578046875,157.28317207774452L32.585436197916664,157.28327153663744L32.589869791666665,157.28360688297587L32.619427083333335,157.28341702801052L32.62829427083334,157.28386074187844L32.6401171875,157.2844751885268L32.64602864583333,157.28456725300788L32.66819661458334,157.28406625687182L32.67410807291667,157.28383046451717L32.680019531250004,157.28417137639985L32.6933203125,157.28453965542755L32.694798177083335,157.28450235655137L32.70366536458334,157.2850526417308L32.70957682291667,157.28477966922384L32.75095703125,157.2849949314685L32.80268229166666,157.284604813321L32.851451822916665,157.28505266532292L32.872141927083334,157.28517916962412L32.881009114583335,157.2854773984954L32.901699218750004,157.2844859086448L32.91943359375,157.28482273444732L32.932734374999995,157.28506441933612L32.93716796875,157.28491318573572L32.93864583333333,157.2852687421624L32.94307942708333,157.28494343044596L32.968203125,157.28508085823478L32.97115885416667,157.28554256407818L32.996282552083336,157.28528205767026L33.028795572916664,157.28523197690322L33.04209635416667,157.28426502921252L33.05244140625,157.2836406096244L33.07904296875,157.28350884032858L33.09234375,157.28252983129545L33.09529947916667,157.28269351483263L33.09973307291666,157.28182676751584L33.107122395833336,157.28138471576415L33.1278125,157.2815092650211L33.145546875,157.28149844268566L33.1544140625,157.28075120258364L33.15736979166667,157.28124639482536L33.18249348958333,157.28055508867607L33.19579427083333,157.2796563506417L33.23126302083333,157.27980009057754L33.238652343750005,157.2800216440198L33.26673177083333,157.27929916711776L33.269687499999996,157.27855675040593L33.290377604166665,157.27893336703204L33.30220052083333,157.27785878032878L33.35983723958333,157.27839738146258L33.37461588541667,157.278513372483L33.407128906249994,157.27812609773468L33.420429687500004,157.27869942546124L33.426341145833334,157.27826281624843L33.42781901041667,157.27833080545693L33.44407552083334,157.2775930374112L33.45294270833334,157.27751290033675L33.46919921875,157.27762515196974L33.47658854166667,157.2780641992728L33.510579427083336,157.2786744460122L33.535703125,157.27750283474427L33.55491536458333,157.2776621866865L33.5623046875,157.2775136763512L33.581516927083335,157.27757975663275L33.585950520833336,157.27710146846948L33.591861979166666,157.27737777995586L33.59925130208333,157.27768791862695L33.62880859375,157.2776443871809L33.648020833333334,157.27722109429615L33.66575520833334,157.2765328390332L33.68496744791667,157.27582122179655L33.69679036458333,157.27585680795022L33.70861328125,157.27595029382186L33.732259114583336,157.2760037019397L33.74112630208333,157.27565229007905L33.74999348958333,157.27561258190448L33.75590494791667,157.27612996954736L33.84753255208334,157.27459822259263L33.884479166666665,157.2739725149167L33.91108072916666,157.27368594050836L33.93620442708333,157.2731360964575L33.93916015625,157.27328654931176L33.97167317708333,157.27302247771394L33.97610677083333,157.2717400216092L33.97758463541667,157.27224518611493L34.00861979166667,157.2719623341701L34.024876302083335,157.27161557991977L34.032265625,157.27148787609445L34.04704427083334,157.27109638015168L34.05295572916666,157.27077476296984L34.061822916666664,157.27060822417286L34.081035156249996,157.26889115175558L34.08546875,157.26845203658002L34.13276041666666,157.267872457922L34.181529947916665,157.2672586496298L34.20369791666667,157.26649111800015L34.216998697916665,157.26497065203347L34.221432291666666,157.26553817016347L34.23029947916667,157.26448174898044L34.236210937500005,157.26294711574906L34.23768880208333,157.26218052917417L34.250989583333336,157.26207445542343L34.256901041666666,157.26167169738108L34.25985677083334,157.26177015264295L34.26872395833333,157.26170511654533L34.32931640625,157.2604174173908L34.34113932291667,157.2602110923184L34.35000651041667,157.26076289975322L34.351484375,157.2593850472779L34.36478515625,157.26017310505011L34.407643229166666,157.25999121121177L34.434244791666664,157.26019625675724L34.453457031250004,157.25939746441486L34.47119140625,157.25953896797338L34.48744791666667,157.25825277950938L34.51700520833334,157.25832437655845L34.518483072916666,157.2571903764026L34.553951822916666,157.25644633876232L34.55690755208333,157.25593035071944L34.584986979166665,157.25558887814748L34.6086328125,157.25555811533275L34.63375651041667,157.2552231371328L34.65296875,157.25390759425284L34.72242838541666,157.25435225149423L34.72390625,157.25327744301148L34.7327734375,157.25237157371032L34.73720703125,157.25235524967263L34.746074218749996,157.25267857887204L34.75198567708333,157.25137165848483L34.75789713541667,157.2500725134697L34.76972005208333,157.24954859545605L34.78449869791667,157.24861613174377L34.82883463541667,157.2481763935694L34.834746093750006,157.24701240004578L34.83622395833333,157.24531949337455L34.85543619791667,157.2449943148704L34.87317057291667,157.2450704042167L34.89533854166667,157.2435409679617L34.90716145833333,157.24274832949888L34.93671875,157.24212714238232L34.997311197916666,157.23775765731077L35.00026692708334,157.23686730824633L35.04164713541667,157.23535922325505L35.043125,157.23200455092953L35.072682291666666,157.23049107500324L35.08302734375,157.22992790500294L35.14805338541667,157.22671688533597L35.15692057291667,157.2250254051357L35.1761328125,157.22316505212214L35.19534505208333,157.22241260940993L35.24854817708333,157.22004530680226L35.250026041666665,157.21905171362204L35.30175130208333,157.2182803964265L35.360865885416665,157.21746329428385L35.38155598958333,157.21230290235547L35.39337890625,157.20965594545325L35.40372395833334,157.2064132675746L35.42293619791667,157.20546152415045L35.43771484375,157.20531172590208L35.48057291666667,157.20201180331188L35.48944010416667,157.20315958131403L35.511608072916665,157.20139622734928L35.52934244791666,157.19916389628102L35.53525390625,157.19755427748626L35.5485546875,157.19604416223763L35.586979166666666,157.19729703768053L35.64609375,157.19378452141248L35.662350260416666,157.19059252760457L35.66530598958334,157.18744317067745L35.6815625,157.18365614527636L35.699296875,157.18073948908207L35.724420572916664,157.17885199850718L35.773190104166666,157.17681523615647L35.83821614583333,157.1738144417075L35.873684895833335,157.1699152892034L35.878118489583336,157.16785032278307L35.889941406249996,157.16294966550475L35.90619791666667,157.16056719895428L35.90915364583333,157.15952922905885L35.92688802083334,157.15807266031965L35.93427734375,157.15332008178768L35.93723307291666,157.1519005736089L35.96383463541667,157.149332391248L35.965312499999996,157.1464986312899L36.095364583333335,157.14511595566088L36.17073567708333,157.14116738092812L36.212115885416665,157.14004126783533L36.235761718750005,157.13862828688514L36.26975260416666,157.13578941652995L36.30078776041667,157.13246620404362L36.30522135416667,157.12772375030593L36.32,157.12609825027533L36.35990234375,157.12171602941447L36.39684895833334,157.12121369730636L36.43231770833333,157.11974753590906L36.509166666666665,157.11338840731815L36.51064453125,157.11089175408634L36.51803385416667,157.10720049534436L36.543157552083336,157.10317159164327L36.59636067708334,157.10535339081227L36.61705078125,157.10190867673106L36.61852864583334,157.09965348614128L36.6480859375,157.0949657416938L36.655475260416665,157.09563270919108L36.72050130208333,157.09245329243865L36.75301432291667,157.08780952569478L36.770748697916666,157.08682596895864L36.831341145833335,157.08240691372944L36.835774739583336,157.08073445152317L36.841686197916665,157.0778771522042L36.86533203125,157.0798227703171L36.88011067708334,157.07822434745205L36.92592447916667,157.07647847520684L36.93331380208333,157.07582906518616L36.94513671875,157.07456855450087L36.99538411458334,157.0711601365508L37.11656901041667,157.07300922706239L37.1446484375,157.07030986685615L37.1623828125,157.06898669267053L37.18307291666667,157.0667510442368L37.20228515625,157.06418583564647L37.27322265625,157.0630448562485L37.31164713541667,157.05943672479032L37.354505208333336,157.05468367731126L37.36337239583333,157.05427780958013L37.466822916666665,157.04875002862212L37.51411458333333,157.04836391544904L37.602786458333334,157.04158377390414L37.64564453125001,157.03840091734705L37.685546875,157.03679624227902L37.7476171875,157.03194109721778L37.76091796875,157.030214174996L37.79047526041666,157.02764588249642L37.791953125,157.02478129424676L37.840722656249994,157.01839274815543L37.870279947916664,157.01912691083987L37.89244791666667,157.0180360947559L37.910182291666665,157.0173309227803L37.93235026041666,157.0132546013356L38.00624348958333,157.0101083078687L38.016588541666664,157.0088438312485L38.16289713541667,157.00961101062364L38.165852864583336,157.00397126372795L38.173242187499994,156.99766632485517L38.26930338541666,156.99617104653632L38.352063802083336,156.99374977521603L38.37127604166667,156.98714563102774L38.493938802083335,156.9879315887583L38.508717447916666,156.97905145071582L38.52201822916667,156.97643693064424L38.539752604166665,156.9667088625798L38.581132812499995,156.96511349715516L38.63876953125,156.9674266266063L38.867838541666664,156.96655844311235L38.9003515625,156.95972343213444L38.95946614583333,156.949822963921L39.1663671875,156.9476422300289L39.229915364583334,156.94721602785933L39.284596354166666,156.93610796674008L39.351100260416665,156.92488154506606L39.424993489583336,156.9128110988928L39.43090494791667,156.9066185306702L39.4501171875,156.90341136510315L39.47376302083333,156.89407179109284L39.61416015625,156.8919041953169L39.66145182291667,156.8677669007852L39.69100911458334,156.84699593987335L39.74716796875,156.83924165838602L39.769335937499996,156.81907999254742L39.7870703125,156.81737459745935L39.81662760416666,156.81666942938008L39.86244140625,156.82055196560873L39.90086588541667,156.80831291488118L39.97771484375,156.79871131089308L40.075253906250005,156.7938188256371L40.158014322916664,156.78747965140673L40.18904947916667,156.77470668626606L40.27624348958333,156.76391778847278L40.35752604166667,156.7473244471255L40.46245442708333,156.7382597107463L40.487578125,156.72315665633832L40.50383463541667,156.7045550532045L40.54225911458333,156.69644850621737L40.55260416666666,156.70049167642898L40.83783203125,156.67423105045273L40.867389322916665,156.65151836207414L41.13044921875,156.63055454670007L41.47922526041667,156.61903138369672L41.516171875,156.60199230782703L41.94918619791667,156.59962484787766L41.9683984375,156.5831436130899L41.98317708333333,156.56717352261424L42.01716796875,156.55562752451948L42.24180338541667,156.55125904290088L42.389589843749995,156.5274456386108L42.41323567708333,156.51931930391638L42.65708333333333,156.50106601935806L42.828515625,156.47806202158893L42.85955078125,156.47112509026337L42.91423177083333,156.4759136229037L42.9260546875,156.45711496894666L42.942311197916666,156.39419461788532L43.12408854166667,156.37570119776348L43.17729166666666,156.36956649465378L43.22162760416666,156.36573536602174L43.264485677083336,156.35604932941956L43.2984765625,156.32523762564426L43.31473307291667,156.30721750891317L43.406360677083335,156.3134009663552L43.4403515625,156.286055140553L43.537890624999996,156.24263764733104L43.59552734375,156.2201249242646L43.663509114583334,156.22435461933816L43.73001302083333,156.158498324071L43.93839192708333,156.10783182499722L43.956126302083334,156.0596814549975L43.95760416666667,156.01794403866444L44.49850260416667,155.9491595306313L44.504414062500004,155.86174826506817L44.81919921875,155.78068125106137L44.95959635416666,155.78875375095524L44.9832421875,155.69992889669305L45.271425781249995,155.60274746535708L45.3024609375,155.4580357396547L45.31280598958334,155.42459206152256L45.355664062500004,155.40647712620364L45.527096354166666,155.28283670524993L45.66897135416667,155.22395355555827L45.77389973958333,155.2053139291691L46.011835937499995,155.09887055708555L46.10494140625,154.98414235554364L46.258639322916665,154.9502734324893L46.33844401041667,154.9533169225737L46.43154947916667,154.8578149178163L46.489186197916666,154.70604123853468L46.623671875,154.68953451051456L46.75520182291667,154.6195810594631L46.77884765625,154.58139066185012L46.79362630208334,154.5069791998318L46.86751953125,154.40786617568193L46.877864583333334,154.4735087247804L46.892643229166666,154.4509396231357L47.14535807291667,154.29145503582214L47.189694010416666,154.1360267197399L47.40841796875,154.17317196443258L47.63157552083333,154.10227716382266L47.64930989583333,154.02940673910706L47.65669921875,154.06676606519636L47.664088541666665,153.95248997951006L47.78822916666667,153.98604827322572L47.975917968750004,154.02768198756982L48.76361979166667,153.9456773304795L48.77100911458333,153.8587825140982L48.787265625,153.81109124185505L48.93505208333334,153.6865831593362L48.946875,153.6912045309026L49.2926953125,153.64592053614567L49.468561197916664,153.5259144200311L49.61486979166666,153.42866412386132L49.66068359375,153.38170135730854L49.86167317708333,153.36315778407769L50.05970703125,153.38220658900323L50.33163411458333,153.36419634676957L50.39813802083333,153.23471942042596L50.58287109375,153.26108081171668L50.69666666666667,153.232382105545L50.82376302083333,153.0501418116572L51.04396484375,153.0293234638248L51.131158854166664,152.93112132577565L51.234609375,152.72520033903143L51.32771484375,152.53086780512828L51.41786458333333,152.47111071211546L51.50505859375,152.45073193257056L51.5626953125,152.40599467681352L51.805065104166665,152.3975972924655L52.11541666666667,152.27923027155228L52.15088541666667,152.32271974439706L52.2188671875,152.12764256162401L52.55729817708334,151.96719184712828L53.17356770833334,151.8267502665821L53.55190104166667,151.67441742742392L54.134179687499994,151.2640741221815L54.18147135416667,151.09862243913003L54.20216145833333,150.87467529938368L54.40758463541667,150.6210062069453L54.51842447916667,150.18107225291746L54.95735026041667,149.73040304845904L55.35046223958333,149.69745336861314L55.74209635416667,149.60391271925184L55.84259114583334,149.1447381139933L55.91796223958333,148.8944070109273L56.7766015625,148.88322985150126L57.01010416666667,148.47485894968446L57.32932291666666,148.18737461721602L57.749036458333336,147.87790486382775L57.77711588541666,147.6181883357783L58.24116536458333,147.1488122105338L58.647578125,147.1235789061471L58.72442708333334,146.92168716136572L58.97270833333333,146.7163538618958L59.00669921875,146.30944347570622L59.03182291666667,145.48489860730228L59.150052083333335,145.51982593407206L59.69095052083333,145.22251990316485L59.744153645833336,144.92811791284834L59.83725911458333,144.5967811215635L59.90819661458333,144.28643998857385L60.43727213541667,144.13868453138312L60.490475260416666,142.5398926407448L60.68407552083333,142.14617108500366L61.43630859375,141.25578210150329L61.910703125,140.40827680801962L62.01563151041666,139.739584023051L62.516627604166665,139.0701256207459L62.53288411458333,139.31235785033797L62.77525390625,137.69675748197085L63.4890625,136.3187103796071L63.96050130208334,135.20494923747972L64.04326171875,133.36255170956508L64.35361328125,132.61996945527522L64.50139973958333,131.2724079264144L65.21077473958333,129.50515619627294L69.05174479166668,128.42390411831232L135.18322916666665,124.17498662314776L161.72419921875,123.3882931691663L164.41834635416666,120.48079822724966L164.74199869791667,117.31344757119138L166.78884114583335,115.20414239740558L166.89081380208333,112.27210003266501L168.35685546875,111.74626086273184L168.52976562499998,106.66326185979199L169.061796875,105.0879137988128L170.49236979166668,102.43131564809819L173.29735677083335,99.28425543745503L173.90180338541668,97.80564395620954L175.4550390625,95.99597956058858L177.98957682291666,94.91613525036306L179.78961588541668,91.64797693366009L182.56208984375002,89.25173913612741L185.19121093750002,85.40259334751467L185.54737630208334,82.3926621377632L186.7148893229167,76.22613967398688L188.19127604166667,71.39600799825485L188.47945963541667,66.13863011509603L188.93611979166667,61.19787804108641L189.26125000000002,59.01283711197779L190.39772786458335,55.621050796613346L190.64157552083336,51.75642488361868L191.43962239583334,50.15535270775679L191.86672526041667,47.10242785364781L192.32781901041668,45.10074600578301L194.50323567708332,43.14113078020472L195.01901041666667,40.576275514684255L197.22694010416666,37.302917754882486L199.96098958333332,33.710784312727554L219.60180989583336,41.63630067312147L255.67057291666669,51.72971331414267L255.67205078125,59.6314185452284L255.67352864583333,67.2890412740389L255.67500651041667,75.44706631330168L255.67648437499997,82.75253676530484L255.67796223958334,88.72762683877434L255.67944010416667,95.19762977989691L255.68091796874998,100.49799076024055L255.68239583333332,102.30331980921649L255.68387369791668,107.39498053662817L255.6853515625,109.03509602463203L255.68682942708332,111.74706558883548L255.68830729166666,115.32918090495195" style="fill: none;" fill="none"></path></g></g></g></g><g opacity="0.2"><g><g><g><path stroke="rgb(255, 112, 67)" stroke-width="2px" d="M29.560247395833333,157.28355208333335L29.682910156250003,157.29061979166667L29.70064453125,157.28785416666668L29.703600260416668,157.291234375L29.712467447916666,157.28816145833332L29.73611328125,157.287546875L29.75828125,157.29200260416667L29.761236979166668,157.28539583333333L29.7671484375,157.29369270833334L29.76862630208333,157.28324479166668L29.773059895833335,157.29154166666666L29.7848828125,157.29184895833333L29.818873697916665,157.2879731191508L29.823307291666666,157.28908333333334L29.826263020833334,157.2771881749471L29.835130208333332,157.294L29.83660807291667,157.29338541666667L29.843997395833334,157.2879126991272L29.845475260416666,157.287546875L29.857298177083333,157.28631770833334L29.858776041666665,157.294921875L29.867643229166667,157.293078125L29.888333333333332,157.29154166666666L29.941536458333335,157.289390625L29.943014322916667,157.28662500000002L29.945970052083336,157.29092708333334L29.96666015625,157.291234375L30.084889322916666,157.294921875L30.1041015625,157.27740625L30.200162760416667,157.28969791666668L30.20902994791667,157.291234375L30.216419270833335,157.28416666666666L30.22380859375,157.28601041666667L30.229720052083334,157.29277083333335L30.265188802083333,157.28416666666666L30.27701171875,157.28908333333334L30.278489583333336,157.29184895833333L30.284401041666666,157.28723958333333L30.293268229166664,157.29584375L30.2991796875,157.27802083333333L30.30361328125,157.2903125L30.316914062499997,157.28693229166666L30.322825520833334,157.28508854166665L30.333170572916668,157.29338541666667L30.359772135416666,157.28662500000002L30.36716145833333,157.28760052800496L30.38341796875,157.29645833333333L30.415930989583334,157.29092708333334L30.42775390625,157.276484375L30.43514322916667,157.29246354166668L30.442532552083335,157.293078125L30.44548828125,157.28601041666667L30.449921874999998,157.2755625L30.47061197916667,157.28289785217285L30.500169270833332,157.28140104166667L30.504602864583333,157.28508854166665L30.517903645833336,157.28662500000002L30.553372395833335,157.28478125L30.63465494791667,157.29430729166666L30.659778645833335,157.293078125L30.664212239583332,157.289390625L30.668645833333333,157.285703125L30.70263671875,157.285703125L30.723326822916665,157.2892419366455L30.757317708333332,157.289390625L30.763229166666665,157.285703125L30.7780078125,157.2903125L30.782441406249998,157.28508854166665L30.785397135416666,157.28263020833333L30.79278645833333,157.29154166666666L30.794264322916664,157.28263020833333L30.811998697916668,157.28908333333334L30.828255208333335,157.28324479166668L30.8312109375,157.28631770833334L30.8489453125,157.28723958333333L30.90658203125,157.28908333333334L30.911015625,157.28969791666668L30.916927083333334,157.28816145833332L30.93318359375,157.28862239583333L30.947962239583333,157.27802083333333L30.953873697916666,157.28447395833334L30.962740885416665,157.2907734375L30.96421875,157.28785416666668L30.990820312500002,157.27709895833334L31.036634114583332,157.28539583333333L31.066191406250002,157.289390625L31.104615885416667,157.28355208333335L31.129739583333333,157.29184895833333L31.150429687499997,157.29061979166667L31.16373046875,157.28324479166668L31.1681640625,157.28785416666668L31.169641927083333,157.28877604166667L31.2125,157.29015885416666L31.24353515625,157.28846875L31.246490885416666,157.28877604166667L31.24796875,157.28693229166666L31.25240234375,157.28508854166665L31.30560546875,157.27986458333334L31.330729166666664,157.28846875L31.34107421875,157.28877604166667L31.344029947916667,157.285703125L31.346985677083335,157.28693229166666L31.348463541666668,157.29369270833334L31.355852864583333,157.28324479166668L31.379498697916667,157.28109375L31.401666666666664,157.28140104166667L31.417923177083335,157.2755625L31.42087890625,157.28170833333334L31.441569010416668,157.287546875L31.4519140625,157.28575268778482L31.45634765625,157.28493489583335L31.466692708333333,157.27740625L31.49625,157.2843203125L31.521373697916665,157.28447395833334L31.522851562499998,157.28508854166665L31.527285156250002,157.28201562499999L31.587877604166668,157.28662500000002L31.614479166666666,157.28723958333333L31.632213541666665,157.28355208333335L31.663248697916664,157.28078645833332L31.676549479166667,157.28631770833334L31.68541666666667,157.28816145833332L31.71349609375,157.28170833333334L31.7179296875,157.28047916666668L31.734186197916664,157.287546875L31.760787760416665,157.28447395833334L31.777044270833333,157.29584375L31.785911458333334,157.285703125L31.790345052083335,157.28263020833333L31.802167968750002,157.28662500000002L31.803645833333334,157.283859375L31.836158854166666,157.28539583333333L31.852415364583337,157.29246354166668L31.853893229166665,157.285703125L31.87310546875,157.29000520833333L31.884928385416668,157.28723958333333L31.918919270833335,157.29061979166667L31.94256510416667,157.2903125L31.986901041666666,157.28263020833333L31.998723958333333,157.28324479166668L32.01202473958333,157.28631770833334L32.03271484375,157.28816145833332L32.034192708333336,157.28829032277426L32.040104166666666,157.28478125L32.04158203125,157.28078645833332L32.04305989583333,157.294L32.085917968749996,157.28908333333334L32.105130208333335,157.2903125L32.12434244791667,157.285703125L32.12877604166667,157.27709895833334L32.140598958333335,157.28631770833334L32.152421875,157.294921875L32.16424479166667,157.27679166666667L32.18050130208333,157.28508854166665L32.211536458333335,157.28263020833333L32.223359375,157.287546875L32.22927083333333,157.28539583333333L32.2322265625,157.28601041666667L32.26030598958334,157.291234375L32.261783854166666,157.27679166666667L32.292819010416665,157.28232291666666L32.31942057291667,157.28508854166665L32.368190104166665,157.28324479166668L32.37557942708333,157.28263020833333L32.41548177083333,157.28140104166667L32.443561197916665,157.28601041666667L32.46129557291667,157.280171875L32.468684895833334,157.28263020833333L32.477552083333336,157.28508854166665L32.48789713541667,157.28324479166668L32.50119791666667,157.280171875L32.514498697916665,157.28560069544474L32.53075520833333,157.283859375L32.53814453125,157.29615104166666L32.54553385416667,157.27740625L32.55292317708333,157.27802083333333L32.578046875,157.27894270833335L32.585436197916664,157.28416666666666L32.589869791666665,157.28662500000002L32.619427083333335,157.28170833333334L32.62829427083334,157.28785416666668L32.6401171875,157.29000520833333L32.64602864583333,157.28539583333333L32.66819661458334,157.27955729166666L32.67410807291667,157.28170833333334L32.680019531250004,157.28723958333333L32.6933203125,157.28785416666668L32.694798177083335,157.28416666666666L32.70366536458334,157.29000520833333L32.70957682291667,157.28232291666666L32.75095703125,157.28693229166666L32.80268229166666,157.28109375L32.851451822916665,157.28908333333334L32.872141927083334,157.28631770833334L32.881009114583335,157.28816145833332L32.901699218750004,157.2755625L32.91943359375,157.28785416666668L32.932734374999995,157.28723958333333L32.93716796875,157.28355208333335L32.93864583333333,157.28846875L32.94307942708333,157.28201562499999L32.968203125,157.28631770833334L32.97115885416667,157.28969791666668L32.996282552083336,157.2829375L33.028795572916664,157.28478125L33.04209635416667,157.2755625L33.05244140625,157.27802083333333L33.07904296875,157.28232291666666L33.09234375,157.27371875L33.09529947916667,157.28416666666666L33.09973307291666,157.27402604166667L33.107122395833336,157.27740625L33.1278125,157.28263020833333L33.145546875,157.28140104166667L33.1544140625,157.27402604166667L33.15736979166667,157.285703125L33.18249348958333,157.27433333333335L33.19579427083333,157.27156770833332L33.23126302083333,157.28109375L33.238652343750005,157.28201562499999L33.26673177083333,157.272796875L33.269687499999996,157.271875L33.290377604166665,157.28232291666666L33.30220052083333,157.2681875L33.35983723958333,157.28324479166668L33.37461588541667,157.27955729166666L33.407128906249994,157.274640625L33.420429687500004,157.283859375L33.426341145833334,157.27433333333335L33.42781901041667,157.27894270833335L33.44407552083334,157.270953125L33.45294270833334,157.27679166666667L33.46919921875,157.27863541666667L33.47658854166667,157.28201562499999L33.510579427083336,157.28416666666666L33.535703125,157.26695833333332L33.55491536458333,157.27909635416665L33.5623046875,157.27617708333332L33.581516927083335,157.27817447916667L33.585950520833336,157.272796875L33.591861979166666,157.27986458333334L33.59925130208333,157.28047916666668L33.62880859375,157.27725260416668L33.648020833333334,157.27341145833333L33.66575520833334,157.27033854166666L33.68496744791667,157.26941666666667L33.69679036458333,157.27617708333332L33.70861328125,157.27679166666667L33.732259114583336,157.276484375L33.74112630208333,157.27248958333334L33.74999348958333,157.27525520833333L33.75590494791667,157.28078645833332L33.84753255208334,157.2608125L33.884479166666665,157.26834114583335L33.91108072916666,157.27110677083334L33.93620442708333,157.2681875L33.93916015625,157.274640625L33.97167317708333,157.27064583333333L33.97610677083333,157.26019791666667L33.97758463541667,157.27679166666667L34.00861979166667,157.26941666666667L34.024876302083335,157.26849479166665L34.032265625,157.27033854166666L34.04704427083334,157.26757291666667L34.05295572916666,157.26788020833334L34.061822916666664,157.269109375L34.081035156249996,157.2534375L34.08546875,157.2645L34.13276041666666,157.26265625L34.181529947916665,157.261734375L34.20369791666667,157.25958333333332L34.216998697916665,157.25128645833334L34.221432291666666,157.27064583333333L34.23029947916667,157.25497395833332L34.236210937500005,157.24913541666666L34.23768880208333,157.25528125L34.250989583333336,157.26111979166666L34.256901041666666,157.258046875L34.25985677083334,157.26265625L34.26872395833333,157.26111979166666L34.32931640625,157.248828125L34.34113932291667,157.25835416666666L34.35000651041667,157.26572916666666L34.351484375,157.246984375L34.36478515625,157.267265625L34.407643229166666,157.25835416666666L34.434244791666664,157.26204166666668L34.453457031250004,157.25220833333333L34.47119140625,157.2608125L34.48744791666667,157.24667708333334L34.51700520833334,157.25896875L34.518483072916666,157.246984375L34.553951822916666,157.24975L34.55690755208333,157.25128645833334L34.584986979166665,157.252515625L34.6086328125,157.25528125L34.63375651041667,157.25220833333333L34.65296875,157.24206770833334L34.72242838541666,157.25835416666666L34.72390625,157.24360416666667L34.7327734375,157.24421875L34.73720703125,157.25220833333333L34.746074218749996,157.25558854166667L34.75198567708333,157.239609375L34.75789713541667,157.23838020833333L34.76972005208333,157.24483333333333L34.78449869791667,157.24022395833333L34.82883463541667,157.24421875L34.834746093750006,157.23653645833332L34.83622395833333,157.23008333333334L34.85543619791667,157.24206770833334L34.87317057291667,157.24575520833332L34.89533854166667,157.22977604166667L34.90716145833333,157.23561458333333L34.93671875,157.23653645833332L34.997311197916666,157.19843229166668L35.00026692708334,157.22885416666668L35.04164713541667,157.22178645833333L35.043125,157.2018125L35.072682291666666,157.21686979166668L35.08302734375,157.224859375L35.14805338541667,157.19781770833333L35.15692057291667,157.20980208333333L35.1761328125,157.206421875L35.19534505208333,157.215640625L35.24854817708333,157.19873958333335L35.250026041666665,157.210109375L35.30175130208333,157.21133854166666L35.360865885416665,157.210109375L35.38155598958333,157.165859375L35.39337890625,157.18583333333333L35.40372395833334,157.17722916666668L35.42293619791667,157.19689583333334L35.43771484375,157.20396354166667L35.48057291666667,157.1723125L35.48944010416667,157.21348958333334L35.511608072916665,157.18552604166666L35.52934244791666,157.17907291666666L35.53525390625,157.18306770833334L35.5485546875,157.182453125L35.586979166666666,157.20857291666667L35.64609375,157.162171875L35.662350260416666,157.16186458333334L35.66530598958334,157.15909895833335L35.6815625,157.14957291666667L35.699296875,157.15448958333334L35.724420572916664,157.16186458333334L35.773190104166666,157.158484375L35.83821614583333,157.14680729166668L35.873684895833335,157.13482291666668L35.878118489583336,157.149265625L35.889941406249996,157.11884375L35.90619791666667,157.139125L35.90915364583333,157.15018750000002L35.92688802083334,157.14496354166667L35.93427734375,157.110546875L35.93723307291666,157.139125L35.96383463541667,157.12621875L35.965312499999996,157.12099479166667L36.095364583333335,157.132671875L36.17073567708333,157.10563020833334L36.212115885416665,157.12990625L36.235761718750005,157.12591145833335L36.26975260416666,157.11023958333334L36.30078776041667,157.10255729166667L36.30522135416667,157.08504166666665L36.32,157.11146875L36.35990234375,157.08227604166666L36.39684895833334,157.11669270833335L36.43231770833333,157.10655208333333L36.509166666666665,157.05615625000002L36.51064453125,157.088421875L36.51803385416667,157.07397916666667L36.543157552083336,157.06691145833332L36.59636067708334,157.12498958333333L36.61705078125,157.07090625L36.61852864583334,157.07935677083333L36.6480859375,157.05277604166668L36.655475260416665,157.10163541666668L36.72050130208333,157.06383854166666L36.75301432291667,157.046015625L36.770748697916666,157.07797395833333L36.831341145833335,157.04263541666666L36.835774739583336,157.06568229166666L36.841686197916665,157.05216145833333L36.86533203125,157.09733333333332L36.88011067708334,157.06383854166666L36.92592447916667,157.060765625L36.93331380208333,157.069984375L36.94513671875,157.06322395833334L36.99538411458334,157.040484375L37.11656901041667,157.08965104166666L37.1446484375,157.046015625L37.1623828125,157.057078125L37.18307291666667,157.04663020833334L37.20228515625,157.04109895833332L37.27322265625,157.05277604166668L37.31164713541667,157.02696354166667L37.354505208333336,157.01190625L37.36337239583333,157.050625L37.466822916666665,156.999L37.51411458333333,157.04488889689128L37.602786458333334,156.9805625L37.64564453125001,157.00975520833333L37.685546875,157.02235416666667L37.7476171875,156.98824479166666L37.76091796875,157.014671875L37.79047526041666,157.00453125L37.791953125,156.999L37.840722656249994,156.96089583333332L37.870279947916664,157.025734375L37.89244791666667,157.00821875L37.910182291666665,157.010984375L37.93235026041666,156.97656770833333L38.00624348958333,156.98179166666665L38.016588541666664,156.99746354166666L38.16289713541667,157.016515625L38.165852864583336,156.95321354166666L38.173242187499994,156.94092187500002L38.26930338541666,156.98271354166667L38.352063802083336,156.97195833333333L38.37127604166667,156.92770833333333L38.493938802083335,156.99500520833334L38.508717447916666,156.89913020833333L38.52201822916667,156.95290625L38.539752604166665,156.87915625L38.581132812499995,156.95075520833333L38.63876953125,156.98824479166666L38.867838541666664,156.95874479166667L38.9003515625,156.89820833333334L38.95946614583333,156.86071875L39.1663671875,156.928015625L39.229915364583334,156.94338020833334L39.284596354166666,156.83613541666668L39.351100260416665,156.82384375L39.424993489583336,156.80417708333334L39.43090494791667,156.85088541666667L39.4501171875,156.874546875L39.47376302083333,156.810015625L39.61416015625,156.87239583333334L39.66145182291667,156.65053125L39.69100911458334,156.66005729166667L39.74716796875,156.76945312499998L39.769335937499996,156.637625L39.7870703125,156.80202604166666L39.81662760416666,156.81032291666668L39.86244140625,156.85549479166667L39.90086588541667,156.69816145833335L39.97771484375,156.712296875L40.075253906250005,156.74978645833335L40.158014322916664,156.73042708333332L40.18904947916667,156.65975L40.27624348958333,156.66681770833333L40.35752604166667,156.597984375L40.46245442708333,156.65667708333334L40.487578125,156.58722916666667L40.50383463541667,156.537140625L40.54225911458333,156.62348958333334L40.55260416666666,156.73688020833333L40.83783203125,156.43788541666666L40.867389322916665,156.44710416666666L41.13044921875,156.44188020833334L41.47922526041667,156.51532291666666L41.516171875,156.448640625L41.94918619791667,156.57831770833334L41.9683984375,156.4348125L41.98317708333333,156.42344270833334L42.01716796875,156.45171354166666L42.24180338541667,156.51194270833332L42.389589843749995,156.313125L42.41323567708333,156.44618229166667L42.65708333333333,156.33678645833334L42.828515625,156.27102604166666L42.85955078125,156.40869270833332L42.91423177083333,156.51901041666667L42.9260546875,156.28792708333333L42.942311197916666,155.82791145833335L43.12408854166667,156.20926041666667L43.17729166666666,156.31435416666667L43.22162760416666,156.33125520833335L43.264485677083336,156.268875L43.2984765625,156.04793229166665L43.31473307291667,156.14503645833332L43.406360677083335,156.36905208333334L43.4403515625,156.03994270833334L43.537890624999996,155.85188020833334L43.59552734375,156.01751041666665L43.663509114583334,156.262421875L43.73001302083333,155.56579166666666L43.93839192708333,155.65183333333334L43.956126302083334,155.626328125L43.95760416666667,155.64230729166667L44.49850260416667,155.33009895833334L44.504414062500004,155.075046875L44.81919921875,155.051078125L44.95959635416666,155.86140625L44.9832421875,154.90050520833333L45.271425781249995,154.72811458333334L45.3024609375,154.15563020833332L45.31280598958334,155.12359895833333L45.355664062500004,155.24344270833333L45.527096354166666,154.17007291666667L45.66897135416667,154.69400520833332L45.77389973958333,155.03755729166667L46.011835937499995,154.14088020833333L46.10494140625,153.95158854166667L46.258639322916665,154.645453125L46.33844401041667,154.98070833333333L46.43154947916667,153.998296875L46.489186197916666,153.340078125L46.623671875,154.54097395833332L46.75520182291667,153.99L46.77884765625,154.23767708333332L46.79362630208334,153.83727604166666L46.86751953125,153.51584895833332L46.877864583333334,155.06429166666666L46.892643229166666,154.24781770833334L47.14535807291667,152.85609375L47.189694010416666,152.737171875L47.40841796875,154.50747916666666L47.63157552083333,153.46422395833332L47.64930989583333,153.37357291666666L47.65669921875,154.403L47.664088541666665,152.92400520833334L47.78822916666667,154.28807291666666L47.975917968750004,154.40238541666668L48.76361979166667,153.20763541666668L48.77100911458333,153.07672916666667L48.787265625,153.38186979166667L48.93505208333334,152.56601041666667L48.946875,153.732796875L49.2926953125,153.23836458333332L49.468561197916664,152.445859375L49.61486979166666,152.55341145833333L49.66068359375,152.95903645833334L49.86167317708333,153.196265625L50.05970703125,153.55364583333335L50.33163411458333,153.20210416666666L50.39813802083333,152.06942708333332L50.58287109375,153.49833333333333L50.69666666666667,152.97409375L50.82376302083333,151.40997916666666L51.04396484375,152.84195833333334L51.131158854166664,152.04730208333334L51.234609375,150.87191145833333L51.32771484375,150.781875L51.41786458333333,151.933296875L51.50505859375,152.26732291666667L51.5626953125,152.003359375L51.805065104166665,152.32202083333334L52.11541666666667,151.21392708333332L52.15088541666667,152.714125L52.2188671875,150.37194791666667L52.55729817708334,150.52313541666666L53.17356770833334,150.56277604166667L53.55190104166667,150.303421875L54.134179687499994,147.570984375L54.18147135416667,149.60955729166668L54.20216145833333,148.85915104166668L54.40758463541667,148.337984375L54.51842447916667,146.22166666666666L54.95735026041667,145.67438020833333L55.35046223958333,149.40090625L55.74209635416667,148.762046875L55.84259114583334,145.01216666666667L55.91796223958333,146.64142708333333L56.7766015625,148.78263541666666L57.01010416666667,144.79952083333333L57.32932291666666,145.600015625L57.749036458333336,145.09267708333334L57.77711588541666,145.28073958333334L58.24116536458333,142.92442708333334L58.647578125,146.89647916666667L58.72442708333334,145.10466145833334L58.97270833333333,144.86835416666668L59.00669921875,142.64724999999999L59.03182291666667,138.06399479166666L59.150052083333335,145.834171875L59.69095052083333,142.546765625L59.744153645833336,142.2785L59.83725911458333,141.61475000000002L59.90819661458333,141.49336979166668L60.43727213541667,142.80888541666667L60.490475260416666,128.150765625L60.68407552083333,138.60267708333333L61.43630859375,133.24228125000002L61.910703125,132.78072916666667L62.01563151041666,133.72134895833335L62.516627604166665,133.04500000000002L62.53288411458333,141.49244791666666L62.77525390625,123.15635416666667L63.4890625,123.91628645833333L63.96050130208334,125.18109895833334L64.04326171875,116.78097395833333L64.35361328125,125.93672916666667L64.50139973958333,119.14435416666667L65.21077473958333,113.599890625L69.05174479166668,118.69263541666666L135.18322916666665,85.93472916666666L161.72419921875,116.30805208333334L164.41834635416666,94.31334375L164.74199869791667,88.80729166666667L166.78884114583335,96.22039583333333L166.89081380208333,85.88371875L168.35685546875,107.01370833333334L168.52976562499998,60.91627083333334L169.061796875,90.90978125L170.49236979166668,78.52193229166667L173.29735677083335,70.96071354166666L173.90180338541668,84.49814062499999L175.4550390625,79.709L177.98957682291666,85.19753645833333L179.78961588541668,62.23455208333334L182.56208984375002,67.68559895833333L185.19121093750002,50.76028124999999L185.54737630208334,55.30328125000001L186.7148893229167,20.727437500000008L188.19127604166667,27.92482291666667L188.47945963541667,18.82222916666666L188.93611979166667,16.73110937499999L189.26125000000002,39.34746874999999L190.39772786458335,25.094973958333327L190.64157552083336,16.974791666666675L191.43962239583334,35.745703125000006L191.86672526041667,19.626104166666664L192.32781901041668,27.08560937499999L194.50323567708332,25.504593749999998L195.01901041666667,17.492578124999994L197.22694010416666,7.84269791666668L199.96098958333332,1.3815833333333387L219.60180989583336,112.96594791666666L255.67057291666669,142.57042708333333L255.67205078125,130.746765625L255.67352864583333,136.20764583333334L255.67500651041667,148.86929166666667L255.67648437499997,148.50177083333332L255.67796223958334,142.50343750000002L255.67944010416667,153.42765624999998L255.68091796874998,148.20123958333335L255.68239583333332,118.55128125L255.68387369791668,153.21992708333335L255.6853515625,123.79613541666666L255.68682942708332,136.15479166666665L255.68830729166666,147.56821875" style="fill: none;" fill="none"></path></g></g></g></g></g></g><g transform="translate(63, 177)" clip-path="url(#clip_1)"><clipPath id="clip_1"><rect width="266" height="23"></rect></clipPath><g><g><line x1="0" y1="0" x2="0" y2="5" style="visibility: inherit;" fill="rgb(0, 0, 0)" stroke="rgb(204, 204, 204)" stroke-width="1px"></line><line x1="29.557291666666664" y1="0" x2="29.557291666666664" y2="5" style="visibility: inherit;" fill="rgb(0, 0, 0)" stroke="rgb(204, 204, 204)" stroke-width="1px"></line><line x1="59.11458333333333" y1="0" x2="59.11458333333333" y2="5" style="visibility: inherit;" fill="rgb(0, 0, 0)" stroke="rgb(204, 204, 204)" stroke-width="1px"></line><line x1="88.671875" y1="0" x2="88.671875" y2="5" style="visibility: inherit;" fill="rgb(0, 0, 0)" stroke="rgb(204, 204, 204)" stroke-width="1px"></line><line x1="118.22916666666666" y1="0" x2="118.22916666666666" y2="5" style="visibility: inherit;" fill="rgb(0, 0, 0)" stroke="rgb(204, 204, 204)" stroke-width="1px"></line><line x1="147.78645833333334" y1="0" x2="147.78645833333334" y2="5" style="visibility: inherit;" fill="rgb(0, 0, 0)" stroke="rgb(204, 204, 204)" stroke-width="1px"></line><line x1="177.34375" y1="0" x2="177.34375" y2="5" style="visibility: inherit;" fill="rgb(0, 0, 0)" stroke="rgb(204, 204, 204)" stroke-width="1px"></line><line x1="206.90104166666666" y1="0" x2="206.90104166666666" y2="5" style="visibility: inherit;" fill="rgb(0, 0, 0)" stroke="rgb(204, 204, 204)" stroke-width="1px"></line><line x1="236.45833333333331" y1="0" x2="236.45833333333331" y2="5" style="visibility: inherit;" fill="rgb(0, 0, 0)" stroke="rgb(204, 204, 204)" stroke-width="1px"></line><line x1="266.015625" y1="0" x2="266.015625" y2="5" style="visibility: inherit;" fill="rgb(0, 0, 0)" stroke="rgb(204, 204, 204)" stroke-width="1px"></line></g><g transform="translate(0, 8)"><text x="0" y="0" dx="0em" dy="0.95em" style="text-anchor: middle; visibility: hidden; font-family: &quot;Helvetica Neue&quot;, sans-serif; font-size: 12px; font-weight: 200;" fill="rgb(50, 49, 63)" stroke="none" stroke-width="1px">-20k</text><text x="29.557291666666664" y="0" dx="0em" dy="0.95em" style="text-anchor: middle; visibility: inherit; font-family: &quot;Helvetica Neue&quot;, sans-serif; font-size: 12px; font-weight: 200;" fill="rgb(50, 49, 63)" stroke="none" stroke-width="1px">0</text><text x="59.11458333333333" y="0" dx="0em" dy="0.95em" style="text-anchor: middle; visibility: inherit; font-family: &quot;Helvetica Neue&quot;, sans-serif; font-size: 12px; font-weight: 200;" fill="rgb(50, 49, 63)" stroke="none" stroke-width="1px">20k</text><text x="88.671875" y="0" dx="0em" dy="0.95em" style="text-anchor: middle; visibility: inherit; font-family: &quot;Helvetica Neue&quot;, sans-serif; font-size: 12px; font-weight: 200;" fill="rgb(50, 49, 63)" stroke="none" stroke-width="1px">40k</text><text x="118.22916666666666" y="0" dx="0em" dy="0.95em" style="text-anchor: middle; visibility: inherit; font-family: &quot;Helvetica Neue&quot;, sans-serif; font-size: 12px; font-weight: 200;" fill="rgb(50, 49, 63)" stroke="none" stroke-width="1px">60k</text><text x="147.78645833333334" y="0" dx="0em" dy="0.95em" style="text-anchor: middle; visibility: inherit; font-family: &quot;Helvetica Neue&quot;, sans-serif; font-size: 12px; font-weight: 200;" fill="rgb(50, 49, 63)" stroke="none" stroke-width="1px">80k</text><text x="177.34375" y="0" dx="0em" dy="0.95em" style="text-anchor: middle; visibility: inherit; font-family: &quot;Helvetica Neue&quot;, sans-serif; font-size: 12px; font-weight: 200;" fill="rgb(50, 49, 63)" stroke="none" stroke-width="1px">100k</text><text x="206.90104166666666" y="0" dx="0em" dy="0.95em" style="text-anchor: middle; visibility: inherit; font-family: &quot;Helvetica Neue&quot;, sans-serif; font-size: 12px; font-weight: 200;" fill="rgb(50, 49, 63)" stroke="none" stroke-width="1px">120k</text><text x="236.45833333333331" y="0" dx="0em" dy="0.95em" style="text-anchor: middle; visibility: inherit; font-family: &quot;Helvetica Neue&quot;, sans-serif; font-size: 12px; font-weight: 200;" fill="rgb(50, 49, 63)" stroke="none" stroke-width="1px">140k</text><text x="266.015625" y="0" dx="0em" dy="0.95em" style="text-anchor: middle; visibility: hidden; font-family: &quot;Helvetica Neue&quot;, sans-serif; font-size: 12px; font-weight: 200;" fill="rgb(50, 49, 63)" stroke="none" stroke-width="1px">160k</text></g><line x1="0" y1="0" x2="266.015625" y2="0" fill="rgb(0, 0, 0)" stroke="rgb(204, 204, 204)" stroke-width="1px"></line></g></g></g></g></svg>