<svg viewBox="0 0 330 200" xmlns="http://www.w3.org/2000/svg"><g><g><g><g><g><line x1="74.78125" y1="177" x2="69.78125" y2="177" style="visibility: inherit;" fill="rgb(0, 0, 0)" stroke="rgb(204, 204, 204)" stroke-width="1px"></line><line x1="74.78125" y1="157.33333333333334" x2="69.78125" y2="157.33333333333334" style="visibility: inherit;" fill="rgb(0, 0, 0)" stroke="rgb(204, 204, 204)" stroke-width="1px"></line><line x1="74.78125" y1="137.66666666666669" x2="69.78125" y2="137.66666666666669" style="visibility: inherit;" fill="rgb(0, 0, 0)" stroke="rgb(204, 204, 204)" stroke-width="1px"></line><line x1="74.78125" y1="118" x2="69.78125" y2="118" style="visibility: inherit;" fill="rgb(0, 0, 0)" stroke="rgb(204, 204, 204)" stroke-width="1px"></line><line x1="74.78125" y1="98.33333333333334" x2="69.78125" y2="98.33333333333334" style="visibility: inherit;" fill="rgb(0, 0, 0)" stroke="rgb(204, 204, 204)" stroke-width="1px"></line><line x1="74.78125" y1="78.66666666666666" x2="69.78125" y2="78.66666666666666" style="visibility: inherit;" fill="rgb(0, 0, 0)" stroke="rgb(204, 204, 204)" stroke-width="1px"></line><line x1="74.78125" y1="59" x2="69.78125" y2="59" style="visibility: inherit;" fill="rgb(0, 0, 0)" stroke="rgb(204, 204, 204)" stroke-width="1px"></line><line x1="74.78125" y1="39.33333333333334" x2="69.78125" y2="39.33333333333334" style="visibility: inherit;" fill="rgb(0, 0, 0)" stroke="rgb(204, 204, 204)" stroke-width="1px"></line><line x1="74.78125" y1="19.666666666666686" x2="69.78125" y2="19.666666666666686" style="visibility: inherit;" fill="rgb(0, 0, 0)" stroke="rgb(204, 204, 204)" stroke-width="1px"></line><line x1="74.78125" y1="0" x2="69.78125" y2="0" style="visibility: inherit;" fill="rgb(0, 0, 0)" stroke="rgb(204, 204, 204)" stroke-width="1px"></line></g><g transform="translate(64.78125, 0)"><text x="0" y="177" dx="0em" dy="0.3em" style="text-anchor: end; visibility: hidden; font-family: &quot;Helvetica Neue&quot;, sans-serif; font-size: 12px; font-weight: 200;" fill="rgb(50, 49, 63)" stroke="none" stroke-width="1px">-5e+5</text><text x="0" y="157.33333333333334" dx="0em" dy="0.3em" style="text-anchor: end; visibility: inherit; font-family: &quot;Helvetica Neue&quot;, sans-serif; font-size: 12px; font-weight: 200;" fill="rgb(50, 49, 63)" stroke="none" stroke-width="1px">0</text><text x="0" y="137.66666666666669" dx="0em" dy="0.3em" style="text-anchor: end; visibility: hidden; font-family: &quot;Helvetica Neue&quot;, sans-serif; font-size: 12px; font-weight: 200;" fill="rgb(50, 49, 63)" stroke="none" stroke-width="1px">5e+5</text><text x="0" y="118" dx="0em" dy="0.3em" style="text-anchor: end; visibility: inherit; font-family: &quot;Helvetica Neue&quot;, sans-serif; font-size: 12px; font-weight: 200;" fill="rgb(50, 49, 63)" stroke="none" stroke-width="1px">1e+6</text><text x="0" y="98.33333333333334" dx="0em" dy="0.3em" style="text-anchor: end; visibility: hidden; font-family: &quot;Helvetica Neue&quot;, sans-serif; font-size: 12px; font-weight: 200;" fill="rgb(50, 49, 63)" stroke="none" stroke-width="1px">1.5e+6</text><text x="0" y="78.66666666666666" dx="0em" dy="0.3em" style="text-anchor: end; visibility: inherit; font-family: &quot;Helvetica Neue&quot;, sans-serif; font-size: 12px; font-weight: 200;" fill="rgb(50, 49, 63)" stroke="none" stroke-width="1px">2e+6</text><text x="0" y="59" dx="0em" dy="0.3em" style="text-anchor: end; visibility: hidden; font-family: &quot;Helvetica Neue&quot;, sans-serif; font-size: 12px; font-weight: 200;" fill="rgb(50, 49, 63)" stroke="none" stroke-width="1px">2.5e+6</text><text x="0" y="39.33333333333334" dx="0em" dy="0.3em" style="text-anchor: end; visibility: inherit; font-family: &quot;Helvetica Neue&quot;, sans-serif; font-size: 12px; font-weight: 200;" fill="rgb(50, 49, 63)" stroke="none" stroke-width="1px">3e+6</text><text x="0" y="19.666666666666686" dx="0em" dy="0.3em" style="text-anchor: end; visibility: hidden; font-family: &quot;Helvetica Neue&quot;, sans-serif; font-size: 12px; font-weight: 200;" fill="rgb(50, 49, 63)" stroke="none" stroke-width="1px">3.5e+6</text><text x="0" y="0" dx="0em" dy="0.3em" style="text-anchor: end; visibility: hidden; font-family: &quot;Helvetica Neue&quot;, sans-serif; font-size: 12px; font-weight: 200;" fill="rgb(50, 49, 63)" stroke="none" stroke-width="1px">4e+6</text></g><line x1="74.78125" y1="0" x2="74.78125" y2="177" fill="rgb(0, 0, 0)" stroke="rgb(204, 204, 204)" stroke-width="1px"></line></g></g><g transform="translate(74, 0)" clip-path="url(#clip_0)"><clipPath id="clip_0"><rect width="255" height="177"></rect></clipPath><g><g><g><line x1="0" y1="0" x2="0" y2="177" fill="rgb(0, 0, 0)" stroke="rgb(60, 60, 60)" stroke-width="1px" opacity="0.25"></line><line x1="21.268229166666664" y1="0" x2="21.268229166666664" y2="177" fill="rgb(0, 0, 0)" stroke="rgb(60, 60, 60)" stroke-width="1px" opacity="0.25"></line><line x1="42.53645833333333" y1="0" x2="42.53645833333333" y2="177" fill="rgb(0, 0, 0)" stroke="rgb(60, 60, 60)" stroke-width="1px" opacity="0.25"></line><line x1="63.8046875" y1="0" x2="63.8046875" y2="177" fill="rgb(0, 0, 0)" stroke="rgb(60, 60, 60)" stroke-width="1px" opacity="0.25"></line><line x1="85.07291666666666" y1="0" x2="85.07291666666666" y2="177" fill="rgb(0, 0, 0)" stroke="rgb(60, 60, 60)" stroke-width="1px" opacity="0.25"></line><line x1="106.34114583333334" y1="0" x2="106.34114583333334" y2="177" fill="rgb(0, 0, 0)" stroke="rgb(60, 60, 60)" stroke-width="1px" opacity="0.25"></line><line x1="127.609375" y1="0" x2="127.609375" y2="177" fill="rgb(0, 0, 0)" stroke="rgb(60, 60, 60)" stroke-width="1px" opacity="0.25"></line><line x1="148.87760416666669" y1="0" x2="148.87760416666669" y2="177" fill="rgb(0, 0, 0)" stroke="rgb(60, 60, 60)" stroke-width="1px" opacity="0.25"></line><line x1="170.14583333333331" y1="0" x2="170.14583333333331" y2="177" fill="rgb(0, 0, 0)" stroke="rgb(60, 60, 60)" stroke-width="1px" opacity="0.25"></line><line x1="191.4140625" y1="0" x2="191.4140625" y2="177" fill="rgb(0, 0, 0)" stroke="rgb(60, 60, 60)" stroke-width="1px" opacity="0.25"></line><line x1="212.68229166666669" y1="0" x2="212.68229166666669" y2="177" fill="rgb(0, 0, 0)" stroke="rgb(60, 60, 60)" stroke-width="1px" opacity="0.25"></line><line x1="233.95052083333331" y1="0" x2="233.95052083333331" y2="177" fill="rgb(0, 0, 0)" stroke="rgb(60, 60, 60)" stroke-width="1px" opacity="0.25"></line><line x1="255.21875" y1="0" x2="255.21875" y2="177" fill="rgb(0, 0, 0)" stroke="rgb(60, 60, 60)" stroke-width="1px" opacity="0.25"></line></g><g><line x1="0" y1="177" x2="255.21875" y2="177" fill="rgb(0, 0, 0)" stroke="rgb(60, 60, 60)" stroke-width="1px" opacity="0.25"></line><line x1="0" y1="157.33333333333334" x2="255.21875" y2="157.33333333333334" fill="rgb(0, 0, 0)" stroke="rgb(60, 60, 60)" stroke-width="1px" opacity="0.25"></line><line x1="0" y1="137.66666666666669" x2="255.21875" y2="137.66666666666669" fill="rgb(0, 0, 0)" stroke="rgb(60, 60, 60)" stroke-width="1px" opacity="0.25"></line><line x1="0" y1="118" x2="255.21875" y2="118" fill="rgb(0, 0, 0)" stroke="rgb(60, 60, 60)" stroke-width="1px" opacity="0.25"></line><line x1="0" y1="98.33333333333334" x2="255.21875" y2="98.33333333333334" fill="rgb(0, 0, 0)" stroke="rgb(60, 60, 60)" stroke-width="1px" opacity="0.25"></line><line x1="0" y1="78.66666666666666" x2="255.21875" y2="78.66666666666666" fill="rgb(0, 0, 0)" stroke="rgb(60, 60, 60)" stroke-width="1px" opacity="0.25"></line><line x1="0" y1="59" x2="255.21875" y2="59" fill="rgb(0, 0, 0)" stroke="rgb(60, 60, 60)" stroke-width="1px" opacity="0.25"></line><line x1="0" y1="39.33333333333334" x2="255.21875" y2="39.33333333333334" fill="rgb(0, 0, 0)" stroke="rgb(60, 60, 60)" stroke-width="1px" opacity="0.25"></line><line x1="0" y1="19.666666666666686" x2="255.21875" y2="19.666666666666686" fill="rgb(0, 0, 0)" stroke="rgb(60, 60, 60)" stroke-width="1px" opacity="0.25"></line><line x1="0" y1="0" x2="255.21875" y2="0" fill="rgb(0, 0, 0)" stroke="rgb(60, 60, 60)" stroke-width="1px" opacity="0.25"></line></g></g></g><g><g><line x1="0" y1="157.33333333333334" x2="255.21875" y2="157.33333333333334" fill="rgb(0, 0, 0)" stroke="rgb(153, 153, 153)" stroke-width="1.5px"></line></g></g><g><g><line x1="21.268229166666664" y1="0" x2="21.268229166666664" y2="177" fill="rgb(0, 0, 0)" stroke="rgb(153, 153, 153)" stroke-width="1.5px"></line></g></g><g><g><g><g><g><path stroke="rgb(255, 112, 67)" stroke-width="2px" d="M21.880754166666666,156.51200416666666L22.591113020833333,156.57200286458334L22.9569265625,156.53618613945576L23.21852578125,156.528405859375L23.284457291666666,156.5043387216632L23.29509140625,156.4939912968806L23.348261979166665,156.53691297714363L23.358896093749998,156.54338143148016L23.554563802083333,156.54634792093367L23.62687578125,156.56166218539454L23.658778125,156.5634881022761L23.6970609375,156.53402956988603L23.835304427083333,156.49089390375798L23.845938541666666,156.48655127252144L23.877840885416663,156.51914317106753L23.89060182291667,156.5242048305903L23.899109114583332,156.51229171519503L23.93313828125,156.5645445025745L23.94589921875,156.55950722792682L23.96929427083333,156.50795578528698L24.06500130208333,156.52855392303252L24.116045052083333,156.49430190298858L24.296825000000002,156.51101960715124L24.375517447916668,156.49381168275303L24.396785677083336,156.482896978621L24.424434374999997,156.48273985357125L24.598833854166667,156.46155305712495L24.73707734375,156.5074476957919L24.777486979166664,156.5139411198677L24.803008854166666,156.52565467451018L24.99229609375,156.4813527988297L26.132273177083334,156.50295501435042L26.706515364583332,156.5026413419286L26.766066406249998,156.51454813883163L26.82987109375,156.52651055017128L27.042553385416667,156.52901716346196L27.085089843749998,156.51001863129295L27.165909114583336,156.52344867882562L27.214826041666665,156.46862254050657L27.344562239583333,156.48228769098887L27.406240104166667,156.49024094793305L27.408366927083332,156.51310623543748L27.527469010416667,156.5081420745944L27.593400520833335,156.52040524475876L27.650824739583335,156.50003314685313L27.77630729166667,156.51421238811275L28.050667447916666,156.49469493286693L28.088950260416667,156.49090029305341L28.13148671875,156.4915735091654L28.17615,156.4760966054991L28.339915364583334,156.47482462996612L28.363310416666668,156.46427727797965L28.37819817708333,156.4091263667877L28.482412500000002,156.40558498673929L28.59513411458333,156.44746432537693L28.656811979166665,156.46502026189282L28.758899479166665,156.43759715713568L28.826957812499998,156.44779162761475L28.918411197916665,156.46541330990217L29.01624505208333,156.43094965260798L29.05452786458333,156.42900395823145L29.681940625,156.40108987493886L29.728730729166664,156.45273225829666L29.89249609375,156.43582935497798L30.251929166666667,156.4366026129868L30.50289427083333,156.44803073445874L30.65602552083333,156.45537927400858L30.66240598958333,156.45261006440515L30.91762473958333,156.43108520530976L30.930385677083333,156.41079528985253L30.936766145833335,156.4215821739115L31.03885364583333,156.35941763768025L31.238775,156.3758089159415L31.491866927083333,156.39169118289823L31.51738880208333,156.40923470973894L31.58970078125,156.38927749251002L31.670520052083333,156.36535566217268L31.819397656249997,156.37956839730361L31.904470572916665,156.3725593717155L32.27453776041667,156.37779395636264L32.30218645833333,156.39209554048423L32.31494739583333,156.40706815762388L32.58718072916667,156.38360172790766L32.7062828125,156.3784210367446L32.75519973958333,156.37521428871344L33.069969531249995,156.3578519065614L33.07422317708333,156.3052003106035L33.23373489583334,156.32154685302876L33.27201770833333,156.34340061181726L33.437909895833336,156.32524286709037L33.708016406249996,156.3360307202542L33.797342968749994,156.30793926548586L34.031293489583334,156.33735022595818L34.097225,156.33115096890825L34.146141927083335,156.31563141467828L34.403487500000004,156.2958471821403L34.841613020833336,156.26135997595085L34.84373984375,156.27311765223718L34.858627604166664,156.2785005913423L34.88202265625,156.26550535480538L35.026646614583335,156.2784073795499L35.05854895833333,156.26515442772995L35.09683177083333,156.26315182330464L35.14149505208333,156.27802776064945L35.194665625,156.230804989723L35.311640885416665,156.20957591050046L36.01349244791667,156.1932738796336L36.06666302083333,156.19273599444682L36.16237005208333,156.21030993000144L36.5856078125,156.22110012466752L36.85784114583333,156.2286067414672L37.10880625,156.23989571154698L37.483127083333336,156.21598909359486L37.62562421875,156.21600178949024L37.67454114583334,156.21497690702748L37.704316666666664,156.2052169775498L37.94464765625,156.18416851986322L37.987184114583336,156.1720802785846L38.19986640625,156.19373733381744L38.21688098958333,156.19984823362378L38.3210953125,156.18623269017428L38.36363177083333,156.22282961410457L38.399787760416665,156.20299610179606L38.56993359375,156.19734016107765L38.68265520833333,156.1907015966466L38.80175729166667,156.19350345798796L38.87832291666666,156.2373204081261L38.98679088541667,156.22368724487566L39.08037109375,156.16525901359205L39.24626328125,156.1781395748219L39.276038802083335,156.1821804115598L39.450438281249994,156.16862574693587L39.45681875,156.16211544816153L39.47383333333334,156.13249510223025L39.5461453125,156.1139853946715L39.54827213541667,156.11227040346955L39.992778125,156.15288557541507L40.22034817708333,156.14647634524903L40.77332213541667,156.13850080714943L40.835,156.10923048428964L41.22846223958334,156.13036245724047L41.45603229166667,156.06191664101095L41.52834427083334,156.07660415127324L42.0728109375,156.07396082409727L42.121727864583335,156.074833161125L42.20892760416667,156.08051906334168L42.28549322916666,156.1180031046717L42.298254166666666,156.03576852946966L42.79805755208333,156.02290945101512L42.983091145833335,156.02369983727576L43.119207812499994,156.0476265690321L43.19151979166667,156.0797317747526L43.202153906250004,156.0626361481849L43.24256354166666,155.9962058555776L43.31912916666667,155.92227518001323L43.35315833333333,155.88991344134126L43.46162630208334,155.90437223147143L43.472260416666664,155.91811167221618L43.49565546875,155.96873700332972L43.57009427083333,156.00481553533115L43.601996614583335,156.06156765453204L43.85083489583334,156.00785642605254L43.897625,155.99745968896485L44.21877526041666,156.01423164671226L44.24855078125,155.999170654694L44.297467708333336,156.01879822614973L44.32511640625,155.9977806023565L44.44209166666667,155.95036002808058L44.74622734375,155.96109351684834L45.33110364583334,155.970336110109L45.83303385416667,155.9460866660654L46.10101354166667,155.91693449963924L46.628465625,155.84526153311688L46.656114322916665,155.81371358653678L47.07935208333333,155.78416481858875L47.292034375,155.78152972448657L47.89817890625,155.7872745013586L48.16403177083333,155.78423136748182L48.22145598958333,155.78186465382242L48.23421692708333,155.77351212562678L48.23634375,155.77213894204274L48.281007031250006,155.759564198559L48.3767140625,155.75083935246872L48.54898671875,155.6464352781479L48.60853776041667,155.62612533355542L48.74890807291667,155.72127020013323L48.75316171875,155.7369587867466L48.7595421875,155.74543777204798L48.79357135416667,155.75490099656213L48.797825,155.74297726460392L48.95733671875,155.65656635876235L48.989239062500005,155.66121231525742L49.231696875,155.68774738915445L49.335911197916666,155.69501510015934L49.38270130208333,155.6505040600956L49.4231109375,155.6696207693907L49.66131510416667,155.6640299616344L49.86761692708333,155.622128810314L49.9590703125,155.57761645285507L50.120708854166665,155.53783070504636L50.33764479166667,155.55073592302782L53.804366145833335,155.40734072048338L54.33181822916667,155.16844443229002L56.71385989583334,154.921266659374L152.697378125,151.19377416229108L155.47500885416665,153.39933949737465L190.66116718749998,150.21984786509145L199.46834088541667,139.39091038572155L201.07196536458332,129.33461873143293L201.80784609375002,137.8313145721931L202.09284036458334,132.1196470766492L202.79043828125,123.42158657932285L204.20052187500002,119.98125611426039L206.79311901041666,114.28255950188955L207.75231614583333,109.03232570113373L208.70300598958335,120.21338375401358L210.13010416666668,107.2925219190748L211.05527213541666,110.25101231811156L214.31781848958335,96.04846405753361L215.38122994791667,89.06590093452016L215.73640937500002,97.53412472737877L225.14972760416666,95.52945400309392L226.21101223958334,90.81541406852301L228.44417630208332,84.4584951077805L233.35075677083333,73.36320093133496L234.77360130208334,66.75538775880096L235.6009354166667,62.81159765528059L236.93870703124998,42.22862912650169L237.03228723958333,44.698271342567665L238.30412734375,42.45032447220726L241.27317213541667,39.42261301665769L241.96013593749998,37.37987060999464L244.95682942708333,31.010652365996776" style="fill: none;" fill="none"></path></g></g></g></g><g opacity="0.2"><g><g><g><path stroke="rgb(255, 112, 67)" stroke-width="2px" d="M21.880754166666666,156.51200416666666L22.591113020833333,156.60800208333333L22.9569265625,156.50180208333333L23.21852578125,156.51925625L23.284457291666666,156.47291666666666L23.29509140625,156.47967708333334L23.348261979166665,156.59829166666668L23.358896093749998,156.5528125L23.554563802083333,156.55072291666667L23.62687578125,156.58440208333334L23.658778125,156.56621041666665L23.6970609375,156.49000208333334L23.835304427083333,156.42633125L23.845938541666666,156.48004583333332L23.877840885416663,156.56799270833335L23.89060182291667,156.53179375L23.899109114583332,156.49442708333333L23.93313828125,156.64291041666667L23.94589921875,156.55195208333333L23.96929427083333,156.43063333333333L24.06500130208333,156.55945L24.116045052083333,156.442925L24.296825000000002,156.53609583333332L24.375517447916668,156.468L24.396785677083336,156.466525L24.424434374999997,156.48250416666667L24.598833854166667,156.42977291666665L24.73707734375,156.57628958333333L24.777486979166664,156.52368125L24.803008854166666,156.543225L24.99229609375,156.4149L26.132273177083334,156.53535833333333L26.706515364583332,156.50217083333334L26.766066406249998,156.53240833333334L26.82987109375,156.54445416666667L27.042553385416667,156.53277708333334L27.085089843749998,156.48152083333332L27.165909114583336,156.54359375L27.214826041666665,156.38638333333333L27.344562239583333,156.50278541666665L27.406240104166667,156.50217083333334L27.408366927083332,156.54740416666667L27.527469010416667,156.50069583333334L27.593400520833335,156.5388L27.650824739583335,156.469475L27.77630729166667,156.53548125L28.050667447916666,156.46541875L28.088950260416667,156.48520833333333L28.13148671875,156.49258333333333L28.17615,156.45288125L28.339915364583334,156.47291666666666L28.363310416666668,156.44845625L28.37819817708333,156.3264L28.482412500000002,156.40027291666667L28.59513411458333,156.51028333333335L28.656811979166665,156.49135416666667L28.758899479166665,156.39646249999998L28.826957812499998,156.46308333333334L28.918411197916665,156.49184583333334L29.01624505208333,156.37925416666667L29.05452786458333,156.42608541666667L29.681940625,156.35921875L29.728730729166664,156.53019583333332L29.89249609375,156.410475L30.251929166666667,156.4377625L30.50289427083333,156.46517291666666L30.65602552083333,156.46640208333332L30.66240598958333,156.44845625L30.91762473958333,156.39879791666667L30.930385677083333,156.38036041666666L30.936766145833335,156.4377625L31.03885364583333,156.26617083333332L31.238775,156.40039583333333L31.491866927083333,156.41551458333333L31.51738880208333,156.43555L31.58970078125,156.35934166666667L31.670520052083333,156.32947291666667L31.819397656249997,156.4008875L31.904470572916665,156.36204583333333L32.27453776041667,156.38564583333334L32.30218645833333,156.41354791666666L32.31494739583333,156.42952708333334L32.58718072916667,156.34840208333333L32.7062828125,156.37065L32.75519973958333,156.37040416666667L33.069969531249995,156.33180833333333L33.07422317708333,156.22622291666667L33.23373489583334,156.34606666666667L33.27201770833333,156.37618125L33.437909895833336,156.29800625000001L33.708016406249996,156.3522125L33.797342968749994,156.26580208333334L34.031293489583334,156.38146666666665L34.097225,156.32185208333334L34.146141927083335,156.29235208333333L34.403487500000004,156.26617083333332L34.841613020833336,156.20962916666667L34.84373984375,156.29075416666666L34.858627604166664,156.286575L34.88202265625,156.2460125L35.026646614583335,156.29776041666668L35.05854895833333,156.245275L35.09683177083333,156.26014791666665L35.14149505208333,156.30034166666667L35.194665625,156.15997083333332L35.311640885416665,156.17773229166667L36.01349244791667,156.16882083333334L36.06666302083333,156.19192916666668L36.16237005208333,156.23667083333333L36.5856078125,156.23728541666668L36.85784114583333,156.23986666666667L37.10880625,156.25682916666668L37.483127083333336,156.18012916666666L37.62562421875,156.21602083333335L37.67454114583334,156.21343958333333L37.704316666666664,156.19057708333332L37.94464765625,156.15259583333332L37.987184114583336,156.15394791666665L38.19986640625,156.22622291666667L38.21688098958333,156.20901458333333L38.3210953125,156.165809375L38.36363177083333,156.277725L38.399787760416665,156.17324583333334L38.56993359375,156.18885625000001L38.68265520833333,156.18074375L38.80175729166667,156.19770625L38.87832291666666,156.30304583333333L38.98679088541667,156.2032375L39.08037109375,156.07761666666667L39.24626328125,156.19746041666667L39.276038802083335,156.18824166666667L39.450438281249994,156.14829375L39.45681875,156.15235L39.47383333333334,156.08806458333333L39.5461453125,156.08622083333333L39.54827213541667,156.10969791666668L39.992778125,156.21380833333333L40.22034817708333,156.1368625L40.77332213541667,156.1265375L40.835,156.065325L41.22846223958334,156.16206041666666L41.45603229166667,155.95924791666667L41.52834427083334,156.09863541666667L42.0728109375,156.06999583333334L42.121727864583335,156.07614166666667L42.20892760416667,156.08904791666666L42.28549322916666,156.17422916666666L42.298254166666666,155.91241666666667L42.79805755208333,156.00362083333334L42.983091145833335,156.02488541666668L43.119207812499994,156.08351666666667L43.19151979166667,156.12788958333334L43.202153906250004,156.03699270833334L43.24256354166666,155.89656041666666L43.31912916666667,155.81137916666665L43.35315833333333,155.84137083333334L43.46162630208334,155.92606041666667L43.472260416666664,155.93872083333332L43.49565546875,156.04467499999998L43.57009427083333,156.05893333333333L43.601996614583335,156.14669583333333L43.85083489583334,155.92728958333333L43.897625,155.98186458333333L44.21877526041666,156.03938958333333L44.24855078125,155.97657916666668L44.297467708333336,156.04823958333333L44.32511640625,155.96625416666666L44.44209166666667,155.87922916666668L44.74622734375,155.97719375L45.33110364583334,155.9842L45.83303385416667,155.9097125L46.10101354166667,155.87320625L46.628465625,155.73775208333333L46.656114322916665,155.76639166666666L47.07935208333333,155.73984166666668L47.292034375,155.77757708333334L47.89817890625,155.79589166666668L48.16403177083333,155.77966666666666L48.22145598958333,155.77831458333333L48.23421692708333,155.76098333333334L48.23634375,155.77007916666668L48.281007031250006,155.74070208333333L48.3767140625,155.73775208333333L48.54898671875,155.48982916666665L48.60853776041667,155.59566041666668L48.74890807291667,155.8639875L48.75316171875,155.76049166666667L48.7595421875,155.75815625L48.79357135416667,155.76909583333332L48.797825,155.72509166666666L48.95733671875,155.52695L48.989239062500005,155.66818125L49.231696875,155.72755L49.335911197916666,155.70591666666667L49.38270130208333,155.5837375L49.4231109375,155.69829583333333L49.66131510416667,155.65564375L49.86761692708333,155.55927708333334L49.9590703125,155.51084791666668L50.120708854166665,155.47815208333333L50.33764479166667,155.57009375L53.804366145833335,155.19224791666667L54.33181822916667,154.8101L56.71385989583334,154.5505L152.697378125,145.60253541666665L155.47500885416665,156.7076875L190.66116718749998,145.45061041666668L199.46834088541667,123.14750416666666L201.07196536458332,114.25018125L201.80784609375002,150.57635833333333L202.09284036458334,123.55214583333333L202.79043828125,110.37449583333333L204.20052187500002,114.82076041666667L206.79311901041666,105.73451458333334L207.75231614583333,101.156975L208.70300598958335,136.98497083333334L210.13010416666668,87.91122916666666L211.05527213541666,114.68874791666667L214.31781848958335,74.74464166666667L215.38122994791667,78.59205625000001L215.73640937500002,110.23646041666666L225.14972760416666,92.52244791666666L226.21101223958334,83.74435416666665L228.44417630208332,74.92311666666666L233.35075677083333,56.720259666666664L234.77360130208334,56.84366800000001L235.6009354166667,56.895912499999994L236.93870703124998,11.354176333333328L237.03228723958333,48.402734666666674L238.30412734375,39.07840416666667L241.27317213541667,34.88104583333333L241.96013593749998,34.31575700000002L244.95682942708333,21.45682500000001" style="fill: none;" fill="none"></path></g></g></g></g></g></g><g transform="translate(74, 177)" clip-path="url(#clip_1)"><clipPath id="clip_1"><rect width="255" height="23"></rect></clipPath><g><g><line x1="0" y1="0" x2="0" y2="5" style="visibility: inherit;" fill="rgb(0, 0, 0)" stroke="rgb(204, 204, 204)" stroke-width="1px"></line><line x1="21.268229166666664" y1="0" x2="21.268229166666664" y2="5" style="visibility: inherit;" fill="rgb(0, 0, 0)" stroke="rgb(204, 204, 204)" stroke-width="1px"></line><line x1="42.53645833333333" y1="0" x2="42.53645833333333" y2="5" style="visibility: inherit;" fill="rgb(0, 0, 0)" stroke="rgb(204, 204, 204)" stroke-width="1px"></line><line x1="63.8046875" y1="0" x2="63.8046875" y2="5" style="visibility: inherit;" fill="rgb(0, 0, 0)" stroke="rgb(204, 204, 204)" stroke-width="1px"></line><line x1="85.07291666666666" y1="0" x2="85.07291666666666" y2="5" style="visibility: inherit;" fill="rgb(0, 0, 0)" stroke="rgb(204, 204, 204)" stroke-width="1px"></line><line x1="106.34114583333334" y1="0" x2="106.34114583333334" y2="5" style="visibility: inherit;" fill="rgb(0, 0, 0)" stroke="rgb(204, 204, 204)" stroke-width="1px"></line><line x1="127.609375" y1="0" x2="127.609375" y2="5" style="visibility: inherit;" fill="rgb(0, 0, 0)" stroke="rgb(204, 204, 204)" stroke-width="1px"></line><line x1="148.87760416666669" y1="0" x2="148.87760416666669" y2="5" style="visibility: inherit;" fill="rgb(0, 0, 0)" stroke="rgb(204, 204, 204)" stroke-width="1px"></line><line x1="170.14583333333331" y1="0" x2="170.14583333333331" y2="5" style="visibility: inherit;" fill="rgb(0, 0, 0)" stroke="rgb(204, 204, 204)" stroke-width="1px"></line><line x1="191.4140625" y1="0" x2="191.4140625" y2="5" style="visibility: inherit;" fill="rgb(0, 0, 0)" stroke="rgb(204, 204, 204)" stroke-width="1px"></line><line x1="212.68229166666669" y1="0" x2="212.68229166666669" y2="5" style="visibility: inherit;" fill="rgb(0, 0, 0)" stroke="rgb(204, 204, 204)" stroke-width="1px"></line><line x1="233.95052083333331" y1="0" x2="233.95052083333331" y2="5" style="visibility: inherit;" fill="rgb(0, 0, 0)" stroke="rgb(204, 204, 204)" stroke-width="1px"></line><line x1="255.21875" y1="0" x2="255.21875" y2="5" style="visibility: inherit;" fill="rgb(0, 0, 0)" stroke="rgb(204, 204, 204)" stroke-width="1px"></line></g><g transform="translate(0, 8)"><text x="0" y="0" dx="0em" dy="0.95em" style="text-anchor: middle; visibility: hidden; font-family: &quot;Helvetica Neue&quot;, sans-serif; font-size: 12px; font-weight: 200;" fill="rgb(50, 49, 63)" stroke="none" stroke-width="1px">-10k</text><text x="21.268229166666664" y="0" dx="0em" dy="0.95em" style="text-anchor: middle; visibility: inherit; font-family: &quot;Helvetica Neue&quot;, sans-serif; font-size: 12px; font-weight: 200;" fill="rgb(50, 49, 63)" stroke="none" stroke-width="1px">0</text><text x="42.53645833333333" y="0" dx="0em" dy="0.95em" style="text-anchor: middle; visibility: hidden; font-family: &quot;Helvetica Neue&quot;, sans-serif; font-size: 12px; font-weight: 200;" fill="rgb(50, 49, 63)" stroke="none" stroke-width="1px">10k</text><text x="63.8046875" y="0" dx="0em" dy="0.95em" style="text-anchor: middle; visibility: inherit; font-family: &quot;Helvetica Neue&quot;, sans-serif; font-size: 12px; font-weight: 200;" fill="rgb(50, 49, 63)" stroke="none" stroke-width="1px">20k</text><text x="85.07291666666666" y="0" dx="0em" dy="0.95em" style="text-anchor: middle; visibility: hidden; font-family: &quot;Helvetica Neue&quot;, sans-serif; font-size: 12px; font-weight: 200;" fill="rgb(50, 49, 63)" stroke="none" stroke-width="1px">30k</text><text x="106.34114583333334" y="0" dx="0em" dy="0.95em" style="text-anchor: middle; visibility: inherit; font-family: &quot;Helvetica Neue&quot;, sans-serif; font-size: 12px; font-weight: 200;" fill="rgb(50, 49, 63)" stroke="none" stroke-width="1px">40k</text><text x="127.609375" y="0" dx="0em" dy="0.95em" style="text-anchor: middle; visibility: hidden; font-family: &quot;Helvetica Neue&quot;, sans-serif; font-size: 12px; font-weight: 200;" fill="rgb(50, 49, 63)" stroke="none" stroke-width="1px">50k</text><text x="148.87760416666669" y="0" dx="0em" dy="0.95em" style="text-anchor: middle; visibility: inherit; font-family: &quot;Helvetica Neue&quot;, sans-serif; font-size: 12px; font-weight: 200;" fill="rgb(50, 49, 63)" stroke="none" stroke-width="1px">60k</text><text x="170.14583333333331" y="0" dx="0em" dy="0.95em" style="text-anchor: middle; visibility: hidden; font-family: &quot;Helvetica Neue&quot;, sans-serif; font-size: 12px; font-weight: 200;" fill="rgb(50, 49, 63)" stroke="none" stroke-width="1px">70k</text><text x="191.4140625" y="0" dx="0em" dy="0.95em" style="text-anchor: middle; visibility: inherit; font-family: &quot;Helvetica Neue&quot;, sans-serif; font-size: 12px; font-weight: 200;" fill="rgb(50, 49, 63)" stroke="none" stroke-width="1px">80k</text><text x="212.68229166666669" y="0" dx="0em" dy="0.95em" style="text-anchor: middle; visibility: hidden; font-family: &quot;Helvetica Neue&quot;, sans-serif; font-size: 12px; font-weight: 200;" fill="rgb(50, 49, 63)" stroke="none" stroke-width="1px">90k</text><text x="233.95052083333331" y="0" dx="0em" dy="0.95em" style="text-anchor: middle; visibility: inherit; font-family: &quot;Helvetica Neue&quot;, sans-serif; font-size: 12px; font-weight: 200;" fill="rgb(50, 49, 63)" stroke="none" stroke-width="1px">100k</text><text x="255.21875" y="0" dx="0em" dy="0.95em" style="text-anchor: middle; visibility: hidden; font-family: &quot;Helvetica Neue&quot;, sans-serif; font-size: 12px; font-weight: 200;" fill="rgb(50, 49, 63)" stroke="none" stroke-width="1px">110k</text></g><line x1="0" y1="0" x2="255.21875" y2="0" fill="rgb(0, 0, 0)" stroke="rgb(204, 204, 204)" stroke-width="1px"></line></g></g></g></g></svg>