<svg viewBox="0 0 330 200" xmlns="http://www.w3.org/2000/svg"><g><g><g><g><g><line x1="74.78125" y1="177" x2="69.78125" y2="177" style="visibility: inherit;" fill="rgb(0, 0, 0)" stroke="rgb(204, 204, 204)" stroke-width="1px"></line><line x1="74.78125" y1="164.35714285714286" x2="69.78125" y2="164.35714285714286" style="visibility: inherit;" fill="rgb(0, 0, 0)" stroke="rgb(204, 204, 204)" stroke-width="1px"></line><line x1="74.78125" y1="151.71428571428572" x2="69.78125" y2="151.71428571428572" style="visibility: inherit;" fill="rgb(0, 0, 0)" stroke="rgb(204, 204, 204)" stroke-width="1px"></line><line x1="74.78125" y1="139.07142857142858" x2="69.78125" y2="139.07142857142858" style="visibility: inherit;" fill="rgb(0, 0, 0)" stroke="rgb(204, 204, 204)" stroke-width="1px"></line><line x1="74.78125" y1="126.42857142857143" x2="69.78125" y2="126.42857142857143" style="visibility: inherit;" fill="rgb(0, 0, 0)" stroke="rgb(204, 204, 204)" stroke-width="1px"></line><line x1="74.78125" y1="113.78571428571428" x2="69.78125" y2="113.78571428571428" style="visibility: inherit;" fill="rgb(0, 0, 0)" stroke="rgb(204, 204, 204)" stroke-width="1px"></line><line x1="74.78125" y1="101.14285714285715" x2="69.78125" y2="101.14285714285715" style="visibility: inherit;" fill="rgb(0, 0, 0)" stroke="rgb(204, 204, 204)" stroke-width="1px"></line><line x1="74.78125" y1="88.5" x2="69.78125" y2="88.5" style="visibility: inherit;" fill="rgb(0, 0, 0)" stroke="rgb(204, 204, 204)" stroke-width="1px"></line><line x1="74.78125" y1="75.85714285714286" x2="69.78125" y2="75.85714285714286" style="visibility: inherit;" fill="rgb(0, 0, 0)" stroke="rgb(204, 204, 204)" stroke-width="1px"></line><line x1="74.78125" y1="63.21428571428571" x2="69.78125" y2="63.21428571428571" style="visibility: inherit;" fill="rgb(0, 0, 0)" stroke="rgb(204, 204, 204)" stroke-width="1px"></line><line x1="74.78125" y1="50.57142857142857" x2="69.78125" y2="50.57142857142857" style="visibility: inherit;" fill="rgb(0, 0, 0)" stroke="rgb(204, 204, 204)" stroke-width="1px"></line><line x1="74.78125" y1="37.928571428571445" x2="69.78125" y2="37.928571428571445" style="visibility: inherit;" fill="rgb(0, 0, 0)" stroke="rgb(204, 204, 204)" stroke-width="1px"></line><line x1="74.78125" y1="25.285714285714306" x2="69.78125" y2="25.285714285714306" style="visibility: inherit;" fill="rgb(0, 0, 0)" stroke="rgb(204, 204, 204)" stroke-width="1px"></line><line x1="74.78125" y1="12.642857142857139" x2="69.78125" y2="12.642857142857139" style="visibility: inherit;" fill="rgb(0, 0, 0)" stroke="rgb(204, 204, 204)" stroke-width="1px"></line><line x1="74.78125" y1="0" x2="69.78125" y2="0" style="visibility: inherit;" fill="rgb(0, 0, 0)" stroke="rgb(204, 204, 204)" stroke-width="1px"></line></g><g transform="translate(64.78125, 0)"><text x="0" y="177" dx="0em" dy="0.3em" style="text-anchor: end; visibility: hidden; font-family: &quot;Helvetica Neue&quot;, sans-serif; font-size: 12px; font-weight: 200;" fill="rgb(50, 49, 63)" stroke="none" stroke-width="1px">-200</text><text x="0" y="164.35714285714286" dx="0em" dy="0.3em" style="text-anchor: end; visibility: inherit; font-family: &quot;Helvetica Neue&quot;, sans-serif; font-size: 12px; font-weight: 200;" fill="rgb(50, 49, 63)" stroke="none" stroke-width="1px">-100</text><text x="0" y="151.71428571428572" dx="0em" dy="0.3em" style="text-anchor: end; visibility: hidden; font-family: &quot;Helvetica Neue&quot;, sans-serif; font-size: 12px; font-weight: 200;" fill="rgb(50, 49, 63)" stroke="none" stroke-width="1px">0</text><text x="0" y="139.07142857142858" dx="0em" dy="0.3em" style="text-anchor: end; visibility: inherit; font-family: &quot;Helvetica Neue&quot;, sans-serif; font-size: 12px; font-weight: 200;" fill="rgb(50, 49, 63)" stroke="none" stroke-width="1px">100</text><text x="0" y="126.42857142857143" dx="0em" dy="0.3em" style="text-anchor: end; visibility: hidden; font-family: &quot;Helvetica Neue&quot;, sans-serif; font-size: 12px; font-weight: 200;" fill="rgb(50, 49, 63)" stroke="none" stroke-width="1px">200</text><text x="0" y="113.78571428571428" dx="0em" dy="0.3em" style="text-anchor: end; visibility: inherit; font-family: &quot;Helvetica Neue&quot;, sans-serif; font-size: 12px; font-weight: 200;" fill="rgb(50, 49, 63)" stroke="none" stroke-width="1px">300</text><text x="0" y="101.14285714285715" dx="0em" dy="0.3em" style="text-anchor: end; visibility: hidden; font-family: &quot;Helvetica Neue&quot;, sans-serif; font-size: 12px; font-weight: 200;" fill="rgb(50, 49, 63)" stroke="none" stroke-width="1px">400</text><text x="0" y="88.5" dx="0em" dy="0.3em" style="text-anchor: end; visibility: inherit; font-family: &quot;Helvetica Neue&quot;, sans-serif; font-size: 12px; font-weight: 200;" fill="rgb(50, 49, 63)" stroke="none" stroke-width="1px">500</text><text x="0" y="75.85714285714286" dx="0em" dy="0.3em" style="text-anchor: end; visibility: hidden; font-family: &quot;Helvetica Neue&quot;, sans-serif; font-size: 12px; font-weight: 200;" fill="rgb(50, 49, 63)" stroke="none" stroke-width="1px">600</text><text x="0" y="63.21428571428571" dx="0em" dy="0.3em" style="text-anchor: end; visibility: inherit; font-family: &quot;Helvetica Neue&quot;, sans-serif; font-size: 12px; font-weight: 200;" fill="rgb(50, 49, 63)" stroke="none" stroke-width="1px">700</text><text x="0" y="50.57142857142857" dx="0em" dy="0.3em" style="text-anchor: end; visibility: hidden; font-family: &quot;Helvetica Neue&quot;, sans-serif; font-size: 12px; font-weight: 200;" fill="rgb(50, 49, 63)" stroke="none" stroke-width="1px">800</text><text x="0" y="37.928571428571445" dx="0em" dy="0.3em" style="text-anchor: end; visibility: inherit; font-family: &quot;Helvetica Neue&quot;, sans-serif; font-size: 12px; font-weight: 200;" fill="rgb(50, 49, 63)" stroke="none" stroke-width="1px">900</text><text x="0" y="25.285714285714306" dx="0em" dy="0.3em" style="text-anchor: end; visibility: hidden; font-family: &quot;Helvetica Neue&quot;, sans-serif; font-size: 12px; font-weight: 200;" fill="rgb(50, 49, 63)" stroke="none" stroke-width="1px">1e+3</text><text x="0" y="12.642857142857139" dx="0em" dy="0.3em" style="text-anchor: end; visibility: inherit; font-family: &quot;Helvetica Neue&quot;, sans-serif; font-size: 12px; font-weight: 200;" fill="rgb(50, 49, 63)" stroke="none" stroke-width="1px">1.1e+3</text><text x="0" y="0" dx="0em" dy="0.3em" style="text-anchor: end; visibility: hidden; font-family: &quot;Helvetica Neue&quot;, sans-serif; font-size: 12px; font-weight: 200;" fill="rgb(50, 49, 63)" stroke="none" stroke-width="1px">1.2e+3</text></g><line x1="74.78125" y1="0" x2="74.78125" y2="177" fill="rgb(0, 0, 0)" stroke="rgb(204, 204, 204)" stroke-width="1px"></line></g></g><g transform="translate(74, 0)" clip-path="url(#clip_0)"><clipPath id="clip_0"><rect width="255" height="177"></rect></clipPath><g><g><g><line x1="0" y1="0" x2="0" y2="177" fill="rgb(0, 0, 0)" stroke="rgb(60, 60, 60)" stroke-width="1px" opacity="0.25"></line><line x1="28.357638888888886" y1="0" x2="28.357638888888886" y2="177" fill="rgb(0, 0, 0)" stroke="rgb(60, 60, 60)" stroke-width="1px" opacity="0.25"></line><line x1="56.71527777777777" y1="0" x2="56.71527777777777" y2="177" fill="rgb(0, 0, 0)" stroke="rgb(60, 60, 60)" stroke-width="1px" opacity="0.25"></line><line x1="85.07291666666666" y1="0" x2="85.07291666666666" y2="177" fill="rgb(0, 0, 0)" stroke="rgb(60, 60, 60)" stroke-width="1px" opacity="0.25"></line><line x1="113.43055555555554" y1="0" x2="113.43055555555554" y2="177" fill="rgb(0, 0, 0)" stroke="rgb(60, 60, 60)" stroke-width="1px" opacity="0.25"></line><line x1="141.78819444444446" y1="0" x2="141.78819444444446" y2="177" fill="rgb(0, 0, 0)" stroke="rgb(60, 60, 60)" stroke-width="1px" opacity="0.25"></line><line x1="170.14583333333331" y1="0" x2="170.14583333333331" y2="177" fill="rgb(0, 0, 0)" stroke="rgb(60, 60, 60)" stroke-width="1px" opacity="0.25"></line><line x1="198.50347222222223" y1="0" x2="198.50347222222223" y2="177" fill="rgb(0, 0, 0)" stroke="rgb(60, 60, 60)" stroke-width="1px" opacity="0.25"></line><line x1="226.8611111111111" y1="0" x2="226.8611111111111" y2="177" fill="rgb(0, 0, 0)" stroke="rgb(60, 60, 60)" stroke-width="1px" opacity="0.25"></line><line x1="255.21875" y1="0" x2="255.21875" y2="177" fill="rgb(0, 0, 0)" stroke="rgb(60, 60, 60)" stroke-width="1px" opacity="0.25"></line></g><g><line x1="0" y1="177" x2="255.21875" y2="177" fill="rgb(0, 0, 0)" stroke="rgb(60, 60, 60)" stroke-width="1px" opacity="0.25"></line><line x1="0" y1="164.35714285714286" x2="255.21875" y2="164.35714285714286" fill="rgb(0, 0, 0)" stroke="rgb(60, 60, 60)" stroke-width="1px" opacity="0.25"></line><line x1="0" y1="151.71428571428572" x2="255.21875" y2="151.71428571428572" fill="rgb(0, 0, 0)" stroke="rgb(60, 60, 60)" stroke-width="1px" opacity="0.25"></line><line x1="0" y1="139.07142857142858" x2="255.21875" y2="139.07142857142858" fill="rgb(0, 0, 0)" stroke="rgb(60, 60, 60)" stroke-width="1px" opacity="0.25"></line><line x1="0" y1="126.42857142857143" x2="255.21875" y2="126.42857142857143" fill="rgb(0, 0, 0)" stroke="rgb(60, 60, 60)" stroke-width="1px" opacity="0.25"></line><line x1="0" y1="113.78571428571428" x2="255.21875" y2="113.78571428571428" fill="rgb(0, 0, 0)" stroke="rgb(60, 60, 60)" stroke-width="1px" opacity="0.25"></line><line x1="0" y1="101.14285714285715" x2="255.21875" y2="101.14285714285715" fill="rgb(0, 0, 0)" stroke="rgb(60, 60, 60)" stroke-width="1px" opacity="0.25"></line><line x1="0" y1="88.5" x2="255.21875" y2="88.5" fill="rgb(0, 0, 0)" stroke="rgb(60, 60, 60)" stroke-width="1px" opacity="0.25"></line><line x1="0" y1="75.85714285714286" x2="255.21875" y2="75.85714285714286" fill="rgb(0, 0, 0)" stroke="rgb(60, 60, 60)" stroke-width="1px" opacity="0.25"></line><line x1="0" y1="63.21428571428571" x2="255.21875" y2="63.21428571428571" fill="rgb(0, 0, 0)" stroke="rgb(60, 60, 60)" stroke-width="1px" opacity="0.25"></line><line x1="0" y1="50.57142857142857" x2="255.21875" y2="50.57142857142857" fill="rgb(0, 0, 0)" stroke="rgb(60, 60, 60)" stroke-width="1px" opacity="0.25"></line><line x1="0" y1="37.928571428571445" x2="255.21875" y2="37.928571428571445" fill="rgb(0, 0, 0)" stroke="rgb(60, 60, 60)" stroke-width="1px" opacity="0.25"></line><line x1="0" y1="25.285714285714306" x2="255.21875" y2="25.285714285714306" fill="rgb(0, 0, 0)" stroke="rgb(60, 60, 60)" stroke-width="1px" opacity="0.25"></line><line x1="0" y1="12.642857142857139" x2="255.21875" y2="12.642857142857139" fill="rgb(0, 0, 0)" stroke="rgb(60, 60, 60)" stroke-width="1px" opacity="0.25"></line><line x1="0" y1="0" x2="255.21875" y2="0" fill="rgb(0, 0, 0)" stroke="rgb(60, 60, 60)" stroke-width="1px" opacity="0.25"></line></g></g></g><g><g><line x1="0" y1="151.71428571428572" x2="255.21875" y2="151.71428571428572" fill="rgb(0, 0, 0)" stroke="rgb(153, 153, 153)" stroke-width="1.5px"></line></g></g><g><g><line x1="28.357638888888886" y1="0" x2="28.357638888888886" y2="177" fill="rgb(0, 0, 0)" stroke="rgb(153, 153, 153)" stroke-width="1.5px"></line></g></g><g><g><g><g><g><path stroke="rgb(255, 112, 67)" stroke-width="2px" d="M28.69225902777778,149.2829669216701L28.912030729166666,149.25040473052434L28.97725329861111,149.43241401980987L29.453661631944446,149.5057953220055L29.601121354166665,149.48042030824783L29.690447916666667,149.67504697230106L29.70037309027778,149.73381620285596L29.840743402777775,149.6308459635369L29.884697743055554,149.52396105048595L30.33841996527778,149.78760340719754L30.389463715277778,149.66778446830136L30.62625,149.67726274169033L30.77938125,149.57081048905786L30.91266215277778,149.5562680274134L31.172134548611112,149.4441162062722L31.208999479166664,149.51461461213844L31.269968402777778,149.53477217928582L31.654214409722222,149.51950346362054L31.83995694444444,149.62199405389822L32.28942552083333,149.56167347714978L32.677925173611115,149.47871658433533L32.734640451388884,149.43492520496548L32.751655034722226,149.36786700468144L33.01538107638889,149.29500557184934L33.06075329861111,149.41442307479403L33.55134045138889,149.2739992741318L33.663353125,149.23868524262122L33.67327829861111,149.26490759024716L33.676114062500005,149.24954361127072L33.73850086805555,149.46001194365343L33.924243402777776,149.23609931483605L34.38080138888889,148.82823101716465L34.42333784722223,148.78158146521403L34.51124652777778,148.84535440779797L34.67430295138889,148.7760519292017L34.81750902777778,148.7278431479252L35.02168402777777,148.48429517296216L35.285410069444445,148.35396996043625L35.50659965277778,147.94389983249098L35.57891163194444,147.76107204210734L35.70935677083333,147.88842893965227L35.91636753472223,147.20627164917738L36.134721354166665,146.70215584650373L36.19285451388889,146.35227565069877L36.574264756944444,145.58922253319707L36.62530850694444,144.79951566272615L36.689113194444445,144.29408439761676L36.95851076388889,143.84859349570291L37.10738836805555,143.32844181170046L37.12298506944445,143.22179722987656L37.29738454861111,142.8101319093525L37.31156336805555,142.6105434313252L37.46753038194444,142.4433796302234L37.51715625,142.26406349241958L37.86737309027777,141.25567023830826L38.10983090277777,139.89206285727016L38.45862986111111,138.99488057150475L38.6018359375,138.14049977147417L38.814518229166666,137.18537129145585L38.92511302083333,136.31202634630205L38.976156770833335,136.13569795063836L39.97718142361111,133.64356162752583L39.99419600694444,132.74881554794405L40.02964305555556,131.86428932876643L40.130312673611115,131.27035931154558L40.56560243055556,130.3292691583559L40.575527604166666,129.2114900664421L40.63933229166667,128.63564403986527L40.68186875,128.037279281062L40.80522447916666,127.8204925686372L40.979623958333335,127.07408125546804L41.03208559027778,126.73685946756655L41.04768229166667,126.72416925196849L41.51558333333333,125.51548369403824L41.819010069444445,124.09491521642295L41.8686359375,123.59025270128234L42.424445659722224,122.11799090648368L42.574741145833336,120.52347311531878L42.60451666666666,119.88283386919127L42.666903472222224,118.89791460722905L42.909361284722216,117.9908916214803L43.07667135416667,116.53007068717389L43.157490625,116.31732812659004L43.336143750000005,115.66816473309689L43.53039357638889,115.16804169700099L43.63815260416666,114.80475358962917L43.85792430555556,113.5279414394918L44.04933836805555,113.0147112922665L44.37403333333334,112.05882677535992L44.45343472222222,110.5686889223588L44.599476562499994,111.14433835341529L44.65619184027778,110.93660301204916L44.664699131944445,109.95066716437236L44.73275746527778,110.03075744148057L44.749772048611106,109.60470446488833L44.76962239583333,109.20684053607587L45.01066232638889,109.12615789307408L45.0205875,108.82489116441589L45.38781892361111,108.15422041293525L45.638784027777774,107.70440724776115L45.72527482638889,106.99201934865668L45.77206493055556,106.9596758949083L45.89258489583334,105.94464482265927L45.93795711805556,105.88875117930985L46.44414097222222,105.77619713615734L46.73480677083334,104.64982542455155L46.75323923611111,103.19962739758807L46.83973003472222,103.57799072426714L46.858162500000006,103.29929443456028L46.866669791666666,102.94243380359332L46.8964453125,102.58608528215599L47.36576423611111,102.41968688357932L47.45509079861111,102.77815141586187L47.599714756944444,102.15564084951711L47.68195190972222,101.62409879542456L47.88896267361111,100.97329856296903L47.96269253472222,100.67763985206713L48.00948263888889,100.01033391124028L48.105898611111115,100.27370034674416L48.190971527777776,100.00502377947507L48.61350034722222,99.63837141054218L48.823346875,98.53337998918246L48.96229930555556,97.75976013636662L49.16222065972222,97.42201679610568L49.26572604166667,97.59865650623485L49.35079895833333,97.38856890374092L49.35221684027778,97.94206991367311L49.42594670138889,97.49979551963244L49.68967274305555,96.49166302606518L49.97750277777778,96.18705138706768L50.04130746527778,95.29312368938348L50.09376909722222,94.80417778505866L50.1887671875,94.74786381389232L50.36458454861111,94.38220043119254L50.478015104166666,94.24182025871552L50.480850868055555,93.57286001237217L50.57301319444444,93.53496600742331L50.97852743055556,93.43321174731112L51.17419513888889,91.91823061981526L51.284789930555554,91.846831229032L51.29896875,92.43613445170492L51.37837013888889,92.1654753138801L51.399638368055555,91.9477673311852L51.62224583333334,92.13321397013969L51.68463263888889,92.79760695351239L51.732840624999994,92.42186774353601L51.74701944444444,92.60731707469304L51.79380954861111,92.40251524481582L51.92850833333333,92.6115091468895L51.96820902777778,92.24699477384799L52.124176041666665,91.82283972145164L52.13835486111111,91.5367395471567L52.19790590277778,91.45990087115116L52.50558628472223,91.74567266554784L52.66013541666667,91.2217785993287L52.69841822916666,90.9232457310258L52.69983611111111,91.32885815290119L52.804759375,90.78204703459787L53.398851909722225,90.40654964933015L53.681010416666666,90.48151907531238L53.75615815972222,90.55810787375887L53.95607951388889,89.51361472425532L54.693378124999995,88.69727597741033L54.803972916666666,88.71318701501764L55.05635590277778,88.35925149472484L55.18821892361111,88.16269375397778L55.30873888888889,87.57065196667239L55.33000711805556,87.68953403714629L55.56395763888889,86.6704168508592L55.888652604166666,87.54448225337266L56.05454479166667,86.88365363773788L56.41894045138889,86.32912075407131L56.49975972222222,86.50211530958563L56.63020486111111,84.94653704289424L56.72945659722222,84.86658294002227L56.807440104166666,84.40771762115622L56.90243819444444,84.00596985840802L57.2328046875,84.11259977218768L57.249819270833335,84.50845272045547L57.26825173611111,84.80917877513043L57.84107604166667,85.30568583650683L57.87652309027777,84.56055435904693L58.059429861111106,84.5085647582853L58.25084392361111,84.25612099782833L58.42807916666666,84.6893868844113L58.43233281249999,84.51474820207537L58.937098784722224,83.58027749267377L58.96971006944444,83.88879149560427L59.083140625000006,83.97907846879113L59.16112413194444,83.8910185098461L59.179556597222216,83.64853967733625L59.334105729166666,83.86653452068747L59.373806423611114,83.90250999812677L59.40783559027778,83.76605957030463L59.4532078125,84.01606431361135L59.738202083333334,83.75517430245253L59.950884375,82.57140815290009L60.143716319444444,83.50471989174007L60.25005746527778,83.08488550647262L60.27132569444445,82.70655630388356L60.550648437499994,82.44795163947299L60.59034913194445,81.75546741225524L60.83847847222222,82.30399473306743L60.927805034722226,82.09578969698332L61.20712777777778,81.67059881818999L61.59420954861111,81.17843071948545L61.774280555555556,80.946344145977L62.00964895833333,81.21798505901475L62.36695520833334,81.03329103540885L62.576801736111115,81.31756390695959L62.72284357638889,81.64616334417576L62.88731788194444,80.89510872079117L62.944033159722224,80.87117237533185L62.989405381944444,80.6671677109134L63.221938020833335,80.90824705511949L63.229027430555554,80.40494823307166L63.2559671875,80.45064751127157L63.501260763888894,80.22520993533439L63.82170208333333,79.60003667548634L64.034384375,80.03091486243466L64.08826388888889,80.33685248888936L64.12087517361111,80.04630792190504L64.46116684027777,79.72974903885732L64.5859404513889,79.50820656617154L65.21689791666667,78.99599536827435L65.26652378472222,78.70447222096462L66.11583506944444,78.32411190400732L66.1243423611111,77.95366357097582L66.33986041666667,77.74719814258549L66.3540392361111,77.22822959983701L66.3923220486111,77.26452704561649L67.18633593749999,77.1124662273699L67.43730104166666,76.51551545070764L67.60602899305555,75.872880698996L67.61878993055555,75.5189069908262L67.72654895833332,75.29071919449572L67.82154704861112,75.67532437384028L68.20295729166666,76.03251605287561L68.29086597222224,76.56290248886822L69.1132375,76.7072950647495L69.17987795138889,76.74651989599256L69.44927552083334,75.91666193759555L69.85478975694444,75.92446144827163L69.98948854166666,74.99673044039153L70.18657413194444,74.53491326423493L70.27590069444445,73.95755510139811L70.37373454861111,74.11685448941029L71.18759878472223,73.48546983650333L71.47401093750001,73.01181761618771L71.60587395833333,72.33253699828407L71.68385746527778,72.19362934182759L71.70087204861112,72.18930260509656L72.01138819444444,72.37634942020078L72.62533107638889,71.4613453664062L72.82241666666667,71.54448579127228L72.89047500000001,71.21508433190623L73.00674131944444,70.90681845628659L73.09039635416666,70.3425732166291L73.18964809027777,70.17786535854889L73.31867534722223,70.03162992941505L73.60366961805556,69.48558510050616L73.70859288194444,69.0315296317323L73.75963663194445,68.50623920761082L74.53096440972222,68.82320781028078L75.24841267361111,68.15999611473991L75.82407274305555,67.27215838312966L76.03817291666667,66.83427717273494L76.0452623263889,68.2941377322124L76.080709375,67.35264335361316L76.22816909722222,67.04060386931076L77.13844930555555,66.67954089301503L77.30717725694444,66.62093882152331L77.53120260416667,66.64899186434256L77.70701996527777,65.79662726146269L77.8800015625,65.09556564259191L77.92253802083334,65.46510724269801L78.0331328125,65.92388577419023L78.16357795138889,64.80843860737129L78.42305034722222,64.12336673585136L79.70623350694444,63.91777004151082L79.71048715277777,62.925215596335065L80.24644652777778,61.95039721494389L80.81218142361112,61.61836332896634L80.84621059027778,62.68342871166551L80.94546232638889,62.058182226999335L80.99934184027778,61.87267719334244L81.01352065972222,61.58753488743406L81.22620295138888,60.95814593246044L81.63738871527778,61.14944113090485L82.52498281250001,60.23698610711433L82.563265625,59.831745235697156L82.59020538194444,59.541189998561165L83.7656295138889,59.1139997134224L83.95846145833333,58.60482839948202L83.95987934027778,58.45736132540351L83.99390850694444,58.11602393809925L84.15412916666666,58.62238222000241L84.44195920138888,58.35726861771573L84.49300295138889,58.24561117062943L85.40186527777777,58.510491702377664L85.51671371527777,58.5113843071409L85.5464892361111,57.86397344142739L85.59753298611112,57.807401921999286L85.83715503472223,57.86828043891386L86.46385885416666,57.098825406205464L86.53049930555555,57.095455958009L86.78571805555555,56.33486286051969L87.05227986111112,55.910114144883224L87.3869,55.98713991550137L87.39540729166666,55.527641092157964L87.51025572916666,55.45738822672337L88.07740850694445,55.288807936034004L88.14121319444445,56.53096333304897L88.2319576388889,56.675720856972234L88.3694921875,56.24105751418334L88.53113072916666,57.13392022279572L88.7551560763889,57.14811999082028L88.99761388888889,57.567532708777904L89.46551493055556,56.317841053838166L89.632825,56.72168677516004L89.90931197916667,56.363458493667466L89.94617690972223,56.14852152477191L90.29639375000001,55.9010325577203L90.31057256944445,55.44436953463217L90.62392447916666,54.77528243506504L90.85503923611111,55.05338374675331L90.88623263888888,55.583726676623414L90.99824531249999,55.58586100597407L91.087571875,55.081427317870165L91.23077795138889,54.573320676436396L91.41510260416668,55.185063834433265L91.47465364583333,55.062199014945676L91.94822621527777,55.241337266110264L91.99218055555556,55.61748093109473L92.5295578125,55.353256415799706L92.72238975694444,54.60998956376555L92.78903020833333,54.38527945254505L92.86843159722223,54.45589981438418L92.94357934027778,54.45086131720193L92.9917873263889,54.90614179032117L93.5249109375,54.56297078847844L93.59722291666667,54.2306396159442L93.6114017361111,54.110258769566514L93.94176822916667,54.4331195474542L94.39407256944445,54.05790744275825L94.76413975694445,54.18045875136923L95.33129253472222,53.337382393678695L95.70844913194443,52.38903657906437L95.74106041666666,52.2941362331529L96.06150173611111,52.90094602560603L96.35500329861111,52.61708547250649L97.01290052083333,52.22551914064675L97.18304635416666,51.39004362724519L97.49639826388889,49.78250831920427L97.59565,49.339504991522546L97.76296006944445,50.069327994913536L98.21384652777778,49.179721796948115L98.21526440972222,48.914618792454576L98.6264501736111,48.42368198975845L98.81361059027778,49.31438776528364L98.95539878472222,49.72238265917021L99.54523767361111,49.872358166930695L99.7394875,48.72966490015844L99.79903854166668,48.059852511523616L100.07694340277777,47.98984007834275L100.1251513888889,47.33149333271993L100.13649444444445,46.99969957106052L101.08931111111112,46.67419474263633L102.01518802083334,46.589516845581784L102.37391215277778,46.69674582163478L102.78368003472222,46.99813677869517L103.06300277777778,47.65307849578852L103.35083281249999,47.87220424033026L103.48694947916665,47.292518972769614L103.67410989583334,46.13872566937604L103.84283784722223,45.8889496873399L104.01298368055555,45.4388162409754L104.15193611111111,44.26793260172809L104.33767864583334,43.944688132465444L104.409990625,43.6559200223364L104.52767482638889,44.01998058483042L105.2167654513889,44.34904192232685L105.2904953125,44.3726394391104L105.78817187499999,43.81786937775195L106.06182309027778,44.022328769508334L106.08450920138888,44.097593690276426L106.78777864583333,43.795074071308704L107.05292256944445,43.29749087135667L107.13941336805556,44.89536952281401L107.45134739583332,43.76802528511698L107.4626904513889,42.83876159964163L107.64417934027777,43.51388195978498L107.68529791666667,43.28681131872813L107.81857881944444,42.53422964837972L108.15036319444444,43.06250207474213L108.20566059027777,42.68410838770245L108.56296684027778,42.773143604050034L108.65796493055555,43.26906473385861L108.87631875,43.187331697458006L108.94437708333334,43.691416875617676L109.13862690972222,43.7094036967992L109.26056475694445,43.419927932365226L110.1297263888889,42.898563902276265L110.38919878472223,44.324138341365796L110.80747395833333,44.98984014767663L110.85568194444444,44.37783266003453L110.9024720486111,43.43379781030646L110.97903767361112,44.40822511475528L111.02724565972223,43.71279221171031L111.16761597222222,43.311336041311904L111.26544982638889,43.87644448193001L111.61424878472222,44.578991689158016L111.74469392361111,43.483377156351935L111.95737621527778,43.36332986523976L112.00133055555555,43.275497919143845L112.56990121527777,42.464227322914894L112.62661649305555,43.241750679463195L112.72303246527778,43.20255040767793L112.94563993055556,43.66894095889248L113.04205590277778,43.616900289621185L113.55107552083334,43.52246160234415L113.55816493055555,43.497405532835046L113.58935833333334,43.51397903398674L114.20046545138888,43.88740527753487L114.20897274305555,43.5583360236638L114.41881927083332,45.46276947134112L114.58471145833333,44.26650096851898L114.64142673611111,44.496954152539956L114.77045399305555,43.62379749152399L114.8711236111111,43.84267135205724L114.87537725694445,44.40069209694866L115.19298281249999,43.771486686740616L115.3971578125,43.17271344061581L115.40991875,42.65541377865517L115.84520850694445,45.39512326719313L115.88349131944445,44.921270388887336L115.99266822916667,51.005797947618106L116.1117703125,60.55124662571373L116.13162065972222,65.85181940399967L116.54280642361111,84.3142166423998L116.94832065972223,80.58370855686846L117.03764722222222,94.1331715626925L117.10003402777778,92.41722436618693L117.24891163194445,98.18319176256931L117.36234218749999,100.78937934325587L117.55233836805554,100.89916332023924L117.75934913194445,100.53833727785783L118.217325,94.41130593814327L118.83126788194444,92.5841049914574L118.97589184027777,89.67037370916015L119.05245746527778,87.8115099397818L119.17014166666667,87.99208453529765L119.18006684027777,85.19257214975002L119.24103576388889,86.48393614699287L119.61819236111111,85.8680402596243L119.65080364583334,87.93225272720316L119.70893680555555,86.95828020775045L119.94288732638888,87.10086098179312L119.97124496527778,86.69649873193302L120.09601857638889,86.09039923915981L120.21795642361111,85.66352525778161L120.42922083333333,85.29677586895468L121.0275670138889,85.20315480708709L121.2771142361111,84.57805359853796L121.33808315972222,84.31361787340849L121.75494045138889,83.26995643833082L121.93926510416667,83.06255422014137L121.98463732638889,82.51931824637055L122.02292013888889,82.36721594782233L122.2086626736111,81.91247242583627L122.41709131944444,80.35953702693034L122.4440310763889,79.20652578758677L122.50641788194444,78.30927261540921L122.88499236111112,77.86574214067409L122.8906638888889,76.7778381415473L122.92752881944445,76.74143502778554L122.989915625,76.3087003023856L123.68042413194445,76.31772018143137L123.69034930555556,76.71822139457312L123.78534739583333,77.03753997960101L123.80945138888889,76.88145255918917L124.17951857638889,76.36110367837065L124.4673486111111,76.15951934987953L125.32233142361112,75.50124732421344L125.82426163194444,75.05887339452806L126.12910624999999,74.95148475100254L126.36731041666665,74.90285513631581L126.49208402777778,74.4785880817895L126.67640868055555,74.5559028490737L126.74021336805556,74.49166670944423L126.92312013888889,73.88419645423797L127.18259253472222,73.59873215825706L127.94966666666666,71.65745358066854L127.95250243055557,70.90357929125827L128.3339126736111,69.5820582890407L128.47144722222222,69.12102068771014L128.93225885416666,69.35011241262609L128.96912378472223,68.64997816186136L129.25553593749999,68.60918332568825L129.43135329861113,67.32042070969867L129.61709583333334,67.43216314010492L130.1672340277778,66.88286931263438L130.74998350694446,65.92115015900919L130.7769232638889,65.91304723826266L131.2434064236111,65.22863191438617L131.27885347222224,64.20164343434598L131.33698663194443,63.85411106060759L131.361090625,64.19081485065028L131.40079131944444,63.847613910390166L132.16361180555555,63.278211203376955L132.29405694444443,62.88915886488331L132.59464791666664,62.03938817607285L132.84844878472222,62.58836504850086L132.92643229166669,62.111769029100515L133.1008317708333,62.11027570317461L133.20717291666668,60.38679042190478L133.51910694444445,59.510734967428576L133.7658184027778,59.64885169474286L134.1146173611111,58.60966815970286L134.13446770833332,59.04499732439315L134.23371944444443,59.859319823207315L134.77676822916666,59.63675260821012L134.86751267361112,58.207319422068906L134.98661475694445,58.15564165324135L135.240415625,57.792759991944806L135.36944288194445,56.784852423738315L135.86995520833332,55.72180431138584L135.88413402777778,55.36843972968866L135.88696979166667,55.39347455209891L136.11241302083334,55.34528115983079L136.54344913194444,55.506007981612754L136.67105850694443,54.78065836039622L136.85112951388888,53.302412873380604L136.85963680555554,54.296090581171214L136.9787388888889,53.31194006298844L137.43671475694444,52.326360466364505L137.5529810763889,51.45054842267585L138.098865625,50.73541833931979L138.3285625,50.085090289306166L138.33706979166666,49.88453631644083L138.52706597222223,49.938043218435936L138.56960243055556,50.05706700249013L138.81206024305556,49.567454487208366L138.97937031249998,49.58975840661073L139.11548697916666,49.22385504396645L139.3976454861111,49.19395588352273L140.44546024305555,48.54387353011364L140.56172656249998,47.97998483235392L140.6127703125,47.65745518512662L140.98709114583335,46.70536596821884L141.3202934027778,46.292148152359886L142.1596795138889,46.02841389141594L142.2901246527778,44.59008404913527L142.32415381944446,44.627889715195465L143.54636805555555,43.749769543403005L144.07240225694446,42.7962010117561L144.07807378472222,43.1880777499108L144.09508836805554,42.14311450708934L144.17874340277777,42.63819013282503L144.9046989583333,42.30309265112359L144.9160420138889,42.828998447817014L144.92454930555556,42.180524068690204L144.95857847222223,42.154921584071275L145.1967826388889,41.68125652187135L145.23648333333335,41.58670034169424L145.6944592013889,41.877645205016535L146.85995815972223,41.293640694438494L147.00032847222224,40.86422013094884L147.0698046875,40.95424636428359L147.49516927083332,40.96085138999871L147.87516163194442,40.28526083399922L147.94463784722222,41.08097792897095L149.00521354166665,40.215104614525444L149.073271875,40.34352705442953L149.1980454861111,39.567187661229156L149.23774618055555,39.717723311023235L149.25617864583333,40.61402684375679L149.40930989583333,39.88752324911124L150.5336902777778,39.24617466375244L150.68256788194444,39.38288336968003L150.88107135416666,39.41749787895088L151.10793246527777,39.09058801308481L151.6637421875,38.64158495070805L151.67224947916668,38.11932597042485L151.85940989583332,38.83320272511202L151.9288861111111,39.103493063638666L152.11604652777777,39.565935123897475L152.41663749999998,39.195453931481325L152.53999322916667,39.39986164460311L152.87461336805558,38.96938127247614L153.25318784722222,38.363414477771414L153.28296336805556,37.69956654380573L153.4346767361111,38.01241849771199L153.89832413194443,38.76905824148437L154.08406666666667,39.033399230604886L154.18757204861112,38.48084310979149L154.21167604166666,38.48118443730348L154.30667413194442,38.62362137666781L155.2651623263889,38.69327996885784L155.68201961805553,38.22936083845758L155.89470190972222,37.08181293164594L157.32250902777778,36.91480204470187L157.54086284722223,36.0402205125354L157.546534375,36.33725730752124L157.57205624999997,36.199407955941325L158.17890972222222,36.44857334499335L158.67800416666668,36.0449475784246L159.11754756944444,35.40768283276904L159.282021875,35.34139541394714L159.3174689236111,36.64492653408257L159.32739409722222,36.82650949187811L159.38978090277777,36.41394140941256L159.59253802083333,35.02854341707612L159.7541765625,34.19730462167425L159.81939913194444,33.904007773004565L159.94133697916666,33.41195823523128L160.4787142361111,33.614541012567344L160.81475225694444,33.99684960754041L161.04303125,33.79953833595283L161.28832482638887,33.191240858714536L161.3365328125,33.110726658085895L161.38899444444445,32.872775280565804L161.39466597222224,32.52455802548235L161.8568954861111,32.44205624386086L162.9982904513889,32.31353731774507L163.0876170138889,33.500711676361334L163.1173925347222,32.63265914867395L163.22940520833333,32.19084548920438L163.28044895833335,31.79932872209406L163.9213315972222,31.200936518970707L164.03476215277777,31.15797262566815L165.02869739583332,31.46406928968662L165.14354583333335,32.011209430954835L166.2055394097222,31.86538637285861L167.0888798611111,31.272178252286608L167.18529583333333,31.35875337994338L167.55110937499998,31.1736448851089L167.70849427083334,30.714901216779623L167.88289375000002,31.008583587210637L167.96938454861112,30.457828723754943L168.1097548611111,30.664697234252998L168.39758489583335,30.204086197694636L168.42594253472222,30.860130290045362L168.520940625,30.574203174027218L169.46950364583333,30.402646904416343L170.00829878472223,30.173284571221245L170.0749392361111,29.119060028447024L170.61231649305554,28.881614588496802L170.67328541666666,28.280843753098054L171.01641284722223,28.441899109001724L171.3099144097222,28.364693036829607L172.8213765625,27.891672964954893L172.96316475694445,27.876521636115797L173.4948704861111,28.357341553098053L173.56009305555557,27.49217278900167L173.57568975694443,28.205750101972427L173.9117277777778,27.985950061183473L173.92590659722222,27.395766465281525L174.29030225694444,27.247102736311774L174.32858506944444,27.473975927501357L175.00207899305556,27.51527841364367L175.36789253472222,27.571667048186185L175.9194486111111,27.273625228911726L176.01870034722222,27.44247870877561L176.12645937500002,27.30673722526538L176.36891718750002,27.351720906587786L176.5631670138889,27.615764686809797L177.3926279513889,26.55731595494305L177.40822465277776,26.17510385868013L177.42665711805554,26.2460444580652L177.87612569444445,25.451019531981984L178.2419392361111,26.127665290617784L178.59357395833334,25.58543846008493L178.65454288194445,25.670995218908104L178.66446805555557,26.16482927420202L178.9721484375,25.923808278806945L179.49109322916667,26.348124252998446L179.82145972222222,26.52369598037049L180.07384270833333,26.360378302508025L180.55308680555555,26.973548410076262L180.76435121527777,26.171986188902878L180.7912909722222,25.390780999056005L181.3400112847222,24.96946859943361L181.4903067708333,25.032752588231602L181.5909763888889,25.434205124367566L181.73418246527777,25.13775521747766L181.79373350694445,25.797474559058003L181.89582100694446,25.861431164006262L182.0829814236111,25.56793012697517L183.03579809027778,25.77111521904223L183.49660972222225,26.38293698856822L183.61429392361111,25.944047907426636L184.7500173611111,26.328660887313134L185.03784739583332,26.132732246673612L185.17538194444444,25.84133577657559L185.52701666666667,25.856140751659638L185.65320815972223,26.102077308138632L185.9140984375,26.423478527740343L186.22319670138887,27.24846211664419L186.60177118055557,26.336934412843647L186.66132222222222,26.99108921913478L187.15049149305557,26.530189245766593L187.40571024305555,26.222042118888538L187.72756944444444,25.84751098561884L187.85234305555554,25.923060162799857L188.38830243055557,26.995621811965634L189.0759751736111,27.528533801465073L189.19507725694444,27.5480131380219L189.54104045138888,27.41746859709889L189.7579763888889,27.27592758683076L189.9522262152778,28.297252980669896L190.05431371527777,28.10406607411619L190.50945381944445,27.719493215898297L191.22406631944443,27.741606643824696L191.35025781250002,28.181571129151962L191.3814512152778,27.987246248919774L191.84651649305556,28.69243703506615L191.9060675347222,27.946087221039676L192.11024253472223,28.620330904052395L192.37255069444444,28.17148425671715L192.6291873263889,27.886372696887463L192.71284236111111,28.142002189561026L192.97515052083332,28.074129885165178L193.84998368055557,29.28188864538481L194.06550173611112,29.406008187230896L194.46109079861114,29.05378348376709L194.69787708333334,28.810841518831694L194.75175659722223,28.791504911299L195.12324166666664,29.317224375350833L195.2196576388889,29.869709625210504L196.19232465277778,30.217004346554887L196.4220215277778,30.125113322218652L196.51134809027778,30.164800136188347L196.52836267361113,30.536290795998696L196.59925677083334,30.49052447759925L196.79634236111113,30.60529682941666L197.43580711805555,30.358088811935716L197.93348368055555,29.609228287161443L198.05400364583335,29.776251258011143L198.51481527777776,30.318965040520965L198.5701126736111,31.008075452884015L198.90047916666666,31.547970271730378L199.5527048611111,32.72530002018112L200.83305225694443,31.882947869251524L200.98334774305556,31.646197292979508L201.21020885416667,31.74120051864483L201.43990572916667,31.703381025472623L202.55577881944444,31.601671472426403L202.720253125,31.888324312027294L202.82234062499998,32.37638744435924L203.03076927083333,33.06431460947272L203.1441998263889,32.671088765683635L203.4447907986111,32.45095683083872L203.55396770833332,31.465484812788958L203.85455868055556,30.826790887673383L204.17783576388888,30.917681675461154L204.57909635416667,31.44632329099099L204.5961109375,31.573865403166025L204.86550850694445,31.508158527613915L205.37594600694445,31.358109402282622L205.71907343750001,32.04245492708387L205.79280329861112,32.20020509910748L205.97287430555556,32.40548020232163L206.71300868055556,31.80168097853587L206.86613993055553,31.897705015692907L206.97106319444444,31.165140866558602L207.68000416666666,32.353370234220904L207.9876845486111,43.800501004929856L208.3761842013889,51.58181846010079L208.57185190972223,55.41301964748905L208.95893368055556,56.05236535992199L209.04400659722222,56.87847278738177L209.15034774305556,52.838512243857636L210.20525190972222,44.31435734631458L210.5398720486111,38.09361440778875L211.0432201388889,34.78786507324472L211.3267965277778,32.51995118680395L211.83014461805556,42.04786356922526L212.28953836805553,46.010414570106576L212.40438680555556,46.064820170635386L216.10505868055554,41.22996353095266L216.1064765625,38.17101383285731L216.22841440972223,36.4620725854287L216.399978125,36.100457836971515L216.43258940972223,35.741256845040056L216.5488557291667,34.893593392738325L216.91183350694445,34.21115603564297L218.09292916666666,33.94392576424295L218.42045989583335,34.6211768871172L218.4261314236111,34.316366846556036L218.56791961805556,34.27571296507648L219.40446996527777,34.18810635047447L219.9191611111111,34.546435238856105L220.16020104166668,34.445361143313676L220.2892282986111,34.59016311455963L221.3483861111111,35.04052644016437L221.60785850694444,34.583780149812895L222.03180520833334,35.17892880417347L222.12822118055556,35.07771442536122L222.39052934027777,34.969575083788186L222.58477916666666,35.268173621701465L222.8981310763889,35.02063631587802L223.0044722222222,34.65086393238397L223.18312534722222,34.31837550228752L223.62975815972223,34.32432887280109L223.77721788194444,34.1856687522521L224.51735225694443,33.94443696563695L224.56839600694445,33.67326932223932L224.67473715277777,33.79503302191503L224.92286649305558,33.804876956006154L225.01219305555557,34.04783688788942L225.0972659722222,33.84593427559079L225.10151961805556,34.18309627964021L225.11144479166666,34.13253633921272L225.1823388888889,33.94416466067045L225.3354701388889,33.70471308211657L227.0071529513889,34.05095284926992L227.03551059027777,34.35351813813341L227.49490434027777,34.81952159716576L228.11593663194444,35.32037367258516L228.26906788194444,35.273206346408244L228.3243652777778,35.51356666498782L228.89860746527776,35.86322928470696L229.07867847222224,35.75695542796703L229.29986805555558,35.72479825678022L231.12184635416665,36.0689860969253L231.53445,36.13326665815518L232.04772326388888,36.06120999489312L232.36249305555555,36.31824385407873L232.7467390625,36.66210702673294L232.9282279513889,37.05806778746833L233.63291527777778,36.88475138676671L233.69955572916666,36.464690117774325L233.95477447916664,36.65515335637889L234.04268315972223,36.311127728113036L234.10790572916667,36.26274806543924L234.1504421875,35.917648839263535L234.15327795138887,36.089875017843866L234.19014288194444,36.35124643927776L234.23409722222223,37.06119429213808L234.9969177083333,37.20269871814L235.70585868055554,36.48161923088401L236.03906093749998,37.26584653853041L236.12413385416667,37.08843649454684L236.34390555555555,36.997794039585216L236.51688715277777,37.30689070946545L236.85008940972222,37.25529513996497L237.43425677083334,37.55621279826468L237.84260677083333,37.59453125038738L237.85253194444445,37.838772321661L238.51184704861112,37.82728125013949L238.5685623263889,37.78877946436941L239.31578611111112,38.050142678621626L239.35548680555556,37.906692750030146L240.24166302083333,37.09365850716094L240.38912274305557,36.41619510429658L240.48553871527776,37.163377776863655L240.72374288194445,37.184990951832475L240.79321909722222,37.40340528538519L241.02433385416668,37.73990031408826L241.40716197916666,37.46769018845299L241.96722534722224,37.841685541643244L242.34438194444445,37.923850610700214L242.54572118055555,37.94154250927727L242.61094375,37.73090764842351L242.8661625,38.25247316048268L243.41771857638886,38.391573182003896L243.63465451388888,38.870122480630926L244.2599404513889,38.351269916949974L244.3563564236111,38.08736909302715L244.84268993055557,37.77099288438771L245.4240215277778,37.691792159204056L245.54170572916667,38.07096815266527L245.5941673611111,38.39329517731346L245.76714895833334,38.27061996353095L246.11453003472224,38.655318406689986L246.21661753472222,38.443637472585436L246.33713749999998,38.64850391212269L246.7128762152778,38.42374520441646L247.1765236111111,38.98424712264989L247.21622430555556,39.130905416447064L247.4048026041667,38.871221821296814L247.61181336805555,38.6363938070638L247.72382604166668,38.795764855666846L247.86703211805556,39.36549462768582L247.93650833333334,39.106796776611475L247.9421798611111,38.87256020882407L247.95210503472222,38.463357553865876L247.96628385416668,37.83855024660522L247.97479114583334,37.621701576534576L247.98046267361113,37.5231995173493L247.98471631944446,37.859187567552425L247.99605937500002,37.997566111960055L247.99889513888888,37.969968238604594L248.01732760416667,38.000820228877046L248.02299913194446,38.06674213732623L248.02441701388886,38.05888456811002L248.05135677083334,37.5010450265803L248.05277465277777,37.34018058737675L248.05702829861113,37.24366192385463L248.06695347222222,37.56503644002706L248.06978923611112,37.710450435444784L248.08113229166665,37.655466689838335L248.08396805555557,37.46444072818872L248.08538593749998,37.85553943691323L248.1038184027778,38.18502009071935L248.10665416666666,38.714583483003054L248.10807204861112,38.57401794694468L248.1208329861111,37.87333933959536L248.12508663194444,37.59516431804295L248.1279223958333,37.80754501939717L248.14068333333333,37.555687725924L248.1449369791667,37.6574304926973L248.14777274305555,37.71847615276121L248.15060850694445,37.40742497737102L248.16762309027777,37.88454427213691L248.19172708333335,37.98117299185358L248.19881649305555,37.77048950939786L248.2129953125,37.91274013421014L248.22150260416666,37.47657265195468L248.23142777777778,37.72058644831566L248.23993506944447,38.0092268689894L248.24277083333334,37.961161121393644L248.24844236111113,38.31160738712188L248.25836753472223,38.427053717987434L248.25978541666666,37.974803659363886L248.26120329861112,37.893096481332606L248.27538211805555,37.48059003165673L248.29806822916666,37.327907590422626L248.3051576388889,37.47335169711073L248.3122470486111,37.51320744683784L248.31933645833334,37.394888753817014L248.32075434027777,36.5969332522902L248.32359010416667,36.98735637994557L248.32784375,37.20580668511019L248.34202256944445,37.38428758249469L248.34769409722225,37.91807254949683L248.34911197916665,37.49557567255525L248.3576192708333,37.115648974961715L248.3632907986111,37.18796081354844L248.36470868055557,37.56322291670048L248.37605173611112,37.780478392877455L248.38030538194445,38.1399834642979L248.3817232638889,37.834168650007314L248.38455902777778,37.46103690429007L248.3888126736111,37.458407856859765L248.39023055555558,37.962544714115865L248.39164843749998,37.91734825704094L248.39306631944444,38.42755181136744L248.39873784722224,37.24813822967761L248.4015736111111,37.39388293780658L248.40582725694443,37.149454762683916L248.4072451388889,37.05020857189609L248.40866302083336,37.73342871456623L248.41008090277776,38.19077151445401L248.4129166666667,38.13330219438669L248.41717031250002,38.17783845948915L248.41858819444442,38.34679236140781L248.4270954861111,37.5473611311304L248.43560277777777,37.6524345358211L248.43843854166667,38.758514292921234L248.4426921875,38.15787643289559L248.45970677083335,38.224190145451644L248.47104982638888,38.18496051584245L248.47246770833334,38.05079773807691L248.47388559027777,38.61824649998903L248.48239288194443,38.595233614279124L248.49231805555556,38.54981873999603L248.49940746527778,38.83864124399764L248.50933263888888,38.25336331782714L248.51500416666667,38.43951799069629L248.52776510416666,38.51960365156063L248.53627239583332,37.7616729052221L248.53910815972222,37.95486088599043L248.54336180555555,37.62827367445138L248.55328697916667,37.27428563324227L248.56179427083333,37.773053522802485L248.56604791666666,37.993296399395774L248.56888368055553,38.37829926820888L248.5703015625,38.340640275211086L248.58306249999998,38.09679487941233L248.59724131944444,37.745041213361674L248.5986592013889,38.15032829944562L248.61000225694445,38.07742912252448L248.62701684027778,37.60699318780041L248.6312704861111,37.498570912680236L248.63552413194444,37.38610683332243L248.65395659722222,37.47666409999343L248.66529965277778,37.84706988856749L248.67664270833333,37.990295504569104L248.67806059027777,37.791766588455744L248.6823142361111,37.483006381644856L248.68515000000002,37.47158954327264L248.68656788194443,38.28652515453504L248.70641822916667,37.653432949863884L248.71492552083333,37.953131198489785L248.71776128472223,37.816878719093864L248.73902951388888,38.25664508859916L248.7489546875,38.315058481730944L248.75320833333333,38.52394580332427" style="fill: none;" fill="none"></path></g></g></g></g><g opacity="0.2"><g><g><g><path stroke="rgb(255, 112, 67)" stroke-width="2px" d="M28.69225902777778,149.2829669216701L28.912030729166666,149.23086741583688L28.97725329861111,149.60714293752397L29.453661631944446,149.59209173338755L29.601121354166665,149.44729069028583L29.690447916666667,149.9442857142857L29.70037309027778,149.81785714285715L29.840743402777775,149.4807143660954L29.884697743055554,149.36632656506129L30.33841996527778,150.17908158097947L30.389463715277778,149.48914280891418L30.62625,149.69142857142856L30.77938125,149.41147969518389L30.91266215277778,149.534482825143L31.172134548611112,149.27602030481611L31.208999479166664,149.6203125L31.269968402777778,149.565L31.654214409722222,149.4966042668479L31.83995694444444,149.77571432590486L32.28942552083333,149.47119812556676L32.677925173611115,149.35428579466685L32.734640451388884,149.3692395768847L32.751655034722226,149.2672810282026L33.01538107638889,149.18571428571428L33.06075329861111,149.5935484804426L33.55134045138889,149.06336417198182L33.663353125,149.18571428571428L33.67327829861111,149.30424107142858L33.676114062500005,149.22649765695843L33.73850086805555,149.77571432590486L33.924243402777776,148.9002304458618L34.38080138888889,148.21642865180968L34.42333784722223,148.71160714285713L34.51124652777778,148.94101381710598L34.67430295138889,148.6720982142857L34.81750902777778,148.6555299772535L35.02168402777777,148.11897321428572L35.285410069444445,148.15848214285714L35.50659965277778,147.32879464285713L35.57891163194444,147.48683035714285L35.70935677083333,148.0794642857143L35.91636753472223,146.18303571428572L36.134721354166665,145.94598214285713L36.19285451388889,145.82745535714287L36.574264756944444,144.44464285714287L36.62530850694444,143.61495535714286L36.689113194444445,143.5359375L36.95851076388889,143.18035714285713L37.10738836805555,142.5482142857143L37.12298506944445,143.06183035714287L37.29738454861111,142.19263392857144L37.31156336805555,142.3111607142857L37.46753038194444,142.19263392857144L37.51715625,141.9950892857143L37.86737309027777,139.74308035714284L38.10983090277777,137.8466517857143L38.45862986111111,137.64910714285713L38.6018359375,136.85892857142858L38.814518229166666,135.75267857142856L38.92511302083333,135.00200892857143L38.976156770833335,135.87120535714286L39.97718142361111,129.90535714285716L39.99419600694444,131.40669642857142L40.02964305555556,130.5375L40.130312673611115,130.37946428571428L40.56560243055556,128.91763392857143L40.575527604166666,127.53482142857143L40.63933229166667,127.771875L40.68186875,127.13973214285714L40.80522447916666,127.49531250000001L40.979623958333335,125.9544642857143L41.03208559027778,126.23102678571428L41.04768229166667,126.70513392857143L41.51558333333333,123.70245535714285L41.819010069444445,121.96406250000001L41.8686359375,122.83325892857144L42.424445659722224,119.90959821428572L42.574741145833336,118.13169642857143L42.60451666666666,118.921875L42.666903472222224,117.4205357142857L42.909361284722216,116.63035714285715L43.07667135416667,114.33883928571427L43.157490625,115.99821428571428L43.336143750000005,114.69441964285714L43.53039357638889,114.41785714285714L43.63815260416666,114.25982142857143L43.85792430555556,111.61272321428572L44.04933836805555,112.24486607142858L44.37403333333334,110.625L44.45343472222222,108.33348214285714L44.599476562499994,112.0078125L44.65619184027778,110.625L44.664699131944445,108.47176339285714L44.73275746527778,110.15089285714286L44.749772048611106,108.965625L44.76962239583333,108.61004464285715L45.01066232638889,109.00513392857142L45.0205875,108.37299107142857L45.38781892361111,107.14821428571429L45.638784027777774,107.0296875L45.72527482638889,105.9234375L45.77206493055556,106.91116071428571L45.89258489583334,104.42209821428571L45.93795711805556,105.80491071428571L46.44414097222222,105.60736607142857L46.73480677083334,102.96026785714285L46.75323923611111,101.02433035714286L46.83973003472222,104.14553571428571L46.858162500000006,102.88125L46.866669791666666,102.40714285714286L46.8964453125,102.0515625L47.36576423611111,102.17008928571428L47.45509079861111,103.31584821428572L47.599714756944444,101.221875L47.68195190972222,100.8267857142857L47.88896267361111,99.99709821428571L47.96269253472222,100.23415178571429L48.00948263888889,99.009375L48.105898611111115,100.66875L48.190971527777776,99.60200892857144L48.61350034722222,99.08839285714286L48.823346875,96.87589285714286L48.96229930555556,96.59933035714285L49.16222065972222,96.9154017857143L49.26572604166667,97.86361607142857L49.35079895833333,97.0734375L49.35221684027778,98.77232142857143L49.42594670138889,96.83638392857144L49.68967274305555,94.97946428571429L49.97750277777778,95.73013392857143L50.04130746527778,93.95223214285714L50.09376909722222,94.07075892857144L50.1887671875,94.66339285714285L50.36458454861111,93.83370535714285L50.478015104166666,94.03125L50.480850868055555,92.56941964285714L50.57301319444444,93.478125L50.97852743055556,93.28058035714285L51.17419513888889,89.64575892857142L51.284789930555554,91.73973214285714L51.29896875,93.32008928571429L51.37837013888889,91.75948660714285L51.399638368055555,91.62120535714286L51.62224583333334,92.41138392857142L51.68463263888889,93.79419642857142L51.732840624999994,91.85825892857143L51.74701944444444,92.88549107142858L51.79380954861111,92.0953125L51.92850833333333,92.925L51.96820902777778,91.70022321428571L52.124176041666665,91.18660714285714L52.13835486111111,91.10758928571428L52.19790590277778,91.34464285714286L52.50558628472223,92.17433035714286L52.66013541666667,90.4359375L52.69841822916666,90.47544642857143L52.69983611111111,91.93727678571429L52.804759375,89.96183035714286L53.398851909722225,89.84330357142856L53.681010416666666,90.59397321428571L53.75615815972222,90.67299107142857L53.95607951388889,87.94687499999999L54.693378124999995,87.47276785714286L54.803972916666666,88.73705357142858L55.05635590277778,87.82834821428573L55.18821892361111,87.86785714285715L55.30873888888889,86.68258928571429L55.33000711805556,87.86785714285715L55.56395763888889,85.14174107142857L55.888652604166666,88.85558035714286L56.05454479166667,85.89241071428572L56.41894045138889,85.49732142857142L56.49975972222222,86.76160714285714L56.63020486111111,82.61316964285714L56.72945659722222,84.74665178571429L56.807440104166666,83.71941964285715L56.90243819444444,83.40334821428571L57.2328046875,84.27254464285713L57.249819270833335,85.10223214285715L57.26825173611111,85.26026785714286L57.84107604166667,86.05044642857143L57.87652309027777,83.44285714285714L58.059429861111106,84.43058035714287L58.25084392361111,83.87745535714286L58.42807916666666,85.33928571428571L58.43233281249999,84.25279017857143L58.937098784722224,82.17857142857143L58.96971006944444,84.3515625L59.083140625000006,84.11450892857142L59.16112413194444,83.75892857142857L59.179556597222216,83.28482142857143L59.334105729166666,84.19352678571428L59.373806423611114,83.95647321428571L59.40783559027778,83.56138392857143L59.4532078125,84.39107142857142L59.738202083333334,83.36383928571429L59.950884375,80.79575892857143L60.143716319444444,84.90468750000001L60.25005746527778,82.45513392857144L60.27132569444445,82.13906250000001L60.550648437499994,82.06004464285714L60.59034913194445,80.71674107142856L60.83847847222222,83.12678571428572L60.927805034722226,81.78348214285714L61.20712777777778,81.03281249999999L61.59420954861111,80.44017857142858L61.774280555555556,80.59821428571429L62.00964895833333,81.62544642857142L62.36695520833334,80.75625000000001L62.576801736111115,81.74397321428572L62.72284357638889,82.13906250000001L62.88731788194444,79.76852678571429L62.944033159722224,80.83526785714285L62.989405381944444,80.36116071428572L63.221938020833335,81.26986607142857L63.229027430555554,79.64999999999999L63.2559671875,80.51919642857143L63.501260763888894,79.88705357142857L63.82170208333333,78.66227678571428L64.034384375,80.67723214285714L64.08826388888889,80.79575892857143L64.12087517361111,79.61049107142857L64.46116684027777,79.25491071428571L64.5859404513889,79.17589285714286L65.21689791666667,78.22767857142857L65.26652378472222,78.26718749999999L66.11583506944444,77.75357142857143L66.1243423611111,77.39799107142858L66.33986041666667,77.4375L66.3540392361111,76.44977678571429L66.3923220486111,77.3189732142857L67.18633593749999,76.88437499999999L67.43730104166666,75.62008928571429L67.60602899305555,74.90892857142858L67.61878993055555,74.98794642857143L67.72654895833332,74.9484375L67.82154704861112,76.25223214285714L68.20295729166666,76.56830357142856L68.29086597222224,77.35848214285713L69.1132375,76.92388392857144L69.17987795138889,76.80535714285715L69.44927552083334,74.671875L69.85478975694444,75.9361607142857L69.98948854166666,73.60513392857143L70.18657413194444,73.84218750000001L70.27590069444445,73.09151785714286L70.37373454861111,74.35580357142857L71.18759878472223,72.53839285714285L71.47401093750001,72.30133928571429L71.60587395833333,71.31361607142857L71.68385746527778,71.98526785714287L71.70087204861112,72.1828125L72.01138819444444,72.65691964285715L72.62533107638889,70.08883928571429L72.82241666666667,71.66919642857142L72.89047500000001,70.72098214285714L73.00674131944444,70.44441964285713L73.09039635416666,69.49620535714286L73.18964809027777,69.93080357142857L73.31867534722223,69.81227678571427L73.60366961805556,68.66651785714286L73.70859288194444,68.35044642857143L73.75963663194445,67.71830357142858L74.53096440972222,69.29866071428572L75.24841267361111,67.16517857142857L75.82407274305555,65.94040178571429L76.03817291666667,66.17745535714286L76.0452623263889,70.48392857142858L76.080709375,65.94040178571429L76.22816909722222,66.57254464285714L77.13844930555555,66.13794642857142L77.30717725694444,66.53303571428572L77.53120260416667,66.69107142857143L77.70701996527777,64.51808035714286L77.8800015625,64.04397321428571L77.92253802083334,66.01941964285714L78.0331328125,66.61205357142858L78.16357795138889,63.135267857142864L78.42305034722222,63.09575892857144L79.70623350694444,63.609375L79.71048715277777,61.43638392857143L80.24644652777778,60.488169642857144L80.81218142361112,61.1203125L80.84621059027778,64.28102678571427L80.94546232638889,61.1203125L80.99934184027778,61.59441964285715L81.01352065972222,61.15982142857143L81.22620295138888,60.01406250000001L81.63738871527778,61.43638392857143L82.52498281250001,58.86830357142857L82.563265625,59.223883928571425L82.59020538194444,59.105357142857144L83.7656295138889,58.47321428571429L83.95846145833333,57.841071428571425L83.95987934027778,58.23616071428572L83.99390850694444,57.604017857142864L84.15412916666666,59.38191964285713L84.44195920138888,57.959598214285705L84.49300295138889,58.078125L85.40186527777777,58.90781249999999L85.51671371527777,58.512723214285714L85.5464892361111,56.89285714285714L85.59753298611112,57.722544642857144L85.83715503472223,57.959598214285705L86.46385885416666,55.94464285714285L86.53049930555555,57.09040178571429L86.78571805555555,55.193973214285705L87.05227986111112,55.27299107142858L87.3869,56.10267857142857L87.39540729166666,54.838392857142864L87.51025572916666,55.35200892857142L88.07740850694445,55.0359375L88.14121319444445,58.39419642857143L88.2319576388889,56.89285714285714L88.3694921875,55.5890625L88.53113072916666,58.47321428571429L88.7551560763889,57.169419642857136L88.99761388888889,58.196651785714295L89.46551493055556,54.44330357142856L89.632825,57.32745535714285L89.90931197916667,55.82611607142856L89.94617690972223,55.82611607142856L90.29639375000001,55.529799107142864L90.31057256944445,54.75937499999999L90.62392447916666,53.77165178571428L90.85503923611111,55.47053571428572L90.88623263888888,56.37924107142857L90.99824531249999,55.5890625L91.087571875,54.32477678571429L91.23077795138889,53.811160714285705L91.41510260416668,56.10267857142857L91.47465364583333,54.877901785714286L91.94822621527777,55.51004464285714L91.99218055555556,56.18169642857144L92.5295578125,54.956919642857144L92.72238975694444,53.495089285714286L92.78903020833333,54.048214285714295L92.86843159722223,54.56183035714285L92.94357934027778,54.44330357142856L92.9917873263889,55.5890625L93.5249109375,54.048214285714295L93.59722291666667,53.73214285714286L93.6114017361111,53.9296875L93.94176822916667,54.91741071428571L94.39407256944445,53.495089285714286L94.76413975694445,54.364285714285714L95.33129253472222,52.072767857142864L95.70844913194443,50.96651785714286L95.74106041666666,52.15178571428571L96.06150173611111,53.811160714285705L96.35500329861111,52.191294642857144L97.01290052083333,51.638169642857136L97.18304635416666,50.136830357142856L97.49639826388889,47.371205357142856L97.59565,48.67500000000001L97.76296006944445,51.1640625L98.21384652777778,47.845312500000006L98.21526440972222,48.516964285714295L98.6264501736111,47.68727678571429L98.81361059027778,50.65044642857144L98.95539878472222,50.33437500000001L99.54523767361111,50.09732142857143L99.7394875,47.015625L99.79903854166668,47.05513392857142L100.07694340277777,47.88482142857143L100.1251513888889,46.34397321428571L100.13649444444445,46.50200892857143L101.08931111111112,46.185937499999994L102.01518802083334,46.462500000000006L102.37391215277778,46.85758928571428L102.78368003472222,47.45022321428573L103.06300277777778,48.63549107142859L103.35083281249999,48.20089285714286L103.48694947916665,46.422991071428555L103.67410989583334,44.40803571428572L103.84283784722223,45.514285714285705L104.01298368055555,44.76361607142857L104.15193611111111,42.511607142857144L104.33767864583334,43.459821428571445L104.409990625,43.222767857142856L104.52767482638889,44.56607142857143L105.2167654513889,44.842633928571445L105.2904953125,44.40803571428572L105.78817187499999,42.985714285714295L106.06182309027778,44.32901785714287L106.08450920138888,44.21049107142858L106.78777864583333,43.34129464285715L107.05292256944445,42.55111607142857L107.13941336805556,47.29218750000001L107.45134739583332,42.077008928571445L107.4626904513889,41.44486607142858L107.64417934027777,44.52656250000001L107.68529791666667,42.94620535714287L107.81857881944444,41.40535714285713L108.15036319444444,43.854910714285694L108.20566059027777,42.11651785714287L108.56296684027778,42.90669642857142L108.65796493055555,44.01294642857141L108.87631875,43.06473214285714L108.94437708333334,44.44754464285714L109.13862690972222,43.73638392857143L109.26056475694445,42.985714285714295L110.1297263888889,42.11651785714287L110.38919878472223,46.462500000000006L110.80747395833333,45.988392857142856L110.85568194444444,43.459821428571445L110.9024720486111,42.01774553571428L110.97903767361112,45.86986607142859L111.02724565972223,42.66964285714286L111.16761597222222,42.70915178571428L111.26544982638889,44.72410714285715L111.61424878472222,45.6328125L111.74469392361111,41.839955357142856L111.95737621527778,43.18325892857143L112.00133055555555,43.14375000000001L112.56990121527777,41.24732142857141L112.62661649305555,44.40803571428572L112.72303246527778,43.14375000000001L112.94563993055556,44.368526785714295L113.04205590277778,43.53883928571429L113.55107552083334,43.38080357142857L113.55816493055555,43.459821428571445L113.58935833333334,43.53883928571429L114.20046545138888,44.44754464285714L114.20897274305555,43.06473214285714L114.41881927083332,48.31941964285713L114.58471145833333,42.472098214285694L114.64142673611111,44.842633928571445L114.77045399305555,42.314062500000006L114.8711236111111,44.17098214285713L114.87537725694445,45.237723214285694L115.19298281249999,42.82767857142858L115.3971578125,42.274553571428555L115.40991875,41.879464285714306L115.84520850694445,49.5046875L115.88349131944445,44.21049107142858L115.99266822916667,60.132589285714275L116.1117703125,74.86941964285714L116.13162065972222,73.80267857142856L116.54280642361111,112.0078125L116.94832065972223,74.98794642857143L117.03764722222222,114.45736607142857L117.10003402777778,89.84330357142856L117.24891163194445,106.83214285714286L117.36234218749999,104.69866071428572L117.55233836805554,101.0638392857143L117.75934913194445,99.99709821428571L118.217325,85.22075892857144L118.83126788194444,89.84330357142856L118.97589184027777,85.29977678571429L119.05245746527778,85.02321428571427L119.17014166666667,88.26294642857142L119.18006684027777,80.99330357142857L119.24103576388889,88.42098214285713L119.61819236111111,84.94419642857143L119.65080364583334,91.02857142857142L119.70893680555555,85.49732142857142L119.94288732638888,87.31473214285714L119.97124496527778,86.08995535714286L120.09601857638889,85.18124999999999L120.21795642361111,85.02321428571427L120.42922083333333,84.74665178571429L121.0275670138889,85.06272321428573L121.2771142361111,83.64040178571427L121.33808315972222,83.91696428571429L121.75494045138889,81.7044642857143L121.93926510416667,82.75145089285714L121.98463732638889,81.7044642857143L122.02292013888889,82.13906250000001L122.2086626736111,81.23035714285714L122.41709131944444,78.03013392857143L122.4440310763889,77.47700892857142L122.50641788194444,76.96339285714286L122.88499236111112,77.20044642857142L122.8906638888889,75.14598214285714L122.92752881944445,76.68683035714285L122.989915625,75.65959821428571L123.68042413194445,76.33125L123.69034930555556,77.3189732142857L123.78534739583333,77.51651785714287L123.80945138888889,76.64732142857143L124.17951857638889,75.58058035714286L124.4673486111111,75.85714285714286L125.32233142361112,74.51383928571428L125.82426163194444,74.3953125L126.12910624999999,74.7904017857143L126.36731041666665,74.82991071428572L126.49208402777778,73.84218750000001L126.67640868055555,74.671875L126.74021336805556,74.3953125L126.92312013888889,72.97299107142857L127.18259253472222,73.1705357142857L127.94966666666666,68.74553571428571L127.95250243055557,69.77276785714285L128.3339126736111,67.59977678571428L128.47144722222222,68.42946428571427L128.93225885416666,69.69375000000001L128.96912378472223,67.59977678571428L129.25553593749999,68.54799107142857L129.43135329861113,65.38727678571429L129.61709583333334,67.59977678571428L130.1672340277778,66.05892857142857L130.74998350694446,64.47857142857144L130.7769232638889,65.90089285714286L131.2434064236111,64.20200892857143L131.27885347222224,62.661160714285714L131.33698663194443,63.3328125L131.361090625,64.69587053571429L131.40079131944444,63.3328125L132.16361180555555,62.42410714285714L132.29405694444443,62.30558035714287L132.59464791666664,60.76473214285713L132.84844878472222,63.41183035714286L132.92643229166669,61.39687500000001L133.1008317708333,62.108035714285705L133.20717291666668,57.8015625L133.51910694444445,58.196651785714295L133.7658184027778,59.85602678571429L134.1146173611111,57.050892857142856L134.13446770833332,59.697991071428575L134.23371944444443,61.080803571428575L134.77676822916666,59.30290178571428L134.86751267361112,56.06316964285715L134.98661475694445,58.078125L135.240415625,57.24843750000001L135.36944288194445,55.27299107142858L135.86995520833332,54.12723214285714L135.88413402777778,54.838392857142864L135.88696979166667,55.431026785714295L136.11241302083334,55.27299107142858L136.54344913194444,55.747098214285714L136.67105850694443,53.692633928571425L136.85112951388888,51.08504464285713L136.85963680555554,55.786607142857136L136.9787388888889,51.835714285714275L137.43671475694444,50.84799107142857L137.5529810763889,50.136830357142856L138.098865625,49.662723214285705L138.3285625,49.109598214285725L138.33706979166666,49.58370535714286L138.52706597222223,50.018303571428575L138.56960243055556,50.235602678571425L138.81206024305556,48.83303571428573L138.97937031249998,49.62321428571428L139.11548697916666,48.67500000000001L139.3976454861111,49.14910714285715L140.44546024305555,47.568749999999994L140.56172656249998,47.134151785714295L140.6127703125,47.17366071428572L140.98709114583335,45.277232142857144L141.3202934027778,45.67232142857142L142.1596795138889,45.6328125L142.2901246527778,42.43258928571427L142.32415381944446,44.68459821428573L143.54636805555555,42.43258928571427L144.07240225694446,41.365848214285705L144.07807378472222,43.77589285714285L144.09508836805554,40.57566964285715L144.17874340277777,43.38080357142857L144.9046989583333,41.80044642857143L144.9160420138889,43.61785714285713L144.92454930555556,41.20781249999999L144.95857847222223,42.11651785714287L145.1967826388889,40.97075892857143L145.23648333333335,41.44486607142858L145.6944592013889,42.314062500000006L146.85995815972223,40.41763392857143L147.00032847222224,40.220089285714295L147.0698046875,41.089285714285694L147.49516927083332,40.97075892857143L147.87516163194442,39.271874999999994L147.94463784722222,42.274553571428555L149.00521354166665,38.91629464285714L149.073271875,40.53616071428573L149.1980454861111,38.40267857142857L149.23774618055555,39.94352678571428L149.25617864583333,41.95848214285715L149.40930989583333,38.79776785714287L150.5336902777778,38.28415178571427L150.68256788194444,39.58794642857143L150.88107135416666,39.46941964285713L151.10793246527777,38.600223214285705L151.6637421875,37.96808035714287L151.67224947916668,37.3359375L151.85940989583332,39.90401785714286L151.9288861111111,39.508928571428555L152.11604652777777,40.25959821428572L152.41663749999998,38.63973214285713L152.53999322916667,39.706473214285694L152.87461336805558,38.323660714285694L153.25318784722222,37.454464285714295L153.28296336805556,36.70379464285713L153.4346767361111,38.48169642857141L153.89832413194443,39.90401785714286L154.08406666666667,39.42991071428571L154.18757204861112,37.65200892857143L154.21167604166666,38.48169642857141L154.30667413194442,38.837276785714295L155.2651623263889,38.79776785714287L155.68201961805553,37.53348214285714L155.89470190972222,35.360491071428555L157.32250902777778,36.66428571428571L157.54086284722223,34.72834821428572L157.546534375,36.782812500000006L157.57205624999997,35.99263392857142L158.17890972222222,36.82232142857143L158.67800416666668,35.43950892857143L159.11754756944444,34.451785714285705L159.282021875,35.24196428571429L159.3174689236111,38.600223214285705L159.32739409722222,37.09888392857141L159.38978090277777,35.79508928571428L159.59253802083333,32.95044642857141L159.7541765625,32.95044642857141L159.81939913194444,33.46406250000001L159.94133697916666,32.67388392857143L160.4787142361111,33.91841517857142L160.81475225694444,34.5703125L161.04303125,33.50357142857143L161.28832482638887,32.27879464285715L161.3365328125,32.98995535714286L161.38899444444445,32.51584821428571L161.39466597222224,32.00223214285714L161.8568954861111,32.31830357142857L162.9982904513889,32.12075892857143L163.0876170138889,35.28147321428571L163.1173925347222,31.33058035714285L163.22940520833333,31.52812499999999L163.28044895833335,31.212053571428555L163.9213315972222,30.303348214285705L164.03476215277777,31.09352678571429L165.02869739583332,31.923214285714295L165.14354583333335,32.831919642857144L166.2055394097222,31.646651785714283L167.0888798611111,30.382366071428578L167.18529583333333,31.488616071428567L167.55110937499998,30.89598214285715L167.70849427083334,30.026785714285694L167.88289375000002,31.449107142857144L167.96938454861112,29.631696428571445L168.1097548611111,30.974999999999994L168.39758489583335,29.51316964285715L168.42594253472222,31.844196428571422L168.520940625,30.14531249999999L169.46950364583333,30.14531249999999L170.00829878472223,29.829241071428555L170.0749392361111,27.537723214285705L170.61231649305554,28.525446428571428L170.67328541666666,27.37968749999999L171.01641284722223,28.683482142857144L171.3099144097222,28.248883928571445L172.8213765625,27.18214285714285L172.96316475694445,27.85379464285714L173.4948704861111,29.078571428571422L173.56009305555557,26.194419642857127L173.57568975694443,29.27611607142859L173.9117277777778,27.65625L173.92590659722222,26.51049107142859L174.29030225694444,27.024107142857133L174.32858506944444,27.814285714285717L175.00207899305556,27.577232142857127L175.36789253472222,27.65625L175.9194486111111,26.826562499999994L176.01870034722222,27.695758928571422L176.12645937500002,27.103125000000006L176.36891718750002,27.41919642857141L176.5631670138889,28.011830357142856L177.3926279513889,24.969642857142873L177.40822465277776,25.60178571428571L177.42665711805554,26.352455357142873L177.87612569444445,24.258482142857133L178.2419392361111,27.142633928571428L178.59357395833334,24.772098214285705L178.65454288194445,25.79933035714285L178.66446805555557,26.905580357142867L178.9721484375,25.56227678571429L179.49109322916667,26.98459821428571L179.82145972222222,26.787053571428572L180.07384270833333,26.115401785714283L180.55308680555555,27.89330357142859L180.76435121527777,24.969642857142873L180.7912909722222,24.21897321428571L181.3400112847222,24.337500000000006L181.4903067708333,25.12767857142859L181.5909763888889,26.03638392857141L181.73418246527777,24.69308035714286L181.79373350694445,26.787053571428572L181.89582100694446,25.957366071428567L182.0829814236111,25.12767857142859L183.03579809027778,26.07589285714286L183.49660972222225,27.300669642857144L183.61429392361111,25.285714285714306L184.7500173611111,26.905580357142867L185.03784739583332,25.838839285714272L185.17538194444444,25.404241071428572L185.52701666666667,25.878348214285694L185.65320815972223,26.47098214285714L185.9140984375,26.905580357142867L186.22319670138887,28.485937500000006L186.60177118055557,24.969642857142873L186.66132222222222,27.972321428571433L187.15049149305557,25.838839285714272L187.40571024305555,25.759821428571428L187.72756944444444,25.285714285714306L187.85234305555554,26.03638392857141L188.38830243055557,28.604464285714272L189.0759751736111,28.32790178571429L189.19507725694444,27.577232142857127L189.54104045138888,27.221651785714272L189.7579763888889,27.063616071428555L189.9522262152778,29.829241071428555L190.05431371527777,27.814285714285717L190.50945381944445,27.142633928571428L191.22406631944443,27.774776785714295L191.35025781250002,28.84151785714286L191.3814512152778,27.695758928571422L191.84651649305556,29.75022321428571L191.9060675347222,26.826562499999994L192.11024253472223,29.631696428571445L192.37255069444444,27.498214285714283L192.6291873263889,27.45870535714286L192.71284236111111,28.525446428571428L192.97515052083332,27.972321428571433L193.84998368055557,31.09352678571429L194.06550173611112,29.592187499999994L194.46109079861114,28.525446428571428L194.69787708333334,28.446428571428555L194.75175659722223,28.76249999999999L195.12324166666664,30.105803571428567L195.2196576388889,30.69843750000001L196.19232465277778,30.737946428571433L196.4220215277778,29.987276785714272L196.51134809027778,30.22433035714286L196.52836267361113,31.09352678571429L196.59925677083334,30.421875L196.79634236111113,30.777455357142856L197.43580711805555,29.987276785714272L197.93348368055555,28.485937500000006L198.05400364583335,30.026785714285694L198.51481527777776,31.13303571428571L198.5701126736111,32.04174107142859L198.90047916666666,32.357812499999994L199.5527048611111,34.49129464285713L200.83305225694443,30.61941964285714L200.98334774305556,31.291071428571428L201.21020885416667,31.883705357142873L201.43990572916667,31.646651785714283L202.55577881944444,31.449107142857144L202.720253125,32.31830357142857L202.82234062499998,33.10848214285713L203.03076927083333,34.09620535714285L203.1441998263889,32.08125000000001L203.4447907986111,32.12075892857143L203.55396770833332,29.987276785714272L203.85455868055556,29.868750000000006L204.17783576388888,31.054017857142867L204.57909635416667,32.23928571428573L204.5961109375,31.765178571428578L204.86550850694445,31.409598214285694L205.37594600694445,31.13303571428571L205.71907343750001,33.068973214285705L205.79280329861112,32.43683035714287L205.97287430555556,32.71339285714285L206.71300868055556,30.89598214285715L206.86613993055553,32.04174107142859L206.97106319444444,30.066294642857144L207.68000416666666,34.13571428571427L207.9876845486111,60.97119716099331L208.3761842013889,63.253794642857144L208.57185190972223,61.15982142857143L208.95893368055556,57.01138392857143L209.04400659722222,58.11763392857142L209.15034774305556,46.77857142857141L210.20525190972222,31.52812499999999L210.5398720486111,28.76249999999999L211.0432201388889,29.829241071428555L211.3267965277778,29.118080357142873L211.83014461805556,56.339732142857144L212.28953836805553,51.95424107142857L212.40438680555556,46.14642857142857L216.10505868055554,33.977678571428555L216.1064765625,33.582589285714306L216.22841440972223,33.89866071428571L216.399978125,35.558035714285694L216.43258940972223,35.20245535714287L216.5488557291667,33.62209821428573L216.91183350694445,33.1875L218.09292916666666,33.543080357142856L218.42045989583335,35.63705357142857L218.4261314236111,33.85915178571429L218.56791961805556,34.214732142857144L219.40446996527777,34.05669642857143L219.9191611111111,35.08392857142857L220.16020104166668,34.29374999999999L220.2892282986111,34.80736607142859L221.3483861111111,35.71607142857141L221.60785850694444,33.89866071428571L222.03180520833334,36.071651785714295L222.12822118055556,34.925892857142856L222.39052934027777,34.80736607142859L222.58477916666666,35.71607142857141L222.8981310763889,34.64933035714287L223.0044722222222,34.09620535714285L223.18312534722222,33.81964285714287L223.62975815972223,34.33325892857141L223.77721788194444,33.977678571428555L224.51735225694443,33.582589285714306L224.56839600694445,33.26651785714287L224.67473715277777,33.977678571428555L224.92286649305558,33.81964285714287L225.01219305555557,34.41227678571428L225.0972659722222,33.543080357142856L225.10151961805556,34.688839285714295L225.11144479166666,34.05669642857143L225.1823388888889,33.66160714285715L225.3354701388889,33.34553571428572L227.0071529513889,34.5703125L227.03551059027777,34.80736607142859L227.49490434027777,35.51852678571427L228.11593663194444,36.071651785714295L228.26906788194444,35.20245535714287L228.3243652777778,35.87410714285713L228.89860746527776,36.38772321428573L229.07867847222224,35.597544642857144L229.29986805555558,35.67656249999999L231.12184635416665,36.58526785714287L231.53445,36.22968750000001L232.04772326388888,35.953125L232.36249305555555,36.70379464285713L232.7467390625,37.17790178571428L232.9282279513889,37.65200892857143L233.63291527777778,36.62477678571429L233.69955572916666,35.834598214285705L233.95477447916664,36.940848214285694L234.04268315972223,35.79508928571428L234.10790572916667,36.19017857142859L234.1504421875,35.400000000000006L234.15327795138887,36.348214285714306L234.19014288194444,36.743303571428555L234.23409722222223,38.126116071428555L234.9969177083333,37.41495535714287L235.70585868055554,35.400000000000006L236.03906093749998,38.44218749999999L236.12413385416667,36.82232142857143L236.34390555555555,36.86183035714285L236.51688715277777,37.77053571428573L236.85008940972222,37.17790178571428L237.43425677083334,38.00758928571429L237.84260677083333,37.65200892857143L237.85253194444445,38.20513392857143L238.51184704861112,37.81004464285715L238.5685623263889,37.731026785714306L239.31578611111112,38.44218749999999L239.35548680555556,37.691517857142856L240.24166302083333,35.87410714285713L240.38912274305557,35.400000000000006L240.48553871527776,38.28415178571427L240.72374288194445,37.217410714285705L240.79321909722222,37.731026785714306L241.02433385416668,38.24464285714285L241.40716197916666,37.05937499999999L241.96722534722224,38.40267857142857L242.34438194444445,38.04709821428571L242.54572118055555,37.96808035714287L242.61094375,37.41495535714287L242.8661625,39.03482142857143L243.41771857638886,38.600223214285705L243.63465451388888,39.58794642857143L244.2599404513889,37.57299107142859L244.3563564236111,37.691517857142856L244.84268993055557,37.29642857142858L245.4240215277778,37.57299107142859L245.54170572916667,38.63973214285713L245.5941673611111,38.87678571428572L245.76714895833334,38.08660714285713L246.11453003472224,39.23236607142857L246.21661753472222,38.126116071428555L246.33713749999998,38.95580357142859L246.7128762152778,38.08660714285713L247.1765236111111,39.82499999999999L247.21622430555556,39.35089285714287L247.4048026041667,38.48169642857141L247.61181336805555,38.28415178571427L247.72382604166668,39.03482142857143L247.86703211805556,40.220089285714295L247.93650833333334,38.71875L247.9421798611111,38.52120535714286L247.95210503472222,37.84955357142857L247.96628385416668,36.90133928571427L247.97479114583334,37.29642857142858L247.98046267361113,37.37544642857142L247.98471631944446,38.363169642857144L247.99605937500002,38.20513392857143L247.99889513888888,37.928571428571445L248.01732760416667,38.04709821428571L248.02299913194446,38.165625000000006L248.02441701388886,38.04709821428571L248.05135677083334,36.66428571428571L248.05277465277777,37.09888392857141L248.05702829861113,37.09888392857141L248.06695347222222,38.04709821428571L248.06978923611112,37.928571428571445L248.08113229166665,37.57299107142859L248.08396805555557,37.17790178571428L248.08538593749998,38.44218749999999L248.1038184027778,38.67924107142858L248.10665416666666,39.508928571428555L248.10807204861112,38.363169642857144L248.1208329861111,36.82232142857143L248.12508663194444,37.17790178571428L248.1279223958333,38.126116071428555L248.14068333333333,37.17790178571428L248.1449369791667,37.81004464285715L248.14777274305555,37.81004464285715L248.15060850694445,36.940848214285694L248.16762309027777,38.600223214285705L248.19172708333335,38.126116071428555L248.19881649305555,37.454464285714295L248.2129953125,38.126116071428555L248.22150260416666,36.82232142857143L248.23142777777778,38.08660714285713L248.23993506944447,38.44218749999999L248.24277083333334,37.889062499999994L248.24844236111113,38.837276785714295L248.25836753472223,38.600223214285705L248.25978541666666,37.29642857142858L248.26120329861112,37.77053571428573L248.27538211805555,36.86183035714285L248.29806822916666,37.09888392857141L248.3051576388889,37.691517857142856L248.3122470486111,37.57299107142859L248.31933645833334,37.217410714285705L248.32075434027777,35.400000000000006L248.32359010416667,37.57299107142859L248.32784375,37.53348214285714L248.34202256944445,37.65200892857143L248.34769409722225,38.71875L248.34911197916665,36.86183035714285L248.3576192708333,36.545758928571445L248.3632907986111,37.29642857142858L248.36470868055557,38.126116071428555L248.37605173611112,38.10636160714287L248.38030538194445,38.67924107142858L248.3817232638889,37.37544642857142L248.38455902777778,36.90133928571427L248.3888126736111,37.454464285714295L248.39023055555558,38.71875L248.39164843749998,37.84955357142857L248.39306631944444,39.19285714285715L248.39873784722224,35.47901785714285L248.4015736111111,37.61250000000001L248.40582725694443,36.782812500000006L248.4072451388889,36.90133928571427L248.40866302083336,38.75825892857142L248.41008090277776,38.87678571428572L248.4129166666667,38.04709821428571L248.41717031250002,38.24464285714285L248.41858819444442,38.600223214285705L248.4270954861111,36.348214285714306L248.43560277777777,37.81004464285715L248.43843854166667,40.41763392857143L248.4426921875,37.25691964285713L248.45970677083335,38.323660714285694L248.47104982638888,38.126116071428555L248.47246770833334,37.84955357142857L248.47388559027777,39.46941964285713L248.48239288194443,38.56071428571428L248.49231805555556,38.48169642857141L248.49940746527778,39.271874999999994L248.50933263888888,37.37544642857142L248.51500416666667,38.71875L248.52776510416666,38.63973214285713L248.53627239583332,36.62477678571429L248.53910815972222,38.24464285714285L248.54336180555555,37.13839285714286L248.55328697916667,36.743303571428555L248.56179427083333,38.52120535714286L248.56604791666666,38.323660714285694L248.56888368055553,38.95580357142859L248.5703015625,38.28415178571427L248.58306249999998,37.731026785714306L248.59724131944444,37.217410714285705L248.5986592013889,38.75825892857142L248.61000225694445,37.96808035714287L248.62701684027778,36.90133928571427L248.6312704861111,37.3359375L248.63552413194444,37.217410714285705L248.65395659722222,37.61250000000001L248.66529965277778,38.40267857142857L248.67664270833333,38.20513392857143L248.67806059027777,37.49397321428572L248.6823142361111,37.01986607142857L248.68515000000002,37.454464285714295L248.68656788194443,39.508928571428555L248.70641822916667,36.70379464285713L248.71492552083333,38.40267857142857L248.71776128472223,37.61250000000001L248.73902951388888,38.91629464285714L248.7489546875,38.40267857142857L248.75320833333333,38.837276785714295" style="fill: none;" fill="none"></path></g></g></g></g></g></g><g transform="translate(74, 177)" clip-path="url(#clip_1)"><clipPath id="clip_1"><rect width="255" height="23"></rect></clipPath><g><g><line x1="0" y1="0" x2="0" y2="5" style="visibility: inherit;" fill="rgb(0, 0, 0)" stroke="rgb(204, 204, 204)" stroke-width="1px"></line><line x1="28.357638888888886" y1="0" x2="28.357638888888886" y2="5" style="visibility: inherit;" fill="rgb(0, 0, 0)" stroke="rgb(204, 204, 204)" stroke-width="1px"></line><line x1="56.71527777777777" y1="0" x2="56.71527777777777" y2="5" style="visibility: inherit;" fill="rgb(0, 0, 0)" stroke="rgb(204, 204, 204)" stroke-width="1px"></line><line x1="85.07291666666666" y1="0" x2="85.07291666666666" y2="5" style="visibility: inherit;" fill="rgb(0, 0, 0)" stroke="rgb(204, 204, 204)" stroke-width="1px"></line><line x1="113.43055555555554" y1="0" x2="113.43055555555554" y2="5" style="visibility: inherit;" fill="rgb(0, 0, 0)" stroke="rgb(204, 204, 204)" stroke-width="1px"></line><line x1="141.78819444444446" y1="0" x2="141.78819444444446" y2="5" style="visibility: inherit;" fill="rgb(0, 0, 0)" stroke="rgb(204, 204, 204)" stroke-width="1px"></line><line x1="170.14583333333331" y1="0" x2="170.14583333333331" y2="5" style="visibility: inherit;" fill="rgb(0, 0, 0)" stroke="rgb(204, 204, 204)" stroke-width="1px"></line><line x1="198.50347222222223" y1="0" x2="198.50347222222223" y2="5" style="visibility: inherit;" fill="rgb(0, 0, 0)" stroke="rgb(204, 204, 204)" stroke-width="1px"></line><line x1="226.8611111111111" y1="0" x2="226.8611111111111" y2="5" style="visibility: inherit;" fill="rgb(0, 0, 0)" stroke="rgb(204, 204, 204)" stroke-width="1px"></line><line x1="255.21875" y1="0" x2="255.21875" y2="5" style="visibility: inherit;" fill="rgb(0, 0, 0)" stroke="rgb(204, 204, 204)" stroke-width="1px"></line></g><g transform="translate(0, 8)"><text x="0" y="0" dx="0em" dy="0.95em" style="text-anchor: middle; visibility: hidden; font-family: &quot;Helvetica Neue&quot;, sans-serif; font-size: 12px; font-weight: 200;" fill="rgb(50, 49, 63)" stroke="none" stroke-width="1px">-20k</text><text x="28.357638888888886" y="0" dx="0em" dy="0.95em" style="text-anchor: middle; visibility: inherit; font-family: &quot;Helvetica Neue&quot;, sans-serif; font-size: 12px; font-weight: 200;" fill="rgb(50, 49, 63)" stroke="none" stroke-width="1px">0</text><text x="56.71527777777777" y="0" dx="0em" dy="0.95em" style="text-anchor: middle; visibility: hidden; font-family: &quot;Helvetica Neue&quot;, sans-serif; font-size: 12px; font-weight: 200;" fill="rgb(50, 49, 63)" stroke="none" stroke-width="1px">20k</text><text x="85.07291666666666" y="0" dx="0em" dy="0.95em" style="text-anchor: middle; visibility: inherit; font-family: &quot;Helvetica Neue&quot;, sans-serif; font-size: 12px; font-weight: 200;" fill="rgb(50, 49, 63)" stroke="none" stroke-width="1px">40k</text><text x="113.43055555555554" y="0" dx="0em" dy="0.95em" style="text-anchor: middle; visibility: hidden; font-family: &quot;Helvetica Neue&quot;, sans-serif; font-size: 12px; font-weight: 200;" fill="rgb(50, 49, 63)" stroke="none" stroke-width="1px">60k</text><text x="141.78819444444446" y="0" dx="0em" dy="0.95em" style="text-anchor: middle; visibility: inherit; font-family: &quot;Helvetica Neue&quot;, sans-serif; font-size: 12px; font-weight: 200;" fill="rgb(50, 49, 63)" stroke="none" stroke-width="1px">80k</text><text x="170.14583333333331" y="0" dx="0em" dy="0.95em" style="text-anchor: middle; visibility: hidden; font-family: &quot;Helvetica Neue&quot;, sans-serif; font-size: 12px; font-weight: 200;" fill="rgb(50, 49, 63)" stroke="none" stroke-width="1px">100k</text><text x="198.50347222222223" y="0" dx="0em" dy="0.95em" style="text-anchor: middle; visibility: inherit; font-family: &quot;Helvetica Neue&quot;, sans-serif; font-size: 12px; font-weight: 200;" fill="rgb(50, 49, 63)" stroke="none" stroke-width="1px">120k</text><text x="226.8611111111111" y="0" dx="0em" dy="0.95em" style="text-anchor: middle; visibility: hidden; font-family: &quot;Helvetica Neue&quot;, sans-serif; font-size: 12px; font-weight: 200;" fill="rgb(50, 49, 63)" stroke="none" stroke-width="1px">140k</text><text x="255.21875" y="0" dx="0em" dy="0.95em" style="text-anchor: middle; visibility: hidden; font-family: &quot;Helvetica Neue&quot;, sans-serif; font-size: 12px; font-weight: 200;" fill="rgb(50, 49, 63)" stroke="none" stroke-width="1px">160k</text></g><line x1="0" y1="0" x2="255.21875" y2="0" fill="rgb(0, 0, 0)" stroke="rgb(204, 204, 204)" stroke-width="1px"></line></g></g></g></g></svg>