<svg viewBox="0 0 330 200" xmlns="http://www.w3.org/2000/svg"><g><g><g><g><g><line x1="63.984375" y1="177" x2="58.984375" y2="177" style="visibility: inherit;" fill="rgb(0, 0, 0)" stroke="rgb(204, 204, 204)" stroke-width="1px"></line><line x1="63.984375" y1="159.3" x2="58.984375" y2="159.3" style="visibility: inherit;" fill="rgb(0, 0, 0)" stroke="rgb(204, 204, 204)" stroke-width="1px"></line><line x1="63.984375" y1="141.6" x2="58.984375" y2="141.6" style="visibility: inherit;" fill="rgb(0, 0, 0)" stroke="rgb(204, 204, 204)" stroke-width="1px"></line><line x1="63.984375" y1="123.9" x2="58.984375" y2="123.9" style="visibility: inherit;" fill="rgb(0, 0, 0)" stroke="rgb(204, 204, 204)" stroke-width="1px"></line><line x1="63.984375" y1="106.2" x2="58.984375" y2="106.2" style="visibility: inherit;" fill="rgb(0, 0, 0)" stroke="rgb(204, 204, 204)" stroke-width="1px"></line><line x1="63.984375" y1="88.5" x2="58.984375" y2="88.5" style="visibility: inherit;" fill="rgb(0, 0, 0)" stroke="rgb(204, 204, 204)" stroke-width="1px"></line><line x1="63.984375" y1="70.8" x2="58.984375" y2="70.8" style="visibility: inherit;" fill="rgb(0, 0, 0)" stroke="rgb(204, 204, 204)" stroke-width="1px"></line><line x1="63.984375" y1="53.10000000000001" x2="58.984375" y2="53.10000000000001" style="visibility: inherit;" fill="rgb(0, 0, 0)" stroke="rgb(204, 204, 204)" stroke-width="1px"></line><line x1="63.984375" y1="35.400000000000006" x2="58.984375" y2="35.400000000000006" style="visibility: inherit;" fill="rgb(0, 0, 0)" stroke="rgb(204, 204, 204)" stroke-width="1px"></line><line x1="63.984375" y1="17.69999999999999" x2="58.984375" y2="17.69999999999999" style="visibility: inherit;" fill="rgb(0, 0, 0)" stroke="rgb(204, 204, 204)" stroke-width="1px"></line><line x1="63.984375" y1="0" x2="58.984375" y2="0" style="visibility: inherit;" fill="rgb(0, 0, 0)" stroke="rgb(204, 204, 204)" stroke-width="1px"></line></g><g transform="translate(53.984375, 0)"><text x="0" y="177" dx="0em" dy="0.3em" style="text-anchor: end; visibility: hidden; font-family: &quot;Helvetica Neue&quot;, sans-serif; font-size: 12px; font-weight: 200;" fill="rgb(50, 49, 63)" stroke="none" stroke-width="1px">-1e+4</text><text x="0" y="159.3" dx="0em" dy="0.3em" style="text-anchor: end; visibility: inherit; font-family: &quot;Helvetica Neue&quot;, sans-serif; font-size: 12px; font-weight: 200;" fill="rgb(50, 49, 63)" stroke="none" stroke-width="1px">0</text><text x="0" y="141.6" dx="0em" dy="0.3em" style="text-anchor: end; visibility: hidden; font-family: &quot;Helvetica Neue&quot;, sans-serif; font-size: 12px; font-weight: 200;" fill="rgb(50, 49, 63)" stroke="none" stroke-width="1px">1e+4</text><text x="0" y="123.9" dx="0em" dy="0.3em" style="text-anchor: end; visibility: inherit; font-family: &quot;Helvetica Neue&quot;, sans-serif; font-size: 12px; font-weight: 200;" fill="rgb(50, 49, 63)" stroke="none" stroke-width="1px">2e+4</text><text x="0" y="106.2" dx="0em" dy="0.3em" style="text-anchor: end; visibility: hidden; font-family: &quot;Helvetica Neue&quot;, sans-serif; font-size: 12px; font-weight: 200;" fill="rgb(50, 49, 63)" stroke="none" stroke-width="1px">3e+4</text><text x="0" y="88.5" dx="0em" dy="0.3em" style="text-anchor: end; visibility: inherit; font-family: &quot;Helvetica Neue&quot;, sans-serif; font-size: 12px; font-weight: 200;" fill="rgb(50, 49, 63)" stroke="none" stroke-width="1px">4e+4</text><text x="0" y="70.8" dx="0em" dy="0.3em" style="text-anchor: end; visibility: hidden; font-family: &quot;Helvetica Neue&quot;, sans-serif; font-size: 12px; font-weight: 200;" fill="rgb(50, 49, 63)" stroke="none" stroke-width="1px">5e+4</text><text x="0" y="53.10000000000001" dx="0em" dy="0.3em" style="text-anchor: end; visibility: inherit; font-family: &quot;Helvetica Neue&quot;, sans-serif; font-size: 12px; font-weight: 200;" fill="rgb(50, 49, 63)" stroke="none" stroke-width="1px">6e+4</text><text x="0" y="35.400000000000006" dx="0em" dy="0.3em" style="text-anchor: end; visibility: hidden; font-family: &quot;Helvetica Neue&quot;, sans-serif; font-size: 12px; font-weight: 200;" fill="rgb(50, 49, 63)" stroke="none" stroke-width="1px">7e+4</text><text x="0" y="17.69999999999999" dx="0em" dy="0.3em" style="text-anchor: end; visibility: inherit; font-family: &quot;Helvetica Neue&quot;, sans-serif; font-size: 12px; font-weight: 200;" fill="rgb(50, 49, 63)" stroke="none" stroke-width="1px">8e+4</text><text x="0" y="0" dx="0em" dy="0.3em" style="text-anchor: end; visibility: hidden; font-family: &quot;Helvetica Neue&quot;, sans-serif; font-size: 12px; font-weight: 200;" fill="rgb(50, 49, 63)" stroke="none" stroke-width="1px">9e+4</text></g><line x1="63.984375" y1="0" x2="63.984375" y2="177" fill="rgb(0, 0, 0)" stroke="rgb(204, 204, 204)" stroke-width="1px"></line></g></g><g transform="translate(63, 0)" clip-path="url(#clip_0)"><clipPath id="clip_0"><rect width="266" height="177"></rect></clipPath><g><g><g><line x1="0" y1="0" x2="0" y2="177" fill="rgb(0, 0, 0)" stroke="rgb(60, 60, 60)" stroke-width="1px" opacity="0.25"></line><line x1="29.557291666666664" y1="0" x2="29.557291666666664" y2="177" fill="rgb(0, 0, 0)" stroke="rgb(60, 60, 60)" stroke-width="1px" opacity="0.25"></line><line x1="59.11458333333333" y1="0" x2="59.11458333333333" y2="177" fill="rgb(0, 0, 0)" stroke="rgb(60, 60, 60)" stroke-width="1px" opacity="0.25"></line><line x1="88.671875" y1="0" x2="88.671875" y2="177" fill="rgb(0, 0, 0)" stroke="rgb(60, 60, 60)" stroke-width="1px" opacity="0.25"></line><line x1="118.22916666666666" y1="0" x2="118.22916666666666" y2="177" fill="rgb(0, 0, 0)" stroke="rgb(60, 60, 60)" stroke-width="1px" opacity="0.25"></line><line x1="147.78645833333334" y1="0" x2="147.78645833333334" y2="177" fill="rgb(0, 0, 0)" stroke="rgb(60, 60, 60)" stroke-width="1px" opacity="0.25"></line><line x1="177.34375" y1="0" x2="177.34375" y2="177" fill="rgb(0, 0, 0)" stroke="rgb(60, 60, 60)" stroke-width="1px" opacity="0.25"></line><line x1="206.90104166666666" y1="0" x2="206.90104166666666" y2="177" fill="rgb(0, 0, 0)" stroke="rgb(60, 60, 60)" stroke-width="1px" opacity="0.25"></line><line x1="236.45833333333331" y1="0" x2="236.45833333333331" y2="177" fill="rgb(0, 0, 0)" stroke="rgb(60, 60, 60)" stroke-width="1px" opacity="0.25"></line><line x1="266.015625" y1="0" x2="266.015625" y2="177" fill="rgb(0, 0, 0)" stroke="rgb(60, 60, 60)" stroke-width="1px" opacity="0.25"></line></g><g><line x1="0" y1="177" x2="266.015625" y2="177" fill="rgb(0, 0, 0)" stroke="rgb(60, 60, 60)" stroke-width="1px" opacity="0.25"></line><line x1="0" y1="159.3" x2="266.015625" y2="159.3" fill="rgb(0, 0, 0)" stroke="rgb(60, 60, 60)" stroke-width="1px" opacity="0.25"></line><line x1="0" y1="141.6" x2="266.015625" y2="141.6" fill="rgb(0, 0, 0)" stroke="rgb(60, 60, 60)" stroke-width="1px" opacity="0.25"></line><line x1="0" y1="123.9" x2="266.015625" y2="123.9" fill="rgb(0, 0, 0)" stroke="rgb(60, 60, 60)" stroke-width="1px" opacity="0.25"></line><line x1="0" y1="106.2" x2="266.015625" y2="106.2" fill="rgb(0, 0, 0)" stroke="rgb(60, 60, 60)" stroke-width="1px" opacity="0.25"></line><line x1="0" y1="88.5" x2="266.015625" y2="88.5" fill="rgb(0, 0, 0)" stroke="rgb(60, 60, 60)" stroke-width="1px" opacity="0.25"></line><line x1="0" y1="70.8" x2="266.015625" y2="70.8" fill="rgb(0, 0, 0)" stroke="rgb(60, 60, 60)" stroke-width="1px" opacity="0.25"></line><line x1="0" y1="53.10000000000001" x2="266.015625" y2="53.10000000000001" fill="rgb(0, 0, 0)" stroke="rgb(60, 60, 60)" stroke-width="1px" opacity="0.25"></line><line x1="0" y1="35.400000000000006" x2="266.015625" y2="35.400000000000006" fill="rgb(0, 0, 0)" stroke="rgb(60, 60, 60)" stroke-width="1px" opacity="0.25"></line><line x1="0" y1="17.69999999999999" x2="266.015625" y2="17.69999999999999" fill="rgb(0, 0, 0)" stroke="rgb(60, 60, 60)" stroke-width="1px" opacity="0.25"></line><line x1="0" y1="0" x2="266.015625" y2="0" fill="rgb(0, 0, 0)" stroke="rgb(60, 60, 60)" stroke-width="1px" opacity="0.25"></line></g></g></g><g><g><line x1="0" y1="159.3" x2="266.015625" y2="159.3" fill="rgb(0, 0, 0)" stroke="rgb(153, 153, 153)" stroke-width="1.5px"></line></g></g><g><g><line x1="29.557291666666664" y1="0" x2="29.557291666666664" y2="177" fill="rgb(0, 0, 0)" stroke="rgb(153, 153, 153)" stroke-width="1.5px"></line></g></g><g><g><g><g><g><path stroke="rgb(255, 112, 67)" stroke-width="2px" d="M30.698203125,152.751L30.701158854166668,153.83306488229852L30.94500651041667,153.4797404015798L31.0085546875,153.49467808041717L31.046979166666667,153.57092006007846L31.1415625,153.824053559996L31.19919921875,153.74277104203645L31.218411458333335,154.02444562340804L31.344029947916667,154.07438834162178L33.1721484375,154.02394835905454L33.29333333333333,154.0374256915008L33.40121744791667,154.2297404281203L33.47658854166667,154.205779192621L33.481022135416666,154.38435330166266L33.56082682291667,154.4890028294977L33.815019531249995,154.52914007325248L33.82093098958333,154.5010604163795L33.83570963541666,154.4140569112712L33.83866536458333,154.5696725909652L33.87265625,154.38018406284073L34.76528645833333,153.93887844158027L35.24411458333333,153.5518801297542L35.56037760416667,153.1265586359756L35.68599609375,152.79362727165767L35.762845052083335,152.42791649115165L35.78501302083333,152.20463600712057L35.798313802083335,151.88326607964513L36.03625,151.76704454518392L36.3466015625,151.58239275364213L36.48108723958333,151.44681231650836L36.48699869791667,151.0211408489588L36.869765625,150.9791797009116L38.12299479166667,150.56499331499325L38.544186197916666,150.22317453275537L38.63876953125,149.64507381965547L39.02153645833334,149.16154838347347L39.088040364583335,148.75671660426264L39.17819010416667,148.5179058747775L39.636328125,148.18572226841L39.65554036458333,147.88219488890297L40.14914713541666,147.59306668691488L40.172792968749995,147.38957369529166L41.36395182291666,147.1174339482344L41.50582682291666,146.9680228538684L41.52356119791667,146.88405015785003L41.536861979166666,146.95914124511154L41.93736328125,146.59767165694925L42.262493489583335,146.47323775749388L42.36151041666667,146.2111946637447L42.40141276041667,146.16467921721514L42.82999348958334,146.00616353672797L43.41375,146.0635994526126L43.734446614583334,145.70438992045433L43.996028645833334,145.57005920360922L44.337415364583336,145.46034439335332L44.408352864583335,145.21745720362682L44.53249348958333,145.1154287295346L44.690625000000004,145.11234777137923L44.958118489583335,145.10957621032603L45.03053385416667,144.996258706572L45.20935546875,144.9441735981862L45.27438151041667,144.74221226782902L45.330540364583335,144.58819552595557L46.09016276041667,144.5105344094702L46.92515625,144.20809754774515L47.05520833333334,144.15742690225335L47.09215494791667,144.305592811287L47.33895833333334,144.00161088371922L47.89463541666667,143.80556330729726L47.94931640625,143.59040341194964L48.39119791666666,143.30270082926296L48.70007161458333,143.06040152246362L48.969042968749996,143.0028350752511L49.03998046875,142.93442969638988L49.36215494791667,143.07760219892822L49.60600260416666,142.81359781831264L50.3922265625,142.76412946127618L50.79420572916667,142.50936655008712L50.90061197916667,142.34095151242147L51.14889322916667,142.0787365739016L51.19175130208333,142.00872415017506L51.367617187499995,141.74102311161852L52.02822265625,141.4005228196865L52.37404296875,140.74556415520948L52.52478515625,140.55995254449L52.79375651041667,140.54779962901085L53.59623697916667,140.31005732306673L54.0455078125,139.9577997123025L54.16521484375,139.5080129204445L54.53172526041667,139.11427538451872L54.5420703125,138.5884367947765L54.904147135416665,138.72366395930874L54.97212890625,138.44709470457815L55.0208984375,138.2258429259657L55.17607421875,138.03778142399378L55.415488281250006,137.89618504923988L55.5706640625,137.89044133504143L55.6859375,137.50913469778706L56.046536458333335,137.3042464312095L56.0849609375,137.26366446017462L56.1026953125,136.86206966392953L56.491373697916664,136.5891380754863L57.19779296875,136.57028640290784L57.30419921875,136.59203939170496L57.69731119791667,136.4346142334404L57.932291666666664,136.16571151431498L57.98106119791667,135.99560695183516L58.541171874999996,135.991858713795L58.913593750000004,135.9663600800236L59.206210937499996,135.67790890056318L59.453014322916665,135.34086520116392L59.609667968749996,135.20899644180454L59.77814453125,135.2120030679235L59.785533854166665,135.2755531472866L59.83725911458333,135.17787229836514L59.91410807291667,134.85764599241293L60.279140625,134.76303722408386L60.72545572916667,134.53407633887173L60.88654296875,134.24504266791695L61.12300130208333,134.18127257019594L62.017109375,134.20408287947043L62.255045572916664,133.82636110352058L62.924518229166665,133.55831811216308L63.00580078125,133.21751682888825L63.20235677083333,132.8388894240185L63.217135416666665,132.8410629853468L63.71369791666667,132.45029983326344L64.35213541666667,132.546644983865L64.37430338541667,132.58910553859988L64.40090494791667,132.25119460426285L64.48514322916667,132.2623564051476L64.84426432291667,132.1728394329903L65.69551432291667,131.9208052828138L65.73098307291667,132.0645686107373L65.88320312500001,132.05014299007235L65.90389322916667,131.9597223869587L66.15660807291667,131.68475000017722L66.67386067708334,131.65299373476748L66.71376302083334,131.39763174989588L67.13199869791666,131.26736852376484L67.59752604166667,131.06716285064752L67.75122395833334,130.75975896782626L67.95960286458333,130.88134560584245L68.01871744791667,130.63677348226L68.97932942708334,130.25625229581894L69.1906640625,130.11290828632914L69.26307942708334,130.4153362644861L69.36061848958335,130.26161511205834L69.5630859375,130.09560982560282L70.23699218750001,129.8853613142613L70.25620442708333,129.91185643609944L70.48970703125,129.70338951937424L70.5030078125,129.0953942567626L70.671484375,128.80263605479243L70.79414713541667,128.71062244187544L71.05720703125,128.6388726924681L71.27740885416667,128.55770416790682L71.42076171875,128.2191524811662L71.54638020833333,127.96423721953028L71.55229166666666,127.97818849824316L72.41684244791666,127.95755714753255L72.53359375,128.32064519681708L72.7020703125,128.30448692657313L72.79813151041667,128.21803823120857L72.87350260416666,127.9853594015297L73.36563151041666,127.84232345774845L73.58139973958333,127.49787235410992L73.63312499999999,127.1491476115338L73.7040625,126.96804534703148L73.81194661458333,126.8769595608124L73.89322916666667,126.64563860126631L73.95529947916667,126.65316849124117L73.95825520833334,126.51613289045447L73.97155598958334,126.82976960483373L74.05579427083333,126.51466764125372L74.44890625,126.54082587735971L74.50802083333333,126.60861829016338L74.91147786458333,126.56453771083125L74.92625651041666,126.6354901902056L75.1671484375,126.79890992213336L75.5041015625,126.49242517831937L75.63267578125,126.12255765874887L75.92233723958334,126.25983314345473L76.03908854166667,126.02938107823184L76.28293619791667,125.89388046994435L76.80610026041667,125.84383617279558L76.82679036458333,125.64392130496114L77.01743489583333,125.43634167394649L77.84947265625,125.45417625659194L78.28248697916668,125.32641488067424L78.28692057291667,125.3773671426996L78.47165364583334,125.28494292827816L78.57658203125,125.13538613522974L78.616484375,125.03397252157214L78.66820963541666,124.81548151915386L78.87658854166666,124.73499586715192L79.10565755208333,124.56299628027028L79.31847005208334,124.48563415217586L79.34654947916665,124.47132073694705L79.48842447916667,124.44737616323545L79.70567057291666,124.7355760470949L80.33967447916667,124.76264344240087L80.52588541666667,124.78147284817047L80.61751302083334,124.91457556341504L80.62638020833334,124.51996175690913L80.72391927083332,124.42477808118252L80.81111328125,124.4995190230895L80.83771484375,124.55572337079762L80.92047526041667,124.55652603371809L80.9840234375,124.38577968030427L81.21752604166666,124.32060796225942L81.32245442708333,124.0517659159799L81.45250651041667,124.163808074402L81.54708984375,123.90511476692005L81.68600911458334,123.76079079020708L81.70817708333334,123.63643046117011L82.13971354166667,123.29772491501325L82.48996744791667,123.08138992348901L82.87125651041667,123.34025093116477L82.94810546875,123.23581958803935L83.00278645833333,122.85420637920596L83.14022786458332,122.92559824129032L83.56141927083334,122.63585091714316L83.97669921875,122.69035957543191L84.07128255208333,122.62326111788533L84.11118489583333,122.80071625610488L84.12891927083334,122.6838633804896L84.1584765625,122.58422704243696L84.66686197916667,122.58305433819322L85.24175130208333,122.8640926543823L85.32451171874999,122.93449588894596L85.40136067708333,122.83745255004901L85.44865234375,122.98242604504728L85.65703125,122.89165219054075L85.79447265625001,122.72145572148368L85.82846354166666,123.05502889934061L86.26591145833333,122.97911975940546L86.27625651041666,122.96058278346467L86.34571614583332,122.5622432551136L86.42552083333334,122.29776892959948L86.48315755208333,122.32524203663979L86.8541015625,122.06787408297363L87.14080729166668,121.95793042467542L87.20139973958334,121.98619988220807L87.53244140625,121.98398614398727L87.62554687500001,121.58374377958631L87.71717447916667,121.56093190162757L87.86052734375,121.7616512114657L87.8915625,121.62701734031859L88.43098307291666,121.85984685628758L88.55660156249999,122.16895592065984L88.56251302083334,122.0489040785935L88.67335286458334,122.1067949207343L88.74133463541668,122.09805292866085L88.91867838541667,122.1178413857948L88.97779296875001,122.13011974721533L88.98666015625001,121.94204527249349L89.13592447916666,121.81149699524391L89.29553385416668,121.85440979571959L89.71524739583333,121.88750006614768L89.84677734375,121.96706255953299L89.9576171875,121.67913755357941L90.14678385416667,121.89569254822166L90.27831380208333,121.78637329339941L90.29604817708334,121.99773596405961L90.4453125,122.14371236765375L90.85172526041666,121.92662238088823L90.91083984375,121.68699139279929L91.04089192708332,121.54322975351928L91.06010416666668,121.36959427816728L91.49459635416666,121.37925985035056L91.74731119791667,121.48199011531554L92.13155598958333,121.59657235378401L92.13746744791666,121.5614151184056L92.19510416666667,121.7676173565651L92.33254557291666,121.68216812090857L92.36505859375,121.74907630881772L92.85718750000001,121.56038742793592L93.01384114583334,121.13612993514225L93.194140625,120.88151694162798L94.32470703124999,120.72980274746516L94.50500651041668,120.3720099727186L94.61436848958333,120.0887152254467L94.72964192708334,120.13243745290202L95.13457682291666,120.23816245761185L95.23802734374999,120.28906496185067L95.251328125,120.1246897156656L95.47596354166667,119.93803324409902L95.70059895833333,120.04107366968913L95.90602213541666,120.02318505272021L96.00356119791667,120.32236654744821L96.19863932291666,120.39803614270339L96.21932942708334,120.65420127843305L96.3597265625,120.07718740058974L96.66268880208332,120.04462491053076L96.88436848958334,120.13147491947768L97.468125,119.86117117752991L97.70014973958334,119.62896030977691L97.82133463541666,119.54165802879922L97.89522786458333,119.3635234759193L97.91296223958334,119.41338987832737L98.07404947916666,119.26467589049462L98.17897786458335,119.63417705144516L98.33415364583334,119.78419684630066L98.58243489583334,119.69243341167058L98.58686848958334,119.63750257050353L98.59277994791667,119.60465856345317L98.60755859375,119.57509895710785L99.25338541666667,119.61487031139706L99.26816406249999,119.80553953025736L99.37013671875,119.58995432723162L100.13271484375001,119.65589639450846L100.31744791666667,119.4497442550576L100.75489583333334,119.38589482955184L100.83026692708333,119.49436784659665L100.97953125,119.226931061937L101.03716796875001,118.9475192057433L101.2189453125,118.86751728516896L101.40515624999999,118.56873430665206L101.62388020833333,118.29982962598686L101.84408203125001,117.89740916338818L101.9105859375,117.79519949704937L101.94309895833334,117.67002329734441L102.07315104166666,117.69011471760997L102.08497395833334,118.12857199584897L102.49582031249999,118.16365229626408L102.68203125000001,118.21734956663767L102.80321614583333,117.98358335997389L102.81060546875,118.18250627397651L102.9569140625,117.95222439657886L102.983515625,117.71178320692098L102.98794921875,117.52857363622888L103.44608723958333,117.40240377260598L103.50815755208333,117.3496946453454L104.19388671875,117.20269393081085L104.31950520833333,117.23633078772977L104.51901692708334,116.83516645895679L104.65793619791667,116.8778998130611L104.74660807291667,116.93295358175499L104.98602213541668,116.9493144735795L105.413125,117.01935177622155L105.46780598958334,116.91644784859939L105.49145182291666,117.05614681373946L105.52544270833333,116.83340713236552L105.61263671875001,116.66059766912895L106.34122395833333,116.31147540221605L106.55551432291666,116.18532786199444L106.69738932291666,116.182420075795L106.74615885416667,116.04705306821549L106.82891927083334,115.89203526139394L106.92793619791667,115.96823798525455L107.13779296875,115.7879141867291L107.31809244791667,115.88006026805617L107.84125651041667,116.12339799125056L108.00973307291666,115.90543319212551L108.08067057291667,115.46588987291295L108.19594401041667,115.30814463562166L108.56541015625001,115.2159551720595L109.18463541666667,115.20489090485353L109.23931640625,114.85199556436818L109.28217447916667,115.05432725793136L109.39005859375,115.21983203213821L109.53784505208333,114.8709738289244L110.00780598958333,114.82250144603196L110.03440755208334,114.36956380142877L110.23539713541668,114.26613867128589L110.24130859374999,114.3223998041573L110.27529947916666,114.36197232374157L111.05856770833334,114.44183759136742L111.06300130208334,114.23162258223067L111.59207682291667,114.0922103240076L111.75907552083333,113.62380179160684L111.81966796875,113.65579661244615L111.83149088541667,113.60715445120155L112.3383984375,113.22597025608138L112.48766276041667,112.99352948047324L112.64431640625,112.85623903242593L113.20294921874999,112.70502137918332L113.5266015625,112.60764424126499L113.63891927083334,112.6250985671385L113.83104166666668,112.44721371042463L113.90050130208334,112.36455483938218L113.99212890625,112.11316185544396L114.00099609374999,112.06390816989955L114.11626953125,111.60473610290961L114.18868489583333,111.53994999261863L114.60100911458333,111.44845499335678L114.88180338541666,111.4822657440211L115.05323567708332,111.22507041961899L115.08279296875,110.7004383776571L115.08722656249999,110.60992578989138L115.71236328125,110.31274571090223L115.75669921875,110.13378363981202L115.77738932291666,110.21609277583082L116.51336588541668,109.85320224824774L116.64637369791667,110.01335077342297L116.79711588541667,109.44948444608066L116.85475260416666,109.49512975147259L117.00697265625,109.12689802632534L117.02027343750001,108.7733644736928L117.67940104166667,108.85343427632353L117.79171875,109.19099709869117L117.79910807291667,108.69830363882204L117.82570963541666,108.90203577493985L117.85083333333333,109.12964469744584L117.9956640625,109.09111772770127L118.11537109375,109.37172470493114L118.28828125,109.51364598443804L118.37399739583333,110.05621888599424L118.518828125,109.55997199739481L118.57942057291666,109.57797479765532L118.62227864583333,109.61077106788979L118.69764973958334,109.1646002111008L119.07893880208333,109.39360893999073L119.84299479166665,109.06871679599165L120.168125,108.8814076163925L120.28930989583333,108.80686060475323L120.3898046875,108.4521432942779L120.398671875,108.17714771485012L120.46074218749999,107.55905794336509L120.55236979166666,107.82693339902859L120.74153645833333,107.91314630912572L120.89080078125001,107.63120667821316L121.14203776041667,107.00133601039184L121.64894531249999,106.81057740935266L121.90461588541667,105.9474884184174L122.00806640625,105.67958332657565L122.17210937499999,105.36656249391808L122.42630208333333,105.59371874452627L122.44551432291667,105.89219062007365L122.4469921875,105.75150280806626L122.48393880208333,106.01760252725964L122.952421875,105.55462352453368L123.37509114583332,105.6689424220803L123.46080729166665,105.55611067987228L123.92190104166667,105.50987461188505L124.21599609375,105.44613715069654L124.28545572916667,105.44408593562689L124.30319010416667,105.4477710920642L124.55590494791667,105.33493148285777L124.64901041666666,104.724500834572L124.81453125,104.71717575111481L124.90024739583333,104.45061442600331L124.91798177083334,104.36005298340298L125.33326171875001,104.09601643506268L125.50912760416666,103.4269460415564L125.69386067708334,103.11793893740077L125.74263020833332,102.57433254366069L126.03081380208333,102.22889928929463L126.03376953125,102.33285311036516L126.61013671875,102.53703654932865L126.6234375,102.65442664439578L126.63526041666667,102.6937027299562L126.77417968750001,102.70692620696057L126.92492187500001,102.68563983626451L126.98108072916668,102.03038835263807L127.02098307291666,102.09334951737426L127.1998046875,101.68538956563683L127.20719401041666,101.32928810907315L127.30029947916667,100.81520304816583L127.70819010416666,100.61802649334925L128.12494791666666,100.72819259401433L128.13677083333334,100.5894983346129L128.63333333333333,100.42595475115161L128.7515625,100.61340615103644L128.83432291666668,99.7173467859328L129.27029296875,99.70739335733953L129.77867838541667,99.48824777160557L130.10676432291666,100.12623549444501L130.23977213541667,99.90945569500052L130.42154947916666,99.69222887550046L130.68608723958334,99.77328723795043L130.73190104166667,99.6747710141554L130.84126302083334,99.79629391273986L130.86638671875,99.69547702146586L130.98166015625,99.44986681931928L131.06294270833334,99.26753638738737L131.28018880208333,99.80590774864864L132.50533854166667,99.52712947378377L132.53194010416667,99.20432277640539L132.54524088541666,99.07973424876485L132.57775390625,98.80166707388838L132.86150390625,98.99943786649953L133.16151041666666,97.6839940798496L133.486640625,98.05437592186463L133.51619791666667,97.55803207967817L133.6226041666667,97.10026012171035L133.9033984375,97.65623410953931L134.02162760416667,96.84570444858538L134.03788411458333,96.76891525372685L134.13542317708334,96.47302372835416L134.37927083333335,96.21778385551875L134.47237630208332,96.33100546996687L134.48419921875,96.34993617297019L135.01770833333333,96.46653630567317L135.48027994791667,96.58807017510586L135.61328776041665,96.27707565759528L136.18817708333336,95.68743059183575L136.25615885416664,94.92443753265218L136.87095052083333,94.76874377938697L137.26997395833334,94.42396315144826L137.30987630208335,93.95878558630343L137.54929036458336,93.32993827767308L137.60692708333335,93.78725694990577L137.78279296875002,93.07600000491519L137.87589843749998,93.18811875442368L137.9113671875,93.3166818789813L137.9143229166667,93.31623244108317L138.79513020833332,93.42645294697486L138.842421875,92.77893265227738L138.89266927083335,93.10328938704963L138.96951822916668,92.89186669834467L139.03158854166668,93.0777112785102L139.08774739583333,93.09562765065918L139.3301171875,92.59734613559326L139.39957682291666,92.04379902203394L139.87840494791666,92.62973161983055L140.39861328125002,92.68691470784748L140.55083333333334,92.29587948706273L140.77251302083334,92.02691653835647L141.31488932291666,92.18863113452082L141.49075520833333,92.06867427106872L142.0612109375,92.28152559396185L142.42033203124998,92.42331053456566L142.4720572916667,92.6615419811091L142.5577734375,92.83723153299817L142.74102864583332,92.64688337969835L143.44301432291667,92.55300754172853L143.54055338541667,92.01495678755568L143.985390625,91.9898048588001L143.98982421875,91.8731368729201L144.51003255208335,91.90641693562807L144.7272786458333,91.51599399206528L144.80708333333334,91.03186334285873L145.53567057291667,90.80080200857284L146.34110677083333,89.96781555771557L146.55391927083332,89.81550275194401L146.66032552083334,89.7282024767496L146.83619140625,89.06331972907464L146.84801432291667,89.51586275616717L147.00466796875,89.42533898055046L147.10516276041668,88.9677425824954L147.21009114583333,88.84629644924587L147.42142578125,89.20991680432127L147.94015625,88.18201887388913L148.43080729166667,87.65516073650022L148.631796875,87.36351966285018L148.65839843749998,87.45504269656517L148.75298177083332,87.94119467690867L149.02490885416665,86.7857314592178L149.13574869791665,87.48262706329601L149.31161458333332,86.90402060696641L149.49930338541668,86.46071229626978L149.65891276041665,86.5761410666428L149.72098307291668,86.6413082099785L150.05793619791666,87.21989613898066L150.52494140624998,86.97731277508258L151.185546875,87.42826899757434L151.27569661458335,87.43034834781689L151.28751953124998,87.4045635130352L151.36289062499998,86.67335716173169L151.91856770833334,86.72327144555851L152.05896484375,86.75713180100266L152.11216796875,86.57188737090239L152.13138020833333,86.33879238381215L152.43138671875,86.43875689543094L152.4535546875,86.49553745588786L153.18953125,86.56323371029907L153.26785807291668,86.34206658926917L153.39643229166666,86.27576618034223L153.72599609374998,86.39862706230801L153.952109375,86.3322018560772L153.99053385416667,85.3597629204695L154.19300130208333,85.57975537842253L154.22255859375,85.65606109058028L154.32009765625,85.75239248152225L154.55803385416667,85.72846573337002L154.71173177083335,84.90490041003302L155.01173828125,85.49672286902971L155.17725911458334,86.13445683212674L155.193515625,85.34772989891407L155.59106119791667,84.72264440902266L156.14378255208334,85.0948487181204L156.18959635416667,84.83798884630836L156.23688802083333,84.75062746167751L156.97877604166666,84.31247096550975L157.27434895833332,84.27766136895877L157.33494140625,84.3293014820629L157.34676432291667,84.2651525838566L157.35119791666665,83.08457482547095L157.48125,82.70239859292384L157.79751302083332,82.19803373363146L157.80785807291667,82.39126161026832L157.9866796875,82.81960419924147L158.13298828125002,83.02811252931734L158.3236328125,83.5476450263856L158.60886067708333,83.68888052374703L158.91625651041667,83.17436747137232L159.14532552083332,83.42483697423508L159.28424479166665,83.45113452681159L159.83696614583334,84.00027107413042L160.01430989583332,83.50993146671736L160.4148111979167,83.64387582004564L161.20103515625,82.31523823804108L161.39906901041667,82.15380816423695L161.90154296875002,81.84258359781326L162.01977213541667,80.74938773803193L162.05228515624998,80.56754271422872L162.12174479166666,80.39281969280586L162.18233723958332,79.94794397352527L162.53998046875,79.75221207617274L163.11782552083332,79.38799086855546L163.24048828125,79.15422303169991L163.741484375,78.77236322852993L163.82720052083334,77.95300190567693L164.64002604166666,78.27757671510922L164.84544921875002,79.28875654359831L165.04939453125,80.03841213923849L165.3050651041667,79.83363342531463L165.47797526041666,79.68805133278317L165.73807942708333,79.26940244950484L166.0380859375,79.08621220455436L166.10015625,79.67359098409892L166.41494140625002,78.95770063568901L166.95583984375,78.2968055721201L167.3415625,78.3768125149081L167.70363932291667,77.17110001341727L167.92827473958334,77.25858376207555L167.98147786458333,76.784194135868L167.997734375,76.4457434722812L168.04059244791668,76.39557537505307L168.35094401041667,76.33936158754777L168.5475,77.32864417879298L168.62287109375,76.73109226091368L169.04554036458333,76.52517053482231L169.08544270833332,76.65512223134007L169.78299479166665,77.25882875820606L170.05048828124998,77.37625838238546L170.10073567708332,77.81382004414691L170.98745442708332,77.89234428973222L171.44559244791668,78.21192236075899L171.64067057291666,78.31148012468309L172.50669921875,77.27823836221478L172.73429036458333,76.96228952599331L173.19833984375,76.97109182339398L173.22198567708335,77.01220139105457L173.29883463541668,76.77816875194911L173.68603515625,76.0807893767542L173.70081380208333,75.49186668907878L174.06732421875,74.6631487701709L174.20624348958333,74.37639639315381L174.36141927083332,74.01875675383843L174.50772786458333,74.67591232845459L174.5254622395833,74.28278984560912L174.594921875,73.4809483610482L174.67177083333334,73.31241602494339L175.09296223958336,73.27689317244905L175.85110677083333,74.19629760520415L176.00776041666668,73.97835534468373L176.2782096354167,73.62180106021535L176.44520833333334,73.57193345419383L176.723046875,73.83680260877445L176.89300130208332,73.79309109789699L177.24177734375,73.53803198810729L177.34227213541666,74.38154128929655L177.47823567708335,74.5654496603669L177.85065755208333,74.07274844433022L178.73442057291666,73.60719234989718L178.9753125,74.32209811490748L179.24871744791668,74.52854455341674L179.41276041666666,73.97315884807504L180.18272786458334,72.82615546326754L180.45465494791665,71.88235241694078L180.99703125,71.5307421752467L181.23201171875002,71.05941795772203L181.45221354166668,70.59650741194984L181.50098307291665,69.91438792075485L182.24730468750002,69.55491787867935L182.36996744791665,69.70155109081142L182.43499348958332,68.68302098173028L182.930078125,68.87812513355726L183.14141276041667,67.84790637020153L183.1694921875,67.00367823318139L183.1872265625,66.33790415986323L183.30988932291666,66.34714499387691L184.0369986979167,66.64861799448921L184.09463541666668,66.6046624450403L184.28380208333334,65.08825870053627L184.45227864583336,65.13949533048263L185.00795572916667,65.71107704743436L185.06263671874999,66.34718809269093L185.48973958333332,66.30571928342182L185.59614583333334,66.43986610507964L186.4754752604167,66.21212949457168L186.55380208333332,66.1399165451145L186.70158854166667,66.40679989060307L186.8464192708333,67.23883865154275L187.26169921874998,67.02523603638848L187.43313151041667,66.61174368274962L187.46860026041665,66.29491306447466L188.07452473958332,66.72329675802719L188.21048828125,65.93068583222447L188.27108072916664,65.59346099900202L188.43512369791668,66.2247398991018L188.57256510416667,65.34370340919163L188.63463541666667,66.32077056827247L189.14449869791667,66.09941226144524L189.83170572916666,65.7508460353007L190.094765625,65.47308955677063L190.54108072916668,65.08206185109357L190.57654947916666,64.19913691598421L190.65192057291665,64.23972322438577L190.68591145833335,64.7187509019472L190.98296223958334,63.661969561752485L191.19577473958336,61.62121010557722L191.44405598958335,61.39965159501949L191.94061848958333,61.056436435517554L192.06771484375,60.797324041965794L192.31304036458334,60.65262288776921L192.5155078125,59.97479809899228L192.76674479166667,59.04947453909304L192.79334635416666,59.42802708518376L192.88645182291668,58.96116187666537L193.41552734375,59.73020193899883L193.57365885416667,60.08493174509893L193.61208333333335,60.88540732058905L193.83967447916666,61.05824158853012L194.31998046875,60.17391742967712L194.34510416666666,59.931150686709415L194.69979166666664,60.752535618038465L194.71604817708334,60.905469556234635L194.76333984375,61.734516350611145L194.90078125,62.50831471555004L195.02048828124998,63.03326449399502L195.16088541666667,63.01343804459552L195.16827473958332,62.243344240135954L195.5643424479167,62.88329106612237L196.22790364583332,62.70146195951013L196.30623046875,62.52675326355913L196.39342447916667,62.3031404372032L196.65500651041668,62.345263893482866L196.67126302083332,61.73048750413459L196.70377604166666,61.42609500372113L197.25649739583332,61.992891753349014L197.91119140625,60.73300882801411L198.04272135416667,60.22967669521269L198.33386067708332,59.815396525691426L199.00924479166665,59.22682562312227L199.39792317708333,59.25576806081004L199.5383203125,58.92228500472902L199.87083984375,58.79915025425615L199.901875,58.27901647883054L200.06444010416666,58.55761483094746L200.55213541666666,58.470947097852715L200.56100260416665,59.55450863806743L200.57873697916665,59.213276524260706L201.08416666666665,58.68491762183463L201.11815755208335,56.931675859651165L201.88221354166666,57.14588327368604L201.92654947916665,57.084232446317415L202.01522135416667,57.70355920168569L202.21177734375,57.98439078151715L202.48961588541664,56.96495170336539L202.9492317708333,56.650362783028854L203.01277994791664,56.53317025472596L203.64087239583333,56.89232197925337L203.87585286458332,57.387027281328045L204.12413411458334,57.05788705319523L204.32216796875,56.65656709787571L204.40640625,56.69916038808813L204.60887369791666,56.96980684927931L204.63547526041665,56.665794914351366L204.74188151041668,56.209652922916234L205.2074088541667,55.450656380624594L205.27686848958334,55.06071574256211L205.31972656250002,54.44980041830591L205.4616015625,54.812632876475305L205.665546875,54.06611958882779L205.70397135416664,54.35116387994499L205.96555338541665,55.210609991950506L206.0320572916667,55.67989274275547L206.12516276041666,55.79802846847993L206.4192578125,55.46185062163191L206.5079296875,56.13832180946871L207.15819010416666,56.77480212852183L208.08776692708335,57.08213441566966L208.95379557291668,56.71710847410269L209.08236979166668,56.97489762669241L209.41932291666666,56.99672036402319L209.69272786458333,56.73426707762084L209.81391276041668,56.249152869858776L210.19076822916665,56.0282688328729L210.92970052083334,56.36600444958562L210.93117838541667,55.165466504627034L211.50902343750002,54.79298235416434L211.76912760416667,54.29180911874788L212.32776041666665,53.3318782068731L212.39722005208336,53.673752886185795L212.42529947916665,52.499065097567225L213.18787760416666,52.11112733781049L213.64305989583332,51.17013960402943L213.75685546875,50.30112564362649L213.7967578125,49.26457557926385L213.88395182291666,49.244336771337444L214.2933203125,48.97168434420371L214.57115885416664,49.627890909783304L215.02781901041666,49.792570568804976L215.35442708333335,49.21065726192451L215.35590494791666,49.41706028573202L215.53916015625,49.42029175715885L215.76970703125002,50.54604383144296L216.44213541666664,49.54031444829866L217.50028645833333,50.07328300346879L218.12690104166668,50.5584859531219L218.95598307291667,50.1876061078097L219.0077083333333,50.05293924702873L219.19835286458334,49.91514532232587L219.92102864583333,49.43713079009328L220.11758463541665,50.20166771108393L220.4471484375,47.99137593997554L220.846171875,47.738925845977974L220.98065755208333,48.39118951138019L221.08706380208332,49.061195560242155L221.15356770833333,49.81907600421795L221.36490234374997,49.64382465379613L221.5673697916667,48.31347343841654L222.34029296875,48.66490734457486L222.72897135416667,48.826322860117386L222.81173177083335,49.85106557410565L223.49154947916668,49.56199026669509L223.75608723958334,49.71666624002559L224.17727864583335,50.121374616023004L224.7950260416667,49.26873715442072L225.08912109374998,49.06555093897863L225.10685546874998,49.78980834508076L225.16744791666667,48.2623275105727L225.41572916666667,48.33678225951542L226.04382161458335,48.652697783563866L226.23594401041666,47.963521755207495L227.35616536458335,48.79798207968676L227.71676432291667,49.17287137171806L227.97095703125,48.40402173454626L227.98277994791667,48.56386956109165L228.00199218749998,48.31501385498248L228.10100911458332,47.98041871948422L228.22662760416665,48.3098455975358L228.37884765625,46.626142287782216L229.0128515625,45.75796555900399L229.3409375,45.988825253103556L229.51680338541667,44.78059897779323L229.68823567708333,44.213132830013905L229.79907552083336,44.64825704701252L231.04934895833333,44.304212592311245L231.40108072916667,45.07869758308013L231.5252213541667,44.038921574772104L231.57103515625002,44.39190441729488L231.71734375,44.52705772556541L231.79567057291666,44.66528945300885L231.82966145833333,44.35826050770797L232.27745442708334,44.104059456937165L232.64100911458334,43.20599726124345L232.76958333333334,44.455366285119084L233.047421875,45.30876715660719L233.63265625,45.57348419094646L233.81295572916665,45.29179202185182L233.90901692708334,46.244081569666605L234.90214192708333,46.276985912699956L234.95977864583332,47.55666232142994L235.20362630208334,46.468214839286986L235.20805989583334,45.5217996053583L235.36027994791667,45.36143214482243L235.4149609375,45.61535143034018L235.92186848958332,45.36819128730619L235.92630208333333,45.11255965857555L236.17458333333332,45.789616192718L236.39330729166667,46.62574832344623L236.54404947916666,45.4367984911016L236.68444661458332,44.68202489199143L236.8455338541667,44.99835365279225L238.5894140625,44.28189328751304L238.63522786458336,44.57739145876175L239.4155403645833,44.06896481288558L239.48204427083334,42.07922458159703L239.52785807291667,42.141427123437325L239.56628255208332,41.627690661093595L239.64017578125,39.953984094984236L239.7953515625,40.306148185485824L240.27565755208335,39.815533366937245L240.9303515625,38.67151128024352L241.25695963541668,39.129797652219196L241.5421875,37.72800538699727L242.17471354166665,37.954298598297555L242.41560546875,38.56727498846777L242.65354166666665,37.64210998962102L242.86339843750002,37.832742740658915L243.19591796875,38.38596846659303L243.62745442708334,38.308621619933746L243.94371744791667,38.42707195794037L244.01465494791665,37.504864762146326L244.28067057291665,37.37181578593169L244.291015625,36.00754045733851L244.9058072916667,36.78200516160467L245.5767578125,38.0542733954442L245.93883463541664,38.55215855589981L246.13243489583334,39.675067700309825L246.17381510416666,39.29181093027884L246.34081380208332,40.10291108725096L246.46643229166665,39.759838728525864L246.97481770833335,40.22544860567328L247.13294921875,39.89224749510595L247.30438151041668,37.32455399559535L247.51423828125,38.35450484603584L247.65463541666668,40.02264811143226L247.74330729166667,39.68760205028903L248.14085286458334,39.49668559526012L248.4600716145833,40.21539203573411L248.48519531250003,40.33675908216071L248.82067057291667,40.772333173944645L249.58916015625002,40.83800610655021L249.59063802083332,39.69129924589515L249.68817708333333,39.22898182130564L250.2438541666667,39.465583639175094L250.69460286458335,39.85552527525758L250.93401692708332,39.27722274773183L250.96505208333335,39.863000472958646L251.32121744791667,37.74626292566279L251.8901953125,37.74394913309652L253.08874348958332,37.96311671978688L253.66215494791666,37.8893362978082L254.16167317708332,38.060777668027356L254.22965494791666,37.74491865122462L254.64345703125002,37.89208303610218L254.92425130208332,40.131937232491936L255.01440104166664,39.81361850924276L255.15627604166667,39.89772540831845L256.10802083333334,38.87270286748662L256.68438802083335,39.59296383073797L256.9504036458333,40.36288619766415L257.0981901041667,39.125410077897754L257.59623046875004,38.11677532010796L257.8844140625,38.3207852880972L257.8858919270833,38.43248800928748L257.88884765625,38.82617670835873L257.89771484375,37.48240278752286L257.9036263020833,37.05291250877059L257.9124934895833,36.08005875789354L257.9139713541667,34.778584132104186L257.91544921875,37.51231946889379L257.9198828125,35.210275022004424L257.9213606770833,34.366372519803974L257.92875,34.917766517823594L257.93170572916665,35.29786486604124L257.9376171875,33.676359629437115L257.93909505208336,34.2801611664934L257.94057291666667,35.454145049844044L257.94205078125,34.923261794859656L257.94352864583334,35.76190436537371L257.94500651041665,35.31087017883635L257.946484375,36.072033160952685L257.9494401041667,36.36436109485743L257.95830729166664,36.60533123537169L257.9627408854167,36.77242311183454L257.97160807291664,36.828774550651076L257.97751953125,39.29111584558598L257.9908203125,37.84553551102738L257.99229817708334,37.58438820992467L257.99377604166665,38.2122306389322L257.99525390625,37.94207007503897L258.00264322916667,37.9035818175351L258.00559895833334,36.92862988578159L258.01298828125,36.63748564720345L258.01742187499997,37.18854958248309L258.0203776041667,36.904600874234774L258.02185546875,35.98529703681132L258.0233333333333,36.50201733313017L258.0248111979167,37.387440599817154L258.03072265625,36.40879028983545L258.04254557291665,35.837755010851936L258.0440234375,33.21088575976674L258.04845703125,32.95964093379004L258.05141276041667,33.834239340411045L258.052890625,34.837096656369965L258.0558463541667,35.125699490732956L258.06323567708336,35.93303579165968L258.070625,35.907388462493714L258.0735807291667,34.982712116244386L258.07653645833335,34.61512840461995L258.08097005208333,34.73233431415795L258.08392578125,35.33563213274215L258.09131510416665,35.16506891946793L258.0957486979167,35.40981202752113L258.10018229166667,36.00067457476902L258.11348307291667,35.28238836729213L258.11496093750003,35.95789953056294L258.11939453125,36.17867207750666L258.123828125,37.101961119756L258.12678385416666,35.194952507780414L258.12826171875,35.16567600700236L258.13712890625,34.76873340630212L258.1415625,35.158203815671925" style="fill: none;" fill="none"></path></g></g></g></g><g opacity="0.2"><g><g><g><path stroke="rgb(255, 112, 67)" stroke-width="2px" d="M30.698203125,152.751L30.701158854166668,154.80692327636717L30.94500651041667,152.8755555395508L31.0085546875,153.53111107910155L31.046979166666667,153.8068966113281L31.1415625,154.75699985595702L31.19919921875,153.40000014404296L31.218411458333335,155.34700014404297L31.344029947916667,154.3303844824219L33.1721484375,153.74586186035157L33.29333333333333,154.11642838623047L33.40121744791667,155.41741943847657L33.47658854166667,154.05103431884766L33.481022135416666,155.583L33.56082682291667,155.21538448242188L33.815019531249995,154.81600014404296L33.82093098958333,154.2951724584961L33.83570963541666,153.76161295898436L33.83866536458333,155.76L33.87265625,152.90516112304687L34.76528645833333,150.45L35.24411458333333,150.45L35.56037760416667,149.675625L35.68599609375,150.0628125L35.762845052083335,149.3990625L35.78501302083333,150.339375L35.798313802083335,149.1778125L36.03625,150.781875L36.3466015625,150.0075L36.48108723958333,150.2840625L36.48699869791667,147.3525L36.869765625,150.6159375L38.12299479166667,146.9653125L38.544186197916666,147.241875L38.63876953125,144.586875L39.02153645833334,144.91875L39.088040364583335,145.1953125L39.17819010416667,146.4121875L39.636328125,145.250625L39.65554036458333,145.1953125L40.14914713541666,145.029375L40.172792968749995,145.5825L41.36395182291666,144.6975L41.50582682291666,145.6378125L41.52356119791667,146.135625L41.536861979166666,147.6290625L41.93736328125,143.37L42.262493489583335,145.36125L42.36151041666667,143.8678125L42.40141276041667,145.7484375L42.82999348958334,144.586875L43.41375,146.578125L43.734446614583334,142.485L43.996028645833334,144.365625L44.337415364583336,144.47625L44.408352864583335,143.038125L44.53249348958333,144.1996875L44.690625000000004,145.0846875L44.958118489583335,145.0846875L45.03053385416667,143.97843749999998L45.20935546875,144.47625L45.27438151041667,142.9275L45.330540364583335,143.2040625L46.09016276041667,143.8125L46.92515625,141.489375L47.05520833333334,143.701875L47.09215494791667,145.6378125L47.33895833333334,141.268125L47.89463541666667,142.0425L47.94931640625,141.6553125L48.39119791666666,140.715L48.70007161458333,140.88093750000002L48.969042968749996,142.485L49.03998046875,142.3190625L49.36215494791667,144.365625L49.60600260416666,140.4384375L50.3922265625,142.3190625L50.79420572916667,140.2171875L50.90061197916667,140.825625L51.14889322916667,139.719375L51.19175130208333,141.37875L51.367617187499995,139.3321875L52.02822265625,138.3365625L52.37404296875,134.851875L52.52478515625,138.8896875L52.79375651041667,140.4384375L53.59623697916667,138.170625L54.0455078125,136.7878125L54.16521484375,135.4603125L54.53172526041667,135.5709375L54.5420703125,133.85625L54.904147135416665,139.940625L54.97212890625,135.958125L55.0208984375,136.2346875L55.17607421875,136.3453125L55.415488281250006,136.621875L55.5706640625,137.83875L55.6859375,134.0775L56.046536458333335,135.4603125L56.0849609375,136.8984375L56.1026953125,133.2478125L56.491373697916664,134.1328125L57.19779296875,136.400625L57.30419921875,136.7878125L57.69731119791667,135.0178125L57.932291666666664,133.745625L57.98106119791667,134.4646875L58.541171874999996,135.958125L58.913593750000004,135.736875L59.206210937499996,133.081875L59.453014322916665,132.3075L59.609667968749996,134.0221875L59.77814453125,135.2390625L59.785533854166665,135.8475L59.83725911458333,134.29874999999998L59.91410807291667,131.97562499999998L60.279140625,133.9115625L60.72545572916667,132.4734375L60.88654296875,131.64375L61.12300130208333,133.60734374999998L62.017109375,134.409375L62.255045572916664,130.426875L62.924518229166665,131.1459375L63.00580078125,130.15031249999998L63.20235677083333,129.43125L63.217135416666665,132.860625L63.71369791666667,128.9334375L64.35213541666667,133.41375L64.37430338541667,132.97125L64.40090494791667,129.20999999999998L64.48514322916667,132.3628125L64.84426432291667,131.3671875L65.69551432291667,129.6525L65.73098307291667,133.3584375L65.88320312500001,131.9203125L65.90389322916667,131.1459375L66.15660807291667,129.20999999999998L66.67386067708334,131.3671875L66.71376302083334,129.099375L67.13199869791666,130.095L67.59752604166667,129.2653125L67.75122395833334,127.993125L67.95960286458333,131.97562499999998L68.01871744791667,128.43562500000002L68.97932942708334,126.83156249999999L69.1906640625,128.8228125L69.26307942708334,133.1371875L69.36061848958335,128.878125L69.5630859375,128.6015625L70.23699218750001,127.993125L70.25620442708333,130.15031249999998L70.48970703125,127.8271875L70.5030078125,123.6234375L70.671484375,126.1678125L70.79414713541667,127.8825L71.05720703125,127.993125L71.27740885416667,127.8271875L71.42076171875,125.1721875L71.54638020833333,125.67L71.55229166666666,128.10375L72.41684244791666,127.771875L72.53359375,131.5884375L72.7020703125,128.1590625L72.79813151041667,127.44L72.87350260416666,125.89125L73.36563151041666,126.555L73.58139973958333,124.3978125L73.63312499999999,124.010625L73.7040625,125.33812499999999L73.81194661458333,126.0571875L73.89322916666667,124.56375L73.95529947916667,126.72093749999999L73.95825520833334,125.2828125L73.97155598958334,129.6525L74.05579427083333,123.67875L74.44890625,126.77625L74.50802083333333,127.21875L74.91147786458333,126.1678125L74.92625651041666,127.2740625L75.1671484375,128.2696875L75.5041015625,123.7340625L75.63267578125,122.79374999999999L75.92233723958334,127.49531250000001L76.03908854166667,123.95531249999999L76.28293619791667,124.674375L76.80610026041667,125.3934375L76.82679036458333,123.8446875L77.01743489583333,123.56812500000001L77.84947265625,125.6146875L78.28248697916668,124.17656249999999L78.28692057291667,125.8359375L78.47165364583334,124.453125L78.57658203125,123.789375L78.616484375,124.12125L78.66820963541666,122.8490625L78.87658854166666,124.010625L79.10565755208333,123.015L79.31847005208334,123.789375L79.34654947916665,124.3425L79.48842447916667,124.231875L79.70567057291666,127.329375L80.33967447916667,125.00625L80.52588541666667,124.95093750000001L80.61751302083334,126.11250000000001L80.62638020833334,120.9684375L80.72391927083332,123.56812500000001L80.81111328125,125.1721875L80.83771484375,125.0615625L80.92047526041667,124.56375L80.9840234375,122.8490625L81.21752604166666,123.7340625L81.32245442708333,121.6321875L81.45250651041667,125.1721875L81.54708984375,121.576875L81.68600911458334,122.461875L81.70817708333334,122.5171875L82.13971354166667,120.249375L82.48996744791667,121.134375L82.87125651041667,125.67L82.94810546875,122.2959375L83.00278645833333,119.41968750000001L83.14022786458332,123.56812500000001L83.56141927083334,120.02812499999999L83.97669921875,123.1809375L84.07128255208333,122.019375L84.11118489583333,124.3978125L84.12891927083334,121.6321875L84.1584765625,121.6875L84.66686197916667,122.57249999999999L85.24175130208333,125.3934375L85.32451171874999,123.56812500000001L85.40136067708333,121.96406250000001L85.44865234375,124.2871875L85.65703125,122.07468750000001L85.79447265625001,121.18968749999999L85.82846354166666,126.0571875L86.26591145833333,122.2959375L86.27625651041666,122.79374999999999L86.34571614583332,118.9771875L86.42552083333334,119.91749999999999L86.48315755208333,122.57249999999999L86.8541015625,119.7515625L87.14080729166668,120.9684375L87.20139973958334,122.240625L87.53244140625,121.96406250000001L87.62554687500001,117.9815625L87.71717447916667,121.355625L87.86052734375,123.56812500000001L87.8915625,120.4153125L88.43098307291666,123.95531249999999L88.55660156249999,124.95093750000001L88.56251302083334,120.9684375L88.67335286458334,122.6278125L88.74133463541668,122.019375L88.91867838541667,122.2959375L88.97779296875001,122.240625L88.98666015625001,120.249375L89.13592447916666,120.6365625L89.29553385416668,122.240625L89.71524739583333,122.18531250000001L89.84677734375,122.68312499999999L89.9576171875,119.0878125L90.14678385416667,123.8446875L90.27831380208333,120.80250000000001L90.29604817708334,123.9L90.4453125,123.45750000000001L90.85172526041666,119.9728125L90.91083984375,119.5303125L91.04089192708332,120.249375L91.06010416666668,119.80687499999999L91.49459635416666,121.46625L91.74731119791667,122.4065625L92.13155598958333,122.6278125L92.13746744791666,121.245L92.19510416666667,123.6234375L92.33254557291666,120.913125L92.36505859375,122.35125L92.85718750000001,119.8621875L93.01384114583334,117.3178125L93.194140625,118.59L94.32470703124999,119.364375L94.50500651041668,117.15187499999999L94.61436848958333,117.5390625L94.72964192708334,120.5259375L95.13457682291666,121.18968749999999L95.23802734374999,120.7471875L95.251328125,118.64531249999999L95.47596354166667,118.258125L95.70059895833333,120.9684375L95.90602213541666,119.8621875L96.00356119791667,123.015L96.19863932291666,121.0790625L96.21932942708334,122.9596875L96.3597265625,114.8840625L96.66268880208332,119.7515625L96.88436848958334,120.913125L97.468125,117.4284375L97.70014973958334,117.5390625L97.82133463541666,118.7559375L97.89522786458333,117.7603125L97.91296223958334,119.8621875L98.07404947916666,117.92625000000001L98.17897786458335,122.9596875L98.33415364583334,121.134375L98.58243489583334,118.8665625L98.58686848958334,119.143125L98.59277994791667,119.30906250000001L98.60755859375,119.30906250000001L99.25338541666667,119.9728125L99.26816406249999,121.5215625L99.37013671875,117.6496875L100.13271484375001,120.249375L100.31744791666667,117.594375L100.75489583333334,118.81125L100.83026692708333,120.470625L100.97953125,116.82L101.03716796875001,116.43281250000001L101.2189453125,118.1475L101.40515624999999,115.87968749999999L101.62388020833333,115.87968749999999L101.84408203125001,114.27562499999999L101.9105859375,116.8753125L101.94309895833334,116.54343750000001L102.07315104166666,117.8709375L102.08497395833334,122.07468750000001L102.49582031249999,118.479375L102.68203125000001,118.700625L102.80321614583333,115.87968749999999L102.81060546875,119.9728125L102.9569140625,115.87968749999999L102.983515625,115.5478125L102.98794921875,115.87968749999999L103.44608723958333,116.266875L103.50815755208333,116.8753125L104.19388671875,115.87968749999999L104.31950520833333,117.5390625L104.51901692708334,113.2246875L104.65793619791667,117.26249999999999L104.74660807291667,117.4284375L104.98602213541668,117.0965625L105.413125,117.6496875L105.46780598958334,115.9903125L105.49145182291666,118.3134375L105.52544270833333,114.82875L105.61263671875001,115.1053125L106.34122395833333,113.169375L106.55551432291666,115.05000000000001L106.69738932291666,116.15625L106.74615885416667,114.82875L106.82891927083334,114.49687499999999L106.92793619791667,116.65406250000001L107.13779296875,114.165L107.31809244791667,116.709375L107.84125651041667,118.3134375L108.00973307291666,113.94375L108.08067057291667,111.51L108.19594401041667,113.88843750000001L108.56541015625001,114.38624999999999L109.18463541666667,115.1053125L109.23931640625,111.6759375L109.28217447916667,116.8753125L109.39005859375,116.709375L109.53784505208333,111.73125L110.00780598958333,114.38624999999999L110.03440755208334,110.293125L110.23539713541668,113.3353125L110.24130859374999,114.82875L110.27529947916666,114.718125L111.05856770833334,115.16062500000001L111.06300130208334,112.3396875L111.59207682291667,112.8375L111.75907552083333,109.408125L111.81966796875,113.94375L111.83149088541667,113.169375L112.3383984375,109.7953125L112.48766276041667,110.9015625L112.64431640625,111.620625L113.20294921874999,111.3440625L113.5266015625,111.73125L113.63891927083334,112.7821875L113.83104166666668,110.84625L113.90050130208334,111.620625L113.99212890625,109.850625L114.00099609374999,111.620625L114.11626953125,107.4721875L114.18868489583333,110.956875L114.60100911458333,110.625L114.88180338541666,111.7865625L115.05323567708332,108.9103125L115.08279296875,105.97875L115.08722656249999,109.7953125L115.71236328125,107.638125L115.75669921875,108.523125L115.77738932291666,110.956875L116.51336588541668,106.5871875L116.64637369791667,111.4546875L116.79711588541667,104.3746875L116.85475260416666,109.9059375L117.00697265625,105.8128125L117.02027343750001,105.5915625L117.67940104166667,109.5740625L117.79171875,112.2290625L117.79910807291667,104.2640625L117.82570963541666,110.735625L117.85083333333333,111.178125L117.9956640625,108.744375L118.11537109375,111.8971875L118.28828125,110.7909375L118.37399739583333,114.939375L118.518828125,105.09375L118.57942057291666,109.74L118.62227864583333,109.9059375L118.69764973958334,105.1490625L119.07893880208333,111.4546875L119.84299479166665,106.1446875L120.168125,107.195625L120.28930989583333,108.1359375L120.3898046875,105.2596875L120.398671875,105.7021875L120.46074218749999,101.99625L120.55236979166666,110.2378125L120.74153645833333,108.6890625L120.89080078125001,105.09375L121.14203776041667,101.3325L121.64894531249999,105.09375L121.90461588541667,98.1796875L122.00806640625,103.2684375L122.17210937499999,102.549375L122.42630208333333,107.638125L122.44551432291667,108.5784375L122.4469921875,104.4853125L122.48393880208333,108.4125L122.952421875,101.3878125L123.37509114583332,106.6978125L123.46080729166665,104.540625L123.92190104166667,105.09375L124.21599609375,104.8725L124.28545572916667,105.425625L124.30319010416667,105.4809375L124.55590494791667,104.319375L124.64901041666666,99.230625L124.81453125,104.65125L124.90024739583333,102.0515625L124.91798177083334,103.545L125.33326171875001,101.7196875L125.50912760416666,97.4053125L125.69386067708334,100.336875L125.74263020833332,97.681875L126.03081380208333,99.12L126.03376953125,103.2684375L126.61013671875,104.3746875L126.6234375,103.7109375L126.63526041666667,103.0471875L126.77417968750001,102.8259375L126.92492187500001,102.4940625L126.98108072916668,96.133125L127.02098307291666,102.66L127.1998046875,98.01375L127.20719401041666,98.124375L127.30029947916667,96.1884375L127.70819010416666,98.8434375L128.12494791666666,101.7196875L128.13677083333334,99.34125L128.63333333333333,98.9540625L128.7515625,102.30046875L128.83432291666668,91.6528125L129.27029296875,99.6178125L129.77867838541667,97.5159375L130.10676432291666,105.868125L130.23977213541667,97.9584375L130.42154947916666,97.7371875L130.68608723958334,100.5028125L130.73190104166667,98.788125L130.84126302083334,100.89L130.86638671875,98.788125L130.98166015625,97.239375L131.06294270833334,97.6265625L131.28018880208333,104.65125L132.50533854166667,97.018125L132.53194010416667,96.2990625L132.54524088541666,97.9584375L132.57775390625,96.2990625L132.86150390625,100.779375L133.16151041666666,85.845L133.486640625,101.3878125L133.51619791666667,93.0909375L133.6226041666667,92.9803125L133.9033984375,102.66L134.02162760416667,89.5509375L134.03788411458333,96.0778125L134.13542317708334,93.81L134.37927083333335,93.920625L134.47237630208332,97.35L134.48419921875,96.5203125L135.01770833333333,97.5159375L135.48027994791667,97.681875L135.61328776041665,93.478125L136.18817708333336,90.380625L136.25615885416664,88.0575L136.87095052083333,93.3675L137.26997395833334,91.3209375L137.30987630208335,89.7721875L137.54929036458336,87.67031250000001L137.60692708333335,97.903125L137.78279296875002,86.6746875L137.87589843749998,94.1971875L137.9113671875,94.47375L137.9143229166667,93.3121875L138.79513020833332,94.4184375L138.842421875,86.95124999999999L138.89266927083335,96.0225L138.96951822916668,90.9890625L139.03158854166668,94.7503125L139.08774739583333,93.256875L139.3301171875,88.1128125L139.39957682291666,87.06187499999999L139.87840494791666,97.903125L140.39861328125002,93.2015625L140.55083333333334,88.7765625L140.77251302083334,89.60625L141.31488932291666,93.6440625L141.49075520833333,90.9890625L142.0612109375,94.1971875L142.42033203124998,93.699375L142.4720572916667,94.805625L142.5577734375,94.4184375L142.74102864583332,90.93375L143.44301432291667,91.708125L143.54055338541667,87.17250000000001L143.985390625,91.7634375L143.98982421875,90.823125L144.51003255208335,92.2059375L144.7272786458333,88.0021875L144.80708333333334,86.6746875L145.53567057291667,88.72125L146.34110677083333,82.4709375L146.55391927083332,88.44468749999999L146.66032552083334,88.9425L146.83619140625,83.079375L146.84801432291667,93.58875L147.00466796875,88.610625L147.10516276041668,84.849375L147.21009114583333,87.75328124999999L147.42142578125,92.4825L147.94015625,78.9309375L148.43080729166667,82.91343749999999L148.631796875,84.73875L148.65839843749998,88.27875L148.75298177083332,92.3165625L149.02490885416665,76.3865625L149.13574869791665,93.7546875L149.31161458333332,81.6965625L149.49930338541668,82.4709375L149.65891276041665,87.615L149.72098307291668,87.2278125L150.05793619791666,92.4271875L150.52494140624998,84.7940625L151.185546875,91.486875L151.27569661458335,87.4490625L151.28751953124998,87.17250000000001L151.36289062499998,80.0925L151.91856770833334,87.17250000000001L152.05896484375,87.06187499999999L152.11216796875,84.90468750000001L152.13138020833333,84.2409375L152.43138671875,87.3384375L152.4535546875,87.0065625L153.18953125,87.17250000000001L153.26785807291668,84.3515625L153.39643229166666,85.67906249999999L153.72599609374998,87.504375L153.952109375,85.734375L153.99053385416667,76.60781250000001L154.19300130208333,87.5596875L154.22255859375,86.3428125L154.32009765625,86.619375L154.55803385416667,85.513125L154.71173177083335,77.49281250000001L155.01173828125,90.823125L155.17725911458334,91.8740625L155.193515625,78.26718749999999L155.59106119791667,79.096875L156.14378255208334,88.44468749999999L156.18959635416667,82.52625L156.23688802083333,83.964375L156.97877604166666,80.36906250000001L157.27434895833332,83.964375L157.33494140625,84.7940625L157.34676432291667,83.68781249999999L157.35119791666665,72.45937500000001L157.48125,79.2628125L157.79751302083332,77.65875L157.80785807291667,84.1303125L157.9866796875,86.6746875L158.13298828125002,84.90468750000001L158.3236328125,88.2234375L158.60886067708333,84.96L158.91625651041667,78.54375L159.14532552083332,85.67906249999999L159.28424479166665,83.68781249999999L159.83696614583334,88.9425L160.01430989583332,79.096875L160.4148111979167,84.849375L161.20103515625,70.35749999999999L161.39906901041667,80.7009375L161.90154296875002,79.0415625L162.01977213541667,70.910625L162.05228515624998,78.9309375L162.12174479166666,78.8203125L162.18233723958332,75.9440625L162.53998046875,77.99062500000001L163.11782552083332,76.11000000000001L163.24048828125,77.0503125L163.741484375,75.33562500000001L163.82720052083334,70.57875000000001L164.64002604166666,81.19875L164.84544921875002,88.389375L165.04939453125,86.7853125L165.3050651041667,77.99062500000001L165.47797526041666,78.3778125L165.73807942708333,75.50156249999999L166.0380859375,77.4375L166.10015625,84.96L166.41494140625002,72.5146875L166.95583984375,72.34875L167.3415625,79.096875L167.70363932291667,66.31968749999999L167.92827473958334,78.0459375L167.98147786458333,72.5146875L167.997734375,73.3996875L168.04059244791668,75.9440625L168.35094401041667,75.8334375L168.5475,86.2321875L168.62287109375,71.35312499999999L169.04554036458333,74.671875L169.08544270833332,77.8246875L169.78299479166665,82.6921875L170.05048828124998,78.433125L170.10073567708332,81.75187500000001L170.98745442708332,78.5990625L171.44559244791668,81.088125L171.64067057291666,79.2075L172.50669921875,67.9790625L172.73429036458333,74.11874999999999L173.19833984375,77.0503125L173.22198567708335,77.38218749999999L173.29883463541668,74.671875L173.68603515625,69.80437500000001L173.70081380208333,70.1915625L174.06732421875,67.20468749999999L174.20624348958333,71.795625L174.36141927083332,70.8L174.50772786458333,80.5903125L174.5254622395833,70.7446875L174.594921875,66.264375L174.67177083333334,71.795625L175.09296223958336,72.9571875L175.85110677083333,82.4709375L176.00776041666668,72.016875L176.2782096354167,70.4128125L176.44520833333334,73.12312499999999L176.723046875,76.22062500000001L176.89300130208332,73.3996875L177.24177734375,71.24249999999999L177.34227213541666,81.973125L177.47823567708335,76.22062500000001L177.85065755208333,69.6384375L178.73442057291666,69.4171875L178.9753125,80.75625000000001L179.24871744791668,76.3865625L179.41276041666666,68.97468749999999L180.18272786458334,62.503125L180.45465494791665,63.388125L180.99703125,68.36625L181.23201171875002,66.8175L181.45221354166668,66.43031250000001L181.50098307291665,63.77531250000001L182.24730468750002,66.31968749999999L182.36996744791665,71.02125L182.43499348958332,59.516250000000014L182.930078125,70.6340625L183.14141276041667,58.575937499999995L183.1694921875,59.405624999999986L183.1872265625,60.345937500000005L183.30988932291666,66.43031250000001L184.0369986979167,69.361875L184.09463541666668,66.20906249999999L184.28380208333334,51.440625L184.45227864583336,65.600625L185.00795572916667,70.8553125L185.06263671874999,72.07218750000001L185.48973958333332,65.9325L185.59614583333334,67.6471875L186.4754752604167,64.16250000000001L186.55380208333332,65.49L186.70158854166667,68.80875L186.8464192708333,74.72718750000001L187.26169921874998,65.1028125L187.43313151041667,62.89031250000001L187.46860026041665,63.44343749999999L188.07452473958332,70.57875000000001L188.21048828125,58.79718749999999L188.27108072916664,62.5584375L188.43512369791668,71.90625L188.57256510416667,57.41437499999999L188.63463541666667,75.114375L189.14449869791667,64.1071875L189.83170572916666,62.613749999999996L190.094765625,62.973281250000014L190.54108072916668,61.56281249999999L190.57654947916666,56.252812500000005L190.65192057291665,64.605L190.68591145833335,69.03L190.98296223958334,54.1509375L191.19577473958336,43.25437500000001L191.44405598958335,59.405624999999986L191.94061848958333,57.9675L192.06771484375,58.465312499999996L192.31304036458334,59.3503125L192.5155078125,53.874374999999986L192.76674479166667,50.721562500000005L192.79334635416666,62.834999999999994L192.88645182291668,54.75937499999999L193.41552734375,66.6515625L193.57365885416667,63.2775L193.61208333333335,68.0896875L193.83967447916666,62.613749999999996L194.31998046875,52.215L194.34510416666666,57.74625L194.69979166666664,68.145L194.71604817708334,62.281875000000014L194.76333984375,69.19593750000001L194.90078125,69.4725L195.02048828124998,67.7578125L195.16088541666667,62.834999999999994L195.16827473958332,55.3125L195.5643424479167,68.6428125L196.22790364583332,61.065L196.30623046875,60.954375L196.39342447916667,60.29062499999999L196.65500651041668,62.724374999999995L196.67126302083332,56.197500000000005L196.70377604166666,58.686562499999994L197.25649739583332,67.09406249999999L197.91119140625,49.394062500000004L198.04272135416667,55.699687499999996L198.33386067708332,56.086875000000006L199.00924479166665,53.9296875L199.39792317708333,59.516250000000014L199.5383203125,55.920937499999994L199.87083984375,57.690937500000004L199.901875,53.5978125L200.06444010416666,61.065L200.55213541666666,57.690937500000004L200.56100260416665,69.30656250000001L200.57873697916665,56.14218749999999L201.08416666666665,53.9296875L201.11815755208335,41.1525L201.88221354166666,59.073750000000004L201.92654947916665,56.52937499999999L202.01522135416667,63.2775L202.21177734375,60.511875L202.48961588541664,47.78999999999999L202.9492317708333,53.8190625L203.01277994791664,55.47843750000001L203.64087239583333,60.12468750000001L203.87585286458332,61.839375000000004L204.12413411458334,54.09562500000001L204.32216796875,53.044687499999995L204.40640625,57.082499999999996L204.60887369791666,59.405624999999986L204.63547526041665,53.9296875L204.74188151041668,52.104375000000005L205.2074088541667,48.6196875L205.27686848958334,51.551249999999996L205.31972656250002,48.951562499999994L205.4616015625,58.078125L205.665546875,47.3475L205.70397135416664,56.9165625L205.96555338541665,62.94562499999999L206.0320572916667,59.903437499999995L206.12516276041666,56.86125000000001L206.4192578125,52.43625L206.5079296875,62.2265625L207.15819010416666,62.503125L208.08776692708335,59.848124999999996L208.95379557291668,53.431875000000005L209.08236979166668,59.29499999999999L209.41932291666666,57.193124999999995L209.69272786458333,54.372187499999995L209.81391276041668,51.88312499999999L210.19076822916665,54.0403125L210.92970052083334,59.405624999999986L210.93117838541667,44.360625L211.50902343750002,51.440625L211.76912760416667,49.78125L212.32776041666665,44.692499999999995L212.39722005208336,56.750625000000014L212.42529947916665,41.926874999999995L213.18787760416666,48.6196875L213.64305989583332,42.70124999999999L213.75685546875,42.47999999999999L213.7967578125,39.93562499999999L213.88395182291666,49.06218750000001L214.2933203125,46.51781249999999L214.57115885416664,55.53375L215.02781901041666,51.2746875L215.35442708333335,43.97343749999999L215.35590494791666,51.2746875L215.53916015625,49.449375L215.76970703125002,60.67781249999999L216.44213541666664,40.48875000000001L217.50028645833333,54.870000000000005L218.12690104166668,54.925312500000004L218.95598307291667,46.84968749999999L219.0077083333333,48.840937499999995L219.19835286458334,48.67500000000001L219.92102864583333,45.13499999999999L220.11758463541665,57.082499999999996L220.4471484375,28.098749999999995L220.846171875,45.46687499999999L220.98065755208333,54.2615625L221.08706380208332,55.09125L221.15356770833333,56.639999999999986L221.36490234374997,48.0665625L221.5673697916667,36.34031250000001L222.34029296875,51.82781250000001L222.72897135416667,50.279062499999995L222.81173177083335,59.073750000000004L223.49154947916668,46.960312499999986L223.75608723958334,51.108749999999986L224.17727864583335,53.76374999999999L224.7950260416667,41.595L225.08912109374998,47.236875L225.10685546874998,56.308125000000004L225.16744791666667,34.514999999999986L225.41572916666667,49.006874999999994L226.04382161458335,51.4959375L226.23594401041666,41.76093750000001L227.35616536458335,56.308125000000004L227.71676432291667,52.546875L227.97095703125,41.484375L227.98277994791667,50.0025L228.00199218749998,46.075312499999995L228.10100911458332,44.96906250000001L228.22662760416665,51.2746875L228.37884765625,31.472812500000003L229.0128515625,37.94437500000001L229.3409375,48.0665625L229.51680338541667,33.90656250000001L229.68823567708333,39.10593750000001L229.79907552083336,48.56437500000001L231.04934895833333,41.20781249999999L231.40108072916667,52.049062500000005L231.5252213541667,34.6809375L231.57103515625002,47.568749999999994L231.71734375,45.7434375L231.79567057291666,45.90937500000001L231.82966145833333,41.595L232.27745442708334,41.81625L232.64100911458334,35.123437499999994L232.76958333333334,55.699687499999996L233.047421875,52.989374999999995L233.63265625,47.955937500000005L233.81295572916665,42.7565625L233.90901692708334,54.814687500000005L234.90214192708333,46.573125000000005L234.95977864583332,59.073750000000004L235.20362630208334,36.67218750000001L235.20805989583334,37.0040625L235.36027994791667,43.918125L235.4149609375,47.90062499999999L235.92186848958332,43.14375000000001L235.92630208333333,42.811874999999986L236.17458333333332,51.88312499999999L236.39330729166667,54.1509375L236.54404947916666,34.73625000000001L236.68444661458332,37.889062499999994L236.8455338541667,47.845312500000006L238.5894140625,37.83375000000001L238.63522786458336,47.236875L239.4155403645833,39.49312499999999L239.48204427083334,24.171562499999993L239.52785807291667,42.70124999999999L239.56628255208332,37.0040625L239.64017578125,24.890625L239.7953515625,43.47562500000001L240.27565755208335,35.400000000000006L240.9303515625,28.375312500000007L241.25695963541668,43.25437500000001L241.5421875,25.111874999999998L242.17471354166665,39.9909375L242.41560546875,44.08406249999999L242.65354166666665,29.31562500000001L242.86339843750002,39.548437500000006L243.19591796875,43.36500000000001L243.62745442708334,37.61250000000001L243.94371744791667,39.49312499999999L244.01465494791665,29.205000000000013L244.28067057291665,36.174375L244.291015625,23.729062499999998L244.9058072916667,43.75218749999999L245.5767578125,49.5046875L245.93883463541664,43.03312500000001L246.13243489583334,49.78125L246.17381510416666,35.8425L246.34081380208332,47.40281250000001L246.46643229166665,36.67218750000001L246.97481770833335,44.41593750000001L247.13294921875,36.893437500000005L247.30438151041668,14.21531250000001L247.51423828125,47.62406250000001L247.65463541666668,55.0359375L247.74330729166667,36.67218750000001L248.14085286458334,37.778437499999995L248.4600716145833,46.68375L248.48519531250003,41.429062499999986L248.82067057291667,44.692499999999995L249.58916015625002,41.429062499999986L249.59063802083332,29.370937499999997L249.68817708333333,35.06812500000001L250.2438541666667,41.595L250.69460286458335,43.36500000000001L250.93401692708332,34.07249999999999L250.96505208333335,45.13499999999999L251.32121744791667,18.695625000000007L251.8901953125,37.72312500000001L253.08874348958332,39.93562499999999L253.66215494791666,37.2253125L254.16167317708332,39.60374999999999L254.22965494791666,34.9021875L254.64345703125002,39.21656250000001L254.92425130208332,60.29062499999999L255.01440104166664,36.94874999999999L255.15627604166667,40.654687499999994L256.10802083333334,29.647500000000008L256.68438802083335,46.075312499999995L256.9504036458333,47.29218750000001L257.0981901041667,27.988124999999997L257.59623046875004,29.0390625L257.8844140625,40.156875000000014L257.8858919270833,39.43781250000001L257.88884765625,42.36937499999999L257.89771484375,25.38843750000001L257.9036263020833,33.1875L257.9124934895833,27.324375000000003L257.9139713541667,23.065312500000005L257.91544921875,62.1159375L257.9198828125,14.491874999999993L257.9213606770833,26.77125000000001L257.92875,39.8803125L257.93170572916665,38.71875L257.9376171875,19.08281249999999L257.93909505208336,39.71437499999999L257.94057291666667,46.02000000000001L257.94205078125,30.14531249999999L257.94352864583334,43.309687499999995L257.94500651041665,31.251562500000006L257.946484375,42.922500000000014L257.9494401041667,38.99531250000001L257.95830729166664,38.774062500000014L257.9627408854167,38.276250000000005L257.97160807291664,37.3359375L257.97751953125,61.452187499999994L257.9908203125,24.835312499999986L257.99229817708334,35.23406249999999L257.99377604166665,43.86281249999999L257.99525390625,35.510625000000005L258.00264322916667,37.5571875L258.00559895833334,28.15406250000001L258.01298828125,34.017187500000006L258.01742187499997,42.14812499999999L258.0203776041667,34.3490625L258.02185546875,27.711562500000014L258.0233333333333,41.1525L258.0248111979167,45.35624999999999L258.03072265625,27.600937499999986L258.04254557291665,30.69843750000001L258.0440234375,9.569062500000001L258.04845703125,30.69843750000001L258.05141276041667,41.705625L258.052890625,43.86281249999999L258.0558463541667,37.72312500000001L258.06323567708336,43.1990625L258.070625,35.67656249999999L258.0735807291667,26.66062500000001L258.07653645833335,31.30687499999999L258.08097005208333,35.78718749999999L258.08392578125,40.76531249999999L258.09131510416665,33.629999999999995L258.0957486979167,37.61250000000001L258.10018229166667,41.31843749999999L258.11348307291667,28.817812500000002L258.11496093750003,42.037499999999994L258.11939453125,38.165625000000006L258.123828125,45.4115625L258.12678385416666,18.031875000000014L258.12826171875,34.9021875L258.13712890625,31.196249999999992L258.1415625,38.663437499999986" style="fill: none;" fill="none"></path></g></g></g></g></g></g><g transform="translate(63, 177)" clip-path="url(#clip_1)"><clipPath id="clip_1"><rect width="266" height="23"></rect></clipPath><g><g><line x1="0" y1="0" x2="0" y2="5" style="visibility: inherit;" fill="rgb(0, 0, 0)" stroke="rgb(204, 204, 204)" stroke-width="1px"></line><line x1="29.557291666666664" y1="0" x2="29.557291666666664" y2="5" style="visibility: inherit;" fill="rgb(0, 0, 0)" stroke="rgb(204, 204, 204)" stroke-width="1px"></line><line x1="59.11458333333333" y1="0" x2="59.11458333333333" y2="5" style="visibility: inherit;" fill="rgb(0, 0, 0)" stroke="rgb(204, 204, 204)" stroke-width="1px"></line><line x1="88.671875" y1="0" x2="88.671875" y2="5" style="visibility: inherit;" fill="rgb(0, 0, 0)" stroke="rgb(204, 204, 204)" stroke-width="1px"></line><line x1="118.22916666666666" y1="0" x2="118.22916666666666" y2="5" style="visibility: inherit;" fill="rgb(0, 0, 0)" stroke="rgb(204, 204, 204)" stroke-width="1px"></line><line x1="147.78645833333334" y1="0" x2="147.78645833333334" y2="5" style="visibility: inherit;" fill="rgb(0, 0, 0)" stroke="rgb(204, 204, 204)" stroke-width="1px"></line><line x1="177.34375" y1="0" x2="177.34375" y2="5" style="visibility: inherit;" fill="rgb(0, 0, 0)" stroke="rgb(204, 204, 204)" stroke-width="1px"></line><line x1="206.90104166666666" y1="0" x2="206.90104166666666" y2="5" style="visibility: inherit;" fill="rgb(0, 0, 0)" stroke="rgb(204, 204, 204)" stroke-width="1px"></line><line x1="236.45833333333331" y1="0" x2="236.45833333333331" y2="5" style="visibility: inherit;" fill="rgb(0, 0, 0)" stroke="rgb(204, 204, 204)" stroke-width="1px"></line><line x1="266.015625" y1="0" x2="266.015625" y2="5" style="visibility: inherit;" fill="rgb(0, 0, 0)" stroke="rgb(204, 204, 204)" stroke-width="1px"></line></g><g transform="translate(0, 8)"><text x="0" y="0" dx="0em" dy="0.95em" style="text-anchor: middle; visibility: hidden; font-family: &quot;Helvetica Neue&quot;, sans-serif; font-size: 12px; font-weight: 200;" fill="rgb(50, 49, 63)" stroke="none" stroke-width="1px">-20k</text><text x="29.557291666666664" y="0" dx="0em" dy="0.95em" style="text-anchor: middle; visibility: inherit; font-family: &quot;Helvetica Neue&quot;, sans-serif; font-size: 12px; font-weight: 200;" fill="rgb(50, 49, 63)" stroke="none" stroke-width="1px">0</text><text x="59.11458333333333" y="0" dx="0em" dy="0.95em" style="text-anchor: middle; visibility: inherit; font-family: &quot;Helvetica Neue&quot;, sans-serif; font-size: 12px; font-weight: 200;" fill="rgb(50, 49, 63)" stroke="none" stroke-width="1px">20k</text><text x="88.671875" y="0" dx="0em" dy="0.95em" style="text-anchor: middle; visibility: inherit; font-family: &quot;Helvetica Neue&quot;, sans-serif; font-size: 12px; font-weight: 200;" fill="rgb(50, 49, 63)" stroke="none" stroke-width="1px">40k</text><text x="118.22916666666666" y="0" dx="0em" dy="0.95em" style="text-anchor: middle; visibility: inherit; font-family: &quot;Helvetica Neue&quot;, sans-serif; font-size: 12px; font-weight: 200;" fill="rgb(50, 49, 63)" stroke="none" stroke-width="1px">60k</text><text x="147.78645833333334" y="0" dx="0em" dy="0.95em" style="text-anchor: middle; visibility: inherit; font-family: &quot;Helvetica Neue&quot;, sans-serif; font-size: 12px; font-weight: 200;" fill="rgb(50, 49, 63)" stroke="none" stroke-width="1px">80k</text><text x="177.34375" y="0" dx="0em" dy="0.95em" style="text-anchor: middle; visibility: inherit; font-family: &quot;Helvetica Neue&quot;, sans-serif; font-size: 12px; font-weight: 200;" fill="rgb(50, 49, 63)" stroke="none" stroke-width="1px">100k</text><text x="206.90104166666666" y="0" dx="0em" dy="0.95em" style="text-anchor: middle; visibility: inherit; font-family: &quot;Helvetica Neue&quot;, sans-serif; font-size: 12px; font-weight: 200;" fill="rgb(50, 49, 63)" stroke="none" stroke-width="1px">120k</text><text x="236.45833333333331" y="0" dx="0em" dy="0.95em" style="text-anchor: middle; visibility: inherit; font-family: &quot;Helvetica Neue&quot;, sans-serif; font-size: 12px; font-weight: 200;" fill="rgb(50, 49, 63)" stroke="none" stroke-width="1px">140k</text><text x="266.015625" y="0" dx="0em" dy="0.95em" style="text-anchor: middle; visibility: hidden; font-family: &quot;Helvetica Neue&quot;, sans-serif; font-size: 12px; font-weight: 200;" fill="rgb(50, 49, 63)" stroke="none" stroke-width="1px">160k</text></g><line x1="0" y1="0" x2="266.015625" y2="0" fill="rgb(0, 0, 0)" stroke="rgb(204, 204, 204)" stroke-width="1px"></line></g></g></g></g></svg>