<svg viewBox="0 0 330 200" xmlns="http://www.w3.org/2000/svg"><g><g><g><g><g><line x1="61.953125" y1="177" x2="56.953125" y2="177" style="visibility: inherit;" fill="rgb(0, 0, 0)" stroke="rgb(204, 204, 204)" stroke-width="1px"></line><line x1="61.953125" y1="157.33333333333331" x2="56.953125" y2="157.33333333333331" style="visibility: inherit;" fill="rgb(0, 0, 0)" stroke="rgb(204, 204, 204)" stroke-width="1px"></line><line x1="61.953125" y1="137.66666666666666" x2="56.953125" y2="137.66666666666666" style="visibility: inherit;" fill="rgb(0, 0, 0)" stroke="rgb(204, 204, 204)" stroke-width="1px"></line><line x1="61.953125" y1="118.00000000000001" x2="56.953125" y2="118.00000000000001" style="visibility: inherit;" fill="rgb(0, 0, 0)" stroke="rgb(204, 204, 204)" stroke-width="1px"></line><line x1="61.953125" y1="98.33333333333334" x2="56.953125" y2="98.33333333333334" style="visibility: inherit;" fill="rgb(0, 0, 0)" stroke="rgb(204, 204, 204)" stroke-width="1px"></line><line x1="61.953125" y1="78.66666666666666" x2="56.953125" y2="78.66666666666666" style="visibility: inherit;" fill="rgb(0, 0, 0)" stroke="rgb(204, 204, 204)" stroke-width="1px"></line><line x1="61.953125" y1="59.00000000000001" x2="56.953125" y2="59.00000000000001" style="visibility: inherit;" fill="rgb(0, 0, 0)" stroke="rgb(204, 204, 204)" stroke-width="1px"></line><line x1="61.953125" y1="39.33333333333333" x2="56.953125" y2="39.33333333333333" style="visibility: inherit;" fill="rgb(0, 0, 0)" stroke="rgb(204, 204, 204)" stroke-width="1px"></line><line x1="61.953125" y1="19.666666666666675" x2="56.953125" y2="19.666666666666675" style="visibility: inherit;" fill="rgb(0, 0, 0)" stroke="rgb(204, 204, 204)" stroke-width="1px"></line><line x1="61.953125" y1="0" x2="56.953125" y2="0" style="visibility: inherit;" fill="rgb(0, 0, 0)" stroke="rgb(204, 204, 204)" stroke-width="1px"></line></g><g transform="translate(51.953125, 0)"><text x="0" y="177" dx="0em" dy="0.3em" style="text-anchor: end; visibility: hidden; font-family: Roboto, sans-serif; font-size: 12px; font-weight: 200;" fill="rgb(33, 33, 33)" stroke="none" stroke-width="1px">-1e+4</text><text x="0" y="157.33333333333331" dx="0em" dy="0.3em" style="text-anchor: end; visibility: inherit; font-family: Roboto, sans-serif; font-size: 12px; font-weight: 200;" fill="rgb(33, 33, 33)" stroke="none" stroke-width="1px">0</text><text x="0" y="137.66666666666666" dx="0em" dy="0.3em" style="text-anchor: end; visibility: hidden; font-family: Roboto, sans-serif; font-size: 12px; font-weight: 200;" fill="rgb(33, 33, 33)" stroke="none" stroke-width="1px">1e+4</text><text x="0" y="118.00000000000001" dx="0em" dy="0.3em" style="text-anchor: end; visibility: inherit; font-family: Roboto, sans-serif; font-size: 12px; font-weight: 200;" fill="rgb(33, 33, 33)" stroke="none" stroke-width="1px">2e+4</text><text x="0" y="98.33333333333334" dx="0em" dy="0.3em" style="text-anchor: end; visibility: hidden; font-family: Roboto, sans-serif; font-size: 12px; font-weight: 200;" fill="rgb(33, 33, 33)" stroke="none" stroke-width="1px">3e+4</text><text x="0" y="78.66666666666666" dx="0em" dy="0.3em" style="text-anchor: end; visibility: inherit; font-family: Roboto, sans-serif; font-size: 12px; font-weight: 200;" fill="rgb(33, 33, 33)" stroke="none" stroke-width="1px">4e+4</text><text x="0" y="59.00000000000001" dx="0em" dy="0.3em" style="text-anchor: end; visibility: hidden; font-family: Roboto, sans-serif; font-size: 12px; font-weight: 200;" fill="rgb(33, 33, 33)" stroke="none" stroke-width="1px">5e+4</text><text x="0" y="39.33333333333333" dx="0em" dy="0.3em" style="text-anchor: end; visibility: inherit; font-family: Roboto, sans-serif; font-size: 12px; font-weight: 200;" fill="rgb(33, 33, 33)" stroke="none" stroke-width="1px">6e+4</text><text x="0" y="19.666666666666675" dx="0em" dy="0.3em" style="text-anchor: end; visibility: hidden; font-family: Roboto, sans-serif; font-size: 12px; font-weight: 200;" fill="rgb(33, 33, 33)" stroke="none" stroke-width="1px">7e+4</text><text x="0" y="0" dx="0em" dy="0.3em" style="text-anchor: end; visibility: hidden; font-family: Roboto, sans-serif; font-size: 12px; font-weight: 200;" fill="rgb(33, 33, 33)" stroke="none" stroke-width="1px">8e+4</text></g><line x1="61.953125" y1="0" x2="61.953125" y2="177" fill="rgb(0, 0, 0)" stroke="rgb(204, 204, 204)" stroke-width="1px"></line></g></g><g transform="translate(61, 0)" clip-path="url(#clip_0)"><clipPath id="clip_0"><rect width="268" height="177"></rect></clipPath><g><g><g><line x1="0" y1="0" x2="0" y2="177" fill="rgb(0, 0, 0)" stroke="rgb(66, 66, 66)" stroke-width="1px" opacity="0.25"></line><line x1="26.8046875" y1="0" x2="26.8046875" y2="177" fill="rgb(0, 0, 0)" stroke="rgb(66, 66, 66)" stroke-width="1px" opacity="0.25"></line><line x1="53.609375" y1="0" x2="53.609375" y2="177" fill="rgb(0, 0, 0)" stroke="rgb(66, 66, 66)" stroke-width="1px" opacity="0.25"></line><line x1="80.4140625" y1="0" x2="80.4140625" y2="177" fill="rgb(0, 0, 0)" stroke="rgb(66, 66, 66)" stroke-width="1px" opacity="0.25"></line><line x1="107.21875" y1="0" x2="107.21875" y2="177" fill="rgb(0, 0, 0)" stroke="rgb(66, 66, 66)" stroke-width="1px" opacity="0.25"></line><line x1="134.0234375" y1="0" x2="134.0234375" y2="177" fill="rgb(0, 0, 0)" stroke="rgb(66, 66, 66)" stroke-width="1px" opacity="0.25"></line><line x1="160.828125" y1="0" x2="160.828125" y2="177" fill="rgb(0, 0, 0)" stroke="rgb(66, 66, 66)" stroke-width="1px" opacity="0.25"></line><line x1="187.6328125" y1="0" x2="187.6328125" y2="177" fill="rgb(0, 0, 0)" stroke="rgb(66, 66, 66)" stroke-width="1px" opacity="0.25"></line><line x1="214.4375" y1="0" x2="214.4375" y2="177" fill="rgb(0, 0, 0)" stroke="rgb(66, 66, 66)" stroke-width="1px" opacity="0.25"></line><line x1="241.2421875" y1="0" x2="241.2421875" y2="177" fill="rgb(0, 0, 0)" stroke="rgb(66, 66, 66)" stroke-width="1px" opacity="0.25"></line><line x1="268.046875" y1="0" x2="268.046875" y2="177" fill="rgb(0, 0, 0)" stroke="rgb(66, 66, 66)" stroke-width="1px" opacity="0.25"></line></g><g><line x1="0" y1="177" x2="268.046875" y2="177" fill="rgb(0, 0, 0)" stroke="rgb(66, 66, 66)" stroke-width="1px" opacity="0.25"></line><line x1="0" y1="157.33333333333331" x2="268.046875" y2="157.33333333333331" fill="rgb(0, 0, 0)" stroke="rgb(66, 66, 66)" stroke-width="1px" opacity="0.25"></line><line x1="0" y1="137.66666666666666" x2="268.046875" y2="137.66666666666666" fill="rgb(0, 0, 0)" stroke="rgb(66, 66, 66)" stroke-width="1px" opacity="0.25"></line><line x1="0" y1="118.00000000000001" x2="268.046875" y2="118.00000000000001" fill="rgb(0, 0, 0)" stroke="rgb(66, 66, 66)" stroke-width="1px" opacity="0.25"></line><line x1="0" y1="98.33333333333334" x2="268.046875" y2="98.33333333333334" fill="rgb(0, 0, 0)" stroke="rgb(66, 66, 66)" stroke-width="1px" opacity="0.25"></line><line x1="0" y1="78.66666666666666" x2="268.046875" y2="78.66666666666666" fill="rgb(0, 0, 0)" stroke="rgb(66, 66, 66)" stroke-width="1px" opacity="0.25"></line><line x1="0" y1="59.00000000000001" x2="268.046875" y2="59.00000000000001" fill="rgb(0, 0, 0)" stroke="rgb(66, 66, 66)" stroke-width="1px" opacity="0.25"></line><line x1="0" y1="39.33333333333333" x2="268.046875" y2="39.33333333333333" fill="rgb(0, 0, 0)" stroke="rgb(66, 66, 66)" stroke-width="1px" opacity="0.25"></line><line x1="0" y1="19.666666666666675" x2="268.046875" y2="19.666666666666675" fill="rgb(0, 0, 0)" stroke="rgb(66, 66, 66)" stroke-width="1px" opacity="0.25"></line><line x1="0" y1="0" x2="268.046875" y2="0" fill="rgb(0, 0, 0)" stroke="rgb(66, 66, 66)" stroke-width="1px" opacity="0.25"></line></g></g></g><g><g><line x1="0" y1="157.33333333333331" x2="268.046875" y2="157.33333333333331" fill="rgb(0, 0, 0)" stroke="rgb(153, 153, 153)" stroke-width="1.5px"></line></g></g><g><g><line x1="26.8046875" y1="0" x2="26.8046875" y2="177" fill="rgb(0, 0, 0)" stroke="rgb(153, 153, 153)" stroke-width="1.5px"></line></g></g><g><g><g><g><g><path stroke="rgb(255, 112, 67)" stroke-width="2px" d="M27.331399609375,156.57616666666667L27.43459765625,156.64377083333332L27.45068046875,156.65342857142858L27.453360937499998,156.62786397058824L27.561919921875,156.64297328244274L27.57398203125,156.4787905254207L27.5927453125,156.48325255691046L27.618209765625,156.51225194585624L27.620890234375,156.51622453539682L27.647694921875,156.4532874983757L27.6677984375,156.27997037627554L27.757594140625,156.31198524850703L27.772336718749997,156.30515556239348L27.8179046875,156.31838370355834L27.820585156249997,156.2562676827814L27.909040625,156.21744299012965L28.060487109375,156.37826634943346L28.136880468749997,156.44012609213289L28.329874218750003,156.45993019539537L28.33523515625,156.4112363369126L28.412968749999997,156.5550916245606L28.419669921875,156.59380881767197L28.51214609375,156.54348489317994L28.51750703125,156.59117116186368L28.572456640625,156.6457428522671L28.60864296875,156.57031891603415L28.609983203124997,156.44128455088838L28.938340625,156.31273065158882L28.958444140625,156.31426505818533L28.969166015625,156.3151857017814L29.002671875,156.27247141540303L29.052260546874997,156.29876285133426L29.05360078125,156.27992437656766L29.104529687499998,156.32486796056162L29.14205625,156.43404077821373L29.172881640625,156.44762446706835L29.289482031250003,156.44712134690457L29.452990625,156.48143280827014L29.473094140624998,156.48471301830273L29.482475781250002,156.5559078110768L29.494537890624997,156.5813180199998L29.526703515625,156.50059081196102L29.53608515625,156.37348782047326L29.56825078125,156.37589269228437L29.650005078125,156.33485561536637L29.695573046874998,156.20482003587836L29.71299609375,156.15275868819174L29.800111328125,156.12860187958117L29.876504687500002,156.16052112774912L30.00248671875,156.26463267665034L30.069498437500002,156.20201960598988L30.089601953124998,156.1038784302603L30.09898359375,156.0512870581561L30.23300703125,155.88442556822682L30.2946578125,155.8574686742694L30.4340421875,155.74925453789493L30.440743359375,155.80547272273697L30.443423828125,155.83133696697553L30.675284375,155.7839221801853L30.748997265625,155.7625533081112L30.992919921875,155.38550531820002L31.3239578125,154.97362319092L31.467362890625,155.078133914552L32.343876171874996,154.3124803487312L32.4175890625,152.9610082092387L32.480580078125,153.37417825887655L32.741925781249996,153.30820028865926L32.791514453125,153.32132017319557L32.9000734375,152.51105877058401L33.016673828125,152.1008152623504L33.019354296875,151.6595758240769L33.042138281250004,151.6280788277795L33.33698984375,150.51492729666768L33.378537109374996,150.42248304466727L33.534004296875,150.67420982680036L33.930713671875,149.82696589608022L34.35556796875,148.49183287098148L34.539180078125,146.15832638925554L34.708049609374996,144.66342916688666L34.9157859375,144.41903083346534L35.285690625,144.56778516674586L35.33125859375,144.61731110004752L35.3339390625,146.14129999336186L35.4947671875,145.38245332935045L35.593944531249996,144.15463866427694L35.707864453125,144.4728698652328L35.89951796875,145.98776858580635L36.001375781250005,146.0699211514838L36.262721484375,147.93759269089028L36.313650390625,147.24571561453416L36.33911484375,146.74287603538716L36.36055859375,146.86636562123232L36.382002343749996,147.45375937273937L36.696957421875,147.5135556236436L37.078924218750004,149.2938667075195L37.430065625,147.9049000245117L37.45418984375,146.66835334804034L37.60429609375,147.8435320088242L37.75440234375,147.03115920529453L37.979561718750006,145.63395552317672L38.010387109374996,146.48145998057268L38.05461484375,149.10530932167694L38.10554375,149.5715989263395L38.141730078125,149.2102393558037L38.311939843750004,149.96495694681556L38.535758984375,148.04441416808933L38.56926484375,147.6826885008536L38.782362109375,149.81621310051216L38.9257671875,149.53754786030728L38.991438671875,149.4450820495177L39.195154296874996,149.02734256304396L39.3010328125,148.2515988711597L39.402890625,147.1139459893625L39.484644921874995,146.9214475936175L39.586502734375,147.66656188950384L39.712484765625,149.2000171337023L39.827744921875,150.2821436135547L39.95908789062501,148.86759950146617L39.991253515625,147.658973034213L40.328992578125,147.22211048719447L40.57961640625,148.12819295898336L40.68147421875,148.41932244205668L40.811476953125,148.3509201319007L40.8717875,147.96256541247374L41.34623046875,146.12081924748426L41.763043359375,146.02506488182388L41.872942578125,147.16727892909432L41.937273828125,145.4336073574566L42.049853515624996,145.13719774780728L42.100782421875,145.91554531535104L42.245527734374996,143.4360938558773L42.607391015625005,144.13732298019303L42.650278515625004,144.60093378811584L43.14750546875,144.23403360620281L43.502667578125,141.54336683038838L44.097731640625,142.82508009823303L44.19556875,140.52060139227314L44.688775,141.30360750203053L44.69681640625,140.58397116788498L44.71021875,139.772622700731L44.714239453124996,142.22598028710527L44.742384375,142.36105483892982L45.057339453124996,141.62278623669124L45.269096484375005,141.70689174201473L45.3267265625,142.94522171187552L45.610856250000005,141.70306636045862L45.7127140625,140.83426648294184L45.770344140625,140.54662655643176L45.814571875,142.47090260052573L45.939213671875,139.50844822698213L46.046432421875,138.69503560285594L46.0987015625,141.89291469504687L46.163032812500006,140.42032215036147L46.306437890625,140.5869666235502L46.751395703125,141.97197330746346L46.908203125,140.28053065114474L47.603784765625,137.8705117240202L47.619867578125,139.58178703441212L47.70966328125,141.8408655539806L47.713683984375,141.1419326657217L47.913378906249996,140.35126626609969L48.295345703125,139.3592397596598L48.462875,141.73447718912922L48.537928125,143.7901329801442L48.590197265625,143.61381978808652L48.859584375,142.7658118728519L48.8649453125,141.60604045704446L49.011030859375005,141.16033760756002L49.04989765625,141.555682564536L49.262994921875,140.00597620538827L49.525680859375,141.6469790565663L50.8377703125,143.07801410060642L51.297470703125,137.14534179369718L51.300151171875,135.40372507621834L51.809440234375,137.95303504573099L51.986351171875,138.43556769410526L52.159241406250004,139.3622872831298L52.38440078125,139.35152570321122L52.40584453125,140.51916875526007L52.547909374999996,137.58496125315605L52.680592578124994,138.98605008522696L52.7033765625,138.7918433844695L52.814616015625,137.1055260306817L52.994207421875,135.9694422850757L53.102766406250005,131.24943870437875L53.208644921875,132.7397765559606L53.27431640625,134.23813926690968L53.573188671874995,138.42503022681248L53.817111328125,136.76271813608747L55.0407453125,134.3127508816525L55.5768390625,137.02665719565817L55.6197265625,135.39820098406156L56.119633984375,138.2372472571036L56.13169609375,136.53991502092885L56.186645703125,134.64359567922395L56.288503515624996,133.90307074086772L56.4453109375,135.48009577785396L56.575313671875,129.0843508000457L56.61418046875,132.20143048002743L56.756245312500006,135.74767162134978L57.232028515625004,134.3861563061432L57.509457031249994,136.27144711701928L57.622036718749996,133.5817816035449L57.6247171875,136.65769562879362L57.695749609375,134.70482404394284L57.761421093749995,134.33432109303234L57.887403125000006,132.82424598915276L58.15813046875,132.88068759349164L58.588345703125,134.03397922276164L58.666079296875004,136.98565420032367L58.770617578125,135.29217918686086L58.7987625,134.06762751211653L59.140522265625,132.0608565072699L59.652491796875,134.79681390436195L59.891053515624996,138.70870834261717L60.21405,143.02919833890363L60.258277734375,143.38067233667553L60.44188984375,140.188830068672L60.590655859375,139.4002313745365L60.90293046875,136.8888188247219L61.574387890625,133.95928462816647L61.810269140624996,134.15879077689988L62.038108984375,133.69439446613993L62.2297625,133.04995667968396L62.38254921875,135.77574067447705L62.402652734375,137.81398440468624L62.458942578125,139.05384397614506L62.5728625,134.80596638568704L63.31535234375,132.7607064980789L63.387724999999996,131.47927056551399L63.974747656249995,131.97792567264173L64.50548046875,132.6863820702517L64.760125,129.00820257548435L64.831157421875,126.31552821195727L65.17023671875,124.21848359384103L65.3444671875,132.52415682297126L65.498594140625,135.97238076044943L65.554883984375,135.10547512293633L65.635298046875,133.10993840709514L65.650040625,128.2168563775904L65.72911445312499,125.61848715988756L66.179433203125,130.77681229593253L66.216959765625,126.69347404422619L66.66057734374999,128.90761775986905L67.2744046875,127.62358398925477L67.36286015625,123.11649706021952L67.833282421875,124.29326490279838L68.45515117187499,127.1764256083457L68.57845273437499,132.25673536500744L68.71381640625,134.79280121900445L69.208362890625,136.06585406473602L69.974976953125,135.4534124388416L70.07147382812501,136.05630079663828L70.516431640625,131.91436714464965L71.05520585937501,133.46559362012312L71.13696015625,128.74688283874056L71.15974414062501,125.21512970324433L71.422430078125,124.41925115527994L71.48274062499999,127.66737735983462L71.513566015625,130.72702641590078L71.575216796875,128.8804291828738L71.872748828125,126.70260417639095L72.3512125,130.4730558391679L72.387398828125,121.39277350350075L72.55760859374999,122.22456410210043L72.63802265625,119.27292512792694L72.872563671875,123.85388174342285L72.9248328125,125.0299090460537L73.6968078125,122.95859209429888L73.8469140625,119.86044858991265L73.93804999999999,122.8969891539476L74.184653125,123.27734682570188L74.27444882812499,131.13898142875448L74.890956640625,131.59222885725268L74.892296875,134.73708398101826L75.17106562500001,136.4182837219443L75.244778515625,126.38495689983324L76.05830078125,126.01519413989995L76.12531249999999,130.07476981727328L76.3558328125,113.60927522369731L76.56222890625,120.34201846755172L77.63977734375001,126.61894441386437L77.793904296875,127.29389331498528L78.00432109375,125.8883493223245L78.123601953125,127.93169626006137L78.241542578125,126.71274442270351L78.332678515625,125.49481998695543L78.994754296875,129.9183053255066L79.43033046875,129.90520319530393L80.317565625,128.7212752505157L80.34705078125,126.08043848364275L80.35509218749999,122.69171642351897L80.41138203125,126.37440318744471L80.46767187500001,126.45411524580017L80.836236328125,123.48704248081343L81.624294140625,119.31336548848805L81.625634375,122.6627459597595L81.689965625,125.04958090918903L81.83203046875,120.78188854551343L82.47132226562499,118.73181979397472L82.5423546875,116.93852520971815L82.8104015625,123.92942179249758L83.082469140625,124.1001597421652L83.08648984375,127.00077584529912L83.29556640625,126.75874550717946L83.447012890625,123.43893397097436L83.60113984375,125.29266704925128L84.012591796875,118.87139356288411L84.38651718749999,121.37882947106381L84.67198710937501,126.69272434930494L84.67332734375,124.33506127624962L84.9601375,120.61317009908312L85.57664531249999,114.10214205944987L86.17438984375,113.64348523566993L86.733267578125,116.55468447473528L87.829579296875,119.08767735150784L88.17401953125001,125.35028641090472L88.3911375,119.25760517987617L89.228783984375,119.29854310792568L89.23280468749999,112.79298586475542L89.32394062499999,116.46053151885324L89.437860546875,122.71711224464529L89.440541015625,125.34966734678716L89.52497578125,117.46520707473897L89.56920351562499,118.16410424484339L89.87075625,123.5650092135727L89.8868390625,125.54137886147694L89.97529453125,132.09816731688616L90.02354296875,120.31031372346503L90.035605078125,118.49882823407901L90.21921718749999,107.61597027378075L90.475201953125,115.68718216426845L90.48592382812501,123.84452929856106L90.653453125,126.45957091246997L90.695000390625,125.11202921414865L91.5916171875,121.6677775284892L92.51637890625,110.37559318376016L93.03102890625,115.89470257692275L93.169073046875,123.54620821282032L93.69578515625001,126.80095826102554L94.17290859375,123.07800828994866L94.22651796875,120.97600497396918L94.292189453125,126.71967631771484L94.305591796875,124.28751245729559L94.367242578125,124.64384080771067L94.5079671875,119.58146448462642L94.55621562500001,120.76017869077586L94.64065039062501,124.21130054779884L95.94737890625,122.59840699534597L96.014390625,120.31300419720759L96.133671484375,116.83113585165789L96.507596875,114.98470151099474L96.56924765625,119.5133075732635L96.64430078125,113.39109121062478L97.16029101562499,107.8883680597082L97.3814296875,100.97475416915826L98.009999609375,103.20527250149496L99.044660546875,106.19361683423031L99.14785859375,111.61158343387152L99.67055,113.03061006032293L99.917153125,117.88891270286044L99.96808203125,118.51784095504958L100.1047859375,118.30087123969642L100.197262109375,118.74652941048451L100.4478859375,116.22637097962404L100.47335039062499,112.94348925444109L101.272130078125,109.89052021933132L101.95698984375,105.6259721315988L101.985134765625,107.81792327895928L102.25854257812499,111.83175396737558L102.39390625,116.62994571375869L103.6108390625,116.77401409492188L103.777028125,109.55664845695313L104.161675390625,96.11898907417189L104.62941718750001,110.57590677783644L104.69776914062501,111.46481073336855L104.708491015625,105.02907310668779L104.83045234375,106.57085053067934L105.65335625,109.92317698507428L105.77933828124999,110.48356619104457L105.812844140625,109.66575971462673L105.95624921874999,95.10357582877603L106.8166796875,97.27300549726563L107.541746484375,103.78554329835937L107.799071484375,106.25621931234896L108.46516796875001,101.85868492074272L109.359104296875,101.62343095244563L110.219534765625,98.91617190480069L110.92047734375001,100.28075647621375L111.637502734375,108.66252055239492L111.64420390625,109.09980566477029L111.728638671875,112.05218339886218L111.999366015625,115.0401900393173L112.225865625,108.03452069025705L112.2419484375,111.1990390808209L112.27679453125,105.45646344849254L112.669483203125,112.11053806909554L113.15062734375,106.03168284145733L113.4535203125,110.89728303820772L113.554037890625,116.15304315625798L114.35147734374999,111.17511922708812L114.896952734375,114.2724448695862L115.44510859375,104.54953358841838L115.88470546875,96.48165348638437L116.162133984375,111.47043209183062L116.175536328125,109.83858592176504L116.58698828125,114.51954488639237L116.87647890624999,108.91236026516873L117.148546484375,102.86079615910123L117.94598593750001,114.43927102879408L118.231455859375,109.76099595060978L118.464656640625,88.18652423703253L118.465996875,97.60008787555286L118.637546875,91.54380605866504L118.97930664062501,101.40255030186569L119.196424609375,96.67537684778607L119.5864328125,88.31942610867166L120.399955078125,88.54033566520299L121.11161953125,95.16524139912181L121.552556640625,96.3274581728064L121.74689062499999,104.92803490368385L122.252158984375,101.69700760887699L122.47329765625,100.08407123199285L122.565773828125,88.1627627391957L123.769304296875,103.94052431018409L123.88992539062501,94.8760679194438L123.95291640625,88.10124075166628L124.120445703125,66.42720445099977L124.6149921875,66.11014267059986L125.005000390625,79.53238560235991L125.415112109375,95.99480469474928L125.667076171875,94.65674948351624L125.78635703125,102.04940969010974L125.870791796875,110.30427248073254L125.87749296875,112.77879682177284L126.271521875,103.3150780930637L126.337193359375,82.87937352250488L127.5098984375,85.41987078016959L127.527321484375,91.68737580143508L128.379710546875,98.68304548086104L128.73085195312498,109.26464062184998L129.16642812499998,107.16401103977664L130.403464453125,102.61969329053265L130.505322265625,109.84364930765292L130.633984765625,120.74865625125842L130.66481015625,107.49322708408839L132.314638671875,95.1885229171197L132.57330390625,94.41330708360513L132.58402578125,92.16401758349645L132.901661328125,88.12994388343118L133.755390625,107.84236633005871L133.880032421875,96.70662646470188L134.236534765625,101.03733587882114L134.453652734375,110.5210615272927L134.69355468749998,104.02229024970894L134.949539453125,89.98368081649203L135.394497265625,75.44064182322856L135.482952734375,82.28609842727045L135.556665625,81.93847905636227L136.58328515624999,90.02648743381737L136.72803046875,90.04443912695709L136.84597109375002,64.92003014284091L136.8593734375,71.60655141903788L136.981334765625,80.45371085142271L137.573718359375,91.15932651085365L138.305486328125,79.22661590651217L138.37249804687502,93.8344495439073L138.41136484375,101.48404972634438L139.2932390625,96.27469650247329L139.374993359375,100.17205123481732L140.360065625,108.58431740755705L140.60934921875,107.65615711120093L140.660278125,104.18741426672055L141.205753515625,87.79945522669898L141.969687109375,97.11532646935271L142.36907695312502,109.15905588161164L143.296519140625,112.73909352896698L143.51095664062498,99.2391361173802L144.12880468749998,79.15193500376144L144.4933484375,81.33041433559019L144.585824609375,76.81774193468746L144.92490390625,82.95187849414582L144.99325585937498,84.42458042982082L145.909976171875,93.25156825789247L146.1981265625,95.70278095473549L146.87762539062498,97.28364190617464L147.049175390625,100.99571847703812L147.31588203125,94.24041108622286L147.97929804687502,92.90751998506707L147.992700390625,82.59580532437356L148.016824609375,73.24716319462415L148.13610546875,80.42406458344117L148.4604421875,66.4724587500647L148.46982382812502,81.80258191670549L149.914596484375,75.7696091500233L149.957483984375,84.3561388233473L150.0687234375,97.2083432940084L150.55120781250002,79.41396597640502L151.410298046875,90.30813291917634L151.691747265625,94.5255397515058L151.713191015625,75.25233718423681L152.024125390625,67.77239564387541L153.48632109374998,72.26226405299191L153.57879726562498,92.06303843179516L154.08138515624998,96.66172305907709L154.137675,101.40136716877959L154.20870742187498,66.23106030126775L155.14285078125002,64.74991618076064L156.286070703125,73.93252970845637L156.45628046875,65.69824449174048L156.749791796875,73.7062066950443L157.40114570312502,75.63178401702659L157.44805390624998,87.81305041021594L158.280339453125,87.05611691279621L158.2977625,80.51276348101108L158.45456992187502,84.96829142193997L158.521581640625,99.97693485316398L158.86334140625002,90.3452009118984L160.271927734375,83.97222721380571L160.76647421875,69.31486299495008L160.77719609374998,52.33832446363672L161.368239453125,49.97304801151537L161.451333984375,55.61736214024256L161.491541015625,57.32795728414552L161.553191796875,68.97706770382065L161.92443671875,78.50274728895906L162.06382109375,82.9756150400421L162.63208046875,98.36557569069194L162.74868085937499,105.99396541441516L163.51127421875,97.33808591531573L163.737773828125,81.92969154918946L164.134483203125,80.67836826284702L164.22025820312498,75.58163429104154L164.32479648437499,76.86678057462493L164.41995312499998,94.12679501144162L164.649133203125,106.66619700686498L165.54843046874998,95.40659820411898L165.648948046875,79.3359189224714L167.22640390625,47.77540468681617L167.88043828125,69.45941614542305L168.30797304687502,74.76796302058715L168.37364453125,83.05147781235229L169.30644765625001,83.95452002074471L169.543669140625,83.16373201244683L170.64132109375,94.05895254080143L170.645341796875,98.17433152448085L170.76194218749998,75.08711891468852L171.62773359375,82.46692468214644L171.635775,78.06408147595452L171.6733015625,75.57302221890606L171.68804414062498,77.62585999801028L171.6947453125,58.53442266547284L172.29248984375,66.28130693261704L172.68249804687503,81.95063749290355L172.687858984375,77.1076691624088L172.768273046875,63.835588164111925L173.36467734374997,46.084239565133835L173.45045234375002,44.40733040574695L173.725200390625,54.59112491011485L174.33098632812502,73.72899494606891L174.8523375,76.41914363430803L175.631013671875,69.2485261805848L175.751634765625,42.32240904168421L176.0103,54.210225425010535L177.255377734375,63.94088192167298L178.33828710937502,57.580829153003805L178.39725742187503,65.72173749180229L178.571487890625,73.17553582841471L179.03922968749998,67.6988414970488L179.42387695312502,60.587658231562614L179.698625,68.35222827227092L179.73883203124998,77.23694363002922L180.19183124999998,67.4826528446842L180.288328125,52.41191837347717L180.410289453125,57.66203102408631L181.5803140625,37.413091947785134L181.943517578125,43.552548502004406L182.12176875,58.89698243453598L182.24909101562503,39.35884279405491L183.31993828125002,64.40947900976629L183.36282578125,84.56381407252644L183.55715976562502,101.5129017768492L184.0034578125,85.41280106610952L184.6467703125,64.54982063966573L186.54990312500001,63.51146571713277L186.931869921875,55.282566096946326L187.358064453125,49.87715965816779L187.390230078125,59.21940246156734L187.46930390625,69.80513481027374L187.516212109375,77.37866088616424L187.524253515625,73.83348319836522L187.59126523437502,74.43532325235248L187.707865625,91.05289395141148L187.907560546875,91.55196970418024L189.35099296875,79.41264182250815L190.0077078125,72.00750509350489L190.7636,65.11749638943627L191.0691734375,47.59403116699509L191.58650390625,46.79921870019705L191.660216796875,17.43435788678489L192.102494140625,25.19212806540426L193.0098328125,49.085903505909215L193.220249609375,76.70621543687888L193.63974296875,76.74620926212731L194.096762890625,80.2433388906097L194.217383984375,72.14602333436582L194.37419140625,53.86080733395283L194.50017343750002,46.606284400371685L194.930388671875,59.527590640223025L195.244003515625,69.67852771746715L196.426090234375,38.42051663048028L196.544030859375,33.2372833116215L197.26909765625,64.87283665363957L197.33074843749998,44.23842199218374L197.69261171875002,63.88533319531026L197.8132328125,86.10035325051948L197.82127421875,76.99599195031169L197.825294921875,65.00640183685367L198.465926953125,65.64312776877888L199.04222773437502,20.247063327933997L199.16686953125,31.832997996760394L199.30759414062499,28.59997879805622L199.87987421875,43.968800612167065L199.8825546875,66.4910537006336L200.428030078125,57.19343222038016L200.44679335937502,49.89205933222809L201.071342578125,62.58583559933685L201.258975390625,75.84643469293545L202.9597328125,89.84714748242794L203.82284375,67.30207515612342L204.34017421874998,80.2243384270074L205.50885859375,82.82345638953778L205.59463359375,85.92833383372265L205.671026953125,85.42575363356693L206.14815039062498,94.70659218014015L206.15619179687502,68.73644864141741L206.370629296875,61.419869184850455L206.98981757812498,82.0982348442436L207.12786171875,59.89310090654617L207.150645703125,76.83072721059436L207.81138124999998,72.37074299302327L208.236235546875,53.47958579581397L208.35953710937503,51.418118144155045L208.43056953125,40.19057088649303L208.88356875,35.881302531895834L209.12749140625002,75.61290151913751L209.29368046875,67.84713424481582L209.580490625,71.83943388022283L209.98122070312502,27.20040699480036L210.321640234375,61.80019753021355L212.75148515625,67.5013051847948L212.97530429687498,69.37577644421022L213.2956203125,68.8252525331928L213.535522265625,66.36857818658234L213.62397773437502,50.3042669119494L213.902746484375,61.87657348050298L214.23646484375,51.750864088301796L214.366467578125,52.95446511964774L214.40801484375,71.81283240512198L214.688123828125,61.33521944307318L214.89049921875,63.43215833251058L215.10225624999998,73.20559499950635L215.54587382812502,68.33834366637048L216.014955859375,79.73217953315562L216.14093789062503,84.7760610532267L216.60331875,84.69112329860269L216.843220703125,75.79134064582827L217.14209296875,50.778117720830295L217.62993828125,56.23807063249817L217.96633710937502,65.53361571283224L218.1097421875,76.97121609436601L218.54397812500002,85.0849696566196L218.82006640625,58.172281793971756L219.413790234375,59.98033574304972L219.9217390625,74.29493477916317L220.338551953125,89.66279420083124L220.80495351562502,73.64173652049874L221.031453125,78.0671685789659L221.458987890625,67.34634114737953L221.5621859375,38.592571355094385L221.761880859375,48.911796146389975L221.839614453125,42.01201768783398L222.115702734375,47.4195306127004L222.83540859375,69.91495170095357L224.294923828125,70.46839102057214L224.762665625,59.966481279009955L225.30680078125002,66.71298876740597L225.48371171875002,61.21154659377692L227.27962578125002,65.28922128959948L227.49942421875,55.85243944042635L227.68705703125,54.89699699758915L227.784894140625,12.540324865220136L227.98726953125,34.9898749191321L229.33822578125,38.957851618145924L229.39183515625,64.30379763755421L229.4105984375,48.77000524919919L230.37288671875,57.25710981618617L230.57794257812498,64.08829922304504L230.70526484375,63.86191953382703L230.72134765625,46.07879838696288L231.250740234375,39.26791903217773L231.88467109375,27.08973808597331L233.16593515625001,42.31492951825066L233.5224375,79.10609771095041L234.08265546875,69.29995195990355L234.523592578125,77.47557117594215L235.24731914062502,80.07994270556529L235.291546875,85.37647895667249L235.37062070312498,67.57990070733683L235.43361171875,83.97744709106875L235.453715234375,84.14115492130792L236.2672375,96.57313295278475L236.381157421875,95.34437310500418L236.410642578125,95.58022386300253L236.63848242187498,88.65038765113484L236.793949609375,29.718459257347583L236.807351953125,11.249035554408524L236.834156640625,17.958634665978455L236.84755898437498,3.3805141329204287L236.860961328125,34.40750847975227L236.874363671875,40.65769842118467L236.901168359375,24.906739052710794L236.91457070312498,48.382490098293154L236.92797304687502,33.51270739230923L236.941375390625,6.972651102052178L236.981582421875,24.053217327897983L236.99498476562502,0.3698703967388022L237.008387109375,15.543828904709944L237.075398828125,37.74738400949264L237.102203515625,-35.91654292763776L237.12900820312498,-29.90353908991598L237.142410546875,7.560036546050433L237.155812890625,18.97528859429692L237.196019921875,15.631206489911493L237.20942226562502,40.6593438939469L237.222824609375,62.15442633636815L237.236226953125,34.96805580182087L237.249629296875,64.01110681442584L237.263031640625,61.25657742198883L237.27643398437502,56.07408645319331L237.289836328125,65.41201853858266L237.316641015625,83.97707778981626L237.330043359375,74.34811334055641L237.356848046875,68.36502133766717L237.370250390625,87.0295728026003L237.383652734375,86.29653701489353L237.397055078125,94.65479554226944L237.43726210937498,97.616550658695L237.45066445312497,79.30764372855032L237.477469140625,51.976152903796866L237.49087148437502,24.782225075611453L237.504273828125,38.867781712033555L237.517676171875,58.05750902722012L237.531078515625,66.81368541633208L237.544480859375,77.87181124979926L237.55788320312502,78.46744674987954L237.571285546875,86.04564138326106L237.584687890625,80.31318482995664L237.598090234375,56.093910897974L237.62489492187498,32.695039872117725L237.638297265625,61.99318392327063L237.665101953125,69.2203236872957L237.678504296875,52.58053421237742L237.705308984375,7.42322052742646L237.71871132812498,27.303452316455893L237.74551601562501,25.040124723206887L237.758918359375,53.058228167257454L237.77232070312502,45.13314356702115L237.785723046875,56.68647947354602L237.799125390625,54.98796101746094L237.812527734375,47.90915661047657L237.839332421875,23.568440632952605L237.892941796875,41.954844379771565L237.906344140625,37.215986627862925L237.93314882812498,35.24351197671776L237.959953515625,29.53472718603067L237.97335585937498,37.114136311618395L237.986758203125,13.497148453637715L238.000160546875,44.719195738849294L238.01356289062502,50.59435744330957L238.067172265625,75.52937446598575L238.08057460937502,82.70710467959147L238.093976953125,88.4773361410882L238.120781640625,65.2612483513196L238.134183984375,62.09752234412508L238.147586328125,52.68111340647505L238.174391015625,32.188834710551696L238.201195703125,4.3241541596643565L238.228000390625,-3.11710083753473L238.29501210937502,-7.941952180907492L238.308414453125,21.489828691455482L238.348621484375,56.69038388153996L238.36202382812502,64.13255032892398L238.375426171875,74.85617686402105L238.388828515625,86.71599278507931L238.402230859375,51.63980233771426L238.415633203125,61.59386806929521L238.455840234375,80.98487417491047L238.469242578125,62.07675117161294L238.509449609375,57.64549736963443L238.52285195312498,62.59420508844731L238.53625429687497,57.137443053068374L238.563058984375,72.4881124985077L238.57646132812502,62.10304083243795L238.616668359375,45.60088449946275L238.630070703125,68.92996403301099L238.64347304687502,53.710611753139936L238.670277734375,56.782560385217295L238.683680078125,52.32806956446372L238.723887109375,65.91970840534489L238.737289453125,59.355371709873594L238.750691796875,48.35918969259082L238.77749648437498,45.26962048222116L238.81770351562503,33.572712289332685L238.83110585937501,53.41923404026627L238.871312890625,62.845607090826434L238.884715234375,77.10835092116253L238.898117578125,63.25268388603085L238.951726953125,55.48798366495184L238.978531640625,49.09259686563777L238.99193398437498,51.87791811938266L239.005336328125,10.42443753829626L239.01873867187498,53.632842522977754L239.032141015625,53.43071884711998L239.045543359375,77.19107130827199L239.05894570312498,56.194782784963195L239.09915273437502,50.41898300431125L239.112555078125,52.43617646925343L239.125957421875,49.3827592148854L239.13935976562502,71.12592886226456L239.166164453125,42.06274398402541L239.192969140625,68.29781305708191L239.206371484375,68.66974783424915L239.246578515625,73.25025536721616L239.259980859375,77.5246932203297L239.286785546875,48.29858259886449L239.30018789062498,36.03279622598538L239.313590234375,24.38323773559119L239.326992578125,47.28250930802139L239.34039492187497,48.09517225147951L239.35379726562502,12.299343350887703L239.394004296875,34.36738601053261L239.407406640625,40.8790649396529L239.461016015625,46.81055896379174L239.474418359375,55.36439537827504L239.487820703125,65.5360838936317L239.501223046875,69.63388366951237L239.51462539062499,33.160430201707406L239.541430078125,39.04490478769112L239.554832421875,40.52278287261466L239.58163710937498,16.36833639023547L239.595039453125,21.54351516747462L239.621844140625,15.658595767151418L239.648648828125,30.080164126957534L239.66205117187502,49.6445651428412L239.675453515625,25.69725241903806L239.688855859375,22.567578118089514L239.715660546875,37.629460204187026L239.72906289062502,42.99600278917889L239.755867578125,39.975695006840674L239.769269921875,59.20330367077106L239.79607460937498,66.27199553579597L239.809476953125,35.05971732147757L239.836281640625,69.69863705955323L239.849683984375,49.712988902398614L239.86308632812498,68.4967866747725L239.876488671875,65.93392533819684L239.91669570312501,67.91142853625144L239.94350039062502,42.503483788417526L239.956902734375,38.72477693971719L239.970305078125,50.8492261638303L239.983707421875,40.9092690316315L240.037316796875,67.32764141897891L240.050719140625,70.67656485138735L240.07752382812498,77.49284557749908L240.090926171875,16.993347346499444L240.10432851562499,39.05172840789964L240.117730859375,45.000257044739776L240.131133203125,56.68305422684386L240.157937890625,61.629305869439655L240.22494960937502,68.03361018833046L240.251754296875,35.398066112998286L240.332168359375,57.63082633446565L240.345570703125,71.16990246734605L240.372375390625,61.7892281470743L240.38577773437498,67.84203688824458L240.412582421875,67.61630213294674L240.42598476562497,80.33814127976804L240.46619179687502,64.66152476786081L240.479594140625,59.65774152738316L240.50639882812501,63.7866049164299L240.519801171875,65.15826294985793L240.533203515625,44.83329776991477L240.546605859375,24.2681853286155L240.560008203125,20.19383786383596L240.586812890625,39.41914271830155L240.613617578125,44.8073122976476L240.627019921875,37.26760071192189L240.640422265625,37.02442042715313L240.653824609375,41.295252256291874L240.66722695312498,45.903084687108446L240.680629296875,70.23661081226508L240.69403164062498,37.52462648735904L240.74764101562502,54.597402559082106L240.761043359375,68.39090153544926L240.774445703125,51.9534742546029L240.787848046875,58.85527788609509L240.801250390625,49.24503339832371L240.841457421875,-13.476173294339127L240.854859765625,17.32205602339655L240.868262109375,23.717400280704602L240.921871484375,35.51646016842275L240.935273828125,41.456802767720326L240.94867617187498,47.67128832729884L240.988883203125,47.587006329712665L241.00228554687502,57.03819046449425L241.02909023437502,32.46510761202987L241.042492578125,22.000331233884594L241.069297265625,-1.7618079263359334L241.082699609375,27.563815244198462L241.109504296875,41.28564247985241L241.122906640625,60.47346548791144L241.149711328125,74.1719126260802L241.16311367187498,71.55818757564813L241.176516015625,83.54775921205555L241.18991835937499,38.050568860566656L241.203320703125,38.79731464967334L241.216723046875,40.72272212313735L241.297137109375,50.681553273882415L241.337344140625,56.630498630996115L241.350746484375,69.51989917859765L241.377551171875,29.337279507158588L241.404355859375,42.47362103762848L241.417758203125,59.58420595591042L241.457965234375,59.16880357354624L241.47136757812498,33.35840214412775L241.498172265625,55.02642795314331L241.538379296875,22.406870105219316L241.55178164062502,51.659602063131594L241.565183984375,23.173541237878965L241.578586328125,37.70157807606069L241.605391015625,6.555640178969748L241.632195703125,41.15451744071517L241.645598046875,36.40263713109575L241.659000390625,60.651782278657464L241.672402734375,51.11314270052782L241.712609765625,23.53281895365004L241.739414453125,27.093791372190044L241.75281679687498,29.157608156647353L241.766219140625,48.012904893988434L241.77962148437499,45.574756269726386L241.793023828125,32.28236709516915L241.80642617187502,37.97408692376817L241.819828515625,52.039012154260924L241.846633203125,52.03388729255656L241.860035546875,16.6894190422006L241.873437890625,45.647684758653675L241.886840234375,69.44892418852554L241.900242578125,53.773007846448664L241.913644921875,57.50675804120252L241.927047265625,72.19640149138817L241.940449609375,75.36152756149957L241.953851953125,77.45805653689975L241.96725429687498,64.70386725547316L241.980656640625,48.95773368661722L242.061070703125,60.607666878637005L242.101277734375,66.15842012718221L242.11468007812502,50.90583874297599L242.141484765625,30.36728991245225L242.154887109375,36.92337394747134L242.208496484375,31.206591035149483L242.221898828125,9.191914621089674L242.235301171875,32.1866887726538L242.24870351562498,10.123353263592268L242.288910546875,-14.977974708511292L242.302312890625,-11.142644825106805L242.31571523437498,18.35833977160261L242.32911757812502,43.74820386296157L242.342519921875,52.2285889844436L242.369324609375,44.494546723999505L242.382726953125,45.31516136773304L242.436336328125,12.423756820639811L242.449738671875,14.580667425717204L242.463141015625,32.77949378876363L242.489945703125,11.583516273258198L242.516750390625,14.92258309728826L242.53015273437498,-18.068056808293726L242.583762109375,-18.149360751642906L242.597164453125,16.71176354901427L242.61056679687502,44.23643812940857L242.623969140625,45.821489544311824L242.63737148437502,38.98884705992042L242.664176171875,33.164494902618934L242.67757851562502,48.41143027490469L242.731187890625,54.90026483160949L242.771394921875,60.587952232299024L242.81160195312498,47.21703133937942L242.825004296875,36.70821880362766" style="fill: none;" fill="none"></path></g></g></g></g><g opacity="0.2"><g><g><g><path stroke="rgb(255, 112, 67)" stroke-width="2px" d="M27.331399609375,156.57616666666667L27.43459765625,156.68433333333334L27.45068046875,156.6627L27.453360937499998,156.5978L27.561919921875,156.6627L27.57398203125,156.25166666666667L27.5927453125,156.48963333333333L27.618209765625,156.55453333333332L27.620890234375,156.52208333333334L27.647694921875,156.35983333333334L27.6677984375,156.02156666666667L27.757594140625,156.35983333333334L27.772336718749997,156.29493333333335L27.8179046875,156.3382L27.820585156249997,156.16316666666665L27.909040625,156.15923333333333L28.060487109375,156.61943333333332L28.136880468749997,156.53289999999998L28.329874218750003,156.48963333333333L28.33523515625,156.3382L28.412968749999997,156.77086666666668L28.419669921875,156.65188333333333L28.51214609375,156.468L28.51750703125,156.6627L28.572456640625,156.7276L28.60864296875,156.45718333333332L28.609983203124997,156.24773333333331L28.938340625,156.1199L28.958444140625,156.31656666666666L28.969166015625,156.31656666666666L29.002671875,156.2084L29.052260546874997,156.3382L29.05360078125,156.25166666666667L29.104529687499998,156.39228333333332L29.14205625,156.5978L29.172881640625,156.468L29.289482031250003,156.44636666666668L29.452990625,156.53289999999998L29.473094140624998,156.48963333333333L29.482475781250002,156.6627L29.494537890624997,156.61943333333332L29.526703515625,156.37949999999998L29.53608515625,156.18283333333332L29.56825078125,156.37949999999998L29.650005078125,156.2733L29.695573046874998,156.00976666666668L29.71299609375,156.07466666666667L29.800111328125,156.09236666666666L29.876504687500002,156.2084L30.00248671875,156.4208L30.069498437500002,156.1081L30.089601953124998,155.95666666666665L30.09898359375,155.9724L30.23300703125,155.63413333333332L30.2946578125,155.81703333333334L30.4340421875,155.58693333333335L30.440743359375,155.8898L30.443423828125,155.87013333333334L30.675284375,155.71280000000002L30.748997265625,155.7305L30.992919921875,154.81993333333332L31.3239578125,154.3558L31.467362890625,155.2349L32.343876171874996,153.164L32.4175890625,150.9338L32.480580078125,153.99393333333333L32.741925781249996,153.20923333333332L32.791514453125,153.341L32.9000734375,151.29566666666665L33.016673828125,151.48545L33.019354296875,150.99771666666666L33.042138281250004,151.58083333333332L33.33698984375,148.8452L33.378537109374996,150.28381666666667L33.534004296875,151.0518L33.930713671875,148.5561L34.35556796875,146.48913333333334L34.539180078125,142.65806666666666L34.708049609374996,142.42108333333334L34.9157859375,144.05243333333334L35.285690625,144.79091666666667L35.33125859375,144.6916L35.3339390625,148.42728333333335L35.4947671875,144.24418333333332L35.593944531249996,142.31291666666667L35.707864453125,144.95021666666668L35.89951796875,148.26011666666668L36.001375781250005,146.19315L36.262721484375,150.7391L36.313650390625,146.20790000000002L36.33911484375,145.98861666666664L36.36055859375,147.0516L36.382002343749996,148.33485L36.696957421875,147.60325L37.078924218750004,151.96433333333331L37.430065625,145.82145L37.45418984375,144.81353333333334L37.60429609375,149.6063L37.75440234375,145.8126L37.979561718750006,143.53815L38.010387109374996,147.75271666666666L38.05461484375,153.04108333333335L38.10554375,150.27103333333335L38.141730078125,148.66819999999998L38.311939843750004,151.09703333333334L38.535758984375,145.1636L38.56926484375,147.14010000000002L38.782362109375,153.0165L38.9257671875,149.11955L38.991438671875,149.30638333333332L39.195154296874996,148.40073333333333L39.3010328125,147.08798333333334L39.402890625,145.40746666666666L39.484644921874995,146.6327L39.586502734375,148.78423333333333L39.712484765625,151.5002L39.827744921875,151.90533333333335L39.95908789062501,146.74578333333332L39.991253515625,145.84603333333334L40.328992578125,146.56681666666668L40.57961640625,149.48731666666666L40.68147421875,148.85601666666665L40.811476953125,148.24831666666665L40.8717875,147.38003333333333L41.34623046875,143.3582L41.763043359375,145.88143333333332L41.872942578125,148.8806L41.937273828125,142.8331L42.049853515624996,144.69258333333332L42.100782421875,147.08306666666667L42.245527734374996,139.7169166666667L42.607391015625005,145.18916666666667L42.650278515625004,145.29635L43.14750546875,143.68368333333333L43.502667578125,137.50736666666666L44.097731640625,144.74765L44.19556875,137.06388333333334L44.688775,142.47811666666666L44.69681640625,139.50451666666666L44.71021875,138.5556L44.714239453124996,145.90601666666666L44.742384375,142.56366666666665L45.057339453124996,140.51538333333332L45.269096484375005,141.83305000000001L45.3267265625,144.80271666666667L45.610856250000005,139.83983333333333L45.7127140625,139.53106666666665L45.770344140625,140.11516666666665L45.814571875,145.35731666666666L45.939213671875,135.06476666666666L46.046432421875,137.47491666666667L46.0987015625,146.68973333333335L46.163032812500006,138.21143333333333L46.306437890625,140.83693333333332L46.751395703125,144.04948333333334L46.908203125,137.74336666666667L47.603784765625,134.25548333333333L47.619867578125,142.14870000000002L47.70966328125,145.22948333333335L47.713683984375,140.09353333333334L47.913378906249996,139.16526666666667L48.295345703125,137.87120000000002L48.462875,145.29733333333334L48.537928125,146.87361666666666L48.590197265625,143.34935L48.859584375,141.4938L48.8649453125,139.86638333333335L49.011030859375005,140.49178333333333L49.04989765625,142.14870000000002L49.262994921875,137.68141666666668L49.525680859375,144.10848333333334L50.8377703125,145.22456666666668L51.297470703125,128.24633333333335L51.300151171875,132.7913L51.809440234375,141.777L51.986351171875,139.15936666666667L52.159241406250004,140.75236666666666L52.38440078125,139.3353833333333L52.40584453125,142.27063333333334L52.547909374999996,133.18365L52.680592578124994,141.08768333333333L52.7033765625,138.50053333333332L52.814616015625,134.57605L52.994207421875,134.26531666666668L53.102766406250005,124.16943333333332L53.208644921875,134.97528333333332L53.27431640625,136.48568333333333L53.573188671874995,144.70536666666666L53.817111328125,134.26925L55.0407453125,130.6378L55.5768390625,141.09751666666668L55.6197265625,132.95551666666668L56.119633984375,142.49581666666666L56.13169609375,133.99391666666665L56.186645703125,131.79911666666666L56.288503515624996,132.79228333333333L56.4453109375,137.84563333333332L56.575313671875,119.49073333333332L56.61418046875,136.87705L56.756245312500006,141.06703333333334L57.232028515625004,132.34388333333334L57.509457031249994,139.09938333333332L57.622036718749996,129.54728333333333L57.6247171875,141.27156666666667L57.695749609375,131.77551666666668L57.761421093749995,133.77856666666668L57.887403125000006,130.55913333333334L58.15813046875,132.96535L58.588345703125,135.76391666666666L58.666079296875004,141.41316666666665L58.770617578125,132.75196666666665L58.7987625,132.2308L59.140522265625,129.0507L59.652491796875,138.90075000000002L59.891053515624996,144.57655L60.21405,149.50993333333332L60.258277734375,143.90788333333333L60.44188984375,135.40106666666665L60.590655859375,138.21733333333333L60.90293046875,133.1217L61.574387890625,129.56498333333334L61.810269140624996,134.45805L62.038108984375,132.9978L62.2297625,132.0833L62.38254921875,139.86441666666667L62.402652734375,140.87134999999998L62.458942578125,140.91363333333334L62.5728625,128.43415000000002L63.31535234375,129.69281666666666L63.387724999999996,129.55711666666664L63.974747656249995,132.72590833333334L64.50548046875,133.74906666666666L64.760125,123.49093333333333L64.831157421875,122.27651666666668L65.17023671875,121.07291666666667L65.3444671875,144.98266666666666L65.498594140625,141.14471666666668L65.554883984375,133.80511666666666L65.635298046875,130.11663333333334L65.650040625,120.87723333333334L65.72911445312499,121.72093333333333L66.179433203125,138.5143L66.216959765625,120.56846666666667L66.66057734374999,132.22883333333334L67.2744046875,125.69753333333333L67.36286015625,116.35586666666667L67.833282421875,126.05841666666667L68.45515117187499,131.50116666666665L68.57845273437499,139.8772L68.71381640625,138.5969L69.208362890625,137.97543333333334L69.974976953125,134.53475L70.07147382812501,136.96063333333333L70.516431640625,125.70146666666668L71.05520585937501,135.79243333333335L71.13696015625,121.66881666666666L71.15974414062501,119.9175L71.422430078125,123.22543333333334L71.48274062499999,132.53956666666667L71.513566015625,135.3165L71.575216796875,126.11053333333335L71.872748828125,123.43586666666667L72.3512125,136.12873333333334L72.387398828125,107.77235L72.55760859374999,123.47225L72.63802265625,114.84546666666667L72.872563671875,130.72531666666666L72.9248328125,126.79395000000001L73.6968078125,119.85161666666667L73.8469140625,115.21323333333332L73.93804999999999,127.45179999999999L74.184653125,123.84788333333334L74.27444882812499,142.93143333333333L74.890956640625,132.27210000000002L74.892296875,139.45436666666666L75.17106562500001,138.94008333333332L75.244778515625,111.33496666666667L76.05830078125,125.46055L76.12531249999999,136.16413333333333L76.3558328125,88.91103333333334L76.56222890625,130.44113333333334L77.63977734375001,136.03433333333334L77.793904296875,128.30631666666667L78.00432109375,123.78003333333332L78.123601953125,130.99671666666666L78.241542578125,124.88431666666666L78.332678515625,123.66793333333334L78.994754296875,136.55353333333332L79.43033046875,129.88555L80.317565625,126.94538333333333L80.34705078125,122.11918333333332L80.35509218749999,117.60863333333333L80.41138203125,131.89843333333334L80.46767187500001,126.57368333333334L80.836236328125,119.03643333333333L81.624294140625,113.05284999999999L81.625634375,127.68681666666667L81.689965625,128.62983333333335L81.83203046875,114.38034999999999L82.47132226562499,115.65671666666665L82.5423546875,114.24858333333333L82.8104015625,134.41576666666668L83.082469140625,124.35626666666666L83.08648984375,131.3517L83.29556640625,126.39569999999999L83.447012890625,118.45921666666666L83.60113984375,128.07326666666665L84.012591796875,109.23948333333334L84.38651718749999,125.13998333333333L84.67198710937501,134.66356666666667L84.67332734375,120.79856666666666L84.9601375,115.03033333333335L85.57664531249999,104.3356L86.17438984375,112.9555L86.733267578125,120.92148333333334L87.829579296875,122.88716666666667L88.17401953125001,134.7442L88.3911375,110.11858333333333L89.228783984375,119.35995L89.23280468749999,103.03464999999998L89.32394062499999,121.96184999999998L89.437860546875,132.10198333333332L89.440541015625,129.2985L89.52497578125,105.63851666666666L89.56920351562499,119.21245L89.87075625,131.66636666666668L89.8868390625,128.50593333333333L89.97529453125,141.93335L90.02354296875,102.62853333333334L90.035605078125,115.7816L90.21921718749999,91.29168333333335L90.475201953125,127.794L90.48592382812501,136.08055000000002L90.653453125,130.38213333333334L90.695000390625,123.09071666666667L91.5916171875,116.5014L92.51637890625,93.43731666666666L93.03102890625,124.17336666666668L93.169073046875,135.02346666666668L93.69578515625001,131.68308333333334L94.17290859375,117.49358333333333L94.22651796875,117.823L94.292189453125,135.33518333333333L94.305591796875,120.63926666666667L94.367242578125,125.17833333333333L94.5079671875,111.98790000000001L94.55621562500001,122.52825L94.64065039062501,129.38798333333332L95.94737890625,120.17906666666667L96.014390625,116.8849L96.133671484375,111.60833333333333L96.507596875,112.21505L96.56924765625,126.30621666666666L96.64430078125,104.20776666666669L97.16029101562499,99.63428333333333L97.3814296875,90.60433333333333L98.009999609375,106.55105L99.044660546875,110.67613333333334L99.14785859375,119.73853333333334L99.67055,115.15915L99.917153125,125.17636666666667L99.96808203125,119.46123333333333L100.1047859375,117.97541666666667L100.197262109375,119.41501666666667L100.4478859375,112.44613333333334L100.47335039062499,108.01916666666665L101.272130078125,105.31106666666668L101.95698984375,99.22915L101.985134765625,111.10585L102.25854257812499,117.85249999999999L102.39390625,123.82723333333333L103.6108390625,116.99011666666667L103.777028125,98.73060000000001L104.161675390625,75.9625L104.62941718750001,132.26128333333332L104.69776914062501,112.79816666666667L104.708491015625,95.37546666666667L104.83045234375,108.88351666666665L105.65335625,114.95166666666667L105.77933828124999,111.32415L105.812844140625,108.43904999999998L105.95624921874999,73.26030000000002L106.8166796875,100.52714999999999L107.541746484375,113.55435000000001L107.799071484375,109.96223333333333L108.46516796875001,95.26238333333335L109.359104296875,101.27054999999999L110.219534765625,94.85528333333335L110.92047734375001,102.32763333333332L111.637502734375,121.23516666666667L111.64420390625,109.75573333333334L111.728638671875,116.48075L111.999366015625,119.5222L112.225865625,97.52601666666666L112.2419484375,115.94581666666666L112.27679453125,96.8426L112.669483203125,122.09165000000002L113.15062734375,96.9134L113.4535203125,118.19568333333333L113.554037890625,124.03668333333334L114.35147734374999,103.70823333333334L114.896952734375,118.91843333333333L115.44510859375,89.96516666666668L115.88470546875,84.37983333333334L116.162133984375,133.9536L116.175536328125,107.39081666666667L116.58698828125,121.54098333333333L116.87647890624999,100.50158333333333L117.148546484375,93.78344999999999L117.94598593750001,131.80698333333333L118.231455859375,102.74358333333335L118.464656640625,55.82481666666666L118.465996875,111.72043333333333L118.637546875,82.45938333333334L118.97930664062501,116.19066666666666L119.196424609375,89.58461666666666L119.5864328125,75.7855L120.399955078125,88.8717L121.11161953125,105.1026L121.552556640625,98.07078333333335L121.74689062499999,117.82889999999999L122.252158984375,96.85046666666666L122.47329765625,97.66466666666665L122.565773828125,70.2808L123.769304296875,127.60716666666666L123.88992539062501,81.27938333333333L123.95291640625,77.93900000000001L124.120445703125,33.91615L124.6149921875,65.63455L125.005000390625,99.66575L125.415112109375,120.68843333333334L125.667076171875,92.64966666666666L125.78635703125,113.1384L125.870791796875,122.68656666666666L125.87749296875,116.49058333333332L126.271521875,89.11950000000002L126.337193359375,52.22581666666667L127.5098984375,89.23061666666666L127.527321484375,101.08863333333333L128.379710546875,109.17655L128.73085195312498,125.13703333333333L129.16642812499998,104.01306666666666L130.403464453125,95.80321666666669L130.505322265625,120.67958333333333L130.633984765625,137.10616666666667L130.66481015625,87.61008333333334L132.314638671875,76.73146666666666L132.57330390625,93.25048333333332L132.58402578125,88.79008333333334L132.901661328125,82.07883333333334L133.755390625,137.411L133.880032421875,80.00301666666667L134.236534765625,107.53339999999999L134.453652734375,124.74665L134.69355468749998,94.27413333333334L134.949539453125,68.92576666666668L135.394497265625,53.62608333333333L135.482952734375,92.55428333333333L135.556665625,81.41704999999999L136.58328515624999,102.15849999999999L136.72803046875,90.07136666666666L136.84597109375002,27.233416666666667L136.8593734375,81.63633333333333L136.981334765625,93.72444999999999L137.573718359375,107.21775L138.305486328125,61.32755L138.37249804687502,115.74619999999999L138.41136484375,112.95845L139.2932390625,88.46066666666667L139.374993359375,106.01808333333334L140.360065625,121.20271666666667L140.60934921875,106.26391666666667L140.660278125,98.9843L141.205753515625,63.217516666666675L141.969687109375,111.08913333333335L142.36907695312502,127.22465L143.296519140625,118.10915L143.51095664062498,78.98920000000001L144.12880468749998,49.021133333333324L144.4933484375,84.59813333333334L144.585824609375,70.04873333333333L144.92490390625,92.15308333333333L144.99325585937498,86.63363333333334L145.909976171875,106.49205L146.1981265625,99.3796L146.87762539062498,99.65493333333333L147.049175390625,106.56383333333333L147.31588203125,84.10744999999999L147.97929804687502,90.90818333333333L147.992700390625,67.12823333333334L148.016824609375,59.2242L148.13610546875,91.18941666666667L148.4604421875,45.545049999999996L148.46982382812502,104.79776666666665L149.914596484375,66.72015L149.957483984375,97.23593333333334L150.0687234375,116.48665L150.55120781250002,52.72239999999999L151.410298046875,106.64938333333335L151.691747265625,100.85164999999999L151.713191015625,46.34253333333333L152.024125390625,56.55248333333334L153.48632109374998,78.99706666666667L153.57879726562498,121.76419999999999L154.08138515624998,103.55975000000001L154.137675,108.51083333333334L154.20870742187498,13.475600000000009L155.14285078125002,62.52819999999999L156.286070703125,87.70645L156.45628046875,53.34681666666666L156.749791796875,85.71815L157.40114570312502,78.52015L157.44805390624998,106.08495L158.280339453125,85.92071666666666L158.2977625,70.69773333333333L158.45456992187502,91.65158333333335L158.521581640625,122.48989999999999L158.86334140625002,75.8976L160.271927734375,74.41276666666666L160.76647421875,47.328816666666675L160.77719609374998,26.873516666666667L161.368239453125,46.425133333333335L161.451333984375,64.08383333333333L161.491541015625,59.89385000000001L161.553191796875,86.45073333333333L161.92443671875,92.79126666666667L162.06382109375,89.68491666666667L162.63208046875,121.45051666666667L162.74868085937499,117.43655L163.51127421875,84.35426666666666L163.737773828125,58.81710000000001L164.134483203125,78.80138333333333L164.22025820312498,67.93653333333333L164.32479648437499,78.79450000000001L164.41995312499998,120.01681666666667L164.649133203125,125.47529999999999L165.54843046874998,78.5172L165.648948046875,55.22990000000001L167.22640390625,0.4346333333333313L167.88043828125,101.98543333333333L168.30797304687502,82.73078333333332L168.37364453125,95.47675L169.30644765625001,85.30908333333333L169.543669140625,81.97755L170.64132109375,110.40178333333333L170.645341796875,104.34740000000001L170.76194218749998,40.456300000000006L171.62773359375,93.53663333333334L171.635775,71.45981666666667L171.6733015625,71.83643333333333L171.68804414062498,80.70511666666667L171.6947453125,29.89726666666667L172.29248984375,77.90163333333332L172.68249804687503,105.45463333333333L172.687858984375,69.84321666666668L172.768273046875,43.927466666666675L173.36467734374997,19.45721666666666L173.45045234375002,41.89196666666666L173.725200390625,69.86681666666667L174.33098632812502,102.4358L174.8523375,80.45436666666666L175.631013671875,58.4926L175.751634765625,1.9332333333333431L176.0103,72.04195L177.255377734375,78.53686666666665L178.33828710937502,48.040749999999996L178.39725742187503,77.93310000000001L178.571487890625,84.35623333333332L179.03922968749998,59.483799999999995L179.42387695312502,49.92088333333332L179.698625,79.99908333333333L179.73883203124998,90.56401666666667L180.19183124999998,52.85121666666667L180.288328125,29.805816666666658L180.410289453125,65.5372L181.5803140625,7.039683333333331L181.943517578125,52.761733333333325L182.12176875,81.91363333333334L182.24909101562503,10.051633333333333L183.31993828125002,101.98543333333333L183.36282578125,114.79531666666668L183.55715976562502,126.93653333333333L184.0034578125,61.262649999999994L184.6467703125,33.25534999999999L186.54990312500001,61.95393333333334L186.931869921875,42.93921666666667L187.358064453125,41.76905L187.390230078125,73.23276666666668L187.46930390625,85.68373333333334L187.516212109375,88.73894999999999L187.524253515625,68.51571666666666L187.59126523437502,75.33808333333333L187.707865625,115.97925L187.907560546875,92.30058333333334L189.35099296875,61.203649999999996L190.0077078125,60.89979999999999L190.7636,54.78248333333334L191.0691734375,21.308833333333332L191.58650390625,45.607000000000006L191.660216796875,-26.612933333333338L192.102494140625,36.828783333333334L193.0098328125,84.92656666666666L193.220249609375,118.13668333333334L193.63974296875,76.80619999999999L194.096762890625,85.48903333333334L194.217383984375,60.000049999999995L194.37419140625,26.432983333333336L194.50017343750002,35.7245L194.930388671875,78.90955L195.244003515625,84.90493333333335L196.426090234375,-8.46650000000001L196.544030859375,25.462433333333326L197.26909765625,112.32616666666667L197.33074843749998,13.28679999999999L197.69261171875002,93.3557L197.8132328125,119.42288333333333L197.82127421875,63.33945L197.825294921875,47.02201666666667L198.465926953125,66.59821666666667L199.04222773437502,-47.847033333333314L199.16686953125,49.21190000000001L199.30759414062499,23.750449999999997L199.87987421875,67.02203333333333L199.8825546875,100.27443333333332L200.428030078125,43.24699999999999L200.44679335937502,38.94L201.071342578125,81.6265L201.258975390625,95.73733333333332L202.9597328125,110.84821666666667L203.82284375,33.48446666666667L204.34017421874998,99.60773333333333L205.50885859375,86.72213333333335L205.59463359375,90.58564999999999L205.671026953125,84.67188333333333L206.14815039062498,108.62785000000001L206.15619179687502,29.78123333333334L206.370629296875,50.44500000000001L206.98981757812498,113.11578333333334L207.12786171875,26.5854L207.150645703125,102.23716666666667L207.81138124999998,65.68076666666666L208.236235546875,25.142850000000003L208.35953710937503,48.325916666666664L208.43056953125,23.34925L208.88356875,29.417400000000004L209.12749140625002,135.21030000000002L209.29368046875,56.19848333333334L209.580490625,77.82788333333333L209.98122070312502,-39.75813333333334L210.321640234375,113.69988333333333L212.75148515625,76.05296666666668L212.97530429687498,72.18748333333333L213.2956203125,67.99946666666666L213.535522265625,62.68356666666667L213.62397773437502,26.207800000000002L213.902746484375,79.23503333333333L214.23646484375,36.5623L214.366467578125,54.75986666666666L214.40801484375,100.10038333333333L214.688123828125,45.61880000000001L214.89049921875,66.57756666666666L215.10225624999998,87.86574999999999L215.54587382812502,61.03746666666666L216.014955859375,96.82293333333335L216.14093789062503,92.34188333333333L216.60331875,84.56371666666666L216.843220703125,62.44166666666666L217.14209296875,13.258283333333335L217.62993828125,64.428L217.96633710937502,79.47693333333333L218.1097421875,94.12761666666667L218.54397812500002,97.2556L218.82006640625,17.803250000000006L219.413790234375,62.692416666666674L219.9217390625,95.76683333333335L220.338551953125,112.71458333333335L220.80495351562502,49.61015L221.031453125,84.70531666666666L221.458987890625,51.2651L221.5621859375,-4.538083333333351L221.761880859375,64.39063333333334L221.839614453125,31.66234999999999L222.115702734375,55.53079999999999L222.83540859375,103.65808333333332L224.294923828125,71.29855L224.762665625,44.21361666666667L225.30680078125002,76.83275L225.48371171875002,52.95938333333332L227.27962578125002,71.40573333333333L227.49942421875,41.697266666666664L227.68705703125,53.463833333333326L227.784894140625,-50.99468333333334L227.98726953125,68.66420000000001L229.33822578125,44.909816666666664L229.39183515625,102.32271666666666L229.4105984375,25.469316666666664L230.37288671875,69.98776666666667L230.57794257812498,74.33508333333333L230.70526484375,63.52235L230.72134765625,19.404116666666663L231.250740234375,29.051600000000004L231.88467109375,8.82246666666667L233.16593515625001,65.15271666666666L233.5224375,134.29285000000002L234.08265546875,54.59073333333334L234.523592578125,89.739L235.24731914062502,83.9865L235.291546875,93.32128333333333L235.37062070312498,40.88503333333334L235.43361171875,108.57376666666667L235.453715234375,84.38671666666666L236.2672375,115.2211L236.381157421875,93.50123333333332L236.410642578125,95.93400000000001L236.63848242187498,78.25563333333332L236.793949609375,-58.67943333333334L236.807351953125,-16.455099999999995L236.834156640625,28.023033333333338L236.84755898437498,-18.486666666666647L236.860961328125,80.94800000000001L236.874363671875,50.032983333333334L236.901168359375,1.2802999999999964L236.91457070312498,83.59611666666667L236.92797304687502,11.208033333333324L236.941375390625,-32.83743333333332L236.981582421875,49.674066666666675L236.99498476562502,-35.15515L237.008387109375,38.304766666666666L237.075398828125,71.05271666666667L237.102203515625,-146.41243333333335L237.12900820312498,-20.88403333333334L237.142410546875,63.755399999999995L237.155812890625,36.09816666666667L237.196019921875,10.615083333333331L237.20942226562502,78.20155L237.222824609375,94.39705L237.236226953125,-5.811499999999989L237.249629296875,107.57568333333332L237.263031640625,57.12478333333334L237.27643398437502,48.30035000000001L237.289836328125,79.41891666666666L237.316641015625,111.82466666666667L237.330043359375,59.904666666666664L237.356848046875,59.39038333333334L237.370250390625,115.02639999999998L237.383652734375,85.19698333333334L237.397055078125,107.19218333333332L237.43726210937498,102.05918333333334L237.45066445312497,51.84428333333333L237.477469140625,10.97891666666667L237.49087148437502,-16.008666666666684L237.504273828125,59.99611666666667L237.517676171875,86.8421L237.531078515625,79.94794999999999L237.544480859375,94.45900000000002L237.55788320312502,79.3609L237.571285546875,97.41293333333333L237.584687890625,71.7145L237.598090234375,19.765000000000004L237.62489492187498,-2.403266666666651L237.638297265625,105.94040000000001L237.665101953125,80.06103333333333L237.678504296875,27.620850000000004L237.705308984375,-60.31275000000002L237.71871132812498,57.123799999999996L237.74551601562501,21.645133333333334L237.758918359375,95.08538333333333L237.77232070312502,33.245516666666674L237.785723046875,74.01648333333333L237.799125390625,52.440183333333344L237.812527734375,37.29095L237.839332421875,-12.94263333333335L237.892941796875,69.53445L237.906344140625,30.107700000000005L237.93314882812498,32.284800000000004L237.959953515625,20.971550000000008L237.97335585937498,48.483250000000005L237.986758203125,-21.92833333333334L238.000160546875,91.55226666666665L238.01356289062502,59.4071L238.067172265625,112.9319L238.08057460937502,93.47370000000001L238.093976953125,97.13268333333333L238.120781640625,30.437116666666668L238.134183984375,57.351933333333335L238.147586328125,38.5565L238.174391015625,1.4504166666666576L238.201195703125,-37.47286666666668L238.281609765625,-25.014033333333316L238.29501210937502,9.109599999999999L238.308414453125,65.6375L238.348621484375,109.49121666666667L238.36202382812502,75.2958L238.375426171875,90.94161666666666L238.388828515625,104.50571666666667L238.402230859375,-0.9744833333333505L238.415633203125,76.52496666666666L238.455840234375,110.07138333333332L238.469242578125,33.71456666666666L238.509449609375,50.99861666666666L238.52285195312498,70.01726666666667L238.53625429687497,48.952299999999994L238.563058984375,95.51411666666668L238.57646132812502,46.525433333333325L238.616668359375,20.84765L238.630070703125,103.92358333333333L238.64347304687502,30.88158333333334L238.670277734375,61.390483333333336L238.683680078125,45.646333333333324L238.723887109375,86.30716666666666L238.737289453125,49.50886666666667L238.750691796875,31.86491666666667L238.77749648437498,40.635266666666666L238.81770351562503,16.027350000000002L238.83110585937501,83.18901666666667L238.871312890625,76.98516666666667L238.884715234375,98.50246666666668L238.898117578125,42.46918333333334L238.951726953125,43.840933333333325L238.978531640625,39.49951666666667L238.99193398437498,56.055899999999994L239.005336328125,-51.75578333333334L239.01873867187498,118.44545000000001L239.032141015625,53.127533333333325L239.045543359375,112.8316L239.05894570312498,24.700349999999993L239.09915273437502,41.75528333333334L239.112555078125,55.46196666666666L239.125957421875,44.80263333333334L239.13935976562502,103.74068333333334L239.166164453125,-1.532033333333348L239.192969140625,107.65041666666667L239.206371484375,69.22765L239.246578515625,80.12101666666666L239.259980859375,83.93634999999999L239.286785546875,4.459416666666661L239.30018789062498,17.634116666666664L239.313590234375,6.908900000000005L239.326992578125,81.63141666666667L239.34039492187497,49.31416666666667L239.35379726562502,-41.3944L239.394004296875,67.46945L239.407406640625,50.64658333333334L239.461016015625,55.7078L239.474418359375,68.19515L239.487820703125,80.79361666666667L239.501223046875,75.78058333333333L239.51462539062499,-21.549750000000003L239.541430078125,47.871616666666675L239.554832421875,42.73960000000001L239.58163710937498,-19.863333333333333L239.595039453125,29.306283333333337L239.621844140625,6.831216666666674L239.648648828125,51.712516666666666L239.66205117187502,78.99116666666667L239.675453515625,-10.223716666666673L239.688855859375,17.873066666666677L239.715660546875,60.22228333333333L239.72906289062502,51.04581666666666L239.755867578125,35.44523333333333L239.769269921875,88.04471666666667L239.79607460937498,76.87503333333335L239.809476953125,-11.758700000000001L239.836281640625,121.65701666666666L239.849683984375,19.734516666666668L239.86308632812498,96.67248333333335L239.876488671875,62.08963333333334L239.91669570312501,70.87768333333334L239.94350039062502,4.391566666666668L239.956902734375,33.056716666666674L239.970305078125,69.0359L239.983707421875,25.999333333333325L240.037316796875,106.9552L240.050719140625,75.69995L240.07752382812498,87.71726666666667L240.090926171875,-73.75590000000001L240.10432851562499,72.13929999999999L240.117730859375,53.923049999999996L240.131133203125,74.20725L240.157937890625,69.04868333333334L240.22494960937502,77.64006666666666L240.251754296875,-13.555249999999981L240.332168359375,90.97996666666666L240.345570703125,91.47851666666666L240.372375390625,47.71821666666667L240.38577773437498,76.92125L240.412582421875,67.2777L240.42598476562497,99.42089999999999L240.46619179687502,41.14660000000001L240.479594140625,52.15206666666668L240.50639882812501,69.9799L240.519801171875,67.21575L240.533203515625,14.345849999999992L240.546605859375,-6.5794833333333225L240.560008203125,14.082316666666662L240.586812890625,68.25710000000001L240.613617578125,52.889566666666674L240.627019921875,25.95803333333333L240.640422265625,36.65964999999999L240.653824609375,47.701499999999996L240.66722695312498,52.81483333333334L240.680629296875,106.73689999999999L240.69403164062498,-11.543350000000006L240.74764101562502,80.20656666666667L240.761043359375,89.08115L240.774445703125,27.29733333333334L240.787848046875,69.20798333333335L240.801250390625,34.829666666666675L240.841457421875,-107.55798333333333L240.854859765625,63.5194L240.868262109375,33.31041666666667L240.921871484375,53.21505L240.935273828125,50.367316666666675L240.94867617187498,56.99301666666667L240.988883203125,47.46058333333334L241.00228554687502,71.21496666666665L241.02909023437502,-4.3945166666666475L241.042492578125,6.303166666666673L241.069297265625,-37.40501666666667L241.082699609375,71.55225L241.109504296875,61.86838333333333L241.122906640625,89.2552L241.149711328125,94.71958333333332L241.16311367187498,67.63759999999999L241.176516015625,101.53211666666668L241.18991835937499,-30.195216666666674L241.203320703125,39.91743333333333L241.216723046875,43.61083333333333L241.297137109375,65.6198L241.337344140625,65.55391666666667L241.350746484375,88.854L241.377551171875,-30.936649999999993L241.404355859375,62.17813333333333L241.417758203125,85.25008333333332L241.457965234375,58.5457L241.47136757812498,-5.3572L241.498172265625,87.52846666666667L241.538379296875,-26.522466666666666L241.55178164062502,95.5387L241.565183984375,-19.55554999999999L241.578586328125,59.49363333333333L241.605391015625,-40.16326666666666L241.632195703125,93.05283333333333L241.645598046875,29.27481666666666L241.659000390625,97.02550000000001L241.672402734375,36.80518333333333L241.712609765625,-17.83766666666668L241.739414453125,32.43525L241.75281679687498,32.25333333333332L241.766219140625,76.29585L241.77962148437499,41.91753333333334L241.793023828125,12.343783333333336L241.80642617187502,46.51166666666666L241.819828515625,73.13640000000001L241.846633203125,52.02620000000001L241.860035546875,-36.32728333333335L241.873437890625,89.08508333333333L241.886840234375,105.15078333333334L241.900242578125,30.259133333333327L241.913644921875,63.107383333333324L241.927047265625,94.23086666666667L241.940449609375,80.10921666666665L241.953851953125,80.60285L241.96725429687498,45.572583333333334L241.980656640625,25.33853333333334L242.061070703125,78.08256666666666L242.101277734375,74.48454999999998L242.11468007812502,28.02696666666666L242.141484765625,-0.4405333333333503L242.154887109375,46.7575L242.208496484375,22.631416666666663L242.221898828125,-23.83010000000001L242.235301171875,66.67885000000001L242.24870351562498,-22.971650000000004L242.302312890625,-5.389650000000016L242.31571523437498,62.60981666666666L242.32911757812502,81.83300000000001L242.342519921875,64.94916666666666L242.369324609375,32.893483333333336L242.382726953125,46.54608333333334L242.436336328125,-36.91335L242.449738671875,17.816033333333344L242.463141015625,60.07773333333333L242.489945703125,-20.210449999999994L242.516750390625,19.931183333333326L242.53015273437498,-67.55401666666666L242.583762109375,-18.271316666666653L242.597164453125,69.00345L242.61056679687502,85.52345L242.623969140625,48.19906666666666L242.63737148437502,28.73988333333334L242.664176171875,24.427966666666663L242.67757851562502,71.28183333333332L242.731187890625,64.63351666666668L242.771394921875,69.11948333333333L242.81160195312498,27.160649999999997L242.825004296875,20.944999999999993" style="fill: none;" fill="none"></path></g></g></g></g></g></g><g transform="translate(61, 177)" clip-path="url(#clip_1)"><clipPath id="clip_1"><rect width="268" height="23"></rect></clipPath><g><g><line x1="0" y1="0" x2="0" y2="5" style="visibility: inherit;" fill="rgb(0, 0, 0)" stroke="rgb(204, 204, 204)" stroke-width="1px"></line><line x1="26.8046875" y1="0" x2="26.8046875" y2="5" style="visibility: inherit;" fill="rgb(0, 0, 0)" stroke="rgb(204, 204, 204)" stroke-width="1px"></line><line x1="53.609375" y1="0" x2="53.609375" y2="5" style="visibility: inherit;" fill="rgb(0, 0, 0)" stroke="rgb(204, 204, 204)" stroke-width="1px"></line><line x1="80.4140625" y1="0" x2="80.4140625" y2="5" style="visibility: inherit;" fill="rgb(0, 0, 0)" stroke="rgb(204, 204, 204)" stroke-width="1px"></line><line x1="107.21875" y1="0" x2="107.21875" y2="5" style="visibility: inherit;" fill="rgb(0, 0, 0)" stroke="rgb(204, 204, 204)" stroke-width="1px"></line><line x1="134.0234375" y1="0" x2="134.0234375" y2="5" style="visibility: inherit;" fill="rgb(0, 0, 0)" stroke="rgb(204, 204, 204)" stroke-width="1px"></line><line x1="160.828125" y1="0" x2="160.828125" y2="5" style="visibility: inherit;" fill="rgb(0, 0, 0)" stroke="rgb(204, 204, 204)" stroke-width="1px"></line><line x1="187.6328125" y1="0" x2="187.6328125" y2="5" style="visibility: inherit;" fill="rgb(0, 0, 0)" stroke="rgb(204, 204, 204)" stroke-width="1px"></line><line x1="214.4375" y1="0" x2="214.4375" y2="5" style="visibility: inherit;" fill="rgb(0, 0, 0)" stroke="rgb(204, 204, 204)" stroke-width="1px"></line><line x1="241.2421875" y1="0" x2="241.2421875" y2="5" style="visibility: inherit;" fill="rgb(0, 0, 0)" stroke="rgb(204, 204, 204)" stroke-width="1px"></line><line x1="268.046875" y1="0" x2="268.046875" y2="5" style="visibility: inherit;" fill="rgb(0, 0, 0)" stroke="rgb(204, 204, 204)" stroke-width="1px"></line></g><g transform="translate(0, 8)"><text x="0" y="0" dx="0em" dy="0.95em" style="text-anchor: middle; visibility: hidden; font-family: Roboto, sans-serif; font-size: 12px; font-weight: 200;" fill="rgb(33, 33, 33)" stroke="none" stroke-width="1px">-20k</text><text x="26.8046875" y="0" dx="0em" dy="0.95em" style="text-anchor: middle; visibility: inherit; font-family: Roboto, sans-serif; font-size: 12px; font-weight: 200;" fill="rgb(33, 33, 33)" stroke="none" stroke-width="1px">0</text><text x="53.609375" y="0" dx="0em" dy="0.95em" style="text-anchor: middle; visibility: hidden; font-family: Roboto, sans-serif; font-size: 12px; font-weight: 200;" fill="rgb(33, 33, 33)" stroke="none" stroke-width="1px">20k</text><text x="80.4140625" y="0" dx="0em" dy="0.95em" style="text-anchor: middle; visibility: inherit; font-family: Roboto, sans-serif; font-size: 12px; font-weight: 200;" fill="rgb(33, 33, 33)" stroke="none" stroke-width="1px">40k</text><text x="107.21875" y="0" dx="0em" dy="0.95em" style="text-anchor: middle; visibility: hidden; font-family: Roboto, sans-serif; font-size: 12px; font-weight: 200;" fill="rgb(33, 33, 33)" stroke="none" stroke-width="1px">60k</text><text x="134.0234375" y="0" dx="0em" dy="0.95em" style="text-anchor: middle; visibility: inherit; font-family: Roboto, sans-serif; font-size: 12px; font-weight: 200;" fill="rgb(33, 33, 33)" stroke="none" stroke-width="1px">80k</text><text x="160.828125" y="0" dx="0em" dy="0.95em" style="text-anchor: middle; visibility: hidden; font-family: Roboto, sans-serif; font-size: 12px; font-weight: 200;" fill="rgb(33, 33, 33)" stroke="none" stroke-width="1px">100k</text><text x="187.6328125" y="0" dx="0em" dy="0.95em" style="text-anchor: middle; visibility: inherit; font-family: Roboto, sans-serif; font-size: 12px; font-weight: 200;" fill="rgb(33, 33, 33)" stroke="none" stroke-width="1px">120k</text><text x="214.4375" y="0" dx="0em" dy="0.95em" style="text-anchor: middle; visibility: hidden; font-family: Roboto, sans-serif; font-size: 12px; font-weight: 200;" fill="rgb(33, 33, 33)" stroke="none" stroke-width="1px">140k</text><text x="241.2421875" y="0" dx="0em" dy="0.95em" style="text-anchor: middle; visibility: inherit; font-family: Roboto, sans-serif; font-size: 12px; font-weight: 200;" fill="rgb(33, 33, 33)" stroke="none" stroke-width="1px">160k</text><text x="268.046875" y="0" dx="0em" dy="0.95em" style="text-anchor: middle; visibility: hidden; font-family: Roboto, sans-serif; font-size: 12px; font-weight: 200;" fill="rgb(33, 33, 33)" stroke="none" stroke-width="1px">180k</text></g><line x1="0" y1="0" x2="268.046875" y2="0" fill="rgb(0, 0, 0)" stroke="rgb(204, 204, 204)" stroke-width="1px"></line></g></g></g></g></svg>