<svg viewBox="0 0 330 200" xmlns="http://www.w3.org/2000/svg"><g><g><g><g><g><line x1="74.78125" y1="177" x2="69.78125" y2="177" style="visibility: inherit;" fill="rgb(0, 0, 0)" stroke="rgb(204, 204, 204)" stroke-width="1px"></line><line x1="74.78125" y1="160.9090909090909" x2="69.78125" y2="160.9090909090909" style="visibility: inherit;" fill="rgb(0, 0, 0)" stroke="rgb(204, 204, 204)" stroke-width="1px"></line><line x1="74.78125" y1="144.8181818181818" x2="69.78125" y2="144.8181818181818" style="visibility: inherit;" fill="rgb(0, 0, 0)" stroke="rgb(204, 204, 204)" stroke-width="1px"></line><line x1="74.78125" y1="128.72727272727275" x2="69.78125" y2="128.72727272727275" style="visibility: inherit;" fill="rgb(0, 0, 0)" stroke="rgb(204, 204, 204)" stroke-width="1px"></line><line x1="74.78125" y1="112.63636363636364" x2="69.78125" y2="112.63636363636364" style="visibility: inherit;" fill="rgb(0, 0, 0)" stroke="rgb(204, 204, 204)" stroke-width="1px"></line><line x1="74.78125" y1="96.54545454545455" x2="69.78125" y2="96.54545454545455" style="visibility: inherit;" fill="rgb(0, 0, 0)" stroke="rgb(204, 204, 204)" stroke-width="1px"></line><line x1="74.78125" y1="80.45454545454547" x2="69.78125" y2="80.45454545454547" style="visibility: inherit;" fill="rgb(0, 0, 0)" stroke="rgb(204, 204, 204)" stroke-width="1px"></line><line x1="74.78125" y1="64.36363636363636" x2="69.78125" y2="64.36363636363636" style="visibility: inherit;" fill="rgb(0, 0, 0)" stroke="rgb(204, 204, 204)" stroke-width="1px"></line><line x1="74.78125" y1="48.27272727272728" x2="69.78125" y2="48.27272727272728" style="visibility: inherit;" fill="rgb(0, 0, 0)" stroke="rgb(204, 204, 204)" stroke-width="1px"></line><line x1="74.78125" y1="32.18181818181819" x2="69.78125" y2="32.18181818181819" style="visibility: inherit;" fill="rgb(0, 0, 0)" stroke="rgb(204, 204, 204)" stroke-width="1px"></line><line x1="74.78125" y1="16.090909090909093" x2="69.78125" y2="16.090909090909093" style="visibility: inherit;" fill="rgb(0, 0, 0)" stroke="rgb(204, 204, 204)" stroke-width="1px"></line><line x1="74.78125" y1="0" x2="69.78125" y2="0" style="visibility: inherit;" fill="rgb(0, 0, 0)" stroke="rgb(204, 204, 204)" stroke-width="1px"></line></g><g transform="translate(64.78125, 0)"><text x="0" y="177" dx="0em" dy="0.3em" style="text-anchor: end; visibility: hidden; font-family: &quot;Helvetica Neue&quot;, sans-serif; font-size: 12px; font-weight: 200;" fill="rgb(50, 49, 63)" stroke="none" stroke-width="1px">-200</text><text x="0" y="160.9090909090909" dx="0em" dy="0.3em" style="text-anchor: end; visibility: inherit; font-family: &quot;Helvetica Neue&quot;, sans-serif; font-size: 12px; font-weight: 200;" fill="rgb(50, 49, 63)" stroke="none" stroke-width="1px">0</text><text x="0" y="144.8181818181818" dx="0em" dy="0.3em" style="text-anchor: end; visibility: hidden; font-family: &quot;Helvetica Neue&quot;, sans-serif; font-size: 12px; font-weight: 200;" fill="rgb(50, 49, 63)" stroke="none" stroke-width="1px">200</text><text x="0" y="128.72727272727275" dx="0em" dy="0.3em" style="text-anchor: end; visibility: inherit; font-family: &quot;Helvetica Neue&quot;, sans-serif; font-size: 12px; font-weight: 200;" fill="rgb(50, 49, 63)" stroke="none" stroke-width="1px">400</text><text x="0" y="112.63636363636364" dx="0em" dy="0.3em" style="text-anchor: end; visibility: hidden; font-family: &quot;Helvetica Neue&quot;, sans-serif; font-size: 12px; font-weight: 200;" fill="rgb(50, 49, 63)" stroke="none" stroke-width="1px">600</text><text x="0" y="96.54545454545455" dx="0em" dy="0.3em" style="text-anchor: end; visibility: inherit; font-family: &quot;Helvetica Neue&quot;, sans-serif; font-size: 12px; font-weight: 200;" fill="rgb(50, 49, 63)" stroke="none" stroke-width="1px">800</text><text x="0" y="80.45454545454547" dx="0em" dy="0.3em" style="text-anchor: end; visibility: hidden; font-family: &quot;Helvetica Neue&quot;, sans-serif; font-size: 12px; font-weight: 200;" fill="rgb(50, 49, 63)" stroke="none" stroke-width="1px">1e+3</text><text x="0" y="64.36363636363636" dx="0em" dy="0.3em" style="text-anchor: end; visibility: inherit; font-family: &quot;Helvetica Neue&quot;, sans-serif; font-size: 12px; font-weight: 200;" fill="rgb(50, 49, 63)" stroke="none" stroke-width="1px">1.2e+3</text><text x="0" y="48.27272727272728" dx="0em" dy="0.3em" style="text-anchor: end; visibility: hidden; font-family: &quot;Helvetica Neue&quot;, sans-serif; font-size: 12px; font-weight: 200;" fill="rgb(50, 49, 63)" stroke="none" stroke-width="1px">1.4e+3</text><text x="0" y="32.18181818181819" dx="0em" dy="0.3em" style="text-anchor: end; visibility: inherit; font-family: &quot;Helvetica Neue&quot;, sans-serif; font-size: 12px; font-weight: 200;" fill="rgb(50, 49, 63)" stroke="none" stroke-width="1px">1.6e+3</text><text x="0" y="16.090909090909093" dx="0em" dy="0.3em" style="text-anchor: end; visibility: hidden; font-family: &quot;Helvetica Neue&quot;, sans-serif; font-size: 12px; font-weight: 200;" fill="rgb(50, 49, 63)" stroke="none" stroke-width="1px">1.8e+3</text><text x="0" y="0" dx="0em" dy="0.3em" style="text-anchor: end; visibility: hidden; font-family: &quot;Helvetica Neue&quot;, sans-serif; font-size: 12px; font-weight: 200;" fill="rgb(50, 49, 63)" stroke="none" stroke-width="1px">2e+3</text></g><line x1="74.78125" y1="0" x2="74.78125" y2="177" fill="rgb(0, 0, 0)" stroke="rgb(204, 204, 204)" stroke-width="1px"></line></g></g><g transform="translate(74, 0)" clip-path="url(#clip_0)"><clipPath id="clip_0"><rect width="255" height="177"></rect></clipPath><g><g><g><line x1="0" y1="0" x2="0" y2="177" fill="rgb(0, 0, 0)" stroke="rgb(60, 60, 60)" stroke-width="1px" opacity="0.25"></line><line x1="28.357638888888886" y1="0" x2="28.357638888888886" y2="177" fill="rgb(0, 0, 0)" stroke="rgb(60, 60, 60)" stroke-width="1px" opacity="0.25"></line><line x1="56.71527777777777" y1="0" x2="56.71527777777777" y2="177" fill="rgb(0, 0, 0)" stroke="rgb(60, 60, 60)" stroke-width="1px" opacity="0.25"></line><line x1="85.07291666666666" y1="0" x2="85.07291666666666" y2="177" fill="rgb(0, 0, 0)" stroke="rgb(60, 60, 60)" stroke-width="1px" opacity="0.25"></line><line x1="113.43055555555554" y1="0" x2="113.43055555555554" y2="177" fill="rgb(0, 0, 0)" stroke="rgb(60, 60, 60)" stroke-width="1px" opacity="0.25"></line><line x1="141.78819444444446" y1="0" x2="141.78819444444446" y2="177" fill="rgb(0, 0, 0)" stroke="rgb(60, 60, 60)" stroke-width="1px" opacity="0.25"></line><line x1="170.14583333333331" y1="0" x2="170.14583333333331" y2="177" fill="rgb(0, 0, 0)" stroke="rgb(60, 60, 60)" stroke-width="1px" opacity="0.25"></line><line x1="198.50347222222223" y1="0" x2="198.50347222222223" y2="177" fill="rgb(0, 0, 0)" stroke="rgb(60, 60, 60)" stroke-width="1px" opacity="0.25"></line><line x1="226.8611111111111" y1="0" x2="226.8611111111111" y2="177" fill="rgb(0, 0, 0)" stroke="rgb(60, 60, 60)" stroke-width="1px" opacity="0.25"></line><line x1="255.21875" y1="0" x2="255.21875" y2="177" fill="rgb(0, 0, 0)" stroke="rgb(60, 60, 60)" stroke-width="1px" opacity="0.25"></line></g><g><line x1="0" y1="177" x2="255.21875" y2="177" fill="rgb(0, 0, 0)" stroke="rgb(60, 60, 60)" stroke-width="1px" opacity="0.25"></line><line x1="0" y1="160.9090909090909" x2="255.21875" y2="160.9090909090909" fill="rgb(0, 0, 0)" stroke="rgb(60, 60, 60)" stroke-width="1px" opacity="0.25"></line><line x1="0" y1="144.8181818181818" x2="255.21875" y2="144.8181818181818" fill="rgb(0, 0, 0)" stroke="rgb(60, 60, 60)" stroke-width="1px" opacity="0.25"></line><line x1="0" y1="128.72727272727275" x2="255.21875" y2="128.72727272727275" fill="rgb(0, 0, 0)" stroke="rgb(60, 60, 60)" stroke-width="1px" opacity="0.25"></line><line x1="0" y1="112.63636363636364" x2="255.21875" y2="112.63636363636364" fill="rgb(0, 0, 0)" stroke="rgb(60, 60, 60)" stroke-width="1px" opacity="0.25"></line><line x1="0" y1="96.54545454545455" x2="255.21875" y2="96.54545454545455" fill="rgb(0, 0, 0)" stroke="rgb(60, 60, 60)" stroke-width="1px" opacity="0.25"></line><line x1="0" y1="80.45454545454547" x2="255.21875" y2="80.45454545454547" fill="rgb(0, 0, 0)" stroke="rgb(60, 60, 60)" stroke-width="1px" opacity="0.25"></line><line x1="0" y1="64.36363636363636" x2="255.21875" y2="64.36363636363636" fill="rgb(0, 0, 0)" stroke="rgb(60, 60, 60)" stroke-width="1px" opacity="0.25"></line><line x1="0" y1="48.27272727272728" x2="255.21875" y2="48.27272727272728" fill="rgb(0, 0, 0)" stroke="rgb(60, 60, 60)" stroke-width="1px" opacity="0.25"></line><line x1="0" y1="32.18181818181819" x2="255.21875" y2="32.18181818181819" fill="rgb(0, 0, 0)" stroke="rgb(60, 60, 60)" stroke-width="1px" opacity="0.25"></line><line x1="0" y1="16.090909090909093" x2="255.21875" y2="16.090909090909093" fill="rgb(0, 0, 0)" stroke="rgb(60, 60, 60)" stroke-width="1px" opacity="0.25"></line><line x1="0" y1="0" x2="255.21875" y2="0" fill="rgb(0, 0, 0)" stroke="rgb(60, 60, 60)" stroke-width="1px" opacity="0.25"></line></g></g></g><g><g><line x1="0" y1="160.9090909090909" x2="255.21875" y2="160.9090909090909" fill="rgb(0, 0, 0)" stroke="rgb(153, 153, 153)" stroke-width="1.5px"></line></g></g><g><g><line x1="28.357638888888886" y1="0" x2="28.357638888888886" y2="177" fill="rgb(0, 0, 0)" stroke="rgb(153, 153, 153)" stroke-width="1.5px"></line></g></g><g><g><g><g><g><path stroke="rgb(255, 112, 67)" stroke-width="2px" d="M28.49233767361111,149.27191593516957L28.49800920138889,149.72560670405483L28.601514583333334,149.04084615549357L28.656811979166665,149.44253572575872L28.661065625,149.646453097152L28.719198784722224,149.06116644505548L28.729123958333332,148.57282497373618L28.73479548611111,148.82495666234738L28.831211458333335,149.11212504202183L29.1332203125,149.30475584464963L29.198442881944445,149.2088571097484L29.24097934027778,149.17760182919523L29.311873437499997,149.07852001482325L29.32038072916667,148.81588956649452L29.428139756944443,148.504044962114L29.59970347222222,148.31614341015802L29.603957118055554,148.39199754131963L29.643657812500003,148.19939416297106L29.663508159722223,147.93249094823582L29.666343923611112,147.88818025208968L29.80246059027778,147.98058776023217L29.90880173611111,148.13848759099784L29.913055381944442,147.80359371787142L29.97260642361111,147.70479650673693L30.009471354166667,147.58160970490647L30.06476875,147.5827714351976L30.0775296875,147.37761135550966L30.18245295138889,147.49094263644244L30.32991267361111,147.56452229646442L30.436253819444445,147.58940337308988L30.44476111111111,147.35705298010066L30.56528107638889,147.24225428827006L30.7410984375,147.34026595613045L30.78079913194444,147.40410876014315L30.794977951388887,147.3314238822302L31.071464930555557,147.07136761257976L31.207581597222223,146.82439573829475L31.234521354166667,146.8761390122805L31.34369826388889,146.5208392666833L31.433024826388888,146.04689202679634L31.530858680555554,145.9197340986497L31.577648784722225,145.76481504995252L31.93779079861111,145.39530649741067L31.970402083333333,144.83385003614714L32.00443125,144.33220093188493L32.02144583333333,144.0036013384902L32.51345086805556,143.53413043643252L33.13306527777778,142.70690286761703L33.38828402777778,141.68777721065493L33.413805902777774,140.82067436312732L33.494625173611105,139.98931794262944L33.67186041666667,139.81022088368465L33.684621354166666,139.21014170331534L33.732829340277775,139.2754626832757L34.1099859375,137.71304795571166L34.173790624999995,136.24475285638835L34.24184895833333,134.6585964345669L34.647363194444445,132.93527718990262L34.71967517361111,131.70999900751292L34.75512222222223,131.22732207224652L34.83452361111111,130.1660268314818L35.167725868055555,129.70469013663177L35.18332256944445,129.4557700325272L35.47824201388889,128.42882599329715L35.82987673611111,128.30265610391095L35.888009895833335,127.59439744289136L35.90077083333333,126.84970115154894L35.99718680555556,126.88160230456799L36.694784722222224,125.97940487460619L36.730231770833335,125.6354818468308L36.816722569444444,125.38636704474732L37.03791215277778,125.4112230690568L37.27753420138889,125.32543089253366L37.43350121527778,125.45699018253751L37.52140989583333,125.30374867123459L37.663198090277774,125.31674460889641L38.1934859375,124.79023906375113L38.61885052083333,124.79424180518367L38.73937048611111,124.6997662816935L38.93787395833333,124.07910007651226L38.939291840277775,123.06033634326212L39.017275347222224,122.96326280310768L39.18174965277778,123.06700986455647L39.45681875,122.52167957348261L39.59151753472222,122.50614313455212L39.76875277777778,122.5399361537705L40.54433420138889,123.0958727904592L40.87186493055556,122.8267857730082L41.0519359375,122.72793405602272L41.132755208333336,122.71440098314321L41.24760364583333,121.86493389569391L41.43901770833333,121.80695965617494L41.44327135416666,121.90815851500815L41.56804496527778,122.56998937814976L41.72684774305556,121.91852931820114L42.00617048611111,121.68925233165788L42.017513541666666,122.37799423852621L42.04587118055556,122.69362846035834L42.53787621527778,122.36672755751462L42.550637152777774,122.29628872626381L42.5704875,122.40386412980077L42.671157118055554,122.66662257454396L43.131968750000006,122.98858871049438L43.23405625,123.26075730978185L43.31771128472222,122.94251749654484L43.72747916666667,123.07849493905022L43.770015625000006,123.25367323883327L44.09896423611111,122.89591546077867L44.24642395833333,122.79770074493821L44.60373020833333,123.0411857663625L44.822084027777784,123.03404156199572L44.944021875000004,122.83653081048874L45.09573524305555,122.55317411179715L45.107078298611114,122.77334099298406L45.196404861111105,123.32096727488408L45.21625520833334,123.15761974341858L45.45020572916667,122.97289388261609L45.76639340277777,122.33899685354595L45.97623993055556,122.05762456770412L46.00176180555556,121.46999941789298L46.5646609375,120.9059381776695L46.866669791666666,120.8533555859992L47.469269618055556,120.40124339489094L47.520313368055554,119.4739011815433L47.59546111111111,118.54375360793053L47.66351944444445,118.01335460961852L47.829411631944446,117.73713235838446L48.311491493055556,117.58658652691093L48.44051875,117.1946461338726L48.54969565972222,116.48236821848286L48.62626128472222,115.96954280877004L48.877226388888886,115.55828417553826L49.30400885416667,114.91158874988406L49.36639565972222,115.00588449001097L49.50393020833334,114.39934393319191L49.61736076388889,114.60017670550275L49.716612500000004,114.57727549989181L49.89101197916667,114.35552795605963L49.96332395833333,113.9875034090037L50.53473038194444,113.73925012972977L50.61554965277778,113.7194728370414L50.66801128472222,113.50053684735049L50.76868090277778,113.1199574855095L50.98419895833334,113.3431322489906L51.51874045138889,113.53896111494447L51.74276579861111,113.35064735052306L51.880300347222224,113.78457417422618L52.01641701388889,113.21971041134056L52.05044618055556,113.11360583134055L52.46730347222222,112.97788443417285L52.482900173611114,113.00407326670936L52.844460069444445,112.72845284129522L52.952219097222226,112.6941018719195L53.004680729166665,112.90454965817426L53.02878472222223,113.55405213122175L53.13370798611111,112.85635993552445L53.21878090277778,112.89218701249959L53.31377899305556,113.30910469945383L53.42862743055556,113.47313742002602L53.50235729166667,113.5277412942661L54.11771805555556,113.13941317088495L54.233984375,112.88797184407518L54.449502430555555,112.67675987959106L54.46509913194444,112.55706684242905L54.528903819444444,112.60019538667444L54.71464635416667,112.28702243097207L55.02941614583334,112.02779461377497L55.05635590277778,111.80957480700468L55.124414236111114,111.82939857667081L55.171204340277775,111.94277974361798L55.24493420138889,111.54952449063852L55.32149982638889,111.3489612434164L55.37679722222222,111.17851113973401L55.37963298611111,110.59769126941845L55.39097604166667,110.3138028215049L55.483138368055556,110.49326060912347L55.59656892361111,110.37318170634617L55.82484791666667,110.49641751386717L55.86596649305556,110.21259962428682L56.175064756944444,110.13567204777536L56.27431649305555,110.26003098001095L56.326778125000004,110.49012163309138L56.730874479166665,110.59914924297074L56.80176857638889,110.05363772568762L56.974750173611106,110.38230804515418L57.201611284722226,110.59765678675741L57.23705833333334,110.9096382680385L57.25265503472222,110.5694130767484L58.00129670138889,110.31349449577095L58.22106840277778,110.23904845513412L58.26218697916667,110.0639362229382L58.31039496527777,110.71088066988649L58.334498958333334,110.34778976145319L58.34442413194444,109.54582328424321L58.530166666666666,109.4375193647804L58.58971770833333,109.83031572417929L58.701730381944444,109.95252562915236L58.86478680555556,110.20330999827374L58.96120277777778,110.34604718037643L59.38656736111111,110.27086007592212L59.40358194444444,110.13279395460586L59.56380260416667,110.46611967297213L59.66447222222222,110.23561566010183L59.695665625,111.04138648082825L59.7849921875,111.03243249183261L59.83036440972223,110.56176026520014L59.83320017361111,110.7038512841826L59.853050520833335,110.31129286019059L59.8615578125,110.3250641423571L59.933869791666666,110.43048386451096L60.34363767361111,110.07029059161648L60.35356284722222,110.05284960063317L60.379084722222224,109.71784873141885L60.421621180555555,109.3534928354909L60.70803333333333,109.12111230190804L60.74915190972222,109.29412891264896L61.066757465277774,109.08025579408616L61.16459131944445,109.06125010103916L61.23548541666667,109.13968475003364L61.35600538194445,109.69300320689592L61.388616666666664,109.11491027252534L61.503465104166665,108.71028004069923L61.785623611111106,108.63776055935205L62.096139756944446,108.83145609433683L62.222331249999996,108.76944684853638L62.38538767361111,108.66838284549631L62.40523802083333,108.80118944731576L62.425088368055555,108.65672391166977L62.71291840277778,108.53676174777152L62.820677430555556,107.9661821638864L62.88164635416667,107.91778837931463L62.902914583333335,108.15582488229802L63.08156770833334,108.05829637133883L63.18932673611111,107.96549230238494L63.25171354166666,107.82665614032581L63.301339409722225,107.90786836720363L63.51543958333334,107.99855880321182L63.550886631944444,108.16566315016551L63.668570833333334,108.49959399424374L63.77065833333333,108.25957777663504L63.871327951388885,108.27486999897167L64.14497916666667,108.0120704990723L64.19460503472223,107.991772540074L64.22438055555556,108.40343335425123L64.31796076388889,108.43451047337174L64.34490052083333,108.33676965330676L64.34773628472222,108.48010973343133L64.4455701388889,108.1037606919047L64.48668871527778,108.01395280453205L64.84399496527777,107.83255752407818L65.0836170138889,107.68438699894261L65.17152569444444,107.72702784450301L65.35726822916666,107.43101540096102L65.36719340277777,107.88115249722962L65.4862954861111,108.01222758841604L65.49622065972223,107.93660142048337L65.53450347222223,107.82831059661666L65.54442864583334,107.87667271877325L65.60539756944443,107.62352249235012L65.77837916666667,107.09901115220535L65.81240833333334,107.54212140062168L65.91591371527778,106.95032403328618L66.19523645833334,106.97083140268485L66.22359409722222,107.40161758059854L66.22501197916667,107.35939616344774L66.30299548611112,107.29374063801201L66.739703125,107.46092907421091L66.7680607638889,107.30969412133518L66.83611909722222,107.33449175465623L66.8829092013889,107.31406814737241L67.11685972222222,107.06438008263507L67.22461875,107.04582559709883L67.53938854166667,107.29814644647993L67.57199982638889,107.35175509728651L67.58901440972222,107.79473299664888L67.67692309027777,107.90679378789311L67.81729340277778,108.58340134092212L67.90520208333334,108.56631120682991L68.21004670138889,108.43024826796507L68.25541892361112,108.78549048662316L68.3376560763889,108.84121700614267L68.87786909722222,108.44384246461925L69.06077586805556,108.56641844543007L69.19831041666667,108.89044421452347L69.3145767361111,108.36997933852561L69.40673906250001,107.92921720012755L69.50031927083333,108.10074150284208L69.50882656249999,108.37830939801245L69.54427361111111,108.10516595821117L69.66479357638889,108.12584254420825L69.88740104166666,107.83269010796923L69.96113090277778,108.38596939262688L70.17381319444445,108.27799745336416L70.2773185763889,108.40458691257322L70.35530208333333,108.27966799404317L70.43895711805555,108.53431483100249L70.65305729166667,108.78863902972043L70.71119045138889,108.3462381949302L71.18759878472223,108.10395812543716L71.22446371527778,108.05184356289345L71.26700017361111,108.1155654566041L71.32371545138889,108.33131004730733L71.62005277777777,108.43245461075841L71.73490121527777,108.17149608150075L71.76609461805556,108.17296863244158L71.86392847222221,107.5457427919247L71.99153784722222,107.36591283091403L71.99295572916667,107.41274484327718L72.0099703125,107.35935388167674L72.03407430555556,106.97188440259997L72.26660694444445,106.95755107597634L72.30488975694443,107.58325903656052L72.61257013888888,107.67875415563175L72.86778888888888,107.82001226279584L73.33994357638889,108.06782637742535L73.59374444444444,108.0696090805919L73.60366961805556,107.9832163543509L73.73127899305555,107.81997994618854L73.84896319444444,107.28587967884239L73.88299236111112,107.0641525064127L73.90000694444444,107.16881680122599L73.91702152777778,106.8054294392852L73.93403611111111,107.0641904726294L74.16798663194444,106.88223165263919L74.17224027777777,107.12074144192073L74.53238229166666,107.34294286591047L74.55790416666667,107.12808039750124L74.74648246527778,107.4450876986602L74.76491493055556,107.36332040606692L74.83580902777777,107.09110768364204L74.89252430555555,107.27855941527784L74.94073229166668,107.26875745102276L75.0371482638889,107.34290443319323L75.12505694444444,107.48254864896481L75.21438350694444,107.44731935225013L75.26542725694443,106.99574082611602L75.51781024305556,106.53400765259534L75.81698333333333,106.67408700097216L75.93324965277779,106.9283828463295L76.02824774305556,107.5670644480602L76.11757430555555,107.52086936689054L76.26503402777777,107.39632504383783L76.40398645833334,107.90021526672678L76.42100104166667,107.51648635369047L76.47204479166666,107.0429059001396L76.48055208333334,107.00387099194383L76.51883489583334,107.28552934729488L77.03210815972221,107.2876014125654L77.18807517361111,107.35483558949068L77.24337256944445,106.89490600781433L77.32986336805556,107.04415120248743L77.35822100694445,106.60774744587505L77.49433767361111,106.97427383765118L77.53262048611111,107.14826690843151L77.73112395833333,107.13640896758837L78.01753611111111,107.11316579810226L78.28268003472222,107.19281512738294L78.28551579861112,107.19410179646283L78.71655190972223,107.53719161681654L78.72789496527777,107.2702196142258L79.05117204861111,106.88663515280322L79.16176684027778,106.77020175115926L79.18161718750001,106.60758498513424L79.23124305555557,106.16203955480263L79.53750555555555,106.38959980386782L79.71048715277777,106.54914834620831L79.82675347222222,106.15470226158747L80.21950677083333,105.80472919451964L80.23652135416667,105.36152900234039L80.25211805555556,105.09087326119726L80.49032222222222,105.33001036689572L80.52860503472223,105.50500648929706L80.82919600694444,105.0465228858219L81.0702359375,105.2121546881488L81.0985935763889,106.05011535569754L81.1468015625,106.21595609285507L81.57500190972222,105.8699144608423L81.7820126736111,105.51573551475806L81.97909826388889,105.56656253146407L82.14073680555555,105.61733525559039L82.39453767361111,105.40658184366771L82.4484171875,105.36021343202822L82.5788623263889,105.7257829979163L82.62990607638889,105.37344617539739L82.65401006944445,104.9281186033122L82.70505381944444,104.70834651570824L82.85251354166667,104.4879237959556L82.88228906249999,104.5007365299964L82.92482552083334,104.38152935426949L83.48347100694444,104.28429971429709L83.97122239583334,104.36273053832193L84.05062378472222,104.15675577994428L84.12435364583334,104.11217395194986L84.1583828125,104.5572917840276L84.22076961805556,103.93713078744301L84.22785902777778,103.92205407233509L84.247709375,104.15990548328338L84.9495609375,103.95912800313687L85.16224322916666,104.10024645282317L85.28418107638889,104.3127360120863L85.35223940972222,104.11930331996858L85.44440173611112,104.08349514706264L85.45574479166666,103.8073899505382L85.65708402777777,103.80780152366619L85.79603645833333,103.64474864402683L85.81872256944443,103.6765095750787L85.82581197916666,103.53664270847992L85.88394513888889,103.88343298308646L85.94774982638889,104.105032866596L85.95909288194446,104.27681651175459L85.98745052083332,104.60490190603367L86.12498506944445,104.53310489724849L86.30080243055556,104.52380008934182L86.52199201388889,105.07609337586219L86.59146822916667,105.17339881100322L86.83392604166667,105.0271526799029L86.97996788194443,105.1670652528217L87.45070468750001,104.91585588663044L87.62652204861112,104.86324757069467L87.973903125,104.67510463180702L88.06748333333334,104.42280723680814L88.08733368055555,104.40944696767278L88.12561649305556,103.8191556799964L88.20927152777777,103.74799295290585L88.60627847222221,103.65880445306982L88.68993350694444,104.22719957594465L88.92671979166666,104.00712166380472L89.20746041666666,103.49980438378789L89.42581423611112,103.14630121813637L89.49670833333333,103.13990973268636L89.54633420138889,103.21964035032681L89.70655486111112,103.29642631529413L89.72498732638888,103.41330357012836L89.84550729166666,103.41038230402461L90.04968229166667,103.54854861907668L90.52183697916666,103.40639262080538L90.71608680555556,103.70083858599757L90.90324722222222,103.88287120467054L91.23928524305556,103.72236817511256L91.4037595486111,103.77653760760131L91.57390538194444,104.22504861956845L91.59375572916666,104.46277103033887L91.71852934027777,103.92497404094135L91.74546909722223,103.2574198186654L91.95956927083334,103.06392215498067L92.16374427083333,103.32724584857351L92.1977734375,103.65726274098888L92.4813498263889,104.01461885325362L92.62172013888889,103.79065696792827L92.74082222222222,103.91845206658999L92.77768715277779,103.71164947356735L92.87835677083334,104.46835384439242L92.98611579861111,105.22229970995319L93.22715572916667,105.02590780713969L93.55326857638889,105.55313236733481L93.64117725694445,104.77556060787406L93.77729392361111,104.61881420617756L93.93751458333332,104.53808335374163L94.14736111111111,103.57539717745837L94.22250885416666,103.4305563233489L94.27638836805556,103.22980182737764L94.28205989583333,103.57961994009442L94.28631354166667,103.5474960142668L94.53727864583334,103.3601895946583L94.91018159722222,103.61651438519246L94.98958298611112,104.10616976485504L95.49293107638889,103.40289653836953L95.5950185763889,102.93085972544166L95.70135972222222,102.83035898017022L96.28836284722222,102.50608728669866L96.35358541666666,103.22746719439242L96.80163611111111,102.92131138404409L96.89238055555556,103.35729104109423L97.00722899305556,103.1990619369848L97.43401145833333,103.4564142660136L97.48647309027777,103.31592908941222L97.519084375,102.6313390213801L97.59423211805554,102.48787841469662L97.68072291666667,102.5523576186815L97.80407864583333,102.59781787954061L98.10041597222222,102.90272359158656L99.49277604166666,102.70446827788246L99.53956614583333,102.2142771319124L99.56225225694445,101.78819032781206L99.56508802083333,101.18346220412177L99.80471006944444,99.04520121098231L100.02448177083333,98.80779756715681L100.11380833333332,98.48853769680477L100.19179184027777,97.9698969953061L100.26126805555556,97.45283627304822L100.60581336805556,96.91959810028885L100.65827499999999,97.08332010844178L100.78872013888889,96.89376650668851L100.9007328125,97.33663417420148L100.93759774305555,97.26505882496315L101.11341510416666,96.8662518061032L101.3728875,97.02273742094742L102.10735034722222,96.20063413339814L102.50010364583333,96.77818435642196L102.52846128472223,95.61346251168885L103.51530711805555,95.43764182870179L103.52806805555555,95.34980094128615L104.15618975694444,94.95144016533935L104.39155815972222,94.83176489880542L104.6014046875,95.00564806801577L104.74886440972222,94.59141848848691L104.80132604166667,94.45243288963823L104.8311015625,94.29968960067441L105.022515625,94.32815814060696L105.32168871527777,94.09733096290991L105.38123975694445,94.13095013934618L105.96115347222222,94.28943182995702L106.00368993055557,93.01405398787041L106.01077934027778,92.28608608908335L106.0816734375,92.02815929835685L106.44748697916665,92.44971836852116L106.55666388888889,93.55321244075995L106.72397395833333,93.67141392395669L106.88844826388889,93.91104809974283L107.3095592013889,93.91301147158673L107.73067013888888,94.10837225624624L107.78454965277777,92.86367139425798L108.04543993055556,92.53290084574127L108.8153498263889,91.99887212480351L108.8479611111111,92.45604457141407L109.93689444444445,91.64056795518174L110.27435034722222,89.95878388693629L110.2927828125,89.18938277096991L110.32397621527778,89.33918028932749L110.34949809027778,89.70027646494017L110.72807256944445,89.36905563662799L110.892546875,88.70639723205609L111.47246059027778,88.20554444066866L111.50365399305555,88.53166613296546L112.72303246527778,86.6755307696689L113.12003940972222,86.29479587452019L113.24197725694445,86.05018844615908L113.35398993055556,85.46296789699771L113.76375781249999,84.2204353118434L113.9395751736111,83.55219859884087L114.57195052083334,84.65793044350224L114.76478246527778,84.97928228551565L114.76761822916666,84.48155292060046L115.01858333333332,84.74260217399495L115.08238802083333,84.20065729750453L115.3205921875,83.42125918139045L115.76864288194444,84.46465883143321L115.93595295138888,84.04856226647172L116.18124652777777,84.69484240346092L116.28475190972223,84.95719054947847L116.36982482638888,85.7916845627124L116.50452361111111,86.12285701553209L116.61370052083333,85.20152301852436L116.75690659722221,85.58668321667193L117.01070746527778,86.42611148591381L117.25883680555555,87.45564522368606L117.29144809027778,86.45885911040837L117.37368524305555,86.333612403913L118.01740364583333,86.20329093624896L118.55336302083334,85.75412661535132L118.72067309027777,85.74209463563437L119.02977135416666,86.3749022175255L119.03260711805555,86.32593472304566L119.04678593749999,87.00092647801381L119.37715243055555,85.9364730347579L119.49483663194444,86.64789675400938L119.5217763888889,86.72751048769936L119.53453732638889,86.40694693892941L119.78833819444445,86.66905054049101L119.96131979166667,86.68369378189645L120.4986970486111,86.98852042643409L120.79361649305557,86.77510872469975L120.82764565972222,85.58238478404796L121.03465642361111,85.12994176018861L121.2927109375,86.09549872053339L121.48270711805556,86.5923977121164L121.58479461805555,86.61219203181386L121.61315225694445,86.88142737408701L121.63300260416668,85.48699202304195L121.65852447916667,84.88317918437413L122.18455868055555,84.86521637957307L122.2370203125,83.9489646279794L122.53761128472222,82.98857100609054L122.53902916666667,82.47369117820875L123.3217,81.96252944675153L123.36281857638889,82.43776797934909L123.38408680555555,82.15396277232328L123.5102782986111,81.54906365418186L123.9881045138889,81.7614300160364L124.33406770833334,82.24420746897822L124.61480833333334,82.12558217662587L124.62898715277778,83.41420293623601L124.63607656250001,82.72099286988512L124.77219322916666,82.56726006016935L124.82890850694444,82.11462496324329L125.17061805555556,82.70287837600988L125.27128767361111,81.61064451568161L125.36486788194445,83.2147505186589L125.40315069444445,83.07952546679302L125.53076006944444,83.49837689738644L125.88523055555555,83.80745966219325L125.93627430555556,84.0403784687012L126.02276510416667,84.09161050819472L126.13335989583334,83.97681025282978L126.74588489583333,84.42661502300135L127.16557795138888,84.3361410207012L127.9283984375,85.5269019186311L128.37928489583334,84.63247877222253L128.50831215277776,84.66221384954572L128.75218784722222,84.83982769186389L128.7550236111111,85.22344435449565L128.80039583333334,85.3801340099552L129.013078125,85.71474844986878L129.14919479166667,84.69594405942735L129.45403940972224,85.39313942621187L130.22678506944445,85.98541639268159L130.30051493055555,85.25130657159526L130.87901076388889,85.53594864170846L130.8861001736111,85.54322025481032L131.29161440972223,85.2254323202384L131.55817621527777,85.88224988366909L131.73257569444445,84.84669534984766L131.86443871527777,84.28679854213561L132.1395078125,84.36870107428568L133.09799600694444,82.9288622168571L133.17597951388888,82.7719419042623L133.17739739583334,83.47297214565425L133.48791354166667,82.94736527199792L133.52903211805554,83.18332476752539L133.8041012152778,82.32212297259105L134.05081267361112,81.65012374351376L134.17416840277778,81.6713613691624L134.46341631944443,81.66281898224615L134.62647274305556,81.57970469765789L134.78243975694446,82.20133650061936L135.25743020833335,81.5615295551029L135.67003385416666,80.90776296322896L135.6742875,80.51799518963335L135.90823802083332,79.24197692067001L135.93375989583333,79.86858888769393L136.03017586805555,78.7354515898336L136.1719640625,78.53777290812299L136.5193451388889,79.25994732185612L137.75290243055557,79.34672247603415L138.44199305555554,78.95466386479437L138.95101267361113,79.28818895558766L139.19347048611112,80.15154335548344L139.23317118055556,81.27049413357146L139.60040260416667,81.01039074294158L139.74360868055555,81.50793121410196L139.85987500000002,81.57355854723724L140.4667284722222,82.01226803342261L140.57448749999998,82.51773157098944L141.26499600694444,82.70362886843593L141.56133333333332,81.9633085952287L141.64640625,81.95322773570584L141.78252291666666,82.4444816666807L141.93140052083334,82.74078634092172L141.93848993055556,81.61459122955684L141.96968333333334,82.74814631114658L141.978190625,82.03857315730465L142.30572135416665,80.97757095521054L142.3837048611111,80.0578678369622L142.50989635416667,78.77003559872054L142.66302760416667,78.74992124339396L142.95511128472222,79.33271320996366L143.9759862847222,79.81699870714911L144.2496375,78.54068235916145L144.74022465277778,78.34488116869986L144.81253663194445,78.36476805182987L144.94439965277778,78.03319181482871L145.040815625,78.74548342880038L145.70580225694445,78.27275326773852L145.85609774305556,77.46010862278285L145.90997725694444,77.63635628323185L146.17228541666665,77.37259281399957L148.00986041666667,76.60470853259962L148.11053003472222,77.00477745206692L148.43380711805554,76.92736788867842L148.7698451388889,76.86524189526513L148.9456625,76.37939952392043L148.9910347222222,77.61408741243747L149.4206529513889,77.3374656030119L149.69713993055555,76.25630426998343L149.91407586805556,76.24619941116691L150.4741392361111,75.68900844732296L150.6839857638889,76.07002237531795L150.88957864583332,75.04520763778615L150.8980859375,75.09587153309843L151.09375364583332,75.41551733433406L151.6991892361111,74.63717582817337L152.0111232638889,75.38485029081058L152.0720921875,76.0502146935477L152.35708645833333,75.60564776964746L152.7384967013889,74.76555174268273L152.7711079861111,75.42496247750537L153.06319166666668,75.51810543430031L153.3836329861111,76.84395114087026L153.9125029513889,75.57580602678324L154.00324739583334,74.44453224228674L154.5916684027778,72.87577504078534L155.69336267361112,72.3916350367068L156.04499739583335,71.95842323758157L156.09745902777777,71.45287920927797L156.10029479166667,70.57047481107747L156.1882034722222,70.05035914815154L156.19103923611112,70.71364709697275L156.37111024305554,69.69397272818458L156.6050607638889,69.22882261445704L157.23176458333333,70.53493183028405L157.50966944444446,69.22639603361927L157.8939154513889,66.46476495298461L158.48375434027778,66.21191061677705L158.67516840277776,67.21630194146299L159.14306944444445,66.30248424731668L159.22530659722221,64.57493468622138L159.50746510416667,64.39289576305379L159.56843402777778,62.8160777776575L159.64499965277778,62.98843306807356L159.7343262152778,64.07129430672074L160.1596907986111,64.05527283059412L160.43050625,64.73728816117107L160.54819045138888,63.96577525414487L160.6828892361111,62.398984660548564L161.35071163194445,63.30696971722095L161.62578072916665,62.44718183640795L161.81010538194445,61.73371365276715L161.94905781249997,61.06896444658136L162.60411927083334,58.97725266101412L163.03231961805557,59.905592735821784L163.05784149305555,60.04717834860325L163.09470642361111,59.943298581924736L163.78096128472222,60.08614201918681L163.78663281250002,59.520780658177216L163.8887203125,58.78064861508676L164.1921470486111,59.4168877308508L164.23893715277777,59.841164866856616L164.34102465277778,61.198525652898226L164.4601267361111,59.8732611557902L164.6132579861111,60.450523108392986L164.7054203125,60.04231738846279L165.10242725694442,60.733412354161956L165.32361684027777,60.77713077783669L165.7872642361111,59.80325292732576L165.994275,60.27437649822953L166.51605555555557,58.8529615756793L166.60538211805556,59.19786428174773L166.61105364583335,60.5164727399366L167.42491788194442,61.607680579579295L167.60782465277777,60.84993808980319L167.80349236111113,61.76700393991378L168.20333506944442,61.242235364104204L169.24406041666668,62.50474478223924L169.4524890625,63.867281667651696L169.56166597222222,64.54546827361378L169.669425,64.74853508261603L169.77576614583333,65.36373839253623L170.21672743055555,65.42212307600988L171.01499496527777,66.1811607684089L171.02633802083335,66.0019225324771L171.06887447916668,64.65138937013849L171.33827204861112,65.11539816039736L171.40349461805556,64.59269357163036L171.838784375,64.17254353264914L172.03161631944442,62.01938008847513L172.44280208333333,62.58568071599126L172.97308993055557,62.776047303483026L173.2070404513889,63.10577211858927L174.08612725694442,63.82491081582123L174.20381145833332,63.51925212060276L174.48738784722224,64.01099168126974L174.5058203125,63.92054592223366L174.97513923611112,63.75617598910121L175.24453680555555,62.698101003827446L175.61035034722224,62.84705510799016L175.71243784722222,61.23122743810022L175.79183923611112,60.82540583065382L176.00877517361113,61.08620331577025L176.14205607638888,61.715651166011426L176.21153229166666,62.04833320850119L176.22712899305554,61.628684546741994L176.36891718750002,62.20891268297687L176.5986140625,62.230791301042814L176.6142107638889,61.757697966393096L177.0126355902778,62.69964123793558L177.15158802083334,61.282091886869296L177.66486128472224,60.69016110727327L178.30716180555555,60.0442842010914L178.80625625,60.00103475825499L179.05013194444444,58.14936878242948L179.87959288194446,59.195696108731994L180.6920392361111,58.367390702404265L181.25635625,59.20837890489109L181.61224461805554,58.959586468947435L182.1978298611111,59.0424062311436L182.38357239583334,58.91580765348378L182.97199340277777,57.94452518358992L183.70503836805554,57.7718340288673L183.75182847222223,58.418443239616934L183.86809479166666,59.27443982474614L184.45084427083333,57.953018569544255L185.17538194444444,57.746793417135294L185.23209722222222,58.129401007239935L185.23776875,56.882256361061394L186.63721822916665,55.71205629313707L186.8229607638889,55.99894725473246L186.8754223958333,56.89827127925922L186.8995263888889,56.56621403769692L187.3206373263889,57.22024604301815L187.60988524305557,55.54357655235269L187.98987760416668,55.19613651075376L188.40389913194446,54.21717626876931L188.64635694444445,54.66864046007419L188.73851927083334,55.092557664066774L189.11851163194444,53.66888428402372L189.14545138888892,53.687421991984976L190.06565677083333,54.09632183824101L191.94293246527778,54.16765556350782L192.71426024305555,55.883688302611574L193.14246059027778,55.25081663144134L193.20201163194446,53.11488269556993L193.39909722222222,50.69472965328566L194.24273697916666,49.41164873341164L194.655340625,48.21664863279776L195.25085104166666,47.719415587699785L195.9087482638889,46.21091152892981L196.2958300347222,43.50815844421862L196.52269114583333,44.71373464525132L196.60351041666667,44.473767430726184L196.89417621527778,43.75747023310811L197.09835121527777,42.17500445979729L197.93915520833332,42.74957787745393L198.05967517361108,43.91033031698126L198.57153055555554,43.45402739891952L198.86077847222222,44.780670113573024L199.75546197916665,45.610088897670266L200.55798315972223,45.848696485175964L201.42714479166668,47.212434791203805L201.5505005208333,49.445481084810694L201.7277357638889,47.89008070360234L201.7376609375,46.384623769605724L202.2963064236111,45.401814801736066L202.63518020833334,45.85987195792609L203.30300260416666,46.01818873940621L205.1575921875,47.349892592738314L205.2653512152778,47.20081242437357L205.51348055555556,45.77433913648167L205.74601319444443,45.785328518288054L205.91474114583332,44.91524737100468L205.93459149305556,43.03346695208603L205.97287430555556,42.34051798415015L206.14727378472224,42.850770163007866L206.5258482638889,39.69205678307071L206.77964913194444,41.97064940021821L206.92001944444445,43.31237707383272L207.0433751736111,43.96932118463127L207.53254444444443,44.46503111162269L209.46653541666666,45.1148206140968L209.8919,47.3238073026871L209.94010798611112,47.8511424815093L210.1797300347222,47.30497709699475L210.41226267361114,46.6927464327498L210.6036767361111,45.87774735765666L210.7780762152778,44.79225955370916L210.96240086805554,43.88571825742915L211.10844270833334,44.71914927259533L211.71104253472222,46.42212070897216L211.9662612847222,45.36265011534766L212.87937725694445,44.74602999017651L212.91057065972223,46.80835880934069L213.24519079861113,46.73103145113387L214.84739739583333,46.62120955602052L214.99202135416667,45.85861985041845L215.1054519097222,45.14211866083116L215.18627118055556,43.104398272020774L215.40037135416665,42.7764584448187L215.63715763888888,44.379537032154985L215.9249876736111,43.70031912439404L215.98737447916668,41.839463348318276L216.06394010416668,42.12828689985005L216.63818229166665,41.918071846228685L216.91183350694445,40.30332432069673L217.446375,38.865136774990674L217.73278715277777,36.17789866567344L219.06276041666666,35.124597435469724L219.24424930555557,35.783203032831835L219.52782569444446,37.65819238863958L219.8808782986111,38.319887354321054L220.1800513888889,38.33463157343439L220.72451805555554,38.674747961545506L220.96981163194445,38.66154873357277L221.07189913194443,37.58364670112462L221.35831128472222,37.70972805373941L222.69962760416666,38.11987740745636L222.70813489583335,37.23945216671075L222.85559461805556,37.66143024549419L223.23416909722224,38.043724720944766L223.79565034722222,39.34067327157757L223.95161736111112,38.23760026260163L223.98706440972222,39.7162976227051L225.07174409722222,38.545491724070956L225.51270538194444,40.51132607439112L226.10112638888887,40.1057900578611L226.16209531249999,41.84016843843864L226.24716822916665,43.65252943550385L226.26560069444443,41.67325660558981L226.7902170138889,41.25712412684899L227.54878385416666,40.36216455507321L227.9160152777778,41.83457025865678L228.11593663194444,42.02834334642745L228.15421944444444,41.36299480723926L228.20809895833332,39.318513508333496L228.4264527777778,40.30947465750015L229.83866319444445,38.45079991902287L230.4724564236111,37.13249549530241L230.52208229166666,36.499146513953974L230.7149142361111,37.90529720346768L231.19132256944442,37.891102710393625L231.71877465277777,39.85449243935426L231.78683298611114,38.63969660450974L231.92436753472222,36.80720421678603L232.1767505208333,36.663969590561976L232.21928697916667,35.57714649514213L232.6120402777778,33.98805400471883L232.6446515625,33.31464633151967L232.93673524305555,34.4257811301859L234.48648020833332,33.2510155171673L235.21810729166666,33.486027601814214L235.58250295138888,33.94895893254187L235.65906857638888,34.22983008474222L236.07592586805555,35.893082871722555L236.8557609375,36.17062117545939L237.87521805555556,38.35382894427707L239.02086666666668,35.50150002712209L239.51428958333332,36.607656842591695L240.0459953125,39.73021502196889L240.80456215277778,38.09288954249928L241.20015121527777,36.28993581552206L241.26679166666668,35.089663824878954L241.62976944444443,36.234490056027425L242.01543333333333,34.08436491406104L242.67900208333333,33.853882968109474L243.55808888888888,33.53079580766217L243.94091701388888,30.90934974962323L244.1876284722222,30.25719318375181L245.4977513888889,28.025962501740253L245.7529701388889,29.43465886520258L245.83237152777778,29.887883319591424L246.83197829861112,30.024251237632285L247.64300677083335,29.11615850023267L248.28814305555554,29.412667650209414L248.33635104166666,27.63547758973391L248.3959020833333,29.26173096712415L248.74611892361114,28.81959196132081L248.94887604166667,30.631652651552372L249.24237760416668,30.492507272760776L249.24521336805554,28.753157113666504L249.25088489583334,29.18653458411802L249.25230277777777,26.705352716615323L249.2537206597222,26.79792824040834L249.25513854166667,26.637368370912952L249.2565564236111,31.41819119291256L249.25797430555556,33.385235709984954L249.2593921875,34.351030320804625L249.2622279513889,32.53256081145145L249.27073524305555,34.800497912124456L249.27498888888888,32.527266302730226L249.28349618055555,34.39346012700264L249.28916770833334,32.91016525066601L249.30192864583333,33.26223111196305L249.3033465277778,30.826036409857636L249.30476440972222,31.38148674614459L249.30618229166666,31.63248579880286L249.31327170138889,33.07274574164984L249.31610746527778,32.93839730384852L249.323196875,30.956972346190923L249.32745052083334,31.333391588844563L249.3302862847222,28.11456947541464L249.33170416666667,28.425754573327737L249.33312204861113,29.75675866144951L249.33453993055554,29.287744727122742L249.34021145833333,28.149083890774108L249.3515545138889,28.10231470624214L249.35297239583332,28.7390576674361L249.35722604166665,27.944399059783393L249.36006180555557,29.87666369925958L249.36147968749998,30.356085397515443L249.3643154513889,32.82155640321844L249.3714048611111,31.530650762896613L249.37849427083333,29.911250459334212L249.38133003472223,31.194273140673516L249.38416579861112,31.431308894787975L249.38841944444445,29.582993346218274L249.39125520833332,29.133870147960096L249.39834461805557,29.21238654225499L249.4025982638889,28.511190501665823L249.40685190972223,29.86884986059016L249.41961284722223,28.136552942712967L249.42103072916666,26.97975844389623L249.425284375,28.30199566768843" style="fill: none;" fill="none"></path></g></g></g></g><g opacity="0.2"><g><g><g><path stroke="rgb(255, 112, 67)" stroke-width="2px" d="M28.49233767361111,149.27191593516957L28.49800920138889,150.13392839605157L28.601514583333334,147.86990561745384L28.656811979166665,150.4222565876354L28.661065625,150.2775977533514L28.719198784722224,146.90403981295498L28.729123958333332,146.51347385059702L28.73479548611111,150.0087976143577L28.831211458333335,150.58409131830388L29.1332203125,150.3667709905451L29.198442881944445,148.64670888727363L29.24097934027778,148.9845784482089L29.311873437499997,148.43863636363636L29.32038072916667,147.05302975741301L29.428139756944443,146.33950390902433L29.59970347222222,146.97321481184525L29.603957118055554,148.94818140896882L29.643657812500003,146.75505109613593L29.663508159722223,145.89090868169612L29.666343923611112,147.54325544877486L29.80246059027778,148.71114397222345L29.90880173611111,149.4040909090909L29.913055381944442,145.08636322715066L29.97260642361111,146.89442862770775L30.009471354166667,146.56136404557662L30.06476875,147.59247640436345L30.0775296875,145.65047068509188L30.18245295138889,148.45161250721324L30.32991267361111,148.192082269842L30.436253819444445,147.80278568614614L30.44476111111111,145.35454586375843L30.56528107638889,146.24848430286755L30.7410984375,148.192082269842L30.78079913194444,147.9609375L30.794977951388887,146.69545413624155L31.071464930555557,144.78944770119406L31.207581597222223,144.65172379927202L31.234521354166667,147.33238636363637L31.34369826388889,143.38149315573952L31.433024826388888,141.85142045454546L31.530858680555554,144.79222830338912L31.577648784722225,144.38909131830388L31.93779079861111,142.10954504533248L31.970402083333333,139.83519045743077L32.00443125,139.86114274458453L32.02144583333333,141.07201704545454L32.51345086805556,139.34208226984197L33.13306527777778,135.31448863636365L33.38828402777778,132.5740056818182L33.413805902777774,133.06143726695666L33.494625173611105,132.54567177512428L33.67186041666667,138.20582386363637L33.684621354166666,133.83197466763585L33.732829340277775,139.86114274458453L34.1099859375,123.69886363636363L34.173790624999995,123.0703125L34.24184895833333,120.42228794444691L34.647363194444445,117.46363636363637L34.71967517361111,120.70696022727273L34.75512222222223,126.89190340909092L34.83452361111111,120.63153409090908L35.167725868055555,125.55937499999999L35.18332256944445,127.21875L35.47824201388889,119.19843750000001L35.82987673611111,127.16846590909091L35.888009895833335,121.22683339899237L35.90077083333333,120.15383522727274L35.99718680555556,127.16846590909091L36.694784722222224,117.86590909090908L36.730231770833335,122.54232954545455L36.816722569444444,123.14573863636363L37.03791215277778,125.63480113636363L37.27753420138889,124.55369318181818L37.43350121527778,126.64048295454545L37.52140989583333,123.92514204545455L37.663198090277774,125.43366477272727L38.1934859375,120.05326704545455L38.61885052083333,124.83025568181819L38.73937048611111,123.84971590909092L38.93787395833333,118.49446022727273L38.939291840277775,113.8934659090909L39.017275347222224,122.08977272727273L39.18174965277778,124.00056818181818L39.45681875,117.61448863636363L39.59151753472222,122.36633522727273L39.76875277777778,122.84403409090909L40.54433420138889,128.0987215909091L40.87186493055556,120.40525568181818L41.0519359375,121.83835227272726L41.132755208333336,122.59261363636364L41.24760364583333,114.2203125L41.43901770833333,121.28522727272727L41.44327135416666,122.81889204545455L41.56804496527778,128.52613636363637L41.72684774305556,116.05568181818182L42.00617048611111,119.62585227272727L42.017513541666666,128.57642045454546L42.04587118055556,125.53423295454544L42.53787621527778,119.4247159090909L42.550637152777774,121.66235795454546L42.5704875,123.37201704545456L42.671157118055554,125.03139204545455L43.131968750000006,125.88622159090909L43.23405625,125.71022727272727L43.31771128472222,120.07840909090909L43.72747916666667,124.30227272727274L43.770015625000006,124.83025568181819L44.09896423611111,119.67613636363637L44.24642395833333,121.91377840909091L44.60373020833333,125.23252840909092L44.822084027777784,122.96974431818182L44.944021875000004,121.05894886363637L45.09573524305555,120.00298295454544L45.107078298611114,124.75482954545456L45.196404861111105,128.24957386363636L45.21625520833334,121.6875L45.45020572916667,121.31036931818181L45.76639340277777,116.63394886363636L45.97623993055556,119.52528409090908L46.00176180555556,116.18139204545454L46.5646609375,115.82940340909092L46.866669791666666,120.38011363636363L47.469269618055556,116.33224431818181L47.520313368055554,111.1278409090909L47.59546111111111,110.17244318181818L47.66351944444445,113.23977272727274L47.829411631944446,115.25113636363636L48.311491493055556,116.23167613636363L48.44051875,113.66718750000001L48.54969565972222,110.071875L48.62626128472222,111.35411931818182L48.877226388888886,111.85696022727272L49.30400885416667,109.09133522727272L49.36639565972222,115.85454545454544L49.50393020833334,108.94048295454546L49.61736076388889,116.40767045454545L49.716612500000004,114.37116477272727L49.89101197916667,112.35980113636364L49.96332395833333,110.67528409090909L50.53473038194444,111.5049715909091L50.61554965277778,113.54147727272726L50.66801128472222,111.53011363636364L50.76868090277778,109.69474431818182L50.98419895833334,115.35170454545455L51.51874045138889,115.30142045454545L51.74276579861111,111.65582386363636L51.880300347222224,117.68991477272726L52.01641701388889,108.1359375L52.05044618055556,112.15866477272728L52.46730347222222,111.75639204545455L52.482900173611114,113.23977272727274L52.844460069444445,110.24786931818181L52.952219097222226,112.38494318181819L53.004680729166665,114.79857954545454L53.02878472222223,119.39957386363636L53.13370798611111,106.57713068181818L53.21878090277778,113.21463068181819L53.31377899305556,117.06136363636364L53.42862743055556,114.94943181818181L53.50235729166667,114.01917613636363L54.11771805555556,109.64446022727273L54.233984375,110.625L54.449502430555555,110.77585227272728L54.46509913194444,111.47982954545455L54.528903819444444,112.98835227272727L54.71464635416667,109.46846590909091L55.02941614583334,109.69474431818182L55.05635590277778,109.8455965909091L55.124414236111114,112.0078125L55.171204340277775,112.96321022727273L55.24493420138889,108.01022727272728L55.32149982638889,109.54389204545454L55.37679722222222,109.64446022727273L55.37963298611111,105.3703125L55.39097604166667,107.75880681818182L55.483138368055556,112.10838068181818L55.59656892361111,109.29247159090909L55.82484791666667,111.60553977272727L55.86596649305556,107.65823863636363L56.175064756944444,109.44332386363637L56.27431649305555,111.37926136363636L56.326778125000004,112.5609375L56.730874479166665,111.58039772727273L56.80176857638889,105.14403409090909L56.974750173611106,113.34034090909091L57.201611284722226,112.53579545454545L57.23705833333334,113.71747159090908L57.25265503472222,107.50738636363636L58.00129670138889,108.01022727272728L58.22106840277778,109.56903409090908L58.26218697916667,108.48792613636364L58.31039496527777,116.53338068181819L58.334498958333334,107.0799715909091L58.34442413194444,102.328125L58.530166666666666,108.4627840909091L58.58971770833333,113.36548295454546L58.701730381944444,111.05241477272727L58.86478680555556,112.46036931818182L58.96120277777778,111.63068181818181L59.38656736111111,109.59417613636364L59.40358194444444,108.89019886363636L59.56380260416667,113.46605113636363L59.66447222222222,108.16107954545454L59.695665625,118.29332386363637L59.7849921875,110.95184659090908L59.83036440972223,106.32571022727272L59.83320017361111,111.98267045454546L59.853050520833335,106.77826704545454L59.8615578125,110.44900568181818L59.933869791666666,111.37926136363636L60.34363767361111,106.82855113636364L60.35356284722222,109.89588068181818L60.379084722222224,106.70284090909091L60.421621180555555,106.07428977272727L60.70803333333333,107.0296875L60.74915190972222,110.85127840909091L61.066757465277774,107.15539772727273L61.16459131944445,108.89019886363636L61.23548541666667,109.8455965909091L61.35600538194445,114.67286931818182L61.388616666666664,103.91207386363637L61.503465104166665,105.06860795454546L61.785623611111106,107.98508522727273L62.096139756944446,110.57471590909091L62.222331249999996,108.21136363636364L62.38538767361111,107.75880681818182L62.40523802083333,109.99644886363636L62.425088368055555,107.3565340909091L62.71291840277778,107.45710227272727L62.820677430555556,102.8309659090909L62.88164635416667,107.48224431818181L62.902914583333335,110.29815340909092L63.08156770833334,107.18053977272727L63.18932673611111,107.13025568181818L63.25171354166666,106.57713068181818L63.301339409722225,108.6387784090909L63.51543958333334,108.81477272727273L63.550886631944444,109.66960227272727L63.668570833333334,111.5049715909091L63.77065833333333,106.09943181818181L63.871327951388885,108.4125L64.14497916666667,105.646875L64.19460503472223,107.80909090909091L64.22438055555556,112.10838068181818L64.31796076388889,108.71420454545455L64.34490052083333,107.45710227272727L64.34773628472222,109.77017045454545L64.4455701388889,104.71661931818181L64.48668871527778,107.20568181818182L64.84399496527777,106.2L65.0836170138889,106.35085227272727L65.17152569444444,108.11079545454545L65.35726822916666,104.76690340909092L65.36719340277777,111.93238636363637L65.4862954861111,109.19190340909091L65.49622065972223,107.2559659090909L65.53450347222223,106.85369318181819L65.54442864583334,108.31193181818182L65.60539756944443,105.34517045454545L65.77837916666667,102.37840909090909L65.81240833333334,111.53011363636364L65.91591371527778,101.62414772727273L66.19523645833334,107.15539772727273L66.22359409722222,111.27869318181818L66.22501197916667,106.9794034090909L66.30299548611112,106.70284090909091L66.739703125,108.965625L66.7680607638889,105.94857954545455L66.83611909722222,107.55767045454546L66.8829092013889,107.13025568181818L67.11685972222222,104.8171875L67.22461875,106.87883522727273L67.53938854166667,109.56903409090908L67.57199982638889,107.83423295454546L67.58901440972222,111.78153409090909L67.67692309027777,108.91534090909092L67.81729340277778,114.67286931818182L67.90520208333334,108.4125L68.21004670138889,107.20568181818182L68.25541892361112,111.98267045454546L68.3376560763889,109.34275568181818L68.87786909722222,104.86747159090909L69.06077586805556,109.66960227272727L69.19831041666667,111.80667613636363L69.3145767361111,103.68579545454546L69.40673906250001,103.96235795454545L69.50031927083333,109.64446022727273L69.50882656249999,110.87642045454545L69.54427361111111,105.646875L69.66479357638889,108.31193181818182L69.88740104166666,105.19431818181818L69.96113090277778,113.36548295454546L70.17381319444445,107.30625L70.2773185763889,109.54389204545454L70.35530208333333,107.15539772727273L70.43895711805555,110.82613636363637L70.65305729166667,111.07755681818182L70.71119045138889,104.36463068181818L71.18759878472223,105.9234375L71.22446371527778,107.5828125L71.26700017361111,108.6890625L71.32371545138889,110.27301136363636L71.62005277777777,109.34275568181818L71.73490121527777,105.82286931818182L71.76609461805556,108.18622159090908L71.86392847222221,101.90071022727273L71.99153784722222,105.74744318181818L71.99295572916667,107.83423295454546L72.0099703125,106.87883522727273L72.03407430555556,103.48465909090909L72.26660694444445,106.82855113636364L72.30488975694443,113.21463068181819L72.61257013888888,108.53821022727273L72.86778888888888,109.09133522727272L73.33994357638889,110.29815340909092L73.59374444444444,108.08565340909091L73.60366961805556,107.20568181818182L73.73127899305555,106.35085227272727L73.84896319444444,102.47897727272728L73.88299236111112,105.06860795454546L73.90000694444444,108.11079545454545L73.91702152777778,103.53494318181818L73.93403611111111,109.39303977272728L74.16798663194444,105.24460227272728L74.17224027777777,109.26732954545454L74.53238229166666,109.34275568181818L74.55790416666667,105.19431818181818L74.74648246527778,110.29815340909092L74.76491493055556,106.62741477272728L74.83580902777777,104.64119318181818L74.89252430555555,108.965625L74.94073229166668,107.18053977272727L75.0371482638889,108.01022727272728L75.12505694444444,108.7393465909091L75.21438350694444,107.13025568181818L75.26542725694443,102.9315340909091L75.51781024305556,102.37840909090909L75.81698333333333,107.93480113636363L75.93324965277779,109.21704545454546L76.02824774305556,113.31519886363637L76.11757430555555,107.10511363636364L76.26503402777777,106.27542613636363L76.40398645833334,112.43522727272727L76.42100104166667,104.06292613636364L76.47204479166666,102.78068181818182L76.48055208333334,106.65255681818182L76.51883489583334,109.82045454545455L77.03210815972221,107.30625L77.18807517361111,107.95994318181818L77.24337256944445,102.75553977272727L77.32986336805556,108.38735795454545L77.35822100694445,102.68011363636364L77.49433767361111,110.27301136363636L77.53262048611111,108.71420454545455L77.73112395833333,107.0296875L78.01753611111111,106.90397727272727L78.28268003472222,107.90965909090909L78.28551579861112,107.20568181818182L78.71655190972223,110.625L78.72789496527777,104.86747159090909L79.05117204861111,103.434375L79.16176684027778,105.72230113636364L79.18161718750001,105.14403409090909L79.23124305555557,102.15213068181818L79.53750555555555,108.43764204545455L79.71048715277777,107.98508522727273L79.82675347222222,102.6046875L80.21950677083333,102.65497159090908L80.23652135416667,101.37272727272727L80.25211805555556,102.65497159090908L80.49032222222222,107.48224431818181L80.52860503472223,107.0799715909091L80.82919600694444,100.92017045454546L81.0702359375,106.70284090909091L81.0985935763889,113.59176136363637L81.1468015625,107.70852272727272L81.57500190972222,102.75553977272727L81.7820126736111,102.328125L81.97909826388889,106.02400568181818L82.14073680555555,106.07428977272727L82.39453767361111,103.50980113636363L82.4484171875,104.94289772727272L82.5788623263889,109.01590909090909L82.62990607638889,102.20241477272727L82.65401006944445,100.92017045454546L82.70505381944444,102.73039772727273L82.85251354166667,102.50411931818182L82.88228906249999,104.61605113636364L82.92482552083334,103.30866477272727L83.48347100694444,103.40923295454546L83.97122239583334,105.06860795454546L84.05062378472222,102.30298295454546L84.12435364583334,103.7109375L84.1583828125,108.56335227272727L84.22076961805556,98.35568181818182L84.22785902777778,103.78636363636363L84.247709375,106.30056818181818L84.9495609375,102.15213068181818L85.16224322916666,105.3703125L85.28418107638889,106.22514204545455L85.35223940972222,102.37840909090909L85.44440173611112,103.76122159090909L85.45574479166666,101.32244318181819L85.65708402777777,103.81150568181818L85.79603645833333,102.17727272727272L85.81872256944443,103.96235795454545L85.82581197916666,102.27784090909091L85.88394513888889,107.00454545454545L85.94774982638889,106.09943181818181L85.95909288194446,105.82286931818182L85.98745052083332,107.55767045454546L86.12498506944445,103.88693181818182L86.30080243055556,104.44005681818182L86.52199201388889,110.04673295454545L86.59146822916667,106.04914772727273L86.83392604166667,103.7109375L86.97996788194443,106.42627840909091L87.45070468750001,102.65497159090908L87.62652204861112,104.38977272727273L87.973903125,102.98181818181818L88.06748333333334,102.15213068181818L88.08733368055555,104.28920454545455L88.12561649305556,98.50653409090908L88.20927152777777,103.1075284090909L88.60627847222221,102.85610795454545L88.68993350694444,109.34275568181818L88.92671979166666,102.02642045454546L89.20746041666666,98.93394886363636L89.42581423611112,99.96477272727273L89.49670833333333,103.08238636363636L89.54633420138889,103.93721590909091L89.70655486111112,103.9875L89.72498732638888,104.46519886363636L89.84550729166666,103.38409090909092L90.04968229166667,104.79204545454546L90.52183697916666,102.12698863636363L90.71608680555556,106.35085227272727L90.90324722222222,105.52116477272727L91.23928524305556,102.27784090909091L91.4037595486111,104.2640625L91.57390538194444,108.26164772727273L91.59375572916666,106.60227272727273L91.71852934027777,99.08480113636364L91.74546909722223,97.24943181818182L91.95956927083334,101.32244318181819L92.16374427083333,105.6971590909091L92.1977734375,106.62741477272728L92.4813498263889,107.23082386363636L92.62172013888889,101.775L92.74082222222222,105.06860795454546L92.77768715277779,101.85042613636364L92.87835677083334,111.27869318181818L92.98611579861111,112.0078125L93.22715572916667,103.25838068181818L93.55326857638889,110.29815340909092L93.64117725694445,97.77741477272727L93.77729392361111,103.2080965909091L93.93751458333332,103.81150568181818L94.14736111111111,94.9112215909091L94.22250885416666,102.12698863636363L94.27638836805556,101.42301136363636L94.28205989583333,106.72798295454545L94.28631354166667,103.25838068181818L94.53727864583334,101.67443181818182L94.91018159722222,105.9234375L94.98958298611112,108.51306818181818L95.49293107638889,97.0734375L95.5950185763889,98.6825284090909L95.70135972222222,101.92585227272727L96.28836284722222,99.58764204545454L96.35358541666666,109.71988636363636L96.80163611111111,100.1659090909091L96.89238055555556,107.28110795454545L97.00722899305556,101.775L97.43401145833333,105.77258522727273L97.48647309027777,102.0515625L97.519084375,96.47002840909092L97.59423211805554,101.19673295454545L97.68072291666667,103.13267045454545L97.80407864583333,103.00696022727273L98.10041597222222,105.646875L99.49277604166666,100.92017045454546L99.53956614583333,97.80255681818181L99.56225225694445,97.95340909090909L99.56508802083333,95.74090909090908L99.80471006944444,79.80085227272727L100.02448177083333,96.67116477272727L100.11380833333332,95.61519886363637L100.19179184027777,93.30213068181818L100.26126805555556,92.79928977272728L100.60581336805556,92.12045454545455L100.65827499999999,98.55681818181819L100.78872013888889,95.18778409090909L100.9007328125,101.32244318181819L100.93759774305555,96.62088068181818L101.11341510416666,93.27698863636364L101.3728875,98.43110795454545L102.10735034722222,88.80170454545454L102.50010364583333,101.97613636363636L102.52846128472223,85.1309659090909L103.51530711805555,93.85525568181818L103.52806805555555,94.55923295454545L104.15618975694444,91.36619318181818L104.39155815972222,93.7546875L104.6014046875,96.57059659090909L104.74886440972222,90.86335227272727L104.80132604166667,93.2015625L104.8311015625,92.925L105.022515625,94.584375L105.32168871527777,92.01988636363636L105.38123975694445,94.43352272727273L105.96115347222222,95.71576704545454L106.00368993055557,81.53565340909091L106.01077934027778,85.734375L106.0816734375,89.70681818181818L106.44748697916665,96.24375L106.55666388888889,103.48465909090909L106.72397395833333,94.73522727272727L106.88844826388889,96.06775568181818L107.3095592013889,93.93068181818182L107.73067013888888,95.86661931818182L107.78454965277777,81.66136363636363L108.04543993055556,89.55596590909092L108.8153498263889,87.19261363636363L108.8479611111111,96.57059659090909L109.93689444444445,84.30127840909091L110.27435034722222,74.82272727272728L110.2927828125,82.26477272727271L110.32397621527778,90.68735795454545L110.34949809027778,92.95014204545454L110.72807256944445,86.38806818181817L110.892546875,82.7424715909091L111.47246059027778,83.69786931818183L111.50365399305555,91.46676136363637L112.72303246527778,69.97031249999999L113.12003940972222,82.86818181818181L113.24197725694445,83.8487215909091L113.35398993055556,80.17798295454546L113.76375781249999,73.03764204545453L113.9395751736111,77.53806818181819L114.57195052083334,94.60951704545455L114.76478246527778,87.87144886363636L114.76761822916666,80.00198863636365L115.01858333333332,87.09204545454546L115.08238802083333,79.3231534090909L115.3205921875,76.40667613636363L115.76864288194444,93.85525568181818L115.93595295138888,80.30369318181819L116.18124652777777,90.51136363636364L116.28475190972223,87.31832386363635L116.36982482638888,93.30213068181818L116.50452361111111,89.1034090909091L116.61370052083333,76.90951704545455L116.75690659722221,89.053125L117.01070746527778,93.98096590909091L117.25883680555555,96.72144886363637L117.29144809027778,77.48778409090909L117.37368524305555,85.20639204545455L118.01740364583333,85.03039772727271L118.55336302083334,81.71164772727273L118.72067309027777,85.63380681818181L119.02977135416666,92.07017045454545L119.03260711805555,85.88522727272728L119.04678593749999,93.07585227272727L119.37715243055555,76.35639204545454L119.49483663194444,93.05071022727273L119.5217763888889,87.44403409090908L119.53453732638889,83.52187500000001L119.78833819444445,89.02798295454545L119.96131979166667,86.81548295454546L120.4986970486111,89.73196022727272L120.79361649305557,84.8544034090909L120.82764565972222,74.84786931818182L121.03465642361111,81.05795454545455L121.2927109375,94.78551136363636L121.48270711805556,91.06448863636363L121.58479461805555,86.79034090909092L121.61315225694445,89.30454545454545L121.63300260416668,72.93707386363637L121.65852447916667,79.44886363636364L122.18455868055555,84.70355113636363L122.2370203125,75.70269886363637L122.53761128472222,74.34502840909092L122.53902916666667,77.83977272727273L123.3217,77.36207386363637L123.36281857638889,86.71491477272727L123.38408680555555,79.5997159090909L123.5102782986111,76.10497159090909L123.9881045138889,83.67272727272729L124.33406770833334,86.58920454545455L124.61480833333334,81.05795454545455L124.62898715277778,95.01178977272727L124.63607656250001,76.48210227272727L124.77219322916666,81.18366477272727L124.82890850694444,78.0409090909091L125.17061805555556,87.9971590909091L125.27128767361111,71.78053977272727L125.36486788194445,97.65170454545455L125.40315069444445,81.8625L125.53076006944444,87.26803977272728L125.88523055555555,86.58920454545455L125.93627430555556,86.13664772727273L126.02276510416667,84.55269886363635L126.13335989583334,82.94360795454546L126.74588489583333,88.47485795454546L127.16557795138888,83.52187500000001L127.9283984375,96.24375L128.37928489583334,76.58267045454545L128.50831215277776,84.92982954545455L128.75218784722222,86.43835227272729L128.7550236111111,88.67599431818182L128.80039583333334,86.79034090909092L129.013078125,88.72627840909091L129.14919479166667,75.52670454545455L129.45403940972224,91.66789772727273L130.22678506944445,91.31590909090909L130.30051493055555,78.64431818181818L130.87901076388889,88.09772727272727L130.8861001736111,85.60866477272727L131.29161440972223,82.3653409090909L131.55817621527777,91.79360795454545L131.73257569444445,75.52670454545455L131.86443871527777,79.24772727272727L132.1395078125,85.10582386363636L133.09799600694444,69.97031249999999L133.17597951388888,81.3596590909091L133.17739739583334,89.78224431818182L133.48791354166667,78.2169034090909L133.52903211805554,85.30696022727273L133.8041012152778,74.57130681818181L134.05081267361112,75.60213068181818L134.17416840277778,81.8625L134.46341631944443,81.5859375L134.62647274305556,80.83167613636364L134.78243975694446,87.79602272727271L135.25743020833335,75.80326704545453L135.67003385416666,75.02386363636363L135.6742875,77.01008522727273L135.90823802083332,67.7578125L135.93375989583333,85.5080965909091L136.03017586805555,68.5372159090909L136.1719640625,76.75866477272729L136.5193451388889,85.75951704545454L137.75290243055557,80.12769886363637L138.44199305555554,75.42613636363636L138.95101267361113,82.28991477272729L139.19347048611112,87.92173295454545L139.23317118055556,91.34105113636363L139.60040260416667,78.66946022727272L139.74360868055555,85.98579545454547L139.85987500000002,82.16420454545455L140.4667284722222,85.9606534090909L140.57448749999998,87.06690340909091L141.26499600694444,84.37670454545454L141.56133333333332,75.30042613636364L141.64640625,81.8625L141.78252291666666,86.86576704545453L141.93140052083334,85.40752840909092L141.93848993055556,71.47883522727273L141.96968333333334,92.95014204545454L141.978190625,75.65241477272727L142.30572135416665,71.42855113636364L142.3837048611111,71.78053977272727L142.50989635416667,67.17954545454545L142.66302760416667,78.56889204545453L142.95511128472222,84.5778409090909L143.9759862847222,84.17556818181818L144.2496375,67.05383522727271L144.74022465277778,76.58267045454545L144.81253663194445,78.54375L144.94439965277778,75.04900568181817L145.040815625,85.15610795454545L145.70580225694445,74.01818181818183L145.85609774305556,70.14630681818183L145.90997725694444,79.22258522727273L146.17228541666665,74.99872159090908L148.00986041666667,69.69375000000001L148.11053003472222,80.60539772727273L148.43380711805554,76.23068181818182L148.7698451388889,76.30610795454547L148.9456625,72.00681818181819L148.9910347222222,88.72627840909091L149.4206529513889,74.84786931818182L149.69713993055555,66.52585227272728L149.91407586805556,76.15525568181819L150.4741392361111,70.67428977272728L150.6839857638889,79.49914772727271L150.88957864583332,65.82187499999999L150.8980859375,75.5518465909091L151.09375364583332,78.29232954545455L151.6991892361111,67.63210227272727L152.0111232638889,82.11392045454545L152.0720921875,82.03849431818182L152.35708645833333,71.60454545454546L152.7384967013889,67.20468749999999L152.7711079861111,81.3596590909091L153.06319166666668,76.35639204545454L153.3836329861111,88.7765625L153.9125029513889,64.16250000000001L154.00324739583334,64.26306818181817L154.5916684027778,58.756960227272714L155.69336267361112,68.034375L156.04499739583335,68.05951704545454L156.09745902777777,66.90298295454545L156.10029479166667,62.62883522727273L156.1882034722222,65.36931818181817L156.19103923611112,76.68323863636364L156.37111024305554,60.516903409090915L156.6050607638889,65.04247159090909L157.23176458333333,82.28991477272729L157.50966944444446,57.44957386363636L157.8939154513889,41.61008522727272L158.48375434027778,63.936221590909085L158.67516840277776,76.25582386363635L159.14306944444445,58.078125L159.22530659722221,49.02698863636364L159.50746510416667,62.75454545454545L159.56843402777778,48.624715909090895L159.64499965277778,64.53963068181818L159.7343262152778,73.81704545454545L160.1596907986111,63.91107954545454L160.43050625,70.87542613636363L160.54819045138888,57.022159090909085L160.6828892361111,48.297869318181824L161.35071163194445,71.47883522727273L161.62578072916665,54.709090909090904L161.81010538194445,55.3125L161.94905781249997,55.086221590909105L162.60411927083334,40.15184659090909L163.03231961805557,68.2606534090909L163.05784149305555,61.32144886363636L163.09470642361111,59.00838068181818L163.78096128472222,61.37173295454545L163.78663281250002,54.43252840909091L163.8887203125,52.119460227272725L164.1921470486111,65.14303977272728L164.23893715277777,63.65965909090909L164.34102465277778,73.41477272727273L164.4601267361111,47.94588068181818L164.6132579861111,65.64588068181817L164.7054203125,56.368465909090915L165.10242725694442,66.95326704545455L165.32361684027777,61.170596590909085L165.7872642361111,51.038352272727266L165.994275,64.51448863636364L166.51605555555557,46.060227272727275L166.60538211805556,62.30198863636363L166.61105364583335,72.38394886363636L167.42491788194442,71.42855113636364L167.60782465277777,54.03025568181819L167.80349236111113,70.0205965909091L168.20333506944442,56.51931818181818L169.24406041666668,73.86732954545455L169.4524890625,76.13011363636363L169.56166597222222,70.64914772727273L169.669425,66.57613636363635L169.77576614583333,70.90056818181817L170.21672743055555,65.94758522727273L171.01499496527777,73.0125L171.02633802083335,64.3887784090909L171.06887447916668,52.49659090909091L171.33827204861112,69.29147727272728L171.40349461805556,59.888352272727275L171.838784375,60.39119318181818L172.03161631944442,42.640909090909105L172.44280208333333,67.68238636363637L172.97308993055557,64.4893465909091L173.2070404513889,66.07329545454546L174.08612725694442,70.2971590909091L174.20381145833332,60.76832386363637L174.48738784722224,68.43664772727271L174.5058203125,63.10653409090909L174.97513923611112,62.27684659090909L175.24453680555555,53.17542613636364L175.61035034722224,64.18764204545455L175.71243784722222,46.6887784090909L175.79183923611112,57.17301136363636L176.00877517361113,63.43338068181818L176.14205607638888,67.38068181818183L176.21153229166666,65.04247159090909L176.22712899305554,57.851846590909105L176.36891718750002,67.43096590909092L176.5986140625,62.42769886363635L176.6142107638889,57.49985795454545L177.0126355902778,71.17713068181817L177.15158802083334,48.52414772727272L177.66486128472224,55.36278409090909L178.30716180555555,54.23139204545454L178.80625625,59.61178977272728L179.05013194444444,41.484375L179.87959288194446,68.61264204545455L180.6920392361111,50.91264204545453L181.25635625,66.77727272727273L181.61224461805554,56.720454545454544L182.1978298611111,59.787784090909085L182.38357239583334,57.77642045454546L182.97199340277777,49.20298295454545L183.70503836805554,56.21761363636364L183.75182847222223,64.23792613636364L183.86809479166666,66.9784090909091L184.45084427083333,46.060227272727275L185.17538194444444,55.89076704545455L185.23209722222222,61.57286931818183L185.23776875,45.657954545454544L186.63721822916665,45.18025568181818L186.8229607638889,58.58096590909091L186.8754223958333,64.9921875L186.8995263888889,53.57769886363637L187.3206373263889,63.10653409090909L187.60988524305557,40.45355113636364L187.98987760416668,52.06917613636364L188.40389913194446,45.406534090909105L188.64635694444445,58.73181818181817L188.73851927083334,58.90781249999999L189.11851163194444,40.855823863636374L189.14545138888892,53.85426136363637L190.06565677083333,57.77642045454546L191.94293246527778,54.80965909090909L192.71426024305555,71.32798295454545L193.14246059027778,49.554971590909105L193.20201163194446,33.891477272727286L193.39909722222222,28.91335227272728L194.24273697916666,37.86392045454545L194.655340625,37.46164772727272L195.25085104166666,43.24431818181819L195.9087482638889,32.634375000000006L196.2958300347222,19.183380681818193L196.52269114583333,55.56392045454547L196.60351041666667,42.314062500000006L196.89417621527778,37.310795454545456L197.09835121527777,27.93281250000001L197.93915520833332,47.92073863636364L198.05967517361108,54.357102272727275L198.57153055555554,39.347301136363626L198.86077847222222,56.720454545454544L199.75546197916665,53.07485795454545L200.55798315972223,47.99616477272727L201.42714479166668,59.486079545454544L201.5505005208333,69.54289772727273L201.7277357638889,33.891477272727286L201.7376609375,32.83551136363636L202.2963064236111,36.55653409090908L202.63518020833334,49.98238636363635L203.30300260416666,47.443039772727275L205.1575921875,59.335227272727266L205.2653512152778,45.859090909090895L205.51348055555556,32.93607954545453L205.74601319444443,45.88423295454547L205.91474114583332,37.08451704545453L205.93459149305556,26.097443181818193L205.97287430555556,36.10397727272726L206.14727378472224,47.443039772727275L206.5258482638889,11.263636363636351L206.77964913194444,62.47798295454547L206.92001944444445,55.38792613636363L207.0433751736111,49.88181818181819L207.53254444444443,48.92642045454545L209.46653541666666,50.96292613636365L209.8919,67.20468749999999L209.94010798611112,52.59715909090909L210.1797300347222,42.38948863636364L210.41226267361114,41.182670454545445L210.6036767361111,38.54275568181819L210.7780762152778,35.02286931818182L210.96240086805554,35.726846590909105L211.10844270833334,52.220028409090915L211.71104253472222,61.74886363636364L211.9662612847222,35.82741477272728L212.87937725694445,39.19644886363636L212.91057065972223,65.36931818181817L213.24519079861113,46.03508522727273L214.84739739583333,45.6328125L214.99202135416667,38.99531250000001L215.1054519097222,38.693607954545456L215.18627118055556,24.76491477272728L215.40037135416665,39.82499999999999L215.63715763888888,58.80724431818183L215.9249876736111,37.58735795454547L215.98737447916668,25.09176136363635L216.06394010416668,44.72769886363636L216.63818229166665,40.02613636363637L216.91183350694445,25.770596590909093L217.446375,25.921448863636357L217.73278715277777,11.992755681818181L219.06276041666666,25.644886363636374L219.24424930555557,41.710653409090895L219.52782569444446,54.533096590909096L219.8808782986111,44.275142045454544L220.1800513888889,38.46732954545453L220.72451805555554,41.73579545454547L220.96981163194445,38.54275568181819L221.07189913194443,27.882528409090895L221.35831128472222,38.84446022727272L222.69962760416666,41.8112215909091L222.70813489583335,29.31562500000001L222.85559461805556,41.459232954545456L223.23416909722224,41.484375L223.79565034722222,51.01321022727272L223.95161736111112,28.30994318181817L223.98706440972222,53.02457386363636L225.07174409722222,28.008238636363643L225.51270538194444,58.203835227272734L226.10112638888887,36.45596590909091L226.16209531249999,57.44957386363636L226.24716822916665,59.96377840909091L226.26560069444443,23.859801136363643L226.7902170138889,37.51193181818181L227.54878385416666,32.30752840909091L227.9160152777778,55.086221590909105L228.11593663194444,43.77230113636364L228.15421944444444,35.37485795454546L228.20809895833332,20.918181818181807L228.4264527777778,49.22812499999999L229.83866319444445,21.72272727272727L230.4724564236111,25.267755681818187L230.52208229166666,30.799005681818187L230.7149142361111,50.560653409090904L231.19132256944442,37.763352272727275L231.71877465277777,57.52499999999999L231.78683298611114,27.706534090909088L231.92436753472222,20.314772727272725L232.1767505208333,35.37485795454546L232.21928697916667,25.795738636363637L232.6120402777778,19.6862215909091L232.6446515625,27.25397727272727L232.93673524305555,44.42599431818181L234.48648020833332,22.678124999999994L235.21810729166666,35.60113636363636L235.58250295138888,38.11534090909092L235.65906857638888,36.75767045454546L236.07592586805555,50.86235795454546L236.8557609375,38.66846590909091L237.87521805555556,58.00269886363637L239.02086666666668,9.830539772727263L239.51428958333332,46.56306818181818L240.0459953125,67.83323863636363L240.80456215277778,23.356960227272737L241.20015121527777,20.063352272727286L241.26679166666668,24.287215909090918L241.62976944444443,46.53792613636364L242.01543333333333,14.733238636363637L242.67900208333333,31.779545454545456L243.55808888888888,30.62301136363635L243.94091701388888,7.316335227272731L244.1876284722222,24.387784090909093L245.4977513888889,7.944886363636357L245.7529701388889,42.112926136363626L245.83237152777778,33.96690340909092L246.83197829861112,31.251562500000006L247.64300677083335,20.94332386363635L248.28814305555554,32.08125000000001L248.33635104166666,11.640767045454538L248.3959020833333,43.89801136363636L248.74611892361114,24.840340909090912L248.94887604166667,46.94019886363637L249.24237760416668,29.24019886363635L249.24521336805554,13.09900568181817L249.25088489583334,33.086931818181824L249.25230277777777,4.374715909090895L249.2537206597222,27.631107954545456L249.25513854166667,25.192329545454555L249.2565564236111,74.4455965909091L249.25797430555556,51.08863636363637L249.2593921875,43.04318181818181L249.2622279513889,16.166335227272725L249.27073524305555,55.21193181818181L249.27498888888888,12.068181818181813L249.28349618055555,51.189204545454544L249.28916770833334,19.56051136363635L249.30192864583333,36.43082386363636L249.3033465277778,8.900284090909082L249.30476440972222,36.380539772727275L249.30618229166666,33.891477272727286L249.31327170138889,46.03508522727273L249.31610746527778,31.72926136363637L249.323196875,13.124147727272714L249.32745052083334,34.72116477272726L249.3302862847222,-0.8548295454545496L249.33170416666667,31.226420454545462L249.33312204861113,41.73579545454547L249.33453993055554,25.066619318181807L249.34021145833333,17.90113636363637L249.3515545138889,27.681392045454544L249.35297239583332,34.469744318181824L249.35722604166665,20.792471590909088L249.36006180555557,47.26704545454547L249.36147968749998,34.670880681818176L249.3643154513889,55.01079545454546L249.3714048611111,19.912499999999994L249.37849427083333,15.33664772727272L249.38133003472223,42.74147727272728L249.38416579861112,33.56463068181819L249.38841944444445,12.948153409090907L249.39125520833332,25.09176136363635L249.39834461805557,29.919034090909093L249.4025982638889,22.20042613636363L249.40685190972223,42.08778409090908L249.41961284722223,12.545880681818176L249.42103072916666,16.568607954545456L249.425284375,40.202130681818176" style="fill: none;" fill="none"></path></g></g></g></g></g></g><g transform="translate(74, 177)" clip-path="url(#clip_1)"><clipPath id="clip_1"><rect width="255" height="23"></rect></clipPath><g><g><line x1="0" y1="0" x2="0" y2="5" style="visibility: inherit;" fill="rgb(0, 0, 0)" stroke="rgb(204, 204, 204)" stroke-width="1px"></line><line x1="28.357638888888886" y1="0" x2="28.357638888888886" y2="5" style="visibility: inherit;" fill="rgb(0, 0, 0)" stroke="rgb(204, 204, 204)" stroke-width="1px"></line><line x1="56.71527777777777" y1="0" x2="56.71527777777777" y2="5" style="visibility: inherit;" fill="rgb(0, 0, 0)" stroke="rgb(204, 204, 204)" stroke-width="1px"></line><line x1="85.07291666666666" y1="0" x2="85.07291666666666" y2="5" style="visibility: inherit;" fill="rgb(0, 0, 0)" stroke="rgb(204, 204, 204)" stroke-width="1px"></line><line x1="113.43055555555554" y1="0" x2="113.43055555555554" y2="5" style="visibility: inherit;" fill="rgb(0, 0, 0)" stroke="rgb(204, 204, 204)" stroke-width="1px"></line><line x1="141.78819444444446" y1="0" x2="141.78819444444446" y2="5" style="visibility: inherit;" fill="rgb(0, 0, 0)" stroke="rgb(204, 204, 204)" stroke-width="1px"></line><line x1="170.14583333333331" y1="0" x2="170.14583333333331" y2="5" style="visibility: inherit;" fill="rgb(0, 0, 0)" stroke="rgb(204, 204, 204)" stroke-width="1px"></line><line x1="198.50347222222223" y1="0" x2="198.50347222222223" y2="5" style="visibility: inherit;" fill="rgb(0, 0, 0)" stroke="rgb(204, 204, 204)" stroke-width="1px"></line><line x1="226.8611111111111" y1="0" x2="226.8611111111111" y2="5" style="visibility: inherit;" fill="rgb(0, 0, 0)" stroke="rgb(204, 204, 204)" stroke-width="1px"></line><line x1="255.21875" y1="0" x2="255.21875" y2="5" style="visibility: inherit;" fill="rgb(0, 0, 0)" stroke="rgb(204, 204, 204)" stroke-width="1px"></line></g><g transform="translate(0, 8)"><text x="0" y="0" dx="0em" dy="0.95em" style="text-anchor: middle; visibility: hidden; font-family: &quot;Helvetica Neue&quot;, sans-serif; font-size: 12px; font-weight: 200;" fill="rgb(50, 49, 63)" stroke="none" stroke-width="1px">-20k</text><text x="28.357638888888886" y="0" dx="0em" dy="0.95em" style="text-anchor: middle; visibility: inherit; font-family: &quot;Helvetica Neue&quot;, sans-serif; font-size: 12px; font-weight: 200;" fill="rgb(50, 49, 63)" stroke="none" stroke-width="1px">0</text><text x="56.71527777777777" y="0" dx="0em" dy="0.95em" style="text-anchor: middle; visibility: hidden; font-family: &quot;Helvetica Neue&quot;, sans-serif; font-size: 12px; font-weight: 200;" fill="rgb(50, 49, 63)" stroke="none" stroke-width="1px">20k</text><text x="85.07291666666666" y="0" dx="0em" dy="0.95em" style="text-anchor: middle; visibility: inherit; font-family: &quot;Helvetica Neue&quot;, sans-serif; font-size: 12px; font-weight: 200;" fill="rgb(50, 49, 63)" stroke="none" stroke-width="1px">40k</text><text x="113.43055555555554" y="0" dx="0em" dy="0.95em" style="text-anchor: middle; visibility: hidden; font-family: &quot;Helvetica Neue&quot;, sans-serif; font-size: 12px; font-weight: 200;" fill="rgb(50, 49, 63)" stroke="none" stroke-width="1px">60k</text><text x="141.78819444444446" y="0" dx="0em" dy="0.95em" style="text-anchor: middle; visibility: inherit; font-family: &quot;Helvetica Neue&quot;, sans-serif; font-size: 12px; font-weight: 200;" fill="rgb(50, 49, 63)" stroke="none" stroke-width="1px">80k</text><text x="170.14583333333331" y="0" dx="0em" dy="0.95em" style="text-anchor: middle; visibility: hidden; font-family: &quot;Helvetica Neue&quot;, sans-serif; font-size: 12px; font-weight: 200;" fill="rgb(50, 49, 63)" stroke="none" stroke-width="1px">100k</text><text x="198.50347222222223" y="0" dx="0em" dy="0.95em" style="text-anchor: middle; visibility: inherit; font-family: &quot;Helvetica Neue&quot;, sans-serif; font-size: 12px; font-weight: 200;" fill="rgb(50, 49, 63)" stroke="none" stroke-width="1px">120k</text><text x="226.8611111111111" y="0" dx="0em" dy="0.95em" style="text-anchor: middle; visibility: hidden; font-family: &quot;Helvetica Neue&quot;, sans-serif; font-size: 12px; font-weight: 200;" fill="rgb(50, 49, 63)" stroke="none" stroke-width="1px">140k</text><text x="255.21875" y="0" dx="0em" dy="0.95em" style="text-anchor: middle; visibility: hidden; font-family: &quot;Helvetica Neue&quot;, sans-serif; font-size: 12px; font-weight: 200;" fill="rgb(50, 49, 63)" stroke="none" stroke-width="1px">160k</text></g><line x1="0" y1="0" x2="255.21875" y2="0" fill="rgb(0, 0, 0)" stroke="rgb(204, 204, 204)" stroke-width="1px"></line></g></g></g></g></svg>