<svg viewBox="0 0 330 200" xmlns="http://www.w3.org/2000/svg"><g><g><g><g><g><line x1="42.390625" y1="177" x2="37.390625" y2="177" style="visibility: inherit;" fill="rgb(0, 0, 0)" stroke="rgb(204, 204, 204)" stroke-width="1px"></line><line x1="42.390625" y1="160.9090909090909" x2="37.390625" y2="160.9090909090909" style="visibility: inherit;" fill="rgb(0, 0, 0)" stroke="rgb(204, 204, 204)" stroke-width="1px"></line><line x1="42.390625" y1="144.8181818181818" x2="37.390625" y2="144.8181818181818" style="visibility: inherit;" fill="rgb(0, 0, 0)" stroke="rgb(204, 204, 204)" stroke-width="1px"></line><line x1="42.390625" y1="128.72727272727275" x2="37.390625" y2="128.72727272727275" style="visibility: inherit;" fill="rgb(0, 0, 0)" stroke="rgb(204, 204, 204)" stroke-width="1px"></line><line x1="42.390625" y1="112.63636363636364" x2="37.390625" y2="112.63636363636364" style="visibility: inherit;" fill="rgb(0, 0, 0)" stroke="rgb(204, 204, 204)" stroke-width="1px"></line><line x1="42.390625" y1="96.54545454545455" x2="37.390625" y2="96.54545454545455" style="visibility: inherit;" fill="rgb(0, 0, 0)" stroke="rgb(204, 204, 204)" stroke-width="1px"></line><line x1="42.390625" y1="80.45454545454547" x2="37.390625" y2="80.45454545454547" style="visibility: inherit;" fill="rgb(0, 0, 0)" stroke="rgb(204, 204, 204)" stroke-width="1px"></line><line x1="42.390625" y1="64.36363636363636" x2="37.390625" y2="64.36363636363636" style="visibility: inherit;" fill="rgb(0, 0, 0)" stroke="rgb(204, 204, 204)" stroke-width="1px"></line><line x1="42.390625" y1="48.27272727272728" x2="37.390625" y2="48.27272727272728" style="visibility: inherit;" fill="rgb(0, 0, 0)" stroke="rgb(204, 204, 204)" stroke-width="1px"></line><line x1="42.390625" y1="32.18181818181819" x2="37.390625" y2="32.18181818181819" style="visibility: inherit;" fill="rgb(0, 0, 0)" stroke="rgb(204, 204, 204)" stroke-width="1px"></line><line x1="42.390625" y1="16.090909090909093" x2="37.390625" y2="16.090909090909093" style="visibility: inherit;" fill="rgb(0, 0, 0)" stroke="rgb(204, 204, 204)" stroke-width="1px"></line><line x1="42.390625" y1="0" x2="37.390625" y2="0" style="visibility: inherit;" fill="rgb(0, 0, 0)" stroke="rgb(204, 204, 204)" stroke-width="1px"></line></g><g transform="translate(32.390625, 0)"><text x="0" y="177" dx="0em" dy="0.3em" style="text-anchor: end; visibility: hidden; font-family: &quot;Helvetica Neue&quot;, sans-serif; font-size: 12px; font-weight: 200;" fill="rgb(50, 49, 63)" stroke="none" stroke-width="1px">-20</text><text x="0" y="160.9090909090909" dx="0em" dy="0.3em" style="text-anchor: end; visibility: inherit; font-family: &quot;Helvetica Neue&quot;, sans-serif; font-size: 12px; font-weight: 200;" fill="rgb(50, 49, 63)" stroke="none" stroke-width="1px">0</text><text x="0" y="144.8181818181818" dx="0em" dy="0.3em" style="text-anchor: end; visibility: hidden; font-family: &quot;Helvetica Neue&quot;, sans-serif; font-size: 12px; font-weight: 200;" fill="rgb(50, 49, 63)" stroke="none" stroke-width="1px">20</text><text x="0" y="128.72727272727275" dx="0em" dy="0.3em" style="text-anchor: end; visibility: inherit; font-family: &quot;Helvetica Neue&quot;, sans-serif; font-size: 12px; font-weight: 200;" fill="rgb(50, 49, 63)" stroke="none" stroke-width="1px">40</text><text x="0" y="112.63636363636364" dx="0em" dy="0.3em" style="text-anchor: end; visibility: hidden; font-family: &quot;Helvetica Neue&quot;, sans-serif; font-size: 12px; font-weight: 200;" fill="rgb(50, 49, 63)" stroke="none" stroke-width="1px">60</text><text x="0" y="96.54545454545455" dx="0em" dy="0.3em" style="text-anchor: end; visibility: inherit; font-family: &quot;Helvetica Neue&quot;, sans-serif; font-size: 12px; font-weight: 200;" fill="rgb(50, 49, 63)" stroke="none" stroke-width="1px">80</text><text x="0" y="80.45454545454547" dx="0em" dy="0.3em" style="text-anchor: end; visibility: hidden; font-family: &quot;Helvetica Neue&quot;, sans-serif; font-size: 12px; font-weight: 200;" fill="rgb(50, 49, 63)" stroke="none" stroke-width="1px">100</text><text x="0" y="64.36363636363636" dx="0em" dy="0.3em" style="text-anchor: end; visibility: inherit; font-family: &quot;Helvetica Neue&quot;, sans-serif; font-size: 12px; font-weight: 200;" fill="rgb(50, 49, 63)" stroke="none" stroke-width="1px">120</text><text x="0" y="48.27272727272728" dx="0em" dy="0.3em" style="text-anchor: end; visibility: hidden; font-family: &quot;Helvetica Neue&quot;, sans-serif; font-size: 12px; font-weight: 200;" fill="rgb(50, 49, 63)" stroke="none" stroke-width="1px">140</text><text x="0" y="32.18181818181819" dx="0em" dy="0.3em" style="text-anchor: end; visibility: inherit; font-family: &quot;Helvetica Neue&quot;, sans-serif; font-size: 12px; font-weight: 200;" fill="rgb(50, 49, 63)" stroke="none" stroke-width="1px">160</text><text x="0" y="16.090909090909093" dx="0em" dy="0.3em" style="text-anchor: end; visibility: hidden; font-family: &quot;Helvetica Neue&quot;, sans-serif; font-size: 12px; font-weight: 200;" fill="rgb(50, 49, 63)" stroke="none" stroke-width="1px">180</text><text x="0" y="0" dx="0em" dy="0.3em" style="text-anchor: end; visibility: hidden; font-family: &quot;Helvetica Neue&quot;, sans-serif; font-size: 12px; font-weight: 200;" fill="rgb(50, 49, 63)" stroke="none" stroke-width="1px">200</text></g><line x1="42.390625" y1="0" x2="42.390625" y2="177" fill="rgb(0, 0, 0)" stroke="rgb(204, 204, 204)" stroke-width="1px"></line></g></g><g transform="translate(42, 0)" clip-path="url(#clip_0)"><clipPath id="clip_0"><rect width="287" height="177"></rect></clipPath><g><g><g><line x1="0" y1="0" x2="0" y2="177" fill="rgb(0, 0, 0)" stroke="rgb(60, 60, 60)" stroke-width="1px" opacity="0.25"></line><line x1="31.95659722222222" y1="0" x2="31.95659722222222" y2="177" fill="rgb(0, 0, 0)" stroke="rgb(60, 60, 60)" stroke-width="1px" opacity="0.25"></line><line x1="63.91319444444444" y1="0" x2="63.91319444444444" y2="177" fill="rgb(0, 0, 0)" stroke="rgb(60, 60, 60)" stroke-width="1px" opacity="0.25"></line><line x1="95.86979166666666" y1="0" x2="95.86979166666666" y2="177" fill="rgb(0, 0, 0)" stroke="rgb(60, 60, 60)" stroke-width="1px" opacity="0.25"></line><line x1="127.82638888888889" y1="0" x2="127.82638888888889" y2="177" fill="rgb(0, 0, 0)" stroke="rgb(60, 60, 60)" stroke-width="1px" opacity="0.25"></line><line x1="159.78298611111111" y1="0" x2="159.78298611111111" y2="177" fill="rgb(0, 0, 0)" stroke="rgb(60, 60, 60)" stroke-width="1px" opacity="0.25"></line><line x1="191.73958333333331" y1="0" x2="191.73958333333331" y2="177" fill="rgb(0, 0, 0)" stroke="rgb(60, 60, 60)" stroke-width="1px" opacity="0.25"></line><line x1="223.69618055555557" y1="0" x2="223.69618055555557" y2="177" fill="rgb(0, 0, 0)" stroke="rgb(60, 60, 60)" stroke-width="1px" opacity="0.25"></line><line x1="255.65277777777777" y1="0" x2="255.65277777777777" y2="177" fill="rgb(0, 0, 0)" stroke="rgb(60, 60, 60)" stroke-width="1px" opacity="0.25"></line><line x1="287.609375" y1="0" x2="287.609375" y2="177" fill="rgb(0, 0, 0)" stroke="rgb(60, 60, 60)" stroke-width="1px" opacity="0.25"></line></g><g><line x1="0" y1="177" x2="287.609375" y2="177" fill="rgb(0, 0, 0)" stroke="rgb(60, 60, 60)" stroke-width="1px" opacity="0.25"></line><line x1="0" y1="160.9090909090909" x2="287.609375" y2="160.9090909090909" fill="rgb(0, 0, 0)" stroke="rgb(60, 60, 60)" stroke-width="1px" opacity="0.25"></line><line x1="0" y1="144.8181818181818" x2="287.609375" y2="144.8181818181818" fill="rgb(0, 0, 0)" stroke="rgb(60, 60, 60)" stroke-width="1px" opacity="0.25"></line><line x1="0" y1="128.72727272727275" x2="287.609375" y2="128.72727272727275" fill="rgb(0, 0, 0)" stroke="rgb(60, 60, 60)" stroke-width="1px" opacity="0.25"></line><line x1="0" y1="112.63636363636364" x2="287.609375" y2="112.63636363636364" fill="rgb(0, 0, 0)" stroke="rgb(60, 60, 60)" stroke-width="1px" opacity="0.25"></line><line x1="0" y1="96.54545454545455" x2="287.609375" y2="96.54545454545455" fill="rgb(0, 0, 0)" stroke="rgb(60, 60, 60)" stroke-width="1px" opacity="0.25"></line><line x1="0" y1="80.45454545454547" x2="287.609375" y2="80.45454545454547" fill="rgb(0, 0, 0)" stroke="rgb(60, 60, 60)" stroke-width="1px" opacity="0.25"></line><line x1="0" y1="64.36363636363636" x2="287.609375" y2="64.36363636363636" fill="rgb(0, 0, 0)" stroke="rgb(60, 60, 60)" stroke-width="1px" opacity="0.25"></line><line x1="0" y1="48.27272727272728" x2="287.609375" y2="48.27272727272728" fill="rgb(0, 0, 0)" stroke="rgb(60, 60, 60)" stroke-width="1px" opacity="0.25"></line><line x1="0" y1="32.18181818181819" x2="287.609375" y2="32.18181818181819" fill="rgb(0, 0, 0)" stroke="rgb(60, 60, 60)" stroke-width="1px" opacity="0.25"></line><line x1="0" y1="16.090909090909093" x2="287.609375" y2="16.090909090909093" fill="rgb(0, 0, 0)" stroke="rgb(60, 60, 60)" stroke-width="1px" opacity="0.25"></line><line x1="0" y1="0" x2="287.609375" y2="0" fill="rgb(0, 0, 0)" stroke="rgb(60, 60, 60)" stroke-width="1px" opacity="0.25"></line></g></g></g><g><g><line x1="0" y1="160.9090909090909" x2="287.609375" y2="160.9090909090909" fill="rgb(0, 0, 0)" stroke="rgb(153, 153, 153)" stroke-width="1.5px"></line></g></g><g><g><line x1="31.95659722222222" y1="0" x2="31.95659722222222" y2="177" fill="rgb(0, 0, 0)" stroke="rgb(153, 153, 153)" stroke-width="1.5px"></line></g></g><g><g><g><g><g><path stroke="rgb(255, 112, 67)" stroke-width="2px" d="M33.869199565972224,142.65596590909092L34.10727621527778,141.96455965909092L34.24149392361111,141.7144219619666L34.55626640625,142.23955078125L34.66971232638889,141.95125583559397L35.27369201388889,141.17093789668976L35.713095225694445,141.69928489060453L35.78339973958333,141.62820663811596L36.341042361111114,141.4948987280962L36.727717187500005,141.2437730486317L36.84595659722223,140.91239113079155L37.606523611111115,140.96630203076973L37.67043680555555,140.78710399156782L37.908513454861115,140.840770359232L37.914904774305555,140.54091213579596L38.40224288194444,140.87412992224108L38.51568880208333,140.49060621741143L38.611558593750004,140.74330984956225L38.62114557291667,140.86474330940348L38.63712387152778,140.7867408610217L38.67387395833334,140.92096791569077L39.03498350694444,140.49865473631098L39.507941145833335,139.9938479460839L40.645596006944444,139.41943104584402L41.885511979166665,138.5216560751063L42.16673003472222,137.74162867811594L42.203480121527775,137.3238972338709L42.5949484375,136.78161073458025L42.81704678819444,136.60709137644537L43.13661276041667,136.41186841907216L43.200525954861114,135.82206415502725L43.29799357638889,135.7899998541008L44.04577795138889,134.95615896355204L44.467605034722226,133.70159306945916L44.49796380208333,133.51203538387142L44.64017065972222,133.3580735014621L45.99033689236111,132.6924577331216L46.34345729166667,132.16234963790458L46.460098871527784,131.9549097822806L46.51282725694444,130.99572995899524L46.851567187499995,129.1329493375395L47.030524131944446,128.95056505698136L47.08964383680556,128.3483503976513L47.271796440972224,127.32327160204956L47.53863402777778,126.2858379611219L47.54023185763889,124.76832095839667L47.708003993055556,122.89235621133145L48.06751571180555,122.06848190859854L48.16977682291667,120.14608914513323L48.17297248263889,118.96248303252491L48.620364843750004,118.28248981951165L48.836071875,118.32705070988894L48.95271345486111,117.85094633502344L49.84110685763889,117.6759087101048L50.62084782986111,116.82668158969871L50.687956684027775,115.87464531745522L50.73109809027778,116.31916219047324L50.94680512152778,115.68075867792022L51.64026328124999,115.1066370249339L51.65624157986111,115.32534585132399L51.91189435763889,114.98390069261256L52.15636232638889,114.41698814284025L52.31774314236111,113.97627243115869L52.64050477430556,114.0638316405134L52.77152682291667,113.67386716612623L53.05434270833334,113.600797572403L54.32781310763889,113.11445581616908L54.90782534722222,113.22492348970145L55.07399965277777,113.0900677301845L55.35681553819444,113.17006336538343L55.51659852430555,113.25828801923006L55.58530520833333,113.21065462971985L55.87770807291667,113.09156323237735L56.00713229166667,112.99999475760823L56.13176302083333,112.70369003638314L56.65105772569444,112.68681629455715L57.934115104166665,112.12356704946157L58.662725520833334,112.03703795694966L58.68189947916667,111.81415459235161L59.023835069444445,111.81116320995643L59.03821553819444,111.23612974415568L59.46164045138889,110.64974602831158L59.55111892361111,110.99183625335058L59.584673350694445,110.88532902473763L59.89784800347223,110.77114059666076L60.33085989583333,110.51154799436009L60.35962083333334,110.50664470570698L60.73990434027778,110.51375955069692L60.776654427083336,110.13586936678178L60.86453506944444,110.31140798370542L61.30873177083333,110.15525388113235L62.21470130208333,110.41355005595213L62.36329947916666,110.39756185175311L62.87460503472222,110.6192757474155L64.07297743055555,110.65173590299476L64.44846744791667,110.1180869963423L64.66097881944445,110.41136356144175L64.87029453125,109.88335222777414L65.13553428819444,109.91853406393722L65.39598055555555,109.72844998381687L65.49983949652777,109.82559271756286L65.58132881944444,110.06490108508318L65.9759927951389,110.04757701468625L66.25880868055555,109.41365984517539L66.79408168402777,109.47580954346887L66.82603828125,109.57344027153586L68.28325911458333,109.25991643564878L68.94795633680556,109.0416316795711L69.17644600694445,109.35316082592446L69.41771831597222,109.68087376828196L69.56312083333333,109.26403562460554L70.15911137152779,109.4664895565815L71.02193949652778,108.87392782485799L71.03631996527778,109.00111805855116L71.29357057291666,109.2081708351307L71.48051666666666,108.91001613744207L71.82085442708333,108.48975968246523L72.72043263888888,108.5493671731155L72.82748723958333,108.59518848568747L72.90418307291667,108.3008630914125L73.01603116319444,108.50642694575659L73.71907630208334,108.79067434927214L73.87726145833334,108.75002960956327L74.835959375,108.86643822028341L74.95260095486111,108.77537429580642L75.21624288194444,108.74084957748384L75.47509131944445,108.6597938373994L75.62688515625001,109.01343312062146L76.63511579861111,109.25578714510014L77.05854071180555,110.03477910524191L77.251878125,109.85853791769061L77.55706362847222,109.51142956879617L78.31922847222222,110.01719865036861L78.37994600694445,109.95861464476663L78.69791414930556,109.10886196867814L78.89924071180556,109.53429445393417L78.93758862847221,109.33699712690596L79.25715460069445,109.10799373068903L79.31946996527778,109.51365987477705L79.69336215277778,109.25421865213896L79.80361241319444,109.1488380094652L80.12956970486111,109.31691644204275L80.18070026041667,110.16196804704383L81.04193055555557,109.98513537368085L81.18893090277777,110.05000167875394L81.41422491319445,109.7369328254342L81.43499670138888,110.03181878616961L82.02619375,109.55505718079266L82.46559696180556,109.81206839938469L82.49915138888889,109.72491149417625L82.65733654513889,108.78761735105121L82.85706527777778,107.48103631972164L82.94814157986112,106.76748542819661L83.00885911458334,107.41543443873616L83.10952239583332,108.0455674814235L83.23095746527777,108.22251094339956L83.59526267361112,107.54424520240337L83.65278454861111,107.88149030326021L83.84132847222222,107.96315554559249L83.90843732638888,107.97192741826458L84.63704774305556,107.74588372368602L84.73451536458334,107.19792796148434L85.30174496527778,106.44676814052697L85.3928212673611,105.71448133886163L85.79227873263888,106.23050698513516L86.4266171875,105.96688373653564L86.49212821180555,106.0199029691941L87.34536935763889,105.31756678151646L88.00367526041667,105.39900597800079L88.06119713541666,105.72946040498229L88.24814322916667,105.56568760662573L88.32963255208332,105.66856029124816L88.34241519097222,105.25761344747617L88.43668715277776,104.81996579575843L88.82176414930555,105.2814681138187L89.05824296875,105.09575586829123L89.28353697916667,105.135180793702L89.69417925347221,104.6761084762212L89.90189713541666,104.2296991766418L90.21347395833332,103.96185359689417L90.58736614583333,104.65597579450015L90.70081206597222,104.81097184033645L90.84142109375,103.91840128602006L90.89894296875,104.42876804433931L90.95966050347222,103.44771537205813L91.02197586805556,104.21675422323487L91.28082430555556,105.03016617030457L91.52689010416665,104.04991788400092L91.55565104166668,104.61830300312783L91.93593454861112,104.22518634733125L91.95830416666666,103.40602089930785L92.6549579861111,102.39156708503926L92.88025199652778,102.23545161465991L93.15827439236111,102.10155505970503L93.46505772569445,102.23241030855029L93.57211232638889,102.15001436694835L93.72071050347222,102.47267907471446L94.20325512152777,101.92207335391959L94.49885364583334,101.84313037598812L94.74012595486111,101.79576458922924L94.96701779513889,101.81762920808299L95.00856137152778,102.37381616121344L95.06448541666667,101.95326696945534L95.41760581597222,101.86184654530956L96.02478116319445,102.8529033817312L96.1206509548611,102.29100339267508L96.12704227430557,103.01988612651414L96.5632498263889,103.62818167590848L96.85085920138889,103.08804536918146L96.86843532986111,103.16623631241796L97.1528490451389,102.87121906017805L97.17841432291667,102.78472007247046L97.19119696180556,102.49145704348227L97.4116974826389,102.85856740790756L97.70410034722222,101.43957226292635L98.01248151041666,100.88987972139218L98.38956935763888,102.63176874192622L98.67078741319445,103.2746294269739L98.81778776041668,103.82125492891163L98.8513421875,103.93803704825606L98.90407057291667,104.13884495622636L98.99994036458334,104.83256833737218L99.30672369791667,104.26323418424148L99.6566484375,103.02657687418126L99.90111640625,102.7773665790542L100.05131241319445,102.81891994743252L100.29737821180557,103.2260110593686L100.37407404513888,102.62549299925752L100.51787873263889,101.48075034500906L100.52746571180555,101.50793884336908L100.58658541666667,102.06732012420326L100.59137890625,102.53368752906741L100.76234670138889,102.42129206289499L101.24329348958332,103.70146841955518L101.44462005208334,104.74110832446037L101.53090286458333,104.67097181285804L101.96071909722222,104.52832172407847L102.1876109375,105.27744757990162L102.25791545138888,105.19391172975917L102.51676388888889,106.21986976512822L102.57109010416667,105.7995923136224L102.87947126736111,106.44248266090071L103.23259166666666,106.50639868744952L103.3955703125,105.8809983033788L103.53937499999999,105.20405352748182L103.91646284722223,104.96885257103455L103.94682161458333,105.21994790625709L104.11938723958333,105.54157101648154L104.2008765625,105.25181760988892L104.45493151041667,104.03205647502426L104.94386744791667,103.7024725213782L105.18194409722221,102.68006305828146L105.26023776041667,102.42866283496888L106.95393741319444,102.19736815552677L107.1920140625,102.00830725695243L107.19840538194445,100.89924571780782L107.5643084201389,101.18920652159379L107.62662378472223,102.64039891295626L108.04046171875,100.6046938932283L108.22900564236112,99.87605497230061L108.48785407986112,98.96620116519856L108.72752855902777,99.7980729718464L108.90169201388889,99.74407105583511L108.93684427083332,99.85246536077379L109.30274730902778,99.76664967100973L109.40021493055555,99.53413752987856L109.75812881944444,98.71076660883622L110.34453237847222,96.87918723802902L110.34613020833334,97.36921688827196L110.39406510416667,98.11579149659954L110.40045642361112,97.00492944341427L110.68007664930555,97.90727584786674L110.95330555555556,97.31226323599277L111.10509939236111,97.27707385068658L111.40549140625001,98.23147158313921L111.65635069444446,98.5225193135199L111.71866605902778,97.51044340629376L111.73943784722222,96.68194786195807L112.61664644097223,95.73229371717483L112.68695095486112,95.48431941212309L112.85152743055555,94.68184164727384L113.24778923611112,95.65859362472794L113.43952881944445,95.37975844756403L114.18411753472222,95.53427552308389L114.41740069444445,94.18886076839578L114.74815147569444,94.09564600649202L114.80247769097222,94.04977396753158L114.80567335069443,94.39435301688259L115.01978255208333,96.68286181012955L115.04375,95.86358072244136L115.38248993055556,95.13064843346481L115.72762118055556,95.59600269644253L116.01682838541666,94.56782889059279L116.04079583333332,95.1979700616284L116.21176362847221,95.08327067334068L116.31402473958333,96.16092831309531L116.39870972222222,96.54604562422082L116.41628585069444,96.61620691998704L116.71667786458333,95.72301960653766L116.81734114583334,95.86091403664987L116.86687387152779,94.95808251289903L117.17365720486112,95.09019041683031L117.24396171875,94.1134892500982L118.01411571180556,94.65383218642256L118.65164982638889,96.96928794821717L118.67561727430555,96.37736822347577L118.85617204861111,95.98198911590363L118.85936770833334,97.33373892408763L119.10223784722221,96.9178569908162L119.24124904513889,95.33077101267155L119.45695607638889,96.12840578942111L119.65668480902778,97.69312301910722L119.97145729166667,97.00274881146434L120.5067302951389,98.22778565051497L120.59940442708333,98.7717282084908L120.92855737847222,100.52616192509447L121.25771032986111,99.78870851869306L121.41749331597222,99.93958874757946L121.52934140625,100.61341233945677L121.66835260416666,99.9919110400377L122.22759305555556,98.1507148058408L123.04408411458334,98.10196297441357L123.1830953125,96.61447323919359L123.22304105902778,96.00357030715251L123.27257378472223,95.5364603661097L123.73754227430555,95.87971712875672L123.91010789930554,96.89021664089039L124.08107569444444,98.90447089362515L124.22807604166667,98.08154617253872L124.63232699652778,99.23710952170505L124.99343654513889,99.34715207665938L125.14043689236112,99.06118897326836L125.57664444444445,99.18125883850648L125.88822126736112,97.74477803037662L125.94734097222222,97.56675318186232L126.41230946180556,97.3794837272992L126.4171029513889,97.94092887274316L126.93160416666667,99.9773982327368L127.0961806423611,98.51410939418753L127.11855026041667,98.80272700014888L127.49563810763888,99.90112483645296L128.25620512152778,100.45959535641724L128.82343472222223,101.08632539566852L128.9928046875,101.92497705558293L129.2676314236111,101.86498623334975L129.28680538194445,102.65365083091895L129.58879522569444,102.67429277127866L129.66868671875,102.47548475367628L129.8396545138889,102.10477948856939L131.67076753472222,101.72144723859618L131.8561157986111,100.30474334315771L132.00950746527778,100.58108464225826L132.03667057291668,100.65637805808223L132.11815989583332,99.01200865303116L132.44571501736112,98.82993246454598L132.44891067708335,99.0223912969094L132.48406293402778,98.39366205087292L134.23049097222224,98.18739041234193L134.4605784722222,97.52055924740516L134.55325260416666,97.7842105484431L134.60598098958334,97.40938996542948L135.13965616319445,97.55659988834859L135.2067650173611,97.76560766028189L135.45283081597222,99.17828505071459L135.5774615451389,97.79327784861057L135.62859210069445,98.36017125462088L135.92898411458333,97.27223911640888L136.0983540798611,95.69425256075444L136.29169149305557,95.57211971827084L136.3396263888889,95.9011127400534L136.55213776041666,96.88294037130477L136.97875833333333,96.02385513187377L137.12416085069444,94.84465398821517L137.88952135416667,94.22764466565637L138.33371805555555,95.81851861757563L138.6724579861111,94.86224753418175L138.75234947916667,95.07291670232723L138.800284375,96.12454547594179L138.93130642361112,96.1320000128378L139.1326329861111,97.19243864406631L139.43142717013887,97.49682682280343L139.68867777777777,97.4079256391366L139.82609114583335,98.21947129257286L140.4412556423611,97.79122823008917L140.53233194444445,97.59462330168988L140.59464730902778,97.21518307192301L140.82793046875,96.57518938860835L141.17625737847223,96.17107954225592L141.44469279513888,96.67281817989901L141.53097560763888,96.65204318066668L141.62684539930555,95.88531681749092L142.16052057291668,96.01863327231274L142.58234765625,95.73657769066035L142.8667613715278,95.53717388712349L143.17354470486111,96.28241796863772L143.78711137152777,95.5881155539099L143.8062853298611,94.9955397868914L143.9165355902778,94.18743750849848L144.05714461805556,93.63217841419L144.74740711805558,93.1381138666958L144.87203784722223,92.51985695638112L145.40411519097222,91.78685735564686L145.55111553819447,91.70910304975176L145.80836614583333,92.42676864803288L145.81315963541667,92.42492482518335L145.95057300347224,94.70671625874638L146.79742282986112,94.647722937066L147.04828211805557,95.8895428531487L147.33589149305558,94.52270298461649L147.53562022569446,92.78742860895171L147.68262057291665,93.7676844380983L147.7177728298611,93.42055384467716L147.73694678819444,93.79557094316993L147.75931640625,93.86972892953833L148.17634999999999,92.68729190317754L148.5949814236111,92.80248877827016L149.05515642361112,91.75530008514392L150.10972413194443,91.29795277835908L150.31903984374998,90.54081712156089L150.66417109375,93.19409254566382L150.95497612847223,96.05321689103465L151.05244375,96.58198695280261L151.34804227430556,98.9508398989543L151.38958585069446,100.89510621209985L151.40556414930558,101.6895637272599L151.7698693576389,101.45220414544684L151.7874454861111,99.9219474872681L151.89450008680555,98.70208894690631L152.22365303819444,102.06329882268925L152.8516001736111,102.89332020270446L153.97327673611113,101.24923075798633L154.0020376736111,100.99692481842816L154.03079861111112,95.2841208001478L154.34077760416665,91.89666566190688L154.52452803819446,89.9748175789623L155.49920425347224,90.50119736555921L155.5711065972222,89.60015023751734L155.65419375,89.80372650614677L155.8683029513889,88.33689499459715L155.941803125,90.00117108766737L156.02489027777779,89.19956628896405L156.13194487847224,86.43570568246933L156.29172786458332,85.48136659129977L156.51861970486112,84.14444495477987L157.02513177083335,83.25178060923156L157.44216536458333,77.95930700190257L157.67544852430555,77.03655011023245L158.65651605902778,76.39238461159401L158.67569001736112,73.14974894877459L159.42667005208332,72.34058800562839L159.91880164930555,71.33213689428612L159.97472569444443,69.42973668202623L160.48283559027777,72.32108064557939L160.68096649305556,70.43543247825674L161.00692378472223,69.62586175968131L161.44952265625,68.63727841944515L161.52621848958333,64.92651477893982L161.54219678819445,67.05465886736388L161.55178376736112,68.10023850223651L161.87774105902778,68.51639310134189L162.02474140625,67.37824495171424L162.07587196180555,68.17370833466491L162.82205850694444,69.02308863716259L163.45639696180555,70.07578500047939L163.53788628472222,69.91291418210581L163.93255026041666,71.47456669108168L164.30804027777776,74.65422865101264L164.44066015625,71.93588946333485L165.27632517361113,72.39670413254636L165.80041336805556,73.38722702498237L165.80840251736112,71.65841576044396L165.86912005208333,72.81351536535729L166.42037135416666,72.00810921921438L166.69040460069445,68.68884280425591L167.17774270833334,68.28626022800809L167.27521032986112,66.50601750044122L167.87439652777778,63.00412186390109L168.56306119791665,56.2466776637952L168.63336571180557,55.61152932554985L169.00406223958333,57.38259941351173L169.49140034722222,54.21132101174341L169.78220538194444,52.107417607046045L170.04265164930555,47.77774601877309L170.17686935763888,46.34653397490018L170.18805416666666,50.566499930394656L170.7121423611111,50.82563859460045L170.91666458333336,49.56311042948754L171.46791588541666,48.735195803147064L171.7043947048611,46.448333390979144L171.94886267361113,40.319340943678384L171.96484097222222,41.720638657116126L171.96963446180553,41.817212739724255L172.47454869791667,41.35220264383452L172.75896241319447,40.28876476811888L172.82926692708332,46.3284293154168L173.15043072916666,49.13762577106826L173.40608350694444,51.627689099004584L173.7703887152778,50.94945436849366L174.0324328125,52.00075216655074L174.48781432291668,50.00670129993044L174.49899913194446,48.45828214359463L174.6092493923611,47.840992013429485L175.12375060763887,50.87987929896677L175.269153125,53.839632124834594L175.4976427951389,56.64127927490074L175.83318706597223,54.43027892857681L175.89390460069444,54.149587811691546L176.51226475694443,57.39043450519672L176.70400434027778,61.22562433948167L177.23608168402777,61.6762836945981L177.4581800347222,61.282929307667956L177.47575616319446,62.81691667550987L177.56523463541666,65.8894681871241L177.63553914930554,66.24459000318356L177.8017134548611,66.37720854736466L177.95830078125002,66.24558649205517L178.67732421875,65.13076098614219L178.69649817708333,66.44305886441258L179.31326050347224,66.74771031864756L179.33083663194444,68.03675119118854L179.4570651909722,68.37773253289491L179.50180442708333,66.14857133791877L180.1585125,67.48618825729672L180.51003506944443,68.84188340892348L180.7640900173611,70.35927777262683L180.906296875,70.81715757266699L181.07247118055557,69.5934195436002L181.50068958333333,70.19673354434194L181.6572769097222,70.21679012660516L181.80427725694446,71.63677862141765L181.81705989583332,71.8551921728506L181.85061432291667,71.895728940074L182.17337595486111,75.54050554586259L182.4418113715278,76.22890560024483L182.5296920138889,73.81597972378327L183.09212812500002,75.65680374336085L183.43086805555555,73.46266179147106L184.3096744791667,72.63896071124628L184.7730451388889,70.3244559722023L184.85453446180557,71.08791221968504L185.48727508680554,66.37678142272011L185.50325338541668,66.27550067181389L185.5192316840278,64.71626631217924L186.0385263888889,64.6958961509439L186.82306085069445,63.416514963293594L186.9173328125,62.57848852343071L187.80572621527776,58.55578629587659L187.81531319444443,62.11591495934414L188.0549876736111,62.94460579378827L188.11890086805556,64.18602483990935L188.4864017361111,61.853489903945615L188.58866284722222,59.31754848782191L189.1303271701389,58.479847274511314L189.71673072916664,60.35063563743405L189.99954661458332,59.84390410973316L190.12897083333334,58.63475155674901L190.3271017361111,60.1318168431403L190.8288203125,60.61772646952055L191.1164296875,58.646488154439595L191.29219097222222,60.64169971084556L191.40723472222223,60.72251982650734L191.6740723090278,61.57555735044987L192.14543211805557,59.24130031936082L192.29722595486112,58.69557564616194L192.48097638888888,57.402686296788076L192.76059661458333,59.66411177807285L192.77337925347223,55.2684670668437L193.09454305555553,54.86369387646985L193.33741319444445,55.294636780427396L193.4940005208333,55.40235025007462L194.25936102430555,53.50589878640842L195.3283092013889,53.59495972639051L195.47371171875,55.126748563107014L196.08248489583332,59.0628673196824L196.14160460069445,56.657606755445784L196.63213836805556,59.47854132599477L196.6545079861111,59.85365888650594L196.70563854166664,57.59469533190358L197.05236762152776,56.158862653687606L197.14024826388888,57.097533501303474L197.49336866319445,57.60039510078208L197.98070677083334,63.765237060469246L198.03183732638888,65.70419905446336L198.03822864583333,70.18632625085984L198.16925069444443,73.84105711415225L198.22038125,74.967872904855L198.91863289930555,76.16691692473118L199.13433993055554,78.6060592457478L199.46988420138888,76.30829463835776L199.74790659722223,79.01270405574193L199.81980894097222,73.11284970617243L200.1745271701389,77.71895982370346L200.2656034722222,82.40347816694936L200.8983440972222,82.65975735471507L201.07090972222224,82.02909304919267L201.26584496527778,82.30438764769742L202.3299996527778,78.89939395225481L202.33798880208334,71.44582955317107L202.41947812499998,72.384259095539L203.5139915798611,67.56691909368703L203.95818828125,66.82867418348495L204.22183020833333,66.54663632827281L204.375221875,64.41633406969096L204.64365729166667,61.32792544181457L204.67721171875,57.815505265088746L204.75710321180557,55.65776906814418L204.84658168402777,55.41909325906832L204.99997335069446,54.873615046350096L205.37546336805556,53.95297584599186L205.93470381944445,53.33019459850422L206.16319348958334,52.08158266819345L206.35653090277776,54.73162005546152L206.54507482638888,51.93686976054964L206.86783645833336,47.28320140178431L207.13946753472223,47.43764811379785L207.20178289930556,49.54167977736964L207.2976526909722,50.6431896846036L207.3647615451389,51.10295926530762L207.4973814236111,51.75092328645732L207.67793619791667,49.89703124460166L208.89548255208334,48.61373011039737L209.07284166666668,47.7431812480566L209.32849444444446,48.94056783974304L209.667234375,49.59865888566402L209.69279965277778,50.164479422307494L209.76150633680555,48.4020967442936L209.90690885416666,47.60614441021252L210.0379309027778,48.00351619158204L210.06988750000002,48.11120062404012L210.3127576388889,46.74774310169681L210.53485598958332,50.817282224654434L210.59078003472223,48.04957388024721L211.24429244791668,48.05838069178466L211.59102152777777,46.23332386961627L211.69807612847225,46.747380685406114L212.34200156249997,46.1909284112437L212.3435993923611,45.27376159220074L212.3611755208333,44.62289331895681L212.36437118055557,45.22799735501047L212.56889340277777,46.425775685733555L212.78300260416668,45.42472677507649L213.1313295138889,45.548188337773155L213.4349171875,43.5405039117548L213.61067847222222,42.074415983416515L213.8471572916667,43.02510413550445L213.92864661458333,43.76648293584813L214.05327734374998,44.342048852417975L214.20347335069442,45.32096794781441L214.6444743923611,42.499058041415935L214.6844201388889,43.008355279395005L214.69240928819443,44.58109271309155L215.0407361979167,43.442973809673134L215.2053126736111,40.628057013076614L215.24685624999998,43.484788753300506L215.3171607638889,43.19752097925303L215.44338932291666,44.211864860279064L215.50890034722224,45.75575527980382L215.58719401041668,45.21379407697319L215.60477013888888,44.395833264365734L215.6191506076389,44.49840904952853L215.95469487847222,44.74097724789894L216.5107396701389,43.87077953055754L216.51713098958334,42.9564449910618L217.1466759548611,41.30159426736435L217.2329587673611,40.49976337860042L217.29207847222222,40.55167620897845L217.54453559027777,41.46782390720526L217.56850303819445,43.003080707959526L217.6499923611111,42.79787115204846L218.04146067708334,42.87588178213815L218.88351701388888,43.747347251101075L218.90588663194444,42.399658350660616L219.23503958333333,39.247806374032734L219.32292022569445,38.77470655169239L219.68562760416668,39.07414211283361L219.71279071180555,39.16329208588198L219.76711692708332,39.508429796983734L219.8613888888889,40.469773787281156L220.00040008680554,38.2809551814596L220.43820546875,38.60692538160302L220.4573794270833,41.175916592598185L220.83446727430555,41.560777228286184L221.23871822916666,40.35356860969898L221.85548055555557,38.66378889309212L221.98490477430556,39.047818790400726L222.37477526041667,37.37749809242226L222.37637309027778,37.76314658272611L222.667178125,38.64822885872658L222.74227612847224,40.1447327697814L222.7982001736111,38.68933966186884L222.84453723958333,39.214001524394035L223.09379869791664,38.734310005545524L223.11776614583334,38.70797236696367L223.33347317708333,35.83603342017818L223.4421256076389,35.098438233925094L223.45490824652776,35.7923015767187L223.60350642361112,38.1093582187585L223.6146912326389,38.35311493125508L223.96621380208333,39.38436895875304L224.05569227430556,39.82209864797909L224.19949696180558,38.10354327969654L224.60534574652777,38.72172824054522L225.0383576388889,37.90593467159985L225.6567177951389,38.231060802959945L226.33419765625,37.32994329995776L226.57227430555557,39.59512507088374L226.77519869791666,36.10684776980298L227.0564167534722,36.30683593460904L227.28330859375,35.069158378947236L227.6444181423611,34.21592684555017L227.70353784722224,37.64626065278466L227.9751689236111,36.345483664398074L228.1029953125,37.26461974409338L228.57755078124998,39.19388548281967L228.81722526041665,38.621672198782704L228.82681223958332,38.88175331926962L229.16395434027777,38.61541562792539L229.17354131944444,37.84214710402799L229.30456336805554,38.63528826241679L229.51867256944445,37.803786593813726L229.66407508680555,37.82784013810641L229.96926059027777,36.8265336283184L229.98683671875,36.51739744971832L230.50453359375,35.66816574255827L230.65952309027776,35.61118353644406L230.6802948784722,37.18608512186643L230.9215671875,36.04926470948351L231.0382087673611,35.25654746205373L231.41529661458333,34.62000802268679L232.28771171875,35.01245935906664L232.59129939236112,36.897248342712714L233.19687690972222,39.24499673290035L233.32949678819443,38.61211167610384L233.52443203124997,36.72385791475321L233.82322621527777,36.687098839761006L234.13959652777777,36.40356612203843L234.55023880208333,37.037991945950324L234.87140260416666,37.73040880393384L234.9480984375,36.949097555087576L234.99603333333334,34.95167444214346L235.12545755208333,36.197027392558795L235.74541553819446,35.88324484462618L235.95473125,35.99165145223026L236.26790590277778,34.26658178042905L236.43727586805556,35.12222179553015L236.92141831597223,32.357083077318094L237.8401704861111,34.25811348275448L237.90727934027777,34.312595362379966L237.9392359375,34.988920853791626L238.20128003472223,34.18789796682043L238.6326940972222,34.029102416455885L239.15838012152778,31.46990463169172L239.67288133680555,30.728874597196864L239.90296883680557,32.7481770310454L239.93172977430555,34.15083803680906L240.04677352430554,34.097377822085434L240.07713229166666,34.18598351143308L240.24330659722222,35.11409010685986L240.55648125000002,33.20703360957046L241.03583020833332,34.969220165742286L241.06938463541664,34.44761164489992L241.5758967013889,34.184930623303586L242.00731076388888,31.663969737618515L242.109571875,33.08798411529838L242.57613819444444,34.16364274190627L242.57773602430555,33.80335609968924L242.7550951388889,33.19496820526808L243.08744374999998,33.12158319588812L243.23444409722222,32.05175673571469L243.48210772569442,31.31934949597428L243.57158619791667,31.95598469758457L243.6323037326389,31.915579454914365L243.81126067708334,32.77633630931223L244.58141467013888,30.808756331041877L244.59100164930555,30.30201516226151L244.85783923611112,31.85848182462965L244.96649166666666,31.293895912959584L245.0911223958333,33.56991709323029L245.13266597222224,32.803484346847256L245.41707968749998,32.44419288083563L245.58804748263887,33.636572546683226L245.85328723958332,33.67819352800993L245.88684166666667,32.98913202589685L246.08497256944443,33.03830876099266L246.23037508680557,34.26457616568652L246.81198515625,32.0536888812301L247.15392074652777,30.777440601465287L247.24499704861108,31.530271179061003L247.69878072916666,31.821060434709295L247.98798793402779,30.366329442643746L248.08865121527776,29.493490847404445L248.30435824652778,30.97109450844266L248.51527178819444,30.43964534142924L248.67505477430555,30.49287811394845L249.02178385416667,33.92402232291451L249.07131657986113,34.64515203011234L249.26305616319442,31.67862530897648L249.56664383680555,33.29791382174952L249.57782864583334,32.69056647486789L250.34318914930557,31.109283066738925L250.4310697916667,31.91039938549787L250.56528749999998,31.656921449480564L250.65636380208335,30.50920968787014L250.73785312500002,31.66098035817663L250.81774461805554,31.064770033087797L251.0542234375,31.93397565621632L251.30668055555554,32.073339939184365L251.6294421875,29.904231236237905L251.73330112847225,32.394186469015466L252.09920416666668,33.77753460868203L252.72874913194443,32.61629349248196L252.78627100694445,31.738526095489163L252.8118362847222,29.331240657293506L253.03393463541667,30.109426212557935L253.12021744791667,30.043326182080193L253.28958741319443,31.71332525470268L253.31994618055555,32.25271106191252L253.6427078125,31.07787663714751L253.7034253472222,33.07826007319761L253.79450164930557,31.673774225736736L254.04855659722224,30.85119635362389L254.11406762152777,29.69389963035613L254.1923612847222,29.91469205094097L254.94014565972222,30.027053866928213L255.17023315972222,30.496743683793312L255.45944036458334,32.72958030118505L255.49299479166666,33.46587318071104L255.86369131944443,33.73668299933573L256.09697447916665,33.436555254146896L256.8990850694444,32.93466042521541L257.56538012152777,31.85914852785652L257.9296853298611,32.7022504803503L258.13260972222224,31.840384379119257L258.3515124131944,30.508662445653385L258.43939305555557,31.700879285573848L258.60396953125,32.4463798440716L259.1136772569444,32.662373360988425L259.41247144097224,31.102424016593062L259.72245043402773,31.011227137228587L260.0787664930555,31.278327191428048L260.87608359375,29.45739404212955L261.0630296875,31.261197788914103L261.9498252604167,29.970070946075737L261.97219487847224,28.63221302219091L262.01054279513886,30.18279372240545L262.2262498263889,30.781267142534176L262.39402196180555,31.28114664915688L263.00119730902776,32.978972080403196L263.38307864583334,32.31817870278738L263.39586128472223,29.81982767621787L263.41183958333335,29.447180696639805L263.58600303819446,29.756603872529354L263.6051769965278,29.84168959624489L263.622753125,30.003366030474183L263.6435249131944,29.28576961828452L264.38651579861113,30.504529952788886L266.07861762152777,28.96294524440063L266.19046571180553,30.411403510276728L266.2000526909722,30.134001197075122L266.91588046875,29.19318480915416L267.1779245659722,31.132842703674328L267.42718602430557,31.673114713113677L267.58377335069446,32.29898246423184L267.71319756944445,31.538082660357276L267.7723172743056,29.844554141668937L267.96245902777775,28.707755212274094L268.23888359375,27.955278127364437L268.66390633680555,28.207769149145946L268.67668897569445,28.711252398578495L269.1065052083333,30.05925143914709L269.2151576388889,32.014528136215546L269.2790708333333,30.71371688172934L269.54431059027775,31.994877856310325L270.4406931423611,32.260733531968015L270.64681319444446,32.0280310282717L270.80340052083335,31.828068616963037L271.0894120659722,31.335988897450534L271.2204341145833,32.03636606574304L271.60391328125,29.811649184900375L271.72694618055556,28.295796329122027L272.50349149305555,29.739580070200503L272.5674046875,29.28840713302938L273.09948203125,31.350885188908563L273.17777569444445,33.332576567890584L273.3024064236111,32.731477758916185L273.92715789930554,31.08354574625878L274.17162586805557,31.874843356846185L274.2387347222222,31.183031014107712L274.51196362847224,31.713284517555508L274.5838659722222,29.88933434689696L274.6222138888889,30.52473697177453L274.93379071180556,31.921717183064686L275.10475850694445,30.306041673475164L275.702346875,29.417090913175997L276.1321631076389,30.78445909336014L276.43575078124996,30.97130045601608L276.4485334201389,29.77601890997329L276.4740986979167,30.77856589143849L276.8128386284722,30.414639534863113L277.02055651041667,29.683385993645146L277.64850364583333,29.30497477800526L277.95209131944443,28.63542804862132L277.9760587673611,31.934609101900065L278.0974938368056,32.6369018247764L278.1885701388889,31.771004731229453L278.19655928819446,28.224364202374062L278.21573324652775,25.090698066878957L278.22372239583336,29.12390747649104L278.22691805555553,29.602867213167343L278.2285158854167,28.331436236991323L278.23330937500003,28.56420265128571L278.2349072048611,28.100453408953257L278.2492876736111,26.736067499917425L278.25887465277776,27.15442459085952L278.2652659722222,30.673904754515746L278.27325512152777,29.83894512543671L278.27645078125,29.54916252980746L278.2796464409722,30.833531608793578L278.28284210069444,30.49790305618521L278.28603776041666,28.87851456098383L278.29083125,29.334949645681206L278.2924290798611,30.60443569649965L278.2940269097222,31.366127326990693L278.29882039930555,29.57041503255803L278.30041822916667,29.951226292262078L278.3020160590278,29.616531229902705L278.3036138888889,28.59105510157798L278.3084073784722,29.811138742764967L278.31000520833334,30.72924006384082L278.31160303819445,30.97839631103176L278.3163965277778,31.369253695709972L278.3179943576389,30.678540853789627L278.3211900173611,32.29559042136469L278.32278784722223,31.636615616455202L278.3291791666667,28.194014824418588L278.3323748263889,28.109647531014758L278.33397265625,27.50590215497249L278.3355704861111,29.205302656619864L278.34196180555557,28.304090684881004L278.3451574652778,28.497511229110415L278.348353125,29.126461282920786L278.35314661458335,25.853206315207018L278.36752708333336,26.97669651639694L278.37232057291664,29.15931336438365L278.37551623263886,29.875531200448364L278.37871189236114,28.84702326572355L278.3819075520833,28.420998050343258L278.3851032118056,27.622314739296854L278.3898967013889,30.1903206617599L278.3994836805556,29.90078330614685L278.405875,28.520242710960844L278.40907065972226,27.61146380839466L278.4138641493056,27.3477873759459L278.42025546875,28.73833151647662L278.42664678819443,31.584021637158713L278.4330381076389,27.679731164113406L278.4394294270833,28.474884153013477L278.44901640625,27.644589582717202L278.45380989583333,26.27146965872123L278.4602012152778,25.90015452250549L278.463396875,28.010547258957843L278.46978819444445,27.607351082647426L278.47138602430556,30.070717467770265L278.48257083333334,29.637941844298524L278.4873643229167,30.43424237930637L278.4889621527778,31.87747724576562L278.49695130208335,30.038134074732113L278.49854913194446,30.362596353930172L278.50014696180557,29.521421448721753L278.5033426215278,31.822568778323955L278.5081361111111,33.02223444881258L278.5161252604167,31.278113396560258L278.52091875,29.075106674299803L278.5225165798611,28.929950368216254L278.52571223958336,29.50660658456613L278.53529921875,29.339702587103318L278.5512775173611,30.647514734080175L278.56246232638887,30.919304294993594L278.5672558159722,29.785048486087078L278.5688536458333,31.76955181892498L278.58003845486115,33.85531063680955L278.5816362847222,29.52523183663118L278.5832341145833,32.25729819288779L278.58483194444443,31.814776643005388L278.58642977430554,32.796309167621445L278.59282109375,31.554887773300123L278.5976145833333,31.14190993670735L278.61519071180555,29.59679368929713L278.61678854166666,31.264383031760076L278.6343646701389,29.891527546328774L278.6359625,31.28031425506998L278.6375603298611,29.257449916678354L278.64075598958334,28.838219950007016L278.64395164930556,27.319522879095103L278.6519407986111,30.35057736382072L278.65673428819446,31.04284641829244L278.65833211805557,28.72275330552091L278.6615277777778,27.98439061967619L278.66312560763885,28.164895735442087L278.67111475694446,27.08649425944708" style="fill: none;" fill="none"></path></g></g></g></g><g opacity="0.2"><g><g><g><path stroke="rgb(255, 112, 67)" stroke-width="2px" d="M33.869199565972224,142.65596590909092L34.10727621527778,141.5497159090909L34.24149392361111,141.47428977272727L34.55626640625,142.85710227272727L34.66971232638889,141.57485795454545L35.27369201388889,140.09147727272727L35.713095225694445,142.45482954545454L35.78339973958333,141.52457386363636L36.341042361111114,141.29829545454544L36.727717187500005,140.87088068181816L36.84595659722223,140.41832386363637L37.606523611111115,141.046875L37.67043680555555,140.51889204545455L37.908513454861115,140.92116477272728L37.914904774305555,140.09147727272727L38.40224288194444,141.3737215909091L38.51568880208333,139.91548295454544L38.611558593750004,141.12230113636363L38.62114557291667,141.046875L38.63712387152778,140.6697443181818L38.67387395833334,141.12230113636363L39.03498350694444,139.86519886363635L39.507941145833335,139.23664772727273L40.645596006944444,138.5578125L41.885511979166665,137.175L42.16673003472222,136.5715909090909L42.203480121527775,136.69730113636365L42.5949484375,135.96818181818182L42.81704678819444,136.3453125L43.13661276041667,136.11903409090908L43.200525954861114,134.93735795454546L43.29799357638889,135.74190340909092L44.04577795138889,133.70539772727273L44.467605034722226,131.81974431818182L44.49796380208333,133.22769886363636L44.64017065972222,133.1271306818182L45.99033689236111,131.6940340909091L46.34345729166667,131.3671875L46.460098871527784,131.64375L46.51282725694444,129.55696022727273L46.851567187499995,126.3387784090909L47.030524131944446,128.67698863636363L47.08964383680556,127.44502840909091L47.271796440972224,125.78565340909091L47.53863402777778,124.72968750000001L47.54023185763889,122.49204545454545L47.708003993055556,120.07840909090909L48.06751571180555,120.83267045454545L48.16977682291667,117.26249999999999L48.17297248263889,117.18707386363636L48.620364843750004,117.26249999999999L48.836071875,118.39389204545455L48.95271345486111,117.13678977272727L49.84110685763889,117.41335227272727L50.62084782986111,115.55284090909092L50.687956684027775,114.44659090909092L50.73109809027778,116.9859375L50.94680512152778,114.72315340909091L51.64026328124999,114.24545454545455L51.65624157986111,115.6534090909091L51.91189435763889,114.47173295454544L52.15636232638889,113.56661931818181L52.31774314236111,113.31519886363637L52.64050477430556,114.19517045454545L52.77152682291667,113.08892045454544L53.05434270833334,113.49119318181818L54.32781310763889,112.38494318181819L54.90782534722222,113.390625L55.07399965277777,112.8877840909091L55.35681553819444,113.29005681818182L55.51659852430555,113.390625L55.58530520833333,113.13920454545455L55.87770807291667,112.91292613636364L56.00713229166667,112.86264204545455L56.13176302083333,112.25923295454545L56.65105772569444,112.66150568181818L57.934115104166665,111.27869318181818L58.662725520833334,111.90724431818182L58.68189947916667,111.47982954545455L59.023835069444445,111.80667613636363L59.03821553819444,110.37357954545455L59.46164045138889,109.77017045454545L59.55111892361111,111.5049715909091L59.584673350694445,110.72556818181818L59.89784800347223,110.59985795454546L60.33085989583333,110.1221590909091L60.35962083333334,110.49928977272727L60.73990434027778,110.52443181818182L60.776654427083336,109.56903409090908L60.86453506944444,110.57471590909091L61.30873177083333,109.92102272727273L62.21470130208333,110.80099431818182L62.36329947916666,110.37357954545455L62.87460503472222,110.95184659090908L64.07297743055555,110.70042613636363L64.44846744791667,109.31761363636363L64.66097881944445,110.85127840909091L64.87029453125,109.09133522727272L65.13553428819444,109.97130681818182L65.39598055555555,109.44332386363637L65.49983949652777,109.97130681818182L65.58132881944444,110.42386363636363L65.9759927951389,110.0215909090909L66.25880868055555,108.4627840909091L66.79408168402777,109.56903409090908L66.82603828125,109.71988636363636L68.28325911458333,108.78963068181818L68.94795633680556,108.71420454545455L69.17644600694445,109.82045454545455L69.41771831597222,110.17244318181818L69.56312083333333,108.6387784090909L70.15911137152779,109.77017045454545L71.02193949652778,107.98508522727273L71.03631996527778,109.19190340909091L71.29357057291666,109.51875L71.48051666666666,108.4627840909091L71.82085442708333,107.859375L72.72043263888888,108.6387784090909L72.82748723958333,108.66392045454545L72.90418307291667,107.859375L73.01603116319444,108.81477272727273L73.71907630208334,109.21704545454546L73.87726145833334,108.6890625L74.835959375,109.04105113636363L74.95260095486111,108.6387784090909L75.21624288194444,108.6890625L75.47509131944445,108.53821022727273L75.62688515625001,109.54389204545454L76.63511579861111,109.61931818181819L77.05854071180555,111.20326704545455L77.251878125,109.59417613636364L77.55706362847222,108.99076704545455L78.31922847222222,110.77585227272728L78.37994600694445,109.87073863636364L78.69791414930556,107.83423295454546L78.89924071180556,110.17244318181818L78.93758862847221,109.04105113636363L79.25715460069445,108.76448863636364L79.31946996527778,110.1221590909091L79.69336215277778,108.86505681818181L79.80361241319444,108.99076704545455L80.12956970486111,109.56903409090908L80.18070026041667,111.42954545454545L81.04193055555557,109.71988636363636L81.18893090277777,110.14730113636364L81.41422491319445,109.26732954545454L81.43499670138888,110.47414772727272L82.02619375,108.83991477272727L82.46559696180556,110.19758522727273L82.49915138888889,109.59417613636364L82.65733654513889,107.38167613636364L82.85706527777778,105.52116477272727L82.94814157986112,105.6971590909091L83.00885911458334,108.38735795454545L83.10952239583332,108.99076704545455L83.23095746527777,108.48792613636364L83.59526267361112,106.52684659090909L83.65278454861111,108.38735795454545L83.84132847222222,108.08565340909091L83.90843732638888,107.98508522727273L84.63704774305556,107.40681818181818L84.73451536458334,106.37599431818182L85.30174496527778,105.32002840909091L85.3928212673611,104.61605113636364L85.79227873263888,107.00454545454545L86.4266171875,105.57144886363636L86.49212821180555,106.09943181818181L87.34536935763889,104.2640625L88.00367526041667,105.52116477272727L88.06119713541666,106.22514204545455L88.24814322916667,105.32002840909091L88.32963255208332,105.82286931818182L88.34241519097222,104.64119318181818L88.43668715277776,104.16349431818182L88.82176414930555,105.9737215909091L89.05824296875,104.8171875L89.28353697916667,105.19431818181818L89.69417925347221,103.9875L89.90189713541666,103.56008522727272L90.21347395833332,103.56008522727272L90.58736614583333,105.6971590909091L90.70081206597222,105.04346590909091L90.84142109375,102.57954545454545L90.89894296875,105.19431818181818L90.95966050347222,101.97613636363636L91.02197586805556,105.3703125L91.28082430555556,106.25028409090909L91.52689010416665,102.57954545454545L91.55565104166668,105.47088068181819L91.93593454861112,103.63551136363637L91.95830416666666,102.17727272727272L92.6549579861111,100.86988636363637L92.88025199652778,102.00127840909092L93.15827439236111,101.90071022727273L93.46505772569445,102.42869318181818L93.57211232638889,102.02642045454546L93.72071050347222,102.95667613636364L94.20325512152777,101.09616477272728L94.49885364583334,101.7247159090909L94.74012595486111,101.7247159090909L94.96701779513889,101.85042613636364L95.00856137152778,103.2080965909091L95.06448541666667,101.32244318181819L95.41760581597222,101.7247159090909L96.02478116319445,104.33948863636364L96.1206509548611,101.4481534090909L96.12704227430557,104.11321022727273L96.5632498263889,104.540625L96.85085920138889,102.27784090909091L96.86843532986111,103.28352272727273L97.1528490451389,102.42869318181818L97.17841432291667,102.65497159090908L97.19119696180556,102.0515625L97.4116974826389,103.40923295454546L97.70410034722222,99.31107954545455L98.01248151041666,100.0653409090909L98.38956935763888,105.24460227272728L98.67078741319445,104.23892045454545L98.81778776041668,104.64119318181818L98.8513421875,104.11321022727273L98.90407057291667,104.44005681818182L98.99994036458334,105.8731534090909L99.30672369791667,103.40923295454546L99.6566484375,101.17159090909091L99.90111640625,102.40355113636363L100.05131241319445,102.88125L100.29737821180557,103.83664772727273L100.37407404513888,101.7247159090909L100.51787873263889,99.76363636363637L100.52746571180555,101.5487215909091L100.58658541666667,102.90639204545455L100.59137890625,103.23323863636364L100.76234670138889,102.25269886363637L101.24329348958332,105.62173295454545L101.44462005208334,106.30056818181818L101.53090286458333,104.56576704545455L101.96071909722222,104.3143465909091L102.1876109375,106.40113636363637L102.25791545138888,105.06860795454546L102.51676388888889,107.75880681818182L102.57109010416667,105.16917613636363L102.87947126736111,107.40681818181818L103.23259166666666,106.60227272727273L103.3955703125,104.94289772727272L103.53937499999999,104.18863636363636L103.91646284722223,104.61605113636364L103.94682161458333,105.5965909090909L104.11938723958333,106.02400568181818L104.2008765625,104.8171875L104.45493151041667,102.20241477272727L104.94386744791667,103.2080965909091L105.18194409722221,101.14644886363637L105.26023776041667,102.0515625L106.95393741319444,101.85042613636364L107.1920140625,101.7247159090909L107.19840538194445,99.23565340909092L107.5643084201389,101.62414772727273L107.62662378472223,104.8171875L108.04046171875,97.55113636363636L108.22900564236112,98.7830965909091L108.48785407986112,97.60142045454545L108.72752855902777,101.04588068181818L108.90169201388889,99.66306818181818L108.93684427083332,100.01505681818182L109.30274730902778,99.63792613636363L109.40021493055555,99.18536931818181L109.75812881944444,97.47571022727273L110.34453237847222,94.13181818181818L110.34613020833334,98.10426136363637L110.39406510416667,99.23565340909092L110.40045642361112,95.33863636363637L110.68007664930555,99.26079545454546L110.95330555555556,96.41974431818181L111.10509939236111,97.22428977272727L111.40549140625001,99.66306818181818L111.65635069444446,98.9590909090909L111.71866605902778,95.99232954545455L111.73943784722222,95.43920454545454L112.61664644097223,94.3078125L112.68695095486112,95.11235795454546L112.85152743055555,93.478125L113.24778923611112,97.12372159090908L113.43952881944445,94.96150568181818L114.18411753472222,95.76605113636364L114.41740069444445,92.17073863636364L114.74815147569444,93.95582386363637L114.80247769097222,93.98096590909091L114.80567335069443,94.9112215909091L115.01978255208333,100.115625L115.04375,94.6346590909091L115.38248993055556,94.03125L115.72762118055556,96.2940340909091L116.01682838541666,93.02556818181819L116.04079583333332,96.14318181818182L116.21176362847221,94.9112215909091L116.31402473958333,97.77741477272727L116.39870972222222,97.12372159090908L116.41628585069444,96.72144886363637L116.71667786458333,94.38323863636364L116.81734114583334,96.06775568181818L116.86687387152779,93.60383522727273L117.17365720486112,95.28835227272727L117.24396171875,92.6484375L118.01411571180556,95.46434659090909L118.65164982638889,100.4424715909091L118.67561727430555,95.48948863636363L118.85617204861111,95.38892045454546L118.85936770833334,99.36136363636363L119.10223784722221,96.2940340909091L119.24124904513889,92.95014204545454L119.45695607638889,97.32485795454545L119.65668480902778,100.04019886363636L119.97145729166667,95.9671875L120.5067302951389,100.0653409090909L120.59940442708333,99.58764204545454L120.92855737847222,103.1578125L121.25771032986111,98.6825284090909L121.41749331597222,100.1659090909091L121.52934140625,101.62414772727273L121.66835260416666,99.0596590909091L122.22759305555556,95.38892045454546L123.04408411458334,98.02883522727272L123.1830953125,94.38323863636364L123.22304105902778,95.08721590909092L123.27257378472223,94.83579545454545L123.73754227430555,96.39460227272727L123.91010789930554,98.40596590909091L124.08107569444444,101.92585227272727L124.22807604166667,96.84715909090909L124.63232699652778,100.97045454545454L124.99343654513889,99.51221590909091L125.14043689236112,98.63224431818182L125.57664444444445,99.36136363636363L125.88822126736112,95.59005681818182L125.94734097222222,97.2997159090909L126.41230946180556,97.09857954545454L126.4171029513889,98.7830965909091L126.93160416666667,103.03210227272727L127.0961806423611,96.31917613636364L127.11855026041667,99.23565340909092L127.49563810763888,101.5487215909091L128.25620512152778,101.29730113636364L128.82343472222223,102.02642045454546L128.9928046875,103.18295454545455L129.2676314236111,101.775L129.28680538194445,103.83664772727273L129.58879522569444,102.70525568181819L129.66868671875,102.17727272727272L129.8396545138889,101.5487215909091L131.67076753472222,101.14644886363637L131.8561157986111,98.1796875L132.00950746527778,100.99559659090909L132.03667057291668,100.76931818181818L132.11815989583332,96.54545454545455L132.44571501736112,98.55681818181819L132.44891067708335,99.31107954545455L132.48406293402778,97.45056818181818L134.23049097222224,97.87798295454546L134.4605784722222,96.5203125L134.55325260416666,98.1796875L134.60598098958334,96.84715909090909L135.13965616319445,97.77741477272727L135.2067650173611,98.07911931818182L135.45283081597222,101.29730113636364L135.5774615451389,95.71576704545454L135.62859210069445,99.21051136363636L135.92898411458333,95.64034090909091L136.0983540798611,93.32727272727273L136.29169149305557,95.38892045454546L136.3396263888889,96.39460227272727L136.55213776041666,98.35568181818182L136.97875833333333,94.73522727272727L137.12416085069444,93.07585227272727L137.88952135416667,93.30213068181818L138.33371805555555,98.20482954545454L138.6724579861111,93.4278409090909L138.75234947916667,95.38892045454546L138.800284375,97.70198863636364L138.93130642361112,96.14318181818182L139.1326329861111,98.7830965909091L139.43142717013887,97.95340909090909L139.68867777777777,97.27457386363636L139.82609114583335,99.43678977272727L140.4412556423611,97.14886363636364L140.53233194444445,97.2997159090909L140.59464730902778,96.64602272727272L140.82793046875,95.61519886363637L141.17625737847223,95.56491477272728L141.44469279513888,97.42542613636364L141.53097560763888,96.62088068181818L141.62684539930555,94.73522727272727L142.16052057291668,96.21860795454545L142.58234765625,95.31349431818182L142.8667613715278,95.23806818181818L143.17354470486111,97.4002840909091L143.78711137152777,94.54666193181818L143.8062853298611,94.10667613636363L143.9165355902778,92.97528409090908L144.05714461805556,92.79928977272728L144.74740711805558,92.39701704545455L144.87203784722223,91.59247159090908L145.40411519097222,90.68735795454545L145.55111553819447,91.59247159090908L145.80836614583333,93.50326704545455L145.81315963541667,92.42215909090909L145.95057300347224,98.12940340909091L146.79742282986112,94.55923295454545L147.04828211805557,97.75227272727273L147.33589149305558,92.47244318181818L147.53562022569446,90.18451704545454L147.68262057291665,95.23806818181818L147.7177728298611,92.89985795454545L147.73694678819444,94.35809659090908L147.75931640625,93.98096590909091L148.17634999999999,90.91363636363636L148.5949814236111,92.97528409090908L149.05515642361112,90.18451704545454L150.10972413194443,90.61193181818182L150.31903984374998,89.40511363636364L150.66417109375,97.17400568181819L150.95497612847223,100.3419034090909L151.05244375,97.37514204545455L151.34804227430556,102.50411931818182L151.38958585069446,103.81150568181818L151.40556414930558,102.88125L151.7698693576389,101.09616477272728L151.7874454861111,97.6265625L151.89450008680555,96.87230113636363L152.22365303819444,107.10511363636364L152.8516001736111,104.13835227272727L153.97327673611113,98.7830965909091L154.0020376736111,100.61846590909092L154.03079861111112,86.71491477272727L154.34077760416665,86.81548295454546L154.52452803819446,87.09204545454546L155.49920425347224,91.29076704545454L155.5711065972222,88.24857954545453L155.65419375,90.10909090909091L155.8683029513889,86.13664772727273L155.941803125,92.49758522727272L156.02489027777779,87.9971590909091L156.13194487847224,82.28991477272729L156.29172786458332,84.04985795454546L156.51861970486112,82.13906250000001L157.02513177083335,81.91278409090908L157.44216536458333,70.0205965909091L157.67544852430555,75.65241477272727L158.65651605902778,75.42613636363636L158.67569001736112,68.28579545454545L159.42667005208332,71.1268465909091L159.91880164930555,69.81946022727271L159.97472569444443,66.57613636363635L160.48283559027777,76.6580965909091L160.68096649305556,67.60696022727272L161.00692378472223,68.41150568181817L161.44952265625,67.1544034090909L161.52621848958333,59.36036931818181L161.54219678819445,70.246875L161.55178376736112,69.66860795454545L161.87774105902778,69.140625L162.02474140625,65.67102272727271L162.07587196180555,69.3669034090909L162.82205850694444,70.2971590909091L163.45639696180555,71.65482954545453L163.53788628472222,69.66860795454545L163.93255026041666,73.81704545454545L164.30804027777776,79.4237215909091L164.44066015625,67.85838068181819L165.27632517361113,73.08792613636365L165.80041336805556,74.87301136363635L165.80840251736112,69.06519886363637L165.86912005208333,74.54616477272727L166.42037135416666,70.8L166.69040460069445,63.70994318181819L167.17774270833334,67.68238636363637L167.27521032986112,63.835653409090895L167.87439652777778,57.751278409090915L168.56306119791665,46.11051136363636L168.63336571180557,54.65880681818183L169.00406223958333,60.03920454545455L169.49140034722222,49.454403409090915L169.78220538194444,48.951562499999994L170.04265164930555,41.28323863636365L170.17686935763888,44.19971590909091L170.18805416666666,56.89644886363635L170.7121423611111,51.21434659090909L170.91666458333336,47.66931818181817L171.46791588541666,47.49332386363636L171.7043947048611,43.01803977272726L171.94886267361113,31.125852272727286L171.96484097222222,43.822585227272725L171.96963446180553,41.96207386363636L172.47454869791667,40.654687499999994L172.75896241319447,38.693607954545456L172.82926692708332,55.38792613636363L173.15043072916666,53.35142045454545L173.40608350694444,55.36278409090909L173.7703887152778,49.93210227272728L174.0324328125,53.57769886363637L174.48781432291668,47.015625L174.49899913194446,46.13565340909091L174.6092493923611,46.915056818181824L175.12375060763887,55.438210227272734L175.269153125,58.27926136363635L175.4976427951389,60.84375L175.83318706597223,51.11377840909091L175.89390460069444,53.72855113636365L176.51226475694443,62.251704545454544L176.70400434027778,66.9784090909091L177.23608168402777,62.352272727272734L177.4581800347222,60.69289772727272L177.47575616319446,65.11789772727273L177.56523463541666,70.49829545454546L177.63553914930554,66.77727272727273L177.8017134548611,66.57613636363635L177.95830078125002,66.04815340909092L178.67732421875,63.45852272727272L178.69649817708333,68.41150568181817L179.31326050347224,67.20468749999999L179.33083663194444,69.97031249999999L179.4570651909722,68.88920454545453L179.50180442708333,62.80482954545455L180.1585125,69.49261363636363L180.51003506944443,70.87542613636363L180.7640900173611,72.63536931818183L180.906296875,71.50397727272727L181.07247118055557,67.7578125L181.50068958333333,71.10170454545455L181.6572769097222,70.246875L181.80427725694446,73.76676136363636L181.81705989583332,72.1828125L181.85061432291667,71.95653409090909L182.17337595486111,81.00767045454545L182.4418113715278,77.26150568181818L182.5296920138889,70.19659090909092L183.09212812500002,78.41803977272727L183.43086805555555,70.17144886363637L184.3096744791667,71.4034090909091L184.7730451388889,66.85269886363636L184.85453446180557,72.23309659090908L185.48727508680554,59.31008522727272L185.50325338541668,66.12357954545453L185.5192316840278,62.37741477272728L186.0385263888889,64.66534090909092L186.82306085069445,61.49744318181817L186.9173328125,61.32144886363636L187.80572621527776,52.521732954545456L187.81531319444443,67.45610795454546L188.0549876736111,64.18764204545455L188.11890086805556,66.04815340909092L188.4864017361111,58.3546875L188.58866284722222,55.51363636363635L189.1303271701389,57.22329545454545L189.71673072916664,63.15681818181818L189.99954661458332,59.08380681818183L190.12897083333334,56.821022727272734L190.3271017361111,62.37741477272728L190.8288203125,61.34659090909091L191.1164296875,55.68963068181817L191.29219097222222,63.634517045454544L191.40723472222223,60.84375L191.6740723090278,62.85511363636364L192.14543211805557,55.739914772727275L192.29722595486112,57.87698863636365L192.48097638888888,55.46335227272728L192.76059661458333,63.05624999999999L192.77337925347223,48.67500000000001L193.09454305555553,54.256534090909085L193.33741319444445,55.94105113636364L193.4940005208333,55.56392045454547L194.25936102430555,50.66122159090909L195.3283092013889,53.72855113636365L195.47371171875,57.42443181818183L196.08248489583332,64.96704545454546L196.14160460069445,53.04971590909091L196.63213836805556,63.70994318181819L196.6545079861111,60.416335227272725L196.70563854166664,54.20625L197.05236762152776,54.00511363636363L197.14024826388888,58.505539772727275L197.49336866319445,58.3546875L197.98070677083334,73.0125L198.03183732638888,68.61264204545455L198.03822864583333,76.90951704545455L198.16925069444443,79.3231534090909L198.22038125,76.6580965909091L198.91863289930555,77.96548295454545L199.13433993055554,82.26477272727271L199.46988420138888,72.86164772727273L199.74790659722223,83.06931818181819L199.81980894097222,64.26306818181817L200.1745271701389,84.628125L200.2656034722222,89.43025568181818L200.8983440972222,83.04417613636363L201.07090972222224,81.0830965909091L201.26584496527778,82.71732954545453L202.3299996527778,73.7919034090909L202.33798880208334,60.26548295454545L202.41947812499998,73.7919034090909L203.5139915798611,60.34090909090909L203.95818828125,65.72130681818183L204.22183020833333,66.12357954545453L204.375221875,61.22088068181817L204.64365729166667,56.6953125L204.67721171875,52.546875L204.75710321180557,52.421164772727266L204.84658168402777,55.06107954545453L204.99997335069446,54.055397727272734L205.37546336805556,52.572017045454544L205.93470381944445,52.39602272727272L206.16319348958334,50.208664772727275L206.35653090277776,58.70667613636364L206.54507482638888,47.74474431818183L206.86783645833336,40.30269886363635L207.13946753472223,47.66931818181817L207.20178289930556,52.69772727272728L207.2976526909722,52.29545454545453L207.3647615451389,51.79261363636364L207.4973814236111,52.72286931818182L207.67793619791667,47.116193181818176L208.89548255208334,46.6887784090909L209.07284166666668,46.43735795454546L209.32849444444446,50.736647727272725L209.667234375,50.58579545454545L209.69279965277778,51.01321022727272L209.76150633680555,45.75852272727272L209.90690885416666,46.41221590909092L210.0379309027778,48.59957386363635L210.06988750000002,48.27272727272728L210.3127576388889,44.70255681818182L210.53485598958332,56.921590909090895L210.59078003472223,43.89801136363636L211.24429244791668,48.0715909090909L211.59102152777777,43.495738636363626L211.69807612847225,47.51846590909091L212.34200156249997,45.35624999999999L212.3435993923611,43.89801136363636L212.3611755208333,43.64659090909092L212.36437118055557,46.13565340909091L212.56889340277777,48.22244318181819L212.78300260416668,43.9231534090909L213.1313295138889,45.733380681818176L213.4349171875,40.528977272727275L213.61067847222222,39.875284090909105L213.8471572916667,44.45113636363635L213.92864661458333,44.878551136363626L214.05327734374998,45.205397727272725L214.20347335069442,46.789346590909105L214.6444743923611,38.26619318181818L214.6844201388889,43.77230113636364L214.69240928819443,46.94019886363637L215.0407361979167,41.73579545454547L215.2053126736111,36.40568181818182L215.24685624999998,47.769886363636374L215.3171607638889,42.766619318181824L215.44338932291666,45.733380681818176L215.50890034722224,48.0715909090909L215.58719401041668,44.40085227272726L215.60477013888888,43.168892045454555L215.6191506076389,44.65227272727273L215.95469487847222,45.10482954545455L216.5107396701389,42.565482954545445L216.51713098958334,41.584943181818176L217.1466759548611,38.819318181818176L217.2329587673611,39.29701704545454L217.29207847222222,40.62954545454545L217.54453559027777,42.842045454545456L217.56850303819445,45.3059659090909L217.6499923611111,42.49005681818181L218.04146067708334,42.99289772727272L218.88351701388888,45.05454545454546L218.90588663194444,40.37812500000001L219.23503958333333,34.52002840909091L219.32292022569445,38.06505681818183L219.68562760416668,39.52329545454546L219.71279071180555,39.29701704545454L219.76711692708332,40.02613636363637L219.8613888888889,41.911789772727275L220.00040008680554,34.997727272727275L220.43820546875,39.09588068181819L220.4573794270833,45.02940340909092L220.83446727430555,42.13806818181817L221.23871822916666,38.54275568181819L221.85548055555557,36.12911931818181L221.98490477430556,39.62386363636364L222.37477526041667,34.872017045454555L222.37637309027778,38.34161931818181L222.667178125,39.97585227272728L222.74227612847224,42.38948863636364L222.7982001736111,36.506249999999994L222.84453723958333,40.000994318181824L223.09379869791664,38.014772727272714L223.11776614583334,38.66846590909091L223.33347317708333,31.52812499999999L223.4421256076389,33.99204545454546L223.45490824652776,36.83309659090909L223.60350642361112,41.584943181818176L223.6146912326389,38.71875L223.96621380208333,40.931250000000006L224.05569227430556,40.47869318181819L224.19949696180558,35.525710227272725L224.60534574652777,39.64900568181818L225.0383576388889,36.68224431818183L225.6567177951389,38.71875L226.33419765625,35.978267045454544L226.57227430555557,42.99289772727272L226.77519869791666,30.87443181818182L227.0564167534722,36.60681818181817L227.28330859375,33.212642045454544L227.6444181423611,32.93607954545453L227.70353784722224,42.79176136363637L227.9751689236111,34.39431818181819L228.1029953125,38.64332386363637L228.57755078124998,42.08778409090908L228.81722526041665,37.763352272727275L228.82681223958332,39.271874999999994L229.16395434027777,38.21590909090909L229.17354131944444,36.68224431818183L229.30456336805554,39.82499999999999L229.51867256944445,36.55653409090908L229.66407508680555,37.86392045454545L229.96926059027777,35.324573863636374L229.98683671875,36.053693181818176L230.50453359375,34.39431818181819L230.65952309027776,35.525710227272725L230.6802948784722,39.548437500000006L230.9215671875,34.344034090909105L231.0382087673611,34.06747159090909L231.41529661458333,33.66519886363636L232.28771171875,35.60113636363636L232.59129939236112,39.72443181818181L233.19687690972222,42.766619318181824L233.32949678819443,37.6627840909091L233.52443203124997,33.891477272727286L233.82322621527777,36.631960227272714L234.13959652777777,35.978267045454544L234.55023880208333,37.98963068181817L234.87140260416666,38.76903409090909L234.9480984375,35.77713068181819L234.99603333333334,31.955539772727263L235.12545755208333,38.06505681818183L235.74541553819446,35.41257102272726L235.95473125,36.15426136363635L236.26790590277778,31.67897727272728L236.43727586805556,36.40568181818182L236.92141831597223,28.209374999999994L237.8401704861111,37.109659090909105L237.90727934027777,34.39431818181819L237.9392359375,36.00340909090909L238.20128003472223,32.98636363636365L238.6326940972222,33.79090909090908L239.15838012152778,27.631107954545456L239.67288133680555,29.617329545454538L239.90296883680557,35.77713068181819L239.93172977430555,36.254829545454555L240.04677352430554,34.017187500000006L240.07713229166666,34.31889204545453L240.24330659722222,36.506249999999994L240.55648125000002,30.34644886363637L241.03583020833332,37.61250000000001L241.06938463541664,33.66519886363636L241.5758967013889,33.79090909090908L242.00731076388888,27.882528409090895L242.109571875,35.22400568181817L242.57613819444444,35.77713068181819L242.57773602430555,33.26292613636363L242.7550951388889,32.28238636363636L243.08744374999998,33.01150568181819L243.23444409722222,30.447017045454544L243.48210772569442,30.22073863636365L243.57158619791667,32.91093749999999L243.6323037326389,31.854971590909088L243.81126067708334,34.06747159090909L244.58141467013888,27.85738636363635L244.59100164930555,29.541903409090907L244.85783923611112,34.19318181818181L244.96649166666666,30.447017045454544L245.0911223958333,36.98394886363636L245.13266597222224,31.653835227272737L245.41707968749998,31.905255681818176L245.58804748263887,35.42514204545455L245.85328723958332,33.740624999999994L245.88684166666667,31.955539772727263L246.08497256944443,33.11207386363637L246.23037508680557,36.10397727272726L246.81198515625,28.737357954545445L247.15392074652777,28.863068181818193L247.24499704861108,32.65951704545455L247.69878072916666,32.25724431818182L247.98798793402779,28.18423295454545L248.08865121527776,28.18423295454545L248.30435824652778,33.1875L248.51527178819444,29.642471590909082L248.67505477430555,30.572727272727263L249.02178385416667,39.07073863636364L249.07131657986113,35.726846590909105L249.26305616319442,27.228835227272725L249.56664383680555,35.726846590909105L249.57782864583334,31.779545454545456L250.34318914930557,28.737357954545445L250.4310697916667,33.11207386363637L250.56528749999998,31.27670454545455L250.65636380208335,28.787642045454533L250.73785312500002,33.38863636363635L250.81774461805554,30.170454545454533L251.0542234375,33.23778409090909L251.30668055555554,32.28238636363636L251.6294421875,26.650568181818187L251.73330112847225,36.12911931818181L252.09920416666668,35.852556818181824L252.72874913194443,30.87443181818182L252.78627100694445,30.421875L252.8118362847222,25.720312500000006L253.03393463541667,31.27670454545455L253.12021744791667,29.944176136363637L253.28958741319443,34.21832386363636L253.31994618055555,33.06178977272728L253.6427078125,29.31562500000001L253.7034253472222,36.07883522727272L253.79450164930557,29.56704545454545L254.04855659722224,29.617329545454538L254.11406762152777,27.957954545454555L254.1923612847222,30.245880681818193L254.94014565972222,30.195596590909105L255.17023315972222,31.201278409090918L255.45944036458334,36.07883522727272L255.49299479166666,34.5703125L255.86369131944443,34.142897727272725L256.09697447916665,32.98636363636365L256.8990850694444,32.18181818181819L257.56538012152777,30.245880681818193L257.9296853298611,33.96690340909092L258.13260972222224,30.54758522727272L258.3515124131944,28.51107954545455L258.43939305555557,33.489204545454555L258.60396953125,33.56463068181819L259.1136772569444,32.98636363636365L259.41247144097224,28.76249999999999L259.72245043402773,30.87443181818182L260.0787664930555,31.67897727272728L260.87608359375,26.72599431818182L261.0630296875,33.96690340909092L261.9498252604167,28.033380681818187L261.97219487847224,26.625426136363643L262.01054279513886,32.508664772727286L262.2262498263889,31.67897727272728L262.39402196180555,32.030965909090895L263.00119730902776,35.525710227272725L263.38307864583334,31.326988636363637L263.39586128472223,26.07230113636365L263.41183958333335,28.888210227272737L263.58600303819446,30.22073863636365L263.6051769965278,29.96931818181818L263.622753125,30.245880681818193L263.6435249131944,28.209374999999994L264.38651579861113,32.33267045454545L266.07861762152777,26.650568181818187L266.19046571180553,32.58409090909092L266.2000526909722,29.717897727272714L266.91588046875,27.78196022727272L267.1779245659722,34.04232954545455L267.42718602430557,32.483522727272714L267.58377335069446,33.23778409090909L267.71319756944445,30.396732954545456L267.7723172743056,27.304261363636357L267.96245902777775,27.00255681818183L268.23888359375,26.826562499999994L268.66390633680555,28.58650568181818L268.67668897569445,29.466477272727275L269.1065052083333,32.08125000000001L269.2151576388889,34.94744318181819L269.2790708333333,28.76249999999999L269.54431059027775,33.91661931818183L270.4406931423611,32.65951704545455L270.64681319444446,31.67897727272728L270.80340052083335,31.52812499999999L271.0894120659722,30.597869318181807L271.2204341145833,33.086931818181824L271.60391328125,26.47457386363635L271.72694618055556,26.022017045454533L272.50349149305555,31.905255681818176L272.5674046875,28.611647727272725L273.09948203125,34.44460227272728L273.17777569444445,36.30511363636364L273.3024064236111,31.829829545454544L273.92715789930554,28.611647727272725L274.17162586805557,33.06178977272728L274.2387347222222,30.14531249999999L274.51196362847224,32.508664772727286L274.5838659722222,27.153409090909093L274.6222138888889,31.4778409090909L274.93379071180556,34.017187500000006L275.10475850694445,27.882528409090895L275.702346875,28.083664772727275L276.1321631076389,32.83551136363636L276.43575078124996,31.251562500000006L276.4485334201389,27.9830965909091L276.4740986979167,32.28238636363636L276.8128386284722,29.868750000000006L277.02055651041667,28.58650568181818L277.64850364583333,28.737357954545445L277.95209131944443,27.631107954545456L277.9760587673611,36.88338068181818L278.0974938368056,33.69034090909091L278.1885701388889,30.472159090909088L278.19655928819446,22.904403409090918L278.21573324652775,20.390198863636357L278.22372239583336,35.17372159090908L278.22691805555553,30.321306818181824L278.2285158854167,26.424289772727263L278.23330937500003,28.91335227272728L278.2349072048611,27.404829545454533L278.2492876736111,24.68948863636365L278.25887465277776,27.78196022727272L278.2652659722222,35.953125L278.27325512152777,28.58650568181818L278.27645078125,29.11448863636363L278.2796464409722,32.760085227272725L278.28284210069444,29.994460227272725L278.28603776041666,26.449431818181807L278.29083125,30.01960227272727L278.2924290798611,32.508664772727286L278.2940269097222,32.508664772727286L278.29882039930555,26.876846590909082L278.30041822916667,30.522443181818176L278.3020160590278,29.11448863636363L278.3036138888889,27.052840909090918L278.3084073784722,31.64126420454545L278.31000520833334,32.106392045454555L278.31160303819445,31.35213068181818L278.3163965277778,31.955539772727263L278.3179943576389,29.642471590909082L278.3211900173611,34.72116477272726L278.32278784722223,30.648153409090895L278.3291791666667,23.030113636363637L278.3323748263889,27.9830965909091L278.33397265625,26.6002840909091L278.3355704861111,31.754403409090912L278.34196180555557,26.952272727272714L278.3451574652778,28.787642045454533L278.348353125,30.069886363636357L278.35314661458335,20.94332386363635L278.36752708333336,28.661931818181813L278.37232057291664,32.433238636363626L278.37551623263886,30.94985795454545L278.37871189236114,27.304261363636357L278.3819075520833,27.78196022727272L278.3851032118056,26.424289772727263L278.3898967013889,34.04232954545455L278.3994836805556,29.466477272727275L278.405875,26.449431818181807L278.40907065972226,26.248295454545456L278.4138641493056,26.952272727272714L278.42025546875,30.82414772727273L278.42664678819443,35.852556818181824L278.4330381076389,21.823295454545445L278.4394294270833,29.667613636363626L278.44901640625,26.39914772727272L278.45380989583333,24.211789772727286L278.4602012152778,25.34318181818182L278.463396875,31.176136363636374L278.46978819444445,27.00255681818183L278.47138602430556,33.76576704545454L278.48257083333334,28.988778409090912L278.4873643229167,31.628693181818193L278.4889621527778,34.04232954545455L278.49695130208335,27.279119318181813L278.49854913194446,30.849289772727275L278.50014696180557,28.259659090909082L278.5033426215278,35.274289772727286L278.5081361111111,34.82173295454547L278.5161252604167,28.661931818181813L278.52091875,25.770596590909093L278.5225165798611,28.7122159090909L278.52571223958336,30.371590909090912L278.53529921875,29.089346590909088L278.5512775173611,32.60923295454546L278.56246232638887,31.326988636363637L278.5672558159722,28.083664772727275L278.5688536458333,34.74630681818181L278.58003845486115,36.98394886363636L278.5816362847222,23.030113636363637L278.5832341145833,36.35539772727273L278.58483194444443,31.15099431818183L278.58642977430554,34.268607954545445L278.59282109375,29.69275568181817L278.5976145833333,30.522443181818176L278.61519071180555,27.279119318181813L278.61678854166666,33.76576704545454L278.6343646701389,27.832244318181807L278.6359625,33.36349431818181L278.6375603298611,26.223153409090912L278.64075598958334,28.209374999999994L278.64395164930556,25.041477272727263L278.6519407986111,34.8971590909091L278.65673428819446,32.08125000000001L278.65833211805557,25.242613636363643L278.6615277777778,26.876846590909082L278.66312560763885,28.435653409090918L278.67111475694446,25.468892045454538" style="fill: none;" fill="none"></path></g></g></g></g></g></g><g transform="translate(42, 177)" clip-path="url(#clip_1)"><clipPath id="clip_1"><rect width="287" height="23"></rect></clipPath><g><g><line x1="0" y1="0" x2="0" y2="5" style="visibility: inherit;" fill="rgb(0, 0, 0)" stroke="rgb(204, 204, 204)" stroke-width="1px"></line><line x1="31.95659722222222" y1="0" x2="31.95659722222222" y2="5" style="visibility: inherit;" fill="rgb(0, 0, 0)" stroke="rgb(204, 204, 204)" stroke-width="1px"></line><line x1="63.91319444444444" y1="0" x2="63.91319444444444" y2="5" style="visibility: inherit;" fill="rgb(0, 0, 0)" stroke="rgb(204, 204, 204)" stroke-width="1px"></line><line x1="95.86979166666666" y1="0" x2="95.86979166666666" y2="5" style="visibility: inherit;" fill="rgb(0, 0, 0)" stroke="rgb(204, 204, 204)" stroke-width="1px"></line><line x1="127.82638888888889" y1="0" x2="127.82638888888889" y2="5" style="visibility: inherit;" fill="rgb(0, 0, 0)" stroke="rgb(204, 204, 204)" stroke-width="1px"></line><line x1="159.78298611111111" y1="0" x2="159.78298611111111" y2="5" style="visibility: inherit;" fill="rgb(0, 0, 0)" stroke="rgb(204, 204, 204)" stroke-width="1px"></line><line x1="191.73958333333331" y1="0" x2="191.73958333333331" y2="5" style="visibility: inherit;" fill="rgb(0, 0, 0)" stroke="rgb(204, 204, 204)" stroke-width="1px"></line><line x1="223.69618055555557" y1="0" x2="223.69618055555557" y2="5" style="visibility: inherit;" fill="rgb(0, 0, 0)" stroke="rgb(204, 204, 204)" stroke-width="1px"></line><line x1="255.65277777777777" y1="0" x2="255.65277777777777" y2="5" style="visibility: inherit;" fill="rgb(0, 0, 0)" stroke="rgb(204, 204, 204)" stroke-width="1px"></line><line x1="287.609375" y1="0" x2="287.609375" y2="5" style="visibility: inherit;" fill="rgb(0, 0, 0)" stroke="rgb(204, 204, 204)" stroke-width="1px"></line></g><g transform="translate(0, 8)"><text x="0" y="0" dx="0em" dy="0.95em" style="text-anchor: middle; visibility: hidden; font-family: &quot;Helvetica Neue&quot;, sans-serif; font-size: 12px; font-weight: 200;" fill="rgb(50, 49, 63)" stroke="none" stroke-width="1px">-20k</text><text x="31.95659722222222" y="0" dx="0em" dy="0.95em" style="text-anchor: middle; visibility: inherit; font-family: &quot;Helvetica Neue&quot;, sans-serif; font-size: 12px; font-weight: 200;" fill="rgb(50, 49, 63)" stroke="none" stroke-width="1px">0</text><text x="63.91319444444444" y="0" dx="0em" dy="0.95em" style="text-anchor: middle; visibility: inherit; font-family: &quot;Helvetica Neue&quot;, sans-serif; font-size: 12px; font-weight: 200;" fill="rgb(50, 49, 63)" stroke="none" stroke-width="1px">20k</text><text x="95.86979166666666" y="0" dx="0em" dy="0.95em" style="text-anchor: middle; visibility: inherit; font-family: &quot;Helvetica Neue&quot;, sans-serif; font-size: 12px; font-weight: 200;" fill="rgb(50, 49, 63)" stroke="none" stroke-width="1px">40k</text><text x="127.82638888888889" y="0" dx="0em" dy="0.95em" style="text-anchor: middle; visibility: inherit; font-family: &quot;Helvetica Neue&quot;, sans-serif; font-size: 12px; font-weight: 200;" fill="rgb(50, 49, 63)" stroke="none" stroke-width="1px">60k</text><text x="159.78298611111111" y="0" dx="0em" dy="0.95em" style="text-anchor: middle; visibility: inherit; font-family: &quot;Helvetica Neue&quot;, sans-serif; font-size: 12px; font-weight: 200;" fill="rgb(50, 49, 63)" stroke="none" stroke-width="1px">80k</text><text x="191.73958333333331" y="0" dx="0em" dy="0.95em" style="text-anchor: middle; visibility: inherit; font-family: &quot;Helvetica Neue&quot;, sans-serif; font-size: 12px; font-weight: 200;" fill="rgb(50, 49, 63)" stroke="none" stroke-width="1px">100k</text><text x="223.69618055555557" y="0" dx="0em" dy="0.95em" style="text-anchor: middle; visibility: inherit; font-family: &quot;Helvetica Neue&quot;, sans-serif; font-size: 12px; font-weight: 200;" fill="rgb(50, 49, 63)" stroke="none" stroke-width="1px">120k</text><text x="255.65277777777777" y="0" dx="0em" dy="0.95em" style="text-anchor: middle; visibility: inherit; font-family: &quot;Helvetica Neue&quot;, sans-serif; font-size: 12px; font-weight: 200;" fill="rgb(50, 49, 63)" stroke="none" stroke-width="1px">140k</text><text x="287.609375" y="0" dx="0em" dy="0.95em" style="text-anchor: middle; visibility: hidden; font-family: &quot;Helvetica Neue&quot;, sans-serif; font-size: 12px; font-weight: 200;" fill="rgb(50, 49, 63)" stroke="none" stroke-width="1px">160k</text></g><line x1="0" y1="0" x2="287.609375" y2="0" fill="rgb(0, 0, 0)" stroke="rgb(204, 204, 204)" stroke-width="1px"></line></g></g></g></g></svg>