<svg viewBox="0 0 330 200" xmlns="http://www.w3.org/2000/svg"><g><g><g><g><g><line x1="42.390625" y1="177" x2="37.390625" y2="177" style="visibility: inherit;" fill="rgb(0, 0, 0)" stroke="rgb(204, 204, 204)" stroke-width="1px"></line><line x1="42.390625" y1="163.3846153846154" x2="37.390625" y2="163.3846153846154" style="visibility: inherit;" fill="rgb(0, 0, 0)" stroke="rgb(204, 204, 204)" stroke-width="1px"></line><line x1="42.390625" y1="149.76923076923077" x2="37.390625" y2="149.76923076923077" style="visibility: inherit;" fill="rgb(0, 0, 0)" stroke="rgb(204, 204, 204)" stroke-width="1px"></line><line x1="42.390625" y1="136.15384615384616" x2="37.390625" y2="136.15384615384616" style="visibility: inherit;" fill="rgb(0, 0, 0)" stroke="rgb(204, 204, 204)" stroke-width="1px"></line><line x1="42.390625" y1="122.53846153846153" x2="37.390625" y2="122.53846153846153" style="visibility: inherit;" fill="rgb(0, 0, 0)" stroke="rgb(204, 204, 204)" stroke-width="1px"></line><line x1="42.390625" y1="108.92307692307692" x2="37.390625" y2="108.92307692307692" style="visibility: inherit;" fill="rgb(0, 0, 0)" stroke="rgb(204, 204, 204)" stroke-width="1px"></line><line x1="42.390625" y1="95.3076923076923" x2="37.390625" y2="95.3076923076923" style="visibility: inherit;" fill="rgb(0, 0, 0)" stroke="rgb(204, 204, 204)" stroke-width="1px"></line><line x1="42.390625" y1="81.6923076923077" x2="37.390625" y2="81.6923076923077" style="visibility: inherit;" fill="rgb(0, 0, 0)" stroke="rgb(204, 204, 204)" stroke-width="1px"></line><line x1="42.390625" y1="68.07692307692307" x2="37.390625" y2="68.07692307692307" style="visibility: inherit;" fill="rgb(0, 0, 0)" stroke="rgb(204, 204, 204)" stroke-width="1px"></line><line x1="42.390625" y1="54.46153846153847" x2="37.390625" y2="54.46153846153847" style="visibility: inherit;" fill="rgb(0, 0, 0)" stroke="rgb(204, 204, 204)" stroke-width="1px"></line><line x1="42.390625" y1="40.84615384615384" x2="37.390625" y2="40.84615384615384" style="visibility: inherit;" fill="rgb(0, 0, 0)" stroke="rgb(204, 204, 204)" stroke-width="1px"></line><line x1="42.390625" y1="27.230769230769226" x2="37.390625" y2="27.230769230769226" style="visibility: inherit;" fill="rgb(0, 0, 0)" stroke="rgb(204, 204, 204)" stroke-width="1px"></line><line x1="42.390625" y1="13.615384615384613" x2="37.390625" y2="13.615384615384613" style="visibility: inherit;" fill="rgb(0, 0, 0)" stroke="rgb(204, 204, 204)" stroke-width="1px"></line><line x1="42.390625" y1="0" x2="37.390625" y2="0" style="visibility: inherit;" fill="rgb(0, 0, 0)" stroke="rgb(204, 204, 204)" stroke-width="1px"></line></g><g transform="translate(32.390625, 0)"><text x="0" y="177" dx="0em" dy="0.3em" style="text-anchor: end; visibility: hidden; font-family: &quot;Helvetica Neue&quot;, sans-serif; font-size: 12px; font-weight: 200;" fill="rgb(50, 49, 63)" stroke="none" stroke-width="1px">-10</text><text x="0" y="163.3846153846154" dx="0em" dy="0.3em" style="text-anchor: end; visibility: inherit; font-family: &quot;Helvetica Neue&quot;, sans-serif; font-size: 12px; font-weight: 200;" fill="rgb(50, 49, 63)" stroke="none" stroke-width="1px">0</text><text x="0" y="149.76923076923077" dx="0em" dy="0.3em" style="text-anchor: end; visibility: hidden; font-family: &quot;Helvetica Neue&quot;, sans-serif; font-size: 12px; font-weight: 200;" fill="rgb(50, 49, 63)" stroke="none" stroke-width="1px">10</text><text x="0" y="136.15384615384616" dx="0em" dy="0.3em" style="text-anchor: end; visibility: inherit; font-family: &quot;Helvetica Neue&quot;, sans-serif; font-size: 12px; font-weight: 200;" fill="rgb(50, 49, 63)" stroke="none" stroke-width="1px">20</text><text x="0" y="122.53846153846153" dx="0em" dy="0.3em" style="text-anchor: end; visibility: hidden; font-family: &quot;Helvetica Neue&quot;, sans-serif; font-size: 12px; font-weight: 200;" fill="rgb(50, 49, 63)" stroke="none" stroke-width="1px">30</text><text x="0" y="108.92307692307692" dx="0em" dy="0.3em" style="text-anchor: end; visibility: inherit; font-family: &quot;Helvetica Neue&quot;, sans-serif; font-size: 12px; font-weight: 200;" fill="rgb(50, 49, 63)" stroke="none" stroke-width="1px">40</text><text x="0" y="95.3076923076923" dx="0em" dy="0.3em" style="text-anchor: end; visibility: hidden; font-family: &quot;Helvetica Neue&quot;, sans-serif; font-size: 12px; font-weight: 200;" fill="rgb(50, 49, 63)" stroke="none" stroke-width="1px">50</text><text x="0" y="81.6923076923077" dx="0em" dy="0.3em" style="text-anchor: end; visibility: inherit; font-family: &quot;Helvetica Neue&quot;, sans-serif; font-size: 12px; font-weight: 200;" fill="rgb(50, 49, 63)" stroke="none" stroke-width="1px">60</text><text x="0" y="68.07692307692307" dx="0em" dy="0.3em" style="text-anchor: end; visibility: hidden; font-family: &quot;Helvetica Neue&quot;, sans-serif; font-size: 12px; font-weight: 200;" fill="rgb(50, 49, 63)" stroke="none" stroke-width="1px">70</text><text x="0" y="54.46153846153847" dx="0em" dy="0.3em" style="text-anchor: end; visibility: inherit; font-family: &quot;Helvetica Neue&quot;, sans-serif; font-size: 12px; font-weight: 200;" fill="rgb(50, 49, 63)" stroke="none" stroke-width="1px">80</text><text x="0" y="40.84615384615384" dx="0em" dy="0.3em" style="text-anchor: end; visibility: hidden; font-family: &quot;Helvetica Neue&quot;, sans-serif; font-size: 12px; font-weight: 200;" fill="rgb(50, 49, 63)" stroke="none" stroke-width="1px">90</text><text x="0" y="27.230769230769226" dx="0em" dy="0.3em" style="text-anchor: end; visibility: inherit; font-family: &quot;Helvetica Neue&quot;, sans-serif; font-size: 12px; font-weight: 200;" fill="rgb(50, 49, 63)" stroke="none" stroke-width="1px">100</text><text x="0" y="13.615384615384613" dx="0em" dy="0.3em" style="text-anchor: end; visibility: hidden; font-family: &quot;Helvetica Neue&quot;, sans-serif; font-size: 12px; font-weight: 200;" fill="rgb(50, 49, 63)" stroke="none" stroke-width="1px">110</text><text x="0" y="0" dx="0em" dy="0.3em" style="text-anchor: end; visibility: hidden; font-family: &quot;Helvetica Neue&quot;, sans-serif; font-size: 12px; font-weight: 200;" fill="rgb(50, 49, 63)" stroke="none" stroke-width="1px">120</text></g><line x1="42.390625" y1="0" x2="42.390625" y2="177" fill="rgb(0, 0, 0)" stroke="rgb(204, 204, 204)" stroke-width="1px"></line></g></g><g transform="translate(42, 0)" clip-path="url(#clip_0)"><clipPath id="clip_0"><rect width="287" height="177"></rect></clipPath><g><g><g><line x1="0" y1="0" x2="0" y2="177" fill="rgb(0, 0, 0)" stroke="rgb(60, 60, 60)" stroke-width="1px" opacity="0.25"></line><line x1="28.7609375" y1="0" x2="28.7609375" y2="177" fill="rgb(0, 0, 0)" stroke="rgb(60, 60, 60)" stroke-width="1px" opacity="0.25"></line><line x1="57.521875" y1="0" x2="57.521875" y2="177" fill="rgb(0, 0, 0)" stroke="rgb(60, 60, 60)" stroke-width="1px" opacity="0.25"></line><line x1="86.28281249999999" y1="0" x2="86.28281249999999" y2="177" fill="rgb(0, 0, 0)" stroke="rgb(60, 60, 60)" stroke-width="1px" opacity="0.25"></line><line x1="115.04375" y1="0" x2="115.04375" y2="177" fill="rgb(0, 0, 0)" stroke="rgb(60, 60, 60)" stroke-width="1px" opacity="0.25"></line><line x1="143.8046875" y1="0" x2="143.8046875" y2="177" fill="rgb(0, 0, 0)" stroke="rgb(60, 60, 60)" stroke-width="1px" opacity="0.25"></line><line x1="172.56562499999998" y1="0" x2="172.56562499999998" y2="177" fill="rgb(0, 0, 0)" stroke="rgb(60, 60, 60)" stroke-width="1px" opacity="0.25"></line><line x1="201.3265625" y1="0" x2="201.3265625" y2="177" fill="rgb(0, 0, 0)" stroke="rgb(60, 60, 60)" stroke-width="1px" opacity="0.25"></line><line x1="230.0875" y1="0" x2="230.0875" y2="177" fill="rgb(0, 0, 0)" stroke="rgb(60, 60, 60)" stroke-width="1px" opacity="0.25"></line><line x1="258.8484375" y1="0" x2="258.8484375" y2="177" fill="rgb(0, 0, 0)" stroke="rgb(60, 60, 60)" stroke-width="1px" opacity="0.25"></line><line x1="287.609375" y1="0" x2="287.609375" y2="177" fill="rgb(0, 0, 0)" stroke="rgb(60, 60, 60)" stroke-width="1px" opacity="0.25"></line></g><g><line x1="0" y1="177" x2="287.609375" y2="177" fill="rgb(0, 0, 0)" stroke="rgb(60, 60, 60)" stroke-width="1px" opacity="0.25"></line><line x1="0" y1="163.3846153846154" x2="287.609375" y2="163.3846153846154" fill="rgb(0, 0, 0)" stroke="rgb(60, 60, 60)" stroke-width="1px" opacity="0.25"></line><line x1="0" y1="149.76923076923077" x2="287.609375" y2="149.76923076923077" fill="rgb(0, 0, 0)" stroke="rgb(60, 60, 60)" stroke-width="1px" opacity="0.25"></line><line x1="0" y1="136.15384615384616" x2="287.609375" y2="136.15384615384616" fill="rgb(0, 0, 0)" stroke="rgb(60, 60, 60)" stroke-width="1px" opacity="0.25"></line><line x1="0" y1="122.53846153846153" x2="287.609375" y2="122.53846153846153" fill="rgb(0, 0, 0)" stroke="rgb(60, 60, 60)" stroke-width="1px" opacity="0.25"></line><line x1="0" y1="108.92307692307692" x2="287.609375" y2="108.92307692307692" fill="rgb(0, 0, 0)" stroke="rgb(60, 60, 60)" stroke-width="1px" opacity="0.25"></line><line x1="0" y1="95.3076923076923" x2="287.609375" y2="95.3076923076923" fill="rgb(0, 0, 0)" stroke="rgb(60, 60, 60)" stroke-width="1px" opacity="0.25"></line><line x1="0" y1="81.6923076923077" x2="287.609375" y2="81.6923076923077" fill="rgb(0, 0, 0)" stroke="rgb(60, 60, 60)" stroke-width="1px" opacity="0.25"></line><line x1="0" y1="68.07692307692307" x2="287.609375" y2="68.07692307692307" fill="rgb(0, 0, 0)" stroke="rgb(60, 60, 60)" stroke-width="1px" opacity="0.25"></line><line x1="0" y1="54.46153846153847" x2="287.609375" y2="54.46153846153847" fill="rgb(0, 0, 0)" stroke="rgb(60, 60, 60)" stroke-width="1px" opacity="0.25"></line><line x1="0" y1="40.84615384615384" x2="287.609375" y2="40.84615384615384" fill="rgb(0, 0, 0)" stroke="rgb(60, 60, 60)" stroke-width="1px" opacity="0.25"></line><line x1="0" y1="27.230769230769226" x2="287.609375" y2="27.230769230769226" fill="rgb(0, 0, 0)" stroke="rgb(60, 60, 60)" stroke-width="1px" opacity="0.25"></line><line x1="0" y1="13.615384615384613" x2="287.609375" y2="13.615384615384613" fill="rgb(0, 0, 0)" stroke="rgb(60, 60, 60)" stroke-width="1px" opacity="0.25"></line><line x1="0" y1="0" x2="287.609375" y2="0" fill="rgb(0, 0, 0)" stroke="rgb(60, 60, 60)" stroke-width="1px" opacity="0.25"></line></g></g></g><g><g><line x1="0" y1="163.3846153846154" x2="287.609375" y2="163.3846153846154" fill="rgb(0, 0, 0)" stroke="rgb(153, 153, 153)" stroke-width="1.5px"></line></g></g><g><g><line x1="28.7609375" y1="0" x2="28.7609375" y2="177" fill="rgb(0, 0, 0)" stroke="rgb(153, 153, 153)" stroke-width="1.5px"></line></g></g><g><g><g><g><g><path stroke="rgb(255, 112, 67)" stroke-width="2px" d="M30.272324765625,161.51880339475778L30.653407187499997,162.36215737820245L31.629841015625,160.43963687411937L31.997981015625,162.15982151058887L33.043441093750005,162.2383033555843L33.7308275,162.47171837623614L33.933592109375,161.8948833096525L35.204825546875,161.70964281406378L39.1896534375,160.0757817759284L39.6383240625,157.0826454773083L40.282569062499995,157.26752839874155L41.11232210937499,156.9718627218835L41.1684059375,156.2683526463005L44.299033984375,147.58328705897387L44.47303765625,144.43964798965084L45.87081921875,132.33999073210927L46.08652625,122.66524144278586L46.60134703125,117.23590115441476L46.950792421875,114.50627820656973L49.094920312499994,101.09087258930325L49.16969875,94.77794275945958L49.576666015625,86.76944870805096L50.853651640625,74.9694606521432L51.16858390625001,69.69357446904836L52.075991484375,58.39284332235563L53.44069796875,47.54482210405595L53.468020859374995,41.18919444981756L53.827532578124995,36.88226402502943L53.8864925,33.685414929425406L54.174101875,32.05663321295873L54.19423453125,30.994268248396992L54.231623750000004,30.697234002321323L54.385494765625005,30.655167322460954L54.842793671875,30.170408071895338L55.15197375,29.828494837259484L55.576197578125,29.742481516853132L55.862368906250005,29.078181213693057L56.07519984375,28.662581803595714L56.10252273437499,28.75360677466793L56.20750015625,28.518894833717752L56.21900453125,29.024798439097992L56.74820578125,28.93689829418571L56.752519921875,28.49271589946011L57.0214346875,28.39639877042862L57.175305703125,29.121493108486362L57.183933984375,29.488472788191643L57.215571015625,28.993852903665697L57.327738671875004,29.718234819138786L57.363689843749995,29.744402429945154L57.5161228125,29.11337222719277L57.72607765625,28.71773487477529L58.509813203125,28.97391015563514L58.636361328125,28.872326862611686L58.8966478125,29.321953809875197L59.004501328125,30.153364593617937L59.389897890625,29.835287986939875L59.52651234375,30.03588433062552L59.703392109374995,30.56470367529846L59.837130468750004,30.67776451287139L59.870205546875,30.86473563079977L59.904718671875,30.330187532325994L60.085912578125,30.196670211703292L60.285801093749996,30.30377135779119L60.341884921875,31.525339737751665L60.41810140625,31.98597307342021L60.5072603125,31.921968459436727L60.67551179687501,31.968661844892836L60.8293828125,31.19677403001262L60.938674375000005,31.51652595646911L61.00482453125,32.61039634311223L61.729600156249994,32.73912242125195L61.78712203125,31.31866576044345L62.58092390625,31.793891763958385L62.691653515625,32.19816198145193L62.904484453125,32.015243342717326L63.28844296875,31.25876139024578L63.52715875,31.451602987993596L63.567424062499995,31.80557717741158L63.860785625,33.17526938337002L64.075054609375,33.48650778386815L64.4072434375,32.61805851647475L64.454698984375,32.913912032961775L64.834343359375,33.31267414285398L65.050050390625,32.66693140878931L65.21111164062499,33.385735768350514L65.231244296875,33.30644146101031L65.32471734375,33.39501872276003L65.386553359375,33.073742002886775L65.564871171875,33.561745201732066L65.98046671875,33.088681736423865L66.05524515625001,33.434555195700455L66.3629871875,32.995348502035654L67.51054859375,32.56163217814449L67.62703039062501,31.99505622996361L67.66873375,31.63809143028587L67.6917425,31.951508704325363L67.75357851562501,31.95234753028751L67.946276796875,32.97400467201865L68.118842421875,32.88921049551891L68.31297875,32.395833989619035L68.4280225,32.93375039377145L68.61928273437499,32.728904082416705L68.82204734375,32.537919372526915L69.904896640625,32.18505931582385L69.96673265625,32.38180482026354L69.988303359375,31.955236738311953L70.01706429687499,31.869488196833316L70.485867578125,32.549865995023055L70.839627109375,32.19222728932155L71.144493046875,32.930720988977555L72.122364921875,33.22064413184805L72.304996875,33.56479032526266L72.404222109375,32.86925881054225L72.504885390625,33.62626682478688L72.910414609375,32.735952402564436L73.057095390625,31.895417595384828L73.267050234375,31.680423634153982L73.445368046875,32.02796571895391L73.69990234375,31.913125585218495L73.72866328125001,31.94633688959263L73.99326390625,32.051359826063276L74.10830765625,31.859085126407194L74.198904609375,31.794777998921234L74.207532890625,31.17753987627583L75.21847984374999,31.726235464227045L75.303324609375,31.442760509305458L75.37378890625001,32.0555601517371L75.37954109374999,32.20198993719612L75.90730429687501,32.49407857770228L76.215046328125,33.11183176200598L76.48971328125,32.52940674951128L76.534292734375,32.79264404970678L77.21448890625,32.814432583670225L77.264820546875,32.997698011740596L77.42156765624999,32.71621496089054L77.7178053125,33.568478976534294L77.897561171875,33.637337385920574L78.648221640625,33.55951781616773L78.76182734375,33.81917222816219L79.393129921875,33.702657183051144L79.663482734375,33.462555848292226L79.67642515625,32.94407197051379L80.04456515625,32.82019318230829L80.2027503125,33.273462063231136L80.537815234375,32.558308007169444L80.543567421875,32.91210018891704L81.0368175,32.93716395950409L81.22807773437499,33.02027914493323L81.340245390625,32.81485979465222L81.40783359375001,32.70862741525289L81.5257534375,32.74700337222865L81.82774328125,32.53175971564488L81.991680625,32.33453659861769L82.13836140625,32.45447195917063L82.36269671875,32.22008702165621L82.548204765625,32.31772528991681L82.657496328125,31.79765440471934L82.69632359375001,32.353592642831586L82.752407421875,32.789270970314305L82.7797303125,32.50606258218858L82.956610078125,33.153060626236226L83.189573671875,32.77539406804942L83.53039078125,32.97427490236811L83.55339953125,32.71918032603625L83.592226796875,32.208719734083274L83.724527109375,31.868404917373056L83.76766851562499,31.59613910426995L83.77773484375,31.43277961640814L84.230719609375,31.368802385229515L84.429170078125,31.50060835421462L84.545651875,31.1371919356057L84.73835015625001,31.821161315209565L84.8045003125,31.56779294297189L84.96124742187499,31.330675765783155L85.107928203125,31.42667469023914L85.631377265625,31.586389429528083L85.686023046875,31.614141350024568L85.92330078125,31.749927117707045L85.98657484375,32.035629347547314L86.1044946875,33.04099299314379L86.488453203125,33.08257656511705L86.62794375,32.93733440060868L86.71997875000001,33.85432371728831L86.77893867187501,33.553555768834514L87.566988359375,33.40713346130073L87.659023359375,32.75764546139581L88.15514953125,33.06574112299134L88.360790234375,32.74002159687174L88.386675078125,32.7828591119692L88.424064296875,32.96173469795073L88.91587632812501,31.996848511078127L89.26244562500001,32.74541679895458L89.32284359375001,32.68398084860351L89.72981085937501,32.272696201469785L89.81177953125,32.145060028574164L89.99153539062499,31.932324478682972L90.48334742187501,31.719586994902073L90.54805953125,32.05146373540279L91.2239415625,31.898857625443895L91.49141828125,32.329218421420194L91.582015234375,32.41724259131365L91.59783374999999,31.755249400942034L91.67261218750001,31.80055348671908L91.728696015625,31.283120553569944L91.886881171875,31.074776178295792L92.06088484375,31.11996186082365L92.441967265625,32.13418865495572L93.20844625,31.27907088528113L93.32780414062499,31.66801945424558L93.503245859375,32.05456167254735L93.74052359375,32.1673523881438L94.276915078125,32.575411432886256L94.37901640625,33.058516090501L94.41640562500001,33.1101096543006L94.521383046875,33.70270040796498L94.578904921875,33.734889475548215L94.771603203125,34.12862599302122L94.834877265625,34.44996405735117L95.398591640625,34.132189972872226L95.516511484375,33.635179368338726L95.556776796875,33.25187685177244L95.611422578125,32.97083764952501L95.67469664062499,32.632021820484255L95.78830234375,32.7691169384444L95.792616484375,31.949354778451266L96.027018125,32.42759363630154L96.068721484375,32.74857541255014L96.17369890625001,33.34962601676088L96.67413921875,33.96554484082577L96.912855,33.73942305834163L97.066726015625,33.41653845038957L97.35145929687499,33.64828845484914L97.4478084375,33.991569226755615L97.72103734375,33.49974922836108L97.736855859375,34.19177261393972L98.4026715625,34.30064049144076L98.71616578125,34.33192275640292L99.51284374999999,33.65290365384175L99.51571984374999,33.48376142307427L99.53872859375001,32.837660699998395L100.5885028125,33.30096180461442L100.90199703124999,32.91519246738403L101.08319093749999,33.007096249661174L101.099009453125,33.31752698056593L101.1292084375,33.21445849603185L101.24569023437499,32.43780971300373L101.82522312500001,33.197205058571484L101.843917734375,32.682746112065985L102.15597390625,32.98676305185498L102.214933828125,32.62455783111298L102.304092734375,32.424253929437015L102.71968828125,32.18493697304683L102.821789609375,32.77317372228961L103.023116171875,32.836788848758374L103.391256171875,33.28341946310118L103.514928203125,32.93870552401458L103.566697890625,33.12331946825492L104.19512437499999,32.97879937326064L104.814922578125,32.568721931648696L104.89401515624999,32.73113700514307L105.2362703125,33.06685528000892L105.433282734375,33.71078624492844L105.45485343749999,33.75676020849551L105.82586953125,33.10357535586655L105.9035240625,32.2351259827507L106.031510234375,32.80328712811195L106.603852890625,32.973991507636384L106.749095625,33.144491058428L106.87851984375,33.43400232736448L107.150310703125,32.263189857957144L107.30705781249999,31.815990837851217L107.74278601562499,32.02420988732612L107.9858159375,32.2852951631649L108.06347046875,32.10156171328356L108.42729632812501,32.297667797200916L109.321761484375,32.48340837062824L109.33758,32.57783348391541L109.353398515625,32.2430462441954L109.707158046875,31.97409697728648L110.164456953125,32.323304340218044L111.355159765625,32.430713373361584L111.559362421875,32.81852417786311L111.70604320312499,32.01303758364094L111.95194921875,31.665899473261476L112.370420859375,31.96819353011074L112.419314453125,32.30274304114337L112.42938078124999,32.33328044007064L113.6804815625,32.50477595635007L113.796963359375,33.16930788150236L114.36211578125,32.512834728901396L114.697180703125,32.51039314503316L114.7503884375,32.440851271635296L114.996294453125,32.756529993750405L115.111338203125,32.31622568855792L115.318416953125,32.290312336211656L115.378814921875,31.798225863265458L116.01443164062499,31.77528167180543L116.03600234375,31.659399772314032L116.074829609375,32.08342832492687L116.73345507812499,31.861306994956095L117.27559875,31.847168812358262L117.70988890625,31.294070518184213L117.86663601562499,31.762115387833603L117.92703398437499,31.685538463469413L118.090971328125,31.996996155004723L118.253470625,32.50723615454129L118.63023890625,32.13261092349401L119.08178562500001,31.890816554096403L119.08466171875,31.728720701688616L119.3521384375,31.988867036397778L119.380899375,31.957743298761727L120.03664875,33.0282998254109L120.248041640625,32.904768356784984L120.360209296875,32.813630244840226L120.36164734375,32.52918776228876L120.43642578125001,31.95857034968094L120.45368234375,32.12677682519316L121.116621953125,32.14260455665436L121.306444140625,31.91383196476187L121.9291184375,31.997818409626348L122.11175039062499,31.656767968852762L122.45112945312499,31.36704155054241L122.48276648437499,30.98897493032547L122.963074140625,30.983384958195273L123.6662790625,30.89493482107099L123.69216390625,31.114172431104123L123.95676453125,31.4499457663548L124.2875153125,31.634390536735964L124.43132000000001,31.438711245118526L124.982091953125,31.831880593224952L125.18485656249999,31.914609125165754L125.45233328125,31.53876547509944L125.48109421875,31.500470823521226L125.639279375,31.32432095565119L125.865052734375,31.644111804159934L125.94126921875,31.22329400557291L126.12246312500001,30.85166871103604L126.161290390625,31.139270457390865L126.61715125,31.107600735972994L126.8644953125,31.292829672353008L126.96515859375,31.09762088033486L127.596461171875,31.09963022050863L127.60508945312499,31.339105055382106L127.7273234375,31.414713033229276L127.771902890625,31.47709705070679L128.24789640625,31.7187582304241L128.565704765625,31.931831861331375L129.1078484375,31.753329886029604L129.46736015625,31.93555562392544L129.517691796875,31.517294912816823L129.5392625,31.368453870767013L129.58240390625,31.56847616861407L129.649992109375,31.841662624245345L130.1432421875,31.64817065147031L130.28992296875,31.583133160112965L130.7414696875,31.83343758837546L131.4777496875,31.76237024533296L131.86746039062498,31.736749070276687L132.068786953125,31.50012636524295L132.13637515625,31.307095049915006L132.232724296875,30.91896856841052L132.30318859374998,30.90734267950785L132.370776796875,31.07055945385858L132.543342421875,30.828104903084352L132.78637234375,30.92090140338908L133.0768578125,30.90850238049498L133.24654734375,30.88404373598931L133.59024054687498,31.737349318516664L133.639134140625,31.55154420649461L133.725416953125,32.035734216204474L134.047539453125,31.96884437587653L134.176963671875,31.41813354860284L134.26468453125,31.274918590700196L134.478953515625,31.274085769804742L134.58105484375,30.933201461882845L135.18503453125,30.643574723283564L135.2741934375,30.980375603200912L135.417998125,31.45476382345899L136.5741878125,31.143723678690776L136.705050078125,31.393927899935306L136.95239414062502,31.753952893807337L137.00847796875001,31.69766019782287L137.27739273437498,31.612826887924484L137.419759375,31.272599978908517L137.60095328125,31.340771525806673L138.13015453124999,31.517828300099353L138.427830234375,30.96031236467499L138.531369609375,31.425706649574238L138.735572265625,31.007154758975304L138.73988640625,30.99429285538517L139.064885,31.131239174769576L139.34961828125,30.91557042793866L139.397073828125,31.0074191798401L140.73589546875,30.80723996944255L140.898394765625,30.82328628935784L140.9113371875,30.91801023515316L141.111225703125,30.694027294938053L142.7635415625,30.68728176157822L143.09141625,30.30881136463921L143.124491328125,30.66038297262969L143.173384921875,31.041518245116237L143.259667734375,30.895776331685113L143.34307445312498,30.995542722088004L143.348826640625,30.953287171714322L143.80612554687502,30.67264537995166L144.027584765625,30.997817997201764L144.10092515624999,30.724892721397964L144.26198640625,30.85897409437723L144.55103382812501,30.905384456626336L144.78831156249998,30.652413366283497L144.85014757812502,30.764428789000846L144.86021390624998,31.240099581092807L145.212535390625,31.270213594809547L145.56341882812498,30.964916618424184L145.74605078125,30.849815355669875L145.83233359375,30.780754598017324L146.0422884375,30.51806814342578L146.14870390625,30.513629347593934L146.31120320312502,30.732216070094807L146.393171875,30.64211810359535L146.656334453125,30.58805932369566L147.283322890625,30.776874055755854L147.44726023437502,30.941220587299654L147.84559921875,30.71646312161056L148.033983359375,31.1432432575817L148.15334125,30.7866190314721L148.252566484375,30.839280496219487L148.26119476562502,31.097799066962466L148.776015546875,30.776371747869803L148.89681148437498,30.90688074102954L149.71074601562498,30.951147675386977L149.80997125,31.079823220616817L150.24426140625002,30.833663163139306L150.297469140625,30.36260174403745L150.69005593749998,31.424484123345536L150.691493984375,31.19363278169962L151.24514203125,30.74877582286595L151.272464921875,30.890323186027274L151.338615078125,30.873136219308662L151.51261875,30.386285577739045L151.7484584375,30.400521346643444L152.27478359375,30.562235884909114L152.35675226562498,30.65926460786855L152.60265828125,30.938731841644227L152.66161820312502,31.07237372037116L152.704759609375,30.880251155299618L152.7263303125,30.66286223164127L152.937723203125,30.770698108215555L153.449667890625,30.529053480313934L153.898338515625,31.166951318957615L153.99900179687498,30.477478483682233L154.200328359375,30.233987090209354L154.27079265625002,30.44529610027945L154.464928984375,30.691216121706134L154.47643335937502,30.43030659610062L154.49656601562498,30.69924164996806L154.78273734375,30.92867960536543L155.391031171875,30.402592378603913L155.43704867187498,30.410305427162342L155.81381695312498,30.295798640912807L156.069789296875,30.41430610762461L156.135939453125,30.383295203036283L156.16038625,30.33065019874485L156.3732171875,30.741563196170006L156.529964296875,30.545610994625065L156.578857890625,30.37698198139043L156.747109375,30.66724688114195L156.80750734375,30.790348128685167L156.98007296875,30.676997338749572L156.98151101562502,30.93235224940358L157.21159851562498,30.745180580411386L157.38704023437498,30.394608348246834L157.3971065625,30.320418855101963L157.45031429687498,30.122732082291947L158.267124921875,30.446620018605955L158.589247421875,30.436722011163567L159.006281015625,30.430783206698152L159.46501796875,30.427219924018885L159.968334375,30.8505627236421L160.556495546875,30.525914557262183L160.60682718750002,30.637471811280392L160.80815374999997,30.34700231753746L161.1475328125,30.240797544368633L161.25970046875,29.938805449698094L161.3316028125,29.791648654434255L161.416447578125,29.839508423429805L161.425075859375,30.00437813098094L162.3900053125,30.035223032434743L162.56257093749997,30.37709535792237L162.615778671875,30.173757214753437L162.8501803125,30.44319663654437L163.10615265625,30.29851413577279L163.124847265625,30.29680078915598L163.1492940625,30.380868935032055L163.23126273437498,30.51640597640386L163.718760625,30.631766662765415L164.24939992187498,30.394636920736133L164.396080703125,30.490628306287846L164.77428703125,30.667357753003472L164.850503515625,30.313876190263613L164.95835703125,30.203902637235075L165.537889921875,30.154937736187208L165.7032653125,30.39786648786614L166.044082421875,30.101123738873554L166.49419109375,30.34855885870877L166.59197828125,30.462981469071423L167.18876773437498,30.34442349682746L167.292307109375,30.052038713481096L167.32825828125002,29.978723228088654L167.9466184375,30.258099321468563L168.4413065625,30.00024420826577L169.125816875,29.89658883265176L169.3731609375,30.549203299591056L169.79594671874997,30.46423351821616L170.10081265625,30.157963187852744L170.102250703125,30.450739451173177L170.59550078125,30.217943670703903L171.07724648437502,30.282496971653103L171.482775703125,29.92978664453034L171.934322421875,29.99046814056433L171.97458773437498,29.958800115107834L172.093945625,29.667491607526216L172.935203046875,30.1734757337465L173.14947203124999,30.204758517170973L173.219936328125,29.968239725687198L173.357988828125,29.67315537387387L173.458652109375,29.462066301247404L173.70887226562502,29.53964362690229L173.73907125,29.586190022295227L174.21506476562502,29.75027170568484L174.4235815625,29.440259177257047L174.770150859375,29.3904055063542L174.8722521875,29.734916380735598L175.221697578125,29.788449828441372L175.26627703124998,30.1439352816802L175.4819840625,29.948765015161968L175.61716046875,29.984835932174093L175.67899648437498,30.244747713150645L176.035632109375,30.04329093558266L176.23408257812503,29.820301484426523L176.901336328125,29.97583473680976L176.91571679687502,30.00107776516279L177.036512734375,29.999204351405353L177.41184296875,30.21933030315091L178.3120603125,30.14717510496746L178.3695821875,30.325131986057386L178.793806015625,29.938348422403664L179.153317734375,30.063682130365294L179.57466546875,29.781478508988414L179.685395078125,30.2929255669315L179.77023984375,30.22537072477428L179.81769539062498,29.725318588710735L180.308069375,29.425287307072608L180.321011796875,29.60267238424356L180.706408359375,29.43679573823843L180.76536828125,29.23515436601997L180.9005446875,29.437534927304313L181.554856015625,29.780213264074888L181.57498867187502,29.64543565075263L181.790695703125,29.411396005836167L182.16027375000002,29.66241452657863L182.38892320312502,29.761967946716425L182.51978546875,29.753623075722174L182.723988125,29.66351999927946L182.95551367187502,29.507342768798424L183.159716328125,29.73700181512521L183.562369453125,29.806720319844345L183.64290007812502,29.627301422675828L183.67022296875,29.877053930528575L183.86579734375002,29.550366973701756L183.990907421875,29.84791249191335L184.33891476562502,29.83922826437879L184.842231171875,29.816998497088804L184.955836875,29.344141405945578L185.14278296875,29.29869638202888L185.331167109375,29.764987059986538L185.434706484375,29.653319159068843L185.47497179687502,30.028818418518227L185.995544765625,30.169021820341698L186.375189140625,29.94679770758964L186.46434804687502,30.324040163015297L186.6067146875,30.27807794396304L186.9403415625,30.148385227916293L186.9978634375,30.206723444442076L187.36887953125,29.799226374357545L187.396202421875,29.639824286153015L187.51843640624998,30.156875340922568L187.58602460937502,29.97354828147664L187.67949765625,29.829513584270586L187.96710703124998,29.726073535177733L188.00449625000002,29.80016335187588L188.066332265625,29.980771088048613L188.5624584375,29.918943422059925L188.752280625,30.08607759169749L188.8730765625,30.016165785787734L189.090221640625,29.906141779164955L189.343317890625,29.942242759806675L189.38070710937498,29.827749502037875L189.54608249999998,30.18453431660734L189.81499726562498,30.024182128425963L189.895527890625,29.553547738594006L190.08391203125,29.37328248931027L190.223402578125,29.469354108970748L190.49087929687502,29.663150926920906L191.14087648437499,29.745390556152557L191.605365625,29.69261894907615L191.71034304687498,29.729032907907254L191.787997578125,29.98915051397512L191.972067578125,29.889932616077374L192.31719882812502,29.711267261954134L192.45525132812503,29.825318049480188L192.73279437500003,29.84269082968811L192.860780546875,29.563787574735954L193.007461328125,30.111253314072343L193.58124203124999,30.099348142289557L194.7748209375,29.93903196229681L194.876922265625,29.96197686968577L195.15590335937497,30.214013044888418L195.420503984375,29.97379244231766L195.644839296875,29.659467773082923L195.650591484375,30.083565279234392L195.73831234375,29.861485321386795L195.95689546875,29.79631426975513L196.17547859375,29.75721163877617L196.182668828125,29.8018269832657L196.2128678125,29.811576959190177L196.31640718749998,29.766369252437187L196.829789921875,29.55203308992384L197.31441171875002,29.951027546261997L197.52436656249998,30.105328066218732L197.57901234374998,30.053244916654307L197.816290078125,29.639062334607956L197.991731796875,29.662860477687843L198.01617859375003,30.23877397892042L198.26352265625002,30.465187464275317L198.434650234375,30.14151632471905L199.19681507812498,29.93029441021605L199.340619765625,29.90567664612962L199.444159140625,29.941963679985463L199.52325171874998,29.74248590029896L199.64692375,29.77597230941018L199.73608265625,29.83010261641533L199.841060078125,29.930657723695333L200.00643546875,29.990990788063357L200.042386640625,29.874017549761078L200.260969765625,29.65066052985665L200.399022265625,29.737896317913993L200.982869296875,30.164660867671472L201.084970625,30.352642674449044L201.20289046875,29.92081637390018L201.238841640625,30.036143670493942L201.43297796875,29.76495543306561L201.805432109375,29.891569413685545L202.66969828125,29.814364725134396L203.07378945312502,30.125445758157582L203.37146515625,29.682382839509927L203.490823046875,29.910102780629018L203.933741484375,30.182888591454343L203.939493671875,29.904060077949538L204.40254476562498,29.75378220061586L204.7030965625,29.544480858831065L205.25530656249998,29.827361592221735L205.57599101562502,29.980070801486903L205.90098960937502,29.799388634738307L205.97433,29.980306257766046L206.053422578125,30.020779908505773L206.481960546875,29.976987175872694L206.51215953124998,29.593307690139L206.906184375,29.87367692177571L207.00972374999998,29.65045615306542L207.59932296875,29.63565830722385L207.74887984375002,30.052260368949675L208.078192578125,29.65549083675441L208.20905484374998,29.485506040514196L208.70086687499997,29.451592085846983L209.08626343749998,29.4993206361236L209.2473246875,29.885361612443376L209.27608562499998,30.09996696746603L209.766459609375,30.19469171894113L209.878627265625,29.587776569826246L210.1216571875,29.495935172664957L210.39488609375002,29.525926488214367L210.396324140625,29.611998200620917L210.522872265625,29.255179689603324L210.89532640625,29.35594435222353L211.04488328125,29.47597045748799L211.22895328125,30.109620736031246L211.43459398437503,29.826060903157213L211.484925625,29.724001926509715L211.49211585937502,29.441516540521206L211.946538671875,29.45923684738966L211.992556171875,29.861311339203013L212.12198039062503,29.84726757275257L212.426846328125,29.634610543651547L213.007817265625,29.38788171080631L213.279608125,29.410036718791474L213.493877109375,29.304195108197945L213.982813046875,29.444920911072614L214.13524601562497,29.614452546643577L214.15394062500002,29.801267681832314L214.28192679687498,29.589991378330183L214.497633828125,29.56534098084424L214.609801484375,29.83987766542961L214.618429765625,29.783349676180848L214.62562,30.600394421093114L215.084356953125,30.409852037271236L215.130374453125,30.159372760824283L215.21378117187498,30.332450579571486L215.282807421875,29.823604963127508L215.39928921875,30.02887451633805L215.44962085937502,30.458382402110516L216.0464103125,29.916183287420154L216.07373320312502,29.77807535706748L216.34408601562498,29.55905675270202L216.374285,29.444664820851983L216.50802335937502,29.2909335078958L216.76830984375,29.462492797045172L216.77262398437497,29.55691875515018L216.81720343749998,29.528478176167L216.89341992187502,29.52843305954636L217.071737734375,29.91984829726627L217.12494546874998,29.712197439898205L217.149392265625,29.621645387015832L217.536226875,29.720487232209507L217.70735445312502,29.932965416248805L217.710230546875,29.9242984805185L217.877043984375,29.731886780618765L218.242307890625,29.63345899144818L218.64783710937502,29.59142154871506L219.136773046875,29.53216062153672L219.706239609375,29.632757911383578L219.97227828125,29.693116285291694L220.068627421875,29.29534092502118L220.721500703125,29.371531478089622L220.72293875,29.434265040699927L221.194618125,29.403828255189183L221.216188828125,29.572777722344284L221.35711742187502,29.6060704795604L221.406011015625,29.915373056967013L221.452028515625,29.658454603410974L221.843177265625,29.58939968512351L221.89350890625002,29.667101349535642L221.938088359375,29.84987619433676L221.999924375,29.70425263967897L222.42414820312501,29.7700515838074L222.458661328125,29.452127104130568L222.507554921875,29.36348780093988L222.552134375,29.225208065179316L222.61109429687502,29.02310560833837L222.94759726562498,28.901844134233784L223.0755834375,28.96524109592488L223.289852421875,28.98626004217033L223.358878671875,29.11800602530218L223.81617757812498,29.145995922873624L223.974362734375,29.264905246031873L224.15987078125002,29.28519314761911L224.3640734375,29.382462042417643L224.88033226562501,29.35572722545058L225.00400429687502,29.23757095065497L225.357763828125,29.09860026270067L226.28674210937498,29.406660157620394L226.29105625000003,29.166015325341505L226.367272734375,29.36201304135875L226.86915109375,29.83701551712295L226.9525578125,29.730574694889157L227.998017890625,29.990075586164266L228.14182257812502,29.958564582467773L228.32445453124998,29.939657980249905L228.328768671875,29.70706401891917L228.706975,29.36327687288994L229.09812375,29.344216123733958L229.159959765625,29.24768352039422L229.385733125,29.411013958390384L229.692037109375,29.253723759649603L229.73230242187498,29.227426563482055L229.74524484375002,29.092513630396923L229.78551015625,29.16473894746892L230.002655234375,29.071920291558285L231.34435296875,29.35661371339654L231.538489296875,29.56146822803791L231.549993671875,30.041784782976578L231.82753671875003,29.42795548517057L231.952646796875,29.655330983410067L232.4343925,29.842813974661425L232.50917093750002,29.682996077104548L232.89456750000002,29.655182261647326L232.9348328125,29.570417049296083L233.344676171875,29.68975022957767L233.47841453125,29.931542445438907L233.72575859375,29.90642546726332L234.178743359375,29.51693220343492L234.34699484375,29.759774706676353L234.61734765625,29.59913405477505L234.69787828125,29.689961202095787L234.963916953125,29.62532287510365L235.10628359375,29.399328340446772L235.26159265625,29.246712388883452L235.71601546875002,29.27427743333007L235.774975390625,29.205720306151903L235.878514765625,29.164586029844997L235.89864742187498,29.15692469483008L236.013691171875,29.118289432282637L236.29411031249998,29.316358274754208L236.295548359375,29.401161118698667L236.43360085937502,29.418004363526876L236.52707390625,29.530225695039206L236.62342304687502,29.733712340100453L236.82618765625,29.515419711752543L236.83193984375,29.40146336551308L237.946426171875,29.418185711615536L238.09166890625,29.700526811584695L238.18801804687502,29.49550839464311L238.29011937500002,29.16826657524743L238.6640115625,29.125094560533057L238.75317046875,29.269383659396766L238.76179875,29.151726349484193L238.81069234375,29.047093501998205L238.99476234374998,29.324698408891237L239.11555828125,29.27001135302703L239.19608890625,29.271237581047018L239.4348046875,29.35706947170513L239.45493734375,29.34049168302306L239.52827773437502,29.194391163659986L239.597303984375,29.362019313580618L239.65482585937502,29.224326972763777L239.928054765625,28.954500029812095L240.62838359375,28.979815402502624L240.9016125,29.284331549193894L241.05979765625,29.381945083362496L241.2294871875,29.25330166540209L241.511344375,29.17611561462587L241.682471953125,29.31701552262166L242.04198367187502,29.554728544342225L242.318088671875,29.71437558814378L242.43457046875,29.48679842980934L242.45182703125,29.554482904039446L242.591317578125,29.322785896269835L243.46421203124999,29.59222923006959L243.528924140625,29.821972153426373L243.557685078125,29.755587138209677L243.646843984375,29.681717667541193L243.6569103125,29.518261369755493L243.73456484375,29.77759143723793L244.42482734375,29.831074093111994L244.67936164062502,29.505759840482597L245.337987109375,29.361628981212647L245.44584062500002,29.683612004112206L245.52924734374997,29.025840279390422L245.89163515625,29.05665801378808L245.98654625,29.109187115965142L246.40645593749997,29.242819961886795L246.45534953125,29.44213428482439L246.50711921875,29.391530570894645L246.9471615625,29.225014496382954L247.230456796875,29.193181774752844L247.526694453125,29.65062060331323L247.7294590625,29.533641592757164L247.77260046875,29.36133880180813L247.802799453125,29.223918665700268L248.20401453125,29.260601199420165L248.21983304687498,29.248572258113654L248.32049632812502,29.377508739483602L248.76629085937498,29.625062935997846L248.81374640625,29.63744160775255L248.93454234375,29.30448419542074L249.122926484375,29.46211359417555L249.27248335937497,29.590729694966853L249.436420703125,29.463668586210872L249.804560703125,29.659739613265003L249.89659570312497,29.41997838334359L250.132435390625,29.1740062607754L250.164072421875,29.1966152949268L250.27048789062502,29.14210379234069L250.3294478125,29.05833919848135L250.43586328125,28.974041980627277L250.60267671875002,29.195771342222514L250.89028609375,29.328808959179668L250.891724140625,29.255458452430872L251.5143984375,29.041255840689303L251.791941484375,29.28715735056744L251.918489609375,29.33258287187894L252.217603359375,29.325799723127375L252.72667195312502,29.372787526184112L253.0789934375,29.09463405417202L253.094811953125,28.944761201733968L253.79657882812498,29.53560672104038L253.805207109375,30.111364032624238L253.95332593749998,30.082395342651466L255.154095078125,30.541552590206265L255.182856015625,29.96608540027762L255.43882835937498,29.51868970170503L255.66747781249998,29.471502282561488L256.321789140625,29.477228292613802L256.6798628125,29.276433129414443L257.023556015625,29.326148339187142L257.299661015625,29.16876592658923L257.34280242187504,29.0573172482612L257.3586209375,28.78621727203364L257.53262460937503,28.912884209374056L258.18693593750004,29.550518987162917L258.353749375,29.4225229307593L258.514810625,28.971302219994044L258.516248671875,29.00691594738103L258.5320671875,29.13039956842863L258.691690390625,29.051316664134077L258.98649,29.07194384463432L259.462483515625,29.135377845242118L259.46679765625,29.27555363022219L259.49555859375,29.34263987044102L259.504186875,29.31481469149537L259.505624921875,29.485331122589514L259.543014140625,29.162160212015237L259.55308046875,29.070373050286094L259.563146796875,29.100396907094733L259.61060234375,29.186488144256856L259.642239375,29.204104425015657L259.643677421875,29.299770347317093L259.65661984375,29.646496823774868L259.666686171875,29.95664809426492L259.6710003125,29.530046548866636L259.681066640625,29.869758698550754L259.68538078125,29.76723983451504L259.712703671875,29.6376515930167L259.7170178125,29.5428794173485L259.73283632812496,29.349862265793718L259.74865484375,29.217032744091625L259.7630353125,29.290508107993418L259.76591140625004,29.50478563402683L259.767349453125,29.701429072723784L259.77166359374996,29.71729975132658L259.80617671875,29.86297600464212L259.813366953125,29.592977910477572L259.81480500000004,29.209729053978833L259.8205571875,29.37122204777191L259.847880078125,29.229848613278534L259.862260546875,29.493918783351745L259.87376492187497,29.59279357770336L259.891021484375,29.737214608160457L259.948543359375,30.04511722643474L259.96148578124996,29.855435720476237L259.962923828125,29.554415278439592L259.971552109375,29.475918397833L259.974428203125,29.581993346392096L259.987370625,29.56054216168141L260.037702265625,29.275363758547314L260.077967578125,29.070218255128395L260.08228171875004,29.47472710692321L260.086595859375,29.66637472569238L260.09953828125,29.33886329695386L260.13980359375,29.363606439710793L260.17431671875,29.242298479211115L260.1886971875,29.288648318295884L260.267789765625,29.878092837131362L260.276418046875,30.197721086894205L260.28217023437503,29.844882652136533L260.286484375,30.12673728358959L260.302302890625,30.142676985538372L260.328187734375,30.186279268246125L260.33537796875,29.855036791716913L260.379957421875,30.166868228876297L260.38714765625,29.62214016809503L260.388585703125,29.550591793164728L260.391461796875,29.814008922052693L260.40871835937503,29.66571304553929L260.411594453125,29.678850904246644L260.428851015625,30.044137465624885L260.443231484375,29.701674787067248L260.46192609375,29.81956256454805L260.469116328125,29.703083692575007L260.470554375,29.53108098477574L260.492125078125,29.46191782163467L260.500753359375,29.70974684682696L260.515133828125,29.586136569634647L260.54964695312503,29.631105018703863L260.57409375000003,29.334720703529996L260.585598125,29.190928575964165L260.60573078125,29.29186483788621L260.650310234375,29.318388133500974L260.6603765625,29.504494418562103L260.664690703125,29.156638958829575L260.67619507812503,29.033021836836213L260.699203828125,29.77577464056324L260.704956015625,29.523637861261022L260.71214625,29.899951947525835L260.71502234375,29.59814424543856L260.71789843749997,30.165905778032396L260.722212578125,29.791755005280947L260.77254421875,29.601303003168596L260.78117249999997,29.72530103267036L260.782610546875,29.612488311909914L260.792676875,29.81710837176132L260.80561929687497,29.769688099979874L260.8214378125,29.70719747537254L260.834380234375,29.78883771599274L260.851636796875,29.59955262959562L260.874645546875,29.843385423911258L260.877521640625,29.581223562039042L260.8789596875,29.509022598761902L260.88183578125,29.372096251564813L260.89046406250003,29.298450058631175" style="fill: none;" fill="none"></path></g></g></g></g><g opacity="0.2"><g><g><g><path stroke="rgb(255, 112, 67)" stroke-width="2px" d="M30.272324765625,161.51880339475778L30.653407187499997,162.86816976826924L31.629841015625,158.59401719019962L31.997981015625,164.18275864307697L33.043441093750005,162.3407692524103L33.7308275,162.7946153792051L33.933592109375,161.0699999350768L35.204825546875,161.43956039318672L39.1896534375,157.66615410584672L39.6383240625,152.63818690593428L40.282569062499995,157.54317590640142L41.11232210937499,156.52997320615327L41.1684059375,155.2153846153846L44.299033984375,134.57270362560564L44.47303765625,139.72788461538462L45.87081921875,114.19903846153846L46.08652625,108.15721153846154L46.60134703125,109.09326923076922L46.950792421875,110.41225961538461L49.094920312499994,80.96899038461538L49.16969875,85.30889423076923L49.576666015625,74.75697115384615L50.853651640625,57.269711538461536L51.16858390625001,61.779807692307685L52.075991484375,41.44182692307692L53.44069796875,31.272836538461547L53.468020859374995,31.655769230769238L53.827532578124995,30.421875L53.8864925,28.890144230769238L54.174101875,29.613461538461536L54.19423453125,29.40072115384615L54.231623750000004,30.251682692307696L54.385494765625005,30.592067307692304L54.842793671875,29.443269230769232L55.15197375,29.31562500000001L55.576197578125,29.613461538461536L55.862368906250005,28.081730769230774L56.07519984375,28.03918269230769L56.10252273437499,28.890144230769238L56.20750015625,28.16682692307691L56.21900453125,29.78365384615384L56.74820578125,28.80504807692307L56.752519921875,27.826442307692304L57.0214346875,28.251923076923077L57.175305703125,30.209134615384613L57.183933984375,30.03894230769231L57.215571015625,28.251923076923077L57.327738671875004,30.80480769230769L57.363689843749995,29.78365384615384L57.5161228125,28.16682692307691L57.72607765625,28.124278846153857L58.509813203125,29.358173076923066L58.636361328125,28.719951923076934L58.8966478125,29.996394230769226L59.004501328125,31.400480769230768L59.389897890625,29.358173076923066L59.52651234375,30.336778846153834L59.703392109374995,31.357932692307685L59.837130468750004,30.847355769230774L59.870205546875,31.145192307692326L59.904718671875,29.52836538461537L60.085912578125,29.996394230769226L60.285801093749996,30.464423076923083L60.341884921875,33.357692307692304L60.41810140625,32.67692307692309L60.5072603125,31.82596153846154L60.67551179687501,32.03870192307693L60.8293828125,30.03894230769231L60.938674375000005,31.996153846153845L61.00482453125,34.251201923076934L61.729600156249994,32.93221153846153L61.78712203125,29.187980769230762L62.58092390625,32.506730769230785L62.691653515625,32.80456730769231L62.904484453125,31.740865384615404L63.28844296875,30.124038461538447L63.52715875,31.740865384615404L63.567424062499995,32.33653846153845L63.860785625,35.22980769230767L64.075054609375,33.95336538461538L64.4072434375,31.31538461538463L64.454698984375,33.357692307692304L64.834343359375,33.91081730769233L65.050050390625,31.698317307692292L65.21111164062499,34.46394230769229L65.231244296875,33.1875L65.32471734375,33.52788461538461L65.386553359375,32.59182692307692L65.564871171875,34.29374999999999L65.98046671875,32.379086538461536L66.05524515625001,33.95336538461538L66.3629871875,32.33653846153845L67.51054859375,31.911057692307708L67.62703039062501,31.145192307692326L67.66873375,31.102644230769215L67.6917425,32.42163461538462L67.75357851562501,31.953605769230762L67.946276796875,34.506490384615404L68.118842421875,32.762019230769226L68.31297875,31.655769230769238L68.4280225,33.740624999999994L68.61928273437499,32.42163461538462L68.82204734375,32.251442307692315L69.904896640625,31.655769230769238L69.96673265625,32.67692307692309L69.988303359375,31.31538461538463L70.01706429687499,31.740865384615404L70.485867578125,33.57043269230769L70.839627109375,31.655769230769238L71.144493046875,34.03846153846155L72.122364921875,33.65552884615386L72.304996875,34.08100961538463L72.404222109375,31.82596153846154L72.504885390625,34.761778846153845L72.910414609375,31.400480769230768L73.057095390625,30.634615384615387L73.267050234375,31.357932692307685L73.445368046875,32.54927884615384L73.69990234375,31.740865384615404L73.72866328125001,31.996153846153845L73.99326390625,32.20889423076923L74.10830765625,31.57067307692307L74.198904609375,31.698317307692292L74.207532890625,30.251682692307696L75.21847984374999,32.54927884615384L75.303324609375,31.017548076923077L75.37378890625001,32.97475961538461L75.37954109374999,32.42163461538462L75.90730429687501,32.93221153846153L76.215046328125,34.03846153846155L76.48971328125,31.655769230769238L76.534292734375,33.1875L77.21448890625,32.84711538461539L77.264820546875,33.272596153846166L77.42156765624999,32.29399038461537L77.7178053125,34.84687500000001L77.897561171875,33.740624999999994L78.648221640625,33.44278846153847L78.76182734375,34.20865384615385L79.393129921875,33.52788461538461L79.663482734375,33.102403846153834L79.67642515625,32.16634615384615L80.04456515625,32.634375000000006L80.2027503125,33.95336538461538L80.537815234375,31.485576923076934L80.543567421875,33.44278846153847L81.0368175,32.97475961538461L81.22807773437499,33.14495192307692L81.340245390625,32.506730769230785L81.40783359375001,32.54927884615384L81.5257534375,32.80456730769231L81.82774328125,32.20889423076923L81.991680625,32.03870192307693L82.13836140625,32.634375000000006L82.36269671875,31.868509615384596L82.548204765625,32.46418269230767L82.657496328125,31.017548076923077L82.69632359375001,33.1875L82.752407421875,33.44278846153847L82.7797303125,32.08125000000001L82.956610078125,34.123557692307685L83.189573671875,32.20889423076923L83.53039078125,33.272596153846166L83.55339953125,32.33653846153845L83.592226796875,31.44302884615385L83.724527109375,31.357932692307685L83.76766851562499,31.18774038461538L83.77773484375,31.18774038461538L84.230719609375,31.272836538461547L84.429170078125,31.698317307692292L84.545651875,30.592067307692304L84.73835015625001,32.84711538461539L84.8045003125,31.18774038461538L84.96124742187499,30.974999999999994L85.107928203125,31.57067307692307L85.631377265625,31.82596153846154L85.686023046875,31.655769230769238L85.92330078125,31.953605769230762L85.98657484375,32.46418269230767L86.1044946875,34.54903846153846L86.488453203125,33.14495192307692L86.62794375,32.71947115384614L86.71997875000001,35.22980769230767L86.77893867187501,33.102403846153834L87.566988359375,33.1875L87.659023359375,31.78341346153846L88.15514953125,33.52788461538461L88.360790234375,32.251442307692315L88.386675078125,32.84711538461539L88.424064296875,33.23004807692308L88.91587632812501,30.54951923076925L89.26244562500001,33.868269230769215L89.32284359375001,32.59182692307692L89.72981085937501,31.655769230769238L89.81177953125,31.953605769230762L89.99153539062499,31.613221153846155L90.48334742187501,31.400480769230768L90.54805953125,32.54927884615384L91.2239415625,31.669948460505566L91.49141828125,32.97475961538461L91.582015234375,32.54927884615384L91.59783374999999,30.762259615384608L91.67261218750001,31.868509615384596L91.728696015625,30.506971153846166L91.886881171875,30.762259615384608L92.06088484375,31.18774038461538L92.441967265625,33.65552884615386L93.20844625,29.996394230769226L93.32780414062499,32.251442307692315L93.503245859375,32.634375000000006L93.74052359375,32.33653846153845L94.276915078125,33.1875L94.37901640625,33.78317307692308L94.41640562500001,33.1875L94.521383046875,34.59158653846154L94.578904921875,33.78317307692308L94.771603203125,34.71923076923076L94.834877265625,34.93197115384615L95.398591640625,33.65552884615386L95.516511484375,32.88966346153845L95.556776796875,32.67692307692309L95.611422578125,32.54927884615384L95.67469664062499,32.123798076923066L95.78830234375,32.97475961538461L95.792616484375,30.719711538461553L96.027018125,33.14495192307692L96.068721484375,33.23004807692308L96.17369890625001,34.251201923076934L96.67413921875,34.889423076923066L96.912855,33.40024038461539L97.066726015625,32.93221153846153L97.35145929687499,33.995913461538464L97.4478084375,34.506490384615404L97.72103734375,32.762019230769226L97.736855859375,35.22980769230767L98.4026715625,34.46394230769229L98.71616578125,34.378846153846155L99.51284374999999,32.634375000000006L99.51571984374999,33.23004807692308L99.53872859375001,31.868509615384596L100.5885028125,33.995913461538464L100.90199703124999,32.33653846153845L101.08319093749999,33.14495192307692L101.099009453125,33.78317307692308L101.1292084375,33.05985576923075L101.24569023437499,31.272836538461547L101.82522312500001,34.33629807692307L101.843917734375,31.911057692307708L102.15597390625,33.44278846153847L102.214933828125,32.08125000000001L102.304092734375,32.123798076923066L102.71968828125,31.82596153846154L102.821789609375,33.65552884615386L103.023116171875,32.93221153846153L103.391256171875,33.95336538461538L103.514928203125,32.42163461538462L103.566697890625,33.40024038461539L104.19512437499999,32.762019230769226L104.814922578125,31.953605769230762L104.89401515624999,32.97475961538461L105.2362703125,33.57043269230769L105.433282734375,34.67668269230771L105.45485343749999,33.82572115384616L105.82586953125,32.123798076923066L105.9035240625,30.93245192307691L106.031510234375,33.65552884615386L106.603852890625,33.23004807692308L106.749095625,33.40024038461539L106.87851984375,33.868269230769215L107.150310703125,30.506971153846166L107.30705781249999,31.145192307692326L107.74278601562499,32.33653846153845L107.9858159375,32.67692307692309L108.06347046875,31.82596153846154L108.42729632812501,32.59182692307692L109.321761484375,32.762019230769226L109.33758,32.71947115384614L109.353398515625,31.740865384615404L109.707158046875,31.57067307692307L110.164456953125,32.84711538461539L111.355159765625,32.59182692307692L111.559362421875,33.40024038461539L111.70604320312499,30.80480769230769L111.95194921875,31.145192307692326L112.370420859375,32.42163461538462L112.419314453125,32.80456730769231L112.42938078124999,32.379086538461536L113.6804815625,32.762019230769226L113.796963359375,34.16610576923077L114.36211578125,31.52812499999999L114.697180703125,32.506730769230785L114.7503884375,32.33653846153845L114.996294453125,33.23004807692308L115.111338203125,31.655769230769238L115.318416953125,32.251442307692315L115.378814921875,31.06009615384616L116.01443164062499,31.740865384615404L116.03600234375,31.485576923076934L116.074829609375,32.71947115384614L116.73345507812499,31.52812499999999L117.27559875,31.82596153846154L117.70988890625,30.464423076923083L117.86663601562499,32.46418269230767L117.92703398437499,31.57067307692307L118.090971328125,32.46418269230767L118.253470625,33.272596153846166L118.63023890625,31.57067307692307L119.08178562500001,31.52812499999999L119.08466171875,31.485576923076934L119.3521384375,32.379086538461536L119.380899375,31.911057692307708L120.03664875,34.634134615384596L120.248041640625,32.71947115384614L120.360209296875,32.67692307692309L120.36164734375,32.10252403846155L120.43642578125001,31.102644230769215L120.45368234375,32.379086538461536L121.116621953125,32.16634615384615L121.306444140625,31.57067307692307L121.9291184375,32.123798076923066L122.11175039062499,31.145192307692326L122.45112945312499,30.93245192307691L122.48276648437499,30.421875L122.963074140625,30.974999999999994L123.6662790625,30.762259615384608L123.69216390625,31.44302884615385L123.95676453125,31.953605769230762L124.2875153125,31.911057692307708L124.43132000000001,31.145192307692326L124.982091953125,32.42163461538462L125.18485656249999,32.03870192307693L125.45233328125,30.974999999999994L125.48109421875,31.44302884615385L125.639279375,31.06009615384616L125.865052734375,32.123798076923066L125.94126921875,30.592067307692304L126.12246312500001,30.29423076923075L126.161290390625,31.57067307692307L126.61715125,31.06009615384616L126.8644953125,31.57067307692307L126.96515859375,30.80480769230769L127.596461171875,31.102644230769215L127.60508945312499,31.698317307692292L127.7273234375,31.52812499999999L127.771902890625,31.57067307692307L128.24789640625,32.08125000000001L128.565704765625,32.251442307692315L129.1078484375,31.485576923076934L129.46736015625,32.20889423076923L129.517691796875,30.889903846153857L129.5392625,31.145192307692326L129.58240390625,31.868509615384596L129.649992109375,32.251442307692315L130.1432421875,31.357932692307685L130.28992296875,31.485576923076934L130.7414696875,32.20889423076923L131.4777496875,31.655769230769238L131.86746039062498,31.698317307692292L132.068786953125,31.145192307692326L132.13637515625,31.017548076923077L132.232724296875,30.336778846153834L132.30318859374998,30.889903846153857L132.370776796875,31.31538461538463L132.543342421875,30.464423076923083L132.78637234375,31.06009615384616L133.0768578125,30.889903846153857L133.24654734375,30.847355769230774L133.59024054687498,33.017307692307696L133.639134140625,31.272836538461547L133.725416953125,32.762019230769226L134.047539453125,31.868509615384596L134.176963671875,30.592067307692304L134.26468453125,31.06009615384616L134.478953515625,31.272836538461547L134.58105484375,30.421875L135.18503453125,30.209134615384613L135.2741934375,31.485576923076934L135.417998125,32.16634615384615L136.5741878125,30.67716346153847L136.705050078125,31.76923423180213L136.95239414062502,32.29399038461537L137.00847796875001,31.613221153846155L137.27739273437498,31.485576923076934L137.419759375,30.762259615384608L137.60095328125,31.44302884615385L138.13015453124999,31.78341346153846L138.427830234375,30.124038461538447L138.531369609375,32.123798076923066L138.735572265625,30.379326923076917L138.73988640625,30.974999999999994L139.064885,31.336658653846143L139.34961828125,30.592067307692304L139.397073828125,31.145192307692326L140.73589546875,30.506971153846166L140.898394765625,30.847355769230774L140.9113371875,31.06009615384616L141.111225703125,30.358052884615404L142.7635415625,30.67716346153847L143.09141625,29.741105769230785L143.124491328125,31.18774038461538L143.173384921875,31.613221153846155L143.259667734375,30.67716346153847L143.34307445312498,31.145192307692326L143.348826640625,30.889903846153857L143.80612554687502,30.251682692307696L144.027584765625,31.485576923076934L144.10092515624999,30.315504807692292L144.26198640625,31.06009615384616L144.55103382812501,30.974999999999994L144.78831156249998,30.272956730769238L144.85014757812502,30.93245192307691L144.86021390624998,31.953605769230762L145.212535390625,31.31538461538463L145.56341882812498,30.506971153846166L145.74605078125,30.67716346153847L145.83233359375,30.67716346153847L146.0422884375,30.124038461538447L146.14870390625,30.506971153846166L146.31120320312502,31.06009615384616L146.393171875,30.506971153846166L146.656334453125,30.506971153846166L147.283322890625,31.06009615384616L147.44726023437502,31.18774038461538L147.84559921875,30.379326923076917L148.033983359375,31.78341346153846L148.15334125,30.251682692307696L148.252566484375,30.918272693340583L148.26119476562502,31.485576923076934L148.776015546875,30.29423076923075L148.89681148437498,31.102644230769215L149.71074601562498,31.017548076923077L149.80997125,31.272836538461547L150.24426140625002,30.464423076923083L150.297469140625,29.65600961538462L150.69005593749998,33.017307692307696L150.691493984375,30.847355769230774L151.24514203125,30.081490384615392L151.272464921875,31.102644230769215L151.338615078125,30.847355769230774L151.51261875,29.65600961538462L151.7484584375,30.421875L152.27478359375,30.80480769230769L152.35675226562498,30.80480769230769L152.60265828125,31.357932692307685L152.66161820312502,31.272836538461547L152.704759609375,30.592067307692304L152.7263303125,30.336778846153834L152.937723203125,30.93245192307691L153.449667890625,30.16658653846153L153.898338515625,32.123798076923066L153.99900179687498,29.443269230769232L154.200328359375,29.868750000000006L154.27079265625002,30.762259615384608L154.464928984375,31.06009615384616L154.47643335937502,30.03894230769231L154.49656601562498,31.102644230769215L154.78273734375,31.272836538461547L155.391031171875,29.613461538461536L155.43704867187498,30.421875L155.81381695312498,30.124038461538447L156.069789296875,30.592067307692304L156.135939453125,30.336778846153834L156.16038625,30.251682692307696L156.3732171875,31.357932692307685L156.529964296875,30.251682692307696L156.578857890625,30.124038461538447L156.747109375,31.102644230769215L156.80750734375,30.974999999999994L156.98007296875,30.506971153846166L156.98151101562502,31.31538461538463L157.21159851562498,30.464423076923083L157.38704023437498,29.868750000000006L157.3971065625,30.209134615384613L157.45031429687498,29.826201923076923L158.267124921875,30.93245192307691L158.589247421875,30.421875L159.006281015625,30.421875L159.46501796875,30.421875L159.968334375,31.485576923076934L160.556495546875,30.03894230769231L160.60682718750002,30.80480769230769L160.80815374999997,29.91129807692309L161.1475328125,30.081490384615392L161.25970046875,29.485817307692315L161.3316028125,29.570913461538453L161.416447578125,29.91129807692309L161.425075859375,30.251682692307696L162.3900053125,30.081490384615392L162.56257093749997,30.889903846153857L162.615778671875,29.868750000000006L162.8501803125,30.847355769230774L163.10615265625,30.081490384615392L163.124847265625,30.29423076923075L163.1492940625,30.506971153846166L163.23126273437498,30.719711538461553L163.718760625,30.80480769230769L164.24939992187498,30.03894230769231L164.396080703125,30.634615384615387L164.77428703125,30.93245192307691L164.850503515625,29.78365384615384L164.95835703125,30.03894230769231L165.537889921875,30.081490384615392L165.7032653125,30.762259615384608L166.044082421875,29.65600961538462L166.49419109375,30.719711538461553L166.59197828125,30.634615384615387L167.18876773437498,30.16658653846153L167.292307109375,29.613461538461536L167.32825828125002,29.868750000000006L167.9466184375,30.67716346153847L168.4413065625,29.613461538461536L169.125816875,29.741105769230785L169.3731609375,31.52812499999999L169.79594671874997,30.336778846153834L170.10081265625,29.698557692307674L170.102250703125,30.889903846153857L170.59550078125,29.868750000000006L171.07724648437502,30.379326923076917L171.482775703125,29.40072115384615L171.934322421875,30.081490384615392L171.97458773437498,29.91129807692309L172.093945625,29.230528846153845L172.935203046875,30.93245192307691L173.14947203124999,30.251682692307696L173.219936328125,29.613461538461536L173.357988828125,29.230528846153845L173.458652109375,29.145432692307708L173.70887226562502,29.65600961538462L173.73907125,29.65600961538462L174.21506476562502,29.996394230769226L174.4235815625,28.975240384615404L174.770150859375,29.31562500000001L174.8722521875,30.251682692307696L175.221697578125,29.868750000000006L175.26627703124998,30.67716346153847L175.4819840625,29.65600961538462L175.61716046875,30.03894230769231L175.67899648437498,30.634615384615387L176.035632109375,29.741105769230785L176.23408257812503,29.485817307692315L176.901336328125,30.209134615384613L176.91571679687502,30.03894230769231L177.036512734375,29.996394230769226L177.41184296875,30.54951923076925L178.3120603125,30.03894230769231L178.3695821875,30.592067307692304L178.793806015625,29.358173076923066L179.153317734375,30.251682692307696L179.57466546875,29.358173076923066L179.685395078125,31.06009615384616L179.77023984375,30.124038461538447L179.81769539062498,28.975240384615404L180.308069375,28.975240384615404L180.321011796875,29.868750000000006L180.706408359375,29.187980769230762L180.76536828125,28.932692307692292L180.9005446875,29.741105769230785L181.554856015625,30.29423076923075L181.57498867187502,29.443269230769232L181.790695703125,29.06033653846154L182.16027375000002,30.03894230769231L182.38892320312502,29.91129807692309L182.51978546875,29.741105769230785L182.723988125,29.52836538461537L182.95551367187502,29.27307692307693L183.159716328125,30.081490384615392L183.562369453125,29.91129807692309L183.64290007812502,29.358173076923066L183.67022296875,30.251682692307696L183.86579734375002,29.06033653846154L183.990907421875,30.29423076923075L184.33891476562502,29.826201923076923L184.842231171875,29.78365384615384L184.955836875,28.634855769230768L185.14278296875,29.230528846153845L185.331167109375,30.464423076923083L185.434706484375,29.485817307692315L185.47497179687502,30.592067307692304L185.995544765625,30.379326923076917L186.375189140625,29.613461538461536L186.46434804687502,30.889903846153857L186.6067146875,30.209134615384613L186.9403415625,29.953846153846143L186.9978634375,30.29423076923075L187.36887953125,29.187980769230762L187.396202421875,29.40072115384615L187.51843640624998,30.93245192307691L187.58602460937502,29.698557692307674L187.67949765625,29.613461538461536L187.96710703124998,29.570913461538453L188.00449625000002,29.91129807692309L188.066332265625,30.251682692307696L188.5624584375,29.826201923076923L188.752280625,30.336778846153834L188.8730765625,29.91129807692309L189.090221640625,29.741105769230785L189.343317890625,29.996394230769226L189.38070710937498,29.65600961538462L189.54608249999998,30.719711538461553L189.81499726562498,29.78365384615384L189.895527890625,28.847596153846155L190.08391203125,29.102884615384596L190.223402578125,29.613461538461536L190.49087929687502,29.953846153846143L191.14087648437499,29.868750000000006L191.605365625,29.613461538461536L191.71034304687498,29.78365384615384L191.787997578125,30.379326923076917L191.972067578125,29.741105769230785L192.31719882812502,29.443269230769232L192.45525132812503,29.996394230769226L192.73279437500003,29.868750000000006L192.860780546875,29.145432692307708L193.007461328125,30.93245192307691L193.58124203124999,30.081490384615392L194.7748209375,29.698557692307674L194.876922265625,29.996394230769226L195.15590335937497,30.592067307692304L195.420503984375,29.613461538461536L195.644839296875,29.187980769230762L195.650591484375,30.719711538461553L195.73831234375,29.52836538461537L195.95689546875,29.698557692307674L196.17547859375,29.698557692307674L196.182668828125,29.868750000000006L196.2128678125,29.826201923076923L196.31640718749998,29.698557692307674L196.829789921875,29.230528846153845L197.31441171875002,30.54951923076925L197.52436656249998,30.336778846153834L197.57901234374998,29.975120192307685L197.816290078125,29.01778846153846L197.991731796875,29.698557692307674L198.01617859375003,31.102644230769215L198.26352265625002,30.80480769230769L198.434650234375,29.65600961538462L199.19681507812498,29.613461538461536L199.340619765625,29.868750000000006L199.444159140625,29.996394230769226L199.52325171874998,29.443269230769232L199.64692375,29.826201923076923L199.73608265625,29.91129807692309L199.841060078125,30.081490384615392L200.00643546875,30.081490384615392L200.042386640625,29.698557692307674L200.260969765625,29.31562500000001L200.399022265625,29.868750000000006L200.982869296875,30.80480769230769L201.084970625,30.634615384615387L201.20289046875,29.27307692307693L201.238841640625,30.209134615384613L201.43297796875,29.358173076923066L201.805432109375,30.081490384615392L202.66969828125,29.698557692307674L203.07378945312502,30.592067307692304L203.37146515625,29.01778846153846L203.490823046875,30.251682692307696L203.933741484375,30.592067307692304L203.939493671875,29.485817307692315L204.40254476562498,29.52836538461537L204.7030965625,29.230528846153845L205.25530656249998,30.251682692307696L205.57599101562502,30.209134615384613L205.90098960937502,29.52836538461537L205.97433,30.251682692307696L206.053422578125,30.081490384615392L206.481960546875,29.91129807692309L206.51215953124998,29.01778846153846L206.906184375,30.29423076923075L207.00972374999998,29.31562500000001L207.59932296875,29.613461538461536L207.74887984375002,30.67716346153847L208.078192578125,29.06033653846154L208.20905484374998,29.230528846153845L208.70086687499997,29.40072115384615L209.08626343749998,29.570913461538453L209.2473246875,30.464423076923083L209.27608562499998,30.421875L209.766459609375,30.336778846153834L209.878627265625,28.67740384615385L210.1216571875,29.358173076923066L210.39488609375002,29.570913461538453L210.396324140625,29.741105769230785L210.522872265625,28.719951923076934L210.89532640625,29.507091346153857L211.04488328125,29.65600961538462L211.22895328125,31.06009615384616L211.43459398437503,29.40072115384615L211.484925625,29.570913461538453L211.49211585937502,29.01778846153846L211.946538671875,29.485817307692315L211.992556171875,30.464423076923083L212.12198039062503,29.826201923076923L212.426846328125,29.31562500000001L213.007817265625,29.01778846153846L213.279608125,29.443269230769232L213.493877109375,29.145432692307708L213.982813046875,29.65600961538462L214.13524601562497,29.868750000000006L214.15394062500002,30.081490384615392L214.28192679687498,29.27307692307693L214.497633828125,29.52836538461537L214.609801484375,30.251682692307696L214.618429765625,29.698557692307674L214.62562,31.82596153846154L215.084356953125,30.124038461538447L215.130374453125,29.78365384615384L215.21378117187498,30.592067307692304L215.282807421875,29.06033653846154L215.39928921875,30.336778846153834L215.44962085937502,31.102644230769215L216.0464103125,29.102884615384596L216.07373320312502,29.570913461538453L216.34408601562498,29.230528846153845L216.374285,29.27307692307693L216.50802335937502,29.06033653846154L216.76830984375,29.719831730769215L216.77262398437497,29.698557692307674L216.81720343749998,29.485817307692315L216.89341992187502,29.52836538461537L217.071737734375,30.506971153846166L217.12494546874998,29.40072115384615L217.149392265625,29.485817307692315L217.536226875,29.868750000000006L217.70735445312502,30.251682692307696L217.710230546875,29.91129807692309L217.877043984375,29.443269230769232L218.242307890625,29.485817307692315L218.64783710937502,29.52836538461537L219.136773046875,29.443269230769232L219.706239609375,29.78365384615384L219.97227828125,29.78365384615384L220.068627421875,28.698677884615392L220.721500703125,29.485817307692315L220.72293875,29.52836538461537L221.194618125,29.358173076923066L221.216188828125,29.826201923076923L221.35711742187502,29.65600961538462L221.406011015625,30.379326923076917L221.452028515625,29.27307692307693L221.843177265625,29.485817307692315L221.89350890625002,29.78365384615384L221.938088359375,30.124038461538447L221.999924375,29.485817307692315L222.42414820312501,29.868750000000006L222.458661328125,28.975240384615404L222.507554921875,29.230528846153845L222.552134375,29.01778846153846L222.61109429687502,28.719951923076934L222.94759726562498,28.719951923076934L223.0755834375,29.06033653846154L223.289852421875,29.01778846153846L223.358878671875,29.31562500000001L223.81617757812498,29.187980769230762L223.974362734375,29.443269230769232L224.15987078125002,29.31562500000001L224.3640734375,29.52836538461537L224.88033226562501,29.31562500000001L225.00400429687502,29.06033653846154L225.357763828125,28.890144230769238L226.28674210937498,29.868750000000006L226.29105625000003,28.80504807692307L226.367272734375,29.65600961538462L226.86915109375,30.54951923076925L226.9525578125,29.570913461538453L227.998017890625,30.379326923076917L228.14182257812502,29.91129807692309L228.32445453124998,29.91129807692309L228.328768671875,29.358173076923066L228.706975,28.847596153846155L229.09812375,29.31562500000001L229.159959765625,29.102884615384596L229.385733125,29.65600961538462L229.692037109375,29.01778846153846L229.73230242187498,29.187980769230762L229.74524484375002,28.890144230769238L229.78551015625,29.27307692307693L230.002655234375,28.932692307692292L231.34435296875,29.78365384615384L231.538489296875,29.868750000000006L231.549993671875,30.762259615384608L231.82753671875003,28.507211538461547L231.952646796875,29.996394230769226L232.4343925,30.124038461538447L232.50917093750002,29.443269230769232L232.89456750000002,29.613461538461536L232.9348328125,29.443269230769232L233.344676171875,29.868750000000006L233.47841453125,30.29423076923075L233.72575859375,29.868750000000006L234.178743359375,28.932692307692292L234.34699484375,30.124038461538447L234.61734765625,29.358173076923066L234.69787828125,29.826201923076923L234.963916953125,29.52836538461537L235.10628359375,29.06033653846154L235.26159265625,29.01778846153846L235.71601546875002,29.31562500000001L235.774975390625,29.102884615384596L235.878514765625,29.102884615384596L235.89864742187498,29.145432692307708L236.013691171875,29.06033653846154L236.29411031249998,29.613461538461536L236.295548359375,29.52836538461537L236.43360085937502,29.443269230769232L236.52707390625,29.698557692307674L236.62342304687502,30.03894230769231L236.82618765625,29.187980769230762L236.83193984375,29.230528846153845L237.946426171875,29.443269230769232L238.09166890625,30.124038461538447L238.18801804687502,29.187980769230762L238.29011937500002,28.67740384615385L238.6640115625,29.06033653846154L238.75317046875,29.485817307692315L238.76179875,28.975240384615404L238.81069234375,28.890144230769238L238.99476234374998,29.741105769230785L239.11555828125,29.187980769230762L239.19608890625,29.27307692307693L239.4348046875,29.485817307692315L239.45493734375,29.31562500000001L239.52827773437502,28.975240384615404L239.597303984375,29.613461538461536L239.65482585937502,29.01778846153846L239.928054765625,28.54975961538463L240.62838359375,29.01778846153846L240.9016125,29.741105769230785L241.05979765625,29.52836538461537L241.2294871875,29.06033653846154L241.511344375,29.06033653846154L241.682471953125,29.52836538461537L242.04198367187502,29.91129807692309L242.318088671875,29.953846153846143L242.43457046875,29.145432692307708L242.45182703125,29.65600961538462L242.591317578125,28.975240384615404L243.46421203124999,29.996394230769226L243.528924140625,30.16658653846153L243.557685078125,29.65600961538462L243.646843984375,29.570913461538453L243.6569103125,29.27307692307693L243.73456484375,30.16658653846153L244.42482734375,29.91129807692309L244.67936164062502,29.01778846153846L245.337987109375,29.145432692307708L245.44584062500002,30.16658653846153L245.52924734374997,28.03918269230769L245.89163515625,29.102884615384596L245.98654625,29.187980769230762L246.40645593749997,29.443269230769232L246.45534953125,29.741105769230785L246.50711921875,29.31562500000001L246.9471615625,28.975240384615404L247.230456796875,29.145432692307708L247.526694453125,30.336778846153834L247.7294590625,29.358173076923066L247.77260046875,29.102884615384596L247.802799453125,29.01778846153846L248.20401453125,29.31562500000001L248.21983304687498,29.230528846153845L248.32049632812502,29.570913461538453L248.76629085937498,29.996394230769226L248.81374640625,29.65600961538462L248.93454234375,28.80504807692307L249.122926484375,29.698557692307674L249.27248335937497,29.78365384615384L249.436420703125,29.27307692307693L249.804560703125,29.953846153846143L249.89659570312497,29.06033653846154L250.132435390625,28.80504807692307L250.164072421875,29.230528846153845L250.27048789062502,29.06033653846154L250.3294478125,28.932692307692292L250.43586328125,28.847596153846155L250.60267671875002,29.52836538461537L250.89028609375,29.52836538461537L250.891724140625,29.145432692307708L251.5143984375,28.719951923076934L251.791941484375,29.65600961538462L251.918489609375,29.40072115384615L252.217603359375,29.31562500000001L252.72667195312502,29.443269230769232L253.0789934375,28.67740384615385L253.094811953125,28.719951923076934L253.79657882812498,30.421875L253.805207109375,30.974999999999994L253.95332593749998,30.03894230769231L255.154095078125,31.230288461538464L255.182856015625,29.102884615384596L255.43882835937498,28.847596153846155L255.66747781249998,29.40072115384615L256.321789140625,29.485817307692315L256.6798628125,28.975240384615404L257.023556015625,29.40072115384615L257.299661015625,28.932692307692292L257.34280242187504,28.890144230769238L257.3586209375,28.379567307692326L257.53262460937503,29.102884615384596L258.18693593750004,30.506971153846166L258.353749375,29.230528846153845L258.514810625,28.29447115384616L258.516248671875,29.06033653846154L258.5320671875,29.31562500000001L258.691690390625,28.932692307692292L258.98649,29.102884615384596L259.462483515625,29.230528846153845L259.46679765625,29.485817307692315L259.49555859375,29.443269230769232L259.504186875,29.27307692307693L259.505624921875,29.741105769230785L259.543014140625,28.67740384615385L259.55308046875,28.932692307692292L259.563146796875,29.145432692307708L259.61060234375,29.31562500000001L259.642239375,29.230528846153845L259.643677421875,29.443269230769232L259.65661984375,30.16658653846153L259.666686171875,30.421875L259.6710003125,28.890144230769238L259.681066640625,30.379326923076917L259.68538078125,29.613461538461536L259.712703671875,29.443269230769232L259.7170178125,29.40072115384615L259.73283632812496,29.06033653846154L259.74865484375,29.01778846153846L259.7630353125,29.40072115384615L259.76591140625004,29.826201923076923L259.767349453125,29.996394230769226L259.77166359374996,29.741105769230785L259.80617671875,30.081490384615392L259.813366953125,29.187980769230762L259.81480500000004,28.634855769230768L259.8205571875,29.613461538461536L259.847880078125,29.01778846153846L259.862260546875,29.890024038461547L259.87376492187497,29.741105769230785L259.891021484375,29.953846153846143L259.948543359375,30.506971153846166L259.96148578124996,29.570913461538453L259.962923828125,29.102884615384596L259.971552109375,29.358173076923066L259.974428203125,29.741105769230785L259.987370625,29.52836538461537L260.037702265625,28.847596153846155L260.077967578125,28.76249999999999L260.08228171875004,30.081490384615392L260.086595859375,29.953846153846143L260.09953828125,28.847596153846155L260.13980359375,29.40072115384615L260.17431671875,29.06033653846154L260.1886971875,29.358173076923066L260.267789765625,30.762259615384608L260.276418046875,30.67716346153847L260.28217023437503,29.31562500000001L260.286484375,30.54951923076925L260.302302890625,30.16658653846153L260.328187734375,30.251682692307696L260.33537796875,29.358173076923066L260.379957421875,30.634615384615387L260.38714765625,28.80504807692307L260.388585703125,29.443269230769232L260.391461796875,30.209134615384613L260.40871835937503,29.443269230769232L260.411594453125,29.698557692307674L260.428851015625,30.592067307692304L260.443231484375,29.187980769230762L260.46192609375,29.996394230769226L260.469116328125,29.52836538461537L260.470554375,29.27307692307693L260.492125078125,29.358173076923066L260.500753359375,30.081490384615392L260.515133828125,29.40072115384615L260.54964695312503,29.698557692307674L260.57409375000003,28.890144230769238L260.585598125,28.975240384615404L260.60573078125,29.443269230769232L260.650310234375,29.358173076923066L260.6603765625,29.78365384615384L260.664690703125,28.634855769230768L260.67619507812503,28.847596153846155L260.699203828125,30.889903846153857L260.704956015625,29.145432692307708L260.71214625,30.464423076923083L260.71502234375,29.145432692307708L260.71789843749997,31.017548076923077L260.722212578125,29.230528846153845L260.77254421875,29.31562500000001L260.78117249999997,29.91129807692309L260.782610546875,29.443269230769232L260.792676875,30.124038461538447L260.80561929687497,29.698557692307674L260.8214378125,29.613461538461536L260.834380234375,29.91129807692309L260.851636796875,29.31562500000001L260.874645546875,30.209134615384613L260.877521640625,29.187980769230762L260.8789596875,29.40072115384615L260.88183578125,29.16670673076925L260.89046406250003,29.187980769230762" style="fill: none;" fill="none"></path></g></g></g></g></g></g><g transform="translate(42, 177)" clip-path="url(#clip_1)"><clipPath id="clip_1"><rect width="287" height="23"></rect></clipPath><g><g><line x1="0" y1="0" x2="0" y2="5" style="visibility: inherit;" fill="rgb(0, 0, 0)" stroke="rgb(204, 204, 204)" stroke-width="1px"></line><line x1="28.7609375" y1="0" x2="28.7609375" y2="5" style="visibility: inherit;" fill="rgb(0, 0, 0)" stroke="rgb(204, 204, 204)" stroke-width="1px"></line><line x1="57.521875" y1="0" x2="57.521875" y2="5" style="visibility: inherit;" fill="rgb(0, 0, 0)" stroke="rgb(204, 204, 204)" stroke-width="1px"></line><line x1="86.28281249999999" y1="0" x2="86.28281249999999" y2="5" style="visibility: inherit;" fill="rgb(0, 0, 0)" stroke="rgb(204, 204, 204)" stroke-width="1px"></line><line x1="115.04375" y1="0" x2="115.04375" y2="5" style="visibility: inherit;" fill="rgb(0, 0, 0)" stroke="rgb(204, 204, 204)" stroke-width="1px"></line><line x1="143.8046875" y1="0" x2="143.8046875" y2="5" style="visibility: inherit;" fill="rgb(0, 0, 0)" stroke="rgb(204, 204, 204)" stroke-width="1px"></line><line x1="172.56562499999998" y1="0" x2="172.56562499999998" y2="5" style="visibility: inherit;" fill="rgb(0, 0, 0)" stroke="rgb(204, 204, 204)" stroke-width="1px"></line><line x1="201.3265625" y1="0" x2="201.3265625" y2="5" style="visibility: inherit;" fill="rgb(0, 0, 0)" stroke="rgb(204, 204, 204)" stroke-width="1px"></line><line x1="230.0875" y1="0" x2="230.0875" y2="5" style="visibility: inherit;" fill="rgb(0, 0, 0)" stroke="rgb(204, 204, 204)" stroke-width="1px"></line><line x1="258.8484375" y1="0" x2="258.8484375" y2="5" style="visibility: inherit;" fill="rgb(0, 0, 0)" stroke="rgb(204, 204, 204)" stroke-width="1px"></line><line x1="287.609375" y1="0" x2="287.609375" y2="5" style="visibility: inherit;" fill="rgb(0, 0, 0)" stroke="rgb(204, 204, 204)" stroke-width="1px"></line></g><g transform="translate(0, 8)"><text x="0" y="0" dx="0em" dy="0.95em" style="text-anchor: middle; visibility: hidden; font-family: &quot;Helvetica Neue&quot;, sans-serif; font-size: 12px; font-weight: 200;" fill="rgb(50, 49, 63)" stroke="none" stroke-width="1px">-20k</text><text x="28.7609375" y="0" dx="0em" dy="0.95em" style="text-anchor: middle; visibility: inherit; font-family: &quot;Helvetica Neue&quot;, sans-serif; font-size: 12px; font-weight: 200;" fill="rgb(50, 49, 63)" stroke="none" stroke-width="1px">0</text><text x="57.521875" y="0" dx="0em" dy="0.95em" style="text-anchor: middle; visibility: hidden; font-family: &quot;Helvetica Neue&quot;, sans-serif; font-size: 12px; font-weight: 200;" fill="rgb(50, 49, 63)" stroke="none" stroke-width="1px">20k</text><text x="86.28281249999999" y="0" dx="0em" dy="0.95em" style="text-anchor: middle; visibility: inherit; font-family: &quot;Helvetica Neue&quot;, sans-serif; font-size: 12px; font-weight: 200;" fill="rgb(50, 49, 63)" stroke="none" stroke-width="1px">40k</text><text x="115.04375" y="0" dx="0em" dy="0.95em" style="text-anchor: middle; visibility: hidden; font-family: &quot;Helvetica Neue&quot;, sans-serif; font-size: 12px; font-weight: 200;" fill="rgb(50, 49, 63)" stroke="none" stroke-width="1px">60k</text><text x="143.8046875" y="0" dx="0em" dy="0.95em" style="text-anchor: middle; visibility: inherit; font-family: &quot;Helvetica Neue&quot;, sans-serif; font-size: 12px; font-weight: 200;" fill="rgb(50, 49, 63)" stroke="none" stroke-width="1px">80k</text><text x="172.56562499999998" y="0" dx="0em" dy="0.95em" style="text-anchor: middle; visibility: hidden; font-family: &quot;Helvetica Neue&quot;, sans-serif; font-size: 12px; font-weight: 200;" fill="rgb(50, 49, 63)" stroke="none" stroke-width="1px">100k</text><text x="201.3265625" y="0" dx="0em" dy="0.95em" style="text-anchor: middle; visibility: inherit; font-family: &quot;Helvetica Neue&quot;, sans-serif; font-size: 12px; font-weight: 200;" fill="rgb(50, 49, 63)" stroke="none" stroke-width="1px">120k</text><text x="230.0875" y="0" dx="0em" dy="0.95em" style="text-anchor: middle; visibility: hidden; font-family: &quot;Helvetica Neue&quot;, sans-serif; font-size: 12px; font-weight: 200;" fill="rgb(50, 49, 63)" stroke="none" stroke-width="1px">140k</text><text x="258.8484375" y="0" dx="0em" dy="0.95em" style="text-anchor: middle; visibility: inherit; font-family: &quot;Helvetica Neue&quot;, sans-serif; font-size: 12px; font-weight: 200;" fill="rgb(50, 49, 63)" stroke="none" stroke-width="1px">160k</text><text x="287.609375" y="0" dx="0em" dy="0.95em" style="text-anchor: middle; visibility: hidden; font-family: &quot;Helvetica Neue&quot;, sans-serif; font-size: 12px; font-weight: 200;" fill="rgb(50, 49, 63)" stroke="none" stroke-width="1px">180k</text></g><line x1="0" y1="0" x2="287.609375" y2="0" fill="rgb(0, 0, 0)" stroke="rgb(204, 204, 204)" stroke-width="1px"></line></g></g></g></g></svg>