<svg viewBox="0 0 330 200" xmlns="http://www.w3.org/2000/svg"><g><g><g><g><g><line x1="53.1875" y1="177" x2="48.1875" y2="177" style="visibility: inherit;" fill="rgb(0, 0, 0)" stroke="rgb(204, 204, 204)" stroke-width="1px"></line><line x1="53.1875" y1="157.33333333333334" x2="48.1875" y2="157.33333333333334" style="visibility: inherit;" fill="rgb(0, 0, 0)" stroke="rgb(204, 204, 204)" stroke-width="1px"></line><line x1="53.1875" y1="137.66666666666669" x2="48.1875" y2="137.66666666666669" style="visibility: inherit;" fill="rgb(0, 0, 0)" stroke="rgb(204, 204, 204)" stroke-width="1px"></line><line x1="53.1875" y1="118" x2="48.1875" y2="118" style="visibility: inherit;" fill="rgb(0, 0, 0)" stroke="rgb(204, 204, 204)" stroke-width="1px"></line><line x1="53.1875" y1="98.33333333333334" x2="48.1875" y2="98.33333333333334" style="visibility: inherit;" fill="rgb(0, 0, 0)" stroke="rgb(204, 204, 204)" stroke-width="1px"></line><line x1="53.1875" y1="78.66666666666666" x2="48.1875" y2="78.66666666666666" style="visibility: inherit;" fill="rgb(0, 0, 0)" stroke="rgb(204, 204, 204)" stroke-width="1px"></line><line x1="53.1875" y1="59" x2="48.1875" y2="59" style="visibility: inherit;" fill="rgb(0, 0, 0)" stroke="rgb(204, 204, 204)" stroke-width="1px"></line><line x1="53.1875" y1="39.33333333333334" x2="48.1875" y2="39.33333333333334" style="visibility: inherit;" fill="rgb(0, 0, 0)" stroke="rgb(204, 204, 204)" stroke-width="1px"></line><line x1="53.1875" y1="19.666666666666686" x2="48.1875" y2="19.666666666666686" style="visibility: inherit;" fill="rgb(0, 0, 0)" stroke="rgb(204, 204, 204)" stroke-width="1px"></line><line x1="53.1875" y1="0" x2="48.1875" y2="0" style="visibility: inherit;" fill="rgb(0, 0, 0)" stroke="rgb(204, 204, 204)" stroke-width="1px"></line></g><g transform="translate(43.1875, 0)"><text x="0" y="177" dx="0em" dy="0.3em" style="text-anchor: end; visibility: hidden; font-family: &quot;Helvetica Neue&quot;, sans-serif; font-size: 12px; font-weight: 200;" fill="rgb(50, 49, 63)" stroke="none" stroke-width="1px">-100</text><text x="0" y="157.33333333333334" dx="0em" dy="0.3em" style="text-anchor: end; visibility: inherit; font-family: &quot;Helvetica Neue&quot;, sans-serif; font-size: 12px; font-weight: 200;" fill="rgb(50, 49, 63)" stroke="none" stroke-width="1px">0</text><text x="0" y="137.66666666666669" dx="0em" dy="0.3em" style="text-anchor: end; visibility: hidden; font-family: &quot;Helvetica Neue&quot;, sans-serif; font-size: 12px; font-weight: 200;" fill="rgb(50, 49, 63)" stroke="none" stroke-width="1px">100</text><text x="0" y="118" dx="0em" dy="0.3em" style="text-anchor: end; visibility: inherit; font-family: &quot;Helvetica Neue&quot;, sans-serif; font-size: 12px; font-weight: 200;" fill="rgb(50, 49, 63)" stroke="none" stroke-width="1px">200</text><text x="0" y="98.33333333333334" dx="0em" dy="0.3em" style="text-anchor: end; visibility: hidden; font-family: &quot;Helvetica Neue&quot;, sans-serif; font-size: 12px; font-weight: 200;" fill="rgb(50, 49, 63)" stroke="none" stroke-width="1px">300</text><text x="0" y="78.66666666666666" dx="0em" dy="0.3em" style="text-anchor: end; visibility: inherit; font-family: &quot;Helvetica Neue&quot;, sans-serif; font-size: 12px; font-weight: 200;" fill="rgb(50, 49, 63)" stroke="none" stroke-width="1px">400</text><text x="0" y="59" dx="0em" dy="0.3em" style="text-anchor: end; visibility: hidden; font-family: &quot;Helvetica Neue&quot;, sans-serif; font-size: 12px; font-weight: 200;" fill="rgb(50, 49, 63)" stroke="none" stroke-width="1px">500</text><text x="0" y="39.33333333333334" dx="0em" dy="0.3em" style="text-anchor: end; visibility: inherit; font-family: &quot;Helvetica Neue&quot;, sans-serif; font-size: 12px; font-weight: 200;" fill="rgb(50, 49, 63)" stroke="none" stroke-width="1px">600</text><text x="0" y="19.666666666666686" dx="0em" dy="0.3em" style="text-anchor: end; visibility: hidden; font-family: &quot;Helvetica Neue&quot;, sans-serif; font-size: 12px; font-weight: 200;" fill="rgb(50, 49, 63)" stroke="none" stroke-width="1px">700</text><text x="0" y="0" dx="0em" dy="0.3em" style="text-anchor: end; visibility: hidden; font-family: &quot;Helvetica Neue&quot;, sans-serif; font-size: 12px; font-weight: 200;" fill="rgb(50, 49, 63)" stroke="none" stroke-width="1px">800</text></g><line x1="53.1875" y1="0" x2="53.1875" y2="177" fill="rgb(0, 0, 0)" stroke="rgb(204, 204, 204)" stroke-width="1px"></line></g></g><g transform="translate(53, 0)" clip-path="url(#clip_0)"><clipPath id="clip_0"><rect width="276" height="177"></rect></clipPath><g><g><g><line x1="0" y1="0" x2="0" y2="177" fill="rgb(0, 0, 0)" stroke="rgb(60, 60, 60)" stroke-width="1px" opacity="0.25"></line><line x1="30.756944444444443" y1="0" x2="30.756944444444443" y2="177" fill="rgb(0, 0, 0)" stroke="rgb(60, 60, 60)" stroke-width="1px" opacity="0.25"></line><line x1="61.513888888888886" y1="0" x2="61.513888888888886" y2="177" fill="rgb(0, 0, 0)" stroke="rgb(60, 60, 60)" stroke-width="1px" opacity="0.25"></line><line x1="92.27083333333333" y1="0" x2="92.27083333333333" y2="177" fill="rgb(0, 0, 0)" stroke="rgb(60, 60, 60)" stroke-width="1px" opacity="0.25"></line><line x1="123.02777777777777" y1="0" x2="123.02777777777777" y2="177" fill="rgb(0, 0, 0)" stroke="rgb(60, 60, 60)" stroke-width="1px" opacity="0.25"></line><line x1="153.78472222222223" y1="0" x2="153.78472222222223" y2="177" fill="rgb(0, 0, 0)" stroke="rgb(60, 60, 60)" stroke-width="1px" opacity="0.25"></line><line x1="184.54166666666666" y1="0" x2="184.54166666666666" y2="177" fill="rgb(0, 0, 0)" stroke="rgb(60, 60, 60)" stroke-width="1px" opacity="0.25"></line><line x1="215.29861111111111" y1="0" x2="215.29861111111111" y2="177" fill="rgb(0, 0, 0)" stroke="rgb(60, 60, 60)" stroke-width="1px" opacity="0.25"></line><line x1="246.05555555555554" y1="0" x2="246.05555555555554" y2="177" fill="rgb(0, 0, 0)" stroke="rgb(60, 60, 60)" stroke-width="1px" opacity="0.25"></line><line x1="276.8125" y1="0" x2="276.8125" y2="177" fill="rgb(0, 0, 0)" stroke="rgb(60, 60, 60)" stroke-width="1px" opacity="0.25"></line></g><g><line x1="0" y1="177" x2="276.8125" y2="177" fill="rgb(0, 0, 0)" stroke="rgb(60, 60, 60)" stroke-width="1px" opacity="0.25"></line><line x1="0" y1="157.33333333333334" x2="276.8125" y2="157.33333333333334" fill="rgb(0, 0, 0)" stroke="rgb(60, 60, 60)" stroke-width="1px" opacity="0.25"></line><line x1="0" y1="137.66666666666669" x2="276.8125" y2="137.66666666666669" fill="rgb(0, 0, 0)" stroke="rgb(60, 60, 60)" stroke-width="1px" opacity="0.25"></line><line x1="0" y1="118" x2="276.8125" y2="118" fill="rgb(0, 0, 0)" stroke="rgb(60, 60, 60)" stroke-width="1px" opacity="0.25"></line><line x1="0" y1="98.33333333333334" x2="276.8125" y2="98.33333333333334" fill="rgb(0, 0, 0)" stroke="rgb(60, 60, 60)" stroke-width="1px" opacity="0.25"></line><line x1="0" y1="78.66666666666666" x2="276.8125" y2="78.66666666666666" fill="rgb(0, 0, 0)" stroke="rgb(60, 60, 60)" stroke-width="1px" opacity="0.25"></line><line x1="0" y1="59" x2="276.8125" y2="59" fill="rgb(0, 0, 0)" stroke="rgb(60, 60, 60)" stroke-width="1px" opacity="0.25"></line><line x1="0" y1="39.33333333333334" x2="276.8125" y2="39.33333333333334" fill="rgb(0, 0, 0)" stroke="rgb(60, 60, 60)" stroke-width="1px" opacity="0.25"></line><line x1="0" y1="19.666666666666686" x2="276.8125" y2="19.666666666666686" fill="rgb(0, 0, 0)" stroke="rgb(60, 60, 60)" stroke-width="1px" opacity="0.25"></line><line x1="0" y1="0" x2="276.8125" y2="0" fill="rgb(0, 0, 0)" stroke="rgb(60, 60, 60)" stroke-width="1px" opacity="0.25"></line></g></g></g><g><g><line x1="0" y1="157.33333333333334" x2="276.8125" y2="157.33333333333334" fill="rgb(0, 0, 0)" stroke="rgb(153, 153, 153)" stroke-width="1.5px"></line></g></g><g><g><line x1="30.756944444444443" y1="0" x2="30.756944444444443" y2="177" fill="rgb(0, 0, 0)" stroke="rgb(153, 153, 153)" stroke-width="1.5px"></line></g></g><g><g><g><g><g><path stroke="rgb(255, 112, 67)" stroke-width="2px" d="M30.878434374999998,157.01080000281334L30.88458576388889,157.00458947008116L30.906115624999998,156.98075571728367L30.92764548611111,156.97387747590955L30.97378090277778,156.97932618215157L30.97685659722222,156.97739050837333L30.986083680555556,156.9633694881956L30.992235069444444,156.95612701511098L30.99684861111111,156.92620540334784L31.001462152777776,156.91787122433L31.003,156.92246089971988L31.006075694444448,156.92389004585692L31.00915138888889,156.93992873958666L31.019916319444444,156.94843808792325L31.058362499999998,156.95412978502893L31.061438194444445,156.9545899566914L31.12448993055556,156.94648429122722L31.175238888888888,156.94757253598132L31.209071527777777,156.9466970120876L31.249055555555554,156.94898761236644L31.262896180555558,156.94245768658504L31.276736805555554,156.94654806029888L31.33363715277778,156.9509674857913L31.352091319444447,156.9540499485755L31.367469791666664,156.9573516818837L31.370545486111112,156.96150383499193L31.39668888888889,156.96323624215648L31.435135069444446,156.96078429591464L31.478194791666667,156.95860313063122L31.48127048611111,156.9612243021758L31.50741388888889,156.9616846520249L31.50895173611111,156.95830763771485L31.524330208333335,156.95272870858048L31.53048159722222,156.9504561215731L31.544322222222224,156.94686221501254L31.593533333333333,156.95098896272003L31.605836111111113,156.94986732460762L31.611987499999998,156.94329774964L31.65197152777778,156.94568906571465L31.653509375,156.95031903000728L31.658122916666667,156.94927321474083L31.65966076388889,156.93718786907428L31.66735,156.9311271792956L31.719636805555556,156.93486018791725L31.794991319444442,156.94486730810937L31.810369791666666,156.95127146343302L31.814983333333334,156.95271977291125L31.841126736111114,156.95061495733327L31.870345833333335,156.94822868696022L31.873421527777776,156.9508395631729L31.956465277777777,156.95334297518622L31.959540972222225,156.95200308421514L31.968768055555557,156.94421797234065L31.97953298611111,156.94083473317346L31.985684375,156.94627448048593L31.987222222222222,156.9402669422887L32.025668402777775,156.94133547514397L32.11640138888889,156.93824506959277L32.17483958333333,156.93945807307063L32.20559652777778,156.94936339906974L32.23635347222223,156.95207341758314L32.26711041666667,156.94907383261108L32.37168402777778,156.95073384077443L32.39321388888889,156.94697420370233L32.42550868055556,156.94180159719747L32.443962847222224,156.93787165283865L32.46241701388889,156.92308765455138L32.49471180555555,156.92002939790288L32.51777951388889,156.92720689268384L32.52854444444444,156.9311705048993L32.59928541666667,156.9241828453801L32.614663888888884,156.92397657907318L32.670026388888886,156.9230132643672L32.722313194444446,156.9207776846163L32.725388888888894,156.91778214117141L32.765372916666664,156.90977459433262L32.76998645833333,156.90264446073292L32.77152430555556,156.89379095794885L32.773062152777776,156.89419767718007L32.77767569444444,156.90123778087855L32.811508333333336,156.90511476511065L32.81919756944445,156.8979492412166L32.871484375,156.89702373613227L32.92992256944444,156.89059316887958L32.979133680555556,156.88242168513887L32.98374722222222,156.8692677311543L33.01604201388889,156.8748847557385L33.06679097222222,156.86619849398483L33.077555902777775,156.85517986128036L33.09754791666667,156.85523330712527L33.10062361111111,156.84706839315248L33.17444027777778,156.82899812182973L33.18828090277778,156.8317779522814L33.21134861111111,156.82635350831274L33.21596215277778,156.82718247847492L33.219037847222225,156.80932770394048L33.231340625,156.80747532485427L33.297468055555555,156.8093816999542L33.314384375,156.8100608342998L33.31592222222222,156.81440153170615L33.32668715277778,156.80593818932823L33.33283854166667,156.79460219117183L33.34052777777778,156.7734502046322L33.39127673611111,156.76341453174783L33.492774652777776,156.758948008519L33.517380208333336,156.74830946594838L33.55582638888889,156.7372219700424L33.55736423611111,156.7398676216436L33.63118090277778,156.73810703049853L33.64194583333333,156.74053290724038L33.72806527777778,156.72966841609735L33.74959513888889,156.718391967425L33.849555208333335,156.7059664789245L33.85878229166667,156.7029215353742L33.872622916666664,156.69000862301922L33.90184201388889,156.67426958399446L33.92029618055555,156.6789907936147L33.99565069444444,156.67654331649152L34.014104861111115,156.66428400449402L34.05408888888889,156.6630579830474L34.078694444444444,156.6566632769561L34.16635173611111,156.64701991092534L34.170965277777775,156.6468179193573L34.19249513888889,156.6505694696411L34.21248715277778,156.63573830508312L34.22017638888889,156.62552001384458L34.25400902777778,156.6231659254908L34.283228125,156.6204326624756L34.29553090277778,156.60603223401517L34.315522916666666,156.59819244446157L34.34781770833334,156.58859900098045L34.38933958333333,156.57719464353605L34.393953125,156.57287302630752L34.43086145833333,156.5532079288707L34.44777777777778,156.5309204563742L34.48776180555556,156.52266173912818L34.55696493055556,156.51092680889556L34.600024652777776,156.50704102687817L34.64000868055555,156.49010775013699L34.69998472222222,156.49068836866306L34.767649999999996,156.49259869913843L34.856845138888886,156.48848936524968L34.9337375,156.45313000193798L34.95372951388889,156.41516074196386L35.01985694444444,156.38961240317514L35.02600833333333,156.364755324338L35.06753020833334,156.33439436953637L35.14288472222222,156.3021528438005L35.18133090277778,156.26698963740543L35.21208784722222,156.24864550714082L35.27052604166667,156.2454583787165L35.29051805555556,156.20060003587088L35.34741840277778,156.18296711385747L35.38586458333333,156.15335856913288L35.39816736111111,156.11525187580597L35.481211111111115,156.09017460306768L35.584246875,156.06023005746695L35.761099305555554,156.01852996592964L35.882589236111116,155.99636446816115L35.91334618055555,155.91680093421405L35.914884027777774,155.89927709003985L35.96563298611111,155.89026604735415L36.080971527777784,155.86391685500652L36.09942569444445,155.82648350166693L36.11172847222222,155.8026268174945L36.125569097222225,155.74858288437417L36.13018263888889,155.71469334516306L36.18862083333334,155.68296359332814L36.21476423611111,155.59356306567548L36.220915624999996,155.55427967512082L36.430062847222224,155.4599246228621L36.46389548611111,155.3756196594394L36.54847708333333,155.3181826927986L36.756086458333336,155.179218588668L36.954468750000004,155.05998943696284L36.96677152777777,154.96896965912816L37.06519375,154.90671852605317L37.094412847222216,154.80951542275147L37.24358402777778,154.70359512979337L37.33124131944444,154.63653769975824L37.348157638888885,154.57495684612746L37.35738472222222,154.54411741136974L37.37122534722222,154.48501816998277L37.448117708333335,154.44657885283814L37.4804125,154.34376471720202L37.58344826388888,154.2567632452135L37.757225,154.13052442034177L37.82489027777778,154.0144511446843L38.064794444444445,153.87003727989122L38.13245972222222,153.743137718312L38.143224652777775,153.59020936286896L38.26471458333334,153.48699050974625L38.297009375,153.32956229187275L38.31700138888889,153.22475189587965L38.35544756944444,153.1500892062025L38.58612465277778,153.05154903547628L38.733757986111115,152.8341076733849L38.878315625,152.7530302393091L38.95367013888889,152.5774251319072L39.16435520833333,152.49005761865484L39.23509618055555,152.16313518991512L39.30276145833333,152.0588112541973L39.44116770833333,151.78484679530334L39.46884895833333,151.72388294907813L39.52267361111111,151.63214048746542L39.528825000000005,151.6165618553797L39.64570138888889,151.01991608630706L39.64723923611111,150.84615364429027L39.6949125,150.67563202981464L39.785645486111115,150.6020584101484L40.01632256944445,150.56595673579224L40.15934236111111,150.3472464788361L40.23931041666667,150.37350099762386L40.271605208333334,150.19493214783265L40.282370138888886,149.91806393300917L40.35926250000001,149.8360492063642L40.46844965277777,149.96627761907644L40.47613888888889,149.97039985716924L40.648377777777775,149.8106307047704L40.65760486111111,149.94647388430502L40.69451319444445,150.10376399588665L40.83291944444445,150.13961676296714L41.03130173611112,149.9684571699931L41.21276770833334,150.02705936966373L41.341946875000005,150.13634301603622L41.443444791666664,149.46769829773547L41.82021736111111,149.1080638846138L42.112408333333335,149.01547624614903L42.140089583333335,147.97401195483286L42.24312534722222,147.94812117601546L42.369228819444444,147.7084861417408L42.45688611111111,147.35822086089155L43.00128402777778,147.07063835812946L43.26886944444445,145.84937660562588L43.490319444444445,145.55718894505816L43.49954652777778,145.57078255055254L43.51184930555555,146.01629804550367L43.593355208333335,145.66193907428206L43.705618055555554,146.2378493335272L43.81480520833333,146.4120019001763L44.03010381944444,146.66215587682768L44.38380868055555,146.81538820581287L44.83439791666667,146.61097438523004L45.080453472222224,146.4159394467057L45.38340937500001,146.41187675203508L45.39109861111111,146.4982567851654L45.43415833333333,146.2917540233145L45.55718611111111,146.1882557043159L45.694054513888894,146.10494055055065L46.12618958333333,145.58008191216035L46.53218125,145.03949038760922L46.653671180555556,143.5069371821771L46.850515625,143.0667226306249L47.00122465277778,143.83332120089756L47.00430034722222,143.40963491414024L47.1134875,143.78179642272693L47.27803715277778,142.58581469711882L47.42259479166667,142.614451977407L47.45335173611112,141.94451719633201L47.47026805555556,141.5788050600317L47.50256284722222,141.1765287206947L47.71171006944444,141.6441675152924L47.73785347222222,141.9906778470968L47.739391319444444,142.35108922905408L47.82704861111111,142.6699282228156L48.22227534722222,142.6858520672007L48.27763784722222,142.4377564438138L48.52369340277778,140.85501204943156L48.81127083333334,141.7069587611555L48.88970104166667,142.34956496837356L49.1619,142.59849388820297L49.32183611111111,142.88030074938277L49.52021840277778,142.2765831744443L49.583270138888885,142.32502168927527L49.61710277777778,142.45410285368112L49.67554097222222,143.07300506831314L49.76473611111111,143.20718372814852L49.78780381944444,142.7576111886669L50.60286284722222,143.06837090313363L50.74742048611111,143.536731729487L50.753571875000006,143.8302843484695L50.85660763888889,143.87337049695589L51.136495833333335,144.30240844726035L51.17494201388889,144.43438268533868L51.28259131944444,144.75077775013818L51.37486215277778,145.16336664179104L51.3764,144.6976341442786L51.482511458333335,145.33371447985076L51.53941180555555,144.809770115199L51.613228472222225,144.62277227034576L51.708574999999996,144.19573462664448L51.89311666666667,144.31044241398004L51.917722222222224,145.0430325993348L52.42367395833333,144.7890730894013L52.537474652777775,144.53170348747207L52.578996527777775,144.43335605539153L52.76507604166667,145.01408492968028L52.77584097222222,145.1256878973344L52.835817013888885,145.19656702426764L53.27410347222222,145.4828374051742L53.40482048611111,145.7269599146568L53.41712326388888,146.33375853111653L53.56783229166667,146.25054399010816L53.57398368055556,146.61026042443066L53.62011909722222,146.2327656319876L53.84772048611111,145.81066615212217L54.09531388888889,145.97837037024328L54.11991944444444,146.5322952433396L54.12914652777778,147.1632377777469L54.158365624999995,146.6032264999722L54.23987152777778,145.83801843330832L54.26447708333333,146.02326867331084L54.269090625000004,146.34671263931307L54.37212638888889,146.54316637538176L54.45055659722222,146.5927559878436L54.45670798611111,146.52921997239258L54.47208645833334,146.77810005848664L54.65201458333333,146.7716233859713L54.684309375,146.63919021404084L54.71967986111111,146.66817443538375L54.95958402777778,146.88717990851205L54.996492361111116,146.7745348343275L55.45323298611111,146.53648359800576L55.83923263888889,146.58612690487186L55.929965625,146.73651421438467L56.096053125,146.65122737627954L56.24522430555555,146.95182338865158L56.26829201388889,146.81251201510827L56.297511111111106,146.83270873026413L56.35594930555556,146.5306878572377L56.40977395833334,145.7438482381806L56.57739930555556,145.8838175810292L56.58970208333333,145.33313373959297L56.60046701388889,145.279403698967L56.746562499999996,145.41542166240362L56.85113611111111,144.61534824616325L57.011072222222225,144.4311790323054L57.047980555555554,144.1763319624082L57.39860972222222,143.93898001616736L57.47088854166667,143.28655076455064L57.83228263888889,142.6002183123021L58.08448958333334,143.0809777310719L58.11217083333333,142.53401537463137L58.15369270833334,142.0380617538349L58.22597152777778,140.8510513548186L58.37975625,140.92225871933675L58.559684374999996,141.80435576406973L58.59505486111111,141.4231597709961L58.648879513888886,140.43477087722982L58.68117430555556,140.89791878950683L59.04871979166666,141.42599149388948L59.094855208333335,141.97254859450055L59.12715,141.92484581838383L59.234799305555555,141.91837194567222L59.57927708333333,142.16432641777166L59.78842430555556,142.58665419266117L59.833021875,142.9845721067284L60.13905347222222,142.8105880482162L60.18211319444445,142.98821674339456L60.29898958333333,143.09154090238846L60.715746180555556,143.23492847881627L60.83262256944444,142.04815438093465L60.99102083333333,141.59402644284117L61.06637534722222,141.46647327060296L61.37548263888888,141.51608636020933L61.510813194444445,141.0856652241884L61.689203472222225,140.8998299232865L62.12902777777778,140.50952401429117L62.24897986111112,141.0356406016621L62.25974479166666,140.9150765414959L62.46427847222222,139.9595911295745L62.46889201388889,139.43468409995037L62.48273263888888,140.02365318995533L63.15015833333333,138.62303223538038L63.20859652777777,138.57561076131338L63.21628576388889,138.46378090669896L63.44081145833333,137.98680287604697L63.66379930555556,137.9209871717756L63.76068368055556,138.54586621236984L63.86679513888889,138.26496709113286L63.88371145833334,138.1541266320196L63.888325,138.15323621104582L63.94214965277778,138.26437092327456L63.96521736111111,137.77383699867173L63.98059583333333,137.61684913213787L64.00212569444444,137.44421630225742L64.06517743055555,137.63055508869834L64.20204583333333,137.88614541316184L64.55728854166667,138.35522981593746L64.69569479166667,137.22498808434372L64.74183020833333,137.75406219257601L64.85255520833334,139.053811518871L64.86793368055555,138.2249199503172L64.91714479166667,138.00868837195216L65.04171041666666,137.91118411809026L65.28007673611111,138.03095464518506L65.32467430555556,138.57881619411464L65.36773402777777,138.97009012025575L65.74758229166666,138.93439360823015L65.80909618055556,138.98003209520581L65.95672951388889,139.14676846901858L66.04131111111111,139.68954995545005L66.09052222222222,140.20878245990505L66.172028125,141.18635980448053L66.17971736111112,141.06854674069916L66.62261736111111,140.16856124285806L67.113190625,138.9055384519056L67.57146909722222,138.22729710671504L67.84981944444445,138.0513903127102L67.92209826388888,136.8980637814392L68.00821770833333,135.81151781996192L68.04205034722222,135.4964842884947L68.06819375,134.36358253831548L68.16354027777777,134.08791178448394L68.39421736111112,133.67264143936887L68.40036875,133.29828354543199L68.552615625,133.4333614408888L68.63873506944444,133.6729315467999L68.73869513888889,134.72990922545324L68.95245590277779,134.4391162195746L69.20620069444445,133.0172477342138L69.72137951388889,132.67339796079244L69.88900486111112,131.85936024804653L70.16735520833333,131.31274669740367L70.23809618055556,130.66587208768118L70.36266180555556,132.5932744622464L70.38419166666667,133.09754076602178L70.44724340277779,133.9668387727529L70.77480486111111,134.0462624368798L70.85784861111112,133.75438619319183L70.90398402777778,133.8524579905393L71.403784375,133.57566010815205L71.43915486111112,133.95095868067017L71.58217465277778,134.26783156260316L71.71442951388889,133.72947548967616L71.73903506944444,133.4735800240419L71.7421107638889,134.12635098129346L72.08505069444443,133.9647471331641L72.178859375,134.55741825318103L72.50488298611111,135.4399055945296L72.94316944444444,134.7093629517433L72.95547222222221,134.69165582323564L73.08618923611111,135.2190110742454L73.12617326388889,134.5717980517411L73.23382256944446,135.56347241323368L73.23997395833334,135.02092725524363L73.36146388888889,134.7631053630526L73.51063506944445,134.9348469100807L73.55215694444445,135.08081013573928L73.58752743055555,134.92701037216534L74.19651493055555,135.39334058494882L74.39182152777778,134.70002735978727L74.57174965277778,133.95055162169265L74.61327152777777,132.45697653154488L75.06693645833333,133.00547890839934L75.14690451388888,133.23867060089273L75.32990833333334,133.30907231928654L75.44986041666667,131.8174984206912L75.50522291666667,130.76700899528876L75.625175,130.65248517909322L75.65593194444445,130.09277832785057L75.832784375,130.14407032945678L76.04039375,129.38384037984443L76.04346944444445,128.34686259186L76.89389895833334,128.19840549934065L76.90927743055556,127.1545961994066L77.22914965277778,125.77565882169412L77.48289444444444,126.15271646959471L77.50750000000001,125.99504898930189L77.576703125,127.00426284037171L77.73356354166667,126.80507613966788L77.74432847222224,126.75118310903443L77.79815312500001,126.13553780024687L77.94271076388888,125.43237104923422L78.46711666666666,125.20599852764414L78.71471006944445,125.36722672867205L78.71932361111111,125.20513947247149L78.73316423611111,125.01562552522435L78.89002465277778,124.11247963936859L79.2791,124.4728879254317L79.28371354166666,123.97248454955522L79.29601631944445,123.4950798445997L79.46364166666667,124.4310197768064L79.50516354166668,124.13945946579241L79.76813541666667,125.47187912997164L79.86194409722222,125.01715366000832L80.46016666666667,124.44019871067417L81.06761631944445,123.95105383960674L81.14604652777777,123.38360470564606L81.33520173611112,122.9011713184148L81.97033263888889,121.41911668657332L82.44552743055556,121.24621543458264L82.56547951388889,122.54286472445771L83.05759062499999,122.41369283534527L83.3205625,121.79286521847742L83.43436319444444,121.687068279963L83.44820381944444,122.02636145196672L83.74347048611111,122.6998607234367L83.75731111111111,122.53655173442637L83.80190868055556,121.86021903514552L84.14484861111112,121.08270754829763L84.22327881944445,121.24090554346787L84.6492625,120.08835665578775L84.81073645833334,121.0380105735423L84.87378819444444,120.38328243285476L85.11523020833333,120.38156877290261L85.25517430555556,120.135422312279L85.54736527777779,119.15426549771777L85.7226798611111,119.14085978127932L85.74113402777778,119.79746130315141L85.95181909722221,118.30926725616959L86.05177916666668,119.0096946972193L86.66076666666666,118.11038147749738L86.86222465277777,118.5430724964143L86.90220868055555,119.17519541238158L86.93142777777778,118.87944670447678L86.94065486111111,118.79703328402908L87.03600138888889,118.52435078895952L87.33126805555555,117.93538446006356L87.39893333333333,117.59583559739053L87.45583368055556,117.24563121347342L87.55425590277777,116.95108892545943L88.11864583333335,116.62134657954434L88.21706805555556,117.17159733825656L88.344709375,117.29868760443091L88.50003194444444,116.54404801065448L88.71994409722222,116.37067445958903L88.77530659722223,116.55941951363013L88.82605555555556,116.83192547893378L89.15515486111111,116.42756626437374L89.2381986111111,115.53940338793636L89.88870798611111,116.1646609658094L89.91485138888889,116.55961153589513L89.9640625,116.4739945748105L89.99635729166667,116.7522080883174L90.13630138888888,118.97640394615232L90.34544861111111,119.17990938487043L90.53460381944446,118.92056427971673L90.77912152777778,117.93920576841171L90.83909756944445,118.64345185823721L91.03747986111111,118.03028375574684L91.06516111111111,117.65993290601037L91.251240625,117.48014383904214L91.500371875,117.37909820513794L91.69875416666666,117.68333421795747L92.00171006944444,118.68358412949505L92.77832291666667,118.23418404987888L92.8905857638889,117.974765644891L92.92749409722222,117.6601640804019L92.93518333333333,118.4021476723617L93.15201979166667,116.51326623845887L93.6179875,116.40135628127965L93.88864861111112,116.78308523648502L94.102409375,117.52734962950316L94.18699097222222,116.38723966655287L94.27926180555555,116.94250472882823L94.54992291666667,116.28371258927874L94.67910208333333,116.28940383035086L94.77137291666666,115.9755571973158L94.87287083333334,117.11216814425087L95.15737256944445,116.96431694058425L96.233865625,116.13003107985915L96.65831145833333,117.40606963853992L97.21501215277777,116.47598350801925L97.59947395833333,118.43587474055066L98.19462083333333,117.29955809982894L98.68058055555557,116.78513353984604L98.87434930555555,117.79796437836632L99.62174305555556,116.559501273863L99.99851562500001,116.86722867231492L100.45218055555556,117.56198356285523L100.47217256944445,117.51236853990306L100.66132777777777,116.24039210257942L101.050403125,116.25041539232149L101.24109618055556,115.43159260308934L101.29338298611111,116.73261042611372L101.3195263888889,116.56988063350235L101.33798055555556,116.19775290136957L101.43640277777779,115.91335261123261L101.631709375,114.43068401677601L101.66861770833334,116.06410519843175L101.69168541666667,116.22819467858855L101.8116375,115.34583354406305L102.06999583333334,115.84171893965674L102.19609930555556,115.72321371235773L102.61131805555556,116.45207514650119L102.76971631944444,116.58904471518443L103.08036145833334,116.72189288343648L103.10189131944445,114.76012026175948L103.44329340277778,115.2655489602743L103.51864791666667,115.72705656424688L103.7293329861111,116.16822590782218L104.16761944444444,116.36246581703998L104.39675868055556,116.33262548533597L104.45981041666667,116.43606085346903L104.5597704861111,115.38111101812213L104.72278229166668,113.76053116630992L104.96114861111111,113.42178013301228L105.33638333333333,113.26747711971105L106.40518715277777,113.35538565773993L106.60664513888888,112.75047209196593L106.6835375,111.91334976883707L106.77888402777778,111.74395229195335L106.94189583333332,112.34989039609134L106.98649340277777,112.4289444930789L107.54011840277776,111.127550043771L107.76156840277778,112.3384200393939L107.96148854166667,111.5202986978894L108.00762395833333,110.34664382810048L108.01685104166667,111.50592736195709L108.61199791666667,112.06622004242804L108.7811611111111,111.90488970485191L108.87496979166666,110.7622236510334L108.94724861111112,109.70555336926338L109.85611631944444,110.21111261567037L110.86494409722222,110.37272171644872L111.35705520833334,109.20873079480386L111.56620243055555,109.07058365729937L111.60157291666667,108.47193154156943L111.78150104166666,108.59505088741248L112.09675972222223,108.63456663200456L112.45354027777778,108.83115163547077L112.78725312499999,109.9342552219237L112.95180277777777,110.06601719973133L113.49312499999999,109.76422797975819L113.700734375,109.52334684844905L113.79915659722222,108.77864655284569L114.01599305555557,108.4433443975611L114.09134756944444,109.39393454378319L114.76031111111111,109.13108275607154L115.00944236111111,108.07896406379771L115.11555381944444,108.74595307408461L115.93061284722222,107.70653485000949L116.06440555555555,108.32533969834188L116.11976805555557,108.08822239517436L116.98096249999999,108.17780640565691L117.37618923611112,108.83798409842456L117.493065625,108.64670652191543L117.52536041666666,107.92880670305723L117.55919305555555,106.81131144941817L117.64377465277778,107.42314905447635L118.37886562499999,106.87062581569539L118.56186944444444,106.57707907274889L118.63722395833332,105.39010033214068L118.65414027777777,104.64386113225994L118.88174166666667,104.3725178555411L118.95555833333334,102.888516069987L119.707565625,102.4194769629883L119.87057743055554,102.31815426668948L120.46418645833333,101.53432842335386L120.50263263888888,101.86876016435181L120.565684375,103.22007164791663L120.66564444444445,103.2439999282747L120.79789930555556,102.18628743544723L121.10854444444445,101.34435660856917L121.45609791666668,101.20919178104559L122.10353159722222,101.25962676960769L122.2404,101.54777867598025L122.29883819444444,101.71863519762377L122.37880625,102.33025084452805L122.54489375,102.15426742674191L123.35995277777778,102.61521850185744L123.901275,101.56975064743992L124.01661354166667,101.67877558269593L124.83936180555555,99.90180427442634L124.99929791666666,98.78743634698371L125.19768020833332,99.57500432727558L125.3330107638889,99.55654556121469L125.54062013888888,99.8718076717599L125.6098232638889,99.0941581545839L126.20804583333334,99.89754442245884L126.48178263888889,99.71100873021295L127.41218020833333,100.07228285719165L127.53674583333333,99.23771082147249L128.33950208333334,99.31792918024321L128.731653125,98.2711675122189L129.10381215277778,97.93506117766368L129.3606326388889,97.42729464323065L129.46981979166668,96.81850267890758L129.7435565972222,95.75249616101682L129.7712378472222,95.47404862824848L129.85735729166666,95.61739376542363L130.171078125,95.52208147221461L130.20337291666667,95.33981082499315L130.48326111111112,94.85372557582717L130.60936458333333,94.29333218491112L131.1414597222222,94.52401979975333L131.6735548611111,94.71996156977801L132.04878958333333,95.21404874613353L132.4763111111111,95.15415428818685L132.7162152777778,94.99515552603484L133.09606354166667,95.42300455676468L133.2913701388889,94.69198535108822L133.34058125,95.5557763993127L133.58509895833333,96.09046753786451L134.60622951388888,95.80613359332284L134.80153611111112,95.69440565065722L135.26135243055555,95.76900675225818L135.45512118055555,95.76731441036569L135.5981409722222,97.01769755266245L136.13177395833333,97.08718821406288L136.4070486111111,96.93339647598992L136.48701666666668,97.03221307839094L136.49470590277778,97.5150563254021L136.88685694444445,97.3916131928619L136.90684895833334,96.72124354024237L137.11753402777777,95.82113072186266L137.22825902777777,95.55241348300973L137.67115902777778,93.99228671804208L137.79726250000002,94.08775596290454L138.143278125,94.17859494994741L140.54231979166667,93.69862087161933L140.76376979166665,94.05146711779072L140.88833541666668,94.7473744017799L140.91601666666668,94.43140386834018L141.1820642361111,94.9193155648395L142.22318680555554,95.10465278683861L142.2554815972222,95.39925000815474L142.40157708333334,95.57719589763875L142.61226215277776,94.48904922454153L143.3335125,93.44641513542072L143.60263576388888,93.37276320521198L143.74719340277775,92.15167438469079L143.93788645833334,92.8061006962217L144.23161527777776,93.17936562659953L144.64529618055556,93.04637698060624L145.1943076388889,93.31387469921229L145.24505659722223,93.10655178414132L146.0447371527778,91.97661535572719L146.9812861111111,91.39426521134912L147.1519871527778,91.31564077354754L148.44531666666666,90.46439875836727L148.46377083333334,89.85557346586387L148.6190934027778,88.73097328277032L149.160415625,89.47995106842558L149.29574618055557,89.54051846158303L149.40339548611112,89.98774786542474L149.53718819444444,88.54668258205609L149.6817458333333,89.96231640718382L150.3091875,90.14304309979876L151.59944131944445,90.06293670648556L151.6732579861111,89.93024327590862L152.0269628472222,89.29309394831776L153.00349583333332,87.88152633408495L153.30183819444446,87.36689453400979L154.34142291666666,87.35298633060883L154.4121638888889,87.90588561421461L154.72742256944446,88.05010955279315L155.14110347222223,87.18852876312256L155.21184444444447,86.86462974423218L156.16530972222222,86.97223968647563L156.59283125,88.04013030116138L156.79582708333334,87.61534643771192L157.62011319444443,87.39959304394071L157.9015392361111,86.89074832287999L158.53974583333334,87.12112140725864L158.69968194444445,86.57190509986611L159.12566562499998,85.63080833987948L159.53473298611112,84.91165458922487L160.51434166666667,84.95201612818649L160.52049305555556,85.27547076536784L160.74655659722222,84.64777785549771L161.11256423611113,85.19402090328127L161.40014166666666,83.0810354796198L161.75846006944445,83.97570276499117L162.03988611111112,83.73242415515872L162.48586180555554,84.34500465630951L162.8057340277778,84.12920407064276L163.69307187500002,82.51111699691182L163.9852628472222,82.13773446388731L164.35434618055555,82.57606518416523L164.62193159722224,82.19434408241538L165.34933333333333,81.17106592417383L166.08903784722222,82.03916766508978L166.83335590277778,82.03133423191413L167.41312430555556,80.64331539205605L169.54150486111112,78.81577551951712L169.58917812500002,80.1566354675654L170.3012013888889,80.4163365041422L170.46575104166666,79.54873410372798L170.85482638888888,79.10345444335519L171.15163090277778,78.030348582353L171.16393368055554,76.83285539078439L172.24042673611112,77.25530943503928L172.77713541666665,78.038070158202L173.43533402777777,78.75690809070537L173.58911875,77.01341094618562L173.69984374999999,75.58446773975062L174.350353125,76.01376054910891L174.38726145833334,75.83962407753135L174.47491875,75.32337000311156L174.65946041666666,74.29148091946705L175.19155555555554,74.52618699418704L176.3633951388889,76.52893287810164L176.62021562500001,75.90011250695815L176.85396840277778,75.30344500626232L177.035434375,76.34162133896943L177.46910729166666,76.33689670507249L178.11654097222223,76.56249870123189L179.15766354166666,77.55282174777538L179.44831666666667,76.02870096012347L180.46483368055556,75.92454036728493L180.54172604166666,74.59653424722313L181.04613993055554,73.14627665583416L181.06766979166667,72.70699274025074L181.15532708333333,71.96992888289232L181.64743819444445,69.1684359946031L182.364075,68.92350906180947L182.68087152777778,69.25927273896185L183.44979513888887,69.747678798399L184.31252743055555,70.37715050189243L184.59549131944445,69.9013417017032L184.81078993055556,68.87512419819953L185.2306222222222,69.24215344504624L185.37825555555557,68.76676101720828L185.86421527777776,69.76289741548746L186.01338645833334,69.51813892393872L186.22714722222221,69.09135628154485L186.55163298611112,68.387371481434L187.3528513888889,68.65383224995726L187.8449625,68.39153235829487L188.7876628472222,67.86353537246536L189.2490170138889,67.07735891855219L189.796490625,66.59535219336362L190.82223472222225,67.08096280736059L191.45890347222223,66.76699152662452L191.98023368055556,66.58397987396206L192.3139465277778,65.76658188656586L192.52155590277778,65.58097578124263L193.31508506944445,65.504888619785L195.24354548611112,65.96249350780653L195.97248506944445,66.12112957369253L196.3231142361111,67.46602703298997L196.51842083333332,66.15910141302429L197.26735243055558,66.46032668838852L197.33040416666665,65.34001276954967L197.45958333333334,64.98503232592805L198.22850694444446,63.97598742666857L198.65295277777778,65.53785743400171L198.97743854166666,65.27486746696873L199.12199618055556,64.23929738693853L199.86938993055557,64.62863848157801L200.84438506944443,64.45910796675354L201.03507812499998,62.16655133674486L201.06583506944446,62.133219119737035L203.32954618055555,62.11797012442999L203.95083645833333,62.394329361987005L204.54752118055558,61.044521425788304L204.57520243055555,60.581329699876136L204.64440555555555,59.836884229888526L205.59940868055554,60.52203955689964L205.77164756944444,59.7632418512097L206.06691423611113,61.497480166088735L206.4821329861111,60.94843006614653L207.12341527777778,61.67238914286523L207.2556701388889,61.683556478578694L207.9753826388889,59.795159164054155L209.43479965277777,60.618466164315436L213.06565694444444,61.25803621455054L213.86072395833332,59.52711800976216L214.02681145833333,59.01162495878593L214.53583888888886,58.92564996290736L214.6050420138889,57.52876204994993L215.72613263888888,57.972729594954956L215.73535972222223,58.07545663545946L216.2674548611111,56.39852555524685L216.88566944444446,56.629172999722144L217.27013125000002,56.888459923382754L217.4639,55.95710351437782L218.16669618055556,56.363413996273366L218.2651184027778,56.0973017633127L218.44658437500001,56.241915336981435L219.8644795138889,55.667140469949956L220.01672638888888,56.13563475628828L220.05363472222223,56.072987947326126L220.688765625,54.98410581926018L221.77909930555555,55.91116398733415L221.92211909722224,55.402651755267414L222.29274027777777,55.15640741307401L223.11395069444444,53.6140479217666L224.03973472222225,53.27317437958993L224.05972673611112,53.77395069163096L224.48263472222223,53.201982705801186L226.031246875,53.66009693522105L227.55679131944444,52.91759765836561L227.68750833333334,53.010817059195716L227.7121138888889,52.1525582699428L229.21766631944445,52.05493785961518L230.17266944444444,50.808589906986995L230.89391979166666,51.30814758295496L231.21686770833335,50.46220782465946L231.74896284722223,51.61528912552686L232.20262777777776,51.53083312964084L233.29449930555558,50.58027065001008L233.50364652777776,49.25583733500905L234.56783680555554,50.45334735150814L235.13068888888887,48.59155428302401L235.90268819444447,49.269794688054915L236.23178750000002,50.47021105258277L236.4793809027778,50.31957536399115L237.33288611111112,49.37459699425871L237.38517291666668,48.8098977114995L238.08643125,49.6125746070162L238.26328368055556,49.54462964631459L239.65503541666666,48.348343765016466L239.67502743055556,47.51198855518149L239.74730625,47.942341782996664L240.4178076388889,49.17102427136369L241.05293854166666,49.846630177560655L241.69422083333333,50.65318590980459L241.8787625,51.10989856882415L242.98139895833333,50.83813787860838L243.59653784722224,48.32635534074757L243.93793993055556,47.28631355667278L244.16092777777777,46.52174470100553L244.17938194444443,47.20722648090495L244.466959375,46.33932674948113L244.49156493055557,46.42477949119967L244.72839340277775,47.28589529207974L244.98367604166666,48.21147242953842L245.04365208333334,49.32904393658457L245.08671180555555,49.32448329292612L245.1466878472222,49.34742038030015L245.71876701388888,48.48060542560347L248.02861354166666,48.40294071637646L249.56338506944445,47.69387581140546L250.18467534722222,52.11804031359824L250.9505232638889,50.14570503223844L251.37343125,48.958144945681255L252.05469756944444,49.360653367779804L252.5990954861111,47.39241094766848L253.03276840277778,46.873513602901625L253.36494340277775,47.32961015927813L254.15232118055553,48.483742893350325L254.9366232638889,46.72364985401529L256.3206857638889,45.21270153528042L257.24493194444443,44.98982721508571L257.53097152777775,44.68476116024382L257.6232423611111,43.95479546088606L258.00924201388887,44.55649299813081L260.1683795138889,44.54305203165106L260.4175107638889,44.247017661819285L261.42633854166667,44.76418047897067L261.5893503472222,44.853502014406956L261.61241805555557,44.59218306296626L261.7600513888889,45.23769392333628L262.55665625,45.290726614335966L263.23177118055554,44.99674770290238L263.9330295138889,44.96939584927881L264.06989791666666,43.67812293101758L264.092965625,41.904466887915845L264.8434350694444,41.682384782457575L264.9049489583333,42.13519838754516L265.1140961805556,43.26670979879066L267.00564826388893,44.41413256891161L267.22094687500004,45.17455264535377L267.26708229166667,43.71833696415172L268.2697586805555,42.3309199344032L268.272834375,42.30772377429622L268.2743722222222,41.69193056353325L268.2759100694445,41.85370625717991L268.27744791666663,41.975335631461945L268.2805236111111,41.78488540164906L268.2820614583333,42.33192811148419L268.2835993055555,43.58512071700241L268.2851371527778,44.14266072863552L268.286675,43.597811322438616L268.2882128472222,43.290592690194785L268.2897506944445,42.45421050450864L268.2928263888889,41.632633204057754L268.2959020833333,41.432817800318645L268.2974399305555,40.39994227028677L268.2989777777778,38.93566679325809L268.3020534722222,38.52371469726563L268.3035913194444,38.88431197753903L268.3066670138889,39.00726619645181L268.3097427083334,39.7466437434733L268.3112805555555,40.38442728579264L268.3128184027778,38.87069289054671L268.31435625,38.59184235149203L268.3158940972222,37.85658519967615L268.3174319444444,39.02016626304189L268.3205076388889,40.063087136737664L268.3220454861111,38.94101800639723L268.3235833333334,37.791030789090854L268.3251211805555,39.14984437684842L268.3266590277778,37.99249535583024L268.328196875,41.56517290358056L268.3297347222222,41.424343113222506L268.3312725694444,38.90502338523359L268.3343482638889,40.23233354671021L268.3358861111111,38.916339775372535L268.3374239583333,38.59236204783528L268.3389618055555,39.57973000971842L268.3451131944444,37.48210075874658L268.3481888888889,37.427536516205265L268.3497267361111,35.687095364584735L268.3512645833333,36.33319832812626L268.3543402777778,36.09913891198025L268.355878125,34.5554541874489" style="fill: none;" fill="none"></path></g></g></g></g><g opacity="0.2"><g><g><g><path stroke="rgb(255, 112, 67)" stroke-width="2px" d="M30.878434374999998,157.01080000281334L30.88458576388889,156.9989999906222L30.906115624999998,156.94L30.92764548611111,156.95710144519805L30.97378090277778,156.99619047284125L30.97685659722222,156.970256408453L30.986083680555556,156.9042424114545L30.992235069444444,156.92212122917175L30.99684861111111,156.77283335208892L31.001462152777776,156.87192309856414L31.003,156.9493650905291L31.006075694444448,156.9327160302798L31.00915138888889,157.04350877563158L31.019916319444444,157.0055555633704L31.058362499999998,156.99363635937374L31.061438194444445,156.95787879427274L31.12448993055556,156.88705126762392L31.175238888888888,156.95573334177334L31.209071527777777,156.94L31.249055555555554,156.96681817968687L31.262896180555558,156.89083333333332L31.276736805555554,156.97933334271113L31.33363715277778,156.98682540575663L31.352091319444447,156.97933334271113L31.367469791666664,156.98469697395961L31.370545486111112,156.99619047284125L31.39668888888889,156.97782051642736L31.435135069444446,156.94L31.478194791666667,156.94L31.48127048611111,156.98370370109876L31.50741388888889,156.9656521677971L31.50895173611111,156.9290740688642L31.524330208333335,156.9042424114545L31.53048159722222,156.93063490947088L31.544322222222224,156.91541666666666L31.593533333333333,156.98720000187555L31.605836111111113,156.94L31.611987499999998,156.8853703912099L31.65197152777778,156.96681817968687L31.653509375,156.99130435903868L31.658122916666667,156.94L31.65966076388889,156.82986667792002L31.66735,156.877234026591L31.719636805555556,156.96809524814287L31.794991319444442,157.03405797203382L31.810369791666666,157.00840580423673L31.814983333333334,156.9656521677971L31.841126736111114,156.9318055399259L31.870345833333335,156.92688890139263L31.873421527777776,156.97420289039613L31.956465277777777,156.975757565101L31.959540972222225,156.94L31.968768055555557,156.8744444600741L31.97953298611111,156.9104999812444L31.985684375,156.99506666104L31.987222222222222,156.88636364062626L32.025668402777775,156.95092593113583L32.11640138888889,156.9104999812444L32.17483958333333,156.9503508845965L32.20559652777778,157.03833333333333L32.23635347222223,156.97641975482304L32.26711041666667,156.92212122917175L32.37168402777778,156.9656521677971L32.39321388888889,156.91318179686863L32.42550868055556,156.89530302604038L32.443962847222224,156.90253968477248L32.46241701388889,156.79015873908997L32.49471180555555,156.89252874533335L32.51777951388889,156.99175437609355L32.52854444444444,156.96681817968687L32.59928541666667,156.86133331457773L32.614663888888884,156.92212122917175L32.670026388888886,156.9143478322029L32.722313194444446,156.90066665728887L32.725388888888894,156.89083333333332L32.765372916666664,156.83773333708444L32.76998645833333,156.838494626681L32.77152430555556,156.81413331270218L32.773062152777776,156.89785716295242L32.77767569444444,156.96458333333334L32.811508333333336,156.94L32.81919756944445,156.83347220659255L32.871484375,156.88869566440582L32.92992256944444,156.83272728125255L32.979133680555556,156.80888887325924L32.98374722222222,156.7508974178632L33.01604201388889,156.9254321074486L33.06679097222222,156.78803030729293L33.077555902777775,156.75602149327597L33.09754791666667,156.85571427901584L33.10062361111111,156.7735897652308L33.17444027777778,156.66637682994207L33.18828090277778,156.85679488261542L33.21134861111111,156.77753622372944L33.21596215277778,156.83464283704757L33.219037847222225,156.64864196141562L33.231340625,156.790804588L33.297468055555555,156.82653845071792L33.314384375,156.81617284297943L33.31592222222222,156.8534666554133L33.32668715277778,156.72977013111114L33.33283854166667,156.69258064667383L33.34052777777778,156.58308642148972L33.39127673611111,156.6730952246984L33.492774652777776,156.71875L33.517380208333336,156.65256408452987L33.55582638888889,156.63743591547012L33.55736423611111,156.7636781835556L33.63118090277778,156.72226189136506L33.64194583333333,156.76236557324728L33.72806527777778,156.6318889013926L33.74959513888889,156.6169047753016L33.849555208333335,156.5941379213333L33.85878229166667,156.67551722844442L33.872622916666664,156.57379311800003L33.90184201388889,156.53261900742848L33.92029618055555,156.7214814710617L33.99565069444444,156.65451611995698L34.014104861111115,156.55395063638687L34.05408888888889,156.65202382961908L34.078694444444444,156.59911110798518L34.16635173611111,156.56022986888885L34.170965277777775,156.645L34.19249513888889,156.68433334271114L34.21248715277778,156.5022581068675L34.22017638888889,156.53355556805928L34.25400902777778,156.60197916666667L34.283228125,156.59583333333333L34.29553090277778,156.47642855803173L34.315522916666666,156.52763442675274L34.34781770833334,156.5022581068675L34.38933958333333,156.4745555305481L34.393953125,156.53397850672405L34.43086145833333,156.37622219721476L34.44777777777778,156.33033335208893L34.48776180555556,156.44833333333332L34.55696493055556,156.4053125L34.600024652777776,156.47206900755563L34.64000868055555,156.33770833333332L34.69998472222222,156.49591393311817L34.767649999999996,156.50979166666667L34.856845138888886,156.45150537331898L34.9337375,156.13489583333333L34.95372951388889,156.0734375L35.01985694444444,156.15967741330465L35.02600833333333,156.14104166666667L35.06753020833334,156.06114583333334L35.14288472222222,156.01197916666666L35.18133090277778,155.95052083333334L35.21208784722222,156.08354835987092L35.27052604166667,156.21677422682444L35.29051805555556,155.796875L35.34741840277778,156.02427083333333L35.38586458333333,155.88688169320423L35.39816736111111,155.77229166666666L35.481211111111115,155.86447916666665L35.584246875,155.79072916666667L35.761099305555554,155.64322916666666L35.882589236111116,155.796875L35.91334618055555,155.20072916666666L35.914884027777774,155.7415625L35.96563298611111,155.80916666666667L36.080971527777784,155.62677413304647L36.09942569444445,155.48958333333334L36.11172847222222,155.58791666666667L36.125569097222225,155.2621875L36.13018263888889,155.4096875L36.18862083333334,155.39739583333335L36.21476423611111,154.78895833333334L36.220915624999996,155.20072916666666L36.430062847222224,154.61072916666666L36.46389548611111,154.616875L36.54847708333333,154.80125L36.756086458333336,153.92854166666666L36.954468750000004,153.98692708333334L36.96677152777777,154.14979166666666L37.06519375,154.34645833333335L37.094412847222216,153.9346875L37.24358402777778,153.7503125L37.33124131944444,154.03302083333332L37.348157638888885,154.02072916666665L37.35738472222222,154.2665625L37.37122534722222,153.953125L37.448117708333335,154.100625L37.4804125,153.4184375L37.58344826388888,153.47375L37.757225,152.994375L37.82489027777778,152.96979166666668L38.064794444444445,152.5703125L38.13245972222222,152.60104166666667L38.143224652777775,152.21385416666666L38.26471458333334,152.55802083333333L38.297009375,151.91270833333334L38.31700138888889,152.28145833333335L38.35544756944444,152.478125L38.58612465277778,152.1646875L38.733757986111115,150.87713541666668L38.878315625,152.02333333333334L38.95367013888889,150.99697916666668L39.16435520833333,151.70375L39.23509618055555,149.22083333333333L39.30276145833333,151.11989583333332L39.44116770833333,149.31916666666666L39.46884895833333,151.17520833333333L39.52267361111111,150.80645833333332L39.528825000000005,151.47635416666668L39.64570138888889,145.65010416666667L39.64723923611111,149.28229166666665L39.6949125,149.1409375L39.785645486111115,149.93989583333334L40.01632256944445,150.24104166666666L40.15934236111111,148.37885416666666L40.23931041666667,150.60979166666667L40.271605208333334,148.58781249999998L40.282370138888886,147.42625L40.35926250000001,149.09791666666666L40.46844965277777,151.13833333333332L40.47613888888889,150.0075L40.648377777777775,148.37270833333332L40.65760486111111,151.1690625L40.69451319444445,151.519375L40.83291944444445,150.46229166666666L41.03130173611112,148.42802083333333L41.21276770833334,150.55447916666665L41.341946875000005,151.11989583333332L41.443444791666664,143.44989583333333L41.82021736111111,145.87135416666666L42.112408333333335,148.1821875L42.140089583333335,138.60083333333333L42.24312534722222,147.71510416666666L42.369228819444444,145.55177083333334L42.45688611111111,144.20583333333332L43.00128402777778,144.48239583333333L43.26886944444445,134.85802083333334L43.490319444444445,142.9275L43.49954652777778,145.693125L43.51184930555555,150.0259375L43.593355208333335,142.47270833333334L43.705618055555554,151.42104166666667L43.81480520833333,147.979375L44.03010381944444,148.91354166666667L44.38380868055555,148.19447916666667L44.83439791666667,144.77125L45.080453472222224,144.660625L45.38340937500001,146.3753125L45.39109861111111,147.27567708333333L45.43415833333333,144.43322916666665L45.55718611111111,145.25677083333335L45.694054513888894,145.35510416666668L46.12618958333333,140.85635416666668L46.53218125,140.17416666666668L46.653671180555556,129.71395833333332L46.850515625,139.10479166666667L47.00122465277778,150.73270833333333L47.00430034722222,139.59645833333332L47.1134875,147.13125L47.27803715277778,131.82197916666667L47.42259479166667,142.8721875L47.45335173611112,135.91510416666665L47.47026805555556,138.28739583333333L47.50256284722222,137.55604166666666L47.71171006944444,145.85291666666666L47.73785347222222,145.10927083333334L47.739391319444444,145.59479166666665L47.82704861111111,145.53947916666667L48.22227534722222,142.82916666666665L48.27763784722222,140.20489583333332L48.52369340277778,126.6103125L48.81127083333334,149.37447916666667L48.88970104166667,148.13302083333335L49.1619,144.83885416666666L49.32183611111111,145.4165625L49.52021840277778,136.843125L49.583270138888885,142.7609683227539L49.61710277777778,143.61583333333334L49.67554097222222,148.643125L49.76473611111111,144.41479166666667L49.78780381944444,138.71145833333333L50.60286284722222,145.86520833333333L50.74742048611111,147.75197916666667L50.753571875000006,146.47225791931152L50.85660763888889,144.26114583333333L51.136495833333335,148.16375L51.17494201388889,145.62215082804363L51.28259131944444,147.59833333333333L51.37486215277778,148.87666666666667L51.3764,140.50604166666668L51.482511458333335,151.0584375L51.53941180555555,140.09427083333333L51.613228472222225,142.93979166666668L51.708574999999996,140.35239583333333L51.89311666666667,145.3428125L51.917722222222224,151.63634426752725L52.42367395833333,142.50343750000002L52.537474652777775,142.21537707010904L52.578996527777775,143.54822916666666L52.76507604166667,150.24064479827882L52.77584097222222,146.13011460622153L52.835817013888885,145.83447916666665L53.27410347222222,148.05927083333333L53.40482048611111,147.9240625L53.41712326388888,151.79494607925415L53.56783229166667,145.5016131210327L53.57398368055556,149.84770833333334L53.62011909722222,142.8353125L53.84772048611111,142.01177083333334L54.09531388888889,147.48770833333333L54.11991944444444,151.51761910120646L54.12914652777778,152.8417205874125L54.158365624999995,141.563125L54.23987152777778,138.95114583333333L54.26447708333333,147.69052083333332L54.269090625000004,149.25770833333334L54.37212638888889,148.31125L54.45055659722222,147.0390625L54.45670798611111,145.95739583333332L54.47208645833334,149.01802083333334L54.65201458333333,146.71333333333334L54.684309375,145.44729166666667L54.71967986111111,146.9290324274699L54.95958402777778,148.85822916666666L54.996492361111116,145.76072916666666L55.45323298611111,144.39402247111002L55.83923263888889,147.03291666666667L55.929965625,148.09L56.096053125,145.88364583333333L56.24522430555555,149.6571875L56.26829201388889,145.55870965321859L56.297511111111106,147.01447916666666L56.35594930555556,143.8125L56.40977395833334,138.66229166666668L56.57739930555556,147.14354166666666L56.58970208333333,140.37697916666667L56.60046701388889,144.79583333333335L56.746562499999996,146.63958333333335L56.85113611111111,137.4146875L57.011072222222225,142.77365610758463L57.047980555555554,141.88270833333334L57.39860972222222,141.80281250000002L57.47088854166667,137.4146875L57.83228263888889,136.42322624206543L58.08448958333334,147.4078125L58.11217083333333,137.61135416666667L58.15369270833334,137.57447916666666L58.22597152777778,130.16795776367186L58.37975625,141.563125L58.559684374999996,149.74322916666665L58.59505486111111,137.99239583333332L58.648879513888886,131.53927083333332L58.68117430555556,145.06625L59.04871979166666,146.17864583333335L59.094855208333335,146.8915625L59.12715,141.49552083333333L59.234799305555555,141.8601070912679L59.57927708333333,144.37791666666666L59.78842430555556,146.38760416666668L59.833021875,146.56583333333333L60.13905347222222,141.24473152160644L60.18211319444445,144.586875L60.29898958333333,144.02145833333333L60.715746180555556,144.52541666666667L60.83262256944444,131.3671875L60.99102083333333,137.506875L61.06637534722222,140.318494720459L61.37548263888888,141.96260416666667L61.510813194444445,137.211875L61.689203472222225,139.22731221516926L62.12902777777778,136.99677083333333L62.24897986111112,145.7706898880005L62.25974479166666,139.82999999999998L62.46427847222222,131.3602224222819L62.46889201388889,134.71052083333333L62.48273263888888,145.324375L63.15015833333333,126.01744364420573L63.20859652777777,138.14881749471027L63.21628576388889,137.45731221516928L63.44081145833333,133.69400060017904L63.66379930555556,137.32864583333333L63.76068368055556,144.1697775777181L63.86679513888889,135.736875L63.88371145833334,137.1565625L63.888325,138.1452224222819L63.94214965277778,139.26458333333335L63.96521736111111,133.3590316772461L63.98059583333333,136.20395833333333L64.00212569444444,135.89052083333334L64.06517743055555,139.30760416666666L64.20204583333333,140.18645833333335L64.55728854166667,142.57698944091797L64.69569479166667,127.0528125L64.74183020833333,142.51572916666666L64.85255520833334,150.7515554555257L64.86793368055555,130.76489583333333L64.91714479166667,136.06260416666666L65.04171041666666,137.03364583333334L65.28007673611111,139.1088893890381L65.32467430555556,143.50957013448078L65.36773402777777,142.4915554555257L65.74758229166666,138.613125L65.80909618055556,139.39077847798666L65.95672951388889,140.64739583333335L66.04131111111111,144.57458333333335L66.09052222222222,144.881875L66.172028125,149.98455590566L66.17971736111112,140.00822916666667L66.62261736111111,132.0686917622884L67.113190625,127.53833333333333L67.57146909722222,132.12312500000002L67.84981944444445,136.46822916666667L67.92209826388888,126.518125L68.00821770833333,126.03260416666666L68.04205034722222,132.6611825052897L68.06819375,124.16746678670248L68.16354027777777,131.606875L68.39421736111112,129.93520833333332L68.40036875,129.9290625L68.552615625,134.6490625L68.63873506944444,135.8290625L68.73869513888889,144.24270833333333L68.95245590277779,131.82197916666667L69.20620069444445,120.22043136596679L69.72137951388889,129.57874999999999L69.88900486111112,124.53302083333334L70.16735520833333,126.39322474161784L70.23809618055556,124.84400060017904L70.36266180555556,149.93989583333334L70.38419166666667,137.6359375L70.44724340277779,141.79052083333335L70.77480486111111,134.7610754140218L70.85784861111112,131.1275L70.90398402777778,134.73510416666667L71.403784375,131.08447916666665L71.43915486111112,137.32864583333333L71.58217465277778,137.1196875L71.71442951388889,128.88427083333335L71.73903506944444,131.17052083333334L71.7421107638889,140.00128959655763L72.08505069444443,132.5103125L72.178859375,139.89145833333333L72.50488298611111,143.38229166666667L72.94316944444444,128.13447916666667L72.95547222222221,134.53229166666665L73.08618923611111,139.96520833333332L73.12617326388889,128.74688084920246L73.23382256944446,144.48854166666666L73.23997395833334,130.13802083333334L73.36146388888889,132.44270833333334L73.51063506944445,136.48052083333334L73.55215694444445,136.39447916666666L73.58752743055555,133.5428125L74.19651493055555,139.59031249999998L74.39182152777778,128.46020833333333L74.57174965277778,127.20526997884114L74.61327152777777,119.01480072021485L75.06693645833333,137.94200030008952L75.14690451388888,135.33739583333335L75.32990833333334,133.94268778483072L75.44986041666667,118.39333333333333L75.50522291666667,121.31260416666666L75.625175,129.62177083333333L75.65593194444445,125.05541666666667L75.832784375,130.60569834391276L76.04039375,122.54177083333333L76.04346944444445,119.0140625L76.89389895833334,126.86229166666666L76.90927743055556,117.7603125L77.22914965277778,113.3652224222819L77.48289444444444,129.54623530069986L77.50750000000001,124.57604166666667L77.576703125,136.0871875L77.73356354166667,125.01239583333333L77.74432847222224,126.26614583333333L77.79815312500001,120.59473002115885L77.94271076388888,119.10387029012045L78.46711666666666,123.16864583333333L78.71471006944445,126.81828053792319L78.71932361111111,123.74635416666666L78.73316423611111,123.31L78.89002465277778,115.98416666666667L79.2791,127.71656250000001L79.28371354166666,119.46885416666666L79.29601631944445,119.19843750000001L79.46364166666667,132.85447916666666L79.50516354166668,121.51541666666667L79.76813541666667,137.46365610758463L79.86194409722222,120.92462443033855L80.46016666666667,119.24760416666666L81.06761631944445,119.54875L81.14604652777777,118.2765625L81.33520173611112,118.55927083333333L81.97033263888889,108.080625L82.44552743055556,119.69010416666667L82.56547951388889,134.21270833333332L83.05759062499999,121.25114583333334L83.3205625,116.20541666666666L83.43436319444444,120.73489583333333L83.44820381944444,125.08L83.74347048611111,128.76135416666665L83.75731111111111,121.06677083333334L83.80190868055556,115.77322474161784L84.14484861111112,114.08510416666667L84.22327881944445,122.66468749999999L84.6492625,109.71541666666666L84.81073645833334,129.58489583333332L84.87378819444444,114.49072916666665L85.11523020833333,120.36614583333333L85.25517430555556,117.92010416666668L85.54736527777779,110.32385416666666L85.7226798611111,119.02020833333333L85.74113402777778,125.706875L85.95181909722221,104.91552083333333L86.05177916666668,125.31354166666667L86.66076666666666,110.0165625L86.86222465277777,122.43729166666667L86.90220868055555,124.86430165608724L86.93142777777778,116.21770833333333L86.94065486111111,118.0553125L87.03600138888889,116.07020833333333L87.33126805555555,112.6346875L87.39893333333333,114.53989583333333L87.45583368055556,114.0937917582194L87.55425590277777,114.30020833333333L88.11864583333335,113.6536654663086L88.21706805555556,122.12385416666666L88.344709375,118.4425L88.50003194444444,109.75229166666666L88.71994409722222,114.8103125L88.77530659722223,118.258125L88.82605555555556,119.28447916666667L89.15515486111111,112.78833333333334L89.2381986111111,107.5459375L89.88870798611111,121.79197916666666L89.91485138888889,120.11416666666668L89.9640625,115.70344192504882L89.99635729166667,119.25612970987956L90.13630138888888,138.99416666666667L90.34544861111111,121.01145833333334L90.53460381944446,116.58645833333333L90.77912152777778,109.10697916666666L90.83909756944445,124.98166666666667L91.03747986111111,112.51177083333333L91.06516111111111,114.32677525838216L91.251240625,115.86204223632812L91.500371875,116.46968749999999L91.69875416666666,120.42145833333333L92.00171006944444,127.68583333333333L92.77832291666667,114.18958333333333L92.8905857638889,115.64L92.92749409722222,114.82875L92.93518333333333,125.08L93.15201979166667,99.51333333333334L93.6179875,115.39416666666666L93.88864861111112,120.21864583333333L94.102409375,124.22572916666667L94.18699097222222,106.12625L94.27926180555555,121.93989028930665L94.54992291666667,110.35458333333332L94.67910208333333,116.340625L94.77137291666666,113.1509375L94.87287083333334,127.34166666666667L95.15737256944445,115.63365610758464L96.233865625,108.62145833333334L96.65831145833333,128.89041666666665L97.21501215277777,108.10520833333334L97.59947395833333,136.07489583333333L98.19462083333333,107.07270833333334L98.68058055555557,112.15531250000001L98.87434930555555,126.91344192504883L99.62174305555556,105.41333333333334L99.99851562500001,119.63677525838216L100.45218055555556,123.8147775777181L100.47217256944445,117.06583333333333L100.66132777777777,104.79260416666666L101.050403125,116.340625L101.24109618055556,108.06218750000001L101.29338298611111,128.44177083333335L101.3195263888889,115.1053125L101.33798055555556,112.84860331217448L101.43640277777779,113.35375L101.631709375,101.08666666666667L101.66861770833334,130.76489583333333L101.69168541666667,117.705L101.8116375,107.40458333333333L102.06999583333334,120.3046875L102.19609930555556,114.65666666666667L102.61131805555556,123.01182805379233L102.76971631944444,117.82177083333335L103.08036145833334,117.91752639770507L103.10189131944445,97.10416666666667L103.44329340277778,119.81440724690755L103.51864791666667,119.88062500000001L103.7293329861111,120.13875L104.16761944444444,118.110625L104.39675868055556,116.0640625L104.45981041666667,117.36697916666667L104.5597704861111,105.8865625L104.72278229166668,99.1753125L104.96114861111111,110.37302083333333L105.33638333333333,111.87875L106.40518715277777,114.1465625L106.60664513888888,107.30625L106.6835375,104.37924886067708L106.77888402777778,110.219375L106.94189583333332,117.80333333333334L106.98649340277777,113.1404313659668L107.54011840277776,99.41499999999999L107.76156840277778,123.23625L107.96148854166667,104.15720662434896L108.00762395833333,99.78375L108.01685104166667,121.93947916666667L108.61199791666667,117.10885416666667L108.7811611111111,110.45291666666667L108.87496979166666,100.47822916666667L108.94724861111112,100.19552083333333L109.85611631944444,114.76114583333333L110.86494409722222,111.82720362345378L111.35705520833334,98.7328125L111.56620243055555,107.82725941975912L111.60157291666667,103.0840625L111.78150104166666,109.703125L112.09675972222223,108.99020833333333L112.45354027777778,110.60041666666666L112.78725312499999,119.8621875L112.95180277777777,111.251875L113.49312499999999,107.048125L113.700734375,107.35541666666667L113.79915659722222,102.07634389241537L114.01599305555557,105.425625L114.09134756944444,117.94924585978191L114.76031111111111,106.76541666666667L115.00944236111111,98.60989583333333L115.11555381944444,114.74885416666666L115.93061284722222,98.35177083333333L116.06440555555555,113.89458333333334L116.11976805555557,105.95416666666667L116.98096249999999,108.9840625L117.37618923611112,114.77958333333333L117.493065625,106.92520833333333L117.52536041666666,101.46770833333333L117.55919305555555,96.75385416666667L117.64377465277778,112.9296875L118.37886562499999,101.89791666666667L118.56186944444444,103.93515838623047L118.63722395833332,94.70729166666666L118.65414027777777,97.92770833333333L118.88174166666667,101.9304283650716L118.95555833333334,89.5325L119.707565625,98.198125L119.87057743055554,101.40625L120.46418645833333,94.47989583333333L120.50263263888888,104.87864583333332L120.565684375,115.381875L120.66564444444445,103.4593544514974L120.79789930555556,92.666875L121.10854444444445,93.76697916666666L121.45609791666668,99.99270833333333L122.10353159722222,101.71354166666667L122.2404,104.14114583333333L122.29883819444444,103.25634389241536L122.37880625,107.83479166666666L122.54489375,100.57041666666667L123.35995277777778,106.76377817789714L123.901275,92.16053995768229L124.01661354166667,102.66L124.83936180555555,83.9090625L124.99929791666666,88.758125L125.19768020833332,106.66311614990235L125.3330107638889,99.39041666666667L125.54062013888888,102.70916666666666L125.6098232638889,92.0953125L126.20804583333334,107.12802083333334L126.48178263888889,98.03218749999999L127.41218020833333,103.32375L127.53674583333333,91.7265625L128.33950208333334,100.03989440917968L128.731653125,88.8503125L129.10381215277778,94.91010416666667L129.3606326388889,92.85739583333334L129.46981979166668,91.339375L129.7435565972222,86.1584375L129.7712378472222,92.96802083333334L129.85735729166666,96.9075L130.171078125,94.66427083333333L130.20337291666667,93.699375L130.48326111111112,90.47895833333334L130.60936458333333,89.24979166666667L131.1414597222222,96.60020833333333L131.6735548611111,96.4834375L132.04878958333333,99.66083333333333L132.4763111111111,94.61510416666667L132.7162152777778,93.56416666666667L133.09606354166667,99.27364583333333L133.2913701388889,88.1128125L133.34058125,103.32989583333334L133.58509895833333,100.90268778483072L134.60622951388888,93.24712809244791L134.80153611111112,94.68885416666667L135.26135243055555,96.44041666666666L135.45512118055555,95.75208333333333L135.5981409722222,108.27114583333334L136.13177395833333,97.71260416666667L136.4070486111111,95.54927083333334L136.48701666666668,97.9215625L136.49470590277778,101.8606455485026L136.88685694444445,96.280625L136.90684895833334,90.68791666666667L137.11753402777777,87.7201153564453L137.22825902777777,93.13395833333333L137.67115902777778,79.95114583333333L137.79726250000002,94.94697916666667L138.143278125,94.99614583333333L140.54231979166667,89.37885416666667L140.76376979166665,97.22708333333333L140.88833541666668,101.01053995768228L140.91601666666668,91.58766906738282L141.1820642361111,99.31052083333333L142.22318680555554,96.77268778483072L142.2554815972222,98.050625L142.40157708333334,97.1787089029948L142.61226215277776,84.69572916666667L143.3335125,84.06270833333333L143.60263576388888,92.70989583333333L143.74719340277775,81.161875L143.93788645833334,98.6959375L144.23161527777776,96.53875L144.64529618055556,91.84947916666667L145.1943076388889,95.72135416666667L145.24505659722223,91.24064554850261L146.0447371527778,81.8071875L146.9812861111111,86.1531139119466L147.1519871527778,90.60802083333333L148.44531666666666,82.80322062174479L148.46377083333334,84.37614583333334L148.6190934027778,78.60957163492839L149.160415625,96.22075113932291L149.29574618055557,90.08562500000001L149.40339548611112,94.0128125L149.53718819444444,75.57709503173828L149.6817458333333,102.70302083333333L150.3091875,91.76958333333333L151.59944131944445,89.34197916666668L151.6732579861111,88.73600240071615L152.0269628472222,83.55874999999999L153.00349583333332,75.17741780598959L153.30183819444446,82.73520833333333L154.34142291666666,87.2278125L154.4121638888889,92.88197916666667L154.72742256944446,89.34812500000001L155.14110347222223,79.43430165608723L155.21184444444447,83.94953857421875L156.16530972222222,87.94072916666666L156.59283125,97.65114583333333L156.79582708333334,83.79229166666666L157.62011319444443,85.4578125L157.9015392361111,82.31114583333333L158.53974583333334,89.19447916666667L158.69968194444445,81.62895833333334L159.12566562499998,77.1609375L159.53473298611112,78.43927083333334L160.51434166666667,85.31526997884116L160.52049305555556,88.1865625L160.74655659722222,78.99854166666667L161.11256423611113,90.11020833333333L161.40014166666666,64.06416666666667L161.75846006944445,92.02770833333334L162.03988611111112,81.54291666666666L162.48586180555554,89.85822916666666L162.8057340277778,82.18699879964193L163.69307187500002,67.94833333333332L163.9852628472222,78.77729166666666L164.35434618055555,86.52104166666668L164.62193159722224,78.75885416666665L165.34933333333333,71.96156250000001L166.08903784722222,89.85208333333333L166.83335590277778,81.96083333333333L167.41312430555556,68.15114583333333L169.54150486111112,62.36791666666667L169.58917812500002,92.22437500000001L170.3012013888889,82.75364583333334L170.46575104166666,71.74031249999999L170.85482638888888,75.0959375L171.15163090277778,68.37239583333333L171.16393368055554,66.05541666666667L172.24042673611112,81.05739583333333L172.77713541666665,85.08291666666666L173.43533402777777,85.22644948323567L173.58911875,61.32193664550782L173.69984374999999,62.72397888183593L174.350353125,79.87739583333334L174.38726145833334,74.27239583333333L174.47491875,70.67708333333334L174.65946041666666,65.00447916666667L175.19155555555554,76.63854166666665L176.3633951388889,94.55364583333333L176.62021562500001,70.24072916666667L176.85396840277778,69.93343750000001L177.035434375,85.68520833333332L177.46910729166666,76.294375L178.11654097222223,78.59291666666667L179.15766354166666,86.46572916666666L179.44831666666667,62.31161387125651L180.46483368055556,74.98709503173828L180.54172604166666,62.64447916666667L181.04613993055554,60.09395833333333L181.06766979166667,68.7534375L181.15532708333333,65.33635416666667L181.64743819444445,43.954999999999984L182.364075,66.71916666666667L182.68087152777778,72.28114583333333L183.44979513888887,74.14333333333333L184.31252743055555,76.04239583333333L184.59549131944445,65.6190625L184.81078993055556,59.63916666666667L185.2306222222222,72.54541666666667L185.37825555555557,64.48822916666667L185.86421527777776,78.728125L186.01338645833334,67.3153125L186.22714722222221,65.2503125L186.55163298611112,62.051508280436195L187.3528513888889,71.05197916666667L187.8449625,66.03083333333333L188.7876628472222,63.111562500000005L189.2490170138889,60.00177083333334L189.796490625,62.257291666666674L190.82223472222225,71.45145833333333L191.45890347222223,63.94125L191.98023368055556,64.93687499999999L192.3139465277778,58.41L192.52155590277778,63.91052083333334L193.31508506944445,64.82010416666665L195.24354548611112,70.0809375L195.97248506944445,67.54885416666667L196.3231142361111,79.57010416666667L196.51842083333332,54.396770833333335L197.26735243055558,69.17135416666667L197.33040416666665,55.257187499999986L197.45958333333334,61.790208333333325L198.22850694444446,54.89458333333333L198.65295277777778,79.5946875L198.97743854166666,62.907957763671874L199.12199618055556,54.91916666666667L199.86938993055557,68.13270833333333L200.84438506944443,62.93333333333332L201.03507812499998,41.53354166666668L201.06583506944446,61.83322916666667L203.32954618055555,61.98072916666666L203.95083645833333,64.8815625L204.54752118055558,48.89625000000001L204.57520243055555,56.41260416666667L204.64440555555555,53.13687499999999L205.59940868055554,66.6884375L205.77164756944444,52.934062499999996L206.06691423611113,77.105625L206.4821329861111,56.00697916666665L207.12341527777778,68.18802083333334L207.2556701388889,61.784062500000005L207.9753826388889,42.799583333333345L209.43479965277777,68.02822916666668L213.06565694444444,67.01416666666667L213.86072395833332,43.94885416666665L214.02681145833333,54.372187499999995L214.53583888888886,58.15187499999999L214.6050420138889,44.95677083333334L215.72613263888888,61.96843749999999L215.73535972222223,59L216.2674548611111,41.30614583333332L216.88566944444446,58.705L217.27013125000002,59.222042236328136L217.4639,47.57489583333333L218.16669618055556,60.02020833333334L218.2651184027778,53.70229166666667L218.44658437500001,57.543437499999996L219.8644795138889,50.49416666666666L220.01672638888888,60.35208333333334L220.05363472222223,55.50916666666666L220.688765625,45.18416666666667L221.77909930555555,64.2546875L221.92211909722224,50.82604166666667L222.29274027777777,52.94020833333333L223.11395069444444,39.732812499999994L224.03973472222225,50.205312500000005L224.05972673611112,58.28093749999999L224.48263472222223,48.054270833333334L226.031246875,57.783125L227.55679131944444,46.23510416666667L227.68750833333334,53.849791666666675L227.7121138888889,44.42822916666668L229.21766631944445,51.17635416666667L230.17266944444444,39.59145833333332L230.89391979166666,55.80416666666666L231.21686770833335,42.848749999999995L231.74896284722223,61.99302083333333L232.20262777777776,50.77072916666667L233.29449930555558,42.02520833333335L233.50364652777776,37.3359375L234.56783680555554,61.230937499999996L235.13068888888887,31.835416666666674L235.90268819444447,55.37395833333335L236.23178750000002,61.27395833333334L236.4793809027778,48.963854166666664L237.33288611111112,40.86979166666666L237.38517291666668,43.72760416666665L238.08643125,56.83666666666667L238.26328368055556,48.93312500000002L239.65503541666666,37.58177083333334L239.67502743055556,39.984791666666666L239.74730625,51.81552083333334L240.4178076388889,60.22916666666667L241.05293854166666,55.92708333333333L241.69422083333333,57.91218749999999L241.8787625,55.220312500000006L242.98139895833333,48.392291666666665L243.59653784722224,25.720312500000006L243.93793993055556,37.9259375L244.16092777777777,39.640625L244.17938194444443,53.37656249999999L244.466959375,38.52822916666668L244.49156493055557,47.19385416666668L244.72839340277775,55.0359375L244.98367604166666,56.54166666666666L245.04365208333334,59.38718750000001L245.08671180555555,49.283437500000005L245.1466878472222,49.55385416666667L245.71876701388888,40.679270833333334L248.02861354166666,47.70395833333333L249.56338506944445,41.31229166666665L250.18467534722222,91.93552083333333L250.9505232638889,32.3946875L251.37343125,38.27010416666667L252.05469756944444,52.983229166666675L252.5990954861111,29.678229166666682L253.03276840277778,42.20343750000001L253.36494340277775,51.43447916666668L254.15232118055553,58.87093750000001L254.9366232638889,30.8828125L256.3206857638889,31.614166666666677L257.24493194444443,42.983958333333334L257.53097152777775,41.939166666666665L257.6232423611111,37.38510416666668L258.00924201388887,49.97177083333332L260.1683795138889,44.42208333333335L260.4175107638889,41.58270833333333L261.42633854166667,49.41864583333333L261.5893503472222,45.65739583333334L261.61241805555557,42.24031249999999L261.7600513888889,51.047291666666666L262.55665625,45.76802083333334L263.23177118055554,42.350937499999986L263.9330295138889,44.72322916666667L264.06989791666666,32.05666666666667L264.092965625,25.941562500000003L264.8434350694444,39.683645833333316L264.9049489583333,46.210520833333334L265.1140961805556,53.45031250000001L267.00564826388893,54.740937500000015L267.22094687500004,52.01833333333333L267.26708229166667,30.612395833333323L268.2697586805555,29.844166666666666L268.272834375,42.09895833333334L268.2743722222222,36.14979166666666L268.2759100694445,43.309687499999995L268.27744791666663,43.06999999999999L268.2805236111111,40.070833333333326L268.2820614583333,47.2553125L268.2835993055555,54.86385416666667L268.2851371527778,49.16052083333334L268.286675,38.69416666666666L268.2882128472222,40.52562500000002L268.2897506944445,34.926770833333336L268.2928263888889,34.2384375L268.2959020833333,39.634479166666665L268.2974399305555,31.104062499999998L268.2989777777778,25.757187499999986L268.3020534722222,34.81614583333334L268.3035913194444,42.12968749999999L268.3066670138889,40.11385416666667L268.3097427083334,46.40104166666666L268.3112805555555,46.124479166666674L268.3128184027778,25.247083333333336L268.31435625,36.0821875L268.3158940972222,31.239270833333336L268.3174319444444,49.49239583333333L268.3205076388889,49.449375L268.3220454861111,28.84239583333334L268.3235833333334,27.441145833333337L268.3251211805555,51.37916666666666L268.3266590277778,27.576354166666675L268.328196875,73.71927083333334L268.3297347222222,40.156875000000014L268.3312725694444,16.23114583333333L268.3343482638889,52.178124999999994L268.3358861111111,27.07239583333333L268.3374239583333,35.67656249999999L268.3389618055555,48.466041666666655L268.3451131944444,18.603437500000013L268.3481888888889,36.93645833333332L268.3497267361111,20.023124999999993L268.3512645833333,42.14812499999999L268.3543402777778,33.992604166666666L268.355878125,20.662291666666675" style="fill: none;" fill="none"></path></g></g></g></g></g></g><g transform="translate(53, 177)" clip-path="url(#clip_1)"><clipPath id="clip_1"><rect width="276" height="23"></rect></clipPath><g><g><line x1="0" y1="0" x2="0" y2="5" style="visibility: inherit;" fill="rgb(0, 0, 0)" stroke="rgb(204, 204, 204)" stroke-width="1px"></line><line x1="30.756944444444443" y1="0" x2="30.756944444444443" y2="5" style="visibility: inherit;" fill="rgb(0, 0, 0)" stroke="rgb(204, 204, 204)" stroke-width="1px"></line><line x1="61.513888888888886" y1="0" x2="61.513888888888886" y2="5" style="visibility: inherit;" fill="rgb(0, 0, 0)" stroke="rgb(204, 204, 204)" stroke-width="1px"></line><line x1="92.27083333333333" y1="0" x2="92.27083333333333" y2="5" style="visibility: inherit;" fill="rgb(0, 0, 0)" stroke="rgb(204, 204, 204)" stroke-width="1px"></line><line x1="123.02777777777777" y1="0" x2="123.02777777777777" y2="5" style="visibility: inherit;" fill="rgb(0, 0, 0)" stroke="rgb(204, 204, 204)" stroke-width="1px"></line><line x1="153.78472222222223" y1="0" x2="153.78472222222223" y2="5" style="visibility: inherit;" fill="rgb(0, 0, 0)" stroke="rgb(204, 204, 204)" stroke-width="1px"></line><line x1="184.54166666666666" y1="0" x2="184.54166666666666" y2="5" style="visibility: inherit;" fill="rgb(0, 0, 0)" stroke="rgb(204, 204, 204)" stroke-width="1px"></line><line x1="215.29861111111111" y1="0" x2="215.29861111111111" y2="5" style="visibility: inherit;" fill="rgb(0, 0, 0)" stroke="rgb(204, 204, 204)" stroke-width="1px"></line><line x1="246.05555555555554" y1="0" x2="246.05555555555554" y2="5" style="visibility: inherit;" fill="rgb(0, 0, 0)" stroke="rgb(204, 204, 204)" stroke-width="1px"></line><line x1="276.8125" y1="0" x2="276.8125" y2="5" style="visibility: inherit;" fill="rgb(0, 0, 0)" stroke="rgb(204, 204, 204)" stroke-width="1px"></line></g><g transform="translate(0, 8)"><text x="0" y="0" dx="0em" dy="0.95em" style="text-anchor: middle; visibility: hidden; font-family: &quot;Helvetica Neue&quot;, sans-serif; font-size: 12px; font-weight: 200;" fill="rgb(50, 49, 63)" stroke="none" stroke-width="1px">-20k</text><text x="30.756944444444443" y="0" dx="0em" dy="0.95em" style="text-anchor: middle; visibility: inherit; font-family: &quot;Helvetica Neue&quot;, sans-serif; font-size: 12px; font-weight: 200;" fill="rgb(50, 49, 63)" stroke="none" stroke-width="1px">0</text><text x="61.513888888888886" y="0" dx="0em" dy="0.95em" style="text-anchor: middle; visibility: inherit; font-family: &quot;Helvetica Neue&quot;, sans-serif; font-size: 12px; font-weight: 200;" fill="rgb(50, 49, 63)" stroke="none" stroke-width="1px">20k</text><text x="92.27083333333333" y="0" dx="0em" dy="0.95em" style="text-anchor: middle; visibility: inherit; font-family: &quot;Helvetica Neue&quot;, sans-serif; font-size: 12px; font-weight: 200;" fill="rgb(50, 49, 63)" stroke="none" stroke-width="1px">40k</text><text x="123.02777777777777" y="0" dx="0em" dy="0.95em" style="text-anchor: middle; visibility: inherit; font-family: &quot;Helvetica Neue&quot;, sans-serif; font-size: 12px; font-weight: 200;" fill="rgb(50, 49, 63)" stroke="none" stroke-width="1px">60k</text><text x="153.78472222222223" y="0" dx="0em" dy="0.95em" style="text-anchor: middle; visibility: inherit; font-family: &quot;Helvetica Neue&quot;, sans-serif; font-size: 12px; font-weight: 200;" fill="rgb(50, 49, 63)" stroke="none" stroke-width="1px">80k</text><text x="184.54166666666666" y="0" dx="0em" dy="0.95em" style="text-anchor: middle; visibility: inherit; font-family: &quot;Helvetica Neue&quot;, sans-serif; font-size: 12px; font-weight: 200;" fill="rgb(50, 49, 63)" stroke="none" stroke-width="1px">100k</text><text x="215.29861111111111" y="0" dx="0em" dy="0.95em" style="text-anchor: middle; visibility: inherit; font-family: &quot;Helvetica Neue&quot;, sans-serif; font-size: 12px; font-weight: 200;" fill="rgb(50, 49, 63)" stroke="none" stroke-width="1px">120k</text><text x="246.05555555555554" y="0" dx="0em" dy="0.95em" style="text-anchor: middle; visibility: inherit; font-family: &quot;Helvetica Neue&quot;, sans-serif; font-size: 12px; font-weight: 200;" fill="rgb(50, 49, 63)" stroke="none" stroke-width="1px">140k</text><text x="276.8125" y="0" dx="0em" dy="0.95em" style="text-anchor: middle; visibility: hidden; font-family: &quot;Helvetica Neue&quot;, sans-serif; font-size: 12px; font-weight: 200;" fill="rgb(50, 49, 63)" stroke="none" stroke-width="1px">160k</text></g><line x1="0" y1="0" x2="276.8125" y2="0" fill="rgb(0, 0, 0)" stroke="rgb(204, 204, 204)" stroke-width="1px"></line></g></g></g></g></svg>