<svg viewBox="0 0 330 200" xmlns="http://www.w3.org/2000/svg"><g><g><g><g><g><line x1="74.78125" y1="177" x2="69.78125" y2="177" style="visibility: inherit;" fill="rgb(0, 0, 0)" stroke="rgb(204, 204, 204)" stroke-width="1px"></line><line x1="74.78125" y1="154.875" x2="69.78125" y2="154.875" style="visibility: inherit;" fill="rgb(0, 0, 0)" stroke="rgb(204, 204, 204)" stroke-width="1px"></line><line x1="74.78125" y1="132.75" x2="69.78125" y2="132.75" style="visibility: inherit;" fill="rgb(0, 0, 0)" stroke="rgb(204, 204, 204)" stroke-width="1px"></line><line x1="74.78125" y1="110.625" x2="69.78125" y2="110.625" style="visibility: inherit;" fill="rgb(0, 0, 0)" stroke="rgb(204, 204, 204)" stroke-width="1px"></line><line x1="74.78125" y1="88.5" x2="69.78125" y2="88.5" style="visibility: inherit;" fill="rgb(0, 0, 0)" stroke="rgb(204, 204, 204)" stroke-width="1px"></line><line x1="74.78125" y1="66.375" x2="69.78125" y2="66.375" style="visibility: inherit;" fill="rgb(0, 0, 0)" stroke="rgb(204, 204, 204)" stroke-width="1px"></line><line x1="74.78125" y1="44.25" x2="69.78125" y2="44.25" style="visibility: inherit;" fill="rgb(0, 0, 0)" stroke="rgb(204, 204, 204)" stroke-width="1px"></line><line x1="74.78125" y1="22.125" x2="69.78125" y2="22.125" style="visibility: inherit;" fill="rgb(0, 0, 0)" stroke="rgb(204, 204, 204)" stroke-width="1px"></line><line x1="74.78125" y1="0" x2="69.78125" y2="0" style="visibility: inherit;" fill="rgb(0, 0, 0)" stroke="rgb(204, 204, 204)" stroke-width="1px"></line></g><g transform="translate(64.78125, 0)"><text x="0" y="177" dx="0em" dy="0.3em" style="text-anchor: end; visibility: hidden; font-family: &quot;Helvetica Neue&quot;, sans-serif; font-size: 12px; font-weight: 200;" fill="rgb(50, 49, 63)" stroke="none" stroke-width="1px">-2e+4</text><text x="0" y="154.875" dx="0em" dy="0.3em" style="text-anchor: end; visibility: inherit; font-family: &quot;Helvetica Neue&quot;, sans-serif; font-size: 12px; font-weight: 200;" fill="rgb(50, 49, 63)" stroke="none" stroke-width="1px">0</text><text x="0" y="132.75" dx="0em" dy="0.3em" style="text-anchor: end; visibility: hidden; font-family: &quot;Helvetica Neue&quot;, sans-serif; font-size: 12px; font-weight: 200;" fill="rgb(50, 49, 63)" stroke="none" stroke-width="1px">2e+4</text><text x="0" y="110.625" dx="0em" dy="0.3em" style="text-anchor: end; visibility: inherit; font-family: &quot;Helvetica Neue&quot;, sans-serif; font-size: 12px; font-weight: 200;" fill="rgb(50, 49, 63)" stroke="none" stroke-width="1px">4e+4</text><text x="0" y="88.5" dx="0em" dy="0.3em" style="text-anchor: end; visibility: hidden; font-family: &quot;Helvetica Neue&quot;, sans-serif; font-size: 12px; font-weight: 200;" fill="rgb(50, 49, 63)" stroke="none" stroke-width="1px">6e+4</text><text x="0" y="66.375" dx="0em" dy="0.3em" style="text-anchor: end; visibility: inherit; font-family: &quot;Helvetica Neue&quot;, sans-serif; font-size: 12px; font-weight: 200;" fill="rgb(50, 49, 63)" stroke="none" stroke-width="1px">8e+4</text><text x="0" y="44.25" dx="0em" dy="0.3em" style="text-anchor: end; visibility: hidden; font-family: &quot;Helvetica Neue&quot;, sans-serif; font-size: 12px; font-weight: 200;" fill="rgb(50, 49, 63)" stroke="none" stroke-width="1px">1e+5</text><text x="0" y="22.125" dx="0em" dy="0.3em" style="text-anchor: end; visibility: inherit; font-family: &quot;Helvetica Neue&quot;, sans-serif; font-size: 12px; font-weight: 200;" fill="rgb(50, 49, 63)" stroke="none" stroke-width="1px">1.2e+5</text><text x="0" y="0" dx="0em" dy="0.3em" style="text-anchor: end; visibility: hidden; font-family: &quot;Helvetica Neue&quot;, sans-serif; font-size: 12px; font-weight: 200;" fill="rgb(50, 49, 63)" stroke="none" stroke-width="1px">1.4e+5</text></g><line x1="74.78125" y1="0" x2="74.78125" y2="177" fill="rgb(0, 0, 0)" stroke="rgb(204, 204, 204)" stroke-width="1px"></line></g></g><g transform="translate(74, 0)" clip-path="url(#clip_0)"><clipPath id="clip_0"><rect width="255" height="177"></rect></clipPath><g><g><g><line x1="0" y1="0" x2="0" y2="177" fill="rgb(0, 0, 0)" stroke="rgb(60, 60, 60)" stroke-width="1px" opacity="0.25"></line><line x1="28.357638888888886" y1="0" x2="28.357638888888886" y2="177" fill="rgb(0, 0, 0)" stroke="rgb(60, 60, 60)" stroke-width="1px" opacity="0.25"></line><line x1="56.71527777777777" y1="0" x2="56.71527777777777" y2="177" fill="rgb(0, 0, 0)" stroke="rgb(60, 60, 60)" stroke-width="1px" opacity="0.25"></line><line x1="85.07291666666666" y1="0" x2="85.07291666666666" y2="177" fill="rgb(0, 0, 0)" stroke="rgb(60, 60, 60)" stroke-width="1px" opacity="0.25"></line><line x1="113.43055555555554" y1="0" x2="113.43055555555554" y2="177" fill="rgb(0, 0, 0)" stroke="rgb(60, 60, 60)" stroke-width="1px" opacity="0.25"></line><line x1="141.78819444444446" y1="0" x2="141.78819444444446" y2="177" fill="rgb(0, 0, 0)" stroke="rgb(60, 60, 60)" stroke-width="1px" opacity="0.25"></line><line x1="170.14583333333331" y1="0" x2="170.14583333333331" y2="177" fill="rgb(0, 0, 0)" stroke="rgb(60, 60, 60)" stroke-width="1px" opacity="0.25"></line><line x1="198.50347222222223" y1="0" x2="198.50347222222223" y2="177" fill="rgb(0, 0, 0)" stroke="rgb(60, 60, 60)" stroke-width="1px" opacity="0.25"></line><line x1="226.8611111111111" y1="0" x2="226.8611111111111" y2="177" fill="rgb(0, 0, 0)" stroke="rgb(60, 60, 60)" stroke-width="1px" opacity="0.25"></line><line x1="255.21875" y1="0" x2="255.21875" y2="177" fill="rgb(0, 0, 0)" stroke="rgb(60, 60, 60)" stroke-width="1px" opacity="0.25"></line></g><g><line x1="0" y1="177" x2="255.21875" y2="177" fill="rgb(0, 0, 0)" stroke="rgb(60, 60, 60)" stroke-width="1px" opacity="0.25"></line><line x1="0" y1="154.875" x2="255.21875" y2="154.875" fill="rgb(0, 0, 0)" stroke="rgb(60, 60, 60)" stroke-width="1px" opacity="0.25"></line><line x1="0" y1="132.75" x2="255.21875" y2="132.75" fill="rgb(0, 0, 0)" stroke="rgb(60, 60, 60)" stroke-width="1px" opacity="0.25"></line><line x1="0" y1="110.625" x2="255.21875" y2="110.625" fill="rgb(0, 0, 0)" stroke="rgb(60, 60, 60)" stroke-width="1px" opacity="0.25"></line><line x1="0" y1="88.5" x2="255.21875" y2="88.5" fill="rgb(0, 0, 0)" stroke="rgb(60, 60, 60)" stroke-width="1px" opacity="0.25"></line><line x1="0" y1="66.375" x2="255.21875" y2="66.375" fill="rgb(0, 0, 0)" stroke="rgb(60, 60, 60)" stroke-width="1px" opacity="0.25"></line><line x1="0" y1="44.25" x2="255.21875" y2="44.25" fill="rgb(0, 0, 0)" stroke="rgb(60, 60, 60)" stroke-width="1px" opacity="0.25"></line><line x1="0" y1="22.125" x2="255.21875" y2="22.125" fill="rgb(0, 0, 0)" stroke="rgb(60, 60, 60)" stroke-width="1px" opacity="0.25"></line><line x1="0" y1="0" x2="255.21875" y2="0" fill="rgb(0, 0, 0)" stroke="rgb(60, 60, 60)" stroke-width="1px" opacity="0.25"></line></g></g></g><g><g><line x1="0" y1="154.875" x2="255.21875" y2="154.875" fill="rgb(0, 0, 0)" stroke="rgb(153, 153, 153)" stroke-width="1.5px"></line></g></g><g><g><line x1="28.357638888888886" y1="0" x2="28.357638888888886" y2="177" fill="rgb(0, 0, 0)" stroke="rgb(153, 153, 153)" stroke-width="1.5px"></line></g></g><g><g><g><g><g><path stroke="rgb(255, 112, 67)" stroke-width="2px" d="M28.965910243055554,152.4637552734375L29.01270034722222,152.41562975945723L29.024043402777778,152.55007262381804L29.032550694444446,152.59694848514965L29.069415625,152.56672809580638L29.079340798611113,152.56509276902653L29.0821765625,152.57787950413956L29.086430208333333,152.5849617874174L29.106280555555557,152.57761359107366L29.107698437499998,152.55558375446412L29.11336996527778,152.60437549383346L29.121877256944444,152.5889027230687L29.128966666666667,152.58695089173816L29.162995833333333,152.55481320282902L29.204114409722223,152.5823829821936L29.21829322916667,152.57008373332883L29.249486631944446,152.50797911456897L29.361499305555558,152.51358320664312L29.565674305555554,152.48880464197003L29.588360416666667,152.51526458525163L29.789699652777777,152.48365537761737L30.158348958333335,152.4997009580181L30.186706597222223,152.50291084038548L30.249093402777778,152.50173260895403L30.3582703125,152.51070636518114L30.37812065972222,152.49035298477526L30.422075,152.4911811153079L30.423492881944444,152.48928660915215L30.46319357638889,152.50407203668334L30.48020815972222,152.48339637560633L30.487297569444443,152.50404426273695L30.505730034722223,152.50716805463136L30.54401284722222,152.5218802581331L30.623414236111113,152.50475718237783L30.661697048611114,152.49338213927876L30.670204340277778,152.4636242703782L30.71983020833333,152.4437082497205L30.76094878472222,152.47394516464425L30.850275347222222,152.46692001887666L30.86587204861111,152.4642934518213L30.956616493055556,152.44949208997454L31.260043229166666,152.4599174250217L31.288400868055557,152.447693063362L31.3025796875,152.48236322129705L31.62727465277778,152.4641716590309L31.638617708333335,152.44093751236448L31.645707118055558,152.43133527117013L31.729362152777778,152.4375205325192L31.798838368055552,152.47065884854888L31.83995694444444,152.46149648512L31.849882118055554,152.47030207496684L31.906597395833334,152.45092272506406L31.93211927083333,152.46350589286666L31.933537152777777,152.41582852129505L31.9916703125,152.3930303902537L32.00726701388889,152.40871582029573L32.02853524305555,152.37421291788306L32.075325347222226,152.37935508493422L32.08666840277778,152.38381805787367L32.09233993055555,152.38950925265945L32.11644392361111,152.39332396962686L32.16465190972222,152.39191952838993L32.242635416666666,152.3615268425404L32.25823211805556,152.35726315475728L32.438303125,152.36193666169865L32.4510640625,152.37091713833468L32.848071006944444,152.38603212683867L32.872175,152.3593656103828L32.9742625,152.3971275852727L33.11321493055556,152.38655042588462L33.1146328125,152.40720839994646L33.15433350694445,152.40330241348872L33.171348090277775,152.40419367299575L33.23515277777778,152.3971173732037L33.38544826388889,152.37513152481012L33.46201388888889,152.35515560727433L33.59813055555556,152.39091691622139L33.63074184027778,152.36501317920795L33.66193524305556,152.3391526930435L33.806559201388886,152.36655677020622L33.961108333333335,152.35082286275502L34.03058454861111,152.33840904373866L34.06603159722222,152.3575254418061L34.134089930555554,152.328830952494L34.166701215277776,152.25670761532868L34.369458333333334,152.2852666149883L34.42475572916666,152.28528411547444L34.44460607638889,152.290254257287L34.49706770833333,152.33378814133144L34.57221545138889,152.30154714460218L34.807583854166666,152.26628688771237L34.809001736111114,152.28162350073492L34.81041961805556,152.31660522221765L34.858627604166664,152.30703756164837L34.91959652777778,152.31518374222722L34.94086475694444,152.3137340202518L35.01317673611111,152.28405639237943L35.02593767361111,152.23076474779734L35.05854895833333,152.27135361152816L35.23011267361111,152.28332395894952L35.24145572916667,152.25156779610276L35.254216666666665,152.31121272942482L35.4116015625,152.30196682432648L35.448466493055555,152.28224405599894L35.45272013888889,152.2758397843279L35.642716319444446,152.2632171120908L35.646969965277776,152.25267952482224L35.730625,152.14762500007265L35.756146875,152.1369999102599L35.801519097222226,152.12053013779473L35.8199515625,152.12293390186372L35.822787326388884,152.1075354352248L35.97591857638889,152.09134332534921L35.978754340277774,152.0930704486215L36.096438541666664,152.07442531351236L36.10919947916666,152.07876381913974L36.16166111111111,152.03507185305878L36.19427239583334,152.02116185839137L36.32046388888889,152.00382721191713L36.38568645833333,152.0142333719857L36.501952777777774,152.01468320015698L36.6111296875,151.9806628380296L36.63806944444444,151.99746819535096L36.68060590277778,151.9762871903145L36.769932465277776,151.97013287361025L36.777021875,151.93851410229908L36.91313854166667,151.88584759119246L37.018061805555554,151.86714460294948L37.14992482638889,151.87525788717988L37.26619114583333,151.85792155159797L37.41932239583333,151.842208228171L37.46753038194444,151.83931543005932L37.490216493055556,151.77017437717524L37.53842447916667,151.7445816275824L37.593721875,151.74703340786053L37.728420659722225,151.74181084519935L37.79080746527777,151.80132492944932L37.84043333333333,151.83226477571944L37.86311944444444,151.82626628381206L38.002071875,151.8394526488891L38.02901163194444,151.90326920342417L38.058787152777775,151.9410266700889L38.063040798611105,151.9729237973654L38.08714479166667,151.96494864213707L38.09848784722222,151.94132244432117L38.22893298611111,151.9221469146382L38.28423038194445,151.92999736136727L38.3210953125,151.93976961906958L38.42885434027777,151.92981371033582L38.574896180555555,151.87137289770843L38.623104166666664,151.8265268328812L38.64437239583334,151.78650762171816L38.661386979166664,151.7452771288693L38.66847638888889,151.73096535219696L38.75638506944444,151.67896498464893L38.79608576388889,151.6362612369836L38.93645607638889,151.60860688881831L39.086751562500005,151.58443012429308L39.14772048611111,151.55711558697766L39.184585416666664,151.58385213502478L39.220032465277775,151.59990162924302L39.22428611111111,151.58553181732566L39.229957638888884,151.58634414343385L39.25689739583333,151.6087473665108L39.29801597222222,151.61354030577607L39.34905972222222,151.59523113801527L39.51495190972222,151.5735431409061L39.55607048611111,151.6110061908665L39.584428124999995,151.62907295492644L39.77300642361111,151.5962259127934L39.859497222222224,151.5921522667655L39.88076545138889,151.5937268447977L39.9289734375,151.57892011716953L39.96725625,151.54041996050094L40.15016302083333,151.4830536670121L40.1586703125,151.46468064389836L40.16575972222223,151.46408529434754L40.18986371527778,151.4263414521424L40.22531076388889,151.47071869393304L40.26501145833333,151.4825802035148L40.300458506944445,151.4305242727352L40.342994965277775,151.45054674789955L40.416724826388894,151.43787545196224L40.52023020833333,151.4407315395894L40.75418072916667,151.42429180354287L40.79955295138889,151.4623989904936L40.83641788194445,151.4334352437076L40.95268420138889,151.4308756841742L40.976788194444445,151.46113040098103L41.066114756944444,151.41095671625015L41.07178628472222,151.46903772441843L41.07320416666667,151.43825891286363L41.08596510416667,151.53164395921502L41.16820225694445,151.53432581329707L41.18238107638889,151.52474704054967L41.18663472222222,151.541766945888L41.188052604166664,151.50066611063443L41.380884548611114,151.49246551518885L41.43759982638889,151.508776014464L41.44327135416666,151.52781132318728L41.57938802083333,151.49012495646963L41.708415277777775,151.4749132225327L41.71408680555555,151.49868650966667L41.75662326388889,151.53434963606026L41.82042795138889,151.50025467244004L41.85162135416667,151.4667240684647L41.85729288194444,151.4679363686499L41.92109756944444,151.50676439195294L42.00191684027778,151.45065140977357L42.098332812500004,151.3992163273773L42.099750694444445,151.4230748313636L42.24012100694444,151.35433625446356L42.2769859375,151.37734856652133L42.289746875,151.42402886612672L42.353551562499995,151.40131859669825L42.427281423611106,151.48167601438269L42.48116093749999,151.4141469480927L42.53787621527778,151.4225321556281L42.64988888888889,151.45270511194315L42.661231944444445,151.3951496788689L42.70802204861111,151.32728842191426L42.73070815972223,151.3515570211308L42.74488697916667,151.34878124089252L42.75623003472222,151.34237659336543L42.79309496527778,151.28030428558824L42.81578107638889,151.25199520468436L42.82570625,151.27238146546676L42.89234670138889,151.32497099470328L42.96324079861111,151.2675950085123L43.143311805555555,151.28283289047403L43.19435555555555,151.2145462029873L43.20428072916667,151.26944839909612L43.225548958333334,151.2632263716864L43.2468171875,151.2660893595178L43.27517482638889,151.3155987048169L43.388605381944444,151.31310519175705L43.40845572916667,151.26404072726814L43.422634548611114,151.17622731860268L43.433977604166664,151.11467745783546L43.54315451388889,151.1335154151771L43.56725850694444,151.14544651037826L43.580019444444446,151.28367289449784L43.59419826388889,151.2527798823916L43.65091354166667,151.1338937691516L43.73031493055555,151.1202603102051L43.75016527777778,151.1744516229349L43.77994079861111,151.1936039606415L43.872103125,151.1482169434834L43.8848640625,151.10789063975992L44.030905902777775,151.14884778672157L44.110307291666665,151.17714615258075L44.13015763888889,151.1394408927913L44.16276892361111,151.17508582694978L44.21948420138889,151.18533165831732L44.3187359375,151.17497573857932L44.34000416666667,151.13176267644005L44.467613541666665,151.05202609629592L44.55552222222222,151.0642102640101L44.57962621527778,150.9964490422965L44.592387152777775,150.99966101306683L44.75686145833333,150.98815498011953L44.79514427083333,150.91461711882624L44.820666145833336,150.88946800459985L44.87029201388889,150.76958751273352L44.892978125,150.78416385911643L44.92133576388889,150.83478444586106L44.96670798611111,150.79388262236867L45.04327361111111,150.7869985007568L45.152450520833334,150.75060216630612L45.37222222222223,150.7440774184255L45.38356527777778,150.80861450080172L45.515428298611106,150.7969211561903L45.52251770833333,150.72776589604L45.67564895833333,150.60011567362346L45.68840989583333,150.58068256329236L45.742289409722225,150.55381729524436L45.827362326388894,150.5429550383762L45.89542065972222,150.44585785485103L45.913853125,150.42530517483468L46.00743333333333,150.4193809854762L46.103849305555556,150.39304083614735L46.19884739583333,150.34647681112637L46.20310104166666,150.29060969641995L46.32787465277778,150.16148478146545L46.43846944444444,150.06368796347516L46.45548402777778,150.06272924525263L46.53063177083333,150.11296477775863L46.543392708333336,150.09217165935775L46.57175034722222,150.09439709107824L46.65256961805556,150.07118439368915L46.69368819444445,150.071588278539L46.750403472222224,150.02342197021633L46.89786319444445,150.00386703881972L47.073680555555555,149.99217912400024L47.10629184027778,149.91743181706897L47.21405086805555,149.8549230298933L47.25942309027778,149.71704461362273L47.26509461805556,149.6170357186667L47.314720486111106,149.62230349445628L47.41822586805556,149.5980538286044L47.4834484375,149.55567707855647L47.50613454861111,149.51633149960705L47.56143194444444,149.4144970801151L47.635161805555555,149.44498301663484L47.715981076388886,149.32621213684635L47.74717447916667,149.23240666534923L47.77836788194444,149.2901417800643L47.79680034722222,149.23252240674537L47.80956128472222,149.26691098638332L47.95134947916667,149.27313256352625L47.989632291666666,149.18721745170487L48.13850989583333,149.05996740575313L48.29022326388889,149.04946443470908L48.318580902777775,149.01800775686317L48.48730885416667,149.01225041867684L48.52133802083333,148.9942812557154L48.674469270833335,148.88597221217512L48.70566267361111,148.8834690925201L48.721259374999995,148.94681345279935L48.96655295138889,148.88986579892565L49.038864930555555,148.83662857450184L49.26005451388889,148.8011742131454L49.43161822916667,148.59989495589338L49.679747569444444,148.4927759485853L49.68116545138889,148.34533268966425L49.716612500000004,148.29044807304157L49.73929861111111,148.2011197501124L49.78183506944445,148.1411207438512L49.86123645833333,148.17448081790357L49.86265434027778,148.15474091970697L49.97892065972222,148.09636526523627L50.044143229166664,148.02665264496264L50.150484375000005,148.03730751718513L50.17175260416666,148.0231574685916L50.19869236111111,148.04187449516994L50.23413940972222,148.0250932761217L50.279511631944445,148.05940152663453L50.438314409722224,148.00308916693982L50.44256805555556,147.94782056274585L50.521969444444444,147.97831651428376L50.70204045138889,147.95206826129288L50.99412413194444,147.8781657711011L51.171359375,147.67979890102225L51.19262760416667,147.52833035857626L51.32874427083333,147.41278888521865L51.44501059027778,147.45610566075928L51.50030798611111,147.5000585126521L51.53717291666666,147.22902947779315L51.56836631944444,147.17575170579508L51.65769288194445,147.13925831255932L51.69313993055555,147.17788146567838L51.790973784722226,147.1722123230168L51.8476890625,147.02781939149637L51.85477847222223,147.02087383906547L51.86186788194444,146.80660290047143L51.878882465277776,146.71946815729927L51.929926215277774,146.68957669313187L51.958283854166666,146.67873228553742L52.07029652777778,146.62943770932742L52.15111579861111,146.67476872355093L52.158205208333335,146.5554922613521L52.26029270833334,146.5713624102169L52.28865034722222,146.5982913645077L52.29999340277778,146.61945412258817L52.481482291666666,146.44977781189186L52.63177777777778,146.47890551898394L52.76931232638889,146.48115977177304L52.91393628472222,146.54601668522074L53.13796163194444,146.2789395284174L53.18475173611112,146.13248725526316L53.23012395833334,146.0307390961431L53.4300453125,145.8804065927788L53.49952152777777,145.92045833584467L53.570415625,146.0352941038227L53.727800520833334,145.85458203719043L53.85540989583333,145.42947990769014L53.85824565972222,145.29680715129612L53.90078211805555,145.0909758892915L53.922050347222225,145.06671132770612L54.005705381944445,145.00479240196674L54.055331249999995,144.99290398208257L54.07376371527778,145.10469047840556L54.082271006944445,145.08747924306502L54.17443333333333,145.10280165078976L54.38427986111111,145.02746609508577L54.38995138888889,145.1125201887022L54.768525868055555,145.02512607998824L54.81956961805556,144.9470003079269L54.925910763888886,144.9449565661967L55.07478836805556,144.74469743301455L55.10881753472222,144.71156434986935L55.17404010416667,144.66139648910115L55.19389045138889,144.80925492612855L55.36261840277778,144.87997996085943L55.46328802083333,144.779738097586L55.47604895833334,144.7835309284524L55.54268940972222,144.8159178551384L55.91275659722223,144.88088438993705L55.994993750000006,144.68099649781834L56.126856770833335,144.56034745350527L56.2502125,144.51209888002973L56.27857013888889,144.301551902183L56.41752256944444,144.13142936821473L56.686920138888894,144.098634146237L56.79042552083333,143.9453256144258L57.1562390625,143.76238924438945L57.15907482638889,143.88570684338802L57.24414774305556,143.81407500670548L57.28243055555556,143.52057457634743L57.31504184027778,143.63312651324392L57.35474253472222,143.54374724082578L57.38310017361111,143.5087693136182L57.47668038194444,143.4707000775689L57.81271840277778,143.36162415184324L57.82689722222222,143.37221056478393L58.06935503472222,143.33498198877427L58.113309375,143.0046279109906L58.20405381944445,143.07982855739152L58.28487309027778,143.1879149204024L58.37136388888889,142.9585688775809L58.38979635416667,142.84514466560404L58.691805208333335,142.68918504279367L58.694640972222224,142.61805534710805L58.927173611111115,142.48414782020973L59.08030486111111,142.56611628037626L59.21358576388889,142.28441519921364L59.24336128472222,142.30219203866727L59.3255984375,142.25430525667554L59.76372395833333,142.55910894975798L59.854468402777776,142.58357533993845L59.87715451388889,142.3627006184446L60.12670173611111,142.33927473628762L60.296847569444445,142.17492169625262L60.330876736111115,142.05666874537735L60.34505555555556,142.08873321849586L60.40177083333333,141.78317186930252L60.457068229166666,141.62631415502852L60.54497690972222,141.45266686061944L60.67116840277778,141.62430445190125L60.67400416666666,141.4898223270236L60.86825399305556,141.2943343326025L60.91504409722222,141.39137269621725L61.048325,141.53836866878302L61.055414409722225,141.4268198878422L61.100786631944445,141.36429776233925L61.219888715277776,141.26919501735534L61.229813888888884,141.3008857890573L61.3673484375,141.09427404608905L61.49779357638889,141.15616496179265L61.59846319444444,141.3363959656134L61.63958177083333,141.50452922061456L61.75726597222223,141.37843276339686L61.77144479166667,141.55704780736966L61.84659253472222,141.44566038991394L62.064946354166665,141.2518713626413L62.15569079861111,141.05504930450218L62.257778298611115,141.0518430654582L62.453446006944446,141.06855881750613L62.56404079861111,141.38022318966176L62.788066145833334,141.4206683316331L63.49133559027778,141.0587982172198L63.550886631944444,140.99277964549782L63.66148142361111,140.68302201297928L63.794762326388884,140.4021313546501L63.83162725694445,140.28752112934134L63.83304513888889,140.02473313750096L63.95214722222222,139.77636632765712L63.986176388888886,139.7179958667664L63.998937326388884,139.39817170977727L64.10953211805555,139.23578908958078L64.12938246527779,139.2012895556227L64.29527465277778,139.25058138131044L64.37184027777778,139.4719163681794L64.55332916666667,139.34849387198645L64.60437291666666,139.51649630119405L65.27361319444445,139.75924413201216L65.31331388888889,139.7260764180297L65.39129739583333,139.62042660825796L65.40689409722222,139.61673185758843L65.42816232638889,139.59702025386082L65.43950538194444,139.482704185506L65.47778819444444,139.7323643138304L65.53875711805556,139.90216768713486L65.99956875,139.81071343795261L66.17822187499999,139.94041396915736L66.26187690972222,140.13378337302288L66.77798593749999,140.29633157868932L66.84746215277778,140.14350879191414L67.15514253472223,139.84738388928525L67.36782482638888,139.78356067613797L67.45006197916666,139.50844435461792L67.45289774305556,139.36501384493738L67.52520972222223,139.38456835888115L67.63438663194444,139.21232455033677L67.85557621527778,139.26721606014686L68.08669097222223,139.37259812600718L68.20862881944446,138.8456983720002L68.31213420138889,138.83903132776894L68.4269826388889,138.6527813785858L68.50354826388889,138.19578216650845L68.57444236111111,138.06635537563886L68.59996423611112,138.12696460369997L68.63115763888888,138.21502191286123L68.78428888888888,138.02470456532512L68.93883802083333,137.90331428457384L69.06077586805556,137.5588466256477L69.1997282986111,137.2076801466767L69.46629010416666,137.34898172185277L69.63076440972222,137.21971747544876L69.64919687499999,137.00694576696637L70.40776371527778,137.14316742073848L70.65163940972222,137.1484145263209L70.68425069444444,136.9294566283763L70.71969774305555,136.87617590694492L70.72395138888888,136.5854359529692L70.76223420138889,136.49011196704726L70.823203125,136.3311868836238L70.848725,136.56040051948014L71.18334513888888,136.53130699096963L71.55624809027779,136.87109451452892L71.57751631944444,136.23746541463854L71.76325885416666,136.31217754504968L71.8823609375,136.03856555226346L71.91922586805556,135.73857175094335L72.01138819444444,135.73280514225527L72.28362152777777,135.46016197177974L72.29496458333334,135.25497802069552L72.51615416666667,135.06032855846973L72.59271979166667,135.34620484324773L72.70047881944444,135.07305008157923L72.72741857638889,135.14146876482755L72.83234184027779,135.06923081412606L73.11733611111111,134.88388085771345L73.3115859375,135.0315036313171L73.49591059027779,135.55271664709164L73.80359097222221,135.57493867378872L73.8503810763889,135.71716875172234L74.29843177083335,135.31778150545637L74.57775451388888,135.09343376506698L74.77058645833333,135.3528097635603L75.01304427083333,135.40131081845425L75.06975954861112,135.1842013577026L75.07401319444445,134.80219229615108L75.14207152777777,134.65441855481723L75.3022921875,134.37836677746049L75.44833402777778,134.32128068565194L75.58586857638889,134.32159964833676L75.80847604166667,134.14437507412805L75.85101250000001,133.70315948077777L75.91198142361111,133.49255154051247L76.47488055555556,133.4265275778675L76.7215920138889,133.27621374586198L76.81659010416666,133.0539765900258L76.84069409722223,133.0652015872732L77.39366805555555,133.04848789338965L77.5737390625,133.21739420170692L77.88567309027778,133.32476577762998L77.98492482638889,132.87941720767947L78.15790642361111,132.44888685409904L78.21887534722222,132.06412330540786L78.39611059027779,132.06976880689834L78.47834774305556,132.126888449646L78.71655190972223,131.92046036640016L79.35885243055556,131.89281352897888L79.42123923611112,131.752566785456L79.70481562500001,131.55992477487916L79.78138125,131.32260225832874L79.94301979166666,131.6343804895271L80.22234253472222,131.1319875186994L80.38965260416667,131.1263198019857L80.51442621527778,131.23966366163089L80.53569444444445,130.94609196343654L80.75971979166667,130.70205612646788L81.38500572916666,130.42964537710236L81.45589982638889,130.3082892768921L81.62320989583334,130.24930290779665L82.2598388888889,130.2937553123295L82.49095364583333,129.77051874594028L82.51080399305556,129.63208235962753L82.67102465277777,129.40459799085227L83.20273038194445,129.65570619957953L83.22116284722223,129.5125617905591L83.36153315972223,129.12478981072192L83.39698020833333,129.34383366168097L83.65645260416666,129.0395826002004L83.75712222222222,128.47522428158658L83.77839045138889,127.99846693155294L83.90032829861111,128.20532004308515L84.02935555555555,128.57298889815164L84.49725659722223,128.4836714341177L84.64471631944444,128.47030026726844L84.74255017361111,127.73930397101034L84.94672517361111,127.90974310515932L85.12679618055554,127.79056869698712L85.16224322916666,127.27620827260091L85.69111319444444,127.64874463284083L86.13207447916668,127.63447309924425L86.26819114583334,127.18026262525731L86.40430781250001,127.08121282757534L86.442590625,127.31233429872405L86.65527291666668,127.4334822555704L86.92041684027778,127.54363895188835L87.04519045138889,127.49919909966827L87.26212638888889,126.2719135061077L87.57264253472222,126.44903697971566L88.04054357638888,126.65401869190035L88.12845225694444,126.57991283833532L88.56799565972221,126.13849958184554L88.60060694444444,125.10221616662972L88.88701909722222,124.693667772623L88.94940590277778,124.95812003832944L88.9820171875,124.648433073559L89.02171788194444,124.43189642635934L89.20604253472222,124.77235201809842L89.70655486111112,124.49890037097609L89.78453836805556,123.96017693544098L90.43534618055556,123.90198572627187L90.69623645833333,124.20027068880094L90.81250277777778,123.8969480144521L91.09040763888889,123.88819924816313L91.30734357638889,123.36894055381556L91.43495295138888,123.86904409609026L91.5880842013889,124.23039874898123L91.63203854166666,123.4100684053331L91.7128578125,123.2587680882373L93.44267378472222,122.91681801769482L93.53625399305555,122.27372746592533L93.71207135416665,122.1828713599578L93.96587222222222,121.35234246614952L93.97012586805555,121.51078495781583L94.53018923611111,120.747717067503L95.25189114583333,119.77032680606519L95.2958454861111,120.60614781686493L95.75382135416666,120.98141821095967L96.19336475694445,121.26427773751996L96.32664565972222,121.28933554970547L96.53365642361112,121.29068215098494L96.58186440972221,120.79097372104269L96.79029305555555,119.91946449346966L96.92215607638889,119.68901593474769L97.75019913194444,119.69425768111668L97.8026607638889,119.63843226456751L97.95862777777778,119.637911870142L97.98556753472222,119.44933953078407L98.1670564236111,119.16998467926814L98.284740625,118.53662558634133L98.2875763888889,117.90176578161346L98.31309826388889,118.0022556097021L99.16382743055556,117.6447343456069L99.46867204861111,116.99094501260872L99.75650208333333,116.17372062853534L100.00037777777779,115.79173815552555L100.79722743055555,115.02632057044175L101.23677083333334,115.50498790792882L101.35870868055557,115.73027146088594L101.60400225694444,115.67663247885984L101.86914618055556,115.6053439380051L102.00809861111111,115.4749717317046L102.27607829861111,115.60150955853413L103.00061597222222,115.43160245033698L103.32389305555556,114.99189074045952L103.42598055555555,114.63936309219483L103.60038003472222,114.3361168415691L103.99738697916666,114.45988263788092L104.03992343750001,114.1325469326866L104.4993171875,114.72741128238668L104.79565451388889,115.20150294711677L105.65489097222222,113.6486997227176L105.72720295138889,112.89045795357083L106.51838107638889,113.01311379883873L107.21030746527778,113.35462388379861L107.77462447916668,112.74341172979376L107.84410069444445,112.95031383806439L108.18581024305556,111.43622294253919L108.35595607638889,111.38714387094151L109.2974296875,111.57127505025362L109.67033263888888,112.54338367804075L109.8362248263889,112.08140251726792L110.16091979166666,110.99755164054113L110.17793437499999,110.98021589054952L110.44307829861111,111.62678730930706L110.58912013888889,112.5729655119701L110.70964010416667,113.17603103108559L110.94217274305555,112.23011628735203L111.24418159722221,111.42674895549183L111.48238576388889,110.02318101306764L111.7758873263889,109.22534504066714L111.78723038194444,107.71676641550667L112.13886510416667,107.6626679380185L112.60393038194445,107.16431288249791L113.29443888888888,107.17138165284186L114.31389600694445,106.78317874146391L114.63150156249999,106.32969453919253L114.83709444444445,106.99234998761702L115.45812673611111,107.03388291854282L115.49640954861111,106.89142087668853L115.65663020833333,106.44117566401967L116.0068470486111,106.8120239179302L116.12311336805556,106.72270894801218L116.77108541666666,106.27133070946095L117.15249565972222,106.03538019710862L117.62465034722221,105.9218266891165L117.70546961805556,105.85802232098611L118.75186649305556,105.29193426857499L118.8936546875,105.416115021405L118.98298125,104.79343486692075L119.14603767361112,104.89037722007242L119.92587274305555,104.84987766212768L119.94146944444445,104.30299739591491L120.03788541666667,104.26091753913592L120.2973578125,103.57724111725356L120.36966979166667,103.3435021617782L122.19306597222223,103.64850440653788L122.43694166666667,103.26779529400909L122.47522447916667,101.77638560835818L122.72618958333334,102.23656804361612L122.95305069444444,102.48838659081702L122.99275138888889,101.89327658407906L124.36951475694444,102.10213888660864L124.45458767361112,102.32941103310404L124.7863720486111,102.11785731260613L125.08979878472222,102.01199720634551L125.09972395833333,102.43970971227347L125.12524583333334,102.37910186604611L125.41591163194444,102.91143080053526L125.49531302083334,102.78597850173173L126.70760208333333,100.9709640695273L127.34848472222222,100.63743656882457L128.21055694444445,100.25639148616087L128.426075,100.68962011098228L128.4870439236111,99.20446323660279L128.48846180555557,99.69551644419252L129.01449600694443,99.37353647946077L129.19314913194444,99.9207778315147L129.44553211805555,100.46490852492572L130.15872673611113,99.5895447622769L130.62237413194444,99.23322055948672L130.8478173611111,99.54527957775679L131.77511215277778,99.19408021373111L132.1480151041667,98.75414572751424L132.330921875,99.03297916257533L132.68397447916666,98.97028663694279L133.05971319444444,97.64631519981103L133.44679496527777,97.38253895326741L133.96290399305556,97.53505888606566L134.34006059027777,96.33279289980284L135.09720954861112,96.06128905904133L137.129034375,94.54810833673095L137.37858159722222,92.73934488587035L137.8564078125,93.47149350275205L138.098865625,93.82989716028936L138.7213157986111,94.33737705363542L139.55077673611112,93.24031514905313L139.55503038194445,94.01469713024157L140.03143871527777,94.86559288596742L140.17039114583335,94.48454623408944L140.9161970486111,94.23053291927422L140.95306197916668,92.91766802578431L141.5499902777778,93.32203036383089L141.90587864583335,92.8419499446353L141.91863958333334,91.81318014548427L142.47444930555557,93.03908877156084L143.17346510416667,93.767045538936L144.11352083333333,93.2825720787924L144.14046059027777,92.22965602325692L144.81679027777778,89.92635676858747L144.84089427083333,91.18227345500998L144.89052013888892,90.86651884388398L145.45767291666667,91.80342881496432L145.47326961805555,91.73728608971791L145.6916234375,92.10252998074611L146.52392013888888,90.736661162359L147.2385326388889,91.1657378586231L148.6592503472222,91.59548622119829L149.33699791666666,92.09116660298471L149.54684444444445,91.410902110655L149.5482623263889,89.8916393214645L149.89422552083334,89.78409685416179L150.04168524305558,89.21930957108937L150.15228003472222,88.47162925851167L150.5351081597222,87.72655490687924L150.9491296875,86.75434472869132L151.00159131944446,87.57058711129095L151.10367881944444,85.91771379078685L152.05791336805555,85.16408319295817L152.16141875,86.36380639709986L152.63499131944445,88.16640177301487L152.63782708333332,89.34983638086962L152.799465625,86.67615168809516L153.51549600694443,87.26704007397315L154.9716607638889,85.95184462126335L156.65326875,85.59427127241825L157.33101631944444,84.75887869595768L158.18458125,83.69464457636191L158.2795793402778,83.06972523591322L158.3348767361111,82.0469457201344L158.39442777777776,82.82248442937096L159.741415625,83.37575793955885L161.4797388888889,82.75935773154046L161.56906545138887,81.58054117713642L161.64704895833333,81.55101500864154L161.681078125,81.13581928902738L162.5388967013889,82.37547394215588L162.58568680555555,81.44518832528405L163.0280659722222,82.04854878963066L163.12873559027778,82.01058453566759L163.16560052083332,80.23678672663209L163.92558524305554,80.98237254615638L164.89399861111113,80.93802247904074L165.04854774305556,79.72817544598041L165.3661532986111,80.01803594825736L165.52353819444446,82.03531389640038L166.20270364583334,80.6365371356666L166.68052986111113,81.18714846116242L167.1526845486111,80.38296552910869L167.69998697916668,80.31985684729156L167.7170015625,79.56222545943741L168.80168125,78.37959586271242L169.0639894097222,78.67277428425369L169.51204010416666,78.22074937535956L170.1188935763889,76.62882898860485L170.358515625,77.57967874599439L170.8561921875,77.84539051983243L171.3311826388889,77.33988658503668L171.72818958333332,77.47821146168927L172.42436961805558,77.0419457256766L173.97553246527778,78.28089048904643L174.08329149305555,76.75302310029802L174.23642274305556,76.442466083237L174.79223246527778,76.38166693585079L175.51818802083332,74.98279518367195L176.06407256944445,75.38926998171101L176.7162982638889,76.83328312025866L176.79569965277778,77.72958385120154L176.81696788194444,77.84522507545638L177.06651510416665,77.19991459916076L177.94418402777777,77.20257487752593L177.99664565972222,75.3776238936796L178.45320364583336,72.94655695353039L178.79774895833333,71.99803920739609L179.36915538194444,71.96676985696898L181.97522239583333,71.40627574236584L182.01066944444443,70.16066773844176L182.82028003472223,69.87924008569132L183.19176510416668,69.04198656540345L183.35198576388888,67.50121978386309L183.69085954861112,69.07405264922679L183.72063506944446,68.43658890774161L183.88369149305555,69.13644530993618L184.73867430555555,68.85070406019256L184.96837118055555,69.31958263854828L185.2250078125,67.40096960906848L185.74395260416668,67.44338128097414L186.54080225694446,67.01800883647046L186.62303940972222,67.11480560907341L186.66841163194445,68.48675602472856L186.84139322916667,68.2308187816307L187.09377621527779,69.81171418862388L187.13064114583332,71.09846513304274L187.39862083333333,70.62977270176971L187.87361128472224,69.55680039253025L188.08203993055554,71.70716882983972L188.82217430555554,72.01007298201199L189.57932326388888,71.94838488302953L191.67778854166667,71.50762094550782L191.6976388888889,72.04102346033203L193.66424114583333,69.96158275492382L194.8056361111111,69.70577115911894L194.91055937500002,72.19751033226956L195.2862980902778,72.07952131076135L195.93285225694444,70.47519904296648L196.53545208333333,67.10353700976357L196.6077640625,67.70765991034973L196.9438020833333,68.87031393884601L197.16073802083332,68.84490533793016L199.15853368055554,68.40780228460588L199.26345694444444,65.18561074755155L199.34285833333334,66.44231051264015L199.44636371527778,65.84881063325112L199.72143281249998,66.62106593711351L200.5352970486111,67.40622051527717L201.04715243055557,65.91287754578069L201.09536041666667,65.73079090448388L201.2201340277778,64.89555400153549L201.44841302083333,65.00997922638193L202.45085555555556,64.1826886474937L203.1668859375,64.57546275149436L203.2023329861111,65.26046108571992L203.73829236111112,65.86015841464793L205.2596796875,67.14736876458937L206.5542059027778,67.8317953842242L208.19611319444445,66.78560760361425L208.81572760416668,65.8065263549716L209.23683854166666,65.27191715697444L209.51332552083332,66.90262087096451L209.58421961805556,66.11042054168055L209.69197864583333,65.77590911251251L209.8493635416667,65.85373253719875L210.6603920138889,65.89295418582263L211.49127083333335,66.98384779067786L212.56886111111112,67.92965396864133L212.88363090277778,68.27171759521468L212.97153958333334,69.30602503491198L212.97862899305557,69.97212425017076L213.1870576388889,69.25972203999746L213.4748876736111,66.94994786334146L214.4574798611111,65.62915360435107L215.50813038194443,65.3790158415722L215.92073402777777,64.83879382772747L216.2014746527778,63.71065788245474L216.40139600694445,63.911405043428005L216.46520069444443,62.49117125783519L217.3216013888889,61.47741337033291L218.02770659722222,61.903009533299624L218.73381180555558,61.395501001844664L218.78201979166667,60.007688753222695L220.2310951388889,59.583370561494164L221.5426359375,60.03843836862602L221.65181284722223,61.7001395708259L222.07434166666667,61.66615557468083L222.37209687499998,62.04912771252522L222.7520892361111,61.353353769397714L223.39438975694443,60.8175205604267L223.4723732638889,61.66515948094653L224.90726979166666,62.16007310316438L225.0490579861111,62.257835558472934L226.69380104166666,62.18564368231314L226.78029184027778,63.02461206798807L227.91459739583334,62.86126449400176L228.30735069444444,62.23226546647659L228.69017881944447,62.02560425186017L228.87024982638889,61.4802853305804L228.89860746527776,60.471258203772365L228.91987569444444,59.49625752011387L229.4444920138889,60.65483422904002L229.7422472222222,60.890201645979744L230.56461875,60.57756956731929L231.10199600694443,57.78074030589984L231.5472109375,57.71360930265361L232.35682152777778,58.25116792316952L234.32767743055555,59.32944868944632L235.00117135416664,57.751796242376685L235.0522151041667,59.40099570017027L235.74130572916667,59.90800704812199L236.10428350694443,58.86857392143479L237.00038489583332,57.6974874277288L237.04292135416665,59.44172401698718L238.00282743055556,56.82874692778846L238.5841590277778,56.65493500844711L238.81527378472222,55.25191955447741L238.9995984375,56.263679845123406L240.23315572916667,55.54041928248607L240.90948541666666,56.04839919017495L241.34052152777778,56.338665267251216L242.279159375,54.354853330369835L243.16817135416667,56.58317760670785L245.48357256944445,56.18207097884955L246.82347100694443,58.5502629044021L246.8277246527778,59.666827570993135L246.82914253472222,60.38596028264382L246.83056041666666,59.4741312270357L246.83197829861112,60.494157166832125L246.83339618055555,59.64080807124269L246.8348140625,60.88752404146216L246.83764982638888,59.389297750597194L246.83906770833332,59.727790514599974L246.84190347222224,60.69470784985873L246.84332135416665,60.74621511174783L246.84615711805557,60.53232979197929L246.84757499999998,57.87743804325014L246.84899288194444,56.895064473300124L246.8504107638889,55.469363572845126L246.85324652777777,55.41580543821685L246.85466440972223,54.44831973814516L246.85608229166667,54.1411443854244L246.8575001736111,52.30354311094446L246.85891805555556,52.3172770420375L246.86033593750003,53.96769306830251L246.86175381944443,51.23849698412852L246.8631717013889,49.878223867746925L246.86458958333336,47.27302544581599L246.86742534722222,46.93664348717189L246.8702611111111,47.20418197048596L246.87167899305555,46.77080057031236L246.87451475694445,47.466790591406124L246.87876840277778,48.00528659085924L246.88160416666668,47.75859802942955L246.88727569444444,46.58177394914287L246.8886935763889,47.29272215969732L246.89011145833334,47.469948713258844L246.89152934027777,45.320798744276686L246.8957829861111,44.143304455786534L246.89720086805556,43.782052760207876L246.89861875,43.21126613653084L246.90287239583336,42.76249159319022L246.90429027777776,43.443473136996204L246.9071260416667,43.39537215142158L246.9085439236111,41.578565463623164L246.90996180555555,40.5609827649171L246.91137968750002,41.36910722280041" style="fill: none;" fill="none"></path></g></g></g></g><g opacity="0.2"><g><g><g><path stroke="rgb(255, 112, 67)" stroke-width="2px" d="M28.965910243055554,152.4637552734375L29.01270034722222,152.372316796875L29.024043402777778,152.779969921875L29.032550694444446,152.7112787109375L29.069415625,152.47319296875L29.079340798611113,152.559065625L29.0821765625,152.63180156250002L29.086430208333333,152.6182154296875L29.106280555555557,152.5399482421875L29.107698437499998,152.434128515625L29.11336996527778,152.8903875L29.121877256944444,152.4933474609375L29.128966666666667,152.574345703125L29.162995833333333,152.3390947265625L29.204114409722223,152.773747265625L29.21829322916667,152.48218125L29.249486631944446,152.052610546875L29.361499305555558,152.55560859375L29.565674305555554,152.2992697265625L29.588360416666667,152.7212349609375L29.789699652777777,152.23375898437502L30.158348958333335,152.6283099609375L30.186706597222223,152.5289548828125L30.249093402777778,152.492068359375L30.3582703125,152.5850279296875L30.37812065972222,152.320323046875L30.422075,152.498152734375L30.423492881944444,152.4732275390625L30.46319357638889,152.6301767578125L30.48020815972222,152.306080078125L30.487297569444443,152.68199765625L30.505730034722223,152.5342095703125L30.54401284722222,152.6497435546875L30.623414236111113,152.3554119140625L30.661697048611114,152.3938541015625L30.670204340277778,152.202507421875L30.71983020833333,152.2685021484375L30.76094878472222,152.740559765625L30.850275347222222,152.4048474609375L30.86587204861111,152.441042578125L30.956616493055556,152.318248828125L31.260043229166666,152.552497265625L31.288400868055557,152.338991015625L31.3025796875,152.791032421875L31.62727465277778,152.3020353515625L31.638617708333335,152.2336552734375L31.645707118055558,152.3455939453125L31.729362152777778,152.4927943359375L31.798838368055552,152.7670060546875L31.83995694444444,152.379507421875L31.849882118055554,152.5491439453125L31.906597395833334,152.277317578125L31.93211927083333,152.576281640625L31.933537152777777,151.9883443359375L31.9916703125,152.188541015625L32.00726701388889,152.549455078125L32.02853524305555,152.0645373046875L32.075325347222226,152.4255205078125L32.08666840277778,152.423895703125L32.09233993055555,152.440627734375L32.11644392361111,152.4275947265625L32.16465190972222,152.3793L32.242635416666666,152.0883908203125L32.25823211805556,152.318940234375L32.438303125,152.4039486328125L32.4510640625,152.4516556640625L32.848071006944444,152.521937109375L32.872175,152.1195732421875L32.9742625,152.7367224609375L33.11321493055556,152.291422265625L33.1146328125,152.59301367187498L33.15433350694445,152.368168359375L33.171348090277775,152.4122109375L33.23515277777778,152.333459765625L33.38544826388889,152.177340234375L33.46201388888889,152.1754388671875L33.59813055555556,152.7126615234375L33.63074184027778,152.1319494140625L33.66193524305556,152.10647109375L33.806559201388886,152.61313359375L33.961108333333335,152.2092486328125L34.03058454861111,152.226706640625L34.06603159722222,152.529542578125L34.134089930555554,152.0706216796875L34.166701215277776,151.607690625L34.369458333333334,152.542264453125L34.42475572916666,152.2854416015625L34.44460607638889,152.334980859375L34.49706770833333,152.72555625L34.57221545138889,152.011402734375L34.807583854166666,151.94896875L34.809001736111114,152.4196435546875L34.81041961805556,152.6314212890625L34.858627604166664,152.2209333984375L34.91959652777778,152.388495703125L34.94086475694444,152.300687109375L35.01317673611111,152.0169685546875L35.02593767361111,151.751157421875L35.05854895833333,152.63664140625L35.23011267361111,152.39105390625L35.24145572916667,151.965769921875L35.254216666666665,152.848004296875L35.4116015625,152.21875546875L35.448466493055555,152.104742578125L35.45272013888889,152.21820234375L35.642716319444446,152.14961484375L35.646969965277776,152.15784257812498L35.730625,151.2021462890625L35.756146875,152.0413751953125L35.801519097222226,151.9723037109375L35.8199515625,152.144567578125L35.822787326388884,151.968950390625L35.97591857638889,151.9456154296875L35.978754340277774,152.108614453125L36.096438541666664,151.90662011718752L36.10919947916666,152.11781015625L36.16166111111111,151.64184609375L36.19427239583334,151.89597246093751L36.32046388888889,151.847816015625L36.38568645833333,152.1078884765625L36.501952777777774,152.018731640625L36.6111296875,151.67448046875L36.63806944444444,152.14871601562498L36.68060590277778,151.78565859375L36.769932465277776,151.914744140625L36.777021875,151.653945703125L36.91313854166667,151.4118498046875L37.018061805555554,151.69881796875L37.14992482638889,151.94827734375L37.26619114583333,151.7018947265625L37.41932239583333,151.7007884765625L37.46753038194444,151.8132802734375L37.490216493055556,151.14790546875L37.53842447916667,151.5142470703125L37.593721875,151.7690994140625L37.728420659722225,151.6948078125L37.79080746527777,152.3369513671875L37.84043333333333,152.1107232421875L37.86311944444444,151.7722798828125L38.002071875,151.9581298828125L38.02901163194444,152.47761796875L38.058787152777775,152.28084375L38.063040798611105,152.2599978515625L38.08714479166667,151.893172265625L38.09848784722222,151.72868671875L38.22893298611111,151.7495671875L38.28423038194445,152.00065136718752L38.3210953125,152.027719921875L38.42885434027777,151.840210546875L38.574896180555555,151.3454056640625L38.623104166666664,151.4229123046875L38.64437239583334,151.426334765625L38.661386979166664,151.374202734375L38.66847638888889,151.60215937499999L38.75638506944444,151.21096171875L38.79608576388889,151.2519275390625L38.93645607638889,151.3597177734375L39.086751562500005,151.3668392578125L39.14772048611111,151.311284765625L39.184585416666664,151.8244810546875L39.220032465277775,151.7443470703125L39.22428611111111,151.456203515625L39.229957638888884,151.593655078125L39.25689739583333,151.8103763671875L39.29801597222222,151.6566767578125L39.34905972222222,151.4304486328125L39.51495190972222,151.378351171875L39.55607048611111,151.94817363281248L39.584428124999995,151.791673828125L39.77300642361111,151.3006025390625L39.859497222222224,151.555489453125L39.88076545138889,151.607898046875L39.9289734375,151.4456595703125L39.96725625,151.1939185546875L40.15016302083333,150.96675703125L40.1586703125,151.2993234375L40.16575972222223,151.4587271484375L40.18986371527778,151.08664687499999L40.22531076388889,151.8701138671875L40.26501145833333,151.5893337890625L40.300458506944445,150.96202089843752L40.342994965277775,151.6307490234375L40.416724826388894,151.3238337890625L40.52023020833333,151.46643632812498L40.75418072916667,151.2763341796875L40.79955295138889,151.805363671875L40.83641788194445,151.1727615234375L40.95268420138889,151.4078396484375L40.976788194444445,151.7334228515625L41.066114756944444,150.9593935546875L41.07178628472222,151.991766796875L41.07320416666667,151.161249609375L41.08596510416667,152.372109375L41.16820225694445,151.5584625L41.18238107638889,151.4385380859375L41.18663472222222,151.69494609375L41.188052604166664,151.13075859375L41.380884548611114,151.41866015624998L41.43759982638889,151.6555705078125L41.44327135416666,151.6991291015625L41.57938802083333,151.15094765625L41.708415277777775,151.3380076171875L41.71408680555555,151.71264609375L41.75662326388889,151.8553177734375L41.82042795138889,151.1934L41.85162135416667,151.1649486328125L41.85729288194444,151.4788470703125L41.92109756944444,151.8562166015625L42.00191684027778,150.9456345703125L42.098332812500004,150.9363005859375L42.099750694444445,151.6378013671875L42.24012100694444,150.7356890625L42.2769859375,151.584459375L42.289746875,151.8441515625L42.353551562499995,151.196926171875L42.427281423611106,152.2048927734375L42.48116093749999,150.8063853515625L42.53787621527778,151.4979990234375L42.64988888888889,151.72426171875L42.661231944444445,150.87715078125L42.70802204861111,150.716537109375L42.73070815972223,151.5699744140625L42.74488697916667,151.32379921875L42.75623003472222,151.284734765625L42.79309496527778,150.721653515625L42.81578107638889,150.9972134765625L42.82570625,151.4558578125L42.89234670138889,151.7982767578125L42.96324079861111,150.7512111328125L43.143311805555555,151.419973828125L43.19435555555555,150.599966015625L43.20428072916667,151.7635681640625L43.225548958333334,151.207228125L43.2468171875,151.29185625L43.27517482638889,151.7611828125L43.388605381944444,151.29066357421874L43.40845572916667,150.822460546875L43.422634548611114,150.385906640625L43.433977604166664,150.5607287109375L43.54315451388889,151.30305703125L43.56725850694444,151.2528263671875L43.580019444444446,152.5277103515625L43.59419826388889,150.9747427734375L43.65091354166667,150.06391875L43.73031493055555,150.9975591796875L43.75016527777778,151.6621734375L43.77994079861111,151.365975L43.872103125,150.7397337890625L43.8848640625,150.74495390625L44.030905902777775,151.517462109375L44.110307291666665,151.4318314453125L44.13015763888889,150.8000935546875L44.16276892361111,151.495890234375L44.21948420138889,151.277544140625L44.3187359375,151.0817724609375L44.34000416666667,150.7428451171875L44.467613541666665,150.334396875L44.55552222222222,151.1738677734375L44.57962621527778,150.386598046875L44.592387152777775,151.02856875L44.75686145833333,150.88460068359376L44.79514427083333,150.2527763671875L44.820666145833336,150.6631259765625L44.87029201388889,149.6906630859375L44.892978125,150.9153509765625L44.92133576388889,151.2903697265625L44.96670798611111,150.4257662109375L45.04327361111111,150.72504140625L45.152450520833334,150.42303515625L45.37222222222223,150.6853546875L45.38356527777778,151.3894482421875L45.515428298611106,150.6916810546875L45.52251770833333,150.10536855468752L45.67564895833333,149.451263671875L45.68840989583333,150.4057845703125L45.742289409722225,150.3120298828125L45.827362326388894,150.4451947265625L45.89542065972222,149.571983203125L45.913853125,150.2403310546875L46.00743333333333,150.36606328125L46.103849305555556,150.1559794921875L46.19884739583333,149.9274005859375L46.20310104166666,149.7878056640625L46.32787465277778,148.999360546875L46.43846944444444,149.1835166015625L46.45548402777778,150.05410078124999L46.53063177083333,150.5650845703125L46.543392708333336,149.90503359375L46.57175034722222,150.1144259765625L46.65256961805556,149.8622701171875L46.69368819444445,150.0752232421875L46.750403472222224,149.5899251953125L46.89786319444445,149.82787265625L47.073680555555555,149.886987890625L47.10629184027778,149.2447060546875L47.21405086805555,149.2923439453125L47.25942309027778,148.4761388671875L47.26509461805556,148.7169556640625L47.314720486111106,149.6697134765625L47.41822586805556,149.3798068359375L47.4834484375,149.174286328125L47.50613454861111,149.1622212890625L47.56143194444444,148.4979873046875L47.635161805555555,149.71935644531248L47.715981076388886,148.25727421875L47.74717447916667,148.388157421875L47.77836788194444,149.8097578125L47.79680034722222,148.713948046875L47.80956128472222,149.576408203125L47.95134947916667,149.3291267578125L47.989632291666666,148.41398144531252L48.13850989583333,147.9147169921875L48.29022326388889,148.9549376953125L48.318580902777775,148.73489765624998L48.48730885416667,148.960434375L48.52133802083333,148.8325587890625L48.674469270833335,147.9111908203125L48.70566267361111,148.860941015625L48.721259374999995,149.5169126953125L48.96655295138889,148.3773369140625L49.038864930555555,148.3574935546875L49.26005451388889,148.4820849609375L49.43161822916667,146.788381640625L49.679747569444444,147.5287048828125L49.68116545138889,147.018343359375L49.716612500000004,147.7964865234375L49.73929861111111,147.39716484375L49.78183506944445,147.6011296875L49.86123645833333,148.474721484375L49.86265434027778,147.9770818359375L49.97892065972222,147.570984375L50.044143229166664,147.3992390625L50.150484375000005,148.1332013671875L50.17175260416666,147.89580703125L50.19869236111111,148.210327734375L50.23413940972222,147.8740623046875L50.279511631944445,148.36817578125L50.438314409722224,147.4962779296875L50.44256805555556,147.450403125L50.521969444444444,148.252780078125L50.70204045138889,147.715833984375L50.99412413194444,147.213043359375L51.171359375,145.8944970703125L51.19262760416667,146.1651134765625L51.32874427083333,146.372915625L51.44501059027778,147.845956640625L51.50030798611111,147.8956341796875L51.53717291666666,144.7897681640625L51.56836631944444,146.6962517578125L51.65769288194445,146.8108177734375L51.69313993055555,147.52548984375L51.790973784722226,147.1211900390625L51.8476890625,145.7282830078125L51.85477847222223,146.9583638671875L51.86186788194444,144.878164453125L51.878882465277776,145.93525546875L51.929926215277774,146.420553515625L51.958283854166666,146.5811326171875L52.07029652777778,146.1857865234375L52.15111579861111,147.0827478515625L52.158205208333335,145.4820041015625L52.26029270833334,146.71419375L52.28865034722222,146.840651953125L52.29999340277778,146.8099189453125L52.481482291666666,144.922691015625L52.63177777777778,146.7410548828125L52.76931232638889,146.501448046875L52.91393628472222,147.12972890625L53.13796163194444,143.8752451171875L53.18475173611112,144.814416796875L53.23012395833334,145.1150056640625L53.4300453125,144.5274140625L53.49952152777777,146.2809240234375L53.570415625,147.068816015625L53.727800520833334,144.2281734375L53.85540989583333,141.60356074218748L53.85824565972222,144.10275234375L53.90078211805555,143.23849453125L53.922050347222225,144.8483302734375L54.005705381944445,144.44752207031252L54.055331249999995,144.88590820312498L54.07376371527778,146.1107689453125L54.082271006944445,144.932578125L54.17443333333333,145.2407033203125L54.38427986111111,144.34944609375L54.38995138888889,145.87800703125L54.768525868055555,144.2385791015625L54.81956961805556,144.243868359375L54.925910763888886,144.926562890625L55.07478836805556,142.94236523437502L55.10881753472222,144.4133666015625L55.17404010416667,144.2098857421875L55.19389045138889,146.139980859375L55.36261840277778,145.5165052734375L55.46328802083333,143.877561328125L55.47604895833334,144.81766640625L55.54268940972222,145.1074001953125L55.91275659722223,145.465583203125L55.994993750000006,142.88200546875L56.126856770833335,143.4745060546875L56.2502125,144.07786171875L56.27857013888889,142.4066291015625L56.41752256944444,142.60032656250002L56.686920138888894,143.8034771484375L56.79042552083333,142.565548828125L57.1562390625,142.1159619140625L57.15907482638889,144.995565234375L57.24414774305556,143.16938847656252L57.28243055555556,140.879070703125L57.31504184027778,144.6460939453125L57.35474253472222,142.7393337890625L57.38310017361111,143.19396796875L57.47668038194444,143.128076953125L57.81271840277778,142.3799408203125L57.82689722222222,143.46748828124998L58.06935503472222,142.9999248046875L58.113309375,140.0314412109375L58.20405381944445,143.756634375L58.28487309027778,144.1606921875L58.37136388888889,140.8944544921875L58.38979635416667,141.8243267578125L58.691805208333335,141.28554843749998L58.694640972222224,141.9778880859375L58.927173611111115,141.27898007812502L59.08030486111111,143.303832421875L59.21358576388889,139.74910546875L59.24336128472222,142.46218359375L59.3255984375,141.82332421875L59.76372395833333,145.30234218750002L59.854468402777776,142.80377285156248L59.87715451388889,140.374828125L60.12670173611111,142.128441796875L60.296847569444445,140.6957443359375L60.330876736111115,140.9923921875L60.34505555555556,142.3773134765625L60.40177083333333,139.0331197265625L60.457068229166666,140.2145947265625L60.54497690972222,139.8898412109375L60.67116840277778,143.1690427734375L60.67400416666666,140.27948320312498L60.86825399305556,139.5349423828125L60.91504409722222,142.26471796875L61.048325,142.861332421875L61.055414409722225,140.422880859375L61.100786631944445,140.8015986328125L61.219888715277776,140.4132703125L61.229813888888884,141.586102734375L61.3673484375,139.234768359375L61.49779357638889,141.713183203125L61.59846319444444,142.958475L61.63958177083333,143.01772851562498L61.75726597222223,140.24356464843748L61.77144479166667,143.164583203125L61.84659253472222,140.4431736328125L62.064946354166665,139.5077701171875L62.15569079861111,139.28365078125L62.257778298611115,141.0229869140625L62.453446006944446,141.2190005859375L62.56404079861111,144.18520253906252L62.788066145833334,141.784674609375L63.49133559027778,137.8019671875L63.550886631944444,140.3986125L63.66148142361111,137.8952033203125L63.794762326388884,137.8741154296875L63.83162725694445,139.2560291015625L63.83304513888889,137.6596412109375L63.95214722222222,137.54106503906252L63.986176388888886,139.19266171875L63.998937326388884,136.519754296875L64.10953211805555,137.77434550781248L64.12938246527779,138.89079375L64.29527465277778,139.6942078125L64.37184027777778,141.46393125L64.55332916666667,138.23769140625L64.60437291666666,141.0285181640625L65.27361319444445,141.943974609375L65.31331388888889,139.4275669921875L65.39129739583333,138.6695783203125L65.40689409722222,139.5834791015625L65.42816232638889,139.41961582031252L65.43950538194444,138.4538595703125L65.47778819444444,141.97930546875L65.53875711805556,141.43039804687498L65.99956875,138.9876251953125L66.17822187499999,141.10771875L66.26187690972222,141.8741080078125L66.77798593749999,141.7592654296875L66.84746215277778,138.7681037109375L67.15514253472223,137.182259765625L67.36782482638888,139.2091517578125L67.45006197916666,137.0323974609375L67.45289774305556,138.0741392578125L67.52520972222223,139.560558984375L67.63438663194444,137.6621302734375L67.85557621527778,139.76123964843748L68.08669097222223,140.32103671875L68.20862881944446,134.1036005859375L68.31213420138889,138.77902792968752L68.4269826388889,136.9765318359375L68.50354826388889,134.0827892578125L68.57444236111111,136.9015142578125L68.59996423611112,138.67244765625L68.63115763888888,139.0075376953125L68.78428888888888,136.3118484375L68.93883802083333,136.8108017578125L69.06077586805556,134.4586376953125L69.1997282986111,134.0471818359375L69.46629010416666,138.6206958984375L69.63076440972222,136.0563392578125L69.64919687499999,135.092000390625L70.40776371527778,138.3691623046875L70.65163940972222,137.1956384765625L70.68425069444444,134.958835546875L70.71969774305555,136.3966494140625L70.72395138888888,133.9687763671875L70.76223420138889,135.63219609375L70.823203125,134.9008611328125L70.848725,138.6233232421875L71.18334513888888,136.269465234375L71.55624809027779,139.9291822265625L71.57751631944444,130.534803515625L71.76325885416666,136.98458671875L71.8823609375,133.5760576171875L71.91922586805556,133.0386275390625L72.01138819444444,135.6809056640625L72.28362152777777,133.0063734375L72.29496458333334,133.4083224609375L72.51615416666667,133.3084833984375L72.59271979166667,137.91909140625L72.70047881944444,132.61465722656249L72.72741857638889,135.7572369140625L72.83234184027779,134.41908925781252L73.11733611111111,133.21573125L73.3115859375,136.36010859375L73.49591059027779,140.2436337890625L73.80359097222221,135.7749369140625L73.8503810763889,136.997239453125L74.29843177083335,131.7232962890625L74.57775451388888,133.07430410156252L74.77058645833333,137.68719375L75.01304427083333,135.8378203125L75.06975954861112,133.2302162109375L75.07401319444445,131.3641107421875L75.14207152777777,133.3244548828125L75.3022921875,131.89390078125L75.44833402777778,133.807505859375L75.58586857638889,134.3244703125L75.80847604166667,132.54935390625L75.85101250000001,129.732219140625L75.91198142361111,131.597080078125L76.47488055555556,132.8323119140625L76.7215920138889,131.92338925781252L76.81659010416666,131.0538421875L76.84069409722223,133.16622656250001L77.39366805555555,132.8980646484375L77.5737390625,134.7375509765625L77.88567309027778,134.2911099609375L77.98492482638889,128.871280078125L78.15790642361111,128.574113671875L78.21887534722222,128.6012513671875L78.39611059027779,132.12057832031252L78.47834774305556,132.640965234375L78.71655190972223,130.0626076171875L79.35885243055556,131.6439919921875L79.42123923611112,130.49034609375002L79.70481562500001,129.8261466796875L79.78138125,129.186699609375L79.94301979166666,134.44038457031252L80.22234253472222,126.61045078125L80.38965260416667,131.0753103515625L80.51442621527778,132.2597583984375L80.53569444444445,128.3039466796875L80.75971979166667,128.50573359375L81.38500572916666,127.9779486328125L81.45589982638889,129.216084375L81.62320989583334,129.7184255859375L82.2598388888889,130.69382695312498L82.49095364583333,125.0613896484375L82.51080399305556,128.3861548828125L82.67102465277777,127.357238671875L83.20273038194445,131.915680078125L83.22116284722223,128.224262109375L83.36153315972223,125.63484199218749L83.39698020833333,131.3152283203125L83.65645260416666,126.30132304687501L83.75712222222222,123.3959994140625L83.77839045138889,123.70765078125001L83.90032829861111,130.066998046875L84.02935555555555,131.88200859375002L84.49725659722223,127.6798142578125L84.64471631944444,128.349959765625L84.74255017361111,121.1603373046875L84.94672517361111,129.4436953125L85.12679618055554,126.7179990234375L85.16224322916666,122.646964453125L85.69111319444444,131.001571875L86.13207447916668,127.506029296875L86.26819114583334,123.092368359375L86.40430781250001,126.1897646484375L86.442590625,129.3924275390625L86.65527291666668,128.5238138671875L86.92041684027778,128.53504921875L87.04519045138889,127.09924042968751L87.26212638888889,115.2263431640625L87.57264253472222,128.0431482421875L88.04054357638888,128.4988541015625L88.12845225694444,125.91296015625L88.56799565972221,122.16578027343749L88.60060694444444,115.7756654296875L88.88701909722222,121.0167322265625L88.94940590277778,127.3381904296875L88.9820171875,121.861250390625L89.02171788194444,122.4830666015625L89.20604253472222,127.83645234375L89.70655486111112,122.03783554687499L89.78453836805556,119.111666015625L90.43534618055556,123.37826484375L90.69623645833333,126.8848353515625L90.81250277777778,121.16704394531249L91.09040763888889,123.8094603515625L91.30734357638889,118.6956123046875L91.43495295138888,128.3699759765625L91.5880842013889,127.482590625L91.63203854166666,116.0270953125L91.7128578125,121.89706523437499L93.44267378472222,119.8392673828125L93.53625399305555,116.4859125L93.71207135416665,121.36516640625L93.96587222222222,113.877582421875L93.97012586805555,122.93676738281249L94.53018923611111,113.8801060546875L95.25189114583333,110.973814453125L95.2958454861111,128.1285369140625L95.75382135416666,124.3588517578125L96.19336475694445,123.8100134765625L96.32664565972222,121.51485585937499L96.53365642361112,121.30280156250001L96.58186440972221,116.29359785156251L96.79029305555555,112.0758814453125L96.92215607638889,117.61497890625L97.75019913194444,119.7414333984375L97.8026607638889,119.136003515625L97.95862777777778,119.6332283203125L97.98556753472222,117.75218847656251L98.1670564236111,116.655791015625L98.284740625,112.83639375L98.2875763888889,112.1880275390625L98.31309826388889,118.9066640625L99.16382743055556,114.42704296874999L99.46867204861111,111.106841015625L99.75650208333333,108.818701171875L100.00037777777779,112.3538958984375L100.79722743055555,108.13756230468749L101.23677083333334,119.8129939453125L101.35870868055557,117.75782343750001L101.60400225694444,115.193881640625L101.86914618055556,114.96374707031251L102.00809861111111,114.301621875L102.27607829861111,116.74035L103.00061597222222,113.90243847656251L103.32389305555556,111.03448535156251L103.42598055555555,111.46661425781251L103.60038003472222,111.60690058593751L103.99738697916666,115.5737748046875L104.03992343750001,111.1865255859375L104.4993171875,120.0811904296875L104.79565451388889,119.4683279296875L105.65489097222222,99.673470703125L105.72720295138889,106.06628203125L106.51838107638889,114.11701640625L107.21030746527778,116.42821464843749L107.77462447916668,107.24250234375L107.84410069444445,114.81243281249999L108.18581024305556,97.8094048828125L108.35595607638889,110.9454322265625L109.2974296875,113.2284556640625L109.67033263888888,121.292361328125L109.8362248263889,107.9235720703125L110.16091979166666,101.24289375000001L110.17793437499999,110.824194140625L110.44307829861111,117.445930078125L110.58912013888889,121.0885693359375L110.70964010416667,118.60362070312499L110.94217274305555,103.71688359375L111.24418159722221,104.19644296875L111.48238576388889,97.39106953125L111.7758873263889,102.0448212890625L111.78723038194444,94.1395587890625L112.13886510416667,107.175781640625L112.60393038194445,102.67911738281249L113.29443888888888,107.2350005859375L114.31389600694445,103.28935253906249L114.63150156249999,102.24833671875001L114.83709444444445,112.95624902343751L115.45812673611111,107.407679296875L115.49640954861111,105.6092625L115.65663020833333,102.38896874999999L116.0068470486111,110.149658203125L116.12311336805556,105.91887421874999L116.77108541666666,102.2089265625L117.15249565972222,103.91182558593749L117.62465034722221,104.8998451171875L117.70546961805556,105.2837830078125L118.75186649305556,100.197141796875L118.8936546875,106.533741796875L118.98298125,99.1893134765625L119.14603767361112,105.7628583984375L119.92587274305555,104.485381640625L119.94146944444445,99.381075L120.03788541666667,103.882198828125L120.2973578125,97.4241533203125L120.36966979166667,101.23985156250001L122.19306597222223,106.393524609375L122.43694166666667,99.84141328125L122.47522447916667,88.3536984375L122.72618958333334,106.3782099609375L122.95305069444444,104.754753515625L122.99275138888889,96.5372865234375L124.36951475694444,103.981899609375L124.45458767361112,104.3748603515625L124.7863720486111,100.213873828125L125.08979878472222,101.05925625L125.09972395833333,106.289122265625L125.12524583333334,101.83363125L125.41591163194444,107.70239121093749L125.49531302083334,101.65690781250001L126.70760208333333,84.63583417968749L127.34848472222222,97.6356890625L128.21055694444445,96.8269857421875L128.426075,104.588677734375L128.4870439236111,85.83805136718749L128.48846180555557,104.1149953125L129.01449600694443,96.475716796875L129.19314913194444,104.84595L129.44553211805555,105.362084765625L130.15872673611113,91.71127089843749L130.62237413194444,96.026302734375L130.8478173611111,102.35381074218749L131.77511215277778,96.0332859375L132.1480151041667,94.7947353515625L132.330921875,101.542480078125L132.68397447916666,98.40605390625L133.05971319444444,85.73057226562499L133.44679496527777,95.008552734375L133.96290399305556,98.90773828125L134.34006059027777,85.5123990234375L135.09720954861112,93.6177544921875L137.129034375,80.9294818359375L137.37858159722222,76.460473828125L137.8564078125,100.0608310546875L138.098865625,97.055530078125L138.7213157986111,98.90469609374999L139.55077673611112,83.36675800781249L139.55503038194445,100.9841349609375L140.03143871527777,102.5236546875L140.17039114583335,91.0551263671875L140.9161970486111,91.9444130859375L140.95306197916668,81.10188398437501L141.5499902777778,96.96129140625L141.90587864583335,88.521226171875L141.91863958333334,82.55425195312499L142.47444930555557,104.07226640625L143.17346510416667,100.3186564453125L144.11352083333333,88.9223109375L144.14046059027777,82.75341152343749L144.81679027777778,69.1966634765625L144.84089427083333,102.4855236328125L144.89052013888892,88.02472734375L145.45767291666667,100.2356185546875L145.47326961805555,91.1420015625L145.6916234375,95.389725L146.52392013888888,78.443841796875L147.2385326388889,95.027428125L148.6592503472222,95.463221484375L149.33699791666666,96.5522900390625L149.54684444444445,85.2885216796875L149.5482623263889,76.21827421875001L149.89422552083334,88.81621464843751L150.04168524305558,84.13622402343749L150.15228003472222,81.7425064453125L150.5351081597222,81.0208857421875L150.9491296875,78.004453125L151.00159131944446,94.9167685546875L151.10367881944444,71.04185390625L152.05791336805555,78.38140781249999L152.16141875,97.161315234375L152.63499131944445,104.38976015625L152.63782708333332,100.0007478515625L152.799465625,62.612989453124996L153.51549600694443,92.58503554687499L154.9716607638889,74.11508554687501L156.65326875,82.37611113281251L157.33101631944444,77.2403455078125L158.18458125,74.11653749999999L158.2795793402778,77.445451171875L158.3348767361111,72.84193007812499L158.39442777777776,89.8023328125L159.741415625,88.35521953125001L161.4797388888889,77.21175585937499L161.56906545138887,70.97119218750001L161.64704895833333,81.2852794921875L161.681078125,77.3990578125L162.5388967013889,93.5323658203125L162.58568680555555,73.0726177734375L163.0280659722222,87.47879296875L163.12873559027778,81.66890625L163.16560052083332,64.2726064453125L163.92558524305554,87.692644921875L164.89399861111113,80.538871875L165.04854774305556,68.83955214843749L165.3661532986111,82.62678046875001L165.52353819444446,100.1908154296875L166.20270364583334,68.0475462890625L166.68052986111113,86.142650390625L167.1526845486111,73.145319140625L167.69998697916668,79.7518787109375L167.7170015625,72.74354296875L168.80168125,67.7359294921875L169.0639894097222,81.311380078125L169.51204010416666,74.1525251953125L170.1188935763889,62.301545507812506L170.358515625,86.1373265625L170.8561921875,80.23679648437499L171.3311826388889,72.79035117187499L171.72818958333332,78.7231353515625L172.42436961805558,73.11555410156251L173.97553246527778,89.431393359375L174.08329149305555,63.002216601562495L174.23642274305556,73.6474529296875L174.79223246527778,75.834474609375L175.51818802083332,62.392949414062485L176.06407256944445,79.0475431640625L176.7162982638889,89.8294013671875L176.79569965277778,85.7962904296875L176.81696788194444,78.88599609375L177.06651510416665,71.39212031250001L177.94418402777777,77.2265173828125L177.99664565972222,58.953065039062494L178.45320364583336,51.066954492187506L178.79774895833333,63.461379492187504L179.36915538194444,71.685345703125L181.97522239583333,66.3618287109375L182.01066944444443,58.950195703125004L182.82028003472223,67.34639121093751L183.19176510416668,61.506704882812514L183.35198576388888,53.634318750000006L183.69085954861112,83.22954843749999L183.72063506944446,62.699415234374996L183.88369149305555,75.4351529296875L184.73867430555555,66.27903281249999L184.96837118055555,73.53948984375L185.2250078125,50.133452343749994L185.74395260416668,67.825086328125L186.54080225694446,63.18965683593751L186.62303940972222,67.98597656250001L186.66841163194445,80.83430976562501L186.84139322916667,65.92738359375L187.09377621527779,84.03977285156249L187.13064114583332,82.67922363281251L187.39862083333333,66.41154082031251L187.87361128472224,59.900049609375L188.08203993055554,91.060484765625L188.82217430555554,74.7362103515625L189.57932326388888,71.3931919921875L191.67778854166667,67.5407455078125L191.6976388888889,76.84164609375001L193.66424114583333,51.24661640625001L194.8056361111111,67.40346679687501L194.91055937500002,94.623162890625L195.2862980902778,71.0176201171875L195.93285225694444,56.0362986328125L196.53545208333333,36.75857871093751L196.6077640625,73.14476601562501L196.9438020833333,79.33420019531249L197.16073802083332,68.6162279296875L199.15853368055554,64.4738748046875L199.26345694444444,36.18588691406251L199.34285833333334,77.7526083984375L199.44636371527778,60.50731171874999L199.72143281249998,73.57136367187499L200.5352970486111,74.47261171875L201.04715243055557,52.47279082031251L201.09536041666667,64.0920111328125L201.2201340277778,57.378421875L201.44841302083333,66.03980625L202.45085555555556,56.73707343749999L203.1668859375,68.11042968749999L203.2023329861111,71.42544609375L203.73829236111112,71.257434375L205.2596796875,78.73226191406249L206.5542059027778,73.9916349609375L208.19611319444445,57.369917578125L208.81572760416668,56.99479511718751L209.23683854166666,60.460434375000006L209.51332552083332,81.578954296875L209.58421961805556,58.98061757812499L209.69197864583333,62.76530625000001L209.8493635416667,66.55414335937499L210.6603920138889,66.2459490234375L211.49127083333335,76.80189023437501L212.56886111111112,76.44190957031249L212.88363090277778,71.350290234375L212.97153958333334,78.6147919921875L212.97862899305557,75.9670171875L213.1870576388889,62.848102148437505L213.4748876736111,46.16198027343751L214.4574798611111,53.74200527343751L215.50813038194443,63.1277759765625L215.92073402777777,59.976795703125006L216.2014746527778,53.557434375L216.40139600694445,65.7181294921875L216.46520069444443,49.7090671875L217.3216013888889,52.353592382812494L218.02770659722222,65.733375L218.73381180555558,56.82792421875L218.78201979166667,47.51737851562498L220.2310951388889,55.764506835937496L221.5426359375,64.1340486328125L221.65181284722223,76.65545039062499L222.07434166666667,61.36029960937499L222.37209687499998,65.49587695312499L222.7520892361111,55.091388281250005L223.39438975694443,55.99502167968751L223.4723732638889,69.293909765625L224.90726979166666,66.61429570312501L225.0490579861111,63.13769765625L226.69380104166666,61.535916796875L226.78029184027778,70.5753275390625L227.91459739583334,61.391136328125L228.30735069444444,56.571274218750006L228.69017881944447,60.1656533203125L228.87024982638889,56.57241503906249L228.89860746527776,51.3900140625L228.91987569444444,50.721251367187506L229.4444920138889,71.082024609375L229.7422472222222,63.00850839843751L230.56461875,57.76388085937501L231.10199600694443,32.609276953125004L231.5472109375,57.109430273437496L232.35682152777778,63.08919550781249L234.32767743055555,69.03397558593751L235.00117135416664,43.55292421875001L235.0522151041667,74.24379082031251L235.74130572916667,64.4711091796875L236.10428350694443,49.51367578125L237.00038489583332,47.157708984375006L237.04292135416665,75.1398533203125L238.00282743055556,33.311953125L238.5841590277778,55.090627734375005L238.81527378472222,42.624780468750004L238.9995984375,65.3695224609375L240.23315572916667,49.03107421874999L240.90948541666666,60.620218359375L241.34052152777778,58.9510599609375L242.279159375,36.50054589843751L243.16817135416667,76.63809609375L245.48357256944445,52.57211132812499L246.82347100694443,79.863990234375L246.8277246527778,69.7159095703125L246.82914253472222,66.8581546875L246.83056041666666,51.26766972656249L246.83197829861112,69.674390625L246.83339618055555,51.960666210937504L246.8348140625,72.10796777343751L246.83764982638888,45.905261132812484L246.83906770833332,62.774225390625006L246.84190347222224,69.3969638671875L246.84332135416665,61.20978046875001L246.84615711805557,58.607361914062494L246.84757499999998,33.983412304687505L246.84899288194444,48.05370234374999L246.8504107638889,42.63805546875L246.85324652777777,54.9337822265625L246.85466440972223,45.74094843749998L246.85608229166667,51.37656621093751L246.8575001736111,35.765131640625015L246.85891805555556,52.440882421875L246.86033593750003,68.8214373046875L246.86175381944443,26.675732226562502L246.8631717013889,37.635765820312514L246.86458958333336,23.826239648437507L246.86742534722222,43.90920585937499L246.8702611111111,49.61202832031249L246.87167899305555,42.87036796875L246.87451475694445,53.73070078124999L246.87876840277778,52.851750585937495L246.88160416666668,45.538400976562514L246.88727569444444,35.99035722656251L246.8886935763889,53.6912560546875L246.89011145833334,49.064987695312496L246.89152934027777,25.97844902343749L246.8957829861111,33.545855859374996L246.89720086805556,40.5307875L246.89861875,38.074186523437504L246.90287239583336,38.72352070312499L246.90429027777776,49.572307031250006L246.9071260416667,42.962463281249995L246.9085439236111,25.22730527343751L246.90996180555555,31.40273847656252L246.91137968750002,48.642227343749994" style="fill: none;" fill="none"></path></g></g></g></g></g></g><g transform="translate(74, 177)" clip-path="url(#clip_1)"><clipPath id="clip_1"><rect width="255" height="23"></rect></clipPath><g><g><line x1="0" y1="0" x2="0" y2="5" style="visibility: inherit;" fill="rgb(0, 0, 0)" stroke="rgb(204, 204, 204)" stroke-width="1px"></line><line x1="28.357638888888886" y1="0" x2="28.357638888888886" y2="5" style="visibility: inherit;" fill="rgb(0, 0, 0)" stroke="rgb(204, 204, 204)" stroke-width="1px"></line><line x1="56.71527777777777" y1="0" x2="56.71527777777777" y2="5" style="visibility: inherit;" fill="rgb(0, 0, 0)" stroke="rgb(204, 204, 204)" stroke-width="1px"></line><line x1="85.07291666666666" y1="0" x2="85.07291666666666" y2="5" style="visibility: inherit;" fill="rgb(0, 0, 0)" stroke="rgb(204, 204, 204)" stroke-width="1px"></line><line x1="113.43055555555554" y1="0" x2="113.43055555555554" y2="5" style="visibility: inherit;" fill="rgb(0, 0, 0)" stroke="rgb(204, 204, 204)" stroke-width="1px"></line><line x1="141.78819444444446" y1="0" x2="141.78819444444446" y2="5" style="visibility: inherit;" fill="rgb(0, 0, 0)" stroke="rgb(204, 204, 204)" stroke-width="1px"></line><line x1="170.14583333333331" y1="0" x2="170.14583333333331" y2="5" style="visibility: inherit;" fill="rgb(0, 0, 0)" stroke="rgb(204, 204, 204)" stroke-width="1px"></line><line x1="198.50347222222223" y1="0" x2="198.50347222222223" y2="5" style="visibility: inherit;" fill="rgb(0, 0, 0)" stroke="rgb(204, 204, 204)" stroke-width="1px"></line><line x1="226.8611111111111" y1="0" x2="226.8611111111111" y2="5" style="visibility: inherit;" fill="rgb(0, 0, 0)" stroke="rgb(204, 204, 204)" stroke-width="1px"></line><line x1="255.21875" y1="0" x2="255.21875" y2="5" style="visibility: inherit;" fill="rgb(0, 0, 0)" stroke="rgb(204, 204, 204)" stroke-width="1px"></line></g><g transform="translate(0, 8)"><text x="0" y="0" dx="0em" dy="0.95em" style="text-anchor: middle; visibility: hidden; font-family: &quot;Helvetica Neue&quot;, sans-serif; font-size: 12px; font-weight: 200;" fill="rgb(50, 49, 63)" stroke="none" stroke-width="1px">-20k</text><text x="28.357638888888886" y="0" dx="0em" dy="0.95em" style="text-anchor: middle; visibility: inherit; font-family: &quot;Helvetica Neue&quot;, sans-serif; font-size: 12px; font-weight: 200;" fill="rgb(50, 49, 63)" stroke="none" stroke-width="1px">0</text><text x="56.71527777777777" y="0" dx="0em" dy="0.95em" style="text-anchor: middle; visibility: hidden; font-family: &quot;Helvetica Neue&quot;, sans-serif; font-size: 12px; font-weight: 200;" fill="rgb(50, 49, 63)" stroke="none" stroke-width="1px">20k</text><text x="85.07291666666666" y="0" dx="0em" dy="0.95em" style="text-anchor: middle; visibility: inherit; font-family: &quot;Helvetica Neue&quot;, sans-serif; font-size: 12px; font-weight: 200;" fill="rgb(50, 49, 63)" stroke="none" stroke-width="1px">40k</text><text x="113.43055555555554" y="0" dx="0em" dy="0.95em" style="text-anchor: middle; visibility: hidden; font-family: &quot;Helvetica Neue&quot;, sans-serif; font-size: 12px; font-weight: 200;" fill="rgb(50, 49, 63)" stroke="none" stroke-width="1px">60k</text><text x="141.78819444444446" y="0" dx="0em" dy="0.95em" style="text-anchor: middle; visibility: inherit; font-family: &quot;Helvetica Neue&quot;, sans-serif; font-size: 12px; font-weight: 200;" fill="rgb(50, 49, 63)" stroke="none" stroke-width="1px">80k</text><text x="170.14583333333331" y="0" dx="0em" dy="0.95em" style="text-anchor: middle; visibility: hidden; font-family: &quot;Helvetica Neue&quot;, sans-serif; font-size: 12px; font-weight: 200;" fill="rgb(50, 49, 63)" stroke="none" stroke-width="1px">100k</text><text x="198.50347222222223" y="0" dx="0em" dy="0.95em" style="text-anchor: middle; visibility: inherit; font-family: &quot;Helvetica Neue&quot;, sans-serif; font-size: 12px; font-weight: 200;" fill="rgb(50, 49, 63)" stroke="none" stroke-width="1px">120k</text><text x="226.8611111111111" y="0" dx="0em" dy="0.95em" style="text-anchor: middle; visibility: hidden; font-family: &quot;Helvetica Neue&quot;, sans-serif; font-size: 12px; font-weight: 200;" fill="rgb(50, 49, 63)" stroke="none" stroke-width="1px">140k</text><text x="255.21875" y="0" dx="0em" dy="0.95em" style="text-anchor: middle; visibility: hidden; font-family: &quot;Helvetica Neue&quot;, sans-serif; font-size: 12px; font-weight: 200;" fill="rgb(50, 49, 63)" stroke="none" stroke-width="1px">160k</text></g><line x1="0" y1="0" x2="255.21875" y2="0" fill="rgb(0, 0, 0)" stroke="rgb(204, 204, 204)" stroke-width="1px"></line></g></g></g></g></svg>