<svg viewBox="0 0 330 200" xmlns="http://www.w3.org/2000/svg"><g><g><g><g><g><line x1="63.984375" y1="177" x2="58.984375" y2="177" style="visibility: inherit;" fill="rgb(0, 0, 0)" stroke="rgb(204, 204, 204)" stroke-width="1px"></line><line x1="63.984375" y1="157.33333333333334" x2="58.984375" y2="157.33333333333334" style="visibility: inherit;" fill="rgb(0, 0, 0)" stroke="rgb(204, 204, 204)" stroke-width="1px"></line><line x1="63.984375" y1="137.66666666666669" x2="58.984375" y2="137.66666666666669" style="visibility: inherit;" fill="rgb(0, 0, 0)" stroke="rgb(204, 204, 204)" stroke-width="1px"></line><line x1="63.984375" y1="118" x2="58.984375" y2="118" style="visibility: inherit;" fill="rgb(0, 0, 0)" stroke="rgb(204, 204, 204)" stroke-width="1px"></line><line x1="63.984375" y1="98.33333333333334" x2="58.984375" y2="98.33333333333334" style="visibility: inherit;" fill="rgb(0, 0, 0)" stroke="rgb(204, 204, 204)" stroke-width="1px"></line><line x1="63.984375" y1="78.66666666666666" x2="58.984375" y2="78.66666666666666" style="visibility: inherit;" fill="rgb(0, 0, 0)" stroke="rgb(204, 204, 204)" stroke-width="1px"></line><line x1="63.984375" y1="59" x2="58.984375" y2="59" style="visibility: inherit;" fill="rgb(0, 0, 0)" stroke="rgb(204, 204, 204)" stroke-width="1px"></line><line x1="63.984375" y1="39.33333333333334" x2="58.984375" y2="39.33333333333334" style="visibility: inherit;" fill="rgb(0, 0, 0)" stroke="rgb(204, 204, 204)" stroke-width="1px"></line><line x1="63.984375" y1="19.666666666666686" x2="58.984375" y2="19.666666666666686" style="visibility: inherit;" fill="rgb(0, 0, 0)" stroke="rgb(204, 204, 204)" stroke-width="1px"></line><line x1="63.984375" y1="0" x2="58.984375" y2="0" style="visibility: inherit;" fill="rgb(0, 0, 0)" stroke="rgb(204, 204, 204)" stroke-width="1px"></line></g><g transform="translate(53.984375, 0)"><text x="0" y="177" dx="0em" dy="0.3em" style="text-anchor: end; visibility: hidden; font-family: &quot;Helvetica Neue&quot;, sans-serif; font-size: 12px; font-weight: 200;" fill="rgb(50, 49, 63)" stroke="none" stroke-width="1px">-1e+5</text><text x="0" y="157.33333333333334" dx="0em" dy="0.3em" style="text-anchor: end; visibility: inherit; font-family: &quot;Helvetica Neue&quot;, sans-serif; font-size: 12px; font-weight: 200;" fill="rgb(50, 49, 63)" stroke="none" stroke-width="1px">0</text><text x="0" y="137.66666666666669" dx="0em" dy="0.3em" style="text-anchor: end; visibility: hidden; font-family: &quot;Helvetica Neue&quot;, sans-serif; font-size: 12px; font-weight: 200;" fill="rgb(50, 49, 63)" stroke="none" stroke-width="1px">1e+5</text><text x="0" y="118" dx="0em" dy="0.3em" style="text-anchor: end; visibility: inherit; font-family: &quot;Helvetica Neue&quot;, sans-serif; font-size: 12px; font-weight: 200;" fill="rgb(50, 49, 63)" stroke="none" stroke-width="1px">2e+5</text><text x="0" y="98.33333333333334" dx="0em" dy="0.3em" style="text-anchor: end; visibility: hidden; font-family: &quot;Helvetica Neue&quot;, sans-serif; font-size: 12px; font-weight: 200;" fill="rgb(50, 49, 63)" stroke="none" stroke-width="1px">3e+5</text><text x="0" y="78.66666666666666" dx="0em" dy="0.3em" style="text-anchor: end; visibility: inherit; font-family: &quot;Helvetica Neue&quot;, sans-serif; font-size: 12px; font-weight: 200;" fill="rgb(50, 49, 63)" stroke="none" stroke-width="1px">4e+5</text><text x="0" y="59" dx="0em" dy="0.3em" style="text-anchor: end; visibility: hidden; font-family: &quot;Helvetica Neue&quot;, sans-serif; font-size: 12px; font-weight: 200;" fill="rgb(50, 49, 63)" stroke="none" stroke-width="1px">5e+5</text><text x="0" y="39.33333333333334" dx="0em" dy="0.3em" style="text-anchor: end; visibility: inherit; font-family: &quot;Helvetica Neue&quot;, sans-serif; font-size: 12px; font-weight: 200;" fill="rgb(50, 49, 63)" stroke="none" stroke-width="1px">6e+5</text><text x="0" y="19.666666666666686" dx="0em" dy="0.3em" style="text-anchor: end; visibility: hidden; font-family: &quot;Helvetica Neue&quot;, sans-serif; font-size: 12px; font-weight: 200;" fill="rgb(50, 49, 63)" stroke="none" stroke-width="1px">7e+5</text><text x="0" y="0" dx="0em" dy="0.3em" style="text-anchor: end; visibility: hidden; font-family: &quot;Helvetica Neue&quot;, sans-serif; font-size: 12px; font-weight: 200;" fill="rgb(50, 49, 63)" stroke="none" stroke-width="1px">8e+5</text></g><line x1="63.984375" y1="0" x2="63.984375" y2="177" fill="rgb(0, 0, 0)" stroke="rgb(204, 204, 204)" stroke-width="1px"></line></g></g><g transform="translate(63, 0)" clip-path="url(#clip_0)"><clipPath id="clip_0"><rect width="266" height="177"></rect></clipPath><g><g><g><line x1="0" y1="0" x2="0" y2="177" fill="rgb(0, 0, 0)" stroke="rgb(60, 60, 60)" stroke-width="1px" opacity="0.25"></line><line x1="29.557291666666664" y1="0" x2="29.557291666666664" y2="177" fill="rgb(0, 0, 0)" stroke="rgb(60, 60, 60)" stroke-width="1px" opacity="0.25"></line><line x1="59.11458333333333" y1="0" x2="59.11458333333333" y2="177" fill="rgb(0, 0, 0)" stroke="rgb(60, 60, 60)" stroke-width="1px" opacity="0.25"></line><line x1="88.671875" y1="0" x2="88.671875" y2="177" fill="rgb(0, 0, 0)" stroke="rgb(60, 60, 60)" stroke-width="1px" opacity="0.25"></line><line x1="118.22916666666666" y1="0" x2="118.22916666666666" y2="177" fill="rgb(0, 0, 0)" stroke="rgb(60, 60, 60)" stroke-width="1px" opacity="0.25"></line><line x1="147.78645833333334" y1="0" x2="147.78645833333334" y2="177" fill="rgb(0, 0, 0)" stroke="rgb(60, 60, 60)" stroke-width="1px" opacity="0.25"></line><line x1="177.34375" y1="0" x2="177.34375" y2="177" fill="rgb(0, 0, 0)" stroke="rgb(60, 60, 60)" stroke-width="1px" opacity="0.25"></line><line x1="206.90104166666666" y1="0" x2="206.90104166666666" y2="177" fill="rgb(0, 0, 0)" stroke="rgb(60, 60, 60)" stroke-width="1px" opacity="0.25"></line><line x1="236.45833333333331" y1="0" x2="236.45833333333331" y2="177" fill="rgb(0, 0, 0)" stroke="rgb(60, 60, 60)" stroke-width="1px" opacity="0.25"></line><line x1="266.015625" y1="0" x2="266.015625" y2="177" fill="rgb(0, 0, 0)" stroke="rgb(60, 60, 60)" stroke-width="1px" opacity="0.25"></line></g><g><line x1="0" y1="177" x2="266.015625" y2="177" fill="rgb(0, 0, 0)" stroke="rgb(60, 60, 60)" stroke-width="1px" opacity="0.25"></line><line x1="0" y1="157.33333333333334" x2="266.015625" y2="157.33333333333334" fill="rgb(0, 0, 0)" stroke="rgb(60, 60, 60)" stroke-width="1px" opacity="0.25"></line><line x1="0" y1="137.66666666666669" x2="266.015625" y2="137.66666666666669" fill="rgb(0, 0, 0)" stroke="rgb(60, 60, 60)" stroke-width="1px" opacity="0.25"></line><line x1="0" y1="118" x2="266.015625" y2="118" fill="rgb(0, 0, 0)" stroke="rgb(60, 60, 60)" stroke-width="1px" opacity="0.25"></line><line x1="0" y1="98.33333333333334" x2="266.015625" y2="98.33333333333334" fill="rgb(0, 0, 0)" stroke="rgb(60, 60, 60)" stroke-width="1px" opacity="0.25"></line><line x1="0" y1="78.66666666666666" x2="266.015625" y2="78.66666666666666" fill="rgb(0, 0, 0)" stroke="rgb(60, 60, 60)" stroke-width="1px" opacity="0.25"></line><line x1="0" y1="59" x2="266.015625" y2="59" fill="rgb(0, 0, 0)" stroke="rgb(60, 60, 60)" stroke-width="1px" opacity="0.25"></line><line x1="0" y1="39.33333333333334" x2="266.015625" y2="39.33333333333334" fill="rgb(0, 0, 0)" stroke="rgb(60, 60, 60)" stroke-width="1px" opacity="0.25"></line><line x1="0" y1="19.666666666666686" x2="266.015625" y2="19.666666666666686" fill="rgb(0, 0, 0)" stroke="rgb(60, 60, 60)" stroke-width="1px" opacity="0.25"></line><line x1="0" y1="0" x2="266.015625" y2="0" fill="rgb(0, 0, 0)" stroke="rgb(60, 60, 60)" stroke-width="1px" opacity="0.25"></line></g></g></g><g><g><line x1="0" y1="157.33333333333334" x2="266.015625" y2="157.33333333333334" fill="rgb(0, 0, 0)" stroke="rgb(153, 153, 153)" stroke-width="1.5px"></line></g></g><g><g><line x1="29.557291666666664" y1="0" x2="29.557291666666664" y2="177" fill="rgb(0, 0, 0)" stroke="rgb(153, 153, 153)" stroke-width="1.5px"></line></g></g><g><g><g><g><g><path stroke="rgb(255, 112, 67)" stroke-width="2px" d="M30.151393229166665,157.21840625L30.46617838541667,157.21743585526315L30.683424479166668,157.2071351091636L30.723326822916665,157.20719577820586L30.811998697916668,157.2018291136053L30.87998046875,157.20051392236178L31.00412109375,157.19769994846965L31.165208333333332,157.19637174894615L31.215455729166667,157.19394912483293L31.21693359375,157.1954790686675L31.329251302083332,157.19541684308783L31.37802083333333,157.19211139398882L31.379498697916667,157.1910224070561L31.398710937500002,157.19194334812818L31.432701822916666,157.19125132318254L31.459303385416668,157.19118978833228L31.5051171875,157.19312850836087L31.522851562499998,157.19436720411176L31.558320312499998,157.19409110323255L31.5671875,157.19259132107914L31.57162109375,157.1928676308392L31.579010416666666,157.19379165459245L31.726796875,157.19467174061256L32.010546875,157.19250914752632L32.06375,157.19311416699998L32.205625,157.1957523736593L32.53075520833333,157.19261114111364L33.16771484375,157.19098799679523L33.24160807291666,157.1850293715305L33.254908854166665,157.18042826306004L33.25638671875,157.18162917049202L33.43373046875,157.18060073177568L33.45294270833334,157.17885762441557L33.64654296875,157.17862690329807L33.74703776041667,157.17646638175432L34.03374348958333,157.17541267184777L34.04261067708333,157.17635084328046L34.493359375000004,157.17362327799788L34.60272135416666,157.1705532386512L34.785976562500004,157.1679870678492L34.82292317708333,157.16481280111236L34.93376302083333,157.16264831499151L34.95001953125,157.1609537659463L34.98401041666666,157.15781861043715L35.04460286458333,157.154382803462L35.05494791666666,157.15228743867502L35.07711588541667,157.15300438839142L35.14361979166667,157.1503086725604L35.15248697916667,157.1471440584044L35.3180078125,157.14534957084513L35.405201822916666,157.14614434189147L35.50274088541667,157.1445754415704L35.541165364583335,157.14446017266965L35.59141276041667,157.14053316832863L35.653483072916664,157.1386658353964L35.74215494791666,157.1354456403094L35.770234375,157.13168660178468L35.88698567708333,157.13144657576768L36.049550781250005,157.12772052012383L36.206204427083335,157.12209043412224L36.22393880208333,157.12059563983203L36.464830729166664,157.1194969766585L36.58897135416667,157.11850848404706L36.61557291666667,157.11780367966497L36.67616536458333,157.11501618717722L37.01459635416666,157.11029339149957L37.03528645833333,157.1083196475746L37.62052083333334,157.10291475183837L37.648600260416664,157.0977436348634L37.678157552083334,157.09825605077933L37.77274088541667,157.0979177549293L37.79638671875,157.1001958856533L37.8185546875,157.0948676132615L37.89392578125,157.09216307343692L37.914615885416666,157.09255732862977L37.9249609375,157.084981364716L38.02397786458334,157.080376639918L38.353541666666665,157.0794293454204L38.357975260416666,157.07507285334233L38.508717447916666,157.0775452748358L38.53236328125,157.07718859388578L38.54270833333334,157.0728106264197L38.65650390625,157.0720669453332L38.66241536458333,157.072565530601L38.69788411458333,157.06908040293501L38.71266276041667,157.06514482236244L38.8648828125,157.06104970387068L38.92251953125,157.05232412120986L39.03040364583333,157.05000297095657L39.05257161458333,157.050249567646L39.07030598958333,157.0502871134555L39.12055338541667,157.0470634115291L39.17080078125,157.0435475001261L39.21513671875,157.04204267490238L39.2195703125,157.03872159135662L39.32893229166667,157.04107973602086L39.82697265625,157.0404363223091L39.903821614583336,157.03629255419636L39.99840494791667,157.03016624297294L39.999882812500005,157.02741829568632L40.16983723958334,157.01984399338536L40.192005208333335,157.01173650294967L40.314667968749994,157.00763568991627L40.347180989583336,157.0061575118312L40.35900390625,157.00931368515026L40.56147135416666,157.0061312300456L40.614674479166666,157.00566393443773L40.64127604166667,157.0036454345815L40.64275390625,156.99949334839658L40.6737890625,157.00239404042136L40.700390625,157.0043286108377L40.70334635416666,157.00410303972842L40.826009114583336,156.99812290371372L40.87477864583333,156.98690221182764L40.8866015625,156.98030674624255L40.957539062500004,156.97873439721272L41.038821614583334,156.96969841746483L41.06098958333333,156.96801919402375L41.13192708333333,156.96988811466048L41.1348828125,156.96745242032898L41.18217447916667,156.9619415372797L41.19104166666667,156.96091508920017L41.20138671875,156.9584548244884L41.28710286458334,156.9615260152132L41.334394531250005,156.96551925463967L41.6314453125,156.96247565728575L41.823567708333336,156.94400306302555L41.93440755208333,156.9361048290771L42.161998697916665,156.9222359954851L42.21076822916667,156.91909572573408L42.23884765625,156.91024656085983L42.262493489583335,156.89810314369865L42.31717447916667,156.88760427904433L42.3762890625,156.88135113818706L42.389589843749995,156.87762852189329L42.54772135416667,156.87083649897303L42.62900390625,156.85439867355652L42.640826822916665,156.84261609215662L42.7309765625,156.8289388519746L42.776790364583334,156.81589183665488L42.828515625,156.8136141105179L42.87432942708333,156.81340790773388L42.9792578125,156.80480253116426L43.118177083333336,156.78955977412153L43.17876953125,156.78923921330173L43.24083984375,156.75656216015366L43.28665364583333,156.75099865142693L43.375325520833336,156.75324357833028L43.387148437499995,156.73873171828998L43.52311197916667,156.7323085455817L43.537890624999996,156.72480685676598L43.54971354166667,156.7194688788308L43.59109375,156.72744803341067L43.75513671875,156.71496260394824L43.79060546875,156.70606113450054L43.87484375,156.68569668623564L44.04775390625,156.68082805895997L44.056621093749996,156.68013379468974L44.10982421875,156.6812297902789L44.307858072916666,156.67859014445835L44.35514973958333,156.66260144182567L44.38766276041666,156.6512537972044L44.44677734375,156.6213127914421L44.47337890625,156.59743880321693L44.74530598958333,156.5816678391174L44.748261718749994,156.56937917989393L44.921171875,156.56434230345621L45.027578125000005,156.5225039055843L45.06600260416667,156.52430559839252L45.119205729166666,156.50693649659752L45.14137369791667,156.49068972169442L45.14580729166667,156.49979054131433L45.21822265625,156.4829677369788L45.3201953125,156.45768658800486L45.501972656250004,156.4328439706269L45.51083984375,156.4203804067873L45.518229166666664,156.4322715328699L45.77389973958333,156.40990896275605L45.81084635416667,156.40367223310687L46.036959635416665,156.37267688461634L46.070950520833335,156.37268315448807L46.101985677083334,156.3414065055589L46.11528645833334,156.33894710499263L46.13154296875,156.32007843608818L46.146321614583336,156.33751330087244L46.21430338541667,156.33894634578962L46.27046223958333,156.33587254453545L46.37243489583333,156.3360561234157L46.38130208333334,156.31655467769696L46.499531250000004,156.3297940016207L46.65322916666666,156.32954064312486L46.84682942708333,156.31917199546203L46.97983723958333,156.3215172959193L47.06259765625,156.3069113996413L47.068509114583335,156.29597859299744L47.1113671875,156.27796510867833L47.17639322916666,156.28609047281836L47.3241796875,156.2883022588718L47.522213541666666,156.26165328296372L47.545859375,156.248854621325L47.81630859375,156.23457020085007L47.82813151041667,156.2174121390886L47.93158203125,156.21862509184703L48.11040364583333,156.21129695765893L48.113359375,156.19161101188485L48.19907552083333,156.1611103273516L48.283313802083335,156.14865554461224L48.358684895833335,156.15041394848487L48.42814453125,156.12452463696263L48.469524739583335,156.10392842326132L48.5123828125,156.0859449559312L48.65573567708333,156.08014629367025L48.70007161458333,156.0746202059689L48.71041666666667,156.07892693537272L48.71189453125,156.0720477835011L48.80943359375,156.05473258848207L48.843424479166664,156.02439891296362L49.023723958333335,156.02014548000014L49.05623697916666,155.99554447366444L49.15820963541667,155.9968806512981L49.180377604166665,156.0053352945023L49.18185546875,156.01657051505285L49.36511067708334,156.02268742188127L49.39466796875,156.01891242969293L49.57940104166667,156.01907952005698L49.59565755208333,155.99778094305032L49.72127604166667,155.97928826541118L49.84837239583333,155.97499798053659L50.17645833333333,155.97980234914974L50.324244791666665,155.96913044756778L50.36119140625,155.95153615281055L50.404049479166666,155.93459503752908L50.470553385416665,155.9396907421096L50.50158854166667,155.9298956262318L50.581393229166665,155.91548731360837L50.63902994791667,155.88537295724706L50.70848958333333,155.885864828189L50.721790364583335,155.87979292870335L50.78386067708333,155.85638238583277L50.8710546875,155.8507389389161L50.91686848958333,155.82144525335755L51.024752604166665,155.81364135302172L51.04100911458333,155.79143763438606L51.05578776041667,155.76868866261395L51.06169921875,155.7782677130193L51.131158854166664,155.7809274000507L51.18436197916667,155.77379507671225L51.19766276041667,155.75360931904095L51.22426432291666,155.76297547047022L51.54939453125,155.75450396508984L51.66762369791667,155.7321910685808L51.82279947916666,155.74130217005606L51.82723307291666,155.72639382805042L51.85235677083333,155.7303690285787L51.88634765625,155.7415060840542L51.95432942708334,155.73468985064878L51.99570963541667,155.7034187822505L52.26024739583333,155.68916440402543L52.45236979166667,155.7049135886229L52.61050130208333,155.69388993809395L52.620846354166666,155.6858738609512L52.844003906249995,155.66292605818938L52.95632161458334,155.64946366070376L52.9991796875,155.60806260713338L53.00065755208333,155.5944323880867L53.08637369791666,155.570242274278L53.166178385416664,155.55842742185018L53.170611979166665,155.56567842966518L53.18391276041667,155.54596162836532L53.48096354166667,155.54935817386212L53.51791015625,155.55020256480924L53.56224609375,155.52238439166163L53.71151041666667,155.5347761608288L53.72037760416667,155.4941808364126L53.73811197916667,155.46207004443798L53.860774739583334,155.4447244983275L53.916933593749995,155.47108954849477L54.007083333333334,155.46359726031196L54.092799479166665,155.4748614926141L54.107578124999996,155.4784847183527L54.21989583333333,155.44732895485075L54.283444010416666,155.43305543436566L54.29822265625,155.39925197426243L54.38689453125,155.3625601101695L54.44453125,155.3951749324859L54.469654947916666,155.3630699392373L55.22779947916666,155.3506462786469L55.232233072916664,155.33614623411555L55.27213541666667,155.33606390237065L55.31499348958334,155.34846584546693L55.5174609375,155.35458801092025L55.5440625,155.33041358482822L55.615,155.3278316013454L55.76869791666667,155.30596406621086L55.85736979166667,155.2898478679231L55.881015625,155.28271828946413L55.92387369791667,155.28920791885105L56.048014322916664,155.2923444186326L56.062792968749996,155.25706310176935L56.06574869791667,155.2566536665924L56.12486328125,155.2646435082665L56.546054687499996,155.2671020741065L56.55787760416667,155.24442415836253L56.6169921875,155.28596403419294L56.62733723958333,155.26619367244032L56.65393880208334,155.23561701352963L56.65541666666666,155.2267813538433L56.75147786458333,155.22104176012567L56.97611328125,155.24254904244643L57.004192708333335,155.21827017986845L57.03966145833333,155.17792024521495L57.06182942708333,155.16680322069345L57.075130208333334,155.18181144029077L57.13424479166667,155.19734696292835L57.468242187499996,155.21237372496887L57.62046223958333,155.2107790608053L57.639674479166665,155.1898001130581L57.76824869791667,155.19949718508562L57.89830078125,155.18861934157707L57.935247395833336,155.19370219908603L57.967760416666664,155.19674031251077L58.04017578125,155.21612982292635L58.349049479166666,155.20020850730037L58.41555338541667,155.18360536490368L58.476145833333334,155.16552816174664L58.510136718750005,155.10974097057198L58.67565755208334,155.1211752068481L58.82639973958333,155.11948164449663L58.83970052083333,155.12336577171362L58.842656250000005,155.1306719028756L58.84708984375,155.08912554592138L59.03921223958333,155.0398109079959L59.17222005208333,155.03168815052965L59.22690104166667,155.02075162714334L59.24020182291667,155.01791500609568L59.41311197916667,155.00288600548612L59.519518229166664,154.98278386327084L59.654003906250004,154.9830065186104L59.68651692708333,154.9875089917494L59.755976562499995,154.97115705090778L59.79440104166667,154.956378845817L59.82986979166667,154.9340440862353L59.961399739583335,154.93526884427843L60.04859375,154.93170029318392L60.07962890625,154.93764588886552L60.16534505208333,154.90341775831232L60.330865885416664,154.89332389914776L60.54958984375,154.8721935925663L60.561412760416665,154.84703048330968L60.79048177083333,154.83477014331203L60.81560546875,154.79122437898084L60.828906249999996,154.7873102744161L61.029895833333335,154.76743966364114L61.28261067708333,154.75680819727702L61.397884114583334,154.76223571088266L61.4584765625,154.75052672312773L61.92400390625,154.7368542591483L62.01563151041666,154.7505459165668L62.27721354166666,154.77884757491012L62.27869140625,154.7436596924191L62.290514322916664,154.73165726484388L62.38805338541667,154.73800195502614L62.4338671875,154.78685592619019L62.43830078125,154.7610692919045L62.445690104166665,154.75316444604738L62.552096354166665,154.72048341810932L62.717617187500004,154.68590799296504L62.75604166666666,154.63014531866855L62.76047526041666,154.60454224513504L62.78116536458333,154.61954218728818L62.85801432291667,154.68165567689272L63.03240234375,154.64272760920343L63.10925130208334,154.6689048482831L63.116640624999995,154.6987945717881L63.12107421875,154.66306928127597L63.16393229166667,154.64554360314838L63.20383463541667,154.66166736783353L63.23043619791667,154.68398396438351L63.28955078125,154.69073244294515L63.29841796875,154.68310086531733L63.755078125,154.68305432045224L63.81271484375,154.70132701340702L63.93537760416667,154.73700889539964L64.31223307291667,154.72321321419304L64.51913411458334,154.71036689277372L64.81175130208334,154.68387082849634L64.8812109375,154.71601291231337L64.89303385416666,154.72957620441537L65.0230859375,154.72703316730718L65.31865885416667,154.68504235057645L65.36742838541666,154.68320374051882L65.38368489583334,154.67915211646692L65.57580729166666,154.68546190482024L65.63048828125,154.7012813393382L65.634921875,154.68190112207105L65.64970052083333,154.66359850986396L65.66300130208333,154.62094490887756L65.71029296875,154.6293879179898L65.71768229166668,154.59556370952416L65.74428385416667,154.60205838023842L65.79453124999999,154.60077441721455L66.02212239583334,154.60318343382644L66.2290234375,154.57591300711047L66.25858072916667,154.57158941473276L66.29552734375,154.58140338992615L66.557109375,154.57628492593352L66.63543619791668,154.51802518334017L66.86893880208333,154.50959558167284L66.911796875,154.52081519017221L67.00785807291666,154.53287950448833L67.11426432291667,154.5517884290395L67.24136067708334,154.57237104446887L67.26205078125001,154.57639123168866L67.51328776041666,154.59340731685313L67.61969401041667,154.58413846016782L67.89162109374999,154.6041287808177L68.12069010416667,154.6235950694026L68.20345052083333,154.60725118746234L68.37192708333333,154.60329690204944L68.38966145833332,154.57011512851116L68.44138671875,154.56127028232672L68.47094401041666,154.56560158742738L68.57291666666667,154.5691924703513L68.59508463541667,154.56547947331617L68.685234375,154.52409506765122L68.70740234374999,154.52470743588609L68.75321614583333,154.5171460672975L68.8359765625,154.55963041890107L68.93647135416667,154.5484538353443L69.06947916666667,154.54011574347652L69.08277994791666,154.54176875246222L69.16258463541666,154.504291877216L69.20248697916666,154.54627935616105L69.359140625,154.48880767054496L69.37096354166667,154.4577946118238L69.58377604166667,154.45219223397476L69.61037760416667,154.43301467724393L69.92072916666666,154.42411320951953L69.98132161458332,154.3869706385676L70.10250651041667,154.35999544971082L70.56212239583334,154.3691511130731L70.56803385416667,154.3835985017658L70.57542317708334,154.34694281825585L70.69217447916667,154.3102037447636L70.86065104166667,154.33331149528726L70.95375651041667,154.33431888742518L70.96262369791667,154.37056408201602L71.50056640625,154.36139309048107L71.59810546875,154.37102357309962L71.77692708333333,154.37293059078968L71.80796223958333,154.3790719067107L71.81535156250001,154.34293034103962L71.88481119791668,154.30616230693568L71.89220052083334,154.2961179512421L72.00451822916668,154.28898323945123L72.22619791666666,154.27174533217277L72.26018880208333,154.24885621562217L72.32373697916667,154.2674664273933L72.3473828125,154.26448749298729L72.35181640625001,154.27680228535522L72.3651171875,154.30540122348637L72.7020703125,154.3114121428044L72.72128255208334,154.29316051185728L72.72423828125,154.24877050233823L72.80995442708333,154.26075178543775L72.89419270833334,154.25395785689398L72.93852864583333,154.21059957120457L72.941484375,154.2506739890841L73.3050390625,154.21053263184237L73.41883463541666,154.2341429103248L73.76169921875,154.27075674429233L73.80751302083334,154.2764831531964L73.934609375,154.25348900454344L73.94199869791666,154.26499843742243L74.27008463541667,154.26546213534687L74.5996484375,154.21167321347883L74.81689453125,154.22269339213096L74.96468098958333,154.2064917612512L75.02822916666666,154.20967175179274L75.15975911458334,154.22550145161347L75.17158203125001,154.2387648481188L75.41690755208333,154.19133315497356L75.4686328125,154.2041415061429L75.495234375,154.14505339719526L75.60016276041668,154.17644076580908L75.65188802083334,154.18791127256148L75.75829427083333,154.17826077030534L75.76125,154.2126576099415L75.88834635416667,154.21294705728064L75.89573567708332,154.19274193488593L75.98145182291667,154.15273961639733L75.98440755208333,154.10032815475762L76.41446614583333,154.06379013094852L76.61988932291666,154.13673715952032L76.68639322916667,154.17209052690163L76.76767578125,154.10717314087813L76.94649739583333,154.13036416012363L76.9937890625,154.12087566077795L77.35438802083333,154.1414672613668L77.43714843750001,154.14733928523015L77.61005859375,154.16995535670713L77.84208333333333,154.1777723210364L77.889375,154.23016383893278L77.92041015625,154.22519953837283L77.95735677083334,154.2537962512022L78.00317057291666,154.19177079274866L78.04455078125,154.1885562134738L78.21598307291667,154.18486413379307L78.32977864583334,154.20096209541376L78.50564453125001,154.17660859420573L78.7849609375,154.25081127645183L79.08201171875,154.21686348213998L79.08496744791665,154.21845317559263L79.12782552083333,154.1967755663667L79.29925781249999,154.1762209263967L79.35689453125,154.2038155004237L79.36723958333333,154.20130165871467L79.50911458333333,154.20438607617652L79.62586588541667,154.20236830189222L79.63916666666667,154.1408148050363L79.68941406249999,154.17194999119937L79.70419270833334,154.24237790874608L79.73227213541666,154.22685053453813L79.87119140625,154.23727485608433L79.87858072916666,154.1950317454759L79.88597005208334,154.13150773759497L79.96725260416666,154.1575507138355L79.98498697916666,154.13729251745193L80.1327734375,154.10240493237342L80.29829427083332,154.09589673080274L80.47268229166667,154.00854559938912L80.55692057291665,154.04977333111688L80.93525390625001,154.0550428730052L81.19831380208333,154.092296919038L81.22048177083333,154.07610576880086L81.30176432291667,154.08845248358745L81.40521484375,154.04990619356204L81.42147135416667,154.0309478658725L81.57516927083334,154.05727495428525L81.58108072916667,154.10407766719007L81.82345052083333,154.09912302547104L81.86187500000001,154.13381280625728L81.87222005208334,154.1025304839649L82.00227213541666,154.09355139390175L82.00670572916667,154.1453920878449L82.16483723958333,154.12389142072706L82.22986328124999,154.13059915365437L82.32740234375,154.15015694662225L82.67913411458333,154.2011922936267L82.70130208333333,154.1951303559307L82.80475260416667,154.23275690367097L82.81509765625,154.17744475497054L83.03677734374999,154.17732215447347L83.08850260416666,154.18427952235947L83.15796223958334,154.08778282012352L83.16830729166666,154.09355349644449L83.22003255208334,154.0921710634667L83.28801432291667,154.06966229045338L83.404765625,154.07994918640804L83.59984375,154.1020521844339L83.80526692708332,154.0810750909905L84.02251302083333,154.0919415402248L84.11118489583333,154.11518071953566L84.17768880208332,154.08385639758208L84.38163411458333,154.13586763282387L84.56045572916666,154.16934128620815L84.65060546875,154.13647278258733L84.69789713541667,154.16023696266194L84.74962239583333,154.11604868306242L84.77474609375,154.0920740230895L84.85307291666668,154.08549266244722L84.98903645833333,154.08878818786917L85.10726562500001,154.06852291074892L85.142734375,154.06153103634068L85.15455729166668,154.06845189103996L85.17081380208334,154.0682275352693L85.39101562500001,154.05837665674235L85.40727213541668,154.02836919940145L85.42352864583333,154.02023019612798L85.46047526041667,154.03644363484852L85.57279296875,154.042923229697L85.71762369791666,154.02687569839395L85.91417968750001,154.00155479522124L86.18315104166666,154.0078972323658L86.29399088541666,153.99277105079588L86.54818359375,153.97602311238296L86.80828776041666,153.9900812178113L86.97085286458334,153.98189913769684L87.04326822916667,153.9814800572605L87.08908203125,153.9726830932011L87.26938151041668,153.957452283881L87.53391927083334,153.93323518049291L87.78811197916666,153.98709499577694L87.83097005208333,153.94295112119926L87.83392578125,153.89086850907933L87.84131510416667,153.88762957483806L87.84279296875,153.94002703402091L88.1309765625,153.77896391395217L88.5033984375,153.80719668922362L88.52704427083334,153.73402702030126L88.53295572916667,153.69527744327112L88.56399088541666,153.679024698944L88.87286458333332,153.68480139571628L88.89798828125,153.729395214478L89.12853515625001,153.69848381803018L89.292578125,153.6620593945605L89.35464843749999,153.74709303843778L89.36794921875001,153.73278790126068L89.57041666666667,153.69078202780128L89.62509765624999,153.69821007502114L89.72854817708334,153.76739844251904L89.77288411458333,153.7341002649338L90.10688151041667,153.79392253010707L90.22954427083333,153.76774381876305L90.34038411458333,153.80975902022007L90.34333984375,153.76546436819805L90.52068359375,153.78675022304492L90.61674479166668,153.77554707574043L90.69211588541667,153.7875892431664L90.96404296875,153.79842719384973L91.1103515625,153.79711884946477L91.21380208333333,153.79256113118498L91.31725260416667,153.79970605973313L91.37488932291666,153.75150003709317L91.41626953125001,153.75494586671718L91.4384375,153.78299919671213L91.49459635416666,153.7706961520409L91.54927734375,153.72526820350348L91.59065755208333,153.7610830498198L91.64533854166666,153.77813620317116L91.6601171875,153.74327258285405L91.71479817708332,153.69075365790198L92.04436197916667,153.66456683377845L92.36210286458333,153.62747785873393L92.39461588541667,153.61677590619388L92.52762369791667,153.62121810724116L92.53796875,153.6720473381837L93.02861979166666,153.686265521032L93.03748697916667,153.63981605226212L93.38626302083334,153.67686257203593L93.40251953125001,153.68740339816566L93.42616536458333,153.7019911833491L93.53848307291666,153.6679816483475L93.68035807291666,153.67603035851278L93.78380859375,153.6893585726615L93.80745442708333,153.69459354872868L93.90942708333334,153.6830185688558L94.16805338541667,153.6936198369702L94.2493359375,153.64244014493988L94.25524739583332,153.71333363044587L94.28037109374999,153.6714908924013L94.68973958333333,153.7299532614945L94.78580078125,153.73180481034504L94.80205729166667,153.73844932931055L94.95427734375,153.66785231304615L95.01339192708333,153.70910145674154L95.10649739583334,153.63240485273406L95.11832031249999,153.626741450794L95.26019531249999,153.56670063904792L95.29418619791666,153.52919620014313L95.65478515625,153.56396824679547L95.68729817708333,153.53226829711593L95.72867838541667,153.514923759071L95.80848307291666,153.5172595081639L95.96661458333334,153.44014189068085L96.4129296875,153.49715582661275L96.46908854166666,153.46543816061813L96.57549479166667,153.477639136223L96.76170572916666,153.43084918093405L96.8917578125,153.47422676284063L96.9094921875,153.46920096155657L97.04988932291666,153.5205433654009L97.16072916666666,153.5272338205275L97.24792317708334,153.58309793847474L97.34250651041667,153.61536835296062L97.38240885416667,153.58971380933122L97.66911458333334,153.54136534506475L97.80212239583334,153.54302360222493L97.99867838541667,153.5518910336691L98.05188151041666,153.54579776363553L98.29425130208332,153.546889862272L98.42873697916667,153.52439566771145L98.59425781249999,153.51293943427365L98.62233723958333,153.48425278251295L98.833671875,153.432376462595L99.0021484375,153.36786485800215L99.01544921874999,153.33979608053528L99.03466145833333,153.37236647248176L99.06126302083334,153.3246725335669L99.38639322916667,153.28789382187688L99.43664062500001,153.2786388146892L99.4632421875,153.22993118322026L99.47063151041668,153.23354014823158L99.57851562500001,153.25700800840843L99.92433593749999,153.1813936659009L100.10611328125,153.17565950764416L100.44454427083333,153.1814383485464L100.53321614583334,153.19426013869176L100.855390625,153.2379424581559L100.87903645833333,153.20787008734032L100.92485026041666,153.21147266193964L100.96475260416668,153.20316081241234L101.00169921874999,153.1334228561711L101.05785807291666,153.17544515388732L101.14357421874999,153.17546834683193L101.2189453125,153.14629651214872L101.23076822916667,153.12575748593386L101.25884765625,153.07002861234048L101.55442057291667,153.06301637610642L101.82339192708334,153.02161265516244L102.12192057291666,152.98281284797955L102.13078776041667,153.0581492715149L102.13817708333333,153.03431767769675L102.55050130208333,153.0270046599271L102.68055338541666,153.05391773560103L102.68350911458333,153.02620721204093L102.84607421875,152.9591073241702L102.9569140625,153.05371534175316L103.32342447916666,153.02534901591116L103.41652994791667,153.0848161976534L103.53475911458334,153.01142520288806L103.65298828125,152.94512747426592L103.9145703125,152.91207097683932L104.00767578125,152.92570971248873L104.07565755208334,152.93638665790652L104.26334635416666,152.9809657004492L104.67567057291666,152.84672954707094L104.95498697916666,152.8208701340305L104.96680989583334,152.7940320789608L105.07026041666666,152.82537470439806L105.19587890625,152.79624244229157L105.4397265625,152.76639736472907L105.44416015624999,152.7132940865895L105.52100911458332,152.64718655293058L105.68505208333335,152.40620331430418L105.71313151041666,152.40694235787376L105.95106770833334,152.36606166375304L106.08259765625,152.47572424737774L106.11511067708334,152.4234789059733L106.18900390625,152.4247643487093L106.30279947916667,152.46931083050504L106.30723307291667,152.50897245578787L106.36634765625,152.3012314602091L106.57620442708333,152.37497081418817L106.66487630208333,152.38768310776936L106.97818359375,152.34479500532575L107.38755208333333,152.17676446312652L107.42006510416667,152.14753176681387L107.65356770833333,152.19146921513249L107.72007161458333,152.1188514602859L107.72302734374999,152.10143298092396L107.85751302083334,152.11513343283158L108.06293619791667,152.12310029788173L108.18264322916667,152.0961611014269L108.32451822916667,152.13312832461756L108.3658984375,152.1886467421558L108.83142578125,152.18827894294023L108.93339843749999,152.0470854236462L109.19498046874999,152.05773938128158L109.24079427083333,152.0979341931534L109.43291666666667,152.18094077383807L109.54966796875,152.16450398812094L109.59548177083333,152.0833358809755L109.69449869791667,152.0262637512113L110.32406901041666,152.04201133442348L110.38170572916667,152.03018728431448L110.39944010416667,151.97732376421635L110.47037760416667,151.80541638779474L110.609296875,151.8216768323486L110.84132161458334,151.56153102411372L110.98319661458333,151.5936987550357L111.21226562499999,151.49561533786544L111.59946614583333,151.64413922074556L111.62311197916667,151.49620863200434L111.71917317708333,151.38556485213724L112.16105468750001,151.31136774192353L112.49505208333333,151.26960388439784L112.63840494791667,151.17651953762473L112.72412109375,151.1078009171956L112.92806640625,151.16942395047602L113.31674479166666,151.10092322209508L113.33743489583334,150.98432881655225L113.37438151041667,151.00753447656368L113.53399088541666,151.041141445574L114.00247395833334,151.05774396768325L114.049765625,150.97711852924826L114.07932291666665,150.96552230132343L114.19902994791666,151.01881798785774L114.34090494791666,150.9363695224053L114.4310546875,150.77421902849812L114.53598307291666,150.7476971256483L114.901015625,150.68510866308347L115.10052734374999,150.81118738010846L115.19954427083334,150.77660510043094L115.36063151041667,150.59017584038784L115.5128515625,150.64327075634907L115.93995442708334,150.5500707640475L115.95177734375001,150.62432306264276L116.08921875,150.53154283971182L116.16458984375,150.63610313907395L116.35227864583334,150.61909074183322L116.39661458333333,150.60525458431658L116.66854166666667,150.51253745921824L116.90204427083333,150.41729204662977L117.46067708333332,150.4071034669668L117.49762369791667,150.58851603693677L117.4991015625,150.7483456832431L117.8360546875,150.82471111491878L117.93211588541666,150.7354306284269L118.23064453125001,150.73374485725088L118.35626302083334,150.66935578819246L118.48779296875,150.62879833437322L118.64444661458333,150.77802370926923L119.08780598958334,150.88657550500898L119.23263671875,150.89804607950808L119.45136067708333,150.93024876322394L119.78092447916667,150.95548222023487L119.83560546875,150.93541733154473L119.937578125,150.9210464317236L120.18733723958334,150.7263803302179L120.29817708333334,150.79584646386277L120.35729166666667,150.5798368174765L120.41640625,150.5597239690622L120.68833333333333,150.63024532215596L121.05041015625001,150.60601349827368L121.26617838541667,150.59920069011298L121.31790364583333,150.63449207943503L121.36223958333332,150.4260751631582L121.42430989583333,150.4276072301757L121.59130859375,150.24258296549147L122.55192057291667,150.219750710609L122.68492838541667,150.25168709788142L122.88739583333333,150.36352151309327L122.91251953125,150.21956832011728L123.70465494791667,150.2877219047722L123.99283854166666,150.35600492262833L124.07264322916667,150.3388544303655L124.33865885416667,150.2583960706623L124.89729166666666,150.08242625526273L124.90468098958334,150.15532112973645L124.95049479166667,149.9797640167628L125.04655598958334,149.88985844841986L125.97908854166667,149.7219184369112L126.06184895833334,149.6726703432201L126.08401692708334,149.8326960172314L126.126875,149.9066566238416L126.28352864583333,149.80845137812412L126.74314453125,149.6856499903117L126.83772786458333,149.67266311628052L126.85841796875,149.40211242965248L126.90866536458334,149.0881241033539L127.09783203125001,149.12849815135183L127.34020182291665,148.93018687788333L127.95647135416667,148.94880360676166L128.35549479166667,148.8295513710855L128.54613932291667,148.72203998397694L128.73678385416667,148.75993494391258L129.35896484375002,148.59430082452133L130.43780598958332,148.2898019920692L130.67869791666666,148.0360957511956L130.83978515625,147.80720700940938L131.76492838541665,147.74249985013512L132.19350911458332,147.59742278178825L132.29104817708333,147.6055034202761L133.98320312500002,147.50381036991516L134.09256510416665,147.27320641625698L134.73691406249998,147.25366389963128L135.07830078125002,146.95060167633483L136.95075520833333,146.836961300368L137.14139973958333,146.51411100366454L137.78131510416665,146.62874052829807L138.79660807291665,146.43758314213494L138.82025390625,146.42969670292143L139.26952473958335,145.82325724096262L140.3912239583333,145.4282804751997L140.60108072916668,145.30990763601307L142.04791015625,145.29912416407842L145.4898567708333,145.2648357060039L146.84210286458332,144.95071463540353L150.10670572916666,144.25955358852985L157.87731770833332,143.95709197967685L159.0330078125,143.3538004900425L160.06455729166666,142.21917877437158L160.86408203125,141.57082548026776L161.92962239583335,141.201489807241L162.48973307291666,140.00191061818356L163.75478515625002,139.5800164313652L163.82572265625,139.237616871562L164.32228515625002,138.85392497607248L164.62376953125,138.3848866451319L164.8853515625,138.8063292306187L165.65975260416667,138.28034630755684L166.0646875,134.9339689684678L167.18047526041667,132.30529915495435L167.40067708333333,129.6707390311256L168.30660807291667,128.47115366967972L168.67755208333335,127.98128101104507L169.55688151041667,126.47366332660724L169.71057942708336,125.84742407727984L170.29285807291666,123.64446916955185L171.15593098958334,119.64530037759667L171.57268880208332,119.498285964837L171.86235026041666,118.12986153501996L173.4687890625,115.59038475651798L173.97421875,113.13209628086616L174.62743489583335,113.41736477777954L180.68520182291667,110.0612783000016L183.41925130208335,105.10099109500143L190.70807942708333,101.45308365216796L191.07163411458333,96.89003570361784L191.29479166666667,91.67298629992273L191.57263020833332,88.10945850326378L193.25444010416666,84.31892098627073L193.38892578125,82.042080970977L193.86775390625,79.46911558221262L194.00519531249998,76.04725819065803L196.31214192708333,74.27916882992555L196.32248697916665,70.10356548859967L196.66830729166668,67.05192456473969L196.6727408854167,68.42641335826573L197.17817057291668,65.48754389743915L197.23432942708334,62.66457804936189L197.60379557291665,60.30201503609237L198.14912760416667,58.7802739491498L198.58953125000002,56.19979342923483L199.61664713541668,57.56406200297802L200.15754557291666,53.107561011013544L200.46494140625,51.66093615991218L201.01322916666666,49.21541858558764L201.25707682291667,48.19912360202889L201.90733723958334,46.61198103349267L203.11623046875,48.86632043014339L204.530546875,47.25246755379575L206.21235677083334,47.001018715082836L208.27693359375002,45.66195017690788L212.04253255208332,44.9845926592171L212.98836588541667,45.028764643295375L214.41302734375,47.50982880396586L220.77671223958333,45.443591756902606L220.81070312499997,44.16598883121233L222.39349609375,44.266761823091116L223.85067057291667,41.994261682448666L224.0472265625,38.703927180870465L225.492578125,37.586191754450084L225.5723828125,37.725751745671744L227.11379557291667,35.4770974044379L227.34729817708333,35.25459078899411L227.59262369791668,36.26524837676135L228.4098828125,34.19066937241854L228.4453515625,34.28290139351L228.60791666666668,33.53161333749236L229.05423177083333,32.908308253743115L229.13847005208333,29.91831597003548L229.8803580729167,32.053154164698554L230.74195312499998,32.18201478989536L232.12966796875,34.65848101923919L233.15826171875,34.538670417315245L233.3223046875,33.85903254225039L233.98734375,30.735433454692014L234.466171875,32.171210942556144L234.82824869791668,32.81361172330051L236.38887369791667,32.8691307593038L237.9509765625,34.659720808373436L238.65591796875,31.504051852536094L239.22341796875,30.93090187561583L240.22984375000001,31.202593979720888L243.60972005208333,30.16362104008215L244.07524739583334,31.70205893607391L251.78970052083335,31.22796866746654L252.78134765625,32.628750967386566L253.05475260416668,30.771305037314562L253.30894531250001,33.324310991916434L254.46611328125,37.35163822605816L254.84888020833333,36.963679611785636L254.92425130208332,37.799740817273744L255.09568359374998,40.38181048554637L256.50113281250003,43.31374193699173L256.50261067708334,42.937641701625864L256.50556640625,44.99098690646329L256.5070442708333,43.2055809241503L256.5085221354167,43.441174915068615L256.51,44.843841798561755L256.5114778645833,45.485205535372245L256.51295572916666,46.0642766485017L256.51443359375,39.96496460865154L256.51591145833333,39.31358377278639L256.51738932291664,39.885892062174406L256.5188671875,35.545023689290275L256.5203450520833,35.324021320361254L256.5218229166667,33.895460854991796L256.52625651041666,32.04692101949263L256.527734375,32.10277787587671L256.52921223958333,33.38983654662235L256.5306901041667,32.79472164196011L256.53216796875,35.26436926943077L256.5336458333333,35.64680525915435L256.5351236979167,31.777352858238913L256.53660156250004,35.45904361408168L256.53807942708335,37.050318419340186L256.53955729166665,36.050190744072836" style="fill: none;" fill="none"></path></g></g></g></g><g opacity="0.2"><g><g><g><path stroke="rgb(255, 112, 67)" stroke-width="2px" d="M30.151393229166665,157.21840625L30.46617838541667,157.2165625L30.683424479166668,157.18952083333335L30.723326822916665,157.20734375L30.811998697916668,157.18521875L30.87998046875,157.19566666666668L31.00412109375,157.18583333333333L31.165208333333332,157.19013541666666L31.215455729166667,157.18153125L31.21693359375,157.20391397888184L31.329251302083332,157.19505208333334L31.37802083333333,157.17169791666666L31.379498697916667,157.18398958333333L31.398710937500002,157.198125L31.432701822916666,157.18644791666668L31.459303385416668,157.19075L31.5051171875,157.20734375L31.522851562499998,157.20365625L31.558320312499998,157.19197916666667L31.5671875,157.18091666666666L31.57162109375,157.19505208333334L31.579010416666666,157.20119791666667L31.726796875,157.2018125L32.010546875,157.17477083333333L32.06375,157.198125L32.205625,157.21779166666667L32.53075520833333,157.16616666666667L33.16771484375,157.17722916666668L33.24160807291666,157.13420833333333L33.254908854166665,157.14096875L33.25638671875,157.19197916666667L33.43373046875,157.17169791666666L33.45294270833334,157.16370833333332L33.64654296875,157.17661458333333L33.74703776041667,157.15756249999998L34.03374348958333,157.16616666666667L34.04261067708333,157.18460416666667L34.493359375000004,157.14957291666667L34.60272135416666,157.14342708333334L34.785976562500004,157.14527083333334L34.82292317708333,157.13666666666666L34.93376302083333,157.14342708333334L34.95001953125,157.14588541666666L34.98401041666666,157.12990625L35.04460286458333,157.12376041666667L35.05494791666666,157.13359375L35.07711588541667,157.15940625L35.14361979166667,157.12621875L35.15248697916667,157.11884375L35.3180078125,157.12929166666666L35.405201822916666,157.15326041666668L35.50274088541667,157.13052083333332L35.541165364583335,157.14342708333334L35.59141276041667,157.10532291666667L35.653483072916664,157.12191666666666L35.74215494791666,157.10655208333333L35.770234375,157.09794791666667L35.88698567708333,157.12929166666666L36.049550781250005,157.09426041666666L36.206204427083335,157.07152083333332L36.22393880208333,157.10716666666667L36.464830729166664,157.109625L36.58897135416667,157.109625L36.61557291666667,157.11146875L36.67616536458333,157.08995833333333L37.01459635416666,157.06783333333334L37.03528645833333,157.09057291666667L37.62052083333334,157.0543125L37.648600260416664,157.05123958333334L37.678157552083334,157.10286458333334L37.77274088541667,157.094875L37.79638671875,157.1206875L37.8185546875,157.0469375L37.89392578125,157.06783333333334L37.914615885416666,157.09610416666666L37.9249609375,157.01682291666668L38.02397786458334,157.03894791666667L38.353541666666665,157.07090625L38.357975260416666,157.035875L38.508717447916666,157.09979166666668L38.53236328125,157.07397916666667L38.54270833333334,157.03341666666665L38.65650390625,157.065375L38.66241536458333,157.07705208333334L38.69788411458333,157.03771875L38.71266276041667,157.02972916666667L38.8648828125,157.02419791666665L38.92251953125,156.97380208333334L39.03040364583333,157.02911458333332L39.05257161458333,157.05246875L39.07030598958333,157.050625L39.12055338541667,157.01805208333334L39.17080078125,157.01190625L39.21513671875,157.0285L39.2195703125,157.00883333333334L39.32893229166667,157.06230208333332L39.82697265625,157.03464583333334L39.903821614583336,156.999L39.99840494791667,156.97503125L39.999882812500005,157.0026875L40.16983723958334,156.95167708333332L40.192005208333335,156.93877083333334L40.314667968749994,156.97072916666667L40.347180989583336,156.99285416666666L40.35900390625,157.03771875L40.56147135416666,156.97748958333332L40.614674479166666,157.00145833333335L40.64127604166667,156.98547916666666L40.64275390625,156.96212500000001L40.6737890625,157.0285L40.700390625,157.02173958333333L40.70334635416666,157.00207291666666L40.826009114583336,156.94430208333333L40.87477864583333,156.88591666666667L40.8866015625,156.92094791666668L40.957539062500004,156.96458333333334L41.038821614583334,156.888375L41.06098958333333,156.95290625L41.13192708333333,156.98670833333333L41.1348828125,156.94553125L41.18217447916667,156.91234375L41.19104166666667,156.95167708333332L41.20138671875,156.93631249999999L41.28710286458334,156.98916666666668L41.334394531250005,157.00145833333335L41.6314453125,156.93508333333332L41.823567708333336,156.77775L41.93440755208333,156.86502083333335L42.161998697916665,156.79741666666666L42.21076822916667,156.89083333333332L42.23884765625,156.83060416666666L42.262493489583335,156.7888125L42.31717447916667,156.79311458333333L42.3762890625,156.82507291666667L42.389589843749995,156.844125L42.54772135416667,156.80970833333333L42.62900390625,156.70645833333333L42.640826822916665,156.73657291666666L42.7309765625,156.70584374999999L42.776790364583334,156.69846875L42.828515625,156.79311458333333L42.87432942708333,156.81155208333334L42.9792578125,156.72735416666666L43.118177083333336,156.652375L43.17876953125,156.78635416666665L43.24083984375,156.46246875L43.28665364583333,156.70092708333334L43.375325520833336,156.77344791666667L43.387148437499995,156.608125L43.52311197916667,156.6745L43.537890624999996,156.65729166666668L43.54971354166667,156.67142708333333L43.59109375,156.79926041666667L43.75513671875,156.60259375L43.79060546875,156.62594791666666L43.87484375,156.50241666666668L44.04775390625,156.63701041666667L44.056621093749996,156.67388541666668L44.10982421875,156.69109375L44.307858072916666,156.65483333333333L44.35514973958333,156.518703125L44.38766276041666,156.549125L44.44677734375,156.35184375L44.47337890625,156.38257291666667L44.74530598958333,156.43972916666667L44.748261718749994,156.45878125000002L44.921171875,156.51901041666667L45.027578125000005,156.14595833333334L45.06600260416667,156.54052083333335L45.119205729166666,156.35061458333334L45.14137369791667,156.34446875L45.14580729166667,156.58169791666666L45.21822265625,156.3315625L45.3201953125,156.23015625L45.501972656250004,156.20926041666667L45.51083984375,156.30820833333334L45.518229166666664,156.53929166666666L45.77389973958333,156.20864583333332L45.81084635416667,156.34754166666667L46.036959635416665,156.09371875L46.070950520833335,156.37273958333333L46.101985677083334,156.05991666666665L46.11528645833334,156.3168125L46.13154296875,156.15026041666667L46.146321614583336,156.49442708333333L46.21430338541667,156.35184375L46.27046223958333,156.30820833333334L46.37243489583333,156.33770833333332L46.38130208333334,156.14104166666667L46.499531250000004,156.44894791666667L46.65322916666666,156.32726041666666L46.84682942708333,156.22585416666666L46.97983723958333,156.342625L47.06259765625,156.17545833333332L47.068509114583335,156.19758333333334L47.1113671875,156.11584375L47.17639322916666,156.35921875L47.3241796875,156.30820833333334L47.522213541666666,156.0218125L47.545859375,156.13366666666667L47.81630859375,156.10601041666666L47.82813151041667,156.06298958333332L47.93158203125,156.22954166666668L48.11040364583333,156.14534375L48.113359375,156.01443749999999L48.19907552083333,155.88660416666667L48.283313802083335,156.0365625L48.358684895833335,156.16623958333332L48.42814453125,155.89152083333335L48.469524739583335,155.9185625L48.5123828125,155.92409375L48.65573567708333,156.02795833333334L48.70007161458333,156.02488541666668L48.71041666666667,156.1176875L48.71189453125,156.01013541666666L48.80943359375,155.89889583333334L48.843424479166664,155.75139583333333L49.023723958333335,155.98186458333333L49.05623697916666,155.77413541666667L49.15820963541667,156.00890625L49.180377604166665,156.08142708333332L49.18185546875,156.1176875L49.36511067708334,156.07773958333334L49.39466796875,155.9849375L49.57940104166667,156.02058333333332L49.59565755208333,155.80609375L49.72127604166667,155.81285416666668L49.84837239583333,155.93638541666667L50.17645833333333,156.02304166666667L50.324244791666665,155.87308333333334L50.36119140625,155.7931875L50.404049479166666,155.782125L50.470553385416665,155.98555208333335L50.50158854166667,155.84173958333332L50.581393229166665,155.7858125L50.63902994791667,155.61434375L50.70848958333333,155.89029166666666L50.721790364583335,155.82514583333332L50.78386067708333,155.6456875L50.8710546875,155.79994791666667L50.91686848958333,155.55780208333334L51.024752604166665,155.74340625L51.04100911458333,155.59160416666666L51.05578776041667,155.56394791666668L51.06169921875,155.86447916666665L51.131158854166664,155.80486458333334L51.18436197916667,155.70960416666668L51.19766276041667,155.5719375L51.22426432291666,155.84727083333334L51.54939453125,155.67826041666666L51.66762369791667,155.531375L51.82279947916666,155.82330208333335L51.82723307291666,155.59221875L51.85235677083333,155.76614583333333L51.88634765625,155.84173958333332L51.95432942708334,155.67334375000002L51.99570963541667,155.42197916666666L52.26024739583333,155.560875L52.45236979166667,155.84665625L52.61050130208333,155.59467708333332L52.620846354166666,155.61372916666667L52.844003906249995,155.45639583333332L52.95632161458334,155.52830208333333L52.9991796875,155.235453125L53.00065755208333,155.47176041666665L53.08637369791666,155.35253125L53.166178385416664,155.45209375L53.170611979166665,155.63093750000002L53.18391276041667,155.36851041666665L53.48096354166667,155.57992708333333L53.51791015625,155.55780208333334L53.56224609375,155.27202083333333L53.71151041666667,155.64630208333332L53.72037760416667,155.12882291666668L53.73811197916667,155.17307291666665L53.860774739583334,155.28861458333333L53.916933593749995,155.708375L54.007083333333334,155.39616666666666L54.092799479166665,155.57623958333335L54.107578124999996,155.51109375L54.21989583333333,155.16692708333332L54.283444010416666,155.30459375L54.29822265625,155.09502083333334L54.38689453125,155.03233333333333L54.44453125,155.68870833333332L54.469654947916666,155.074125L55.22779947916666,155.23883333333333L55.232233072916664,155.20564583333334L55.27213541666667,155.33532291666666L55.31499348958334,155.46008333333333L55.5174609375,155.4096875L55.5440625,155.11284375L55.615,155.30459375L55.76869791666667,155.10915625L55.85736979166667,155.14480208333333L55.881015625,155.21855208333335L55.92387369791667,155.34761458333332L56.048014322916664,155.32057291666666L56.062792968749996,154.93953125000002L56.06574869791667,155.25296875L56.12486328125,155.33655208333334L56.546054687499996,155.28922916666667L56.55787760416667,155.04032291666667L56.6169921875,155.65982291666666L56.62733723958333,155.08826041666666L56.65393880208334,154.96042708333334L56.65541666666666,155.14726041666665L56.75147786458333,155.16938541666667L56.97611328125,155.43611458333334L57.004192708333335,154.99976041666667L57.03966145833333,154.81477083333334L57.06182942708333,155.06675L57.075130208333334,155.31688541666665L57.13424479166667,155.33716666666666L57.468242187499996,155.34761458333332L57.62046223958333,155.19642708333333L57.639674479166665,155.00098958333334L57.76824869791667,155.28677083333332L57.89830078125,155.09071875L57.935247395833336,155.23944791666668L57.967760416666664,155.22408333333334L58.04017578125,155.39063541666667L58.349049479166666,155.05691666666667L58.41555338541667,155.03417708333333L58.476145833333334,155.00283333333334L58.510136718750005,154.60765625L58.67565755208334,155.22408333333334L58.82639973958333,155.10423958333334L58.83970052083333,155.15832291666666L58.842656250000005,155.19642708333333L58.84708984375,154.71520833333332L59.03921223958333,154.59597916666667L59.17222005208333,154.95858333333334L59.22690104166667,154.92232291666667L59.24020182291667,154.99238541666668L59.41311197916667,154.867625L59.519518229166664,154.80186458333333L59.654003906250004,154.98501041666668L59.68651692708333,155.02803125L59.755976562499995,154.82398958333334L59.79440104166667,154.823375L59.82986979166667,154.73303125L59.961399739583335,154.94629166666667L60.04859375,154.89958333333334L60.07962890625,154.99115625L60.16534505208333,154.59536458333332L60.330865885416664,154.80247916666667L60.54958984375,154.68202083333333L60.561412760416665,154.6205625L60.79048177083333,154.72442708333332L60.81560546875,154.3993125L60.828906249999996,154.75208333333333L61.029895833333335,154.58860416666667L61.28261067708333,154.661125L61.397884114583334,154.81108333333333L61.4584765625,154.64514583333334L61.92400390625,154.61380208333333L62.01563151041666,154.87377083333334L62.27721354166666,155.0335625L62.27869140625,154.42696875L62.290514322916664,154.62363541666667L62.38805338541667,154.79510416666668L62.4338671875,155.22654166666666L62.43830078125,154.52898958333333L62.445690104166665,154.68202083333333L62.552096354166665,154.42635416666667L62.717617187500004,154.37472916666667L62.75604166666666,154.12828125L62.76047526041666,154.37411458333332L62.78116536458333,154.75454166666668L62.85801432291667,155.24067708333334L63.03240234375,154.292375L63.10925130208334,154.90449999999998L63.116640624999995,154.96780208333334L63.12107421875,154.34154166666667L63.16393229166667,154.4878125L63.20383463541667,154.80678125L63.23043619791667,154.88483333333335L63.28955078125,154.75146875000002L63.29841796875,154.61441666666667L63.755078125,154.68263541666667L63.81271484375,154.86578125L63.93537760416667,155.05814583333333L64.31223307291667,154.59905208333333L64.51913411458334,154.59475L64.81175130208334,154.44540625L64.8812109375,155.00529166666666L64.89303385416666,154.85164583333332L65.0230859375,154.70414583333334L65.31865885416667,154.30712499999998L65.36742838541666,154.66665625000002L65.38368489583334,154.6426875L65.57580729166666,154.74225L65.63048828125,154.84365625L65.634921875,154.50747916666666L65.64970052083333,154.498875L65.66300130208333,154.2370625L65.71029296875,154.705375L65.71768229166668,154.29114583333333L65.74428385416667,154.66051041666668L65.79453124999999,154.58921875L66.02212239583334,154.62486458333333L66.2290234375,154.33047916666666L66.25858072916667,154.53267708333334L66.29552734375,154.66972916666666L66.557109375,154.53021875L66.63543619791668,153.9936875L66.86893880208333,154.43372916666667L66.911796875,154.62179166666667L67.00785807291666,154.64145833333333L67.11426432291667,154.72196875L67.24136067708334,154.75761458333335L67.26205078125001,154.61257291666666L67.51328776041666,154.74655208333334L67.61969401041667,154.50071875L67.89162109374999,154.78404166666667L68.12069010416667,154.79879166666666L68.20345052083333,154.46015625L68.37192708333333,154.56770833333334L68.38966145833332,154.27147916666667L68.44138671875,154.48166666666668L68.47094401041666,154.60458333333332L68.57291666666667,154.60151041666666L68.59508463541667,154.5320625L68.685234375,154.15163541666666L68.70740234374999,154.53021875L68.75321614583333,154.44909375L68.8359765625,154.94198958333334L68.93647135416667,154.44786458333334L69.06947916666667,154.46507291666666L69.08277994791666,154.55664583333333L69.16258463541666,154.167L69.20248697916666,154.92416666666668L69.359140625,153.9715625L69.37096354166667,154.17867708333333L69.58377604166667,154.40177083333333L69.61037760416667,154.26041666666666L69.92072916666666,154.344L69.98132161458332,154.0526875L70.10250651041667,154.11721875L70.56212239583334,154.45155208333333L70.56803385416667,154.513625L70.57542317708334,154.01704166666667L70.69217447916667,153.97955208333332L70.86065104166667,154.54128125L70.95375651041667,154.34338541666668L70.96262369791667,154.69677083333335L71.50056640625,154.27885416666666L71.59810546875,154.45769791666666L71.77692708333333,154.39009375L71.80796223958333,154.43434375L71.81535156250001,154.01765625L71.88481119791668,153.97525000000002L71.89220052083334,154.20571875L72.00451822916668,154.22477083333334L72.22619791666666,154.11660416666666L72.26018880208333,154.04285416666667L72.32373697916667,154.43495833333333L72.3473828125,154.23767708333332L72.35181640625001,154.38763541666668L72.3651171875,154.56279166666667L72.7020703125,154.36551041666667L72.72128255208334,154.12889583333333L72.72423828125,153.84926041666665L72.80995442708333,154.36858333333333L72.89419270833334,154.1928125L72.93852864583333,153.820375L72.941484375,154.61134375L73.3050390625,153.84926041666665L73.41883463541666,154.44663541666665L73.76169921875,154.60028125L73.80751302083334,154.32802083333334L73.934609375,154.04654166666666L73.94199869791666,154.36858333333333L74.27008463541667,154.26963541666666L74.5996484375,153.72757291666667L74.81689453125,154.321875L74.96468098958333,154.06067708333333L75.02822916666666,154.23829166666667L75.15975911458334,154.36796875L75.17158203125001,154.35813541666667L75.41690755208333,153.76444791666665L75.4686328125,154.31941666666665L75.495234375,153.61326041666666L75.60016276041668,154.45892708333332L75.65188802083334,154.29114583333333L75.75829427083333,154.09140625L75.76125,154.52222916666668L75.88834635416667,154.21555208333334L75.89573567708332,154.01089583333334L75.98145182291667,153.79271875L75.98440755208333,153.628625L76.41446614583333,153.73494791666667L76.61988932291666,154.79326041666667L76.68639322916667,154.49027083333334L76.76767578125,153.52291666666667L76.94649739583333,154.33908333333335L76.9937890625,154.03547916666668L77.35438802083333,154.32679166666668L77.43714843750001,154.2001875L77.61005859375,154.3735L77.84208333333333,154.24812500000002L77.889375,154.7016875L77.92041015625,154.18052083333333L77.95735677083334,154.51116666666667L78.00317057291666,153.63354166666667L78.04455078125,154.159625L78.21598307291667,154.15163541666666L78.32977864583334,154.34584375L78.50564453125001,153.95742708333333L78.7849609375,154.91863541666666L79.08201171875,153.91133333333335L79.08496744791665,154.23276041666668L79.12782552083333,154.00167708333333L79.29925781249999,153.99122916666667L79.35689453125,154.45216666666667L79.36723958333333,154.17867708333333L79.50911458333333,154.23214583333333L79.62586588541667,154.18420833333334L79.63916666666667,153.58683333333335L79.68941406249999,154.45216666666667L79.70419270833334,154.87622916666666L79.73227213541666,154.08710416666668L79.87119140625,154.33109375L79.87858072916666,153.81484375L79.88597005208334,153.55979166666668L79.96725260416666,154.39193749999998L79.98498697916666,153.95496875L80.1327734375,153.78841666666668L80.29829427083332,154.03732291666665L80.47268229166667,153.22238541666667L80.55692057291665,154.42082291666668L80.93525390625001,154.10246875L81.19831380208333,154.42758333333333L81.22048177083333,153.93038541666667L81.30176432291667,154.19957291666668L81.40521484375,153.70298958333333L81.42147135416667,153.86032291666666L81.57516927083334,154.29421875L81.58108072916667,154.52530208333334L81.82345052083333,154.05453125L81.86187500000001,154.44602083333334L81.87222005208334,153.82098958333333L82.00227213541666,154.01273958333334L82.00670572916667,154.61195833333335L82.16483723958333,153.93038541666667L82.22986328124999,154.19096875L82.32740234375,154.32617708333333L82.67913411458333,154.66051041666668L82.70130208333333,154.14057291666666L82.80475260416667,154.57139583333333L82.81509765625,153.67963541666666L83.03677734374999,154.17621875L83.08850260416666,154.24689583333333L83.15796223958334,153.2193125L83.16830729166666,154.14548958333333L83.22003255208334,154.07972916666668L83.28801432291667,153.86708333333334L83.404765625,154.17253125L83.59984375,154.30097916666665L83.80526692708332,153.89228125L84.02251302083333,154.18973958333333L84.11118489583333,154.32433333333333L84.17768880208332,153.8019375L84.38163411458333,154.60396875L84.56045572916666,154.47060416666667L84.65060546875,153.84065625L84.69789713541667,154.37411458333332L84.74962239583333,153.71835416666667L84.77474609375,153.87630208333334L84.85307291666668,154.02626041666667L84.98903645833333,154.11844791666667L85.10726562500001,153.88613541666666L85.142734375,153.99860416666667L85.15455729166668,154.13073958333334L85.17081380208334,154.06620833333335L85.39101562500001,153.96971875L85.40727213541668,153.75830208333332L85.42352864583333,153.94697916666667L85.46047526041667,154.18236458333334L85.57279296875,154.10123958333332L85.71762369791666,153.88244791666668L85.91417968750001,153.77366666666666L86.18315104166666,154.06497916666666L86.29399088541666,153.85663541666668L86.54818359375,153.82529166666666L86.80828776041666,154.11660416666666L86.97085286458334,153.90826041666668L87.04326822916667,153.97770833333334L87.08908203125,153.89351041666666L87.26938151041668,153.820375L87.53391927083334,153.71528125L87.78811197916666,154.47183333333334L87.83097005208333,153.54565625L87.83392578125,153.422125L87.84131510416667,153.85847916666665L87.84279296875,154.41160416666668L88.1309765625,152.32939583333334L88.5033984375,154.06129166666668L88.52704427083334,153.0755L88.53295572916667,153.34653125L88.56399088541666,153.53275L88.87286458333332,153.73679166666668L88.89798828125,154.13073958333334L89.12853515625001,153.42028125000002L89.292578125,153.33423958333333L89.35464843749999,154.51239583333333L89.36794921875001,153.60404166666666L89.57041666666667,153.31272916666666L89.62509765624999,153.7650625L89.72854817708334,154.39009375L89.77288411458333,153.43441666666666L90.10688151041667,154.33232291666667L90.22954427083333,153.53213541666668L90.34038411458333,154.18789583333333L90.34333984375,153.3668125L90.52068359375,153.97832291666666L90.61674479166668,153.67471875L90.69211588541667,153.89596875L90.96404296875,153.89596875L91.1103515625,153.78534375L91.21380208333333,153.75154166666667L91.31725260416667,153.86401041666667L91.37488932291666,153.31764583333333L91.41626953125001,153.78595833333333L91.4384375,154.03547916666668L91.49459635416666,153.65996875L91.54927734375,153.31641666666667L91.59065755208333,154.08341666666666L91.64533854166666,153.93161458333333L91.6601171875,153.4295L91.71479817708332,153.21808333333334L92.04436197916667,153.42888541666667L92.36210286458333,153.29367708333334L92.39461588541667,153.52045833333332L92.52762369791667,153.66119791666668L92.53796875,154.12951041666668L93.02861979166666,153.81422916666668L93.03748697916667,153.22177083333332L93.38626302083334,154.01028125L93.40251953125001,153.78227083333334L93.42616536458333,153.83328125L93.53848307291666,153.36189583333334L93.68035807291666,153.74846875L93.78380859375,153.8093125L93.80745442708333,153.74170833333332L93.90942708333334,153.57884375L94.16805338541667,153.78903125L94.2493359375,153.18182291666668L94.25524739583332,154.351375L94.28037109374999,153.29490625L94.68973958333333,154.25611458333333L94.78580078125,153.74846875L94.80205729166667,153.79825L94.95427734375,153.03247916666666L95.01339192708333,154.08034375L95.10649739583334,152.94213541666667L95.11832031249999,153.57577083333334L95.26019531249999,153.02633333333333L95.29418619791666,153.19165625L95.65478515625,153.87691666666666L95.68729817708333,153.24696875L95.72867838541667,153.35882291666667L95.80848307291666,153.53828125L95.96661458333334,152.74608333333333L96.4129296875,154.01028125L96.46908854166666,153.17997916666667L96.57549479166667,153.58744791666666L96.76170572916666,153.00973958333333L96.8917578125,153.864625L96.9094921875,153.42396875L97.04988932291666,153.98262499999998L97.16072916666666,153.58744791666666L97.24792317708334,154.085875L97.34250651041667,153.90580208333333L97.38240885416667,153.35882291666667L97.66911458333334,153.10622916666668L97.80212239583334,153.55794791666668L97.99867838541667,153.63169791666667L98.05188151041666,153.49095833333334L98.29425130208332,153.55671875000002L98.42873697916667,153.32194791666666L98.59425781249999,153.40983333333332L98.62233723958333,153.22607291666668L98.833671875,152.96548958333332L99.0021484375,152.78726041666667L99.01544921874999,153.08717708333333L99.03466145833333,153.6655L99.06126302083334,152.89542708333335L99.38639322916667,152.95688541666667L99.43664062500001,153.19534375L99.4632421875,152.7915625L99.47063151041668,153.26602083333333L99.57851562500001,153.46821875L99.92433593749999,152.50086458333334L100.10611328125,153.12405208333334L100.44454427083333,153.23344791666668L100.53321614583334,153.30965625L100.855390625,153.63108333333332L100.87903645833333,152.93721875L100.92485026041666,153.24389583333334L100.96475260416668,153.12835416666667L101.00169921874999,152.50578124999998L101.05785807291666,153.55364583333335L101.14357421874999,153.17567708333334L101.2189453125,152.88375L101.23076822916667,152.94090625L101.25884765625,152.56846875L101.55442057291667,152.99990625L101.82339192708334,152.64897916666666L102.12192057291666,152.63361458333333L102.13078776041667,153.73617708333333L102.13817708333333,152.81983333333335L102.55050130208333,152.9611875L102.68055338541666,153.29613541666666L102.68350911458333,152.7768125L102.84607421875,152.35520833333334L102.9569140625,153.9051875L103.32342447916666,152.77005208333333L103.41652994791667,153.62002083333334L103.53475911458334,152.35090625L103.65298828125,152.34844791666666L103.9145703125,152.6145625L104.00767578125,153.04845833333334L104.07565755208334,153.03247916666666L104.26334635416666,153.38217708333335L104.67567057291666,151.63860416666665L104.95498697916666,152.58813541666666L104.96680989583334,152.55248958333334L105.07026041666666,153.10745833333334L105.19587890625,152.53405208333334L105.4397265625,152.49779166666667L105.44416015624999,152.23536458333334L105.52100911458332,152.05221875L105.68505208333335,150.23735416666668L105.71313151041666,152.41359375L105.95106770833334,151.99813541666666L106.08259765625,153.4626875L106.11511067708334,151.95327083333333L106.18900390625,152.43633333333332L106.30279947916667,152.87022916666666L106.30723307291667,152.86592708333333L106.36634765625,150.43156249999998L106.57620442708333,153.038625L106.66487630208333,152.50209375L106.97818359375,151.95880208333332L107.38755208333333,150.66448958333334L107.42006510416667,151.8844375L107.65356770833333,152.58690625L107.72007161458333,151.46529166666667L107.72302734374999,151.94466666666668L107.85751302083334,152.2384375L108.06293619791667,152.19480208333334L108.18264322916667,151.85370833333334L108.32451822916667,152.46583333333334L108.3658984375,152.6883125L108.83142578125,152.18496875L108.93339843749999,150.77634375L109.19498046874999,152.153625L109.24079427083333,152.4596875L109.43291666666667,152.928L109.54966796875,152.01657291666666L109.59548177083333,151.35282291666667L109.69449869791667,151.51261458333335L110.32406901041666,152.18373958333333L110.38170572916667,151.92377083333332L110.39944010416667,151.50155208333334L110.47037760416667,150.25825L110.609296875,151.96802083333333L110.84132161458334,149.22021875000002L110.98319661458333,151.88320833333333L111.21226562499999,150.61286458333333L111.59946614583333,152.98085416666666L111.62311197916667,150.16483333333332L111.71917317708333,150.38977083333333L112.16105468750001,150.64359375L112.49505208333333,150.89372916666667L112.63840494791667,150.33876041666667L112.72412109375,150.48933333333332L112.92806640625,151.72403125L113.31674479166666,150.48441666666668L113.33743489583334,149.93497916666666L113.37438151041667,151.21638541666667L113.53399088541666,151.34360416666667L114.00247395833334,151.20716666666667L114.049765625,150.25148958333332L114.07932291666665,150.86115625L114.19902994791666,151.49847916666667L114.34090494791666,150.19433333333333L114.4310546875,149.31486458333333L114.53598307291666,150.50900000000001L114.901015625,150.1218125L115.10052734374999,151.94589583333334L115.19954427083334,150.46536458333333L115.36063151041667,148.91231249999998L115.5128515625,151.121125L115.93995442708334,149.71127083333334L115.95177734375001,151.29259375L116.08921875,149.69652083333332L116.16458984375,151.57714583333333L116.35227864583334,150.46597916666667L116.39661458333333,150.48072916666666L116.66854166666667,149.67808333333335L116.90204427083333,149.56008333333332L117.46067708333332,150.31540625L117.49762369791667,152.22122916666666L117.4991015625,152.1868125L117.8360546875,151.512L117.93211588541666,149.93190625L118.23064453125001,150.71857291666666L118.35626302083334,150.08985416666667L118.48779296875,150.26378125L118.64444661458333,152.12105208333332L119.08780598958334,151.86354166666666L119.23263671875,151.00128125L119.45136067708333,151.22007291666665L119.78092447916667,151.18258333333333L119.83560546875,150.75483333333332L119.937578125,150.79170833333333L120.18733723958334,148.97438541666668L120.29817708333334,151.42104166666667L120.35729166666667,148.63575L120.41640625,150.37870833333335L120.68833333333333,151.2649375L121.05041015625001,150.38792708333332L121.26617838541667,150.53788541666665L121.31790364583333,150.95211458333333L121.36223958333332,148.55032291666666L121.42430989583333,150.44139583333333L121.59130859375,148.57736458333335L122.55192057291667,150.01426041666667L122.68492838541667,150.53911458333334L122.88739583333333,151.37003125L122.91251953125,148.92398958333334L123.70465494791667,150.90110416666667L123.99283854166666,150.97055208333333L124.07264322916667,150.1845L124.33865885416667,149.53427083333332L124.89729166666666,148.49869791666666L124.90468098958334,150.811375L124.95049479166667,148.39975L125.04655598958334,149.08070833333335L125.97908854166667,148.21045833333332L126.06184895833334,149.2294375L126.08401692708334,151.27292708333334L126.126875,150.57230208333334L126.28352864583333,148.92460416666665L126.74314453125,148.58043750000002L126.83772786458333,149.55578125L126.85841796875,146.96715625L126.90866536458334,146.26222916666666L127.09783203125001,149.49186458333332L127.34020182291665,147.14538541666667L127.95647135416667,149.11635416666667L128.35549479166667,147.75628125L128.54613932291667,147.7544375L128.73678385416667,149.10098958333333L129.35896484375002,147.10359375L130.43780598958332,145.54931249999998L130.67869791666666,145.75273958333332L130.83978515625,145.74720833333333L131.76492838541665,147.16013541666666L132.19350911458332,146.29172916666667L132.29104817708333,147.67822916666665L133.98320312500002,146.58857291666666L134.09256510416665,145.19777083333332L134.73691406249998,147.07778125L135.07830078125002,144.22304166666666L136.95075520833333,145.81419791666667L137.14139973958333,143.60845833333332L137.78131510416665,147.66040625L138.79660807291665,144.71716666666669L138.82025390625,146.35871875L139.26952473958335,140.36530208333335L140.3912239583333,141.87348958333334L140.60108072916668,144.24455208333333L142.04791015625,145.20207291666668L145.4898567708333,144.95623958333334L146.84210286458332,142.123625L150.10670572916666,138.03910416666668L157.87731770833332,141.2349375L159.0330078125,137.92417708333335L160.06455729166666,132.00758333333334L160.86408203125,135.73564583333334L161.92962239583335,137.87746875L162.48973307291666,129.20569791666668L163.75478515625002,135.78296875L163.82572265625,136.15602083333334L164.32228515625002,135.40069791666667L164.62376953125,134.16354166666667L164.8853515625,142.5993125L165.65975260416667,133.5465L166.0646875,104.81657291666667L167.18047526041667,108.64727083333334L167.40067708333333,105.95969791666667L168.30660807291667,117.67488541666665L168.67755208333335,123.57242708333334L169.55688151041667,112.90510416666667L169.71057942708336,120.21127083333333L170.29285807291666,103.817875L171.15593098958334,83.65278124999999L171.57268880208332,118.17515625L171.86235026041666,105.81404166666667L173.4687890625,92.73509375L173.97421875,91.0075L174.62743489583335,115.98478125L180.68520182291667,79.85650000000001L183.41925130208335,60.458406249999996L190.70807942708333,68.62191666666666L191.07163411458333,55.822604166666665L191.29479166666667,44.71954166666666L191.57263020833332,56.03770833333333L193.25444010416666,50.20408333333333L193.38892578125,61.55052083333332L193.86775390625,56.31242708333333L194.00519531249998,45.25054166666666L196.31214192708333,58.36636458333332L196.32248697916665,32.52313541666666L196.66830729166668,39.58715624999999L196.6727408854167,80.7968125L197.17817057291668,39.03771875000001L197.23432942708334,37.25788541666668L197.60379557291665,39.03894791666667L198.14912760416667,45.08460416666668L198.58953125000002,32.975468750000005L199.61664713541668,69.84247916666666L200.15754557291666,12.99905208333334L200.46494140625,38.6413125L201.01322916666666,27.205760416666664L201.25707682291667,39.05246875L201.90733723958334,32.327697916666665L203.11623046875,69.15537499999999L204.530546875,32.72779166666666L206.21235677083334,44.73797916666666L208.27693359375002,33.61033333333333L212.04253255208332,38.888374999999996L212.98836588541667,45.426312499999995L214.41302734375,69.83940625000001L220.77671223958333,26.84745833333335L220.81070312499997,32.6675625L222.39349609375,45.173718750000006L223.85067057291667,21.541760416666676L224.0472265625,9.090916666666658L225.492578125,27.52657291666668L225.5723828125,38.98179166666665L227.11379557291667,15.239208333333352L227.34729817708333,33.25203124999999L227.59262369791668,45.36116666666666L228.4098828125,15.519458333333318L228.4453515625,35.11298958333333L228.60791666666668,26.77002083333332L229.05423177083333,27.298562500000003L229.13847005208333,3.0083854166666697L229.8803580729167,51.26669791666666L230.74195312499998,33.34176041666666L232.12966796875,56.94667708333334L233.15826171875,33.460375L233.3223046875,27.74229166666666L233.98734375,2.6230416666666656L234.466171875,45.09320833333334L234.82824869791668,38.595218750000015L236.38887369791667,33.36880208333332L237.9509765625,50.77503125L238.65591796875,3.1030312499999866L239.22341796875,25.772552083333323L240.22984375000001,33.647822916666655L243.60972005208333,20.812864583333322L244.07524739583334,45.548L251.78970052083335,26.961156249999988L252.78134765625,45.23579166666667L253.05475260416668,14.054291666666671L253.30894531250001,56.30136458333334L254.46611328125,73.59758333333333L254.84888020833333,33.47205208333335L254.92425130208332,45.32429166666668L255.09568359374998,63.620437499999994L256.50113281250003,69.70112499999999L256.50261067708334,39.552739583333334L256.50556640625,63.47109375000001L256.5070442708333,27.136927083333347L256.5085221354167,45.56152083333333L256.51,57.46784375L256.5114778645833,51.25747916666667L256.51295572916666,51.275916666666674L256.51443359375,-14.928843749999999L256.51591145833333,33.45115625L256.51738932291664,45.03666666666666L256.5188671875,-3.522791666666677L256.5203450520833,33.33500000000001L256.5218229166667,21.03841666666665L256.52625651041666,15.41006250000001L256.527734375,32.60548958333334L256.52921223958333,44.973364583333336L256.5306901041667,27.438687500000015L256.53216796875,57.491197916666664L256.5336458333333,39.08872916666667L256.5351236979167,-3.0477187500000014L256.53660156250004,68.59426041666667L256.53807942708335,51.37179166666667L256.53955729166665,27.049041666666653" style="fill: none;" fill="none"></path></g></g></g></g></g></g><g transform="translate(63, 177)" clip-path="url(#clip_1)"><clipPath id="clip_1"><rect width="266" height="23"></rect></clipPath><g><g><line x1="0" y1="0" x2="0" y2="5" style="visibility: inherit;" fill="rgb(0, 0, 0)" stroke="rgb(204, 204, 204)" stroke-width="1px"></line><line x1="29.557291666666664" y1="0" x2="29.557291666666664" y2="5" style="visibility: inherit;" fill="rgb(0, 0, 0)" stroke="rgb(204, 204, 204)" stroke-width="1px"></line><line x1="59.11458333333333" y1="0" x2="59.11458333333333" y2="5" style="visibility: inherit;" fill="rgb(0, 0, 0)" stroke="rgb(204, 204, 204)" stroke-width="1px"></line><line x1="88.671875" y1="0" x2="88.671875" y2="5" style="visibility: inherit;" fill="rgb(0, 0, 0)" stroke="rgb(204, 204, 204)" stroke-width="1px"></line><line x1="118.22916666666666" y1="0" x2="118.22916666666666" y2="5" style="visibility: inherit;" fill="rgb(0, 0, 0)" stroke="rgb(204, 204, 204)" stroke-width="1px"></line><line x1="147.78645833333334" y1="0" x2="147.78645833333334" y2="5" style="visibility: inherit;" fill="rgb(0, 0, 0)" stroke="rgb(204, 204, 204)" stroke-width="1px"></line><line x1="177.34375" y1="0" x2="177.34375" y2="5" style="visibility: inherit;" fill="rgb(0, 0, 0)" stroke="rgb(204, 204, 204)" stroke-width="1px"></line><line x1="206.90104166666666" y1="0" x2="206.90104166666666" y2="5" style="visibility: inherit;" fill="rgb(0, 0, 0)" stroke="rgb(204, 204, 204)" stroke-width="1px"></line><line x1="236.45833333333331" y1="0" x2="236.45833333333331" y2="5" style="visibility: inherit;" fill="rgb(0, 0, 0)" stroke="rgb(204, 204, 204)" stroke-width="1px"></line><line x1="266.015625" y1="0" x2="266.015625" y2="5" style="visibility: inherit;" fill="rgb(0, 0, 0)" stroke="rgb(204, 204, 204)" stroke-width="1px"></line></g><g transform="translate(0, 8)"><text x="0" y="0" dx="0em" dy="0.95em" style="text-anchor: middle; visibility: hidden; font-family: &quot;Helvetica Neue&quot;, sans-serif; font-size: 12px; font-weight: 200;" fill="rgb(50, 49, 63)" stroke="none" stroke-width="1px">-20k</text><text x="29.557291666666664" y="0" dx="0em" dy="0.95em" style="text-anchor: middle; visibility: inherit; font-family: &quot;Helvetica Neue&quot;, sans-serif; font-size: 12px; font-weight: 200;" fill="rgb(50, 49, 63)" stroke="none" stroke-width="1px">0</text><text x="59.11458333333333" y="0" dx="0em" dy="0.95em" style="text-anchor: middle; visibility: inherit; font-family: &quot;Helvetica Neue&quot;, sans-serif; font-size: 12px; font-weight: 200;" fill="rgb(50, 49, 63)" stroke="none" stroke-width="1px">20k</text><text x="88.671875" y="0" dx="0em" dy="0.95em" style="text-anchor: middle; visibility: inherit; font-family: &quot;Helvetica Neue&quot;, sans-serif; font-size: 12px; font-weight: 200;" fill="rgb(50, 49, 63)" stroke="none" stroke-width="1px">40k</text><text x="118.22916666666666" y="0" dx="0em" dy="0.95em" style="text-anchor: middle; visibility: inherit; font-family: &quot;Helvetica Neue&quot;, sans-serif; font-size: 12px; font-weight: 200;" fill="rgb(50, 49, 63)" stroke="none" stroke-width="1px">60k</text><text x="147.78645833333334" y="0" dx="0em" dy="0.95em" style="text-anchor: middle; visibility: inherit; font-family: &quot;Helvetica Neue&quot;, sans-serif; font-size: 12px; font-weight: 200;" fill="rgb(50, 49, 63)" stroke="none" stroke-width="1px">80k</text><text x="177.34375" y="0" dx="0em" dy="0.95em" style="text-anchor: middle; visibility: inherit; font-family: &quot;Helvetica Neue&quot;, sans-serif; font-size: 12px; font-weight: 200;" fill="rgb(50, 49, 63)" stroke="none" stroke-width="1px">100k</text><text x="206.90104166666666" y="0" dx="0em" dy="0.95em" style="text-anchor: middle; visibility: inherit; font-family: &quot;Helvetica Neue&quot;, sans-serif; font-size: 12px; font-weight: 200;" fill="rgb(50, 49, 63)" stroke="none" stroke-width="1px">120k</text><text x="236.45833333333331" y="0" dx="0em" dy="0.95em" style="text-anchor: middle; visibility: inherit; font-family: &quot;Helvetica Neue&quot;, sans-serif; font-size: 12px; font-weight: 200;" fill="rgb(50, 49, 63)" stroke="none" stroke-width="1px">140k</text><text x="266.015625" y="0" dx="0em" dy="0.95em" style="text-anchor: middle; visibility: hidden; font-family: &quot;Helvetica Neue&quot;, sans-serif; font-size: 12px; font-weight: 200;" fill="rgb(50, 49, 63)" stroke="none" stroke-width="1px">160k</text></g><line x1="0" y1="0" x2="266.015625" y2="0" fill="rgb(0, 0, 0)" stroke="rgb(204, 204, 204)" stroke-width="1px"></line></g></g></g></g></svg>