<svg viewBox="0 0 330 200" xmlns="http://www.w3.org/2000/svg"><g><g><g><g><g><line x1="74.78125" y1="177" x2="69.78125" y2="177" style="visibility: inherit;" fill="rgb(0, 0, 0)" stroke="rgb(204, 204, 204)" stroke-width="1px"></line><line x1="74.78125" y1="160.9090909090909" x2="69.78125" y2="160.9090909090909" style="visibility: inherit;" fill="rgb(0, 0, 0)" stroke="rgb(204, 204, 204)" stroke-width="1px"></line><line x1="74.78125" y1="144.8181818181818" x2="69.78125" y2="144.8181818181818" style="visibility: inherit;" fill="rgb(0, 0, 0)" stroke="rgb(204, 204, 204)" stroke-width="1px"></line><line x1="74.78125" y1="128.72727272727275" x2="69.78125" y2="128.72727272727275" style="visibility: inherit;" fill="rgb(0, 0, 0)" stroke="rgb(204, 204, 204)" stroke-width="1px"></line><line x1="74.78125" y1="112.63636363636364" x2="69.78125" y2="112.63636363636364" style="visibility: inherit;" fill="rgb(0, 0, 0)" stroke="rgb(204, 204, 204)" stroke-width="1px"></line><line x1="74.78125" y1="96.54545454545455" x2="69.78125" y2="96.54545454545455" style="visibility: inherit;" fill="rgb(0, 0, 0)" stroke="rgb(204, 204, 204)" stroke-width="1px"></line><line x1="74.78125" y1="80.45454545454547" x2="69.78125" y2="80.45454545454547" style="visibility: inherit;" fill="rgb(0, 0, 0)" stroke="rgb(204, 204, 204)" stroke-width="1px"></line><line x1="74.78125" y1="64.36363636363636" x2="69.78125" y2="64.36363636363636" style="visibility: inherit;" fill="rgb(0, 0, 0)" stroke="rgb(204, 204, 204)" stroke-width="1px"></line><line x1="74.78125" y1="48.27272727272728" x2="69.78125" y2="48.27272727272728" style="visibility: inherit;" fill="rgb(0, 0, 0)" stroke="rgb(204, 204, 204)" stroke-width="1px"></line><line x1="74.78125" y1="32.18181818181819" x2="69.78125" y2="32.18181818181819" style="visibility: inherit;" fill="rgb(0, 0, 0)" stroke="rgb(204, 204, 204)" stroke-width="1px"></line><line x1="74.78125" y1="16.090909090909093" x2="69.78125" y2="16.090909090909093" style="visibility: inherit;" fill="rgb(0, 0, 0)" stroke="rgb(204, 204, 204)" stroke-width="1px"></line><line x1="74.78125" y1="0" x2="69.78125" y2="0" style="visibility: inherit;" fill="rgb(0, 0, 0)" stroke="rgb(204, 204, 204)" stroke-width="1px"></line></g><g transform="translate(64.78125, 0)"><text x="0" y="177" dx="0em" dy="0.3em" style="text-anchor: end; visibility: hidden; font-family: &quot;Helvetica Neue&quot;, sans-serif; font-size: 12px; font-weight: 200;" fill="rgb(50, 49, 63)" stroke="none" stroke-width="1px">-2e+4</text><text x="0" y="160.9090909090909" dx="0em" dy="0.3em" style="text-anchor: end; visibility: inherit; font-family: &quot;Helvetica Neue&quot;, sans-serif; font-size: 12px; font-weight: 200;" fill="rgb(50, 49, 63)" stroke="none" stroke-width="1px">0</text><text x="0" y="144.8181818181818" dx="0em" dy="0.3em" style="text-anchor: end; visibility: hidden; font-family: &quot;Helvetica Neue&quot;, sans-serif; font-size: 12px; font-weight: 200;" fill="rgb(50, 49, 63)" stroke="none" stroke-width="1px">2e+4</text><text x="0" y="128.72727272727275" dx="0em" dy="0.3em" style="text-anchor: end; visibility: inherit; font-family: &quot;Helvetica Neue&quot;, sans-serif; font-size: 12px; font-weight: 200;" fill="rgb(50, 49, 63)" stroke="none" stroke-width="1px">4e+4</text><text x="0" y="112.63636363636364" dx="0em" dy="0.3em" style="text-anchor: end; visibility: hidden; font-family: &quot;Helvetica Neue&quot;, sans-serif; font-size: 12px; font-weight: 200;" fill="rgb(50, 49, 63)" stroke="none" stroke-width="1px">6e+4</text><text x="0" y="96.54545454545455" dx="0em" dy="0.3em" style="text-anchor: end; visibility: inherit; font-family: &quot;Helvetica Neue&quot;, sans-serif; font-size: 12px; font-weight: 200;" fill="rgb(50, 49, 63)" stroke="none" stroke-width="1px">8e+4</text><text x="0" y="80.45454545454547" dx="0em" dy="0.3em" style="text-anchor: end; visibility: hidden; font-family: &quot;Helvetica Neue&quot;, sans-serif; font-size: 12px; font-weight: 200;" fill="rgb(50, 49, 63)" stroke="none" stroke-width="1px">1e+5</text><text x="0" y="64.36363636363636" dx="0em" dy="0.3em" style="text-anchor: end; visibility: inherit; font-family: &quot;Helvetica Neue&quot;, sans-serif; font-size: 12px; font-weight: 200;" fill="rgb(50, 49, 63)" stroke="none" stroke-width="1px">1.2e+5</text><text x="0" y="48.27272727272728" dx="0em" dy="0.3em" style="text-anchor: end; visibility: hidden; font-family: &quot;Helvetica Neue&quot;, sans-serif; font-size: 12px; font-weight: 200;" fill="rgb(50, 49, 63)" stroke="none" stroke-width="1px">1.4e+5</text><text x="0" y="32.18181818181819" dx="0em" dy="0.3em" style="text-anchor: end; visibility: inherit; font-family: &quot;Helvetica Neue&quot;, sans-serif; font-size: 12px; font-weight: 200;" fill="rgb(50, 49, 63)" stroke="none" stroke-width="1px">1.6e+5</text><text x="0" y="16.090909090909093" dx="0em" dy="0.3em" style="text-anchor: end; visibility: hidden; font-family: &quot;Helvetica Neue&quot;, sans-serif; font-size: 12px; font-weight: 200;" fill="rgb(50, 49, 63)" stroke="none" stroke-width="1px">1.8e+5</text><text x="0" y="0" dx="0em" dy="0.3em" style="text-anchor: end; visibility: hidden; font-family: &quot;Helvetica Neue&quot;, sans-serif; font-size: 12px; font-weight: 200;" fill="rgb(50, 49, 63)" stroke="none" stroke-width="1px">2e+5</text></g><line x1="74.78125" y1="0" x2="74.78125" y2="177" fill="rgb(0, 0, 0)" stroke="rgb(204, 204, 204)" stroke-width="1px"></line></g></g><g transform="translate(74, 0)" clip-path="url(#clip_0)"><clipPath id="clip_0"><rect width="255" height="177"></rect></clipPath><g><g><g><line x1="0" y1="0" x2="0" y2="177" fill="rgb(0, 0, 0)" stroke="rgb(60, 60, 60)" stroke-width="1px" opacity="0.25"></line><line x1="28.357638888888886" y1="0" x2="28.357638888888886" y2="177" fill="rgb(0, 0, 0)" stroke="rgb(60, 60, 60)" stroke-width="1px" opacity="0.25"></line><line x1="56.71527777777777" y1="0" x2="56.71527777777777" y2="177" fill="rgb(0, 0, 0)" stroke="rgb(60, 60, 60)" stroke-width="1px" opacity="0.25"></line><line x1="85.07291666666666" y1="0" x2="85.07291666666666" y2="177" fill="rgb(0, 0, 0)" stroke="rgb(60, 60, 60)" stroke-width="1px" opacity="0.25"></line><line x1="113.43055555555554" y1="0" x2="113.43055555555554" y2="177" fill="rgb(0, 0, 0)" stroke="rgb(60, 60, 60)" stroke-width="1px" opacity="0.25"></line><line x1="141.78819444444446" y1="0" x2="141.78819444444446" y2="177" fill="rgb(0, 0, 0)" stroke="rgb(60, 60, 60)" stroke-width="1px" opacity="0.25"></line><line x1="170.14583333333331" y1="0" x2="170.14583333333331" y2="177" fill="rgb(0, 0, 0)" stroke="rgb(60, 60, 60)" stroke-width="1px" opacity="0.25"></line><line x1="198.50347222222223" y1="0" x2="198.50347222222223" y2="177" fill="rgb(0, 0, 0)" stroke="rgb(60, 60, 60)" stroke-width="1px" opacity="0.25"></line><line x1="226.8611111111111" y1="0" x2="226.8611111111111" y2="177" fill="rgb(0, 0, 0)" stroke="rgb(60, 60, 60)" stroke-width="1px" opacity="0.25"></line><line x1="255.21875" y1="0" x2="255.21875" y2="177" fill="rgb(0, 0, 0)" stroke="rgb(60, 60, 60)" stroke-width="1px" opacity="0.25"></line></g><g><line x1="0" y1="177" x2="255.21875" y2="177" fill="rgb(0, 0, 0)" stroke="rgb(60, 60, 60)" stroke-width="1px" opacity="0.25"></line><line x1="0" y1="160.9090909090909" x2="255.21875" y2="160.9090909090909" fill="rgb(0, 0, 0)" stroke="rgb(60, 60, 60)" stroke-width="1px" opacity="0.25"></line><line x1="0" y1="144.8181818181818" x2="255.21875" y2="144.8181818181818" fill="rgb(0, 0, 0)" stroke="rgb(60, 60, 60)" stroke-width="1px" opacity="0.25"></line><line x1="0" y1="128.72727272727275" x2="255.21875" y2="128.72727272727275" fill="rgb(0, 0, 0)" stroke="rgb(60, 60, 60)" stroke-width="1px" opacity="0.25"></line><line x1="0" y1="112.63636363636364" x2="255.21875" y2="112.63636363636364" fill="rgb(0, 0, 0)" stroke="rgb(60, 60, 60)" stroke-width="1px" opacity="0.25"></line><line x1="0" y1="96.54545454545455" x2="255.21875" y2="96.54545454545455" fill="rgb(0, 0, 0)" stroke="rgb(60, 60, 60)" stroke-width="1px" opacity="0.25"></line><line x1="0" y1="80.45454545454547" x2="255.21875" y2="80.45454545454547" fill="rgb(0, 0, 0)" stroke="rgb(60, 60, 60)" stroke-width="1px" opacity="0.25"></line><line x1="0" y1="64.36363636363636" x2="255.21875" y2="64.36363636363636" fill="rgb(0, 0, 0)" stroke="rgb(60, 60, 60)" stroke-width="1px" opacity="0.25"></line><line x1="0" y1="48.27272727272728" x2="255.21875" y2="48.27272727272728" fill="rgb(0, 0, 0)" stroke="rgb(60, 60, 60)" stroke-width="1px" opacity="0.25"></line><line x1="0" y1="32.18181818181819" x2="255.21875" y2="32.18181818181819" fill="rgb(0, 0, 0)" stroke="rgb(60, 60, 60)" stroke-width="1px" opacity="0.25"></line><line x1="0" y1="16.090909090909093" x2="255.21875" y2="16.090909090909093" fill="rgb(0, 0, 0)" stroke="rgb(60, 60, 60)" stroke-width="1px" opacity="0.25"></line><line x1="0" y1="0" x2="255.21875" y2="0" fill="rgb(0, 0, 0)" stroke="rgb(60, 60, 60)" stroke-width="1px" opacity="0.25"></line></g></g></g><g><g><line x1="0" y1="160.9090909090909" x2="255.21875" y2="160.9090909090909" fill="rgb(0, 0, 0)" stroke="rgb(153, 153, 153)" stroke-width="1.5px"></line></g></g><g><g><line x1="28.357638888888886" y1="0" x2="28.357638888888886" y2="177" fill="rgb(0, 0, 0)" stroke="rgb(153, 153, 153)" stroke-width="1.5px"></line></g></g><g><g><g><g><g><path stroke="rgb(255, 112, 67)" stroke-width="2px" d="M29.357245659722224,155.7750852272727L30.787888541666664,155.75151455965909L31.518097743055556,155.85718170222634L31.640035590277776,155.69004595588234L31.699586631944445,155.36489127263263L31.830031770833333,154.87557690327176L31.93779079861111,154.85154265501282L31.954805381944443,154.77721120092082L31.988834548611113,154.576967819538L32.039878298611114,154.30331579530406L32.156144618055556,154.59338274061136L32.17883072916666,155.02577199802826L32.23271024305555,154.87576159299886L32.27524670138889,155.00629788583768L32.30218645833333,154.4738181402489L32.32061892361111,154.6665270676376L32.445392534722224,154.73283087269274L32.46807864583334,154.75953078071169L32.554569444444446,154.5261247001456L32.57300190972222,154.13868338189164L32.79135572916667,154.1335167339763L32.8338921875,152.1019298912027L32.85090677083333,152.77771440795982L32.9359796875,153.30185271925217L33.06217118055555,153.1496964262393L33.49887881944444,153.20422703967193L33.51589340277778,153.99221316666302L33.63357760416667,153.56391286425378L35.6668203125,148.43138560016635L35.74196805555555,142.19101179869773L36.31053871527778,136.01504944183029L36.606876041666666,131.57532476630098L36.62956215277778,127.52264352989346L36.657919791666664,129.90523391347284L36.686277430555556,127.26278234811264L36.935824652777775,123.44670914223425L37.14425329861111,125.98132095557183L37.488798611111115,124.18635506667806L37.54693177083333,120.96123916918519L37.82767239583333,118.60076622562848L37.851776388888894,118.30481200786699L38.28423038194445,116.60865993117667L38.46997291666666,113.94265618520896L38.71952013888889,114.64204257488291L38.79892152777778,111.40702668095712L38.83011493055555,111.03488078127835L38.971903125,113.0130307415683L39.07257274305556,110.54728435397652L39.10376614583333,112.87937061241735L39.24555434027778,111.15195759470916L39.334880902777776,111.72258932955553L39.421371701388885,108.76331496136108L39.50502673611111,111.1945173859118L39.83822899305556,107.25473884063386L40.056582812500004,102.31330921346812L40.64216805555555,100.07656507353455L40.64925746527778,97.97422313502936L41.110069097222215,96.38999410829013L41.413495833333336,94.49713282861028L41.470211111111105,94.48375696989345L41.65028211805556,93.12308940920876L41.74669809027778,91.65400137279796L42.15221232638889,93.37022468731514L42.34362638888889,95.40262344875275L43.066746180555555,94.31804566016075L43.12062569444444,93.95995239609645L43.29644305555555,95.08868734674878L43.31345763888889,91.42540558986745L44.107471527777776,90.73797062664774L44.25634913194445,90.0278278305341L44.422241319444446,90.80353192559318L44.432166493055554,90.32059642808316L44.44918107638889,91.38247149321354L44.498806944444446,88.88287494138268L44.60373020833333,88.75989541937506L44.6760421875,88.37836906980685L44.9823046875,87.38714644188413L45.05319878472223,86.19101513785775L45.22759826388889,90.02806930998737L45.271552604166665,88.39205181326516L45.38781892361111,86.38665722432272L45.47289184027778,89.52092615277546L45.505503125,90.77695910075617L46.312277951388886,89.68515273318098L46.702195486111115,88.15613141263586L46.73764253472222,88.11366180212697L46.873759201388886,87.97554367218528L47.07935208333333,85.49311597603844L47.40971857638888,84.44917640380488L47.74717447916667,86.54117061501019L47.84784409722222,89.08665691446066L48.03925815972222,86.4785850577673L48.914091319444445,88.49396921647858L49.067222569444446,93.18084743897805L49.191996180555556,92.63098005429592L49.48124409722222,91.95812212348663L49.62586805555556,92.26643009227381L49.68967274305555,94.73431260081885L49.82437152777778,92.72029778776404L49.86974375,94.06933776356752L49.888176215277774,94.1767958399587L49.89810138888889,90.5463956857934L49.93780208333333,91.59639422965788L49.96332395833333,91.85831381052199L49.97324913194445,89.86330646813138L50.191602951388894,91.88548956269703L50.42697135416667,90.25171419216366L50.554580729166666,90.96903987893458L50.86651475694445,89.90800915463348L50.89061875,90.59084526550737L51.157180555555556,90.6897912502135L51.28762569444444,91.31032929558266L51.961119618055555,93.32895325916778L52.3070828125,93.52841172822794L52.566555208333334,94.36614362784584L52.60767378472222,93.87215208579843L52.930950868055554,92.37296170602451L53.926303993055555,95.04965202361471L54.71322847222222,95.30402985053246L54.90747829861111,95.35910541031947L54.971282986111106,95.77632120073714L55.08045989583333,94.56137226589684L55.12016059027778,93.16261881408354L55.39239392361111,93.86608265208649L55.39664756944445,93.5278655003428L55.4973171875,94.0550602092966L55.525674826388894,95.4705872619416L55.68589548611111,96.68798303898315L55.8801453125,94.0483807324808L55.977979166666664,95.54200571221575L56.23036215277778,92.97360683642036L56.2374515625,91.07253342003403L56.35655364583333,89.70561096111133L56.48558090277778,89.93036089484862L56.68266649305556,89.60863130963645L56.76065,92.1279174221455L56.91661701388889,93.86073908965093L56.96340711805556,92.51596049924511L57.03713697916667,90.2488433450016L57.22713315972222,92.04540827972824L57.411457812500004,94.23563133147331L57.6156328125,93.07377652615672L58.497555381944444,88.04016364296677L58.65494027777778,86.13630273123461L59.9891671875,86.49044072964986L60.18908854166667,88.72937239233538L60.47124704861111,88.6557257081285L60.550648437499994,90.213588833968L60.625796180555554,87.95928966401716L60.65982534722222,86.52323857113758L60.67258628472222,87.2727101881371L60.96608784722222,87.2969897492459L61.00862430555556,89.09463134954754L61.20854565972222,91.25231290063762L61.25108211805556,89.71995024038257L61.44107829861111,88.6255440078659L61.737415625000004,87.62998549562863L61.75159444444444,86.4493549337408L61.79129513888889,87.40135727842629L62.016738368055556,87.0775018670558L62.32016510416667,87.3568647565971L62.43643142361111,87.36558476304918L62.60090572916666,86.64672585782951L62.60374149305556,85.43801846924316L62.74269392361111,85.53443608154592L63.74655434027778,85.03614460347299L63.983340625,83.93664698935652L65.12615347222223,85.58699955725028L65.5274140625,86.28757473435017L65.54017499999999,85.61876643151918L66.09598472222221,84.72872008618424L66.13143177083333,84.21380023352873L66.15837152777779,89.64427445829904L66.34836770833334,88.11651922043397L66.36254652777778,90.13142857771493L66.61776527777778,89.16407873753805L66.637615625,89.99464042434101L66.71843489583334,89.89761380005915L66.74112100694444,89.43410805276277L66.86305885416667,90.09128869529401L67.06723385416666,90.35385276263096L67.11685972222222,89.39106165757859L67.45431562499999,88.92401199454716L67.57199982638889,90.80700378763738L67.70528072916666,89.27475909076425L67.72938472222222,90.9319690908222L67.73222048611112,87.14126099994787L67.84423315972222,86.88825659996873L67.93355972222223,89.97575509634487L68.0313935763889,88.08510646689783L68.42981840277777,86.96982524377506L68.48086215277779,87.67844060081049L68.78712465277778,87.88738822412266L68.89063003472222,85.22400111629177L70.43328559027778,82.87774157886598L70.53679097222222,82.32582108368322L70.97208072916668,85.5336631047554L71.2599107638889,84.00586263558053L71.282596875,84.14514826316649L71.28685052083333,83.77415145789989L71.41587777777778,85.25115564746721L71.58176996527779,83.26412520666216L71.60445607638889,81.52883876036094L71.7675125,81.98512711985293L71.77601979166667,82.19252513554811L71.97310538194445,82.38736167223796L71.98161267361111,85.68523518516096L72.07802864583333,86.24494224746022L72.46652829861111,83.52148239393067L72.47928923611111,84.0144235272675L72.65085295138888,84.82811434363323L72.68488211805555,83.24663565163449L72.86637100694445,84.01947570916252L73.19815538194445,82.77955474367933L73.46329930555557,84.5306987552985L73.47747812499999,85.99673175317912L73.58381927083333,86.60682882463475L73.69866770833333,84.36615979478084L74.41469809027778,85.14374701323213L74.70819965277778,87.80670843521202L74.73513940972222,87.7692466520363L74.77058645833333,86.2241673094036L74.93789652777778,84.51671061291489L75.83258003472221,85.6192536404762L76.71450260416667,85.19665445701301L76.84778350694445,84.70072562875326L76.95979618055556,81.90706605907013L77.12143472222222,80.40485327180572L77.26889444444444,83.9436108267198L77.2802375,83.57277445057736L77.49150190972222,82.04690898852822L77.69000538194445,81.38180448402602L77.98492482638889,78.97338950859744L78.10260902777777,81.25439165970391L78.42163246527778,81.31258954127689L78.47125833333334,79.67505940658434L78.49536232638889,82.47390496213242L78.57901736111111,83.65338843182492L78.64565781249999,81.91827737727677L78.7449095486111,83.99583006272971L79.10079791666666,84.48005485581965L79.3092265625,81.56950450440087L79.53892343749999,80.44870838445871L79.68212951388888,80.7286113943116L80.10182256944445,83.31421229113242L80.240775,83.3278853292249L80.51726197916666,84.3045607429895L81.13120486111112,82.7082364457937L81.43888524305557,81.29989641293075L82.05708177083334,83.92751171139483L82.07126059027777,83.13268316320053L82.4640138888889,84.11100762519305L82.66677100694444,84.75130343875219L82.7036359375,83.00444115416042L83.20840190972223,82.05789764704171L83.25235624999999,81.57143177004322L83.26937083333333,83.78068292566229L83.28780329861111,85.08410861903374L83.30481788194444,83.13976062596569L83.38563715277779,81.12133933012488L83.50332135416666,80.04605359807492L83.54018628472222,80.11290488611769L83.55436510416668,82.48820884076152L83.63943802083332,84.90700484991146L83.7599579861111,84.04119154631051L83.77271892361112,81.37557856414995L83.8521203125,81.69907441121724L84.27748489583333,81.6789616921849L84.43628767361112,80.1674224698564L84.66598454861112,81.03552734555021L85.54223559027777,81.22753231642102L86.25968385416667,87.76703075348898L86.43124756944444,85.46254231572975L86.76019618055555,90.25574129852876L86.80698628472221,90.79747318820816L86.81974722222223,83.43608618565217L86.91758107638888,87.85618012048222L87.04235468750001,89.51261148138025L87.3642138888889,86.1790214342827L88.1171092013889,82.0417935423878L88.28725503472222,81.15145112543269L88.33546302083334,82.7191206752596L88.34822395833334,83.60742695061032L88.3921782986111,83.32580844309346L88.60344270833333,81.33655324767426L88.68709774305556,82.84124444860456L88.97492777777778,81.47121826007181L89.07134375,78.88925936513401L89.25566840277777,78.37895334635313L89.27410086805556,80.7881106441755L89.2783545138889,80.79849706832348L89.36626319444444,78.68676301372136L89.42014270833333,79.07205780823283L89.45558975694445,75.7240130940306L89.54208055555556,78.10197035641836L89.55058784722222,78.07553448657829L89.69237604166666,84.06560478285607L89.91923715277777,83.38147650607726L89.98871336805556,84.82044840364635L90.06386111111111,83.65235426946055L90.42258524305556,82.15499778894906L90.65795364583333,81.31994185518762L90.69056493055557,80.70828329493074L91.37965555555556,79.81833361332208L91.70576840277778,81.45060244072054L91.82061684027778,79.89866260079594L91.93546527777778,81.81357824229576L92.62313802083334,78.67832308174108L92.75500104166666,78.38313021268102L93.30372135416667,76.43802585488133L93.42707708333333,80.46229278565608L93.58162621527778,77.41901771684819L94.05094513888889,76.85216631192709L94.06228819444445,77.11345319624716L94.3416109375,78.48006055411194L94.64929131944444,83.15279201428534L94.72585694444444,84.66815248129848L94.83361597222222,82.30286876150636L94.99525451388888,84.82898830235837L95.25614479166666,82.95450661777866L95.36957534722222,87.04930624339445L95.37524687499999,82.93506101876395L95.43338003472223,80.71391161125837L95.49434895833333,84.7374833303914L95.66307690972222,77.5654672709621L96.16784288194445,80.42371786257725L96.4088828125,79.78336139936454L96.7562638888889,77.25302252143689L96.77895,75.32148396740759L96.96327465277777,72.30003810771728L97.59848576388889,70.65310809190309L98.10466961805555,72.22340462786913L98.6647329861111,71.40563936763057L98.72711979166667,74.27395748421472L99.22479635416666,67.83484608143792L99.28860104166667,68.45169173977183L100.40447413194444,67.0357082256813L100.45126423611111,66.09158402631785L100.63417100694446,65.66188223397255L100.89931493055556,65.76711229492898L101.04535677083332,64.72902874059375L101.04677465277778,65.85707065344718L101.20132378472222,63.30565716479556L101.38990208333333,61.85727498069555L101.45087100694444,62.62750703387185L101.51751145833333,61.93612922032311L101.66497118055555,63.10726275946659L102.30868958333333,63.0999315193163L102.3398829861111,63.59435095704433L102.3810015625,63.08846852877207L102.87867812500001,60.563387935445036L103.15374722222222,61.71540776126703L103.67269201388889,63.34793783857842L103.68970659722223,62.82898997587432L104.25685937499999,61.84180307643368L104.358946875,60.66619548222384L104.4993171875,60.475740016607034L106.21353645833334,59.043017873600604L106.31278819444445,58.114998224160345L106.43472604166666,57.91721484358712L106.83598663194445,59.13006754251592L107.01463975694445,57.527614389145924L107.04583315972222,59.08235840621482L107.1535921875,61.448301407365264L107.22873993055555,62.11360584441914L107.29679826388889,62.2462828248333L107.33366319444445,61.23572992217271L107.65126875,60.831540226030896L107.6668654513889,59.803588908345816L107.81716093749999,57.08092039046204L107.86111527777778,57.24547837064085L108.10357309027778,58.052213158748174L108.65087552083334,56.21111766797618L108.68065104166666,55.780267191694804L108.82385711805556,53.876461451380536L108.90751215277778,54.4408200526465L109.0677328125,53.89544089522428L109.14004479166665,54.98320771895274L109.17407395833334,55.297958722280725L109.40802447916667,57.16428659700479L109.63772135416666,56.83992423093015L109.86600034722223,55.18304544764901L110.17935225694444,56.93945795040757L110.35375173611111,56.52199295206273L110.41897430555555,57.17562190760128L111.15485503472223,58.74947541728804L111.75745486111111,58.06659434128191L112.49475347222221,58.57203615022371L112.52169322916667,57.20084100831605L112.58549791666667,55.389538695898736L113.57659739583333,55.50454708117559L113.91121753472223,54.719728248705366L113.9778579861111,54.823081267405044L113.9835295138889,54.76541694226121L114.13949652777778,52.30410811990218L114.1976296875,53.12631146285041L114.3535967013889,53.48587778680117L114.4783703125,54.406600535717075L114.97888263888888,55.25571032143023L115.26104114583333,56.652187556494496L115.30924913194445,55.409318215714904L115.84237274305555,54.180869338519855L115.93595295138888,51.043237512202836L116.15147100694445,49.1103743255035L116.88876961805555,49.832287095302135L116.89018750000001,51.38978702990856L117.07025850694444,52.62699721794516L117.19077847222222,48.39823810349438L117.64875434027778,49.614187180278435L118.55336302083334,51.88244980816708L118.58030277777777,54.7006403394457L118.60440677083334,54.88504329457653L118.8681328125,55.33862256765501L119.17155954861111,53.850826949683906L119.42252465277778,52.74192798799217L119.80109913194445,54.253889747340764L120.43914600694445,52.37532816658627L120.70287204861111,51.54285599086087L120.83757083333333,52.5267533672438L120.89570399305555,54.94139861125538L120.90279340277777,53.22429939402596L120.98219479166666,54.220488727324664L121.41464878472223,52.59262846366755L121.54934756944444,49.552253214564175L121.74359739583333,49.060556474193035L121.8286703125,51.17917479360672L122.51634305555555,50.556646921618594L122.9870798611111,51.369834743880276L123.64497708333333,50.241616755419074L123.67758836805555,48.54090187143325L123.6917671875,47.700489986496336L123.8321375,50.073498537352336L124.01646215277778,50.14566730422959L124.52973541666667,50.59023560981046L124.95226423611112,47.54224932043178L124.96644305555556,49.23837231953178L125.1465140625,50.82123930080998L125.21882604166666,51.51451062594053L125.79306822916666,50.13231433010979L125.8129185763889,50.245320416247694L126.36447465277779,48.72515247702134L126.49633767361111,48.80364830439464L126.56156024305557,48.07536511900042L127.13863819444445,46.84290088958207L127.57534583333334,50.03262121556742L127.61079288194445,48.36723182024954L128.07018663194444,45.51150954669518L128.39204583333333,46.73567277347166L128.47286510416666,45.44673889135572L128.5253267361111,44.41692969844979L128.5437592013889,44.869089637251705L128.8797972222222,45.43605605507827L128.88830451388887,44.60260522395606L129.05277881944443,43.52225631619183L129.43135329861113,43.27028560789691L129.60858854166668,44.0423190920109L129.89216493055554,44.96915850066108L130.88042864583335,48.97877350948755L130.92296510416668,50.837451605692536L131.2022878472222,55.010936872506434L131.207959375,55.39806780532206L131.31713628472224,57.794573637738694L131.51847552083333,56.648880546279585L131.78645520833334,58.37510105504046L131.81339496527778,58.46146972393339L132.00197326388889,56.53913751617819L132.45427760416666,54.441402964252376L132.67688506944444,54.28297814218779L133.25821666666667,53.2989005216763L133.6169407986111,46.80007326755123L134.4591626736111,46.68314623325804L134.63214427083332,46.738700239954824L134.7002026041667,45.057345143972896L134.7838576388889,46.262037768201935L134.86467690972225,45.307376070012054L134.92139218749998,45.767414278370865L134.98945052083334,46.31597697611343L135.10288107638888,46.940785049304424L135.21772951388888,48.178544893219026L135.27019114583334,44.08185989047689L135.40347204861112,46.19869547974068L135.48145555555556,50.38527410602623L135.64309409722225,50.683715599979365L135.77212135416667,45.49042822362398L136.1180845486111,47.81720579781074L136.30808072916668,48.7446246150501L136.53068819444442,48.653416814484615L137.89894427083334,46.67783986141802L138.40087447916667,46.94872096230537L138.52848385416667,45.72139735011049L138.77377743055555,42.00919068279359L138.85317881944442,40.55121327331253L139.03608559027776,43.68306319126026L139.13391944444444,42.53808791475615L140.00733472222223,39.928239112490076L140.17322690972222,44.916358240221314L140.37598402777778,46.31824108049642L140.5546371527778,51.14388214829788L141.2706675347222,51.015181561706L142.05333836805553,49.45458052793272L142.05475625,51.390447180395995L142.08594965277777,51.40750126278307L142.1213967013889,52.559182575851665L142.24758819444446,53.52977090914739L142.33833263888891,52.77959550003388L142.49429965277778,51.21117207274763L142.64317725694445,51.73841347092129L143.38189375,49.86337762800733L143.407415625,47.50539021316803L143.85263055555555,48.346342082446256L144.46657343750002,50.664157522195026L144.87775920138887,49.186642240589734L145.4902842013889,48.21666148071748L145.5101345486111,47.223349161157756L146.0900482638889,47.88345836033105L146.37362465277778,49.995217061653165L146.4374293402778,49.46914160062828L146.5565314236111,46.25713268764969L146.56787447916668,47.03521143077165L146.84152569444444,45.199047313008435L147.20024982638887,46.32392838780504L147.61994288194444,48.69041385086487L147.6823296875,47.490503992337096L147.97157760416667,46.521148986311346L147.99993524305557,46.96533143724136L148.44656805555556,44.10115340779939L148.511790625,44.603192044679645L148.61246024305555,41.696290226807776L148.76133784722222,41.5562116360847L148.99245260416666,44.103028118014436L149.6503498263889,43.24966346171777L149.68154322916666,43.904235577030676L149.82474930555557,52.13425725530932L149.94243350694444,48.751258898640145L150.11541510416666,45.71980079372955L150.47130347222222,46.94713615805591L150.5124220486111,45.072787376651746L150.80592361111113,45.34607583508193L151.01718802083334,45.88215118286735L151.10935034722223,45.1186657097204L151.58859444444445,45.11715397128677L151.59001232638892,43.97781511004479L152.2961175347222,48.02292770239052L152.3471612847222,45.70619412143432L152.58111180555554,46.8776255637697L152.5825296875,45.48162647462544L152.86185243055553,46.08416338477525L153.42616944444444,49.30081621268336L153.81892274305554,48.45009768215547L153.94653211805556,47.205518836566L154.075559375,46.768521529212336L154.09682760416666,46.823112917527396L154.42152256944445,46.86793593233463L154.66114461805554,47.97392633212806L154.68524861111112,45.78540693564045L154.93621371527777,45.11995438865702L155.62246857638888,43.61141581501241L155.79828593750003,43.841707443552906L155.86634427083334,45.352638102495405L156.07902656250002,45.623605588769976L156.19812864583332,43.55860085326199L156.23073993055556,41.718200284684485L156.25342604166667,42.84355653444706L156.4164824652778,44.06787255703185L156.50722690972222,44.2312348978555L157.13251284722222,46.530689802349684L157.3579560763889,45.57315819959163L158.14771631944444,44.17498582884588L158.16047725694443,43.65991195185299L158.5447232638889,42.347197171111816L158.62554253472223,43.430136484485274L159.17851649305555,43.5177239361457L159.42664583333334,43.30477640714196L159.53865850694444,42.28798516246701L159.64641753472222,43.26487632475295L160.01223107638887,43.882187158488136L160.16819809027777,44.230448658729216L160.30856840277778,44.99856464978302L160.3227472222222,42.9804285625971L160.39080555555557,44.04540486483097L161.07989618055555,45.25159519162585L161.96323663194443,45.834513933157325L162.08659236111112,43.71531631443983L162.3318859375,46.422275015936634L162.68210277777777,45.5292286459256L162.83948767361113,46.53611673300992L162.92314270833333,47.917641630715025L163.28328472222222,43.64372702388357L163.43358020833332,42.46822485069379L163.43783385416666,44.77695195587083L163.44775902777778,45.15851776443159L163.8433480902778,46.4142583859317L163.88588454861113,45.9598788951954L164.14819270833334,43.87400688257176L164.38781475694446,45.86178481136125L164.5749751736111,47.0846220231804L164.63310833333333,43.56026753209005L165.42995798611113,44.00712642834495L165.45122621527779,45.48205994791607L165.63838663194443,46.72303142329508L166.24098645833334,45.79114271761344L166.3288951388889,44.93231631238626L166.4664296875,46.260435241977206L166.66918680555554,45.038903190640866L167.03641822916666,44.48097259620269L167.03925399305558,41.87639037590344L167.67446510416667,41.92122343008751L167.84602881944446,44.11285337623431L167.93960902777778,44.794251798467855L168.1409482638889,44.46894312453526L168.15512708333335,43.039786329266605L168.60459565972224,42.69116725210543L169.1235404513889,41.799137851263254L169.79987013888888,41.64306225621252L169.89061458333333,41.43376349009117L169.95867291666667,43.99033763950925L170.12172934027777,45.280907129160084L170.1444154513889,43.081447686586955L170.1699373263889,47.357385657406724L170.43366336805556,44.845260939898566L170.50597534722223,45.31012815484823L171.08447118055554,42.513673483818025L171.11991822916667,43.71909045392718L171.1922302083333,40.143050863265415L171.6275199652778,40.76606915432288L171.67431006944446,42.680584674411904L171.940871875,43.38779966828352L172.44705572916666,45.828520710061014L172.7249605902778,46.73882265330937L173.21271197916667,45.55623677380382L173.70613489583332,46.177202291555005L173.9443390625,48.2765372840239L174.16694652777778,45.3183087340507L174.1924684027778,40.501184104066795L174.55402829861112,40.80193773516734L174.95387100694444,39.9797251411004L175.06304791666665,37.357369175569346L175.08006250000003,41.98297832352344L175.1977467013889,43.95983244865954L175.54512777777776,43.832524469195704L175.73370607638887,43.427281726971955L176.06123680555555,42.849244036183194L176.1463097222222,44.764199830800834L176.44973645833335,42.83176421666232L176.91338385416668,40.064217620906504L176.9743527777778,40.72580898163483L176.97718854166666,42.44422970716275L177.02965017361112,41.75958896066126L177.25367552083333,41.83957724003312L177.4493432291667,43.60527475311079L177.67478645833336,43.67208530641193L177.71023350694443,43.31392163839266L177.76836666666668,42.38498934667197L178.12425503472224,40.752556108003176L178.13418020833333,41.407329119347395L178.3270121527778,42.735477017063005L178.36387708333334,41.29975211932873L178.57372361111112,40.856680817051796L179.46273559027776,41.81475280841289L179.4925111111111,42.683255094138644L180.23689913194443,43.88319169284682L180.37159791666667,43.24850024298081L180.45099930555557,41.239486509424836L180.4907,41.48728849656399L180.74166510416669,42.02215150702929L180.80546979166667,38.20368294967213L181.2535204861111,39.91622113343965L181.27053506944443,39.14357358915473L182.08439930555556,39.86166119894736L182.0957423611111,42.28074671936844L182.2545451388889,41.3899650770756L182.27155972222224,40.88767790988172L182.91669600694445,40.432436291383596L182.99609739583332,40.4690413202847L183.45974479166665,40.97473729217083L183.7447390625,38.75087646621162L184.23390833333332,41.959224743363364L184.30196666666666,39.56885302783621L184.44800850694446,42.03868681670173L184.60113975694443,41.444859817293775L184.79538958333333,39.57903520855811L184.88188038194443,41.06526203422575L184.97829635416667,40.25035608417181L185.35403506944445,38.175452286866715L185.52276302083334,38.44707819030185L185.53977760416666,42.78363327781747L185.58798559027778,41.544867466690505L186.3635670138889,42.05368184365068L186.4146107638889,41.58660683346315L186.6131142361111,41.41396978189607L186.62445729166666,42.39551823277401L187.2922796875,44.743384803300785L188.24935000000002,42.79111610925321L188.41382430555558,44.27978330191553L188.62508871527777,41.18545520842204L188.64210329861112,43.45014244323505L188.7314298611111,40.64844910230468L188.98806649305556,40.78268877956461L189.60342725694446,36.72786894955695L189.63036701388887,36.573852051552365L189.83028836805556,38.633601003658725L190.11386475694445,40.62170037492251L190.7689262152778,40.38246908858986L190.9390720486111,41.47591895315392L191.01847343749998,42.687125235528725L191.5260751736111,42.53790014131724L191.6054765625,41.408490084790344L191.76427934027777,40.880690641783275L191.77278663194446,41.20261893052452L192.3172532986111,40.589219085587445L192.5341892361111,39.57653713317066L192.56821840277777,38.10806432535696L192.9382855902778,38.51928177703235L193.00492604166666,37.00506338440121L194.39870399305556,38.18734484882256L194.40862916666669,36.49715690929352L194.65959427083334,37.378754372848846L194.72623472222222,37.926820805527484L194.96443888888888,38.524177710589186L195.17712118055556,37.50480776271715L195.55144201388887,35.574736930357574L195.76696006944445,38.760234203669114L195.9342701388889,37.094322340383286L195.9768065972222,33.462905904229956L196.7226125,34.49519808799249L196.99626371527776,37.5905620346137L197.0161140625,38.7236894934955L197.07708298611112,40.5078046051882L197.14514131944443,40.00337594493112L197.14797708333333,38.38126420332233L197.6385642361111,40.58796306744793L197.8101279513889,38.44640284046878L198.26243229166667,37.981097386099464L198.27802899305556,40.13063570438695L198.47936822916665,38.910176877177605L198.56585902777778,40.18021408085204L198.62257430555556,37.67276481214759L198.78421284722222,37.67681797819765L198.86077847222222,37.833119196009505L198.94017986111112,38.027468108514796L199.0167454861111,37.058946774199796L199.43643854166666,34.424231700883524L199.57680885416667,35.12328333871196L199.94262239583333,38.01669159413623L200.02344166666666,44.35976495648174L200.06597812500002,44.24847829207087L200.92379670138888,42.396621066151624L201.11521076388888,37.40659195787279L201.20595520833334,38.04610290199642L201.96168628472222,39.725127650288755L202.46787013888888,39.72686068108234L202.7046564236111,37.71351981774029L202.77271475694445,35.99362325428055L203.01233680555555,36.65726486165923L203.08323090277779,36.65116573517736L203.179646875,39.153665350197315L203.28031649305555,42.02792080102748L203.7510532986111,36.19175816243467L203.91836336805557,41.261486715642604L203.96515347222223,43.63052271120375L204.08425555555556,38.64172839944953L204.5649175347222,40.67686090330608L204.72655607638887,41.10144040562L204.7676746527778,37.91776197064476L205.12639878472223,38.714850364205034L205.37169236111112,36.5602284003412L205.47519774305556,37.71528476747747L205.63825416666666,36.05301176957741L205.78996753472222,39.41125592538282L205.9275020833333,40.01120810068426L206.06220086805556,38.84958281495602L206.45353628472222,39.736556507155456L207.4644861111111,38.752172540656915L208.641328125,40.66468420621234L209.14184045138887,40.36903779645465L209.1957199652778,38.33013290514555L209.27086770833333,36.68943201581459L209.8380204861111,37.707323982216025L209.9330185763889,35.93962166205688L209.94294375,35.254119588143226L210.51860381944445,37.24237516197687L210.54412569444443,36.69449327900432L210.68733177083334,37.481065285584435L210.72277881944444,37.72471871680517L210.73553975694446,35.99028577553767L211.2006050347222,37.23252373804988L211.2261269097222,33.13953128828447L211.30978194444444,34.24586081842526L211.88118836805555,34.56370399105515L211.90812812500002,38.35776784917854L212.3575967013889,37.99328570950715L212.4256550347222,38.45343165297703L212.44550538194443,37.61120103724073L212.87937725694445,38.223175167798985L213.1246708333333,35.72617782795214L213.19840069444444,33.0784851058622L213.69891302083334,33.47307401806276L213.96831059027778,33.78625918356494L214.0590550347222,34.099880510138945L215.2358970486111,36.44222376062882L215.32238784722222,37.704822892740935L215.54357743055556,33.76685396291731L215.77611006944443,36.88101578684132L216.1575203125,35.699279926650235L216.22132499999998,37.35861909235379L216.5275875,37.54062600086681L216.63392864583332,33.1876199187019L216.6835545138889,31.099776496675673L216.89481892361113,32.227519307096316L216.93735538194446,31.730534311530505L217.28190069444443,30.145070586918337L217.89726145833333,29.41202530669645L217.9440515625,32.28994245674514L217.99225954861112,30.093527974047078L217.9979310763889,31.96469632988277L218.23329947916665,30.02409052520241L218.2659107638889,32.365533860575994L218.58068055555555,32.89445099816379L219.73341857638889,33.15045468980736L219.76035833333333,32.531693268429905L220.01557708333334,35.540533006512476L220.0538598958333,35.977103894816565L220.56713315972223,36.54980210961725L220.85212743055556,34.18914262940672L221.11443559027776,35.99193444128039L221.2236125,35.52888225567733L222.29694913194444,35.87055094431548L222.31679947916666,37.3909839756802L222.5053777777778,35.21177788540811L222.65425538194444,37.255186049426726L222.77052170138887,35.90065140238332L223.2497657986111,37.81735106870269L223.32633142361112,38.538950413948896L223.57587864583334,36.323949793823886L223.9771392361111,30.678563058112502L223.99131805555555,31.946632153049336L224.7045126736111,33.37826338273871L224.79809288194443,33.400514847825036L224.8406293402778,32.57914981778595L224.84771875,30.997177390671595L224.86898697916666,30.930982570766588L225.20644288194444,32.13227704245995L225.22912899305555,32.11790031638509L226.04582899305555,31.052302689831066L226.1691847222222,31.691165704807702L226.7973064236111,31.443921013793727L226.8327534722222,33.01931283554896L227.11349409722223,30.94046270132938L227.3715486111111,30.4081923935249L227.9741484375,28.7794324815695L228.29317187499998,29.7169947162144L228.40093090277776,31.487355920637754L228.4661534722222,31.317612416019017L228.49876475694444,30.04112994961139L228.54413697916667,30.09889387885775L228.93263663194443,31.730574963678293L229.03472413194444,32.57683361457063L229.36083697916666,36.28165130510601L229.4544171875,34.559252146700004L230.32641458333333,32.967659242565446L230.44551666666666,30.71034554553927L231.02543038194446,30.66334369095992L231.1998298611111,32.838591441848706L231.28064913194444,32.70460941056379L231.37281145833333,30.162311100883727L231.9456357638889,29.71301166053027L232.16115381944445,29.4906990417727L232.3057777777778,30.306675106881812L232.41353680555557,31.416766427765452L232.42204409722223,32.02549735665926L233.24583350694445,32.99716205035918L233.2784447916667,33.021001775670044L233.9235810763889,33.258566974492936L233.96753541666666,32.93949813924121L234.13484548611112,34.43559092899926L234.4723013888889,33.963507966490454L234.8976659722222,32.547860461712474L235.14012378472222,32.107784458845686L235.3471345486111,33.98382976621647L235.36414913194443,33.35152513245717L235.4449684027778,32.520591215837925L235.45914722222224,29.265457002230022L235.49175850694445,31.320018519519834L235.62645729166667,30.358357702620992L235.9369734375,34.22647484884533L236.37793472222222,34.55710081839811L236.7083012152778,35.21507299103885L237.1676949652778,37.560879021896056L237.29388645833333,37.74645923131945L237.51082239583332,37.02007440242804L237.61716354166668,40.87448214145684L238.1091685763889,36.39072905760136L238.16163020833335,35.78223857092448L238.5047576388889,31.88317836982742L238.66639618055555,31.874912703714642L238.98116597222221,33.481055576774224L239.44906701388888,32.75419016424635L239.522796875,31.47530955309327L239.56249756944445,30.741168686401437L239.58518368055556,30.023115984568136L240.16509739583333,33.00054004528636L240.37069027777778,36.23517629989908L240.722325,45.10108305266672L240.92791788194444,47.458894149781855L241.12500347222223,42.29038762623276L241.22709097222221,40.87782348483057L241.46104149305555,49.96239863635289L241.60708333333332,51.73838236362991L241.77297552083334,51.423171463632485L241.77439340277778,47.9344028781795L241.80984045138888,51.212488317816806L243.25608003472223,44.911629354326465L243.30428802083335,39.47676738532314L243.94942430555557,34.093861567557525L244.71224479166665,32.712561258716335L244.73634878472222,32.992042437047985L244.82709322916668,34.46007773495606L245.5105123263889,34.754586413700935L245.5303626736111,32.61420071185691L245.53178055555557,32.125463608932336L245.53319843749998,34.116124756268505L245.53461631944444,37.601464626488365L245.5360342013889,35.95253786680212L245.53745208333333,33.18714772008127L245.53886996527777,33.05051590477606L245.54028784722223,30.910911815592925L245.54170572916667,31.500734589355744L245.5431236111111,32.17644643543164L245.54454149305556,32.35559513398624L245.545959375,30.207340034937204L245.5487951388889,32.12651197550778L245.55021302083333,31.70110604894103L245.5516309027778,31.072754538455513L245.55446666666666,33.03093681398241L245.55588454861112,31.904846179298545L245.55730243055555,32.79906111667003L245.5587203125,34.17734576091112L245.56013819444445,33.79246995654668L245.56155607638888,32.120402428473454L245.56297395833332,31.536531229811345L245.56439184027778,29.12858351061405L245.56580972222224,28.852417151822976L245.56722760416665,29.16642756382106L245.5686454861111,30.592828129201735L245.57148125,31.129867332066482L245.57289913194444,33.91098289923988L245.5743170138889,33.88004996681667L245.57573489583334,33.66638793463545L245.57715277777777,34.12651457896308L245.57857065972223,34.972812156468734L245.5799885416667,32.77731797569945L245.5814064236111,31.307157830874246L245.58282430555556,30.668436743979072L245.58424218750002,31.94055636456929L245.58566006944443,33.7215781369234L245.5870779513889,33.99972529124494L245.58849583333335,34.32450562929242L245.58991371527776,33.62129996848455L245.59274947916668,32.556745890181645L245.5941673611111,33.46173503410901L245.59558524305555,30.942427384101762L245.59700312500001,32.89541665773379L245.59842100694445,31.865772721913004L245.59983888888888,31.57181590587507L245.60125677083334,32.107464543525055L245.6069282986111,34.3939559988423L245.60834618055554,34.47958382657811L245.6097640625,34.2714946141287L245.61118194444444,31.587180859386308L245.61401770833334,33.21187101563177L245.61543559027777,32.59267942756088L245.61685347222223,32.57415879290019L245.61827135416667,33.692427093921935L245.6196892361111,36.58996761998952L245.622525,33.50725329926641L245.62394288194443,31.90703379774166L245.6253607638889,35.28139073319048L245.62677864583335,33.47234580355064L245.62819652777776,33.13916884576676L245.62961440972222,30.40293312564191L245.63103229166668,28.95528828447604L245.6324501736111,30.984070697958344L245.63386805555555,28.931868555138664L245.63528593750002,29.51077454217412L245.63670381944442,29.502106770759013L245.63812170138888,31.56358224427359L245.63953958333335,30.063001619291413L245.64095746527778,31.184073698847584L245.6423753472222,28.9563305829449L245.64379322916668,29.155360849766964L245.6452111111111,29.043472191678376L245.64662899305554,31.495571951370636L245.648046875,32.93062726173147L245.64946475694444,33.31898999340251L245.65230052083334,30.552058768768774L245.65371840277777,30.32197957944308L245.6551362847222,30.031068429484037L245.65797204861113,31.874925148599516L245.65938993055556,31.858898270977875L245.6608078125,31.16843555349581" style="fill: none;" fill="none"></path></g></g></g></g><g opacity="0.2"><g><g><g><path stroke="rgb(255, 112, 67)" stroke-width="2px" d="M29.357245659722224,155.7750852272727L30.787888541666664,155.7373721590909L31.518097743055556,155.9586221590909L31.640035590277776,155.49349431818183L31.699586631944445,154.9403693181818L31.830031770833333,154.19867897727272L31.93779079861111,154.81717329545455L31.954805381944443,154.66883522727272L31.988834548611113,154.28164772727274L32.039878298611114,153.8969744318182L32.156144618055556,155.02585227272726L32.17883072916666,155.6720028409091L32.23271024305555,154.65123579545454L32.27524670138889,155.2018465909091L32.30218645833333,153.6757244318182L32.32061892361111,154.95545454545456L32.445392534722224,154.83225852272727L32.46807864583334,154.79957386363637L32.554569444444446,154.17605113636364L32.57300190972222,153.5575568181818L32.79135572916667,154.12576704545455L32.8338921875,149.05461647727273L32.85090677083333,153.7913778409091L32.9359796875,154.08805397727272L33.06217118055555,152.92146306818182L33.49887881944444,153.28602272727272L33.51589340277778,155.1741903409091L33.63357760416667,152.92146306818182L35.6668203125,140.7325994318182L35.74196805555555,132.83045454545453L36.31053871527778,126.75110795454546L36.606876041666666,124.91573863636364L36.62956215277778,121.4436221590909L36.657919791666664,133.4791193181818L36.686277430555556,123.29910511363636L36.935824652777775,117.72259943181818L37.14425329861111,129.78323863636365L37.488798611111115,121.49390625000001L37.54693177083333,116.1235653409091L37.82767239583333,115.06005681818182L37.851776388888894,117.86088068181817L38.28423038194445,114.06443181818182L38.46997291666666,109.94365056818182L38.71952013888889,115.69112215909091L38.79892152777778,106.5545028409091L38.83011493055555,110.47666193181819L38.971903125,115.98025568181819L39.07257274305556,106.84866477272728L39.10376614583333,116.3775L39.24555434027778,108.56083806818182L39.334880902777776,112.57853693181818L39.421371701388885,104.3244034090909L39.50502673611111,114.84132102272727L39.83822899305556,101.34507102272727L40.056582812500004,94.90116477272728L40.64216805555555,96.72144886363637L40.64925746527778,94.82071022727273L41.110069097222215,94.01365056818182L41.413495833333336,91.65784090909091L41.470211111111105,94.46369318181819L41.65028211805556,91.08208806818182L41.74669809027778,89.45036931818181L42.15221232638889,95.94455965909091L42.34362638888889,98.45122159090909L43.066746180555555,92.69117897727273L43.12062569444444,93.4228125L43.29644305555555,96.78178977272728L43.31345763888889,85.93048295454545L44.107471527777776,89.70681818181818L44.25634913194445,88.96261363636364L44.422241319444446,91.96708806818182L44.432166493055554,89.59619318181818L44.44918107638889,92.97528409090908L44.498806944444446,85.13348011363637L44.60373020833333,88.57542613636363L44.6760421875,87.80607954545455L44.9823046875,85.90031250000001L45.05319878472223,84.39681818181818L45.22759826388889,95.78365056818181L45.271552604166665,85.93802556818181L45.38781892361111,83.37856534090909L45.47289184027778,94.22232954545454L45.505503125,92.66100852272727L46.312277951388886,88.04744318181818L46.702195486111115,85.86259943181818L46.73764253472222,88.04995738636363L46.873759201388886,87.76836647727272L47.07935208333333,81.76947443181817L47.40971857638888,82.88326704545455L47.74717447916667,89.67916193181819L47.84784409722222,92.90488636363636L48.03925815972222,82.56647727272727L48.914091319444445,91.51704545454545L49.067222569444446,100.21116477272727L49.191996180555556,91.80617897727272L49.48124409722222,90.94883522727272L49.62586805555556,92.72889204545454L49.68967274305555,98.43613636363636L49.82437152777778,89.69927556818182L49.86974375,96.09289772727273L49.888176215277774,94.33798295454545L49.89810138888889,85.10079545454546L49.93780208333333,93.17139204545454L49.96332395833333,92.25119318181818L49.97324913194445,86.87079545454546L50.191602951388894,94.91876420454545L50.42697135416667,87.80105113636364L50.554580729166666,92.0450284090909L50.86651475694445,88.31646306818183L50.89061875,91.61509943181818L51.157180555555556,90.83821022727273L51.28762569444444,92.24113636363636L51.961119618055555,96.35688920454545L52.3070828125,93.82759943181819L52.566555208333334,95.62274147727273L52.60767378472222,93.13116477272727L52.930950868055554,90.12417613636363L53.926303993055555,99.0646875L54.71322847222222,95.68559659090909L54.90747829861111,95.44171875L54.971282986111106,96.40214488636363L55.08045989583333,92.73894886363637L55.12016059027778,91.06448863636363L55.39239392361111,94.9212784090909L55.39664756944445,93.02053977272728L55.4973171875,94.84585227272727L55.525674826388894,97.59387784090909L55.68589548611111,98.51407670454546L55.8801453125,90.08897727272728L55.977979166666664,97.78244318181818L56.23036215277778,89.12100852272727L56.2374515625,88.22092329545454L56.35655364583333,87.65522727272727L56.48558090277778,90.26748579545455L56.68266649305556,89.12603693181818L56.76065,95.9068465909091L56.91661701388889,96.45997159090909L56.96340711805556,90.49879261363637L57.03713697916667,86.84816761363638L57.22713315972222,94.74025568181818L57.411457812500004,97.5209659090909L57.6156328125,91.33099431818182L58.497555381944444,80.4897443181818L58.65494027777778,83.28051136363635L59.9891671875,87.02164772727274L60.18908854166667,92.08776988636363L60.47124704861111,88.54525568181818L60.550648437499994,92.55038352272727L60.625796180555554,84.5778409090909L60.65982534722222,84.36916193181818L60.67258628472222,88.39691761363636L60.96608784722222,87.33340909090909L61.00862430555556,91.79109375L61.20854565972222,94.48883522727273L61.25108211805556,87.42140625L61.44107829861111,86.9839346590909L61.737415625000004,86.13664772727273L61.75159444444444,84.67840909090908L61.79129513888889,88.82936079545453L62.016738368055556,86.59171875000001L62.32016510416667,87.77590909090908L62.43643142361111,87.37866477272728L62.60090572916666,85.56843749999999L62.60374149305556,83.62495738636363L62.74269392361111,85.67906249999999L63.74655434027778,84.28870738636364L63.983340625,82.28740056818181L65.12615347222223,88.06252840909092L65.5274140625,87.3384375L65.54017499999999,84.61555397727273L66.09598472222221,83.39365056818183L66.13143177083333,83.44142045454545L66.15837152777779,97.78998579545454L66.34836770833334,85.82488636363637L66.36254652777778,93.15379261363637L66.61776527777778,87.71305397727274L66.637615625,91.24048295454546L66.71843489583334,89.75207386363637L66.74112100694444,88.73884943181818L66.86305885416667,91.0770596590909L67.06723385416666,90.74769886363636L67.11685972222222,87.94687499999999L67.45431562499999,88.2234375L67.57199982638889,93.63149147727273L67.70528072916666,86.97639204545453L67.72938472222222,93.4177840909091L67.73222048611112,81.45519886363637L67.84423315972222,86.50875L67.93355972222223,94.60700284090909L68.0313935763889,85.24913352272728L68.42981840277777,85.29690340909092L68.48086215277779,88.74136363636363L68.78712465277778,88.20080965909091L68.89063003472222,81.22892045454545L70.43328559027778,79.35835227272727L70.53679097222222,81.4979403409091L70.97208072916668,90.34542613636364L71.2599107638889,81.71416193181818L71.282596875,84.35407670454545L71.28685052083333,83.21765625L71.41587777777778,87.46666193181818L71.58176996527779,80.28357954545456L71.60445607638889,78.92590909090909L71.7675125,82.66955965909091L71.77601979166667,82.5036221590909L71.97310538194445,82.67961647727273L71.98161267361111,90.63204545454545L72.07802864583333,87.08450284090908L72.46652829861111,79.43629261363637L72.47928923611111,84.75383522727273L72.65085295138888,86.04865056818183L72.68488211805555,80.87441761363637L72.86637100694445,85.17873579545454L73.19815538194445,80.91967329545454L73.46329930555557,87.15741477272728L73.47747812499999,88.19578125L73.58381927083333,87.5219744318182L73.69866770833333,81.00515625L74.41469809027778,86.3101278409091L74.70819965277778,91.80115056818182L74.73513940972222,87.71305397727274L74.77058645833333,83.90654829545454L74.93789652777778,81.95552556818181L75.83258003472221,87.27306818181818L76.71450260416667,84.56275568181819L76.84778350694445,83.95683238636364L76.95979618055556,77.71657670454546L77.12143472222222,78.1515340909091L77.26889444444444,89.25174715909091L77.2802375,83.01651988636364L77.49150190972222,79.75811079545454L77.69000538194445,80.38414772727272L77.98492482638889,75.36076704545455L78.10260902777777,84.67589488636364L78.42163246527778,81.39988636363636L78.47125833333334,77.21876420454545L78.49536232638889,86.67217329545454L78.57901736111111,85.42261363636365L78.64565781249999,79.31561079545455L78.7449095486111,87.1121590909091L79.10079791666666,85.20639204545455L79.3092265625,77.20367897727273L79.53892343749999,78.76751420454546L79.68212951388888,81.14846590909092L80.10182256944445,87.19261363636363L80.240775,83.34839488636365L80.51726197916666,85.76957386363637L81.13120486111112,80.31375L81.43888524305557,79.18738636363636L82.05708177083334,87.86893465909091L82.07126059027777,81.94044034090908L82.4640138888889,85.57849431818182L82.66677100694444,85.7117471590909L82.7036359375,80.38414772727272L83.20840190972223,80.63808238636364L83.25235624999999,80.84173295454546L83.26937083333333,87.0945596590909L83.28780329861111,87.0392471590909L83.30481788194444,80.22323863636363L83.38563715277779,78.09370738636363L83.50332135416666,78.433125L83.54018628472222,80.21318181818181L83.55436510416668,86.05116477272728L83.63943802083332,88.53519886363637L83.7599579861111,82.7424715909091L83.77271892361112,77.37715909090909L83.8521203125,82.18431818181818L84.27748489583333,81.64879261363636L84.43628767361112,77.90011363636363L84.66598454861112,82.33768465909091L85.54223559027777,81.51553977272728L86.25968385416667,97.5762784090909L86.43124756944444,82.0058096590909L86.76019618055555,97.44553977272727L86.80698628472221,91.61007102272727L86.81974722222223,72.39400568181819L86.91758107638888,94.48632102272727L87.04235468750001,91.99725852272728L87.3642138888889,81.17863636363636L88.1171092013889,75.83595170454545L88.28725503472222,79.8159375L88.33546302083334,85.07062499999999L88.34822395833334,84.93988636363636L88.3921782986111,82.90338068181818L88.60344270833333,78.35267045454545L88.68709774305556,85.09828125000001L88.97492777777778,79.41617897727274L89.07134375,75.01632102272727L89.25566840277777,77.61349431818182L89.27410086805556,84.40184659090909L89.2783545138889,80.81407670454544L89.36626319444444,75.51916193181818L89.42014270833333,79.64999999999999L89.45558975694445,70.70194602272727L89.54208055555556,81.66890625L89.55058784722222,78.03588068181818L89.69237604166666,93.05071022727273L89.91923715277777,82.3552840909091L89.98871336805556,86.97890625000001L90.06386111111111,81.90021306818183L90.42258524305556,79.9089630681818L90.65795364583333,80.06735795454546L90.69056493055557,79.79079545454546L91.37965555555556,78.48340909090908L91.70576840277778,83.89900568181818L91.82061684027778,77.5707528409091L91.93546527777778,84.68595170454545L92.62313802083334,73.9754403409091L92.75500104166666,77.9403409090909L93.30372135416667,73.52036931818182L93.42707708333333,86.49869318181817L93.58162621527778,72.85410511363636L94.05094513888889,76.00188920454546L94.06228819444445,77.50538352272727L94.3416109375,80.52997159090908L94.64929131944444,90.16188920454546L94.72585694444444,86.94119318181818L94.83361597222222,78.75494318181818L94.99525451388888,88.61816761363636L95.25614479166666,80.14278409090909L95.36957534722222,93.19150568181819L95.37524687499999,76.76369318181818L95.43338003472223,77.38218749999999L95.49434895833333,90.7728409090909L95.66307690972222,66.80744318181819L96.16784288194445,84.71109375L96.4088828125,78.82282670454545L96.7562638888889,73.45751420454546L96.77895,72.42417613636364L96.96327465277777,67.76786931818181L97.59848576388889,68.18271306818183L98.10466961805555,74.57884943181818L98.6647329861111,70.17899147727273L98.72711979166667,78.57643465909092L99.22479635416666,58.17617897727274L99.28860104166667,69.37696022727273L100.40447413194444,64.91173295454544L100.45126423611111,64.67539772727272L100.63417100694446,65.01732954545454L100.89931493055556,65.92495738636363L101.04535677083332,63.171903409090916L101.04677465277778,67.54913352272726L101.20132378472222,59.478536931818184L101.38990208333333,59.684701704545446L101.45087100694444,63.78285511363636L101.51751145833333,60.899062500000014L101.66497118055555,64.86396306818182L102.30868958333333,63.08893465909091L102.3398829861111,64.33598011363637L102.3810015625,62.32964488636364L102.87867812500001,56.77576704545456L103.15374722222222,63.44343749999999L103.67269201388889,65.79673295454545L103.68970659722223,62.05056818181818L104.25685937499999,60.36102272727274L104.358946875,58.902784090909094L104.4993171875,60.19005681818183L106.21353645833334,56.8939346590909L106.31278819444445,56.72296874999999L106.43472604166666,57.62053977272727L106.83598663194445,60.94934659090909L107.01463975694445,55.12393465909091L107.04583315972222,61.41447443181818L107.1535921875,64.9972159090909L107.22873993055555,63.111562500000005L107.29679826388889,62.44529829545455L107.33366319444445,59.719900568181814L107.65126875,60.22525568181817L107.6668654513889,58.26166193181817L107.81716093749999,52.99691761363637L107.86111527777778,57.49231534090909L108.10357309027778,59.2623153409091L108.65087552083334,53.44947443181819L108.68065104166666,55.13399147727273L108.82385711805556,51.02075284090908L108.90751215277778,55.287357954545456L109.0677328125,53.07737215909091L109.14004479166665,56.61485795454544L109.17407395833334,55.77008522727273L109.40802447916667,59.96377840909091L109.63772135416666,56.35338068181818L109.86600034722223,52.69772727272728L110.17935225694444,59.57407670454545L110.35375173611111,55.89579545454545L110.41897430555555,58.156065340909095L111.15485503472223,61.110255681818174L111.75745486111111,57.04227272727273L112.49475347222221,59.33019886363637L112.52169322916667,55.14404829545454L112.58549791666667,52.672585227272734L113.57659739583333,55.677059659090915L113.91121753472223,53.542500000000004L113.9778579861111,54.978110795454555L113.9835295138889,54.67892045454546L114.13949652777778,48.61214488636364L114.1976296875,54.35961647727272L114.3535967013889,54.025227272727264L114.4783703125,55.787684659090914L114.97888263888888,56.52937499999999L115.26104114583333,58.746903409090905L115.30924913194445,53.54501420454545L115.84237274305555,52.33819602272726L115.93595295138888,46.336789772727286L116.15147100694445,46.21107954545454L116.88876961805555,50.915156249999995L116.89018750000001,53.726036931818186L117.07025850694444,54.48281250000001L117.19077847222222,42.05509943181818L117.64875434027778,51.43811079545455L118.55336302083334,55.28484375000001L118.58030277777777,58.927926136363624L118.60440677083334,55.16164772727272L118.8681328125,56.018991477272735L119.17155954861111,51.61913352272727L119.42252465277778,51.078579545454545L119.80109913194445,56.52183238636364L120.43914600694445,49.557485795454554L120.70287204861111,50.29414772727273L120.83757083333333,54.00259943181817L120.89570399305555,58.56336647727272L120.90279340277777,50.64865056818182L120.98219479166666,55.71477272727273L121.41464878472223,50.15083806818181L121.54934756944444,44.99169034090909L121.74359739583333,48.32301136363637L121.8286703125,54.357102272727275L122.51634305555555,49.622855113636376L122.9870798611111,52.58961647727273L123.64497708333333,48.54928977272726L123.67758836805555,45.98982954545457L123.6917671875,46.439872159090896L123.8321375,53.633011363636356L124.01646215277778,50.25392045454545L124.52973541666667,51.257088068181815L124.95226423611112,42.97026988636364L124.96644305555556,51.78255681818183L125.1465140625,53.19553977272727L125.21882604166666,52.55441761363636L125.79306822916666,48.05901988636364L125.8129185763889,50.41482954545454L126.36447465277779,46.44490056818182L126.49633767361111,48.92139204545455L126.56156024305557,46.98294034090907L127.13863819444445,44.99420454545455L127.57534583333334,54.817201704545454L127.61079288194445,45.86914772727272L128.07018663194444,41.227926136363635L128.39204583333333,48.57191761363637L128.47286510416666,43.51333806818181L128.5253267361111,42.8722159090909L128.5437592013889,45.547329545454545L128.8797972222222,46.28650568181817L128.88830451388887,43.35242897727272L129.05277881944443,41.90173295454545L129.43135329861113,42.892329545454544L129.60858854166668,45.20036931818183L129.89216493055554,46.35941761363637L130.88042864583335,54.993196022727275L130.92296510416668,53.625468749999996L131.2022878472222,61.271164772727275L131.207959375,55.978764204545456L131.31713628472224,61.389332386363634L131.51847552083333,54.9303409090909L131.78645520833334,60.96443181818182L131.81339496527778,58.59102272727273L132.00197326388889,53.65563920454545L132.45427760416666,51.29480113636363L132.67688506944444,54.045340909090896L133.25821666666667,51.82278409090908L133.6169407986111,37.05183238636363L134.4591626736111,46.50775568181817L134.63214427083332,46.82203125000001L134.7002026041667,42.5353125L134.7838576388889,48.069076704545466L134.86467690972225,43.875383522727276L134.92139218749998,46.45747159090908L134.98945052083334,47.138821022727285L135.10288107638888,47.87799715909091L135.21772951388888,50.035184659090916L135.27019114583334,37.93683238636365L135.40347204861112,49.37394886363636L135.48145555555556,56.66514204545456L135.64309409722225,51.13137784090908L135.77212135416667,37.7004971590909L136.1180845486111,51.30737215909092L136.30808072916668,50.13575284090908L136.53068819444442,48.51660511363636L137.89894427083334,43.71447443181819L138.40087447916667,47.35504261363636L138.52848385416667,43.88041193181817L138.77377743055555,36.440880681818186L138.85317881944442,38.36424715909092L139.03608559027776,48.380838068181816L139.13391944444444,40.82062500000001L140.00733472222223,36.01346590909091L140.17322690972222,52.398536931818185L140.37598402777778,48.42106534090908L140.5546371527778,58.382343750000004L141.2706675347222,50.82213068181818L142.05333836805553,47.11367897727274L142.05475625,54.294247159090915L142.08594965277777,51.43308238636362L142.1213967013889,54.286704545454555L142.24758819444446,54.985653409090915L142.33833263888891,51.65433238636365L142.49429965277778,48.85853693181818L142.64317725694445,52.529275568181816L143.38189375,47.05082386363637L143.407415625,43.96840909090909L143.85263055555555,49.60776988636364L144.46657343750002,54.14088068181819L144.87775920138887,46.97036931818181L145.4902842013889,46.7616903409091L145.5101345486111,45.733380681818176L146.0900482638889,48.8736221590909L146.37362465277778,53.16285511363637L146.4374293402778,48.68002840909091L146.5565314236111,41.43911931818181L146.56787447916668,48.202329545454546L146.84152569444444,42.44480113636362L147.20024982638887,48.01124999999999L147.61994288194444,52.24014204545455L147.6823296875,45.69063920454545L147.97157760416667,45.06711647727272L147.99993524305557,47.63160511363637L148.44656805555556,39.80488636363637L148.511790625,45.35624999999999L148.61246024305555,37.3359375L148.76133784722222,41.346093749999994L148.99245260416666,47.9232528409091L149.6503498263889,41.96961647727272L149.68154322916666,44.886093749999986L149.82474930555557,64.47928977272727L149.94243350694444,43.67676136363636L150.11541510416666,41.17261363636365L150.47130347222222,48.788139204545445L150.5124220486111,42.261264204545455L150.80592361111113,45.756008522727285L151.01718802083334,46.686264204545466L151.10935034722223,43.97343749999999L151.58859444444445,45.11488636363637L151.59001232638892,42.268806818181815L152.2961175347222,54.09059659090909L152.3471612847222,42.231093750000014L152.58111180555554,48.63477272727272L152.5825296875,43.38762784090909L152.86185243055553,46.98796874999999L153.42616944444444,54.125795454545454L153.81892274305554,47.174019886363624L153.94653211805556,45.338650568181805L154.075559375,46.113025568181826L154.09682760416666,46.905L154.42152256944445,46.93517045454544L154.66114461805554,49.632911931818185L154.68524861111112,42.5026278409091L154.93621371527777,44.12177556818182L155.62246857638888,41.34860795454546L155.79828593750003,44.187144886363626L155.86634427083334,47.61903409090908L156.07902656250002,46.030056818181805L156.19812864583332,40.46109375L156.23073993055556,38.95759943181818L156.25342604166667,44.53159090909091L156.4164824652778,45.904346590909086L156.50722690972222,44.476278409090895L157.13251284722222,49.9798721590909L157.3579560763889,44.13686079545454L158.14771631944444,42.07772727272726L158.16047725694443,42.88730113636365L158.5447232638889,40.37812500000001L158.62554253472223,45.05454545454546L159.17851649305555,43.64910511363635L159.42664583333334,42.98535511363636L159.53865850694444,40.76279829545456L159.64641753472222,44.730213068181826L160.01223107638887,44.80815340909092L160.16819809027777,44.75284090909091L160.30856840277778,46.15073863636363L160.3227472222222,39.95322443181817L160.39080555555557,45.642869318181795L161.07989618055555,47.06088068181819L161.96323663194443,46.70889204545455L162.08659236111112,40.536519886363635L162.3318859375,50.48271306818181L162.68210277777777,44.18965909090909L162.83948767361113,48.04644886363636L162.92314270833333,49.98992897727274L163.28328472222222,37.23285511363636L163.43358020833332,40.70497159090908L163.43783385416666,48.240042613636376L163.44775902777778,45.73086647727274L163.8433480902778,48.297869318181824L163.88588454861113,45.27830965909092L164.14819270833334,40.745198863636375L164.38781475694446,48.84345170454546L164.5749751736111,48.91887784090909L164.63310833333333,38.27373579545454L165.42995798611113,44.677414772727275L165.45122621527779,47.694460227272714L165.63838663194443,48.58448863636363L166.24098645833334,44.3933096590909L166.3288951388889,43.644076704545455L166.4664296875,48.252613636363634L166.66918680555554,43.20660511363636L167.03641822916666,43.644076704545455L167.03925399305558,37.96951704545455L167.67446510416667,41.988473011363624L167.84602881944446,47.40029829545455L167.93960902777778,45.81634943181817L168.1409482638889,43.98098011363638L168.15512708333335,40.89605113636364L168.60459565972224,42.16823863636364L169.1235404513889,40.46109375L169.79987013888888,41.40894886363637L169.89061458333333,41.1198153409091L169.95867291666667,47.82519886363636L170.12172934027777,47.21676136363635L170.1444154513889,39.78225852272726L170.1699373263889,53.771292613636376L170.43366336805556,41.07707386363637L170.50597534722223,46.007428977272724L171.08447118055554,38.318991477272704L171.11991822916667,45.5272159090909L171.1922302083333,34.77899147727274L171.6275199652778,41.7005965909091L171.67431006944446,45.55235795454544L171.940871875,44.44862215909092L172.44705572916666,49.48960227272728L172.7249605902778,48.104275568181805L173.21271197916667,43.78235795454546L173.70613489583332,47.108650568181815L173.9443390625,51.42553977272728L174.16694652777778,40.88096590909092L174.1924684027778,33.27549715909092L174.55402829861112,41.25306818181818L174.95387100694444,38.74640625000001L175.06304791666665,33.42383522727272L175.08006250000003,48.92139204545455L175.1977467013889,46.92511363636365L175.54512777777776,43.64156249999999L175.73370607638887,42.819417613636375L176.06123680555555,41.98218750000001L176.1463097222222,47.636633522727266L176.44973645833335,39.93311079545455L176.91338385416668,35.912897727272735L176.9743527777778,41.718196022727284L176.97718854166666,45.02186079545456L177.02965017361112,40.73262784090909L177.25367552083333,41.9595596590909L177.4493432291667,46.253821022727266L177.67478645833336,43.77230113636364L177.71023350694443,42.77667613636365L177.76836666666668,40.99159090909092L178.12425503472224,38.30390625000001L178.13418020833333,42.38948863636364L178.3270121527778,44.72769886363636L178.36387708333334,39.146164772727275L178.57372361111112,40.19207386363635L179.46273559027776,43.25186079545455L179.4925111111111,43.986008522727275L180.23689913194443,45.68309659090909L180.37159791666667,42.29646306818182L180.45099930555557,38.22596590909092L180.4907,41.858991477272724L180.74166510416669,42.82444602272727L180.80546979166667,32.47598011363635L181.2535204861111,42.485028409090916L181.27053506944443,37.98460227272727L182.08439930555556,40.938792613636366L182.0957423611111,45.90937500000001L182.2545451388889,40.053792613636375L182.27155972222224,40.13424715909093L182.91669600694445,39.74957386363636L182.99609739583332,40.52394886363638L183.45974479166665,41.733281250000005L183.7447390625,35.415085227272726L184.23390833333332,46.77174715909092L184.30196666666666,35.98329545454544L184.44800850694446,45.7434375L184.60113975694443,40.55411931818182L184.79538958333333,36.78029829545454L184.88188038194443,43.294602272727275L184.97829635416667,39.027997159090916L185.35403506944445,35.06309659090908L185.52276302083334,38.85451704545454L185.53977760416666,49.2884659090909L185.58798559027778,39.68671875000001L186.3635670138889,42.81690340909091L186.4146107638889,40.885994318181815L186.6131142361111,41.155014204545466L186.62445729166666,43.867840909090916L187.2922796875,48.26518465909092L188.24935000000002,39.86271306818182L188.41382430555558,46.51278409090909L188.62508871527777,36.543963068181824L188.64210329861112,46.84717329545455L188.7314298611111,36.44590909090908L188.98806649305556,40.984048295454556L189.60342725694446,30.64563920454546L189.63036701388887,36.342826704545445L189.83028836805556,41.72322443181818L190.11386475694445,43.60384943181819L190.7689262152778,40.023622159090905L190.9390720486111,43.116093750000005L191.01847343749998,44.5039346590909L191.5260751736111,42.314062500000006L191.6054765625,39.71437499999999L191.76427934027777,40.088991477272714L191.77278663194446,41.68551136363635L192.3172532986111,39.66911931818183L192.5341892361111,38.05751420454544L192.56821840277777,35.905355113636375L192.9382855902778,39.13610795454545L193.00492604166666,34.73373579545455L194.39870399305556,39.96076704545453L194.40862916666669,33.96187499999999L194.65959427083334,38.701150568181816L194.72623472222222,38.74892045454544L194.96443888888888,39.420213068181795L195.17712118055556,35.97575284090908L195.55144201388887,32.67963068181817L195.76696006944445,43.53848011363635L195.9342701388889,34.595454545454544L195.9768065972222,28.015781250000003L196.7226125,36.04363636363635L196.99626371527776,42.23360795454545L197.0161140625,40.42338068181817L197.07708298611112,43.183977272727276L197.14514131944443,39.24673295454545L197.14797708333333,35.9480965909091L197.6385642361111,43.89801136363636L197.8101279513889,35.23406249999999L198.26243229166667,37.28313920454545L198.27802899305556,43.354943181818186L198.47936822916665,37.079488636363635L198.56585902777778,42.08526988636365L198.62257430555556,33.91159090909093L198.78421284722222,37.68289772727272L198.86077847222222,38.067571022727265L198.94017986111112,38.318991477272704L199.0167454861111,35.60616477272728L199.43643854166666,30.472159090909088L199.57680885416667,36.171860795454535L199.94262239583333,42.35680397727273L200.02344166666666,53.874374999999986L200.06597812500002,44.08154829545455L200.92379670138888,39.61883522727274L201.11521076388888,29.921548295454556L201.20595520833334,39.005369318181806L201.96168628472222,42.24366477272727L202.46787013888888,39.72946022727274L202.7046564236111,34.693508522727285L202.77271475694445,33.413778409090895L203.01233680555555,37.652727272727276L203.08323090277779,36.64201704545454L203.179646875,42.907414772727265L203.28031649305555,46.33930397727272L203.7510532986111,27.437514204545465L203.91836336805557,48.86607954545454L203.96515347222223,47.18407670454545L204.08425555555556,31.15853693181819L204.5649175347222,43.72955965909091L204.72655607638887,41.7383096590909L204.7676746527778,33.14224431818181L205.12639878472223,39.910482954545444L205.37169236111112,33.32829545454547L205.47519774305556,39.44786931818183L205.63825416666666,33.55960227272726L205.78996753472222,44.44862215909092L205.9275020833333,40.91113636363636L206.06220086805556,37.10714488636364L206.45353628472222,41.06701704545455L207.4644861111111,37.27559659090909L208.641328125,43.533451704545456L209.14184045138887,39.92556818181819L209.1957199652778,35.271775568181795L209.27086770833333,34.22838068181818L209.8380204861111,39.23416193181819L209.9330185763889,33.288068181818176L209.94294375,34.22586647727272L210.51860381944445,40.224758522727285L210.54412569444443,35.87267045454544L210.68733177083334,38.66092329545455L210.72277881944444,38.090198863636374L210.73553975694446,33.38863636363635L211.2006050347222,39.09588068181819L211.2261269097222,27.000042613636367L211.30978194444444,35.905355113636375L211.88118836805555,35.04046875L211.90812812500002,44.04886363636365L212.3575967013889,37.4465625L212.4256550347222,39.14365056818181L212.44550538194443,36.34785511363637L212.87937725694445,39.14113636363638L213.1246708333333,31.980681818181807L213.19840069444444,29.10694602272727L213.69891302083334,34.06495738636363L213.96831059027778,34.25603693181819L214.0590550347222,34.5703125L215.2358970486111,39.955738636363634L215.32238784722222,39.59872159090909L215.54357743055556,27.859900568181814L215.77611006944443,41.55225852272727L216.1575203125,33.926676136363625L216.22132499999998,39.8476278409091L216.5275875,37.81363636363636L216.63392864583332,26.658110795454547L216.6835545138889,27.96801136363635L216.89481892361113,33.919133522727265L216.93735538194446,30.985056818181818L217.28190069444443,27.766875L217.89726145833333,28.312457386363633L217.9440515625,36.60681818181817L217.99225954861112,26.798906249999987L217.9979310763889,34.77144886363635L218.23329947916665,27.11318181818183L218.2659107638889,35.87769886363637L218.58068055555555,33.687826704545444L219.73341857638889,33.53446022727272L219.76035833333333,31.60355113636365L220.01557708333334,40.053792613636375L220.0538598958333,36.631960227272714L220.56713315972223,37.40884943181817L220.85212743055556,30.648153409090895L221.11443559027776,38.69612215909092L221.2236125,34.834303977272725L222.29694913194444,36.38305397727274L222.31679947916666,39.67163352272726L222.5053777777778,31.942968750000006L222.65425538194444,40.320298295454535L222.77052170138887,33.868849431818205L223.2497657986111,40.692400568181824L223.32633142361112,39.621349431818174L223.57587864583334,33.00144886363637L223.9771392361111,22.210482954545455L223.99131805555555,33.84873579545456L224.7045126736111,35.525710227272725L224.79809288194443,33.43389204545454L224.8406293402778,31.347102272727284L224.84771875,28.62421875000001L224.86898697916666,30.83169034090909L225.20644288194444,33.934218750000014L225.22912899305555,32.096335227272704L226.04582899305555,29.45390624999999L226.1691847222222,32.649460227272726L226.7973064236111,31.073053977272735L226.8327534722222,35.38240056818182L227.11349409722223,27.822187500000013L227.3715486111111,29.609786931818178L227.9741484375,26.336292613636374L228.29317187499998,31.123338068181795L228.40093090277776,34.142897727272725L228.4661534722222,31.062997159090912L228.49876475694444,28.126406250000002L228.54413697916667,30.18553977272728L228.93263663194443,34.17809659090909L229.03472413194444,33.84622159090907L229.36083697916666,41.83887784090908L229.4544171875,31.97565340909091L230.32641458333333,30.580269886363624L230.44551666666666,27.324375000000003L231.02543038194446,30.59284090909091L231.1998298611111,36.10146306818183L231.28064913194444,32.50363636363636L231.37281145833333,26.34886363636363L231.9456357638889,29.0390625L232.16115381944445,29.15723011363636L232.3057777777778,31.53063920454545L232.41353680555557,33.0819034090909L232.42204409722223,32.938593749999995L233.24583350694445,34.454659090909104L233.2784447916667,33.056761363636355L233.9235810763889,33.614914772727275L233.96753541666666,32.46089488636363L234.13484548611112,36.67973011363637L234.4723013888889,33.25538352272727L234.8976659722222,30.424389204545463L235.14012378472222,31.44767045454543L235.3471345486111,36.797897727272726L235.36414913194443,32.403068181818185L235.4449684027778,31.274190340909087L235.45914722222224,24.382755681818168L235.49175850694445,34.40186079545455L235.62645729166667,28.915866477272715L235.9369734375,40.02865056818183L236.37793472222222,35.05303977272726L236.7083012152778,36.202031250000005L237.1676949652778,41.079588068181806L237.29388645833333,38.02482954545454L237.51082239583332,35.93049715909092L237.61716354166668,46.65609375L238.1091685763889,29.66509943181819L238.16163020833335,34.86950284090909L238.5047576388889,26.03458806818182L238.66639618055555,31.862514204545448L238.98116597222221,35.890269886363626L239.44906701388888,31.66389204545453L239.522796875,29.556988636363627L239.56249756944445,29.639957386363648L239.58518368055556,28.946036931818185L240.16509739583333,37.466676136363645L240.37069027777778,41.087130681818195L240.722325,58.39994318181819L240.92791788194444,50.99561079545454L241.12500347222223,34.53762784090907L241.22709097222221,38.758977272727265L241.46104149305555,63.58926136363637L241.60708333333332,54.40235795454545L241.77297552083334,50.95035511363636L241.77439340277778,42.70124999999999L241.80984045138888,56.129616477272734L243.25608003472223,35.46034090909092L243.30428802083335,31.324474431818174L243.94942430555557,26.019502840909098L244.71224479166665,30.640610795454535L244.73634878472222,33.41126420454546L244.82709322916668,36.662130681818184L245.5105123263889,35.19634943181819L245.5303626736111,29.4036221590909L245.53178055555557,31.392357954545446L245.53319843749998,37.102116477272716L245.53461631944444,42.82947443181817L245.5360342013889,33.479147727272704L245.53745208333333,29.0390625L245.53886996527777,32.84556818181818L245.54028784722223,27.70150568181819L245.54170572916667,32.38546875L245.5431236111111,33.19001420454546L245.54454149305556,32.62431818181818L245.545959375,26.984957386363646L245.5487951388889,35.005269886363635L245.55021302083333,31.062997159090912L245.5516309027778,30.130227272727296L245.55446666666666,35.96821022727272L245.55588454861112,30.215710227272723L245.55730243055555,34.14038352272726L245.5587203125,36.244772727272704L245.56013819444445,33.21515625000001L245.56155607638888,29.61230113636364L245.56297395833332,30.66072443181818L245.56439184027778,25.51666193181819L245.56580972222224,28.438167613636352L245.56722760416665,29.637443181818185L245.5686454861111,32.73242897727272L245.57148125,31.935426136363645L245.57289913194444,38.082656250000014L245.5743170138889,33.83365056818181L245.57573489583334,33.345894886363624L245.57715277777777,34.81670454545454L245.57857065972223,36.24225852272727L245.5799885416667,29.48407670454546L245.5814064236111,29.101917613636374L245.58282430555556,29.710355113636354L245.58424218750002,33.84873579545456L245.58566006944443,36.39311079545453L245.5870779513889,34.416946022727274L245.58849583333335,34.811676136363644L245.58991371527776,32.566491477272734L245.59274947916668,30.959914772727274L245.5941673611111,34.819218750000005L245.59558524305555,27.163465909090917L245.59700312500001,35.82490056818182L245.59842100694445,30.321306818181824L245.59983888888888,31.130880681818184L245.60125677083334,32.91093749999999L245.6069282986111,37.823693181818186L245.60834618055554,34.60802556818183L245.6097640625,33.95936079545456L245.61118194444444,27.560710227272722L245.61401770833334,35.64890625000001L245.61543559027777,31.66389204545453L245.61685347222223,32.54637784090909L245.61827135416667,35.369829545454536L245.6196892361111,40.9362784090909L245.622525,28.88318181818181L245.62394288194443,29.50670454545454L245.6253607638889,40.342926136363644L245.62677864583335,30.758778409090922L245.62819652777776,32.6394034090909L245.62961440972222,26.298579545454544L245.63103229166668,26.783821022727267L245.6324501736111,34.02724431818183L245.63386805555555,25.853565340909086L245.63528593750002,30.379133522727273L245.63670381944442,29.489105113636356L245.63812170138888,34.655795454545455L245.63953958333335,27.81213068181819L245.64095746527778,32.86568181818183L245.6423753472222,25.614715909090933L245.64379322916668,29.45390624999999L245.6452111111111,28.87563920454545L245.64662899305554,35.17372159090908L245.648046875,35.08321022727273L245.64946475694444,33.90153409090908L245.65230052083334,26.401661931818182L245.65371840277777,29.97686079545454L245.6551362847222,29.594701704545457L245.65797204861113,34.640710227272734L245.65938993055556,31.83485795454544L245.6608078125,30.13274147727273" style="fill: none;" fill="none"></path></g></g></g></g></g></g><g transform="translate(74, 177)" clip-path="url(#clip_1)"><clipPath id="clip_1"><rect width="255" height="23"></rect></clipPath><g><g><line x1="0" y1="0" x2="0" y2="5" style="visibility: inherit;" fill="rgb(0, 0, 0)" stroke="rgb(204, 204, 204)" stroke-width="1px"></line><line x1="28.357638888888886" y1="0" x2="28.357638888888886" y2="5" style="visibility: inherit;" fill="rgb(0, 0, 0)" stroke="rgb(204, 204, 204)" stroke-width="1px"></line><line x1="56.71527777777777" y1="0" x2="56.71527777777777" y2="5" style="visibility: inherit;" fill="rgb(0, 0, 0)" stroke="rgb(204, 204, 204)" stroke-width="1px"></line><line x1="85.07291666666666" y1="0" x2="85.07291666666666" y2="5" style="visibility: inherit;" fill="rgb(0, 0, 0)" stroke="rgb(204, 204, 204)" stroke-width="1px"></line><line x1="113.43055555555554" y1="0" x2="113.43055555555554" y2="5" style="visibility: inherit;" fill="rgb(0, 0, 0)" stroke="rgb(204, 204, 204)" stroke-width="1px"></line><line x1="141.78819444444446" y1="0" x2="141.78819444444446" y2="5" style="visibility: inherit;" fill="rgb(0, 0, 0)" stroke="rgb(204, 204, 204)" stroke-width="1px"></line><line x1="170.14583333333331" y1="0" x2="170.14583333333331" y2="5" style="visibility: inherit;" fill="rgb(0, 0, 0)" stroke="rgb(204, 204, 204)" stroke-width="1px"></line><line x1="198.50347222222223" y1="0" x2="198.50347222222223" y2="5" style="visibility: inherit;" fill="rgb(0, 0, 0)" stroke="rgb(204, 204, 204)" stroke-width="1px"></line><line x1="226.8611111111111" y1="0" x2="226.8611111111111" y2="5" style="visibility: inherit;" fill="rgb(0, 0, 0)" stroke="rgb(204, 204, 204)" stroke-width="1px"></line><line x1="255.21875" y1="0" x2="255.21875" y2="5" style="visibility: inherit;" fill="rgb(0, 0, 0)" stroke="rgb(204, 204, 204)" stroke-width="1px"></line></g><g transform="translate(0, 8)"><text x="0" y="0" dx="0em" dy="0.95em" style="text-anchor: middle; visibility: hidden; font-family: &quot;Helvetica Neue&quot;, sans-serif; font-size: 12px; font-weight: 200;" fill="rgb(50, 49, 63)" stroke="none" stroke-width="1px">-20k</text><text x="28.357638888888886" y="0" dx="0em" dy="0.95em" style="text-anchor: middle; visibility: inherit; font-family: &quot;Helvetica Neue&quot;, sans-serif; font-size: 12px; font-weight: 200;" fill="rgb(50, 49, 63)" stroke="none" stroke-width="1px">0</text><text x="56.71527777777777" y="0" dx="0em" dy="0.95em" style="text-anchor: middle; visibility: hidden; font-family: &quot;Helvetica Neue&quot;, sans-serif; font-size: 12px; font-weight: 200;" fill="rgb(50, 49, 63)" stroke="none" stroke-width="1px">20k</text><text x="85.07291666666666" y="0" dx="0em" dy="0.95em" style="text-anchor: middle; visibility: inherit; font-family: &quot;Helvetica Neue&quot;, sans-serif; font-size: 12px; font-weight: 200;" fill="rgb(50, 49, 63)" stroke="none" stroke-width="1px">40k</text><text x="113.43055555555554" y="0" dx="0em" dy="0.95em" style="text-anchor: middle; visibility: hidden; font-family: &quot;Helvetica Neue&quot;, sans-serif; font-size: 12px; font-weight: 200;" fill="rgb(50, 49, 63)" stroke="none" stroke-width="1px">60k</text><text x="141.78819444444446" y="0" dx="0em" dy="0.95em" style="text-anchor: middle; visibility: inherit; font-family: &quot;Helvetica Neue&quot;, sans-serif; font-size: 12px; font-weight: 200;" fill="rgb(50, 49, 63)" stroke="none" stroke-width="1px">80k</text><text x="170.14583333333331" y="0" dx="0em" dy="0.95em" style="text-anchor: middle; visibility: hidden; font-family: &quot;Helvetica Neue&quot;, sans-serif; font-size: 12px; font-weight: 200;" fill="rgb(50, 49, 63)" stroke="none" stroke-width="1px">100k</text><text x="198.50347222222223" y="0" dx="0em" dy="0.95em" style="text-anchor: middle; visibility: inherit; font-family: &quot;Helvetica Neue&quot;, sans-serif; font-size: 12px; font-weight: 200;" fill="rgb(50, 49, 63)" stroke="none" stroke-width="1px">120k</text><text x="226.8611111111111" y="0" dx="0em" dy="0.95em" style="text-anchor: middle; visibility: hidden; font-family: &quot;Helvetica Neue&quot;, sans-serif; font-size: 12px; font-weight: 200;" fill="rgb(50, 49, 63)" stroke="none" stroke-width="1px">140k</text><text x="255.21875" y="0" dx="0em" dy="0.95em" style="text-anchor: middle; visibility: hidden; font-family: &quot;Helvetica Neue&quot;, sans-serif; font-size: 12px; font-weight: 200;" fill="rgb(50, 49, 63)" stroke="none" stroke-width="1px">160k</text></g><line x1="0" y1="0" x2="255.21875" y2="0" fill="rgb(0, 0, 0)" stroke="rgb(204, 204, 204)" stroke-width="1px"></line></g></g></g></g></svg>