<svg viewBox="0 0 330 200" xmlns="http://www.w3.org/2000/svg"><g><g><g><g><g><line x1="74.78125" y1="177" x2="69.78125" y2="177" style="visibility: inherit;" fill="rgb(0, 0, 0)" stroke="rgb(204, 204, 204)" stroke-width="1px"></line><line x1="74.78125" y1="162.25" x2="69.78125" y2="162.25" style="visibility: inherit;" fill="rgb(0, 0, 0)" stroke="rgb(204, 204, 204)" stroke-width="1px"></line><line x1="74.78125" y1="147.5" x2="69.78125" y2="147.5" style="visibility: inherit;" fill="rgb(0, 0, 0)" stroke="rgb(204, 204, 204)" stroke-width="1px"></line><line x1="74.78125" y1="132.75" x2="69.78125" y2="132.75" style="visibility: inherit;" fill="rgb(0, 0, 0)" stroke="rgb(204, 204, 204)" stroke-width="1px"></line><line x1="74.78125" y1="118" x2="69.78125" y2="118" style="visibility: inherit;" fill="rgb(0, 0, 0)" stroke="rgb(204, 204, 204)" stroke-width="1px"></line><line x1="74.78125" y1="103.25" x2="69.78125" y2="103.25" style="visibility: inherit;" fill="rgb(0, 0, 0)" stroke="rgb(204, 204, 204)" stroke-width="1px"></line><line x1="74.78125" y1="88.5" x2="69.78125" y2="88.5" style="visibility: inherit;" fill="rgb(0, 0, 0)" stroke="rgb(204, 204, 204)" stroke-width="1px"></line><line x1="74.78125" y1="73.75" x2="69.78125" y2="73.75" style="visibility: inherit;" fill="rgb(0, 0, 0)" stroke="rgb(204, 204, 204)" stroke-width="1px"></line><line x1="74.78125" y1="59" x2="69.78125" y2="59" style="visibility: inherit;" fill="rgb(0, 0, 0)" stroke="rgb(204, 204, 204)" stroke-width="1px"></line><line x1="74.78125" y1="44.25" x2="69.78125" y2="44.25" style="visibility: inherit;" fill="rgb(0, 0, 0)" stroke="rgb(204, 204, 204)" stroke-width="1px"></line><line x1="74.78125" y1="29.5" x2="69.78125" y2="29.5" style="visibility: inherit;" fill="rgb(0, 0, 0)" stroke="rgb(204, 204, 204)" stroke-width="1px"></line><line x1="74.78125" y1="14.75" x2="69.78125" y2="14.75" style="visibility: inherit;" fill="rgb(0, 0, 0)" stroke="rgb(204, 204, 204)" stroke-width="1px"></line><line x1="74.78125" y1="0" x2="69.78125" y2="0" style="visibility: inherit;" fill="rgb(0, 0, 0)" stroke="rgb(204, 204, 204)" stroke-width="1px"></line></g><g transform="translate(64.78125, 0)"><text x="0" y="177" dx="0em" dy="0.3em" style="text-anchor: end; visibility: hidden; font-family: &quot;Helvetica Neue&quot;, sans-serif; font-size: 12px; font-weight: 200;" fill="rgb(50, 49, 63)" stroke="none" stroke-width="1px">-5e+4</text><text x="0" y="162.25" dx="0em" dy="0.3em" style="text-anchor: end; visibility: inherit; font-family: &quot;Helvetica Neue&quot;, sans-serif; font-size: 12px; font-weight: 200;" fill="rgb(50, 49, 63)" stroke="none" stroke-width="1px">0</text><text x="0" y="147.5" dx="0em" dy="0.3em" style="text-anchor: end; visibility: hidden; font-family: &quot;Helvetica Neue&quot;, sans-serif; font-size: 12px; font-weight: 200;" fill="rgb(50, 49, 63)" stroke="none" stroke-width="1px">5e+4</text><text x="0" y="132.75" dx="0em" dy="0.3em" style="text-anchor: end; visibility: inherit; font-family: &quot;Helvetica Neue&quot;, sans-serif; font-size: 12px; font-weight: 200;" fill="rgb(50, 49, 63)" stroke="none" stroke-width="1px">1e+5</text><text x="0" y="118" dx="0em" dy="0.3em" style="text-anchor: end; visibility: hidden; font-family: &quot;Helvetica Neue&quot;, sans-serif; font-size: 12px; font-weight: 200;" fill="rgb(50, 49, 63)" stroke="none" stroke-width="1px">1.5e+5</text><text x="0" y="103.25" dx="0em" dy="0.3em" style="text-anchor: end; visibility: inherit; font-family: &quot;Helvetica Neue&quot;, sans-serif; font-size: 12px; font-weight: 200;" fill="rgb(50, 49, 63)" stroke="none" stroke-width="1px">2e+5</text><text x="0" y="88.5" dx="0em" dy="0.3em" style="text-anchor: end; visibility: hidden; font-family: &quot;Helvetica Neue&quot;, sans-serif; font-size: 12px; font-weight: 200;" fill="rgb(50, 49, 63)" stroke="none" stroke-width="1px">2.5e+5</text><text x="0" y="73.75" dx="0em" dy="0.3em" style="text-anchor: end; visibility: inherit; font-family: &quot;Helvetica Neue&quot;, sans-serif; font-size: 12px; font-weight: 200;" fill="rgb(50, 49, 63)" stroke="none" stroke-width="1px">3e+5</text><text x="0" y="59" dx="0em" dy="0.3em" style="text-anchor: end; visibility: hidden; font-family: &quot;Helvetica Neue&quot;, sans-serif; font-size: 12px; font-weight: 200;" fill="rgb(50, 49, 63)" stroke="none" stroke-width="1px">3.5e+5</text><text x="0" y="44.25" dx="0em" dy="0.3em" style="text-anchor: end; visibility: inherit; font-family: &quot;Helvetica Neue&quot;, sans-serif; font-size: 12px; font-weight: 200;" fill="rgb(50, 49, 63)" stroke="none" stroke-width="1px">4e+5</text><text x="0" y="29.5" dx="0em" dy="0.3em" style="text-anchor: end; visibility: hidden; font-family: &quot;Helvetica Neue&quot;, sans-serif; font-size: 12px; font-weight: 200;" fill="rgb(50, 49, 63)" stroke="none" stroke-width="1px">4.5e+5</text><text x="0" y="14.75" dx="0em" dy="0.3em" style="text-anchor: end; visibility: inherit; font-family: &quot;Helvetica Neue&quot;, sans-serif; font-size: 12px; font-weight: 200;" fill="rgb(50, 49, 63)" stroke="none" stroke-width="1px">5e+5</text><text x="0" y="0" dx="0em" dy="0.3em" style="text-anchor: end; visibility: hidden; font-family: &quot;Helvetica Neue&quot;, sans-serif; font-size: 12px; font-weight: 200;" fill="rgb(50, 49, 63)" stroke="none" stroke-width="1px">5.5e+5</text></g><line x1="74.78125" y1="0" x2="74.78125" y2="177" fill="rgb(0, 0, 0)" stroke="rgb(204, 204, 204)" stroke-width="1px"></line></g></g><g transform="translate(74, 0)" clip-path="url(#clip_0)"><clipPath id="clip_0"><rect width="255" height="177"></rect></clipPath><g><g><g><line x1="0" y1="0" x2="0" y2="177" fill="rgb(0, 0, 0)" stroke="rgb(60, 60, 60)" stroke-width="1px" opacity="0.25"></line><line x1="28.357638888888886" y1="0" x2="28.357638888888886" y2="177" fill="rgb(0, 0, 0)" stroke="rgb(60, 60, 60)" stroke-width="1px" opacity="0.25"></line><line x1="56.71527777777777" y1="0" x2="56.71527777777777" y2="177" fill="rgb(0, 0, 0)" stroke="rgb(60, 60, 60)" stroke-width="1px" opacity="0.25"></line><line x1="85.07291666666666" y1="0" x2="85.07291666666666" y2="177" fill="rgb(0, 0, 0)" stroke="rgb(60, 60, 60)" stroke-width="1px" opacity="0.25"></line><line x1="113.43055555555554" y1="0" x2="113.43055555555554" y2="177" fill="rgb(0, 0, 0)" stroke="rgb(60, 60, 60)" stroke-width="1px" opacity="0.25"></line><line x1="141.78819444444446" y1="0" x2="141.78819444444446" y2="177" fill="rgb(0, 0, 0)" stroke="rgb(60, 60, 60)" stroke-width="1px" opacity="0.25"></line><line x1="170.14583333333331" y1="0" x2="170.14583333333331" y2="177" fill="rgb(0, 0, 0)" stroke="rgb(60, 60, 60)" stroke-width="1px" opacity="0.25"></line><line x1="198.50347222222223" y1="0" x2="198.50347222222223" y2="177" fill="rgb(0, 0, 0)" stroke="rgb(60, 60, 60)" stroke-width="1px" opacity="0.25"></line><line x1="226.8611111111111" y1="0" x2="226.8611111111111" y2="177" fill="rgb(0, 0, 0)" stroke="rgb(60, 60, 60)" stroke-width="1px" opacity="0.25"></line><line x1="255.21875" y1="0" x2="255.21875" y2="177" fill="rgb(0, 0, 0)" stroke="rgb(60, 60, 60)" stroke-width="1px" opacity="0.25"></line></g><g><line x1="0" y1="177" x2="255.21875" y2="177" fill="rgb(0, 0, 0)" stroke="rgb(60, 60, 60)" stroke-width="1px" opacity="0.25"></line><line x1="0" y1="162.25" x2="255.21875" y2="162.25" fill="rgb(0, 0, 0)" stroke="rgb(60, 60, 60)" stroke-width="1px" opacity="0.25"></line><line x1="0" y1="147.5" x2="255.21875" y2="147.5" fill="rgb(0, 0, 0)" stroke="rgb(60, 60, 60)" stroke-width="1px" opacity="0.25"></line><line x1="0" y1="132.75" x2="255.21875" y2="132.75" fill="rgb(0, 0, 0)" stroke="rgb(60, 60, 60)" stroke-width="1px" opacity="0.25"></line><line x1="0" y1="118" x2="255.21875" y2="118" fill="rgb(0, 0, 0)" stroke="rgb(60, 60, 60)" stroke-width="1px" opacity="0.25"></line><line x1="0" y1="103.25" x2="255.21875" y2="103.25" fill="rgb(0, 0, 0)" stroke="rgb(60, 60, 60)" stroke-width="1px" opacity="0.25"></line><line x1="0" y1="88.5" x2="255.21875" y2="88.5" fill="rgb(0, 0, 0)" stroke="rgb(60, 60, 60)" stroke-width="1px" opacity="0.25"></line><line x1="0" y1="73.75" x2="255.21875" y2="73.75" fill="rgb(0, 0, 0)" stroke="rgb(60, 60, 60)" stroke-width="1px" opacity="0.25"></line><line x1="0" y1="59" x2="255.21875" y2="59" fill="rgb(0, 0, 0)" stroke="rgb(60, 60, 60)" stroke-width="1px" opacity="0.25"></line><line x1="0" y1="44.25" x2="255.21875" y2="44.25" fill="rgb(0, 0, 0)" stroke="rgb(60, 60, 60)" stroke-width="1px" opacity="0.25"></line><line x1="0" y1="29.5" x2="255.21875" y2="29.5" fill="rgb(0, 0, 0)" stroke="rgb(60, 60, 60)" stroke-width="1px" opacity="0.25"></line><line x1="0" y1="14.75" x2="255.21875" y2="14.75" fill="rgb(0, 0, 0)" stroke="rgb(60, 60, 60)" stroke-width="1px" opacity="0.25"></line><line x1="0" y1="0" x2="255.21875" y2="0" fill="rgb(0, 0, 0)" stroke="rgb(60, 60, 60)" stroke-width="1px" opacity="0.25"></line></g></g></g><g><g><line x1="0" y1="162.25" x2="255.21875" y2="162.25" fill="rgb(0, 0, 0)" stroke="rgb(153, 153, 153)" stroke-width="1.5px"></line></g></g><g><g><line x1="28.357638888888886" y1="0" x2="28.357638888888886" y2="177" fill="rgb(0, 0, 0)" stroke="rgb(153, 153, 153)" stroke-width="1.5px"></line></g></g><g><g><g><g><g><path stroke="rgb(255, 112, 67)" stroke-width="2px" d="M30.831842881944443,161.18615625L30.851693229166667,161.26281743421052L31.01900329861111,161.28113318726938L31.30541545138889,161.3032416127508L31.406085069444444,161.31033101832068L31.681154166666666,161.28678080515206L31.9533875,161.2938221318852L31.97181996527778,161.3047010697098L32.02144583333333,161.2864780055679L32.068235937500006,161.2744721454241L32.14196579861111,161.27214790260817L32.25823211805556,161.26562422758417L32.6041953125,161.2764147729221L32.612702604166664,161.2895146611132L32.61979201388888,161.2777179506873L32.677925173611115,161.27575796661253L32.734640451388884,161.28541729193654L32.764415972222224,161.27569064525682L32.8338921875,161.27509141483694L33.02105260416666,161.2818109280388L33.10612552083334,161.27365807028048L33.17418385416667,161.26778672666777L33.19828784722222,161.2739521477021L33.41947743055555,161.2666154615756L33.58962326388889,161.265247086281L33.758351215277784,161.25087837868895L33.98095868055556,161.25281569526973L34.30990729166666,161.2381452581379L34.492814062499995,161.2470559039601L35.36339357638889,161.25022692428874L35.56047916666667,161.25329389947746L35.561897048611115,161.23894283303315L35.95890399305555,161.2168961437369L36.07658819444445,161.22430718264476L36.07942395833334,161.2357119432738L36.4069546875,161.22828435476484L36.411208333333335,161.23301751169373L36.775603993055554,161.22467604541745L37.01664392361111,161.2282110278609L37.402307812500005,161.2213692665518L37.41223298611111,161.22938585796598L37.63484045138888,161.2350407567813L37.84468697916667,161.23387332041855L38.11408454861111,161.227332715559L38.15378524305556,161.22466680099794L38.31117013888889,161.232399928407L38.41325763888889,161.22412172405484L38.567806770833336,161.21923392084506L38.68265520833333,161.19787336556587L38.83436857638889,161.18715108126628L38.91235208333333,161.19496989616258L39.15339201388889,161.1747368801491L39.27674774305556,161.16565798805942L39.28100138888889,161.17821355078175L39.405775000000006,161.19251070555876L39.536220138888886,161.18165881872216L40.04949340277778,161.18072344361784L40.07359739583333,161.17443088902715L40.35575590277778,161.1661376474405L40.55142361111111,161.16860487883667L40.78395625,161.1892457423629L41.09730815972222,161.19387556344392L41.16394861111112,161.19148722207336L41.47446475694444,161.2011522388492L41.55811979166666,161.1997894751631L41.74669809027778,161.20050105095518L41.904082986111106,161.19823493562345L42.43720659722222,161.19292061239506L42.43862447916667,161.2030371567797L42.469817881944444,161.20162474361365L42.61160607638889,161.19468100978582L42.903689756944445,161.19244458625792L42.934883159722226,161.16589893972036L43.3233828125,161.1707844916905L43.582855208333335,161.1466846258486L43.88628194444444,161.14233346437206L43.90613229166667,161.126383619165L44.700146180555556,161.11885338243098L44.70439982638889,161.11290644432194L44.81215885416667,161.08952787976955L44.946857638888886,161.07632562087136L44.987976215277776,161.0638908582746L45.01066232638889,161.07178584236476L45.01349809027778,161.084100429565L45.04043784722222,161.08204480891902L45.067377604166666,161.0819465666206L45.24744861111111,161.0751277599227L45.509756770833334,161.06129258903644L45.789079513888886,161.0513765533247L46.20593680555556,161.0307896734883L46.387425694444445,161.02161945243267L46.629883506944445,160.97492181327453L46.63413715277778,160.92390570510491L47.069426909722225,160.90422040072374L47.267930381944446,160.8552047495812L47.311884722222224,160.85529677834876L47.44658350694444,160.83689533630016L47.832247395833335,160.75686099069586L48.233507986111114,160.73364530021937L48.49439826388889,160.74285132722238L48.597903645833334,160.6828010871086L48.61350034722222,160.6785154174427L48.637604340277775,160.6472781145924L49.437289756944445,160.6358508852416L49.73929861111111,160.5653670349818L49.753477430555556,160.5202773512559L49.80735694444444,160.44747681625523L49.86265434027778,160.30705331030384L50.06399357638889,160.17822946612068L50.35040572916667,160.04887485275546L50.514880034722225,159.99145642013303L51.35284826388889,159.93415644202113L51.46344305555555,159.87000286468285L51.67470746527778,159.81221863334468L52.06178923611111,159.73652057478597L52.27447152777778,159.67904010939537L52.440363715277776,159.51677444216878L52.63177777777778,159.45771473124717L53.01177013888889,159.29813018552494L53.085499999999996,159.18584805438581L53.25989947916667,159.0298502955676L53.34213663194444,158.9956987704311L53.770336979166665,158.97874447847553L54.014212673611105,158.86996120639796L54.4509203125,158.8771041618786L55.15560763888889,158.77719435548016L55.402319097222225,158.67907086212665L55.41649791666667,158.53549326382898L55.45194496527778,158.4535657099485L55.70291006944445,158.34862542704417L55.99641163194444,158.11751108763505L56.10558854166666,157.96901531218828L56.39483645833334,157.8604902543887L56.75356059027778,157.8497966898L56.79184340277778,157.6168942097194L56.90669184027777,157.5170773852685L57.2710875,157.4163641237528L57.333474305555555,157.3821409760398L57.38877170138889,157.25569557327742L57.69786996527778,157.11082752157432L57.968685416666666,157.02607911447183L58.03957951388889,156.99742041266097L58.55710642361111,156.9260869447288L58.63083628472222,156.7682243033428L58.71449131944445,156.77406281186205L59.07463333333333,156.7256643330778L59.132766493055556,156.25205093583497L59.26604739583333,156.21109661658014L59.55671319444445,155.9655251988203L59.732530555555556,155.86149688344767L59.83887170138889,155.75233780665425L60.13946267361111,155.55743603562772L60.140880555555555,155.31509631413093L60.67400416666666,154.991297591136L60.862582465277775,154.94551235957144L60.87250763888889,154.71186423161646L60.91787986111111,154.5916481130837L60.97034149305556,154.43063016728698L61.415556423611115,154.403944492893L61.585702256944444,154.25759456786827L61.686371875,154.03387650772095L62.030917187499995,153.82736775521477L62.59665208333333,153.6013161280776L62.71150052083333,153.46207826090944L62.72142569444445,153.36902980719594L62.735604513888894,153.157514321111L62.80224496527778,152.9940691352685L62.941197395833335,152.69329190306166L63.020598784722225,152.60079083604498L63.26447447916667,152.4741195628323L63.41760572916667,152.43902791852346L63.428948784722216,152.4185079388945L63.7664046875,152.3571727692609L63.89117829861111,152.15281174010332L64.15348645833333,151.8766071258786L64.20311232638889,151.77851906867318L64.70220677083333,151.76186950542333L64.83265190972223,151.6173614600957L64.98011163194444,151.58161203260565L65.04391631944445,151.36437114058444L65.32607482638888,151.2650980885075L65.59972604166667,151.13933827906564L65.81807986111112,150.99292085678968L66.37247170138889,150.88096548943446L66.44903732638889,150.7651330025941L66.61918315972223,150.71172517091998L66.94954965277778,150.53206046582932L66.97648940972222,150.44558723153037L67.02895104166666,150.28921757052578L67.2884234375,150.10617081310284L67.29834861111111,149.99494357534002L67.41603281249999,149.92701249894466L67.54931371527778,150.05637999924102L67.66841579861111,149.96635684294742L67.99878229166667,149.86722115853422L68.12639166666668,149.68479747998464L68.15758506944444,149.7764825758249L68.4369078125,149.73330150570482L68.70630538194443,149.59612057377677L68.92182343750001,149.59900070390114L68.99129965277778,149.56255141473787L69.15152031250001,149.53749080449978L69.53860208333334,149.30525578643034L69.69315121527778,149.1961755202368L69.77538836805556,149.12155718693205L69.82501423611112,149.0489155307116L69.92284809027778,148.95403804010843L70.05612899305555,148.8951522048297L70.2517967013889,148.77656354681432L70.29575104166666,148.62798062959632L70.8714111111111,148.6555380353928L71.0046920138889,148.66065766935455L71.02028871527777,148.50610362114136L71.73631909722222,148.3577862277533L72.40839513888889,148.19853416745485L72.56294427083333,148.0956776256959L72.56436215277778,148.02398720686787L72.90748958333333,147.947711923673L73.1230076388889,147.80291729379192L73.2123342013889,147.78258181441097L73.33427204861111,147.72998613296582L73.71284652777777,147.7193867384185L73.88582812499999,147.7157933770764L73.9241109375,147.6572468518655L74.08574947916667,147.78759326043553L74.13395746527779,147.81963159064344L74.23604496527777,147.82790827532943L74.30126753472221,147.81793385404612L74.4756670138889,147.73465374988874L74.4955173611111,147.75516181240047L74.91521041666667,147.72180969365954L75.19595104166667,147.71322638054338L75.29236701388889,147.66563030498799L75.39161874999999,147.58730164948767L75.70497065972222,147.5818441407888L75.90347413194444,147.4234401954574L76.4507765625,147.36873133216088L76.82084375,147.35673710519464L76.93002065972223,147.23670011342378L76.94278159722222,147.1495011958305L76.97539288194444,147.03419326374637L77.33411701388889,147.02440128112164L77.34829583333332,146.97336662175908L77.48583038194445,146.92356355333283L77.5482171875,146.95636266674975L77.98492482638889,146.88433733757438L78.29118732638888,146.79176610381649L78.8526685763889,146.90693168093534L78.94483090277778,146.78983773159135L79.27945104166666,146.66232817718173L79.51623732638889,146.50401098446304L79.61123541666667,146.47809660476668L80.0082423611111,146.4072971005398L80.26913263888889,146.31472285923562L80.52435138888889,146.26284197956193L80.66613958333333,146.1888616878556L80.86180729166668,146.1070684878199L80.87173246527777,145.9642217952877L81.02202795138889,146.04358867825903L81.10284722222222,145.943227466683L81.3991845486111,145.8680211262646L82.23289913194445,145.76027995113805L82.23715277777778,145.7215753935242L82.40871649305555,145.70066160417176L82.67386041666667,145.5923251312545L82.88512482638889,145.46665902437897L82.99855538194446,145.42532749694107L83.03683819444444,145.42790802849694L83.17153697916667,145.43802035064726L83.42391996527778,145.3994144093325L83.78973350694444,145.32498234339923L83.92017864583333,145.27882785905928L84.26897760416666,145.23106616690333L84.33845381944444,145.25652986271302L84.38382604166667,145.2111823451917L84.64471631944444,145.1665898919225L85.10978159722222,145.15904496523027L85.22179427083333,145.12284671870722L85.99170416666666,145.0635339218365L86.1235671875,145.08583834215284L86.25968385416667,145.07267872668757L86.46102309027778,145.13569132276882L86.53617083333334,145.15953781549194L87.106159375,145.20773403394276L87.3486171875,145.08143953679846L87.41100399305556,145.12145105186863L87.43652586805555,144.93326141543173L87.70308767361111,144.76674855513855L87.95405277777778,144.6974127621247L88.04337934027778,144.63570195466224L88.31419479166668,144.570390352946L88.49851944444444,144.5376528801514L89.0103748263889,144.46002118588626L89.42439635416666,144.30953469229763L89.83558211805556,144.16672184806785L89.91072986111111,144.15826450701107L90.3190798611111,144.06975836880997L90.3502732638889,143.87007471942894L90.36870572916668,143.71354459123606L90.59982048611111,143.63332685086246L90.69056493055557,143.5159129157762L90.7940703125,143.59622865544858L90.85220347222223,143.74779407115372L91.01667777777779,143.73481310153835L91.05496059027777,143.5833278851345L91.72420086805556,143.47824275287107L92.03897065972222,143.48880597758395L92.41045572916666,143.47379100482556L92.516796875,143.490376748093L93.26260277777777,143.3009242295337L93.88788871527778,143.35692165033032L94.15870416666667,143.3455537040473L94.17004722222222,143.26927020864258L94.23526979166667,143.04403459402832L94.76272187500001,142.97374988462548L94.76981128472222,143.00521630241292L94.78257222222221,142.95056732842164L95.3369640625,142.86229575182946L95.79493993055556,142.73468336414652L96.24582638888889,142.70321580898187L96.3479138888889,142.5344473530837L96.38477881944445,142.60813855527533L96.65701215277778,142.5910770434978L96.75909965277779,142.563737307898L97.19438940972222,142.3918620146082L97.38722135416667,142.4413234693974L97.83243628472222,142.35507080995765L97.99549270833333,142.3429426352119L98.19683194444445,142.3041866529407L98.20675711805555,142.23584220639663L98.34145590277778,141.96534314200696L98.34570954861111,141.97425726530628L98.59383888888888,141.83136903877565L99.14255920138888,141.77937744739808L100.0939579861111,141.61546079640829L100.17194149305556,141.70817643551743L100.65827499999999,141.5555283232157L101.0184170138889,141.42146377214414L101.17296614583333,141.28568692617972L101.63944930555556,141.27517292106174L102.2689888888889,141.37905484770556L102.50010364583333,141.38718295668502L102.68301041666666,141.28843653601652L102.81912708333333,141.05851788241486L102.82054496527779,141.0093239066734L102.89285694444445,141.11803448475604L103.0417345486111,141.05662009878043L103.49262100694445,141.17023465140238L103.71381059027779,141.09226118626216L103.97470086805555,140.85001709888593L104.13775729166667,140.87223804524734L104.28379913194445,140.7954861157226L104.44118402777778,140.88063906665036L104.51066024305555,140.7068493787353L106.44181545138889,140.6751222533618L106.65024409722223,140.39365143427563L106.98202847222221,140.48690660334805L107.13941336805556,140.45491047426324L107.21739687499999,140.41500536433693L107.36060295138888,140.21453607790323L107.47403350694445,140.3143176263629L108.09648368055555,140.2404882074766L108.25812222222221,140.22419173047894L108.46229722222222,139.88041552618105L108.59274236111112,139.88164272356295L109.12444809027778,139.80535579495665L109.24496805555556,139.734853809211L109.27757934027778,139.57806217828988L109.95958055555555,139.4990379917109L110.73657986111111,139.4298982550398L111.44552083333333,139.53181233578584L111.80849861111112,139.30166235220725L111.97580868055556,139.08277346073652L112.35863680555555,138.86498517716285L112.51035017361112,138.83491322194658L113.11011423611112,138.85597033725193L113.20085868055556,138.8985678347767L113.6871921875,138.98258448879906L114.17777934027778,138.99316119616915L114.27844895833333,138.91487163905225L114.78746857638889,138.701704787647L114.82149774305555,138.4105225901323L115.16037152777778,138.41294454986908L115.76297135416667,138.48643134488216L115.97990729166668,138.53648274164397L116.13020277777778,138.29994227997955L116.53713489583333,138.2590316457316L118.55194513888888,137.93693785615844L118.86529704861111,137.7397940705426L118.98865277777777,137.51046310098832L119.15454496527778,137.3087667908895L119.55013402777779,137.35388308055056L119.64371423611111,137.0774549287455L119.64655,136.97474068587096L119.90318663194444,137.07980958603383L120.17541996527778,136.99004268993048L120.3739234375,136.86325092093742L120.41645989583333,136.8145453600937L120.91413645833333,136.91401582408432L122.11508246527778,137.0353439291759L122.48940329861112,136.8954946925083L122.56029739583333,136.85568741075747L122.65954913194444,136.4907514821817L123.143046875,136.40439352146353L123.73997517361111,136.33317057556718L123.87892760416666,136.21472539301047L124.52406388888889,136.1020403537094L125.96463194444445,135.87759959958848L126.34178854166666,135.80346698337962L126.96991024305557,135.88424762879168L126.99117847222223,135.5970502096625L127.39527482638889,135.55857800119625L129.33493732638888,135.25324441982661L129.85671788194443,135.01153950909398L130.2296208333333,135.16741055818454L130.5415548611111,134.9593179398661L130.96975520833334,134.7930533333795L132.101225,134.59317300004153L132.4897246527778,134.4487728875374L132.7491970486111,133.86548075503364L134.64632309027778,133.56374986703028L134.8008722222222,133.34086706782725L135.3708607638889,133.44979207979452L138.70288333333332,133.07789880931506L139.20623142361111,132.62611674088356L139.35085538194443,132.12087225429522L139.6528642361111,131.8400178413657L140.52769739583331,131.79785121347913L140.84104930555557,131.2727364046312L141.00410572916667,131.1143541704181L141.58827309027777,130.95111406587628L143.02175173611113,129.89753390928865L143.53360711805556,129.7075078621098L143.96606111111112,129.88223363839882L145.09469513888888,129.65004074330892L147.56180972222222,129.25443354397805L148.02262135416666,128.99947065833024L213.5727215277778,126.22203374874721L227.64661770833334,125.74793037387249L230.8070765625,117.67497561773524L231.62519444444445,117.41100305596171L234.84095069444444,117.68838712536554L236.56934878472222,117.58772028782897L237.36194479166667,117.27015450904608L238.3105078125,117.05500702689147L239.63197378472222,116.00730319920233L241.27955260416667,113.59158225428209L242.1231923611111,112.32133184135388L243.2645873263889,111.2044720947185L243.62047569444445,109.82971863524665L244.76187065972223,108.55579599047198L245.1432809027778,106.31555311017478L245.1446987847222,105.0964798304073L245.14611666666667,101.42861934736656L245.14753454861113,97.97280819387991L245.14895243055554,97.2123453432419L245.1503703125,93.14801237141772L245.15178819444446,88.51850254052594L245.15320607638887,84.65030853647337L245.15462395833333,80.04180346407603L245.1560418402778,76.08599108641842L245.15745972222223,73.04795604027656L245.15887760416666,69.03176512374893L245.16029548611112,63.03442298637401L245.16171336805556,56.99104162523662L245.16313125,52.28806949396294L245.16454913194445,47.30337504456665L245.1659670138889,41.43313910260997L245.16738489583332,37.87742831734897" style="fill: none;" fill="none"></path></g></g></g></g><g opacity="0.2"><g><g><g><path stroke="rgb(255, 112, 67)" stroke-width="2px" d="M30.831842881944443,161.18615625L30.851693229166667,161.3318125L31.01900329861111,161.312453125L31.30541545138889,161.3571640625L31.406085069444444,161.3322734375L31.681154166666666,161.19998437499999L31.9533875,161.323515625L31.97181996527778,161.35578125L32.02144583333333,161.1930703125L32.068235937500006,161.20828125L32.14196579861111,161.2585234375L32.25823211805556,161.2253359375L32.6041953125,161.3461015625L32.612702604166664,161.37744531250002L32.61979201388888,161.1958359375L32.677925173611115,161.26175L32.734640451388884,161.3562421875L32.764415972222224,161.20275L32.8338921875,161.2705078125L33.02105260416666,161.3341171875L33.10612552083334,161.209203125L33.17418385416667,161.2207265625L33.19828784722222,161.3239765625L33.41947743055555,161.2064375L33.58962326388889,161.2539140625L33.758351215277784,161.13084375L33.98095868055556,161.269125L34.30990729166666,161.1137890625L34.492814062499995,161.3230546875L35.36339357638889,161.27742187500002L35.56047916666667,161.2797265625L35.561897048611115,161.1147109375L35.95890399305555,161.0252890625L36.07658819444445,161.2889453125L36.07942395833334,161.3355L36.4069546875,161.163109375L36.411208333333335,161.27465625L36.775603993055554,161.151125L37.01664392361111,161.2594453125L37.402307812500005,161.1608046875L37.41223298611111,161.30046875L37.63484045138888,161.2852578125L37.84468697916667,161.2234921875L38.11408454861111,161.1691015625L38.15378524305556,161.20090625L38.31117013888889,161.301390625L38.41325763888889,161.150203125L38.567806770833336,161.1755546875L38.68265520833333,161.0068515625L38.83436857638889,161.091203125L38.91235208333333,161.2649765625L39.15339201388889,160.993484375L39.27674774305556,161.0842890625L39.28100138888889,161.2907890625L39.405775000000006,161.32075L39.536220138888886,161.0842890625L40.04949340277778,161.172328125L40.07359739583333,161.1179375L40.35575590277778,161.0916640625L40.55142361111111,161.190765625L40.78395625,161.3746796875L41.09730815972222,161.2354765625L41.16394861111112,161.1700234375L41.47446475694444,161.2880234375L41.55811979166666,161.1875390625L41.74669809027778,161.2068984375L41.904082986111106,161.177859375L42.43720659722222,161.1451328125L42.43862447916667,161.294015625L42.469817881944444,161.188921875L42.61160607638889,161.1322265625L42.903689756944445,161.172328125L42.934883159722226,160.927109375L43.3233828125,161.214734375L43.582855208333335,160.929875L43.88628194444444,161.1031875L43.90613229166667,160.9828828125L44.700146180555556,161.0511015625L44.70439982638889,161.0593984375L44.81215885416667,160.879171875L44.946857638888886,160.95753125L44.987976215277776,160.952L45.01066232638889,161.142828125L45.01349809027778,161.1949140625L45.04043784722222,161.063546875L45.067377604166666,161.0810625L45.24744861111111,161.013765625L45.509756770833334,160.9367890625L45.789079513888886,160.962140625L46.20593680555556,160.8455234375L46.387425694444445,160.93909375L46.629883506944445,160.554671875L46.63413715277778,160.4647890625L47.069426909722225,160.7270625L47.267930381944446,160.4140859375L47.311884722222224,160.856125L47.44658350694444,160.6712890625L47.832247395833335,160.036578125L48.233507986111114,160.5247109375L48.49439826388889,160.825703125L48.597903645833334,160.14236328125L48.61350034722222,160.6399453125L48.637604340277775,160.3661484375L49.437289756944445,160.5330078125L49.73929861111111,159.9310234375L49.753477430555556,160.1144765625L49.80735694444444,159.79228125L49.86265434027778,159.0432578125L50.06399357638889,159.018828125L50.35040572916667,158.8846953125L50.514880034722225,159.4746953125L51.35284826388889,159.4184609375L51.46344305555555,159.292625L51.67470746527778,159.2921640625L52.06178923611111,159.0552421875L52.27447152777778,159.16171875L52.440363715277776,158.056390625L52.63177777777778,158.9261796875L53.01177013888889,157.861875L53.085499999999996,158.1753125L53.25989947916667,157.625875L53.34213663194444,158.6883359375L53.770336979166665,158.82615625L54.014212673611105,157.8909140625L54.4509203125,158.941390625L55.15560763888889,157.87800781250002L55.402319097222225,157.7959609375L55.41649791666667,157.243296875L55.45194496527778,157.71621875L55.70291006944445,157.4041640625L55.99641163194444,156.037484375L56.10558854166666,156.6325546875L56.39483645833334,156.883765625L56.75356059027778,157.7535546875L56.79184340277778,155.5207734375L56.90669184027777,156.6187265625L57.2710875,156.5099453125L57.333474305555555,157.0741328125L57.38877170138889,156.1176875L57.69786996527778,155.807015625L57.968685416666666,156.26334375L58.03957951388889,156.7394921875L58.55710642361111,156.2840859375L58.63083628472222,155.3474609375L58.71449131944445,156.826609375L59.07463333333333,156.290078125L59.132766493055556,151.98953125L59.26604739583333,155.8425078125L59.55671319444445,153.7553828125L59.732530555555556,154.9252421875L59.83887170138889,154.76990625L60.13946267361111,153.8033203125L60.140880555555555,153.1340390625L60.67400416666666,152.077109375L60.862582465277775,154.5334453125L60.87250763888889,152.60903125L60.91787986111111,153.509703125L60.97034149305556,152.98146875L61.415556423611115,154.1637734375L61.585702256944444,152.9404453125L61.686371875,152.0204140625L62.030917187499995,151.9687890625L62.59665208333333,151.5668515625L62.71150052083333,152.2089375L62.72142569444445,152.53159375L62.735604513888894,151.253875L62.80224496527778,151.5230625L62.941197395833335,149.986296875L63.020598784722225,151.76828125L63.26447447916667,151.334078125L63.41760572916667,152.123203125L63.428948784722216,152.233828125L63.7664046875,151.80515625L63.89117829861111,150.3135625L64.15348645833333,149.390765625L64.20311232638889,150.8957265625L64.70220677083333,151.6120234375L64.83265190972223,150.3167890625L64.98011163194444,151.2598671875L65.04391631944445,149.409203125L65.32607482638888,150.371640625L65.59972604166667,150.0075L65.81807986111112,149.67516406250002L66.37247170138889,149.8733671875L66.44903732638889,149.722640625L66.61918315972223,150.2310546875L66.94954965277778,148.915078125L66.97648940972222,149.667328125L67.02895104166666,148.881890625L67.2884234375,148.45875L67.29834861111111,148.9938984375L67.41603281249999,149.31563281249998L67.54931371527778,151.2206875L67.66841579861111,149.1561484375L67.99878229166667,148.975L68.12639166666668,148.042984375L68.15758506944444,150.6016484375L68.4369078125,149.344671875L68.70630538194443,148.3614921875L68.92182343750001,149.62492187499998L68.99129965277778,149.2345078125L69.15152031250001,149.3119453125L69.53860208333334,147.215140625L69.69315121527778,148.214453125L69.77538836805556,148.4499921875L69.82501423611112,148.395140625L69.92284809027778,148.100140625L70.05612899305555,148.3651796875L70.2517967013889,147.709265625L70.29575104166666,147.290734375L70.8714111111111,148.9035546875L71.0046920138889,148.706734375L71.02028871527777,147.1151171875L71.73631909722222,147.0229296875L72.40839513888889,146.76526562499998L72.56294427083333,147.16996875L72.56436215277778,147.3787734375L72.90748958333333,147.26123437500002L73.1230076388889,146.499765625L73.2123342013889,147.5995625L73.33427204861111,147.25662499999999L73.71284652777777,147.6239921875L73.88582812499999,147.683453125L73.9241109375,147.130328125L74.08574947916667,148.9607109375L74.13395746527779,148.1079765625L74.23604496527777,147.9023984375L74.30126753472221,147.7281640625L74.4756670138889,146.9851328125L74.4955173611111,147.939734375L74.91521041666667,147.421640625L75.19595104166667,147.6359765625L75.29236701388889,147.237265625L75.39161874999999,146.88234375L75.70497065972222,147.5327265625L75.90347413194444,145.9978046875L76.4507765625,146.8763515625L76.82084375,147.2487890625L76.93002065972223,146.1563671875L76.94278159722222,146.3647109375L76.97539288194444,145.996421875L77.33411701388889,146.9362734375L77.34829583333332,146.5140546875L77.48583038194445,146.4753359375L77.5482171875,147.2515546875L77.98492482638889,146.236109375L78.29118732638888,145.95862499999998L78.8526685763889,147.943421875L78.94483090277778,145.7359921875L79.27945104166666,145.5147421875L79.51623732638889,145.07915625L79.61123541666667,146.2448671875L80.0082423611111,145.7701015625L80.26913263888889,145.4815546875L80.52435138888889,145.7959140625L80.66613958333333,145.5230390625L80.86180729166668,145.3709296875L80.87173246527777,144.6786015625L81.02202795138889,146.757890625L81.10284722222222,145.0399765625L81.3991845486111,145.1911640625L82.23289913194445,144.790609375L82.23715277777778,145.373234375L82.40871649305555,145.5124375L82.67386041666667,144.617296875L82.88512482638889,144.3356640625L82.99855538194446,145.05334375L83.03683819444444,145.4511328125L83.17153697916667,145.52903125L83.42391996527778,145.0519609375L83.78973350694444,144.65509375L83.92017864583333,144.8634375L84.26897760416666,144.8012109375L84.33845381944444,145.485703125L84.38382604166667,144.8030546875L84.64471631944444,144.7652578125L85.10978159722222,145.091140625L85.22179427083333,144.7970625L85.99170416666666,144.52971875L86.1235671875,145.286578125L86.25968385416667,144.9542421875L86.46102309027778,145.7028046875L86.53617083333334,145.37415625L87.106159375,145.6415L87.3486171875,143.9447890625L87.41100399305556,145.4815546875L87.43652586805555,143.2395546875L87.70308767361111,143.2681328125L87.95405277777778,144.073390625L88.04337934027778,144.0803046875L88.31419479166668,143.9825859375L88.49851944444444,144.243015625L89.0103748263889,143.7613359375L89.42439635416666,142.95515625000002L89.83558211805556,142.88140625L89.91072986111111,144.0821484375L90.3190798611111,143.273203125L90.3502732638889,142.072921875L90.36870572916668,142.3047734375L90.59982048611111,142.9113671875L90.69056493055557,142.45918749999998L90.7940703125,144.3190703125L90.85220347222223,145.1118828125L91.01667777777779,143.617984375L91.05496059027777,142.2199609375L91.72420086805556,142.5324765625L92.03897065972222,143.583875L92.41045572916666,143.33865624999999L92.516796875,143.6396484375L93.26260277777777,141.5958515625L93.88788871527778,143.8608984375L94.15870416666667,143.24324218750002L94.17004722222222,142.58271875L94.23526979166667,141.0169140625L94.76272187500001,142.3411875L94.76981128472222,143.2884140625L94.78257222222221,142.4587265625L95.3369640625,142.0678515625L95.79493993055556,141.586171875L96.24582638888889,142.4200078125L96.3479138888889,141.01553125L96.38477881944445,143.271359375L96.65701215277778,142.4375234375L96.75909965277779,142.3176796875L97.19438940972222,140.844984375L97.38722135416667,142.8864765625L97.83243628472222,141.578796875L97.99549270833333,142.2337890625L98.19683194444445,141.9553828125L98.20675711805555,141.6207421875L98.34145590277778,139.5308515625L98.34570954861111,142.05448437500002L98.59383888888888,140.545375L99.14255920138888,141.311453125L100.0939579861111,140.1402109375L100.17194149305556,142.5426171875L100.65827499999999,140.18169531249998L101.0184170138889,140.2148828125L101.17296614583333,140.0636953125L101.63944930555556,141.180546875L102.2689888888889,142.3139921875L102.50010364583333,141.4603359375L102.68301041666666,140.39971875L102.81912708333333,138.98925L102.82054496527779,140.566578125L102.89285694444445,142.0964296875L103.0417345486111,140.503890625L103.49262100694445,142.192765625L103.71381059027779,140.3905L103.97470086805555,138.6698203125L104.13775729166667,141.0722265625L104.28379913194445,140.10471875L104.44118402777778,141.647015625L104.51066024305555,139.1427421875L106.44181545138889,140.389578125L106.65024409722223,137.8604140625L106.98202847222221,141.326203125L107.13941336805556,140.1669453125L107.21739687499999,140.055859375L107.36060295138888,138.4103125L107.47403350694445,141.2123515625L108.09648368055555,139.5760234375L108.25812222222221,140.0775234375L108.46229722222222,136.7864296875L108.59274236111112,139.8926875L109.12444809027778,139.1187734375L109.24496805555556,139.1003359375L109.27757934027778,138.1669375L109.95958055555555,138.7878203125L110.73657986111111,138.807640625L111.44552083333333,140.4490390625L111.80849861111112,137.2303125L111.97580868055556,137.1127734375L112.35863680555555,136.904890625L112.51035017361112,138.56426562500002L113.11011423611112,139.045484375L113.20085868055556,139.2819453125L113.6871921875,139.738734375L114.17777934027778,139.0883515625L114.27844895833333,138.210265625L114.78746857638889,136.783203125L114.82149774305555,135.7898828125L115.16037152777778,138.4347421875L115.76297135416667,139.1478125L115.97990729166668,138.98694531249998L116.13020277777778,136.171078125L116.53713489583333,137.89083593750001L118.55194513888888,135.03809375L118.86529704861111,135.9655L118.98865277777777,135.446484375L119.15454496527778,135.4935L119.55013402777779,137.7599296875L119.64371423611111,134.5896015625L119.64655,136.0503125L119.90318663194444,138.0254296875L120.17541996527778,136.182140625L120.3739234375,135.722125L120.41645989583333,136.3761953125L120.91413645833333,137.80925L122.11508246527778,138.127296875L122.48940329861112,135.6368515625L122.56029739583333,136.497421875L122.65954913194444,133.206328125L123.143046875,135.627171875L123.73997517361111,135.6921640625L123.87892760416666,135.14871875L124.52406388888889,135.087875L125.96463194444445,133.85763281250001L126.34178854166666,135.1362734375L126.96991024305557,136.6112734375L126.99117847222223,133.0122734375L127.39527482638889,135.212328125L129.33493732638888,132.50524218750002L129.85671788194443,132.8361953125L130.2296208333333,136.57025L130.5415548611111,133.086484375L130.96975520833334,133.29667187500002L132.101225,132.79425L132.4897246527778,133.149171875L132.7491970486111,128.6158515625L134.64632309027778,130.848171875L134.8008722222222,131.334921875L135.3708607638889,134.4301171875L138.70288333333332,129.730859375L139.20623142361111,128.560078125L139.35085538194443,127.573671875L139.6528642361111,129.312328125L140.52769739583331,131.4183515625L140.84104930555557,126.546703125L141.00410572916667,129.6889140625L141.58827309027777,129.481953125L143.02175173611113,120.4153125L143.53360711805556,127.99727343750001L143.96606111111112,131.454765625L145.09469513888888,127.56030468750001L147.56180972222222,125.69396875000001L148.02262135416666,126.7048046875L213.5727215277778,101.2251015625L227.64661770833334,121.481L230.8070765625,45.01838281249999L231.62519444444445,115.03524999999999L234.84095069444444,120.18484375L236.56934878472222,116.68171875L237.36194479166667,114.41206249999999L238.3105078125,115.1186796875L239.63197378472222,106.57796875L241.27955260416667,91.85009375L242.1231923611111,100.889078125L243.2645873263889,101.152734375L243.62047569444445,97.4569375L244.76187065972223,97.0904921875L245.1432809027778,86.1533671875L245.1446987847222,94.1248203125L245.14611666666667,68.417875L245.14753454861113,66.8705078125L245.14895243055554,90.3681796875L245.1503703125,56.56901562499999L245.15178819444446,46.85291406249999L245.15320607638887,49.836562500000014L245.15462395833333,38.56525781249999L245.1560418402778,40.4836796875L245.15745972222223,45.705640625L245.15887760416666,32.886046875000005L245.16029548611112,9.058343750000006L245.16171336805556,2.6006093750000048L245.16313125,9.961320312499993L245.16454913194445,2.4411249999999995L245.1659670138889,-11.398984374999998L245.16738489583332,5.876031250000011" style="fill: none;" fill="none"></path></g></g></g></g></g></g><g transform="translate(74, 177)" clip-path="url(#clip_1)"><clipPath id="clip_1"><rect width="255" height="23"></rect></clipPath><g><g><line x1="0" y1="0" x2="0" y2="5" style="visibility: inherit;" fill="rgb(0, 0, 0)" stroke="rgb(204, 204, 204)" stroke-width="1px"></line><line x1="28.357638888888886" y1="0" x2="28.357638888888886" y2="5" style="visibility: inherit;" fill="rgb(0, 0, 0)" stroke="rgb(204, 204, 204)" stroke-width="1px"></line><line x1="56.71527777777777" y1="0" x2="56.71527777777777" y2="5" style="visibility: inherit;" fill="rgb(0, 0, 0)" stroke="rgb(204, 204, 204)" stroke-width="1px"></line><line x1="85.07291666666666" y1="0" x2="85.07291666666666" y2="5" style="visibility: inherit;" fill="rgb(0, 0, 0)" stroke="rgb(204, 204, 204)" stroke-width="1px"></line><line x1="113.43055555555554" y1="0" x2="113.43055555555554" y2="5" style="visibility: inherit;" fill="rgb(0, 0, 0)" stroke="rgb(204, 204, 204)" stroke-width="1px"></line><line x1="141.78819444444446" y1="0" x2="141.78819444444446" y2="5" style="visibility: inherit;" fill="rgb(0, 0, 0)" stroke="rgb(204, 204, 204)" stroke-width="1px"></line><line x1="170.14583333333331" y1="0" x2="170.14583333333331" y2="5" style="visibility: inherit;" fill="rgb(0, 0, 0)" stroke="rgb(204, 204, 204)" stroke-width="1px"></line><line x1="198.50347222222223" y1="0" x2="198.50347222222223" y2="5" style="visibility: inherit;" fill="rgb(0, 0, 0)" stroke="rgb(204, 204, 204)" stroke-width="1px"></line><line x1="226.8611111111111" y1="0" x2="226.8611111111111" y2="5" style="visibility: inherit;" fill="rgb(0, 0, 0)" stroke="rgb(204, 204, 204)" stroke-width="1px"></line><line x1="255.21875" y1="0" x2="255.21875" y2="5" style="visibility: inherit;" fill="rgb(0, 0, 0)" stroke="rgb(204, 204, 204)" stroke-width="1px"></line></g><g transform="translate(0, 8)"><text x="0" y="0" dx="0em" dy="0.95em" style="text-anchor: middle; visibility: hidden; font-family: &quot;Helvetica Neue&quot;, sans-serif; font-size: 12px; font-weight: 200;" fill="rgb(50, 49, 63)" stroke="none" stroke-width="1px">-20k</text><text x="28.357638888888886" y="0" dx="0em" dy="0.95em" style="text-anchor: middle; visibility: inherit; font-family: &quot;Helvetica Neue&quot;, sans-serif; font-size: 12px; font-weight: 200;" fill="rgb(50, 49, 63)" stroke="none" stroke-width="1px">0</text><text x="56.71527777777777" y="0" dx="0em" dy="0.95em" style="text-anchor: middle; visibility: hidden; font-family: &quot;Helvetica Neue&quot;, sans-serif; font-size: 12px; font-weight: 200;" fill="rgb(50, 49, 63)" stroke="none" stroke-width="1px">20k</text><text x="85.07291666666666" y="0" dx="0em" dy="0.95em" style="text-anchor: middle; visibility: inherit; font-family: &quot;Helvetica Neue&quot;, sans-serif; font-size: 12px; font-weight: 200;" fill="rgb(50, 49, 63)" stroke="none" stroke-width="1px">40k</text><text x="113.43055555555554" y="0" dx="0em" dy="0.95em" style="text-anchor: middle; visibility: hidden; font-family: &quot;Helvetica Neue&quot;, sans-serif; font-size: 12px; font-weight: 200;" fill="rgb(50, 49, 63)" stroke="none" stroke-width="1px">60k</text><text x="141.78819444444446" y="0" dx="0em" dy="0.95em" style="text-anchor: middle; visibility: inherit; font-family: &quot;Helvetica Neue&quot;, sans-serif; font-size: 12px; font-weight: 200;" fill="rgb(50, 49, 63)" stroke="none" stroke-width="1px">80k</text><text x="170.14583333333331" y="0" dx="0em" dy="0.95em" style="text-anchor: middle; visibility: hidden; font-family: &quot;Helvetica Neue&quot;, sans-serif; font-size: 12px; font-weight: 200;" fill="rgb(50, 49, 63)" stroke="none" stroke-width="1px">100k</text><text x="198.50347222222223" y="0" dx="0em" dy="0.95em" style="text-anchor: middle; visibility: inherit; font-family: &quot;Helvetica Neue&quot;, sans-serif; font-size: 12px; font-weight: 200;" fill="rgb(50, 49, 63)" stroke="none" stroke-width="1px">120k</text><text x="226.8611111111111" y="0" dx="0em" dy="0.95em" style="text-anchor: middle; visibility: hidden; font-family: &quot;Helvetica Neue&quot;, sans-serif; font-size: 12px; font-weight: 200;" fill="rgb(50, 49, 63)" stroke="none" stroke-width="1px">140k</text><text x="255.21875" y="0" dx="0em" dy="0.95em" style="text-anchor: middle; visibility: hidden; font-family: &quot;Helvetica Neue&quot;, sans-serif; font-size: 12px; font-weight: 200;" fill="rgb(50, 49, 63)" stroke="none" stroke-width="1px">160k</text></g><line x1="0" y1="0" x2="255.21875" y2="0" fill="rgb(0, 0, 0)" stroke="rgb(204, 204, 204)" stroke-width="1px"></line></g></g></g></g></svg>