<svg viewBox="0 0 330 200" xmlns="http://www.w3.org/2000/svg"><g><g><g><g><g><line x1="74.78125" y1="177" x2="69.78125" y2="177" style="visibility: inherit;" fill="rgb(0, 0, 0)" stroke="rgb(204, 204, 204)" stroke-width="1px"></line><line x1="74.78125" y1="154.875" x2="69.78125" y2="154.875" style="visibility: inherit;" fill="rgb(0, 0, 0)" stroke="rgb(204, 204, 204)" stroke-width="1px"></line><line x1="74.78125" y1="132.75" x2="69.78125" y2="132.75" style="visibility: inherit;" fill="rgb(0, 0, 0)" stroke="rgb(204, 204, 204)" stroke-width="1px"></line><line x1="74.78125" y1="110.625" x2="69.78125" y2="110.625" style="visibility: inherit;" fill="rgb(0, 0, 0)" stroke="rgb(204, 204, 204)" stroke-width="1px"></line><line x1="74.78125" y1="88.5" x2="69.78125" y2="88.5" style="visibility: inherit;" fill="rgb(0, 0, 0)" stroke="rgb(204, 204, 204)" stroke-width="1px"></line><line x1="74.78125" y1="66.375" x2="69.78125" y2="66.375" style="visibility: inherit;" fill="rgb(0, 0, 0)" stroke="rgb(204, 204, 204)" stroke-width="1px"></line><line x1="74.78125" y1="44.25" x2="69.78125" y2="44.25" style="visibility: inherit;" fill="rgb(0, 0, 0)" stroke="rgb(204, 204, 204)" stroke-width="1px"></line><line x1="74.78125" y1="22.125" x2="69.78125" y2="22.125" style="visibility: inherit;" fill="rgb(0, 0, 0)" stroke="rgb(204, 204, 204)" stroke-width="1px"></line><line x1="74.78125" y1="0" x2="69.78125" y2="0" style="visibility: inherit;" fill="rgb(0, 0, 0)" stroke="rgb(204, 204, 204)" stroke-width="1px"></line></g><g transform="translate(64.78125, 0)"><text x="0" y="177" dx="0em" dy="0.3em" style="text-anchor: end; visibility: hidden; font-family: &quot;Helvetica Neue&quot;, sans-serif; font-size: 12px; font-weight: 200;" fill="rgb(50, 49, 63)" stroke="none" stroke-width="1px">-5e+4</text><text x="0" y="154.875" dx="0em" dy="0.3em" style="text-anchor: end; visibility: inherit; font-family: &quot;Helvetica Neue&quot;, sans-serif; font-size: 12px; font-weight: 200;" fill="rgb(50, 49, 63)" stroke="none" stroke-width="1px">0</text><text x="0" y="132.75" dx="0em" dy="0.3em" style="text-anchor: end; visibility: hidden; font-family: &quot;Helvetica Neue&quot;, sans-serif; font-size: 12px; font-weight: 200;" fill="rgb(50, 49, 63)" stroke="none" stroke-width="1px">5e+4</text><text x="0" y="110.625" dx="0em" dy="0.3em" style="text-anchor: end; visibility: inherit; font-family: &quot;Helvetica Neue&quot;, sans-serif; font-size: 12px; font-weight: 200;" fill="rgb(50, 49, 63)" stroke="none" stroke-width="1px">1e+5</text><text x="0" y="88.5" dx="0em" dy="0.3em" style="text-anchor: end; visibility: hidden; font-family: &quot;Helvetica Neue&quot;, sans-serif; font-size: 12px; font-weight: 200;" fill="rgb(50, 49, 63)" stroke="none" stroke-width="1px">1.5e+5</text><text x="0" y="66.375" dx="0em" dy="0.3em" style="text-anchor: end; visibility: inherit; font-family: &quot;Helvetica Neue&quot;, sans-serif; font-size: 12px; font-weight: 200;" fill="rgb(50, 49, 63)" stroke="none" stroke-width="1px">2e+5</text><text x="0" y="44.25" dx="0em" dy="0.3em" style="text-anchor: end; visibility: hidden; font-family: &quot;Helvetica Neue&quot;, sans-serif; font-size: 12px; font-weight: 200;" fill="rgb(50, 49, 63)" stroke="none" stroke-width="1px">2.5e+5</text><text x="0" y="22.125" dx="0em" dy="0.3em" style="text-anchor: end; visibility: inherit; font-family: &quot;Helvetica Neue&quot;, sans-serif; font-size: 12px; font-weight: 200;" fill="rgb(50, 49, 63)" stroke="none" stroke-width="1px">3e+5</text><text x="0" y="0" dx="0em" dy="0.3em" style="text-anchor: end; visibility: hidden; font-family: &quot;Helvetica Neue&quot;, sans-serif; font-size: 12px; font-weight: 200;" fill="rgb(50, 49, 63)" stroke="none" stroke-width="1px">3.5e+5</text></g><line x1="74.78125" y1="0" x2="74.78125" y2="177" fill="rgb(0, 0, 0)" stroke="rgb(204, 204, 204)" stroke-width="1px"></line></g></g><g transform="translate(74, 0)" clip-path="url(#clip_0)"><clipPath id="clip_0"><rect width="255" height="177"></rect></clipPath><g><g><g><line x1="0" y1="0" x2="0" y2="177" fill="rgb(0, 0, 0)" stroke="rgb(60, 60, 60)" stroke-width="1px" opacity="0.25"></line><line x1="28.357638888888886" y1="0" x2="28.357638888888886" y2="177" fill="rgb(0, 0, 0)" stroke="rgb(60, 60, 60)" stroke-width="1px" opacity="0.25"></line><line x1="56.71527777777777" y1="0" x2="56.71527777777777" y2="177" fill="rgb(0, 0, 0)" stroke="rgb(60, 60, 60)" stroke-width="1px" opacity="0.25"></line><line x1="85.07291666666666" y1="0" x2="85.07291666666666" y2="177" fill="rgb(0, 0, 0)" stroke="rgb(60, 60, 60)" stroke-width="1px" opacity="0.25"></line><line x1="113.43055555555554" y1="0" x2="113.43055555555554" y2="177" fill="rgb(0, 0, 0)" stroke="rgb(60, 60, 60)" stroke-width="1px" opacity="0.25"></line><line x1="141.78819444444446" y1="0" x2="141.78819444444446" y2="177" fill="rgb(0, 0, 0)" stroke="rgb(60, 60, 60)" stroke-width="1px" opacity="0.25"></line><line x1="170.14583333333331" y1="0" x2="170.14583333333331" y2="177" fill="rgb(0, 0, 0)" stroke="rgb(60, 60, 60)" stroke-width="1px" opacity="0.25"></line><line x1="198.50347222222223" y1="0" x2="198.50347222222223" y2="177" fill="rgb(0, 0, 0)" stroke="rgb(60, 60, 60)" stroke-width="1px" opacity="0.25"></line><line x1="226.8611111111111" y1="0" x2="226.8611111111111" y2="177" fill="rgb(0, 0, 0)" stroke="rgb(60, 60, 60)" stroke-width="1px" opacity="0.25"></line><line x1="255.21875" y1="0" x2="255.21875" y2="177" fill="rgb(0, 0, 0)" stroke="rgb(60, 60, 60)" stroke-width="1px" opacity="0.25"></line></g><g><line x1="0" y1="177" x2="255.21875" y2="177" fill="rgb(0, 0, 0)" stroke="rgb(60, 60, 60)" stroke-width="1px" opacity="0.25"></line><line x1="0" y1="154.875" x2="255.21875" y2="154.875" fill="rgb(0, 0, 0)" stroke="rgb(60, 60, 60)" stroke-width="1px" opacity="0.25"></line><line x1="0" y1="132.75" x2="255.21875" y2="132.75" fill="rgb(0, 0, 0)" stroke="rgb(60, 60, 60)" stroke-width="1px" opacity="0.25"></line><line x1="0" y1="110.625" x2="255.21875" y2="110.625" fill="rgb(0, 0, 0)" stroke="rgb(60, 60, 60)" stroke-width="1px" opacity="0.25"></line><line x1="0" y1="88.5" x2="255.21875" y2="88.5" fill="rgb(0, 0, 0)" stroke="rgb(60, 60, 60)" stroke-width="1px" opacity="0.25"></line><line x1="0" y1="66.375" x2="255.21875" y2="66.375" fill="rgb(0, 0, 0)" stroke="rgb(60, 60, 60)" stroke-width="1px" opacity="0.25"></line><line x1="0" y1="44.25" x2="255.21875" y2="44.25" fill="rgb(0, 0, 0)" stroke="rgb(60, 60, 60)" stroke-width="1px" opacity="0.25"></line><line x1="0" y1="22.125" x2="255.21875" y2="22.125" fill="rgb(0, 0, 0)" stroke="rgb(60, 60, 60)" stroke-width="1px" opacity="0.25"></line><line x1="0" y1="0" x2="255.21875" y2="0" fill="rgb(0, 0, 0)" stroke="rgb(60, 60, 60)" stroke-width="1px" opacity="0.25"></line></g></g></g><g><g><line x1="0" y1="154.875" x2="255.21875" y2="154.875" fill="rgb(0, 0, 0)" stroke="rgb(153, 153, 153)" stroke-width="1.5px"></line></g></g><g><g><line x1="28.357638888888886" y1="0" x2="28.357638888888886" y2="177" fill="rgb(0, 0, 0)" stroke="rgb(153, 153, 153)" stroke-width="1.5px"></line></g></g><g><g><g><g><g><path stroke="rgb(255, 112, 67)" stroke-width="2px" d="M29.17433888888889,154.8044765625L29.208368055555557,154.8052771381579L29.333141666666666,154.8066655904059L29.528809374999998,154.80809986096975L29.591196180555556,154.80890344672596L29.724477083333333,154.80903584870714L29.789699652777777,154.80973901649892L29.846414930555557,154.80951913490986L29.85775798611111,154.81062600746165L29.880444097222224,154.80847169888727L29.887533506944447,154.80797008645087L29.95984548611111,154.8076181272595L29.989621006944446,154.8072061711236L30.043500520833334,154.8064667496602L30.046336284722223,154.8048317664658L30.129991319444443,154.80523795983268L30.189542361111112,154.804557428158L30.3072265625,154.8049872087246L30.321405381944444,154.80537582835115L30.39938888888889,154.8038094512537L30.45043263888889,154.80376014201082L30.4858796875,154.8047982740996L30.492969097222222,154.8035870754668L30.494386979166666,154.8043449115597L30.55252013888889,154.8042920555704L30.5879671875,154.8050509449795L30.61632482638889,154.8047550505482L30.637593055555556,154.80393770754054L30.701397743055555,154.80339202342486L30.783634895833334,154.80401790773055L31.020421180555555,154.8048347417824L31.23593923611111,154.8050983665191L31.28414722222222,154.80439209445763L31.319594270833335,154.8049875116609L31.573395138888888,154.80477199868233L31.584738194444444,154.80556229031987L31.691079340277778,154.80522564180075L31.76480920138889,154.80557189606984L31.78040590277778,154.80588230436132L31.815852951388887,154.8051290733178L31.956223263888887,154.8042641127178L32.010102777777774,154.8047964577677L32.02144583333333,154.8037576498113L32.04980347222222,154.80276901606987L32.06681805555556,154.80409213919583L32.068235937500006,154.80427026196034L32.13771215277777,154.80360863642804L32.197263194444446,154.80380035984854L32.27524670138889,154.80361802976563L32.31069375,154.80351668102293L32.46524288194444,154.80290459570048L32.47233229166667,154.80306245135802L32.55882309027778,154.80334319851798L32.57016614583333,154.8017572268118L32.58009131944444,154.80164855623104L32.641060243055556,154.80119029703175L32.719043750000004,154.80060482411753L32.75307291666667,154.80043850396933L33.118886458333336,154.79935362022127L33.13590104166666,154.79954821726704L33.36701579861111,154.79669002295617L33.45776024305556,154.79537872133332L33.46484965277778,154.79163735418228L33.50738611111112,154.7875373003499L33.70447170138889,154.78659596989104L34.19789461805556,154.7787729252931L34.23617743055556,154.77032192377783L34.280131770833336,154.76716658745198L34.48288888888889,154.7625283401905L34.50982864583334,154.7555110702367L34.68706388888889,154.74492106159863L34.69415329861111,154.74526948383559L34.767883159722224,154.72530865220003L35.17906892361111,154.7159710186071L35.319439236111116,154.7069384654307L35.37757239583333,154.7058714120074L35.410183680555555,154.6846330230471L35.448466493055555,154.6714051372708L35.70652100694445,154.66420342220638L35.892263541666665,154.65222433004706L35.957486111111116,154.64585568385672L35.974500694444444,154.63186037317507L36.18151145833334,154.62641534363908L36.2410625,154.62848535599306L36.35023940972222,154.62233387837253L36.47926666666667,154.61607163844974L36.812468923611114,154.59090840765595L36.85925902777778,154.57859258050973L37.05209097222222,154.5593008692669L37.50581319444444,154.54082539055224L37.51006684027778,154.52869909043508L37.810657812500004,154.50699206073858L37.91558107638889,154.49578789652315L38.10132361111111,154.48638187894596L38.650043923611115,154.4285617542512L38.817353993055555,154.41314940800126L38.96056006944444,154.3911610097953L39.43696840277778,154.37118491782525L39.573085069444446,154.36148293658638L39.737559375000004,154.33462896871129L39.91904826388889,154.30401647285302L39.99986753472222,154.30400466906377L40.12464114583334,154.2848278933325L40.47060434027778,154.27966868596508L40.571273958333336,154.23758518075826L40.71164427083333,154.19211840369425L40.745673437499995,154.15660529184544L40.898804687500004,154.15978815842817L41.022160416666665,154.1415577096737L41.15544131944445,154.12623585930476L41.319915625,154.1335826861744L41.385138194444444,154.12701651673686L41.543940972222224,154.10731332578607L41.57088072916667,154.11258370491987L42.12527256944445,154.1101156334306L42.25004618055556,154.0971498656466L42.342208506944445,154.0733879378864L42.390416493055554,154.02093030215116L42.671157118055554,154.00245341657754L42.749140625,153.98761498012783L42.76331944444445,153.97943213020804L42.92779375,154.00688687962534L42.93771892361111,153.98630892446982L43.306368229166665,153.9561523821924L43.67927118055555,153.93435608678618L43.8082984375,153.92253850470178L44.16135104166667,153.88181263820394L44.422241319444446,153.8938067816814L44.837680729166664,153.89299969625355L45.01633385416667,153.89664301198044L45.29423871527778,153.8920399561178L45.32826788194444,153.87325320899686L45.34244670138889,153.86339057531413L45.37364010416666,153.85212885321315L45.56221840277778,153.848340418498L46.21444409722222,153.84519356226517L46.28817395833334,153.83735560806753L46.34488923611111,153.79533701908218L46.346307118055556,153.78478245319482L47.13464947916667,153.7392679790688L47.53165642361111,153.73917399362873L47.798218229166665,153.70937967072857L47.839336805555554,153.67959864825718L47.99672170138889,153.64904139274788L48.227836458333336,153.6314822884649L48.25194045138889,153.6309107782492L48.34126701388889,153.666142128915L48.4532796875,153.67839416809412L48.57096388888888,153.6849890882253L48.92118072916667,153.65620208952458L49.05020798611111,153.65028926265614L49.05304375,153.63768720999317L49.193414062500004,153.63702759049053L49.26856180555556,153.63113776059998L49.2955015625,153.67722223045263L49.42878246527778,153.66697414728685L49.55497395833333,153.66705720131358L50.02003923611111,153.63150378377466L50.21570694444444,153.61236586531973L50.241228819444444,153.57427509728214L50.62405694444445,153.58450614268094L50.93599097222222,153.56663169959677L51.08628645833333,153.55705774805395L51.46627881944445,153.52503017537057L51.72575121527778,153.51199707934117L51.790973784722226,153.47339924542797L52.29999340277778,153.42151431970066L52.42334913194445,153.39204773087516L52.446035243055555,153.34284276156524L52.55095850694445,153.31946641470716L52.69983611111111,153.30180867922198L53.09542517361111,153.2846237876306L54.31338576388889,153.24107246302665L54.59270850694444,153.199082989703L54.61964826388889,153.18627988591936L55.06202743055555,153.18502447544134L55.39664756944445,153.13501909781164L55.39948333333333,153.08778101581706L55.51858541666667,153.0668801016006L55.60791197916667,153.06295525548026L55.62918020833333,152.98585726859207L55.847534027777776,152.89585826005984L55.973725520833334,152.8891784105881L56.002083159722226,152.91537916337904L56.05596267361111,152.89045769226823L56.407597395833335,152.8664588760924L56.45864114583333,152.83825009777988L57.143478124999994,152.8003477441572L57.29377361111111,152.82518492292232L57.40011475694445,152.81518748529737L57.65816927083333,152.79345408829053L57.79003229166666,152.7976023513433L58.48763020833333,152.82323953812178L58.657776041666665,152.80663320147505L59.006575,152.75858296720764L59.053365104166666,152.67327951414515L59.12284131944445,152.66272929709544L59.39082100694444,152.6051329688982L60.306772743055554,152.58277783605337L61.266678819444444,152.61452059934544L61.92741180555556,152.51479865653505L62.710082638888885,152.48593414242757L62.87881059027777,152.44462760316355L62.99507690972222,152.35072183499125L63.36514409722222,152.3296016827333L65.19421180555555,152.24421163161546L65.40831197916665,152.19035675749825L65.64084461805555,152.10114971453385L65.77837916666667,152.04767611025332L66.29874184027778,152.0372107648504L66.52843871527779,152.00459527429567L66.67731631944444,152.00432187967854L66.78507534722222,151.94039039482422L67.2473048611111,151.9571229178445L67.25439427083333,151.90498441511497L67.34088506944445,151.8883986689138L67.37349635416668,151.84112059889188L67.42028645833334,151.8092940468118L67.86691927083334,151.7879859702536L67.90661996527777,151.7523463185377L67.91938090277777,151.78342367887382L68.0640048611111,151.7542554906719L68.08669097222223,151.73536068379104L68.48369791666666,151.71456645134828L68.61272517361111,151.62461605620888L69.43651458333333,151.6071594505872L70.12702309027777,151.5078713180244L71.58460572916665,151.44225488934453L73.43210590277778,151.38895951759582L73.51008940972223,151.31212747208394L74.49126371527777,151.15687781080885L74.5848439236111,151.1293614359773L76.17428958333333,151.07853759706597L83.77413680555556,150.83235055610453L86.97996788194443,150.76665975830542L92.32396493055555,150.53962311840877L149.7056472222222,148.96506123623288L171.92952881944444,147.61692331571723L172.75615399305556,146.2543798903797L172.88234548611112,145.15539944039278L173.73449253472222,144.23013383228232L174.1414246527778,141.0111720505894L174.28463072916665,141.28450140803255L175.4501296875,139.22761720471522L175.55930659722222,138.20746407798742L177.9739595486111,137.97522200612488L178.77931649305555,134.73350273518372L179.21602413194444,134.7846878913531L179.64706024305556,129.68201812563467L179.73922256944442,130.15682803182293L180.01145590277775,129.19026120519996L180.09936458333334,130.49674582687132L181.15852239583333,130.28056686918362L182.78766875,129.3391556900755L182.81177274305557,128.54265558981623L183.41011892361112,123.2488758901994L184.0765234375,117.01592037148112L184.19420763888888,114.55054095151664L185.6546260416667,113.0757563094879L186.8229607638889,111.4197072019745L188.41098854166665,105.3265854270826L189.5764875,102.47491102499642L193.47991649305555,96.81165769592904L194.3646748263889,92.3029159107074L196.70276215277778,80.83604955400307L207.75940555555556,66.64309600484322L209.8890642361111,53.01239827935065L220.37571909722223,40.57375790453378L242.9554890625,25.84862530157318" style="fill: none;" fill="none"></path></g></g></g></g><g opacity="0.2"><g><g><g><path stroke="rgb(255, 112, 67)" stroke-width="2px" d="M29.17433888888889,154.8044765625L29.208368055555557,154.80599765624999L29.333141666666666,154.80903984374999L29.528809374999998,154.811598046875L29.591196180555556,154.811390625L29.724477083333333,154.809523828125L29.789699652777777,154.812704296875L29.846414930555557,154.80848671875L29.85775798611111,154.816299609375L29.880444097222224,154.79659453125L29.887533506944447,154.8050296875L29.95984548611111,154.80544453125L29.989621006944446,154.804545703125L30.043500520833334,154.801503515625L30.046336284722223,154.793483203125L30.129991319444443,154.808141015625L30.189542361111112,154.799567578125L30.3072265625,154.80821015625L30.321405381944444,154.8083484375L30.39938888888889,154.79161640625L30.45043263888889,154.8033703125L30.4858796875,154.813119140625L30.492969097222222,154.793759765625L30.494386979166666,154.8105609375L30.55252013888889,154.803854296875L30.5879671875,154.811390625L30.61632482638889,154.8022640625L30.637593055555556,154.797009375L30.701397743055555,154.798737890625L30.783634895833334,154.809385546875L31.020421180555555,154.811874609375L31.23593923611111,154.80738046875L31.28414722222222,154.79825390625L31.319594270833335,154.8101806640625L31.573395138888888,154.802886328125L31.584738194444444,154.812496875L31.691079340277778,154.8022640625L31.76480920138889,154.808625L31.78040590277778,154.808625L31.815852951388887,154.798461328125L31.956223263888887,154.79659453125L32.010102777777774,154.809523828125L32.02144583333333,154.7945203125L32.04980347222222,154.79396718750002L32.06681805555556,154.815884765625L32.068235937500006,154.805859375L32.13771215277777,154.79770078125L32.197263194444446,154.805513671875L32.27524670138889,154.8019875L32.31069375,154.802609765625L32.46524288194444,154.79742421875L32.47233229166667,154.8044765625L32.55882309027778,154.805859375L32.57016614583333,154.787537109375L32.58009131944444,154.800673828125L32.641060243055556,154.797078515625L32.719043750000004,154.79534999999998L32.75307291666667,154.7989453125L33.118886458333336,154.789611328125L33.13590104166666,154.80129609375L33.36701579861111,154.7710125L33.45776024305556,154.78359609375L33.46484965277778,154.7580140625L33.50738611111112,154.75068515625L33.70447170138889,154.77813398437502L34.19789461805556,154.708440234375L34.23617743055556,154.694335546875L34.280131770833336,154.73879296875L34.48288888888889,154.72081640625L34.50982864583334,154.692399609375L34.68706388888889,154.649670703125L34.69415329861111,154.748403515625L34.767883159722224,154.54575234375L35.17906892361111,154.631970703125L35.319439236111116,154.62567890625002L35.37757239583333,154.696271484375L35.410183680555555,154.493551171875L35.448466493055555,154.55238984375L35.70652100694445,154.59940546875L35.892263541666665,154.544438671875L35.957486111111116,154.58855039062502L35.974500694444444,154.50592734375L36.18151145833334,154.57741875L36.2410625,154.6471125L36.35023940972222,154.566978515625L36.47926666666667,154.55971875L36.812468923611114,154.364465625L36.85925902777778,154.46776171875L37.05209097222222,154.385691796875L37.50581319444444,154.37456015625L37.51006684027778,154.419570703125L37.810657812500004,154.3116421875L37.91558107638889,154.394956640625L38.10132361111111,154.401732421875L38.650043923611115,153.908206640625L38.817353993055555,154.27444453125L38.96056006944444,154.1932734375L39.43696840277778,154.191406640625L39.573085069444446,154.27416796875L39.737559375000004,154.092950390625L39.91904826388889,154.028511328125L39.99986753472222,154.3038984375L40.12464114583334,154.112240625L40.47060434027778,154.23323671875L40.571273958333336,153.858840234375L40.71164427083333,153.782923828125L40.745673437499995,153.836991796875L40.898804687500004,154.18843359375L41.022160416666665,153.97748554687502L41.15544131944445,153.988340625L41.319915625,154.199703515625L41.385138194444444,154.067921484375L41.543940972222224,153.9299859375L41.57088072916667,154.160016796875L42.12527256944445,154.087903125L42.25004618055556,153.98045859375L42.342208506944445,153.859531640625L42.390416493055554,153.548813671875L42.671157118055554,153.836162109375L42.749140625,153.85406953125L42.76331944444445,153.90578671875L42.92779375,154.25397890624998L42.93771892361111,153.8011078125L43.306368229166665,153.684744140625L43.67927118055555,153.73818984375L43.8082984375,153.81618046875L44.16135104166667,153.51528046875L44.422241319444446,154.00175390625L44.837680729166664,153.8857359375L45.01633385416667,153.9294328125L45.29423871527778,153.8506125L45.32826788194444,153.70417265625L45.34244670138889,153.774626953125L45.37364010416666,153.75077343750002L45.56221840277778,153.81424453125L46.21444409722222,153.816871875L46.28817395833334,153.7668140625L46.34488923611111,153.417169921875L46.346307118055556,153.68979140625L47.13464947916667,153.329637890625L47.53165642361111,153.738328125L47.798218229166665,153.441230859375L47.839336805555554,153.41156953125L47.99672170138889,153.374026171875L48.227836458333336,153.473450390625L48.25194045138889,153.6257671875L48.34126701388889,153.98322421875L48.4532796875,153.7886625L48.57096388888888,153.744343359375L48.92118072916667,153.397119140625L49.05020798611111,153.597073828125L49.05304375,153.52426875L49.193414062500004,153.631091015625L49.26856180555556,153.578129296875L49.2955015625,154.091982421875L49.42878246527778,153.57474140624998L49.55497395833333,153.6678046875L50.02003923611111,153.311523046875L50.21570694444444,153.440124609375L50.241228819444444,153.231458203125L50.62405694444445,153.676585546875L50.93599097222222,153.40576171875L51.08628645833333,153.4708921875L51.46627881944445,153.23678203125002L51.72575121527778,153.39469921875L51.790973784722226,153.12601875000001L52.29999340277778,152.95455L52.42334913194445,153.1268484375L52.446035243055555,152.899998046875L52.55095850694445,153.109079296875L52.69983611111111,153.1428890625L53.09542517361111,153.12995976562502L54.31338576388889,152.849110546875L54.59270850694444,152.821177734375L54.61964826388889,153.071051953125L55.06202743055555,153.17372578125L55.39664756944445,152.684970703125L55.39948333333333,152.66263828125L55.51858541666667,152.878771875L55.60791197916667,153.027631640625L55.62918020833333,152.291975390625L55.847534027777776,152.0858671875L55.973725520833334,152.829059765625L56.002083159722226,153.1511859375L56.05596267361111,152.666164453125L56.407597395833335,152.65046953125L56.45864114583333,152.58437109375L57.143478124999994,152.4592265625L57.29377361111111,153.04871953125001L57.40011475694445,152.725210546875L57.65816927083333,152.597853515625L57.79003229166666,152.83493671875L58.48763020833333,153.05397421875L58.657776041666665,152.657176171875L59.006575,152.32613085937498L59.053365104166666,151.9055484375L59.12284131944445,152.56777734375L59.39082100694444,152.08676601562502L60.306772743055554,152.381581640625L61.266678819444444,152.90020546875L61.92741180555556,151.617301171875L62.710082638888885,152.22615351562501L62.87881059027777,152.07286875L62.99507690972222,151.505569921875L63.36514409722222,152.1395203125L65.19421180555555,151.47570117187502L65.40831197916665,151.705662890625L65.64084461805555,151.29828632812502L65.77837916666667,151.566413671875L66.29874184027778,151.94302265625L66.52843871527779,151.711055859375L66.67731631944444,152.001861328125L66.78507534722222,151.36500703125L67.2473048611111,152.107715625L67.25439427083333,151.435737890625L67.34088506944445,151.739126953125L67.37349635416668,151.41561796875L67.42028645833334,151.522855078125L67.86691927083334,151.59621328125002L67.90661996527777,151.431589453125L67.91938090277777,152.063119921875L68.0640048611111,151.491741796875L68.08669097222223,151.565307421875L68.48369791666666,151.527418359375L68.61272517361111,150.8150625L69.43651458333333,151.45005L70.12702309027777,150.614278125L71.58460572916665,150.85170703125L73.43210590277778,150.909301171875L73.51008940972223,150.6206390625L74.49126371527777,149.759630859375L74.5848439236111,150.8817140625L76.17428958333333,150.621123046875L83.77413680555556,148.6166671875L86.97996788194443,150.175442578125L92.32396493055555,148.496293359375L149.7056472222222,134.79400429687502L171.92952881944444,135.48368203125L172.75615399305556,133.9914890625L172.88234548611112,135.264575390625L173.73449253472222,135.902743359375L174.1414246527778,112.040516015625L174.28463072916665,143.744465625L175.4501296875,120.715659375L175.55930659722222,129.0260859375L177.9739595486111,135.885043359375L178.77931649305555,105.55802929687499L179.21602413194444,135.245354296875L179.64706024305556,83.757990234375L179.73922256944442,134.4301171875L180.01145590277775,120.491159765625L180.09936458333334,142.255107421875L181.15852239583333,128.33495625L182.78766875,120.866455078125L182.81177274305557,121.37415468750001L183.41011892361112,75.60485859375L184.0765234375,60.919320703124995L184.19420763888888,92.36212617187499L185.6546260416667,99.80269453125L186.8229607638889,96.515265234375L188.41098854166665,50.488489453125L189.5764875,76.80984140624999L193.47991649305555,45.84237773437499L194.3646748263889,51.72423984375001L196.70276215277778,-22.365747656250022" style="fill: none;" fill="none"></path></g></g></g></g></g></g><g transform="translate(74, 177)" clip-path="url(#clip_1)"><clipPath id="clip_1"><rect width="255" height="23"></rect></clipPath><g><g><line x1="0" y1="0" x2="0" y2="5" style="visibility: inherit;" fill="rgb(0, 0, 0)" stroke="rgb(204, 204, 204)" stroke-width="1px"></line><line x1="28.357638888888886" y1="0" x2="28.357638888888886" y2="5" style="visibility: inherit;" fill="rgb(0, 0, 0)" stroke="rgb(204, 204, 204)" stroke-width="1px"></line><line x1="56.71527777777777" y1="0" x2="56.71527777777777" y2="5" style="visibility: inherit;" fill="rgb(0, 0, 0)" stroke="rgb(204, 204, 204)" stroke-width="1px"></line><line x1="85.07291666666666" y1="0" x2="85.07291666666666" y2="5" style="visibility: inherit;" fill="rgb(0, 0, 0)" stroke="rgb(204, 204, 204)" stroke-width="1px"></line><line x1="113.43055555555554" y1="0" x2="113.43055555555554" y2="5" style="visibility: inherit;" fill="rgb(0, 0, 0)" stroke="rgb(204, 204, 204)" stroke-width="1px"></line><line x1="141.78819444444446" y1="0" x2="141.78819444444446" y2="5" style="visibility: inherit;" fill="rgb(0, 0, 0)" stroke="rgb(204, 204, 204)" stroke-width="1px"></line><line x1="170.14583333333331" y1="0" x2="170.14583333333331" y2="5" style="visibility: inherit;" fill="rgb(0, 0, 0)" stroke="rgb(204, 204, 204)" stroke-width="1px"></line><line x1="198.50347222222223" y1="0" x2="198.50347222222223" y2="5" style="visibility: inherit;" fill="rgb(0, 0, 0)" stroke="rgb(204, 204, 204)" stroke-width="1px"></line><line x1="226.8611111111111" y1="0" x2="226.8611111111111" y2="5" style="visibility: inherit;" fill="rgb(0, 0, 0)" stroke="rgb(204, 204, 204)" stroke-width="1px"></line><line x1="255.21875" y1="0" x2="255.21875" y2="5" style="visibility: inherit;" fill="rgb(0, 0, 0)" stroke="rgb(204, 204, 204)" stroke-width="1px"></line></g><g transform="translate(0, 8)"><text x="0" y="0" dx="0em" dy="0.95em" style="text-anchor: middle; visibility: hidden; font-family: &quot;Helvetica Neue&quot;, sans-serif; font-size: 12px; font-weight: 200;" fill="rgb(50, 49, 63)" stroke="none" stroke-width="1px">-20k</text><text x="28.357638888888886" y="0" dx="0em" dy="0.95em" style="text-anchor: middle; visibility: inherit; font-family: &quot;Helvetica Neue&quot;, sans-serif; font-size: 12px; font-weight: 200;" fill="rgb(50, 49, 63)" stroke="none" stroke-width="1px">0</text><text x="56.71527777777777" y="0" dx="0em" dy="0.95em" style="text-anchor: middle; visibility: hidden; font-family: &quot;Helvetica Neue&quot;, sans-serif; font-size: 12px; font-weight: 200;" fill="rgb(50, 49, 63)" stroke="none" stroke-width="1px">20k</text><text x="85.07291666666666" y="0" dx="0em" dy="0.95em" style="text-anchor: middle; visibility: inherit; font-family: &quot;Helvetica Neue&quot;, sans-serif; font-size: 12px; font-weight: 200;" fill="rgb(50, 49, 63)" stroke="none" stroke-width="1px">40k</text><text x="113.43055555555554" y="0" dx="0em" dy="0.95em" style="text-anchor: middle; visibility: hidden; font-family: &quot;Helvetica Neue&quot;, sans-serif; font-size: 12px; font-weight: 200;" fill="rgb(50, 49, 63)" stroke="none" stroke-width="1px">60k</text><text x="141.78819444444446" y="0" dx="0em" dy="0.95em" style="text-anchor: middle; visibility: inherit; font-family: &quot;Helvetica Neue&quot;, sans-serif; font-size: 12px; font-weight: 200;" fill="rgb(50, 49, 63)" stroke="none" stroke-width="1px">80k</text><text x="170.14583333333331" y="0" dx="0em" dy="0.95em" style="text-anchor: middle; visibility: hidden; font-family: &quot;Helvetica Neue&quot;, sans-serif; font-size: 12px; font-weight: 200;" fill="rgb(50, 49, 63)" stroke="none" stroke-width="1px">100k</text><text x="198.50347222222223" y="0" dx="0em" dy="0.95em" style="text-anchor: middle; visibility: inherit; font-family: &quot;Helvetica Neue&quot;, sans-serif; font-size: 12px; font-weight: 200;" fill="rgb(50, 49, 63)" stroke="none" stroke-width="1px">120k</text><text x="226.8611111111111" y="0" dx="0em" dy="0.95em" style="text-anchor: middle; visibility: hidden; font-family: &quot;Helvetica Neue&quot;, sans-serif; font-size: 12px; font-weight: 200;" fill="rgb(50, 49, 63)" stroke="none" stroke-width="1px">140k</text><text x="255.21875" y="0" dx="0em" dy="0.95em" style="text-anchor: middle; visibility: hidden; font-family: &quot;Helvetica Neue&quot;, sans-serif; font-size: 12px; font-weight: 200;" fill="rgb(50, 49, 63)" stroke="none" stroke-width="1px">160k</text></g><line x1="0" y1="0" x2="255.21875" y2="0" fill="rgb(0, 0, 0)" stroke="rgb(204, 204, 204)" stroke-width="1px"></line></g></g></g></g></svg>