<svg viewBox="0 0 330 200" xmlns="http://www.w3.org/2000/svg"><g><g><g><g><g><line x1="42.390625" y1="177" x2="37.390625" y2="177" style="visibility: inherit;" fill="rgb(0, 0, 0)" stroke="rgb(204, 204, 204)" stroke-width="1px"></line><line x1="42.390625" y1="162.25" x2="37.390625" y2="162.25" style="visibility: inherit;" fill="rgb(0, 0, 0)" stroke="rgb(204, 204, 204)" stroke-width="1px"></line><line x1="42.390625" y1="147.5" x2="37.390625" y2="147.5" style="visibility: inherit;" fill="rgb(0, 0, 0)" stroke="rgb(204, 204, 204)" stroke-width="1px"></line><line x1="42.390625" y1="132.75" x2="37.390625" y2="132.75" style="visibility: inherit;" fill="rgb(0, 0, 0)" stroke="rgb(204, 204, 204)" stroke-width="1px"></line><line x1="42.390625" y1="118" x2="37.390625" y2="118" style="visibility: inherit;" fill="rgb(0, 0, 0)" stroke="rgb(204, 204, 204)" stroke-width="1px"></line><line x1="42.390625" y1="103.25" x2="37.390625" y2="103.25" style="visibility: inherit;" fill="rgb(0, 0, 0)" stroke="rgb(204, 204, 204)" stroke-width="1px"></line><line x1="42.390625" y1="88.5" x2="37.390625" y2="88.5" style="visibility: inherit;" fill="rgb(0, 0, 0)" stroke="rgb(204, 204, 204)" stroke-width="1px"></line><line x1="42.390625" y1="73.75" x2="37.390625" y2="73.75" style="visibility: inherit;" fill="rgb(0, 0, 0)" stroke="rgb(204, 204, 204)" stroke-width="1px"></line><line x1="42.390625" y1="59" x2="37.390625" y2="59" style="visibility: inherit;" fill="rgb(0, 0, 0)" stroke="rgb(204, 204, 204)" stroke-width="1px"></line><line x1="42.390625" y1="44.25" x2="37.390625" y2="44.25" style="visibility: inherit;" fill="rgb(0, 0, 0)" stroke="rgb(204, 204, 204)" stroke-width="1px"></line><line x1="42.390625" y1="29.5" x2="37.390625" y2="29.5" style="visibility: inherit;" fill="rgb(0, 0, 0)" stroke="rgb(204, 204, 204)" stroke-width="1px"></line><line x1="42.390625" y1="14.75" x2="37.390625" y2="14.75" style="visibility: inherit;" fill="rgb(0, 0, 0)" stroke="rgb(204, 204, 204)" stroke-width="1px"></line><line x1="42.390625" y1="0" x2="37.390625" y2="0" style="visibility: inherit;" fill="rgb(0, 0, 0)" stroke="rgb(204, 204, 204)" stroke-width="1px"></line></g><g transform="translate(32.390625, 0)"><text x="0" y="177" dx="0em" dy="0.3em" style="text-anchor: end; visibility: hidden; font-family: &quot;Helvetica Neue&quot;, sans-serif; font-size: 12px; font-weight: 200;" fill="rgb(50, 49, 63)" stroke="none" stroke-width="1px">-30</text><text x="0" y="162.25" dx="0em" dy="0.3em" style="text-anchor: end; visibility: inherit; font-family: &quot;Helvetica Neue&quot;, sans-serif; font-size: 12px; font-weight: 200;" fill="rgb(50, 49, 63)" stroke="none" stroke-width="1px">-25</text><text x="0" y="147.5" dx="0em" dy="0.3em" style="text-anchor: end; visibility: hidden; font-family: &quot;Helvetica Neue&quot;, sans-serif; font-size: 12px; font-weight: 200;" fill="rgb(50, 49, 63)" stroke="none" stroke-width="1px">-20</text><text x="0" y="132.75" dx="0em" dy="0.3em" style="text-anchor: end; visibility: inherit; font-family: &quot;Helvetica Neue&quot;, sans-serif; font-size: 12px; font-weight: 200;" fill="rgb(50, 49, 63)" stroke="none" stroke-width="1px">-15</text><text x="0" y="118" dx="0em" dy="0.3em" style="text-anchor: end; visibility: hidden; font-family: &quot;Helvetica Neue&quot;, sans-serif; font-size: 12px; font-weight: 200;" fill="rgb(50, 49, 63)" stroke="none" stroke-width="1px">-10</text><text x="0" y="103.25" dx="0em" dy="0.3em" style="text-anchor: end; visibility: inherit; font-family: &quot;Helvetica Neue&quot;, sans-serif; font-size: 12px; font-weight: 200;" fill="rgb(50, 49, 63)" stroke="none" stroke-width="1px">-5</text><text x="0" y="88.5" dx="0em" dy="0.3em" style="text-anchor: end; visibility: hidden; font-family: &quot;Helvetica Neue&quot;, sans-serif; font-size: 12px; font-weight: 200;" fill="rgb(50, 49, 63)" stroke="none" stroke-width="1px">0</text><text x="0" y="73.75" dx="0em" dy="0.3em" style="text-anchor: end; visibility: inherit; font-family: &quot;Helvetica Neue&quot;, sans-serif; font-size: 12px; font-weight: 200;" fill="rgb(50, 49, 63)" stroke="none" stroke-width="1px">5</text><text x="0" y="59" dx="0em" dy="0.3em" style="text-anchor: end; visibility: hidden; font-family: &quot;Helvetica Neue&quot;, sans-serif; font-size: 12px; font-weight: 200;" fill="rgb(50, 49, 63)" stroke="none" stroke-width="1px">10</text><text x="0" y="44.25" dx="0em" dy="0.3em" style="text-anchor: end; visibility: inherit; font-family: &quot;Helvetica Neue&quot;, sans-serif; font-size: 12px; font-weight: 200;" fill="rgb(50, 49, 63)" stroke="none" stroke-width="1px">15</text><text x="0" y="29.5" dx="0em" dy="0.3em" style="text-anchor: end; visibility: hidden; font-family: &quot;Helvetica Neue&quot;, sans-serif; font-size: 12px; font-weight: 200;" fill="rgb(50, 49, 63)" stroke="none" stroke-width="1px">20</text><text x="0" y="14.75" dx="0em" dy="0.3em" style="text-anchor: end; visibility: inherit; font-family: &quot;Helvetica Neue&quot;, sans-serif; font-size: 12px; font-weight: 200;" fill="rgb(50, 49, 63)" stroke="none" stroke-width="1px">25</text><text x="0" y="0" dx="0em" dy="0.3em" style="text-anchor: end; visibility: hidden; font-family: &quot;Helvetica Neue&quot;, sans-serif; font-size: 12px; font-weight: 200;" fill="rgb(50, 49, 63)" stroke="none" stroke-width="1px">30</text></g><line x1="42.390625" y1="0" x2="42.390625" y2="177" fill="rgb(0, 0, 0)" stroke="rgb(204, 204, 204)" stroke-width="1px"></line></g></g><g transform="translate(42, 0)" clip-path="url(#clip_0)"><clipPath id="clip_0"><rect width="287" height="177"></rect></clipPath><g><g><g><line x1="0" y1="0" x2="0" y2="177" fill="rgb(0, 0, 0)" stroke="rgb(60, 60, 60)" stroke-width="1px" opacity="0.25"></line><line x1="31.95659722222222" y1="0" x2="31.95659722222222" y2="177" fill="rgb(0, 0, 0)" stroke="rgb(60, 60, 60)" stroke-width="1px" opacity="0.25"></line><line x1="63.91319444444444" y1="0" x2="63.91319444444444" y2="177" fill="rgb(0, 0, 0)" stroke="rgb(60, 60, 60)" stroke-width="1px" opacity="0.25"></line><line x1="95.86979166666666" y1="0" x2="95.86979166666666" y2="177" fill="rgb(0, 0, 0)" stroke="rgb(60, 60, 60)" stroke-width="1px" opacity="0.25"></line><line x1="127.82638888888889" y1="0" x2="127.82638888888889" y2="177" fill="rgb(0, 0, 0)" stroke="rgb(60, 60, 60)" stroke-width="1px" opacity="0.25"></line><line x1="159.78298611111111" y1="0" x2="159.78298611111111" y2="177" fill="rgb(0, 0, 0)" stroke="rgb(60, 60, 60)" stroke-width="1px" opacity="0.25"></line><line x1="191.73958333333331" y1="0" x2="191.73958333333331" y2="177" fill="rgb(0, 0, 0)" stroke="rgb(60, 60, 60)" stroke-width="1px" opacity="0.25"></line><line x1="223.69618055555557" y1="0" x2="223.69618055555557" y2="177" fill="rgb(0, 0, 0)" stroke="rgb(60, 60, 60)" stroke-width="1px" opacity="0.25"></line><line x1="255.65277777777777" y1="0" x2="255.65277777777777" y2="177" fill="rgb(0, 0, 0)" stroke="rgb(60, 60, 60)" stroke-width="1px" opacity="0.25"></line><line x1="287.609375" y1="0" x2="287.609375" y2="177" fill="rgb(0, 0, 0)" stroke="rgb(60, 60, 60)" stroke-width="1px" opacity="0.25"></line></g><g><line x1="0" y1="177" x2="287.609375" y2="177" fill="rgb(0, 0, 0)" stroke="rgb(60, 60, 60)" stroke-width="1px" opacity="0.25"></line><line x1="0" y1="162.25" x2="287.609375" y2="162.25" fill="rgb(0, 0, 0)" stroke="rgb(60, 60, 60)" stroke-width="1px" opacity="0.25"></line><line x1="0" y1="147.5" x2="287.609375" y2="147.5" fill="rgb(0, 0, 0)" stroke="rgb(60, 60, 60)" stroke-width="1px" opacity="0.25"></line><line x1="0" y1="132.75" x2="287.609375" y2="132.75" fill="rgb(0, 0, 0)" stroke="rgb(60, 60, 60)" stroke-width="1px" opacity="0.25"></line><line x1="0" y1="118" x2="287.609375" y2="118" fill="rgb(0, 0, 0)" stroke="rgb(60, 60, 60)" stroke-width="1px" opacity="0.25"></line><line x1="0" y1="103.25" x2="287.609375" y2="103.25" fill="rgb(0, 0, 0)" stroke="rgb(60, 60, 60)" stroke-width="1px" opacity="0.25"></line><line x1="0" y1="88.5" x2="287.609375" y2="88.5" fill="rgb(0, 0, 0)" stroke="rgb(60, 60, 60)" stroke-width="1px" opacity="0.25"></line><line x1="0" y1="73.75" x2="287.609375" y2="73.75" fill="rgb(0, 0, 0)" stroke="rgb(60, 60, 60)" stroke-width="1px" opacity="0.25"></line><line x1="0" y1="59" x2="287.609375" y2="59" fill="rgb(0, 0, 0)" stroke="rgb(60, 60, 60)" stroke-width="1px" opacity="0.25"></line><line x1="0" y1="44.25" x2="287.609375" y2="44.25" fill="rgb(0, 0, 0)" stroke="rgb(60, 60, 60)" stroke-width="1px" opacity="0.25"></line><line x1="0" y1="29.5" x2="287.609375" y2="29.5" fill="rgb(0, 0, 0)" stroke="rgb(60, 60, 60)" stroke-width="1px" opacity="0.25"></line><line x1="0" y1="14.75" x2="287.609375" y2="14.75" fill="rgb(0, 0, 0)" stroke="rgb(60, 60, 60)" stroke-width="1px" opacity="0.25"></line><line x1="0" y1="0" x2="287.609375" y2="0" fill="rgb(0, 0, 0)" stroke="rgb(60, 60, 60)" stroke-width="1px" opacity="0.25"></line></g></g></g><g><g><line x1="0" y1="88.5" x2="287.609375" y2="88.5" fill="rgb(0, 0, 0)" stroke="rgb(153, 153, 153)" stroke-width="1.5px"></line></g></g><g><g><line x1="31.95659722222222" y1="0" x2="31.95659722222222" y2="177" fill="rgb(0, 0, 0)" stroke="rgb(153, 153, 153)" stroke-width="1.5px"></line></g></g><g><g><g><g><g><path stroke="rgb(255, 112, 67)" stroke-width="2px" d="M34.04815651041667,144.18125L34.054547829861114,144.18125L34.15041762152778,143.63696955719558L34.20634166666667,143.20549396626927L34.22871128472222,142.5883249188054L34.346950694444445,142.65284189130932L34.38529861111111,142.30966932988323L34.46838576388889,142.31455590895388L34.54508159722222,142.6042336665644L37.285359809027774,142.36512617151948L37.39081657986112,142.03866730189034L37.44354496527777,142.13170105007947L37.54420824652778,142.1345736116917L37.553795225694444,141.68275453898823L37.74233914930556,141.76520487891943L38.12102482638889,141.60914031163284L38.12901397569445,141.4310209990715L38.21369895833333,141.38582231989787L38.264829513888884,141.58112220665708L38.38946024305555,141.7511857416428L40.40112803819444,142.06545409277547L40.60245460069444,142.23879088657952L40.73986796875,141.96639447228227L40.82934644097222,141.94661476843285L40.85331388888889,141.79009151901087L40.95877065972222,141.8289024747415L41.02907517361111,141.84375064442972L41.49723932291667,141.75966233839384L41.69217456597222,141.9944420301932L42.03411015625,141.74146117573179L42.08683854166667,141.40088383707757L42.95446015625,141.13510701772563L44.4068875,141.12600245628528L44.52033342013889,141.02303849045813L44.52672473958333,140.93092899757048L45.18023715277778,140.79189130103404L45.210595920138886,140.78027922968607L45.76024939236111,140.73231352842672L46.484066319444445,140.520605247452L46.70137118055556,140.53659354384422L47.38524236111111,140.28933242557923L47.40920980902778,140.29136096979778L48.01478732638889,140.42365032550572L48.353527256944446,140.37487478053347L48.42383177083333,140.25666809886906L48.54366901041667,140.29914747155766L48.60758220486111,140.22590240739814L49.5550953125,139.7333029110144L50.25654262152778,139.40182443597246L50.54095633680556,138.97412522679477L50.54255416666666,138.70075721455976L51.22962100694444,138.49199751364137L51.65783940972222,138.32278702117623L51.67381770833333,138.17061877859362L52.00297065972222,138.03376542138238L52.884972743055556,138.040093711973L52.923320659722215,137.91640444243362L53.51771336805556,137.73122817886565L53.70785512152778,137.02889051874658L53.79573576388889,136.96964500206823L54.17282361111111,136.97174640047254L54.2143671875,136.67820699081778L54.28307387152778,136.8017981987531L54.28946519097222,136.5991920024327L55.34882638888889,136.43534894560003L56.32190477430555,136.3801988824567L56.34427439236111,136.38593392350435L56.561579253472225,136.26193210905308L57.14638498263889,136.51935561603528L58.46459461805556,136.40047056358443L58.51412734375,136.23814446815248L58.854465104166664,135.9260466226966L59.458444791666665,135.81120200217117L59.50957534722222,135.50495590469887L59.64059739583333,135.08180375280537L59.675749652777775,135.1436439696762L60.188653038194445,134.941093870333L62.21789696180556,134.79569526615472L62.76914826388889,134.48042420766478L63.23251892361111,134.27046091527285L63.43064982638889,133.74956240100713L63.58244366319445,133.8708776293764L63.774183246527784,133.66656982676184L64.31744539930556,133.44581870137216L64.67855494791667,133.3762278535279L64.72968550347223,132.8710464134237L65.74270963541667,132.58234910446077L67.69525772569445,132.30408802464294L67.72242083333333,131.9430236611501L68.37433541666667,131.8024605873129L68.38711805555556,131.14123169498447L68.99589123263888,131.04397752454855L69.06140225694445,130.7351876239756L69.78042569444445,130.62322576572907L69.90665425347223,130.1536945687216L70.08401336805555,129.69424401156058L70.45470989583333,129.68638182394264L71.47252751736112,129.43961054946163L71.69622369791666,129.03313749841232L71.82724574652778,128.13261232936287L72.43282326388888,127.80153068183404L72.52070390624999,127.42980711611733L72.57503012152777,127.16900885460112L72.69646519097222,127.24773434108485L73.97952256944446,126.89451786704424L74.26393628472222,126.61349961353775L75.0964056423611,126.61871221840615L75.71316796875,126.10714764743278L76.2612236111111,125.09360995295066L76.29318020833333,124.97424785219695L76.56001779513889,124.99588574733448L77.24868246527778,124.70191996735102L77.67690086805557,124.05016107023235L77.99167335069444,123.50045412297196L78.59884869791667,123.15321931173213L79.43291588541666,123.0066466591458L79.69975347222221,122.85629382721437L79.76366666666667,122.40753765542615L80.66803836805555,122.3170960653745L80.88374539930557,121.71944702888128L81.41262708333333,121.75312742387919L81.43499670138888,121.3778136997872L81.44138802083333,121.5378452065419L83.53454513888889,120.92593438942718L84.99336380208332,120.50427764645357L85.48549539930555,119.97728647741036L85.52384331597223,119.61361976797214L85.61971310763889,119.26788231057063L85.90093116319444,119.12265639782493L86.55284574652777,118.56789013339309L88.01645789930556,118.16078820750826L88.28009982638889,117.84970910304256L88.59487230902776,117.56973796292932L89.03427552083333,117.52057663031856L89.75010329861111,117.36570636431762L90.35088732638889,117.02351052312073L90.50587682291666,117.01053446382045L91.04754114583334,116.35354319899966L91.32716137152778,116.09412626593601L92.19638081597223,115.8790885549184L92.96174131944446,115.5196170724106L93.11832864583333,114.84578015088485L94.42535347222223,114.36838949916425L94.70657152777778,114.08623797656969L94.79285434027777,113.33448900463708L94.87594149305555,113.52447764381341L95.06448541666667,113.43734236306983L97.9901118923611,113.06392056365388L98.44389557291666,112.41440340849586L98.52218923611112,111.95890050529181L98.6212546875,112.30488549738878L99.20606041666666,111.86033439835717L100.00976883680556,111.88430096091315L100.02574713541667,111.4633708270162L101.55007682291668,111.1398462181631L101.66512057291666,110.40617404297232L101.71145763888889,110.04086911475684L101.8984037326389,110.20990721324212L102.25471979166666,110.19610399118586L102.38094835069445,110.25743109499449L102.62541631944444,109.85168796806512L103.3508310763889,109.39433165357622L103.35242890625,109.09333597774516L103.44510303819445,108.80400237090976L104.80805190972222,108.46985212440084L104.96144357638889,107.83724189591379L105.79870642361111,107.34164269500808L106.46500147569445,106.82185341482732L106.48257760416668,106.51998056776235L106.62478446180555,106.46954501014672L107.048209375,106.23977800569048L107.11212256944444,105.81173769935116L107.60265633680555,105.38962642429473L107.81836336805554,104.7884762753011L107.853515625,104.43181614426594L107.98773333333334,104.03707202634796L108.22421215277778,103.62648982044485L108.71953940972223,103.95759084077244L108.93844210069445,103.72089425516903L109.08384461805555,103.61849232905789L109.36186701388888,103.08383059335972L109.79487890624999,102.84232253288856L109.93548793402778,102.49590277813422L111.03799053819444,101.46506249639604L111.35276302083334,100.55574374364055L111.42626319444445,99.3870443656723L112.2827,98.85146492761855L112.49521137152777,98.8856934349422L113.0177017361111,98.21587408994208L114.14257395833333,97.5761616796535L114.43018333333333,97.36917051131121L114.78649939236111,96.94319095948194L116.24851371527777,96.02512186217955L117.17845069444445,94.71948467422831L117.20561380208333,93.61816120548964L117.28390746527778,92.57165758381537L117.31426623263889,92.34886682521822L117.50281015625,91.79804264221663L117.77284340277778,91.35761337764971L118.46789939236112,90.72153953943598L118.95683532986111,90.11219808510549L119.32114053819444,89.4900407762394L119.37546675347222,89.26197419849815L120.11046848958334,88.54046427831437L120.38209956597223,88.40735535042747L121.21776458333333,87.31036981497344L121.40471067708333,86.39683283316784L121.41269982638889,86.07246204975253L121.41429765625001,85.30115334456647L121.45903689236111,85.17853801007965L121.66196128472222,84.95755920902276L121.94317934027778,84.26086578798166L122.05502743055555,83.68915420908097L122.26753880208332,83.06398878807198L123.2422150173611,82.18790240913751L123.43555243055555,82.28442466823638L123.46591119791667,81.78129470135354L123.76150972222221,81.03347773113903L123.9580427951389,80.48950495797325L123.96443411458333,80.07367946214026L125.08770850694444,79.62568651589167L125.4104701388889,79.0012428642591L125.54628567708333,78.1442435777796L125.8578625,77.52044421996654L126.4027224826389,77.82558729798535L126.65677743055555,77.0861535681531L126.7222884548611,76.32847571130671L128.19229192708332,75.11187814013113L128.49428177083334,73.8325653260755L128.66205390625,73.2158712934495L128.78189114583333,72.80834666409358L128.89214140625,72.22032449766998L128.90172838541667,72.2073545479027L129.59998003472222,71.01568159308904L130.65614557291667,70.2934884337674L130.78397196180555,69.36695209037592L130.85427647569443,68.20119438132166L130.89901571180556,68.01857494318715L131.18502725694444,67.28265494885991L131.82415920138888,66.12251445396183L132.0718228298611,65.11526300855618L132.6438459201389,64.81717420769805L132.68858515624999,64.54889428692618L132.82120503472223,64.28900485823179L133.2078798611111,63.88916687240615L133.22385815972223,63.215875185161806L134.19214305555556,62.904912666644094L134.67948116319442,62.551296399978085L134.70664427083332,61.77210425997714L134.87122074652777,60.9417688339764L134.90317734375,60.286654450576606L134.9734818576389,59.67861400551713L135.04538420138888,59.50012760496496L135.48798307291668,59.06292734446741L136.63522491319443,58.70632211001991L137.13534565972222,57.90600239901639L137.23281328125,57.11196465911337L137.28873732638888,56.74764319320147L137.69139045138888,56.106316373880404L137.93585842013889,55.67662223649182L138.05569565972223,55.08708501284195L138.07806527777777,55.072751511557755L138.08605442708335,54.359226360401294L138.22666345486113,54.12267872436098L138.69962109375,53.92822335192476L138.9744478298611,53.88227601673222L139.10387204861112,52.974360915058455L139.6790907986111,52.50754982355237L139.9187652777778,52.25335734119699L139.93634140625,51.748021607077064L140.15045060763887,51.34853194636921L140.69211493055556,51.081178751732196L140.8439087673611,50.13993587655868L141.05162664930555,49.53250478890263L141.45268194444444,49.57581681001237L142.00073758680554,48.67448512901095L142.52961927083334,48.78516161610983L142.7293480034722,48.497582954498796L142.8284134548611,47.980637159048825L143.34611032986112,47.82882344314393L143.45636059027777,47.120628598829455L143.72799166666667,47.0548157389465L143.88457899305556,46.7374591650518L144.10507951388888,46.54402574854663L144.29681909722223,45.9827481736919L144.64035251736112,45.588223356322686L145.88825763888892,45.73096352069041L146.7542814236111,45.58286716862136L146.98117326388888,45.32051795175923L147.00194505208333,45.231903656583256L147.23203255208333,45.041525790924936L147.3998046875,45.07299821183244L147.5899464409722,44.566635890649195L147.59633776041667,44.147784801584265L147.88075147569447,43.715506321425806L148.4096331597222,43.65833068928322L148.46076371527778,43.49624762035492L148.64451414930556,43.01849785831939L149.039178125,42.68071057248744L149.04876510416668,42.80076451523871L149.56646197916666,42.853500563714846L150.18801779513888,42.66127550734336L150.62901883680556,42.21171045660901L150.98533489583335,42.45241441094814L151.09238949652777,42.2265479698533L151.20104192708334,41.89420567286797L151.21861805555557,42.07447260558118L151.58132543402778,41.84952534502307L151.72033663194443,41.88676031052077L151.72832578125,41.86495927946865L151.79543463541668,41.29221335152178L152.07665269097222,41.1823670163696L152.13737022569444,41.138817814732676L152.13896805555555,41.00743603325938L152.33390329861112,41.313254929933464L153.81828723958336,41.496304436940136L153.83426553819444,41.47667399324612L153.95570060763887,41.883069093921506L154.6315826388889,41.73257468452934L154.78657213541666,41.7999422160764L155.58069357638888,41.639322994468756L155.69573732638887,42.0847656950219L155.7820201388889,41.76660162551971L156.02169461805553,41.203691462967754L156.31249965277777,40.49425981667096L156.35084756944445,40.42733383500385L156.44032604166668,40.20116295150348L156.4435217013889,40.200421656353114L156.74071805555556,40.27350449071781L157.3526868923611,39.87834154164602L157.55720911458332,39.596444887481425L157.67385069444447,39.766800398733295L157.68663333333333,39.717307858859954L157.9135251736111,39.488389572973944L157.97903619791666,39.65111311567654L158.00460147569444,39.92662680410888L158.03176458333334,39.898026623698L158.34813489583334,39.7432239613282L158.6325486111111,39.80671406519539L158.84186432291668,39.91916765867583L158.99685381944445,39.614750892808246L159.02561475694444,39.46983830352744L160.083378125,39.48691697317469L160.62504244791666,39.41010027585722L160.73369487847222,39.34096524827149L160.97177152777778,39.16811872344434L161.05805434027778,39.4734943510999L161.13634800347222,39.21364491598993L161.3073157986111,39.31165542439095L161.36164201388888,38.99423988195184L161.41437039930554,39.09575339375664L161.5102401909722,39.20555305438097L162.1238068576389,39.26749774894287L163.14162447916667,39.48918547404858L163.15600494791667,38.91432942664375L163.28063567708332,38.636646483979376L163.51232100694446,38.644856835581436L163.5522667534722,39.11318365202328L163.86863706597222,39.110615286820945L163.97728949652776,39.32955375813887L163.99326779513888,39.52659838232498L164.02842005208333,39.464251044092464L164.78579140624998,39.03938843968322L165.41853203125,38.786074595714894L165.47285824652778,38.3921546361434L165.84515260416666,38.332626672529074L166.07524010416668,38.37123900527615L166.97002482638888,38.49817760474855L166.99559010416667,38.11460984427367L167.17934053819442,38.525336359846335L167.28799296875,38.02842772386171L167.8232659722222,37.839334951475536L168.0629404513889,38.05633895632798L168.08690789930554,38.38070506069516L168.41606085069446,38.70950955462567L168.60300694444445,38.4338710991631L168.61099609375,38.167358989246765L169.7310748263889,38.05656059032208L169.87168385416666,37.938404531289876L170.22320642361112,37.7398765781609L170.43252213541666,37.247763920344795L170.5235984375,37.19205002831032L170.7856425347222,37.012845025479294L171.55100303819444,36.85156052293135L171.7011990451389,37.16734197063823L171.9440691840278,37.064357773574415L172.64551649305557,37.17448449621696L173.03059348958334,36.665161046595244L173.05935442708335,36.74145744193572L173.38051822916665,36.828561697742145L173.3964965277778,36.75945552796796L173.4572140625,36.73413497517117L173.46200755208332,36.63759647765403L173.5850404513889,36.53227432988862L173.76719305555557,36.40060939689977L173.82791059027778,36.26367345720976L175.02947864583334,36.343243611488816L175.18926163194445,36.027669250339926L175.89230677083336,35.87271482530596L176.01054618055554,35.99138084277533L176.0281223090278,36.09818025849782L176.42917760416668,36.009924732648045L176.4355689236111,35.91205725938323L176.44835156250002,35.69491403344492L177.109853125,35.81292263010042L177.89119192708336,35.77163036709035L178.06375755208333,36.01102983038132L178.2858559027778,35.765551847343175L178.59743272569446,35.98712166260887L178.68211770833332,36.26028449634799L178.84988984375,36.28488104671317L179.48742395833332,36.07654919204188L179.52257621527778,36.1563942728377L179.6248373263889,36.52325484555391L179.63122864583335,36.76124186099855L179.67277222222222,36.95699267489866L179.82776171875,37.02254340740879L179.8996640625,36.970914066667916L180.05625138888888,36.887572660001155L180.08661015625,37.03381539400104L180.32468680555556,37.202308854600915L180.6506440972222,36.94832796914085L180.89511206597223,36.73818267222674L181.01175364583332,36.45686440500407L181.30255868055556,36.314302964503696L182.35393072916668,36.056935168053286L182.59360520833334,36.26780415124799L182.86843194444444,36.16258623612316L182.9307473090278,36.252265112510855L183.04419322916667,36.03797610125977L183.12408472222222,35.826678491133805L183.37174835069445,35.673385642020435L183.74404270833335,35.646047077818395L183.8399125,35.60300487003656L184.31766362847222,35.60114188303288L184.69475147569446,35.230715194729584L184.76665381944446,35.13701867525663L184.8912845486111,35.218629307730964L185.11178506944444,35.531766376957876L185.57994921875,35.48171473926206L185.6806125,35.45510576533587L185.84678680555555,35.136157688802314L185.94904791666664,35.31004191992204L186.5194731770833,35.540287727929865L186.8022890625,35.47094645513687L187.32797508680554,35.50072680962319L187.4653884548611,35.785654128660866L187.68748680555558,35.43365121579478L188.0709659722222,35.28278609421531L188.2563142361111,35.18388248479377L188.32981440972222,34.910494236314406L188.40810807291666,34.70131981268298L188.5551084201389,34.273375331414684L188.86508741319443,34.3676002982732L188.97214201388888,34.17584026844591L188.9881203125,34.169193741601305L189.80141571180556,34.25539936744116L190.10500338541667,33.87204693069705L190.47569991319446,33.987967237627345L190.54121093749998,34.14760801386461L190.69300477430556,33.88565971247817L190.73135269097222,34.29521874123037L191.1723537326389,34.33194686710732L191.3577019965278,34.457189680396596L191.35929982638888,34.662095712356944L191.61175694444447,34.79119864112124L191.99523611111113,34.98114127700913L192.0783232638889,34.96771464930822L192.09110590277777,34.95563068437738L192.1246603298611,35.05538011593964L192.1550190972222,34.73952960434568L192.30361727430557,34.45526414391111L192.62797673611112,34.54973772951999L193.15845625,34.782263956568016L193.31344574652778,34.844037560911204L193.38375026041666,34.47557130482008L193.99412126736112,34.21770167433806L194.12833897569445,34.42811900690427L194.25776319444446,34.045932106213854L194.6700032986111,33.849463895592436L194.97838446180555,33.80170500603322L195.43216814236112,33.64809700542989L195.9610498263889,33.56516230488691L196.26623532986113,33.63802107439821L196.35571380208333,33.61140646695836L196.38767039930556,33.79026582026256L196.79351918402776,33.93280173823629L196.9101607638889,33.93202156441265L197.0284001736111,33.93131940797139L197.03638932291668,34.09662496717428L197.1738026909722,34.09789997045681L198.57350164930554,34.11748497341114L198.61184956597222,34.20886147607004L198.72529548611112,34.42016282846302L198.89786111111113,34.31533404561671L199.40597100694444,33.77848814105505L199.74151527777778,33.75626432694955L199.98598324652775,34.17876289425459L199.98917890625,34.28244910482914L200.05468993055555,33.97014169434621L200.35508194444446,34.05781502491158L200.43816909722224,34.265783522420435L200.48450616319445,34.213267670178396L200.57718029513887,33.92631590316057L200.95107248263886,33.90774681284452L201.22749704861113,33.72509713156006L201.30419288194443,33.59758741840406L202.01043368055556,33.61189117656366L202.62559817708333,33.44038955890727L202.68951137152777,33.52572560301658L203.33183897569444,33.52877804271489L203.34781727430556,33.69746273844342L204.48706996527778,33.793966464599066L204.95523411458333,33.75175731813914L205.10063663194444,33.65845658632526L205.22366953125,33.29792342769272L205.2348543402778,33.47125608492345L205.5544203125,33.51663047643112L205.65508359375,33.502154928788L205.73337725694444,33.48912693590921L205.78930130208335,34.0305267423183L206.76078185763888,34.05684906808648L206.80072760416667,34.135851661277826L206.89340173611112,34.28070399515005L206.93973880208335,34.37419609563503L207.06916302083332,34.56896398607154L207.13147838541664,34.55988008746439L207.25131562500002,34.58857957871794L207.3791420138889,34.46690912084617L208.00549131944445,34.20990570876154L208.38577482638888,34.310477637885384L208.4560793402778,34.16130487409686L208.71173211805555,34.10079938668716L209.37003802083333,34.064781948018435L209.54100581597223,33.847991253216605L210.24724661458333,33.59756712789493L210.79849791666666,33.13249791510546L210.8624111111111,32.879873123594905L210.9151394965278,32.6525108112354L210.95508524305555,32.72444723011188L211.58463020833335,33.21325250710069L211.59261935763888,33.37661475639064L212.42029522569445,33.17332828075155L212.4410670138889,32.8059954526764L212.89804635416667,32.77039590740878L213.24317760416668,32.590856316667896L213.35023220486113,32.52145818500111L213.61227630208333,32.293062366500976L214.9576490451389,32.43781862985088L215.0471275173611,32.38372426686581L215.15577994791667,32.29816434017923L215.3171607638889,32.092097906161314L215.3890631076389,32.03570061554515L215.66868333333335,32.114005553990665L215.69424861111114,31.889479998591582L216.05855381944446,31.85334449873247L216.06654296874999,32.22644754885917L216.48197873263888,32.34099029397328L216.6161964409722,32.11220376457595L216.83509913194445,32.09067088811835L217.17064340277778,31.94222879930652L217.2153826388889,31.99300591937589L217.3448068576389,32.1862053274383L217.50618767361112,32.673522294694465L217.63880755208334,32.59585756522503L217.93919956597222,32.41533430870251L218.16289574652777,32.400363377832264L218.41695069444444,32.239389540049046L218.74770147569444,32.18670058604414L218.79883203125002,32.213030527439685L219.32292022569445,32.21828997469572L219.70799722222222,31.983335977226147L219.80226918402778,32.269689879503545L219.81505182291667,32.12178339155318L219.8502040798611,32.025542552397866L220.41903151041666,31.809863297158074L220.46057508680556,31.744814467442268L220.46377074652779,31.409708020698048L220.7226191840278,31.27404971862822L220.78813020833334,31.520707246765397L220.84724991319445,31.539886522088864L221.33938151041664,31.354335369879976L221.40649036458333,31.279526832892003L221.57106684027778,31.341261649602785L222.0456223090278,31.175572984642514L222.4642537326389,31.321453186178275L222.63681935763887,31.563370367560452L222.65918897569446,31.541408330804416L222.66238463541666,31.005392497723932L222.7550587673611,31.03922824795154L222.88927647569443,31.014367923156385L222.9835484375,30.69699363084075L223.08740737847222,30.503544267756695L223.52840842013887,30.62443984098101L223.5411910590278,30.51199585688289L223.77926770833335,30.44767127119465L224.1739316840278,30.426654144075172L224.17872517361113,30.05742622966764L224.25542100694443,30.186058606700897L224.95527048611112,30.04370274603079L225.06232508680557,30.118394971427705L225.2732386284722,30.148742974284914L225.32436918402777,30.102306176856445L225.45379340277776,30.115825559170787L225.4729673611111,29.869868003253714L225.51131527777775,29.666943702928336L225.80691380208333,29.687124332635534L225.85484869791668,29.686849399371965L226.21276258680558,29.336289459434767L226.21595824652778,29.297348013491302L226.25590399305557,29.428238212142162L226.41249131944446,29.380101890927932L227.12192777777778,29.53959170183515L227.1698626736111,29.609382531651647L227.2098084201389,29.598444278486483L227.58210277777778,29.58859985063779L227.59808107638887,29.874739865574043L228.28355008680558,29.947890879016654L228.69898585069444,29.700289291114956L228.77727951388889,29.40369786200347L229.43558541666667,29.48707807580311L229.5586183159722,29.433057768222795L229.62093368055554,29.310689491400524L229.6720642361111,29.145245542260454L229.82385807291666,29.291345988034408L230.0890978298611,29.330648889230986L230.37990286458336,29.236959000307877L230.4166529513889,29.097325600277088L231.13407855902778,29.358843040249383L231.29066588541667,29.151708736224435L231.4264814236111,29.16810036260202L231.70290598958331,29.1275403263418L232.09437430555556,29.14634879370763L232.14870052083333,29.12640141433687L232.30848350694444,29.219073772903187L232.65521258680556,29.413103895612863L232.85494131944446,29.44023100605159L232.87091961805558,29.46464540544642L233.47330147569446,29.468180864901797L233.64107361111112,29.489800278411593L233.86317196180556,29.65675775057045L234.1443900173611,29.59498822551342L234.33932526041667,29.622364402962063L234.46555381944444,29.517940462665848L234.52307569444446,29.75583391639927L234.63652161458333,29.877750524759335L235.03438125000002,29.803100472283404L235.1670011284722,29.75435292505506L235.24050130208332,29.67360513254954L235.81731788194443,29.619369619294588L235.83489401041666,29.662745157365123L235.92117682291666,29.886158141628613L236.1033294270833,29.829104827465756L236.20239487847223,29.777756844719192L237.0764078125,29.749981160247273L237.09877743055554,30.093733044222517L237.5957025173611,30.12654723980029L237.79543125,30.06389251582027L238.37544348958332,29.804690764238217L238.40420442708333,29.866409187814384L238.6854224826389,29.700705769032965L238.8484011284722,29.551572692129668L238.85159678819443,29.54641542291668L239.1791519097222,29.855211380625036L239.18554322916665,29.85656524256254L239.5913920138889,30.060596218306273L239.73040321180554,30.115161596475645L239.8646209201389,30.14583293682807L239.91255581597224,30.025937143145285L240.10908888888886,29.678343428830743L240.19377387152778,29.67894658594767L240.3423720486111,29.550426927352902L240.38551345486113,29.692884234617622L240.68750329861112,29.581408311155855L240.75940564236112,29.573267480040272L240.8984168402778,29.197190732036233L241.19561319444446,29.07997165883259L241.65578819444443,28.91916199294934L241.84752777777777,28.755995793654392L241.86031041666666,29.05164621428898L242.4818662326389,28.838356592860066L242.52820329861112,28.812333433574082L242.54418159722223,28.807350090216687L242.6001056423611,28.581615081194997L243.45814027777777,28.470641073075484L243.4629337673611,28.35232696576793L243.5492165798611,28.540844269191126L243.56679270833334,28.59988484227202L244.52229496527778,28.800521358044847L244.54626241319443,28.815156722240346L244.9009806423611,28.938953550016322L245.19817699652776,28.939745695014665L245.25729670138887,29.0510836255132L245.30043810763888,29.022225262961882L245.34677517361112,29.180627736665713L245.54810173611114,29.08350246299912L245.75262395833334,29.254214716699238L245.86606987847222,29.592230745029298L245.906015625,29.490820170526376L246.42531032986113,29.528613153473714L246.69853923611112,29.39668933812635L246.8279634548611,29.60983290431372L246.8599200520833,29.59884961388235L247.09000755208334,29.5889646524941L247.19067083333334,29.59850568724471L247.49106284722222,29.441155118520214L247.52142161458335,29.29953960666819L247.7195525173611,29.172085646001364L247.8505745659722,29.204877081401236L247.92567256944446,29.289701873261123L248.1605535590278,29.47666918593501L248.2915756076389,29.442127267341533L248.36188012152778,29.48478954060738L249.1751755208333,29.486310586546608L249.3285671875,29.358617027891967L249.3749042534722,29.29900532510277L249.72482899305555,29.392854792592487L249.89419895833333,29.551069313333244L249.98367743055556,29.52752488199991L250.047590625,29.524772393799935L250.18500399305555,29.466982654419922L250.35756961805555,29.359659388977917L250.45343940972222,29.392130950080116L250.56049401041665,29.4951053550721L250.7793967013889,29.753719819564907L250.8241359375,29.488660337608394L251.5271810763889,29.489794303847532L251.98575824652778,29.564564873462814L252.10080199652776,29.484358386116526L252.29094375,29.596547547504883L252.33887864583332,29.550017792754403L252.348465625,29.250016013478955L252.35166128472224,29.219701912131057L252.40918315972223,29.19241922091794L252.54499869791667,29.00192729882616L252.60252057291666,29.10704706894353L252.7670970486111,29.072592362049193L252.77508619791666,28.857208125844267L253.16495668402777,28.939924813259836L253.67626223958334,28.95905733193385L253.68744704861112,29.086901598740468L253.75934939236112,29.036023938866407L253.77692552083332,28.916484044979796L254.36173125,28.937960640481833L254.52950338541666,28.75447707643363L254.59661223958332,28.847466868790292L254.6030035590278,28.838970181911236L254.7196451388889,28.812885663720124L254.81711276041668,29.102847097348103L254.84108020833332,29.03193738761331L254.8826237847222,29.134056148851954L255.04720026041667,29.115338033966765L255.07596119791668,29.006304230570095L255.14466788194446,28.908173807513066L255.23414635416665,28.985793926761772L255.28208124999998,29.092527034085577L255.43707074652778,29.077961830677054L255.63360381944443,29.009540647609327L255.95956111111113,28.911086582848384L256.19284427083335,28.859352924563552L256.3190728298611,28.7943551321072L256.75528038194443,28.828044618896485L256.79203046875,28.600240157006823L256.8223892361111,28.54271614130616L257.0460854166667,28.47250702717554L257.0780420138889,28.446193824457993L257.12757473958334,28.625324442012186L257.4008036458333,28.823416997810966L257.7826849826389,28.762012798029872L258.56881727430556,28.909561518226894L258.6503065972222,28.673605366404217L258.69664366319444,29.217182329763773L258.8500353298611,29.116401596787398L259.1616121527778,28.988823937108663L259.2399058159722,28.837129043397795L259.2734602430556,28.737478639057997L259.27985156249997,28.59248077515224L259.38690616319445,28.79385769763698L259.4252540798611,28.71697192787329L259.74162439236113,28.795274735085968L259.7480157118055,28.73668476157738L260.0388207465278,28.64707878541961L260.40472378472225,28.806120906877652L260.70351796875,28.617383816189886L261.2771388888889,28.55814543457089L261.2915193576389,28.61545589111381L261.32986727430557,28.77766030200243L261.41934574652777,29.015831771802198L261.5855200520833,29.137998594621962L261.6893789930556,29.303261235159766L261.782053125,29.120122611643808L261.90508602430555,28.99217285047942L261.9801840277778,28.8217055654315L262.31413046875,28.963285008888334L262.36685885416665,29.0907065079995L262.43396770833334,29.09476085719953L262.46113081597224,29.061534771479614L262.53942447916666,29.105381294331636L262.6512725694445,29.218593164898465L262.71358793402777,29.357358848408637L263.1753607638889,29.168810463567752L263.20571953125,29.017554417210988L263.44060052083336,28.93673647548988L263.6435249131944,28.753375327940887L263.77774262152775,28.938662795146797L263.8927863715278,28.921046515632128L264.1276673611111,28.776129364068908L264.7891689236111,28.73789142766202L264.9713215277778,28.869414784895838L265.19341987847224,28.987785806406237L265.6056599826389,28.780882225765623L265.7254972222222,28.90810650318906L265.93800859375,28.67229585287015L266.33746605902775,28.626003767583114L266.4780750868055,28.602778390824795L266.7576953125,28.674063051742337L266.9941741319445,28.627594246568094L267.2194681423611,28.677959821911287L267.25462039930557,28.557351339720157L267.28018567708335,28.467241205748138L267.9560677083333,28.515204585173336L268.04235052083334,28.650559126655992L268.0791006076389,28.6248782139904L268.1941443576389,28.76770289259136L268.41144921875,28.896245103332234L268.46897109375,29.14099559299899L268.5744278645833,29.195333533699113L268.81090668402777,29.354862680329205L268.8524502604167,29.53531391229629L269.0761464409722,29.58709502106666L269.22794027777775,29.67057301896L269.35896232638885,29.469140717063993L269.98531163194446,29.39847664535759L270.7570634548611,29.50081648082184L270.92163993055556,29.556047332739638L271.47768472222225,29.421380099465694L271.5064456597222,29.410804589519103L271.7301418402778,29.40128663056717L272.1232079861111,29.484907967510452L272.3916434027778,29.4495421707594L272.64889401041665,29.454587953683472L272.8709923611111,29.422254158315127L272.90454678819447,29.356278742483624L272.96366649305554,29.389088368235264L273.0371666666667,29.21580453141172L273.1042755208333,29.115161578270545L273.16179739583333,29.338020420443513L274.0230276909722,29.409530878399153L274.22914774305553,29.51076529055922L274.3633654513889,29.67562626150331L274.49758315972224,29.768688635352987L274.8507035590278,29.852444771817687L275.20861744791665,29.983137794635923L275.3220633680556,29.897949015172316L275.4450962673611,29.673779113655087L275.4850420138889,29.637963702289568L275.67518376736115,29.568854832060595L276.26797864583335,29.322281848854544L276.47250086805553,29.100366163969085L276.58275112847224,29.287829547572187L276.85757786458333,29.179984092814948L277.27940494791665,29.156673183533456L277.36089427083334,29.02506836518012L277.54784036458335,29.1647490286621L277.5686121527778,29.161399125795867L277.6325253472222,29.269009213216293L277.8434388888889,29.31054579189467L277.98245008680556,29.366366212705202L278.0911025173611,29.121604591434703L278.3195921875,29.509756632291214L278.5528753472222,29.14003096906208L278.56406015625,29.02852787215585L278.8245064236111,28.965050084940287L278.8388868923611,29.350420076446255L278.8500717013889,29.051940568801626L278.85646302083336,29.115184011921457L278.8596586805555,29.11679061072931L278.86285434027775,29.136674049656392L278.86605000000003,29.13613164469072L278.86764782986114,28.914393480221662L278.87084348958336,28.714829132199526L278.87563697916664,28.719596218979575L278.87883263888887,29.2401365970816L278.8836261284722,29.23846668737346L278.8868217881945,29.319932518636108L278.8916152777778,29.448564266772507L278.89321310763887,29.39839534009525L278.8948109375,29.37168080608572L278.9107892361111,29.347637725477142L278.9123870659722,29.030998952929423L278.91558272569443,28.746024057636475L278.91718055555555,28.968921651872847L278.91877838541666,29.114216986685534L278.92037621527777,28.949982788016996L278.9251697048611,28.820609509215274L278.9267675347222,28.777923558293764L278.92996319444444,29.07138120246438L278.9347566840278,29.280180582217923L278.93795234375,29.265287523996136L278.9411480034722,29.417821271596523L278.94434366319445,29.499789144436875L278.95872413194445,29.444497729993202L278.96032196180556,29.265672956993882L278.9651154513889,29.215355661294467L278.9683111111111,29.206945095165025L278.97150677083334,29.107188085648517L278.97470243055557,28.96209427708368L278.9778980902778,29.40307234937532L278.9794959201389,29.46807761443776L278.98428940972224,29.545019852994017L278.9938763888889,29.5220803676946L278.99547421875,29.298622330925127L279.00186553819447,29.55844759783261L279.0066590277778,29.257602838049365L279.01145251736114,29.152780054244403L279.0146481770833,29.040002048819957L279.01624600694447,29.03068934393795L279.0226373263889,29.169807909544176L279.0290286458333,29.165952118589757L279.03382213541664,28.959669406730768L279.03541996527775,29.087452466057698L279.0370177951389,29.202457219451958L279.038615625,29.12158649750674L279.0434091145833,29.251615347756086L279.04980043402776,29.276453812980463L279.05299609375,29.261933431682422L279.05938741319443,29.28574008851419L279.06098524305554,29.141228579662766L279.06418090277776,28.900543221696495L279.0657787326389,28.923613899526828L279.07376788194443,28.907502509574158L279.07856137152777,28.948314758616732L279.0801592013889,28.948170782755057L279.0833548611111,28.689916204479545L279.0865505208333,28.734049584031624L279.08974618055555,28.70001962562847L279.09134401041666,28.798455163065597L279.0961375,28.739547146759065L279.0977353298611,28.870904932083135L279.0993331597222,28.933814438874833L279.10093098958333,29.24855799498735L279.10572447916667,29.310577195488605L279.1073223090278,29.29264447593974L279.11051796875,29.31338002834576L279.1201049479167,29.46110452551119L279.1248984375,29.428119072960072L279.12969192708334,29.195619665664083L279.13128975694445,28.820432699097665L279.1376810763889,28.906826929187872L279.14726805555557,29.00301923626907L279.15845286458335,28.68396731264218L279.16803984375,28.710258081377958L279.17443116319447,28.69704477324015L279.1776268229167,28.887965295916132L279.1856159722222,29.188856266324535L279.1888116319445,29.035595639692076L279.19040946180553,28.916098575722856L279.1936051215278,28.69792621815057L279.1999964409722,28.50157109633554L279.20638776041665,28.472351486701967L279.2079855902778,28.556678838031758L279.2143769097222,28.632573454228577L279.22076822916665,28.66400360880573L279.22556171875,28.636978247925157L279.23514869791666,28.76015542313263L279.23674652777777,28.889452380819392L279.2399421875,28.839882142737423L279.24952916666666,28.77683142846368L279.2559204861111,28.79383578561732L279.26231180555556,28.938202207055582L279.2655074652778,28.95750698635004L279.2671052951389,29.08550628771502L279.268703125,28.997893158943526L279.27349661458334,29.232478843049165L279.27509444444445,29.33298095874426L279.28308359375,29.349682862869827L279.28627925347223,29.18033957658284L279.2926705729167,29.19386811892454L279.2942684027778,29.445731307032077L279.2958662326389,29.193033176328868L279.2974640625,29.039354858695987L279.2990618923611,29.103856872826384L279.30065972222224,28.77472118554374L279.30225755208335,28.533811566989357L279.30545321180557,28.777930410290423L279.31504019097224,28.979199869261407L279.3198336805556,28.86534238233523L279.32942065972225,28.74443314410172L279.33581197916664,28.709364829691566L279.3501924479167,28.80686584672239L279.35179027777775,28.839304262050177L279.3533881076389,28.92381133584516L279.35498593750003,29.257992702260623L279.36297508680553,29.07938093203458L279.36617074652776,29.10300533883111L279.3741598958334,29.032079804947983L279.37895338541665,28.85762182445322L279.3821490451389,28.903422142007884L279.383746875,28.852454927807088L279.3853447048611,28.769709435026357" style="fill: none;" fill="none"></path></g></g></g></g><g opacity="0.2"><g><g><g><path stroke="rgb(255, 112, 67)" stroke-width="2px" d="M34.04815651041667,144.18125L34.054547829861114,144.18125L34.15041762152778,142.70625L34.20634166666667,142.153125L34.22871128472222,140.678125L34.346950694444445,142.890625L34.38529861111111,140.8625L34.46838576388889,142.3375L34.54508159722222,144.0890625L37.285359809027774,141.046875L37.39081657986112,140.125L37.44354496527777,142.70625L37.54420824652778,142.153125L37.553795225694444,138.65L37.74233914930556,142.3375L38.12102482638889,140.49375L38.12901397569445,140.125L38.21369895833333,141.046875L38.264829513888884,143.075L38.38946024305555,143.075L40.40112803819444,144.55L40.60245460069444,143.628125L40.73986796875,139.75625L40.82934644097222,141.784375L40.85331388888889,140.49375L40.95877065972222,142.153125L41.02907517361111,141.96875L41.49723932291667,141.046875L41.69217456597222,143.996875L42.03411015625,139.571875L42.08683854166667,138.465625L42.95446015625,138.834375L44.4068875,141.046875L44.52033342013889,140.125L44.52672473958333,140.125L45.18023715277778,139.571875L45.210595920138886,140.678125L45.76024939236111,140.309375L46.484066319444445,138.65L46.70137118055556,140.678125L47.38524236111111,138.096875L47.40920980902778,140.309375L48.01478732638889,141.6L48.353527256944446,139.940625L48.42383177083333,139.203125L48.54366901041667,140.678125L48.60758220486111,139.571875L49.5550953125,135.33125L50.25654262152778,136.4375L50.54095633680556,135.146875L50.54255416666666,136.253125L51.22962100694444,136.621875L51.65783940972222,136.80625L51.67381770833333,136.80625L52.00297065972222,136.80625L52.884972743055556,138.096875L52.923320659722215,136.80625L53.51771336805556,136.06875L53.70785512152778,130.721875L53.79573576388889,136.4375L54.17282361111111,136.990625L54.2143671875,134.040625L54.28307387152778,137.9125L54.28946519097222,134.778125L55.34882638888889,134.9625L56.32190477430555,135.884375L56.34427439236111,136.4375L56.561579253472225,135.146875L57.14638498263889,138.834375L58.46459461805556,135.33125L58.51412734375,134.778125L58.854465104166664,133.11875L59.458444791666665,134.778125L59.50957534722222,132.75L59.64059739583333,131.275L59.675749652777775,135.7L60.188653038194445,133.11875L62.21789696180556,133.4875L62.76914826388889,131.64375L63.23251892361111,132.38125L63.43064982638889,129.0625L63.58244366319445,134.9625L63.774183246527784,131.828125L64.31744539930556,131.459375L64.67855494791667,132.75L64.72968550347223,128.325L65.74270963541667,129.984375L67.69525772569445,129.8L67.72242083333333,128.69375L68.37433541666667,130.5375L68.38711805555556,125.190625L68.99589123263888,130.16875L69.06140225694445,127.95625L69.78042569444445,129.615625L69.90665425347223,125.928125L70.08401336805555,125.55937499999999L70.45470989583333,129.615625L71.47252751736112,127.21875L71.69622369791666,125.375L71.82724574652778,120.02812499999999L72.43282326388888,124.821875L72.52070390624999,124.084375L72.57503012152777,124.821875L72.69646519097222,127.95625L73.97952256944446,123.715625L74.26393628472222,124.084375L75.0964056423611,126.665625L75.71316796875,121.503125L76.2612236111111,115.971875L76.29318020833333,123.9L76.56001779513889,125.190625L77.24868246527778,122.05625L77.67690086805557,118.184375L77.99167335069444,118.553125L78.59884869791667,120.02812499999999L79.43291588541666,121.6875L79.69975347222221,121.503125L79.76366666666667,118.36875L80.66803836805555,121.503125L80.88374539930557,116.340625L81.41262708333333,122.05625L81.43499670138888,118L81.44138802083333,122.978125L83.53454513888889,115.41875L84.99336380208332,116.709375L85.48549539930555,115.234375L85.52384331597223,116.340625L85.61971310763889,116.15625L85.90093116319444,117.81562500000001L86.55284574652777,113.575L88.01645789930556,114.49687499999999L88.28009982638889,115.05000000000001L88.59487230902776,115.05000000000001L89.03427552083333,117.078125L89.75010329861111,115.971875L90.35088732638889,113.94375L90.50587682291666,116.89375L91.04754114583334,110.440625L91.32716137152778,113.759375L92.19638081597223,113.94375L92.96174131944446,112.284375L93.11832864583333,108.78125L94.42535347222223,110.071875L94.70657152777778,111.546875L94.79285434027777,106.56875000000001L94.87594149305555,115.234375L95.06448541666667,112.653125L97.9901118923611,109.703125L98.44389557291666,106.56875000000001L98.52218923611112,107.859375L98.6212546875,115.41875L99.20606041666666,107.859375L100.00976883680556,112.10000000000001L100.02574713541667,107.675L101.55007682291668,108.228125L101.66512057291666,103.80312500000001L101.71145763888889,106.753125L101.8984037326389,111.73125L102.25471979166666,110.071875L102.38094835069445,110.809375L102.62541631944444,106.2L103.3508310763889,105.278125L103.35242890625,106.38437499999999L103.44510303819445,106.2L104.80805190972222,105.4625L104.96144357638889,102.14375L105.79870642361111,102.88125L106.46500147569445,102.14375L106.48257760416668,103.80312500000001L106.62478446180555,106.015625L107.048209375,104.171875L107.11212256944444,101.959375L107.60265633680555,101.590625L107.81836336805554,99.378125L107.853515625,101.221875L107.98773333333334,100.484375L108.22421215277778,99.93125L108.71953940972223,106.9375L108.93844210069445,101.590625L109.08384461805555,102.696875L109.36186701388888,98.27187500000001L109.79487890624999,100.66875L109.93548793402778,99.378125L111.03799053819444,92.1875L111.35276302083334,92.371875L111.42626319444445,88.86875L112.2827,94.03125L112.49521137152777,99.19375L113.0177017361111,92.1875L114.14257395833333,91.81875L114.43018333333333,95.50625000000001L114.78649939236111,93.109375L116.24851371527777,87.7625L117.17845069444445,82.96875L117.20561380208333,83.70625L117.28390746527778,83.153125L117.31426623263889,90.34375L117.50281015625,86.840625L117.77284340277778,87.39375L118.46789939236112,84.996875L118.95683532986111,84.628125L119.32114053819444,83.890625L119.37546675347222,87.209375L120.11046848958334,82.046875L120.38209956597223,87.209375L121.21776458333333,77.4375L121.40471067708333,78.175L121.41269982638889,83.153125L121.41429765625001,78.359375L121.45903689236111,84.075L121.66196128472222,82.96875L121.94317934027778,77.99062500000001L122.05502743055555,78.54375L122.26753880208332,77.4375L123.2422150173611,74.303125L123.43555243055555,83.153125L123.46591119791667,77.253125L123.76150972222221,74.303125L123.9580427951389,75.59375L123.96443411458333,76.33125L125.08770850694444,75.59375L125.4104701388889,73.38125L125.54628567708333,70.43125L125.8578625,71.90625L126.4027224826389,80.571875L126.65677743055555,70.43125L126.7222884548611,69.509375L128.19229192708332,64.16250000000001L128.49428177083334,62.318749999999994L128.66205390625,67.665625L128.78189114583333,69.140625L128.89214140625,66.92812500000001L128.90172838541667,72.090625L129.59998003472222,60.29062499999999L130.65614557291667,63.79375L130.78397196180555,61.028125L130.85427647569443,57.709374999999994L130.89901571180556,66.375L131.18502725694444,60.659375L131.82415920138888,55.681250000000006L132.0718228298611,56.05L132.6438459201389,62.134375000000006L132.68858515624999,62.134375000000006L132.82120503472223,61.95L133.2078798611111,60.29062499999999L133.22385815972223,57.15625L134.19214305555556,60.10625L134.67948116319442,59.368750000000006L134.70664427083332,54.75937499999999L134.87122074652777,53.46875L134.90317734375,54.390625L134.9734818576389,54.20625L135.04538420138888,57.89375L135.48798307291668,55.128125L136.63522491319443,55.496875L137.13534565972222,50.703125L137.23281328125,49.965625L137.28873732638888,53.46875L137.69139045138888,50.33437500000001L137.93585842013889,51.809375L138.05569565972223,49.78125L138.07806527777777,54.943749999999994L138.08605442708335,47.9375L138.22666345486113,51.99374999999999L138.69962109375,52.178124999999994L138.9744478298611,53.46875L139.10387204861112,44.803124999999994L139.6790907986111,48.306250000000006L139.9187652777778,49.965625L139.93634140625,47.20000000000002L140.15045060763887,47.75312500000001L140.69211493055556,48.67500000000001L140.8439087673611,41.66875000000002L141.05162664930555,44.06562499999998L141.45268194444444,49.965625L142.00073758680554,40.5625L142.52961927083334,49.78125L142.7293480034722,45.90937500000001L142.8284134548611,43.328125L143.34611032986112,46.462500000000006L143.45636059027777,40.74687499999999L143.72799166666667,46.462500000000006L143.88457899305556,43.881249999999994L144.10507951388888,44.803124999999994L144.29681909722223,40.931250000000006L144.64035251736112,42.037499999999994L145.88825763888892,47.015625L146.7542814236111,44.25L146.98117326388888,42.959374999999994L147.00194505208333,44.43437500000002L147.23203255208333,43.328125L147.3998046875,45.35624999999999L147.5899464409722,40.009375000000006L147.59633776041667,40.37812500000001L147.88075147569447,39.82499999999999L148.4096331597222,43.14375000000001L148.46076371527778,42.037499999999994L148.64451414930556,38.71875L149.039178125,39.640625L149.04876510416668,43.881249999999994L149.56646197916666,43.328125L150.18801779513888,40.931250000000006L150.62901883680556,38.165625000000006L150.98533489583335,44.618750000000006L151.09238949652777,40.193749999999994L151.20104192708334,38.90312500000002L151.21861805555557,43.696875000000006L151.58132543402778,39.82499999999999L151.72033663194443,42.22187500000001L151.72832578125,41.66875000000002L151.79543463541668,36.13750000000002L152.07665269097222,40.193749999999994L152.13737022569444,40.74687499999999L152.13896805555555,39.82499999999999L152.33390329861112,44.06562499999998L153.81828723958336,43.14375000000001L153.83426553819444,41.29999999999998L153.95570060763887,45.540625000000006L154.6315826388889,40.37812500000001L154.78657213541666,42.40625L155.58069357638888,40.193749999999994L155.69573732638887,46.09375L155.7820201388889,38.90312500000002L156.02169461805553,36.13750000000002L156.31249965277777,34.109375L156.35084756944445,39.82499999999999L156.44032604166668,38.165625000000006L156.4435217013889,40.193749999999994L156.74071805555556,40.931250000000006L157.3526868923611,36.321875000000006L157.55720911458332,37.05937499999999L157.67385069444447,41.29999999999998L157.68663333333333,39.271874999999994L157.9135251736111,37.428124999999994L157.97903619791666,41.115624999999994L158.00460147569444,42.40625L158.03176458333334,39.640625L158.34813489583334,38.349999999999994L158.6325486111111,40.37812500000001L158.84186432291668,40.931250000000006L158.99685381944445,36.875L159.02561475694444,38.165625000000006L160.083378125,39.640625L160.62504244791666,38.71875L160.73369487847222,38.71875L160.97177152777778,37.61250000000001L161.05805434027778,42.22187500000001L161.13634800347222,36.875L161.3073157986111,40.193749999999994L161.36164201388888,36.13750000000002L161.41437039930554,40.009375000000006L161.5102401909722,40.193749999999994L162.1238068576389,39.82499999999999L163.14162447916667,41.484375L163.15600494791667,33.740624999999994L163.28063567708332,36.13750000000002L163.51232100694446,38.71875L163.5522667534722,43.328125L163.86863706597222,39.087500000000006L163.97728949652776,41.29999999999998L163.99326779513888,41.29999999999998L164.02842005208333,38.90312500000002L164.78579140624998,35.21562499999999L165.41853203125,36.506249999999994L165.47285824652778,34.84687500000001L165.84515260416666,37.796875L166.07524010416668,38.71875L166.97002482638888,39.640625L166.99559010416667,34.662499999999994L167.17934053819442,42.22187500000001L167.28799296875,33.556250000000006L167.8232659722222,36.13750000000002L168.0629404513889,40.009375000000006L168.08690789930554,41.29999999999998L168.41606085069446,41.66875000000002L168.60300694444445,35.953125L168.61099609375,35.76874999999998L169.7310748263889,37.05937499999999L169.87168385416666,36.875L170.22320642361112,35.953125L170.43252213541666,32.818749999999994L170.5235984375,36.69062500000001L170.7856425347222,35.400000000000006L171.55100303819444,35.400000000000006L171.7011990451389,40.009375000000006L171.9440691840278,36.13750000000002L172.64551649305557,38.165625000000006L173.03059348958334,32.08125000000001L173.05935442708335,37.428124999999994L173.38051822916665,37.61250000000001L173.3964965277778,36.13750000000002L173.4572140625,36.506249999999994L173.46200755208332,35.76874999999998L173.5850404513889,35.584374999999994L173.76719305555557,35.21562499999999L173.82791059027778,35.03125L175.02947864583334,37.05937499999999L175.18926163194445,33.1875L175.89230677083336,34.478125000000006L176.01054618055554,37.05937499999999L176.0281223090278,37.05937499999999L176.42917760416668,35.21562499999999L176.4355689236111,35.03125L176.44835156250002,33.740624999999994L177.109853125,36.875L177.89119192708336,35.400000000000006L178.06375755208333,38.165625000000006L178.2858559027778,33.556250000000006L178.59743272569446,37.98124999999999L178.68211770833332,38.71875L178.84988984375,36.506249999999994L179.48742395833332,34.201562499999994L179.52257621527778,36.875L179.6248373263889,39.82499999999999L179.63122864583335,38.90312500000002L179.67277222222222,38.71875L179.82776171875,37.61250000000001L179.8996640625,36.506249999999994L180.05625138888888,36.13750000000002L180.08661015625,38.349999999999994L180.32468680555556,38.71875L180.6506440972222,34.662499999999994L180.89511206597223,34.84687500000001L181.01175364583332,33.92500000000001L181.30255868055556,35.03125L182.35393072916668,33.740624999999994L182.59360520833334,38.165625000000006L182.86843194444444,35.21562499999999L182.9307473090278,37.05937499999999L183.04419322916667,34.109375L183.12408472222222,33.92500000000001L183.37174835069445,34.29374999999999L183.74404270833335,35.400000000000006L183.8399125,35.21562499999999L184.31766362847222,35.584374999999994L184.69475147569446,31.896874999999994L184.76665381944446,34.29374999999999L184.8912845486111,35.953125L185.11178506944444,38.349999999999994L185.57994921875,35.03125L185.6806125,35.21562499999999L185.84678680555555,32.265625L185.94904791666664,36.875L186.5194731770833,37.61250000000001L186.8022890625,34.84687500000001L187.32797508680554,35.76874999999998L187.4653884548611,38.349999999999994L187.68748680555558,32.265625L188.0709659722222,33.92500000000001L188.2563142361111,34.29374999999999L188.32981440972222,32.44999999999999L188.40810807291666,32.818749999999994L188.5551084201389,30.421875L188.86508741319443,35.21562499999999L188.97214201388888,32.44999999999999L188.9881203125,34.109375L189.80141571180556,35.03125L190.10500338541667,30.421875L190.47569991319446,35.03125L190.54121093749998,35.584374999999994L190.69300477430556,31.52812499999999L190.73135269097222,37.98124999999999L191.1723537326389,34.662499999999994L191.3577019965278,35.584374999999994L191.35929982638888,36.506249999999994L191.61175694444447,35.953125L191.99523611111113,36.69062500000001L192.0783232638889,34.84687500000001L192.09110590277777,34.84687500000001L192.1246603298611,35.953125L192.1550190972222,31.896874999999994L192.30361727430557,31.896874999999994L192.62797673611112,35.400000000000006L193.15845625,36.875L193.31344574652778,35.400000000000006L193.38375026041666,31.15937500000001L193.99412126736112,31.896874999999994L194.12833897569445,36.321875000000006L194.25776319444446,30.606250000000017L194.6700032986111,32.08125000000001L194.97838446180555,33.37187500000002L195.43216814236112,32.265625L195.9610498263889,32.818749999999994L196.26623532986113,34.29374999999999L196.35571380208333,33.37187500000002L196.38767039930556,35.400000000000006L196.79351918402776,35.21562499999999L196.9101607638889,33.92500000000001L197.0284001736111,33.92500000000001L197.03638932291668,35.584374999999994L197.1738026909722,34.109375L198.57350164930554,34.29374999999999L198.61184956597222,35.03125L198.72529548611112,36.321875000000006L198.89786111111113,33.37187500000002L199.40597100694444,28.946875000000006L199.74151527777778,33.556250000000006L199.98598324652775,37.98124999999999L199.98917890625,35.21562499999999L200.05468993055555,31.15937500000001L200.35508194444446,34.84687500000001L200.43816909722224,36.13750000000002L200.48450616319445,33.740624999999994L200.57718029513887,31.34375L200.95107248263886,33.740624999999994L201.22749704861113,32.08125000000001L201.30419288194443,32.44999999999999L202.01043368055556,33.740624999999994L202.62559817708333,31.896874999999994L202.68951137152777,34.29374999999999L203.33183897569444,33.556250000000006L203.34781727430556,35.21562499999999L204.48706996527778,34.662499999999994L204.95523411458333,33.37187500000002L205.10063663194444,32.818749999999994L205.22366953125,30.053124999999994L205.2348543402778,35.03125L205.5544203125,33.92500000000001L205.65508359375,33.37187500000002L205.73337725694444,33.37187500000002L205.78930130208335,38.90312500000002L206.76078185763888,34.29374999999999L206.80072760416667,34.84687500000001L206.89340173611112,35.584374999999994L206.93973880208335,35.21562499999999L207.06916302083332,36.321875000000006L207.13147838541664,34.478125000000006L207.25131562500002,34.84687500000001L207.3791420138889,33.37187500000002L208.00549131944445,31.896874999999994L208.38577482638888,35.21562499999999L208.4560793402778,32.818749999999994L208.71173211805555,33.556250000000006L209.37003802083333,33.740624999999994L209.54100581597223,31.896874999999994L210.24724661458333,31.34375L210.79849791666666,28.946875000000006L210.8624111111111,30.606250000000017L210.9151394965278,30.606250000000017L210.95508524305555,33.37187500000002L211.58463020833335,37.61250000000001L211.59261935763888,34.84687500000001L212.42029522569445,31.34375L212.4410670138889,29.5L212.89804635416667,32.44999999999999L213.24317760416668,30.974999999999994L213.35023220486113,31.896874999999994L213.61227630208333,30.237499999999983L214.9576490451389,33.740624999999994L215.0471275173611,31.896874999999994L215.15577994791667,31.52812499999999L215.3171607638889,30.237499999999983L215.3890631076389,31.52812499999999L215.66868333333335,32.818749999999994L215.69424861111114,29.868750000000006L216.05855381944446,31.52812499999999L216.06654296874999,35.584374999999994L216.48197873263888,33.37187500000002L216.6161964409722,30.053124999999994L216.83509913194445,31.896874999999994L217.17064340277778,30.606250000000017L217.2153826388889,32.44999999999999L217.3448068576389,33.92500000000001L217.50618767361112,37.05937499999999L217.63880755208334,31.896874999999994L217.93919956597222,30.790625000000006L218.16289574652777,32.265625L218.41695069444444,30.790625000000006L218.74770147569444,31.712500000000006L218.79883203125002,32.44999999999999L219.32292022569445,32.265625L219.70799722222222,29.868750000000006L219.80226918402778,34.84687500000001L219.81505182291667,30.790625000000006L219.8502040798611,31.15937500000001L220.41903151041666,29.868750000000006L220.46057508680556,31.15937500000001L220.46377074652779,28.39375000000001L220.7226191840278,30.053124999999994L220.78813020833334,33.740624999999994L220.84724991319445,31.712500000000006L221.33938151041664,29.68437499999999L221.40649036458333,30.606250000000017L221.57106684027778,31.896874999999994L222.0456223090278,29.68437499999999L222.4642537326389,32.634375000000006L222.63681935763887,33.740624999999994L222.65918897569446,31.34375L222.66238463541666,26.181250000000006L222.7550587673611,31.34375L222.88927647569443,30.790625000000006L222.9835484375,27.840625000000017L223.08740737847222,28.76249999999999L223.52840842013887,31.712500000000006L223.5411910590278,29.5L223.77926770833335,29.868750000000006L224.1739316840278,30.237499999999983L224.17872517361113,26.734375L224.25542100694443,31.34375L224.95527048611112,28.76249999999999L225.06232508680557,30.790625000000006L225.2732386284722,30.421875L225.32436918402777,29.68437499999999L225.45379340277776,30.237499999999983L225.4729673611111,27.65625L225.51131527777775,27.840625000000017L225.80691380208333,29.868750000000006L225.85484869791668,29.68437499999999L226.21276258680558,26.181250000000006L226.21595824652778,28.946875000000006L226.25590399305557,30.606250000000017L226.41249131944446,28.946875000000006L227.12192777777778,30.974999999999994L227.1698626736111,30.237499999999983L227.2098084201389,29.5L227.58210277777778,29.5L227.59808107638887,32.44999999999999L228.28355008680558,30.606250000000017L228.69898585069444,27.471874999999983L228.77727951388889,26.734375L229.43558541666667,30.237499999999983L229.5586183159722,28.946875000000006L229.62093368055554,28.209374999999994L229.6720642361111,27.65625L229.82385807291666,30.606250000000017L230.0890978298611,29.68437499999999L230.37990286458336,28.39375000000001L230.4166529513889,27.840625000000017L231.13407855902778,31.712500000000006L231.29066588541667,27.287499999999994L231.4264814236111,29.31562500000001L231.70290598958331,28.76249999999999L232.09437430555556,29.31562500000001L232.14870052083333,28.946875000000006L232.30848350694444,30.053124999999994L232.65521258680556,31.15937500000001L232.85494131944446,29.68437499999999L232.87091961805558,29.68437499999999L233.47330147569446,29.5L233.64107361111112,29.68437499999999L233.86317196180556,31.15937500000001L234.1443900173611,29.0390625L234.33932526041667,29.868750000000006L234.46555381944444,28.578125L234.52307569444446,31.896874999999994L234.63652161458333,30.974999999999994L235.03438125000002,29.131249999999994L235.1670011284722,29.31562500000001L235.24050130208332,28.946875000000006L235.81731788194443,29.131249999999994L235.83489401041666,30.053124999999994L235.92117682291666,31.896874999999994L236.1033294270833,29.31562500000001L236.20239487847223,29.31562500000001L237.0764078125,29.5L237.09877743055554,33.1875L237.5957025173611,30.421875L237.79543125,29.5L238.37544348958332,27.471874999999983L238.40420442708333,30.421875L238.6854224826389,28.209374999999994L238.8484011284722,28.209374999999994L238.85159678819443,29.5L239.1791519097222,32.634375000000006L239.18554322916665,29.868750000000006L239.5913920138889,31.896874999999994L239.73040321180554,30.606250000000017L239.8646209201389,30.421875L239.91255581597224,28.946875000000006L240.10908888888886,26.55000000000001L240.19377387152778,29.68437499999999L240.3423720486111,28.39375000000001L240.38551345486113,30.974999999999994L240.68750329861112,28.578125L240.75940564236112,29.5L240.8984168402778,25.8125L241.19561319444446,28.025000000000006L241.65578819444443,27.471874999999983L241.84752777777777,27.287499999999994L241.86031041666666,31.712500000000006L242.4818662326389,26.91874999999999L242.52820329861112,28.578125L242.54418159722223,28.76249999999999L242.6001056423611,26.55000000000001L243.45814027777777,27.471874999999983L243.4629337673611,27.287499999999994L243.5492165798611,30.237499999999983L243.56679270833334,29.131249999999994L244.52229496527778,30.606250000000017L244.54626241319443,28.946875000000006L244.9009806423611,30.053124999999994L245.19817699652776,28.946875000000006L245.25729670138887,30.053124999999994L245.30043810763888,28.76249999999999L245.34677517361112,30.606250000000017L245.54810173611114,28.209374999999994L245.75262395833334,30.790625000000006L245.86606987847222,32.634375000000006L245.906015625,28.578125L246.42531032986113,29.868750000000006L246.69853923611112,28.209374999999994L246.8279634548611,31.52812499999999L246.8599200520833,29.5L247.09000755208334,29.5L247.19067083333334,29.68437499999999L247.49106284722222,28.025000000000006L247.52142161458335,28.025000000000006L247.7195525173611,28.025000000000006L247.8505745659722,29.5L247.92567256944446,30.053124999999994L248.1605535590278,31.15937500000001L248.2915756076389,29.131249999999994L248.36188012152778,29.868750000000006L249.1751755208333,29.5L249.3285671875,28.209374999999994L249.3749042534722,28.76249999999999L249.72482899305555,30.237499999999983L249.89419895833333,30.974999999999994L249.98367743055556,29.31562500000001L250.047590625,29.5L250.18500399305555,28.946875000000006L250.35756961805555,28.39375000000001L250.45343940972222,29.68437499999999L250.56049401041665,30.421875L250.7793967013889,32.08125000000001L250.8241359375,27.103125000000006L251.5271810763889,29.5L251.98575824652778,30.237499999999983L252.10080199652776,28.76249999999999L252.29094375,30.606250000000017L252.33887864583332,29.131249999999994L252.348465625,26.55000000000001L252.35166128472224,28.946875000000006L252.40918315972223,28.946875000000006L252.54499869791667,27.287499999999994L252.60252057291666,30.053124999999994L252.7670970486111,28.76249999999999L252.77508619791666,26.91874999999999L253.16495668402777,29.68437499999999L253.67626223958334,29.131249999999994L253.68744704861112,30.237499999999983L253.75934939236112,28.578125L253.77692552083332,27.840625000000017L254.36173125,29.131249999999994L254.52950338541666,27.103125000000006L254.59661223958332,29.68437499999999L254.6030035590278,28.76249999999999L254.7196451388889,28.578125L254.81711276041668,31.712500000000006L254.84108020833332,28.39375000000001L254.8826237847222,30.053124999999994L255.04720026041667,28.946875000000006L255.07596119791668,28.025000000000006L255.14466788194446,28.025000000000006L255.23414635416665,29.68437499999999L255.28208124999998,30.053124999999994L255.43707074652778,28.946875000000006L255.63360381944443,28.39375000000001L255.95956111111113,28.025000000000006L256.19284427083335,28.39375000000001L256.3190728298611,28.209374999999994L256.75528038194443,29.131249999999994L256.79203046875,26.55000000000001L256.8223892361111,28.025000000000006L257.0460854166667,27.840625000000017L257.0780420138889,28.209374999999994L257.12757473958334,30.237499999999983L257.4008036458333,30.606250000000017L257.7826849826389,28.209374999999994L258.56881727430556,30.237499999999983L258.6503065972222,26.55000000000001L258.69664366319444,34.109375L258.8500353298611,28.209374999999994L259.1616121527778,27.840625000000017L259.2399058159722,27.471874999999983L259.2734602430556,27.840625000000017L259.27985156249997,27.287499999999994L259.38690616319445,30.606250000000017L259.4252540798611,28.025000000000006L259.74162439236113,29.5L259.7480157118055,28.209374999999994L260.0388207465278,27.840625000000017L260.40472378472225,30.237499999999983L260.70351796875,26.91874999999999L261.2771388888889,28.025000000000006L261.2915193576389,29.131249999999994L261.32986727430557,30.237499999999983L261.41934574652777,31.15937500000001L261.5855200520833,30.237499999999983L261.6893789930556,30.790625000000006L261.782053125,27.471874999999983L261.90508602430555,27.840625000000017L261.9801840277778,27.287499999999994L262.31413046875,30.237499999999983L262.36685885416665,30.237499999999983L262.43396770833334,29.131249999999994L262.46113081597224,28.76249999999999L262.53942447916666,29.5L262.6512725694445,30.237499999999983L262.71358793402777,30.606250000000017L263.1753607638889,27.471874999999983L263.20571953125,27.65625L263.44060052083336,28.209374999999994L263.6435249131944,27.103125000000006L263.77774262152775,30.606250000000017L263.8927863715278,28.76249999999999L264.1276673611111,27.471874999999983L264.7891689236111,28.39375000000001L264.9713215277778,30.053124999999994L265.19341987847224,30.053124999999994L265.6056599826389,26.91874999999999L265.7254972222222,30.053124999999994L265.93800859375,26.55000000000001L266.33746605902775,28.209374999999994L266.4780750868055,28.39375000000001L266.7576953125,29.31562500000001L266.9941741319445,28.209374999999994L267.2194681423611,29.131249999999994L267.25462039930557,27.471874999999983L267.28018567708335,27.65625L267.9560677083333,28.946875000000006L268.04235052083334,29.868750000000006L268.0791006076389,28.39375000000001L268.1941443576389,30.053124999999994L268.41144921875,30.053124999999994L268.46897109375,31.34375L268.5744278645833,29.68437499999999L268.81090668402777,30.790625000000006L268.8524502604167,31.15937500000001L269.0761464409722,30.053124999999994L269.22794027777775,30.421875L269.35896232638885,27.65625L269.98531163194446,28.76249999999999L270.7570634548611,30.421875L270.92163993055556,30.053124999999994L271.47768472222225,28.209374999999994L271.5064456597222,29.31562500000001L271.7301418402778,29.31562500000001L272.1232079861111,30.237499999999983L272.3916434027778,29.131249999999994L272.64889401041665,29.5L272.8709923611111,29.131249999999994L272.90454678819447,28.76249999999999L272.96366649305554,29.68437499999999L273.0371666666667,27.65625L273.1042755208333,28.209374999999994L273.16179739583333,31.34375L274.0230276909722,30.053124999999994L274.22914774305553,30.421875L274.3633654513889,31.15937500000001L274.49758315972224,30.606250000000017L274.8507035590278,30.606250000000017L275.20861744791665,31.15937500000001L275.3220633680556,29.131249999999994L275.4450962673611,27.65625L275.4850420138889,29.31562500000001L275.67518376736115,28.946875000000006L276.26797864583335,27.103125000000006L276.47250086805553,27.103125000000006L276.58275112847224,30.974999999999994L276.85757786458333,28.209374999999994L277.27940494791665,28.946875000000006L277.36089427083334,27.840625000000017L277.54784036458335,30.421875L277.5686121527778,29.131249999999994L277.6325253472222,30.237499999999983L277.8434388888889,29.68437499999999L277.98245008680556,29.868750000000006L278.0911025173611,26.91874999999999L278.3195921875,33.00312499999998L278.5528753472222,25.8125L278.56406015625,28.025000000000006L278.8245064236111,28.39375000000001L278.8388868923611,32.818749999999994L278.8500717013889,26.365624999999994L278.85646302083336,29.68437499999999L278.8596586805555,29.131249999999994L278.86285434027775,29.31562500000001L278.86605000000003,29.131249999999994L278.86764782986114,26.91874999999999L278.87084348958336,26.91874999999999L278.87563697916664,28.76249999999999L278.87883263888887,33.92500000000001L278.8836261284722,29.223437500000017L278.8868217881945,30.053124999999994L278.8916152777778,30.606250000000017L278.89321310763887,28.946875000000006L278.8948109375,29.131249999999994L278.9107892361111,29.131249999999994L278.9123870659722,26.181250000000006L278.91558272569443,26.181250000000006L278.91718055555555,30.974999999999994L278.91877838541666,30.421875L278.92037621527777,27.471874999999983L278.9251697048611,27.65625L278.9267675347222,28.39375000000001L278.92996319444444,31.712500000000006L278.9347566840278,31.15937500000001L278.93795234375,29.131249999999994L278.9411480034722,30.790625000000006L278.94434366319445,30.237499999999983L278.95872413194445,28.946875000000006L278.96032196180556,27.65625L278.9651154513889,28.76249999999999L278.9683111111111,29.131249999999994L278.97150677083334,28.209374999999994L278.97470243055557,27.65625L278.9778980902778,33.37187500000002L278.9794959201389,30.053124999999994L278.98428940972224,30.237499999999983L278.9938763888889,29.31562500000001L278.99547421875,27.287499999999994L279.00186553819447,31.896874999999994L279.0066590277778,26.55000000000001L279.01145251736114,28.209374999999994L279.0146481770833,28.025000000000006L279.01624600694447,28.946875000000006L279.0226373263889,30.421875L279.0290286458333,29.131249999999994L279.03382213541664,27.103125000000006L279.03541996527775,30.237499999999983L279.0370177951389,30.237499999999983L279.038615625,28.39375000000001L279.0434091145833,30.421875L279.04980043402776,29.5L279.05299609375,29.131249999999994L279.05938741319443,29.5L279.06098524305554,27.840625000000017L279.06418090277776,26.734375L279.0657787326389,29.131249999999994L279.07376788194443,28.76249999999999L279.07856137152777,29.31562500000001L279.0801592013889,28.946875000000006L279.0833548611111,26.365624999999994L279.0865505208333,29.131249999999994L279.08974618055555,28.39375000000001L279.09134401041666,29.68437499999999L279.0961375,28.209374999999994L279.0977353298611,30.053124999999994L279.0993331597222,29.5L279.10093098958333,32.08125000000001L279.10572447916667,29.868750000000006L279.1073223090278,29.131249999999994L279.11051796875,29.5L279.1201049479167,30.790625000000006L279.1248984375,29.131249999999994L279.12969192708334,27.103125000000006L279.13128975694445,25.443749999999994L279.1376810763889,29.68437499999999L279.14726805555557,29.868750000000006L279.15845286458335,25.8125L279.16803984375,28.946875000000006L279.17443116319447,28.578125L279.1776268229167,30.606250000000017L279.1856159722222,31.896874999999994L279.1888116319445,27.65625L279.19040946180553,27.840625000000017L279.1936051215278,26.734375L279.1999964409722,26.734375L279.20638776041665,28.209374999999994L279.2079855902778,29.31562500000001L279.2143769097222,29.31562500000001L279.22076822916665,28.946875000000006L279.22556171875,28.39375000000001L279.23514869791666,29.868750000000006L279.23674652777777,30.053124999999994L279.2399421875,28.39375000000001L279.24952916666666,28.209374999999994L279.2559204861111,28.946875000000006L279.26231180555556,30.237499999999983L279.2655074652778,29.131249999999994L279.2671052951389,30.237499999999983L279.268703125,28.209374999999994L279.27349661458334,31.34375L279.27509444444445,30.237499999999983L279.28308359375,29.5L279.28627925347223,27.65625L279.2926705729167,29.31562500000001L279.2942684027778,31.712500000000006L279.2958662326389,26.91874999999999L279.2974640625,27.65625L279.2990618923611,29.68437499999999L279.30065972222224,25.8125L279.30225755208335,26.365624999999994L279.30545321180557,30.974999999999994L279.31504019097224,30.790625000000006L279.3198336805556,27.840625000000017L279.32942065972225,27.65625L279.33581197916664,28.39375000000001L279.3501924479167,29.68437499999999L279.35179027777775,29.131249999999994L279.3533881076389,29.68437499999999L279.35498593750003,32.265625L279.36297508680553,27.471874999999983L279.36617074652776,29.31562500000001L279.3741598958334,28.39375000000001L279.37895338541665,27.287499999999994L279.3821490451389,29.31562500000001L279.383746875,28.39375000000001L279.3853447048611,28.025000000000006" style="fill: none;" fill="none"></path></g></g></g></g></g></g><g transform="translate(42, 177)" clip-path="url(#clip_1)"><clipPath id="clip_1"><rect width="287" height="23"></rect></clipPath><g><g><line x1="0" y1="0" x2="0" y2="5" style="visibility: inherit;" fill="rgb(0, 0, 0)" stroke="rgb(204, 204, 204)" stroke-width="1px"></line><line x1="31.95659722222222" y1="0" x2="31.95659722222222" y2="5" style="visibility: inherit;" fill="rgb(0, 0, 0)" stroke="rgb(204, 204, 204)" stroke-width="1px"></line><line x1="63.91319444444444" y1="0" x2="63.91319444444444" y2="5" style="visibility: inherit;" fill="rgb(0, 0, 0)" stroke="rgb(204, 204, 204)" stroke-width="1px"></line><line x1="95.86979166666666" y1="0" x2="95.86979166666666" y2="5" style="visibility: inherit;" fill="rgb(0, 0, 0)" stroke="rgb(204, 204, 204)" stroke-width="1px"></line><line x1="127.82638888888889" y1="0" x2="127.82638888888889" y2="5" style="visibility: inherit;" fill="rgb(0, 0, 0)" stroke="rgb(204, 204, 204)" stroke-width="1px"></line><line x1="159.78298611111111" y1="0" x2="159.78298611111111" y2="5" style="visibility: inherit;" fill="rgb(0, 0, 0)" stroke="rgb(204, 204, 204)" stroke-width="1px"></line><line x1="191.73958333333331" y1="0" x2="191.73958333333331" y2="5" style="visibility: inherit;" fill="rgb(0, 0, 0)" stroke="rgb(204, 204, 204)" stroke-width="1px"></line><line x1="223.69618055555557" y1="0" x2="223.69618055555557" y2="5" style="visibility: inherit;" fill="rgb(0, 0, 0)" stroke="rgb(204, 204, 204)" stroke-width="1px"></line><line x1="255.65277777777777" y1="0" x2="255.65277777777777" y2="5" style="visibility: inherit;" fill="rgb(0, 0, 0)" stroke="rgb(204, 204, 204)" stroke-width="1px"></line><line x1="287.609375" y1="0" x2="287.609375" y2="5" style="visibility: inherit;" fill="rgb(0, 0, 0)" stroke="rgb(204, 204, 204)" stroke-width="1px"></line></g><g transform="translate(0, 8)"><text x="0" y="0" dx="0em" dy="0.95em" style="text-anchor: middle; visibility: hidden; font-family: &quot;Helvetica Neue&quot;, sans-serif; font-size: 12px; font-weight: 200;" fill="rgb(50, 49, 63)" stroke="none" stroke-width="1px">-20k</text><text x="31.95659722222222" y="0" dx="0em" dy="0.95em" style="text-anchor: middle; visibility: inherit; font-family: &quot;Helvetica Neue&quot;, sans-serif; font-size: 12px; font-weight: 200;" fill="rgb(50, 49, 63)" stroke="none" stroke-width="1px">0</text><text x="63.91319444444444" y="0" dx="0em" dy="0.95em" style="text-anchor: middle; visibility: inherit; font-family: &quot;Helvetica Neue&quot;, sans-serif; font-size: 12px; font-weight: 200;" fill="rgb(50, 49, 63)" stroke="none" stroke-width="1px">20k</text><text x="95.86979166666666" y="0" dx="0em" dy="0.95em" style="text-anchor: middle; visibility: inherit; font-family: &quot;Helvetica Neue&quot;, sans-serif; font-size: 12px; font-weight: 200;" fill="rgb(50, 49, 63)" stroke="none" stroke-width="1px">40k</text><text x="127.82638888888889" y="0" dx="0em" dy="0.95em" style="text-anchor: middle; visibility: inherit; font-family: &quot;Helvetica Neue&quot;, sans-serif; font-size: 12px; font-weight: 200;" fill="rgb(50, 49, 63)" stroke="none" stroke-width="1px">60k</text><text x="159.78298611111111" y="0" dx="0em" dy="0.95em" style="text-anchor: middle; visibility: inherit; font-family: &quot;Helvetica Neue&quot;, sans-serif; font-size: 12px; font-weight: 200;" fill="rgb(50, 49, 63)" stroke="none" stroke-width="1px">80k</text><text x="191.73958333333331" y="0" dx="0em" dy="0.95em" style="text-anchor: middle; visibility: inherit; font-family: &quot;Helvetica Neue&quot;, sans-serif; font-size: 12px; font-weight: 200;" fill="rgb(50, 49, 63)" stroke="none" stroke-width="1px">100k</text><text x="223.69618055555557" y="0" dx="0em" dy="0.95em" style="text-anchor: middle; visibility: inherit; font-family: &quot;Helvetica Neue&quot;, sans-serif; font-size: 12px; font-weight: 200;" fill="rgb(50, 49, 63)" stroke="none" stroke-width="1px">120k</text><text x="255.65277777777777" y="0" dx="0em" dy="0.95em" style="text-anchor: middle; visibility: inherit; font-family: &quot;Helvetica Neue&quot;, sans-serif; font-size: 12px; font-weight: 200;" fill="rgb(50, 49, 63)" stroke="none" stroke-width="1px">140k</text><text x="287.609375" y="0" dx="0em" dy="0.95em" style="text-anchor: middle; visibility: hidden; font-family: &quot;Helvetica Neue&quot;, sans-serif; font-size: 12px; font-weight: 200;" fill="rgb(50, 49, 63)" stroke="none" stroke-width="1px">160k</text></g><line x1="0" y1="0" x2="287.609375" y2="0" fill="rgb(0, 0, 0)" stroke="rgb(204, 204, 204)" stroke-width="1px"></line></g></g></g></g></svg>