<svg viewBox="0 0 330 200" xmlns="http://www.w3.org/2000/svg"><g><g><g><g><g><line x1="74.78125" y1="177" x2="69.78125" y2="177" style="visibility: inherit;" fill="rgb(0, 0, 0)" stroke="rgb(204, 204, 204)" stroke-width="1px"></line><line x1="74.78125" y1="154.875" x2="69.78125" y2="154.875" style="visibility: inherit;" fill="rgb(0, 0, 0)" stroke="rgb(204, 204, 204)" stroke-width="1px"></line><line x1="74.78125" y1="132.75" x2="69.78125" y2="132.75" style="visibility: inherit;" fill="rgb(0, 0, 0)" stroke="rgb(204, 204, 204)" stroke-width="1px"></line><line x1="74.78125" y1="110.625" x2="69.78125" y2="110.625" style="visibility: inherit;" fill="rgb(0, 0, 0)" stroke="rgb(204, 204, 204)" stroke-width="1px"></line><line x1="74.78125" y1="88.5" x2="69.78125" y2="88.5" style="visibility: inherit;" fill="rgb(0, 0, 0)" stroke="rgb(204, 204, 204)" stroke-width="1px"></line><line x1="74.78125" y1="66.375" x2="69.78125" y2="66.375" style="visibility: inherit;" fill="rgb(0, 0, 0)" stroke="rgb(204, 204, 204)" stroke-width="1px"></line><line x1="74.78125" y1="44.25" x2="69.78125" y2="44.25" style="visibility: inherit;" fill="rgb(0, 0, 0)" stroke="rgb(204, 204, 204)" stroke-width="1px"></line><line x1="74.78125" y1="22.125" x2="69.78125" y2="22.125" style="visibility: inherit;" fill="rgb(0, 0, 0)" stroke="rgb(204, 204, 204)" stroke-width="1px"></line><line x1="74.78125" y1="0" x2="69.78125" y2="0" style="visibility: inherit;" fill="rgb(0, 0, 0)" stroke="rgb(204, 204, 204)" stroke-width="1px"></line></g><g transform="translate(64.78125, 0)"><text x="0" y="177" dx="0em" dy="0.3em" style="text-anchor: end; visibility: hidden; font-family: &quot;Helvetica Neue&quot;, sans-serif; font-size: 12px; font-weight: 200;" fill="rgb(50, 49, 63)" stroke="none" stroke-width="1px">-2e+3</text><text x="0" y="154.875" dx="0em" dy="0.3em" style="text-anchor: end; visibility: inherit; font-family: &quot;Helvetica Neue&quot;, sans-serif; font-size: 12px; font-weight: 200;" fill="rgb(50, 49, 63)" stroke="none" stroke-width="1px">0</text><text x="0" y="132.75" dx="0em" dy="0.3em" style="text-anchor: end; visibility: hidden; font-family: &quot;Helvetica Neue&quot;, sans-serif; font-size: 12px; font-weight: 200;" fill="rgb(50, 49, 63)" stroke="none" stroke-width="1px">2e+3</text><text x="0" y="110.625" dx="0em" dy="0.3em" style="text-anchor: end; visibility: inherit; font-family: &quot;Helvetica Neue&quot;, sans-serif; font-size: 12px; font-weight: 200;" fill="rgb(50, 49, 63)" stroke="none" stroke-width="1px">4e+3</text><text x="0" y="88.5" dx="0em" dy="0.3em" style="text-anchor: end; visibility: hidden; font-family: &quot;Helvetica Neue&quot;, sans-serif; font-size: 12px; font-weight: 200;" fill="rgb(50, 49, 63)" stroke="none" stroke-width="1px">6e+3</text><text x="0" y="66.375" dx="0em" dy="0.3em" style="text-anchor: end; visibility: inherit; font-family: &quot;Helvetica Neue&quot;, sans-serif; font-size: 12px; font-weight: 200;" fill="rgb(50, 49, 63)" stroke="none" stroke-width="1px">8e+3</text><text x="0" y="44.25" dx="0em" dy="0.3em" style="text-anchor: end; visibility: hidden; font-family: &quot;Helvetica Neue&quot;, sans-serif; font-size: 12px; font-weight: 200;" fill="rgb(50, 49, 63)" stroke="none" stroke-width="1px">1e+4</text><text x="0" y="22.125" dx="0em" dy="0.3em" style="text-anchor: end; visibility: inherit; font-family: &quot;Helvetica Neue&quot;, sans-serif; font-size: 12px; font-weight: 200;" fill="rgb(50, 49, 63)" stroke="none" stroke-width="1px">1.2e+4</text><text x="0" y="0" dx="0em" dy="0.3em" style="text-anchor: end; visibility: hidden; font-family: &quot;Helvetica Neue&quot;, sans-serif; font-size: 12px; font-weight: 200;" fill="rgb(50, 49, 63)" stroke="none" stroke-width="1px">1.4e+4</text></g><line x1="74.78125" y1="0" x2="74.78125" y2="177" fill="rgb(0, 0, 0)" stroke="rgb(204, 204, 204)" stroke-width="1px"></line></g></g><g transform="translate(74, 0)" clip-path="url(#clip_0)"><clipPath id="clip_0"><rect width="255" height="177"></rect></clipPath><g><g><g><line x1="0" y1="0" x2="0" y2="177" fill="rgb(0, 0, 0)" stroke="rgb(60, 60, 60)" stroke-width="1px" opacity="0.25"></line><line x1="28.357638888888886" y1="0" x2="28.357638888888886" y2="177" fill="rgb(0, 0, 0)" stroke="rgb(60, 60, 60)" stroke-width="1px" opacity="0.25"></line><line x1="56.71527777777777" y1="0" x2="56.71527777777777" y2="177" fill="rgb(0, 0, 0)" stroke="rgb(60, 60, 60)" stroke-width="1px" opacity="0.25"></line><line x1="85.07291666666666" y1="0" x2="85.07291666666666" y2="177" fill="rgb(0, 0, 0)" stroke="rgb(60, 60, 60)" stroke-width="1px" opacity="0.25"></line><line x1="113.43055555555554" y1="0" x2="113.43055555555554" y2="177" fill="rgb(0, 0, 0)" stroke="rgb(60, 60, 60)" stroke-width="1px" opacity="0.25"></line><line x1="141.78819444444446" y1="0" x2="141.78819444444446" y2="177" fill="rgb(0, 0, 0)" stroke="rgb(60, 60, 60)" stroke-width="1px" opacity="0.25"></line><line x1="170.14583333333331" y1="0" x2="170.14583333333331" y2="177" fill="rgb(0, 0, 0)" stroke="rgb(60, 60, 60)" stroke-width="1px" opacity="0.25"></line><line x1="198.50347222222223" y1="0" x2="198.50347222222223" y2="177" fill="rgb(0, 0, 0)" stroke="rgb(60, 60, 60)" stroke-width="1px" opacity="0.25"></line><line x1="226.8611111111111" y1="0" x2="226.8611111111111" y2="177" fill="rgb(0, 0, 0)" stroke="rgb(60, 60, 60)" stroke-width="1px" opacity="0.25"></line><line x1="255.21875" y1="0" x2="255.21875" y2="177" fill="rgb(0, 0, 0)" stroke="rgb(60, 60, 60)" stroke-width="1px" opacity="0.25"></line></g><g><line x1="0" y1="177" x2="255.21875" y2="177" fill="rgb(0, 0, 0)" stroke="rgb(60, 60, 60)" stroke-width="1px" opacity="0.25"></line><line x1="0" y1="154.875" x2="255.21875" y2="154.875" fill="rgb(0, 0, 0)" stroke="rgb(60, 60, 60)" stroke-width="1px" opacity="0.25"></line><line x1="0" y1="132.75" x2="255.21875" y2="132.75" fill="rgb(0, 0, 0)" stroke="rgb(60, 60, 60)" stroke-width="1px" opacity="0.25"></line><line x1="0" y1="110.625" x2="255.21875" y2="110.625" fill="rgb(0, 0, 0)" stroke="rgb(60, 60, 60)" stroke-width="1px" opacity="0.25"></line><line x1="0" y1="88.5" x2="255.21875" y2="88.5" fill="rgb(0, 0, 0)" stroke="rgb(60, 60, 60)" stroke-width="1px" opacity="0.25"></line><line x1="0" y1="66.375" x2="255.21875" y2="66.375" fill="rgb(0, 0, 0)" stroke="rgb(60, 60, 60)" stroke-width="1px" opacity="0.25"></line><line x1="0" y1="44.25" x2="255.21875" y2="44.25" fill="rgb(0, 0, 0)" stroke="rgb(60, 60, 60)" stroke-width="1px" opacity="0.25"></line><line x1="0" y1="22.125" x2="255.21875" y2="22.125" fill="rgb(0, 0, 0)" stroke="rgb(60, 60, 60)" stroke-width="1px" opacity="0.25"></line><line x1="0" y1="0" x2="255.21875" y2="0" fill="rgb(0, 0, 0)" stroke="rgb(60, 60, 60)" stroke-width="1px" opacity="0.25"></line></g></g></g><g><g><line x1="0" y1="154.875" x2="255.21875" y2="154.875" fill="rgb(0, 0, 0)" stroke="rgb(153, 153, 153)" stroke-width="1.5px"></line></g></g><g><g><line x1="28.357638888888886" y1="0" x2="28.357638888888886" y2="177" fill="rgb(0, 0, 0)" stroke="rgb(153, 153, 153)" stroke-width="1.5px"></line></g></g><g><g><g><g><g><path stroke="rgb(255, 112, 67)" stroke-width="2px" d="M28.462562152777778,154.8639375L31.068629166666668,154.8639375L31.231685590277777,154.8639375L31.258625347222225,154.8639375L31.262878993055555,154.84772910460063L31.301161805555555,154.85118830512806L31.408920833333333,154.85257184010646L31.441532118055555,154.85116828349888L31.4812328125,154.8490390443739L31.529440798611112,154.84708028925826L31.610260069444443,154.84873084822598L31.62727465277778,154.8493083736377L31.709511805555557,154.85126987312614L31.742123090277776,154.84946984760555L31.76764496527778,154.85082736322974L31.773316493055557,154.85198394352685L31.805927777777775,154.85253343969202L31.837121180555556,154.85275957287058L31.871150347222223,154.85220446165184L31.916522569444446,154.8506016512477L31.926447743055558,154.85039110456808L31.9661484375,154.85097339930235L32.00868489583333,154.85057513659478L32.02569947916667,154.84962291783154L32.12778697916667,154.84679511912404L32.14763732638889,154.84769853098183L32.14905520833334,154.84611259240828L32.19868107638889,154.84538944926163L32.21285989583333,154.8439821347354L32.244053298611114,154.84283138990853L32.25539635416666,154.84088525188258L33.242242187500004,154.8397640888766L33.57969809027778,154.83929054612983L33.70305381944445,154.83698968555217L33.73566510416667,154.83754406777186L34.07737465277778,154.83657953879307L34.09438923611111,154.8334439465259L34.685646006944445,154.82884404001175L34.94937204861111,154.82351965346552L35.093996006944444,154.8166471546676L35.49951024305555,154.80606914110723L35.54062881944444,154.79314478920094L35.54771822916667,154.78702135996633L35.67532760416667,154.77518528714256L35.781668749999994,154.76370208029226L35.895099305555554,154.75725407365522L35.91069600694444,154.74553614633487L35.94188940972222,154.7358318745698L35.95890399305555,154.72427331831346L35.961739756944446,154.721417153753L35.98867951388889,154.71437578552408L36.01703715277778,154.7097570302085L36.03830538194445,154.7038923006121L36.06666302083333,154.69188884936543L36.2027796875,154.68046931345765L36.214122743055555,154.66846508935046L36.266584375,154.6730546986491L36.27509166666667,154.6600328393827L36.300613541666664,154.64863042129832L36.30912083333334,154.64651122720488L36.42538715277778,154.64027638800866L36.439565972222226,154.63217426061414L36.46366996527778,154.6277230737191L36.81814045138889,154.59689449701122L36.8663484375,154.56517588234868L36.90604913194444,154.5342132950021L36.927317361111115,154.50739059095574L37.02798697916667,154.47775360605164L37.03365850694444,154.44094852023443L37.11873142361111,154.37763000980297L37.168357291666666,154.30238746860815L37.44626215277778,154.21745248980062L37.454769444444445,154.14973490280832L37.746853125,154.07174478060702L37.813493576388886,153.99920811325217L38.42885434027777,153.93645468693632L41.52550850694444,153.83855292487274L41.698490104166666,153.76348343921077L41.88423263888889,153.69046131452194L41.89132204861111,153.62190938590888L42.102586458333334,153.53635728952412L42.19474878472222,153.46078123317938L42.2514640625,153.41071017421098L42.36773038194444,153.3535463925569L42.65272465277778,153.31395969321457L42.664067708333334,153.25471836903927L42.81436319444444,153.21232784469632L43.04406006944445,153.17531814210818L43.143311805555555,153.05322599383504L43.71755399305555,153.0031907938402L43.856506423611116,152.9495858127569L44.11597881944445,152.793614287156L44.23224513888889,152.73431362777987L44.49171753472222,152.68931009385216L44.582461979166666,152.67843543124076L44.62641631944444,152.59359314088127L44.88163506944444,152.55896361974055L45.08864583333333,152.4113606597798L45.16521145833333,152.3641866781344L45.20633003472222,152.34129767579452L45.40766927083333,152.2175719817703L50.49361180555555,152.09546782061736L50.65525034722222,151.992869051909L50.98561684027778,151.8821388107795L51.21389583333333,151.81217832461198L54.09928559027778,151.63025597104323L60.79168836805555,151.5190047418272L70.49283663194444,151.06625768477005L75.60430104166667,149.03662685083123L87.6548796875,147.0488293497359L89.83983576388889,145.38243701715578L90.8295173611111,143.44429713542556L92.03188125,141.6019665067309L92.07299982638888,140.571810276108L95.50569201388889,139.01987818323352L97.10222708333333,137.6909336286909L97.44535451388889,136.16826301304633L98.69592638888889,135.11383465646492L100.63133524305556,133.7977118981902L101.51751145833333,132.74840724178327L101.79966996527779,132.25967173780748L107.58462829861112,130.891318172339L107.59738923611111,130.31681097920853L108.09506579861112,129.40890198113084L108.75012725694445,128.62697689357617L109.412278125,128.05903701860893L109.66466111111112,127.26953073013779L111.38455190972223,126.4411595134305L111.38596979166667,126.2897863414581L111.65962100694443,126.03863867452793L113.05765260416666,125.94051611389052L116.10468090277777,125.73241958614776L120.46324999999999,125.45044458357917L121.65568871527778,124.58470300128145L121.87120677083333,124.17173926252232L125.44994079861112,123.42861371971932L135.48854496527778,122.54598331772173L142.24758819444446,121.9612159525172L152.66476684027776,119.50676535688956L152.9908796875,117.78807095893958L172.0585560763889,115.34684268795999L197.6442357638889,111.14725141960312L200.7394720486111,107.60166061443567L203.5015060763889,103.3419913073257L206.66480069444444,98.48981292672755L207.01218177083334,96.49617418684359L208.3293940972222,92.72952442023346L210.44912760416668,88.61681268940431L211.10560694444445,86.16916854817319L213.95129600694443,82.19621950886801L215.44999722222224,79.58404020490465L218.2403888888889,75.1471060049376L220.57705833333333,73.0646012513101L221.1824939236111,69.59914452586831L221.7921831597222,67.53583810962314L223.33342083333332,66.28031670732194L225.72255190972223,64.19368314215542L225.92672690972222,61.56038615714181L226.00896406249998,59.69248357517671L227.17304513888888,58.876389670893474L227.51617256944445,56.698145141481106L229.63732395833335,55.39144971743829L230.43275572916667,54.061516808793144L230.91483559027776,52.44008831932405L235.87742239583335,51.429732779227535L237.00747430555558,50.366920607157695L237.13224791666667,49.26699199789344L242.35147135416668,47.519966395021044L244.6654546875,45.811782028618666L244.66687256944445,44.03909598375435" style="fill: none;" fill="none"></path></g></g></g></g><g opacity="0.2"><g><g><g><path stroke="rgb(255, 112, 67)" stroke-width="2px" d="M28.462562152777778,154.8639375L31.068629166666668,154.8639375L31.231685590277777,154.8639375L31.258625347222225,154.8639375L31.262878993055555,154.7975625L31.301161805555555,154.8639375L31.408920833333333,154.85840625L31.441532118055555,154.844578125L31.4812328125,154.83812500087916L31.529440798611112,154.83628125L31.610260069444443,154.85840625L31.62727465277778,154.852875L31.709511805555557,154.8639375L31.742123090277776,154.837387498945L31.76764496527778,154.8602499995604L31.773316493055557,154.8602499995604L31.805927777777775,154.8565625004396L31.837121180555556,154.85445535770805L31.871150347222223,154.8479583336264L31.916522569444446,154.83812500087916L31.926447743055558,154.8487265625L31.9661484375,154.855640625L32.00868489583333,154.84734375L32.02569947916667,154.8418125L32.12778697916667,154.82337500175834L32.14763732638889,154.85524553590267L32.14905520833334,154.8327613643557L32.19868107638889,154.83925961619616L32.21285989583333,154.83197916725277L32.244053298611114,154.83296250052751L32.25539635416666,154.824112501055L33.242242187500004,154.83005859375L33.57969809027778,154.835175001055L33.70305381944445,154.816921875L33.73566510416667,154.84239473725856L34.07737465277778,154.8281160709262L34.09438923611111,154.805859375L34.685646006944445,154.78828427249192L34.94937204861111,154.776474609375L35.093996006944444,154.7558104814887L35.49951024305555,154.7122741904855L35.54062881944444,154.67837299203873L35.54771822916667,154.7325703125L35.67532760416667,154.66980846297741L35.781668749999994,154.66135546875L35.895099305555554,154.699728515625L35.91069600694444,154.64090321695804L35.94188940972222,154.64911088097097L35.95890399305555,154.620908203125L35.961739756944446,154.69585887300968L35.98867951388889,154.651330078125L36.01703715277778,154.66838104498387L36.03830538194445,154.651330078125L36.06666302083333,154.584263671875L36.2027796875,154.578041015625L36.214122743055555,154.560755859375L36.266584375,154.714248046875L36.27509166666667,154.543125L36.300613541666664,154.546236328125L36.30912083333334,154.6274765625L36.42538715277778,154.584263671875L36.439565972222226,154.559373046875L36.46366996527778,154.587720703125L36.81814045138889,154.31980078125L36.8663484375,154.280044921875L36.90604913194444,154.255845703125L36.927317361111115,154.266216796875L37.02798697916667,154.21125L37.03365850694444,154.109958984375L37.11873142361111,153.80816015625L37.168357291666666,153.62562890625L37.44626215277778,153.45346875L37.454769444444445,153.5405859375L37.746853125,153.370154296875L37.813493576388886,153.346646484375L38.42885434027777,153.3718828125L41.52550850694444,152.95773046875L41.698490104166666,153.088060546875L41.88423263888889,153.033439453125L41.89132204861111,153.005091796875L42.102586458333334,152.766556640625L42.19474878472222,152.78073046875L42.2514640625,152.960150390625L42.36773038194444,152.839154296875L42.65272465277778,152.95773046875L42.664067708333334,152.721615234375L42.81436319444444,152.830857421875L43.04406006944445,152.842265625L43.143311805555555,151.9545L43.71755399305555,152.552912109375L43.856506423611116,152.467177734375L44.11597881944445,151.389966796875L44.23224513888889,152.200640625L44.49171753472222,152.28430078125L44.582461979166666,152.580568359375L44.62641631944444,151.830046875L44.88163506944444,152.24731054687498L45.08864583333333,151.082982421875L45.16521145833333,151.939634765625L45.20633003472222,152.135302734375L45.40766927083333,151.1040703125L50.49361180555555,150.996556640625L50.65525034722222,151.0695L50.98561684027778,150.8855859375L51.21389583333333,151.182544921875L54.09928559027778,149.99298046875L60.79168836805555,150.5177578125L70.49283663194444,146.9915859375L75.60430104166667,130.770158203125L87.6548796875,129.1588359375L89.83983576388889,130.385044921875L90.8295173611111,126.00118359375L92.03188125,125.021115234375L92.07299982638888,131.30046679687499L95.50569201388889,125.05257421875001L97.10222708333333,125.730498046875L97.44535451388889,122.464294921875L98.69592638888889,125.62402148437499L100.63133524305556,121.952654296875L101.51751145833333,123.30469921875L101.79966996527779,127.86106640625L107.58462829861112,118.576171875L107.59738923611111,125.14625976562499L108.09506579861112,121.237740234375L108.75012725694445,121.589666015625L109.412278125,122.947587890625L109.66466111111112,120.16398632812499L111.38455190972223,118.98583007812499L111.38596979166667,124.9274296875L111.65962100694443,123.7783125L113.05765260416666,125.05741406249999L116.10468090277777,123.859552734375L120.46324999999999,122.912671875L121.65568871527778,116.79303515625L121.87120677083333,120.45506835937499L125.44994079861112,116.74048828125001L135.48854496527778,114.60231445312499L142.24758819444446,116.69831250000001L152.66476684027776,97.41672070312501L152.9908796875,102.319828125L172.0585560763889,93.375796875L197.6442357638889,73.350943359375L200.7394720486111,75.69135351562501L203.5015060763889,65.004978515625L206.66480069444444,54.82021875000001L207.01218177083334,78.5534296875L208.3293940972222,58.82968359374999L210.44912760416668,51.60241406249999L211.10560694444445,64.140375L213.95129600694443,46.439683593750004L215.44999722222224,56.0744296875L218.2403888888889,35.214703125L220.57705833333333,54.322060546874994L221.1824939236111,38.410037109375L221.7921831597222,48.96608203125001L223.33342083333332,54.980625L225.72255190972223,45.413982421875005L225.92672690972222,37.86071484375L226.00896406249998,42.881361328124996L227.17304513888888,51.531544921874996L227.51617256944445,37.09394531250001L229.63732395833335,43.63119140625L230.43275572916667,42.092121093749995L230.91483559027776,37.84723242187499L235.87742239583335,42.336533203124986L237.00747430555558,40.801611328125006L237.13224791666667,39.36763476562501L242.35147135416668,31.79673632812498L244.6654546875,30.438123046875006L244.66687256944445,28.084921874999992" style="fill: none;" fill="none"></path></g></g></g></g></g></g><g transform="translate(74, 177)" clip-path="url(#clip_1)"><clipPath id="clip_1"><rect width="255" height="23"></rect></clipPath><g><g><line x1="0" y1="0" x2="0" y2="5" style="visibility: inherit;" fill="rgb(0, 0, 0)" stroke="rgb(204, 204, 204)" stroke-width="1px"></line><line x1="28.357638888888886" y1="0" x2="28.357638888888886" y2="5" style="visibility: inherit;" fill="rgb(0, 0, 0)" stroke="rgb(204, 204, 204)" stroke-width="1px"></line><line x1="56.71527777777777" y1="0" x2="56.71527777777777" y2="5" style="visibility: inherit;" fill="rgb(0, 0, 0)" stroke="rgb(204, 204, 204)" stroke-width="1px"></line><line x1="85.07291666666666" y1="0" x2="85.07291666666666" y2="5" style="visibility: inherit;" fill="rgb(0, 0, 0)" stroke="rgb(204, 204, 204)" stroke-width="1px"></line><line x1="113.43055555555554" y1="0" x2="113.43055555555554" y2="5" style="visibility: inherit;" fill="rgb(0, 0, 0)" stroke="rgb(204, 204, 204)" stroke-width="1px"></line><line x1="141.78819444444446" y1="0" x2="141.78819444444446" y2="5" style="visibility: inherit;" fill="rgb(0, 0, 0)" stroke="rgb(204, 204, 204)" stroke-width="1px"></line><line x1="170.14583333333331" y1="0" x2="170.14583333333331" y2="5" style="visibility: inherit;" fill="rgb(0, 0, 0)" stroke="rgb(204, 204, 204)" stroke-width="1px"></line><line x1="198.50347222222223" y1="0" x2="198.50347222222223" y2="5" style="visibility: inherit;" fill="rgb(0, 0, 0)" stroke="rgb(204, 204, 204)" stroke-width="1px"></line><line x1="226.8611111111111" y1="0" x2="226.8611111111111" y2="5" style="visibility: inherit;" fill="rgb(0, 0, 0)" stroke="rgb(204, 204, 204)" stroke-width="1px"></line><line x1="255.21875" y1="0" x2="255.21875" y2="5" style="visibility: inherit;" fill="rgb(0, 0, 0)" stroke="rgb(204, 204, 204)" stroke-width="1px"></line></g><g transform="translate(0, 8)"><text x="0" y="0" dx="0em" dy="0.95em" style="text-anchor: middle; visibility: hidden; font-family: &quot;Helvetica Neue&quot;, sans-serif; font-size: 12px; font-weight: 200;" fill="rgb(50, 49, 63)" stroke="none" stroke-width="1px">-20k</text><text x="28.357638888888886" y="0" dx="0em" dy="0.95em" style="text-anchor: middle; visibility: inherit; font-family: &quot;Helvetica Neue&quot;, sans-serif; font-size: 12px; font-weight: 200;" fill="rgb(50, 49, 63)" stroke="none" stroke-width="1px">0</text><text x="56.71527777777777" y="0" dx="0em" dy="0.95em" style="text-anchor: middle; visibility: hidden; font-family: &quot;Helvetica Neue&quot;, sans-serif; font-size: 12px; font-weight: 200;" fill="rgb(50, 49, 63)" stroke="none" stroke-width="1px">20k</text><text x="85.07291666666666" y="0" dx="0em" dy="0.95em" style="text-anchor: middle; visibility: inherit; font-family: &quot;Helvetica Neue&quot;, sans-serif; font-size: 12px; font-weight: 200;" fill="rgb(50, 49, 63)" stroke="none" stroke-width="1px">40k</text><text x="113.43055555555554" y="0" dx="0em" dy="0.95em" style="text-anchor: middle; visibility: hidden; font-family: &quot;Helvetica Neue&quot;, sans-serif; font-size: 12px; font-weight: 200;" fill="rgb(50, 49, 63)" stroke="none" stroke-width="1px">60k</text><text x="141.78819444444446" y="0" dx="0em" dy="0.95em" style="text-anchor: middle; visibility: inherit; font-family: &quot;Helvetica Neue&quot;, sans-serif; font-size: 12px; font-weight: 200;" fill="rgb(50, 49, 63)" stroke="none" stroke-width="1px">80k</text><text x="170.14583333333331" y="0" dx="0em" dy="0.95em" style="text-anchor: middle; visibility: hidden; font-family: &quot;Helvetica Neue&quot;, sans-serif; font-size: 12px; font-weight: 200;" fill="rgb(50, 49, 63)" stroke="none" stroke-width="1px">100k</text><text x="198.50347222222223" y="0" dx="0em" dy="0.95em" style="text-anchor: middle; visibility: inherit; font-family: &quot;Helvetica Neue&quot;, sans-serif; font-size: 12px; font-weight: 200;" fill="rgb(50, 49, 63)" stroke="none" stroke-width="1px">120k</text><text x="226.8611111111111" y="0" dx="0em" dy="0.95em" style="text-anchor: middle; visibility: hidden; font-family: &quot;Helvetica Neue&quot;, sans-serif; font-size: 12px; font-weight: 200;" fill="rgb(50, 49, 63)" stroke="none" stroke-width="1px">140k</text><text x="255.21875" y="0" dx="0em" dy="0.95em" style="text-anchor: middle; visibility: hidden; font-family: &quot;Helvetica Neue&quot;, sans-serif; font-size: 12px; font-weight: 200;" fill="rgb(50, 49, 63)" stroke="none" stroke-width="1px">160k</text></g><line x1="0" y1="0" x2="255.21875" y2="0" fill="rgb(0, 0, 0)" stroke="rgb(204, 204, 204)" stroke-width="1px"></line></g></g></g></g></svg>