<svg viewBox="0 0 330 200" xmlns="http://www.w3.org/2000/svg"><g><g><g><g><g><line x1="53.1875" y1="177" x2="48.1875" y2="177" style="visibility: inherit;" fill="rgb(0, 0, 0)" stroke="rgb(204, 204, 204)" stroke-width="1px"></line><line x1="53.1875" y1="160.9090909090909" x2="48.1875" y2="160.9090909090909" style="visibility: inherit;" fill="rgb(0, 0, 0)" stroke="rgb(204, 204, 204)" stroke-width="1px"></line><line x1="53.1875" y1="144.8181818181818" x2="48.1875" y2="144.8181818181818" style="visibility: inherit;" fill="rgb(0, 0, 0)" stroke="rgb(204, 204, 204)" stroke-width="1px"></line><line x1="53.1875" y1="128.72727272727275" x2="48.1875" y2="128.72727272727275" style="visibility: inherit;" fill="rgb(0, 0, 0)" stroke="rgb(204, 204, 204)" stroke-width="1px"></line><line x1="53.1875" y1="112.63636363636364" x2="48.1875" y2="112.63636363636364" style="visibility: inherit;" fill="rgb(0, 0, 0)" stroke="rgb(204, 204, 204)" stroke-width="1px"></line><line x1="53.1875" y1="96.54545454545455" x2="48.1875" y2="96.54545454545455" style="visibility: inherit;" fill="rgb(0, 0, 0)" stroke="rgb(204, 204, 204)" stroke-width="1px"></line><line x1="53.1875" y1="80.45454545454547" x2="48.1875" y2="80.45454545454547" style="visibility: inherit;" fill="rgb(0, 0, 0)" stroke="rgb(204, 204, 204)" stroke-width="1px"></line><line x1="53.1875" y1="64.36363636363636" x2="48.1875" y2="64.36363636363636" style="visibility: inherit;" fill="rgb(0, 0, 0)" stroke="rgb(204, 204, 204)" stroke-width="1px"></line><line x1="53.1875" y1="48.27272727272728" x2="48.1875" y2="48.27272727272728" style="visibility: inherit;" fill="rgb(0, 0, 0)" stroke="rgb(204, 204, 204)" stroke-width="1px"></line><line x1="53.1875" y1="32.18181818181819" x2="48.1875" y2="32.18181818181819" style="visibility: inherit;" fill="rgb(0, 0, 0)" stroke="rgb(204, 204, 204)" stroke-width="1px"></line><line x1="53.1875" y1="16.090909090909093" x2="48.1875" y2="16.090909090909093" style="visibility: inherit;" fill="rgb(0, 0, 0)" stroke="rgb(204, 204, 204)" stroke-width="1px"></line><line x1="53.1875" y1="0" x2="48.1875" y2="0" style="visibility: inherit;" fill="rgb(0, 0, 0)" stroke="rgb(204, 204, 204)" stroke-width="1px"></line></g><g transform="translate(43.1875, 0)"><text x="0" y="177" dx="0em" dy="0.3em" style="text-anchor: end; visibility: hidden; font-family: &quot;Helvetica Neue&quot;, sans-serif; font-size: 12px; font-weight: 200;" fill="rgb(50, 49, 63)" stroke="none" stroke-width="1px">-120</text><text x="0" y="160.9090909090909" dx="0em" dy="0.3em" style="text-anchor: end; visibility: inherit; font-family: &quot;Helvetica Neue&quot;, sans-serif; font-size: 12px; font-weight: 200;" fill="rgb(50, 49, 63)" stroke="none" stroke-width="1px">-100</text><text x="0" y="144.8181818181818" dx="0em" dy="0.3em" style="text-anchor: end; visibility: hidden; font-family: &quot;Helvetica Neue&quot;, sans-serif; font-size: 12px; font-weight: 200;" fill="rgb(50, 49, 63)" stroke="none" stroke-width="1px">-80</text><text x="0" y="128.72727272727275" dx="0em" dy="0.3em" style="text-anchor: end; visibility: inherit; font-family: &quot;Helvetica Neue&quot;, sans-serif; font-size: 12px; font-weight: 200;" fill="rgb(50, 49, 63)" stroke="none" stroke-width="1px">-60</text><text x="0" y="112.63636363636364" dx="0em" dy="0.3em" style="text-anchor: end; visibility: hidden; font-family: &quot;Helvetica Neue&quot;, sans-serif; font-size: 12px; font-weight: 200;" fill="rgb(50, 49, 63)" stroke="none" stroke-width="1px">-40</text><text x="0" y="96.54545454545455" dx="0em" dy="0.3em" style="text-anchor: end; visibility: inherit; font-family: &quot;Helvetica Neue&quot;, sans-serif; font-size: 12px; font-weight: 200;" fill="rgb(50, 49, 63)" stroke="none" stroke-width="1px">-20</text><text x="0" y="80.45454545454547" dx="0em" dy="0.3em" style="text-anchor: end; visibility: hidden; font-family: &quot;Helvetica Neue&quot;, sans-serif; font-size: 12px; font-weight: 200;" fill="rgb(50, 49, 63)" stroke="none" stroke-width="1px">0</text><text x="0" y="64.36363636363636" dx="0em" dy="0.3em" style="text-anchor: end; visibility: inherit; font-family: &quot;Helvetica Neue&quot;, sans-serif; font-size: 12px; font-weight: 200;" fill="rgb(50, 49, 63)" stroke="none" stroke-width="1px">20</text><text x="0" y="48.27272727272728" dx="0em" dy="0.3em" style="text-anchor: end; visibility: hidden; font-family: &quot;Helvetica Neue&quot;, sans-serif; font-size: 12px; font-weight: 200;" fill="rgb(50, 49, 63)" stroke="none" stroke-width="1px">40</text><text x="0" y="32.18181818181819" dx="0em" dy="0.3em" style="text-anchor: end; visibility: inherit; font-family: &quot;Helvetica Neue&quot;, sans-serif; font-size: 12px; font-weight: 200;" fill="rgb(50, 49, 63)" stroke="none" stroke-width="1px">60</text><text x="0" y="16.090909090909093" dx="0em" dy="0.3em" style="text-anchor: end; visibility: hidden; font-family: &quot;Helvetica Neue&quot;, sans-serif; font-size: 12px; font-weight: 200;" fill="rgb(50, 49, 63)" stroke="none" stroke-width="1px">80</text><text x="0" y="0" dx="0em" dy="0.3em" style="text-anchor: end; visibility: hidden; font-family: &quot;Helvetica Neue&quot;, sans-serif; font-size: 12px; font-weight: 200;" fill="rgb(50, 49, 63)" stroke="none" stroke-width="1px">100</text></g><line x1="53.1875" y1="0" x2="53.1875" y2="177" fill="rgb(0, 0, 0)" stroke="rgb(204, 204, 204)" stroke-width="1px"></line></g></g><g transform="translate(53, 0)" clip-path="url(#clip_0)"><clipPath id="clip_0"><rect width="276" height="177"></rect></clipPath><g><g><g><line x1="0" y1="0" x2="0" y2="177" fill="rgb(0, 0, 0)" stroke="rgb(60, 60, 60)" stroke-width="1px" opacity="0.25"></line><line x1="30.756944444444443" y1="0" x2="30.756944444444443" y2="177" fill="rgb(0, 0, 0)" stroke="rgb(60, 60, 60)" stroke-width="1px" opacity="0.25"></line><line x1="61.513888888888886" y1="0" x2="61.513888888888886" y2="177" fill="rgb(0, 0, 0)" stroke="rgb(60, 60, 60)" stroke-width="1px" opacity="0.25"></line><line x1="92.27083333333333" y1="0" x2="92.27083333333333" y2="177" fill="rgb(0, 0, 0)" stroke="rgb(60, 60, 60)" stroke-width="1px" opacity="0.25"></line><line x1="123.02777777777777" y1="0" x2="123.02777777777777" y2="177" fill="rgb(0, 0, 0)" stroke="rgb(60, 60, 60)" stroke-width="1px" opacity="0.25"></line><line x1="153.78472222222223" y1="0" x2="153.78472222222223" y2="177" fill="rgb(0, 0, 0)" stroke="rgb(60, 60, 60)" stroke-width="1px" opacity="0.25"></line><line x1="184.54166666666666" y1="0" x2="184.54166666666666" y2="177" fill="rgb(0, 0, 0)" stroke="rgb(60, 60, 60)" stroke-width="1px" opacity="0.25"></line><line x1="215.29861111111111" y1="0" x2="215.29861111111111" y2="177" fill="rgb(0, 0, 0)" stroke="rgb(60, 60, 60)" stroke-width="1px" opacity="0.25"></line><line x1="246.05555555555554" y1="0" x2="246.05555555555554" y2="177" fill="rgb(0, 0, 0)" stroke="rgb(60, 60, 60)" stroke-width="1px" opacity="0.25"></line><line x1="276.8125" y1="0" x2="276.8125" y2="177" fill="rgb(0, 0, 0)" stroke="rgb(60, 60, 60)" stroke-width="1px" opacity="0.25"></line></g><g><line x1="0" y1="177" x2="276.8125" y2="177" fill="rgb(0, 0, 0)" stroke="rgb(60, 60, 60)" stroke-width="1px" opacity="0.25"></line><line x1="0" y1="160.9090909090909" x2="276.8125" y2="160.9090909090909" fill="rgb(0, 0, 0)" stroke="rgb(60, 60, 60)" stroke-width="1px" opacity="0.25"></line><line x1="0" y1="144.8181818181818" x2="276.8125" y2="144.8181818181818" fill="rgb(0, 0, 0)" stroke="rgb(60, 60, 60)" stroke-width="1px" opacity="0.25"></line><line x1="0" y1="128.72727272727275" x2="276.8125" y2="128.72727272727275" fill="rgb(0, 0, 0)" stroke="rgb(60, 60, 60)" stroke-width="1px" opacity="0.25"></line><line x1="0" y1="112.63636363636364" x2="276.8125" y2="112.63636363636364" fill="rgb(0, 0, 0)" stroke="rgb(60, 60, 60)" stroke-width="1px" opacity="0.25"></line><line x1="0" y1="96.54545454545455" x2="276.8125" y2="96.54545454545455" fill="rgb(0, 0, 0)" stroke="rgb(60, 60, 60)" stroke-width="1px" opacity="0.25"></line><line x1="0" y1="80.45454545454547" x2="276.8125" y2="80.45454545454547" fill="rgb(0, 0, 0)" stroke="rgb(60, 60, 60)" stroke-width="1px" opacity="0.25"></line><line x1="0" y1="64.36363636363636" x2="276.8125" y2="64.36363636363636" fill="rgb(0, 0, 0)" stroke="rgb(60, 60, 60)" stroke-width="1px" opacity="0.25"></line><line x1="0" y1="48.27272727272728" x2="276.8125" y2="48.27272727272728" fill="rgb(0, 0, 0)" stroke="rgb(60, 60, 60)" stroke-width="1px" opacity="0.25"></line><line x1="0" y1="32.18181818181819" x2="276.8125" y2="32.18181818181819" fill="rgb(0, 0, 0)" stroke="rgb(60, 60, 60)" stroke-width="1px" opacity="0.25"></line><line x1="0" y1="16.090909090909093" x2="276.8125" y2="16.090909090909093" fill="rgb(0, 0, 0)" stroke="rgb(60, 60, 60)" stroke-width="1px" opacity="0.25"></line><line x1="0" y1="0" x2="276.8125" y2="0" fill="rgb(0, 0, 0)" stroke="rgb(60, 60, 60)" stroke-width="1px" opacity="0.25"></line></g></g></g><g><g><line x1="0" y1="80.45454545454547" x2="276.8125" y2="80.45454545454547" fill="rgb(0, 0, 0)" stroke="rgb(153, 153, 153)" stroke-width="1.5px"></line></g></g><g><g><line x1="30.756944444444443" y1="0" x2="30.756944444444443" y2="177" fill="rgb(0, 0, 0)" stroke="rgb(153, 153, 153)" stroke-width="1.5px"></line></g></g><g><g><g><g><g><path stroke="rgb(255, 112, 67)" stroke-width="2px" d="M32.57621770833333,152.96420454545455L32.84995451388889,153.3876495215311L32.91608194444444,153.49116697416974L32.91761979166667,153.45490942795212L32.934536111111115,153.70345472471533L33.012966319444445,153.7925115802337L34.43701284722222,153.4795265722235L35.01985694444444,153.49499312053936L35.158263194444444,153.47401366472926L35.23823125,153.5038250766964L35.33050208333333,153.38121678926112L35.49658958333333,153.33010987063196L35.66267708333333,153.2473377234014L35.67036631944445,153.06066664024976L35.679593402777776,153.15616581943152L35.682669097222224,152.99681704183908L36.563855555555556,152.82392718150734L36.77761631944445,152.48544619173228L37.42658784722222,152.28499389403953L37.495790972222224,151.9644726235746L37.526547916666665,151.61938560686858L37.56806979166667,151.43947421388543L38.157065277777775,151.16538188639328L38.64148715277778,150.62591149533188L38.6983875,150.31442467902787L38.864475,149.85854142532983L39.89483263888889,148.25561382822676L40.491517361111114,146.65656549290156L40.503820138888884,145.17078471117878L41.04514236111111,143.34862173170382L41.37270381944444,141.1227292599205L41.95708576388889,138.8393241493684L42.16623298611111,136.15622552336848L42.36461527777778,134.54641186951005L43.55029548611111,131.80145503070239L43.76559409722222,129.82534200009633L43.802502430555556,127.13162875670065L43.88093263888889,124.87151305421145L44.31921909722222,122.17309912561174L44.76058125,119.78114423508524L45.055847916666664,117.29374729911298L45.057385763888895,115.28538423004701L45.46337743055555,112.96399127681183L46.056986458333334,110.95062385901055L46.33687465277778,108.44230532395471L46.407615625,106.5792641552943L46.56908958333334,104.8749421882259L46.873583333333336,103.0650229315904L46.948937847222226,101.23094407463807L47.07042777777778,99.97652672760604L47.50256284722222,98.28803077549097L47.570228125,97.03750160969301L47.668650347222226,95.39818897464626L47.88702465277778,94.20148263495082L48.08386909722222,92.85537703647431L48.851254861111116,91.46314258093254L49.28492777777778,90.11760242875816L49.30184409722222,89.11891064788198L49.35566875,88.23058679539292L49.85546909722222,87.31305259289577L50.615165625,86.35915344731184L50.87352395833333,85.54625941708971L50.95349201388889,85.21264529767869L51.294894097222226,84.94268179413905L51.544025347222224,84.42795265435696L51.647061111111114,84.08308087557423L51.716264236111115,83.41543473864182L51.873124652777776,82.79201697200972L52.62974548611111,82.064979566924L53.11570520833333,81.55162586280117L53.627808333333334,81.05948120041867L53.881553124999996,80.53107740023755L53.91384791666667,80.32219242840942L54.02303506944445,80.23985410915131L54.30599895833333,79.73818308573425L54.65201458333333,79.25653393844087L54.72890694444445,78.72751177431573L55.03186284722223,78.57332696445513L56.51434756944444,77.88130923563544L56.924952777777776,77.5778989564809L56.97570173611111,76.99301962591696L57.30633888888889,76.6627927476692L57.34017152777778,76.04624482205674L57.57084861111112,75.90124444169781L57.583151388888886,75.54695497352203L57.74616319444444,75.49212526918625L57.98452951388889,75.06058071590948L58.51354895833334,74.82055120684086L58.64426597222222,74.21730866316797L58.754990972222224,73.9786420022215L59.10562013888889,73.83424801603988L59.20558020833334,73.98841795455682L59.293237500000004,73.57401337312542L59.533141666666666,73.52540221986587L60.18211319444445,73.44645219655229L60.469690625,73.29494004766013L61.05561041666667,73.46029581769601L61.473904861111116,73.39540047152427L61.530805208333334,73.69905120409615L61.964478125,74.00250641660875L62.29972881944444,74.03424517003464L62.66727430555556,73.76612738454855L62.77031006944444,73.81144734181764L62.874883680555556,73.94274807762329L63.26703472222223,73.9754340097877L63.474644097222225,74.04507909190612L63.57152847222222,74.11781642496949L63.756070138888894,74.0776820508564L64.13438055555555,74.13710195722716L64.48654756944444,74.44200253985224L64.53268298611111,74.36442095738708L65.71374965277778,74.21917095384116L66.53342222222221,74.15381591720917L66.97786006944445,74.41681660540279L66.99016284722222,74.35935338061013L67.04860104166667,74.06878593059257L67.48842534722222,74.42325833955536L68.248121875,74.35760838023523L68.42497430555557,74.28092397160958L68.48033680555555,74.40047400595964L68.81866319444444,74.15607930416503L69.18159513888888,74.2730284978331L69.94744305555557,74.09669114202134L70.06431944444445,74.1039254522375L70.15351458333333,74.0375242576702L70.26270173611111,73.9299932382725L71.24384826388889,73.8935563581671L71.27460520833334,73.82556426419927L71.94664444444444,73.73168669760409L72.22038125,73.98410069841752L72.48335312500001,73.8366563882508L72.62791076388889,73.76429750161374L72.70787881944445,73.65391879721373L73.74746354166668,73.50680805881463L74.10578194444444,73.49257610710707L74.18882569444443,73.39428434667089L74.64402847222222,73.31839280295081L74.78397256944444,73.11180910434432L75.32990833333334,73.47900903590923L75.35605173611111,73.57818203489009L75.65746979166666,73.53418483858233L75.87430625,73.17025487535555L75.95888784722223,73.02374070952311L76.10805902777777,73.13827007716283L76.22954895833333,73.28157378448638L76.32797118055555,73.47088803644615L76.50636145833333,73.29933897331536L77.22914965277778,73.27568348107691L77.23376319444444,73.17645318605794L77.9288701388889,73.32850959281284L77.95962708333333,73.1913120257194L78.22721250000001,73.21114389352829L78.23643958333334,73.03791300961534L78.48864652777777,72.96748817960136L78.66857465277779,72.68537002065494L78.90232743055556,72.577287556181L79.04996076388889,72.99291110050304L79.39136284722221,72.98481317179373L79.51746631944445,73.00769549219156L79.65741041666666,73.00063332899894L79.69124305555556,72.95153590308081L79.71277291666667,73.07831413585609L79.77582465277777,72.96110771819218L79.95267708333333,72.75505375810191L80.21872465277778,72.79839781533154L80.59242152777777,72.59855802872919L80.62317847222222,72.55949767951L81.35980729166667,72.58719848030997L81.38595069444445,72.54927408612313L81.69352013888889,72.40954553882169L81.77348819444445,72.77908814956565L82.18101770833333,72.6364918326868L82.69773437500001,72.36233128245547L83.04836354166666,72.15078565189998L83.90340659722223,72.06850538135593L84.14638645833332,72.12519177553989L84.18021909722222,72.03038566541302L84.40474479166667,72.191452213662L84.41243402777778,72.10761949175527L84.58005937499999,72.16290867926423L84.61081631944444,71.80788201402908L84.86456111111112,71.71212222126694L85.31976388888889,71.90250090903655L85.62425763888889,71.91041843179939L85.71037708333333,72.04576863453778L85.96719756944445,72.05193040746666L86.21479097222222,72.12284532146226L86.36703784722222,71.96039033436477L86.5946392361111,72.06057289206261L86.66845590277778,71.96468605720781L86.80839999999999,71.80547597392435L86.81301354166666,71.85578064934167L87.07598541666667,71.98653781187308L87.16671840277778,72.06399198533403L87.23899722222222,72.21918369607697L87.68651076388889,72.28594430381378L87.76186527777779,72.35608566895485L87.78031944444444,72.36641460206835L87.93717986111112,72.41090950553277L88.08942673611111,72.2121054866574L88.11095659722223,72.0507813015256L88.74916319444445,71.89050430764507L88.94293194444444,71.8870504677879L89.08133819444444,72.05490792108681L89.38121840277778,71.89421826527482L89.4042861111111,72.04627371153163L89.50885972222223,71.7506804311878L89.90562430555556,71.50727431981328L90.53306597222222,71.28569461504411L90.61764756944444,71.35780697173927L90.73452395833333,71.21905752453462L90.7945,71.33806086301396L90.92367916666667,71.17614398122898L91.29430034722223,71.05807503763248L91.76641944444444,70.86633003384138L91.88944722222222,70.88735328045999L91.91251493055556,70.88616056605021L92.27237118055557,70.80463257761836L92.55533506944444,70.93993636532397L92.57378923611111,70.96114159242977L93.0997329861111,70.75897629680753L93.12433854166666,70.51668662165541L93.14586840277778,70.5601031867653L93.22737430555556,70.6645474135492L93.29811527777777,70.81134551311081L93.89172430555556,70.78255471179841L94.03781979166666,70.35437026332826L94.07626597222223,70.5749275551854L94.14854479166667,70.46166775420856L94.4130545138889,70.52064302424402L94.42535729166667,70.73965826728005L94.51455243055555,70.59484016782126L94.51609027777778,70.43181921921739L95.292703125,70.46360888820539L95.61411319444444,70.40673663574746L95.66793784722222,70.53154592672017L95.78173854166666,70.7746129249607L95.9216826388889,70.81235049610149L96.08469444444444,71.00973760558453L96.12621631944445,70.9183661177524L96.18465451388889,70.93669996052279L96.2415548611111,71.03365496447132L96.2753875,71.23405367257118L96.67368993055555,70.96939830531224L96.72597673611111,70.82423404296195L96.81209618055556,70.8318674568476L97.05968958333334,70.69291366570761L97.25192048611112,70.61813934459107L97.31035868055555,70.47541631922228L97.33803993055555,70.48776105093647L97.98239791666666,70.8307463094803L98.20846145833333,70.72207508762285L98.36378402777778,70.8983192834065L98.44836562500001,70.73763508233819L98.68365625,70.91483748319568L98.97277152777778,70.59913498487549L99.08349652777778,70.82790046366107L99.14193472222222,70.54854791729451L99.30494652777777,70.4479828982922L99.3756875,70.33736074482646L99.64173506944445,70.48167864761672L99.86472291666666,70.63922101012794L100.49062673611111,70.56981595456962L100.73668229166667,70.4118116318398L101.44870555555555,70.2344088777466L101.73782083333333,70.44684867179028L101.88852986111111,70.23074335006565L101.977725,69.95579401505893L102.18379652777777,69.79130836355297L102.35603541666667,69.73629684537944L103.0373017361111,69.56610466084143L103.17878368055555,69.61658226293913L103.21107847222223,69.64441267300887L103.57093472222223,69.65437481479891L103.65397847222222,69.97007369695545L103.66628125,70.36482769089638L103.76624131944443,70.48377105817039L103.94616944444445,70.34442804326241L104.16454375,69.91480057984518L104.73816076388889,69.96812165822432L104.91501319444446,69.92308506058372L104.92731597222222,70.0132907590708L105.12416041666665,70.16235941043647L105.31023993055555,70.2261234693928L105.55168194444444,70.22317021336262L105.80235104166667,70.17525660111727L105.811578125,70.10196389555101L106.27600798611111,70.0108584150868L106.30215138888889,69.80315325539627L106.337521875,69.9179231571294L106.35443819444444,69.78990925050735L106.67277256944445,69.78029332545661L106.6835375,69.88729240200188L106.85885208333333,70.04896088907441L107.41247708333333,69.5910534365306L107.64776770833333,69.5535532065139L108.78269895833334,69.21558424949886L108.78885034722222,69.02203718818535L108.82114513888888,69.11686471936682L108.83652361111112,69.02370097470286L108.88112118055555,68.94991042268713L108.97492986111112,68.9639534713275L109.03644374999999,68.88608085146748L109.12256319444445,69.14787049359344L109.20868263888889,68.98120844423411L109.41167847222223,68.95440862253798L109.47473020833334,68.72663821482962L109.92685729166666,68.56187212061938L110.14369375,68.18227581764836L110.47740659722221,68.10965903133807L110.50816354166666,68.30075278729517L110.89877673611112,68.30428546311111L110.97566909722222,68.35272055316362L111.02026666666667,68.20271838421091L111.13714305555555,68.11800052306255L111.17251354166667,68.01158399348357L111.38935,67.98872104868066L111.58465659722222,68.08631201199442L111.78919027777778,67.9906069471586L112.01525381944445,68.15337863880637L112.18441701388889,67.72412032038031L112.47507013888888,67.53892419743315L112.78725312499999,67.64881018678078L113.10712534722222,67.5264575771936L113.15941215277778,67.66776068311059L113.16710138888888,68.011155069345L113.39470277777777,67.76708501695595L113.77301319444445,67.78878560616944L113.811459375,67.88374227282523L113.84682986111112,67.90383395463361L113.91910868055555,67.97722896826116L114.30664618055556,67.78432141234413L114.75108402777778,67.76909949838246L114.77415173611111,68.01939125308967L115.48156145833333,68.0762021277807L115.86602326388889,68.328468278639L115.89985590277777,68.12557883713872L116.05210277777778,68.07120277160668L116.13822222222223,67.77587226717327L116.40119409722223,67.68104072227415L116.4627079861111,67.53535142277399L116.59803854166667,67.72102082595113L116.78719375,67.74481362971966L117.18395833333334,67.60280385765677L117.86368680555556,67.75658597189111L118.019009375,67.65614044288382L118.31273819444445,67.76939003495907L118.41577395833333,67.73554762237225L118.461909375,67.69000422377137L118.63107256944444,67.68421402866697L118.66798090277777,67.86253978489118L118.8279170138889,67.88726592003843L119.43998020833334,67.92963307803457L119.5476295138889,67.98536295204931L119.6168326388889,67.93495165684439L120.56722222222221,68.05551899115994L120.5995170138889,67.99306368295304L120.82558055555555,67.84885674647592L121.06240902777778,67.60593129910104L121.10393090277778,67.43255407828187L121.243875,67.31674185227186L121.49454409722222,67.3759341443174L121.64217743055555,67.33618163897658L121.78827291666667,67.24509188416982L122.89859861111111,66.8563781502983L123.14926770833334,66.65235965345029L123.48913194444445,66.50394186992345L123.49835902777778,66.35276643293109L123.52450243055556,66.65166592600161L123.59985694444445,66.50331751521965L123.63522743055555,66.86258803642495L123.78132291666667,66.70069002823699L125.23920208333334,66.65303579814056L125.29610243055555,66.82636858196288L125.60828541666666,66.48958399649388L125.76514583333332,66.3222449150263L125.76668368055556,66.36271928716003L125.87740868055556,66.27092179026221L126.01120138888888,66.1757330203269L126.12038854166667,66.06994949102148L126.17575104166666,66.15325283737387L126.26187048611112,66.0145184627274L126.34337638888888,66.15616320736375L126.47716909722223,66.16799006844558L126.70938402777779,66.465253561601L127.09077013888889,66.61713729634998L127.26608472222222,66.69349174853316L127.47061840277777,66.70186984640713L127.5751920138889,66.38507774813007L127.74589305555556,66.51229440513524L128.4071673611111,66.64690303280354L128.5578763888889,66.60965591134138L128.71473680555556,66.3775113429345L128.80854548611111,66.45268634500468L128.86544583333333,66.24126714232239L128.96233020833333,66.19932792809016L129.54363645833334,65.72913945346295L129.80814618055555,65.83143857629848L130.09111006944445,66.142243582305L130.1218670138889,65.90907036043814L130.40790659722222,65.83498150621249L130.43866354166667,65.9794947192276L130.81082256944444,66.01904524730486L130.84773090277778,65.87864640439255L130.88617708333334,65.81765676395331L130.92000972222223,66.01670074664887L130.99228854166668,65.92179203562036L131.14299756944445,65.79614692296741L132.03341111111112,65.58249813976157L132.4763111111111,65.53100968942178L132.62548229166669,65.70089167502505L133.04839027777777,65.56213773479529L133.22678055555556,65.43725918858848L133.28060520833333,65.53354747427508L133.30674861111112,65.54226659048395L133.32366493055557,65.88953140870828L133.65276423611112,65.85762372238288L134.02338541666668,65.8817051001446L134.73079513888888,65.90589254467561L134.82921736111112,65.89246238111713L135.3736152777778,65.71192352936906L135.38591805555555,65.16979367643215L135.51048368055555,65.21488817242529L135.52432430555555,65.39626867336459L135.66119270833332,65.41117305602812L135.74885,65.2812773413344L135.84265868055556,65.23476892538278L135.9764513888889,65.2155391919354L136.49009236111112,65.37422675001459L136.55006840277778,65.37373589319496L136.676171875,65.07661798569363L136.70692881944444,65.08577436894245L136.9545222222222,65.0889867047755L137.24825104166666,64.92342610247977L137.65116701388888,64.77442156041359L137.98641770833333,64.30089985891767L138.24938958333334,64.23174737302593L138.3570388888889,64.34299024935972L139.03676736111112,64.20425940624189L139.27052013888888,64.18751244289044L139.6780496527778,64.34340608496505L139.79338819444445,63.94567059010488L140.16862291666666,63.93969728109441L140.22244756944445,64.10025880298497L140.27319652777777,63.988315309050094L140.35470243055556,63.92779343723599L140.357778125,63.86326693442149L140.47157881944446,63.82782092279754L140.52078993055554,63.959342807790506L140.966765625,64.27884886792054L142.21088402777778,64.10379068567394L142.40465277777778,63.99652241256109L142.46001527777779,63.811983807668625L142.63840555555555,63.71881099508357L142.70453298611113,63.496674213757046L143.0474729166667,63.44508917874498L143.0567,63.42883310177956L143.11667604166666,63.38403217796524L143.707209375,63.37136759653235L143.7272013888889,63.239287655060934L143.8794482638889,63.21846968500941L143.93173506944444,63.403384080144804L144.0655277777778,63.1876479448576L144.1301173611111,63.099082014008204L144.39001354166666,63.064628358061924L144.96363055555554,62.852597340437555L145.21891319444444,62.80507908366653L145.31579756944444,62.70197174348168L146.07088055555556,62.54883422822442L146.07241840277777,62.3833542144929L146.82135,62.390302883952714L147.2996204861111,62.34627259555742L147.34268020833332,62.460011813274406L147.69638506944446,62.33861290467425L147.79788298611112,62.44054706875228L147.87323750000002,62.5825719073316L148.60217708333334,62.79587721659844L148.6114041666667,62.743974154029516L148.62678263888887,62.45338355680836L148.62985833333335,62.45332929203663L148.6836829861111,62.25968670374205L148.89744375,62.22117541973148L148.9804875,61.95772265048562L149.0004795138889,61.90415208998249L149.82784131944445,61.97410619916607L150.08619965277776,62.14517569288583L150.23075729166666,62.28656721450632L150.36455,62.12468606123751L150.77361736111112,61.953850977841014L150.87357743055554,61.588906220966024L151.57791145833332,61.554617871596705L152.02081145833333,61.224568016255205L152.05003055555557,61.327281669175136L152.16998263888888,61.25881486589398L152.31300243055557,61.37067485657731L152.60211770833334,61.38335168910142L152.65132881944444,61.68138015655492L153.27569479166667,61.74595520908122L153.31106527777777,61.42191366544583L153.96003680555555,61.34146945799216L154.2137815972222,61.027706034920215L154.25837916666669,60.84085872688273L154.47213993055556,60.74812228601266L155.34409930555555,60.491179375593205L155.70703125,60.252388142579335L155.73009895833334,60.22604137377594L155.8254454861111,60.20484348639836L155.859278125,60.07011197866761L156.05458472222222,59.87594168989176L156.22836145833332,59.766557748175316L156.5036361111111,59.806393450630495L156.62512604166665,59.94281376465837L156.98036875000003,59.99016591091981L157.08186666666666,60.02524022891872L157.50169895833332,60.26800029693595L157.57090208333335,60.45379969906055L157.5970454861111,60.39725495642722L157.79542777777777,60.37653514260269L157.97228020833333,60.253547821524236L158.16912465277778,60.27234076664453L158.4413236111111,60.30182543998008L158.6120246527778,60.15488153234571L158.80886909722224,60.188569515474754L158.8473152777778,60.28174381392729L159.6300795138889,60.14937909162549L159.64699583333334,59.99253777337202L159.734653125,59.95069166648936L160.24214270833332,59.89417363620406L160.36209479166666,59.67485570440182L160.65889930555554,59.557924111234385L160.80653263888888,59.60353795011096L160.80807048611112,59.50630915509984L161.03259618055557,59.48417255777167L161.1417833333333,59.51453371108542L161.38630104166666,59.391006476340536L161.8307388888889,59.41057060143373L162.17060312499999,59.50611865492672L162.24288194444446,59.35074826670679L162.30132013888888,59.25617059912702L162.34591770833333,59.49789728921431L162.49970243055554,59.41877517392926L162.6150409722222,59.42047720199086L163.03948680555555,59.38429595906449L163.1532875,59.3341334086126L163.37319965277777,59.487609272296794L163.5054545138889,59.24357845870348L163.51006805555556,59.27788538556041L163.56543055555557,59.34396048336801L164.4666090277778,59.42857011684937L164.689596875,59.44940628698264L164.79878402777777,59.73215031737527L164.80647326388888,59.56674778563773L164.90797118055556,59.40782868889215L164.97409861111112,59.41313957000294L165.26475173611112,59.3827204993663L165.36317395833333,59.33522969942966L165.42622569444444,58.93295672948669L165.53079930555555,58.64382298835619L165.63075937500003,58.58222478042967L165.68919756944445,58.41867559784126L165.9260260416667,58.6460978107844L166.18130868055556,58.785408484251406L166.2059142361111,58.94598695400809L166.9379295138889,58.851658144970926L167.070184375,58.55556903501926L167.78682118055556,58.32931610879008L168.14206388888888,58.39722256609291L168.1928128472222,58.52119349130177L168.65878055555555,58.544770164898864L168.78334618055558,58.28439826204536L168.85408715277777,58.29142718584082L168.95558506944445,58.3430088990749L169.21855694444446,58.15309721371288L169.6245486111111,58.072688060523404L169.78756041666665,58.1813425499256L170.34733680555556,58.236390113114865L170.41653993055553,58.20547837453064L170.60877083333332,58.07708962798668L170.82714513888888,58.09479259700619L171.28234791666668,58.1408957236692L171.39153506944447,58.003880014938645L171.60683368055555,57.792568717990235L172.0051361111111,57.670272073463934L172.2173590277778,57.61551759339028L172.27118368055557,57.56121015223307L172.46033888888888,57.580216977918866L172.7248486111111,57.6551498255815L172.92476875,57.644649047568805L173.20004340277777,57.7508517564483L173.298465625,57.70815294443983L173.44609895833335,57.383104695450385L173.62602708333333,57.26152718045083L173.62756493055556,57.04148241695118L173.97973194444444,57.26834269798333L174.10275972222223,57.22612490545772L174.2319388888889,57.037276619457415L174.66561180555556,57.23438702569351L174.73942847222222,57.43441423221503L174.7871017361111,57.335362013539L174.88706180555553,57.331697971276L175.03930868055556,57.28565885596659L175.98047118055555,57.050629902188106L176.64328333333333,57.12823736651477L176.78784097222223,57.06985965259055L177.11386458333334,56.770927664604216L177.1169402777778,56.7130820572347L177.533696875,56.64342157878396L177.59059722222221,56.80449135272376L177.68286805555553,56.81368710381503L178.0104295138889,56.74653714343353L178.06579201388888,56.75147149727198L178.6916958333333,56.5522618475448L178.8285642361111,56.445885094608485L178.84548055555558,56.101239766965804L178.93621354166666,55.95951067663289L179.0023409722222,55.9274942680605L179.0131059027778,55.916278932163536L179.27146423611111,56.036923766219914L179.6528503472222,56.17316036687065L179.8404677083333,56.43405455745632L179.95119270833334,56.5029218289834L180.18648333333334,56.326052941539615L180.51404479166666,56.10904423829473L180.68628368055556,56.006761973556195L181.06305625000002,55.89459429892783L181.0968888888889,55.76095873267141L181.11688090277778,55.60548785940428L181.2214545138889,55.39768055073657L181.93655347222224,55.605384086572L182.03343784722222,55.47301329155117L182.10571666666667,55.51730287148696L182.13032222222222,55.71555837979281L183.23295868055556,55.655138905449874L183.46671145833332,55.585676151268544L183.52207395833335,55.51813126341442L183.53899027777777,55.33917325070934L183.76351597222222,55.03731558472931L183.85886250000001,54.69021754898364L184.13413715277778,54.805244089539826L184.3509736111111,54.629691271494934L184.3586628472222,54.235358507981815L185.06453472222222,53.968456179910916L185.11682152777777,53.78104238010161L185.24600069444443,53.55202905118239L185.32750659722223,53.33837444151868L185.50435902777778,52.95751995191229L185.54280520833333,52.64492136581195L185.7950121527778,52.81613945650349L185.907275,53.01046301085313L186.142565625,52.8610218234042L186.21176874999998,52.80195089106377L186.350175,52.83427000650288L186.48089201388888,52.23480607403438L186.90226215277778,52.11264648935821L187.33593506944445,52.13092729496785L187.3590027777778,52.10212433819835L187.48664409722224,51.56078974528761L187.70963194444445,51.15404315712247L188.3647548611111,51.248070659592045L188.42011736111112,51.39555052545103L188.44164722222223,51.472969904724096L188.50469895833334,51.3641388233426L188.5708263888889,51.628236304644716L188.64618090277776,51.5943899469075L188.74921666666665,51.513644134034934L189.0475590277778,51.352975743358726L189.07985381944445,51.394425328113755L189.34590138888888,51.31104813621148L189.67807638888888,51.21589502713576L189.71037118055557,50.898950410785815L190.12251423611113,50.60615764243451L190.47468125,50.66949074182743L190.488521875,50.63849337219014L190.6207767361111,51.05560994406203L190.62385243055556,51.134338722383106L190.87452152777777,50.85823439559934L190.91911909722222,51.01955584240305L191.18978020833333,50.58396389452638L191.21131006944447,50.55900500507374L191.26052118055554,50.47117268638456L191.485046875,50.43486507683701L191.678815625,50.351904137335126L191.70342118055558,50.091188155419786L191.70495902777776,49.999853430786885L191.91871979166666,50.03581979225365L192.34624131944446,49.650831563028305L192.37699826388888,49.59347567945275L192.61075104166665,49.51671333878021L192.75838437500002,49.57585166399309L192.8337388888889,49.606448315775594L192.95522881944444,49.503246666016224L192.9583045138889,49.4153935903237L193.0705673611111,49.107533208564035L193.1044,49.0391378422531L193.13208125,48.62810758075506L193.33661493055558,48.278293981770446L193.36583402777777,48.39841912904794L193.4488777777778,48.466304488870435L193.92099687500001,48.45448938089248L194.06094097222223,48.471512033712344L194.06709236111112,48.41140628488654L194.4207972222222,48.52073440639791L194.43771354166668,48.77249619303083L194.47308402777776,48.943769301000486L195.0343982638889,48.79872475726407L195.11897986111111,48.34888069062856L195.24046979166667,48.50468864429297L195.30967291666667,48.403552166227314L195.9355767361111,48.16921967687733L196.03553680555555,48.24493975464415L196.0678315972222,48.03652532463428L196.22315416666666,47.87912279217085L196.2723652777778,48.17493210386286L196.59992673611112,47.87797866620383L196.77677916666667,48.21161545867437L196.95209375000002,47.96127777644327L196.97823715277778,47.85665568061714L197.19046006944444,47.795180453464525L197.4518940972222,47.75996638539081L197.45958333333334,47.57490724685172L197.6933361111111,47.473723340348386L198.03012465277777,47.111123733586254L198.460721875,47.229798292045814L198.47763819444447,47.208380962841204L198.67755833333334,47.44052582110254L198.70677743055558,47.33769482990138L198.97128715277776,47.35074352872945L199.20503993055556,47.2116350849474L199.54490416666667,47.1618636219072L199.57719895833333,47.101984077898294L199.72790798611112,47.193916351926646L199.73713506944443,47.11826051218853L199.74328645833333,47.11302537006057L199.7817326388889,47.47790181032727L199.93859305555554,47.441730947476344L199.99703125000002,47.4494044436378L200.03701527777778,47.22500377200129L200.33381979166666,47.25434998571026L200.3368954861111,47.44418487350285L200.4522340277778,47.55720956797077L200.72597083333332,47.621218724810035L200.79209826388887,47.47014798869267L200.90743680555556,47.56800534891431L202.003921875,47.39459970038652L202.18077430555556,47.17065109398425L202.22998541666666,47.2884013254949L202.61444722222222,47.15301289749087L202.70364236111112,46.93813774410543L202.94200868055555,46.81011942424033L203.2987892361111,47.18768702727084L203.34492465277776,47.052313210907386L203.5617611111111,47.21458188981663L203.84318715277777,47.146916314471326L204.1984298611111,47.251954796660584L204.3352982638889,47.19060874881271L204.35836597222223,47.012201283022335L204.7520548611111,47.01505785926557L204.7628197916667,46.700839005157206L204.7920388888889,46.77505908191421L204.82587152777776,46.771459423722774L204.9365965277778,46.67016575407777L205.26262013888888,46.59911508776091L205.42101840277778,46.76396210171211L205.82701006944444,46.62319089154087L206.03923298611113,46.67500532511406L206.211471875,46.91774626987541L206.280675,46.78422448379695L206.28836423611114,46.94313158087178L206.70665868055553,47.08363376369368L207.11418819444447,46.936037432778875L207.43252256944444,46.933939371319155L208.40290416666667,47.02004827509634L208.4198204861111,46.619847424859444L208.5505375,46.64685415964624L208.65049756944444,46.72898692549978L208.7504576388889,46.78027857385888L208.93499930555555,46.59513423920029L209.2625607638889,46.436046951643874L209.3471423611111,46.66748487011586L209.47632152777777,46.65955740583152L209.48247291666667,46.27277780161202L209.560903125,46.47780115781444L210.2821534722222,46.15948126930573L210.4728465277778,45.586374051466095L210.49745208333331,45.54576221450128L210.5835715277778,45.650007015778414L210.88191388888887,45.35915404147332L211.14796145833336,45.308579546416894L211.78463020833334,45.554710228138816L211.82768993055555,45.720915341688595L211.86613611111113,45.588909034792465L212.29365763888887,45.36702097222229L212.35209583333332,45.2804609204546L212.48588854166664,44.961193237500055L213.06719479166668,44.85487505011369L213.27172847222224,44.67873413601143L213.3793777777778,44.588090836046604L213.53008680555556,44.410972093351035L213.547003125,44.63121011128865L213.67003090277777,44.500063531977986L213.8315048611111,44.42225888332564L213.94222986111112,44.34469208590215L214.04834131944443,44.134086513675584L214.60350416666665,43.994825589580756L214.73268333333334,43.90720382607725L215.20326458333332,43.81577321619679L215.40626041666667,44.002505553668016L215.43086597222222,43.64509590739212L215.63078611111112,43.65530222574381L215.76919236111112,43.511121434987615L216.0167857638889,43.05451213239792L216.1567298611111,43.033265464612725L216.2935982638889,42.98397300906052L216.62423541666666,42.79881434451812L216.6549923611111,42.93387609188446L216.90873715277777,42.79898280087784L217.05944618055557,42.53678338442643L217.07790034722223,42.57233800052924L217.5407923611111,42.410743405021776L217.8083777777778,42.84860372361052L217.94678402777777,43.0591410785222L217.96370034722224,42.9770906070336L218.08826597222222,42.94347245542116L218.13901493055553,42.69196611896996L218.34354861111112,42.53097973434569L218.40352465277778,42.52185903363838L218.53577951388888,42.4432526757291L218.72954826388892,42.37753536270162L218.79413784722223,42.50444091734056L218.91408993055555,42.48037466651556L218.96176319444444,42.519055949864025L219.62765104166667,42.604153195786694L219.69839201388888,42.26086855802623L219.82910902777778,41.921741929496335L219.94752326388888,42.2425648956376L220.12437569444444,42.12651863334656L220.27662256944444,42.20561392910284L220.3166065972222,42.158632081647085L220.36581770833334,41.68893364620965L220.7779607638889,41.62573630431595L221.11782499999998,41.533659832975275L221.21932291666667,41.303710042859564L221.42539444444444,41.39720267493723L221.64069305555554,41.10421536198896L221.74372881944444,41.01652109851736L221.90366493055555,40.95016728412014L222.100509375,41.378204532980874L222.38193541666666,41.62264260241005L222.6464451388889,41.5007050467145L222.81868402777778,41.225023746588505L222.83560034722223,41.35404125829331L222.84021388888888,41.39724508700942L222.85251666666667,41.34310296467211L222.97246875,41.25666198638672L223.2892652777778,41.1109815832026L223.54147222222224,41.1986050157914L223.761384375,41.24478144603046L223.77676284722224,41.278797619609236L223.85519305555556,41.10073319855741L224.62873020833334,41.106412719610745L224.80250694444445,41.063754402195116L224.81788541666668,41.52820282561197L224.88093715277776,41.33776890668713L224.92092118055555,41.395170993291146L225.05163819444445,41.26078173487113L225.1054628472222,40.81801322047491L225.33460208333335,41.03047326206379L225.39304027777777,40.96272423131194L225.45147847222222,40.86906544454439L225.54836284722222,41.10156230918088L225.58065763888888,41.009104941899125L225.7067611111111,42.3640183113456L226.35265694444445,42.703468752938306L226.64331006944445,42.86063608218993L226.83092743055556,42.687811110334565L226.86629791666667,42.919456135664745L227.10773993055557,42.70555029482554L227.24307048611112,42.885137310797546L228.20576284722222,42.71237642062687L228.56254340277778,42.87368139220055L228.78860694444444,42.59395529843505L229.2545746527778,42.94812510950061L229.33608055555558,42.74643759855056L229.408359375,42.53474838415005L229.5959767361111,42.278858773007784L229.87278923611112,42.1491263047979L230.045028125,41.705520492499915L230.4540954861111,41.457127534159014L230.5971152777778,41.283857962561285L231.28453298611112,40.763355689032466L231.60901875,40.382900801947386L232.11343263888887,40.16117322175265L232.2164684027778,40.29852180866828L232.2518388888889,40.112888377801454L232.53787847222222,40.358147835475876L232.60246805555556,40.490884188291886L232.96847569444444,40.255844064917255L233.28219652777776,39.91105511297101L233.3959972222222,39.63594391985572L233.41291354166665,39.72273305059741L233.46673819444445,39.93409610917405L233.4713517361111,40.27014672552937L233.5128736111111,40.25580250752188L233.6835746527778,40.14986714313332L233.73586145833335,39.90367304245635L234.22335902777778,39.91340517002888L234.49709583333333,39.82159590302604L234.8354222222222,39.728910744541594L235.66278402777778,39.57761057917833L235.7688954861111,39.56212224853323L235.81503090277778,39.631151500952626L236.328671875,39.321175555402846L236.58241666666666,39.84422845440801L236.71620937499998,39.37214935896719L237.00840034722222,39.31183783216139L237.05761145833335,39.275156889854344L237.10682256944443,38.97563835995982L237.12835243055554,38.899665433054736L237.41131631944444,39.06008241247653L237.9495628472222,39.13405996668345L238.1264152777778,39.16795510637871L238.487809375,39.321656754831764L238.653896875,39.20102517025768L238.681578125,39.30364992595918L238.76154618055554,40.072333228817826L239.31517118055555,39.9822305877542L239.4766451388889,40.04193366534241L239.54431041666666,39.648138026080915L239.61966493055553,39.29623615529101L240.12407881944443,39.371740380670985L240.4593295138889,39.30895554714937L240.64387118055555,39.29519067425258L241.16058784722222,39.418569334100056L241.22056388888888,39.273161264326404L241.35281875,39.1724644560756L241.61579062500002,39.09692255592256L241.6573125,39.587088254875766L241.70959930555557,39.53042488393365L242.0848340277778,39.366288645540294L242.2816784722222,39.13056887189538L242.34934374999997,38.9863045983422L242.76763819444443,39.10788720668978L243.041375,38.77732575874808L243.16901631944444,38.645757955600544L243.2643628472222,38.74859693276778L243.28281701388892,38.64001564858188L243.29050625,38.84902544736005L243.77800381944445,38.886281993533146L244.05020277777777,38.87958561236164L244.14247361111111,38.92635716476184L244.22090381944446,38.79999985737658L244.30856111111112,38.65610782618435L244.7914451388889,38.50649136174775L244.799134375,38.47994733920933L245.10670381944445,38.36806055983385L245.40043263888887,38.289990299305L245.5249982638889,38.2624685421018L245.60496631944443,38.4237500969825L245.65725312499998,38.82535236001152L246.22164305555555,38.97308701037403L246.27854340277779,38.75405955933661L246.55228020833334,38.549392239766576L247.55649444444444,38.57638483397176L247.7533388888889,38.69118953239274L247.87482881944445,38.698973988244376L247.9225020833333,38.81157658941993L248.05321909722224,38.7218393850234L248.10704375,38.89501056015743L248.56839791666667,38.7717879132326L249.31579166666666,38.70865741736387L249.59721770833332,38.62418372108206L249.69717777777777,38.648725576246534L249.86480312499998,38.907148473167354L249.97399027777777,38.66203021675972L250.0662611111111,38.69535844508374L250.13392638888888,38.511646464211736L250.307703125,38.580126704154196L250.47686631944444,38.405423692829686L250.48301770833334,38.17025064172856L250.60296979166665,38.203729838919315L250.7152326388889,37.951013105027414L251.05817256944445,38.00515895361556L251.08892951388887,38.154458399163104L251.18427604166666,38.07763471833769L251.32114444444446,38.09649056468572L251.4349451388889,38.20145798548987L251.442634375,38.092278096031805L251.74559027777778,37.80796505915592L251.77942291666665,37.941785030513046L251.85631527777778,38.238217322916285L251.88092083333333,38.46477911335191L252.0916059027778,38.78433813383492L252.1469684027778,38.61435602499691L252.29152604166666,38.43623008158812L252.3130559027778,38.610305937065675L252.5145138888889,38.57086625245L252.70828263888887,38.38200405902319L252.82823472222222,38.31008206221176L253.14503125,38.0190738559906L253.53256875000002,38.09658408402791" style="fill: none;" fill="none"></path></g></g></g></g><g opacity="0.2"><g><g><g><path stroke="rgb(255, 112, 67)" stroke-width="2px" d="M32.57621770833333,152.96420454545455L32.84995451388889,153.76875L32.91608194444444,153.66818181818184L32.91761979166667,153.36647727272728L32.934536111111115,154.47272727272727L33.012966319444445,154.12073863636363L34.43701284722222,152.1596590909091L35.01985694444444,153.56761363636363L35.158263194444444,153.36647727272728L35.23823125,153.66818181818184L35.33050208333333,152.6625L35.49658958333333,153.01448863636364L35.66267708333333,152.71278409090908L35.67036631944445,151.80767045454544L35.679593402777776,153.8190340909091L35.682669097222224,151.85795454545453L36.563855555555556,151.55625L36.77761631944445,149.94715909090908L37.42658784722222,150.75170454545454L37.495790972222224,149.46946022727272L37.526547916666665,148.89119318181818L37.56806979166667,149.99744318181817L38.157065277777775,148.94147727272727L38.64148715277778,146.2009943181818L38.6983875,147.73465909090908L38.864475,146.05014204545455L39.89483263888889,134.76136363636363L40.491517361111114,133.10198863636364L40.503820138888884,132.49857954545456L41.04514236111111,127.7215909090909L41.37270381944444,121.93892045454545L41.95708576388889,119.07272727272726L42.16623298611111,112.8375L42.36461527777778,120.50582386363637L43.55029548611111,107.78394886363637L43.76559409722222,112.48551136363636L43.802502430555556,103.434375L43.88093263888889,104.94289772727272L44.31921909722222,98.33053977272728L44.76058125,98.60710227272727L45.055847916666664,95.23806818181818L45.057385763888895,97.45056818181818L45.46337743055555,92.32159090909092L46.056986458333334,93.02556818181819L46.33687465277778,86.08636363636363L46.407615625,89.95823863636363L46.56908958333334,89.65653409090909L46.873583333333336,86.8909090909091L46.948937847222226,84.82926136363636L47.07042777777778,88.75142045454545L47.50256284722222,83.16988636363635L47.570228125,85.83494318181819L47.668650347222226,80.7059659090909L47.88702465277778,83.4715909090909L48.08386909722222,80.78139204545455L48.851254861111116,78.97116477272728L49.28492777777778,78.0409090909091L49.30184409722222,80.15284090909091L49.35566875,80.25340909090909L49.85546909722222,79.07173295454547L50.615165625,77.78948863636363L50.87352395833333,78.24204545454545L50.95349201388889,82.21448863636364L51.294894097222226,82.51619318181818L51.544025347222224,79.80085227272727L51.647061111111114,80.9825284090909L51.716264236111115,77.41235795454546L51.873124652777776,77.18607954545453L52.62974548611111,75.52670454545455L53.11570520833333,76.9346590909091L53.627808333333334,76.63295454545455L53.881553124999996,75.778125L53.91384791666667,78.44318181818183L54.02303506944445,79.49914772727271L54.30599895833333,75.22500000000001L54.65201458333333,74.92329545454547L54.72890694444445,73.96789772727271L55.03186284722223,77.18607954545453L56.51434756944444,71.65482954545453L56.924952777777776,74.84786931818182L56.97570173611111,71.73025568181818L57.30633888888889,73.69133522727273L57.34017152777778,70.49829545454546L57.57084861111112,74.59644886363637L57.583151388888886,72.35880681818182L57.74616319444444,74.99872159090908L57.98452951388889,71.17713068181817L58.51354895833334,72.66051136363636L58.64426597222222,68.78863636363637L58.754990972222224,71.83082386363637L59.10562013888889,72.53480113636364L59.20558020833334,75.37585227272729L59.293237500000004,69.84460227272729L59.533141666666666,73.08792613636365L60.18211319444445,72.73593749999999L60.469690625,71.93139204545454L61.05561041666667,74.9484375L61.473904861111116,72.81136363636364L61.530805208333334,76.43181818181817L61.964478125,76.73352272727271L62.29972881944444,74.31988636363637L62.66727430555556,71.35312499999999L62.77031006944444,74.21931818181818L62.874883680555556,75.12443181818182L63.26703472222223,74.26960227272727L63.474644097222225,74.671875L63.57152847222222,74.77244318181819L63.756070138888894,73.71647727272727L64.13438055555555,74.671875L64.48654756944444,77.18607954545453L64.53268298611111,73.66619318181817L65.71374965277778,72.91193181818183L66.53342222222221,73.565625L66.97786006944445,76.78380681818183L66.99016284722222,73.84218750000001L67.04860104166667,71.45369318181818L67.48842534722222,77.61349431818182L68.248121875,73.76676136363636L68.42497430555557,73.59076704545454L68.48033680555555,75.47642045454545L68.81866319444444,71.95653409090909L69.18159513888888,75.32556818181817L69.94744305555557,72.5096590909091L70.06431944444445,74.1690340909091L70.15351458333333,73.43991477272728L70.26270173611111,72.96221590909092L71.24384826388889,73.565625L71.27460520833334,73.21363636363637L71.94664444444444,72.88678977272727L72.22038125,76.25582386363635L72.48335312500001,72.5096590909091L72.62791076388889,73.11306818181818L72.70787881944445,72.66051136363636L73.74746354166668,72.1828125L74.10578194444444,73.36448863636363L74.18882569444443,72.5096590909091L74.64402847222222,72.63536931818183L74.78397256944444,71.25255681818183L75.32990833333334,76.78380681818183L75.35605173611111,74.47073863636365L75.65746979166666,73.13821022727272L75.87430625,69.89488636363636L75.95888784722223,71.70511363636365L76.10805902777777,74.1690340909091L76.22954895833333,74.57130681818181L76.32797118055555,75.1747159090909L76.50636145833333,71.75539772727272L77.22914965277778,73.0627840909091L77.23376319444444,72.28338068181817L77.9288701388889,74.69701704545454L77.95962708333333,71.95653409090909L78.22721250000001,73.38963068181819L78.23643958333334,71.47883522727273L78.48864652777777,72.33366477272727L78.66857465277779,70.14630681818183L78.90232743055556,71.60454545454546L79.04996076388889,76.73352272727271L79.39136284722221,72.91193181818183L79.51746631944445,73.21363636363637L79.65741041666666,72.93707386363637L79.69124305555556,72.5096590909091L79.71277291666667,74.21931818181818L79.77582465277777,71.90625L79.95267708333333,70.90056818181817L80.21872465277778,73.18849431818181L80.59242152777777,70.8L80.62317847222222,72.20795454545454L81.35980729166667,72.83650568181818L81.38595069444445,72.20795454545454L81.69352013888889,71.15198863636364L81.77348819444445,76.10497159090909L82.18101770833333,71.35312499999999L82.69773437500001,69.89488636363636L83.04836354166666,70.246875L83.90340659722223,71.32798295454545L84.14638645833332,72.63536931818183L84.18021909722222,71.17713068181817L84.40474479166667,73.64105113636363L84.41243402777778,71.35312499999999L84.58005937499999,72.66051136363636L84.61081631944444,68.61264204545455L84.86456111111112,70.85028409090908L85.31976388888889,73.61590909090908L85.62425763888889,71.98167613636363L85.71037708333333,73.26392045454546L85.96719756944445,72.10738636363635L86.21479097222222,72.76107954545455L86.36703784722222,70.49829545454546L86.5946392361111,72.96221590909092L86.66845590277778,71.10170454545455L86.80839999999999,70.37258522727272L86.81301354166666,72.30852272727273L87.07598541666667,73.16335227272727L87.16671840277778,72.76107954545455L87.23899722222222,73.61590909090908L87.68651076388889,72.88678977272727L87.76186527777779,72.98735795454546L87.78031944444444,72.45937500000001L87.93717986111112,72.81136363636364L88.08942673611111,70.42286931818181L88.11095659722223,70.59886363636363L88.74916319444445,70.44801136363637L88.94293194444444,71.85596590909091L89.08133819444444,73.565625L89.38121840277778,70.44801136363637L89.4042861111111,73.41477272727273L89.50885972222223,69.09034090909091L89.90562430555556,69.31661931818182L90.53306597222222,69.29147727272728L90.61764756944444,72.00681818181819L90.73452395833333,69.97031249999999L90.7945,72.4090909090909L90.92367916666667,69.71889204545455L91.29430034722223,69.99545454545455L91.76641944444444,69.140625L91.88944722222222,71.07656250000001L91.91251493055556,70.87542613636363L92.27237118055557,70.07088068181818L92.55533506944444,72.15767045454547L92.57378923611111,71.15198863636364L93.0997329861111,68.93948863636365L93.12433854166666,68.33607954545455L93.14586840277778,70.95085227272727L93.22737430555556,71.60454545454546L93.29811527777777,72.1325284090909L93.89172430555556,70.5234375L94.03781979166666,66.50071022727273L94.07626597222223,72.55994318181817L94.14854479166667,69.44232954545454L94.4130545138889,71.05142045454545L94.42535729166667,72.71079545454545L94.51455243055555,69.29147727272728L94.51609027777778,68.96463068181818L95.292703125,70.7497159090909L95.61411319444444,69.89488636363636L95.66793784722222,71.65482954545453L95.78173854166666,72.96221590909092L95.9216826388889,71.15198863636364L96.08469444444444,72.7862215909091L96.12621631944445,70.09602272727273L96.18465451388889,71.10170454545455L96.2415548611111,71.90625L96.2753875,73.03764204545453L96.67368993055555,68.58749999999999L96.72597673611111,69.51775568181817L96.81209618055556,70.90056818181817L97.05968958333334,69.44232954545454L97.25192048611112,69.94517045454545L97.31035868055555,69.19090909090909L97.33803993055555,70.59886363636363L97.98239791666666,73.91761363636364L98.20846145833333,69.7440340909091L98.36378402777778,72.48451704545455L98.44836562500001,69.29147727272728L98.68365625,72.5096590909091L98.97277152777778,67.7578125L99.08349652777778,72.88678977272727L99.14193472222222,68.034375L99.30494652777777,69.54289772727273L99.3756875,69.34176136363635L99.64173506944445,71.78053977272727L99.86472291666666,72.05710227272728L100.49062673611111,69.94517045454545L100.73668229166667,68.98977272727272L101.44870555555555,68.6377840909091L101.73782083333333,72.35880681818182L101.88852986111111,68.28579545454545L101.977725,67.48125L102.18379652777777,68.31093750000001L102.35603541666667,69.24119318181819L103.0373017361111,68.034375L103.17878368055555,70.07088068181818L103.21107847222223,69.89488636363636L103.57093472222223,69.7440340909091L103.65397847222222,72.81136363636364L103.66628125,73.91761363636364L103.76624131944443,71.55426136363637L103.94616944444445,69.09034090909091L104.16454375,66.04815340909092L104.73816076388889,70.44801136363637L104.91501319444446,69.51775568181817L104.92731597222222,70.82514204545454L105.12416041666665,71.50397727272727L105.31023993055555,70.8L105.55168194444444,70.19659090909092L105.80235104166667,69.7440340909091L105.811578125,69.44232954545454L106.27600798611111,69.19090909090909L106.30215138888889,67.93380681818182L106.337521875,70.95085227272727L106.35443819444444,68.6377840909091L106.67277256944445,69.69375000000001L106.6835375,70.85028409090908L106.85885208333333,71.50397727272727L107.41247708333333,65.46988636363636L107.64776770833333,69.21605113636363L108.78269895833334,66.17386363636365L108.78885034722222,67.28011363636364L108.82114513888888,69.97031249999999L108.83652361111112,68.18522727272727L108.88112118055555,68.28579545454545L108.97492986111112,69.09034090909091L109.03644374999999,68.18522727272727L109.12256319444445,71.50397727272727L109.20868263888889,67.48125L109.41167847222223,68.71321022727273L109.47473020833334,66.67670454545454L109.92685729166666,67.07897727272729L110.14369375,64.7659090909091L110.47740659722221,67.45610795454546L110.50816354166666,70.0205965909091L110.89877673611112,68.33607954545455L110.97566909722222,68.78863636363637L111.02026666666667,66.85269886363636L111.13714305555555,67.35553977272727L111.17251354166667,67.05383522727271L111.38935,67.78295454545454L111.58465659722222,68.96463068181818L111.78919027777778,67.12926136363636L112.01525381944445,69.61832386363636L112.18441701388889,63.86079545454547L112.47507013888888,65.8721590909091L112.78725312499999,68.6377840909091L113.10712534722222,66.42528409090909L113.15941215277778,68.93948863636365L113.16710138888888,71.10170454545455L113.39470277777777,65.57045454545455L113.77301319444445,67.9840909090909L113.811459375,68.73835227272727L113.84682986111112,68.08465909090908L113.91910868055555,68.6377840909091L114.30664618055556,66.04815340909092L114.75108402777778,67.63210227272727L114.77415173611111,70.27201704545453L115.48156145833333,68.58749999999999L115.86602326388889,70.59886363636363L115.89985590277777,66.29957386363637L116.05210277777778,67.58181818181818L116.13822222222223,65.11789772727273L116.40119409722223,66.82755681818182L116.4627079861111,66.22414772727272L116.59803854166667,69.39204545454547L116.78719375,67.95894886363635L117.18395833333334,66.32471590909091L117.86368680555556,69.140625L118.019009375,66.75213068181817L118.31273819444445,68.78863636363637L118.41577395833333,67.43096590909092L118.461909375,67.28011363636364L118.63107256944444,67.63210227272727L118.66798090277777,69.46747159090908L118.8279170138889,68.10980113636363L119.43998020833334,68.31093750000001L119.5476295138889,68.48693181818183L119.6168326388889,67.48125L120.56722222222221,69.140625L120.5995170138889,67.43096590909092L120.82558055555555,66.55099431818182L121.06240902777778,65.41960227272727L121.10393090277778,65.8721590909091L121.243875,66.27443181818181L121.49454409722222,67.90866477272728L121.64217743055555,66.9784090909091L121.78827291666667,66.42528409090909L122.89859861111111,63.35795454545453L123.14926770833334,64.81619318181818L123.48913194444445,65.16818181818182L123.49835902777778,64.9921875L123.52450243055556,69.34176136363635L123.59985694444445,65.16818181818182L123.63522743055555,70.09602272727273L123.78132291666667,65.24360795454547L125.23920208333334,66.22414772727272L125.29610243055555,68.38636363636364L125.60828541666666,63.45852272727272L125.76514583333332,64.81619318181818L125.76668368055556,66.72698863636363L125.87740868055556,65.44474431818182L126.01120138888888,65.31903409090908L126.12038854166667,65.11789772727273L126.17575104166666,66.90298295454545L126.26187048611112,64.7659090909091L126.34337638888888,67.43096590909092L126.47716909722223,66.27443181818181L126.70938402777779,69.140625L127.09077013888889,67.9840909090909L127.26608472222222,67.38068181818183L127.47061840277777,66.77727272727273L127.5751920138889,63.53394886363637L127.74589305555556,67.65724431818181L128.4071673611111,67.85838068181819L128.5578763888889,66.27443181818181L128.71473680555556,64.28821022727271L128.80854548611111,67.12926136363636L128.86544583333333,64.33849431818183L128.96233020833333,65.82187499999999L129.54363645833334,61.49744318181817L129.80814618055555,66.75213068181817L130.09111006944445,68.93948863636365L130.1218670138889,63.81051136363635L130.40790659722222,65.16818181818182L130.43866354166667,67.28011363636364L130.81082256944444,66.375L130.84773090277778,64.61505681818183L130.88617708333334,65.26875L130.92000972222223,67.80809659090909L130.99228854166668,65.06761363636363L131.14299756944445,64.66534090909092L132.03341111111112,63.65965909090909L132.4763111111111,65.06761363636363L132.62548229166669,67.22982954545455L133.04839027777777,64.31335227272729L133.22678055555556,64.31335227272729L133.28060520833333,66.40014204545454L133.30674861111112,65.62073863636364L133.32366493055557,69.01491477272727L133.65276423611112,65.57045454545455L134.02338541666668,66.0984375L134.73079513888888,66.12357954545453L134.82921736111112,65.7715909090909L135.3736152777778,64.08707386363636L135.38591805555555,60.29062499999999L135.51048368055555,65.62073863636364L135.52432430555555,67.02869318181817L135.66119270833332,65.54531250000001L135.74885,64.1122159090909L135.84265868055556,64.81619318181818L135.9764513888889,65.04247159090909L136.49009236111112,66.80241477272727L136.55006840277778,65.36931818181817L136.676171875,62.40255681818182L136.70692881944444,65.16818181818182L136.9545222222222,65.11789772727273L137.24825104166666,63.43338068181818L137.65116701388888,63.43338068181818L137.98641770833333,60.03920454545455L138.24938958333334,63.609375L138.3570388888889,65.34417613636363L139.03676736111112,62.95568181818183L139.27052013888888,64.03678977272727L139.6780496527778,65.74644886363636L139.79338819444445,60.36605113636364L140.16862291666666,63.8859375L140.22244756944445,65.54531250000001L140.27319652777777,62.98082386363636L140.35470243055556,63.383096590909105L140.357778125,63.282528409090915L140.47157881944446,63.50880681818181L140.52078993055554,65.14303977272728L140.966765625,67.1544034090909L142.21088402777778,62.52826704545454L142.40465277777778,63.03110795454545L142.46001527777779,62.15113636363637L142.63840555555555,62.88025568181817L142.70453298611113,61.49744318181817L143.0474729166667,62.98082386363636L143.0567,63.282528409090915L143.11667604166666,62.98082386363636L143.707209375,63.25738636363637L143.7272013888889,62.05056818181818L143.8794482638889,63.03110795454545L143.93173506944444,65.06761363636363L144.0655277777778,61.24602272727273L144.1301173611111,62.30198863636363L144.39001354166666,62.75454545454545L144.96363055555554,60.94431818181819L145.21891319444444,62.37741477272728L145.31579756944444,61.77400568181818L146.07088055555556,61.170596590909085L146.07241840277777,60.89403409090909L146.82135,62.452840909090895L147.2996204861111,61.95L147.34268020833332,63.483664772727266L147.69638506944446,61.24602272727273L147.79788298611112,63.35795454545453L147.87323750000002,63.86079545454547L148.60217708333334,64.715625L148.6114041666667,62.27684659090909L148.62678263888887,59.83806818181817L148.62985833333335,62.452840909090895L148.6836829861111,60.516903409090915L148.89744375,61.87457386363637L148.9804875,59.586647727272734L149.0004795138889,61.42201704545455L149.82784131944445,62.60369318181817L150.08619965277776,63.68480113636363L150.23075729166666,63.55909090909091L150.36455,60.66775568181818L150.77361736111112,60.416335227272725L150.87357743055554,58.304403409090895L151.57791145833332,61.24602272727273L152.02081145833333,58.25411931818182L152.05003055555557,62.251704545454544L152.16998263888888,60.64261363636365L152.31300243055557,62.37741477272728L152.60211770833334,61.49744318181817L152.65132881944444,64.36363636363636L153.27569479166667,62.32713068181819L153.31106527777777,58.505539772727275L153.96003680555555,60.617471590909105L154.2137815972222,58.203835227272734L154.25837916666669,59.15923295454546L154.47213993055556,59.91349431818182L155.34409930555555,58.17869318181819L155.70703125,58.103267045454544L155.73009895833334,59.98892045454545L155.8254454861111,60.01406250000001L155.859278125,58.857528409090904L156.05458472222222,58.12840909090909L156.22836145833332,58.782102272727286L156.5036361111111,60.164914772727286L156.62512604166665,61.170596590909085L156.98036875000003,60.416335227272725L157.08186666666666,60.34090909090909L157.50169895833332,62.452840909090895L157.57090208333335,62.12599431818181L157.5970454861111,59.888352272727275L157.79542777777777,60.19005681818183L157.97228020833333,59.14666193181817L158.16912465277778,60.44147727272727L158.4413236111111,60.5671875L158.6120246527778,58.83238636363636L158.80886909722224,60.49176136363637L158.8473152777778,61.1203125L159.6300795138889,58.95809659090909L159.64699583333334,58.58096590909091L159.734653125,59.57407670454545L160.24214270833332,59.38551136363637L160.36209479166666,57.70099431818183L160.65889930555554,58.505539772727275L160.80653263888888,60.01406250000001L160.80807048611112,58.63125000000001L161.03259618055557,59.28494318181818L161.1417833333333,59.787784090909085L161.38630104166666,58.27926136363635L161.8307388888889,59.586647727272734L162.17060312499999,60.36605113636364L162.24288194444446,57.952414772727266L162.30132013888888,58.404971590909085L162.34591770833333,61.67343749999999L162.49970243055554,58.70667613636364L162.6150409722222,59.435795454545456L163.03948680555555,59.05866477272727L163.1532875,58.88267045454545L163.37319965277777,60.868892045454544L163.5054545138889,57.04730113636363L163.51006805555556,59.586647727272734L163.56543055555557,59.93863636363636L164.4666090277778,60.19005681818183L164.689596875,59.63693181818182L164.79878402777777,62.27684659090909L164.80647326388888,58.078125L164.90797118055556,57.97755681818181L164.97409861111112,59.4609375L165.26475173611112,59.10894886363637L165.36317395833333,58.90781249999999L165.42622569444444,55.3125L165.53079930555555,56.04161931818183L165.63075937500003,58.02784090909091L165.68919756944445,56.94673295454547L165.9260260416667,60.69289772727272L166.18130868055556,60.03920454545455L166.2059142361111,60.39119318181818L166.9379295138889,58.00269886363637L167.070184375,55.89076704545455L167.78682118055556,56.29303977272727L168.14206388888888,59.00838068181818L168.1928128472222,59.63693181818182L168.65878055555555,58.756960227272714L168.78334618055558,55.94105113636364L168.85408715277777,58.3546875L168.95558506944445,58.80724431818183L169.21855694444446,56.44389204545453L169.6245486111111,57.34900568181817L169.78756041666665,59.15923295454546L170.34733680555556,58.73181818181817L170.41653993055553,57.92727272727272L170.60877083333332,56.921590909090895L170.82714513888888,58.25411931818182L171.28234791666668,58.55582386363636L171.39153506944447,56.77073863636363L171.60683368055555,55.89076704545455L172.0051361111111,56.569602272727266L172.2173590277778,57.122727272727275L172.27118368055557,57.07244318181817L172.46033888888888,57.751278409090915L172.7248486111111,58.32954545454547L172.92476875,57.55014204545455L173.20004340277777,58.70667613636364L173.298465625,57.32386363636364L173.44609895833335,54.45767045454545L173.62602708333333,56.16732954545455L173.62756493055556,55.06107954545453L173.97973194444444,59.31008522727272L174.10275972222223,56.84616477272728L174.2319388888889,55.337642045454544L174.66561180555556,59.00838068181818L174.73942847222222,59.234659090909105L174.7871017361111,56.44389204545453L174.88706180555553,57.298721590909096L175.03930868055556,56.87130681818182L175.98047118055555,54.93536931818183L176.64328333333333,57.82670454545453L176.78784097222223,56.54446022727272L177.11386458333334,54.08053977272728L177.1169402777778,56.19247159090909L177.533696875,56.016477272727286L177.59059722222221,58.25411931818182L177.68286805555553,56.89644886363635L178.0104295138889,56.14218749999999L178.06579201388888,56.79588068181819L178.6916958333333,54.75937499999999L178.8285642361111,55.48849431818182L178.84548055555558,52.99943181818182L178.93621354166666,54.68394886363636L179.0023409722222,55.639346590909085L179.0131059027778,55.81534090909091L179.27146423611111,57.122727272727275L179.6528503472222,57.399289772727286L179.8404677083333,58.782102272727286L179.95119270833334,57.122727272727275L180.18648333333334,54.73423295454545L180.51404479166666,54.155965909090895L180.68628368055556,55.086221590909105L181.06305625000002,54.885085227272725L181.0968888888889,54.55823863636364L181.11688090277778,54.20625L181.2214545138889,53.52741477272727L181.93655347222224,57.474715909090904L182.03343784722222,54.28167613636363L182.10571666666667,55.915909090909096L182.13032222222222,57.49985795454545L183.23295868055556,55.11136363636365L183.46671145833332,54.96051136363637L183.52207395833335,54.91022727272727L183.53899027777777,53.72855113636365L183.76351597222222,52.320596590909105L183.85886250000001,51.56633522727273L184.13413715277778,55.84048295454545L184.3509736111111,53.04971590909091L184.3586628472222,50.68636363636364L185.06453472222222,51.56633522727273L185.11682152777777,52.09431818181818L185.24600069444443,51.490909090909085L185.32750659722223,51.41548295454547L185.50435902777778,49.52982954545453L185.54280520833333,49.83153409090909L185.7950121527778,54.357102272727275L185.907275,54.75937499999999L186.142565625,51.51605113636363L186.21176874999998,52.2703125L186.350175,53.12514204545455L186.48089201388888,46.83963068181819L186.90226215277778,51.01321022727272L187.33593506944445,52.29545454545453L187.3590027777778,51.842897727272714L187.48664409722224,46.6887784090909L187.70963194444445,47.49332386363636L188.3647548611111,52.09431818181818L188.42011736111112,52.72286931818182L188.44164722222223,52.16974431818183L188.50469895833334,50.384659090909096L188.5708263888889,54.00511363636363L188.64618090277776,51.289772727272734L188.74921666666665,50.78693181818183L189.0475590277778,49.906960227272734L189.07985381944445,51.767471590909096L189.34590138888888,50.560653409090904L189.67807638888888,50.35951704545455L189.71037118055557,48.04644886363636L190.12251423611113,47.971022727272725L190.47468125,51.23948863636363L190.488521875,50.35951704545455L190.6207767361111,54.80965909090909L190.62385243055556,51.842897727272714L190.87452152777777,48.373295454545456L190.91911909722222,52.47144886363637L191.18978020833333,46.66363636363636L191.21131006944447,50.33437500000001L191.26052118055554,49.68068181818181L191.485046875,50.108096590909085L191.678815625,49.60525568181818L191.70342118055558,47.74474431818183L191.70495902777776,49.177840909090904L191.91871979166666,50.35951704545455L192.34624131944446,46.185937499999994L192.37699826388888,49.077272727272714L192.61075104166665,48.825852272727275L192.75838437500002,50.108096590909085L192.8337388888889,49.88181818181819L192.95522881944444,48.57443181818181L192.9583045138889,48.624715909090895L193.0705673611111,46.336789772727286L193.1044,48.423579545454544L193.13208125,44.928835227272714L193.33661493055558,45.12997159090909L193.36583402777777,49.47954545454546L193.4488777777778,49.077272727272714L193.92099687500001,48.34815340909091L194.06094097222223,48.624715909090895L194.06709236111112,47.87045454545455L194.4207972222222,49.5046875L194.43771354166668,51.038352272727266L194.47308402777776,50.485227272727286L195.0343982638889,47.49332386363636L195.11897986111111,44.30028409090909L195.24046979166667,49.906960227272734L195.30967291666667,47.49332386363636L195.9355767361111,46.060227272727275L196.03553680555555,48.92642045454545L196.0678315972222,46.16079545454545L196.22315416666666,46.462500000000006L196.2723652777778,50.837215909090915L196.59992673611112,45.205397727272725L196.77677916666667,51.21434659090909L196.95209375000002,45.70823863636363L196.97823715277778,46.915056818181824L197.19046006944444,47.241903409090895L197.4518940972222,47.443039772727275L197.45958333333334,45.90937500000001L197.6933361111111,46.56306818181818L198.03012465277777,43.84772727272727L198.460721875,48.297869318181824L198.47763819444447,47.015625L198.67755833333334,49.52982954545453L198.70677743055558,46.41221590909092L198.97128715277776,47.46818181818182L199.20503993055556,45.9596590909091L199.54490416666667,46.713920454545445L199.57719895833333,46.56306818181818L199.72790798611112,48.02130681818181L199.73713506944443,46.43735795454546L199.74328645833333,47.06590909090909L199.7817326388889,50.76178977272727L199.93859305555554,47.116193181818176L199.99703125000002,47.51846590909091L200.03701527777778,45.205397727272725L200.33381979166666,47.51846590909091L200.3368954861111,49.15269886363636L200.4522340277778,48.57443181818181L200.72597083333332,48.19730113636365L200.79209826388887,46.11051136363636L200.90743680555556,48.44872159090909L202.003921875,45.83394886363635L202.18077430555556,45.15511363636364L202.22998541666666,48.34815340909091L202.61444722222222,45.934517045454555L202.70364236111112,45.004261363636374L202.94200868055555,45.657954545454544L203.2987892361111,50.58579545454545L203.34492465277776,45.83394886363635L203.5617611111111,48.67500000000001L203.84318715277777,46.53792613636364L204.1984298611111,48.19730113636365L204.3352982638889,46.63849431818181L204.35836597222223,45.406534090909105L204.7520548611111,47.040767045454544L204.7628197916667,43.87286931818181L204.7920388888889,47.443039772727275L204.82587152777776,46.73906249999999L204.9365965277778,45.75852272727272L205.26262013888888,45.9596590909091L205.42101840277778,48.24758522727274L205.82701006944444,45.35624999999999L206.03923298611113,47.14133522727272L206.211471875,49.102414772727286L206.280675,45.58252840909091L206.28836423611114,48.373295454545456L206.70665868055553,48.34815340909091L207.11418819444447,45.607670454545456L207.43252256944444,46.915056818181824L208.40290416666667,47.79502840909092L208.4198204861111,43.01803977272726L208.5505375,46.88991477272728L208.65049756944444,47.46818181818182L208.7504576388889,47.241903409090895L208.93499930555555,44.928835227272714L209.2625607638889,45.004261363636374L209.3471423611111,48.75042613636364L209.47632152777777,46.588210227272725L209.48247291666667,42.79176136363637L209.560903125,48.32301136363637L210.2821534722222,43.294602272727275L210.4728465277778,40.4284090909091L210.49745208333331,45.18025568181818L210.5835715277778,46.588210227272725L210.88191388888887,42.74147727272728L211.14796145833336,44.85340909090908L211.78463020833334,47.769886363636374L211.82768993055555,47.21676136363635L211.86613611111113,44.40085227272726L212.29365763888887,43.37002840909091L212.35209583333332,44.50142045454547L212.48588854166664,42.08778409090908L213.06719479166668,43.89801136363636L213.27172847222224,43.093465909090895L213.3793777777778,43.77230113636364L213.53008680555556,42.81690340909091L213.547003125,46.61335227272727L213.67003090277777,43.31974431818182L213.8315048611111,43.72201704545455L213.94222986111112,43.64659090909092L214.04834131944443,42.238636363636374L214.60350416666665,42.74147727272728L214.73268333333334,43.11860795454547L215.20326458333332,42.99289772727272L215.40626041666667,45.68309659090909L215.43086597222222,40.4284090909091L215.63078611111112,43.74715909090909L215.76919236111112,42.21349431818183L216.0167857638889,38.945028409090895L216.1567298611111,42.842045454545456L216.2935982638889,42.5403409090909L216.62423541666666,41.13238636363636L216.6549923611111,44.149431818181824L216.90873715277777,41.584943181818176L217.05944618055557,40.17698863636363L217.07790034722223,42.892329545454544L217.5407923611111,40.95639204545455L217.8083777777778,46.789346590909105L217.94678402777777,44.953977272727286L217.96370034722224,42.238636363636374L218.08826597222222,42.640909090909105L218.13901493055553,40.4284090909091L218.34354861111112,41.08210227272727L218.40352465277778,42.439772727272725L218.53577951388888,41.73579545454547L218.72954826388892,41.786079545454555L218.79413784722223,43.64659090909092L218.91408993055555,42.26377840909092L218.96176319444444,42.8671875L219.62765104166667,43.37002840909091L219.69839201388888,39.17130681818182L219.82910902777778,38.86960227272726L219.94752326388888,45.12997159090909L220.12437569444444,41.08210227272727L220.27662256944444,42.91747159090909L220.3166065972222,41.73579545454547L220.36581770833334,37.46164772727272L220.7779607638889,41.056960227272725L221.11782499999998,40.70497159090908L221.21932291666667,39.23416193181819L221.42539444444444,42.238636363636374L221.64069305555554,38.46732954545453L221.74372881944444,40.22727272727272L221.90366493055555,40.35298295454547L222.100509375,45.23053977272727L222.38193541666666,43.822585227272725L222.6464451388889,40.403267045454555L222.81868402777778,38.743892045454544L222.83560034722223,42.51519886363636L222.84021388888888,41.786079545454555L222.85251666666667,40.855823863636374L222.97246875,40.47869318181819L223.2892652777778,39.799857954545445L223.54147222222224,41.98721590909091L223.761384375,41.66036931818181L223.77676284722224,41.584943181818176L223.85519305555556,39.49815340909092L224.62873020833334,41.1575284090909L224.80250694444445,40.67982954545454L224.81788541666668,45.70823863636363L224.88093715277776,39.62386363636364L224.92092118055555,41.911789772727275L225.05163819444445,40.05127840909091L225.1054628472222,36.83309659090909L225.33460208333335,42.94261363636363L225.39304027777777,40.35298295454547L225.45147847222222,40.02613636363637L225.54836284722222,43.1940340909091L225.58065763888888,40.17698863636363L225.7067611111111,54.55823863636364L226.35265694444445,45.75852272727272L226.64331006944445,44.275142045454544L226.83092743055556,41.13238636363636L226.86629791666667,45.004261363636374L227.10773993055557,40.780397727272714L227.24307048611112,44.50142045454547L228.20576284722222,41.1575284090909L228.56254340277778,44.32542613636363L228.78860694444444,40.076420454545456L229.2545746527778,46.13565340909091L229.33608055555558,40.931250000000006L229.408359375,40.62954545454545L229.5959767361111,39.97585227272728L229.87278923611112,40.98153409090909L230.045028125,37.71306818181819L230.4540954861111,39.22159090909091L230.5971152777778,39.72443181818181L231.28453298611112,36.07883522727272L231.60901875,36.95880681818181L232.11343263888887,38.165625000000006L232.2164684027778,41.53465909090909L232.2518388888889,38.44218749999999L232.53787847222222,42.565482954545445L232.60246805555556,41.68551136363635L232.96847569444444,38.14048295454546L233.28219652777776,36.80795454545455L233.3959972222222,37.15994318181819L233.41291354166665,40.50383522727273L233.46673819444445,41.83636363636364L233.4713517361111,43.294602272727275L233.5128736111111,40.126704545454544L233.6835746527778,39.19644886363636L233.73586145833335,37.68792613636364L234.22335902777778,40.000994318181824L234.49709583333333,38.99531250000001L234.8354222222222,38.89474431818181L235.66278402777778,38.21590909090909L235.7688954861111,39.422727272727286L235.81503090277778,40.25241477272726L236.328671875,36.53139204545454L236.58241666666666,44.551704545454555L236.71620937499998,35.123437499999994L237.00840034722222,38.76903409090909L237.05761145833335,38.945028409090895L237.10682256944443,36.2799715909091L237.12835243055554,38.21590909090909L237.41131631944444,40.50383522727273L237.9495628472222,39.799857954545445L238.1264152777778,39.473011363636374L238.487809375,40.70497159090908L238.653896875,38.11534090909092L238.681578125,40.22727272727272L238.76154618055554,46.990482954545456L239.31517118055555,39.17130681818182L239.4766451388889,40.57926136363636L239.54431041666666,36.10397727272726L239.61966493055553,36.12911931818181L240.12407881944443,40.05127840909091L240.4593295138889,38.743892045454544L240.64387118055555,39.17130681818182L241.16058784722222,40.528977272727275L241.22056388888888,37.964488636363626L241.35281875,38.26619318181818L241.61579062500002,38.417045454545445L241.6573125,43.99857954545453L241.70959930555557,39.020454545454555L242.0848340277778,37.889062499999994L242.2816784722222,37.0090909090909L242.34934374999997,37.68792613636364L242.76763819444443,40.202130681818176L243.041375,35.80227272727274L243.16901631944444,37.46164772727272L243.2643628472222,39.674147727272725L243.28281701388892,37.6627840909091L243.29050625,40.730113636363626L243.77800381944445,39.22159090909091L244.05020277777777,38.819318181818176L244.14247361111111,39.347301136363626L244.22090381944446,37.6627840909091L244.30856111111112,37.361079545454544L244.7914451388889,37.15994318181819L244.799134375,38.24105113636364L245.10670381944445,37.361079545454544L245.40043263888887,37.58735795454547L245.5249982638889,38.014772727272714L245.60496631944443,39.875284090909105L245.65725312499998,42.439772727272725L246.22164305555555,40.30269886363635L246.27854340277779,36.782812500000006L246.55228020833334,36.707386363636374L247.55649444444444,38.819318181818176L247.7533388888889,39.72443181818181L247.87482881944445,38.76903409090909L247.9225020833333,39.82499999999999L248.05321909722224,37.91420454545454L248.10704375,40.45355113636364L248.56839791666667,37.6627840909091L249.31579166666666,38.14048295454546L249.59721770833332,37.86392045454545L249.69717777777777,38.86960227272726L249.86480312499998,41.23295454545453L249.97399027777777,36.45596590909091L250.0662611111111,38.99531250000001L250.13392638888888,36.85823863636364L250.307703125,39.19644886363636L250.47686631944444,36.83309659090909L250.48301770833334,36.053693181818176L250.60296979166665,38.50504261363636L250.7152326388889,35.67656249999999L251.05817256944445,38.492471590909105L251.08892951388887,39.49815340909092L251.18427604166666,37.38622159090909L251.32114444444446,38.26619318181818L251.4349451388889,39.146164772727275L251.442634375,37.109659090909105L251.74559027777778,35.249147727272714L251.77942291666665,39.146164772727275L251.85631527777778,40.90610795454546L251.88092083333333,40.50383522727273L252.0916059027778,41.66036931818181L252.1469684027778,37.08451704545453L252.29152604166666,36.83309659090909L252.3130559027778,40.17698863636363L252.5145138888889,38.21590909090909L252.70828263888887,36.68224431818183L252.82823472222222,37.6627840909091L253.14503125,35.400000000000006L253.53256875000002,38.79417613636363" style="fill: none;" fill="none"></path></g></g></g></g></g></g><g transform="translate(53, 177)" clip-path="url(#clip_1)"><clipPath id="clip_1"><rect width="276" height="23"></rect></clipPath><g><g><line x1="0" y1="0" x2="0" y2="5" style="visibility: inherit;" fill="rgb(0, 0, 0)" stroke="rgb(204, 204, 204)" stroke-width="1px"></line><line x1="30.756944444444443" y1="0" x2="30.756944444444443" y2="5" style="visibility: inherit;" fill="rgb(0, 0, 0)" stroke="rgb(204, 204, 204)" stroke-width="1px"></line><line x1="61.513888888888886" y1="0" x2="61.513888888888886" y2="5" style="visibility: inherit;" fill="rgb(0, 0, 0)" stroke="rgb(204, 204, 204)" stroke-width="1px"></line><line x1="92.27083333333333" y1="0" x2="92.27083333333333" y2="5" style="visibility: inherit;" fill="rgb(0, 0, 0)" stroke="rgb(204, 204, 204)" stroke-width="1px"></line><line x1="123.02777777777777" y1="0" x2="123.02777777777777" y2="5" style="visibility: inherit;" fill="rgb(0, 0, 0)" stroke="rgb(204, 204, 204)" stroke-width="1px"></line><line x1="153.78472222222223" y1="0" x2="153.78472222222223" y2="5" style="visibility: inherit;" fill="rgb(0, 0, 0)" stroke="rgb(204, 204, 204)" stroke-width="1px"></line><line x1="184.54166666666666" y1="0" x2="184.54166666666666" y2="5" style="visibility: inherit;" fill="rgb(0, 0, 0)" stroke="rgb(204, 204, 204)" stroke-width="1px"></line><line x1="215.29861111111111" y1="0" x2="215.29861111111111" y2="5" style="visibility: inherit;" fill="rgb(0, 0, 0)" stroke="rgb(204, 204, 204)" stroke-width="1px"></line><line x1="246.05555555555554" y1="0" x2="246.05555555555554" y2="5" style="visibility: inherit;" fill="rgb(0, 0, 0)" stroke="rgb(204, 204, 204)" stroke-width="1px"></line><line x1="276.8125" y1="0" x2="276.8125" y2="5" style="visibility: inherit;" fill="rgb(0, 0, 0)" stroke="rgb(204, 204, 204)" stroke-width="1px"></line></g><g transform="translate(0, 8)"><text x="0" y="0" dx="0em" dy="0.95em" style="text-anchor: middle; visibility: hidden; font-family: &quot;Helvetica Neue&quot;, sans-serif; font-size: 12px; font-weight: 200;" fill="rgb(50, 49, 63)" stroke="none" stroke-width="1px">-20k</text><text x="30.756944444444443" y="0" dx="0em" dy="0.95em" style="text-anchor: middle; visibility: inherit; font-family: &quot;Helvetica Neue&quot;, sans-serif; font-size: 12px; font-weight: 200;" fill="rgb(50, 49, 63)" stroke="none" stroke-width="1px">0</text><text x="61.513888888888886" y="0" dx="0em" dy="0.95em" style="text-anchor: middle; visibility: inherit; font-family: &quot;Helvetica Neue&quot;, sans-serif; font-size: 12px; font-weight: 200;" fill="rgb(50, 49, 63)" stroke="none" stroke-width="1px">20k</text><text x="92.27083333333333" y="0" dx="0em" dy="0.95em" style="text-anchor: middle; visibility: inherit; font-family: &quot;Helvetica Neue&quot;, sans-serif; font-size: 12px; font-weight: 200;" fill="rgb(50, 49, 63)" stroke="none" stroke-width="1px">40k</text><text x="123.02777777777777" y="0" dx="0em" dy="0.95em" style="text-anchor: middle; visibility: inherit; font-family: &quot;Helvetica Neue&quot;, sans-serif; font-size: 12px; font-weight: 200;" fill="rgb(50, 49, 63)" stroke="none" stroke-width="1px">60k</text><text x="153.78472222222223" y="0" dx="0em" dy="0.95em" style="text-anchor: middle; visibility: inherit; font-family: &quot;Helvetica Neue&quot;, sans-serif; font-size: 12px; font-weight: 200;" fill="rgb(50, 49, 63)" stroke="none" stroke-width="1px">80k</text><text x="184.54166666666666" y="0" dx="0em" dy="0.95em" style="text-anchor: middle; visibility: inherit; font-family: &quot;Helvetica Neue&quot;, sans-serif; font-size: 12px; font-weight: 200;" fill="rgb(50, 49, 63)" stroke="none" stroke-width="1px">100k</text><text x="215.29861111111111" y="0" dx="0em" dy="0.95em" style="text-anchor: middle; visibility: inherit; font-family: &quot;Helvetica Neue&quot;, sans-serif; font-size: 12px; font-weight: 200;" fill="rgb(50, 49, 63)" stroke="none" stroke-width="1px">120k</text><text x="246.05555555555554" y="0" dx="0em" dy="0.95em" style="text-anchor: middle; visibility: inherit; font-family: &quot;Helvetica Neue&quot;, sans-serif; font-size: 12px; font-weight: 200;" fill="rgb(50, 49, 63)" stroke="none" stroke-width="1px">140k</text><text x="276.8125" y="0" dx="0em" dy="0.95em" style="text-anchor: middle; visibility: hidden; font-family: &quot;Helvetica Neue&quot;, sans-serif; font-size: 12px; font-weight: 200;" fill="rgb(50, 49, 63)" stroke="none" stroke-width="1px">160k</text></g><line x1="0" y1="0" x2="276.8125" y2="0" fill="rgb(0, 0, 0)" stroke="rgb(204, 204, 204)" stroke-width="1px"></line></g></g></g></g></svg>