<svg viewBox="0 0 330 200" xmlns="http://www.w3.org/2000/svg"><g><g><g><g><g><line x1="53.1875" y1="177" x2="48.1875" y2="177" style="visibility: inherit;" fill="rgb(0, 0, 0)" stroke="rgb(204, 204, 204)" stroke-width="1px"></line><line x1="53.1875" y1="162.25" x2="48.1875" y2="162.25" style="visibility: inherit;" fill="rgb(0, 0, 0)" stroke="rgb(204, 204, 204)" stroke-width="1px"></line><line x1="53.1875" y1="147.5" x2="48.1875" y2="147.5" style="visibility: inherit;" fill="rgb(0, 0, 0)" stroke="rgb(204, 204, 204)" stroke-width="1px"></line><line x1="53.1875" y1="132.75" x2="48.1875" y2="132.75" style="visibility: inherit;" fill="rgb(0, 0, 0)" stroke="rgb(204, 204, 204)" stroke-width="1px"></line><line x1="53.1875" y1="118" x2="48.1875" y2="118" style="visibility: inherit;" fill="rgb(0, 0, 0)" stroke="rgb(204, 204, 204)" stroke-width="1px"></line><line x1="53.1875" y1="103.25" x2="48.1875" y2="103.25" style="visibility: inherit;" fill="rgb(0, 0, 0)" stroke="rgb(204, 204, 204)" stroke-width="1px"></line><line x1="53.1875" y1="88.5" x2="48.1875" y2="88.5" style="visibility: inherit;" fill="rgb(0, 0, 0)" stroke="rgb(204, 204, 204)" stroke-width="1px"></line><line x1="53.1875" y1="73.75" x2="48.1875" y2="73.75" style="visibility: inherit;" fill="rgb(0, 0, 0)" stroke="rgb(204, 204, 204)" stroke-width="1px"></line><line x1="53.1875" y1="59" x2="48.1875" y2="59" style="visibility: inherit;" fill="rgb(0, 0, 0)" stroke="rgb(204, 204, 204)" stroke-width="1px"></line><line x1="53.1875" y1="44.25" x2="48.1875" y2="44.25" style="visibility: inherit;" fill="rgb(0, 0, 0)" stroke="rgb(204, 204, 204)" stroke-width="1px"></line><line x1="53.1875" y1="29.5" x2="48.1875" y2="29.5" style="visibility: inherit;" fill="rgb(0, 0, 0)" stroke="rgb(204, 204, 204)" stroke-width="1px"></line><line x1="53.1875" y1="14.75" x2="48.1875" y2="14.75" style="visibility: inherit;" fill="rgb(0, 0, 0)" stroke="rgb(204, 204, 204)" stroke-width="1px"></line><line x1="53.1875" y1="0" x2="48.1875" y2="0" style="visibility: inherit;" fill="rgb(0, 0, 0)" stroke="rgb(204, 204, 204)" stroke-width="1px"></line></g><g transform="translate(43.1875, 0)"><text x="0" y="177" dx="0em" dy="0.3em" style="text-anchor: end; visibility: hidden; font-family: &quot;Helvetica Neue&quot;, sans-serif; font-size: 12px; font-weight: 200;" fill="rgb(50, 49, 63)" stroke="none" stroke-width="1px">-0.5</text><text x="0" y="162.25" dx="0em" dy="0.3em" style="text-anchor: end; visibility: inherit; font-family: &quot;Helvetica Neue&quot;, sans-serif; font-size: 12px; font-weight: 200;" fill="rgb(50, 49, 63)" stroke="none" stroke-width="1px">0</text><text x="0" y="147.5" dx="0em" dy="0.3em" style="text-anchor: end; visibility: hidden; font-family: &quot;Helvetica Neue&quot;, sans-serif; font-size: 12px; font-weight: 200;" fill="rgb(50, 49, 63)" stroke="none" stroke-width="1px">0.5</text><text x="0" y="132.75" dx="0em" dy="0.3em" style="text-anchor: end; visibility: inherit; font-family: &quot;Helvetica Neue&quot;, sans-serif; font-size: 12px; font-weight: 200;" fill="rgb(50, 49, 63)" stroke="none" stroke-width="1px">1</text><text x="0" y="118" dx="0em" dy="0.3em" style="text-anchor: end; visibility: hidden; font-family: &quot;Helvetica Neue&quot;, sans-serif; font-size: 12px; font-weight: 200;" fill="rgb(50, 49, 63)" stroke="none" stroke-width="1px">1.5</text><text x="0" y="103.25" dx="0em" dy="0.3em" style="text-anchor: end; visibility: inherit; font-family: &quot;Helvetica Neue&quot;, sans-serif; font-size: 12px; font-weight: 200;" fill="rgb(50, 49, 63)" stroke="none" stroke-width="1px">2</text><text x="0" y="88.5" dx="0em" dy="0.3em" style="text-anchor: end; visibility: hidden; font-family: &quot;Helvetica Neue&quot;, sans-serif; font-size: 12px; font-weight: 200;" fill="rgb(50, 49, 63)" stroke="none" stroke-width="1px">2.5</text><text x="0" y="73.75" dx="0em" dy="0.3em" style="text-anchor: end; visibility: inherit; font-family: &quot;Helvetica Neue&quot;, sans-serif; font-size: 12px; font-weight: 200;" fill="rgb(50, 49, 63)" stroke="none" stroke-width="1px">3</text><text x="0" y="59" dx="0em" dy="0.3em" style="text-anchor: end; visibility: hidden; font-family: &quot;Helvetica Neue&quot;, sans-serif; font-size: 12px; font-weight: 200;" fill="rgb(50, 49, 63)" stroke="none" stroke-width="1px">3.5</text><text x="0" y="44.25" dx="0em" dy="0.3em" style="text-anchor: end; visibility: inherit; font-family: &quot;Helvetica Neue&quot;, sans-serif; font-size: 12px; font-weight: 200;" fill="rgb(50, 49, 63)" stroke="none" stroke-width="1px">4</text><text x="0" y="29.5" dx="0em" dy="0.3em" style="text-anchor: end; visibility: hidden; font-family: &quot;Helvetica Neue&quot;, sans-serif; font-size: 12px; font-weight: 200;" fill="rgb(50, 49, 63)" stroke="none" stroke-width="1px">4.5</text><text x="0" y="14.75" dx="0em" dy="0.3em" style="text-anchor: end; visibility: inherit; font-family: &quot;Helvetica Neue&quot;, sans-serif; font-size: 12px; font-weight: 200;" fill="rgb(50, 49, 63)" stroke="none" stroke-width="1px">5</text><text x="0" y="0" dx="0em" dy="0.3em" style="text-anchor: end; visibility: hidden; font-family: &quot;Helvetica Neue&quot;, sans-serif; font-size: 12px; font-weight: 200;" fill="rgb(50, 49, 63)" stroke="none" stroke-width="1px">5.5</text></g><line x1="53.1875" y1="0" x2="53.1875" y2="177" fill="rgb(0, 0, 0)" stroke="rgb(204, 204, 204)" stroke-width="1px"></line></g></g><g transform="translate(53, 0)" clip-path="url(#clip_0)"><clipPath id="clip_0"><rect width="276" height="177"></rect></clipPath><g><g><g><line x1="0" y1="0" x2="0" y2="177" fill="rgb(0, 0, 0)" stroke="rgb(60, 60, 60)" stroke-width="1px" opacity="0.25"></line><line x1="34.6015625" y1="0" x2="34.6015625" y2="177" fill="rgb(0, 0, 0)" stroke="rgb(60, 60, 60)" stroke-width="1px" opacity="0.25"></line><line x1="69.203125" y1="0" x2="69.203125" y2="177" fill="rgb(0, 0, 0)" stroke="rgb(60, 60, 60)" stroke-width="1px" opacity="0.25"></line><line x1="103.8046875" y1="0" x2="103.8046875" y2="177" fill="rgb(0, 0, 0)" stroke="rgb(60, 60, 60)" stroke-width="1px" opacity="0.25"></line><line x1="138.40625" y1="0" x2="138.40625" y2="177" fill="rgb(0, 0, 0)" stroke="rgb(60, 60, 60)" stroke-width="1px" opacity="0.25"></line><line x1="173.0078125" y1="0" x2="173.0078125" y2="177" fill="rgb(0, 0, 0)" stroke="rgb(60, 60, 60)" stroke-width="1px" opacity="0.25"></line><line x1="207.609375" y1="0" x2="207.609375" y2="177" fill="rgb(0, 0, 0)" stroke="rgb(60, 60, 60)" stroke-width="1px" opacity="0.25"></line><line x1="242.2109375" y1="0" x2="242.2109375" y2="177" fill="rgb(0, 0, 0)" stroke="rgb(60, 60, 60)" stroke-width="1px" opacity="0.25"></line><line x1="276.8125" y1="0" x2="276.8125" y2="177" fill="rgb(0, 0, 0)" stroke="rgb(60, 60, 60)" stroke-width="1px" opacity="0.25"></line></g><g><line x1="0" y1="177" x2="276.8125" y2="177" fill="rgb(0, 0, 0)" stroke="rgb(60, 60, 60)" stroke-width="1px" opacity="0.25"></line><line x1="0" y1="162.25" x2="276.8125" y2="162.25" fill="rgb(0, 0, 0)" stroke="rgb(60, 60, 60)" stroke-width="1px" opacity="0.25"></line><line x1="0" y1="147.5" x2="276.8125" y2="147.5" fill="rgb(0, 0, 0)" stroke="rgb(60, 60, 60)" stroke-width="1px" opacity="0.25"></line><line x1="0" y1="132.75" x2="276.8125" y2="132.75" fill="rgb(0, 0, 0)" stroke="rgb(60, 60, 60)" stroke-width="1px" opacity="0.25"></line><line x1="0" y1="118" x2="276.8125" y2="118" fill="rgb(0, 0, 0)" stroke="rgb(60, 60, 60)" stroke-width="1px" opacity="0.25"></line><line x1="0" y1="103.25" x2="276.8125" y2="103.25" fill="rgb(0, 0, 0)" stroke="rgb(60, 60, 60)" stroke-width="1px" opacity="0.25"></line><line x1="0" y1="88.5" x2="276.8125" y2="88.5" fill="rgb(0, 0, 0)" stroke="rgb(60, 60, 60)" stroke-width="1px" opacity="0.25"></line><line x1="0" y1="73.75" x2="276.8125" y2="73.75" fill="rgb(0, 0, 0)" stroke="rgb(60, 60, 60)" stroke-width="1px" opacity="0.25"></line><line x1="0" y1="59" x2="276.8125" y2="59" fill="rgb(0, 0, 0)" stroke="rgb(60, 60, 60)" stroke-width="1px" opacity="0.25"></line><line x1="0" y1="44.25" x2="276.8125" y2="44.25" fill="rgb(0, 0, 0)" stroke="rgb(60, 60, 60)" stroke-width="1px" opacity="0.25"></line><line x1="0" y1="29.5" x2="276.8125" y2="29.5" fill="rgb(0, 0, 0)" stroke="rgb(60, 60, 60)" stroke-width="1px" opacity="0.25"></line><line x1="0" y1="14.75" x2="276.8125" y2="14.75" fill="rgb(0, 0, 0)" stroke="rgb(60, 60, 60)" stroke-width="1px" opacity="0.25"></line><line x1="0" y1="0" x2="276.8125" y2="0" fill="rgb(0, 0, 0)" stroke="rgb(60, 60, 60)" stroke-width="1px" opacity="0.25"></line></g></g></g><g><g><line x1="0" y1="162.25" x2="276.8125" y2="162.25" fill="rgb(0, 0, 0)" stroke="rgb(153, 153, 153)" stroke-width="1.5px"></line></g></g><g><g><line x1="0" y1="0" x2="0" y2="177" fill="rgb(0, 0, 0)" stroke="rgb(153, 153, 153)" stroke-width="1.5px"></line></g></g><g><g><g><g><g><path stroke="rgb(255, 112, 67)" stroke-width="2px" d="M7.475667578125,132.75L7.679816796875,132.75L10.198810546875,132.75L10.513684765625,132.75L10.517144921875,132.75L10.918523046875,132.75L11.030978124999999,132.75L11.056929296875,132.75L11.242047656250001,131.54607465356443L12.579398046875,131.16476151939676L13.13821328125,131.395782061476L13.392534765625,130.762285603741L13.427136328125,130.0399486921574L13.447897265625,130.39134114510483L13.79564296875,129.94538937515222L14.415010937500002,130.01110430816385L14.4426921875,129.52278693587368L14.524005859375,129.1015070210935L14.657221875,128.24431197956062L14.669332421875,128.12756166948287L15.16586484375,127.81848684800218L15.376934375000001,127.71105882324946L15.586273828125,127.67543186954933L15.624335546875,127.62580513445435L15.863086328125,128.1778562602393L15.87173671875,127.93885949123126L16.05166484375,127.86240259361996L16.883832421875,128.15580320032484L17.010128124999998,128.01876821547893L17.676208203125,127.28059964349578L18.7332859375,127.59364972873053L19.127743749999997,127.47299908690911L19.169265625,126.2969647490375L19.596594921875,126.2382542830494L19.849186328125,125.59060853297682L20.0758265625,124.9649525101523L20.582739453125,124.25404317453945L20.79207890625,123.53793976499384L20.821490234375002,122.82493612545832L21.60175546875,121.50346552717005L21.783413671875003,120.93484048707546L21.847426562499997,120.79223547435504L21.9166296875,120.11235270088575L22.802429687500002,118.06588683526405L23.644977734375,114.51096316101106L23.807605078125,112.68216797268818L23.847396875,112.36887924096463L24.312787890625,111.45115210779905L24.97886796875,109.60641063829753L24.982328125,108.47326268352063L25.080942578125,108.37189495346716L25.485780859375,107.26508487467544L25.503081640625,106.76654211156294L25.530762890625,105.45885339331753L25.714151171875,105.23729379212632L25.785084375,105.34402915499558L25.840446875,104.71163900535431L26.1380203125,105.21189744378985L26.21760390625,105.01531518792358L26.253935546875002,105.27628977135574L26.811020703125003,104.7323966436436L27.689900390625002,104.78768584203924L27.772944140625,104.53842952738151L28.035916015625002,105.0204997476643L28.69507578125,103.99950893830301L29.682950390625,103.31355815474514L29.802325781249998,102.7799578927057L29.963223046875,102.47272477962916L30.1725625,102.26482396269755L30.350760546874998,101.14194838979034L30.577400781250002,100.94574613826582L30.599891796875,100.03377287024756L30.720997265625,98.72721240121191L31.56700546875,98.44187385889629L32.080838671875,97.64405776935108L32.45280546875,95.92020706832031L32.672525390625005,94.93998960053153L32.724427734375,93.55811791982994L32.852453515625,92.59113389301108L33.3905078125,92.28028583089021L33.835137890625,91.53336038205329L33.859358984375,90.61131267374093L34.60329257812501,90.49234995942383L35.722653125,89.86479890821256L36.30049921875,88.63380571225608L36.319530078125,87.81145876168566L36.568661328125,87.64239221987022L36.601532812500004,88.82261849195784L37.046162890625006,87.88624528748451L37.082494531250006,88.03981995764718L37.134396875,88.73119786248421L37.523664453124994,88.37499189853301L37.8195078125,87.46556720533746L37.945803515624995,87.7216096584618L37.949263671874995,87.4663730130765L38.8021921875,86.88137864877159L38.814302734375,87.59639183567833L38.92502773437499,87.50237456911034L39.2174109375,88.03037879640989L40.0616890625,87.24763262593562L40.227776562500004,86.58618693153373L40.734689453125,86.97424306641524L41.177589453125,87.26956627754835L41.3627078125,86.19415340864464L41.8471296875,86.5773304542881L42.006296875,87.04616652686317L42.315980859375,87.00717437881147L42.800402734375,85.77363033682055L42.952649609375,87.06034304396572L43.187940234375006,87.15672903245225L43.274444140625,86.20938189438952L43.399009765625,86.43844542332185L43.62218984375,84.67792209361461L44.01664765625,84.3717946438792L44.7536609375,84.07090383388514L44.78480234375,82.57786860195515L44.976841015625,82.24820528145239L46.149833984375,82.41244790809709L46.64290625,82.30749304059637L47.23459296875,80.529862996132L47.253623828125,80.83521068284571L47.480264062500005,80.69765715551686L47.703444140624995,80.6482038235461L47.95430546875,79.76805917728228L48.859136328125004,80.21302800663884L48.952560546875,80.64839229157074L48.987162109375,79.86339065037883L49.35220859375,79.80517650441837L50.0961421875,79.19965809642693L50.698209375000005,79.20781729597125L50.919659375,77.13945287056745L51.066716015625005,76.33956935398939L51.087476953125,76.72592523572332L51.834870703125006,77.18962335459943L51.859091796875,76.15732695257104L52.834855859375004,75.36346878228046L53.134159375,75.1099342675121L53.2518046875,74.51300305143282L53.350419140625,74.06795255214816L53.634151953125,73.85178221206465L54.88845859375,73.55612028767968L55.42132265625,73.75988332370972L55.7569578125,73.66670746467122L55.92650546875,74.04378681533427L56.125464453125,73.55347052013232L56.488780859375,72.65124827987562L56.5873953125,73.14176904561157L57.037215625,73.29477966690949L57.4109125,74.38707576496012L57.435133593749995,73.12493051568718L57.563159375,74.0171250740389L57.589110546875,73.16072497167556L57.6254421875,73.21965248038862L58.025090234375,73.7484939810307L58.4558796875,72.91895701587363L58.4697203125,73.39539501050324L59.352060156250005,72.69335546348705L59.571780078124995,72.61464491250017L59.8537828125,73.2813054566062L59.86416328125,72.22192486038017L60.364155859375,72.66021599187937L60.5734953125,71.93950686482722L61.025045703124995,71.84399367502103L61.090788671874996,72.03459431348786L61.208433984375,71.7144679720048L61.509467578125,71.91802117996772L61.60116171875,73.14799298865228L61.609812109375,72.92271008644914L61.64960390625,72.26793906569621L61.824341796875004,71.75001605018417L61.9506375,72.22657695230392L62.031951171875,72.1945442566417L62.03368125,72.35008983286471L62.400457812499994,72.77556445293324L62.49388203125,72.50425800497368L62.945432421875005,72.07570720068593L63.182453125,72.98063648782076L63.353730859375005,74.82757257093655L63.87102421875,74.6276278125537L64.028461328125,74.26330252918414L64.52153359375001,74.5807222779235L64.89523046875,74.31327504887403L64.95924335937501,73.87630204052445L65.29660859375,73.95883303635594L66.365796875,72.923887229174L67.01111601562499,74.57368601134446L67.01457617187499,75.50537991279599L67.12703125,74.6845294194659L67.315609765625,75.97388898041805L67.447095703125,74.64525007968793L67.4522859375,73.50895117104835L67.4868875,72.33461855201888L67.7152578125,72.93709419770566L68.11663593749999,72.64963477755349L68.2412015625,71.56123379849774L68.630469140625,71.59573541868507L68.900361328125,72.45647437764957L69.135651953125,73.34711724055279L69.60104296875,71.54365551508378L69.6667859375,71.30335246340587L69.84325390625,72.10114221757185L69.85190429687499,71.43634049543475L69.886505859375,71.48333144591544L70.08373476562501,70.6959358009594L70.267123046875,70.8169672209139L70.33459609375001,70.64933299875965L70.453971484375,69.81746389709693L70.55085585937499,69.1044675071707L70.748084765625,69.01589575642942L70.959154296875,69.01349947960256L71.1615734375,69.1065040300493L71.28786914062499,69.66304112715527L71.841494140625,69.14986201434772L72.056023828125,68.96456331288303L72.602728515625,69.81185698171781L72.727294140625,69.53954218318772L72.84666953125,70.42152546497273L73.004106640625,70.18340501769721L73.294759765625,70.06425781473283L73.58714296875,70.34064453328324L73.92623828125,70.68158007998123L74.03350312500001,69.97435957193397L74.08540546875,70.62848611478147L74.3310765625,70.75626250331051L74.7878171875,70.2259487529526L75.5490515625,69.01116637760197L75.66323671875,67.96246914001388L75.67015703125,68.1605767244062L76.055964453125,67.61326905194741L76.343157421875,67.76600464675724L76.3448875,68.45659168210011L76.61823984375,68.98593251390291L76.661491796875,69.73890176252905L76.962525390625,70.09391783628313L77.132073046875,70.36733855265962L77.20473632812501,69.50716719738001L77.661476953125,69.45564377645795L77.8881171875,69.6085168988141L78.36215859375,70.48360270894284L78.48153398437499,69.24305493803561L78.5247859375,69.32499944423282L78.55592734375001,68.56906199980315L78.68049296874999,68.3258654999286L78.709904296875,67.76202894993186L79.3690640625,68.17645105494124L79.76871210937499,67.25880594944202L79.90192812500001,66.80167535449554L80.08185625,67.30618541990884L80.13202851562501,67.39744187791833L80.353478515625,67.94051019012846L80.62510078125,67.87614667111541L80.68046328125,66.98853200400124L80.727175390625,67.94124130360365L80.73063554687499,67.69242967324269L81.273880078125,67.19193670591734L81.481489453125,68.12430553532741L81.574913671875,68.02074588147178L81.761762109375,67.67179629332405L81.830965234375,68.27961666399251L81.934769921875,68.25568709684019L82.031654296875,68.6207433871566L82.84133085937499,67.19773154843946L82.94167539062501,67.20764589359553L83.045480078125,66.47906880423537L83.13198398437501,66.28428692381169L83.500490625,66.47773323143065L83.62678632812501,66.46745990828757L84.09909765625,65.99727641745856L84.25826484375,65.85067377571265L84.34476875000001,65.44216889814119L84.581789453125,66.91826450832767L84.60428046875,68.06237555749532L85.17693632812501,67.80145050174569L85.368975,68.21193045157125L85.57312421875,68.30479990641415L87.126734375,68.6589975166334L87.38624609375,68.24622276496997L87.692469921875,67.22941298847277L87.695930078125,65.76115918962525L87.91738007812499,65.17723077066266L88.11114882812501,64.74388269359633L88.235714453125,66.10543192423685L88.35855,66.29892083106017L88.51425703125,66.39871624795417L88.66996406250001,65.7510321231587L89.06096171875001,65.82551923619836L89.239159765625,65.05077981257845L89.45022929687501,64.87392793271907L89.4588796875,64.19434763944714L89.969252734375,64.22803787550242L90.363710546875,63.24429658795212L91.01941015625,61.89799192915686L91.252970703125,61.37028973731688L91.3135234375,62.23951076358523L91.32736406250001,61.823372187226695L91.360235546875,62.73055136979495L91.695870703125,63.00280873281547L91.89136953124999,62.07914055856571L92.017665234375,62.41653900270916L92.28928749999999,62.904572602438236L92.315238671875,61.684427842194395L92.3238890625,61.50817255797496L92.519387890625,60.05891780217745L92.976128515625,60.85705812120669L93.149136328125,60.48697730908603L93.42940898437499,60.06171707817742L94.13009062500001,60.2321078703597L94.20967421875001,61.30733458332372L95.156026953125,60.339101124991345L95.20446914062501,59.681803711524026L95.609307421875,59.89018584037163L95.624878125,59.98554225633447L95.65947968750001,59.97917553070103L95.88785,59.78907047763093L95.984734375,59.61797592986784L96.259816796875,59.46399083688105L96.43801484375001,59.509779253192946L96.948387890625,59.64317632787366L97.13350625,59.486671195086274L97.34284570312501,59.43800407557764L97.346305859375,58.841078668019904L97.36014648437501,57.935095801217884L97.51931367187501,58.8712737210961L97.83418789062499,58.93172694877134L97.851488671875,59.67605425389421L98.0400671875,60.622511328504785L98.39473320312499,61.10557269565429L98.412033984375,60.80282792608887L98.96219882812501,61.544420133479974L99.39990859375,61.566540620132L99.61443828124999,61.955199058118794L99.716512890625,61.844054152306896L99.88433046875,62.444648596409266L100.2130453125,62.100183736768315L100.273598046875,62.34329036309151L100.429305078125,62.53234862775052L100.543490234375,61.81036376497548L100.70438750000001,62.08245238847793L101.0296421875,62.78826964963014L101.92582265625,61.48756768466711L101.96042421874999,63.094456417814015L102.03654765625001,61.578760776032624L102.323740625,60.76775969842936L102.3652625,60.03785872858643L102.66110585937501,58.92001035572778L102.771830859375,58.92800932015501L102.861794921875,58.65864588813953L103.3687078125,59.24590629932557L103.79949726562499,58.76037816939301L103.83236875,59.2452778524537L104.38772382812499,60.23481256720834L104.510559375,60.572268810487486L105.10224609375,60.50722942943872L105.173179296875,61.18619398649486L105.2095109375,60.87538708784537L105.55206640625,61.70191087906085L105.6800921875,60.60203229115476L106.526100390625,59.82328056150142L106.5728125,59.83314000535127L106.820213671875,59.473263504816146L106.89460703125,59.14937465433452L107.04339374999999,59.50318718890108L107.75099570312501,59.545055970010964L107.75272578125,58.47648787300987L108.290780078125,58.80540158570889L108.44129687499999,59.00923642713802L108.456867578125,59.10050028442423L108.85997578125,58.90607525598182L109.55200703125,58.915467730383625L109.631590625,59.016108457345254L110.08833125,59.01449761161072L110.716349609375,58.58482174905117L110.872056640625,58.902902074146084L111.30976640624999,59.096986866731456L111.456823046875,59.4560381800583L111.48277421875001,60.14793436205248L111.513915625,59.480015925847226L111.984496875,59.155451833262504L112.89970820312499,59.32428164993625L113.086556640625,58.863627383544156L113.48966484375,59.06163964518976L113.56578828125,58.59453818067077L113.59173945312499,58.35852186260371L113.99484765625,58.607044676343335L114.04155976562501,58.73852770870897L114.11249296874999,58.58029993783809L115.4238921875,57.792582444054275L115.653992578125,58.18988669964888L115.809699609375,58.54746052968399L115.87371250000001,56.84115197671562L116.02941953125,56.87266177904405L116.294121484375,56.99320810113964L116.46020898437499,57.286074791025655L117.055355859375,56.443404811923116L117.07438671875,56.699064330730806L117.266425390625,57.26222209615166L117.314867578125,57.43599988653649L117.382340625,57.2593356993889L117.55880859375,57.617777129449976L117.6937546875,57.387249416505L118.252569921875,56.35008697485449L118.35464453125,56.15414077736904L118.384055859375,55.60903919963212L118.52765234375,55.67157277966891L118.572634375,55.08254050170203L119.57261953125001,54.460223951531816L119.984378125,54.268889056378654L120.408247265625,53.54356265074078L120.473990234375,53.72045638566671L120.49302109375,54.156223247100044L120.508591796875,54.732788422390016L120.98436328125001,54.514197080151064L121.48954609375,53.94871487213592L121.5414484375,53.163218384922345L121.7975,51.81095904643014L122.31998359375,51.423613141787115L122.669459375,50.521876827608395L122.920320703125,50.65597944473997L122.927241015625,51.30600650026598L123.22654453125,52.25978085023938L123.238655078125,53.486927765215455L123.29401757812501,52.93198498869391L123.560449609375,54.82941148982452L124.252480859375,56.426470622176L124.607146875,56.038511059958395L124.858008203125,56.426847453962566L125.22305468750001,55.67010020856634L125.65557421875,56.279652687709714L125.7836,56.55168741893871L125.871833984375,56.88870617704485L125.9842890625,56.82327305934038L126.38220703124999,55.65813325340632L126.494662109375,55.7157574280657L126.85797851562499,55.491056685259124L127.46350585937499,54.92007601673322L127.6728453125,54.31400591505988L128.05000234375,53.4919803235539L128.152076953125,52.93653229119852L128.288753125,53.11465296068023L128.401208203125,53.24225016461219L128.73511328125,53.35708764815095L128.814696875,54.29012888333588L128.99808515625,54.853303495002294L129.27489765625,55.08359814550205L129.57593125,55.56742583095186L129.59496210937502,56.434070548824835L129.60880273437502,56.32191349394236L129.747208984375,55.66784714454809L129.9427078125,56.277624930093324L130.22817070312502,54.89048743708399L130.8215875,54.6561261933756L130.989405078125,54.260826074038036L131.35099140625,53.16755596663424L131.882125390625,53.750800369970804L132.17796875,54.36790783297373L132.539555078125,54.554554549676354L132.939203125,54.63034909470875L133.48244765625,53.22356418523785L133.511858984375,53.98558276671406L133.923617578125,54.30264949004267L134.1087359375,53.75832204103837L134.11219609375001,53.54498983693455L134.41668984375,54.643615853241116L134.504923828125,54.710504267917L134.729833984375,54.86289134112528L134.805957421875,55.000039707012775L134.978965234375,54.29378573631149L136.45126171875,53.65815716268037L136.59658828125,53.36265394641232L136.657141015625,53.37326355177109L136.719423828125,54.48906219659399L137.2643984375,53.741718476934565L137.574082421875,53.62223412924112L137.805912890625,54.620948216317004L137.861275390625,54.5979158946853L137.954699609375,55.13031180521678L138.3439671875,55.60946812469511L138.67268203125,55.395396312225614L138.677872265625,55.94023168100303L138.843959765625,55.41652101290272L139.0913609375,54.29986891161249L139.11904218749999,54.58550702045123L139.25398828125,55.02695631840611L139.913148046875,55.14769818656549L140.439091796875,55.256365867908954L140.510025,54.708854281118036L141.27644960937502,54.953593853006254L141.32662187499997,54.89729696770563L142.186470703125,53.35676127308656L142.715874609375,54.4742101457779L143.17088515625,54.28147663120011L143.227977734375,54.108016468080095L143.598214453125,53.12221482127208L143.667417578125,53.24905583914487L143.734890625,53.17883775523039L143.86983671874998,53.66876647970736L144.33522773437502,53.464389831736625L144.50304531249998,52.266388348562955L144.73314570312502,51.17926591499754L144.785048046875,51.6847768234978L144.98227695312502,51.12567414114801L145.08608164062503,51.63654422703323L145.16739531250002,50.43695230432991L145.21756757812503,51.385444573896905L145.958041015625,51.59377511650719L146.45111328125,52.6109601048565L146.5445375,51.40611409437085L146.81269960937502,50.69050268493375L147.432067578125,50.41520241644041L147.69330937499998,51.36586967479636L148.532397265625,51.57615770731671L148.951076171875,51.58104193658505L149.034119921875,50.94012524292653L149.27633085937498,50.45548771863386L149.400896484375,50.20368894677053L149.906079296875,49.97707005209347L149.933760546875,49.77311304688412L150.47008476562502,51.219189043163894L150.4821953125,51.07539513884748L151.27803125,52.697543124962735L151.63442734375,51.85278881246647L151.75207265625,51.73782243121981L152.252065234375,52.371852688097846L153.0427109375,51.28310491928808L153.23993984375,52.14698192735925L153.44408906249998,52.74009623462334L153.60325625,50.96921161116103L153.810865625,50.6660404500449L154.345459765625,49.840061405040416L154.4821359375,49.1888677645364L154.7312671875,48.31433618980395L155.12226484375,48.36884007082358L155.665509375,49.524143563741205L155.7831546875,49.734229207367065L155.79353515625002,49.09361878663037L155.93194140625,49.070194407967364L156.089378515625,49.694424967170605L156.232975,50.071857470453565L156.60321171875,49.8584217234082L157.02016054687502,50.12726705106742L157.10839453124998,50.18485284596066L157.43883945312498,50.3288675613646L157.50285234375,50.64285580522812L157.982083984375,50.28013272470531L158.461315625,50.59899445223478L158.75542890625,50.5172200070113L158.76926953125,49.42956050631018L158.85923359375,49.83347945567914L159.44053984375,49.45950651011124L159.736383203125,50.229180859100126L159.809046484375,49.631262773190116L160.19485390625,50.01501149587109L160.227725390625,49.89944784628398L160.61007265625,49.05794056165561L160.649864453125,50.14433400549005L161.12909609375,49.73927560494107L161.597947265625,49.92784804444693L161.866109375,48.991313240002256L161.898980859375,48.14843191600201L161.975104296875,47.38983872440181L162.113510546875,46.98366735196163L162.25710703125,46.98686311676548L162.54430000000002,46.52880180508893L163.0494828125,46.76185912458004L163.1602078125,47.89348571212204L163.61348828125,47.89788714090983L163.859159375,47.256535926818884L163.9283625,48.33869483413696L163.95604375000002,47.19232535072328L164.902396484375,46.25278031565094L165.30204453125,44.393127284085836L165.3193453125,44.010064555677246L165.41276953125,44.49499560010952L165.507923828125,45.20799604009858L165.570206640625,43.3606339360887L166.044248046875,43.818320542479825L166.217255859375,45.613050988231834L166.35047187499998,45.56893338940864L166.43351562499998,45.71360255046778L166.46292695312502,45.84380479542099L166.710328125,45.500049315878925L166.93696835937502,46.11254438429103L167.05461367187502,46.387227445861924L167.07883476562498,46.911004701275715L168.10477109375,46.82927923114815L168.25182773437498,45.649476308033314L169.064964453125,45.601716177229974L169.64973085937498,46.75716955950699L169.708553515625,47.15176510355627L170.11166171874999,47.32252609320068L170.1774046875,47.015273483880605L170.348682421875,46.27780863549256L170.487088671875,46.62815277194329L171.15316875,45.46846249474896L171.51648515625,45.25442874527408L171.71717421875,45.70711087074665L172.410935546875,44.54733728367199L172.424776171875,44.241041055304805L172.680827734375,43.78099944977433L172.9455296875,44.7497745047969L173.39708007812501,45.1607345543172L173.44725234375,43.68684859888549L174.04239921874998,43.097851238996924L174.43858710937502,42.19900361509727L174.8278546875,41.48222825358752L174.912628515625,42.40431792822878L175.185980859375,41.29826113540591L175.327847265625,41.68562252186533L175.61504023437502,41.20456026967881L176.075241015625,41.69347924271091L176.2188375,42.31788131843982L176.30880156249998,42.41890568659585L176.358973828125,42.69420261793627L176.371084375,41.65134485614263L177.11501796874998,41.91121037052838L177.352038671875,41.96071433347552L177.3883703125,41.35995540012797L177.933344921875,41.648959860115184L177.93853515625,41.90906387410365L178.00946835937498,42.14315748669327L178.03541953125,41.985091738023954L178.410846484375,41.75064506422157L179.403911328125,42.000580557799395L180.3917859375,42.31771000201948L180.79316406249998,43.06406400181751L180.98347265625,42.16859510163576L181.08554726562502,40.717360591472186L181.653012890625,40.51749953232499L181.94539609375002,41.07512457909246L182.002488671875,40.93167462118319L182.272380859375,41.81663215906491L182.3294734375,41.138093943158424L182.74642226562503,41.080534548842564L183.0353453125,40.1068560939583L183.20489296875,40.24460798456249L183.53360781249998,40.09202218610622L183.583780078125,39.2171949674956L183.68931484375,40.365787970746055L183.73429687499998,41.30733417367145L183.9695875,41.14066325630432L184.21006835937501,40.806284430673884L184.441898828125,41.05846848760649L184.853657421875,40.455746638845824L185.18929257812502,41.11173447496125L185.31731835937498,40.503686027465136L185.395171875,39.49550492471863L185.9418765625,38.77251693224676L186.31730351562499,39.2280777390221L186.549133984375,39.7302699651199L186.590655859375,39.8134929686079L187.144280859375,39.88839367174714L187.19272304687502,39.31049180457242L187.30863828124998,39.71225512411519L187.69617578125,40.166029611703664L188.69962109375,40.5744266505333L189.37435156249998,41.49510898547996L189.51621796875,42.41591058693197L189.652894140625,42.78369452823878L189.8380125,42.469387575414885L189.9002953125,42.0943238178734L190.06638281250002,41.38801643608605L190.43315937499997,41.39765229247746L190.65114921875,40.300074563229714L191.01619570312502,39.31225460690675L191.424494140625,38.14665414621609L191.50061757812497,37.92730123159447L191.524838671875,36.992383608435006L191.5888515625,37.3493952475915L192.14593671875,36.84101822283236L192.313754296875,38.04285390054912L192.44351015625,38.294818510494224L192.7653046875,40.088774159444796L193.1044,39.583021743500325L193.18917382812498,39.865344569150295L193.417544140625,40.303810112235254L193.6026625,41.43592910101174L194.414069140625,41.16421119091055L194.4331,41.84154007181948L194.48500234375,41.06832356463755L195.03689726562502,41.57086620817378L195.35523164062502,41.74659208735642L195.56803125000002,42.08912037862078L195.60090273437498,42.489583340758685L195.98671015625,41.74375000668283L196.02131171874998,41.16468750601456L196.135496875,42.210718755413126L196.2254609375,41.86152187987179L196.439990625,42.19255719188462L196.54725546875,40.738926472696136L197.033407421875,39.70722132542656L197.48668789062498,40.71462419288389L197.818862890625,40.79159927359552L198.064533984375,39.84681434623596L198.29117421875,38.996507911612355L198.306744921875,38.5999821204511L198.348266796875,38.243108908405986L198.57144687500002,38.659423017565416L198.881130859375,39.03410571580886L199.078359765625,39.64788264422799L199.2703984375,39.278406879805175L199.28250898437503,39.68337869182466L199.59565312499998,38.849415822642186L199.694267578125,39.20509924037796L199.846514453125,39.893964316340174L200.16311875,38.94675538470614L200.2254015625,39.38489234623552L200.510864453125,39.59484061161197L200.822278515625,39.415044050450774L200.860340234375,40.08291464540571L200.90705234375,39.854310680865126L201.486628515625,39.18762961277861L201.50911953124998,38.49542915150076L201.777281640625,39.5318237363507L201.998731640625,40.09582886271562L202.27381406249998,40.05030847644406L202.299765234375,39.45621512879964L202.355127734375,39.2902811159197L202.48142343749998,38.95656550432773L202.524675390625,38.19528395389497L202.638860546875,38.52419305850543L203.09387109375,38.3592737526549L203.37760390625,39.04053387738941L203.39836484375002,37.53335548965046L203.87413632812502,37.37533244068544L203.88970703125,37.14092419661691L204.074825390625,37.4830817769552L204.34125742187499,37.698836099259694L204.578278125,37.06332748933369L204.6820828125,36.67574474040032L205.03847890625,37.61754526636028L205.496949609375,36.71360323972428L205.915628515625,36.545367915751854L206.071335546875,36.55454012094944L206.320466796875,36.125648608854505L206.3983203125,36.10839624796904L206.67167265625,36.18505662317213L206.977896484375,36.62280096085493L207.02460859375,36.92458336476943L207.10419218750002,36.82743752829248L207.2979609375,37.84625627546325L207.42079648437502,38.02569314791694L207.7408609375,38.09499883312523L207.77027226562498,37.78862394981272L208.085146484375,37.051949054831425L208.427701953125,36.665504149348294L208.69240390625,37.42395373441346L209.348103515625,37.09249586097209L209.41903671875,37.9004337748749L209.63010624999998,37.98226539738738L209.721800390625,39.25435135764866L209.97958203125,39.38516622188379L210.067816015625,40.6091495996954L210.12836875,39.959172139725865L210.265044921875,39.37419242575328L210.3567390625,38.84771068317795L210.46400390624999,38.46606461486016L210.52628671875,39.59758315337413L210.557428125,40.800324838036744L210.669883203125,40.03904235423306L211.00378828125,39.99920061880974L211.12489375,40.23990555692879L211.18025625,40.91747750123591L211.60066523437501,39.591354751112306L211.720040625,40.14940677600106L211.984742578125,40.83602859840096L212.1006578125,40.900863238560845L212.313457421875,41.51233941470477L212.853241796875,41.878292973234295L213.214828125,41.83890117591088L213.76499296875,41.6190735583198L214.282286328125,41.23685370248782L214.406851953125,40.616293332239024L214.749407421875,40.057788999015116L215.04525078125,39.370760099113596L215.098883203125,38.56805908920225L215.783994140625,39.59719068028201L215.78745429687498,40.154659112253796L216.00371406250002,40.01106820102842L216.254575390625,40.434961380925586L216.49851640625,40.53990274283302L216.54003828125,39.528099968549725L216.64384296875,39.354977471694724L217.58500546874998,38.00072972452526L217.66458906250003,38.44128175207274L217.752823046875,38.92996607686547L217.908530078125,38.447906969178916L218.012334765625,37.737491272261025L218.1836125,38.75749214503492L218.74588789062503,37.37080543053142L219.0901734375,36.952474887478274L219.221659375,37.682227398730475L219.28740234375002,36.126504658857414L219.313353515625,35.74041669297168L219.3531453125,35.57731252367452L220.226834765625,35.522706271307044L220.84966289062498,36.11887314417635L221.4153984375,36.19448582975872L222.129920703125,36.07816224678285L222.15760195312498,35.88128352210455L222.49150703125002,36.165030169894095L222.956898046875,35.49852715290467L223.19737890625,36.558049437614216L223.55031484375002,36.2209944938528L223.946502734375,34.99577004446752L224.065878125,35.73681804002078L224.195633984375,35.48188623601871L224.27694765625,35.52901011241681L224.564140625,35.75579660117515L225.17658828125,36.743498191057654L225.3461359375,37.033210871951866L225.541634765625,36.00332728475669L225.728483203125,36.45924455628102L226.012216015625,36.31644510065291L226.69559687499998,35.54261309058762L227.36513710937498,34.477414281528866L227.368597265625,33.42654785337601L227.3807078125,33.67920556803841L228.12983164062499,33.81441001123454L228.19730468749998,33.75171901011112L228.493148046875,33.4187346091L229.2907140625,34.50186114818999L229.406629296875,35.01573753337101L229.908351953125,35.47822628003388L229.93084296875,35.249153652030515L229.93949335937498,36.61017578682748L230.04329804687498,35.991345708144706L230.13845234374998,34.97346113733025L230.35471210937501,36.08549002359723L230.68515703125001,36.16444102123751L231.013871875,36.97299691911377L231.06404414062501,37.33194722720239L231.174769140625,37.37844000448217L231.295874609375,37.23590850403397L231.8789109375,36.92325515363058L232.1418828125,37.7481171382675L232.57786249999998,38.21393042444075L232.804502734375,37.7112873819967L232.922148046875,37.62765864379702L233.022492578125,37.92114277941732L233.12975742187498,36.9868410014756L233.33217656250002,37.528781901328045L233.676462109375,37.92434121119521L233.942894140625,37.1740945900757L234.18337499999998,36.77543513106815L234.38579414062502,37.06195411796131L234.430776171875,36.85888370616516L234.57091250000002,36.307370335548654L235.3805890625,35.9953833019938L235.50861484375,36.267719971794406L235.68508281249999,35.959697974614954L235.700653515625,36.05122817715346L235.87193125,36.13360535943812L235.9203734375,37.867119823494306L236.08646093750002,37.491345341144864L236.1418234375,37.52189830703037L236.423826171875,36.35095847632732L236.60202421875002,35.758050128694606L236.83385468749998,36.238495115825145L237.02243320312502,35.56464560424263L237.24561328124997,35.32693104381835L238.050099609375,34.37548793943654L238.06394023437502,34.62543914549289L238.337292578125,34.389457730943604L238.65043671875,35.00676195784925L238.89956796875,36.20764826206431L239.21098203124998,36.274383435857885L239.274994921875,36.33444509227209L239.401290625,36.665063083044885L239.524126171875,36.962619274740405L240.12100312500002,37.04604484726639L240.17982578125,36.93675286253975L240.72826054687502,36.46964007628577L240.835525390625,36.97111356865719L240.99123242187503,37.23806471179145L241.034484375,37.66269574061229L241.13482890625,37.95267616655104L241.68845390624998,37.476158549895956L242.13135390625,37.69260519490635L242.198826953125,37.51865717541574L242.3977859375,36.53241645787415L242.4254671875,35.46042481208673L242.61231562499998,35.417507330878095L242.72996093749998,36.11638159779028L243.202272265625,36.653180938011246L243.53790742187502,35.84567534421012L243.873542578125,36.040795309789104L243.88219296875002,36.124215778810196L243.949666015625,36.0149192009292L243.95658632812498,35.17905228083629L244.748962109375,35.25645955275266L244.90812929687502,35.602688597477396L244.9721421875,36.00648223772964L245.2351140625,35.44802151395669L245.309507421875,35.59071936256103L245.5672890625,35.35039742630494L245.62438164062502,35.410670183674426L245.70915546875,34.911790665306995L245.735106640625,35.38467409877629L246.06382148437498,35.34933168889867L246.420217578125,36.1472110200088L246.555163671875,37.3262399180079L246.57938476562498,37.09674092620713L247.05169609375,36.890191833586414L247.402901953125,36.980860150227784L247.49459609375,36.69371163520498L247.594940625,36.896215471684485L248.198737890625,36.61753142451602L248.679699609375,35.90577828206443L249.55165898437502,36.46363795385798L249.987638671875,37.15008665847219L250.30424296875,37.39914049262495L250.418428125,36.97797644336248L251.029145703125,36.783303799026214L251.18485273437503,37.806535919123604L251.30249804687497,37.989944827211275L251.55162929687498,37.786262844490125L252.03086093750002,37.32638656004113L252.4183984375,35.71406040403701L252.84399765625,35.645779363633324L252.92531132812502,36.506201427269986L254.127715625,38.479018784543L254.515253125,38.134241906088704L255.420083984375,38.838005215479825L255.634613671875,38.64170469393187L255.66056484375,38.46503422453867L255.76436953125,38.6747808020848L255.84741328125,38.586990221876334L256.364706640625,39.15329119968871L256.475431640625,39.20202457971985L256.869889453125,38.78494712174788L256.87161953125,38.68613990957306L256.984074609375,38.50502591861576L257.1242109375,38.895148326754196L257.18476367187503,38.140008494078785L257.305869140625,37.921320144670915L257.421784375,37.263563130203835L257.98578984375,36.76376931718343L258.420039453125,36.59051738546509L258.911381640625,36.618965646918554L259.3387109375,36.5523815822267L260.2521921875,35.41891802594037L260.333505859375,35.28796372334634L260.51689414062497,34.98572985101171L260.5428453125,33.79184436591052L261.04802812500003,34.19234742931948L261.43210546875,33.446550186387555L261.64663515625,34.25033266774878L261.96842968749996,35.61904940097389L261.97881015625,35.65245696087652L262.12413671875,33.56221126478886L262.17084882812503,33.70911513830998L262.30060468749997,33.47257862447901L263.3386515625,33.44407076203112L263.4355359375,33.32622618582798L263.60854375,33.220166067245174L263.651795703125,33.40127446052065L263.734839453125,34.30177201446861L263.990891015625,34.65128231302174L264.454551953125,35.42677908171959L264.96146484375,35.29503867354762L265.143123046875,35.913972306192875L265.295369921875,35.641325075573576L265.534120703125,36.59438006801622L265.70539843750004,36.1615045612146L266.40435,35.86410410509313L266.5081546875,36.4261311945838L266.644830859375,35.825705575125426L267.10676171875,35.561885017612866L267.108491796875,35.23225901585158L267.11368203125,34.47465811426642L267.118872265625,34.99125480283982L267.122332421875,35.73275432255585L267.1240625,35.66260389030026L267.13444296875,36.33696850127026L267.13963320312496,36.39077165114324L267.14136328125,39.48138198602888L267.1448234375,40.326993787426005L267.150013671875,41.5489819086834L267.153473828125,42.18783371781507L267.15693398437503,43.13155034603355L267.16212421875,44.718395311430214L267.163854296875,46.6074932802872L267.165584375,48.49205645225845L267.177694921875,48.52878830703264L267.1863453125,47.45559697632936L267.18980546874997,48.978787278696444L267.191535546875,48.966846050826774L267.19326562500004,49.6935989457441L267.2001859375,49.1492390511697L267.201916015625,50.134315146052714L267.21056640625,50.37557113144747L267.212296484375,50.131764018302704L267.219216796875,49.82015011647245L267.22440703125,50.92251010482521L267.226137109375,52.191196594342685L267.229597265625,52.22676443490843L267.2417078125,52.57102379292361L267.243437890625,52.93735891363123L267.25208828125,51.51549802226813L267.260738671875,51.52644822004132" style="fill: none;" fill="none"></path></g></g></g></g><g opacity="0.2"><g><g><g><path stroke="rgb(255, 112, 67)" stroke-width="2px" d="M7.475667578125,132.75L7.679816796875,132.75L10.198810546875,132.75L10.513684765625,132.75L10.517144921875,132.75L10.918523046875,132.75L11.030978124999999,132.75L11.056929296875,132.75L11.242047656250001,125.375L12.579398046875,129.0625L13.13821328125,132.75L13.392534765625,126.84999859333038L13.427136328125,125.375L13.447897265625,132.75L13.79564296875,126.84999859333038L14.415010937500002,130.4807676076889L14.4426921875,125.94230633974075L14.524005859375,125.94230633974075L14.657221875,121.6875L14.669332421875,127.21875L15.16586484375,125.375L15.376934375000001,126.84999859333038L15.586273828125,127.38636523485184L15.624335546875,127.21875L15.863086328125,132.75L15.87173671875,125.94230633974075L16.05166484375,127.21875L16.883832421875,130.64285814762115L17.010128124999998,126.84999859333038L17.676208203125,120.95000070333481L18.7332859375,130.291665494442L19.127743749999997,126.42857092618942L19.169265625,116.07608741521835L19.596594921875,125.72618913650513L19.849186328125,119.92391258478165L20.0758265625,119.47499859333038L20.582739453125,118L20.79207890625,117.223683655262L20.821490234375002,116.52500140666962L21.60175546875,109.805555164814L21.783413671875003,115.89285814762115L21.847426562499997,119.52586376667023L21.9166296875,114.0666669011116L22.802429687500002,99.8461549282074L23.644977734375,82.8269225358963L23.807605078125,96.3666661977768L23.847396875,109.57142907381058L24.312787890625,103.25L24.97886796875,93.109375L24.982328125,98.33333098888397L25.080942578125,107.46428722143173L25.485780859375,97.34999859333038L25.503081640625,102.29838800430298L25.530762890625,93.7338730096817L25.714151171875,103.25L25.785084375,106.30172401666641L25.840446875,99.03571629524231L26.1380203125,109.703125L26.21760390625,103.25L26.253935546875002,107.62037128210068L26.811020703125003,99.8461549282074L27.689900390625002,105.28448385000229L27.772944140625,102.29838800430298L28.035916015625002,109.35344803333282L28.69507578125,94.82142555713654L29.682950390625,97.14655196666718L29.802325781249998,97.98214185237885L29.963223046875,99.71000337600708L30.1725625,100.39516401290894L30.350760546874998,91.04310393333435L30.577400781250002,99.18103229999542L30.599891796875,91.83064198493958L30.720997265625,86.97413623332977L31.56700546875,95.875L32.080838671875,90.46666479110718L32.45280546875,80.41129100322723L32.672525390625005,86.12097001075745L32.724427734375,81.125L32.852453515625,83.890625L33.3905078125,89.48333239555359L33.835137890625,84.8125L33.859358984375,82.31451499462128L34.60329257812501,89.421875L35.722653125,84.21773898601532L36.30049921875,77.55645501613617L36.319530078125,80.41129100322723L36.568661328125,86.12097001075745L36.601532812500004,99.44354498386383L37.046162890625006,79.45967900753021L37.082494531250006,89.421875L37.134396875,94.953125L37.523664453124994,85.16935801506042L37.8195078125,79.28125L37.945803515624995,90.02586376667023L37.949263671874995,85.16935801506042L38.8021921875,81.6166661977768L38.814302734375,94.03125L38.92502773437499,86.65625L39.2174109375,92.78226101398468L40.0616890625,80.203125L40.227776562500004,80.6333338022232L40.734689453125,90.46666479110718L41.177589453125,89.92741799354553L41.3627078125,76.515625L41.8471296875,90.02586376667023L42.006296875,91.265625L42.315980859375,86.65625L42.800402734375,74.671875L42.952649609375,98.640625L43.187940234375006,88.02419400215149L43.274444140625,77.68333661556244L43.399009765625,88.5L43.62218984375,68.83333098888397L44.01664765625,81.6166661977768L44.7536609375,81.36290299892426L44.78480234375,69.140625L44.976841015625,79.28125L46.149833984375,83.890625L46.64290625,81.36290299892426L47.23459296875,64.53125L47.253623828125,83.58333098888397L47.480264062500005,79.45967900753021L47.703444140624995,80.203125L47.95430546875,71.84677600860596L48.859136328125004,84.21773898601532L48.952560546875,84.56666338443756L48.987162109375,72.79838800430298L49.35220859375,79.28125L50.0961421875,73.75L50.698209375000005,79.28125L50.919659375,58.52419400215149L51.066716015625005,69.140625L51.087476953125,80.203125L51.834870703125006,81.36290299892426L51.859091796875,66.8666661977768L52.834855859375004,68.21875L53.134159375,72.828125L53.2518046875,69.140625L53.350419140625,70.0625L53.634151953125,71.90625L54.88845859375,70.89516401290894L55.42132265625,75.59375L55.7569578125,72.828125L55.92650546875,77.4375L56.125464453125,69.140625L56.488780859375,64.53125L56.5873953125,77.55645501613617L57.037215625,74.671875L57.4109125,84.21773898601532L57.435133593749995,61.765625L57.563159375,82.046875L57.589110546875,65.453125L57.6254421875,73.75L58.025090234375,78.50806701183319L58.4558796875,65.453125L58.4697203125,77.68333661556244L59.352060156250005,66.375L59.571780078124995,71.90625L59.8537828125,79.28125L59.86416328125,62.6875L60.364155859375,76.60483598709106L60.5734953125,65.453125L61.025045703124995,70.984375L61.090788671874996,73.75L61.208433984375,68.83333098888397L61.509467578125,73.75L61.60116171875,84.21773898601532L61.609812109375,70.89516401290894L61.64960390625,66.375L61.824341796875004,67.08870899677277L61.9506375,76.515625L62.031951171875,71.90625L62.03368125,73.75L62.400457812499994,76.60483598709106L62.49388203125,70.0625L62.945432421875005,68.21875L63.182453125,81.125L63.353730859375005,91.44999718666077L63.87102421875,72.828125L64.028461328125,70.984375L64.52153359375001,77.4375L64.89523046875,71.90625L64.95924335937501,69.94354498386383L65.29660859375,74.70161199569702L66.365796875,63.609375L67.01111601562499,89.421875L67.01457617187499,83.890625L67.12703125,67.296875L67.315609765625,87.578125L67.447095703125,62.6875L67.4522859375,63.28226101398468L67.4868875,61.765625L67.7152578125,78.359375L68.11663593749999,70.0625L68.2412015625,61.765625L68.630469140625,71.90625L68.900361328125,80.203125L69.135651953125,81.36290299892426L69.60104296875,55.3125L69.6667859375,69.140625L69.84325390625,79.28125L69.85190429687499,65.453125L69.886505859375,71.90625L70.08373476562501,63.609375L70.267123046875,71.90625L70.33459609375001,69.140625L70.453971484375,62.330641984939575L70.55085585937499,62.6875L70.748084765625,68.21875L70.959154296875,68.99193298816681L71.1615734375,69.94354498386383L71.28786914062499,74.671875L71.841494140625,64.53125L72.056023828125,67.296875L72.602728515625,77.4375L72.727294140625,67.08870899677277L72.84666953125,78.359375L73.004106640625,68.04032099246979L73.294759765625,68.99193298816681L73.58714296875,72.828125L73.92623828125,73.75L74.03350312500001,63.609375L74.08540546875,76.515625L74.3310765625,71.90625L74.7878171875,65.453125L75.5490515625,58.078125L75.66323671875,58.52419400215149L75.67015703125,69.94354498386383L76.055964453125,62.6875L76.343157421875,69.140625L76.3448875,74.671875L76.61823984375,73.75L76.661491796875,76.515625L76.962525390625,73.2890625L77.132073046875,72.828125L77.20473632812501,61.765625L77.661476953125,68.99193298816681L77.8881171875,70.984375L78.36215859375,78.359375L78.48153398437499,58.078125L78.5247859375,70.0625L78.55592734375001,61.765625L78.68049296874999,66.13709700107574L78.709904296875,62.6875L79.3690640625,71.90625L79.76871210937499,59L79.90192812500001,62.6875L80.08185625,71.84677600860596L80.13202851562501,68.21875L80.353478515625,72.828125L80.62510078125,67.296875L80.68046328125,59L80.727175390625,76.515625L80.73063554687499,65.453125L81.273880078125,62.6875L81.481489453125,76.515625L81.574913671875,67.08870899677277L81.761762109375,64.53125L81.830965234375,73.75L81.934769921875,68.04032099246979L82.031654296875,71.90625L82.84133085937499,54.390625L82.94167539062501,67.296875L83.045480078125,59.921875L83.13198398437501,64.53125L83.500490625,68.21875L83.62678632812501,66.375L84.09909765625,61.765625L84.25826484375,64.53125L84.34476875000001,61.765625L84.581789453125,80.203125L84.60428046875,78.359375L85.17693632812501,65.453125L85.368975,71.90625L85.57312421875,69.140625L87.126734375,71.84677600860596L87.38624609375,64.53125L87.692469921875,58.078125L87.695930078125,52.546875L87.91738007812499,59.921875L88.11114882812501,60.84375L88.235714453125,78.359375L88.35855,68.04032099246979L88.51425703125,67.296875L88.66996406250001,59.921875L89.06096171875001,66.4959032535553L89.239159765625,58.078125L89.45022929687501,63.28226101398468L89.4588796875,58.078125L89.969252734375,64.53125L90.363710546875,54.390625L91.01941015625,49.78125L91.252970703125,56.620970010757446L91.3135234375,70.0625L91.32736406250001,58.078125L91.360235546875,70.89516401290894L91.695870703125,65.453125L91.89136953124999,53.7661269903183L92.017665234375,65.453125L92.28928749999999,67.296875L92.315238671875,50.703125L92.3238890625,59.921875L92.519387890625,47.015625L92.976128515625,68.04032099246979L93.149136328125,57.15625L93.42940898437499,56.234375L94.13009062500001,61.765625L94.20967421875001,70.984375L95.156026953125,51.625L95.20446914062501,53.7661269903183L95.609307421875,61.765625L95.624878125,60.84375L95.65947968750001,59.921875L95.88785,58.078125L95.984734375,58.078125L96.259816796875,58.078125L96.43801484375001,59.921875L96.948387890625,60.84375L97.13350625,58.078125L97.34284570312501,59L97.346305859375,53.46875L97.36014648437501,49.78125L97.51931367187501,67.296875L97.83418789062499,59.47580599784851L97.851488671875,66.375L98.0400671875,69.140625L98.39473320312499,65.453125L98.412033984375,58.078125L98.96219882812501,68.21875L99.39990859375,61.765625L99.61443828124999,65.453125L99.716512890625,60.84375L99.88433046875,67.84999859333038L100.2130453125,59L100.273598046875,64.53125L100.429305078125,64.2338730096817L100.543490234375,55.3125L100.70438750000001,64.53125L101.0296421875,69.140625L101.92582265625,49.78125L101.96042421874999,77.55645501613617L102.03654765625001,47.9375L102.323740625,53.46875L102.3652625,53.46875L102.66110585937501,48.859375L102.771830859375,59L102.861794921875,56.234375L103.3687078125,64.53125L103.79949726562499,54.390625L103.83236875,63.609375L104.38772382812499,69.140625L104.510559375,63.609375L105.10224609375,59.921875L105.173179296875,67.296875L105.2095109375,58.078125L105.55206640625,69.140625L105.6800921875,50.703125L106.526100390625,52.81451499462128L106.5728125,59.921875L106.820213671875,56.234375L106.89460703125,56.234375L107.04339374999999,62.6875L107.75099570312501,59.921875L107.75272578125,48.859375L108.290780078125,61.765625L108.44129687499999,60.84375L108.456867578125,59.921875L108.85997578125,57.15625L109.55200703125,59L109.631590625,59.921875L110.08833125,59L110.716349609375,54.71773898601532L110.872056640625,61.765625L111.30976640624999,60.84375L111.456823046875,62.6875L111.48277421875001,66.375L111.513915625,53.46875L111.984496875,56.234375L112.89970820312499,60.84375L113.086556640625,54.71773898601532L113.48966484375,60.84375L113.56578828125,54.390625L113.59173945312499,56.234375L113.99484765625,60.84375L114.04155976562501,59.921875L114.11249296874999,57.15625L115.4238921875,50.703125L115.653992578125,61.765625L115.809699609375,61.765625L115.87371250000001,41.484375L116.02941953125,57.15625L116.294121484375,58.078125L116.46020898437499,59.921875L117.055355859375,48.859375L117.07438671875,59L117.266425390625,62.330641984939575L117.314867578125,59L117.382340625,55.669358015060425L117.55880859375,60.84375L117.6937546875,55.3125L118.252569921875,47.015625L118.35464453125,54.390625L118.384055859375,50.703125L118.52765234375,56.234375L118.572634375,49.78125L119.57261953125001,48.859375L119.984378125,52.546875L120.408247265625,47.015625L120.473990234375,55.3125L120.49302109375,58.078125L120.508591796875,59.921875L120.98436328125001,52.546875L121.48954609375,48.859375L121.5414484375,46.09375L121.7975,39.640625L122.31998359375,47.9375L122.669459375,42.40625L122.920320703125,51.862902998924255L122.927241015625,57.15625L123.22654453125,60.84375L123.238655078125,64.53125L123.29401757812501,47.9375L123.560449609375,71.90625L124.252480859375,70.80000281333923L124.607146875,52.546875L124.858008203125,59.921875L125.22305468750001,48.859375L125.65557421875,61.765625L125.7836,59L125.871833984375,59.921875L125.9842890625,56.234375L126.38220703124999,45.171875L126.494662109375,56.234375L126.85797851562499,53.46875L127.46350585937499,49.78125L127.6728453125,48.859375L128.05000234375,46.09375L128.152076953125,47.9375L128.288753125,54.71773898601532L128.401208203125,54.390625L128.73511328125,54.390625L128.814696875,62.6875L128.99808515625,59.921875L129.27489765625,57.15625L129.57593125,59.921875L129.59496210937502,64.2338730096817L129.60880273437502,55.3125L129.747208984375,49.78125L129.9427078125,61.765625L130.22817070312502,42.40625L130.8215875,52.546875L130.989405078125,50.703125L131.35099140625,43.328125L131.882125390625,59L132.17796875,59.921875L132.539555078125,56.234375L132.939203125,55.3125L133.48244765625,40.5625L133.511858984375,60.84375L133.923617578125,57.15625L134.1087359375,48.859375L134.11219609375001,51.625L134.41668984375,64.53125L134.504923828125,55.3125L134.729833984375,56.234375L134.805957421875,56.234375L134.978965234375,47.9375L136.45126171875,47.9375L136.59658828125,50.703125L136.657141015625,53.46875L136.719423828125,64.53125L137.2643984375,47.015625L137.574082421875,52.546875L137.805912890625,63.609375L137.861275390625,54.390625L137.954699609375,59.921875L138.3439671875,59.921875L138.67268203125,53.46875L138.677872265625,60.84375L138.843959765625,50.703125L139.0913609375,44.25L139.11904218749999,57.15625L139.25398828125,59L139.913148046875,56.234375L140.439091796875,56.234375L140.510025,49.78125L141.27644960937502,57.15625L141.32662187499997,54.390625L142.186470703125,39.49194002151489L142.715874609375,64.53125L143.17088515625,52.546875L143.227977734375,52.546875L143.598214453125,44.25L143.667417578125,54.390625L143.734890625,52.546875L143.86983671874998,58.078125L144.33522773437502,51.625L144.50304531249998,41.484375L144.73314570312502,41.395164012908936L144.785048046875,56.234375L144.98227695312502,46.09375L145.08608164062503,56.234375L145.16739531250002,39.640625L145.21756757812503,59.921875L145.958041015625,53.46875L146.45111328125,61.765625L146.5445375,40.5625L146.81269960937502,44.25L147.432067578125,47.9375L147.69330937499998,59.921875L148.532397265625,53.46875L148.951076171875,51.625L149.034119921875,45.171875L149.27633085937498,46.09375L149.400896484375,47.9375L149.906079296875,47.9375L149.933760546875,47.9375L150.47008476562502,64.2338730096817L150.4821953125,49.78125L151.27803125,67.296875L151.63442734375,44.25L151.75207265625,50.703125L152.252065234375,58.078125L153.0427109375,41.484375L153.23993984375,59.921875L153.44408906249998,58.078125L153.60325625,35.03125L153.810865625,47.9375L154.345459765625,42.40625L154.4821359375,43.328125L154.7312671875,40.443552017211914L155.12226484375,48.859375L155.665509375,59.921875L155.7831546875,51.625L155.79353515625002,43.328125L155.93194140625,48.859375L156.089378515625,55.3125L156.232975,53.46875L156.60321171875,47.9375L157.02016054687502,52.546875L157.10839453124998,50.703125L157.43883945312498,51.625L157.50285234375,53.46875L157.982083984375,47.015625L158.461315625,53.46875L158.75542890625,49.78125L158.76926953125,39.640625L158.85923359375,53.46875L159.44053984375,46.09375L159.736383203125,57.15625L159.809046484375,44.25L160.19485390625,53.46875L160.227725390625,48.859375L160.61007265625,41.484375L160.649864453125,59.921875L161.12909609375,46.09375L161.597947265625,51.625L161.866109375,40.5625L161.898980859375,40.5625L161.975104296875,40.5625L162.113510546875,43.328125L162.25710703125,47.015625L162.54430000000002,42.40625L163.0494828125,48.859375L163.1602078125,58.078125L163.61348828125,47.9375L163.859159375,41.484375L163.9283625,58.078125L163.95604375000002,36.875L164.902396484375,37.796875L165.30204453125,27.65625L165.3193453125,40.5625L165.41276953125,48.859375L165.507923828125,51.625L165.570206640625,26.734375L166.044248046875,47.9375L166.217255859375,61.765625L166.35047187499998,45.171875L166.43351562499998,47.015625L166.46292695312502,47.015625L166.710328125,42.40625L166.93696835937502,51.625L167.05461367187502,48.859375L167.07883476562498,51.625L168.10477109375,46.09375L168.25182773437498,35.03125L169.064964453125,45.171875L169.64973085937498,57.15625L169.708553515625,50.703125L170.11166171874999,48.859375L170.1774046875,44.25L170.348682421875,39.640625L170.487088671875,49.78125L171.15316875,35.03125L171.51648515625,43.328125L171.71717421875,49.78125L172.410935546875,34.109375L172.424776171875,41.484375L172.680827734375,39.640625L172.9455296875,53.46875L173.39708007812501,48.859375L173.44725234375,30.421875L174.04239921874998,37.796875L174.43858710937502,34.109375L174.8278546875,35.03125L174.912628515625,50.703125L175.185980859375,31.34375L175.327847265625,45.171875L175.61504023437502,36.875L176.075241015625,46.09375L176.2188375,47.9375L176.30880156249998,43.328125L176.358973828125,45.171875L176.371084375,32.265625L177.11501796874998,44.25L177.352038671875,42.40625L177.3883703125,35.953125L177.933344921875,44.25L177.93853515625,44.25L178.00946835937498,44.25L178.03541953125,40.5625L178.410846484375,39.640625L179.403911328125,44.25L180.3917859375,45.171875L180.79316406249998,49.78125L180.98347265625,34.109375L181.08554726562502,27.65625L181.653012890625,38.71875L181.94539609375002,46.09375L182.002488671875,39.640625L182.272380859375,49.78125L182.3294734375,35.03125L182.74642226562503,40.5625L183.0353453125,31.34375L183.20489296875,41.484375L183.53360781249998,38.71875L183.583780078125,31.34375L183.68931484375,50.703125L183.73429687499998,49.78125L183.9695875,39.640625L184.21006835937501,37.796875L184.441898828125,43.328125L184.853657421875,35.03125L185.18929257812502,47.015625L185.31731835937498,35.03125L185.395171875,30.421875L185.9418765625,32.265625L186.31730351562499,43.328125L186.549133984375,44.25L186.590655859375,40.5625L187.144280859375,40.5625L187.19272304687502,34.109375L187.30863828124998,43.328125L187.69617578125,44.25L188.69962109375,44.25L189.37435156249998,49.78125L189.51621796875,50.703125L189.652894140625,46.09375L189.8380125,39.640625L189.9002953125,38.71875L190.06638281250002,35.03125L190.43315937499997,41.484375L190.65114921875,30.421875L191.01619570312502,30.421875L191.424494140625,27.65625L191.50061757812497,35.953125L191.524838671875,28.578125L191.5888515625,40.5625L192.14593671875,32.265625L192.313754296875,48.859375L192.44351015625,40.5625L192.7653046875,56.234375L193.1044,35.03125L193.18917382812498,42.40625L193.417544140625,44.25L193.6026625,51.625L194.414069140625,38.71875L194.4331,47.9375L194.48500234375,34.109375L195.03689726562502,46.09375L195.35523164062502,43.328125L195.56803125000002,45.171875L195.60090273437498,46.09375L195.98671015625,35.03125L196.02131171874998,35.953125L196.135496875,51.625L196.2254609375,38.71875L196.439990625,45.171875L196.54725546875,27.65625L197.033407421875,30.421875L197.48668789062498,49.78125L197.818862890625,41.484375L198.064533984375,31.34375L198.29117421875,31.34375L198.306744921875,35.03125L198.348266796875,35.03125L198.57144687500002,42.40625L198.881130859375,42.40625L199.078359765625,45.171875L199.2703984375,35.953125L199.28250898437503,43.328125L199.59565312499998,31.34375L199.694267578125,42.40625L199.846514453125,46.09375L200.16311875,30.421875L200.2254015625,43.328125L200.510864453125,41.484375L200.822278515625,37.796875L200.860340234375,46.09375L200.90705234375,37.796875L201.486628515625,33.1875L201.50911953124998,32.265625L201.777281640625,48.859375L201.998731640625,45.171875L202.27381406249998,39.640625L202.299765234375,34.109375L202.355127734375,37.796875L202.48142343749998,35.953125L202.524675390625,31.34375L202.638860546875,41.484375L203.09387109375,36.875L203.37760390625,45.171875L203.39836484375002,23.96875L203.87413632812502,35.953125L203.88970703125,35.03125L204.074825390625,40.5625L204.34125742187499,39.640625L204.578278125,31.34375L204.6820828125,33.1875L205.03847890625,46.09375L205.496949609375,28.578125L205.915628515625,35.03125L206.071335546875,36.63708996772766L206.320466796875,32.265625L206.3983203125,35.953125L206.67167265625,36.875L206.977896484375,40.5625L207.02460859375,39.640625L207.10419218750002,35.953125L207.2979609375,47.015625L207.42079648437502,39.640625L207.7408609375,38.71875L207.77027226562498,35.03125L208.085146484375,30.421875L208.427701953125,33.1875L208.69240390625,44.25L209.348103515625,34.109375L209.41903671875,45.171875L209.63010624999998,38.71875L209.721800390625,50.703125L209.97958203125,40.5625L210.067816015625,51.625L210.12836875,34.109375L210.265044921875,34.109375L210.3567390625,34.109375L210.46400390624999,35.03125L210.52628671875,49.78125L210.557428125,51.625L210.669883203125,33.1875L211.00378828125,39.640625L211.12489375,42.40625L211.18025625,47.015625L211.60066523437501,27.65625L211.720040625,45.171875L211.984742578125,47.015625L212.1006578125,41.484375L212.313457421875,47.015625L212.853241796875,45.171875L213.214828125,41.484375L213.76499296875,39.640625L214.282286328125,37.796875L214.406851953125,35.03125L214.749407421875,35.03125L215.04525078125,33.1875L215.098883203125,31.34375L215.783994140625,48.859375L215.78745429687498,45.171875L216.00371406250002,38.71875L216.254575390625,44.25L216.49851640625,41.484375L216.54003828125,30.421875L216.64384296875,37.796875L217.58500546874998,25.8125L217.66458906250003,42.40625L217.752823046875,43.328125L217.908530078125,34.109375L218.012334765625,31.34375L218.1836125,47.9375L218.74588789062503,24.890625L219.0901734375,33.1875L219.221659375,44.25L219.28740234375002,22.125L219.313353515625,32.265625L219.3531453125,34.109375L220.226834765625,35.03125L220.84966289062498,41.484375L221.4153984375,36.875L222.129920703125,35.03125L222.15760195312498,34.109375L222.49150703125002,38.71875L222.956898046875,29.5L223.19737890625,46.09375L223.55031484375002,33.1875L223.946502734375,23.96875L224.065878125,42.40625L224.195633984375,33.1875L224.27694765625,35.953125L224.564140625,37.796875L225.17658828125,45.6328125L225.3461359375,39.640625L225.541634765625,26.734375L225.728483203125,40.5625L226.012216015625,35.03125L226.69559687499998,28.578125L227.36513710937498,24.890625L227.368597265625,23.96875L227.3807078125,35.953125L228.12983164062499,35.03125L228.19730468749998,33.1875L228.493148046875,30.421875L229.2907140625,44.25L229.406629296875,39.640625L229.908351953125,39.640625L229.93084296875,33.1875L229.93949335937498,48.859375L230.04329804687498,30.421875L230.13845234374998,25.8125L230.35471210937501,46.09375L230.68515703125001,36.875L231.013871875,44.25L231.06404414062501,40.5625L231.174769140625,37.796875L231.295874609375,35.953125L231.8789109375,34.109375L232.1418828125,45.171875L232.57786249999998,42.40625L232.804502734375,33.1875L232.922148046875,36.875L233.022492578125,40.5625L233.12975742187498,28.578125L233.33217656250002,42.40625L233.676462109375,41.484375L233.942894140625,30.421875L234.18337499999998,33.1875L234.38579414062502,39.640625L234.430776171875,35.03125L234.57091250000002,31.34375L235.3805890625,33.1875L235.50861484375,38.71875L235.68508281249999,33.1875L235.700653515625,36.875L235.87193125,36.875L235.9203734375,53.46875L236.08646093750002,34.109375L236.1418234375,37.796875L236.423826171875,25.8125L236.60202421875002,30.421875L236.83385468749998,40.5625L237.02243320312502,29.5L237.24561328124997,33.1875L238.050099609375,25.8125L238.06394023437502,36.875L238.337292578125,32.265625L238.65043671875,40.5625L238.89956796875,47.015625L239.21098203124998,36.875L239.274994921875,36.875L239.401290625,39.640625L239.524126171875,39.640625L240.12100312500002,37.796875L240.17982578125,35.953125L240.72826054687502,32.265625L240.835525390625,41.484375L240.99123242187503,39.640625L241.034484375,41.484375L241.13482890625,40.5625L241.68845390624998,33.1875L242.13135390625,39.640625L242.198826953125,35.953125L242.3977859375,27.65625L242.4254671875,25.8125L242.61231562499998,35.03125L242.72996093749998,42.40625L243.202272265625,41.484375L243.53790742187502,28.578125L243.873542578125,37.796875L243.88219296875002,36.875L243.949666015625,35.03125L243.95658632812498,27.65625L244.748962109375,35.953125L244.90812929687502,38.71875L244.9721421875,39.640625L245.2351140625,30.421875L245.309507421875,36.875L245.5672890625,33.1875L245.62438164062502,35.953125L245.70915546875,30.421875L245.735106640625,39.640625L246.06382148437498,35.03125L246.420217578125,43.328125L246.555163671875,47.9375L246.57938476562498,35.03125L247.05169609375,35.03125L247.402901953125,37.796875L247.49459609375,34.109375L247.594940625,38.71875L248.198737890625,34.109375L248.679699609375,29.5L249.55165898437502,41.484375L249.987638671875,43.328125L250.30424296875,39.640625L250.418428125,33.1875L251.029145703125,35.03125L251.18485273437503,47.015625L251.30249804687497,39.640625L251.55162929687498,35.953125L252.03086093750002,33.1875L252.4183984375,21.203125L252.84399765625,35.03125L252.92531132812502,44.25L254.127715625,56.234375L254.515253125,35.03125L255.420083984375,45.171875L255.634613671875,36.875L255.66056484375,36.875L255.76436953125,40.5625L255.84741328125,37.796875L256.364706640625,44.25L256.475431640625,39.640625L256.869889453125,35.03125L256.87161953125,37.796875L256.984074609375,36.875L257.1242109375,42.40625L257.18476367187503,31.34375L257.305869140625,35.953125L257.421784375,31.34375L257.98578984375,32.265625L258.420039453125,35.03125L258.911381640625,36.875L259.3387109375,35.953125L260.2521921875,25.217746019363403L260.333505859375,34.109375L260.51689414062497,32.265625L260.5428453125,23.046875L261.04802812500003,37.796875L261.43210546875,26.734375L261.64663515625,41.484375L261.96842968749996,47.9375L261.97881015625,35.953125L262.12413671875,14.75L262.17084882812503,35.03125L262.30060468749997,31.34375L263.3386515625,33.1875L263.4355359375,32.265625L263.60854375,32.265625L263.651795703125,35.03125L263.734839453125,42.40625L263.990891015625,37.796875L264.454551953125,42.40625L264.96146484375,34.109375L265.143123046875,41.484375L265.295369921875,33.1875L265.534120703125,45.171875L265.70539843750004,32.265625L266.40435,33.1875L266.5081546875,41.484375L266.644830859375,30.421875L267.10676171875,33.1875L267.108491796875,32.265625L267.11368203125,27.65625L267.118872265625,39.640625L267.122332421875,42.40625L267.1240625,35.03125L267.13444296875,42.40625L267.13963320312496,36.875L267.14136328125,67.296875L267.1448234375,47.9375L267.150013671875,52.546875L267.153473828125,47.9375L267.15693398437503,51.625L267.16212421875,59L267.163854296875,63.609375L267.165584375,65.453125L267.177694921875,48.859375L267.1863453125,37.796875L267.18980546874997,62.6875L267.191535546875,48.859375L267.19326562500004,56.234375L267.2001859375,44.25L267.201916015625,59L267.21056640625,52.546875L267.212296484375,47.9375L267.219216796875,47.015625L267.22440703125,60.84375L267.226137109375,63.609375L267.229597265625,52.546875L267.2417078125,55.669358015060425L267.243437890625,56.234375L267.25208828125,38.71875L267.260738671875,51.625" style="fill: none;" fill="none"></path></g></g></g></g></g></g><g transform="translate(53, 177)" clip-path="url(#clip_1)"><clipPath id="clip_1"><rect width="276" height="23"></rect></clipPath><g><g><line x1="0" y1="0" x2="0" y2="5" style="visibility: inherit;" fill="rgb(0, 0, 0)" stroke="rgb(204, 204, 204)" stroke-width="1px"></line><line x1="34.6015625" y1="0" x2="34.6015625" y2="5" style="visibility: inherit;" fill="rgb(0, 0, 0)" stroke="rgb(204, 204, 204)" stroke-width="1px"></line><line x1="69.203125" y1="0" x2="69.203125" y2="5" style="visibility: inherit;" fill="rgb(0, 0, 0)" stroke="rgb(204, 204, 204)" stroke-width="1px"></line><line x1="103.8046875" y1="0" x2="103.8046875" y2="5" style="visibility: inherit;" fill="rgb(0, 0, 0)" stroke="rgb(204, 204, 204)" stroke-width="1px"></line><line x1="138.40625" y1="0" x2="138.40625" y2="5" style="visibility: inherit;" fill="rgb(0, 0, 0)" stroke="rgb(204, 204, 204)" stroke-width="1px"></line><line x1="173.0078125" y1="0" x2="173.0078125" y2="5" style="visibility: inherit;" fill="rgb(0, 0, 0)" stroke="rgb(204, 204, 204)" stroke-width="1px"></line><line x1="207.609375" y1="0" x2="207.609375" y2="5" style="visibility: inherit;" fill="rgb(0, 0, 0)" stroke="rgb(204, 204, 204)" stroke-width="1px"></line><line x1="242.2109375" y1="0" x2="242.2109375" y2="5" style="visibility: inherit;" fill="rgb(0, 0, 0)" stroke="rgb(204, 204, 204)" stroke-width="1px"></line><line x1="276.8125" y1="0" x2="276.8125" y2="5" style="visibility: inherit;" fill="rgb(0, 0, 0)" stroke="rgb(204, 204, 204)" stroke-width="1px"></line></g><g transform="translate(0, 8)"><text x="0" y="0" dx="0em" dy="0.95em" style="text-anchor: middle; visibility: hidden; font-family: &quot;Helvetica Neue&quot;, sans-serif; font-size: 12px; font-weight: 200;" fill="rgb(50, 49, 63)" stroke="none" stroke-width="1px">0</text><text x="34.6015625" y="0" dx="0em" dy="0.95em" style="text-anchor: middle; visibility: inherit; font-family: &quot;Helvetica Neue&quot;, sans-serif; font-size: 12px; font-weight: 200;" fill="rgb(50, 49, 63)" stroke="none" stroke-width="1px">20k</text><text x="69.203125" y="0" dx="0em" dy="0.95em" style="text-anchor: middle; visibility: inherit; font-family: &quot;Helvetica Neue&quot;, sans-serif; font-size: 12px; font-weight: 200;" fill="rgb(50, 49, 63)" stroke="none" stroke-width="1px">40k</text><text x="103.8046875" y="0" dx="0em" dy="0.95em" style="text-anchor: middle; visibility: inherit; font-family: &quot;Helvetica Neue&quot;, sans-serif; font-size: 12px; font-weight: 200;" fill="rgb(50, 49, 63)" stroke="none" stroke-width="1px">60k</text><text x="138.40625" y="0" dx="0em" dy="0.95em" style="text-anchor: middle; visibility: inherit; font-family: &quot;Helvetica Neue&quot;, sans-serif; font-size: 12px; font-weight: 200;" fill="rgb(50, 49, 63)" stroke="none" stroke-width="1px">80k</text><text x="173.0078125" y="0" dx="0em" dy="0.95em" style="text-anchor: middle; visibility: inherit; font-family: &quot;Helvetica Neue&quot;, sans-serif; font-size: 12px; font-weight: 200;" fill="rgb(50, 49, 63)" stroke="none" stroke-width="1px">100k</text><text x="207.609375" y="0" dx="0em" dy="0.95em" style="text-anchor: middle; visibility: inherit; font-family: &quot;Helvetica Neue&quot;, sans-serif; font-size: 12px; font-weight: 200;" fill="rgb(50, 49, 63)" stroke="none" stroke-width="1px">120k</text><text x="242.2109375" y="0" dx="0em" dy="0.95em" style="text-anchor: middle; visibility: inherit; font-family: &quot;Helvetica Neue&quot;, sans-serif; font-size: 12px; font-weight: 200;" fill="rgb(50, 49, 63)" stroke="none" stroke-width="1px">140k</text><text x="276.8125" y="0" dx="0em" dy="0.95em" style="text-anchor: middle; visibility: hidden; font-family: &quot;Helvetica Neue&quot;, sans-serif; font-size: 12px; font-weight: 200;" fill="rgb(50, 49, 63)" stroke="none" stroke-width="1px">160k</text></g><line x1="0" y1="0" x2="276.8125" y2="0" fill="rgb(0, 0, 0)" stroke="rgb(204, 204, 204)" stroke-width="1px"></line></g></g></g></g></svg>