<svg viewBox="0 0 330 200" xmlns="http://www.w3.org/2000/svg"><g><g><g><g><g><line x1="74.78125" y1="177" x2="69.78125" y2="177" style="visibility: inherit;" fill="rgb(0, 0, 0)" stroke="rgb(204, 204, 204)" stroke-width="1px"></line><line x1="74.78125" y1="160.9090909090909" x2="69.78125" y2="160.9090909090909" style="visibility: inherit;" fill="rgb(0, 0, 0)" stroke="rgb(204, 204, 204)" stroke-width="1px"></line><line x1="74.78125" y1="144.8181818181818" x2="69.78125" y2="144.8181818181818" style="visibility: inherit;" fill="rgb(0, 0, 0)" stroke="rgb(204, 204, 204)" stroke-width="1px"></line><line x1="74.78125" y1="128.72727272727275" x2="69.78125" y2="128.72727272727275" style="visibility: inherit;" fill="rgb(0, 0, 0)" stroke="rgb(204, 204, 204)" stroke-width="1px"></line><line x1="74.78125" y1="112.63636363636364" x2="69.78125" y2="112.63636363636364" style="visibility: inherit;" fill="rgb(0, 0, 0)" stroke="rgb(204, 204, 204)" stroke-width="1px"></line><line x1="74.78125" y1="96.54545454545455" x2="69.78125" y2="96.54545454545455" style="visibility: inherit;" fill="rgb(0, 0, 0)" stroke="rgb(204, 204, 204)" stroke-width="1px"></line><line x1="74.78125" y1="80.45454545454547" x2="69.78125" y2="80.45454545454547" style="visibility: inherit;" fill="rgb(0, 0, 0)" stroke="rgb(204, 204, 204)" stroke-width="1px"></line><line x1="74.78125" y1="64.36363636363636" x2="69.78125" y2="64.36363636363636" style="visibility: inherit;" fill="rgb(0, 0, 0)" stroke="rgb(204, 204, 204)" stroke-width="1px"></line><line x1="74.78125" y1="48.27272727272728" x2="69.78125" y2="48.27272727272728" style="visibility: inherit;" fill="rgb(0, 0, 0)" stroke="rgb(204, 204, 204)" stroke-width="1px"></line><line x1="74.78125" y1="32.18181818181819" x2="69.78125" y2="32.18181818181819" style="visibility: inherit;" fill="rgb(0, 0, 0)" stroke="rgb(204, 204, 204)" stroke-width="1px"></line><line x1="74.78125" y1="16.090909090909093" x2="69.78125" y2="16.090909090909093" style="visibility: inherit;" fill="rgb(0, 0, 0)" stroke="rgb(204, 204, 204)" stroke-width="1px"></line><line x1="74.78125" y1="0" x2="69.78125" y2="0" style="visibility: inherit;" fill="rgb(0, 0, 0)" stroke="rgb(204, 204, 204)" stroke-width="1px"></line></g><g transform="translate(64.78125, 0)"><text x="0" y="177" dx="0em" dy="0.3em" style="text-anchor: end; visibility: hidden; font-family: &quot;Helvetica Neue&quot;, sans-serif; font-size: 12px; font-weight: 200;" fill="rgb(50, 49, 63)" stroke="none" stroke-width="1px">-200</text><text x="0" y="160.9090909090909" dx="0em" dy="0.3em" style="text-anchor: end; visibility: inherit; font-family: &quot;Helvetica Neue&quot;, sans-serif; font-size: 12px; font-weight: 200;" fill="rgb(50, 49, 63)" stroke="none" stroke-width="1px">0</text><text x="0" y="144.8181818181818" dx="0em" dy="0.3em" style="text-anchor: end; visibility: hidden; font-family: &quot;Helvetica Neue&quot;, sans-serif; font-size: 12px; font-weight: 200;" fill="rgb(50, 49, 63)" stroke="none" stroke-width="1px">200</text><text x="0" y="128.72727272727275" dx="0em" dy="0.3em" style="text-anchor: end; visibility: inherit; font-family: &quot;Helvetica Neue&quot;, sans-serif; font-size: 12px; font-weight: 200;" fill="rgb(50, 49, 63)" stroke="none" stroke-width="1px">400</text><text x="0" y="112.63636363636364" dx="0em" dy="0.3em" style="text-anchor: end; visibility: hidden; font-family: &quot;Helvetica Neue&quot;, sans-serif; font-size: 12px; font-weight: 200;" fill="rgb(50, 49, 63)" stroke="none" stroke-width="1px">600</text><text x="0" y="96.54545454545455" dx="0em" dy="0.3em" style="text-anchor: end; visibility: inherit; font-family: &quot;Helvetica Neue&quot;, sans-serif; font-size: 12px; font-weight: 200;" fill="rgb(50, 49, 63)" stroke="none" stroke-width="1px">800</text><text x="0" y="80.45454545454547" dx="0em" dy="0.3em" style="text-anchor: end; visibility: hidden; font-family: &quot;Helvetica Neue&quot;, sans-serif; font-size: 12px; font-weight: 200;" fill="rgb(50, 49, 63)" stroke="none" stroke-width="1px">1e+3</text><text x="0" y="64.36363636363636" dx="0em" dy="0.3em" style="text-anchor: end; visibility: inherit; font-family: &quot;Helvetica Neue&quot;, sans-serif; font-size: 12px; font-weight: 200;" fill="rgb(50, 49, 63)" stroke="none" stroke-width="1px">1.2e+3</text><text x="0" y="48.27272727272728" dx="0em" dy="0.3em" style="text-anchor: end; visibility: hidden; font-family: &quot;Helvetica Neue&quot;, sans-serif; font-size: 12px; font-weight: 200;" fill="rgb(50, 49, 63)" stroke="none" stroke-width="1px">1.4e+3</text><text x="0" y="32.18181818181819" dx="0em" dy="0.3em" style="text-anchor: end; visibility: inherit; font-family: &quot;Helvetica Neue&quot;, sans-serif; font-size: 12px; font-weight: 200;" fill="rgb(50, 49, 63)" stroke="none" stroke-width="1px">1.6e+3</text><text x="0" y="16.090909090909093" dx="0em" dy="0.3em" style="text-anchor: end; visibility: hidden; font-family: &quot;Helvetica Neue&quot;, sans-serif; font-size: 12px; font-weight: 200;" fill="rgb(50, 49, 63)" stroke="none" stroke-width="1px">1.8e+3</text><text x="0" y="0" dx="0em" dy="0.3em" style="text-anchor: end; visibility: hidden; font-family: &quot;Helvetica Neue&quot;, sans-serif; font-size: 12px; font-weight: 200;" fill="rgb(50, 49, 63)" stroke="none" stroke-width="1px">2e+3</text></g><line x1="74.78125" y1="0" x2="74.78125" y2="177" fill="rgb(0, 0, 0)" stroke="rgb(204, 204, 204)" stroke-width="1px"></line></g></g><g transform="translate(74, 0)" clip-path="url(#clip_0)"><clipPath id="clip_0"><rect width="255" height="177"></rect></clipPath><g><g><g><line x1="0" y1="0" x2="0" y2="177" fill="rgb(0, 0, 0)" stroke="rgb(60, 60, 60)" stroke-width="1px" opacity="0.25"></line><line x1="28.357638888888886" y1="0" x2="28.357638888888886" y2="177" fill="rgb(0, 0, 0)" stroke="rgb(60, 60, 60)" stroke-width="1px" opacity="0.25"></line><line x1="56.71527777777777" y1="0" x2="56.71527777777777" y2="177" fill="rgb(0, 0, 0)" stroke="rgb(60, 60, 60)" stroke-width="1px" opacity="0.25"></line><line x1="85.07291666666666" y1="0" x2="85.07291666666666" y2="177" fill="rgb(0, 0, 0)" stroke="rgb(60, 60, 60)" stroke-width="1px" opacity="0.25"></line><line x1="113.43055555555554" y1="0" x2="113.43055555555554" y2="177" fill="rgb(0, 0, 0)" stroke="rgb(60, 60, 60)" stroke-width="1px" opacity="0.25"></line><line x1="141.78819444444446" y1="0" x2="141.78819444444446" y2="177" fill="rgb(0, 0, 0)" stroke="rgb(60, 60, 60)" stroke-width="1px" opacity="0.25"></line><line x1="170.14583333333331" y1="0" x2="170.14583333333331" y2="177" fill="rgb(0, 0, 0)" stroke="rgb(60, 60, 60)" stroke-width="1px" opacity="0.25"></line><line x1="198.50347222222223" y1="0" x2="198.50347222222223" y2="177" fill="rgb(0, 0, 0)" stroke="rgb(60, 60, 60)" stroke-width="1px" opacity="0.25"></line><line x1="226.8611111111111" y1="0" x2="226.8611111111111" y2="177" fill="rgb(0, 0, 0)" stroke="rgb(60, 60, 60)" stroke-width="1px" opacity="0.25"></line><line x1="255.21875" y1="0" x2="255.21875" y2="177" fill="rgb(0, 0, 0)" stroke="rgb(60, 60, 60)" stroke-width="1px" opacity="0.25"></line></g><g><line x1="0" y1="177" x2="255.21875" y2="177" fill="rgb(0, 0, 0)" stroke="rgb(60, 60, 60)" stroke-width="1px" opacity="0.25"></line><line x1="0" y1="160.9090909090909" x2="255.21875" y2="160.9090909090909" fill="rgb(0, 0, 0)" stroke="rgb(60, 60, 60)" stroke-width="1px" opacity="0.25"></line><line x1="0" y1="144.8181818181818" x2="255.21875" y2="144.8181818181818" fill="rgb(0, 0, 0)" stroke="rgb(60, 60, 60)" stroke-width="1px" opacity="0.25"></line><line x1="0" y1="128.72727272727275" x2="255.21875" y2="128.72727272727275" fill="rgb(0, 0, 0)" stroke="rgb(60, 60, 60)" stroke-width="1px" opacity="0.25"></line><line x1="0" y1="112.63636363636364" x2="255.21875" y2="112.63636363636364" fill="rgb(0, 0, 0)" stroke="rgb(60, 60, 60)" stroke-width="1px" opacity="0.25"></line><line x1="0" y1="96.54545454545455" x2="255.21875" y2="96.54545454545455" fill="rgb(0, 0, 0)" stroke="rgb(60, 60, 60)" stroke-width="1px" opacity="0.25"></line><line x1="0" y1="80.45454545454547" x2="255.21875" y2="80.45454545454547" fill="rgb(0, 0, 0)" stroke="rgb(60, 60, 60)" stroke-width="1px" opacity="0.25"></line><line x1="0" y1="64.36363636363636" x2="255.21875" y2="64.36363636363636" fill="rgb(0, 0, 0)" stroke="rgb(60, 60, 60)" stroke-width="1px" opacity="0.25"></line><line x1="0" y1="48.27272727272728" x2="255.21875" y2="48.27272727272728" fill="rgb(0, 0, 0)" stroke="rgb(60, 60, 60)" stroke-width="1px" opacity="0.25"></line><line x1="0" y1="32.18181818181819" x2="255.21875" y2="32.18181818181819" fill="rgb(0, 0, 0)" stroke="rgb(60, 60, 60)" stroke-width="1px" opacity="0.25"></line><line x1="0" y1="16.090909090909093" x2="255.21875" y2="16.090909090909093" fill="rgb(0, 0, 0)" stroke="rgb(60, 60, 60)" stroke-width="1px" opacity="0.25"></line><line x1="0" y1="0" x2="255.21875" y2="0" fill="rgb(0, 0, 0)" stroke="rgb(60, 60, 60)" stroke-width="1px" opacity="0.25"></line></g></g></g><g><g><line x1="0" y1="160.9090909090909" x2="255.21875" y2="160.9090909090909" fill="rgb(0, 0, 0)" stroke="rgb(153, 153, 153)" stroke-width="1.5px"></line></g></g><g><g><line x1="28.357638888888886" y1="0" x2="28.357638888888886" y2="177" fill="rgb(0, 0, 0)" stroke="rgb(153, 153, 153)" stroke-width="1.5px"></line></g></g><g><g><g><g><g><path stroke="rgb(255, 112, 67)" stroke-width="2px" d="M28.608603993055553,154.65737705924295L28.7248703125,155.31146631615013L28.736213368055555,155.26478064263517L28.788674999999998,155.34152171247612L29.294858854166666,154.74257582510214L29.303366145833333,154.47450594673637L29.311873437499997,154.39457002941515L29.333141666666666,154.28027247073206L29.352992013888887,153.98745059917033L29.44940798611111,154.1507407133767L29.466422569444447,154.02545612400323L29.5032875,153.95114026916883L29.805296354166668,153.85252106331401L29.890369270833332,153.690648186056L29.925816319444444,153.54217982026464L29.962681250000003,153.47123631872077L29.97686006944444,153.47978563013888L30.01797864583333,153.2771278592817L30.139916493055555,153.16930762455036L30.40080677083333,153.0314714771386L30.528416145833333,152.8658243929166L30.559609548611114,152.86558168923636L30.563863194444444,152.80467668372623L30.69714409722222,152.61163768564717L30.84035017361111,152.4464718054133L31.061539756944445,152.38624284126843L31.108329861111113,152.41557416595825L31.12109079861111,152.19489661947367L31.265714756944448,152.08531903600488L31.326683680555558,152.08783112266772L31.363548611111113,152.00381122988506L31.474143402777777,151.87935555620223L31.641453472222224,151.84601466177423L31.686825694444448,151.65586902377294L31.69533298611111,151.59407626155746L31.89667222222222,151.52847483107416L31.906597395833334,151.3285771515629L31.985998784722224,151.20323329766924L32.12920486111111,151.14710174435612L32.13345850694444,151.00233993068L32.201516840277776,150.9973232932232L32.22562083333333,150.9877318115592L32.29084340277778,150.7707110839334L32.33763350694444,150.78656359539536L32.35039444444445,150.54716722487376L32.50636145833333,150.4132021616873L32.744565625,150.15610126384834L32.77859479166667,149.91240649338633L32.78426631944444,149.78188147153892L32.886353819444444,149.5432446940778L33.042320833333335,149.3236545190191L33.19828784722222,148.95453508849403L33.35141909722223,148.56710037969464L33.454924479166664,148.1732774219605L33.617980902777774,147.81656867033962L33.74842604166667,147.49573761577807L33.89872152777778,147.20715703851667L34.010734201388885,146.91229285107343L34.14968663194445,146.57902028702335L34.19647673611111,146.32453879336487L34.22058072916666,146.03767209822672L34.30281788194444,145.77706248250965L34.655870486111105,145.52999848444517L34.74519704861111,145.30518528163046L34.786315625,145.10038693854344L34.928103819444445,144.88591046404866L34.95787934027778,144.70550242431162L34.97914756944445,144.53058391842333L35.006087326388894,144.35557129667353L35.164890104166666,144.28110387093614L35.2329484375,144.1436546096987L35.34212534722222,144.0803365584497L35.364811458333335,144.02335642090523L35.39600486111111,143.9041678033019L35.51085329861111,143.87236141406487L35.69659583333333,143.7330760511669L35.794429687500006,143.63539258031602L36.215540625,143.627959271906L36.34173211805555,143.57097337505692L36.46792361111111,143.55238049820903L36.54023559027778,143.56959611753547L36.63098003472222,143.51593666906368L36.98261475694445,143.47518878505423L36.98545052083333,143.39325475294197L37.28320572916667,143.34466164516L37.67737690972222,143.26572608845527L37.70006302083333,143.22988837108687L37.72700277777778,143.18506293195642L37.822000868055554,143.08940365565272L37.98080364583333,143.10137329281176L38.00490763888889,143.05431512360434L38.07154809027778,143.03459262156622L38.1424421875,142.99169915921283L38.29982708333333,142.93298085400767L38.48131597222223,142.90527811339237L38.52385243055555,142.92560339762446L38.5252703125,142.9187530355391L38.779071180555555,142.90504489610632L38.808846701388894,142.8700791472905L39.07540850694444,142.82101027013252L39.137795312499996,142.73159176463764L39.218614583333334,142.72654327501152L39.4951015625,142.68177160331214L39.61562152777778,142.67416249219562L39.62838246527778,142.6547430974885L39.740395138888886,142.55932425900667L39.90061579861111,142.51116110759367L40.04665763888889,142.4979851870924L40.060836458333334,142.3830434401286L40.14023784722222,142.35502292751602L40.28911545138889,142.33483296647606L40.37702413194444,142.32169048032807L40.40963541666667,142.26460627416105L40.56985607638889,142.19563102307853L40.65067534722222,142.20646570729565L40.823656944444444,142.18101787495127L40.86761128472222,142.100287888938L40.935669618055556,142.02763096947206L41.03492135416667,141.99743878692104L41.04768229166667,141.9853511191949L41.08171145833334,141.97950064936296L41.1412625,141.90132310721123L41.178127430555556,141.86867651509064L41.2561109375,141.8392945967844L41.35678055555555,141.78268037006092L41.36670572916667,141.7920685991665L41.458868055555556,141.75777645901158L41.461703819444445,141.72691354293562L41.72117621527777,141.63376752665476L41.773637847222226,141.6178197333053L41.83602465277778,141.58335306595632L41.984902256944444,141.54981886513997L42.101168576388886,141.4844391976876L42.19474878472222,141.46582480962203L42.4301171875,141.4063303572854L42.56198020833334,141.34524273954835L42.58891996527778,141.30786333182658L42.615859722222226,141.28427869175806L42.6598140625,141.25802410658395L42.668321354166665,141.26959385955877L42.71936510416666,141.23223673313035L42.80443802083333,141.20112952719774L42.84981024305556,141.21084612271346L42.991598437499995,141.14165069716384L43.04547795138889,141.1849714329449L43.11778993055556,141.18121860704923L43.19151979166667,141.24321039434875L43.24398142361111,141.17077854721822L43.25532447916667,141.1332461413331L43.33472586805556,141.15980789447224L43.3489046875,141.1610856279097L43.465171006944445,141.1396077445554L43.4765140625,141.07753616845096L43.54599027777778,141.09206948472934L43.578601562500005,141.04355145278907L43.663674479166666,141.03634119334927L43.72747916666667,140.96951104691138L43.90613229166667,140.92570624645714L43.92740052083333,140.87748221016295L44.04508472222222,140.7687112566822L44.12590399305555,140.7160730832982L44.152843749999995,140.68126975089552L44.21523055555556,140.63234731955822L44.27761736111111,140.56568929006036L44.36694392361111,140.51072547314155L44.40664461805556,140.5391983810951L44.44067378472222,140.5371677474847L44.49171753472222,140.5277975634528L44.52574670138889,140.549534852964L44.61081961805556,140.5163001171145L44.83484496527778,140.43359055870962L44.867456250000004,140.36669457011868L44.873127777777775,140.34922965834946L44.93551458333334,140.3259686240787L45.01916961805556,140.38297403495832L45.070213368055555,140.4091368589666L45.073049131944444,140.39999874117905L45.09431736111111,140.39177443518403L45.11274982638889,140.35923051418305L45.26020954861111,140.32994098532205L45.531025,140.33123665952388L45.550875347222224,140.37765844833515L45.589158159722224,140.38675339899467L45.597665451388885,140.34214055892534L45.621769444444446,140.3585586053618L45.65296284722222,140.4022481995058L45.68699201388889,140.3560858794271L45.80751197916666,140.30951138227715L45.92803194444445,140.307821607682L45.952135937499996,140.30630081054707L46.08116319444444,140.36527300232703L46.105267187500004,140.33789342932218L46.20593680555556,140.32582283637214L46.231458680555555,140.30741668907413L46.29526336805556,140.24810967918677L46.305188541666666,140.19976177939793L46.34063559027778,140.1839049196246L46.36332170138889,140.1796905640221L46.4370515625,140.19098287126513L46.512199305555555,140.1609186750265L46.52212447916666,140.1715739666215L46.52354236111111,140.1635642972275L46.65824114583333,140.1462987765868L46.6922703125,140.11818878527873L46.85249097222222,140.07529036127846L46.97726458333333,140.14730677972307L47.04674079861111,140.17189428357722L47.09211302083333,140.2216792870528L47.164425,140.1307187446863L47.21546875,140.1494224384041L47.33882447916667,140.0707159900008L47.49479149305556,140.04010745917645L47.93433489583333,140.0226165996193L47.999557465277775,139.9993322123809L48.05627274305555,140.0236319456918L48.158360243055554,140.03544488748778L48.18388211805555,140.13407369420514L48.25902986111111,140.25301007479723L48.349774305555556,140.234342590043L48.36820677083333,140.1622293537598L48.4915625,140.12246948656258L48.60499305555555,140.11937026517882L48.78364618055556,140.07132528411248L48.91976284722222,139.98282911933262L48.94103107638889,139.94843825285216L48.94244895833334,140.0884523821188L48.959463541666665,139.9303599848095L49.0658046875,139.8987018272365L49.1423703125,139.90792255360407L49.18348888888889,139.84330927551443L49.28132274305556,139.73990164341475L49.282740624999995,139.71471829725448L49.29124791666666,139.65434021752773L49.47699045138889,139.49691755940822L49.482661979166664,139.41809228073873L49.61736076388889,139.30189384811757L49.78183506944445,139.16714480421297L49.81444635416666,139.2218649828833L50.06966510416667,139.02723530277453L50.117873090277776,138.74898620431236L50.1632453125,138.68209894751686L50.21570694444444,138.55401689367318L50.25398975694444,138.4839987270326L50.26391493055556,138.4008687406924L50.402867361111106,138.24308300298583L50.59002777777778,138.10610424814104L50.597117187500004,137.95265291423527L50.70204045138889,137.76677682735635L50.755919965277776,137.6070309628019L50.764427256944444,137.4909159347031L50.76584513888889,137.39395502305064L50.81121736111111,137.3142328161999L50.85091805555555,137.17208510276134L50.93315520833333,136.9812970470302L50.98987048611111,136.87495711505423L51.1458375,136.66611197173023L51.36702708333333,136.53094963819333L51.40814565972222,136.44198819710113L51.42941388888889,136.23118426375436L51.48187552083333,136.001233451015L51.642096180555555,135.74147942409502L51.64918559027778,135.62586841350358L51.71015451388889,135.4413639585167L51.73000486111111,135.30045199448307L51.9625375,135.2691709995802L51.98664149305556,135.05496696780386L52.15111579861111,134.86972595284152L52.15253368055556,134.7180942666482L52.28865034722222,134.64448086271062L52.355290798611115,134.62599868553048L52.587823437500006,134.48114029425008L52.807595138888885,134.41865126482503L52.844460069444445,134.2744139792516L53.07699270833333,133.94346405859906L53.10393246527777,133.7009216300118L53.11385763888889,133.53040333064698L53.22303454861111,133.49259027030953L53.41444861111111,133.37810397055128L53.482506944444445,133.1493560734961L53.53780434027778,132.88314205705555L53.61720572916667,132.78685910135L53.6342203125,132.4940396684877L53.689517708333334,132.33107036072983L53.96033315972222,132.13662809738406L54.13331475694444,131.83591983310018L54.22547708333333,131.6985352361538L54.25950625,131.52460500799293L54.29495329861111,131.43595132537547L54.480695833333336,131.0242880110197L54.53315746527778,130.89515466446318L54.63949861111111,130.66579544801687L54.86777760416667,130.47445738048788L54.91173194444444,130.3575656197118L55.094638715277775,130.19202212592245L55.131503645833334,129.98017786787565L55.819176388888884,129.653750990179L55.860294965277774,129.30465430025197L55.86171284722222,129.04829398386315L55.9311890625,128.8175696991132L55.93969635416667,128.7280854564746L56.00917256944444,128.58720872900895L56.477073611111116,128.2643117197444L56.56072864583333,128.13964191140633L56.66848767361111,127.83635953844752L56.898184548611106,127.66397358460276L56.927960069444445,127.53899668068793L56.98609322916667,127.40137542171004L57.0541515625,127.40574072044814L57.11370260416667,127.16830585294878L57.212954340277776,126.88924515401753L57.34339947916667,126.6883746158885L57.35048888888889,126.57547465429965L57.55041024305555,126.47009338205152L57.937492013888885,126.19548461202817L58.094876909722224,125.98856399173442L58.11472725694444,125.85010531983373L58.134577604166665,125.75189166285035L58.165771006944446,125.59938715565622L58.403975173611116,125.58281491736332L58.542927604166664,125.47236013017246L58.71590920138889,125.43329173079158L58.886055034722226,125.36795971680331L58.983888888888885,125.13316658603208L58.99806770833333,124.90425333651979L59.00090347222223,124.80634220741325L59.08455850694444,124.75844946394466L59.10724461805555,124.68517554027747L59.12993072916667,124.52368923624971L59.50141579861111,124.37332315353385L59.733948437500004,124.20530901999862L60.001928125,124.03901107254423L60.08983680555556,124.00625343119889L60.099761979166665,123.98054286080628L60.104015624999995,123.64564198381656L60.13946267361111,123.66353517179854L60.39184565972222,123.54387199552777L60.576170312500004,123.40851888688408L60.7548234375,123.25904483910476L60.895193750000004,123.17983069610338L61.00578854166666,122.79677660376576L61.021385243055555,122.47968417066193L61.051160763888895,122.38035211723209L61.19294895833333,122.16272883732708L61.337572916666666,122.02720879450345L61.431153125,121.96558166505311L61.533240625000005,121.84223372582053L61.584284374999996,121.6658512623294L61.753012326388884,121.52219227246007L61.76577326388889,121.46581111339589L62.019574131944445,121.29941466114721L62.23367430555555,121.21502717230521L62.809334375000006,120.84240229598377L62.897243055555556,120.62017911183995L63.08298559027777,120.46543392792867L63.166640625,120.11497008059035L63.261638715277776,119.97303273162223L63.348129513888885,119.72209309482363L63.413352083333336,119.69486958079582L63.44454548611111,119.48934569089806L63.57357274305556,119.33203043999006L63.68133177083333,119.27090125962744L63.77207621527778,119.09017477002833L64.31796076388889,118.7967822930255L64.38318333333332,118.9676864500866L64.44415225694443,118.84745189598702L64.65258090277779,118.7844964791156L64.68235642361111,118.58704114938587L64.85675590277779,118.49230010262909L64.9659328125,118.42714679691164L65.02264809027778,118.1598298444932L65.11622829861112,118.15557981458933L65.16585416666668,118.10901331040313L65.26652378472222,118.07967447936281L65.44517690972222,117.82196271324472L65.57562204861111,117.74338860101116L65.96553958333334,117.74055542272822L66.02367274305556,117.56955385772812L66.35262135416667,117.28994222195531L66.3795611111111,117.2142860679416L66.86305885416667,116.99282905205652L67.11402395833333,116.86642966957815L67.12111336805555,116.86078102080215L67.25581215277778,116.54142166872194L67.29834861111111,116.35456643366794L67.31678107638889,116.22662399484659L67.61595416666667,116.04862068627102L67.658490625,115.92361657218939L67.76483177083334,115.8940816195159L67.95624583333333,115.65882118483705L68.07109427083333,115.47474304362606L68.07818368055555,115.24370339835437L68.2937017361111,114.98045521760984L68.54466684027777,114.8742704913034L68.56877083333333,114.66807923762761L68.679365625,114.35679688204667L68.98421024305556,114.25263708020563L69.44076822916666,114.30471712218505L69.56554184027777,114.15296700087563L69.62367499999999,114.28792598260625L69.69173333333333,114.2560225888911L69.72718038194444,114.05634362545652L69.904415625,113.93194505836541L70.42336041666665,113.5610232798016L70.51835850694445,113.63700902000326L70.66298246527778,113.5696291407302L70.81327795138888,113.54921452211173L70.83454618055555,113.56604022899145L71.06849670138888,113.55855552427413L71.48960763888888,113.53673406275581L71.80012378472223,113.43161179284387L71.84266024305555,113.14340799992311L71.86392847222221,112.85888254083989L72.0766107638889,112.98496871857408L72.33324739583333,113.09593207398939L72.45093159722222,112.81364000295409L72.73592586805556,112.8537390708405L72.76428350694445,112.76411800466553L73.01524861111112,112.23593063601716L73.16412621527778,111.75553359514272L73.25345277777778,111.59219614471935L73.42785225694445,111.33582454161105L73.52426822916668,110.82224208744994L73.74120416666666,110.57372526506859L73.9467970486111,110.03578455674355L74.25305954861112,109.99162371470555L74.6032763888889,109.74571418414408L74.70819965277778,109.66016265209332L74.72237847222223,109.36191627324762L74.90953888888889,109.07840930501376L74.99177604166667,108.78553996542148L75.24983055555556,108.15739790069752L75.30938159722223,107.82086265608231L75.74750711805557,107.59843548138316L75.85951979166667,107.16443000142667L75.89354895833334,107.21129666037491L75.90630989583333,106.95428631251924L75.91907083333334,106.62743722672187L76.08212725694445,106.21761964041332L76.17428958333333,105.80855654000835L76.71024895833332,105.12109577237115L76.78114305555556,104.92225324058857L77.12568836805555,104.43656200743881L77.19091093749999,104.18549103396765L77.23344739583332,103.45417204420725L77.5709032986111,103.81675199887742L77.93955260416666,103.01419611717151L77.96365659722223,102.45783332363617L77.97358177083333,101.8062545367271L78.16924947916667,101.19720578759984L78.49961597222223,100.59123520883986L78.50245173611111,100.09614577886497L78.50812326388889,100.23134654188756L78.59886770833333,99.60882268315335L78.60170347222223,98.86752848301984L78.78886388888888,98.71074722562693L78.91505538194444,98.37102193488242L79.15467743055555,97.64539701412146L79.94160190972222,96.79119822180022L80.34144461805555,96.45989089962019L80.67748263888889,95.3521404460218L80.90576163194444,94.58898606051052L81.06031076388889,93.6582692726413L81.10568298611112,92.95136279992262L81.66007482638888,92.63947936083946L82.15633350694445,92.49455131111915L82.76602274305556,92.38925811182541L82.78587309027778,91.95004820973378L82.98295868055556,91.36116554785131L83.40974114583332,91.01470808397528L83.49056041666667,90.56964352557773L83.61108038194445,90.54118769574723L84.36681145833333,90.23901494889978L84.48733142361111,90.0927697040098L84.58232951388888,89.86309500633608L84.94672517361111,89.03035084661158L85.00769409722221,88.54487258013224L85.95909288194446,88.56049895848264L86.10371684027778,88.0440655399071L86.13349236111111,87.78795444046187L86.63967621527777,87.8189317236884L86.70064513888889,87.61550446041046L86.76870347222221,86.98237730982397L86.9757142361111,87.03859980611429L87.07213020833333,87.38336198459378L87.78957847222222,86.4667161270435L88.43187899305555,86.11189110524823L88.73246996527777,85.42547472199615L88.98059930555554,85.54939031797834L89.13940208333334,85.2309853770896L89.48252951388889,85.19835558938061L89.90647621527778,84.78682968953346L90.09080086805555,84.59245069785285L90.71325104166667,84.54573403715848L90.74302656249999,84.1567288152608L90.9443657986111,83.4646922973711L91.02660295138888,82.78403272672489L91.32435815972222,82.29463513587058L91.52002586805555,82.38216025864715L91.700096875,82.02094707369152L92.07725347222221,81.64054270723148L92.47709618055556,82.08009639105377L92.618884375,82.1513623201302L92.74649375,81.71517495175354L93.22006631944444,81.99389893385093L93.26118489583334,82.5967391541022L94.3416109375,82.20903967051017L94.36855069444445,82.46100502164096L94.40257986111111,82.10447838311322L95.69001666666666,82.25124645389282L95.90978836805556,81.91318146759444L95.98068246527777,82.02879513901682L96.04590503472222,82.75134176147876L96.24582638888889,82.71274167623996L96.47835902777777,83.12301580407052L96.62298298611111,83.08496138275437L96.66693732638889,82.80180615356984L96.85409774305556,82.74307440184923L97.64102222222223,82.98186355257342L97.6878123263889,82.82215731095242L97.799825,82.43454385258447L98.10041597222222,82.03540764914416L98.34996319444444,81.92006290695704L98.65906145833334,81.75842593444317L98.8589828125,82.04539584099885L99.0787545138889,81.41615455235349L99.09576909722222,81.09874364257269L100.28395416666667,80.36051700558815L100.80715260416667,80.47803064593843L101.33318680555556,79.67365087679912L101.36721597222223,79.26147044821013L101.52460086805556,78.63657340338911L101.66780694444445,78.3834132221411L101.70608975694445,79.30958894538155L101.83511701388889,79.77858743720704L101.98541250000001,79.04415198894088L102.31152534722222,78.99662599459224L102.34839027777778,79.09464805422392L102.64614548611111,78.41603552152881L102.93113975694443,77.57649162846685L103.0445703125,77.08740780652926L104.00589427083334,76.97156475314907L104.15902552083334,76.77679464147053L104.37312569444445,76.52858960914166L104.47237743055555,76.78793235277294L104.59431527777777,76.54615616295021L104.95303940972222,76.39895531938248L105.05229114583334,75.52981262835333L105.19124357638889,75.83120636551797L105.44504444444445,75.79824197896619L105.47198420138889,75.62275016743321L106.46733732638889,75.4270944688717L106.57793211805556,75.48231115834815L106.76509253472223,75.57726186069517L107.0160576388889,75.43643908371658L107.14792065972223,75.6818008571631L107.2046359375,75.31933099871951L107.21456111111111,75.60657403521121L107.37336388888889,76.2045103816901L107.46410833333333,76.13421559352109L107.76044565972222,75.86227130689628L108.18297447916666,75.65272031257028L108.31909114583333,75.52195112222233L108.83661805555556,75.06735544181828L108.84087170138889,76.04606023854555L108.9911671875,76.62519001014556L109.12586597222223,76.52036987276736L109.23929652777778,76.45368799912698L109.66324322916665,76.30316294921428L110.79754878472222,75.0865824497474L110.8386673611111,75.15322250022722L110.89963628472222,75.23079797747724L110.9308296875,74.91091420245677L111.1321689236111,74.83924039584745L111.35052274305555,74.23166578808089L111.41007378472223,73.59182307290918L111.58730902777778,73.92107826561826L112.12610416666668,73.63159827996554L112.62945225694445,73.98704640651444L112.81519479166667,73.25098381131754L113.59219409722223,73.67466383927669L113.8275625,73.86238211443995L114.02890173611111,74.59199617572321L114.47978819444444,74.44158917178727L114.62299427083333,74.03971718642673L114.67687378472222,73.15507785414772L114.79030434027779,73.06790813691475L114.89380972222223,72.5922110732233L114.97746475694444,71.97048996590097L115.05119461805556,72.12748926476543L115.34894982638889,72.43221192919798L115.42409756944446,72.47264130446L115.44394791666666,72.75039137855944L115.77856805555555,72.43467042252169L115.91893836805556,73.15117497117862L116.05363715277778,72.93365690587892L116.16706770833333,73.2030184880183L116.62220781250001,73.56612573012556L117.9493453125,73.25431429347665L118.16060972222222,72.47335729594718L118.31090520833334,72.054601111807L118.60866041666667,72.0950785006263L119.08506875,71.86500246874552L119.57282013888889,72.03255051732549L119.59834201388888,71.86403978377477L119.79117395833333,71.18691137357911L120.6390673611111,71.41724012258484L120.75249791666667,70.9155303148718L120.82764565972222,70.81095171520282L120.84749600694445,70.48300995277346L121.64718142361112,70.0571237302234L121.66419600694444,70.72476362992833L121.73083645833333,70.55880715329914L121.92933993055556,71.26176166524196L122.27955677083334,70.51160822599049L123.40819079861112,70.22868603975509L123.5996048611111,69.76034868577958L123.63079826388889,69.19302120356525L123.67758836805555,69.26823612866329L123.9725078125,68.90348637943332L124.60346527777777,68.48218603694453L125.21173663194445,68.8120214105228L126.08940555555556,68.47529370128869L126.1673890625,68.09178421752347L126.4226078125,68.22683875031657L127.14005607638889,68.22267760255765L127.32721649305554,68.27927347866552L127.4973623263889,68.08633192625352L127.51154114583333,67.6914345290827L127.53422725694445,67.19020300799262L128.1198125,68.09425088901152L128.87696145833334,67.64073489101946L129.27538628472223,67.4261642428266L129.41292083333335,67.74343418218031L129.64687135416668,67.62670440032592L130.07790746527778,67.40599418756605L130.86199618055556,67.07410215517307L131.02079895833333,67.94701864420122L131.5170576388889,67.06069746159928L132.30681788194445,67.87209930634845L132.97322239583335,66.79967630753178L133.46097378472223,66.77229390405134L133.46239166666666,66.11909860455529L133.5247784722222,66.45896431228157L133.59000104166665,65.92761333559886L133.75305746527778,65.34128666112989L134.50028125,64.83119208592598L136.0542798611111,64.563186513697L136.27546944444444,64.75442468050912L136.5037484375,64.63991971245821L136.61150746527778,64.75560103666693L137.7160375,65.10862047845478L137.75290243055557,65.25537206697292L138.0322251736111,64.94746270118473L138.21938559027777,64.76085563561172L138.3285625,65.05803711750508L139.2374248263889,65.29532999666365L139.29839374999997,66.04441915608821L139.55361249999999,66.39929542229757L139.56495555555557,66.20578633461325L139.6145814236111,65.7148383829701L139.99315590277777,65.89399374921855L140.17322690972222,65.75604323793306L140.30792569444444,65.5438906186852L140.50926493055553,65.82059530681668L140.72336510416667,65.55924600340774L140.98425538194445,65.94252594852152L141.95692239583335,65.45779039912392L142.15684375,65.05672726830242L142.42765920138888,65.13072783692672L142.7622793402778,64.71962948505225L142.85018802083331,64.34461255927428L143.0472736111111,64.42696948516502L143.47830972222224,64.45834924119397L143.62576944444444,64.68269897616548L144.50769201388889,64.92986941945802L144.76716440972223,65.5571097502395L145.08760572916668,66.15682491157918L145.10745607638887,66.63874185223945L145.28469131944442,65.85307789428823L145.6150578125,66.32765646849575L145.82915798611108,66.17399593528255L145.90288784722222,67.07406793266338L145.93124548611112,67.16758443485158L145.9751998263889,67.04809871863915L146.2460152777778,66.76959566495705L147.29241215277779,66.4560878030068L147.84680399305554,66.85528015906975L147.86523645833333,66.56086009770823L147.9120265625,66.88923431521013L148.44373229166666,66.85038190641639L148.63514635416666,66.77267326122929L149.05483940972223,65.87304798056091L149.26893958333332,66.28277443250482L149.3568482638889,65.35671289834524L149.91407586805556,64.75456433578344L150.35503715277778,65.4521334703869L150.50958628472222,65.11700535062093L150.62727048611112,65.60736447464974L150.9718157986111,65.74698314082113L151.21852725694444,65.46031039492082L151.34897239583333,65.29281628724694L151.40285190972222,65.22001193124952L151.55314739583332,65.1896868744882L152.0408987847222,65.26547670976666L153.79907239583335,63.99110233424453L154.02309774305556,63.99315687354735L154.20884027777777,64.58835823164713L154.62853333333334,64.58348547666424L154.71785989583333,64.12402897445237L155.40411475694447,63.43144141791622L156.03649010416666,62.85336829885186L156.47036197916665,62.813315559875775L156.95669548611113,62.4831061629791L157.06161874999998,62.51276429668121L158.25122170138889,62.14724070792218L159.32172256944443,61.92386606894813L159.51597239583333,61.177246507507846L159.71731163194443,61.588911061302525L159.95976944444442,61.144806886990466L160.36811944444443,60.777797789200505L160.89131788194445,60.329321987553186L161.0231809027778,60.12934433425241L161.18907309027776,60.41952069628171L161.2316095486111,59.88619078574443L161.2571314236111,59.58973079807909L161.3039215277778,59.90872646827117L161.4995892361111,58.87837938962586L162.09226388888888,58.28797042793599L164.60191493055555,58.58880406696056L164.60758645833334,58.31900036480998L164.6345262152778,58.194344646510814L165.06698020833335,57.780449954587L166.45083298611112,57.752390754582834L166.4947873263889,57.87044713367001L166.85351145833334,57.810760374848456L167.71983732638887,57.38745422372723L167.77513472222222,57.0542485740818L167.8446109375,56.12581235303723L167.9027440972222,55.984140208642614L168.05303958333332,55.46693357414199L168.33803385416667,54.65700158036415L170.44784218750002,54.252395172327724L170.96253333333334,53.72482610964039L171.03768107638888,53.893650316858185L171.15820104166667,53.66846142153598L172.24146284722224,53.97617493847329L172.47683124999998,53.6647932400805L173.2779345486111,53.50271732516336L173.31621736111111,54.61897968355612L173.36726111111113,54.50479478338234L173.69620972222222,55.58873291868045L174.04217291666666,55.078382354085136L174.11164913194443,55.727831050494785L174.4221652777778,55.56310192271806L174.4547765625,55.22125195771896L174.59656475694445,55.44911255740162L175.47281579861112,56.516559256206904L175.5678138888889,56.066792535131654L176.48092986111112,56.14472975889123L176.82689305555556,55.82014314663846L176.94457725694443,55.43498962742916L177.00271041666667,55.116007710140764L177.13599131944443,54.64287284821759L177.40113524305556,54.55646908612309L177.96261649305555,54.01106365478351L179.47266076388888,53.86464478930516L180.0029486111111,53.42613485582919L181.9071640625,52.71971455206446L182.37222934027778,52.5867771877671L182.52110694444445,52.99511651444493L182.54095729166667,52.809496908454975L182.87557743055555,53.07739664942764L183.34489635416668,53.406503575393984L184.16585,53.70018560421822L185.05060833333332,52.32775227106913L185.59365711805557,52.070587839416746L185.68014791666667,51.328756328202346L185.722684375,50.56808239992756L185.8375328125,50.88915768266207L185.8843229166667,50.82362259621405L186.23170399305556,50.133575677501724L186.2714046875,50.661524927933385L186.590428125,50.658980389685496L186.6216215277778,50.49829541889875L186.64288975694444,50.275738604281614L187.65100381944444,49.844130652944344L187.72756944444444,49.31740224674081L188.18554531249998,49.62777849933947L188.20255989583336,48.85115121758733L188.530090625,50.18366393673769L188.88030746527778,50.228905497609375L188.91150086805555,50.31487858421207L188.95970885416665,50.63110379397267L189.0022453125,49.86979739184814L189.33261180555556,49.64974947084512L189.67148559027777,48.83321202376061L189.9975984375,48.99841354865728L191.3460041666667,48.87807503470063L191.64517725694446,49.066446508503304L191.96987222222222,48.37360867583479L192.24494131944445,47.727426785524045L192.34135729166667,48.33508183424436L192.4165050347222,48.585295241729L192.99641875,48.68729128573793L193.44163368055555,48.60560761170959L194.1902753472222,48.1273053732659L194.36325694444443,48.28767142684839L195.03816875,48.05487019325446L195.35577430555557,48.411045105747206L195.60957517361112,48.57320764062703L195.93001649305555,48.48281869474613L197.028875,48.054508416180624L197.75766631944444,48.131642801835284L197.99445260416667,48.79693022619722L198.4098920138889,48.12098720357747L198.6438425347222,47.15562143776518L198.67928958333331,45.22076952126139L199.28047152777776,44.507712455498876L199.39815572916666,44.04195541449445L199.59524131944443,43.78368316849955L199.88590711805554,43.68449098801321L200.47858177083333,43.250772002848265L200.97058680555554,43.63982832529072L201.23147708333332,43.86426878821618L201.3519970486111,44.18946122757637L201.38602621527775,44.042148627546L201.8681060763889,43.962365582973234L203.03502291666666,44.10426822922136L204.06015156249998,44.16912549720831L204.09843437499998,44.116872038396565L204.4812625,43.265298470920555L204.95625295138888,43.39896748746486L204.966178125,43.931599147809266L204.99028211805555,44.54422048302834L205.03281857638888,44.77627570745281L205.48086927083335,45.002724841252956L206.1954817708333,44.588034743491306L208.32514045138888,44.566802291869436L208.44424253472224,43.883943085409754L209.0284098958333,43.50570502686878L209.68347135416667,43.86675384236372L210.12585052083335,43.23630004903643L210.13861145833334,43.372868907769174L210.28181753472222,42.64095133517404L210.29316059027778,43.07339029256576L211.06448836805558,42.80889217240008L211.12971093750002,41.96994897788733L211.21053020833332,41.72025521646222L212.39729739583333,42.15425242208872L212.9743753472222,42.562449338970765L213.02258333333333,42.5853805414373L213.83928333333333,41.94226862365721L214.0136828125,42.59291392038239L214.307184375,42.155213437435066L214.34404930555553,42.17612675278244L214.68434097222223,41.19429532750419L214.80060729166667,41.11267829475378L215.19619635416666,41.159904783460206L216.5658703125,41.60468135056874L216.58997430555556,40.9087870791482L216.6112425347222,41.828718030324325L217.2095887152778,41.6660592954737L217.9086045138889,42.148217570471786L218.3977737847222,41.4960236543337L218.51687586805556,41.155441175263974L218.68985746527778,40.68800785319212L218.72105086805556,40.27988888605472L219.60439131944443,39.53796533835833L219.97162274305555,39.865859145431614L220.47071718750001,40.30175902634298L220.63802725694444,39.899580282799576L220.9400361111111,38.743130777246876L220.9995871527778,39.530152926794926L221.94247864583335,40.41949558866088L222.12680329861112,39.08031591615844L222.28418819444445,39.217639438178935L223.31498836805554,38.644795948906506L223.6382654513889,39.0368646494704L223.69356284722224,39.85234011634154L223.8707980902778,40.842716900161946L223.87363385416666,40.6931753237821L224.056540625,40.44042029140388L224.16713541666667,40.791207807718024L224.46489062499998,40.506021686037116L225.33972378472222,40.94076042652432L225.49001927083333,40.95992302023552L226.04157534722222,40.60506708184832L226.7973064236111,40.3334666236635L226.93484097222222,39.696810302206245L227.425428125,38.829657681076526L227.8110920138889,38.87890782205977L228.4845859375,39.15453976712652L229.33531510416665,38.545264767686604L229.49695364583334,38.62546840455431L229.58628020833333,37.87802099591704L230.06268854166666,37.73078707814352L230.488053125,37.45245268851099L231.13744305555556,38.48168185147807L231.1643828125,38.08551650723936L231.43378038194444,38.566197811060874L231.59683680555557,39.418683143591124L232.6035329861111,40.20351937468655L232.6985310763889,39.941903232672445L232.80629010416666,38.87927540940518L233.42448663194443,38.34781093664648L233.98880364583331,38.9229446157091L234.53185243055555,39.563760949592734L234.85371163194446,40.00975701372437L235.34288090277778,38.96548585780644L236.53531961805555,38.22426397657125L236.78628472222223,38.266169965277754L237.37045208333333,38.54273478693182L237.37328784722223,38.63073403551135L237.63984965277777,39.074493018323864L237.736265625,39.48393292103694L238.05528906249998,39.78454531075141L238.26371770833333,40.728903279676274L238.29632899305557,39.59511806534502L238.41826684027777,39.48988182699233L239.04638854166666,39.22168909883854L240.22890208333334,38.992886666227406L241.02291597222222,38.57325709051378L241.12642135416667,37.41367285873511L241.16470416666667,37.75788795922523L241.34902881944444,39.34741166330272L241.43551961805557,39.704417656063356L241.93319618055557,38.81890486772974L242.28341302083334,38.419187676411326L243.00086128472222,37.75270924967927L243.03914409722222,37.321330370165896L243.30145225694443,37.312734264967474L243.73957777777778,37.00580742937984L244.91925555555554,37.649772140987295L245.63812170138888,37.43233754052494L245.6551362847222,38.14427424101788L245.95572725694444,37.98550022600702L246.25206458333332,37.9984842943154L246.53705885416667,37.42687450124748L246.8702611111111,37.67171546021365L247.95777656250002,37.49734220964683L248.0159097222222,38.33603128413668L248.01874548611113,37.41136281481391L248.03576006944445,37.087030510605246L248.0414315972222,36.45319961863564L248.0442673611111,36.15428590677206L248.047103125,37.72063288427668L248.05135677083334,37.37794459584899L248.05561041666667,37.848928545354994L248.06837135416666,37.2771890999104L248.07687864583332,37.335862235373895L248.07971440972224,37.62248908001834L248.0953111111111,37.85531119474376L248.09672899305556,37.40110109799667L248.10523628472222,37.69628928365154L248.11516145833332,37.994643309831815L248.14919062500002,37.50135795612135L248.15060850694445,37.51498636505468L248.15344427083335,37.4317121603674L248.15769791666668,36.44159492160338L248.16053368055555,36.209210997624865L248.19030920138889,35.95732398877149L248.19456284722222,36.02981602171252L248.200234375,36.07745941954124L248.20165225694444,36.15302313667803L248.20307013888888,35.63773502755569L248.20590590277777,35.9961206157092L248.21157743055556,35.78565628141101L248.2158310763889,36.12170713054263L248.21866684027776,35.9263403947611L248.22150260416666,35.936561468921326L248.23142777777778,36.33294793566557L248.2356814236111,35.47282075573537L248.23709930555555,36.403336975616384L248.24135295138888,36.3558015735093L248.24844236111113,36.164681643431095L248.25978541666666,35.13281575181526L248.26545694444445,35.30787224481554L248.26829270833332,35.24668729306126L248.27112847222222,35.322359472846045L248.27254635416668,35.59160079828871L248.28105364583334,35.23553730936894L248.28672517361113,34.78685573752293L248.2895609375,34.06122414104337L248.29239670138887,34.076934113302656L248.2966503472222,34.03073217924512L248.30941128472222,35.04763055222969L248.3122470486111,34.788705565188536L248.31366493055555,35.58398273594241L248.31933645833334,35.10548503052999L248.32642586805557,34.32536266384062L248.32926163194443,33.24360764745654L248.3434404513889,33.22291165543817L248.34627621527778,32.94783639898526L248.34911197916665,32.87123457726855L248.36754444444443,34.25550316499624L248.37321597222223,34.1939585303148L248.37605173611112,34.23662233637421L248.39023055555558,34.139252716373164L248.39731996527777,33.61917687655401L248.404409375,33.53829612071681" style="fill: none;" fill="none"></path></g></g></g></g><g opacity="0.2"><g><g><g><path stroke="rgb(255, 112, 67)" stroke-width="2px" d="M28.608603993055553,154.65737705924295L28.7248703125,155.90014664736663L28.736213368055555,155.18494814092463L28.788674999999998,155.52869318181817L29.294858854166666,152.88877840909092L29.303366145833333,153.48651028373024L29.311873437499997,154.05747778805818L29.333141666666666,153.74360795454547L29.352992013888887,152.4865056818182L29.44940798611111,155.0509943181818L29.466422569444447,153.29105113636365L29.5032875,153.4921875L29.805296354166668,153.215625L29.890369270833332,152.6041055124456L29.925816319444444,152.51164772727273L29.962681250000003,152.96420454545455L29.97686006944444,153.5424715909091L30.01797864583333,151.75738636363636L30.139916493055555,152.34457466125488L30.40080677083333,151.95852272727274L30.528416145833333,151.55625L30.559609548611114,152.86363636363637L30.563863194444444,152.31051136363635L30.69714409722222,151.02826704545456L30.84035017361111,151.07855113636364L31.061539756944445,151.88309659090908L31.108329861111113,152.6625L31.12109079861111,150.32428977272727L31.265714756944448,151.15073323683305L31.326683680555558,152.109375L31.363548611111113,151.2796875L31.474143402777777,150.80198863636363L31.641453472222224,151.55625L31.686825694444448,149.99744318181817L31.69533298611111,151.0534090909091L31.89667222222222,150.95284090909092L31.906597395833334,149.57002840909092L31.985998784722224,150.09801136363637L32.12920486111111,150.65113636363637L32.13345850694444,149.7208806818182L32.201516840277776,150.95284090909092L32.22562083333333,150.90255681818184L32.29084340277778,148.8409090909091L32.33763350694444,150.92769886363635L32.35039444444445,148.41349431818182L32.50636145833333,149.21803977272728L32.744565625,147.86036931818182L32.77859479166667,147.73465909090908L32.78426631944444,148.61463068181817L32.886353819444444,147.4078125L33.042320833333335,147.35752840909092L33.19828784722222,145.64786931818182L33.35141909722223,145.09474431818182L33.454924479166664,144.6421875L33.617980902777774,144.61704545454546L33.74842604166667,144.61704545454546L33.89872152777778,144.61704545454546L34.010734201388885,144.26505681818182L34.14968663194445,143.58622159090908L34.19647673611111,144.03877840909092L34.22058072916666,143.46051136363636L34.30281788194444,143.4353693181818L34.655870486111105,143.3096590909091L34.74519704861111,143.28451704545455L34.786315625,143.259375L34.928103819444445,142.95767045454545L34.95787934027778,143.0833806818182L34.97914756944445,142.95767045454545L35.006087326388894,142.78167613636364L35.164890104166666,143.61136363636365L35.2329484375,142.90738636363636L35.34212534722222,143.51079545454544L35.364811458333335,143.51079545454544L35.39600486111111,142.83196022727273L35.51085329861111,143.58622159090908L35.69659583333333,142.4799715909091L35.794429687500006,142.7565340909091L36.215540625,143.56107954545456L36.34173211805555,143.05823863636363L36.46792361111111,143.38508522727273L36.54023559027778,143.72450284090908L36.63098003472222,143.03309659090908L36.98261475694445,143.1085227272727L36.98545052083333,142.65596590909092L37.28320572916667,142.90738636363636L37.67737690972222,142.55539772727272L37.70006302083333,142.90738636363636L37.72700277777778,142.78167613636364L37.822000868055554,142.22855113636365L37.98080364583333,143.20909090909092L38.00490763888889,142.63082386363635L38.07154809027778,142.85710227272727L38.1424421875,142.60568181818184L38.29982708333333,142.40454545454546L38.48131597222223,142.65596590909092L38.52385243055555,143.1085227272727L38.5252703125,142.85710227272727L38.779071180555555,142.78167613636364L38.808846701388894,142.55539772727272L39.07540850694444,142.3794034090909L39.137795312499996,141.9268465909091L39.218614583333334,142.68110795454544L39.4951015625,142.27883522727274L39.61562152777778,142.60568181818184L39.62838246527778,142.4799715909091L39.740395138888886,141.7005681818182L39.90061579861111,142.07769886363636L40.04665763888889,142.3794034090909L40.060836458333334,141.34857954545456L40.14023784722222,142.1028409090909L40.28911545138889,142.153125L40.37702413194444,142.20340909090908L40.40963541666667,141.7508522727273L40.56985607638889,141.57485795454545L40.65067534722222,142.30397727272728L40.823656944444444,141.95198863636364L40.86761128472222,141.3737215909091L40.935669618055556,141.3737215909091L41.03492135416667,141.7257102272727L41.04768229166667,141.8765625L41.08171145833334,141.9268465909091L41.1412625,141.19772727272726L41.178127430555556,141.57485795454545L41.2561109375,141.57485795454545L41.35678055555555,141.27315340909092L41.36670572916667,141.8765625L41.458868055555556,141.44914772727273L41.461703819444445,141.44914772727273L41.72117621527777,140.79545454545456L41.773637847222226,141.47428977272727L41.83602465277778,141.27315340909092L41.984902256944444,141.24801136363635L42.101168576388886,140.89602272727274L42.19474878472222,141.29829545454544L42.4301171875,140.87088068181816L42.56198020833334,140.79545454545456L42.58891996527778,140.97144886363637L42.615859722222226,141.07201704545454L42.6598140625,141.02173295454546L42.668321354166665,141.3737215909091L42.71936510416666,140.89602272727274L42.80443802083333,140.92116477272728L42.84981024305556,141.29829545454544L42.991598437499995,140.51889204545455L43.04547795138889,141.57485795454545L43.11778993055556,141.14744318181818L43.19151979166667,141.80113636363637L43.24398142361111,140.51889204545455L43.25532447916667,140.79545454545456L43.33472586805556,141.39886363636364L43.3489046875,141.17258522727272L43.465171006944445,140.94630681818182L43.4765140625,140.51889204545455L43.54599027777778,141.22286931818184L43.578601562500005,140.60688920454544L43.663674479166666,140.97144886363637L43.72747916666667,140.3680397727273L43.90613229166667,140.53146306818184L43.92740052083333,140.44346590909092L44.04508472222222,139.78977272727272L44.12590399305555,140.24232954545454L44.152843749999995,140.3680397727273L44.21523055555556,140.19204545454545L44.27761736111111,139.96576704545456L44.36694392361111,140.01605113636364L44.40664461805556,140.79545454545456L44.44067378472222,140.51889204545455L44.49171753472222,140.44346590909092L44.52574670138889,140.74517045454544L44.61081961805556,140.2171875L44.83484496527778,139.68920454545454L44.867456250000004,139.76463068181818L44.873127777777775,140.19204545454545L44.93551458333334,140.11661931818182L45.01916961805556,140.89602272727274L45.070213368055555,140.64460227272727L45.073049131944444,140.3177556818182L45.09431736111111,140.3177556818182L45.11274982638889,140.06633522727273L45.26020954861111,140.06633522727273L45.531025,140.3428977272727L45.550875347222224,140.79545454545456L45.589158159722224,140.46860795454546L45.597665451388885,139.940625L45.621769444444446,140.50632102272726L45.65296284722222,140.79545454545456L45.68699201388889,139.940625L45.80751197916666,139.89034090909092L45.92803194444445,140.29261363636363L45.952135937499996,140.29261363636363L46.08116319444444,140.89602272727274L46.105267187500004,140.09147727272727L46.20593680555556,140.2171875L46.231458680555555,140.14176136363636L46.29526336805556,139.7143465909091L46.305188541666666,139.76463068181818L46.34063559027778,140.0411931818182L46.36332170138889,140.14176136363636L46.4370515625,140.29261363636363L46.512199305555555,139.89034090909092L46.52212447916666,140.26747159090908L46.52354236111111,140.09147727272727L46.65824114583333,139.9909090909091L46.6922703125,139.86519886363635L46.85249097222222,139.68920454545454L46.97726458333333,140.79545454545456L47.04674079861111,140.3931818181818L47.09211302083333,140.6697443181818L47.164425,139.31207386363636L47.21546875,140.3177556818182L47.33882447916667,139.36235795454544L47.49479149305556,139.76463068181818L47.93433489583333,139.86519886363635L47.999557465277775,139.78977272727272L48.05627274305555,140.24232954545454L48.158360243055554,140.14176136363636L48.18388211805555,141.02173295454546L48.25902986111111,141.3234375L48.349774305555556,140.06633522727273L48.36820677083333,139.51321022727274L48.4915625,139.76463068181818L48.60499305555555,140.09147727272727L48.78364618055556,139.63892045454546L48.91976284722222,139.18636363636364L48.94103107638889,139.63892045454546L48.94244895833334,141.34857954545456L48.959463541666665,138.50752840909092L49.0658046875,139.6137784090909L49.1423703125,139.9909090909091L49.18348888888889,139.26178977272727L49.28132274305556,138.80923295454545L49.282740624999995,139.48806818181816L49.29124791666666,139.1109375L49.47699045138889,138.08011363636365L49.482661979166664,138.70866477272727L49.61736076388889,138.25610795454546L49.78183506944445,137.9544034090909L49.81444635416666,139.7143465909091L50.06966510416667,137.2755681818182L50.117873090277776,136.2447443181818L50.1632453125,138.08011363636365L50.21570694444444,137.4012784090909L50.25398975694444,137.85383522727273L50.26391493055556,137.65269886363637L50.402867361111106,136.82301136363637L50.59002777777778,136.87329545454546L50.597117187500004,136.5715909090909L50.70204045138889,136.09389204545454L50.755919965277776,136.1693181818182L50.764427256944444,136.44588068181818L50.76584513888889,136.5213068181818L50.81121736111111,136.59673295454544L50.85091805555555,135.8927556818182L50.93315520833333,135.26420454545456L50.98987048611111,135.91789772727273L51.1458375,134.7865056818182L51.36702708333333,135.31448863636365L51.40814565972222,135.64133522727272L51.42941388888889,134.33394886363635L51.48187552083333,133.93167613636365L51.642096180555555,133.4036931818182L51.64918559027778,134.58536931818182L51.71015451388889,133.78082386363636L51.73000486111111,134.03224431818182L51.9625375,134.98764204545455L51.98664149305556,133.1271306818182L52.15111579861111,133.20255681818182L52.15253368055556,133.35340909090908L52.28865034722222,133.98196022727274L52.355290798611115,134.4596590909091L52.587823437500006,133.17741477272727L52.807595138888885,133.85625L52.844460069444445,132.97627840909092L53.07699270833333,130.96491477272727L53.10393246527777,131.51803977272726L53.11385763888889,131.99573863636363L53.22303454861111,133.15227272727273L53.41444861111111,132.34772727272727L53.482506944444445,131.090625L53.53780434027778,130.4872159090909L53.61720572916667,131.9203125L53.6342203125,129.85866477272725L53.689517708333334,130.8643465909091L53.96033315972222,130.38664772727273L54.13331475694444,129.12954545454545L54.22547708333333,130.46207386363636L54.25950625,129.95923295454546L54.29495329861111,130.6380681818182L54.480695833333336,127.31931818181818L54.53315746527778,129.73295454545456L54.63949861111111,128.6015625L54.86777760416667,128.75241477272726L54.91173194444444,129.3055397727273L55.094638715277775,128.70213068181818L55.131503645833334,128.07357954545455L55.819176388888884,126.7159090909091L55.860294965277774,126.16278409090908L55.86171284722222,126.74105113636364L55.9311890625,126.74105113636364L55.93969635416667,127.92272727272727L56.00917256944444,127.31931818181818L56.477073611111116,125.35823863636364L56.56072864583333,127.01761363636363L56.66848767361111,125.10681818181818L56.898184548611106,126.11250000000001L56.927960069444445,126.41420454545455L56.98609322916667,126.16278409090908L57.0541515625,127.44502840909091L57.11370260416667,125.03139204545455L57.212954340277776,124.37769886363637L57.34339947916667,124.88053977272727L57.35048888888889,125.55937499999999L57.55041024305555,125.52166193181819L57.937492013888885,123.72400568181818L58.094876909722224,124.12627840909092L58.11472725694444,124.60397727272726L58.134577604166665,124.86796874999999L58.165771006944446,124.22684659090909L58.403975173611116,125.43366477272727L58.542927604166664,124.47826704545454L58.71590920138889,125.08167613636363L58.886055034722226,124.77997159090908L58.983888888888885,123.02002840909091L58.99806770833333,122.84403409090909L59.00090347222223,123.92514204545455L59.08455850694444,124.32741477272727L59.10724461805555,124.02571022727273L59.12993072916667,123.0703125L59.50141579861111,123.02002840909091L59.733948437500004,122.69318181818181L60.001928125,122.54232954545455L60.08983680555556,123.71143465909091L60.099761979166665,123.74914772727273L60.104015624999995,120.63153409090908L60.13946267361111,123.82457386363637L60.39184565972222,122.46690340909092L60.576170312500004,122.1903409090909L60.7548234375,121.91377840909091L60.895193750000004,122.46690340909092L61.00578854166666,119.34928977272727L61.021385243055555,119.62585227272727L61.051160763888895,121.48636363636363L61.19294895833333,120.20411931818182L61.337572916666666,120.8075284090909L61.431153125,121.41093749999999L61.533240625000005,120.73210227272727L61.584284374999996,120.07840909090909L61.753012326388884,120.22926136363637L61.76577326388889,120.95838068181818L62.019574131944445,119.8018465909091L62.23367430555555,120.45553977272726L62.809334375000006,117.48877840909091L62.897243055555556,118.62017045454544L63.08298559027777,119.07272727272726L63.166640625,116.96079545454545L63.261638715277776,118.69559659090909L63.348129513888885,117.46363636363637L63.413352083333336,119.44985795454545L63.44454548611111,117.63963068181818L63.57357274305556,117.91619318181819L63.68133177083333,118.72073863636363L63.77207621527778,117.46363636363637L64.31796076388889,116.15625L64.38318333333332,120.50582386363637L64.44415225694443,117.76534090909091L64.65258090277779,118.21789772727273L64.68235642361111,116.80994318181818L64.85675590277779,117.63963068181818L64.9659328125,117.84076704545456L65.02264809027778,115.75397727272727L65.11622829861112,118.11732954545455L65.16585416666668,117.68991477272726L65.26652378472222,117.81562500000001L65.44517690972222,115.50255681818182L65.57562204861111,117.0362215909091L65.96553958333334,117.71505681818181L66.02367274305556,116.03053977272727L66.35262135416667,114.7734375L66.3795611111111,116.53338068181819L66.86305885416667,114.99971590909091L67.11402395833333,115.72883522727273L67.12111336805555,116.80994318181818L67.25581215277778,113.66718750000001L67.29834861111111,114.67286931818182L67.31678107638889,115.07514204545456L67.61595416666667,114.44659090909092L67.658490625,114.79857954545454L67.76483177083334,115.62826704545455L67.95624583333333,113.54147727272726L68.07109427083333,113.81803977272727L68.07818368055555,113.16434659090909L68.2937017361111,112.6112215909091L68.54466684027777,113.91860795454545L68.56877083333333,112.81235795454545L68.679365625,111.55525568181818L68.98421024305556,113.31519886363637L69.44076822916666,114.7734375L69.56554184027777,112.7872159090909L69.62367499999999,115.50255681818182L69.69173333333333,113.96889204545455L69.72718038194444,112.25923295454545L69.904415625,112.81235795454545L70.42336041666665,110.22272727272727L70.51835850694445,114.32088068181818L70.66298246527778,112.96321022727273L70.81327795138888,113.36548295454546L70.83454618055555,113.71747159090908L71.06849670138888,113.49119318181818L71.48960763888888,113.34034090909091L71.80012378472223,112.48551136363636L71.84266024305555,110.54957386363637L71.86392847222221,110.29815340909092L72.0766107638889,114.11974431818182L72.33324739583333,114.09460227272727L72.45093159722222,110.27301136363636L72.73592586805556,113.21463068181819L72.76428350694445,111.95752840909091L73.01524861111112,107.48224431818181L73.16412621527778,107.43196022727273L73.25345277777778,110.1221590909091L73.42785225694445,109.02848011363636L73.52426822916668,106.2L73.74120416666666,108.33707386363636L73.9467970486111,105.19431818181818L74.25305954861112,109.59417613636364L74.6032763888889,107.53252840909092L74.70819965277778,108.89019886363636L74.72237847222223,106.67769886363637L74.90953888888889,106.52684659090909L74.99177604166667,106.14971590909092L75.24983055555556,102.50411931818182L75.30938159722223,104.79204545454546L75.74750711805557,105.5965909090909L75.85951979166667,103.25838068181818L75.89354895833334,107.63309659090909L75.90630989583333,104.64119318181818L75.91907083333334,103.68579545454546L76.08212725694445,102.52926136363637L76.17428958333333,102.12698863636363L76.71024895833332,98.93394886363636L76.78114305555556,103.13267045454545L77.12568836805555,100.0653409090909L77.19091093749999,101.92585227272727L77.23344739583332,96.87230113636363L77.5709032986111,107.0799715909091L77.93955260416666,95.79119318181819L77.96365659722223,97.45056818181818L77.97358177083333,95.94204545454545L78.16924947916667,95.71576704545454L78.49961597222223,95.1375L78.50245173611111,95.64034090909091L78.50812326388889,101.4481534090909L78.59886770833333,94.00610795454546L78.60170347222223,92.19588068181818L78.78886388888888,97.2997159090909L78.91505538194444,95.31349431818182L79.15467743055555,91.11477272727272L79.94160190972222,89.1034090909091L80.34144461805555,93.478125L80.67748263888889,85.38238636363637L80.90576163194444,87.7205965909091L81.06031076388889,85.28181818181818L81.10568298611112,86.58920454545455L81.66007482638888,89.83252840909091L82.15633350694445,91.19019886363637L82.76602274305556,91.44161931818182L82.78587309027778,87.9971590909091L82.98295868055556,86.06122159090908L83.40974114583332,87.8965909090909L83.49056041666667,86.56406249999999L83.61108038194445,90.28508522727273L84.36681145833333,87.51946022727273L84.48733142361111,88.7765625L84.58232951388888,87.79602272727271L84.94672517361111,81.53565340909091L85.00769409722221,84.17556818181818L85.95909288194446,88.70113636363637L86.10371684027778,83.39616477272727L86.13349236111111,85.48295454545453L86.63967621527777,88.09772727272727L86.70064513888889,85.78465909090909L86.76870347222221,81.28423295454546L86.9757142361111,87.54460227272727L87.07213020833333,90.4862215909091L87.78957847222222,78.2169034090909L88.43187899305555,82.91846590909091L88.73246996527777,79.24772727272727L88.98059930555554,86.66463068181818L89.13940208333334,82.3653409090909L89.48252951388889,84.90468750000001L89.90647621527778,81.0830965909091L90.09080086805555,82.84303977272727L90.71325104166667,84.1252840909091L90.74302656249999,80.65568181818182L90.9443657986111,77.23636363636365L91.02660295138888,76.6580965909091L91.32435815972222,77.89005681818182L91.52002586805555,83.16988636363635L91.700096875,78.77002840909091L92.07725347222221,78.2169034090909L92.47709618055556,86.03607954545454L92.618884375,82.79275568181818L92.74649375,77.78948863636363L93.22006631944444,84.50241477272728L93.26118489583334,88.02230113636364L94.3416109375,78.71974431818181L94.36855069444445,84.72869318181817L94.40257986111111,78.89573863636363L95.69001666666666,83.5721590909091L95.90978836805556,78.87059659090909L95.98068246527777,83.06931818181819L96.04590503472222,89.25426136363636L96.24582638888889,82.3653409090909L96.47835902777777,86.81548295454546L96.62298298611111,82.7424715909091L96.66693732638889,80.25340909090909L96.85409774305556,82.21448863636364L97.64102222222223,85.1309659090909L97.6878123263889,81.38480113636365L97.799825,78.94602272727273L98.10041597222222,78.44318181818183L98.34996319444444,80.88196022727271L98.65906145833334,80.30369318181819L98.8589828125,84.628125L99.0787545138889,75.75298295454546L99.09576909722222,78.24204545454545L100.28395416666667,73.71647727272727L100.80715260416667,81.53565340909091L101.33318680555556,72.43423295454545L101.36721597222223,75.5518465909091L101.52460086805556,73.0125L101.66780694444445,76.10497159090909L101.70608975694445,87.64517045454545L101.83511701388889,83.99957386363637L101.98541250000001,72.43423295454545L102.31152534722222,78.56889204545453L102.34839027777778,79.9768465909091L102.64614548611111,72.30852272727273L102.93113975694443,70.0205965909091L103.0445703125,72.6856534090909L104.00589427083334,75.92897727272727L104.15902552083334,75.02386363636363L104.37312569444445,74.29474431818183L104.47237743055555,79.12201704545454L104.59431527777777,74.37017045454546L104.95303940972222,75.07414772727273L105.05229114583334,67.70752840909091L105.19124357638889,78.54375L105.44504444444445,75.50156249999999L105.47198420138889,74.04332386363636L106.46733732638889,73.66619318181817L106.57793211805556,75.97926136363637L106.76509253472223,76.43181818181817L107.0160576388889,74.1690340909091L107.14792065972223,77.89005681818182L107.2046359375,72.05710227272728L107.21456111111111,78.19176136363636L107.37336388888889,81.5859375L107.46410833333333,75.50156249999999L107.76044565972222,73.41477272727273L108.18297447916666,73.76676136363636L108.31909114583333,74.34502840909092L108.83661805555556,70.97599431818182L108.84087170138889,84.8544034090909L108.9911671875,81.83735795454547L109.12586597222223,75.57698863636364L109.23929652777778,75.85355113636365L109.66324322916665,74.9484375L110.79754878472222,64.13735795454545L110.8386673611111,75.75298295454546L110.89963628472222,75.92897727272727L110.9308296875,72.03196022727273L111.1321689236111,74.19417613636364L111.35052274305555,68.76349431818183L111.41007378472223,67.83323863636363L111.58730902777778,76.88437499999999L112.12610416666668,71.0262784090909L112.62945225694445,77.18607954545453L112.81519479166667,66.62642045454547L113.59219409722223,77.48778409090909L113.8275625,75.5518465909091L114.02890173611111,81.15852272727273L114.47978819444444,73.08792613636365L114.62299427083333,70.42286931818181L114.67687378472222,65.19332386363635L114.79030434027779,72.28338068181817L114.89380972222223,68.31093750000001L114.97746475694444,66.375L115.05119461805556,73.54048295454547L115.34894982638889,75.1747159090909L115.42409756944446,72.83650568181818L115.44394791666666,75.25014204545455L115.77856805555555,69.59318181818182L115.91893836805556,79.5997159090909L116.05363715277778,70.97599431818182L116.16706770833333,75.62727272727273L116.62220781250001,76.8340909090909L117.9493453125,70.44801136363637L118.16060972222222,65.44474431818182L118.31090520833334,68.28579545454545L118.60866041666667,72.45937500000001L119.08506875,69.79431818181817L119.57282013888889,73.54048295454547L119.59834201388888,70.34744318181818L119.79117395833333,65.09275568181819L120.6390673611111,73.49019886363635L120.75249791666667,66.40014204545454L120.82764565972222,69.86974431818183L120.84749600694445,67.5315340909091L121.64718142361112,66.22414772727272L121.66419600694444,76.73352272727271L121.73083645833333,69.06519886363637L121.92933993055556,77.58835227272728L122.27955677083334,63.76022727272728L123.40819079861112,67.68238636363637L123.5996048611111,65.54531250000001L123.63079826388889,64.08707386363636L123.67758836805555,69.94517045454545L123.9725078125,65.62073863636364L124.60346527777777,64.69048295454546L125.21173663194445,71.78053977272727L126.08940555555556,65.44474431818182L126.1673890625,64.64019886363637L126.4226078125,69.44232954545454L127.14005607638889,68.18522727272727L127.32721649305554,68.78863636363637L127.4973623263889,66.34985795454546L127.51154114583333,64.13735795454545L127.53422725694445,62.67911931818182L128.1198125,76.23068181818182L128.87696145833334,63.55909090909091L129.27538628472223,65.4950284090909L129.41292083333335,70.59886363636363L129.64687135416668,66.57613636363635L130.07790746527778,65.41960227272727L130.86199618055556,64.08707386363636L131.02079895833333,75.80326704545453L131.5170576388889,59.08380681818183L132.30681788194445,75.1747159090909L132.97322239583335,57.14786931818182L133.46097378472223,66.52585227272728L133.46239166666666,60.240340909090904L133.5247784722222,69.51775568181817L133.59000104166665,61.14545454545454L133.75305746527778,60.064346590909096L134.50028125,60.240340909090904L136.0542798611111,62.15113636363637L136.27546944444444,66.47556818181819L136.5037484375,63.609375L136.61150746527778,65.79673295454545L137.7160375,68.28579545454545L137.75290243055557,66.57613636363635L138.0322251736111,62.17627840909091L138.21938559027777,63.08139204545455L138.3285625,67.73267045454546L139.2374248263889,67.43096590909092L139.29839374999997,72.7862215909091L139.55361249999999,69.59318181818182L139.56495555555557,64.46420454545455L139.6145814236111,61.29630681818182L139.99315590277777,67.50639204545453L140.17322690972222,64.51448863636364L140.30792569444444,63.634517045454544L140.50926493055553,68.31093750000001L140.72336510416667,63.20710227272727L140.98425538194445,69.39204545454547L141.95692239583335,61.09517045454547L142.15684375,61.447159090909096L142.42765920138888,65.79673295454545L142.7622793402778,61.01974431818182L142.85018802083331,60.969460227272734L143.0472736111111,65.16818181818182L143.47830972222224,64.74076704545453L143.62576944444444,66.70184659090908L144.50769201388889,67.1544034090909L144.76716440972223,71.20227272727271L145.08760572916668,71.55426136363637L145.10745607638887,70.97599431818182L145.28469131944442,58.782102272727286L145.6150578125,70.59886363636363L145.82915798611108,64.79105113636365L145.90288784722222,75.1747159090909L145.93124548611112,68.00923295454547L145.9751998263889,65.97272727272727L146.2460152777778,64.26306818181817L147.29241215277779,63.634517045454544L147.84680399305554,70.44801136363637L147.86523645833333,63.91107954545454L147.9120265625,69.84460227272729L148.44373229166666,66.50071022727273L148.63514635416666,66.07329545454546L149.05483940972223,57.77642045454546L149.26893958333332,69.97031249999999L149.3568482638889,57.022159090909085L149.91407586805556,59.335227272727266L150.35503715277778,71.73025568181818L150.50958628472222,62.100852272727266L150.62727048611112,70.0205965909091L150.9718157986111,67.00355113636364L151.21852725694444,62.88025568181817L151.34897239583333,63.78536931818182L151.40285190972222,64.56477272727273L151.55314739583332,64.91676136363637L152.0408987847222,65.94758522727273L153.79907239583335,52.521732954545456L154.02309774305556,64.01164772727273L154.20884027777777,69.94517045454545L154.62853333333334,64.53963068181818L154.71785989583333,59.98892045454545L155.40411475694447,57.19815340909091L156.03649010416666,57.650710227272725L156.47036197916665,62.452840909090895L156.95669548611113,59.51122159090909L157.06161874999998,62.77968750000001L158.25122170138889,58.857528409090904L159.32172256944443,59.91349431818182L159.51597239583333,54.45767045454545L159.71731163194443,65.29389204545454L159.95976944444442,57.14786931818182L160.36811944444443,57.474715909090904L160.89131788194445,56.29303977272727L161.0231809027778,58.32954545454547L161.18907309027776,63.03110795454545L161.2316095486111,55.086221590909105L161.2571314236111,56.921590909090895L161.3039215277778,62.77968750000001L161.4995892361111,49.60525568181818L162.09226388888888,52.974289772727275L164.60191493055555,61.29630681818182L164.60758645833334,55.89076704545455L164.6345262152778,57.07244318181817L165.06698020833335,54.055397727272734L166.45083298611112,57.49985795454545L166.4947873263889,58.93295454545455L166.85351145833334,57.27357954545455L167.71983732638887,53.57769886363637L167.77513472222222,54.055397727272734L167.8446109375,47.769886363636374L167.9027440972222,54.709090909090904L168.05303958333332,50.81207386363637L168.33803385416667,47.36761363636364L170.44784218750002,50.61093749999999L170.96253333333334,48.97670454545454L171.03768107638888,55.41306818181819L171.15820104166667,51.64176136363636L172.24146284722224,56.74559659090909L172.47683124999998,50.86235795454546L173.2779345486111,52.04403409090909L173.31621736111111,64.66534090909092L173.36726111111113,53.47713068181818L173.69620972222222,65.34417613636363L174.04217291666666,50.485227272727286L174.11164913194443,61.57286931818183L174.4221652777778,54.08053977272728L174.4547765625,52.14460227272727L174.59656475694445,57.49985795454545L175.47281579861112,66.12357954545453L175.5678138888889,52.01889204545455L176.48092986111112,56.84616477272728L176.82689305555556,52.89886363636363L176.94457725694443,51.96860795454545L177.00271041666667,52.24517045454546L177.13599131944443,50.384659090909096L177.40113524305556,53.77883522727272L177.96261649305555,49.102414772727286L179.47266076388888,52.546875L180.0029486111111,49.47954545454546L181.9071640625,46.36193181818183L182.37222934027778,51.390340909090895L182.52110694444445,56.670170454545456L182.54095729166667,51.138920454545456L182.87557743055555,55.48849431818182L183.34489635416668,56.368465909090915L184.16585,56.34332386363637L185.05060833333332,39.97585227272728L185.59365711805557,49.756107954545456L185.68014791666667,44.65227272727273L185.722684375,43.72201704545455L185.8375328125,53.77883522727272L185.8843229166667,50.23380681818182L186.23170399305556,43.9231534090909L186.2714046875,55.41306818181819L186.590428125,50.63607954545455L186.6216215277778,49.05213068181817L186.64288975694444,48.27272727272728L187.65100381944444,45.9596590909091L187.72756944444444,44.5768465909091L188.18554531249998,52.421164772727266L188.20255989583336,41.86150568181819L188.530090625,62.17627840909091L188.88030746527778,50.63607954545455L188.91150086805555,51.08863636363637L188.95970885416665,53.47713068181818L189.0022453125,43.01803977272726L189.33261180555556,47.66931818181817L189.67148559027777,41.484375L189.9975984375,50.485227272727286L191.3460041666667,47.79502840909092L191.64517725694446,50.76178977272727L191.96987222222222,42.13806818181817L192.24494131944445,41.911789772727275L192.34135729166667,53.803977272727266L192.4165050347222,50.837215909090915L192.99641875,49.60525568181818L193.44163368055555,47.87045454545455L194.1902753472222,43.822585227272725L194.36325694444443,49.73096590909091L195.03816875,45.9596590909091L195.35577430555557,51.61661931818182L195.60957517361112,50.03267045454547L195.93001649305555,47.66931818181817L197.028875,44.19971590909091L197.75766631944444,48.825852272727275L197.99445260416667,54.78451704545455L198.4098920138889,42.037499999999994L198.6438425347222,38.46732954545453L198.67928958333331,27.807102272727263L199.28047152777776,38.090198863636374L199.39815572916666,39.85014204545453L199.59524131944443,41.459232954545456L199.88590711805554,42.79176136363637L200.47858177083333,39.347301136363626L200.97058680555554,47.14133522727272L201.23147708333332,45.88423295454547L201.3519970486111,47.116193181818176L201.38602621527775,42.71633522727274L201.8681060763889,43.24431818181819L203.03502291666666,45.38139204545453L204.06015156249998,44.75284090909091L204.09843437499998,43.64659090909092L204.4812625,35.60113636363636L204.95625295138888,44.60198863636364L204.966178125,48.7252840909091L204.99028211805555,50.0578125L205.03281857638888,46.86477272727274L205.48086927083335,47.040767045454544L206.1954817708333,40.855823863636374L208.32514045138888,44.37571022727272L208.44424253472224,37.73821022727273L209.0284098958333,40.1015625L209.68347135416667,47.116193181818176L210.12585052083335,37.562215909090895L210.13861145833334,44.60198863636364L210.28181753472222,36.053693181818176L210.29316059027778,46.96534090909091L211.06448836805558,40.4284090909091L211.12971093750002,34.41946022727274L211.21053020833332,39.473011363636374L212.39729739583333,46.060227272727275L212.9743753472222,46.23622159090908L213.02258333333333,42.79176136363637L213.83928333333333,36.15426136363635L214.0136828125,48.44872159090909L214.307184375,38.21590909090909L214.34404930555553,42.36434659090909L214.68434097222223,32.357812499999994L214.80060729166667,40.37812500000001L215.19619635416666,41.584943181818176L216.5658703125,45.607670454545456L216.58997430555556,34.64573863636363L216.6112425347222,50.108096590909085L217.2095887152778,40.202130681818176L217.9086045138889,46.48764204545455L218.3977737847222,35.6262784090909L218.51687586805556,38.090198863636374L218.68985746527778,36.48110795454545L218.72105086805556,36.60681818181817L219.60439131944443,32.8606534090909L219.97162274305555,42.81690340909091L220.47071718750001,44.224857954545456L220.63802725694444,36.2799715909091L220.9400361111111,28.335085227272714L220.9995871527778,46.61335227272727L221.94247864583335,48.423579545454544L222.12680329861112,27.027698863636374L222.28418819444445,40.45355113636364L223.31498836805554,33.489204545454555L223.6382654513889,42.565482954545445L223.69356284722224,47.19161931818181L223.8707980902778,49.756107954545456L223.87363385416666,39.347301136363626L224.056540625,38.165625000000006L224.16713541666667,43.948295454545445L224.46489062499998,37.93934659090908L225.33972378472222,44.85340909090908L225.49001927083333,41.13238636363636L226.04157534722222,37.41136363636363L226.7973064236111,37.889062499999994L226.93484097222222,33.96690340909092L227.425428125,31.025284090909082L227.8110920138889,39.32215909090908L228.4845859375,41.63522727272726L229.33531510416665,33.06178977272728L229.49695364583334,39.347301136363626L229.58628020833333,31.15099431818183L230.06268854166666,36.40568181818182L230.488053125,34.94744318181819L231.13744305555556,47.74474431818183L231.1643828125,34.52002840909091L231.43378038194444,42.892329545454544L231.59683680555557,47.09105113636363L232.6035329861111,47.26704545454547L232.6985310763889,37.58735795454547L232.80629010416666,29.31562500000001L233.42448663194443,33.56463068181819L233.98880364583331,44.09914772727274L234.53185243055555,45.331107954545445L234.85371163194446,44.023721590909105L235.34288090277778,29.56704545454545L236.53531961805555,31.553267045454533L236.78628472222223,38.64332386363637L237.37045208333333,41.03181818181818L237.37328784722223,39.422727272727286L237.63984965277777,43.06832386363635L237.736265625,43.168892045454555L238.05528906249998,42.49005681818181L238.26371770833333,49.22812499999999L238.29632899305557,29.391051136363643L238.41826684027777,38.54275568181819L239.04638854166666,36.80795454545455L240.22890208333334,36.93366477272727L241.02291597222222,34.796590909090895L241.12642135416667,26.977414772727286L241.16470416666667,40.855823863636374L241.34902881944444,53.653125L241.43551961805557,42.91747159090909L241.93319618055557,30.849289772727275L242.28341302083334,34.82173295454547L243.00086128472222,31.754403409090912L243.03914409722222,33.43892045454547L243.30145225694443,37.235369318181824L243.73957777777778,34.2434659090909L244.91925555555554,43.44545454545454L245.63812170138888,35.47542613636364L245.6551362847222,44.551704545454555L245.95572725694444,36.55653409090908L246.25206458333332,38.11534090909092L246.53705885416667,32.28238636363636L246.8702611111111,39.875284090909105L247.95777656250002,35.927982954545456L248.0159097222222,45.88423295454547L248.01874548611113,29.089346590909088L248.03576006944445,34.16803977272727L248.0414315972222,30.7487215909091L248.0442673611111,33.46406250000001L248.047103125,51.81775568181817L248.05135677083334,34.29374999999999L248.05561041666667,42.08778409090908L248.06837135416666,32.1315340909091L248.07687864583332,37.86392045454545L248.07971440972224,40.202130681818176L248.0953111111111,39.95071022727274L248.09672899305556,33.31321022727272L248.10523628472222,40.35298295454547L248.11516145833332,40.67982954545454L248.14919062500002,33.06178977272728L248.15060850694445,37.637642045454555L248.15344427083335,36.68224431818183L248.15769791666668,27.53053977272728L248.16053368055555,34.11775568181818L248.19030920138889,33.69034090909091L248.19456284722222,36.68224431818183L248.200234375,36.506249999999994L248.20165225694444,36.83309659090909L248.20307013888888,31.000142045454538L248.20590590277777,39.22159090909091L248.21157743055556,33.891477272727286L248.2158310763889,39.146164772727275L248.21866684027776,34.16803977272727L248.22150260416666,36.02855113636363L248.23142777777778,39.90042613636365L248.2356814236111,27.73167613636363L248.23709930555555,44.77798295454545L248.24135295138888,35.927982954545456L248.24844236111113,34.44460227272728L248.25978541666666,25.846022727272725L248.26545694444445,36.88338068181818L248.26829270833332,34.69602272727272L248.27112847222222,36.00340909090909L248.27254635416668,38.014772727272714L248.28105364583334,32.030965909090895L248.28672517361113,30.7487215909091L248.2895609375,27.53053977272728L248.29239670138887,34.21832386363636L248.2966503472222,33.614914772727275L248.30941128472222,44.19971590909091L248.3122470486111,32.45838068181817L248.31366493055555,42.74147727272728L248.31933645833334,30.799005681818187L248.32642586805557,27.304261363636357L248.32926163194443,23.5078125L248.3434404513889,33.03664772727274L248.34627621527778,30.472159090909088L248.34911197916665,32.18181818181819L248.36754444444443,46.713920454545445L248.37321597222223,33.64005681818182L248.37605173611112,34.62059659090909L248.39023055555558,33.26292613636363L248.39731996527777,28.938494318181824L248.404409375,32.81036931818181" style="fill: none;" fill="none"></path></g></g></g></g></g></g><g transform="translate(74, 177)" clip-path="url(#clip_1)"><clipPath id="clip_1"><rect width="255" height="23"></rect></clipPath><g><g><line x1="0" y1="0" x2="0" y2="5" style="visibility: inherit;" fill="rgb(0, 0, 0)" stroke="rgb(204, 204, 204)" stroke-width="1px"></line><line x1="28.357638888888886" y1="0" x2="28.357638888888886" y2="5" style="visibility: inherit;" fill="rgb(0, 0, 0)" stroke="rgb(204, 204, 204)" stroke-width="1px"></line><line x1="56.71527777777777" y1="0" x2="56.71527777777777" y2="5" style="visibility: inherit;" fill="rgb(0, 0, 0)" stroke="rgb(204, 204, 204)" stroke-width="1px"></line><line x1="85.07291666666666" y1="0" x2="85.07291666666666" y2="5" style="visibility: inherit;" fill="rgb(0, 0, 0)" stroke="rgb(204, 204, 204)" stroke-width="1px"></line><line x1="113.43055555555554" y1="0" x2="113.43055555555554" y2="5" style="visibility: inherit;" fill="rgb(0, 0, 0)" stroke="rgb(204, 204, 204)" stroke-width="1px"></line><line x1="141.78819444444446" y1="0" x2="141.78819444444446" y2="5" style="visibility: inherit;" fill="rgb(0, 0, 0)" stroke="rgb(204, 204, 204)" stroke-width="1px"></line><line x1="170.14583333333331" y1="0" x2="170.14583333333331" y2="5" style="visibility: inherit;" fill="rgb(0, 0, 0)" stroke="rgb(204, 204, 204)" stroke-width="1px"></line><line x1="198.50347222222223" y1="0" x2="198.50347222222223" y2="5" style="visibility: inherit;" fill="rgb(0, 0, 0)" stroke="rgb(204, 204, 204)" stroke-width="1px"></line><line x1="226.8611111111111" y1="0" x2="226.8611111111111" y2="5" style="visibility: inherit;" fill="rgb(0, 0, 0)" stroke="rgb(204, 204, 204)" stroke-width="1px"></line><line x1="255.21875" y1="0" x2="255.21875" y2="5" style="visibility: inherit;" fill="rgb(0, 0, 0)" stroke="rgb(204, 204, 204)" stroke-width="1px"></line></g><g transform="translate(0, 8)"><text x="0" y="0" dx="0em" dy="0.95em" style="text-anchor: middle; visibility: hidden; font-family: &quot;Helvetica Neue&quot;, sans-serif; font-size: 12px; font-weight: 200;" fill="rgb(50, 49, 63)" stroke="none" stroke-width="1px">-20k</text><text x="28.357638888888886" y="0" dx="0em" dy="0.95em" style="text-anchor: middle; visibility: inherit; font-family: &quot;Helvetica Neue&quot;, sans-serif; font-size: 12px; font-weight: 200;" fill="rgb(50, 49, 63)" stroke="none" stroke-width="1px">0</text><text x="56.71527777777777" y="0" dx="0em" dy="0.95em" style="text-anchor: middle; visibility: hidden; font-family: &quot;Helvetica Neue&quot;, sans-serif; font-size: 12px; font-weight: 200;" fill="rgb(50, 49, 63)" stroke="none" stroke-width="1px">20k</text><text x="85.07291666666666" y="0" dx="0em" dy="0.95em" style="text-anchor: middle; visibility: inherit; font-family: &quot;Helvetica Neue&quot;, sans-serif; font-size: 12px; font-weight: 200;" fill="rgb(50, 49, 63)" stroke="none" stroke-width="1px">40k</text><text x="113.43055555555554" y="0" dx="0em" dy="0.95em" style="text-anchor: middle; visibility: hidden; font-family: &quot;Helvetica Neue&quot;, sans-serif; font-size: 12px; font-weight: 200;" fill="rgb(50, 49, 63)" stroke="none" stroke-width="1px">60k</text><text x="141.78819444444446" y="0" dx="0em" dy="0.95em" style="text-anchor: middle; visibility: inherit; font-family: &quot;Helvetica Neue&quot;, sans-serif; font-size: 12px; font-weight: 200;" fill="rgb(50, 49, 63)" stroke="none" stroke-width="1px">80k</text><text x="170.14583333333331" y="0" dx="0em" dy="0.95em" style="text-anchor: middle; visibility: hidden; font-family: &quot;Helvetica Neue&quot;, sans-serif; font-size: 12px; font-weight: 200;" fill="rgb(50, 49, 63)" stroke="none" stroke-width="1px">100k</text><text x="198.50347222222223" y="0" dx="0em" dy="0.95em" style="text-anchor: middle; visibility: inherit; font-family: &quot;Helvetica Neue&quot;, sans-serif; font-size: 12px; font-weight: 200;" fill="rgb(50, 49, 63)" stroke="none" stroke-width="1px">120k</text><text x="226.8611111111111" y="0" dx="0em" dy="0.95em" style="text-anchor: middle; visibility: hidden; font-family: &quot;Helvetica Neue&quot;, sans-serif; font-size: 12px; font-weight: 200;" fill="rgb(50, 49, 63)" stroke="none" stroke-width="1px">140k</text><text x="255.21875" y="0" dx="0em" dy="0.95em" style="text-anchor: middle; visibility: hidden; font-family: &quot;Helvetica Neue&quot;, sans-serif; font-size: 12px; font-weight: 200;" fill="rgb(50, 49, 63)" stroke="none" stroke-width="1px">160k</text></g><line x1="0" y1="0" x2="255.21875" y2="0" fill="rgb(0, 0, 0)" stroke="rgb(204, 204, 204)" stroke-width="1px"></line></g></g></g></g></svg>