<svg viewBox="0 0 330 200" xmlns="http://www.w3.org/2000/svg"><g><g><g><g><g><line x1="74.78125" y1="177" x2="69.78125" y2="177" style="visibility: inherit;" fill="rgb(0, 0, 0)" stroke="rgb(204, 204, 204)" stroke-width="1px"></line><line x1="74.78125" y1="163.3846153846154" x2="69.78125" y2="163.3846153846154" style="visibility: inherit;" fill="rgb(0, 0, 0)" stroke="rgb(204, 204, 204)" stroke-width="1px"></line><line x1="74.78125" y1="149.76923076923077" x2="69.78125" y2="149.76923076923077" style="visibility: inherit;" fill="rgb(0, 0, 0)" stroke="rgb(204, 204, 204)" stroke-width="1px"></line><line x1="74.78125" y1="136.15384615384616" x2="69.78125" y2="136.15384615384616" style="visibility: inherit;" fill="rgb(0, 0, 0)" stroke="rgb(204, 204, 204)" stroke-width="1px"></line><line x1="74.78125" y1="122.53846153846153" x2="69.78125" y2="122.53846153846153" style="visibility: inherit;" fill="rgb(0, 0, 0)" stroke="rgb(204, 204, 204)" stroke-width="1px"></line><line x1="74.78125" y1="108.92307692307692" x2="69.78125" y2="108.92307692307692" style="visibility: inherit;" fill="rgb(0, 0, 0)" stroke="rgb(204, 204, 204)" stroke-width="1px"></line><line x1="74.78125" y1="95.3076923076923" x2="69.78125" y2="95.3076923076923" style="visibility: inherit;" fill="rgb(0, 0, 0)" stroke="rgb(204, 204, 204)" stroke-width="1px"></line><line x1="74.78125" y1="81.6923076923077" x2="69.78125" y2="81.6923076923077" style="visibility: inherit;" fill="rgb(0, 0, 0)" stroke="rgb(204, 204, 204)" stroke-width="1px"></line><line x1="74.78125" y1="68.07692307692307" x2="69.78125" y2="68.07692307692307" style="visibility: inherit;" fill="rgb(0, 0, 0)" stroke="rgb(204, 204, 204)" stroke-width="1px"></line><line x1="74.78125" y1="54.46153846153847" x2="69.78125" y2="54.46153846153847" style="visibility: inherit;" fill="rgb(0, 0, 0)" stroke="rgb(204, 204, 204)" stroke-width="1px"></line><line x1="74.78125" y1="40.84615384615384" x2="69.78125" y2="40.84615384615384" style="visibility: inherit;" fill="rgb(0, 0, 0)" stroke="rgb(204, 204, 204)" stroke-width="1px"></line><line x1="74.78125" y1="27.230769230769226" x2="69.78125" y2="27.230769230769226" style="visibility: inherit;" fill="rgb(0, 0, 0)" stroke="rgb(204, 204, 204)" stroke-width="1px"></line><line x1="74.78125" y1="13.615384615384613" x2="69.78125" y2="13.615384615384613" style="visibility: inherit;" fill="rgb(0, 0, 0)" stroke="rgb(204, 204, 204)" stroke-width="1px"></line><line x1="74.78125" y1="0" x2="69.78125" y2="0" style="visibility: inherit;" fill="rgb(0, 0, 0)" stroke="rgb(204, 204, 204)" stroke-width="1px"></line></g><g transform="translate(64.78125, 0)"><text x="0" y="177" dx="0em" dy="0.3em" style="text-anchor: end; visibility: hidden; font-family: &quot;Helvetica Neue&quot;, sans-serif; font-size: 12px; font-weight: 200;" fill="rgb(50, 49, 63)" stroke="none" stroke-width="1px">-2e+4</text><text x="0" y="163.3846153846154" dx="0em" dy="0.3em" style="text-anchor: end; visibility: inherit; font-family: &quot;Helvetica Neue&quot;, sans-serif; font-size: 12px; font-weight: 200;" fill="rgb(50, 49, 63)" stroke="none" stroke-width="1px">0</text><text x="0" y="149.76923076923077" dx="0em" dy="0.3em" style="text-anchor: end; visibility: hidden; font-family: &quot;Helvetica Neue&quot;, sans-serif; font-size: 12px; font-weight: 200;" fill="rgb(50, 49, 63)" stroke="none" stroke-width="1px">2e+4</text><text x="0" y="136.15384615384616" dx="0em" dy="0.3em" style="text-anchor: end; visibility: inherit; font-family: &quot;Helvetica Neue&quot;, sans-serif; font-size: 12px; font-weight: 200;" fill="rgb(50, 49, 63)" stroke="none" stroke-width="1px">4e+4</text><text x="0" y="122.53846153846153" dx="0em" dy="0.3em" style="text-anchor: end; visibility: hidden; font-family: &quot;Helvetica Neue&quot;, sans-serif; font-size: 12px; font-weight: 200;" fill="rgb(50, 49, 63)" stroke="none" stroke-width="1px">6e+4</text><text x="0" y="108.92307692307692" dx="0em" dy="0.3em" style="text-anchor: end; visibility: inherit; font-family: &quot;Helvetica Neue&quot;, sans-serif; font-size: 12px; font-weight: 200;" fill="rgb(50, 49, 63)" stroke="none" stroke-width="1px">8e+4</text><text x="0" y="95.3076923076923" dx="0em" dy="0.3em" style="text-anchor: end; visibility: hidden; font-family: &quot;Helvetica Neue&quot;, sans-serif; font-size: 12px; font-weight: 200;" fill="rgb(50, 49, 63)" stroke="none" stroke-width="1px">1e+5</text><text x="0" y="81.6923076923077" dx="0em" dy="0.3em" style="text-anchor: end; visibility: inherit; font-family: &quot;Helvetica Neue&quot;, sans-serif; font-size: 12px; font-weight: 200;" fill="rgb(50, 49, 63)" stroke="none" stroke-width="1px">1.2e+5</text><text x="0" y="68.07692307692307" dx="0em" dy="0.3em" style="text-anchor: end; visibility: hidden; font-family: &quot;Helvetica Neue&quot;, sans-serif; font-size: 12px; font-weight: 200;" fill="rgb(50, 49, 63)" stroke="none" stroke-width="1px">1.4e+5</text><text x="0" y="54.46153846153847" dx="0em" dy="0.3em" style="text-anchor: end; visibility: inherit; font-family: &quot;Helvetica Neue&quot;, sans-serif; font-size: 12px; font-weight: 200;" fill="rgb(50, 49, 63)" stroke="none" stroke-width="1px">1.6e+5</text><text x="0" y="40.84615384615384" dx="0em" dy="0.3em" style="text-anchor: end; visibility: hidden; font-family: &quot;Helvetica Neue&quot;, sans-serif; font-size: 12px; font-weight: 200;" fill="rgb(50, 49, 63)" stroke="none" stroke-width="1px">1.8e+5</text><text x="0" y="27.230769230769226" dx="0em" dy="0.3em" style="text-anchor: end; visibility: inherit; font-family: &quot;Helvetica Neue&quot;, sans-serif; font-size: 12px; font-weight: 200;" fill="rgb(50, 49, 63)" stroke="none" stroke-width="1px">2e+5</text><text x="0" y="13.615384615384613" dx="0em" dy="0.3em" style="text-anchor: end; visibility: hidden; font-family: &quot;Helvetica Neue&quot;, sans-serif; font-size: 12px; font-weight: 200;" fill="rgb(50, 49, 63)" stroke="none" stroke-width="1px">2.2e+5</text><text x="0" y="0" dx="0em" dy="0.3em" style="text-anchor: end; visibility: hidden; font-family: &quot;Helvetica Neue&quot;, sans-serif; font-size: 12px; font-weight: 200;" fill="rgb(50, 49, 63)" stroke="none" stroke-width="1px">2.4e+5</text></g><line x1="74.78125" y1="0" x2="74.78125" y2="177" fill="rgb(0, 0, 0)" stroke="rgb(204, 204, 204)" stroke-width="1px"></line></g></g><g transform="translate(74, 0)" clip-path="url(#clip_0)"><clipPath id="clip_0"><rect width="255" height="177"></rect></clipPath><g><g><g><line x1="0" y1="0" x2="0" y2="177" fill="rgb(0, 0, 0)" stroke="rgb(60, 60, 60)" stroke-width="1px" opacity="0.25"></line><line x1="28.357638888888886" y1="0" x2="28.357638888888886" y2="177" fill="rgb(0, 0, 0)" stroke="rgb(60, 60, 60)" stroke-width="1px" opacity="0.25"></line><line x1="56.71527777777777" y1="0" x2="56.71527777777777" y2="177" fill="rgb(0, 0, 0)" stroke="rgb(60, 60, 60)" stroke-width="1px" opacity="0.25"></line><line x1="85.07291666666666" y1="0" x2="85.07291666666666" y2="177" fill="rgb(0, 0, 0)" stroke="rgb(60, 60, 60)" stroke-width="1px" opacity="0.25"></line><line x1="113.43055555555554" y1="0" x2="113.43055555555554" y2="177" fill="rgb(0, 0, 0)" stroke="rgb(60, 60, 60)" stroke-width="1px" opacity="0.25"></line><line x1="141.78819444444446" y1="0" x2="141.78819444444446" y2="177" fill="rgb(0, 0, 0)" stroke="rgb(60, 60, 60)" stroke-width="1px" opacity="0.25"></line><line x1="170.14583333333331" y1="0" x2="170.14583333333331" y2="177" fill="rgb(0, 0, 0)" stroke="rgb(60, 60, 60)" stroke-width="1px" opacity="0.25"></line><line x1="198.50347222222223" y1="0" x2="198.50347222222223" y2="177" fill="rgb(0, 0, 0)" stroke="rgb(60, 60, 60)" stroke-width="1px" opacity="0.25"></line><line x1="226.8611111111111" y1="0" x2="226.8611111111111" y2="177" fill="rgb(0, 0, 0)" stroke="rgb(60, 60, 60)" stroke-width="1px" opacity="0.25"></line><line x1="255.21875" y1="0" x2="255.21875" y2="177" fill="rgb(0, 0, 0)" stroke="rgb(60, 60, 60)" stroke-width="1px" opacity="0.25"></line></g><g><line x1="0" y1="177" x2="255.21875" y2="177" fill="rgb(0, 0, 0)" stroke="rgb(60, 60, 60)" stroke-width="1px" opacity="0.25"></line><line x1="0" y1="163.3846153846154" x2="255.21875" y2="163.3846153846154" fill="rgb(0, 0, 0)" stroke="rgb(60, 60, 60)" stroke-width="1px" opacity="0.25"></line><line x1="0" y1="149.76923076923077" x2="255.21875" y2="149.76923076923077" fill="rgb(0, 0, 0)" stroke="rgb(60, 60, 60)" stroke-width="1px" opacity="0.25"></line><line x1="0" y1="136.15384615384616" x2="255.21875" y2="136.15384615384616" fill="rgb(0, 0, 0)" stroke="rgb(60, 60, 60)" stroke-width="1px" opacity="0.25"></line><line x1="0" y1="122.53846153846153" x2="255.21875" y2="122.53846153846153" fill="rgb(0, 0, 0)" stroke="rgb(60, 60, 60)" stroke-width="1px" opacity="0.25"></line><line x1="0" y1="108.92307692307692" x2="255.21875" y2="108.92307692307692" fill="rgb(0, 0, 0)" stroke="rgb(60, 60, 60)" stroke-width="1px" opacity="0.25"></line><line x1="0" y1="95.3076923076923" x2="255.21875" y2="95.3076923076923" fill="rgb(0, 0, 0)" stroke="rgb(60, 60, 60)" stroke-width="1px" opacity="0.25"></line><line x1="0" y1="81.6923076923077" x2="255.21875" y2="81.6923076923077" fill="rgb(0, 0, 0)" stroke="rgb(60, 60, 60)" stroke-width="1px" opacity="0.25"></line><line x1="0" y1="68.07692307692307" x2="255.21875" y2="68.07692307692307" fill="rgb(0, 0, 0)" stroke="rgb(60, 60, 60)" stroke-width="1px" opacity="0.25"></line><line x1="0" y1="54.46153846153847" x2="255.21875" y2="54.46153846153847" fill="rgb(0, 0, 0)" stroke="rgb(60, 60, 60)" stroke-width="1px" opacity="0.25"></line><line x1="0" y1="40.84615384615384" x2="255.21875" y2="40.84615384615384" fill="rgb(0, 0, 0)" stroke="rgb(60, 60, 60)" stroke-width="1px" opacity="0.25"></line><line x1="0" y1="27.230769230769226" x2="255.21875" y2="27.230769230769226" fill="rgb(0, 0, 0)" stroke="rgb(60, 60, 60)" stroke-width="1px" opacity="0.25"></line><line x1="0" y1="13.615384615384613" x2="255.21875" y2="13.615384615384613" fill="rgb(0, 0, 0)" stroke="rgb(60, 60, 60)" stroke-width="1px" opacity="0.25"></line><line x1="0" y1="0" x2="255.21875" y2="0" fill="rgb(0, 0, 0)" stroke="rgb(60, 60, 60)" stroke-width="1px" opacity="0.25"></line></g></g></g><g><g><line x1="0" y1="163.3846153846154" x2="255.21875" y2="163.3846153846154" fill="rgb(0, 0, 0)" stroke="rgb(153, 153, 153)" stroke-width="1.5px"></line></g></g><g><g><line x1="28.357638888888886" y1="0" x2="28.357638888888886" y2="177" fill="rgb(0, 0, 0)" stroke="rgb(153, 153, 153)" stroke-width="1.5px"></line></g></g><g><g><g><g><g><path stroke="rgb(255, 112, 67)" stroke-width="2px" d="M28.541963541666668,163.12124278846153L29.05949045138889,163.1288566548583L29.181428298611113,163.1298152054357L29.316127083333335,163.11247583082627L29.38276753472222,163.1027720751043L29.384185416666668,163.0967254147567L29.39127482638889,163.0964499797021L29.438064930555555,163.08690766444445L29.51888420138889,163.0873033790058L29.520302083333334,163.0835646027349L29.524555729166668,163.08359897779707L29.530227256944446,163.06826974926122L29.569927951388888,163.07234886043443L29.572763715277777,163.07526810109513L29.589778298611108,163.06369776287352L29.605375000000002,163.068515419652L29.647911458333333,163.06600940693022L29.67626909722222,163.05989251739476L29.68052274305556,163.0655591249218L29.74007378472222,163.05644680996988L29.747163194444443,163.0571294690726L29.80955,163.05909679739563L29.8478328125,163.0526103003608L29.85775798611111,163.04823200003486L29.871936805555556,163.04990951710587L29.932905729166666,163.04661868224468L29.95984548611111,163.04912082242927L29.961263368055555,163.04609053544993L30.049172048611112,163.0471009486679L30.139916493055555,163.04689008826114L30.196631770833335,163.0462154862201L30.449014756944443,163.04098700421113L30.470282986111112,163.0479074560429L30.956616493055556,163.05260604539365L30.9963171875,163.0556746568162L31.145194791666665,163.05933557932102L31.216088888888887,163.0555789792197L31.326683680555558,163.0500891725158L31.41884600694444,163.05425198740394L31.44295,163.05487591470612L31.468471875000002,163.060739644537L31.513844097222222,163.07134189452844L31.523769270833334,163.07509599301508L31.60458854166667,163.06983100835237L31.617349479166666,163.06935165644344L31.62443888888889,163.06261695396967L31.66697534722222,163.06723574837326L31.68257204861111,163.0650489809767L31.77757013888889,163.06500923992058L31.791748958333336,163.06001237088105L31.847046354166665,163.05812763200913L31.885329166666665,163.05275856107988L31.89667222222222,163.05143277192357L31.905179513888886,163.05254590289405L31.906597395833334,163.0523520206489L31.922194097222224,163.05448154542864L32.132040625,163.0574206840414L32.18450225694444,163.05797503779607L32.30360434027778,163.05378406984863L32.322036805555555,163.04366271506962L32.38300572916666,163.03975623133954L32.39009513888889,163.03475024467673L32.87784652777778,163.0226201468398L32.95441215277778,163.02320762287783L32.96859097222222,163.0191361460476L33.00262013888889,163.00525133869075L33.01396319444444,162.9988471426944L33.094782465277774,163.00053609068667L33.14299045138889,162.99720203545337L33.35000121527778,162.9953513453819L33.35850850694444,162.99385623310332L33.449252951388885,162.98642332776416L33.46059600694444,162.98101145566727L33.5229828125,162.97614124065566L33.54708680555556,162.96567180071017L33.569772916666665,162.9591442739635L33.74700815972222,162.95129083431067L33.86043871527778,162.93871172340621L33.95260104166667,162.92347579486008L34.03767395833333,162.9112536701515L34.06744947916667,162.91519157743545L34.09580711805555,162.9034155280587L34.09864288194444,162.89443456410424L34.10715017361111,162.8803518294435L34.18371579861111,162.8710394836028L34.20214826388889,162.87470110461058L34.25460989583333,162.8817836573226L34.31557881944444,162.87666875286115L34.488560416666665,162.8735121873217L34.50415711805556,162.87041602119334L34.51124652777778,162.85575778911127L34.531096875,162.84358678805108L34.56087239583333,162.82842053624495L34.77639045138889,162.82047279693123L35.008923090277776,162.81357520697097L35.03586284722222,162.80936727553635L35.27973854166667,162.8186854548019L35.30242465277778,162.80800958808643L35.35772204861111,162.78670030807646L35.448466493055555,162.77220248834027L35.458391666666664,162.77413180485783L35.52645,162.783399352607L35.61719444444444,162.77518858528217L35.621448090277774,162.77103263509773L35.794429687500006,162.77035580328004L35.85965225694444,162.76417277990438L36.02696232638888,162.75873572130183L36.05957361111111,162.75456570726172L36.18009357638889,162.75387619674788L36.25098767361111,162.7473839496382L36.26942013888889,162.7361798362853L36.289270486111114,162.7298829592655L36.44240173611111,162.71345104278262L36.494863368055555,162.71529873819324L36.5345640625,162.70832435507887L36.574264756944444,162.6930697291049L36.64657673611111,162.69614714482643L36.73590329861111,162.6966617593185L36.76284305555556,162.69878429292547L36.981196875,162.7060556467293L37.07194131944444,162.70255848535405L37.10880625,162.69256078374468L37.12014930555555,162.6905833064842L37.22507256944444,162.6862506878101L37.29029513888889,162.6782241614161L37.33566736111111,162.68997676544376L37.40088993055556,162.69659712797096L37.402307812500005,162.69638597257264L37.41506875,162.69032429080866L37.4278296875,162.69074041988867L37.746853125,162.68179689768283L37.858865798611106,162.66123858339543L37.95953541666667,162.6640101600232L38.02759375,162.67777982727011L38.17221770833333,162.66175039157787L38.23318663194444,162.65379121304204L38.24736545138889,162.65683949722563L38.35370659722223,162.6515413622428L38.45437621527778,162.63222159259078L38.455794097222224,162.6290023166832L38.50258420138889,162.62487107393974L38.55504583333333,162.61000535604916L38.664222743055554,162.59496683537088L38.78899635416666,162.58241077359955L38.99458923611111,162.59306513140186L38.997425,162.5886131846405L39.03003628472222,162.5841384037977L39.132123784722225,162.5607942710112L39.258315277777776,162.5640795078713L39.431296875,162.54576217957668L39.486594270833336,162.52378788198865L39.499355208333334,162.51196750594067L39.51211614583333,162.51009407246733L39.70211232638889,162.5105353864141L39.75740972222222,162.51829338686133L39.7758421875,162.47396260264244L39.862332986111106,162.4622317262255L40.07359739583333,162.44809989892406L40.09770138888889,162.4163622631177L40.10479079861111,162.4027327669246L40.1203875,162.39382751869573L40.171431250000005,162.38151543942706L40.35575590277778,162.37673168377944L40.38978506944445,162.33430322561125L40.55142361111111,162.31637049869855L41.12991944444445,162.24959883175035L41.13700885416667,162.2235002460564L41.16536649305555,162.16895142225303L41.426256770833334,162.13691926020462L41.44894288194445,162.08987973724746L41.67580399305555,162.0349073876993L42.027438715277775,161.96607289800144L42.109675868055554,161.87510406863606L42.28832899305556,161.81505928611682L42.709439930555554,161.7189389334836L42.82287048611111,161.61813446232057L42.91645069444444,161.512901544097L43.09935746527778,161.45699576428677L43.27375694444444,161.38374714892427L43.310621874999995,161.27063757760624L43.422634548611114,161.22644905999945L43.61546649305555,161.14106785552124L43.629645312499996,161.04354640609503L43.64949565972222,161.01151508267128L44.49029965277777,160.92086453563198L44.49455329861111,160.7520129373173L44.549850694444444,160.65267847023293L44.554104340277775,160.55332119988452L44.66044548611111,160.51427657980827L45.07872065972222,160.35561935419875L45.21767309027778,160.20508410119703L45.226180381944445,160.20724540261935L45.52251770833333,160.13753961225459L45.626023090277776,159.99668613161137L46.15914670138889,159.83553915287308L47.42956892361111,159.58605134308672L50.207199652777774,159.45511808365134L52.847295833333334,159.29707021745625L54.792629861111116,158.92655670503555L55.08613142361111,158.51272122654774L55.88723472222222,158.25978684411697L57.50220225694445,158.1578329192624L58.049504687500004,157.9546409733855L59.301494444444444,157.49852447198967L60.335130381944445,156.8515799572135L60.35639861111111,156.17785152854722L62.24643524305556,155.76891901978527L62.27904652777778,155.8737165409155L62.3882234375,155.6787499348476L62.40523802083333,155.22305835471226L63.35521892361111,154.93032607686854L66.06762708333333,154.30103866136398L66.76380711805557,153.73578623743393L67.20618628472222,153.71606410407196L68.0796015625,153.03481947241195L73.222259375,152.68107238089374L74.30410329861111,152.53531754663337L75.33915711805555,151.596448051486L76.75562118055555,151.9123472367521L78.49536232638889,152.02033727270157L79.18445295138889,150.74186388187118L82.39311979166668,150.13304504171867L91.57248750000001,149.45282611442735L93.21581267361111,147.48474951248926L97.17737482638888,145.37237263805642L97.19580729166667,144.96518152807838L99.21061753472222,144.5977734714093L99.67001128472222,144.58545093196022L102.32428628472222,144.18300343490466L105.8264546875,143.54394035101046L109.64906440972221,141.71582780624485L111.79431979166667,140.67419863136436L113.99203680555556,140.97794487400375L114.77470763888888,139.79519365581095L117.34249184027779,139.00668438636978L118.42150000000001,136.59433710154062L120.77093038194444,135.25954954521362L121.0119703125,133.76474410990377L124.23198020833334,132.31202787197347L132.20189461805555,131.1866890270721L149.83042083333333,130.01109512435386L155.17725364583333,130.15329931384275L156.62065746527776,129.27114919014406L158.25263958333332,128.08487826150616L158.4525609375,127.33723851227401L167.35544166666665,127.18791682450733L172.16915086805557,125.74049365166476L181.4903067708333,123.31820269994896L181.741271875,121.99122978571793L183.0584842013889,117.90070656674663L183.47817725694446,115.80678951583437L186.51953402777778,115.58376657386566L187.253996875,114.73482597416915L189.9975984375,113.98877727098122L191.7174892361111,111.69527310157048L202.97688975694444,108.3074912240992L209.82951319444444,105.17675267860692L213.38414322916665,102.36512981458796L216.68922604166667,96.12966779465884L217.59950625000002,88.7962142363375L219.58028732638888,87.93784137039508L219.95460815972223,85.00484208912178L222.2473232638889,76.35539706289391L224.9115234375,73.53310855852529L229.32255416666666,69.2953806353619L230.947446875,65.61638800451551L232.08742395833332,62.41962131944665L235.05788663194443,57.519157504807L238.14036197916667,54.56405449470945L238.97974809027778,47.508139189466135L239.70995729166668,39.67999305897797L244.8880621527778,34.93421490692464" style="fill: none;" fill="none"></path></g></g></g></g><g opacity="0.2"><g><g><g><path stroke="rgb(255, 112, 67)" stroke-width="2px" d="M28.541963541666668,163.12124278846153L29.05949045138889,163.13570913461538L29.181428298611113,163.13145432692306L29.316127083333335,163.07018509615384L29.38276753472222,163.07273798076923L29.384185416666668,163.07443990384616L29.39127482638889,163.09528846153847L29.438064930555555,163.0421033653846L29.51888420138889,163.08933173076923L29.520302083333334,163.06295192307692L29.524555729166668,163.08380048076924L29.530227256944446,162.97360096153847L29.569927951388888,163.09869230769232L29.572763715277777,163.09486298076922L29.589778298611108,162.98338701923078L29.605375000000002,163.1029471153846L29.647911458333333,163.04763461538462L29.67626909722222,163.01402163461537L29.68052274305556,163.10890384615385L29.74007378472222,162.98551442307692L29.747163194444443,163.0625264423077L29.80955,163.07486538461538L29.8478328125,162.99998076923077L29.85775798611111,163.01231971153845L29.871936805555556,163.06380288461537L29.932905729166666,163.01912740384614L29.95984548611111,163.07018509615384L29.961263368055555,163.02040384615384L30.049172048611112,163.05571875L30.139916493055555,163.04508173076923L30.196631770833335,163.04040144230768L30.449014756944443,162.99572596153845L30.470282986111112,163.10805288461538L30.956616493055556,163.09358653846155L30.9963171875,163.08252403846154L31.145194791666665,163.09145913461538L31.216088888888887,163.02253125L31.326683680555558,163.0016826923077L31.41884600694444,163.09103365384615L31.44295,163.06039903846153L31.468471875000002,163.11273317307692L31.513844097222222,163.16549278846153L31.523769270833334,163.10847836538463L31.60458854166667,163.02295673076924L31.617349479166666,163.06507932692307L31.62443888888889,163.00253365384614L31.66697534722222,163.10847836538463L31.68257204861111,163.04550721153845L31.77757013888889,163.06465384615385L31.791748958333336,163.01529807692307L31.847046354166665,163.04125240384616L31.885329166666665,163.00466105769232L31.89667222222222,163.03955048076924L31.905179513888886,163.0625264423077L31.906597395833334,163.05061298076924L31.922194097222224,163.07358894230768L32.132040625,163.08380048076924L32.18450225694444,163.06295192307692L32.30360434027778,163.01614903846155L32.322036805555555,162.95275240384615L32.38300572916666,163.00466105769232L32.39009513888889,162.98976923076924L32.87784652777778,162.9136081730769L32.95441215277778,163.02848798076923L32.96859097222222,162.9825360576923L33.00262013888889,162.8804206730769L33.01396319444444,162.94126442307692L33.094782465277774,163.0157235576923L33.14299045138889,162.96721875L33.35000121527778,162.97870673076923L33.35850850694444,162.98040865384615L33.449252951388885,162.91956490384615L33.46059600694444,162.93232932692308L33.5229828125,162.93232932692308L33.54708680555556,162.87148557692308L33.569772916666665,162.90041826923076L33.74700815972222,162.88063341346154L33.86043871527778,162.82553365384615L33.95260104166667,162.7863894230769L34.03767395833333,162.80128125L34.06744947916667,162.950625L34.09580711805555,162.79745192307692L34.09864288194444,162.8136201923077L34.10715017361111,162.75362740384617L34.18371579861111,162.7872403846154L34.20214826388889,162.9076514423077L34.25460989583333,162.94551923076924L34.31557881944444,162.83063942307692L34.488560416666665,162.84510576923077L34.50415711805556,162.84255288461537L34.51124652777778,162.72384375000001L34.531096875,162.73405528846155L34.56087239583333,162.6919326923077L34.77639045138889,162.74894711538462L35.008923090277776,162.7515L35.03586284722222,162.77149759615384L35.27973854166667,162.90254567307693L35.30242465277778,162.71193028846153L35.35772204861111,162.59492307692307L35.448466493055555,162.64172596153847L35.458391666666664,162.79149519230768L35.52645,162.86680528846153L35.61719444444444,162.70129326923077L35.621448090277774,162.7336298076923L35.794429687500006,162.76426442307692L35.85965225694444,162.7085264423077L36.02696232638888,162.70980288461539L36.05957361111111,162.7170360576923L36.18009357638889,162.74767067307693L36.25098767361111,162.68895432692307L36.26942013888889,162.63534375L36.289270486111114,162.67321153846154L36.44240173611111,162.56556490384617L36.494863368055555,162.73192788461537L36.5345640625,162.64555528846154L36.574264756944444,162.55577884615386L36.64657673611111,162.72384375000001L36.73590329861111,162.70129326923077L36.76284305555556,162.71788701923077L36.981196875,162.77149759615384L37.07194131944444,162.6710841346154L37.10880625,162.60258173076923L37.12014930555555,162.6727860576923L37.22507256944444,162.64725721153846L37.29029513888889,162.60598557692308L37.33566736111111,162.79575L37.40088993055556,162.75618028846154L37.402307812500005,162.69448557692309L37.41506875,162.63576923076923L37.4278296875,162.69448557692309L37.746853125,162.60130528846153L37.858865798611106,162.47621394230768L37.95953541666667,162.68895432692307L38.02759375,162.80170673076924L38.17221770833333,162.51748557692306L38.23318663194444,162.58215865384616L38.24736545138889,162.68427403846152L38.35370659722223,162.60385817307693L38.45437621527778,162.45834375L38.455794097222224,162.60002884615383L38.50258420138889,162.58768990384615L38.55504583333333,162.47621394230768L38.664222743055554,162.45962019230768L38.78899635416666,162.46940625L38.99458923611111,162.68895432692307L38.997425,162.54854567307692L39.03003628472222,162.54386538461537L39.132123784722225,162.3506971153846L39.258315277777776,162.5936466346154L39.431296875,162.38090625L39.486594270833336,162.32601923076922L39.499355208333334,162.4055841346154L39.51211614583333,162.49323317307693L39.70211232638889,162.51450721153847L39.75740972222222,162.58811538461538L39.7758421875,162.07498557692307L39.862332986111106,162.35665384615385L40.07359739583333,162.32091346153845L40.09770138888889,162.1307235576923L40.10479079861111,162.28006730769232L40.1203875,162.31368028846154L40.171431250000005,162.27070673076923L40.35575590277778,162.33367788461538L40.38978506944445,161.95244711538462L40.55142361111111,162.15497596153847L41.12991944444445,161.64865384615385L41.13700885416667,161.98861298076923L41.16536649305555,161.67801201923078L41.426256770833334,161.8486298076923L41.44894288194445,161.66652403846155L41.67580399305555,161.54015625L42.027438715277775,161.3465625L42.109675868055554,161.05638461538462L42.28832899305556,161.27465625L42.709439930555554,160.85385576923076L42.82287048611111,160.71089423076924L42.91645069444444,160.56580528846155L43.09935746527778,160.95384375L43.27375694444444,160.72450961538462L43.310621874999995,160.2526514423077L43.422634548611114,160.82875240384615L43.61546649305555,160.37263701923078L43.629645312499996,160.1658533653846L43.64949565972222,160.72323317307692L44.49029965277777,160.10500961538463L44.49455329861111,159.23234855769232L44.549850694444444,159.75866826923078L44.554104340277775,159.65910576923076L44.66044548611111,160.16287499999999L45.07872065972222,158.92770432692308L45.21767309027778,158.85026682692308L45.226180381944445,160.2266971153846L45.52251770833333,159.5101875L45.626023090277776,158.72900480769232L46.15914670138889,158.38521634615384L47.42956892361111,157.3406610576923L50.207199652777774,158.27671875L52.847295833333334,157.87463942307693L54.792629861111116,155.59193509615386L55.08613142361111,154.7882019230769L55.88723472222222,155.98337740384616L57.50220225694445,157.24024759615384L58.049504687500004,156.12591346153846L59.301494444444444,153.39347596153846L60.335130381944445,151.02907932692307L60.35639861111111,150.11429567307692L62.24643524305556,152.08852644230768L62.27904652777778,156.81689423076924L62.3882234375,153.92405048076924L62.40523802083333,151.1218341346154L63.35521892361111,152.29573557692308L66.06762708333333,148.63745192307692L66.76380711805557,148.64851442307693L67.20618628472222,153.53856490384615L68.0796015625,146.90361778846153L73.222259375,149.4973485576923L74.30410329861111,151.22352403846153L75.33915711805555,143.14662259615386L76.75562118055555,154.75543990384614L78.49536232638889,152.99224759615385L79.18445295138889,139.23560336538463L82.39311979166668,144.65367548076924L91.57248750000001,143.33085576923077L93.21581267361111,129.77206009615384L97.17737482638888,126.36098076923076L97.19580729166667,141.30046153846155L99.21061753472222,141.29110096153846L99.67001128472222,144.47454807692307L102.32428628472222,140.56097596153847L105.8264546875,137.79237259615385L109.64906440972221,125.26281490384616L111.79431979166667,131.2995360576923L113.99203680555556,143.7116610576923L114.77470763888888,129.15043269230767L117.34249184027779,131.91010096153846L118.42150000000001,114.88321153846152L120.77093038194444,123.24646153846155L121.0119703125,120.31149519230769L124.23198020833334,119.23758173076924L132.20189461805555,121.05863942307693L149.83042083333333,119.43075L155.17725364583333,131.43313701923077L156.62065746527776,121.33179807692308L158.25263958333332,117.40843990384616L158.4525609375,120.60848076923077L167.35544166666665,125.84402163461539L172.16915086805557,112.71368509615385L181.4903067708333,101.51758413461538L181.741271875,110.0484735576923L183.0584842013889,81.08599759615385L183.47817725694446,96.96153605769231L186.51953402777778,113.57656009615384L187.253996875,107.09436057692307L189.9975984375,107.2743389423077L191.7174892361111,91.05373557692307L202.97688975694444,77.81745432692308L209.82951319444444,77.00010576923077L213.38414322916665,77.06052403846155L216.68922604166667,40.01050961538462L217.59950625000002,22.79513221153846L219.58028732638888,80.21248557692309L219.95460815972223,58.60784855769231L222.2473232638889,-1.489608173076931L224.9115234375,48.132512019230774L229.32255416666666,31.155829326923083L230.947446875,32.505454326923086L232.08742395833332,33.64872115384617L235.05788663194443,13.414983173076934L238.14036197916667,27.968127403846154L238.97974809027778,-15.995098557692302" style="fill: none;" fill="none"></path></g></g></g></g></g></g><g transform="translate(74, 177)" clip-path="url(#clip_1)"><clipPath id="clip_1"><rect width="255" height="23"></rect></clipPath><g><g><line x1="0" y1="0" x2="0" y2="5" style="visibility: inherit;" fill="rgb(0, 0, 0)" stroke="rgb(204, 204, 204)" stroke-width="1px"></line><line x1="28.357638888888886" y1="0" x2="28.357638888888886" y2="5" style="visibility: inherit;" fill="rgb(0, 0, 0)" stroke="rgb(204, 204, 204)" stroke-width="1px"></line><line x1="56.71527777777777" y1="0" x2="56.71527777777777" y2="5" style="visibility: inherit;" fill="rgb(0, 0, 0)" stroke="rgb(204, 204, 204)" stroke-width="1px"></line><line x1="85.07291666666666" y1="0" x2="85.07291666666666" y2="5" style="visibility: inherit;" fill="rgb(0, 0, 0)" stroke="rgb(204, 204, 204)" stroke-width="1px"></line><line x1="113.43055555555554" y1="0" x2="113.43055555555554" y2="5" style="visibility: inherit;" fill="rgb(0, 0, 0)" stroke="rgb(204, 204, 204)" stroke-width="1px"></line><line x1="141.78819444444446" y1="0" x2="141.78819444444446" y2="5" style="visibility: inherit;" fill="rgb(0, 0, 0)" stroke="rgb(204, 204, 204)" stroke-width="1px"></line><line x1="170.14583333333331" y1="0" x2="170.14583333333331" y2="5" style="visibility: inherit;" fill="rgb(0, 0, 0)" stroke="rgb(204, 204, 204)" stroke-width="1px"></line><line x1="198.50347222222223" y1="0" x2="198.50347222222223" y2="5" style="visibility: inherit;" fill="rgb(0, 0, 0)" stroke="rgb(204, 204, 204)" stroke-width="1px"></line><line x1="226.8611111111111" y1="0" x2="226.8611111111111" y2="5" style="visibility: inherit;" fill="rgb(0, 0, 0)" stroke="rgb(204, 204, 204)" stroke-width="1px"></line><line x1="255.21875" y1="0" x2="255.21875" y2="5" style="visibility: inherit;" fill="rgb(0, 0, 0)" stroke="rgb(204, 204, 204)" stroke-width="1px"></line></g><g transform="translate(0, 8)"><text x="0" y="0" dx="0em" dy="0.95em" style="text-anchor: middle; visibility: hidden; font-family: &quot;Helvetica Neue&quot;, sans-serif; font-size: 12px; font-weight: 200;" fill="rgb(50, 49, 63)" stroke="none" stroke-width="1px">-20k</text><text x="28.357638888888886" y="0" dx="0em" dy="0.95em" style="text-anchor: middle; visibility: inherit; font-family: &quot;Helvetica Neue&quot;, sans-serif; font-size: 12px; font-weight: 200;" fill="rgb(50, 49, 63)" stroke="none" stroke-width="1px">0</text><text x="56.71527777777777" y="0" dx="0em" dy="0.95em" style="text-anchor: middle; visibility: hidden; font-family: &quot;Helvetica Neue&quot;, sans-serif; font-size: 12px; font-weight: 200;" fill="rgb(50, 49, 63)" stroke="none" stroke-width="1px">20k</text><text x="85.07291666666666" y="0" dx="0em" dy="0.95em" style="text-anchor: middle; visibility: inherit; font-family: &quot;Helvetica Neue&quot;, sans-serif; font-size: 12px; font-weight: 200;" fill="rgb(50, 49, 63)" stroke="none" stroke-width="1px">40k</text><text x="113.43055555555554" y="0" dx="0em" dy="0.95em" style="text-anchor: middle; visibility: hidden; font-family: &quot;Helvetica Neue&quot;, sans-serif; font-size: 12px; font-weight: 200;" fill="rgb(50, 49, 63)" stroke="none" stroke-width="1px">60k</text><text x="141.78819444444446" y="0" dx="0em" dy="0.95em" style="text-anchor: middle; visibility: inherit; font-family: &quot;Helvetica Neue&quot;, sans-serif; font-size: 12px; font-weight: 200;" fill="rgb(50, 49, 63)" stroke="none" stroke-width="1px">80k</text><text x="170.14583333333331" y="0" dx="0em" dy="0.95em" style="text-anchor: middle; visibility: hidden; font-family: &quot;Helvetica Neue&quot;, sans-serif; font-size: 12px; font-weight: 200;" fill="rgb(50, 49, 63)" stroke="none" stroke-width="1px">100k</text><text x="198.50347222222223" y="0" dx="0em" dy="0.95em" style="text-anchor: middle; visibility: inherit; font-family: &quot;Helvetica Neue&quot;, sans-serif; font-size: 12px; font-weight: 200;" fill="rgb(50, 49, 63)" stroke="none" stroke-width="1px">120k</text><text x="226.8611111111111" y="0" dx="0em" dy="0.95em" style="text-anchor: middle; visibility: hidden; font-family: &quot;Helvetica Neue&quot;, sans-serif; font-size: 12px; font-weight: 200;" fill="rgb(50, 49, 63)" stroke="none" stroke-width="1px">140k</text><text x="255.21875" y="0" dx="0em" dy="0.95em" style="text-anchor: middle; visibility: hidden; font-family: &quot;Helvetica Neue&quot;, sans-serif; font-size: 12px; font-weight: 200;" fill="rgb(50, 49, 63)" stroke="none" stroke-width="1px">160k</text></g><line x1="0" y1="0" x2="255.21875" y2="0" fill="rgb(0, 0, 0)" stroke="rgb(204, 204, 204)" stroke-width="1px"></line></g></g></g></g></svg>