<svg viewBox="0 0 330 200" xmlns="http://www.w3.org/2000/svg"><g><g><g><g><g><line x1="74.78125" y1="177" x2="69.78125" y2="177" style="visibility: inherit;" fill="rgb(0, 0, 0)" stroke="rgb(204, 204, 204)" stroke-width="1px"></line><line x1="74.78125" y1="162.25" x2="69.78125" y2="162.25" style="visibility: inherit;" fill="rgb(0, 0, 0)" stroke="rgb(204, 204, 204)" stroke-width="1px"></line><line x1="74.78125" y1="147.5" x2="69.78125" y2="147.5" style="visibility: inherit;" fill="rgb(0, 0, 0)" stroke="rgb(204, 204, 204)" stroke-width="1px"></line><line x1="74.78125" y1="132.75" x2="69.78125" y2="132.75" style="visibility: inherit;" fill="rgb(0, 0, 0)" stroke="rgb(204, 204, 204)" stroke-width="1px"></line><line x1="74.78125" y1="118" x2="69.78125" y2="118" style="visibility: inherit;" fill="rgb(0, 0, 0)" stroke="rgb(204, 204, 204)" stroke-width="1px"></line><line x1="74.78125" y1="103.25" x2="69.78125" y2="103.25" style="visibility: inherit;" fill="rgb(0, 0, 0)" stroke="rgb(204, 204, 204)" stroke-width="1px"></line><line x1="74.78125" y1="88.5" x2="69.78125" y2="88.5" style="visibility: inherit;" fill="rgb(0, 0, 0)" stroke="rgb(204, 204, 204)" stroke-width="1px"></line><line x1="74.78125" y1="73.75" x2="69.78125" y2="73.75" style="visibility: inherit;" fill="rgb(0, 0, 0)" stroke="rgb(204, 204, 204)" stroke-width="1px"></line><line x1="74.78125" y1="59" x2="69.78125" y2="59" style="visibility: inherit;" fill="rgb(0, 0, 0)" stroke="rgb(204, 204, 204)" stroke-width="1px"></line><line x1="74.78125" y1="44.25" x2="69.78125" y2="44.25" style="visibility: inherit;" fill="rgb(0, 0, 0)" stroke="rgb(204, 204, 204)" stroke-width="1px"></line><line x1="74.78125" y1="29.5" x2="69.78125" y2="29.5" style="visibility: inherit;" fill="rgb(0, 0, 0)" stroke="rgb(204, 204, 204)" stroke-width="1px"></line><line x1="74.78125" y1="14.75" x2="69.78125" y2="14.75" style="visibility: inherit;" fill="rgb(0, 0, 0)" stroke="rgb(204, 204, 204)" stroke-width="1px"></line><line x1="74.78125" y1="0" x2="69.78125" y2="0" style="visibility: inherit;" fill="rgb(0, 0, 0)" stroke="rgb(204, 204, 204)" stroke-width="1px"></line></g><g transform="translate(64.78125, 0)"><text x="0" y="177" dx="0em" dy="0.3em" style="text-anchor: end; visibility: hidden; font-family: &quot;Helvetica Neue&quot;, sans-serif; font-size: 12px; font-weight: 200;" fill="rgb(50, 49, 63)" stroke="none" stroke-width="1px">-500</text><text x="0" y="162.25" dx="0em" dy="0.3em" style="text-anchor: end; visibility: inherit; font-family: &quot;Helvetica Neue&quot;, sans-serif; font-size: 12px; font-weight: 200;" fill="rgb(50, 49, 63)" stroke="none" stroke-width="1px">0</text><text x="0" y="147.5" dx="0em" dy="0.3em" style="text-anchor: end; visibility: hidden; font-family: &quot;Helvetica Neue&quot;, sans-serif; font-size: 12px; font-weight: 200;" fill="rgb(50, 49, 63)" stroke="none" stroke-width="1px">500</text><text x="0" y="132.75" dx="0em" dy="0.3em" style="text-anchor: end; visibility: inherit; font-family: &quot;Helvetica Neue&quot;, sans-serif; font-size: 12px; font-weight: 200;" fill="rgb(50, 49, 63)" stroke="none" stroke-width="1px">1e+3</text><text x="0" y="118" dx="0em" dy="0.3em" style="text-anchor: end; visibility: hidden; font-family: &quot;Helvetica Neue&quot;, sans-serif; font-size: 12px; font-weight: 200;" fill="rgb(50, 49, 63)" stroke="none" stroke-width="1px">1.5e+3</text><text x="0" y="103.25" dx="0em" dy="0.3em" style="text-anchor: end; visibility: inherit; font-family: &quot;Helvetica Neue&quot;, sans-serif; font-size: 12px; font-weight: 200;" fill="rgb(50, 49, 63)" stroke="none" stroke-width="1px">2e+3</text><text x="0" y="88.5" dx="0em" dy="0.3em" style="text-anchor: end; visibility: hidden; font-family: &quot;Helvetica Neue&quot;, sans-serif; font-size: 12px; font-weight: 200;" fill="rgb(50, 49, 63)" stroke="none" stroke-width="1px">2.5e+3</text><text x="0" y="73.75" dx="0em" dy="0.3em" style="text-anchor: end; visibility: inherit; font-family: &quot;Helvetica Neue&quot;, sans-serif; font-size: 12px; font-weight: 200;" fill="rgb(50, 49, 63)" stroke="none" stroke-width="1px">3e+3</text><text x="0" y="59" dx="0em" dy="0.3em" style="text-anchor: end; visibility: hidden; font-family: &quot;Helvetica Neue&quot;, sans-serif; font-size: 12px; font-weight: 200;" fill="rgb(50, 49, 63)" stroke="none" stroke-width="1px">3.5e+3</text><text x="0" y="44.25" dx="0em" dy="0.3em" style="text-anchor: end; visibility: inherit; font-family: &quot;Helvetica Neue&quot;, sans-serif; font-size: 12px; font-weight: 200;" fill="rgb(50, 49, 63)" stroke="none" stroke-width="1px">4e+3</text><text x="0" y="29.5" dx="0em" dy="0.3em" style="text-anchor: end; visibility: hidden; font-family: &quot;Helvetica Neue&quot;, sans-serif; font-size: 12px; font-weight: 200;" fill="rgb(50, 49, 63)" stroke="none" stroke-width="1px">4.5e+3</text><text x="0" y="14.75" dx="0em" dy="0.3em" style="text-anchor: end; visibility: inherit; font-family: &quot;Helvetica Neue&quot;, sans-serif; font-size: 12px; font-weight: 200;" fill="rgb(50, 49, 63)" stroke="none" stroke-width="1px">5e+3</text><text x="0" y="0" dx="0em" dy="0.3em" style="text-anchor: end; visibility: hidden; font-family: &quot;Helvetica Neue&quot;, sans-serif; font-size: 12px; font-weight: 200;" fill="rgb(50, 49, 63)" stroke="none" stroke-width="1px">5.5e+3</text></g><line x1="74.78125" y1="0" x2="74.78125" y2="177" fill="rgb(0, 0, 0)" stroke="rgb(204, 204, 204)" stroke-width="1px"></line></g></g><g transform="translate(74, 0)" clip-path="url(#clip_0)"><clipPath id="clip_0"><rect width="255" height="177"></rect></clipPath><g><g><g><line x1="0" y1="0" x2="0" y2="177" fill="rgb(0, 0, 0)" stroke="rgb(60, 60, 60)" stroke-width="1px" opacity="0.25"></line><line x1="25.521875" y1="0" x2="25.521875" y2="177" fill="rgb(0, 0, 0)" stroke="rgb(60, 60, 60)" stroke-width="1px" opacity="0.25"></line><line x1="51.04375" y1="0" x2="51.04375" y2="177" fill="rgb(0, 0, 0)" stroke="rgb(60, 60, 60)" stroke-width="1px" opacity="0.25"></line><line x1="76.565625" y1="0" x2="76.565625" y2="177" fill="rgb(0, 0, 0)" stroke="rgb(60, 60, 60)" stroke-width="1px" opacity="0.25"></line><line x1="102.0875" y1="0" x2="102.0875" y2="177" fill="rgb(0, 0, 0)" stroke="rgb(60, 60, 60)" stroke-width="1px" opacity="0.25"></line><line x1="127.609375" y1="0" x2="127.609375" y2="177" fill="rgb(0, 0, 0)" stroke="rgb(60, 60, 60)" stroke-width="1px" opacity="0.25"></line><line x1="153.13125" y1="0" x2="153.13125" y2="177" fill="rgb(0, 0, 0)" stroke="rgb(60, 60, 60)" stroke-width="1px" opacity="0.25"></line><line x1="178.653125" y1="0" x2="178.653125" y2="177" fill="rgb(0, 0, 0)" stroke="rgb(60, 60, 60)" stroke-width="1px" opacity="0.25"></line><line x1="204.175" y1="0" x2="204.175" y2="177" fill="rgb(0, 0, 0)" stroke="rgb(60, 60, 60)" stroke-width="1px" opacity="0.25"></line><line x1="229.696875" y1="0" x2="229.696875" y2="177" fill="rgb(0, 0, 0)" stroke="rgb(60, 60, 60)" stroke-width="1px" opacity="0.25"></line><line x1="255.21875" y1="0" x2="255.21875" y2="177" fill="rgb(0, 0, 0)" stroke="rgb(60, 60, 60)" stroke-width="1px" opacity="0.25"></line></g><g><line x1="0" y1="177" x2="255.21875" y2="177" fill="rgb(0, 0, 0)" stroke="rgb(60, 60, 60)" stroke-width="1px" opacity="0.25"></line><line x1="0" y1="162.25" x2="255.21875" y2="162.25" fill="rgb(0, 0, 0)" stroke="rgb(60, 60, 60)" stroke-width="1px" opacity="0.25"></line><line x1="0" y1="147.5" x2="255.21875" y2="147.5" fill="rgb(0, 0, 0)" stroke="rgb(60, 60, 60)" stroke-width="1px" opacity="0.25"></line><line x1="0" y1="132.75" x2="255.21875" y2="132.75" fill="rgb(0, 0, 0)" stroke="rgb(60, 60, 60)" stroke-width="1px" opacity="0.25"></line><line x1="0" y1="118" x2="255.21875" y2="118" fill="rgb(0, 0, 0)" stroke="rgb(60, 60, 60)" stroke-width="1px" opacity="0.25"></line><line x1="0" y1="103.25" x2="255.21875" y2="103.25" fill="rgb(0, 0, 0)" stroke="rgb(60, 60, 60)" stroke-width="1px" opacity="0.25"></line><line x1="0" y1="88.5" x2="255.21875" y2="88.5" fill="rgb(0, 0, 0)" stroke="rgb(60, 60, 60)" stroke-width="1px" opacity="0.25"></line><line x1="0" y1="73.75" x2="255.21875" y2="73.75" fill="rgb(0, 0, 0)" stroke="rgb(60, 60, 60)" stroke-width="1px" opacity="0.25"></line><line x1="0" y1="59" x2="255.21875" y2="59" fill="rgb(0, 0, 0)" stroke="rgb(60, 60, 60)" stroke-width="1px" opacity="0.25"></line><line x1="0" y1="44.25" x2="255.21875" y2="44.25" fill="rgb(0, 0, 0)" stroke="rgb(60, 60, 60)" stroke-width="1px" opacity="0.25"></line><line x1="0" y1="29.5" x2="255.21875" y2="29.5" fill="rgb(0, 0, 0)" stroke="rgb(60, 60, 60)" stroke-width="1px" opacity="0.25"></line><line x1="0" y1="14.75" x2="255.21875" y2="14.75" fill="rgb(0, 0, 0)" stroke="rgb(60, 60, 60)" stroke-width="1px" opacity="0.25"></line><line x1="0" y1="0" x2="255.21875" y2="0" fill="rgb(0, 0, 0)" stroke="rgb(60, 60, 60)" stroke-width="1px" opacity="0.25"></line></g></g></g><g><g><line x1="0" y1="162.25" x2="255.21875" y2="162.25" fill="rgb(0, 0, 0)" stroke="rgb(153, 153, 153)" stroke-width="1.5px"></line></g></g><g><g><line x1="25.521875" y1="0" x2="25.521875" y2="177" fill="rgb(0, 0, 0)" stroke="rgb(153, 153, 153)" stroke-width="1.5px"></line></g></g><g><g><g><g><g><path stroke="rgb(255, 112, 67)" stroke-width="2px" d="M25.86003984375,152.6625L26.152265312500003,153.28355263157894L26.21224171875,153.68937587949182L26.8821909375,153.81968239897662L26.89878015625,153.93731227121242L26.99065890625,152.75833231561288L27.159103281249998,152.73381699632012L27.25353421875,152.68597897872831L27.8290525,152.63779095967342L27.977079375,152.66045647790475L28.40201859375,152.53280475701692L28.6942440625,152.83549322932973L28.89459078125,152.58980601223865L28.89969515625,152.59419872486507L29.126839843750002,152.6492354198069L29.51987671875,152.65840731115168L29.850385,152.87615322109033L30.161751874999997,152.85101474921294L30.406761874999997,152.51915168530252L30.457805625,152.66361577665793L30.62752609375,152.85922584492872L30.66325671875,152.86467304853954L30.98483234375,152.62400004424418L31.19794,152.62469933309265L31.248983749999997,152.35862820719706L31.266849062499997,152.45734345978417L31.391906249999998,152.41505935417283L31.653505468749998,152.07328010251328L31.88575453125,151.5933466069602L31.9100003125,151.4389438756326L32.078444687499996,151.73161000222854L32.366841875,151.8047652461197L32.64120203125,151.73802627683662L32.713939374999995,151.60553879619164L33.122289375,151.30122718873508L33.39409734375,151.07402164547278L33.57275046875,150.63394671545774L33.66462921875,150.73655912397467L33.710568593750004,150.79311783973134L33.78458203125,150.7083870228141L34.39200265625001,150.42507953925687L34.51450765625,150.45745925193282L34.51705984375,150.2081940652888L34.643393125,150.37559809910246L34.75186109375,150.14927721590027L34.80545703125,150.0011862147336L35.133413125000004,150.02924675455037L35.143621874999994,149.87176240496015L35.41287765625,150.00706094028294L35.6464028125,149.93626778201147L35.8914128125,149.82191056958075L36.326560781249995,149.5993260736213L36.43375265625,149.67960884959405L36.74767171875,149.8062428003093L37.89615609375,149.4812126446879L37.91402140625,149.2315454474525L38.109263750000004,149.07835809953824L38.43594375,148.83569827834998L38.4895396875,148.78849969322644L38.49592015625,148.56260590286257L38.58269453125,148.31862321161492L38.80983921875,148.48775707804646L39.07271453125,148.39903755032094L39.1275865625,148.23773669721908L39.1326909375,148.09769366134526L39.363663906250004,147.9665921712519L39.87665359375,147.77226592985636L39.965980156250005,147.6116892401705L40.462380624999994,147.61527281103048L40.584885625,147.65610985045865L40.602750937500005,147.42674875974603L40.78395625,147.2225535221258L40.9906834375,147.29315304227964L41.078733906249994,147.2578749656404L41.09915140625,147.09519400567902L41.187201875,146.87866693865624L41.48836,146.8432896578083L41.66573703125,146.68275066450786L41.881396875,146.54780221439572L42.01283453125,146.70697340446011L42.16851796875,146.2294886931066L42.34206671875,146.05689990673432L42.37779734375,146.04895055061831L42.41735625,145.81144332600493L42.48243703125,145.4716343915104L42.54113734375,145.5958186442498L42.68150765625,145.52453584658357L42.6904403125,145.35331615937992L42.83974328125,145.08985878332163L43.11155125,145.06441938322112L43.3284871875,144.72304019730063L43.41908984375,144.5962927916072L43.45226828125,144.63924653135376L43.7521503125,144.62556309495557L44.0073690625,144.60848981874008L44.0124734375,144.6502231599338L44.06989765625,144.74161042367098L44.155395937499996,144.77315354066104L44.239618125,144.10550598253593L44.48079984375,143.75502670860746L44.52418703125,144.0603907125523L44.607133125,143.72676633845774L44.7168771875,143.79526290592878L44.7730253125,143.45127749572492L44.8955303125,143.47686448462312L44.995065625,143.46046812148523L45.1201228125,143.33203686521588L45.32302171875,143.2777841422412L45.80666125,143.27133378664013L46.070812656250006,143.27935673227972L46.115475937499994,143.1436855531988L46.250741874999996,142.98931583983997L46.25967453125,142.96346735465403L46.40514921875,142.57636826702125L46.7126878125,142.08232248850308L46.75479890625,141.8681516855296L46.81605140625,141.94274309739367L46.96152609375,141.80706199673128L46.96663046875,141.95288853769847L47.13507484375,141.71939580492312L47.3354215625,141.51847126547955L47.468135312499996,141.34224867798804L47.49238109375,141.51091483224968L47.53321609375,141.01740042841163L47.6263709375,141.10792618318837L47.64040796875,140.96681078851412L47.71952578125,140.9540750024918L47.9734684375,140.79741728447516L48.033444843750004,140.67486290270278L48.04620578125,140.62909531089966L48.10235390625,140.64321704412023L48.10363,140.51764522518238L48.11383875,140.16494291315516L48.259313437500005,140.082589186001L48.48262984375,139.98542395279833L48.59492609375,140.0279299990912L48.6064109375,139.83021501770324L48.635761093750006,139.8089903806455L49.340164843749996,139.55480998170154L49.3975890625,139.53346960015313L49.43204359375,139.3068413100608L49.59538359375,139.0890477347949L50.3929421875,138.95664292342033L50.52310375,138.79230671374768L50.58818453125,138.65362288522226L50.71324171875,138.2706823918017L50.987601875,138.03666098367705L51.140733125000004,137.78916671848236L51.27727515625,137.7554062914991L51.459756562500004,137.45306874596176L51.513352499999996,137.3653399855572L51.6358575,137.11122783382498L51.72901234375,137.12682380199885L51.815786718750005,137.05789141560786L51.8527934375,136.95897726605153L52.10546,137.1138054326681L52.12715359375,137.11070613919836L52.26752390625,136.77604175555766L52.35429828125,136.89890633651794L52.55081671875,136.7144844440635L52.76520046875,136.3503016090126L52.886429375,136.14699019025088L53.02297140625,136.06541616838734L53.029351874999996,135.83067141919724L53.2309746875,135.60096364580326L53.289675,135.41266415144648L53.38027765625,135.19249148127537L53.48491734375,135.30316421042178L53.49002171875,134.79894153005552L53.56148296875,134.47881299672213L53.5831765625,134.3289785698056L53.645705156249996,133.7931119556012L53.6648465625,133.8593476358447L54.0068396875,133.67005349519326L54.08978578125,133.7301575212646L54.14338171875,133.56761051770047L54.25950625,133.20928696307809L54.45985296875,133.49523326881885L54.56959703125,133.28703806559457L54.868202968750005,133.0905923572604L55.1400109375,132.75231436976762L55.24847890625,132.83966105820141L55.7576403125,132.38819495047142L55.96564359375,132.3437113927549L55.9975459375,132.17230900289206L56.08814859375,132.08027341481903L56.14940109375,131.7923241975379L56.37399359375,131.89270115303486L56.4543875,131.46679041177384L56.55519890625,130.89448636943848L56.575616406250006,130.89566273249676L56.87932671875,130.51875270862936L56.9469596875,130.479143062708L56.96610109375,130.3513068812675L57.0082121875,130.34687931813545L57.347653125,130.46734763645145L57.581178281250004,130.3591284977016L57.935932343750004,130.05430939766592L58.672238437500006,129.95051908281798L58.6773428125,129.94468592453208L58.75263234375,129.79193608198187L58.78070640625,129.61758622368404L58.78836296875,129.3085619761567L59.440446875,129.3162214035446L59.6573828125,129.29084926317955L59.673972031249995,128.9684049617407L59.806685781249996,128.06515821526185L59.89090796875,127.97590801870855L60.001928125,127.46230159169733L60.82245640625,127.27661830748191L60.8671196875,126.95278460166202L61.2856784375,127.1268811415305L61.4745403125,127.2559117774006L61.598321406249994,127.03094559962423L61.76166140625,126.99902291465719L62.32314265625,126.56927687313527L62.5158328125,126.40375543580225L62.6842771875,126.01048926718039L62.95863734375,125.24750477520409L63.21258,124.79931679764525L63.2814890625,124.01336949282005L63.3223240625,123.90984504353085L63.41803109375,123.97339178918173L63.69111515625,123.73558386025017L63.79830703125,123.32335359920427L63.9144315625,123.33492448928438L64.0318321875,122.93971329033972L64.03948874999999,122.83114512902635L64.59458953125001,122.77670249112191L65.04377453125,122.5387197420026L65.50316828125001,122.043363392789L65.63332984374999,121.62058955349985L65.688201875,121.40603059814521L65.7571109375,121.30972441332878L65.7724240625,120.84047072198761L66.39388171875001,121.2340017747951L66.66058531249999,121.36692972231751L66.780538125,121.51883050008769L66.81882093749999,120.55390057506774L66.86986468750001,120.61194801756159L67.02427203124999,120.39223759080335L67.20547734374999,120.2820763317221L67.290975625,119.88793119854688L68.00558812499999,119.46405995368929L68.06301234375,118.4142164583139L68.37693140625001,118.56177918748332L68.64235890625,118.7821637687361L68.699783125,118.9205880168631L68.77507265625,118.73173234017602L68.79549015625,118.87519973115894L69.16555734375,118.88447663304308L69.35186703125,118.78220084473847L69.781910625,118.4735120102638L69.812536875,117.93756705923614L69.93121359375,117.67185722831196L70.67645234375,117.34053088048012L70.75046578125,116.78421216743115L70.81937484375,116.96571282568831L71.03631078125,116.82023529311928L71.21624,116.7031336388072L71.24559015625,116.60235152492636L71.59396375,116.60383512243372L71.6832903125,116.53602973519028L71.73561015625,115.96336426167078L71.8491825,116.2131215855039L72.150340625,116.22587192695352L72.36089609375,115.90086285925797L72.5204078125,115.80655782333211L72.55103406250001,115.24230829099864L72.75010468750001,115.21846808689875L73.1227240625,114.57935565320861L73.12527625,114.19774821288762L73.21843109375,113.96492651659878L73.38942765625,114.11030886493896L73.46344109375,114.19966860344508L73.4902390625,114.51517049310063L73.64464640625,114.37966906879055L73.68292921874999,114.19318653691147L73.78246453125,114.1498053832203L74.11680109375001,113.88029359489823L74.32990875,113.91429548540842L74.508561875,113.48856906186751L74.528979375,113.07775903068071L74.76505671875,112.78638937761261L75.1083259375,112.77306293985133L75.16575015625001,112.06044414586616L75.20786125,111.45135285627948L75.223174375,110.96309257065151L75.406931875,110.48678331358633L75.478393125,110.7956049822277L75.59706984374999,111.10120073400495L75.92247375000001,111.21029941060446L76.2159753125,111.197863219544L76.35762171875,111.3479987725896L76.50054421875,111.57991764533067L76.55796843750001,111.56278525579759L76.6855778125,110.82830360521781L76.75321078124999,110.43000449469602L76.81701546875,109.95630092022641L76.8387090625,109.74199895320378L77.04926453125,109.61365843288338L77.47420375,109.33682383959503L77.73069859374999,109.53939145563554L77.92338875,110.22412418507199L78.2475165625,109.92772739156479L78.26665796875001,109.4950327774083L78.4925265625,109.83388887466748L78.6686275,110.09276561220071L79.11653640625,110.26583280098066L79.41003796875,110.21878077088259L79.46618609375,109.77541831879431L79.76989640625001,109.21045461191488L79.80945531249999,109.1537060257234L79.89495359375,108.49880417315104L80.08381546874999,108.03384563083594L80.22546187500001,107.79053919275233L80.56107453125,107.50703214847711L80.64784890625,107.27953205862939L80.83926296875,107.50345385276644L80.90944812500001,107.00435846748981L80.91327640625,106.65196949574083L82.052828125,106.23341317116673L82.226376875,105.62163435405007L82.42927578125,105.39829904364505L82.6270703125,104.26159413928055L82.772545,103.82855972535249L82.85293890625,102.53539125281723L82.88484125,102.7266958775355L83.11581421874999,102.01387003978196L83.22811046874999,102.20662366080377L83.24980406249999,102.15885191972339L83.2957434375,101.88077922775105L83.39655484375001,101.71809192997594L83.83297890625,102.23081398697836L83.900611875,101.63671696328052L84.23877671875,101.65515464195248L84.2757834375,101.04948292775724L84.29875312499999,100.8454721349815L84.78749703125,100.83240929648335L84.88958453125,101.00963711683504L85.0618571875,100.36711090515152L85.15756421875,100.42493106463638L85.22136890625,100.14970358317274L85.23540593749999,100.14629572485548L85.28262140625,100.66869740236993L85.49955734375,100.71018703713294L85.63992765625,100.13909020841965L85.87090062499999,99.86939993757767L85.9500184375,99.59441306881992L85.99468171875,99.76176863693793L86.06997125,99.82020114824414L86.7309878125,99.49021228341972L87.08318968750001,98.92587855507776L87.1393378125,98.58391569956999L87.238873125,98.05950850461299L87.24780578125001,96.51355765415171L87.3077821875,96.25610813873655L87.42645890625,95.9483488873629L87.473674375,95.88109212362662L87.62680562499999,96.22157666126394L87.882024375,96.61559087013755L87.89988968749999,97.2974692831238L88.10789296875001,97.02615985481143L88.36566390625,97.72690324433029L88.49837765625,97.62929104489724L88.7931553125,96.96987756540751L88.80974453124999,96.74515543386677L89.25892953125,95.8054055154801L89.321458125,96.01978683893208L89.37377796875,95.66421440503888L89.38398671875001,95.46404296453498L89.4490675,95.23779491808149L89.52180484375,95.52276542627335L89.74129296875,94.93572325864602L90.0386228125,94.64246343278141L90.10497968749999,95.34649833950328L90.22110421875,95.80958288055295L90.22748468750001,95.64096834249766L90.2683196875,95.7980433832479L90.36275062499999,96.05925466992312L90.75706359375,95.6075479529308L90.87191203125,95.68038690763773L90.93316453125,94.63047321687397L90.96634296875,94.31242589518656L91.05566953125,93.3209489306679L91.1003328125,92.88494778760109L91.3606559375,92.76219519634098L91.475504375,93.29933505170689L92.0650596875,93.1466671715362L92.16842328125,92.92168795438258L92.22967578125,91.77889415894433L92.353456875,92.1216688055499L92.45044,91.4921581749949L92.57677328125,90.9901298574954L92.6775846875,90.27096062174586L92.6980021875,90.05238018457128L92.772015625,89.98011091611414L92.78732875,89.40342794950274L92.99405593750001,89.59425702955247L93.13953062499999,89.35115945159721L93.241618125,88.8097153814375L93.91667171875,87.61257196829375L94.31864125,87.53537727146438L94.41179609375,87.24465204431793L94.4488028125,87.01065558988614L94.630008125,86.99826190589754L94.732095625,87.35585759030778L94.7601696875,87.926599956277L94.77165453125001,88.20518996064929L95.2476375,87.56170221458437L95.30889,87.63709449312593L95.3318596875,87.57588504381334L95.35100109375,87.95868716443199L95.62918953125,87.73164657298878L95.64705484375,87.72090379068992L95.661091875,87.56373528662093L96.0056371875,87.69884613295882L96.3170040625,87.14286776966293L96.87976140625,86.78076849269664L97.50377125,86.52401976842697L97.60203046875,85.67989904158428L97.6135153125,85.16448726242585L97.62500015625,84.82506978618326L97.8738384375,83.67607843256494L97.89680812499999,83.86807996430844L98.1137440625,83.5154125928776L98.49657218749999,83.28098070858982L98.67522531249999,82.77499201273086L98.76838015624999,82.08913343645776L99.28009375,82.697954467812L99.40642703124999,82.66050277103079L99.66547406250001,81.78788999392769L99.6858915625,81.68011661953493L99.73565921875,81.50937058258143L99.82243359375,81.9733553993233L99.9309015625,81.74101985939095L100.81268234375,81.69785537345184L100.836928125,81.56221046110666L101.30908281250001,80.68880191499599L101.388200625,80.7047654734964L101.52729484375,80.34577330114676L101.5489884375,79.65393034603207L101.93692093749999,79.59361543642886L101.9930690625,79.74214451778597L102.2636009375,80.21230506600739L102.49712609375,79.13740268440664L102.58262437500001,78.71850616596598L102.62983984375,78.35993679936938L102.65791390625,78.00495874443243L102.92461750000001,77.98508786998919L103.01011578125,77.47861033299027L103.28575203125001,76.51113992469125L103.44143546875,77.49799468222211L103.46312906249999,77.3997577139999L103.76556328125001,77.73079756759992L103.797465625,77.11607718583991L104.18412203125,76.96153977975592L104.2313375,76.90772955178032L104.77112515625001,75.94203472160228L104.8208928125,75.47392499944206L104.82727328125,75.08950124949784L104.9127715625,75.29203549954808L104.97530015625,76.12423819959326L105.14629671875,74.96493937963395L105.8621853125,74.94024231667055L105.9744815625,73.8209837100035L106.08550171875,72.44490096400314L106.104643125,72.80127024260283L106.216939375,72.13098696834254L106.52064968750001,71.80429452150827L106.75927921875,71.57480256935746L106.96345421875,70.93036918742172L107.59894890625,71.01873851867954L107.72911046875001,70.79405216681158L107.76739328125,70.90527195013041L107.95625515625001,70.49833850511737L108.19871296875,70.63452027960564L108.7155309375,70.80778700164505L108.91460156250001,70.05568017648056L109.6036921875,70.1946434088325L109.92654390625,70.79908531794925L109.973759375,69.88191116115433L110.1090253125,70.1673137950389L110.23280640624999,70.01855116553499L110.49823390625,69.2992741739815L110.53013625,68.98379988158334L110.5326884375,69.70010739342501L110.68964796875,68.9343154040825L110.71516984375,69.24994636367425L111.04184984375,68.74581110230683L111.96446562499999,68.45802686707614L111.9721221875,68.79823980536854L112.05123999999999,68.67575957483169L112.15970796875,69.1094336173485L112.50170109375,68.63317775561366L112.53998390625,68.00173498005229L113.14357625,67.68695210704705L113.16016546875,67.79544439634235L113.2584246875,67.17402495670812L113.27756609375,66.44420058603731L113.33499031250001,66.46032740243358L113.40007109375,65.67741966219023L114.1670034375,65.71952144597121L114.4069090625,65.9694443013741L114.46688546875,65.63664049623668L114.76804359375,66.590867071613L114.787185,66.3618584894517L115.113865,66.10504764050654L115.1368346875,67.13688662645588L115.40098609374999,67.17132296381028L115.455858125,66.85661254242925L115.68938328125,66.62868566318632L115.80040343750001,66.84300459686767L115.8514471875,65.89276663718093L116.47035265625,65.65981809846282L116.537985625,64.74953941361653L116.54308999999999,64.61708547225487L116.61455125,64.34115817502938L117.01141640625,64.36938610752644L117.28194828125001,64.08135374677379L117.55375625,64.1401714970964L118.15734859375,63.62154497238677L118.4546784375,63.0856404751481L118.5159309375,63.88473267763328L118.5363484375,64.25360315986994L119.2050215625,64.60402409388294L119.263721875,64.26487168449464L119.447479375,63.55400951604517L119.50235140625,63.204624189440636L119.57381265625,62.484552395496564L119.64782609375001,62.467972155946924L119.7205634375,62.44383119035223L119.87497078125,62.66179182131701L120.0115128125,62.784206389185314L120.3586103125,61.776606062766774L120.3790278125,61.669492331490105L120.42879546875,61.87269934834109L120.7286775,62.05558566350696L120.84480203125,61.510339597156275L120.87798046875001,61.411415012440656L121.25315203125,61.45144538619658L121.74061984375,61.390675847576915L121.82101375,60.43254576281923L121.88099015625001,59.856009936537305L121.9256534375,59.27259644288358L122.36845796875,59.47580554859523L122.54711109375,59.82002186873571L122.98353515625,59.72880093186214L123.7938546875,59.619045838675916L124.29918781250001,60.133313129808315L124.32343359375,59.821778691827475L124.58886109375,59.711944572644725L124.67308328125,60.20770324038024L124.7585815625,61.65412041634224L124.8938475,61.365661499708L124.96530875,61.55776722473718L125.05846359375,62.057928002263466L125.16437937500001,61.83971332703712L125.74244984375,61.790820119333404L126.09465171875,61.95884748240006L126.3613553125,61.568470546660066L126.37411625,61.66193599199404L126.64847640625,61.74144551779463L126.79777937499999,61.35667596601519L127.63362078124999,60.913586494413664L127.71529078125002,61.127852844972296L127.98071828124999,60.74913006047505L128.13895390625,60.77702955442756L128.1580953125,61.544248473984794L128.21041515625,61.0224798765863L128.23210875,60.96312251392767L128.41586625000002,60.974232137534926L128.87143171875,59.88719954878141L129.09347203125,59.99668271890329L129.33592984375,59.82787382201295L129.35507124999998,59.62985206481166L129.52862,59.40092935833049L129.68302734375,59.22716454749744L130.1896365625,58.886401217747675L130.27003046875,58.94846422097292L130.49462296875,58.97205529887563L130.76770703125,58.93797476898807L130.94380796875,59.32214604208926L130.96932984375,59.65868143788033L131.16329609374998,59.23328204409229L131.34450140624998,58.88268821468306L131.68904671875,59.54434126821475L131.994033125,59.50834464139328L132.101225,59.35610392725394L132.26839328125,59.10846228452854L132.6524975,59.526287931075686L132.759689375,59.81936226296811L132.92430546875,60.4610979116713L132.94982734375,60.72061312050417L133.11827171874998,60.48402055845375L133.7218640625,60.95327475260838L133.90434546875002,60.69341602734754L134.55260109375,60.67618379961279L134.71594109375,60.42098729465151L134.75932828125,59.721154190186354L134.93542921875,59.994741896167724L135.20596109375,59.959798956550955L135.48414953124998,59.707100310895854L135.50584312499998,59.55803090480627L135.65387,59.74191531432564L135.6717353125,59.755301907893084L135.81082953125,59.61063109210377L136.12730078125,59.54034923289339L136.3557215625,59.32959555960406L136.51778546875,59.637729753643654L136.67091671875,60.048722403279285L137.07288625,60.183537662951366L137.1622128125,59.83932452165622L137.58332375,59.7046889444906L137.690515625,59.214766925041545L137.71220921875,58.43735273253738L137.88958625,58.152523709283656L138.37067359375,58.68899008835528L138.44085875000002,58.54493482951975L138.79944109375,58.01426947156777L138.91173734375,57.605811274410996L138.92960265625,57.717573896969895L139.44897281250002,58.15925400727291L139.9338884375,57.20621923154562L140.07043046875,57.64372230839106L140.52727203125,57.613412577551955L140.52982421875,57.21738381979675L140.79907999999998,57.51548918781707L140.82332578125,57.24909651903536L141.2278475,56.44699936713182L141.51241640625003,56.28284630541863L141.62726484375,56.13510854987676L141.62981703124998,55.93761331988908L141.69745,55.7783051129002L141.88758796875,55.75477147661016L142.13259796875,56.153044328949164L142.294661875,55.13789614605423L142.35974265625,55.33973153144882L142.95695453125,55.19411775330394L142.96461109375,55.606971602973545L143.1241228125,55.65588381767617L143.3487153125,56.17927981090857L144.27133109375,56.25392995481771L144.5176171875,56.095255709335916L144.52910203125,56.316589513402334L145.42364375,56.50196181206209L145.5487009375,55.80223438085588L145.65972109375002,55.430604692770274L145.73756281250002,54.805747348493284L145.76946515625,54.71353198864395L145.93790953125,54.67663191477955L146.0387209375,54.89232809830159L146.08338421875,54.3996577884714L146.39985546875002,55.071723259624264L146.80310109375,54.33986343366183L147.03790234375,54.07759584029566L147.2127271875,53.772414381266074L147.3199190625,53.8111885681395L147.46794593750002,53.79538221132556L148.0192184375,53.20037524019298L148.14299953125,53.526822091173685L148.26550453125,53.5624992570563L148.45053812499998,53.184374331350696L148.705756875,53.28656189821561L148.869096875,52.95446820839406L148.97246046875,53.153396387554665L149.41909328124999,52.92680674879918L149.44716734375,52.52006357391927L149.4892784375,52.69790096652736L149.98312671875,52.3924077448746L150.64159109375,52.50465134538716L150.7755809375,52.50426433584845L151.07801515625,52.23657227726359L152.00573531249998,52.46580567453722L152.01849625,52.90258448208351L152.044018125,53.014513533875146L152.25074531250002,52.97696843048763L152.68972156249998,53.64380283743887L152.9908796875,53.77840692869496L153.2767246875,53.185097485825494L153.3379771875,53.72049398724293L153.40688624999999,54.13781958851864L153.8228928125,54.25067825466677L153.89563015624998,54.3799073042001L154.23251890625002,55.653166573780084L154.33843468749998,55.30105304140207L154.9611684375,55.07172898726185L155.0300775,55.62588421353567L155.535410625,55.013764542182116L155.78680109375,55.20035683796391L155.9667303125,55.3083680291675L156.02415453125,54.65424997625074L156.0509525,53.96413747862567L156.39932609375,54.4124112307631L156.40825875000002,54.530076357686795L156.9722921875,53.81550622191813L157.12925171875,53.3752055997263L157.15222140625002,53.16331003975367L157.36150078125,53.1293227857783L157.4112684375,53.06185925720045L157.41509671875,52.7798920814804L157.42020109375002,52.67362162333238L157.44572296875,52.91907196099913L157.70221781249998,53.190680389899214L158.52019390625,53.09864360090931L159.20545625,52.57331049081837L159.4402575,52.861057566736534L159.445361875,52.30877993506287L159.56914296875001,52.57688631655658L159.83839874999998,52.38490080990094L160.2901359375,52.80211385391084L162.120054375,52.31104309351974L162.6381484375,52.228610659167785L162.64963328124998,52.490905843250985L163.17410781249998,52.1047058839259L163.20601015625002,52.47157904553329L163.31320203125,52.97231176597997L163.35658921875,52.989689964381995L163.3782828125,53.02376784294377L163.39104375,52.97146918364942L163.43187875,52.40354101528446L164.42723187500002,52.19662441375603L164.59312406249998,52.07954009738039L164.68245062499997,52.075570462642375L164.75008359375,52.02129466637814L165.03720468749998,51.7373683247403L165.43406984375,51.39425649226628L165.78499562500002,51.33436209303967L165.96492484375,51.575457133735696L165.97513359375,51.40064579536211L166.34520078124999,50.906831215825875L166.48557109375002,51.010913719243305L167.11851359374998,50.33482234731896L167.3239646875,49.69868386258709L167.62384671874997,50.11256547632837L167.7833584375,50.63716830369552L167.83440218750002,50.59306084832599L168.22616296875,50.52109851349336L168.40992046875002,50.19359803714403L168.59878234375,50.903691358429626L168.88079906250002,50.64855659758666L169.021169375,50.709325937828L169.33636453124998,50.51050271904518L169.64773140625,50.46523369714065L169.83021281249998,50.3968353274266L170.1390275,50.25230804468396L170.69668046875,49.56910849021553L171.139485,49.313760141193995L171.16628296874998,48.68293100207458L171.20328968750002,48.57151290186712L171.21094625,49.34240848668041L171.32707078125,48.99910513801237L171.33600343749998,49.05427274921112L171.9127978125,49.527986099290004L172.20247109375,49.50721873936101L172.27393234375,49.1935281154249L172.32497609375002,48.9849565538824L172.48321171875,49.01849214849415L172.5916796875,48.44484605864474L172.74098265625,49.34825207778026L172.98216437500002,49.474520620002224L173.22462218750002,49.84628730800202L173.62659171875,49.8950960772018L173.86394515625,50.01738334448163L174.033665625,49.657285635033446L174.1689315625,49.32397894653012L174.41011328124998,49.43884667687709L174.70233875,49.31636825918939L175.03157093750002,49.26605955827044L175.19235875,48.2758598524434L175.19618703125002,48.30655511719905L175.99502171875,48.24199335547914L176.01288703125002,48.20232526993124L176.13283984375,48.24959274293812L176.381678125,48.4211959686443L176.49269828125,48.34517012177986L176.86276546874998,47.34104373460187L176.9584725,47.30389248614168L177.0886340625,47.3395969875275L177.4051053125,46.606574788774765L177.6092803125,46.54146418489728L177.851738125,47.48309901640755L178.01380203124998,47.0629922397668L178.45277828125,47.06747426579011L178.59570078125,47.20057058921108L178.65184890625,47.16824790529L178.6760946875,47.15759498976101L179.09848171874998,47.56746049078487L179.8169225,47.42008944170641L180.40903,46.895658622535734L180.5953396875,47.28101463528219L180.7995146875,46.982522546753955L181.07515093749998,46.69083279207854L181.0853596875,46.69104638787067L181.21424515625,46.755769874083626L181.59324500000002,47.02144288667526L181.67108671875002,46.59218922300772L181.67874328125,46.71750155070694L181.94161859375,46.33247014563625L182.83233203125,46.193363756072614L183.04671578125001,45.676371130465384L183.12966187499998,45.82873401741884L183.42954390625,45.94281374067697L183.68986703125,45.93025111660924L184.12373890625003,45.43956975494834L184.24624390625,45.523425279453505L184.34450312500002,45.95842650150814L184.40703171875,46.08719322635733L184.69032453125,46.5257395287216L184.77965109375,46.24285307584941L184.78730765625,45.98364589326448L184.92512578125,45.81028130393801L185.07442875,46.43784692354424L185.2556340625,45.99781223118981L185.344960625,46.07654663307082L185.41386968749998,46.1335794697637L185.4802265625,46.23561214778735L185.50702453125,46.07392593300861L185.5108528125,45.69793958970777L185.5874184375,45.903458130736965L185.59507499999998,46.2774091926633L185.60528375,45.927168273396944L185.85922640625,45.759451446057255L185.87453953125,46.50733442645151L186.03277515624998,46.58121035880637L186.48323625,46.537073697925706L186.53555609375,46.59875695313315L186.59170421875,46.11036563281982L187.23230328125,46.21471969453785L187.3994715625,46.62668522508403L187.7720909375,45.93268857757565L187.963505,45.51090409481807L188.26593921875,45.07137618533628L188.9231275,44.814082316802654L189.142615625,45.20478346012237L189.20897250000002,44.57461761411014L189.61859859375,44.463796477699134L189.82277359375001,44.71897932992917L189.98100921875,44.70434702193626L190.06523140625,44.76031856974265L190.62416046875,45.981474212768376L190.98401890625,45.872858041491526L191.705011875,45.752056612342386L191.7535034375,45.54653845110812L192.1975840625,45.91008773099733L192.62762765624998,44.7715008328976L192.8815703125,44.788491374607844L192.91474875,44.55948598714704L193.00535140624999,45.196896763432335L193.09467796874998,45.01923833708909L193.12275203125,45.18200200338018L193.72251609375,44.56794242804216L194.03898734375,44.39325756023791L194.5558053125,44.59096305421414L194.7906065625,44.2756948737927L195.17471078125,43.18531288641344L195.30232015625,42.5404534727721L195.46055578124998,41.82640812549491L195.982478125,42.14251731294539L196.07946124999998,42.10435933165087L196.08456562499998,41.84415777348579L196.09349828125,41.015366996137175L196.4137978125,41.20515842152349L197.0492925,41.46815820437112L197.79580734375003,41.89845175893399L197.95276687499998,41.74641908304059L198.10206984375,41.92302717473652L198.10972640625,41.021818207262896L198.340699375,40.83299576153661L198.840928125,40.94883681038294L198.93791124999998,40.43543750434466L199.0017159375,40.95056562891017L199.23141281250003,41.630821566019165L199.351365625,41.73141128441725L200.30205546875,42.024754530975514L200.45773890625,41.80016970287795L200.63256375,41.75015273259015L200.79973203125,42.244434334331146L200.94775890625002,41.75819402589801L201.26423015625002,41.569483998308215L201.78487640625,42.08644184847739L201.96608171875,41.72662578862966L202.1204890625,41.69779133476666L202.13835437499998,41.63496532629L202.98568062500001,41.97943754366102L203.01758296875,41.4689937892949L203.03162,41.53506316036544L203.04820921875,41.29030684432888L203.09414859375,40.91330740989599L203.108185625,40.72150791890638L203.33405421875,40.58115400201572L203.3914784375,40.46405422681417L203.89808765625,40.635226929132756L204.11757578125,41.236391736219474L204.210730625,41.00767443759753L205.16524875000002,40.91245386883779L205.54169640625,40.76222410695402L205.89900265625,40.7837360712586L206.16187796875,41.13958121413276L206.24610015625,41.639607467719486L206.28438296875,41.60103734594753L206.65062187499998,41.23905861135276L206.67741984375,41.66460587521749L207.31546671875,41.62353591269576L207.4902915625,41.41602607142616L207.7710321875,41.43668908928356L207.79783015625,40.94825455535522L207.93054390625,40.439522849819696L208.4039746875,39.74197681483773L208.6949240625,39.671919758353965L208.79956374999998,40.074415282518544L208.85188359375,39.83744250426673L209.1236915625,39.63799512884006L209.4605803125,39.93325811595605L209.5728765625,39.42922917936045L209.63795734375,38.46396251142443L210.00036796875,38.29584751028196L210.18284937500002,38.55477838425378L210.315563125,38.718675545828404L211.07994328125,38.54813611624556L211.11056953125,39.311916254620996L211.1552328125,39.18806837915892L211.35047515625,39.13652716624304L211.53423265625,38.60615569961874L211.73840765625,39.39639950465687L212.347104375,39.43925955419118L212.62912109375,39.943380473772066L212.68271703125,40.64138617639486L212.79756546875,40.154122558755375L212.80011765625,39.09331967787983L212.97111421875002,38.68250333509184L213.41264265625,38.165268626582645L213.60150453125,37.934835513924384L213.73677046875,38.16533633753198L213.83885796875,37.856537078778814L213.8707603125,37.191430245900904L214.21530562499998,37.23814659631083L214.47690484375002,36.85151943667975L214.88780703125002,37.056679993011784L215.02817734375,37.25515261871061L215.0498709375,37.12034048183955L215.21065875,36.88838455865559L215.32678328125,36.89626485279004L215.88571234375,36.63140399251105L215.96993453125,37.63756046825995L216.0248065625,38.60302317143396L216.07202203125001,38.55928335429056L216.1064765625,38.5660112688615L216.41529125000002,37.825347641975355L216.4433653125,37.72109412777783L216.45740234375,37.28156284000005L216.82491734375,37.78942218100005L217.2447521875,37.965323712900044L217.35449624999998,37.99457259161005L217.706698125,38.076209082449054L217.73604828125,37.767103799204165L218.23117265625,37.27226841928373L218.32049921875,38.011525952355385L218.7964821875,37.26177960711985L219.30564359374998,36.16755477140785L219.37072437499998,35.96634616926707L219.513646875,36.490492802340356L219.54044484375,35.989646647106326L219.91816859375,36.81568198239569L220.02918875,36.81700440915614L220.39287546875,37.00256959324051L220.89182812500002,36.89762513391648L220.99008734375,36.93684699552483L221.34484140625,36.88917792097237L221.70087156250003,36.66651012887513L221.73660218749998,36.65048411598758L221.91780749999998,36.01840445438884L222.4205884375,35.735314008949956L222.88125828125,35.333032608054964L223.10840296875,35.65316684724948L223.35086078125,35.148475162524534L223.6762646875,35.192065146272085L223.81153062500002,34.46613988164489L224.10120390625002,34.700111830980404L224.1203453125,34.77010064788237L224.25178296875,34.79160620809412L224.526143125,35.124398712284716L224.58229125,35.35477134105625L224.883449375,35.94929420695064L224.94087359374998,34.78811478625556L225.21523375,34.96453768263001L225.21906203125,35.740974539367016L225.2254425,36.79468958543032L225.2279946875,36.55381437688729L225.240755625,36.120386064198584L225.24330781249998,36.05295683277873L225.2586209375,36.045278337000866L225.26244921875,36.36793800330079L225.26500140624998,35.88395670297072L225.2739340625,35.87243603267362L225.28669499999998,35.55784867940628L225.29690374999998,35.860110686465646L225.29945593750003,36.02152149281909L225.30200812500001,35.53991621853717L225.30583640625,35.07420584668347" style="fill: none;" fill="none"></path></g></g></g></g><g opacity="0.2"><g><g><g><path stroke="rgb(255, 112, 67)" stroke-width="2px" d="M25.86003984375,152.6625L26.152265312500003,153.8425L26.21224171875,154.38333363342286L26.8821909375,154.1375L26.89878015625,154.30138848876953L26.99065890625,148.41309558105468L27.159103281249998,152.6304351348877L27.25353421875,152.46136380004882L27.8290525,152.3907890472412L27.977079375,152.78541636657715L28.40201859375,151.78452389526367L28.6942440625,154.70480783081055L28.89459078125,151.003125L28.89969515625,152.6236840209961L29.126839843750002,153.03125L29.51987671875,152.72395863342285L29.850385,154.47272760009764L30.161751874999997,152.6625L30.406761874999997,149.98068190002442L30.457805625,153.78815798950194L30.62752609375,154.4056819000244L30.66325671875,152.90833363342284L30.98483234375,150.67125L31.19794,152.6304351348877L31.248983749999997,150.155L31.266849062499997,153.282L31.391906249999998,152.05909049987793L31.653505468749998,149.17613619995117L31.88575453125,147.5L31.9100003125,150.11477239990234L32.078444687499996,154.25394703674317L32.366841875,152.4380432434082L32.64120203125,151.15800000000002L32.713939374999995,150.45L33.122289375,148.63859664916993L33.39409734375,149.08035752868653L33.57275046875,146.7625L33.66462921875,151.64134608459472L33.710568593750004,151.2928575286865L33.78458203125,149.95833363342285L34.39200265625001,147.913L34.51450765625,150.745L34.51705984375,147.99166636657714L34.643393125,151.866L34.75186109375,148.13214247131347L34.80545703125,148.68L35.133413125000004,150.27980783081054L35.143621874999994,148.46442349243165L35.41287765625,151.21699999999998L35.6464028125,149.3027778778076L35.8914128125,148.798L36.326560781249995,147.6053575286865L36.43375265625,150.39913752746583L36.74767171875,150.94166636657715L37.89615609375,146.5658327331543L37.91402140625,146.99137887573244L38.109263750000004,147.70344808959962L38.43594375,146.65714337158204L38.4895396875,148.3646548309326L38.49592015625,146.53362112426757L38.58269453125,146.12672494506836L38.80983921875,150.0075L39.07271453125,147.6017240447998L39.1275865625,146.78793078613282L39.1326909375,146.83879235839845L39.363663906250004,146.78793078613282L39.87665359375,146.025L39.965980156250005,146.1677411804199L40.462380624999994,147.6475L40.584885625,148.02338732910155L40.602750937500005,145.36379235839843L40.78395625,145.3858327331543L40.9906834375,147.92822624206542L41.078733906249994,146.9405173034668L41.09915140625,145.6316672668457L41.187201875,144.93064434814454L41.48836,146.5250001525879L41.66573703125,145.2383327331543L41.881396875,145.33359375L42.01283453125,148.13916636657714L42.16851796875,141.93306515502928L42.34206671875,144.50390625L42.37779734375,145.97741900634765L42.41735625,143.67421875L42.48243703125,142.41379235839844L42.54113734375,146.7133327331543L42.68150765625,144.8830651550293L42.6904403125,143.8125L42.83974328125,142.7189653930664L43.11155125,144.83548416137694L43.3284871875,141.65086157226563L43.41908984375,143.45564434814452L43.45226828125,145.0258063354492L43.7521503125,144.50241900634765L44.0073690625,144.45483801269532L44.0124734375,145.0258063354492L44.06989765625,145.5640625L44.155395937499996,145.05703125L44.239618125,138.096875L44.48079984375,140.60080633544922L44.52418703125,146.80859375L44.607133125,140.72421875L44.7168771875,144.41171875L44.7730253125,140.35546875L44.8955303125,143.70714337158202L44.995065625,143.3129031677246L45.1201228125,142.176171875L45.32302171875,142.78951583862306L45.80666125,143.21328125L46.070812656250006,143.3515625L46.115475937499994,141.92265625L46.250741874999996,141.6L46.25967453125,142.7308327331543L46.40514921875,139.0925L46.7126878125,137.6359375L46.75479890625,139.940625L46.81605140625,142.6140625L46.96152609375,140.5859375L46.96663046875,143.26532217407225L47.13507484375,139.61796875L47.3354215625,139.71015625L47.468135312499996,139.75625L47.49238109375,143.02890625L47.53321609375,136.57578125L47.6263709375,141.92265625L47.64040796875,139.69677465820314L47.71952578125,140.839453125L47.9734684375,139.3875L48.033444843750004,139.571875L48.04620578125,140.2171875L48.10235390625,140.7703125L48.10363,139.3875L48.11383875,136.990625L48.259313437500005,139.34140625L48.48262984375,139.1109375L48.59492609375,140.41048416137696L48.6064109375,138.05078125L48.635761093750006,139.61796875L49.340164843749996,137.2671875L49.3975890625,139.34140625L49.43204359375,137.2671875L49.59538359375,137.12890625L50.3929421875,137.765L50.52310375,137.31328125L50.58818453125,137.40546875L50.71324171875,134.82421875L50.987601875,135.93046875L51.140733125000004,135.56171875L51.27727515625,137.4515625L51.459756562500004,134.73203125L51.513352499999996,136.57578125L51.6358575,134.82421875L51.72901234375,137.2671875L51.815786718750005,136.4375L51.8527934375,136.06875L52.10546,138.50725881958007L52.12715359375,137.0828125L52.26752390625,133.7640625L52.35429828125,138.0046875L52.55081671875,135.0546875L52.76520046875,133.07265625L52.886429375,134.3171875L53.02297140625,135.33125L53.029351874999996,133.71796875L53.2309746875,133.53359375L53.289675,133.71796875L53.38027765625,133.2109375L53.48491734375,136.29921875L53.49002171875,130.2609375L53.56148296875,131.59765625L53.5831765625,132.98046875L53.645705156249996,128.9703125L53.6648465625,134.45546875L54.0068396875,131.96640625L54.08978578125,134.27109375L54.14338171875,132.1046875L54.25950625,129.984375L54.45985296875,136.06875L54.56959703125,131.41328125L54.868202968750005,131.32258099365234L55.1400109375,129.7078125L55.24847890625,133.62578125L55.7576403125,128.325L55.96564359375,131.943359375L55.9975459375,130.6296875L56.08814859375,131.251953125L56.14940109375,129.20078125L56.37399359375,132.79609375L56.4543875,127.63359374999999L56.55519890625,125.74375L56.575616406250006,130.90625L56.87932671875,127.1265625L56.9469596875,130.12265625L56.96610109375,129.20078125L57.0082121875,130.30703125L57.347653125,131.5515625L57.581178281250004,129.38515625L57.935932343750004,127.3109375L58.672238437500006,129.01640625L58.6773428125,129.8921875L58.75263234375,128.4171875L58.78070640625,128.0484375L58.78836296875,126.52734375L59.440446875,129.38515625L59.6573828125,129.0625L59.673972031249995,126.06640625L59.806685781249996,119.9359375L59.89090796875,127.17265625L60.001928125,122.83984375L60.82245640625,125.60546875L60.8671196875,124.03828125000001L61.2856784375,128.69375L61.4745403125,128.4171875L61.598321406249994,125.00625L61.76166140625,126.71171875L62.32314265625,122.7015625L62.5158328125,124.9140625L62.6842771875,122.47109375L62.95863734375,118.38064434814453L63.21258,120.765625L63.2814890625,116.93984375L63.3223240625,122.978125L63.41803109375,124.5453125L63.69111515625,121.5953125L63.79830703125,119.61328125L63.9144315625,123.4390625L64.0318321875,119.3828125L64.03948874999999,121.8540316772461L64.59458953125001,122.28671875L65.04377453125,120.396875L65.50316828125001,117.58515625L65.63332984374999,117.81562500000001L65.688201875,119.475L65.7571109375,120.44296875L65.7724240625,116.6171875L66.39388171875001,124.77578125L66.66058531249999,122.56328125L66.780538125,122.8859375L66.81882093749999,111.86953125L66.86986468750001,121.134375L67.02427203124999,118.41484375L67.20547734374999,119.290625L67.290975625,116.340625L68.00558812499999,115.64921875L68.06301234375,108.965625L68.37693140625001,119.88984375000001L68.64235890625,120.765625L68.699783125,120.16640625L68.77507265625,117.03203125L68.79549015625,120.16640625L69.16555734375,118.96796875L69.35186703125,117.86171875L69.781910625,115.6953125L69.812536875,113.11406249999999L69.93121359375,115.28046875L70.67645234375,114.35859375000001L70.75046578125,111.77734375L70.81937484375,118.59921875L71.03631078125,115.5109375L71.21624,115.64921875L71.24559015625,115.6953125L71.59396375,116.6171875L71.6832903125,115.92578125L71.73561015625,110.809375L71.8491825,118.4609375L72.150340625,116.340625L72.36089609375,112.97578125L72.5204078125,114.9578125L72.55103406250001,110.1640625L72.75010468750001,115.00390625L73.1227240625,108.82734375L73.12527625,110.76328125L73.21843109375,111.86953125L73.38942765625,115.41875L73.46344109375,115.00390625L73.4902390625,117.3546875L73.64464640625,113.16015625L73.68292921874999,112.51484375L73.78246453125,113.759375L74.11680109375001,111.4546875L74.32990875,114.2203125L74.508561875,109.65703125L74.528979375,109.38046875L74.76505671875,110.1640625L75.1083259375,112.653125L75.16575015625001,105.646875L75.20786125,105.96953125L75.223174375,106.56875000000001L75.406931875,106.2L75.478393125,113.575L75.59706984374999,113.8515625L75.92247375000001,112.1921875L76.2159753125,111.0859375L76.35762171875,112.69921875L76.50054421875,113.66718750000001L76.55796843750001,111.40859375000001L76.6855778125,104.21796875L76.75321078124999,106.8453125L76.81701546875,105.69296874999999L76.8387090625,107.81328125L77.04926453125,108.45859374999999L77.47420375,106.8453125L77.73069859374999,111.3625L77.92338875,116.38671875L78.2475165625,107.26015625000001L78.26665796875001,105.60078125L78.4925265625,112.88359375L78.6686275,112.42265625L79.11653640625,111.8234375L79.41003796875,109.7953125L79.46618609375,105.78515625L79.76989640625001,104.12578125L79.80945531249999,108.64296875000001L79.89495359375,102.6046875L80.08381546874999,103.84921875L80.22546187500001,105.60078125L80.56107453125,104.95546875L80.64784890625,105.23203125L80.83926296875,109.51875L80.90944812500001,102.5125L80.91327640625,103.48046875L82.052828125,102.46640625L82.226376875,100.115625L82.42927578125,103.38828125L82.6270703125,94.03125L82.772545,99.93125L82.85293890625,90.896875L82.88484125,104.4484375L83.11581421874999,95.5984375L83.22811046874999,103.94140625L83.24980406249999,101.72890625000001L83.2957434375,99.378125L83.39655484375001,100.25390625L83.83297890625,106.8453125L83.900611875,96.28984375L84.23877671875,101.82109375L84.2757834375,95.5984375L84.29875312499999,99.009375L84.78749703125,100.71484375L84.88958453125,102.6046875L85.0618571875,94.584375L85.15756421875,100.9453125L85.22136890625,97.67265625L85.23540593749999,100.115625L85.28262140625,105.3703125L85.49955734375,101.08359375L85.63992765625,94.99921875L85.87090062499999,97.4421875L85.9500184375,97.11953125L85.99468171875,101.26796875L86.06997125,100.34609375000001L86.7309878125,96.5203125L87.08318968750001,93.846875L87.1393378125,95.50625000000001L87.238873125,93.33984375L87.24780578125001,82.6L87.3077821875,93.93906249999999L87.42645890625,93.178515625L87.473674375,95.27578125L87.62680562499999,99.2859375L87.882024375,100.16171874999999L87.89988968749999,103.434375L88.10789296875001,94.584375L88.36566390625,104.03359375L88.49837765625,96.75078125L88.7931553125,91.03515625L88.80974453124999,94.72265625L89.25892953125,87.34765625L89.321458125,97.94921875L89.37377796875,92.4640625L89.38398671875001,93.6625L89.4490675,93.2015625L89.52180484375,98.08749999999999L89.74129296875,89.65234375L90.0386228125,92.003125L90.10497968749999,101.6828125L90.22110421875,99.97734375L90.22748468750001,94.12343750000001L90.2683196875,97.21171875L90.36275062499999,98.41015625L90.75706359375,91.5421875L90.87191203125,96.3359375L90.93316453125,85.18124999999999L90.96634296875,91.45L91.05566953125,84.39765625L91.1003328125,88.9609375L91.3606559375,91.657421875L91.475504375,98.13359375L92.0650596875,91.77265625L92.16842328125,90.896875L92.22967578125,81.49375L92.353456875,95.206640625L92.45044,85.8265625L92.57677328125,86.471875L92.6775846875,83.79843749999999L92.6980021875,88.08515625L92.772015625,89.3296875L92.78732875,84.21328125000001L92.99405593750001,91.31171875L93.13953062499999,87.16328125L93.241618125,83.93671875L93.91667171875,76.83828125L94.31864125,86.840625L94.41179609375,84.628125L94.4488028125,84.90468750000001L94.630008125,86.88671875L94.732095625,90.57421875L94.7601696875,93.06328125L94.77165453125001,90.7125L95.2476375,81.7703125L95.30889,88.315625L95.3318596875,87.025L95.35100109375,91.40390625L95.62918953125,85.68828125L95.64705484375,87.62421875L95.661091875,86.14921875L96.0056371875,88.91484375L96.3170040625,82.13906250000001L96.87976140625,83.52187500000001L97.50377125,84.21328125000001L97.60203046875,78.0828125L97.6135153125,80.52578125L97.62500015625,81.7703125L97.8738384375,73.33515625L97.89680812499999,85.59609375000001L98.1137440625,80.34140624999999L98.49657218749999,81.17109375L98.67522531249999,78.22109375L98.76838015624999,75.91640625000001L99.28009375,88.17734375L99.40642703124999,82.3234375L99.66547406250001,73.934375L99.6858915625,80.71015625L99.73565921875,79.97265625L99.82243359375,86.14921875L99.9309015625,79.64999999999999L100.81268234375,81.309375L100.836928125,80.34140624999999L101.30908281250001,72.828125L101.388200625,80.8484375L101.52729484375,77.11484375L101.5489884375,73.42734374999999L101.93692093749999,79.05078125L101.9930690625,81.07890625L102.2636009375,84.44375L102.49712609375,69.46328125L102.58262437500001,74.9484375L102.62983984375,75.1328125L102.65791390625,74.81015624999999L102.92461750000001,77.80625L103.01011578125,72.9203125L103.28575203125001,67.80390625L103.44143546875,86.3796875L103.46312906249999,76.515625L103.76556328125001,80.71015625L103.797465625,71.58359375L104.18412203125,75.57070312500001L104.2313375,76.4234375L104.77112515625001,67.25078125L104.8208928125,71.2609375L104.82727328125,71.6296875L104.9127715625,77.11484375L104.97530015625,83.6140625L105.14629671875,64.53125L105.8621853125,74.71796875L105.9744815625,63.74765624999999L106.08550171875,60.060156250000006L106.104643125,76.00859375L106.216939375,66.0984375L106.52064968750001,68.8640625L106.75927921875,69.509375L106.96345421875,65.13046874999999L107.59894890625,71.8140625L107.72911046875001,68.771875L107.76739328125,71.90625L107.95625515625001,66.8359375L108.19871296875,71.86015625L108.7155309375,72.3671875L108.91460156250001,63.286718750000006L109.6036921875,71.4453125L109.92654390625,76.2390625L109.973759375,61.627343749999994L110.1090253125,72.73593749999999L110.23280640624999,68.6796875L110.49823390625,62.825781250000006L110.53013625,66.14453125L110.5326884375,76.146875L110.68964796875,62.0421875L110.71516984375,72.090625L111.04184984375,64.20859375L111.96446562499999,65.86796875L111.9721221875,71.86015625L112.05123999999999,67.5734375L112.15970796875,73.0125L112.50170109375,64.346875L112.53998390625,62.318749999999994L113.14357625,64.85390625000001L113.16016546875,68.771875L113.2584246875,61.58125L113.27756609375,59.87578125L113.33499031250001,66.60546875L113.40007109375,58.63125000000001L114.1670034375,66.0984375L114.4069090625,68.21875L114.46688546875,62.64140625L114.76804359375,75.17890625L114.787185,64.30078125L115.113865,63.79375L115.1368346875,76.4234375L115.40098609374999,67.48125L115.455858125,64.02421875L115.68938328125,64.57734375L115.80040343750001,68.771875L115.8514471875,57.340625L116.47035265625,63.56328125L116.537985625,56.55703125000001L116.54308999999999,63.425L116.61455125,61.857812499999994L117.01141640625,64.6234375L117.28194828125001,61.4890625L117.55375625,64.66953125L118.15734859375,58.95390625L118.4546784375,58.2625L118.5159309375,71.07656250000001L118.5363484375,67.5734375L119.2050215625,67.7578125L119.263721875,61.212500000000006L119.447479375,57.15625L119.50235140625,60.060156250000006L119.57381265625,56.00390625L119.64782609375001,62.318749999999994L119.7205634375,62.2265625L119.87497078125,64.6234375L120.0115128125,63.8859375L120.3586103125,52.708203125L120.3790278125,60.70546875000001L120.42879546875,63.701562499999994L120.7286775,63.701562499999994L120.84480203125,56.603125000000006L120.87798046875001,60.521093750000006L121.25315203125,61.81171875L121.74061984375,60.84375L121.82101375,51.809375L121.88099015625001,54.6671875L121.9256534375,54.021874999999994L122.36845796875,61.3046875L122.54711109375,62.91796875L122.98353515625,58.90781249999999L123.7938546875,58.63125000000001L124.29918781250001,64.76171875L124.32343359375,57.017968749999994L124.58886109375,58.7234375L124.67308328125,64.66953125L124.7585815625,74.671875L124.8938475,58.76953125L124.96530875,63.286718750000006L125.05846359375,66.559375L125.16437937500001,59.87578125L125.74244984375,61.35078125L126.09465171875,63.47109375000001L126.3613553125,58.055078124999994L126.37411625,62.503125L126.64847640625,62.45703125L126.79777937499999,57.89375L127.63362078124999,56.92578125L127.71529078125002,63.05624999999999L127.98071828124999,57.340625L128.13895390625,61.028125L128.1580953125,68.44921875L128.21041515625,56.326562499999994L128.23210875,60.42890625L128.41586625000002,61.07421875L128.87143171875,50.103906249999994L129.09347203125,60.98203124999999L129.33592984375,58.30859375L129.35507124999998,57.84765625L129.52862,57.340625L129.68302734375,57.66328125L130.1896365625,55.81953125L130.27003046875,59.50703125L130.49462296875,59.184375L130.76770703125,58.63125000000001L130.94380796875,62.77968750000001L130.96932984375,62.6875L131.16329609374998,55.404687499999994L131.34450140624998,55.72734375L131.68904671875,65.49921875L131.994033125,59.184375L132.101225,57.985937500000006L132.26839328125,56.8796875L132.6524975,63.286718750000006L132.759689375,62.45703125L132.92430546875,66.23671875000001L132.94982734375,63.05624999999999L133.11827171874998,58.3546875L133.7218640625,65.1765625L133.90434546875002,58.3546875L134.55260109375,60.521093750000006L134.71594109375,58.12421875L134.75932828125,53.42265625L134.93542921875,62.45703125L135.20596109375,59.6453125L135.48414953124998,57.4328125L135.50584312499998,58.21640624999999L135.65387,61.39687500000001L135.6717353125,59.87578125L135.81082953125,58.30859375L136.12730078125,58.90781249999999L136.3557215625,57.4328125L136.51778546875,62.4109375L136.67091671875,63.74765624999999L137.07288625,61.39687500000001L137.1622128125,56.74140625L137.58332375,58.49296875L137.690515625,54.80546875L137.71220921875,51.440625L137.88958625,55.5890625L138.37067359375,63.517187500000006L138.44085875000002,57.24843750000001L138.79944109375,53.23828125L138.91173734375,53.9296875L138.92960265625,58.7234375L139.44897281250002,62.134375000000006L139.9338884375,48.62890625L140.07043046875,61.58125L140.52727203125,57.340625L140.52982421875,53.653125L140.79907999999998,60.1984375L140.82332578125,54.8515625L141.2278475,49.22812499999999L141.51241640625003,54.80546875L141.62726484375,54.80546875L141.62981703124998,54.16015625L141.69745,54.34453125L141.88758796875,55.54296875L142.13259796875,59.7375L142.294661875,46.001562500000006L142.35974265625,57.15625L142.95695453125,53.88359375L142.96461109375,59.32265625000001L143.1241228125,56.096093749999994L143.3487153125,60.88984375L144.27133109375,56.92578125L144.5176171875,54.6671875L144.52910203125,58.30859375L145.42364375,58.170312499999994L145.5487009375,49.5046875L145.65972109375002,52.0859375L145.73756281250002,49.182031249999994L145.76946515625,53.88359375L145.93790953125,54.34453125L146.0387209375,56.83359374999999L146.08338421875,49.965625L146.39985546875002,61.1203125L146.80310109375,47.75312500000001L147.03790234375,51.71718750000001L147.2127271875,51.02578125000001L147.3199190625,54.16015625L147.46794593750002,53.653125L148.0192184375,47.845312500000006L148.14299953125,56.46484375L148.26550453125,53.88359375L148.45053812499998,49.78125L148.705756875,54.20625L148.869096875,49.965625L148.97246046875,54.943749999999994L149.41909328124999,50.8875L149.44716734375,48.859375L149.4892784375,54.298437500000006L149.98312671875,49.64296875000001L150.64159109375,53.51484375L150.7755809375,52.50078125L151.07801515625,49.82734375L152.00573531249998,54.528906250000006L152.01849625,56.83359374999999L152.044018125,54.021874999999994L152.25074531250002,52.639062499999994L152.68972156249998,59.6453125L152.9908796875,54.989843750000006L153.2767246875,47.845312500000006L153.3379771875,58.5390625L153.40688624999999,57.89375L153.8228928125,55.26640625L153.89563015624998,55.54296875L154.23251890625002,67.1125L154.33843468749998,52.13203125L154.9611684375,53.0078125L155.0300775,60.61328125L155.535410625,49.5046875L155.78680109375,56.8796875L155.9667303125,56.28046875L156.02415453125,48.767187500000006L156.0509525,47.75312500000001L156.39932609375,58.446875000000006L156.40825875000002,55.5890625L156.9722921875,47.384375000000006L157.12925171875,49.412499999999994L157.15222140625002,51.256249999999994L157.36150078125,52.8234375L157.4112684375,52.454687500000006L157.41509671875,50.2421875L157.42020109375002,51.71718750000001L157.44572296875,55.128125L157.70221781249998,55.635156249999994L158.52019390625,52.2703125L159.20545625,47.845312500000006L159.4402575,55.45078124999999L159.445361875,47.338281249999994L159.56914296875001,54.989843750000006L159.83839874999998,50.65703125L160.2901359375,56.55703125000001L162.120054375,47.89140625000002L162.6381484375,51.486718749999994L162.64963328124998,54.8515625L163.17410781249998,48.62890625L163.20601015625002,55.7734375L163.31320203125,57.478906249999994L163.35658921875,53.146093750000006L163.3782828125,53.330468749999994L163.39104375,52.50078125L163.43187875,47.29218750000001L164.42723187500002,50.33437500000001L164.59312406249998,51.02578125000001L164.68245062499997,52.03984375L164.75008359375,51.532812500000006L165.03720468749998,49.182031249999994L165.43406984375,48.306250000000006L165.78499562500002,50.795312499999994L165.96492484375,53.7453125L165.97513359375,49.82734375L166.34520078124999,46.462500000000006L166.48557109375002,51.947656249999994L167.11851359374998,44.25L167.3239646875,43.97343749999999L167.62384671874997,53.837500000000006L167.7833584375,55.35859375L167.83440218750002,50.19609375L168.22616296875,49.873437499999994L168.40992046875002,47.24609375L168.59878234375,57.294531250000006L168.88079906250002,48.35234374999999L169.021169375,51.256249999999994L169.33636453124998,48.721093749999994L169.64773140625,50.0578125L169.83021281249998,49.78125L170.1390275,48.951562499999994L170.69668046875,43.420312499999994L171.139485,47.015625L171.16628296874998,43.005468750000006L171.20328968750002,47.568749999999994L171.21094625,56.28046875L171.32707078125,45.90937500000001L171.33600343749998,49.55078125L171.9127978125,53.79140625000001L172.20247109375,49.3203125L172.27393234375,46.37031250000001L172.32497609375002,47.107812499999994L172.48321171875,49.3203125L172.5916796875,43.28203124999999L172.74098265625,57.478906249999994L172.98216437500002,50.61093749999999L173.22462218750002,53.1921875L173.62659171875,50.33437500000001L173.86394515625,51.11796875L174.033665625,46.416406249999994L174.1689315625,46.32421875L174.41011328124998,50.47265625L174.70233875,48.21406249999998L175.03157093750002,48.81328124999999L175.19235875,39.36406249999999L175.19618703125002,48.58281250000002L175.99502171875,47.66093749999999L176.01288703125002,47.845312500000006L176.13283984375,48.67500000000001L176.381678125,49.965625L176.49269828125,47.66093749999999L176.86276546874998,38.30390625000001L176.9584725,46.96953124999999L177.0886340625,47.66093749999999L177.4051053125,40.009375000000006L177.6092803125,45.955468749999994L177.851738125,55.9578125L178.01380203124998,43.28203124999999L178.45277828125,47.107812499999994L178.59570078125,48.3984375L178.65184890625,46.877343749999994L178.6760946875,47.06171875000001L179.09848171874998,51.256249999999994L179.8169225,46.09375L180.40903,42.17578125L180.5953396875,50.74921875L180.7995146875,44.29609375000001L181.07515093749998,44.06562499999998L181.0853596875,46.692968750000006L181.21424515625,47.338281249999994L181.59324500000002,49.412499999999994L181.67108671875002,42.728906249999994L181.67874328125,47.845312500000006L181.94161859375,42.8671875L182.83233203125,44.94140625L183.04671578125001,41.0234375L183.12966187499998,47.20000000000002L183.42954390625,46.96953124999999L183.68986703125,45.81718750000002L184.12373890625003,41.0234375L184.24624390625,46.27812499999999L184.34450312500002,49.873437499999994L184.40703171875,47.24609375L184.69032453125,50.47265625L184.77965109375,43.696875000000006L184.78730765625,43.650781249999994L184.92512578125,44.25L185.07442875,52.0859375L185.2556340625,42.037499999999994L185.344960625,46.78515625L185.41386968749998,46.646874999999994L185.4802265625,47.153906250000006L185.50702453125,44.618750000000006L185.5108528125,42.314062500000006L185.5874184375,47.75312500000001L185.59507499999998,49.64296875000001L185.60528375,42.775000000000006L185.85922640625,44.25L185.87453953125,53.23828125L186.03277515624998,47.24609375L186.48323625,46.13984374999998L186.53555609375,47.153906250000006L186.59170421875,41.71484375L187.23230328125,47.153906250000006L187.3994715625,50.33437500000001L187.7720909375,39.68671875000001L187.963505,41.71484375L188.26593921875,41.115624999999994L188.9231275,42.498437499999994L189.142615625,48.721093749999994L189.20897250000002,38.90312500000002L189.61859859375,43.466406250000006L189.82277359375001,47.015625L189.98100921875,44.572656249999994L190.06523140625,45.264062499999994L190.62416046875,56.971875L190.98401890625,44.89531249999999L191.705011875,44.66484374999999L191.7535034375,43.696875000000006L192.1975840625,49.182031249999994L192.62762765624998,34.52421874999999L192.8815703125,44.94140625L192.91474875,42.498437499999994L193.00535140624999,50.93359375L193.09467796874998,43.420312499999994L193.12275203125,46.646874999999994L193.72251609375,39.041406249999994L194.03898734375,42.82109374999999L194.5558053125,46.37031250000001L194.7906065625,41.43828124999999L195.17471078125,33.37187500000002L195.30232015625,36.736718749999994L195.46055578124998,35.400000000000006L195.982478125,44.98750000000001L196.07946124999998,41.76093750000001L196.08456562499998,39.502343749999994L196.09349828125,33.556250000000006L196.4137978125,42.91328125000001L197.0492925,43.83515625000001L197.79580734375003,45.771093750000006L197.95276687499998,40.37812500000001L198.10206984375,43.51249999999999L198.10972640625,32.91093749999999L198.340699375,39.13359374999999L198.840928125,41.99140624999998L198.93791124999998,35.814843749999994L199.0017159375,45.58671874999999L199.23141281250003,47.75312500000001L199.351365625,42.63671875L200.30205546875,44.66484374999999L200.45773890625,39.778906250000006L200.63256375,41.29999999999998L200.79973203125,46.692968750000006L200.94775890625002,37.38203125000001L201.26423015625002,39.87109375L201.78487640625,46.73906249999999L201.96608171875,38.48828125L202.1204890625,41.43828124999999L202.13835437499998,41.06953125000001L202.98568062500001,45.079687500000006L203.01758296875,36.875L203.03162,42.12968749999999L203.04820921875,39.087500000000006L203.09414859375,37.52031250000002L203.108185625,38.99531250000001L203.33405421875,39.317968750000006L203.3914784375,39.41015625L203.89808765625,42.17578125L204.11757578125,46.646874999999994L204.210730625,38.94921875L205.16524875000002,40.05546874999999L205.54169640625,39.41015625L205.89900265625,40.97734375000002L206.16187796875,44.342187499999994L206.24610015625,46.13984374999998L206.28438296875,41.25390625L206.65062187499998,37.98124999999999L206.67741984375,45.494531249999994L207.31546671875,41.25390625L207.4902915625,39.548437500000006L207.7710321875,41.622656250000006L207.79783015625,36.552343750000006L207.93054390625,35.860937500000006L208.4039746875,33.46406250000001L208.6949240625,39.041406249999994L208.79956374999998,43.696875000000006L208.85188359375,37.704687500000006L209.1236915625,37.84296874999998L209.4605803125,42.59062499999999L209.5728765625,34.892968749999994L209.63795734375,29.77656250000001L210.00036796875,36.782812500000006L210.18284937500002,40.885156249999994L210.315563125,40.193749999999994L211.07994328125,37.013281250000006L211.11056953125,46.185937499999994L211.1552328125,38.07343750000001L211.35047515625,38.67265624999999L211.53423265625,33.83281249999999L211.73840765625,46.50859375000002L212.347104375,39.82499999999999L212.62912109375,44.48046875L212.68271703125,46.923437500000006L212.79756546875,35.76874999999998L212.80011765625,29.546093749999983L212.97111421875002,34.98515624999999L213.41264265625,33.510156249999994L213.60150453125,35.860937500000006L213.73677046875,40.239843750000006L213.83885796875,35.07734374999998L213.8707603125,31.205468749999994L214.21530562499998,37.658593749999994L214.47690484375002,33.37187500000002L214.88780703125002,38.90312500000002L215.02817734375,39.041406249999994L215.0498709375,35.90703124999999L215.21065875,34.80078125L215.32678328125,36.967187499999994L215.88571234375,34.247656250000006L215.96993453125,46.692968750000006L216.0248065625,47.29218750000001L216.07202203125001,38.165625000000006L216.1064765625,38.626562500000006L216.41529125000002,31.15937500000001L216.4433653125,36.782812500000006L216.45740234375,33.325781250000006L216.82491734375,42.36015625000002L217.2447521875,39.548437500000006L217.35449624999998,38.2578125L217.706698125,38.810937499999994L217.73604828125,34.98515624999999L218.23117265625,32.818749999999994L218.32049921875,44.66484374999999L218.7964821875,30.514062499999994L219.30564359374998,26.31953125000001L219.37072437499998,34.15546875000001L219.513646875,41.20781249999999L219.54044484375,31.482031250000006L219.91816859375,44.25L220.02918875,36.82890625000002L220.39287546875,38.67265624999999L220.89182812500002,35.953125L220.99008734375,37.28984374999999L221.34484140625,36.46015624999998L221.70087156250003,34.662499999999994L221.73660218749998,36.506249999999994L221.91780749999998,30.329687500000006L222.4205884375,33.1875L222.88125828125,31.712500000000006L223.10840296875,38.53437499999998L223.35086078125,30.606250000000017L223.6762646875,35.584374999999994L223.81153062500002,27.93281250000001L224.10120390625002,36.80585937499998L224.1203453125,35.400000000000006L224.25178296875,34.98515624999999L224.526143125,38.119531249999994L224.58229125,37.428124999999994L224.883449375,41.29999999999998L224.94087359374998,24.337500000000006L225.21523375,36.552343750000006L225.21906203125,42.728906249999994L225.2254425,46.27812499999999L225.2279946875,34.38593749999998L225.240755625,32.21953124999999L225.24330781249998,35.44609375000002L225.2586209375,35.976171875000006L225.26244921875,39.271874999999994L225.26500140624998,31.52812499999999L225.2739340625,35.76874999999998L225.28669499999998,32.7265625L225.29690374999998,38.580468749999994L225.29945593750003,37.474218750000006L225.30200812500001,31.205468749999994L225.30583640625,30.8828125" style="fill: none;" fill="none"></path></g></g></g></g></g></g><g transform="translate(74, 177)" clip-path="url(#clip_1)"><clipPath id="clip_1"><rect width="255" height="23"></rect></clipPath><g><g><line x1="0" y1="0" x2="0" y2="5" style="visibility: inherit;" fill="rgb(0, 0, 0)" stroke="rgb(204, 204, 204)" stroke-width="1px"></line><line x1="25.521875" y1="0" x2="25.521875" y2="5" style="visibility: inherit;" fill="rgb(0, 0, 0)" stroke="rgb(204, 204, 204)" stroke-width="1px"></line><line x1="51.04375" y1="0" x2="51.04375" y2="5" style="visibility: inherit;" fill="rgb(0, 0, 0)" stroke="rgb(204, 204, 204)" stroke-width="1px"></line><line x1="76.565625" y1="0" x2="76.565625" y2="5" style="visibility: inherit;" fill="rgb(0, 0, 0)" stroke="rgb(204, 204, 204)" stroke-width="1px"></line><line x1="102.0875" y1="0" x2="102.0875" y2="5" style="visibility: inherit;" fill="rgb(0, 0, 0)" stroke="rgb(204, 204, 204)" stroke-width="1px"></line><line x1="127.609375" y1="0" x2="127.609375" y2="5" style="visibility: inherit;" fill="rgb(0, 0, 0)" stroke="rgb(204, 204, 204)" stroke-width="1px"></line><line x1="153.13125" y1="0" x2="153.13125" y2="5" style="visibility: inherit;" fill="rgb(0, 0, 0)" stroke="rgb(204, 204, 204)" stroke-width="1px"></line><line x1="178.653125" y1="0" x2="178.653125" y2="5" style="visibility: inherit;" fill="rgb(0, 0, 0)" stroke="rgb(204, 204, 204)" stroke-width="1px"></line><line x1="204.175" y1="0" x2="204.175" y2="5" style="visibility: inherit;" fill="rgb(0, 0, 0)" stroke="rgb(204, 204, 204)" stroke-width="1px"></line><line x1="229.696875" y1="0" x2="229.696875" y2="5" style="visibility: inherit;" fill="rgb(0, 0, 0)" stroke="rgb(204, 204, 204)" stroke-width="1px"></line><line x1="255.21875" y1="0" x2="255.21875" y2="5" style="visibility: inherit;" fill="rgb(0, 0, 0)" stroke="rgb(204, 204, 204)" stroke-width="1px"></line></g><g transform="translate(0, 8)"><text x="0" y="0" dx="0em" dy="0.95em" style="text-anchor: middle; visibility: hidden; font-family: &quot;Helvetica Neue&quot;, sans-serif; font-size: 12px; font-weight: 200;" fill="rgb(50, 49, 63)" stroke="none" stroke-width="1px">-20k</text><text x="25.521875" y="0" dx="0em" dy="0.95em" style="text-anchor: middle; visibility: inherit; font-family: &quot;Helvetica Neue&quot;, sans-serif; font-size: 12px; font-weight: 200;" fill="rgb(50, 49, 63)" stroke="none" stroke-width="1px">0</text><text x="51.04375" y="0" dx="0em" dy="0.95em" style="text-anchor: middle; visibility: hidden; font-family: &quot;Helvetica Neue&quot;, sans-serif; font-size: 12px; font-weight: 200;" fill="rgb(50, 49, 63)" stroke="none" stroke-width="1px">20k</text><text x="76.565625" y="0" dx="0em" dy="0.95em" style="text-anchor: middle; visibility: inherit; font-family: &quot;Helvetica Neue&quot;, sans-serif; font-size: 12px; font-weight: 200;" fill="rgb(50, 49, 63)" stroke="none" stroke-width="1px">40k</text><text x="102.0875" y="0" dx="0em" dy="0.95em" style="text-anchor: middle; visibility: hidden; font-family: &quot;Helvetica Neue&quot;, sans-serif; font-size: 12px; font-weight: 200;" fill="rgb(50, 49, 63)" stroke="none" stroke-width="1px">60k</text><text x="127.609375" y="0" dx="0em" dy="0.95em" style="text-anchor: middle; visibility: inherit; font-family: &quot;Helvetica Neue&quot;, sans-serif; font-size: 12px; font-weight: 200;" fill="rgb(50, 49, 63)" stroke="none" stroke-width="1px">80k</text><text x="153.13125" y="0" dx="0em" dy="0.95em" style="text-anchor: middle; visibility: hidden; font-family: &quot;Helvetica Neue&quot;, sans-serif; font-size: 12px; font-weight: 200;" fill="rgb(50, 49, 63)" stroke="none" stroke-width="1px">100k</text><text x="178.653125" y="0" dx="0em" dy="0.95em" style="text-anchor: middle; visibility: inherit; font-family: &quot;Helvetica Neue&quot;, sans-serif; font-size: 12px; font-weight: 200;" fill="rgb(50, 49, 63)" stroke="none" stroke-width="1px">120k</text><text x="204.175" y="0" dx="0em" dy="0.95em" style="text-anchor: middle; visibility: hidden; font-family: &quot;Helvetica Neue&quot;, sans-serif; font-size: 12px; font-weight: 200;" fill="rgb(50, 49, 63)" stroke="none" stroke-width="1px">140k</text><text x="229.696875" y="0" dx="0em" dy="0.95em" style="text-anchor: middle; visibility: inherit; font-family: &quot;Helvetica Neue&quot;, sans-serif; font-size: 12px; font-weight: 200;" fill="rgb(50, 49, 63)" stroke="none" stroke-width="1px">160k</text><text x="255.21875" y="0" dx="0em" dy="0.95em" style="text-anchor: middle; visibility: hidden; font-family: &quot;Helvetica Neue&quot;, sans-serif; font-size: 12px; font-weight: 200;" fill="rgb(50, 49, 63)" stroke="none" stroke-width="1px">180k</text></g><line x1="0" y1="0" x2="255.21875" y2="0" fill="rgb(0, 0, 0)" stroke="rgb(204, 204, 204)" stroke-width="1px"></line></g></g></g></g></svg>