<svg viewBox="0 0 330 200" xmlns="http://www.w3.org/2000/svg"><g><g><g><g><g><line x1="74.78125" y1="177" x2="69.78125" y2="177" style="visibility: inherit;" fill="rgb(0, 0, 0)" stroke="rgb(204, 204, 204)" stroke-width="1px"></line><line x1="74.78125" y1="151.71428571428572" x2="69.78125" y2="151.71428571428572" style="visibility: inherit;" fill="rgb(0, 0, 0)" stroke="rgb(204, 204, 204)" stroke-width="1px"></line><line x1="74.78125" y1="126.42857142857143" x2="69.78125" y2="126.42857142857143" style="visibility: inherit;" fill="rgb(0, 0, 0)" stroke="rgb(204, 204, 204)" stroke-width="1px"></line><line x1="74.78125" y1="101.14285714285715" x2="69.78125" y2="101.14285714285715" style="visibility: inherit;" fill="rgb(0, 0, 0)" stroke="rgb(204, 204, 204)" stroke-width="1px"></line><line x1="74.78125" y1="75.85714285714286" x2="69.78125" y2="75.85714285714286" style="visibility: inherit;" fill="rgb(0, 0, 0)" stroke="rgb(204, 204, 204)" stroke-width="1px"></line><line x1="74.78125" y1="50.57142857142857" x2="69.78125" y2="50.57142857142857" style="visibility: inherit;" fill="rgb(0, 0, 0)" stroke="rgb(204, 204, 204)" stroke-width="1px"></line><line x1="74.78125" y1="25.285714285714306" x2="69.78125" y2="25.285714285714306" style="visibility: inherit;" fill="rgb(0, 0, 0)" stroke="rgb(204, 204, 204)" stroke-width="1px"></line><line x1="74.78125" y1="0" x2="69.78125" y2="0" style="visibility: inherit;" fill="rgb(0, 0, 0)" stroke="rgb(204, 204, 204)" stroke-width="1px"></line></g><g transform="translate(64.78125, 0)"><text x="0" y="177" dx="0em" dy="0.3em" style="text-anchor: end; visibility: hidden; font-family: &quot;Helvetica Neue&quot;, sans-serif; font-size: 12px; font-weight: 200;" fill="rgb(50, 49, 63)" stroke="none" stroke-width="1px">-5e+3</text><text x="0" y="151.71428571428572" dx="0em" dy="0.3em" style="text-anchor: end; visibility: inherit; font-family: &quot;Helvetica Neue&quot;, sans-serif; font-size: 12px; font-weight: 200;" fill="rgb(50, 49, 63)" stroke="none" stroke-width="1px">0</text><text x="0" y="126.42857142857143" dx="0em" dy="0.3em" style="text-anchor: end; visibility: inherit; font-family: &quot;Helvetica Neue&quot;, sans-serif; font-size: 12px; font-weight: 200;" fill="rgb(50, 49, 63)" stroke="none" stroke-width="1px">5e+3</text><text x="0" y="101.14285714285715" dx="0em" dy="0.3em" style="text-anchor: end; visibility: inherit; font-family: &quot;Helvetica Neue&quot;, sans-serif; font-size: 12px; font-weight: 200;" fill="rgb(50, 49, 63)" stroke="none" stroke-width="1px">1e+4</text><text x="0" y="75.85714285714286" dx="0em" dy="0.3em" style="text-anchor: end; visibility: inherit; font-family: &quot;Helvetica Neue&quot;, sans-serif; font-size: 12px; font-weight: 200;" fill="rgb(50, 49, 63)" stroke="none" stroke-width="1px">1.5e+4</text><text x="0" y="50.57142857142857" dx="0em" dy="0.3em" style="text-anchor: end; visibility: inherit; font-family: &quot;Helvetica Neue&quot;, sans-serif; font-size: 12px; font-weight: 200;" fill="rgb(50, 49, 63)" stroke="none" stroke-width="1px">2e+4</text><text x="0" y="25.285714285714306" dx="0em" dy="0.3em" style="text-anchor: end; visibility: inherit; font-family: &quot;Helvetica Neue&quot;, sans-serif; font-size: 12px; font-weight: 200;" fill="rgb(50, 49, 63)" stroke="none" stroke-width="1px">2.5e+4</text><text x="0" y="0" dx="0em" dy="0.3em" style="text-anchor: end; visibility: hidden; font-family: &quot;Helvetica Neue&quot;, sans-serif; font-size: 12px; font-weight: 200;" fill="rgb(50, 49, 63)" stroke="none" stroke-width="1px">3e+4</text></g><line x1="74.78125" y1="0" x2="74.78125" y2="177" fill="rgb(0, 0, 0)" stroke="rgb(204, 204, 204)" stroke-width="1px"></line></g></g><g transform="translate(74, 0)" clip-path="url(#clip_0)"><clipPath id="clip_0"><rect width="255" height="177"></rect></clipPath><g><g><g><line x1="0" y1="0" x2="0" y2="177" fill="rgb(0, 0, 0)" stroke="rgb(60, 60, 60)" stroke-width="1px" opacity="0.25"></line><line x1="28.357638888888886" y1="0" x2="28.357638888888886" y2="177" fill="rgb(0, 0, 0)" stroke="rgb(60, 60, 60)" stroke-width="1px" opacity="0.25"></line><line x1="56.71527777777777" y1="0" x2="56.71527777777777" y2="177" fill="rgb(0, 0, 0)" stroke="rgb(60, 60, 60)" stroke-width="1px" opacity="0.25"></line><line x1="85.07291666666666" y1="0" x2="85.07291666666666" y2="177" fill="rgb(0, 0, 0)" stroke="rgb(60, 60, 60)" stroke-width="1px" opacity="0.25"></line><line x1="113.43055555555554" y1="0" x2="113.43055555555554" y2="177" fill="rgb(0, 0, 0)" stroke="rgb(60, 60, 60)" stroke-width="1px" opacity="0.25"></line><line x1="141.78819444444446" y1="0" x2="141.78819444444446" y2="177" fill="rgb(0, 0, 0)" stroke="rgb(60, 60, 60)" stroke-width="1px" opacity="0.25"></line><line x1="170.14583333333331" y1="0" x2="170.14583333333331" y2="177" fill="rgb(0, 0, 0)" stroke="rgb(60, 60, 60)" stroke-width="1px" opacity="0.25"></line><line x1="198.50347222222223" y1="0" x2="198.50347222222223" y2="177" fill="rgb(0, 0, 0)" stroke="rgb(60, 60, 60)" stroke-width="1px" opacity="0.25"></line><line x1="226.8611111111111" y1="0" x2="226.8611111111111" y2="177" fill="rgb(0, 0, 0)" stroke="rgb(60, 60, 60)" stroke-width="1px" opacity="0.25"></line><line x1="255.21875" y1="0" x2="255.21875" y2="177" fill="rgb(0, 0, 0)" stroke="rgb(60, 60, 60)" stroke-width="1px" opacity="0.25"></line></g><g><line x1="0" y1="177" x2="255.21875" y2="177" fill="rgb(0, 0, 0)" stroke="rgb(60, 60, 60)" stroke-width="1px" opacity="0.25"></line><line x1="0" y1="151.71428571428572" x2="255.21875" y2="151.71428571428572" fill="rgb(0, 0, 0)" stroke="rgb(60, 60, 60)" stroke-width="1px" opacity="0.25"></line><line x1="0" y1="126.42857142857143" x2="255.21875" y2="126.42857142857143" fill="rgb(0, 0, 0)" stroke="rgb(60, 60, 60)" stroke-width="1px" opacity="0.25"></line><line x1="0" y1="101.14285714285715" x2="255.21875" y2="101.14285714285715" fill="rgb(0, 0, 0)" stroke="rgb(60, 60, 60)" stroke-width="1px" opacity="0.25"></line><line x1="0" y1="75.85714285714286" x2="255.21875" y2="75.85714285714286" fill="rgb(0, 0, 0)" stroke="rgb(60, 60, 60)" stroke-width="1px" opacity="0.25"></line><line x1="0" y1="50.57142857142857" x2="255.21875" y2="50.57142857142857" fill="rgb(0, 0, 0)" stroke="rgb(60, 60, 60)" stroke-width="1px" opacity="0.25"></line><line x1="0" y1="25.285714285714306" x2="255.21875" y2="25.285714285714306" fill="rgb(0, 0, 0)" stroke="rgb(60, 60, 60)" stroke-width="1px" opacity="0.25"></line><line x1="0" y1="0" x2="255.21875" y2="0" fill="rgb(0, 0, 0)" stroke="rgb(60, 60, 60)" stroke-width="1px" opacity="0.25"></line></g></g></g><g><g><line x1="0" y1="151.71428571428572" x2="255.21875" y2="151.71428571428572" fill="rgb(0, 0, 0)" stroke="rgb(153, 153, 153)" stroke-width="1.5px"></line></g></g><g><g><line x1="28.357638888888886" y1="0" x2="28.357638888888886" y2="177" fill="rgb(0, 0, 0)" stroke="rgb(153, 153, 153)" stroke-width="1.5px"></line></g></g><g><g><g><g><g><path stroke="rgb(255, 112, 67)" stroke-width="2px" d="M29.3629171875,148.17091418282646L29.497615972222224,147.50336096108802L29.608210763888888,144.46659097017522L29.660672395833334,145.63908147526342L29.734402256944445,146.71045526600133L30.372449131944446,145.64387182589462L30.509983680555553,145.4276512287433L30.570952604166667,144.59174227729358L30.592220833333332,144.0226672126859L30.664532812500003,143.68486894798397L30.716994444444442,143.5040371018862L30.979302604166666,143.36340928283735L31.237357118055556,143.1091688469332L31.269968402777778,142.83339419805554L31.417428125,142.81690564585693L31.98316302083333,142.1080962735844L32.014356423611105,141.58849043095785L32.05831076388889,141.12247171004844L32.13345850694444,140.78045327747463L32.19442743055556,140.28320151137234L32.205770486111106,139.88255458578112L32.400020312500004,139.48852627656171L33.15575138888889,139.14277060951892L33.280525,138.13397846605005L33.5229828125,137.2196371126803L33.74133663194444,136.41082331534966L33.83349895833333,136.38482328533587L34.128418402777775,135.55817776637508L34.239013194444446,134.5722276114049L34.47154583333333,134.13043011405733L34.651616840277775,134.07703246246723L34.695571180555554,134.15506254023285L34.884149479166666,133.1659982217379L34.923850173611115,133.06647593803027L34.990490625,131.78038733220575L34.99474427083333,130.68591419222506L35.14078611111111,130.1202272610631L35.21593385416667,129.4154122647736L35.29958888888889,128.71053668770085L35.34921475694444,127.80023600683974L35.53637517361111,127.04554070669957L35.74480381944444,126.29666761658845L35.770325694444445,125.43173680091074L35.815697916666664,124.9156069361222L35.960321875,124.50792866642456L35.967411284722225,123.88891126098424L35.99293315972222,123.58356366625596L36.141810763888884,122.84076817917037L36.19143663194444,122.70951834139314L36.248151909722225,122.25476567136039L36.297777777777775,121.7833794130084L36.331806944444445,121.2920228646237L36.380014930555554,121.05720754947008L36.609711805555555,120.6953986446753L36.76000729166667,120.2919336127224L36.775603993055554,120.00725383777154L36.79403645833333,119.75158661828256L36.98261475694445,119.22763967092925L37.261937499999995,118.80207241157625L37.291713020833335,118.2456254974397L37.45618732638889,117.87560424103054L37.58663246527778,117.53541873956468L37.66461597222222,117.10583731942342L37.67454114583334,116.84320912256085L37.694391493055555,116.56189371971473L37.74968888888889,116.21630645304981L38.03751892361111,116.25403010639297L38.30266284722222,115.9114799718663L38.3849,115.83373275789171L38.43736163194444,115.7003585019139L38.44586892361111,115.41098580770577L38.55929947916666,115.21343249865836L38.63586510416667,114.96165906618299L38.696834027777776,114.90622885444081L38.79466788194445,114.71421930267357L38.997425,114.66844820253277L39.55465260416667,114.62741519221188L39.75457395833333,114.50243817827555L39.88076545138889,114.32681467436845L40.060836458333334,114.15595793266174L40.11471597222222,114.11307781514738L40.3118015625,114.03631493148204L40.341577083333334,113.96628255228026L40.36142743055556,113.95636314305014L40.4394109375,113.83979973767755L40.768359548611116,113.87746029725258L40.80664236111111,113.76144142977158L40.85201458333333,113.81231144592148L41.16394861111112,113.67143757398239L41.28588645833334,113.70783766087482L41.32842291666667,113.58855643119807L41.46737534722222,113.55216729273552L42.23019583333333,113.47160903622579L42.381909201388886,113.37287221559819L42.71511145833333,113.26615117565945L43.299278819444446,113.34750542304837L43.44248489583333,113.24758918668513L43.49494652777778,113.22957387368974L43.59561614583333,113.20846095250792L43.666510243055555,113.13240703358721L43.897625,113.15380434173667L43.95575815972222,113.13299890636819L43.96710121527778,113.11308880877841L44.18829079861111,113.71151982100392L44.467613541666665,113.57014642514065L44.69022100694444,113.51236846704353L44.69163888888889,113.48960543829516L45.49699583333333,113.35967778389735L45.74370729166667,113.46494367802467L46.118028125,114.86503035732409L46.13504270833333,116.53414525193612L46.186086458333335,116.30291827785595L46.41861909722222,115.8741949840945L46.76600017361111,117.10237312715336L46.903534722222226,117.22332219016471L46.910624131944445,116.8960745211885L47.0240546875,117.5491382655128L47.292034375,118.8219036202679L47.74717447916667,118.32839720180056L47.75993541666667,118.0442534390504L47.93291701388889,117.82858639691904L47.981125,117.2728204999448L48.40932534722222,117.67723002697902L48.45611545138889,116.9626023851936L48.952374131944445,116.56044271910682L48.97364236111111,116.17992993703484L49.152295486111115,115.78444749320785L49.163638541666664,115.40962811571359L49.275651215277776,115.16150204728908L49.92645902777778,114.82084699470761L50.06399357638889,115.00630221531476L50.12779826388889,115.1399453299561L50.17600625,115.86036522758921L50.398613715277776,117.63490635505457L50.478015104166666,117.18440202716374L50.67651857638889,119.01219171281363L50.77293454861111,120.77292393619828L50.78711336805556,122.35086623596669L51.045167881944444,124.85577177649664L51.524411979166665,126.75658150582092L51.70164722222222,128.6690427809895L51.89589704861111,130.50001363872306L52.121340277777776,132.0020202940199L52.15111579861111,133.3102557444575L52.592077083333336,134.52618904704292L52.65729965277777,135.45111174331225L52.78490902777777,136.1070109600028L52.79483420138889,136.8806416911761L53.326539930555555,138.0047910859006L53.7107859375,138.8669077993239L53.85824565972222,139.42839521356808L54.34174340277778,139.67684679118867L54.35734010416667,139.8691621312617L54.4253984375,139.92284994081461L54.52465017361111,139.49935330535777L54.5530078125,139.21879607941153L54.689124479166665,139.74130177353845L54.74158611111111,139.60272426659003L54.795465625,139.6733366651045L54.965611458333335,139.1694605638292L55.02090885416666,138.69052832615802L55.26336666666666,138.25545940529292L55.34560381944444,138.13563979988012L55.68589548611111,138.12412492667437L56.02760503472222,138.14679100607432L56.26722708333333,138.36007307159136L56.52102795138889,138.4449577306558L56.56072864583333,138.52301329847973L57.33914583333333,137.64836775602924L57.44548697916667,136.79639212696134L57.451158506944445,136.57886719672126L57.51921684027778,135.96493225448717L57.527724131944446,135.19145687679705L57.55891753472222,134.96595940094076L57.58018576388889,134.57573934986897L57.60428975694444,133.4756890658668L57.87368732638889,133.22461881799583L57.95734236111111,132.57978193157652L58.23099357638889,132.1494836463587L58.35009565972223,131.31473706259308L58.42807916666666,130.54631826303483L58.57979253472222,130.22249045306637L58.58121041666667,129.95964988879066L58.6109859375,129.46675945160644L58.63934357638889,129.20584734483748L58.67337274305556,128.59569162632917L58.70314826388889,128.32524746294564L58.71023767361111,127.99737762654632L58.74426684027778,127.56338138077314L58.78680329861111,127.19704324195459L58.84351857638889,126.77417686341764L59.0193359375,126.19067926540527L59.042022048611116,125.71475955244846L59.295822916666665,125.21918761440286L59.35679184027778,124.75088983454592L59.40499982638889,124.18663656477028L59.42626805555555,123.904878711592L59.44470052083333,123.62688012590496L59.45037204861111,123.44360952388507L59.542534375,123.07748651766684L59.579399305555555,122.72893250853599L59.79066371527777,122.43238077537006L59.79349947916667,122.0291784119114L59.80909618055556,121.7861663741792L59.85872204861111,121.51317027236183L60.047300347222226,121.11370503069017L60.11819444444444,120.47770283097796L60.130955381944446,120.05029861917893L60.13237326388889,119.65876027501116L60.190506423611104,119.38231192601347L60.25005746527778,119.14069903693006L60.25431111111111,119.06137065107839L60.337966145833335,118.90605813951413L60.37057743055556,118.47967911120818L60.39893506944445,118.24054066433834L60.51094774305555,117.9699245442977L60.665496874999995,117.78089235770284L60.716540625,117.60365178262806L60.76049496527777,117.3708066936288L60.77467378472222,117.16954298853436L60.82713541666667,117.09638355574671L60.83422482638889,116.97755859302093L60.84415,117.09162907301167L60.861164583333334,117.12870768356973L60.87534340277778,117.09285879021095L61.015713715277776,116.976756839756L61.15324826388889,116.9589476736368L61.23406753472222,116.65663772769054L61.33899079861111,116.6612793120645L61.343244444444444,116.45740272013765L61.37301996527778,116.4826789659817L61.385780902777775,116.6495561586733L61.421227951388886,116.65372063209176L61.44107829861111,116.59172580102424L61.45383923611111,116.52162822092058L61.50630086805556,116.32871405953973L61.56868767361111,116.22257256429853L61.61689565972222,116.06438405786665L61.62823871527778,116.11545011636629L61.66793940972222,116.02557787258586L61.67502881944445,115.94777454961225L61.76435538194445,116.01966763036592L61.867860763888885,115.86738836732818L61.933083333333336,115.73002095916584L62.0053953125,115.74688404182078L62.15710868055556,115.5502929590662L62.256360416666666,115.44732169887334L62.29464322916667,115.2908801539853L62.29606111111111,115.34470374572984L62.30598628472222,115.19283471044203L62.33292604166667,115.05465123939737L62.35135850694444,114.9968981690289L62.44777447916667,114.97696214676881L62.5796375,114.98671548566338L62.65478524305555,114.92627384781119L63.07164253472222,114.80795092731556L63.08298559027777,114.7012232452981L63.10850746527778,114.7474004743398L63.291414236111116,114.7093099804772L63.346711631944444,114.60588791100076L63.47857465277778,114.5945125127578L63.523946875,114.57234295791058L63.55514027777778,114.56021312640522L63.65722777777778,114.47146368876463L63.672824479166664,114.39775258774525L63.67991388888888,114.32667152539926L63.701182118055556,114.33697535500218L63.78200138888889,114.26730996235906L63.89117829861111,114.21101155540885L64.11236788194445,114.29151263201086L64.1237109375,114.23192476166687L64.14497916666667,114.23510951764305L64.16624739583334,114.17863338730729L64.23714149305556,114.13009638786228L64.35482569444444,114.08198808836174L64.38034756944445,114.1072781188113L64.39169062500001,114.19451771764446L64.43706284722222,114.14628871373716L64.45407743055556,114.0907928780777L64.47818142361112,114.03808100098422L64.48668871527778,114.06428495445724L64.62705902777778,114.1608019947258L64.646909375,114.09863965239607L64.7078782986111,114.04332568715645L65.02123020833332,113.99781008272652L65.0935421875,114.0241692530253L65.2239873263889,114.11252911343706L65.2466734375,114.13081414852192L65.27503107638888,114.07228273366974L65.29629930555555,114.00538124601704L65.30906024305555,113.95449401427247L65.38704374999999,113.9065620235595L65.39696892361111,113.93793707120356L65.46928090277777,113.9717058640832L65.49905642361112,113.91312367053203L65.68763472222221,113.85265594633597L65.74576788194445,113.79602249455951L65.80390104166668,113.74031131653211L65.81524409722222,113.69617661345033L65.84927326388889,113.66332993424817L65.8818845486111,113.62942194082333L65.89464548611112,113.58807930031244L65.89606336805555,113.56106422742405L65.96979322916667,113.53532834039594L66.05911979166667,113.5670834527849L66.1144171875,113.53252778607785L66.25762326388889,113.49083929318434L66.41784392361112,113.45521607815162L66.49299166666667,113.41509536319361L66.53269236111112,113.38838984473139L66.56530364583332,113.42274907454396L66.59791493055555,113.3978857742324L66.69149513888888,113.36855523252346L66.77373229166666,113.33488810212825L66.77798593749999,113.3022171490583L66.86305885416667,113.27044275558103L67.0587265625,113.23449714073722L67.13103854166667,113.21202331952064L67.23312604166667,113.41067634471142L67.26715520833334,113.36505335309744L67.35506388888888,113.33031408921626L67.36357118055555,113.36645098386605L67.42454010416667,113.40063356405088L67.54931371527778,113.58801127907437L67.68543038194446,113.51999274045264L67.69535555555555,113.4582229306931L67.79177152777777,113.4087144769095L67.85132256944445,113.42713410064712L68.05549756944444,113.37164747629669L68.09378038194446,113.33142871080989L68.11079496527778,113.36445146472889L68.14482413194445,113.31539113968458L68.18877847222222,113.27716318643041L68.35183489583333,113.23817499278735L68.39437135416667,113.21043427922291L68.47660850694444,113.45871138701489L68.50354826388889,113.3978545340277L68.50921979166667,113.40637666991064L68.79704982638889,113.34387873506242L68.80839288194444,113.35803550441334L68.92607708333334,113.296578828972L68.96294201388889,113.23494639250336L68.97712083333333,113.18500844968162L69.01965729166668,113.12607814042772L69.36703836805556,113.07746586209925L69.38688871527778,113.02186213303219L69.46912586805556,112.98477770544324L69.60666041666667,112.93844279204178L69.6080782986111,112.90037619140902L69.67613663194444,112.86082205441099L69.72434461805555,112.89610234896988L69.74277708333334,112.8480465783586L70.14829131944445,112.87298879552274L70.24187152777777,112.83293366597047L70.26881128472222,112.7876389600877L70.30567621527778,112.76196613550752L70.31701927083334,112.73008961124248L70.39074913194445,112.77267484654679L70.42052465277779,112.81266093332069L70.43044982638888,112.77445064356004L70.87991840277778,112.73856004348976L70.91820121527779,112.78219466414077L70.92245486111112,112.74070957272669L70.9990204861111,112.71411941902547L71.01178142361111,112.67896774498006L71.18901666666666,112.64946472048204L71.20319548611111,112.62220083771956L71.24289618055555,112.60106111109046L71.30670086805556,112.59293982140998L71.34781944444444,112.57377798212613L71.3974453125,112.57344214819923L71.45983211805556,112.56752962980788L71.48535399305555,112.55256818468425L71.5278904513889,112.53815466978725L71.64415677083333,112.60680795280851L71.74340850694445,112.72991376467053L71.76609461805556,112.70140051320348L72.04258159722222,112.81315064045455L72.13049027777778,112.70061459426624L72.3063076388889,112.73129197412533L72.31339704861111,112.69564782135565L72.37578385416667,112.66937589636294L72.44951371527779,112.62937446744093L72.58137673611111,112.59993166355399L72.6735390625,112.56039519362716L72.78129809027777,112.49020254926444L72.80823784722223,112.55306265148084L73.069128125,112.54555326133276L73.16270833333334,112.5203836494852L73.19815538194445,112.56299974882239L73.2378560763889,112.53940423822587L73.2860640625,112.50497229654614L73.3527045138889,112.47848756689152L73.35412239583333,112.55160622091665L73.42785225694445,112.50402238453927L73.64620607638889,112.46301434251392L73.88157447916666,112.58090308683396L73.98366197916667,112.52722884957913L74.08574947916667,112.55604346462121L74.19918003472222,112.42733867173052L74.22470190972223,112.38206730455747L74.23462708333334,112.43013914553029L74.24880590277779,112.38956585597725L74.38208680555556,112.35368203823668L74.53805381944444,112.38855178084158L74.80177986111111,112.35103097775743L74.92797135416666,112.32721850498167L75.05558072916666,112.33557701162636L75.110878125,112.30066707832087L75.20871197916667,112.2690110847745L75.33915711805555,112.25561310129706L75.39161874999999,112.2396040233102L75.43273732638889,112.23041103169348L75.64541961805556,112.22901189280984L75.66952361111112,112.22032498924314L75.67803090277778,112.96270231174739L75.69362760416666,113.64688252700121L75.83966944444444,113.49956927430111L76.35719635416667,113.36667127544241L76.71592048611112,113.31557155861245L77.15404600694444,113.13288092060834L77.32419184027778,113.1897883642618L77.66873715277778,113.13251354569277L77.91261284722222,113.01024522683778L78.29402309027778,112.8534251684397L78.45282586805556,112.67032863373859L78.50245173611111,112.29171943107902L78.57759947916666,112.19221266654255L78.64707569444445,112.2318507748883L78.88527986111112,112.26831525097089L78.88953350694445,112.46114444015952L79.01005347222222,112.48977196042928L79.12773767361111,112.34620146081491L79.32765902777778,112.21619783259057L79.95010920138888,112.13230304933153L80.08055434027779,112.04265354796979L80.10182256944445,111.96505069317281L80.52718715277777,111.95376035599838L80.61651371527778,112.02538253468425L80.97665572916667,111.93370320978727L81.06314652777777,111.83973422809424L81.0702359375,111.84026437671339L81.16523402777777,111.69598079618491L81.19500954861111,111.620173787995L81.1978453125,111.72207292705264L81.22478506944445,111.8167058129188L81.33679774305556,111.76098657091264L81.5806734375,111.6974062173928L82.16484079861111,111.46689773851067L82.68094982638888,111.2836985896596L82.68945711805554,110.94687649855078L83.27504236111112,110.44239911655283L83.30481788194444,110.42004402632612L84.0591310763889,110.30936998083637L84.64755208333334,109.3208914648956L84.76948993055557,108.65061437197747L84.87724895833334,108.49057614906543L84.95523246527779,108.27621585558747L84.99351527777777,108.167208555743L85.68260590277777,107.69874528945442L85.78469340277778,106.67390602836613L85.7889470486111,106.11044980052951L85.8428265625,105.55197758833371L86.17035729166666,104.82984099021462L86.23274409722222,103.98972206976458L86.27811631944445,103.74881146993098L86.33057795138889,103.00636514436646L87.07496597222223,102.48655898707267L87.36846753472223,102.1392356776511L87.44645104166666,101.26395853845742L87.69174461805555,100.81148188104024L88.25464375,100.34894038936478L88.34822395833334,99.46557849328545L89.1861921875,98.51883850109975L89.64133229166667,97.61762340098979L89.6427501736111,96.8612891858908L89.82282118055555,96.10141249944458L89.86252187500001,95.83584401735726L90.27654340277778,95.26472032990723L90.83377100694443,94.44230231477366L90.85362135416666,93.74368949401058L91.77949826388888,93.21284108032381L92.05173159722221,92.59687527586284L92.15240121527778,92.22416810541942L92.40053055555556,91.63310888416318L92.96484756944444,91.17361496003258L93.2952140625,90.8656382854579L93.34909357638888,90.40087088548353L93.38028697916667,90.95062799336377L93.50080694444445,90.46843260474165L94.0254232638889,90.19936702283893L94.36571493055555,89.80138478484075L94.73861788194445,89.57286907421381L94.79958680555556,89.25839734536386L95.19517586805556,88.84807502154176L95.20226527777777,88.48708180510187L95.43479791666667,89.85585666030596L95.77367170138889,90.38054420856109L96.0005328125,89.95346076984782L96.4882842013889,89.63427540714878L96.56059618055555,89.78784920571961L96.79029305555555,89.79813571371906L97.17737482638888,89.3752449102043L97.34468489583334,89.30964787454103L97.84094357638888,89.58860942637263L97.85086875,89.37836857302108L97.90049461805556,89.22850269786183L98.68316545138889,89.37911492807564L98.80935694444443,89.72042843526808L98.9327126736111,89.32980389531271L99.16666319444444,89.28996725578142L99.22479635416666,88.82765490520329L99.70545833333333,88.48790503968297L99.74090538194444,88.36726900000038L100.27402899305555,88.15486710000035L100.42716024305555,87.70563306857173L100.530665625,87.73015235100029L100.60297760416667,87.39237238375739L100.63984253472222,87.19212085966736L100.70648298611111,86.82730877370061L101.13893697916666,86.74440736061626L101.52318298611112,86.72281707098323L101.52885451388889,86.5719791138849L102.09600729166667,86.8256249524964L102.22928819444445,86.56770933224678L102.27040677083333,86.59681830973639L102.31152534722222,86.37237174661986L102.98927291666668,86.68185242910074L103.2969532986111,86.71922254333354L103.53799322916667,86.52761524435732L103.54791840277777,86.49024970206445L103.61455885416666,86.47748142828657L103.99455121527778,86.36152837474361L104.17604010416667,86.18463223369783L104.35043958333333,86.00551320675662L104.59289739583333,85.7565172432238L104.64677690972222,85.95469230461572L104.71199947916666,85.96877173486841L104.89490624999999,85.89460259709587L105.04094809027778,85.81623474810057L105.51593854166666,85.67924966614765L105.8264546875,85.73422737810432L106.66016927083334,85.67221312243674L107.03307222222223,85.53264136376448L107.12239878472222,85.32634954881662L107.48537656250001,85.31341995107782L107.57044947916667,85.6406909023986L107.58321041666666,85.58874145501588L108.27088315972222,85.36182623808571L108.9628095486111,85.34044986427715L109.01243541666666,85.30999059213518L109.57391666666668,85.26859108649307L109.64764652777778,85.1701717099866L109.80503142361111,85.15389561041654L109.89861163194445,85.30960962080343L110.16091979166666,85.11724508729453L110.31121527777778,84.94664557856507L110.63874600694444,84.94371405642286L111.16336232638889,84.77118729363772L111.5433546875,84.61938999284537L111.56462291666666,84.5711934042751L111.86096024305556,84.53129326027616L112.10908958333334,84.40885857710569L112.28774270833334,84.3806088801094L112.474903125,84.26534084924131L112.50893229166667,84.16681480003146L112.78683715277778,84.06755296288547L113.35257204861112,83.97584677373979L113.59361197916667,84.05830048922294L113.65883454861111,84.15163115458637L114.057259375,84.06400196769917L114.15083958333332,83.98790132450068L114.159346875,83.91174601347916L114.22031579861111,83.84178391213125L114.26994166666667,83.92990016377524L115.11074565972223,84.00786148668344L116.14579947916667,83.92165033801511L116.33863142361112,83.93121700064218L116.53855277777778,83.85077387200653L116.62362569444444,83.87975496694872L116.75407083333334,83.81646875596813L116.82212916666667,83.7495549160856L116.84623315972222,83.84942263876276L117.15958506944445,83.88185760702935L117.33823819444444,83.80413791775497L118.05001493055555,83.74240805455092L118.56328819444444,83.8040346598101L118.58172065972221,83.76396601525764L118.67246510416668,83.73169709230332L118.75612013888889,83.67981890093013L118.82559635416668,83.72913522512282L118.95178784722222,83.6895239347534L119.04111440972223,84.90488448770662L119.15312708333333,84.84394202107882L119.39558489583334,84.76301790825664L119.67774340277778,84.69619156385956L120.13713715277777,84.54201660390217L120.40511684027777,84.3962265506548L120.86167482638889,84.62928782416076L121.06159618055555,84.6648085953161L121.12823663194445,84.76820943221307L121.40614149305554,84.69612286399176L121.44158854166666,84.83052798830686L121.67695694444444,85.02853501090475L121.73225434027778,84.94211052767142L123.01827326388889,84.9286490284757L123.31461059027778,84.75415198277098L123.57833663194444,84.93427383806532L123.60953003472223,85.01420493640163L123.69602083333334,84.83605140704718L123.86474878472222,84.76429224848532L124.10295295138889,84.70982329149392L124.31421736111112,84.56305614091596L124.55100364583333,84.51116883039579L124.82607274305556,84.65758989378479L125.20606510416667,84.53398313654915L125.35636059027777,84.48563526932281L125.60448993055556,84.3595485281048L125.88523055555555,84.23445483600861L126.05112274305556,84.13079953097916L126.22694010416666,84.28483564930984L126.40559322916667,84.19945253080742L126.67357291666667,84.17918450986953L126.83237569444444,84.18859954102544L127.06349045138889,84.18419315835146L127.24497934027778,84.09307071751631L127.7851923611111,84.10746230647896L128.1637668402778,83.98798080797391L128.47995451388888,83.87981531646224L128.59338506944442,83.78230833838745L128.63450364583332,83.74678286169154L128.65435399305554,83.62322823623667L128.78196336805556,83.61040630547015L128.8117388888889,83.58574960349455L128.94501979166665,83.56450678600226L129.0485251736111,83.69141325025916L129.29098298611112,83.56754826451898L129.42568177083334,83.43995013449563L129.85955364583333,83.33174931747463L130.38133420138888,83.31172706429861L130.60394166666669,83.1877440900116L130.78259479166667,83.09599289529613L130.850653125,82.99089673076654L130.85490677083334,82.88722312911845L130.87759288194442,82.91204858406375L130.8861001736111,82.94513792208595L131.17109444444446,82.8478576120202L131.35258333333334,82.93224819010389L131.6389954861111,82.94229881752209L131.73966510416668,83.37851491791272L132.18913368055556,83.22912592612145L132.2926390625,83.03873119065217L132.31248940972225,82.92411075015836L132.32383246527777,82.80159297871396L132.790315625,82.71669171655685L132.9788939236111,82.73099308061545L132.99874427083333,82.62683886183962L133.0001621527778,82.54748131494135L133.1703079861111,82.46246845130437L133.22276961805557,82.3856408026025L133.36030416666665,82.3179182401994L133.55030034722222,82.35076213046517L133.78566875,82.29679975670435L133.94163576388888,82.24341353103392L133.98275434027778,82.18382932078768L134.14864652777777,82.22881781728034L134.24789826388889,82.17179942840944L134.61938333333333,82.10025430699707L134.71012777777776,82.32775566201165L134.85900538194446,82.54799438152477L134.9015418402778,82.53744405051515L135.30847395833334,82.62782732403505L135.33541371527778,82.52308521663156L135.34533888888888,83.86251731996839L135.4233223958333,83.64457853440011L135.56369270833335,83.43531666310297L136.01741493055556,83.3265519610784L136.4172576388889,83.13036551497055L137.26515104166668,82.91025887418779L137.36298489583334,82.75965262962613L137.46790815972224,82.82583959880638L137.588428125,82.95462751392573L137.8564078125,83.00613708396175L138.01662847222224,82.8310086434227L138.2321465277778,82.6643850112233L138.33706979166666,82.48242151010098L138.47744010416665,82.36677623409086L139.1169048611111,82.3270950392532L139.11974062500002,82.43329803532788L139.64152118055554,82.40229412465222L139.8570392361111,82.27237855147271L140.33770121527778,82.0129853391826L140.36322309027778,81.83571314455006L140.83254201388888,81.61161058009503L141.10477534722222,81.69675309351409L141.23947413194446,81.61819028416268L141.47626041666666,81.66126947003215L141.55140815972223,81.53710591588607L141.5726763888889,81.46328728858316L141.6393168402778,81.74136838115342L141.75841892361112,81.69311190018092L142.0221449652778,81.69606454944858L142.15684375,81.81709068378942L142.35534722222224,81.7886811689819L142.50280694444444,81.89459831994087L142.5084784722222,82.11074205937535L142.58929774305557,82.02515312129495L142.71690711805556,81.94259182702258L142.76511510416668,81.88077148360605L142.99764774305555,81.82797781738832L143.65696284722222,81.8567157499352L144.61828680555556,81.7933687285131L144.75865711805557,81.89241667709035L144.7926862847222,81.8200473308099L144.9982791666667,81.7984537584432L145.15282829861113,81.51960391831317L145.38961458333333,81.399650669339L146.13400260416665,80.69273738811938L146.19638940972223,80.31561498859315L146.2630298611111,80.1896320611624L146.52533802083335,79.51182287290332L146.94928472222225,79.13466022847011L147.1236842013889,78.7342910806231L147.133609375,77.65702982970365L147.51218385416666,77.4143799717333L147.54054149305557,76.59948929598853L147.618525,76.2581742949611L147.6568078125,75.86012025832214L148.28067586805557,75.61439305391849L148.37992760416668,75.08775553424093L148.53873038194445,75.30313355224543L148.9073796875,74.69233492916374L149.25050711805554,74.54940009696163L149.36110190972224,74.60834714083691L149.430578125,74.65460394461034L149.59788819444444,74.69181006800646L150.16078732638888,74.14617370406296L150.8980859375,74.05501035151381L151.13487222222224,74.0438423520767L151.982765625,73.49275588472618L151.98843715277778,72.8203311891107L152.14440416666665,72.05956280234248L152.3556685763889,71.14034625425109L153.41624427083332,70.93136609311169L153.53109270833335,70.54155135880052L153.58213645833334,70.24966541934906L153.61758350694444,69.76793057384272L153.65586631944444,69.03062457002986L153.85436979166667,68.55297818445545L154.64413003472222,67.86968616958134L154.81994739583334,66.77698139190892L155.0524800347222,65.91855334200373L155.48351614583333,65.24094756137481L157.52243038194445,64.79569655523733L158.23278923611113,64.12069966757073L158.30510121527777,62.97706630795652L158.4880079861111,61.993073516446586L159.07642899305557,61.5476884862305L159.48194322916666,60.489413387607456L161.7349576388889,59.95702472741813L162.22838055555556,59.93270171896205L162.24397725694445,59.59165788635157L162.29502100694444,58.95323852628782L162.33330381944447,58.39304235223048L162.40136215277778,58.06230999200743L162.54173246527776,57.376041046378106L162.99403680555557,57.56335390602601L163.48320607638888,57.22740646185197L163.65618767361113,57.216471619238206L165.7745032986111,56.70107401088579L166.25800104166666,56.24258937765434L166.42247534722222,55.820866154174624L166.7159769097222,56.271634895900036L166.77269218749998,55.86652453131002L166.938584375,55.372889042464735L167.29730850694443,54.893138084646836L167.50431927083332,54.6698903476107L167.62625711805555,54.72127140213533L168.0204282986111,56.23147819049322L168.4543001736111,56.379794657158186L168.47840416666668,56.75886697715664L170.41381302083332,56.49451822586954L170.44358854166666,56.40918783185403L170.54567604166667,56.36297038795435L170.63074895833333,55.83264924201603L170.66052447916667,55.65230931781443L170.70447881944443,56.00614802889014L171.12700763888887,56.26605063671539L171.28155677083333,56.218027269472444L171.3949873263889,56.21581650681091L171.7749796875,55.95298887398695L172.247134375,55.1898690044454L172.3364609375,54.49405308614372L172.98726875,53.87951340252937L174.01381527777778,53.40275893727642L174.21799027777777,53.15526295426305L174.41224010416667,53.00402773026532L175.003496875,52.75168076081022L175.45296545138888,52.666247506157774L175.68408020833334,52.71041293411342L175.8074359375,52.59544485498779L176.37033506944445,52.555187869489004L176.80137118055558,52.46909631468296L178.31992274305554,53.07440721892894L178.525515625,53.470475425607475L178.78924166666667,53.27215243661816L178.88991128472225,53.21527022867062L178.9367013888889,52.93863829508926L179.71653645833334,52.67860705486605L179.8625782986111,52.4562735815223L179.9221293402778,52.167357384084355L180.01429166666668,52.146598877818775L180.03697777777776,52.06723050789404L180.14048315972224,51.705092278533215L180.40846284722224,51.923363854251306L181.40239809027779,52.30107523668332L182.94788940972222,52.348333338014996L183.0202013888889,52.07898214707063L183.10811006944442,52.32284196807787L183.68518802083332,52.24473455698434L183.96592864583334,52.270049494143066L183.9815253472222,52.1914530268716L184.03540486111112,52.1450537063273L184.09779166666667,52.036603246408845L184.35159253472222,51.850576850339394L184.497634375,51.62072898673401L185.07613020833332,51.511531980917766L185.34410989583333,51.61000913996884L185.8219361111111,51.682518940257665L186.87116874999998,51.66504606408904L186.95907743055557,51.43818476125158L187.1547451388889,51.32282566012641L187.3617559027778,51.27850291554235L187.7474197916667,51.09432583827382L187.86368611111112,51.31630709373215L187.96151996527777,50.988725045073224L188.53576215277778,50.97528379056588L189.55947291666666,50.72218219722359L191.22406631944443,50.454486745358366L191.76995086805556,50.314782713679676L192.02233385416665,50.774176317311685L192.6008296875,50.61340779272339L192.69015625,50.44011165630819L192.86030208333335,50.19912191924878L193.06873072916665,50.384036959466755L194.48519479166666,50.881071209948644L194.82832222222223,50.69760248181093L195.05518333333333,50.75459982291554L195.38696770833332,50.899928679909706L196.09874444444443,50.71512732977587L196.9055192708333,51.307377543226835L198.31205815972223,51.23883978890416L198.3758628472222,52.04540402429946L198.48929340277778,52.29918013972666L198.90898645833332,52.55491882218256L199.09898263888888,52.24191488639288L199.56971944444444,52.88393009418215L199.69732881944444,52.58978172762106L199.97098003472223,52.10198078700181L200.0503814236111,53.8098751190159L200.0943357638889,53.84753716068573L200.219109375,54.460317819617146L200.23895972222223,53.98111148408401L200.33962934027778,53.80987354996131L200.37507638888889,54.546843784250896L201.95176111111113,54.57260092368294L202.94002482638888,53.89758056345751L204.16649270833335,53.288086792826036L204.23313315972223,53.43292409568629L204.60036458333332,53.16834641826051L205.2114717013889,52.99849793714874L206.11324461805555,52.92129390236245L206.5428628472222,52.64245245855476L206.56980260416668,52.168111676985006L206.67189010416666,51.92918845571505L206.73853055555557,51.70957452085783L206.95972013888888,52.26828090805775L207.2603111111111,51.893386299394834L208.0670859375,52.05790258016961L208.1110402777778,51.98337392929551L208.25141059027777,53.224754839937404L208.41021336805554,53.09612310594365L208.52506180555557,54.30769650963501L209.16027291666666,54.23465364438579L210.7185251736111,53.880104797804336L210.8206126736111,53.73508717516677L211.0375486111111,53.28707756479295L211.3494826388889,53.0023957011708L211.78760815972223,53.256321309625136L212.03431961805555,53.603855250091215L212.79146857638887,53.161699189367795L214.3865857638889,53.27105337757388L214.53688125,52.88248509338793L214.74389201388888,54.11558033404913L214.89135173611112,53.96495221135848L214.91545572916667,53.77889449022264L216.25393628472222,53.59097691620036L216.29647274305555,54.52936538529461L216.38863506944446,53.868308757479426L217.1089190972222,57.04606538173148L217.19682777777777,56.27051375427261L217.42936041666667,58.858790950273914L218.21344913194446,58.75915248024653L218.4828467013889,57.88554169650757L218.6047845486111,57.54313529471396L219.53775086805555,56.56956015809969L220.12050034722222,56.30296530300403L220.4097482638889,55.967339308417905L220.41116614583333,55.307878145433264L220.49198541666667,54.63123631303279L220.92869305555556,54.230786788872365L221.89285277777776,53.67520810998512L222.35082864583333,53.58039087041517L222.73791041666667,53.373367854802225L222.93216024305556,53.321693569321994L223.0937987847222,53.23235903381838L224.74563125,52.24736152329368L225.29576944444443,51.650464210250036L227.19147760416666,54.45721332493933L227.4481142361111,57.28616297458824L227.6579607638889,59.742769444986564L227.72460121527777,61.96217017905934L227.86780729166668,60.08127637543912L227.89332916666666,62.3355719521809L228.49309322916667,63.9283384176771L228.85323524305556,65.28194118305224L229.53523645833332,65.83912027903274L231.18990468750002,63.98063414398662L231.2849027777778,62.75073367601652L231.41251215277777,61.24478307627203L231.61243350694446,60.412999857930515L231.7074315972222,59.44346103285177L231.79392239583333,58.51327207242372L231.88324895833333,57.714583704467046L231.93145694444445,56.60683828044891L232.0548126736111,55.24749150597546L232.1030206597222,54.50972315894934L232.1498107638889,52.20705932519728L232.21219756944444,52.217177499820394L232.4447302083333,51.68809323198123L232.5000276041667,49.59165623021167L233.040240625,49.02540935719051L233.28978784722221,48.51594520718575L234.3035734375,47.489368097181455L234.55312065972223,46.110305841034716L234.6835657986111,45.64881900693126L235.0153501736111,45.413878624095275L235.15146684027778,44.50020058311432L235.1911675347222,43.89850820337429L235.44213263888886,44.49729175803688L235.6619043402778,43.43766570723321L235.71861961805556,43.02456342222416L235.7299626736111,42.45759725857317L235.9213767361111,41.90671253271586L237.88797899305555,41.28140601158711L238.54162256944446,42.233086392571266L238.77273732638886,41.981847396171304L239.04638854166666,40.75860596012558L239.17966944444444,40.802499381970165L239.2009376736111,40.628576229487436L239.73264340277777,40.302789142252976L240.11121788194444,39.71239460302766L240.24166302083333,39.747755589153485L240.39763003472223,40.25906083380957L240.65710243055557,39.06096680400003L241.7587967013889,38.20243083788574L242.70168819444444,37.334294896954304L242.85056579861111,37.52749978225887L243.19794687499999,36.2271480183187L243.68428038194446,35.16698232362967L243.91539513888887,33.866814001981L244.31523784722222,32.70993751249719L244.35068489583335,31.927927243390315L245.03126822916664,32.025359072622706L245.43252881944446,32.138491468931846L246.76108420138888,31.545664643467262L246.91705121527778,32.42440666126336L246.99928836805555,32.12166733442274L247.48987552083332,31.48089970812333L247.51114375,30.47616911231097L247.55935173611113,30.40515487965132L247.66994652777777,30.45605501668618L247.74225850694447,29.51113924716043L247.74934791666666,28.54408469744439L247.7536015625,30.20357131698566L247.75501944444446,29.994985613858518L247.75785520833332,30.286027677472646L247.76636249999999,29.99239098115393L247.78054131944444,29.384469293752858L247.79046649305553,29.597412542948973L247.79472013888886,29.37161012793979L247.79613802083333,29.82834509728866L247.80606319444445,30.33288469470267L247.8074810763889,29.926702921660933L247.80889895833332,29.427441111637734L247.81031684027778,30.184392089759655L247.81173472222224,29.645296184355118L247.81740625,29.709837101633894L247.82165989583333,29.24095383789907L247.82874930555556,29.151703096966315" style="fill: none;" fill="none"></path></g></g></g></g><g opacity="0.2"><g><g><g><path stroke="rgb(255, 112, 67)" stroke-width="2px" d="M29.3629171875,148.17091418282646L29.497615972222224,146.90256306152344L29.608210763888888,139.27371428571428L29.660672395833334,148.49878581717354L29.734402256944445,150.0264642857143L30.372449131944446,141.71288256487165L30.509983680555553,144.51584226771763L30.570952604166667,140.66687565569197L30.592220833333332,141.10570502929687L30.664532812500003,141.82251428571428L30.716994444444442,142.4440199811663L30.979302604166666,142.49493340890066L31.237357118055556,141.46725L31.269968402777778,140.98230629882812L31.417428125,142.70245714285716L31.98316302083333,137.04225L32.014356423611105,137.77859395228796L32.05831076388889,137.62777232142858L32.13345850694444,138.16430357142858L32.19442743055556,136.41247767857143L32.205770486111106,136.71511607142858L32.400020312500004,136.33029910714285L33.15575138888889,136.3374107142857L33.280525,129.85952678571428L33.5229828125,129.64696874999998L33.74133663194444,129.65408035714285L33.83349895833333,136.1659419642857L34.128418402777775,128.55099107142857L34.239013194444446,126.16307142857143L34.47154583333333,130.34153571428573L34.651616840277775,133.61682589285715L34.695571180555554,134.83054017857143L34.884149479166666,124.57007142857142L34.923850173611115,132.19845535714285L34.990490625,120.52751785714285L34.99474427083333,121.0822232142857L35.14078611111111,125.14374107142856L35.21593385416667,123.20069196428571L35.29958888888889,122.48241964285714L35.34921475694444,119.74208035714287L35.53637517361111,120.35367857142856L35.74480381944444,119.64646875L35.770325694444445,117.74055803571429L35.815697916666664,120.32049107142858L35.960321875,120.87440624999999L35.967411284722225,118.36637946428571L35.99293315972222,120.85702232142857L36.141810763888884,116.20287053571428L36.19143663194444,121.53578571428571L36.248151909722225,118.18542857142856L36.297777777777775,117.56276785714286L36.331806944444445,116.89032589285713L36.380014930555554,118.95269196428572L36.609711805555555,117.45135267857142L36.76000729166667,116.67302678571428L36.775603993055554,117.4529330357143L36.79403645833333,117.45688392857143L36.98261475694445,114.52374107142857L37.261937499999995,114.98046428571429L37.291713020833335,113.24760267857143L37.45618732638889,114.55139732142857L37.58663246527778,114.47870089285715L37.66461597222222,113.24523214285713L37.67454114583334,114.48265178571428L37.694391493055555,114.03304017857144L37.74968888888889,113.10932142857143L38.03751892361111,116.59321875L38.30266284722222,112.83117857142857L38.3849,115.13454910714286L38.43736163194444,114.50082589285714L38.44586892361111,112.80826339285714L38.55929947916666,113.43645535714285L38.63586510416667,112.69684821428571L38.696834027777776,114.40758482142857L38.79466788194445,112.98684374999999L38.997425,114.25666071428572L39.55465260416667,114.25824107142857L39.75457395833333,113.37798214285715L39.88076545138889,112.74662946428572L40.060836458333334,112.61862053571429L40.11471597222222,113.72724107142858L40.3118015625,113.34558482142856L40.341577083333334,113.33610267857142L40.36142743055556,113.86710267857143L40.4394109375,112.79087946428571L40.768359548611116,114.21636160714286L40.80664236111111,112.71739285714285L40.85201458333333,114.27009375L41.16394861111112,112.40369196428571L41.28588645833334,114.03541071428572L41.32842291666667,112.51510714285715L41.46737534722222,113.2246875L42.23019583333333,112.74662946428572L42.381909201388886,112.48429017857143L42.71511145833333,112.30570982142858L43.299278819444446,114.07966071428572L43.44248489583333,112.34837946428571L43.49494652777778,113.0674419642857L43.59561614583333,113.01845089285715L43.666510243055555,112.44794196428572L43.897625,113.346375L43.95575815972222,112.94575446428571L43.96710121527778,112.93390178571428L44.18829079861111,119.09729464285714L44.467613541666665,112.29780803571428L44.69022100694444,112.99237500000001L44.69163888888889,113.28474107142858L45.49699583333333,112.19034375L45.74370729166667,114.41232589285714L46.118028125,127.46568080357143L46.13504270833333,131.55604017857144L46.186086458333335,114.22189285714285L46.41861909722222,112.01571428571428L46.76600017361111,128.1559017857143L46.903534722222226,118.31185714285715L46.910624131944445,113.95086160714285L47.0240546875,123.42668303571429L47.292034375,130.27674107142857L47.74717447916667,113.88685714285714L47.75993541666667,115.48696874999999L47.93291701388889,115.88758928571428L47.981125,112.27094196428571L48.40932534722222,121.31690625L48.45611545138889,110.53096875L48.952374131944445,112.94101339285714L48.97364236111111,112.75532142857142L49.152295486111115,112.22511160714286L49.163638541666664,112.03625892857143L49.275651215277776,112.9283705357143L49.92645902777778,111.75495535714285L50.06399357638889,116.67539732142856L50.12779826388889,116.34273214285714L50.17600625,122.34413839285713L50.398613715277776,133.60576339285714L50.478015104166666,113.12986607142858L50.67651857638889,135.46228794642857L50.77293454861111,136.6195044642857L50.78711336805556,136.55233928571428L51.045167881944444,147.3999107142857L51.524411979166665,143.86386160714287L51.70164722222222,145.8811875L51.89589704861111,146.9787455357143L52.121340277777776,145.52007589285714L52.15111579861111,145.08437142857144L52.592077083333336,145.46958595145088L52.65729965277777,143.77541407993863L52.78490902777777,142.01010267857143L52.79483420138889,143.84331696428572L53.326539930555555,148.12213392857143L53.7107859375,146.6259570399693L53.85824565972222,144.48178125L54.34174340277778,141.91291071428572L54.35734010416667,141.6L54.4253984375,140.40604017857143L54.52465017361111,135.68788392857144L54.5530078125,136.69378125L54.689124479166665,144.44385267857143L54.74158611111111,138.3555267857143L54.795465625,140.30884821428572L54.965611458333335,134.63457589285713L55.02090885416666,134.38013839285713L55.26336666666666,134.33983928571428L55.34560381944444,137.05726339285715L55.68589548611111,138.02049107142858L56.02760503472222,138.3507857142857L56.26722708333333,140.27961160714287L56.52102795138889,139.20891964285715L56.56072864583333,139.22551339285712L57.33914583333333,129.7765580357143L57.44548697916667,129.12861160714286L57.451158506944445,134.62114285714284L57.51921684027778,130.43951785714285L57.527724131944446,128.23017857142858L57.55891753472222,132.93648214285713L57.58018576388889,131.06375892857142L57.60428975694444,123.57523660714286L57.87368732638889,130.96498660714286L57.95734236111111,126.77625L58.23099357638889,128.27679910714286L58.35009565972223,123.80201785714286L58.42807916666666,123.63054910714285L58.57979253472222,127.30804017857142L58.58121041666667,127.59408482142857L58.6109859375,125.03074553571429L58.63934357638889,126.85763839285714L58.67337274305556,123.10429017857143L58.70314826388889,125.89125L58.71023767361111,125.04654910714285L58.74426684027778,123.65741517857143L58.78680329861111,123.9L58.84351857638889,122.9683794642857L59.0193359375,120.93920089285714L59.042022048611116,121.43148214285713L59.295822916666665,120.75904017857144L59.35679184027778,120.53620982142857L59.40499982638889,119.10835714285714L59.42626805555555,121.36905803571429L59.44470052083333,121.12489285714287L59.45037204861111,121.79417410714285L59.542534375,119.78237946428573L59.579399305555555,119.59194642857142L59.79066371527777,119.76341517857142L59.79349947916667,118.40035714285715L59.80909618055556,119.59905803571428L59.85872204861111,119.05620535714286L60.047300347222226,117.51851785714285L60.11819444444444,114.75368303571429L60.130955381944446,116.20366071428572L60.13237326388889,116.13491517857142L60.190506423611104,116.89427678571428L60.25005746527778,116.9661830357143L60.25431111111111,118.34741517857142L60.337966145833335,117.50824553571428L60.37057743055556,114.64226785714285L60.39893506944445,116.08829464285715L60.51094774305555,115.5343794642857L60.665496874999995,116.07960267857143L60.716540625,116.00848660714286L60.76049496527777,115.27520089285714L60.77467378472222,115.35816964285715L60.82713541666667,116.43794866071428L60.83422482638889,115.90813392857143L60.84415,118.11826339285714L60.861164583333334,117.46241517857143L60.87534340277778,116.77021875L61.015713715277776,115.93183928571429L61.15324826388889,116.79866517857144L61.23406753472222,113.93584821428571L61.33899079861111,116.70305357142857L61.343244444444444,114.62251339285714L61.37301996527778,116.71016517857143L61.385780902777775,118.15145089285714L61.421227951388886,116.69120089285715L61.44107829861111,116.03377232142857L61.45383923611111,115.89075L61.50630086805556,114.59248660714286L61.56868767361111,115.26729910714286L61.61689565972222,114.64068750000001L61.62823871527778,116.57504464285714L61.66793940972222,115.21672767857143L61.67502881944445,115.24754464285715L61.76435538194445,116.66670535714286L61.867860763888885,114.49687499999999L61.933083333333336,114.49371428571428L62.0053953125,115.89865178571429L62.15710868055556,113.78097321428572L62.256360416666666,114.52058035714285L62.29464322916667,113.88290625L62.29606111111111,115.82911607142857L62.30598628472222,113.82601339285713L62.33292604166667,113.811L62.35135850694444,114.47712053571428L62.44777447916667,114.79753794642858L62.5796375,115.07449553571428L62.65478524305555,114.38229910714287L63.07164253472222,113.74304464285714L63.08298559027777,113.74067410714285L63.10850746527778,115.16299553571429L63.291414236111116,114.36649553571428L63.346711631944444,113.67508928571428L63.47857465277778,114.49213392857143L63.523946875,114.37281696428572L63.55514027777778,114.45104464285714L63.65722777777778,113.67271875L63.672824479166664,113.73435267857144L63.67991388888888,113.68694196428572L63.701182118055556,114.42970982142856L63.78200138888889,113.64032142857143L63.89117829861111,113.70432589285714L64.11236788194445,115.01602232142857L64.1237109375,113.69563392857143L64.14497916666667,114.26377232142858L64.16624739583334,113.67034821428572L64.23714149305556,113.69326339285715L64.35482569444444,113.64901339285714L64.38034756944445,114.33488839285715L64.39169062500001,114.97967410714286L64.43706284722222,113.71222767857142L64.45407743055556,113.59133035714285L64.47818142361112,113.56367410714284L64.48668871527778,114.30012053571429L64.62705902777778,115.02945535714287L64.646909375,113.53917857142858L64.7078782986111,113.5455L65.02123020833332,113.58816964285714L65.0935421875,114.26140178571428L65.2239873263889,114.90776785714286L65.2466734375,114.2953794642857L65.27503107638888,113.5455L65.29629930555555,113.40326785714285L65.30906024305555,113.49650892857142L65.38704374999999,113.47517410714286L65.39696892361111,114.2203125L65.46928090277777,114.27562499999999L65.49905642361112,113.38588392857143L65.68763472222221,113.30844642857143L65.74576788194445,113.28632142857143L65.80390104166668,113.23891071428571L65.81524409722222,113.29896428571429L65.84927326388889,113.36770982142858L65.8818845486111,113.32425L65.89464548611112,113.21599553571428L65.89606336805555,113.31792857142858L65.96979322916667,113.30370535714286L66.05911979166667,113.8528794642857L66.1144171875,113.22152678571427L66.25762326388889,113.11564285714286L66.41784392361112,113.13460714285713L66.49299166666667,113.05400892857142L66.53269236111112,113.14804017857143L66.56530364583332,113.73198214285715L66.59791493055555,113.17411607142859L66.69149513888888,113.10458035714285L66.77373229166666,113.03188392857143L66.77798593749999,113.00817857142857L66.86305885416667,112.98447321428571L67.0587265625,112.91098660714286L67.13103854166667,113.00975892857143L67.23312604166667,115.19855357142858L67.26715520833334,112.95444642857143L67.35506388888888,113.01766071428571L67.36357118055555,113.69168303571428L67.42454010416667,113.70827678571429L67.54931371527778,115.27441071428571L67.68543038194446,112.90782589285715L67.69535555555555,112.90229464285714L67.79177152777777,112.96313839285715L67.85132256944445,113.59291071428572L68.05549756944444,112.87226785714286L68.09378038194446,112.96945982142857L68.11079496527778,113.66165625L68.14482413194445,112.87384821428572L68.18877847222222,112.93311160714286L68.35183489583333,112.88728125L68.39437135416667,112.96076785714286L68.47660850694444,115.69320535714286L68.50354826388889,112.85014285714286L68.50921979166667,113.48307589285714L68.79704982638889,112.78139732142857L68.80839288194444,113.48544642857144L68.92607708333334,112.74346874999999L68.96294201388889,112.68025446428571L68.97712083333333,112.73556696428571L69.01965729166668,112.59570535714286L69.36703836805556,112.63995535714285L69.38688871527778,112.52142857142857L69.46912586805556,112.65101785714286L69.60666041666667,112.52142857142857L69.6080782986111,112.55777678571428L69.67613663194444,112.50483482142857L69.72434461805555,113.21362500000001L69.74277708333334,112.41554464285714L70.14829131944445,113.09746874999999L70.24187152777777,112.4724375L70.26881128472222,112.37998660714287L70.30567621527778,112.53091071428572L70.31701927083334,112.44320089285715L70.39074913194445,113.15594196428572L70.42052465277779,113.17253571428571L70.43044982638888,112.43055803571428L70.87991840277778,112.41554464285714L70.91820121527779,113.17490624999999L70.92245486111112,112.36734375L70.9990204861111,112.47480803571429L71.01178142361111,112.36260267857142L71.18901666666666,112.3839375L71.20319548611111,112.37682589285714L71.24289618055555,112.41080357142857L71.30670086805556,112.51984821428572L71.34781944444444,112.40132142857142L71.3974453125,112.57041964285715L71.45983211805556,112.51431696428571L71.48535399305555,112.41791517857142L71.5278904513889,112.40843303571428L71.64415677083333,113.2246875L71.74340850694445,113.83786607142858L71.76609461805556,112.44478125L72.04258159722222,113.81890178571429L72.13049027777778,111.68779017857143L72.3063076388889,113.00738839285714L72.31339704861111,112.37485044642857L72.37578385416667,112.43292857142858L72.44951371527779,112.26936160714286L72.58137673611111,112.33494642857143L72.6735390625,112.20456696428572L72.78129809027777,111.85846875L72.80823784722223,113.11880357142857L73.069128125,112.47796875L73.16270833333334,112.29385714285715L73.19815538194445,112.94654464285713L73.2378560763889,112.32704464285713L73.2860640625,112.19508482142857L73.3527045138889,112.24012499999999L73.35412239583333,113.20967410714286L73.42785225694445,112.07576785714285L73.64620607638889,112.09394196428572L73.88157447916666,113.64190178571428L73.98366197916667,112.04416071428571L74.08574947916667,112.815375L74.19918003472222,111.26899553571428L74.22470190972223,111.974625L74.23462708333334,112.8627857142857L74.24880590277779,112.02440625L74.38208680555556,112.03072767857144L74.53805381944444,112.70237946428571L74.80177986111111,112.01334374999999L74.92797135416666,112.11290625L75.05558072916666,112.41080357142857L75.110878125,111.98647767857143L75.20871197916667,111.98410714285714L75.33915711805555,112.13503125L75.39161874999999,112.09552232142858L75.43273732638889,112.14767410714285L75.64541961805556,112.21641964285715L75.66952361111112,112.14214285714286L75.67803090277778,119.64409821428572L75.69362760416666,119.80450446428571L75.83966944444444,112.17375L76.35719635416667,112.17058928571429L76.71592048611112,112.85567410714285L77.15404600694444,111.48866517857142L77.32419184027778,113.70195535714285L77.66873715277778,112.61704017857143L77.91261284722222,111.90983035714285L78.29402309027778,111.44204464285714L78.45282586805556,111.02245982142857L78.50245173611111,108.88423660714285L78.57759947916666,111.29665178571429L78.64707569444445,112.58859375L78.88527986111112,112.59649553571428L78.88953350694445,114.19660714285715L79.01005347222222,112.74741964285714L79.12773767361111,111.05406696428571L79.32765902777778,111.04616517857143L79.95010920138888,111.37724999999999L80.08055434027779,111.23580803571429L80.10182256944445,111.266625L80.52718715277777,111.85214732142857L80.61651371527778,112.66998214285715L80.97665572916667,111.10858928571429L81.06314652777777,110.99401339285714L81.0702359375,111.84503571428571L81.16523402777777,110.39742857142858L81.19500954861111,110.93791071428572L81.1978453125,112.63916517857143L81.22478506944445,112.66840178571428L81.33679774305556,111.25951339285714L81.5806734375,111.12518303571429L82.16484079861111,109.39232142857144L82.68094982638888,109.63490625L82.68945711805554,107.91547767857142L83.27504236111112,105.90210267857142L83.30481788194444,110.21884821428571L84.0591310763889,109.31330357142858L84.64755208333334,100.42458482142857L84.76948993055557,102.61812053571428L84.87724895833334,107.05023214285714L84.95523246527779,106.34697321428571L84.99351527777777,107.18614285714285L85.68260590277777,103.48257589285714L85.78469340277778,97.45035267857142L85.7889470486111,101.03934375L85.8428265625,100.52572767857143L86.17035729166666,98.33061160714286L86.23274409722222,96.42865178571428L86.27811631944445,101.58061607142858L86.33057795138889,96.3243482142857L87.07496597222223,97.80830357142857L87.36846753472223,99.01332589285714L87.44645104166666,93.38646428571428L87.69174461805555,96.73919196428571L88.25464375,96.18606696428571L88.34822395833334,91.51532142857143L89.1861921875,89.99817857142857L89.64133229166667,89.5066875L89.6427501736111,90.05428125L89.82282118055555,89.26252232142858L89.86252187500001,93.44572767857143L90.27654340277778,90.12460714285714L90.83377100694443,87.04054017857142L90.85362135416666,87.45617410714286L91.77949826388888,88.43520535714285L92.05173159722221,87.05318303571428L92.15240121527778,88.86980357142858L92.40053055555556,86.31357589285714L92.96484756944444,87.03816964285713L93.2952140625,88.09384821428571L93.34909357638888,86.21796428571429L93.38028697916667,95.89844196428571L93.50080694444445,86.12867410714286L94.0254232638889,87.77777678571428L94.36571493055555,86.21954464285713L94.73861788194445,87.51622767857143L94.79958680555556,86.42815178571429L95.19517586805556,85.15517410714286L95.20226527777777,85.23814285714285L95.43479791666667,102.17483035714285L95.77367170138889,95.10273214285715L96.0005328125,86.10970982142857L96.4882842013889,86.76160714285714L96.56059618055555,91.17001339285714L96.79029305555555,89.89071428571428L97.17737482638888,85.56922767857142L97.34468489583334,88.71927455357142L97.84094357638888,92.09926339285714L97.85086875,87.48620089285716L97.90049461805556,87.87970982142858L98.68316545138889,90.734625L98.80935694444443,92.79225L98.9327126736111,85.81418303571428L99.16666319444444,88.9314375L99.22479635416666,84.66684375L99.70545833333333,85.43015625L99.74090538194444,87.28154464285714L100.27402899305555,86.24324999999999L100.42716024305555,83.66252678571429L100.530665625,87.95082589285715L100.60297760416667,84.35235267857144L100.63984253472222,85.38985714285714L100.70648298611111,83.544L101.13893697916666,85.99829464285715L101.52318298611112,86.5285044642857L101.52885451388889,85.21443749999999L102.09600729166667,89.1084375L102.22928819444445,84.24646875L102.27040677083333,86.85879910714284L102.31152534722222,84.35235267857144L102.98927291666668,89.46717857142856L103.2969532986111,87.05555357142858L103.53799322916667,84.80314955357143L103.54791840277777,86.15395982142857L103.61455885416666,86.36256696428572L103.99455121527778,85.31795089285713L104.17604010416667,84.59256696428572L104.35043958333333,84.39344196428571L104.59289739583333,83.51555357142857L104.64677690972222,87.73826785714286L104.71199947916666,86.09548660714286L104.89490624999999,85.22708035714285L105.04094809027778,85.11092410714285L105.51593854166666,84.44638392857144L105.8264546875,86.22902678571428L106.66016927083334,85.11408482142858L107.03307222222223,84.27649553571429L107.12239878472222,83.46972321428572L107.48537656250001,85.19705357142858L107.57044947916667,88.58612946428572L107.58321041666666,85.12119642857144L108.27088315972222,83.31958928571427L108.9628095486111,85.1480625L109.01243541666666,85.03585714285714L109.57391666666668,84.89599553571428L109.64764652777778,84.28439732142856L109.80503142361111,85.00741071428571L109.89861163194445,86.71103571428571L110.16091979166666,83.38596428571428L110.31121527777778,83.41125L110.63874600694444,84.91733035714286L111.16336232638889,83.21844642857143L111.5433546875,83.25321428571428L111.56462291666666,84.13742410714286L111.86096024305556,84.17219196428572L112.10908958333334,83.30694642857144L112.28774270833334,84.12636160714285L112.474903125,83.22792857142856L112.50893229166667,83.28008035714285L112.78683715277778,83.17419642857143L113.35257204861112,83.15049107142858L113.59361197916667,84.80038392857143L113.65883454861111,84.99160714285715L114.057259375,83.27533928571428L114.15083958333332,83.30299553571427L114.159346875,83.22634821428572L114.22031579861111,83.212125L114.26994166666667,84.72294642857143L115.11074565972223,84.70951339285713L116.14579947916667,83.14575L116.33863142361112,84.01731696428573L116.53855277777778,83.12678571428572L116.62362569444444,84.14058482142856L116.75407083333334,83.24689285714285L116.82212916666667,83.14733035714285L116.84623315972222,84.74823214285715L117.15958506944445,84.17377232142856L117.33823819444444,83.1046607142857L118.05001493055555,83.1868392857143L118.56328819444444,84.35867410714286L118.58172065972221,83.40334821428571L118.67246510416668,83.4412767857143L118.75612013888889,83.21291517857144L118.82559635416668,84.17298214285715L118.95178784722222,83.33302232142857L119.04111440972223,95.84312946428571L119.15312708333333,84.29545982142858L119.39558489583334,84.03470089285713L119.67774340277778,84.09475446428571L120.13713715277777,83.15444196428571L120.40511684027777,83.08411607142857L120.86167482638889,86.72683928571428L121.06159618055555,84.98449553571429L121.12823663194445,85.69881696428571L121.40614149305554,84.04734375L121.44158854166666,86.04017410714285L121.67695694444444,86.81059821428572L121.73225434027778,84.16429017857142L123.01827326388889,84.8074955357143L123.31461059027778,83.18367857142857L123.57833663194444,86.55537053571429L123.60953003472223,85.73358482142856L123.69602083333334,83.23266964285715L123.86474878472222,84.11845982142857L124.10295295138889,84.21960267857143L124.31421736111112,83.24215178571428L124.55100364583333,84.04418303571428L124.82607274305556,85.97537946428572L125.20606510416667,83.42152232142857L125.35636059027777,84.05050446428572L125.60448993055556,83.22476785714287L125.88523055555555,83.10861160714286L126.05112274305556,83.1979017857143L126.22694010416666,85.67116071428572L126.40559322916667,83.4310044642857L126.67357291666667,83.99677232142857L126.83237569444444,84.27333482142856L127.06349045138889,84.14453571428572L127.24497934027778,83.27296875L127.7851923611111,84.23698660714287L128.1637668402778,82.91264732142858L128.47995451388888,82.90632589285714L128.59338506944442,82.90474553571428L128.63450364583332,83.42705357142857L128.65435399305554,82.51123660714286L128.78196336805556,83.49500892857142L128.8117388888889,83.36383928571429L128.94501979166665,83.37332142857144L129.0485251736111,84.83357142857143L129.29098298611112,82.45276339285715L129.42568177083334,82.29156696428572L129.85955364583333,82.35794196428571L130.38133420138888,83.13152678571429L130.60394166666669,82.07189732142857L130.78259479166667,82.27023214285714L130.850653125,82.04503125L130.85490677083334,81.95416071428572L130.87759288194442,83.13547767857142L130.8861001736111,83.24294196428572L131.17109444444446,81.97233482142856L131.35258333333334,83.69176339285715L131.6389954861111,83.03275446428572L131.73966510416668,87.30445982142858L132.18913368055556,81.88462499999999L132.2926390625,81.32517857142858L132.31248940972225,81.89252678571428L132.32383246527777,81.69893303571429L132.790315625,81.95258035714286L132.9788939236111,82.85970535714286L132.99874427083333,81.68945089285714L133.0001621527778,81.83326339285713L133.1703079861111,81.69735267857143L133.22276961805557,81.69419196428571L133.36030416666665,81.70841517857143L133.55030034722222,82.64635714285716L133.78566875,81.81113839285715L133.94163576388888,81.7629375L133.98275434027778,81.64757142857142L134.14864652777777,82.63371428571429L134.24789826388889,81.65863392857142L134.61938333333333,81.45634821428571L134.71012777777776,84.37526785714286L134.85900538194446,84.53014285714285L134.9015418402778,82.44249107142858L135.30847395833334,83.4412767857143L135.33541371527778,81.58040625L135.34533888888888,95.91740625L135.4233223958333,81.68312946428571L135.56369270833335,81.55195982142857L136.01741493055556,82.34766964285714L136.4172576388889,81.3646875L137.26515104166668,80.92929910714285L137.36298489583334,81.40419642857142L137.46790815972224,83.42152232142857L137.588428125,84.11371875L137.8564078125,83.46972321428572L138.01662847222224,81.25485267857142L138.2321465277778,81.16477232142856L138.33706979166666,80.84475L138.47744010416665,81.32596875L139.1169048611111,81.96996428571428L139.11974062500002,83.389125L139.64152118055554,82.12325892857142L139.8570392361111,81.10313839285715L140.33770121527778,79.67844642857142L140.36322309027778,80.24026339285714L140.83254201388888,79.5946875L141.10477534722222,82.46303571428571L141.23947413194446,80.911125L141.47626041666666,82.04898214285714L141.55140815972223,80.41963392857143L141.5726763888889,80.79891964285716L141.6393168402778,84.24409821428573L141.75841892361112,81.25880357142857L142.0221449652778,81.72263839285714L142.15684375,82.90632589285714L142.35534722222224,81.53299553571428L142.50280694444444,82.84785267857143L142.5084784722222,84.05603571428571L142.58929774305557,81.25485267857142L142.71690711805556,81.19954017857144L142.76511510416668,81.32438839285714L142.99764774305555,81.35283482142857L143.65696284722222,82.11535714285715L144.61828680555556,81.2232455357143L144.75865711805557,82.78384821428571L144.7926862847222,81.16872321428572L144.9982791666667,81.60411160714285L145.15282829861113,79.00995535714287L145.38961458333333,80.32007142857142L146.13400260416665,74.33051785714287L146.19638940972223,76.92151339285715L146.2630298611111,79.0557857142857L146.52533802083335,73.41154017857143L146.94928472222225,75.74019642857142L147.1236842013889,75.13096875L147.133609375,67.96167857142858L147.51218385416666,75.23053125L147.54054149305557,69.2654732142857L147.618525,73.1863392857143L147.6568078125,72.27763392857143L148.28067586805557,73.40284821428571L148.37992760416668,70.34801785714285L148.53873038194445,77.24153571428572L148.9073796875,69.19514732142858L149.25050711805554,73.26298660714285L149.36110190972224,75.13887053571429L149.430578125,75.07091517857143L149.59788819444444,75.02666517857143L150.16078732638888,69.23544642857144L150.8980859375,73.23454017857142L151.13487222222224,73.94333035714286L151.982765625,68.53297767857144L151.98843715277778,66.76850892857142L152.14440416666665,65.21264732142858L152.3556685763889,62.86739732142857L153.41624427083332,69.05054464285713L153.53109270833335,67.03321875L153.58213645833334,67.6226919642857L153.61758350694444,65.4323169642857L153.65586631944444,62.39487053571429L153.85436979166667,64.25416071428572L154.64413003472222,61.72005803571429L154.81994739583334,56.942638392857134L155.0524800347222,58.19270089285713L155.48351614583333,59.14249553571429L157.52243038194445,60.788437499999986L158.23278923611113,58.04572767857144L158.30510121527777,52.68436607142857L158.4880079861111,53.13713839285714L159.07642899305557,57.53922321428571L159.48194322916666,50.96493749999999L161.7349576388889,55.16552678571428L162.22838055555556,59.71379464285715L162.24397725694445,56.52226339285714L162.29502100694444,53.20746428571428L162.33330381944447,53.35127678571429L162.40136215277778,55.08571875L162.54173246527776,51.19962053571429L162.99403680555557,59.249169642857154L163.48320607638888,54.20387946428572L163.65618767361113,57.118058035714284L165.7745032986111,52.06249553571428L166.25800104166666,52.11622767857142L166.42247534722222,52.025357142857146L166.7159769097222,60.32855357142857L166.77269218749998,52.22053124999999L166.938584375,50.93016964285714L167.29730850694443,50.5753794642857L167.50431927083332,52.66066071428571L167.62625711805555,55.183700892857146L168.0204282986111,69.8233392857143L168.4543001736111,57.71464285714286L168.47840416666668,60.170517857142855L170.41381302083332,54.11537946428571L170.44358854166666,55.6412142857143L170.54567604166667,55.947013392857144L170.63074895833333,51.059758928571426L170.66052447916667,54.029250000000005L170.70447881944443,59.19069642857144L171.12700763888887,58.60517410714286L171.28155677083333,55.7858169642857L171.3949873263889,56.19591964285715L171.7749796875,53.58754017857143L172.247134375,48.32179017857143L172.3364609375,48.23170982142858L172.98726875,48.348656250000005L174.01381527777778,49.11196875L174.21799027777777,50.92779910714286L174.41224010416667,51.64291071428572L175.003496875,50.480558035714296L175.45296545138888,51.897348214285714L175.68408020833334,53.107901785714276L175.8074359375,51.56073214285715L176.37033506944445,52.192875L176.80137118055558,51.69427232142857L178.31992274305554,58.522205357142866L178.525515625,57.03508928571429L178.78924166666667,51.48724553571428L178.88991128472225,52.70333035714286L178.9367013888889,50.44895089285714L179.71653645833334,50.33832589285714L179.8625782986111,50.455272321428566L179.9221293402778,49.56711160714286L180.01429166666668,51.959772321428574L180.03697777777776,51.352915178571436L180.14048315972224,48.44584821428572L180.40846284722224,53.887808035714286L181.40239809027779,55.70047767857143L182.94788940972222,52.77365625L183.0202013888889,49.65482142857144L183.10811006944442,54.51758035714286L183.68518802083332,51.54176785714286L183.96592864583334,52.49788392857144L183.9815253472222,51.48408482142857L184.03540486111112,51.72745982142857L184.09779166666667,51.06054910714286L184.35159253472222,50.17633928571429L184.497634375,49.55209821428571L185.07613020833332,50.52875892857142L185.34410989583333,52.49630357142857L185.8219361111111,52.335107142857154L186.87116874999998,51.507790178571426L186.95907743055557,49.39643303571428L187.1547451388889,50.28459375L187.3617559027778,50.87959821428572L187.7474197916667,49.43673214285714L187.86368611111112,53.314138392857146L187.96151996527777,48.04048660714287L188.53576215277778,50.85431249999999L189.55947291666666,48.444267857142876L191.22406631944443,48.04522767857142L191.76995086805556,49.05744642857144L192.02233385416665,54.90871874999999L192.6008296875,49.16649107142858L192.69015625,48.880446428571446L192.86030208333335,48.030214285714294L193.06873072916665,52.04827232142857L194.48519479166666,55.354379464285714L194.82832222222223,49.046383928571416L195.05518333333333,51.26757589285714L195.38696770833332,52.20788839285714L196.09874444444443,49.05191517857142L196.9055192708333,56.63762946428571L198.31205815972223,50.622L198.3758628472222,59.30448214285714L198.48929340277778,54.58316517857142L198.90898645833332,54.856566964285705L199.09898263888888,49.42487946428571L199.56971944444444,58.66206696428573L199.69732881944444,49.94244642857143L199.97098003472223,47.71177232142858L200.0503814236111,69.18092410714286L200.0943357638889,54.186495535714286L200.219109375,59.97534374999999L200.23895972222223,49.66825446428571L200.33962934027778,52.26873214285715L200.37507638888889,61.179575892857144L201.95176111111113,54.80441517857142L202.94002482638888,47.82239732142858L204.16649270833335,47.80264285714284L204.23313315972223,54.73645982142857L204.60036458333332,50.78714732142858L205.2114717013889,51.469861607142846L206.11324461805555,52.226457589285715L206.5428628472222,50.13287946428571L206.56980260416668,47.89904464285715L206.67189010416666,49.77887946428571L206.73853055555557,49.73304910714285L206.95972013888888,57.29663839285713L207.2603111111111,48.51933482142857L208.0670859375,53.538549107142856L208.1110402777778,51.312616071428565L208.25141059027777,64.39718303571428L208.41021336805554,51.938437500000006L208.52506180555557,65.21185714285714L209.16027291666666,53.57726785714286L210.7185251736111,50.68916517857143L210.8206126736111,52.429928571428576L211.0375486111111,49.25499107142858L211.3494826388889,50.44025892857144L211.78760815972223,55.54165178571429L212.03431961805555,56.731660714285724L212.79146857638887,49.182294642857144L214.3865857638889,54.25524107142857L214.53688125,49.38537053571429L214.74389201388888,65.2134375L214.89135173611112,52.60929910714286L214.91545572916667,52.104375000000005L216.25393628472222,51.89971874999999L216.29647274305555,62.974861607142856L216.38863506944446,47.91879910714286L217.1089190972222,85.645875L217.19682777777777,49.29054910714285L217.42936041666667,82.15328571428573L218.21344913194446,57.86240624999999L218.4828467013889,50.02304464285716L218.6047845486111,54.46147767857144L219.53775086805555,47.807383928571426L220.12050034722222,53.90361160714285L220.4097482638889,52.94670535714286L220.41116614583333,49.37272767857142L220.49198541666667,48.54145982142856L220.92869305555556,50.62674107142858L221.89285277777776,48.67500000000001L222.35082864583333,52.72703571428572L222.73791041666667,51.5101607142857L222.93216024305556,52.85662500000001L223.0937987847222,52.428348214285705L224.74563125,43.38238392857144L225.29576944444443,46.278388392857124L227.19147760416666,79.71795535714287L227.4481142361111,82.74670982142857L227.6579607638889,81.85222767857142L227.72460121527777,81.93677678571427L227.86780729166668,43.15323214285715L227.89332916666666,82.62423214285714L228.49309322916667,78.26323660714286L228.85323524305556,77.46436607142859L229.53523645833332,70.85373214285714L231.18990468750002,47.25425892857143L231.2849027777778,51.68162946428572L231.41251215277777,47.69122767857144L231.61243350694446,52.92695089285715L231.7074315972222,50.71761160714286L231.79392239583333,50.141571428571424L231.88324895833333,50.52638839285714L231.93145694444445,46.63712946428569L232.0548126736111,43.01337053571427L232.1030206597222,47.86980803571427L232.1498107638889,31.483084821428577L232.21219756944444,52.30824107142857L232.4447302083333,46.92633482142858L232.5000276041667,30.723723214285712L233.040240625,43.92918750000001L233.28978784722221,43.930767857142854L234.3035734375,38.25017410714287L234.55312065972223,33.69874553571427L234.6835657986111,41.49543749999998L235.0153501736111,43.29941517857142L235.15146684027778,36.27709821428573L235.1911675347222,38.48327678571428L235.44213263888886,49.886343749999995L235.6619043402778,33.90103125000002L235.71861961805556,39.30664285714286L235.7299626736111,37.354901785714276L235.9213767361111,36.94874999999999L237.88797899305555,35.653647321428565L238.54162256944446,50.79820982142857L238.77273732638886,39.720696428571415L239.04638854166666,29.749433035714276L239.17966944444444,41.197540178571444L239.2009376736111,39.06326785714285L239.73264340277777,37.37070535714284L240.11121788194444,34.39884375L240.24166302083333,40.066004464285726L240.39763003472223,44.860808035714285L240.65710243055557,28.278120535714265L241.7587967013889,30.475607142857143L242.70168819444444,29.521071428571446L242.85056579861111,39.266343750000004L243.19794687499999,24.523982142857136L243.68428038194446,25.62549107142857L243.91539513888887,22.165299107142857L244.31523784722222,22.298049107142873L244.35068489583335,24.889834821428565L245.03126822916664,32.902245535714286L245.43252881944446,33.15668303571428L246.76108420138888,26.21022321428572L246.91705121527778,40.33308482142857L246.99928836805555,29.397013392857133L247.48987552083332,25.71399107142858L247.51114375,21.43359375L247.55935173611113,29.766026785714274L247.66994652777777,30.91415624999999L247.74225850694447,21.006897321428568L247.74934791666666,19.84059375000001L247.7536015625,45.13895089285714L247.75501944444446,28.11771428571427L247.75785520833332,32.90540625L247.76636249999999,27.349660714285704L247.78054131944444,23.91317410714285L247.79046649305553,31.513901785714268L247.79472013888886,27.33938839285713L247.79613802083333,33.93895982142857L247.80606319444445,34.873741071428555L247.8074810763889,26.271066964285723L247.80889895833332,24.93408482142857L247.81031684027778,36.99695089285714L247.81173472222224,24.793433035714287L247.81740625,30.290705357142855L247.82165989583333,25.02100446428571L247.82874930555556,28.348446428571435" style="fill: none;" fill="none"></path></g></g></g></g></g></g><g transform="translate(74, 177)" clip-path="url(#clip_1)"><clipPath id="clip_1"><rect width="255" height="23"></rect></clipPath><g><g><line x1="0" y1="0" x2="0" y2="5" style="visibility: inherit;" fill="rgb(0, 0, 0)" stroke="rgb(204, 204, 204)" stroke-width="1px"></line><line x1="28.357638888888886" y1="0" x2="28.357638888888886" y2="5" style="visibility: inherit;" fill="rgb(0, 0, 0)" stroke="rgb(204, 204, 204)" stroke-width="1px"></line><line x1="56.71527777777777" y1="0" x2="56.71527777777777" y2="5" style="visibility: inherit;" fill="rgb(0, 0, 0)" stroke="rgb(204, 204, 204)" stroke-width="1px"></line><line x1="85.07291666666666" y1="0" x2="85.07291666666666" y2="5" style="visibility: inherit;" fill="rgb(0, 0, 0)" stroke="rgb(204, 204, 204)" stroke-width="1px"></line><line x1="113.43055555555554" y1="0" x2="113.43055555555554" y2="5" style="visibility: inherit;" fill="rgb(0, 0, 0)" stroke="rgb(204, 204, 204)" stroke-width="1px"></line><line x1="141.78819444444446" y1="0" x2="141.78819444444446" y2="5" style="visibility: inherit;" fill="rgb(0, 0, 0)" stroke="rgb(204, 204, 204)" stroke-width="1px"></line><line x1="170.14583333333331" y1="0" x2="170.14583333333331" y2="5" style="visibility: inherit;" fill="rgb(0, 0, 0)" stroke="rgb(204, 204, 204)" stroke-width="1px"></line><line x1="198.50347222222223" y1="0" x2="198.50347222222223" y2="5" style="visibility: inherit;" fill="rgb(0, 0, 0)" stroke="rgb(204, 204, 204)" stroke-width="1px"></line><line x1="226.8611111111111" y1="0" x2="226.8611111111111" y2="5" style="visibility: inherit;" fill="rgb(0, 0, 0)" stroke="rgb(204, 204, 204)" stroke-width="1px"></line><line x1="255.21875" y1="0" x2="255.21875" y2="5" style="visibility: inherit;" fill="rgb(0, 0, 0)" stroke="rgb(204, 204, 204)" stroke-width="1px"></line></g><g transform="translate(0, 8)"><text x="0" y="0" dx="0em" dy="0.95em" style="text-anchor: middle; visibility: hidden; font-family: &quot;Helvetica Neue&quot;, sans-serif; font-size: 12px; font-weight: 200;" fill="rgb(50, 49, 63)" stroke="none" stroke-width="1px">-20k</text><text x="28.357638888888886" y="0" dx="0em" dy="0.95em" style="text-anchor: middle; visibility: inherit; font-family: &quot;Helvetica Neue&quot;, sans-serif; font-size: 12px; font-weight: 200;" fill="rgb(50, 49, 63)" stroke="none" stroke-width="1px">0</text><text x="56.71527777777777" y="0" dx="0em" dy="0.95em" style="text-anchor: middle; visibility: hidden; font-family: &quot;Helvetica Neue&quot;, sans-serif; font-size: 12px; font-weight: 200;" fill="rgb(50, 49, 63)" stroke="none" stroke-width="1px">20k</text><text x="85.07291666666666" y="0" dx="0em" dy="0.95em" style="text-anchor: middle; visibility: inherit; font-family: &quot;Helvetica Neue&quot;, sans-serif; font-size: 12px; font-weight: 200;" fill="rgb(50, 49, 63)" stroke="none" stroke-width="1px">40k</text><text x="113.43055555555554" y="0" dx="0em" dy="0.95em" style="text-anchor: middle; visibility: hidden; font-family: &quot;Helvetica Neue&quot;, sans-serif; font-size: 12px; font-weight: 200;" fill="rgb(50, 49, 63)" stroke="none" stroke-width="1px">60k</text><text x="141.78819444444446" y="0" dx="0em" dy="0.95em" style="text-anchor: middle; visibility: inherit; font-family: &quot;Helvetica Neue&quot;, sans-serif; font-size: 12px; font-weight: 200;" fill="rgb(50, 49, 63)" stroke="none" stroke-width="1px">80k</text><text x="170.14583333333331" y="0" dx="0em" dy="0.95em" style="text-anchor: middle; visibility: hidden; font-family: &quot;Helvetica Neue&quot;, sans-serif; font-size: 12px; font-weight: 200;" fill="rgb(50, 49, 63)" stroke="none" stroke-width="1px">100k</text><text x="198.50347222222223" y="0" dx="0em" dy="0.95em" style="text-anchor: middle; visibility: inherit; font-family: &quot;Helvetica Neue&quot;, sans-serif; font-size: 12px; font-weight: 200;" fill="rgb(50, 49, 63)" stroke="none" stroke-width="1px">120k</text><text x="226.8611111111111" y="0" dx="0em" dy="0.95em" style="text-anchor: middle; visibility: hidden; font-family: &quot;Helvetica Neue&quot;, sans-serif; font-size: 12px; font-weight: 200;" fill="rgb(50, 49, 63)" stroke="none" stroke-width="1px">140k</text><text x="255.21875" y="0" dx="0em" dy="0.95em" style="text-anchor: middle; visibility: hidden; font-family: &quot;Helvetica Neue&quot;, sans-serif; font-size: 12px; font-weight: 200;" fill="rgb(50, 49, 63)" stroke="none" stroke-width="1px">160k</text></g><line x1="0" y1="0" x2="255.21875" y2="0" fill="rgb(0, 0, 0)" stroke="rgb(204, 204, 204)" stroke-width="1px"></line></g></g></g></g></svg>