<svg viewBox="0 0 330 200" xmlns="http://www.w3.org/2000/svg"><g><g><g><g><g><line x1="42.390625" y1="177" x2="37.390625" y2="177" style="visibility: inherit;" fill="rgb(0, 0, 0)" stroke="rgb(204, 204, 204)" stroke-width="1px"></line><line x1="42.390625" y1="160.9090909090909" x2="37.390625" y2="160.9090909090909" style="visibility: inherit;" fill="rgb(0, 0, 0)" stroke="rgb(204, 204, 204)" stroke-width="1px"></line><line x1="42.390625" y1="144.8181818181818" x2="37.390625" y2="144.8181818181818" style="visibility: inherit;" fill="rgb(0, 0, 0)" stroke="rgb(204, 204, 204)" stroke-width="1px"></line><line x1="42.390625" y1="128.72727272727275" x2="37.390625" y2="128.72727272727275" style="visibility: inherit;" fill="rgb(0, 0, 0)" stroke="rgb(204, 204, 204)" stroke-width="1px"></line><line x1="42.390625" y1="112.63636363636364" x2="37.390625" y2="112.63636363636364" style="visibility: inherit;" fill="rgb(0, 0, 0)" stroke="rgb(204, 204, 204)" stroke-width="1px"></line><line x1="42.390625" y1="96.54545454545455" x2="37.390625" y2="96.54545454545455" style="visibility: inherit;" fill="rgb(0, 0, 0)" stroke="rgb(204, 204, 204)" stroke-width="1px"></line><line x1="42.390625" y1="80.45454545454547" x2="37.390625" y2="80.45454545454547" style="visibility: inherit;" fill="rgb(0, 0, 0)" stroke="rgb(204, 204, 204)" stroke-width="1px"></line><line x1="42.390625" y1="64.36363636363636" x2="37.390625" y2="64.36363636363636" style="visibility: inherit;" fill="rgb(0, 0, 0)" stroke="rgb(204, 204, 204)" stroke-width="1px"></line><line x1="42.390625" y1="48.27272727272728" x2="37.390625" y2="48.27272727272728" style="visibility: inherit;" fill="rgb(0, 0, 0)" stroke="rgb(204, 204, 204)" stroke-width="1px"></line><line x1="42.390625" y1="32.18181818181819" x2="37.390625" y2="32.18181818181819" style="visibility: inherit;" fill="rgb(0, 0, 0)" stroke="rgb(204, 204, 204)" stroke-width="1px"></line><line x1="42.390625" y1="16.090909090909093" x2="37.390625" y2="16.090909090909093" style="visibility: inherit;" fill="rgb(0, 0, 0)" stroke="rgb(204, 204, 204)" stroke-width="1px"></line><line x1="42.390625" y1="0" x2="37.390625" y2="0" style="visibility: inherit;" fill="rgb(0, 0, 0)" stroke="rgb(204, 204, 204)" stroke-width="1px"></line></g><g transform="translate(32.390625, 0)"><text x="0" y="177" dx="0em" dy="0.3em" style="text-anchor: end; visibility: hidden; font-family: &quot;Helvetica Neue&quot;, sans-serif; font-size: 12px; font-weight: 200;" fill="rgb(50, 49, 63)" stroke="none" stroke-width="1px">-16</text><text x="0" y="160.9090909090909" dx="0em" dy="0.3em" style="text-anchor: end; visibility: inherit; font-family: &quot;Helvetica Neue&quot;, sans-serif; font-size: 12px; font-weight: 200;" fill="rgb(50, 49, 63)" stroke="none" stroke-width="1px">-14</text><text x="0" y="144.8181818181818" dx="0em" dy="0.3em" style="text-anchor: end; visibility: hidden; font-family: &quot;Helvetica Neue&quot;, sans-serif; font-size: 12px; font-weight: 200;" fill="rgb(50, 49, 63)" stroke="none" stroke-width="1px">-12</text><text x="0" y="128.72727272727275" dx="0em" dy="0.3em" style="text-anchor: end; visibility: inherit; font-family: &quot;Helvetica Neue&quot;, sans-serif; font-size: 12px; font-weight: 200;" fill="rgb(50, 49, 63)" stroke="none" stroke-width="1px">-10</text><text x="0" y="112.63636363636364" dx="0em" dy="0.3em" style="text-anchor: end; visibility: hidden; font-family: &quot;Helvetica Neue&quot;, sans-serif; font-size: 12px; font-weight: 200;" fill="rgb(50, 49, 63)" stroke="none" stroke-width="1px">-8</text><text x="0" y="96.54545454545455" dx="0em" dy="0.3em" style="text-anchor: end; visibility: inherit; font-family: &quot;Helvetica Neue&quot;, sans-serif; font-size: 12px; font-weight: 200;" fill="rgb(50, 49, 63)" stroke="none" stroke-width="1px">-6</text><text x="0" y="80.45454545454547" dx="0em" dy="0.3em" style="text-anchor: end; visibility: hidden; font-family: &quot;Helvetica Neue&quot;, sans-serif; font-size: 12px; font-weight: 200;" fill="rgb(50, 49, 63)" stroke="none" stroke-width="1px">-4</text><text x="0" y="64.36363636363636" dx="0em" dy="0.3em" style="text-anchor: end; visibility: inherit; font-family: &quot;Helvetica Neue&quot;, sans-serif; font-size: 12px; font-weight: 200;" fill="rgb(50, 49, 63)" stroke="none" stroke-width="1px">-2</text><text x="0" y="48.27272727272728" dx="0em" dy="0.3em" style="text-anchor: end; visibility: hidden; font-family: &quot;Helvetica Neue&quot;, sans-serif; font-size: 12px; font-weight: 200;" fill="rgb(50, 49, 63)" stroke="none" stroke-width="1px">0</text><text x="0" y="32.18181818181819" dx="0em" dy="0.3em" style="text-anchor: end; visibility: inherit; font-family: &quot;Helvetica Neue&quot;, sans-serif; font-size: 12px; font-weight: 200;" fill="rgb(50, 49, 63)" stroke="none" stroke-width="1px">2</text><text x="0" y="16.090909090909093" dx="0em" dy="0.3em" style="text-anchor: end; visibility: hidden; font-family: &quot;Helvetica Neue&quot;, sans-serif; font-size: 12px; font-weight: 200;" fill="rgb(50, 49, 63)" stroke="none" stroke-width="1px">4</text><text x="0" y="0" dx="0em" dy="0.3em" style="text-anchor: end; visibility: hidden; font-family: &quot;Helvetica Neue&quot;, sans-serif; font-size: 12px; font-weight: 200;" fill="rgb(50, 49, 63)" stroke="none" stroke-width="1px">6</text></g><line x1="42.390625" y1="0" x2="42.390625" y2="177" fill="rgb(0, 0, 0)" stroke="rgb(204, 204, 204)" stroke-width="1px"></line></g></g><g transform="translate(42, 0)" clip-path="url(#clip_0)"><clipPath id="clip_0"><rect width="287" height="177"></rect></clipPath><g><g><g><line x1="0" y1="0" x2="0" y2="177" fill="rgb(0, 0, 0)" stroke="rgb(60, 60, 60)" stroke-width="1px" opacity="0.25"></line><line x1="31.95659722222222" y1="0" x2="31.95659722222222" y2="177" fill="rgb(0, 0, 0)" stroke="rgb(60, 60, 60)" stroke-width="1px" opacity="0.25"></line><line x1="63.91319444444444" y1="0" x2="63.91319444444444" y2="177" fill="rgb(0, 0, 0)" stroke="rgb(60, 60, 60)" stroke-width="1px" opacity="0.25"></line><line x1="95.86979166666666" y1="0" x2="95.86979166666666" y2="177" fill="rgb(0, 0, 0)" stroke="rgb(60, 60, 60)" stroke-width="1px" opacity="0.25"></line><line x1="127.82638888888889" y1="0" x2="127.82638888888889" y2="177" fill="rgb(0, 0, 0)" stroke="rgb(60, 60, 60)" stroke-width="1px" opacity="0.25"></line><line x1="159.78298611111111" y1="0" x2="159.78298611111111" y2="177" fill="rgb(0, 0, 0)" stroke="rgb(60, 60, 60)" stroke-width="1px" opacity="0.25"></line><line x1="191.73958333333331" y1="0" x2="191.73958333333331" y2="177" fill="rgb(0, 0, 0)" stroke="rgb(60, 60, 60)" stroke-width="1px" opacity="0.25"></line><line x1="223.69618055555557" y1="0" x2="223.69618055555557" y2="177" fill="rgb(0, 0, 0)" stroke="rgb(60, 60, 60)" stroke-width="1px" opacity="0.25"></line><line x1="255.65277777777777" y1="0" x2="255.65277777777777" y2="177" fill="rgb(0, 0, 0)" stroke="rgb(60, 60, 60)" stroke-width="1px" opacity="0.25"></line><line x1="287.609375" y1="0" x2="287.609375" y2="177" fill="rgb(0, 0, 0)" stroke="rgb(60, 60, 60)" stroke-width="1px" opacity="0.25"></line></g><g><line x1="0" y1="177" x2="287.609375" y2="177" fill="rgb(0, 0, 0)" stroke="rgb(60, 60, 60)" stroke-width="1px" opacity="0.25"></line><line x1="0" y1="160.9090909090909" x2="287.609375" y2="160.9090909090909" fill="rgb(0, 0, 0)" stroke="rgb(60, 60, 60)" stroke-width="1px" opacity="0.25"></line><line x1="0" y1="144.8181818181818" x2="287.609375" y2="144.8181818181818" fill="rgb(0, 0, 0)" stroke="rgb(60, 60, 60)" stroke-width="1px" opacity="0.25"></line><line x1="0" y1="128.72727272727275" x2="287.609375" y2="128.72727272727275" fill="rgb(0, 0, 0)" stroke="rgb(60, 60, 60)" stroke-width="1px" opacity="0.25"></line><line x1="0" y1="112.63636363636364" x2="287.609375" y2="112.63636363636364" fill="rgb(0, 0, 0)" stroke="rgb(60, 60, 60)" stroke-width="1px" opacity="0.25"></line><line x1="0" y1="96.54545454545455" x2="287.609375" y2="96.54545454545455" fill="rgb(0, 0, 0)" stroke="rgb(60, 60, 60)" stroke-width="1px" opacity="0.25"></line><line x1="0" y1="80.45454545454547" x2="287.609375" y2="80.45454545454547" fill="rgb(0, 0, 0)" stroke="rgb(60, 60, 60)" stroke-width="1px" opacity="0.25"></line><line x1="0" y1="64.36363636363636" x2="287.609375" y2="64.36363636363636" fill="rgb(0, 0, 0)" stroke="rgb(60, 60, 60)" stroke-width="1px" opacity="0.25"></line><line x1="0" y1="48.27272727272728" x2="287.609375" y2="48.27272727272728" fill="rgb(0, 0, 0)" stroke="rgb(60, 60, 60)" stroke-width="1px" opacity="0.25"></line><line x1="0" y1="32.18181818181819" x2="287.609375" y2="32.18181818181819" fill="rgb(0, 0, 0)" stroke="rgb(60, 60, 60)" stroke-width="1px" opacity="0.25"></line><line x1="0" y1="16.090909090909093" x2="287.609375" y2="16.090909090909093" fill="rgb(0, 0, 0)" stroke="rgb(60, 60, 60)" stroke-width="1px" opacity="0.25"></line><line x1="0" y1="0" x2="287.609375" y2="0" fill="rgb(0, 0, 0)" stroke="rgb(60, 60, 60)" stroke-width="1px" opacity="0.25"></line></g></g></g><g><g><line x1="0" y1="48.27272727272728" x2="287.609375" y2="48.27272727272728" fill="rgb(0, 0, 0)" stroke="rgb(153, 153, 153)" stroke-width="1.5px"></line></g></g><g><g><line x1="31.95659722222222" y1="0" x2="31.95659722222222" y2="177" fill="rgb(0, 0, 0)" stroke="rgb(153, 153, 153)" stroke-width="1.5px"></line></g></g><g><g><g><g><g><path stroke="rgb(255, 112, 67)" stroke-width="2px" d="M32.61969661458333,141.29829545454544L32.622892274305556,143.54784688995215L33.28758949652778,135.78057201977987L33.52406831597222,132.99851216576369L33.59756848958333,131.15735923968572L34.070526128472224,129.35093199754462L34.07531961805556,129.66511928541723L34.08490659722222,130.51578565291487L34.17598289930556,128.70523379072173L36.17486805555555,126.89434295687673L36.857141406249994,126.02561716680393L36.95940251736111,125.38602316807075L36.96898949652778,124.890118551321L36.978576475694446,124.80085696226371L37.101609375,124.28215745556881L37.71357821180556,122.68296283115386L37.772697916666665,122.56349221656595L37.89732864583333,122.66749802732596L38.12901397569445,121.53678392494436L38.25364470486111,121.55394149206084L38.795309027777776,120.97608602751454L38.945505034722224,120.6087838475795L38.961483333333334,118.796050879794L39.29063628472222,119.21954455800956L39.31779939236111,118.53739729667755L39.41526701388889,118.09468419264189L39.429647482638885,118.02234446448313L40.03043151041666,117.1621666809729L40.21577977430555,117.37322046308819L40.303660416666666,117.32490124554437L40.66956345486111,116.13168876411288L40.89485746527778,115.50936724342648L41.631457031249994,114.82374841644415L41.668207118055555,114.28841628667453L41.73052248263889,115.2536216118757L42.42557847222223,114.6000410075165L42.473513368055556,114.06599867230062L42.52783958333333,113.20331565311278L43.17975416666667,113.32460675809136L43.28680876736111,113.2802691422637L43.82527743055556,113.29391934074528L43.83007092013889,112.40459025585136L44.566670486111114,111.41138371335224L44.59063793402778,111.06335121456603L44.65135546875,111.01913013312164L44.680116406249994,109.83905538992532L45.371976736111115,109.9182094424188L45.765042881944446,109.55918939381331L46.00152170138889,108.48524392297682L46.02708697916667,108.90250637117597L46.11976111111111,108.01467169465784L46.66142543402778,107.35811757430693L46.694979861111115,106.89799662356815L46.91707821180556,107.29718883197131L47.690427864583334,106.92160564559833L47.70001484375,106.81395136012458L47.72877578124999,106.33905604522512L47.92371102430556,105.83627933304449L48.030765625,105.21739818461748L48.077102690972225,104.42420457998747L48.45259270833333,104.18907429814973L48.52289722222223,105.06021328847366L48.61716918402777,104.36874050810253L49.214757552083334,102.98786319651597L49.925791840277775,102.01574420889415L49.983313715277774,101.56885664453195L50.012074652777784,101.87132185936952L50.24855347222223,101.71406805469715L51.15612083333333,101.11893320843639L51.21843619791667,100.5103517451995L51.3382734375,100.34734797748804L51.61150234375,100.26882332621828L51.84158984375,100.72719432994666L51.92467699652778,100.13278167127223L51.999775,100.60391077103232L52.32733012152778,101.00274341015555L53.19814739583333,100.16746799937688L53.60559401041667,99.93496921618004L53.89639904513889,99.79712065008094L53.93314913194445,99.73147062467997L53.96670355902778,99.16133645841248L54.20637803819445,98.2559515291741L54.540324479166664,98.11169701192891L54.727270572916666,97.7287394626266L55.00369513888889,97.86184859746605L55.272130555555556,97.8056288011556L56.32350260416666,97.10857095499904L56.33308958333333,96.77566550558251L56.62229678819445,96.51904481532004L56.81723203125,96.47139806782153L57.124015364583336,96.6548106084595L57.128808854166664,95.60568693936179L57.40203776041667,95.59239033659753L57.608157812500004,94.98693325993088L57.78871258680556,95.09088395553331L57.91973463541667,94.88434401664725L58.395887934027776,94.06988562169192L58.462996788194445,94.57699007087962L58.522116493055556,94.07654891940888L58.74101918402778,93.57436651607344L58.91038914930555,93.30050119113464L58.98708498263889,92.60589049408131L59.25711822916667,92.89928439846281L59.91861979166667,92.51125530531542L60.04804401041666,92.88872809527523L60.489045052083334,93.53183933833348L60.53378428819445,92.17045634214078L61.08183993055555,92.46924481876316L61.160133593750004,91.99317991383133L61.679428298611114,92.09977194939574L61.85199392361111,92.1809977404082L62.088472743055554,92.15028782719259L62.46076710069444,91.45233898496328L62.53906076388889,91.6242614944792L62.91455078125,91.45054915504085L62.97526831597222,90.29730679638509L63.11108385416667,90.69584492760261L63.27566032986111,90.63716913837241L63.68470477430556,90.57917034300114L64.03303168402778,91.17580068991266L64.1081296875,91.00878831734794L64.11292317708333,91.42836525642966L65.35283914930555,91.18743427246235L65.93444921875,91.25608108186117L66.47930920138889,90.90001782599317L66.49688532986112,90.53430518850203L66.56399418402778,90.91347701711518L66.66785312500001,91.17150288680908L67.10725633680555,90.77864187935643L67.85024722222222,90.62863668580397L67.94451918402778,90.0709674217081L67.97008446180556,90.40234506254446L68.16182404513889,90.46353106105883L68.88883663194444,90.16660955378461L69.4001421875,90.10051673628101L69.41132699652778,90.48547981963662L69.74047994791667,90.5014774798646L69.86351284722222,89.54706790564661L70.04246979166666,89.89491808500411L70.56496015625001,90.73596637942732L70.60969939236111,90.14902638846414L71.40701649305555,89.87315200734261L71.69302803819444,89.84310942297945L71.79369131944445,88.66288912412854L72.0445506076389,89.77296418215207L72.11165946180556,89.53839509002589L73.25890130208333,88.52273711896972L73.65356527777777,87.51478141854456L73.75103289930554,86.78193955443584L74.06260972222223,87.3560184048515L74.0897728298611,86.63812810773884L74.56432829861112,86.99077320152192L74.57551310763888,86.13601397788815L75.01811197916666,85.83604904467357L75.26577560763889,85.63081401634369L75.27056909722222,85.17065482357086L75.37442803819444,85.10131660940115L75.44473255208332,85.35498360990233L75.80584210069443,85.30882679373663L76.04711440972221,84.87703495169234L76.25003880208334,84.79812914421859L76.44657187499999,84.36377075845805L76.50409375000001,84.33619137273769L77.05694288194445,82.85799748955364L77.28862821180556,82.91265238989651L77.44841119791666,83.39352799982056L77.63375946180555,83.18583109405803L77.68009652777778,83.28624160281946L77.98528203125,83.39044578412786L78.18980425347222,83.04321943290608L78.44226137152778,82.42369376488143L78.65477274305555,81.81152967110869L78.72188159722222,81.85182556812306L78.79697960069444,82.13951233263393L78.83213185763888,81.9710156431692L78.88645807291667,81.56076475197703L79.01108880208334,82.03274458780886L79.25395894097221,81.73620991235805L79.34024175347223,82.05193047043034L79.4536876736111,81.42503660186101L79.7540796875,82.49010887531861L79.8403625,83.17155245971696L80.14554800347223,83.43621526880402L80.28775486111111,83.91577558750707L80.56737508680555,83.90256792143835L80.86457144097221,84.14776549647455L81.048321875,84.38185258384047L81.52767083333333,83.6839494355312L81.87919340277777,84.07616051083959L81.8823890625,84.67426278753439L82.06294383680556,85.2445636035161L82.92097847222223,85.59606029816867L83.49779505208333,85.86050121431377L83.56650173611112,84.81036009288205L83.58567569444445,84.66977873118367L83.79179574652777,85.22879517684822L83.80138272569444,84.47394068388732L83.93400260416666,84.04326731213627L84.1257421875,83.14803142537227L84.28712300347222,83.25978338760304L84.76327630208334,84.21289593296302L84.79842855902777,84.15887914363603L84.99016814236111,83.95490364007699L85.44235399305555,83.83844569496L85.61971310763889,83.01732847457664L85.77470260416668,83.27059552491068L85.88495286458333,82.73930391133105L86.0239640625,82.1085553381882L86.09906206597223,81.57981120404884L86.26044288194444,82.32546639631211L86.27961684027778,82.31870333667916L86.35631267361111,81.61322588430745L86.46176944444444,81.98008503739688L86.75577013888889,81.80157802465483L86.86602039930555,81.79664003978368L86.95869453125,82.10631758311821L87.08492309027778,81.49725317655282L87.15043411458333,81.47621133707732L87.22393428819444,81.40086290505933L87.91739244791665,81.53980903350991L88.12191467013889,82.29329582710056L88.27530633680556,81.94851166054828L88.51018732638889,81.25317345406032L88.73068784722223,81.64046601747361L88.82815546875,81.29200374908505L88.97515581597222,81.23699157625171L89.49125486111112,81.50738337888019L89.676603125,81.67952910645316L89.86354921875,81.75123132853741L90.14796293402777,81.9849058867758L90.19270217013889,81.6810175708173L90.27259366319444,81.16907415911903L90.6832359375,80.99380887912687L91.13701961805555,81.0436947543821L91.22170460069445,81.90426028908887L91.33834618055556,81.842517738361L91.51570529513889,81.04284391399403L91.67229262152779,80.5314572498608L91.93114105902777,79.83415562590548L92.00464123263889,80.16437655483378L92.21875043402777,80.11293897607736L92.28745711805556,80.22495878720942L92.34817465277777,80.73639153472624L92.61021875,79.7998490626253L92.74443645833334,79.49177982298443L93.0288501736111,79.29007657395083L93.45227508680556,79.46200928928374L93.51938394097222,79.72772077126605L93.63922118055557,80.33676674808102L93.68396041666666,80.57841463898784L93.70473220486112,80.33615750846472L93.87090651041667,80.7234508741043L94.20005946180555,80.75019664463322L94.43334262152779,81.10992772568399L94.89351762152778,81.07213260402493L95.00376788194446,80.86529190299606L95.06608324652778,80.34149006215023L95.19870312500001,79.83373393737119L95.28818159722222,80.6726174381804L95.46713854166667,80.40944664181664L95.58378012152778,80.247498849453L95.70521519097223,79.98086579281899L95.73876961805556,79.11641548765732L95.96086796875,79.22508643889168L96.07111822916667,79.5733052365304L96.26125998263889,80.04761109185954L96.40027118055556,80.14194084061292L96.71344583333332,79.90501954776374L96.76297855902779,79.80525184396633L96.83168524305556,79.44109032150898L97.38773003472221,78.23132473790982L97.52833906250001,78.19411607347377L97.63539366319445,78.77933125391914L97.73126345486112,78.79786276788748L98.29849305555555,78.75494520638497L98.41353680555557,78.06672346417068L98.46306953125,78.01816794606516L98.48543914930555,78.40052045691331L98.95839678819445,78.45693305058225L99.07344053819445,77.94154281845333L99.12457109375,77.67378141804475L99.47289800347222,77.54958509442208L99.74612690972222,77.6138027213435L99.93786649305555,76.90766726347493L100.04971458333333,76.79072497530923L100.79110763888889,76.18015905349272L100.99722769097221,75.05597428957188L101.29442404513888,76.19924049697839L101.6139900173611,75.92749835497769L101.62357699652777,75.90857295766172L101.79294696180555,75.34407931104707L101.82809921875,75.07653352527952L102.07576284722222,75.45342558893334L102.45924201388888,75.95353757549458L102.46403550347222,75.9726317876852L102.55830746527778,75.874881568527L103.03446076388889,75.76188018425489L103.19584157986111,76.03694612401131L103.24856996527778,75.45961516076169L103.30129835069445,75.87290683663348L103.70235364583333,75.79470699812151L104.00913697916666,76.11170093766962L104.45652934027778,75.76825809105411L104.47570329861111,76.11311051509537L104.81923671875,76.2790722547981L104.84639982638889,75.2365185717762L104.93108480902778,75.78427431448124L105.09566128472223,75.84902870121492L105.13720486111112,76.06821677854806L105.1499875,76.23866789190552L105.65170607638888,75.82975713919595L105.69484748263889,74.7635995303671L105.72520625,74.80557818823958L105.73479322916666,75.05440354110407L106.49536024305556,75.14744801416532L106.51613203125001,75.20139017379275L106.58963220486112,75.36604744095904L107.29747083333334,75.71398811304486L107.39334062500001,75.22258926337666L108.14911414930556,74.56991068284303L108.15550546875,74.32701054922545L108.47666927083333,74.91202112612116L108.53578897569444,75.06400083169086L108.5709412326389,75.49208344761257L108.85855060763889,74.7240439614228L108.95921388888888,74.11709408515925L108.99436614583334,74.91174815955209L109.22285581597222,74.24431077416939L109.24202977430555,74.48987967117664L109.70060694444444,75.1418320767861L109.76931362847222,74.97952980638036L109.86997690972223,75.16637311028788L109.90512916666667,75.5610993716832L110.05852083333333,75.4400991126966L110.3141736111111,75.50034143796661L110.55864157986112,75.10798745235158L110.62415260416667,74.70400682499508L110.64492439236112,74.47451523340465L110.85583793402778,74.45363707761649L111.15622994791667,75.25486427894577L111.62279626736111,75.27199148741484L111.92957960069444,75.10489327773044L112.27790651041667,75.09391690956772L112.31305876736111,75.0399797512776L112.43928732638888,74.56234542530139L112.54314626736111,73.40375975913481L113.06723446180555,72.58594877309157L113.11037586805556,73.12312183487315L113.11836501736111,73.02397582865862L113.13753897569445,72.5870327656715L113.23980008680556,72.39045061597287L113.9348560763889,73.7332236083147L113.97000833333333,73.34220646969108L114.34230269097222,73.94616755138846L114.57558585069445,74.40280475443151L114.58197717013888,73.85144473353381L114.73856449652779,73.03242936050314L114.80087986111111,72.85516050523216L115.12204366319443,73.2266978256182L115.17317421874999,72.5787755675346L115.55505555555555,72.20114884078124L115.93214340277778,72.51694295809688L116.20057881944444,71.51994072583553L116.41309019097223,71.47909028020199L116.46262291666666,72.19784783359574L117.12252664930556,71.56914698107535L117.16407022569445,71.37571185387681L117.19602682291666,71.9462051227412L117.26792916666666,73.06522110198249L117.82237612847221,72.97186516905704L117.97576779513888,72.54013317203007L118.07483324652777,72.84310031950227L118.66283463541667,72.25375779261694L118.73313914930556,73.34201850487064L118.74911744791666,73.38744050529273L119.40902118055556,72.76248961112721L119.44097777777777,72.45896798668127L119.87239184027777,72.97118801632472L120.25107751736111,72.72725102008617L120.33895815972222,72.94512161535046L120.40926267361111,73.25486169035509L121.14266657986111,72.36573915768321L121.22415590277778,71.9231046145411L121.3999171875,72.11537210256758L121.87287482638888,70.93792580140172L122.02786432291667,71.33646276671611L122.0454404513889,71.12190732240796L122.54396336805556,71.58801577227874L122.69096371527779,71.21038305362235L122.78523567708334,71.08889024116928L122.84755104166666,71.62318303523418L122.88430112847222,71.70177382261984L123.02491015625,71.42386911647898L123.02970364583334,71.74766399999467L123.87815130208334,71.03700414999514L124.23926085069444,71.23168033096958L124.44697873263888,70.42568399017895L124.47094618055556,71.0262974093429L124.62753350694445,69.88326362445235L124.72340329861112,69.46106636232984L124.82087092013889,69.17326686336945L124.93112118055555,69.08070498794142L126.11511310763889,68.98445269654128L126.27968958333334,69.70045539662725L126.41230946180556,68.41771396196457L126.66157092013889,68.88742574195615L126.81496258680555,68.23391044048782L126.9220171875,67.87283608723077L127.03066961805555,68.47013042798827L127.34224644097222,68.13734018483737L127.50043159722222,68.81420186362655L127.50682291666668,69.25691970090045L127.52919253472221,69.31353295301827L127.7273234375,69.41546412138212L127.82159539930555,68.80300862472878L128.06126987847222,68.79007797433398L128.32011831597222,68.6960702280522L128.54541232638888,69.18230730628585L128.59973854166665,69.31078507929371L128.79467378472222,68.81607020772799L128.88575008680556,68.64932323828366L129.01038081597224,68.6923846580917L129.0822831597222,69.14728421591909L129.87640460069443,69.15164662669065L130.19277491319443,69.50334410935876L130.40848194444445,69.96991310751379L130.52512352430554,69.87644079646903L130.68011302083332,69.84422201720355L130.75201536458334,69.51810695275574L130.98370069444445,69.36331815475279L131.25213611111113,69.12288071174076L131.44547352430556,68.97380286783941L131.5509302951389,68.24460436726753L132.10857291666667,69.13268312872262L132.2300079861111,68.9886937994867L132.30830164930555,68.8709932781095L132.40896493055556,69.54662129975326L132.6438459201389,69.29650456038385L132.77806362847224,69.6613995077393L132.89310737847222,68.78681797112117L133.08644479166668,68.76064409037285L133.70001145833334,68.51514390497184L134.11544722222223,68.99393258740405L134.21930616319443,69.14772113405755L134.7130355902778,69.11628237529831L134.99425364583334,68.9389975863207L135.05017769097222,69.31474076703945L135.13965616319445,68.60302197197893L135.16522144097223,68.25450954750832L135.45283081597222,68.2260804900301L135.74203802083332,68.24210880466346L135.85548394097222,68.48001905106563L135.94496241319445,68.87292623686817L136.54255078125001,68.54118909769296L136.7710404513889,68.26214858428737L137.02509539930557,68.09424086313122L137.03787803819446,68.25754411348488L137.23760677083334,68.12414502172308L137.33827005208332,68.36978835335239L137.81761901041668,68.08836500252879L137.8224125,68.74238109409393L137.9246736111111,68.44322138104823L138.17713072916666,69.34637397620936L138.35768550347223,68.90173652743681L138.3688703125,69.2834159477699L138.4279900173611,69.29800363171343L138.60375130208334,69.57816837728349L138.61972960069446,68.61282798228231L138.64209921875,68.71395785999832L139.13423081597222,68.606703580497L139.6870799479167,68.11803318791996L139.70146041666666,67.97617118716309L140.20158116319445,68.18959294727777L140.4971796875,68.71535515299009L140.57707118055555,69.08472872860017L141.12193116319446,68.56071328733829L141.30088810763888,68.00229083496802L141.92723741319443,67.67340561664909L142.13335746527778,67.28496118628293L142.3650427951389,66.78424287384999L142.47369522569446,66.74331858646498L142.64945651041666,65.76785039615189L142.9706203125,65.98808725380933L143.01535954861112,65.61705633462375L143.13040329861113,65.15879899025231L143.1703490451389,65.62429744603656L143.3604907986111,65.37903939373928L144.73142881944446,66.29658998703196L144.82410295138888,66.07647646845004L144.92157057291666,66.01246527475675L145.04460347222224,65.52576422100837L145.39932170138889,65.20841507163483L145.4600392361111,64.80786573115957L145.89784461805556,65.06861522804365L145.92820338541665,65.92643910845625L146.0943776909722,66.60822707973198L146.27812812500002,65.99536673766784L146.4922373263889,65.24959184253747L146.50182430555557,65.07479503705004L146.64403116319443,64.9481932465268L146.90927092013888,65.36650514264832L147.04987994791665,65.58803652329274L147.26718480902778,65.57656835369087L147.89672977430556,65.37482059004901L148.15877387152779,65.82856101558939L148.1651651909722,65.79700356052383L148.96248229166667,66.18078277538042L148.9656779513889,66.98927786539473L150.04900659722222,67.35247120572376L150.24873532986112,67.85813317606046L150.26790928819446,67.75837010118187L150.60664921875,67.09111895320176L150.64180147569445,66.44704204504944L150.9070412326389,66.14930749488786L151.05404157986112,65.63782503449L151.0844003472222,66.06526501558629L151.2665529513889,65.50772845209171L151.86414131944443,66.09059188100356L151.90568489583333,66.0011252619943L152.10221796875,65.66497376105458L152.1261854166667,65.27738543365813L152.2572074652778,65.51378839679083L152.67743671875002,65.21104590796021L152.6790345486111,64.97158465905228L152.70939331597222,65.01460223904165L153.49073211805558,64.11401611887871L153.7975154513889,64.86566443461562L153.8230807291667,64.59351803069946L154.17300546875,64.91533508620101L154.6459631076389,64.83242230030825L154.70508281250002,63.79533392749774L155.5551282986111,63.546991737475196L155.95618359375,62.95820162266699L156.03607508680557,62.562381492370065L156.2294125,61.88432516451185L156.27894522569446,62.0543970252307L156.69917447916666,61.71064562069462L156.8941097222222,61.821224400513245L157.17372994791666,61.81686172812431L157.22326267361112,61.627651998039056L158.0109927951389,61.00015952167149L158.31937395833333,62.01128719645436L158.44720034722224,62.46846561408151L158.82109253472223,61.53736581277076L159.54650729166667,61.33151888298728L159.64077925347223,61.99807377668276L159.8069535590278,62.44917547713567L159.98750833333335,61.91930494805847L160.19203055555556,62.19148100325255L160.40933541666666,62.797992739349596L160.48283559027777,63.05836951130928L160.5131943576389,62.13679830919935L160.70173828125,63.07782621568191L161.2050546875,63.08721528642006L161.3041201388889,62.38256897800528L161.75311032986113,61.86233151962027L161.82820833333332,62.273371133294674L161.84738229166666,62.514579443819684L161.85856710069444,62.792317274122965L162.13179600694446,63.18783307118889L162.33631822916666,63.279460346005536L162.6319167534722,61.859241585331134L162.96106970486113,61.44385036861625L163.10966788194443,61.82866110643988L163.2151246527778,60.7782401327277L163.51232100694446,60.63740673490952L163.83028914930554,59.63932262885122L163.93255026041666,59.52381690250451L164.4853993923611,60.553740434461886L164.52374730902778,60.64509365223384L164.57807352430555,60.00067997321858L165.18045538194443,59.066268543329386L165.29549913194444,58.69862768453838L165.3050861111111,58.12535580919055L165.41533637152776,58.74918386463514L165.64222821180556,58.218745990801494L165.79402204861114,58.125235031921335L166.24141440972224,57.70614587038746L166.32450156250002,58.76029609425764L166.3404798611111,58.79458117752419L166.60891527777775,59.767630976135564L166.97002482638888,60.03303092761301L167.16336223958334,59.99446136394259L167.21449279513888,60.29266410391192L167.28639513888888,60.66623863458139L167.28959079861113,61.58099312593275L167.4301998263889,60.99922611993043L167.88398350694445,60.94726587384645L167.98624461805557,59.86753928726105L168.23870173611112,58.96666197848623L168.5502785590278,58.88954124797097L168.74681163194447,59.464693673173784L168.826703125,59.56721424392049L168.92257291666667,59.5277948877836L169.0599862847222,58.86202840657022L169.5329439236111,59.30121745182235L169.7310748263889,58.69347334746183L170.1193474826389,59.291433631246974L170.17207586805554,59.76992015195346L170.30309791666664,60.139897791101475L170.34304366319444,59.45974638162092L170.5251962673611,59.45076235891341L170.87192534722223,59.087220213931175L171.0301105034722,59.16789211061882L171.1259802951389,58.93655748976916L171.1723173611111,58.31137682493447L171.35287213541667,57.22705732306035L171.40080703125,56.803254425299784L171.6197097222222,56.647474443709214L171.8306232638889,55.86548561982124L171.90572126736112,55.49550596119322L172.64871215277776,55.7634379194446L172.79251684027778,55.57135987652114L173.5594751736111,54.43922388886904L173.94135651041668,54.176574225336665L174.1602592013889,54.390734984621176L174.62682552083334,55.569696695337996L174.72748880208334,56.28147699383443L174.7546519097222,55.45080404170372L174.88247829861112,55.88617813823022L175.17647899305558,55.3393785174148L175.43532743055553,55.29854413544608L176.01214401041668,55.28131600761702L176.05528541666666,55.17045714691595L176.78389583333333,55.81234564449717L176.8669829861111,56.82319323479827L176.91172222222224,56.403942109121516L177.04274427083334,57.67154164184575L177.60038689236112,57.21716176902481L177.69306102430554,57.82453650760718L177.96309427083335,57.94208288881623L178.48718246527775,56.72759487043284L178.74283524305557,56.09871651333714L178.91220520833332,55.31611758927616L179.1550753472222,55.65768761016663L179.2860973958333,56.29841236934482L179.4970109375,55.76402568585732L179.78941380208332,54.55515556425206L180.04506657986113,54.53725755441775L180.16969730902778,54.834541924851436L180.23041484375,54.775281286941095L180.331078125,54.26869472011386L180.9238730034722,54.84909800095103L181.05809071180556,54.76242865304796L181.07247118055557,54.546675320365594L181.76113585069444,55.68928055396549L181.76273368055556,55.53762523862957L181.77711414930553,54.811135442039344L181.91612534722222,54.473366046828886L182.0119951388889,53.38167206214598L183.36056354166666,53.433959391795L184.14989149305555,53.48101798847911L184.45347916666665,53.53486425528057L184.81139305555556,53.86683241996475L184.98555651041667,55.14178551858639L185.27636154513888,54.96144533635737L185.30352465277778,55.821209874448854L185.36903567708333,55.28090708001157L185.9266782986111,55.50841077022717L185.97621102430557,54.69864112091956L186.08805911458333,54.86059519064578L186.4571578125,55.81089930794485L186.63611475694444,54.55770908351403L186.71920190972222,54.79122386204568L186.75754982638887,54.89028329721991L186.79429991319444,54.26070951223315L186.88058272569444,53.37642742582291L186.93650677083335,54.15907684992884L187.5676495659722,54.821957065037026L187.8264980034722,54.49481186003162L188.0230310763889,54.65119575346388L188.19719453125,53.7260112362019L188.53433663194446,53.2956179099275L188.68932612847223,52.908263916280546L188.85390260416665,51.60798300988891L189.36520815972221,51.891275605203035L189.37000164930555,51.08245105367257L189.48824105902776,49.97011506479022L189.81899184027776,49.8782355208002L190.33349305555555,49.746418463511176L190.60991762152779,50.54726365754972L190.68821128472223,50.11867365543111L190.69620043402776,51.266607426251625L191.75396380208332,51.664492144565884L191.89457282986112,50.85368555010926L192.1038885416667,51.88003947472352L192.60720494791664,51.99093836179664L192.62797673611112,51.93518867461049L192.78935755208335,51.646801769638415L192.7957488715278,51.395595619504945L193.06578211805555,52.31886071917779L193.43328298611112,52.202669322245L193.4940005208333,52.82876601359622L194.12833897569445,52.558826476095874L194.22420876736112,52.04082261569903L194.34244817708333,50.18901304943209L194.36321996527778,49.40142489533909L194.7099490451389,48.311607067428525L194.93684088541664,47.86383194227659L195.10141736111112,48.38462577312865L195.25800468749998,48.34363794306853L195.7501362847222,47.72620205671623L196.05532178819445,47.44793920706732L196.09846319444443,48.556907064997006L196.3253550347222,49.22206274190637L196.65291015625,49.01985646212103L196.72960598958335,48.629072121460894L197.14344392361113,49.24226462070044L197.47898819444444,49.89437046522133L197.56686883680555,50.871978841274895L197.7777823784722,51.055940830101946L198.3801642361111,51.15475015618267L198.38495772569445,50.786093321183714L198.42809913194444,51.67669216617671L198.57829513888888,50.646685280370704L198.64700182291665,50.8920167715155L198.96337213541665,50.79654550726168L199.14073125000002,50.62739252662074L199.25257934027778,50.59306236486776L199.27814461805556,50.21736002105956L199.64404765625002,51.10593871164593L200.10741831597224,51.031203421899676L200.25282083333335,50.7840895745007L200.78969166666667,51.545123426112184L200.91911588541666,51.07916907475098L200.94787682291667,50.82626784115371L200.95426814236112,50.51344624927455L201.02457265625,50.10164707809329L201.12044244791667,49.73309076097016L201.16038819444444,49.134497593964056L201.72122647569444,49.370138748454025L201.79312881944446,47.75857941266921L201.9321400173611,47.43751945741661L202.38272803819444,47.14558569189467L202.45303255208333,47.35886803179608L202.5473045138889,47.99149363664546L202.61281553819447,48.76867657957183L202.84130520833335,48.50247324621253L203.26792578125,47.90853092394468L203.38616519097224,47.32813238979267L203.44688272569442,47.74943846899521L203.66258975694444,46.91936263562937L203.74887256944444,47.00106273290547L203.91824253472222,47.097285129790805L204.09400381944445,46.295348783499946L204.27935208333335,47.14864218087385L204.34326527777776,48.09539410664166L204.3880045138889,48.25184215927297L204.4886677951389,48.517488661868384L204.53340703125,47.53761479568152L204.6148963541667,48.54976237505272L204.91688619791668,47.76941956708555L205.1501693576389,47.283386685301195L205.1965064236111,47.41105451156207L205.2076912326389,48.06338340206412L205.95068211805557,47.99148562083718L205.96666041666666,47.92677761773291L205.99062786458333,48.70845048475826L206.52749869791666,48.638925085149765L206.55466180555555,49.0716234697408L206.80232543402778,48.77144164338904L207.1890002604167,48.31929747905011L207.69071883680556,46.48894109869744L207.90323020833333,46.722805609310655L208.04543706597224,46.5202220154124L208.4305140625,46.58053747107081L208.50081857638887,46.1329382822062L208.6590037326389,46.43014602407081L208.73569956597223,46.58567038141817L208.94181961805555,46.754376070549085L209.22463550347223,46.906211190766925L209.34287491319446,46.59417400252943L209.35405972222222,46.73521114633232L209.5921363715278,46.45574595362211L209.75990850694444,47.5015854641521L210.04911571180557,46.03149689207265L210.2025073784722,47.26130174831991L210.67706284722223,46.53108068997284L211.04136805555555,46.877647947363556L211.0461615451389,47.35754049897335L211.3801079861111,47.51094729054236L211.40727109374998,47.49057983637337L211.6820978298611,46.436471351237714L211.79873940972223,46.39022680324055L211.86105477430556,46.204937899426255L212.12309887152776,45.66463893523044L212.1806207465278,45.86798023394357L212.2429361111111,45.61998090499728L212.48740407986114,46.431197079659825L212.60404565972223,46.97600840783022L212.64239357638888,47.813680290483546L212.71589375000002,46.8885818605261L212.79578524305555,46.682191203515714L212.93160078124998,46.63362018319347L213.43331935763888,46.70469872385357L213.4476998263889,46.58300506786679L213.5212,46.05840363221651L213.6090806423611,45.98185620805634L213.8966900173611,45.972559474363464L214.268984375,47.20825807238168L214.71158324652777,47.7330686134344L215.23247578125,48.202283733850464L215.4753459201389,48.62649979602938L215.65590069444443,49.31521343360821L216.1959671875,49.76582376161103L216.35734800347223,48.573584865971924L216.75360980902778,47.12007257010907L217.04281701388888,47.23533804037089L217.1131215277778,47.547662817752155L217.42629618055554,47.2466303124867L217.58448133680557,46.51695164032901L217.72668819444445,47.318286789983006L217.73467734375,46.671073491911244L217.93600390625002,47.39740048437838L218.55276623263887,47.09563698713191L218.75249496527778,46.92370964054595L218.96340850694446,47.86315685830954L218.97938680555558,46.46742560176435L219.0528869791667,45.06660777340599L219.22065911458333,45.306765176684735L219.62331223958336,44.741348426678684L219.83901927083332,44.42403178181385L220.22888975694443,45.3040062444542L220.26883550347222,45.14832152909969L220.28960729166667,45.27303482993594L220.32955303819446,45.19754952716204L221.0853265625,44.372744072947484L221.83470876736112,45.04123890379964L222.31086206597223,44.78971240231576L222.8269611111111,45.65707545746537L222.91963524305555,44.999160078407044L223.13534227430554,45.140852461252535L223.57314765625,44.98240983512727L223.75050677083334,45.48384417800253L223.89271362847222,44.70850052247502L224.047703125,43.56310500928808L224.39922569444445,43.021897153843184L224.52225859375,43.352779542492954L224.57179131944443,42.593259142688055L224.59256310763888,42.81640075746148L224.87218333333334,42.13007318171532L225.6311525173611,43.13273983729377L225.7893376736111,42.786707203109785L225.86603350694446,43.20554381804439L226.00664253472223,43.59307024343272L226.4668175347222,43.55447030400532L226.8534923611111,43.57038691316541L227.17625399305555,43.1690300080609L227.4398959201389,43.45745616168665L227.68915737847223,43.2891581127208L227.8617230034722,42.804181706044716L227.9751689236111,43.82035442854627L228.29633272569444,44.26559171296435L228.60950737847222,45.11327498722355L228.92587769097221,45.367332101580274L229.21668272569443,46.03141056945793L229.32533515625,46.35611042160306L229.60495538194445,46.407851155492665L229.7839123263889,45.50995138624768L229.914934375,45.19829192302501L229.98683671875,44.471319887281L230.18336979166668,44.306445955334425L230.38309852430555,44.02230484892681L230.7074579861111,43.64280163676142L230.8656431423611,44.26670329366482L231.00145868055554,43.98847046429833L231.21077439236112,43.33385417972164L231.30025286458334,42.995453120840466L231.96654791666666,41.82469564491794L232.06401553819444,41.79904427822922L232.2765269097222,41.39431469033636L232.52578836805554,40.616733898056054L232.67278871527776,41.57006050904968L232.7207236111111,41.93515477575835L232.82937604166668,41.8793016289942L233.08662664930554,41.74389670085907L233.3646490451389,41.86879680350043L233.45892100694445,41.67484643384063L233.63787795138887,42.19591978170658L233.92708515625,41.864964199142065L234.07887899305555,41.977757551955136L234.0980529513889,42.339072697858086L234.81547855902778,42.271561511416394L234.88098958333333,41.17638582494996L235.04237039930555,42.25955892049066L235.14463151041667,43.72978488115075L235.3635342013889,43.974197699468476L235.38909947916667,43.78516952684677L235.51213237847224,42.08847069204077L235.5504802951389,41.62492147147313L235.92117682291666,41.38861113867128L236.18481875,42.019555217040335L236.25352543402778,40.50779855897267L236.35259088541665,40.688331853925604L236.72808090277778,40.642225941260335L237.48065876736112,40.84828305265873L237.56853940972223,41.76313007378084L237.66600703125002,41.94245968640274L237.83537699652777,40.89582145066532L237.97758385416668,41.63351203287155L238.3291064236111,42.104342652082096L238.44574800347223,42.56591796108944L238.48569375000002,42.13896252094409L238.73495520833333,42.91324808942926L239.24945642361112,42.93013443965057L239.31177178819445,42.31121194953411L239.66009869791668,41.7314893781122L239.84704479166666,40.90628762653259L240.16820859375,40.44908993654792L240.27366536458334,40.4537264198174L240.42066571180558,40.43108105056294L240.56447039930555,40.38090225619695L241.0725802951389,40.07053929691054L241.15247178819442,39.856342523777954L241.22916762152778,40.34040523843302L241.25952638888887,39.28616264465694L241.35060269097224,38.96412946882765L241.77402760416666,38.17492649376294L241.91303880208332,38.15821752029569L242.05844131944446,37.70424644501941L242.50902934027778,37.26693872473834L242.59371432291667,37.978221403455876L242.67680147569445,38.480556007883024L242.73272552083333,38.50623777372772L243.22325928819447,38.87947763271856L243.46453159722222,38.709084708537574L243.53643394097222,38.63103339424231L243.57158619791667,39.32702095591654L243.79847803819445,40.087500674510466L243.93109791666666,40.82556878767875L244.05732647569442,40.54379558481992L244.33055538194444,40.817315732701616L244.352925,41.20528112646426L244.5989907986111,40.89889445637684L244.73640416666666,42.22627775079977L244.88500234375002,41.86546811917427L245.16462256944445,41.84036329202951L245.4218731770833,41.104378897177156L245.9651353298611,40.866668257428586L246.01307022569443,40.66863782729186L246.10095086805555,40.1573458580377L246.6825609375,39.44302192723393L246.93661588541667,38.889304163796254L247.65244366319445,39.3282734537803L248.09983602430555,38.780085600220474L248.51527178819444,38.613367372060594L248.5823806423611,39.0046280237506L249.26305616319442,39.86954983445466L249.3541324652778,40.16277666343643L249.35892595486112,39.7956872950798L249.47716536458333,39.74004200381742L250.0603732638889,39.163007489748765L250.20417795138889,40.28386088888655L250.24252586805554,40.600020235361484L250.8544947048611,41.645787449972204L251.01427769097222,41.41454199568196L251.47125703125,40.3476007557241L251.78443168402777,40.99644457283026L251.84195355902776,41.75089102603681L251.89787760416667,41.44380890168483L252.54020520833333,39.2533241428151L252.7399339409722,38.599809955109464L253.1361957465278,38.373260032267126L253.33432664930555,37.72431778927594L253.43818559027778,37.19688598477251L253.48771831597224,36.89651556811347L253.59956640625,36.82731855675664L253.63471866319443,37.11182805062637L254.27065494791665,37.93291796644249L254.31219852430553,37.78522276070734L254.46878585069445,39.638518666454814L254.80912361111112,40.43197905147062L254.81551493055554,40.33364915985726L254.98009140624998,41.19460242768781L254.98967838541665,40.43257221058329L255.07276553819443,39.80169739497941L255.14466788194446,39.916089357494485L255.30604869791668,39.61429234719961L255.86688697916668,39.70333334679785L256.1337245659722,40.219888120317364L256.6226605034722,39.35861362140258L256.9741830729167,39.330544425950535L257.69160868055553,37.8398601954336L257.7155761284722,37.216588489007165L257.7715001736111,37.83947507547006L257.7810871527778,37.884054253377656L258.4042407986111,37.34256439875415L258.4809366319444,37.852978828424256L259.00182916666665,37.04747887564906L259.14563385416665,35.93236166990232L259.29103637152775,35.63516658028752L259.2926342013889,35.40080349089507L259.366134375,34.90291064180556L259.50354774305555,34.12796048671589L259.9030052083333,35.32049359247614L260.6060503472222,35.67245674595574L260.6843440104167,34.93499171499667L260.78181163194444,36.06762890713338L260.92721414930554,35.705865990844245L261.03426874999997,36.15800666448709" style="fill: none;" fill="none"></path></g></g></g></g><g opacity="0.2"><g><g><g><path stroke="rgb(255, 112, 67)" stroke-width="2px" d="M32.61969661458333,141.29829545454544L32.622892274305556,145.5724431818182L33.28758949652778,122.49853199178523L33.52406831597222,126.21306818181819L33.59756848958333,125.45880681818181L34.070526128472224,122.69318181818181L34.07531961805556,130.9900568181818L34.08490659722222,134.5099431818182L34.17598289930556,119.4247159090909L36.17486805555555,116.91051136363637L36.857141406249994,120.93323863636363L36.95940251736111,121.43607954545455L36.96898949652778,121.6875L36.978576475694446,124.20170454545455L37.101609375,120.68181818181819L37.71357821180556,111.25355113636364L37.772697916666665,121.6875L37.89732864583333,123.44744318181819L38.12901397569445,112.8877840909091L38.25364470486111,121.6875L38.795309027777776,116.40767045454545L38.945505034722224,117.66477272727273L38.961483333333334,104.08806818181819L39.29063628472222,122.69318181818181L39.31779939236111,112.8877840909091L39.41526701388889,114.39630681818181L39.429647482638885,117.41335227272727L40.03043151041666,109.87073863636364L40.21577977430555,119.17329545454545L40.303660416666666,116.91051136363637L40.66956345486111,105.84801136363636L40.89485746527778,110.1221590909091L41.631457031249994,108.86505681818181L41.668207118055555,109.61931818181819L41.73052248263889,123.69886363636363L42.42557847222223,108.86505681818181L42.473513368055556,109.36789772727273L42.52783958333333,105.5965909090909L43.17975416666667,114.39630681818181L43.28680876736111,112.8877840909091L43.82527743055556,113.41495526920664L43.83007092013889,104.50710355151783L44.566670486111114,102.57954545454545L44.59063793402778,107.96481000293385L44.65135546875,110.625L44.680116406249994,99.31107954545455L45.371976736111115,110.625L45.765042881944446,106.35085227272727L46.00152170138889,98.88123328035527L46.02708697916667,112.63636363636364L46.11976111111111,100.0653409090909L46.66142543402778,101.47653872316533L46.694979861111115,102.77419528094205L46.91707821180556,110.87642045454545L47.690427864583334,103.55278691378507L47.70001484375,105.84801136363636L47.72877578124999,102.07670454545455L47.92371102430556,101.32244318181819L48.030765625,99.65982491319829L48.077102690972225,97.2997159090909L48.45259270833333,102.07670454545455L48.52289722222223,112.8877840909091L48.61716918402777,98.15454391999678L49.214757552083334,90.57624819061972L49.925791840277775,93.27698863636364L49.983313715277774,97.55113636363636L50.012074652777784,104.5909090909091L50.24855347222223,100.3000002557581L51.15612083333333,95.76686291261153L51.21843619791667,95.03693181818181L51.3382734375,98.88123328035527L51.61150234375,99.5625L51.84158984375,104.8504396351901L51.92467699652778,94.78551136363636L51.999775,104.84232954545455L52.32733012152778,104.5909090909091L53.19814739583333,92.65249254486777L53.60559401041667,97.84310726685958L53.89639904513889,98.55681818181819L53.93314913194445,99.14076382463628L53.96670355902778,94.03125L54.20637803819445,90.10908937454224L54.540324479166664,96.81363610787825L54.727270572916666,94.28267045454545L55.00369513888889,99.0596590909091L55.272130555555556,97.2997159090909L56.32350260416666,90.83577873490073L56.33308958333333,93.77982954545455L56.62229678819445,94.2096758105538L56.81723203125,96.04261363636364L57.124015364583336,98.30539772727273L57.128808854166664,86.16422126509927L57.40203776041667,95.47272829575972L57.608157812500004,89.53812217712402L57.78871258680556,96.02639345689254L57.91973463541667,93.02556818181819L58.395887934027776,86.74005681818183L58.462996788194445,99.14076382463628L58.522116493055556,89.57272624969482L58.74101918402778,89.05485827272588L58.91038914930555,90.83577873490073L58.98708498263889,86.35454366423868L59.25711822916667,95.53977272727273L59.91861979166667,89.01906108856201L60.04804401041666,96.28592400117354L60.489045052083334,99.31974974545565L60.53378428819445,79.91818232969806L61.08183993055555,95.15830694545399L61.160133593750004,87.70864475857128L61.679428298611114,93.05909039757468L61.85199392361111,92.91202308914878L62.088472743055554,91.87390091202475L62.46076710069444,85.17084652727301L62.53906076388889,93.17155363342978L62.91455078125,89.88714760000056L62.97526831597222,79.91818232969806L63.11108385416667,94.28267045454545L63.27566032986111,90.10908937454224L63.68470477430556,90.05718326568604L64.03303168402778,96.54545454545455L64.1081296875,89.50568181818181L64.11292317708333,95.20454673333602L65.35283914930555,89.01906108856201L65.93444921875,91.87390091202475L66.47930920138889,87.69545531272888L66.49688532986112,87.24289772727273L66.56399418402778,94.32601761817932L66.66785312500001,93.49373212727633L67.10725633680555,87.24289772727273L67.85024722222222,89.27859163284302L67.94451918402778,85.05194969610736L67.97008446180556,93.38474080779336L68.16182404513889,91.01420454545455L68.88883663194444,87.49431818181817L69.4001421875,89.50568181818181L69.41132699652778,93.9501452662728L69.74047994791667,90.64545633576132L69.86351284722222,80.95738636363636L70.04246979166666,93.02556818181819L70.56496015625001,98.30539772727273L70.60969939236111,84.86656854369424L71.40701649305555,87.39028345454822L71.69302803819444,89.57272624969482L71.79369131944445,78.04090947454627L72.0445506076389,99.7636371309107L72.11165946180556,87.42727375030518L73.25890130208333,79.3818172866648L73.65356527777777,78.44318181818183L73.75103289930554,80.18636389212176L74.06260972222223,92.52272727272727L74.0897728298611,80.1771163181825L74.56432829861112,90.16457865454935L74.57551310763888,78.44318181818183L75.01811197916666,83.1363649151542L75.26577560763889,83.78369892727245L75.27056909722222,81.02922242338006L75.37442803819444,84.47727272727273L75.44473255208332,87.6379864649339L75.80584210069443,84.89341547272421L76.04711440972221,80.99090857939288L76.25003880208334,84.08797691085122L76.44657187499999,80.45454545454547L76.50409375000001,84.08797691085122L77.05694288194445,69.554253003814L77.28862821180556,83.40454647757791L77.44841119791666,87.72140836715698L77.63375946180555,81.31655898961154L77.68009652777778,84.18993616104126L77.98528203125,84.32828339663419L78.18980425347222,79.91818232969806L78.44226137152778,76.84796284545551L78.65477274305555,76.30205290967767L78.72188159722222,82.21448863636364L78.79697960069444,84.72869318181817L78.83213185763888,80.45454545454547L78.88645807291667,77.86850676753305L79.01108880208334,86.28056307272479L79.25395894097221,79.0673978545449L79.34024175347223,84.89341547272421L79.4536876736111,75.78299182111566L79.7540796875,92.07575928081165L79.8403625,89.30454468727112L80.14554800347223,85.81818053939126L80.28775486111111,88.2318184375763L80.56737508680555,83.78369892727245L80.86457144097221,86.35454366423868L81.048321875,86.48863636363636L81.52767083333333,77.4028211181814L81.87919340277777,87.60606017979708L81.8823890625,90.05718326568604L82.06294383680556,90.37727093696594L82.92097847222223,88.759530544281L83.49779505208333,88.240469455719L83.56650173611112,75.3590900139375L83.58567569444445,83.40454647757791L83.79179574652777,90.25994318181819L83.80138272569444,77.68025025454435L83.93400260416666,80.16720697012815L84.1257421875,75.0909084515138L84.28712300347222,84.26555104689166L84.76327630208334,92.79090883515097L84.79842855902777,83.67272804000162L84.99016814236111,82.11912410909478L85.44235399305555,82.7903241894462L85.61971310763889,75.62727349454705L85.77470260416668,85.54999897696756L85.88495286458333,77.95767939090729L86.0239640625,76.43181818181817L86.09906206597223,76.82111399823968L86.26044288194444,89.03636312484741L86.27961684027778,82.2578357999975L86.35631267361111,75.2639288143678L86.46176944444444,85.28181741454385L86.75577013888889,80.19501491026446L86.86602039930555,81.7521981759505L86.95869453125,84.89341547272421L87.08492309027778,76.01567351818085L87.15043411458333,81.28683478182013L87.22393428819444,80.72272701696917L87.91739244791665,82.7903241894462L88.12191467013889,89.07467696883462L88.27530633680556,78.84545416181739L88.51018732638889,74.99512959610333L88.73068784722223,85.12609908797525L88.82815546875,78.15584333376452L88.97515581597222,80.74188202077691L89.49125486111112,83.94090960242532L89.676603125,83.22884065454657L89.86354921875,82.39655132727191L90.14796293402777,84.08797691085122L90.19270217013889,78.94602272727273L90.27259366319444,76.56158345395868L90.6832359375,79.4164213592356L91.13701961805555,81.49266763166949L91.22170460069445,89.64935010129756L91.33834618055556,81.28683478182013L91.51570529513889,73.84577949480578L91.67229262152779,75.92897727272727L91.93114105902777,73.55844101038846L92.00464123263889,83.1363649151542L92.21875043402777,79.65000076727435L92.28745711805556,81.23313708738849L92.34817465277777,85.3392862623388L92.61021875,71.37096681378104L92.74443645833334,76.71915666623548L93.0288501736111,77.47474733265963L93.45227508680556,81.00940372727133L93.51938394097222,82.11912410909478L93.63922118055557,85.81818053939126L93.68396041666666,82.75324565714057L93.70473220486112,78.15584333376452L93.87090651041667,84.20909116484903L94.20005946180555,80.99090857939288L94.43334262152779,84.34750745513223L94.89351762152778,80.73197650909424L95.00376788194446,79.0037255937403L95.06608324652778,75.62727349454705L95.19870312500001,75.2639288143678L95.28818159722222,88.22256894545123L95.46713854166667,78.04090947454627L95.58378012152778,78.78996871818195L95.70521519097223,77.58116828311573L95.73876961805556,71.33636274121024L95.96086796875,80.203125L96.07111822916667,82.70727441527627L96.26125998263889,84.31636378981851L96.40027118055556,80.99090857939288L96.71344583333332,77.77272791212256L96.76297855902779,78.90734250978991L96.83168524305556,76.16363661939447L97.38773003472221,67.34343448552218L97.52833906250001,77.85923809354956L97.63539366319445,84.04626787792553L97.73126345486112,78.96464639360254L98.29849305555555,78.36868715286255L98.41353680555557,71.8727277842435L98.46306953125,77.58116828311573L98.48543914930555,81.84169305454601L98.95839678819445,78.96464639360254L99.07344053819445,73.30303072929382L99.12457109375,75.2639288143678L99.47289800347222,76.43181818181817L99.74612690972222,78.19176136363636L99.93786649305555,70.55244814265858L100.04971458333333,75.7382443818179L100.79110763888889,70.68506575714459L100.99722769097221,64.93831141428515L101.29442404513888,86.48863636363636L101.6139900173611,73.48181907697156L101.62357699652777,75.7382443818179L101.79294696180555,70.26363649151541L101.82809921875,72.66862145337191L102.07576284722222,78.84545416181739L102.45924201388888,80.45454545454547L102.46403550347222,76.14447969740088L102.55830746527778,74.99512959610333L103.03446076388889,74.74486772580579L103.19584157986111,78.51253958181903L103.24856996527778,70.26363649151541L103.30129835069445,79.59253191947937L103.70235364583333,75.0909084515138L104.00913697916666,78.96464639360254L104.45652934027778,72.67727247151461L104.47570329861111,79.21678233146667L104.81923671875,77.77272791212256L104.84639982638889,65.85353542457928L104.93108480902778,80.71407599882647L105.09566128472223,76.43181818181817L105.13720486111112,78.04090947454627L105.1499875,77.77272791212256L105.65170607638888,72.1495603648099L105.69484748263889,65.16818105090748L105.72520625,75.18338610909201L105.73479322916666,77.29383171688427L106.49536024305556,75.98484827171673L106.51613203125001,75.68686961043964L106.58963220486112,76.84796284545551L107.29747083333334,78.84545416181739L107.39334062500001,70.79999961636283L108.14911414930556,68.6958034580404L108.15550546875,72.1409093466672L108.47666927083333,80.1771163181825L108.53578897569444,76.43181818181817L108.5709412326389,79.34482699090783L108.85855060763889,67.81168858571485L108.95921388888888,68.65454519878735L108.99436614583334,82.0636348290877L109.22285581597222,68.2373743057251L109.24202977430555,76.69999974424188L109.70060694444444,81.00940372727133L109.76931362847222,73.51880937272851L109.86997690972223,76.84796284545551L109.90512916666667,79.11363572424109L110.05852083333333,74.35109678181735L110.3141736111111,76.04252236539666L110.55864157986112,71.57680158181623L110.62415260416667,71.06818117878653L110.64492439236112,72.4090909090909L110.85583793402778,74.26573367552325L111.15622994791667,82.4659090909091L111.62279626736111,75.42613636363636L111.92957960069444,73.6010093905709L112.27790651041667,74.99512959610333L112.31305876736111,74.55454532666639L112.43928732638888,70.26363649151541L112.54314626736111,62.9764887636358L113.06723446180555,65.22564989870246L113.11037586805556,77.95767939090729L113.11836501736111,72.13166177272797L113.13753897569445,68.65454519878735L113.23980008680556,70.62121126868509L113.9348560763889,85.81818053939126L113.97000833333333,69.82305222207849L114.34230269097222,79.3818172866648L114.57558585069445,78.51253958181903L114.58197717013888,68.88920454545453L114.73856449652779,65.66129100322723L114.80087986111111,71.25974080779336L115.12204366319443,76.57053370909259L115.17317421874999,66.7474752447822L115.55505555555555,68.80250830000098L115.93214340277778,75.3590900139375L116.20057881944444,62.54692063548349L116.41309019097223,71.11143626950003L116.46262291666666,78.66666581413962L117.12252664930556,65.91083930839191L117.16407022569445,69.63479570908979L117.19602682291666,77.08064454252069L117.26792916666666,83.1363649151542L117.82237612847221,72.13166177272797L117.97576779513888,68.65454519878735L118.07483324652777,75.5698046467521L118.66283463541667,66.94967505064878L118.73313914930556,83.1363649151542L118.74911744791666,73.79623850909147L119.40902118055556,67.13793156363748L119.44097777777777,69.727273366668L119.87239184027777,77.58116828311573L120.25107751736111,70.53181805393912L120.33895815972222,74.90595697272907L120.40926267361111,76.04252236539666L121.14266657986111,64.36363636363636L121.22415590277778,67.93939372626218L121.3999171875,73.84577949480578L121.87287482638888,60.34090909090909L122.02786432291667,74.92329545454547L122.0454404513889,69.19090832363476L122.54396336805556,75.78299182111566L122.69096371527779,67.81168858571485L122.78523567708334,69.99545492909171L122.84755104166666,76.43181818181817L122.88430112847222,72.4090909090909L123.02491015625,68.92272676121105L123.02970364583334,74.66181795163587L123.87815130208334,64.6410654999993L124.23926085069444,72.98376595973969L124.44697873263888,63.17171692306344L124.47094618055556,76.43181818181817L124.62753350694445,59.59595956043765L124.72340329861112,65.66129100322723L124.82087092013889,66.58307137272574L124.93112118055555,68.24764810908924L126.11511310763889,68.11818207393993L126.27968958333334,76.14447969740088L126.41230946180556,56.87304105000064L126.66157092013889,73.11483176188037L126.81496258680555,62.352272727272734L126.9220171875,64.62316690791737L127.03066961805555,73.84577949480578L127.34224644097222,65.14222799647938L127.50043159722222,74.90595697272907L127.50682291666668,73.24138023636557L127.52919253472221,69.82305222207849L127.7273234375,70.33284463665701L127.82159539930555,63.290909154848606L128.06126987847222,68.67370212078094L128.32011831597222,67.85000051151623L128.54541232638888,73.55844101038846L128.59973854166665,70.46708503636447L128.79467378472222,64.36363636363636L128.88575008680556,67.14860051328485L129.01038081597224,69.07993743636392L129.0822831597222,73.24138023636557L129.87640460069443,69.19090832363476L130.19277491319443,72.66862145337191L130.40848194444445,74.1690340909091L130.52512352430554,69.03518999706615L130.68011302083332,69.554253003814L130.75201536458334,66.58307137272574L130.98370069444445,67.97021897272631L131.25213611111113,66.95894372463226L131.44547352430556,67.63210227272727L131.5509302951389,61.68181786212054L132.10857291666667,77.12539198181845L132.2300079861111,67.69278983636335L132.30830164930555,67.81168858571485L132.40896493055556,75.62727349454705L132.6438459201389,67.04545390605927L132.77806362847224,72.94545403393832L132.89310737847222,60.91558414155786L133.08644479166668,68.52507916363803L133.70001145833334,66.3056422363628L134.11544722222223,73.30303072929382L134.21930616319443,70.53181805393912L134.7130355902778,68.83333354646508L134.99425364583334,67.34343448552218L135.05017769097222,72.69642939350821L135.13965616319445,62.19755281643435L135.16522144097223,65.11789772727273L135.45283081597222,67.97021897272631L135.74203802083332,68.38636363636364L135.85548394097222,70.62121126868509L135.94496241319445,72.4090909090909L136.54255078125001,65.55555484511636L136.7710404513889,65.7507839636369L137.02509539930557,66.58307137272574L137.03787803819446,69.727273366668L137.23760677083334,66.92355319586667L137.33827005208332,70.58057833801617L137.81761901041668,65.55555484511636L137.8224125,74.6285259181803L137.9246736111111,65.7507839636369L138.17713072916666,77.47474733265963L138.35768550347223,64.89999948848377L138.3688703125,72.7185307307677L138.4279900173611,69.42929278720509L138.60375130208334,72.09965108741413L138.61972960069446,59.924764427271754L138.64209921875,69.62412675944242L139.13423081597222,67.64141506498511L139.6870799479167,63.719999654726536L139.70146041666666,66.69941318035126L140.20158116319445,70.11038878830996L140.4971796875,73.44721500440076L140.57707118055555,72.4090909090909L141.12193116319446,63.84457431598142L141.30088810763888,62.9764887636358L141.92723741319443,64.71343865177847L142.13335746527778,63.78896131298758L142.3650427951389,62.277778061953455L142.47369522569446,66.375L142.64945651041666,56.98863668333401L142.9706203125,67.97021897272631L143.01535954861112,62.277778061953455L143.13040329861113,61.03448289090936L143.1703490451389,69.813783548095L143.3604907986111,63.17171692306344L144.73142881944446,74.55454532666639L144.82410295138888,64.09545480121265L144.92157057291666,65.43636453151703L145.04460347222224,61.14545473727313L145.39932170138889,62.352272727272734L145.4600392361111,61.20292166688226L145.89784461805556,67.41536070000042L145.92820338541665,73.64685403216968L146.0943776909722,72.74431882121347L146.27812812500002,60.47962365909055L146.4922373263889,58.53761778636411L146.50182430555557,63.501623787663206L146.64403116319443,63.808777131817564L146.90927092013888,69.13131220774218L147.04987994791665,67.58181894909252L147.26718480902778,65.47335482727398L147.89672977430556,63.55909071727231L148.15877387152779,69.91222484545276L148.1651651909722,65.5129864649339L148.96248229166667,69.63479570908979L148.9656779513889,74.26573367552325L150.04900659722222,70.62121126868509L150.24873532986112,72.4090909090909L150.26790928819446,66.86050242727454L150.60664921875,61.08585862138055L150.64180147569445,60.6503498716788L150.9070412326389,63.46969654343344L151.05404157986112,61.03448289090936L151.0844003472222,69.91222484545276L151.2665529513889,60.48989938064054L151.86414131944443,71.33636274121024L151.90568489583333,65.19592569091104L152.10221796875,62.63961025259711L152.1261854166667,61.78909048709002L152.2572074652778,67.64141506498511L152.67743671875002,62.48636350848459L152.6790345486111,62.816433418880806L152.70939331597222,65.40176045894623L153.49073211805558,56.008741037412136L153.7975154513889,71.63049927624789L153.8230807291667,62.144200395454064L154.17300546875,67.81168858571485L154.6459631076389,64.08620722727343L154.70508281250002,54.461538572203025L155.5551282986111,61.311912027272314L155.95618359375,57.65909058939327L156.03607508680557,59.000000319697634L156.2294125,55.78181821378794L156.27894522569446,63.58504377170041L156.69917447916666,58.61688297986984L156.8941097222222,62.816433418880806L157.17372994791666,61.777597676623955L157.22326267361112,59.924764427271754L158.0109927951389,55.352727234363556L158.31937395833333,71.11143626950003L158.44720034722224,66.58307137272574L158.82109253472223,53.15746760097417L159.54650729166667,59.47889651493594L159.64077925347223,67.99706781994213L159.8069535590278,66.50909078121185L159.98750833333335,57.15047018636356L160.19203055555556,64.6410654999993L160.40933541666666,68.25659836422314L160.48283559027777,65.40176045894623L160.5131943576389,53.84265749021009L160.70173828125,71.54707737402484L161.2050546875,63.17171692306344L161.3041201388889,56.040752202272415L161.75311032986113,57.180194394154995L161.82820833333332,65.97272765636444L161.84738229166666,64.6854542385448L161.85856710069444,65.29195774685253L162.13179600694446,66.7474752447822L162.33631822916666,64.10410581935535L162.6319167534722,49.07727273926139L162.96106970486113,57.70532941818237L163.10966788194443,65.29195774685253L163.2151246527778,51.3244513693181L163.51232100694446,59.36990615454587L163.83028914930554,50.65656567432664L163.93255026041666,58.48426536538385L164.4853993923611,69.82305222207849L164.52374730902778,61.467272612181574L164.57807352430555,54.200956862081185L165.18045538194443,50.65656567432664L165.29549913194444,55.3898599554192L165.3050861111111,52.965908931060284L165.41533637152776,64.36363636363636L165.64222821180556,53.44480512629856L165.79402204861114,57.283636402000084L166.24141440972224,53.93434341658245L166.32450156250002,68.24764810908924L166.3404798611111,59.103146926923245L166.60891527777775,68.52507916363803L166.97002482638888,62.42163049090992L167.16336223958334,59.64733529090881L167.21449279513888,62.9764887636358L167.28639513888888,64.02840941060673L167.28959079861113,69.813783548095L167.4301998263889,55.763323065909475L167.88398350694445,60.47962365909055L167.98624461805557,50.15000000799243L168.23870173611112,50.85876619951293L168.5502785590278,58.195454673333614L168.74681163194447,64.6410654999993L168.826703125,60.48989938064054L168.92257291666667,59.17302068255164L169.0599862847222,52.87013007564977L169.5329439236111,63.25391885909167L169.7310748263889,53.22377640821718L170.1193474826389,64.67307618531314L170.17207586805554,64.07629883831198L170.30309791666664,63.46969654343344L170.34304366319444,53.33838369629599L170.5251962673611,59.36990615454587L170.87192534722223,55.81534090909091L171.0301105034722,59.89393918080762L171.1259802951389,56.854545902122155L171.1723173611111,52.68475084142253L171.35287213541667,47.468181806193144L171.40080703125,52.98902834545483L171.6197097222222,55.24545460939407L171.8306232638889,48.827586204829544L171.90572126736112,52.165689033540815L172.64871215277776,58.17482554370706L172.79251684027778,53.84265749021009L173.5594751736111,44.25L173.94135651041668,51.81272725354542L174.1602592013889,56.31818181818183L174.62682552083334,66.18035209178925L174.72748880208334,62.687499680302366L174.7546519097222,47.974747472527355L174.88247829861112,59.80454500696875L175.17647899305558,50.41818193007599L175.43532743055553,54.93103469772771L176.01214401041668,55.12626285715535L176.05528541666666,54.17272740060632L176.78389583333333,61.58934212272818L176.8669829861111,65.92082154750824L176.91172222222224,52.63068197803065L177.04274427083334,69.07993743636392L177.60038689236112,53.1277429136363L177.69306102430554,63.290909154848606L177.96309427083335,59.000000319697634L178.48718246527775,45.79720270498231L178.74283524305557,50.43881129947576L178.91220520833332,48.27272727272728L179.1550753472222,58.73181779818103L179.2860973958333,62.06493520194833L179.4970109375,50.95454553446986L179.78941380208332,43.675324469804764L180.04506657986113,54.376175465908915L180.16969730902778,57.51010125875473L180.23041484375,54.24193554574792L180.331078125,49.7094156186689L180.9238730034722,60.07272752848539L181.05809071180556,53.98240452192046L181.07247118055557,52.60489532622424L181.76113585069444,65.97272765636444L181.76273368055556,54.17272740060632L181.77711414930553,48.27272727272728L181.91612534722222,51.43344148993492L182.0119951388889,43.55642619999972L183.36056354166666,53.904545358636156L184.14989149305555,53.904545358636156L184.45347916666665,54.0194806564938L184.81139305555556,56.854545902122155L184.98555651041667,66.61636340618134L185.27636154513888,53.33838369629599L185.30352465277778,63.55909071727231L185.36903567708333,50.41818193007599L185.9266782986111,57.55594398216769L185.97621102430557,47.41071427715096L186.08805911458333,56.31818181818183L186.4571578125,64.36363636363636L186.63611475694444,43.27899706363678L186.71920190972222,56.89285686883059L186.75754982638887,55.78181821378794L186.79429991319444,48.59454544735226L186.88058272569444,45.417888648130685L186.93650677083335,61.20292166688226L187.5676495659722,60.78787900101055L187.8264980034722,51.55050501498309L188.0230310763889,56.05865079435435L188.19719453125,45.399350580844015L188.53433663194446,49.4220779734579L188.68932612847223,49.4220779734579L188.85390260416665,39.90545485236427L189.36520815972221,54.440908963030026L189.37000164930555,43.803030089898556L189.48824105902776,39.95909116484901L189.81899184027776,49.051319624889985L190.33349305555555,48.56006494790992L190.60991762152779,57.754870403896675L190.68821128472223,46.261363636363626L190.69620043402776,61.59801136363636L191.75396380208332,55.24545460939407L191.89457282986112,43.55642619999972L192.1038885416667,61.117224796251804L192.60720494791664,52.98902834545483L192.62797673611112,51.43344148993492L192.78935755208335,49.051319624889985L192.7957488715278,49.1347402683036L193.06578211805555,60.62824661623348L193.43328298611112,51.156946749849766L193.4940005208333,58.46363623575732L194.12833897569445,50.12937063859269L194.22420876736112,47.3787878721275L194.34244817708333,33.52272695302963L194.36321996527778,42.313131508502096L194.7099490451389,38.50324661623347L194.93684088541664,43.83385581590912L195.10141736111112,53.07177025079727L195.25800468749998,47.974747472527355L195.7501362847222,42.16927907954562L196.05532178819445,44.94357356022704L196.09846319444443,58.53761778636411L196.3253550347222,55.20846383409068L196.65291015625,47.199999944052905L196.72960598958335,45.11201305551961L197.14344392361113,54.760997113856405L197.47898819444444,55.763323065909475L197.56686883680555,59.6704542257569L197.7777823784722,52.71159872954543L198.3801642361111,52.04403409090909L198.38495772569445,47.468181806193144L198.42809913194444,59.69208177111365L198.57829513888888,41.376623308116734L198.64700182291665,53.10000019181858L198.96337213541665,49.93730412897739L199.14073125000002,49.10501570085232L199.25257934027778,50.28409090909091L199.27814461805556,46.83603892678565L199.64404765625002,59.103146926923245L200.10741831597224,50.3585858141834L200.25282083333335,48.56006494790992L200.78969166666667,58.39442809061572L200.91911588541666,46.885579912499935L200.94787682291667,48.55015673877841L200.95426814236112,47.69805192236197L201.02457265625,46.395454537462115L201.12044244791667,46.41608390686187L201.16038819444444,43.74715909090909L201.72122647569444,51.49090913886373L201.79312881944446,33.25454539060593L201.9321400173611,44.547979860143215L202.38272803819444,44.51818180219695L202.45303255208333,49.27840909090909L202.5473045138889,53.6851240802895L202.61281553819447,55.763323065909475L202.84130520833335,46.1066432459788L203.26792578125,42.56305002353409L203.38616519097224,42.10454558242452L203.44688272569442,51.54119318181817L203.66258975694444,39.44868013533679L203.74887256944444,47.73636360839009L203.91824253472222,47.96328670175916L204.09400381944445,39.07792166688225L204.27935208333335,54.828282757238895L204.34326527777776,56.61616143855181L204.3880045138889,49.6598746329546L204.4886677951389,50.90830718522723L204.53340703125,38.71875L204.6148963541667,57.65909058939327L204.91688619791668,40.74633429538119L205.1501693576389,42.9090907492421L205.1965064236111,48.56006494790992L205.2076912326389,53.93434341658245L205.95068211805557,47.344405589794576L205.96666041666666,47.344405589794576L205.99062786458333,55.74350628798659L206.52749869791666,48.01319648867303L206.55466180555555,52.965908931060284L206.80232543402778,46.06980520622298L207.1890002604167,44.25L207.69071883680556,30.01573367552325L207.90323020833333,48.827586204829544L208.04543706597224,44.69696967032823L208.4305140625,47.12337657199666L208.50081857638887,42.10454558242452L208.6590037326389,49.10501570085232L208.73569956597223,47.98538959754461L208.94181961805555,48.27272727272728L209.22463550347223,48.27272727272728L209.34287491319446,43.78583930839193L209.35405972222222,48.00454544055867L209.5921363715278,43.940559219230295L209.75990850694444,56.914141058921814L210.04911571180557,32.80069974335757L210.2025073784722,58.32954545454547L210.67706284722223,39.95909116484901L211.04136805555555,49.99675326387991L211.0461615451389,51.67657346346162L211.3801079861111,48.89160841466352L211.40727109374998,47.30727274885231L211.6820978298611,36.94949498501691L211.79873940972223,45.97402587126601L211.86105477430556,44.53733776509762L212.12309887152776,40.801948257467956L212.1806207465278,47.69805192236197L212.2429361111111,43.38798694448039L212.48740407986114,53.73214265162294L212.60404565972223,51.879310361363665L212.64239357638888,55.352727234363556L212.71589375000002,38.56269599090922L212.79578524305555,44.82467529042199L212.93160078124998,46.196481000293375L213.43331935763888,47.344405589794576L213.4476998263889,45.48776216398585L213.5212,41.33699071136388L213.6090806423611,45.29292939061469L213.8966900173611,45.888888871127904L214.268984375,58.32954545454547L214.71158324652777,52.456363482908756L215.23247578125,52.425219817595035L215.4753459201389,52.44444435563955L215.65590069444443,55.51363617181778L216.1959671875,53.82131671363656L216.35734800347223,37.84343480521983L216.75360980902778,34.03846190734342L217.04281701388888,48.27272727272728L217.1131215277778,50.3585858141834L217.42629618055554,44.53733776509762L217.58448133680557,39.94984359090978L217.72668819444445,54.53030313686892L217.73467734375,40.846153809265644L217.93600390625002,53.93434341658245L218.55276623263887,44.379765511913746L218.75249496527778,45.37636352127248L218.96340850694446,56.31818181818183L218.97938680555558,33.90584429285744L219.0528869791667,32.45924731818113L219.22065911458333,47.468181806193144L219.62331223958336,39.65259767662394L219.83901927083332,41.56818197803065L220.22888975694443,53.22377640821718L220.26883550347222,43.74715909090909L220.28960729166667,46.395454537462115L220.32955303819446,44.51818180219695L221.0853265625,36.94949498501691L221.83470876736112,51.057692381468684L222.31086206597223,42.52597388896075L222.8269611111111,53.46334295381199L222.91963524305555,39.07792166688225L223.13534227430554,46.41608390686187L223.57314765625,43.55642619999972L223.75050677083334,49.99675326387991L223.89271362847222,37.73040762272748L224.047703125,33.25454539060593L224.39922569444445,38.15102645483884L224.52225859375,46.33072104034099L224.57179131944443,35.757575544443995L224.59256310763888,44.82467529042199L224.87218333333334,35.953125L225.6311525173611,52.15673973749985L225.7893376736111,39.672413495453924L225.86603350694446,46.97507335245609L226.00664253472223,47.08080807192758L226.4668175347222,43.207070849158555L226.8534923611111,43.71363639560613L227.17625399305555,39.55681786212054L227.4398959201389,46.0532915443182L227.68915737847223,41.774475672028274L227.8617230034722,38.43939404595983L227.9751689236111,52.965908931060284L228.29633272569444,48.27272727272728L228.60950737847222,52.742424455556005L228.92587769097221,47.65384613079104L229.21668272569443,52.008116780356914L229.32533515625,49.27840909090909L229.60495538194445,46.87351776049897L229.7839123263889,37.428853463042856L229.914934375,42.3933567540212L229.98683671875,37.92857156558469L230.18336979166668,42.822580567815095L230.38309852430555,41.4650348912586L230.7074579861111,40.22727272727272L230.8656431423611,49.88181820579551L231.00145868055554,41.484375L231.21077439236112,37.442307618531316L231.30025286458334,39.94984359090978L231.96654791666666,31.28787836161527L232.06401553819444,41.56818197803065L232.2765269097222,37.75174839930102L232.52578836805554,33.618506767533034L232.67278871527776,50.15000000799243L232.7207236111111,45.22100317613646L232.82937604166668,41.376623308116734L233.08662664930554,40.52525234764272L233.3646490451389,42.99289772727272L233.45892100694445,39.92929310690272L233.63787795138887,46.885579912499935L233.92708515625,38.886363956061274L234.07887899305555,42.99289772727272L234.0980529513889,45.59090901098469L234.81547855902778,41.66396083344114L234.88098958333333,31.31980464675209L235.04237039930555,52.008116780356914L235.14463151041667,56.96181852709164L235.3635342013889,46.173913064328104L235.38909947916667,42.08391597325152L235.51213237847224,26.818181178786546L235.5504802951389,37.45297848636454L235.92117682291666,39.26181814345446L236.18481875,47.69805192236197L236.25352543402778,26.901988636363626L236.35259088541665,42.313131508502096L236.72808090277778,40.22727272727272L237.48065876736112,42.702797055244446L237.56853940972223,49.99675326387991L237.66600703125002,43.55642619999972L237.83537699652777,31.476077329028726L237.97758385416668,48.27272727272728L238.3291064236111,46.341818224977374L238.44574800347223,46.720095742155195L238.48569375000002,38.296363559636205L238.73495520833333,49.88181820579551L239.24945642361112,43.08211159164256L239.31177178819445,36.740909538485795L239.66009869791668,36.513986235315144L239.84704479166666,33.47947186231613L240.16820859375,36.33431072668597L240.27366536458334,40.49545476924288L240.42066571180558,40.22727272727272L240.56447039930555,39.92929310690272L241.0725802951389,37.27727266333321L241.15247178819442,37.92857156558469L241.22916762152778,44.69696967032823L241.25952638888887,29.797979300672353L241.35060269097224,36.06583088636398L241.77402760416666,31.072099718180567L241.91303880208332,38.007836759090424L242.05844131944446,33.618506767533034L242.50902934027778,33.33116924220866L242.59371432291667,44.379765511913746L242.67680147569445,43.00156744772738L242.73272552083333,38.73737366632983L243.22325928819447,42.238636363636374L243.46453159722222,37.17554839090869L243.53643394097222,37.92857156558469L243.57158619791667,45.59090901098469L243.79847803819445,46.931818141855985L243.93109791666666,47.468181806193144L244.05732647569442,38.007836759090424L244.33055538194444,43.27899706363678L244.352925,44.69696967032823L244.5989907986111,38.14141442558983L244.73640416666666,54.17272740060632L244.88500234375002,38.61818143454465L245.16462256944445,41.61441984772682L245.4218731770833,34.48051934350622L245.9651353298611,38.72727249969137L246.01307022569443,38.886363956061274L246.10095086805555,35.55571813475001L246.6825609375,33.01410654999992L246.93661588541667,33.90584429285744L247.65244366319445,43.27899706363678L248.09983602430555,33.84639491818169L248.51527178819444,37.1129033186219L248.5823806423611,42.52597388896075L249.26305616319442,47.65384613079104L249.3541324652778,42.801818124272614L249.35892595486112,36.49188297986984L249.47716536458333,39.239234382456004L250.0603732638889,33.96969686313108L250.20417795138889,50.37154148112644L250.24252586805554,43.44545435363597L250.8544947048611,51.057692381468684L251.01427769097222,39.3333329070698L251.47125703125,30.74512959610331L251.78443168402777,46.83603892678565L251.84195355902776,48.54090910489586L251.89787760416667,38.680069782517165L252.54020520833333,19.538961312987595L252.7399339409722,32.718182265758514L253.1361957465278,36.33431072668597L253.33432664930555,31.88383760235527L253.43818559027778,32.44999974424189L253.48771831597224,34.19318181818181L253.59956640625,36.20454545454547L253.63471866319443,39.672413495453924L254.27065494791665,45.32272720878774L254.31219852430553,36.45596590909091L254.46878585069445,56.31818181818183L254.80912361111112,47.573122516613125L254.81551493055554,39.44868013533679L254.98009140624998,48.94318183816293L254.98967838541665,33.57430025664243L255.07276553819443,34.12382405454463L255.14466788194446,40.94561702013016L255.30604869791668,36.89811925454572L255.86688697916668,40.50470234318212L256.1337245659722,44.868881081992924L256.6226605034722,31.60714313116941L256.9741830729167,39.07792166688225L257.69160868055553,24.423702120780945L257.7155761284722,31.60714313116941L257.7715001736111,43.44545435363597L257.7810871527778,38.28526685454628L258.4042407986111,32.46915570714256L258.4809366319444,42.446708695455044L259.00182916666665,29.797979300672353L259.14563385416665,25.896306818181813L259.29103637152775,32.96041077375412L259.2926342013889,33.29153568636286L259.366134375,30.421875L259.50354774305555,27.153409090909093L259.9030052083333,46.0532915443182L260.6060503472222,38.84012512727216L260.6843440104167,28.297806436365306L260.78181163194444,46.261363636363626L260.92721414930554,32.44999974424189L261.03426874999997,40.22727272727272" style="fill: none;" fill="none"></path></g></g></g></g></g></g><g transform="translate(42, 177)" clip-path="url(#clip_1)"><clipPath id="clip_1"><rect width="287" height="23"></rect></clipPath><g><g><line x1="0" y1="0" x2="0" y2="5" style="visibility: inherit;" fill="rgb(0, 0, 0)" stroke="rgb(204, 204, 204)" stroke-width="1px"></line><line x1="31.95659722222222" y1="0" x2="31.95659722222222" y2="5" style="visibility: inherit;" fill="rgb(0, 0, 0)" stroke="rgb(204, 204, 204)" stroke-width="1px"></line><line x1="63.91319444444444" y1="0" x2="63.91319444444444" y2="5" style="visibility: inherit;" fill="rgb(0, 0, 0)" stroke="rgb(204, 204, 204)" stroke-width="1px"></line><line x1="95.86979166666666" y1="0" x2="95.86979166666666" y2="5" style="visibility: inherit;" fill="rgb(0, 0, 0)" stroke="rgb(204, 204, 204)" stroke-width="1px"></line><line x1="127.82638888888889" y1="0" x2="127.82638888888889" y2="5" style="visibility: inherit;" fill="rgb(0, 0, 0)" stroke="rgb(204, 204, 204)" stroke-width="1px"></line><line x1="159.78298611111111" y1="0" x2="159.78298611111111" y2="5" style="visibility: inherit;" fill="rgb(0, 0, 0)" stroke="rgb(204, 204, 204)" stroke-width="1px"></line><line x1="191.73958333333331" y1="0" x2="191.73958333333331" y2="5" style="visibility: inherit;" fill="rgb(0, 0, 0)" stroke="rgb(204, 204, 204)" stroke-width="1px"></line><line x1="223.69618055555557" y1="0" x2="223.69618055555557" y2="5" style="visibility: inherit;" fill="rgb(0, 0, 0)" stroke="rgb(204, 204, 204)" stroke-width="1px"></line><line x1="255.65277777777777" y1="0" x2="255.65277777777777" y2="5" style="visibility: inherit;" fill="rgb(0, 0, 0)" stroke="rgb(204, 204, 204)" stroke-width="1px"></line><line x1="287.609375" y1="0" x2="287.609375" y2="5" style="visibility: inherit;" fill="rgb(0, 0, 0)" stroke="rgb(204, 204, 204)" stroke-width="1px"></line></g><g transform="translate(0, 8)"><text x="0" y="0" dx="0em" dy="0.95em" style="text-anchor: middle; visibility: hidden; font-family: &quot;Helvetica Neue&quot;, sans-serif; font-size: 12px; font-weight: 200;" fill="rgb(50, 49, 63)" stroke="none" stroke-width="1px">-20k</text><text x="31.95659722222222" y="0" dx="0em" dy="0.95em" style="text-anchor: middle; visibility: inherit; font-family: &quot;Helvetica Neue&quot;, sans-serif; font-size: 12px; font-weight: 200;" fill="rgb(50, 49, 63)" stroke="none" stroke-width="1px">0</text><text x="63.91319444444444" y="0" dx="0em" dy="0.95em" style="text-anchor: middle; visibility: inherit; font-family: &quot;Helvetica Neue&quot;, sans-serif; font-size: 12px; font-weight: 200;" fill="rgb(50, 49, 63)" stroke="none" stroke-width="1px">20k</text><text x="95.86979166666666" y="0" dx="0em" dy="0.95em" style="text-anchor: middle; visibility: inherit; font-family: &quot;Helvetica Neue&quot;, sans-serif; font-size: 12px; font-weight: 200;" fill="rgb(50, 49, 63)" stroke="none" stroke-width="1px">40k</text><text x="127.82638888888889" y="0" dx="0em" dy="0.95em" style="text-anchor: middle; visibility: inherit; font-family: &quot;Helvetica Neue&quot;, sans-serif; font-size: 12px; font-weight: 200;" fill="rgb(50, 49, 63)" stroke="none" stroke-width="1px">60k</text><text x="159.78298611111111" y="0" dx="0em" dy="0.95em" style="text-anchor: middle; visibility: inherit; font-family: &quot;Helvetica Neue&quot;, sans-serif; font-size: 12px; font-weight: 200;" fill="rgb(50, 49, 63)" stroke="none" stroke-width="1px">80k</text><text x="191.73958333333331" y="0" dx="0em" dy="0.95em" style="text-anchor: middle; visibility: inherit; font-family: &quot;Helvetica Neue&quot;, sans-serif; font-size: 12px; font-weight: 200;" fill="rgb(50, 49, 63)" stroke="none" stroke-width="1px">100k</text><text x="223.69618055555557" y="0" dx="0em" dy="0.95em" style="text-anchor: middle; visibility: inherit; font-family: &quot;Helvetica Neue&quot;, sans-serif; font-size: 12px; font-weight: 200;" fill="rgb(50, 49, 63)" stroke="none" stroke-width="1px">120k</text><text x="255.65277777777777" y="0" dx="0em" dy="0.95em" style="text-anchor: middle; visibility: inherit; font-family: &quot;Helvetica Neue&quot;, sans-serif; font-size: 12px; font-weight: 200;" fill="rgb(50, 49, 63)" stroke="none" stroke-width="1px">140k</text><text x="287.609375" y="0" dx="0em" dy="0.95em" style="text-anchor: middle; visibility: hidden; font-family: &quot;Helvetica Neue&quot;, sans-serif; font-size: 12px; font-weight: 200;" fill="rgb(50, 49, 63)" stroke="none" stroke-width="1px">160k</text></g><line x1="0" y1="0" x2="287.609375" y2="0" fill="rgb(0, 0, 0)" stroke="rgb(204, 204, 204)" stroke-width="1px"></line></g></g></g></g></svg>