<svg viewBox="0 0 330 200" xmlns="http://www.w3.org/2000/svg"><g><g><g><g><g><line x1="74.78125" y1="177" x2="69.78125" y2="177" style="visibility: inherit;" fill="rgb(0, 0, 0)" stroke="rgb(204, 204, 204)" stroke-width="1px"></line><line x1="74.78125" y1="157.33333333333334" x2="69.78125" y2="157.33333333333334" style="visibility: inherit;" fill="rgb(0, 0, 0)" stroke="rgb(204, 204, 204)" stroke-width="1px"></line><line x1="74.78125" y1="137.66666666666669" x2="69.78125" y2="137.66666666666669" style="visibility: inherit;" fill="rgb(0, 0, 0)" stroke="rgb(204, 204, 204)" stroke-width="1px"></line><line x1="74.78125" y1="118" x2="69.78125" y2="118" style="visibility: inherit;" fill="rgb(0, 0, 0)" stroke="rgb(204, 204, 204)" stroke-width="1px"></line><line x1="74.78125" y1="98.33333333333334" x2="69.78125" y2="98.33333333333334" style="visibility: inherit;" fill="rgb(0, 0, 0)" stroke="rgb(204, 204, 204)" stroke-width="1px"></line><line x1="74.78125" y1="78.66666666666666" x2="69.78125" y2="78.66666666666666" style="visibility: inherit;" fill="rgb(0, 0, 0)" stroke="rgb(204, 204, 204)" stroke-width="1px"></line><line x1="74.78125" y1="59" x2="69.78125" y2="59" style="visibility: inherit;" fill="rgb(0, 0, 0)" stroke="rgb(204, 204, 204)" stroke-width="1px"></line><line x1="74.78125" y1="39.33333333333334" x2="69.78125" y2="39.33333333333334" style="visibility: inherit;" fill="rgb(0, 0, 0)" stroke="rgb(204, 204, 204)" stroke-width="1px"></line><line x1="74.78125" y1="19.666666666666686" x2="69.78125" y2="19.666666666666686" style="visibility: inherit;" fill="rgb(0, 0, 0)" stroke="rgb(204, 204, 204)" stroke-width="1px"></line><line x1="74.78125" y1="0" x2="69.78125" y2="0" style="visibility: inherit;" fill="rgb(0, 0, 0)" stroke="rgb(204, 204, 204)" stroke-width="1px"></line></g><g transform="translate(64.78125, 0)"><text x="0" y="177" dx="0em" dy="0.3em" style="text-anchor: end; visibility: hidden; font-family: &quot;Helvetica Neue&quot;, sans-serif; font-size: 12px; font-weight: 200;" fill="rgb(50, 49, 63)" stroke="none" stroke-width="1px">-2e+3</text><text x="0" y="157.33333333333334" dx="0em" dy="0.3em" style="text-anchor: end; visibility: inherit; font-family: &quot;Helvetica Neue&quot;, sans-serif; font-size: 12px; font-weight: 200;" fill="rgb(50, 49, 63)" stroke="none" stroke-width="1px">0</text><text x="0" y="137.66666666666669" dx="0em" dy="0.3em" style="text-anchor: end; visibility: hidden; font-family: &quot;Helvetica Neue&quot;, sans-serif; font-size: 12px; font-weight: 200;" fill="rgb(50, 49, 63)" stroke="none" stroke-width="1px">2e+3</text><text x="0" y="118" dx="0em" dy="0.3em" style="text-anchor: end; visibility: inherit; font-family: &quot;Helvetica Neue&quot;, sans-serif; font-size: 12px; font-weight: 200;" fill="rgb(50, 49, 63)" stroke="none" stroke-width="1px">4e+3</text><text x="0" y="98.33333333333334" dx="0em" dy="0.3em" style="text-anchor: end; visibility: hidden; font-family: &quot;Helvetica Neue&quot;, sans-serif; font-size: 12px; font-weight: 200;" fill="rgb(50, 49, 63)" stroke="none" stroke-width="1px">6e+3</text><text x="0" y="78.66666666666666" dx="0em" dy="0.3em" style="text-anchor: end; visibility: inherit; font-family: &quot;Helvetica Neue&quot;, sans-serif; font-size: 12px; font-weight: 200;" fill="rgb(50, 49, 63)" stroke="none" stroke-width="1px">8e+3</text><text x="0" y="59" dx="0em" dy="0.3em" style="text-anchor: end; visibility: hidden; font-family: &quot;Helvetica Neue&quot;, sans-serif; font-size: 12px; font-weight: 200;" fill="rgb(50, 49, 63)" stroke="none" stroke-width="1px">1e+4</text><text x="0" y="39.33333333333334" dx="0em" dy="0.3em" style="text-anchor: end; visibility: inherit; font-family: &quot;Helvetica Neue&quot;, sans-serif; font-size: 12px; font-weight: 200;" fill="rgb(50, 49, 63)" stroke="none" stroke-width="1px">1.2e+4</text><text x="0" y="19.666666666666686" dx="0em" dy="0.3em" style="text-anchor: end; visibility: hidden; font-family: &quot;Helvetica Neue&quot;, sans-serif; font-size: 12px; font-weight: 200;" fill="rgb(50, 49, 63)" stroke="none" stroke-width="1px">1.4e+4</text><text x="0" y="0" dx="0em" dy="0.3em" style="text-anchor: end; visibility: hidden; font-family: &quot;Helvetica Neue&quot;, sans-serif; font-size: 12px; font-weight: 200;" fill="rgb(50, 49, 63)" stroke="none" stroke-width="1px">1.6e+4</text></g><line x1="74.78125" y1="0" x2="74.78125" y2="177" fill="rgb(0, 0, 0)" stroke="rgb(204, 204, 204)" stroke-width="1px"></line></g></g><g transform="translate(74, 0)" clip-path="url(#clip_0)"><clipPath id="clip_0"><rect width="255" height="177"></rect></clipPath><g><g><g><line x1="0" y1="0" x2="0" y2="177" fill="rgb(0, 0, 0)" stroke="rgb(60, 60, 60)" stroke-width="1px" opacity="0.25"></line><line x1="28.357638888888886" y1="0" x2="28.357638888888886" y2="177" fill="rgb(0, 0, 0)" stroke="rgb(60, 60, 60)" stroke-width="1px" opacity="0.25"></line><line x1="56.71527777777777" y1="0" x2="56.71527777777777" y2="177" fill="rgb(0, 0, 0)" stroke="rgb(60, 60, 60)" stroke-width="1px" opacity="0.25"></line><line x1="85.07291666666666" y1="0" x2="85.07291666666666" y2="177" fill="rgb(0, 0, 0)" stroke="rgb(60, 60, 60)" stroke-width="1px" opacity="0.25"></line><line x1="113.43055555555554" y1="0" x2="113.43055555555554" y2="177" fill="rgb(0, 0, 0)" stroke="rgb(60, 60, 60)" stroke-width="1px" opacity="0.25"></line><line x1="141.78819444444446" y1="0" x2="141.78819444444446" y2="177" fill="rgb(0, 0, 0)" stroke="rgb(60, 60, 60)" stroke-width="1px" opacity="0.25"></line><line x1="170.14583333333331" y1="0" x2="170.14583333333331" y2="177" fill="rgb(0, 0, 0)" stroke="rgb(60, 60, 60)" stroke-width="1px" opacity="0.25"></line><line x1="198.50347222222223" y1="0" x2="198.50347222222223" y2="177" fill="rgb(0, 0, 0)" stroke="rgb(60, 60, 60)" stroke-width="1px" opacity="0.25"></line><line x1="226.8611111111111" y1="0" x2="226.8611111111111" y2="177" fill="rgb(0, 0, 0)" stroke="rgb(60, 60, 60)" stroke-width="1px" opacity="0.25"></line><line x1="255.21875" y1="0" x2="255.21875" y2="177" fill="rgb(0, 0, 0)" stroke="rgb(60, 60, 60)" stroke-width="1px" opacity="0.25"></line></g><g><line x1="0" y1="177" x2="255.21875" y2="177" fill="rgb(0, 0, 0)" stroke="rgb(60, 60, 60)" stroke-width="1px" opacity="0.25"></line><line x1="0" y1="157.33333333333334" x2="255.21875" y2="157.33333333333334" fill="rgb(0, 0, 0)" stroke="rgb(60, 60, 60)" stroke-width="1px" opacity="0.25"></line><line x1="0" y1="137.66666666666669" x2="255.21875" y2="137.66666666666669" fill="rgb(0, 0, 0)" stroke="rgb(60, 60, 60)" stroke-width="1px" opacity="0.25"></line><line x1="0" y1="118" x2="255.21875" y2="118" fill="rgb(0, 0, 0)" stroke="rgb(60, 60, 60)" stroke-width="1px" opacity="0.25"></line><line x1="0" y1="98.33333333333334" x2="255.21875" y2="98.33333333333334" fill="rgb(0, 0, 0)" stroke="rgb(60, 60, 60)" stroke-width="1px" opacity="0.25"></line><line x1="0" y1="78.66666666666666" x2="255.21875" y2="78.66666666666666" fill="rgb(0, 0, 0)" stroke="rgb(60, 60, 60)" stroke-width="1px" opacity="0.25"></line><line x1="0" y1="59" x2="255.21875" y2="59" fill="rgb(0, 0, 0)" stroke="rgb(60, 60, 60)" stroke-width="1px" opacity="0.25"></line><line x1="0" y1="39.33333333333334" x2="255.21875" y2="39.33333333333334" fill="rgb(0, 0, 0)" stroke="rgb(60, 60, 60)" stroke-width="1px" opacity="0.25"></line><line x1="0" y1="19.666666666666686" x2="255.21875" y2="19.666666666666686" fill="rgb(0, 0, 0)" stroke="rgb(60, 60, 60)" stroke-width="1px" opacity="0.25"></line><line x1="0" y1="0" x2="255.21875" y2="0" fill="rgb(0, 0, 0)" stroke="rgb(60, 60, 60)" stroke-width="1px" opacity="0.25"></line></g></g></g><g><g><line x1="0" y1="157.33333333333334" x2="255.21875" y2="157.33333333333334" fill="rgb(0, 0, 0)" stroke="rgb(153, 153, 153)" stroke-width="1.5px"></line></g></g><g><g><line x1="28.357638888888886" y1="0" x2="28.357638888888886" y2="177" fill="rgb(0, 0, 0)" stroke="rgb(153, 153, 153)" stroke-width="1.5px"></line></g></g><g><g><g><g><g><path stroke="rgb(255, 112, 67)" stroke-width="2px" d="M28.595843055555555,156.7324074115753L28.636961631944445,156.65886754457156L28.713527256944445,156.63506889796093L28.802853819444444,156.63115970772154L28.821286284722223,156.64389679301914L28.889344618055556,156.61579623300227L28.89501614583333,156.60758110204472L28.90068767361111,156.65017638142544L28.950313541666667,156.6140272517757L29.189935590277777,156.5797240762112L29.242397222222223,156.58619124174623L29.269336979166667,156.5990153904289L29.31896284722222,156.58133059112953L29.324634375000002,156.54496032532643L29.39836423611111,156.60315741398045L29.65925451388889,156.55807220125772L29.67910486111111,156.58547295878753L29.681940625,156.6442527095716L29.69895520833333,156.5870609519868L29.718805555555555,156.61326318175466L29.83223611111111,156.66529238374818L29.852086458333332,156.61481577996636L29.910219618055557,156.60722274134864L29.91447326388889,156.63544489965062L29.968352777777778,156.62615579226707L29.993874652777777,156.6064626586863L30.002381944444444,156.62490326665312L30.00379982638889,156.49527521372136L30.16685625,156.54252228421146L30.311480208333336,156.6097356126097L30.427746527777774,156.571396908033L30.453268402777777,156.6057548142209L30.606399652777778,156.5596433582341L30.75811302083333,156.6366951121493L30.81482829861111,156.64844565178115L30.827589236111113,156.5762673903242L31.074300694444446,156.60594562623203L31.189149131944443,156.59534516348063L31.238775,156.60537376477737L31.36922013888889,156.5494987827175L31.390488368055557,156.50247705737357L31.49824739583333,156.52577195729504L31.526605034722223,156.49686667524352L31.66555746527778,156.57268140550917L31.681154166666666,156.52899345176044L31.735033680555553,156.51997181771912L31.76480920138889,156.48148309063004L31.804509895833334,156.4387231877104L32.034206770833336,156.47971538743963L32.14054791666667,156.50478574898415L32.211442013888885,156.50842699494308L32.22987447916667,156.51585619696587L32.31069375,156.46524705151276L32.4510640625,156.42701489757428L32.47233229166667,156.4699589385446L32.530465451388885,156.44382722164727L32.69919340277778,156.42989633298836L32.734640451388884,156.50521052979383L32.74314774305555,156.51120324557L32.83956371527778,156.46128985302232L32.85657829861111,156.46215852027288L32.86083194444445,156.40418399104962L32.880682291666666,156.41164620599045L32.97851614583333,156.51809884470836L33.02814201388889,156.4351259734917L33.246495833333334,156.4642898612353L33.35141909722223,156.3857961289604L33.35992638888889,156.36328322292883L33.361344270833335,156.33527761452308L33.50880399305555,156.36829301066942L33.77536579861111,156.30998816652942L33.802305555555556,156.294526233251L33.888796354166665,156.28958929799504L34.03909184027778,156.23237428293928L34.13834357638889,156.19465444240353L34.15252239583333,156.16210130852886L34.1865515625,156.16442128672458L34.239013194444446,156.2246051615611L34.49848559027778,156.23262023550683L34.61758767361111,156.1439399615352L34.688481770833334,156.09313815498103L34.86288125,156.1344245596553L34.87706006944445,156.0793005691265L34.87989583333333,156.04710417672166L34.98198333333333,156.112950006033L35.02168402777777,156.05946396317384L35.06138472222222,155.99212280234278L35.213098090277775,156.07381534807234L35.35772204861111,156.0552267088434L35.53070364583333,155.91302851391282L35.54204670138889,155.95875460834768L35.654059374999996,155.87417747102262L35.65831302083333,155.8678398159469L35.7689078125,155.9401662725841L35.78308663194444,155.9581857966722L35.899352951388884,155.8936614780033L35.923456944444446,155.7873427201353L36.062409375,155.7358431320812L36.090767013888886,155.75674399163478L36.20845121527778,155.7605047283142L36.215540625,155.7361953255953L36.22121215277778,155.63913656181225L36.404118923611115,155.622336103754L36.419715624999995,155.5753808289191L36.44381961805556,155.54720766401812L36.51896736111111,155.6145611594867L36.78127552083333,155.67519502902536L36.856423263888885,155.60095035074855L36.91881006944445,155.51338271044912L36.94433194444444,155.53716941508785L36.94716770833333,155.4935516490527L37.08044861111111,155.5125825732939L37.142835416666664,155.51567454397636L37.30872760416667,155.44992555971913L37.42499392361111,155.55183033583148L37.48738072916667,155.51463986816557L37.54976753472222,155.51690892089934L37.58805034722222,155.50597868587295L37.71565972222223,155.48098304485708L37.76812135416667,155.46598566024758L37.78371805555556,155.43240389614854L37.82483663194444,155.4798590043558L37.94961024305555,155.48533476906857L37.99640034722222,155.4009925281078L38.06871232638889,155.41184551686467L38.13251701388889,155.3814823101188L38.14811371527778,155.2895143860713L38.701087673611106,155.25277113164276L38.824443402777774,155.19385017898566L38.86272621527778,155.13391427405807L39.061229687499996,155.14711939776817L39.13070590277778,155.1304591386609L39.20727152777778,155.04671298319653L39.351895486111104,154.9595902899179L39.42987899305555,155.01179584061742L39.95024166666666,154.9632233377038L40.01262847222222,154.85418400262228L40.015464236111114,154.93011456824001L40.11896961805555,154.84046457427735L40.379859895833334,154.6883412445664L40.72865885416667,154.54175474673985L40.74709131944444,154.43536534804392L41.03066770833333,154.34080254215968L41.08880086805556,154.22260652529582L41.307154687499995,154.2807514151775L41.383720312499996,154.30334668243984L41.51700121527778,154.09565384279722L41.586477430555554,154.00791313901166L42.138033506944446,153.875372883407L42.21318125,153.8511612300442L42.25429982638889,153.9656967380265L42.35922309027777,153.78243887614926L42.584666319444445,153.64790082568953L42.746304861111106,153.7454071620804L43.14189392361111,153.68099429724825L43.32480069444444,153.55015907834894L43.429723958333334,153.60072044700937L43.700539409722225,153.63720310153894L43.77852291666667,153.6406551942567L44.0124734375,153.61814311655402L44.16985833333334,153.69682336993242L44.549850694444444,153.5842398552928L44.5739546875,153.682627246509L44.59664079861111,153.74165968123873L44.62216267361111,153.7094749754099L44.789472743055555,153.6348516519126L44.84760590277778,153.82976515781422L44.87879930555555,153.8176507613552L45.00357291666667,153.74277795681311L45.237523437499995,153.66097927408788L45.25312013888889,153.72867089778606L45.40483350694445,154.05814003867164L45.465802430555556,153.83175902320298L45.713931770833334,153.7143679139218L45.82169079861111,153.80987074835306L45.96631475694444,153.7688391156785L46.08258107638889,153.78109513607376L46.12795329861111,153.84990708164426L46.34063559027778,153.9157775823199L46.795775694444444,153.91227904939194L46.79719357638889,154.0269507629685L46.876594965277775,154.0342954577811L46.903534722222226,153.88505644133534L47.042487152777774,154.01676303146786L47.0495765625,153.94214115221405L47.05383020833334,154.00184719132844L47.069426909722225,153.92089998146372L47.11621701388889,154.06285248887824L47.16867864583333,154.1418781599936L47.1771859375,154.09096022932948L47.389868229166666,153.94978447093104L47.41113645833333,154.07403734922528L47.680534027777774,153.98879740953518L47.991050173611114,153.9192159457211L48.16828541666667,153.84059206743265L48.366788888888884,153.81661333982484L48.4915625,153.6960617538949L48.73685607638889,153.6452412190036L48.91550920138889,153.62089473140216L48.922598611111106,153.76607850550798L49.04879010416667,153.63193876997144L49.23595052083333,153.61291326198287L49.81444635416666,153.72441462385638L50.09235121527777,153.6438154409805L50.14339496527778,153.46024759792164L50.34615208333334,153.546773558753L50.3674203125,153.58025163525178L50.37450972222223,153.7539843144844L50.40712100694444,153.89509892202398L50.49644756944445,153.83841351988104L50.73465173611111,153.7490897785953L50.85800746527777,153.83070386715718L50.875022048611115,153.65227648696097L51.008302951388885,153.66813672550992L51.34292309027778,153.6960903686393L51.47053246527778,153.60838338785024L51.73851215277778,153.37753003271013L51.915747395833336,153.4787055196261L51.924254687499996,153.44722331177564L51.94835868055556,153.4375527370654L52.005073958333334,153.4163858089059L52.083057465277776,153.74170648534354L52.165294618055555,153.83241972453945L52.17805555555556,153.54882683472368L52.268800000000006,153.52002526750087L52.29148611111111,153.37982766050052L52.29715763888888,153.54154242963364L52.318425868055556,153.38044629111351L52.36521597222222,153.4435802746681L52.5367796875,153.6535439981342L52.54812274305555,153.6750430655472L52.92953298611111,153.6387758393283L53.079828472222225,153.6415988369303L53.39601614583333,153.72318846882484L53.48817847222222,153.63693391462826L53.57750503472222,153.59747284877693L53.62713090277777,153.82577537593284L53.75615815972222,153.8582777255597L53.93481128472222,153.70569580200248L54.11771805555556,153.73706331453482L54.21271614583333,153.6944254887209L54.22973072916667,153.73030112656588L54.2977890625,153.53057650927286L54.30062482638889,153.57667923889704L54.76143645833333,153.59819504333822L55.19530833333333,153.43287535933626L55.21941232638889,153.54878771560178L55.39239392361111,153.52614762936105L55.398065451388895,153.43881357761663L55.47746684027778,153.09141314656998L55.765296875,153.085785387942L55.78231145833333,153.00865873276518L55.82059427083333,153.1037369063258L55.83051944444445,153.16692964379547L55.843280381944446,153.12494945294395L55.977979166666664,153.23804258843305L56.08715607638889,153.3151172197265L56.498341840277774,153.14011199850256L56.66848767361111,153.2010463657682L56.71527777777777,153.04094031946093L56.80460434027778,153.03706419167656L57.167582118055556,153.18223851500593L57.292355729166665,153.2570514423369L57.324967013888894,153.24662669873547L57.334892187499996,153.36328851924128L57.499366493055554,153.35953561154477L57.67234809027777,153.46790886692685L57.67660173611111,153.3608494868228L57.79853958333334,153.161405525427L57.95167083333333,153.00486414858955L58.10905572916666,153.19364765582037L58.134577604166665,153.06108442682557L58.28345520833333,153.02149440609534L58.31039496527777,153.08685497699054L58.328827430555556,152.96013381952764L58.46777986111111,152.85337195838326L58.56136006944444,152.9859815083633L58.89881597222222,153.19460973835132L59.00373923611111,153.24603667634412L59.04769357638889,153.39366367247314L59.1086625,152.94755237015056L59.16821354166667,152.99946892209033L59.344030902777774,152.74791051992088L59.46596875,152.7874963119525L59.6829046875,152.84812278717152L59.698501388888886,152.8660611723029L59.92819826388889,152.57567837004842L60.04304670138889,152.64728202202903L60.172073958333335,152.4444108798841L60.31386215277777,152.35956319459711L60.35356284722222,152.5790712500916L60.381920486111106,152.82754691672164L60.61728888888889,152.5095489833663L60.79168836805555,152.36791689001979L60.984520312499995,152.22762513401187L61.258171527777776,152.31553341374047L61.37301996527778,152.3621325482443L61.56443402777778,152.66050869561323L61.83808524305556,152.4892218840346L62.05927482638889,152.10988729708743L62.427924131944444,152.29405737825246L62.494564583333336,152.4107052602848L62.535683159722225,152.32090232283755L62.73276875,152.00274972703588L62.910003993055554,151.8794623362215L63.04186701388888,152.12814615173292L63.274399652777774,152.12678352437308L63.31410034722222,152.0952367812905L63.34529375,152.08245456877432L63.44454548611111,151.98874357459792L63.667152951388886,151.89564197809207L63.67424236111111,151.88894768685526L63.80610538194444,152.00477486211315L63.932296875,151.88682325060122L64.23572361111111,151.76073978369408L64.65399878472222,151.88175637021644L64.697953125,151.9420746554632L64.7135498263889,151.87993229327793L64.72914652777779,151.92254270930007L64.92765,152.1201922922467L64.95458975694444,152.04826120868137L65.01130503472223,151.88833172520881L65.13466076388889,151.70018653512528L65.259434375,151.6303202544085L65.40831197916665,151.6928796526451L65.47778819444444,151.76729029158707L65.53733923611111,151.3817283416189L65.55010017361111,151.50684950497134L65.616740625,151.66181803631613L65.94710711805556,151.49667415512303L65.95986805555555,151.62498365974048L66.11867083333334,151.9539485291776L66.55396059027778,151.9423691175066L66.70425607638889,151.81250480383727L67.05163715277779,151.77760704896903L67.24163333333334,151.70135589604809L67.29834861111111,151.64331353762884L67.34939236111111,151.7928631225773L67.37349635416668,151.96248870687972L67.4259579861111,151.44968072412783L67.60461111111111,151.55376676781003L67.62729722222221,151.64694756068602L67.72654895833332,151.6475435364116L67.82438281249999,151.45738028851363L67.89244114583333,151.6259906731082L68.09661614583332,151.63496940386491L68.11079496527778,151.6342108089856L68.322059375,151.78125565205804L68.34049184027778,151.7281283912348L68.37877465277778,151.59791870140756L68.38444618055556,151.59968872084454L68.83107899305556,151.6130423991734L68.9317486111111,151.47970043950403L69.02816458333334,151.65782026370243L69.0650295138889,151.67865049155478L69.09338715277777,151.84479446159955L69.38830659722223,151.8154183436264L69.64068958333333,151.78550100617582L69.7158373263889,151.5463006037055L69.78814930555555,151.50111369555663L69.85478975694444,151.338793217334L69.955459375,151.28442176373372L70.01359253472222,151.1473197249069L70.25321458333333,151.28630850161082L70.3510484375,151.60938926763316L70.516940625,151.53896689391323L70.55522343749999,151.7241093030146L70.76365208333333,151.50946558180877L71.01036354166666,151.63880434908526L71.01887083333334,151.54432427611783L71.19894184027778,151.54294873233735L71.2797611111111,151.5052484060691L71.31237239583332,151.67929487697478L71.47542881944445,151.51945192618487L71.60729184027778,151.2883378223776L71.61012760416668,151.2602943600932L71.70228993055555,151.29263494938925L72.09646111111111,151.34276846963357L72.50339322916668,151.25607774844678L72.51190052083334,151.3761466490681L72.80965572916666,151.10402132277417L72.99965190972222,151.24189196033117L73.08472482638889,151.32461434286537L73.09606788194445,151.26976860571924L73.27330312500001,151.32904866343154L73.30024288194444,151.37076253139224L73.51150729166666,151.16839501883535L73.84612743055555,151.23749534463454L73.95530434027778,151.26666387344738L74.51253194444445,151.11208165740177L74.54088958333332,151.17297816110772L74.54656111111112,151.22180772999798L74.69543871527777,151.25725130466546L74.72946788194444,151.32153828279928L75.06125225694444,151.6612563030129L75.41572274305555,151.53321211514105L75.43415520833332,151.45638560241798L75.53057118055555,151.61310219478412L75.9913828125,151.88536131687047L76.19981145833333,151.88277929012227L76.35152482638888,152.0348759074067L76.45786597222222,151.9847797111107L76.60674357638888,151.9362844933331L76.61950451388888,151.5876040293332L76.94136371527777,151.7225624175999L76.97255711805556,151.84655828389327L77.06188368055555,151.7550183036693L77.13561354166667,151.5833234822016L77.22919375,151.6585357559876L77.32419184027778,151.66678812025924L77.39792170138888,152.05892703882222L78.04164010416667,151.39077288995998L78.0941017361111,151.51842206730933L78.10402690972222,151.33688657371894L78.38193177083333,151.25869444423137L78.44006493055555,151.42688333320547L78.48969079861111,151.13446333325663L78.74065590277777,151.17411549995398L78.81155000000001,151.15488596663906L78.9746064236111,151.2724107466501L79.55735590277779,151.27532144799005L79.80832100694445,151.24633870212736L79.96287013888889,151.21051155460975L79.98839201388888,151.29349443276584L80.17697031249999,151.11588832632617L80.24219288194445,150.88026216246237L80.45203940972222,150.65899063081076L80.65054288194445,150.6552902118198L80.85613576388889,150.72681996042522L80.92277621527778,150.6468211429218L80.94829809027779,150.5373635190864L81.09433993055555,150.63148061145185L81.185084375,150.7617008668711L81.33537986111112,150.70462468678932L81.44597465277778,150.8055873120736L81.46298923611111,150.34991488724415L81.593434375,150.29161559901317L81.74089409722222,150.4287193594079L81.79902725694444,150.1545232823114L81.85716041666666,150.19896396938685L81.87559288194444,150.2993783816321L81.950740625,150.17525202897926L82.03297777777777,150.1499428840542L82.7830373263889,150.2085073970992L82.96736197916667,150.40343777159285L83.28354965277778,150.30529182962238L83.33459340277777,150.11119593110675L83.47071006944444,149.87796755866407L83.77839045138889,149.81178053519844L83.94144687500001,149.41560998778573L84.07898142361111,149.34384515933812L84.20517291666667,149.71255709560288L84.38949756944444,149.5404509240284L84.43203402777779,149.6031247210837L84.57240434027779,148.98312483265022L84.99635104166667,148.98602073292346L85.07433454861112,148.9232270230874L85.11403524305555,148.9009153805191L85.26291284722221,149.01659089497812L85.26433072916667,149.1658920369869L85.2912704861111,149.0833893888588L85.70245625,148.66513779998195L85.76342517361111,148.29127017998917L86.3178170138889,148.09153294132682L86.37453229166665,148.27283643146276L86.50072378472223,148.46151435887765L86.84526909722223,148.55013778199327L87.28906614583335,148.41279100252927L87.37130329861112,147.99850793485092L87.57264253472222,147.9957714275772L87.667640625,147.883504523213L88.00367864583333,147.57645688059446L88.03203628472222,147.58889496169002L88.15539201388889,147.79917031034734L88.47583333333334,147.82085635287507L88.47866909722221,147.7724096450584L88.52120555555555,147.78636245370168L88.5254592013889,148.00983830555435L89.0841046875,148.21767381666595L89.1606703125,147.76466678999958L89.47969375000001,147.35150840733309L89.4924546875,147.2019467110665L89.66401840277777,146.8602305266399L89.6739435763889,147.2329091493173L90.449525,147.1983913229237L90.5742986111111,147.15924312708756L90.59273107638889,147.4184625429192L90.78839878472222,147.46336919241818L90.86780017361112,147.3059381821176L90.94153003472223,147.13772957593721L90.985484375,146.86472107889566L91.23786736111111,146.9528951473374L91.27473229166667,147.15944542173577L91.33570121527778,147.17889641970814L91.77808038194445,147.07994201849155L91.96665868055557,146.94067354442825L92.10986475694443,147.11523745999028L92.12404357638889,147.10320497599417L92.68694270833333,147.5200479855965L93.06409930555556,147.4014037913579L93.15059010416667,147.1028214414814L93.231409375,147.30471369822217L93.4965532986111,147.13699488559996L94.08072065972222,147.22688443136L94.34870034722222,147.10258899214932L94.38414739583334,147.10790756195627L94.6634701388889,146.90214037050708L94.74287152777778,147.0368050556376L94.9186888888889,147.06843720004923L95.22920503472223,147.39470815336287L95.26323420138888,147.03734572535106L95.40927604166667,146.85365743521064L95.51278142361112,146.8970902944597L95.81195451388888,146.86169167667583L97.20573246527778,146.96336917267217L97.23267222222223,146.87687567026995L97.32625243055556,146.69591706882863L97.4652048611111,146.78400857463052L97.61266458333334,146.898321811445L97.876390625,146.89315975353367L98.32444131944445,146.7487083521202L98.38682812500001,146.58214167793878L98.52010902777778,146.55595167342995L98.8207,146.51565433739128L98.89584774305555,146.49762176910144L98.99793524305555,146.6281563947942L99.09435121527778,146.6573105035432L99.44456805555556,146.77313630212592L99.51120850694444,146.86721511460888L99.68844375,146.90522490209867L100.25276076388889,146.7006349412592L100.61148489583333,146.63319346475552L100.67812534722222,146.67262441218665L101.29206822916666,146.79461631397865L101.29915763888889,146.95385312172053L102.51570034722222,147.01252020636565L102.94815434027778,146.71584545715274L102.96233315972222,146.8205489409583L103.33523611111112,146.68055853124164L103.38769774305555,146.78093928541165L103.63299131944444,146.50314690458032L103.78186892361111,146.56386730941486L103.82440538194444,146.94446621898226L103.82724114583333,146.68115889805603L104.19021892361111,146.8980703388336L104.4737953125,146.89300886996682L104.61841927083333,146.95757615531343L104.74602864583333,146.73204569318807L104.94453211805555,146.67662324924618L105.33161388888888,146.55732811621436L105.40392586805555,146.54106353639528L105.40676163194445,146.54974228850384L105.44929809027778,146.5057828731023L105.96966076388888,146.29503222386137L106.31562395833333,146.39597766765016L106.34256371527778,146.68394076725676L106.39644322916666,146.24828112702073L107.15075642361111,146.5584478428791L107.51373420138889,146.33892287239414L108.46087934027777,146.05970789010314L108.60975694444446,146.08884556739523L108.74161996527778,146.08174484043712L108.76997760416667,145.8193594042623L108.84512534722222,146.0183864758907L108.850796875,146.16853188553443L109.514365625,146.2340357979873L109.54555902777778,146.0029214787924L110.03189253472222,146.03633622060877L110.16659131944445,146.42513506569858L111.08963246527777,146.58466437275248L111.22858489583334,146.4898611236515L111.33776180555556,146.57433334085755L111.68514288194446,146.48980833784788L112.10341805555555,146.61732250270873L112.45079913194444,146.5033101682919L112.76840468750001,146.44104860097514L113.16541163194444,146.15785832725174L113.4319734375,145.96336082968438L113.59219409722223,145.8528081644773L114.00763350694444,145.9831432320197L114.01330503472222,146.07363593921184L114.05300572916667,146.01116073019375L114.15225746527778,146.04127977144958L114.18061510416668,145.92414286286976L114.63291944444444,145.6817773843885L114.71232083333334,145.80677476396644L114.91933159722223,145.87562735837986L115.0143296875,146.23652224836127L115.05970190972222,145.94910084901676L115.20290798611111,146.29289800941004L115.47655920138888,146.3086554723127L115.79558263888889,146.08456828338763L115.88632708333334,146.2328243033659L116.37407847222222,146.24188208201954L116.82496493055555,146.29648341587838L116.86041197916666,146.24934838286038L116.97384253472222,146.49762986304955L117.06175121527777,146.5052445844964L117.21771822916666,146.40533425069785L117.37793888888889,146.1241380504187L117.64733645833334,146.03531616358455L118.03158246527778,146.0066063648174L118.43709670138888,145.71896381889044L118.59873524305556,144.9993991246676L119.32610868055555,145.22526447480055L119.41543524305555,145.65578368488033L119.42819618055556,145.94482437759487L119.57990954861111,146.27189462655693L119.75005538194443,146.1792826092675L119.83371041666668,146.12371539889384L120.4533248263889,145.68475007266963L120.46183211805555,145.90689171026844L120.51571163194444,145.32111419282774L120.87018211805555,145.43673101569664L121.16368368055556,145.80110110941797L121.24875659722223,145.85378566565078L121.51673628472221,145.6149797327238L121.5706157986111,145.88961283963428L121.62591319444445,144.81293437044724L121.76770138888888,145.45140645560167L121.97045850694444,145.52719804002768L122.26679583333333,145.7447563240166L122.53761128472222,145.16852046107664L123.09342100694444,145.30215394331265L123.18132968750001,145.02587569932092L123.57550086805556,144.25781708625922L123.68325989583333,144.8110444184222L123.97959722222221,144.88485581772L124.1001171875,144.824663490632L124.44466249999999,145.18802726104587L124.59354010416668,145.2646913566275L124.68286666666667,145.15704398064318L125.16494652777777,145.2276638883859L125.17770746527778,144.98118166636488L125.4272546875,145.08527149981893L125.47829843749999,144.33647539989136L125.52792430555554,143.13740607326815L126.22410434027779,143.58567281062756L126.25813350694445,144.45077868637654L126.43395086805556,144.64411304515926L126.77424253472222,144.25615532709554L126.84513663194444,143.87588069625733L127.3158734375,143.53094508442106L127.37542447916667,143.2317962173193L127.40236423611111,143.13220273039158L127.53564513888888,143.0417174715683L127.85750434027779,143.2086763162743L127.85892222222222,142.13499745643125L128.5281625,143.03954014052542L129.5873203125,143.47164075098192L130.17999496527779,144.09350528392247L130.21118836805553,143.48329067035348L130.62237413194444,142.23216190221208L130.65214965277775,140.88533880799392L130.69610399305554,141.66901578479636L131.04064930555558,141.26651363754448L131.1087076388889,142.19886651586003L131.2235560763889,142.91806990951602L131.82048437499998,143.85969611237627L132.23450590277778,142.98654683409242L132.46562065972222,141.89109476712213L132.59890156249998,142.78871936027326L133.65096996527777,143.26583578283064L133.74171440972222,143.86554313636503L133.82536944444445,142.07432588181902L134.16282534722222,142.55449136242476L134.7072920138889,142.46769481745486L134.83490138888888,141.85634605713958L135.2631017361111,140.42630763428375L135.71682395833335,139.58672208057027L135.7380921875,140.66859574834214L136.2003217013889,140.3405324490053L136.29815555555555,140.01463196940318L136.49098750000002,141.74273751497523L136.95888854166665,142.81033000898515L136.975903125,141.8160938387244L137.31194114583334,141.96319796990133L137.77842430555555,141.28937711527414L137.88334756944445,138.6725846024978L137.94715225694443,140.93750909483202L137.9868529513889,142.2165679568992L137.99536024305556,139.13671160747288L138.97369878472225,138.69619363115038L139.4203315972222,139.31073701202357L139.55786614583332,140.15269220721413L139.8315173611111,141.5428653243285L139.84711406250003,139.85717752793042L140.23277795138887,139.37430651675825L140.51777222222225,139.4656255767216L140.8523923611111,141.12447951269962L141.48618559027778,141.0196877076198L141.59961614583332,141.3501459579052L142.7622793402778,139.68008757474314L143.44711631944443,138.78253171151255L143.96038958333335,137.41431069357418L143.99583663194443,138.03150308281118L144.07240225694446,136.26306851635337L144.2212798611111,138.30565360981203L144.49351319444443,138.09307966588722L144.53463177083333,138.04543113286567L144.65656961805556,135.97027951305273L144.9160420138889,136.45216770783165L145.2293939236111,133.69911312469898L145.23931909722222,136.03592620815272L145.64483333333334,138.15707655822496L145.94684218749998,138.23747510160166L146.25735833333331,135.876547560961L146.36653524305555,134.81644936990992L146.38496770833333,135.56320295527928L146.71391631944445,137.28958843983423L146.78339253472222,138.42989889723387L146.85854027777776,138.41346017167365L147.46114010416667,136.9408886030042L147.7021800347222,135.1661998284692L148.04814322916664,135.24451156374818L148.38276336805555,131.66545693824892L148.7599199652778,131.14052416294933L148.83506770833336,133.52358533110294L148.8790220486111,133.71810953199508L149.04774999999998,134.25274071919705L149.81907777777778,133.57789443151825L149.8233314236111,133.61548665891095L149.98213420138887,134.20960449534658L150.451453125,136.3299293638746L151.37165850694444,134.21577011832477L151.41703072916667,134.66196207099486L151.4368810763889,131.41426057593026L151.5517295138889,129.87741051222483L153.29288854166668,133.23280047400155L153.36945416666666,131.23895111773427L153.4275873263889,131.19805817064056L153.62183715277777,134.58445990238434L154.24854097222223,134.70494677476393L154.25279461805556,133.37598889819168L154.25846614583335,131.46621833891504L154.72778506944445,132.85858517001566L154.74621753472223,131.08202610200942L155.0283760416667,130.58150732787232L155.24956562499997,129.24869606339007L155.41971145833332,131.65713430470072L155.66642291666668,132.0512597494871L156.168353125,132.54586001635892L156.61640381944443,131.3983493431487L156.75110260416665,131.04171793922254L156.83901128472223,129.97961409686684L157.0999015625,129.77870595812013L157.18781024305554,131.26222357487208L157.6075032986111,130.91702164492324L157.9236909722222,131.6440671536206L158.48517222222222,132.92841945883902L158.75315190972222,133.4040308419701L158.82688177083332,132.27585600518205L159.14023368055555,131.67270110310923L159.6733572916667,131.42143316186554L159.75134079861112,127.05463073045266L160.35394062499998,127.00350760493826L160.3794625,126.96668789629629L160.5652050347222,127.76813773777778L161.3904123263889,129.914528476L162.16315798611112,128.49205041893333L162.2992746527778,125.15564691802666L162.3673329861111,125.18192981748265L162.57434375,126.9000953904896L162.58852256944445,126.41911973429376L162.7884439236111,127.07084684057625L162.92314270833333,124.54875810434575L163.3017171875,125.04519236260745L163.31873177083335,128.16399041756446L163.71715659722224,130.26266508387204L164.3254279513889,126.93093238365655L164.6600480902778,128.74845526352726L165.9630815972222,127.19626065811636L166.00845381944444,126.48004806153648L166.1048697916667,125.8720913369219L166.11621284722222,121.2605464688198L166.12613802083334,125.82559871462522L166.2906123263889,130.08879672877515L166.43240052083334,129.75202803726506L166.836496875,123.40413348902572L166.84075052083332,124.22320926008209L167.35827743055557,125.56277972271593L167.8857295138889,126.16370950029622L168.09132239583332,126.18624653351107L168.15938072916668,124.33143542010663L168.21609600694444,128.22740291873066L169.00443836805556,126.41654591790507L169.77576614583333,124.38357338407637L169.93882256944443,126.07691486377917L170.03665642361113,121.80135725160082L170.11180416666667,120.89539768429383L170.12881875,121.33515527724296L170.33866527777778,122.2566139996791L170.41806666666665,121.23001006647414L170.6108986111111,123.44113103988448L170.6293310763889,124.44822029059736L170.6874642361111,126.51518217435842L170.74701527777776,125.69650513794839L170.89589288194443,124.52925724943569L171.00506979166667,120.38109601632809L171.01499496527777,120.78688677646352L172.46974184027778,120.12692373254478L172.85540572916668,118.99959173952688L172.86816666666667,122.39788004371613L173.53598906250002,119.18216552622968L173.71889583333333,115.07096598240447L173.83090850694444,116.0028920894427L174.10030607638888,115.94131858699896L174.17545381944444,115.7015619855327L174.3498532986111,116.68239552465296L174.88297690972223,116.98204148145845L175.75639218749998,114.8509957222084L177.0069640625,114.64174326665838L177.13315555555556,116.64879595999503L177.31180868055557,118.44302757599701L177.32031597222223,118.08144154559821L177.38553854166665,117.37896909402559L177.60247447916666,122.02165228974869L177.8264998263889,117.70267887384922L177.90731909722223,114.80400315764285L177.96828802083334,113.95594356125238L178.33126579861113,115.82554530341811L178.36104131944444,117.08251468205086L179.086996875,115.37836297589719L179.16356249999998,115.59733028553832L179.4088560763889,118.15631483798967L179.48825746527777,118.55472640279379L181.077703125,116.51981500834295L181.5782154513889,115.34803483833909L181.78806197916668,118.30173756967011L181.9837296875,118.80177170846875L182.09007083333333,116.04116719174792L182.27014184027777,115.47876281504874L182.51543541666666,110.47048685569591L182.70826736111113,112.91687544675088L183.01311197916667,109.8367919347172L183.0754987847222,108.27145016083031L183.40870104166666,105.15047426316485L183.6681734375,105.10934705789892L183.7121277777778,107.82571240140602L183.7986185763889,109.01303160751027L184.0481657986111,109.16000646450618L184.45084427083333,109.71527471203704L184.74576371527777,107.61468566055557L185.28739461805557,107.25162389633334L185.3044092013889,108.5087868378L185.64611875,108.53173043601333L186.18916753472223,111.32955909494133L186.35505972222222,110.70356879029814L186.77049913194446,113.99703710751223L187.53899114583334,112.955513931174L188.3868845486111,111.95570419203774L188.9157545138889,108.70696418188932L189.13836197916666,108.42324100913359L189.94088315972223,108.79384043881349L190.22162378472223,106.66234592995477L190.5690048611111,111.65219922463953L191.5289109375,108.59246536811705L191.56294010416667,107.61704172087023L191.78838333333331,109.45324586585546L192.0138265625,101.34851001951328L192.61926215277776,99.35577267837463L192.6958277777778,98.70710944035811L193.11835659722223,100.27843233088153L194.20020052083333,105.40653856519559L194.21579722222222,100.96090230578402L194.2725125,99.70706221680375L194.43131527777777,102.51934149674891L194.6269829861111,98.90900073138268L194.69504131944444,101.84998377216294L195.11331649305558,99.98853192996444L195.32599878472223,101.69874415797867L196.28590486111113,100.61685066145387L196.55813819444447,97.62000623020566L196.57657065972222,101.80179540479006L196.7226125,100.7893064095407L196.75238802083334,104.58837551239108L197.77751666666668,102.71937947410132L198.70906510416665,100.8113151844608L198.93876197916666,94.4732474440098L199.1443548611111,99.34217763307255L200.29425711805555,106.4672857465102L200.7394720486111,105.14964228123945L201.22864131944445,103.603118702077L201.49662100694445,103.2959337212462L202.01414791666667,99.09839356608106L202.25944149305553,97.97497363964864L202.53025694444446,94.02519251712252L202.94853211805554,94.90646967694018L203.0676342013889,92.44221513949743L203.11158854166666,91.3139749170318L203.41501527777777,91.82317661688575L203.6050114583333,94.01546847013147L204.03888333333333,92.27021858207888L205.86086163194446,92.31702698258067L206.02958958333335,89.00792452288175L206.18272083333332,91.6195463803957L206.60099600694446,94.71683199490408L207.314190625,95.43822419694246L207.6870935763889,96.45491368483215L208.3733484375,97.28003154423263L208.92915815972222,94.64072725987292L209.01564895833332,92.76829052259042L209.11773645833333,90.90118264688758L210.0790604166667,87.07675125479922L210.45763489583334,84.23511325287953L210.83620937499998,86.40200545172772L211.5635828125,91.83828660436997L212.4540126736111,91.65838862928865L212.49938489583334,93.5662831775732L212.97153958333334,93.93664490654392L213.18422187500002,97.8156327772597L213.36429288194444,95.5090671663558L213.40541145833333,93.9776277998135L213.46921614583334,90.95074334655476L213.62660104166665,91.03982100793286L214.30576649305556,82.92545510475972L215.04164722222222,78.53621056285581L215.18343541666667,84.43308050438017L215.23731493055556,88.8992233026281L215.71655902777778,87.62713814824353L217.08197934027777,84.79888705561278L217.42368888888888,79.67256140003434L217.75689114583332,80.45020350668726L217.80509913194444,79.8043929373457L218.4232956597222,78.08326076240743L218.45307118055555,81.20516479077777L218.75508003472223,80.81049470780002L219.02873125,77.00296349134668L219.23432413194445,74.93354892814133L219.7532689236111,68.94731685688481L220.39840520833334,75.9202651141309L220.9145142361111,78.00215906847855L221.16831510416668,81.00285794108711L221.27890989583332,83.78046476465228L222.70813489583335,80.8437996921247L222.7449998263889,82.81846731527483L223.15760347222223,78.64410122249822L223.30789895833334,76.83396073349894L223.3490175347222,75.67412644009939L224.04661545138887,74.40666336405963L224.37698194444445,69.20274801843576L224.40250381944443,77.01383631106147L224.9469704861111,74.44226011997021L225.3638277777778,77.05389773864879L225.74098437499998,78.0062969765226L225.86575798611113,77.72346568591358L225.9196375,76.76710024488148L227.93019409722223,71.10453098026223L228.02093854166665,70.18376025482402L228.47040711805553,69.82796448622774L228.67883576388888,69.73125785840332L229.21337725694445,69.77156721504198L229.3622548611111,68.46825282902519L229.8627671875,59.21730586408178L230.1917157986111,61.478091851782395L230.6312592013889,59.84154261106946L231.3146782986111,56.487321399975L231.45079496527777,55.12624700665168L232.21928697916667,65.71626903732434L233.20896857638888,60.79267808906128L233.68537690972224,58.96321102010343L233.93492413194446,57.853239112062056L233.95193871527778,59.78694346723725L234.69774461805557,62.17633274700903L235.17840659722222,55.22090381487206L235.90294427083333,52.42431312225658L236.1127907986111,53.41365037335393L236.24748958333333,56.385690224012365L236.2942796875,55.74130996774075L236.40771024305556,47.776869313977784L236.81180659722222,58.086225755053334L237.23575329861112,52.182985453032L237.25276788194444,53.75437460515252L237.57462708333333,57.61033309642487L239.13429722222222,50.27494985785492L239.23638472222223,49.96684491471295L239.8517454861111,51.96375278216111L239.9793548611111,53.55523083596333L240.92649999999998,53.12730516824466L241.01440868055556,60.227112267613464L241.2327625,51.19970486056809L241.3660434027778,50.83513541634086L241.60424756944445,49.78670624980454L241.7814828125,57.04889874988271L241.88924184027778,58.450068416596295L242.45923038194445,55.01941604995778L242.67616631944443,50.82227462997467L242.78250746527777,48.4883647779848L243.37801788194446,47.0142688667909L243.82181493055555,41.99366548674121L244.04584027777778,41.90672012537806L244.58179965277776,40.7728862418935L246.23505,47.95925257846943L246.71996562500001,42.37013488041501L246.87876840277778,37.252810094915674L246.92697638888887,38.80408189028273L247.12689774305557,38.51796996750295L247.13540503472223,38.91786531383511L247.1382407986111,39.38519835496774L247.1439123263889,34.07288984631401" style="fill: none;" fill="none"></path></g></g></g></g><g opacity="0.2"><g><g><g><path stroke="rgb(255, 112, 67)" stroke-width="2px" d="M28.595843055555555,156.7324074115753L28.636961631944445,156.6147436243693L28.713527256944445,156.61222219721475L28.802853819444444,156.6265625L28.821286284722223,156.66052633158367L28.889344618055556,156.57692304229735L28.89501614583333,156.59583333333333L28.90068767361111,156.7122807076772L28.950313541666667,156.56071430714925L29.189935590277777,156.52878785832723L29.242397222222223,156.59583333333333L29.269336979166667,156.61818182500204L29.31896284722222,156.55486113611857L29.324634375000002,156.4904761797587L29.39836423611111,156.69038463846843L29.65925451388889,156.4904761797587L29.67910486111111,156.6265625L29.681940625,156.7324074115753L29.69895520833333,156.50128202819823L29.718805555555555,156.65256413141887L29.83223611111111,156.74333333333334L29.852086458333332,156.5391025352478L29.910219618055557,156.59583333333333L29.91447326388889,156.67777780278524L29.968352777777778,156.61222219721475L29.993874652777777,156.57692304229735L30.002381944444444,156.65256413141887L30.00379982638889,156.30083333333334L30.16685625,156.61339284642537L30.311480208333336,156.71055556805928L30.427746527777774,156.51388886388142L30.453268402777777,156.65729166666668L30.606399652777778,156.4904761797587L30.75811302083333,156.75227273750306L30.81482829861111,156.66607146072388L30.827589236111113,156.468L31.074300694444446,156.6504629796346L31.189149131944443,156.57944446945191L31.238775,156.62041666666667L31.36922013888889,156.46568630981446L31.390488368055557,156.4319444694519L31.49824739583333,156.56071430714925L31.526605034722223,156.4535087521871L31.66555746527778,156.68640350087483L31.681154166666666,156.46346152114867L31.735033680555553,156.50643936665853L31.76480920138889,156.42374999999998L31.804509895833334,156.37458333333333L32.034206770833336,156.54120368703207L32.14054791666667,156.54239129130045L32.211442013888885,156.51388886388142L32.22987447916667,156.527L32.31069375,156.38933333333333L32.4510640625,156.36966666666666L32.47233229166667,156.534375L32.530465451388885,156.40462964630126L32.69919340277778,156.409L32.734640451388884,156.61818182500204L32.74314774305555,156.5201923192342L32.83956371527778,156.38641976420084L32.85657829861111,156.46346152114867L32.86083194444445,156.31722219721476L32.880682291666666,156.42283952840168L32.97851614583333,156.67777780278524L33.02814201388889,156.31066666666666L33.246495833333334,156.50803569285074L33.35141909722223,156.26805553054808L33.35992638888889,156.32951386388143L33.361344270833335,156.29326920191448L33.50880399305555,156.4178161048889L33.77536579861111,156.2225309003194L33.802305555555556,156.27133333333333L33.888796354166665,156.28218389511107L34.03909184027778,156.14655176035563L34.13834357638889,156.13807468159993L34.15252239583333,156.11327160771688L34.1865515625,156.16790125401815L34.239013194444446,156.31488097381592L34.49848559027778,156.24464284642536L34.61758767361111,156.0109195505778L34.688481770833334,156.01693544514973L34.86288125,156.19635416666665L34.87706006944445,155.99661458333333L34.87989583333333,155.99880958811443L34.98198333333333,156.21171875L35.02168402777777,155.9792348988851L35.06138472222222,155.89111106109618L35.213098090277775,156.19635416666665L35.35772204861111,156.02734375L35.53070364583333,155.6997312215169L35.54204670138889,156.02734375L35.654059374999996,155.747311765035L35.65831302083333,155.85833333333332L35.7689078125,156.04865595753986L35.78308663194444,155.98521508280436L35.899352951388884,155.796875L35.923456944444446,155.62786458333335L36.062409375,155.65859375L36.090767013888886,155.78809528096517L36.20845121527778,155.76614583333333L36.215540625,155.6997312215169L36.22121215277778,155.49354841613768L36.404118923611115,155.59713541666667L36.419715624999995,155.50494791666665L36.44381961805556,155.50494791666665L36.51896736111111,155.71559140268963L36.78127552083333,155.76614583333333L36.856423263888885,155.48958333333334L36.91881006944445,155.38203125L36.94433194444444,155.5728494720459L36.94716770833333,155.428125L37.08044861111111,155.54112895965577L37.142835416666664,155.5203125L37.30872760416667,155.35130208333334L37.42499392361111,155.7046875L37.48738072916667,155.45885416666667L37.54976753472222,155.5203125L37.58805034722222,155.48958333333334L37.71565972222223,155.44348958333333L37.76812135416667,155.44348958333333L37.78371805555556,155.38203125L37.82483663194444,155.55104166666666L37.94961024305555,155.49354841613768L37.99640034722222,155.27447916666668L38.06871232638889,155.428125L38.13251701388889,155.3359375L38.14811371527778,155.1515625L38.701087673611106,155.19765625L38.824443402777774,155.10546875L38.86272621527778,155.04401041666665L39.061229687499996,155.16692708333332L39.13070590277778,155.10546875L39.20727152777778,154.92109375L39.351895486111104,154.82890625L39.42987899305555,155.09010416666666L39.95024166666666,154.89036458333334L40.01262847222222,154.690625L40.015464236111114,155.04401041666665L40.11896961805555,154.70598958333332L40.379859895833334,154.46015625L40.72865885416667,154.321875L40.74709131944444,154.27578125L41.03066770833333,154.19895833333334L41.08880086805556,154.0453125L41.307154687499995,154.36796875L41.383720312499996,154.33723958333334L41.51700121527778,153.78411458333335L41.586477430555554,153.87630208333334L42.138033506944446,153.6765625L42.21318125,153.81484375L42.25429982638889,154.1375L42.35922309027777,153.50755208333334L42.584666319444445,153.44609375L42.746304861111106,153.89166666666665L43.14189392361111,153.584375L43.32480069444444,153.35390625L43.429723958333334,153.6765625L43.700539409722225,153.69192708333333L43.77852291666667,153.64583333333334L44.0124734375,153.584375L44.16985833333334,153.81484375L44.549850694444444,153.41536458333334L44.5739546875,153.83020833333333L44.59664079861111,153.83020833333333L44.62216267361111,153.66119791666668L44.789472743055555,153.52291666666667L44.84760590277778,154.12213541666665L44.87879930555555,153.79947916666666L45.00357291666667,153.63046875L45.237523437499995,153.53828125L45.25312013888889,153.83020833333333L45.40483350694445,154.55234375L45.465802430555556,153.4921875L45.713931770833334,153.53828125L45.82169079861111,153.953125L45.96631475694444,153.70729166666666L46.08258107638889,153.79947916666666L46.12795329861111,153.953125L46.34063559027778,154.01458333333332L46.795775694444444,153.90703125L46.79719357638889,154.19895833333334L46.876594965277775,154.0453125L46.903534722222226,153.66119791666668L47.042487152777774,154.21432291666667L47.0495765625,153.83020833333333L47.05383020833334,154.09140625L47.069426909722225,153.79947916666666L47.11621701388889,154.27578125L47.16867864583333,154.26041666666666L47.1771859375,154.01458333333332L47.389868229166666,153.73802083333334L47.41113645833333,154.26041666666666L47.680534027777774,153.8609375L47.991050173611114,153.81484375L48.16828541666667,153.72265625L48.366788888888884,153.7806452484131L48.4915625,153.515234375L48.73685607638889,153.56901041666666L48.91550920138889,153.584375L48.922598611111106,153.98385416666667L49.04879010416667,153.43072916666665L49.23595052083333,153.584375L49.81444635416666,153.89166666666665L50.09235121527777,153.52291666666667L50.14339496527778,153.18489583333334L50.34615208333334,153.6765625L50.3674203125,153.63046875L50.37450972222223,154.01458333333332L50.40712100694444,154.10677083333334L50.49644756944445,153.75338541666667L50.73465173611111,153.61510416666667L50.85800746527777,153.953125L50.875022048611115,153.38463541666667L51.008302951388885,153.69192708333333L51.34292309027778,153.73802083333334L51.47053246527778,153.47682291666666L51.73851215277778,153.03125L51.915747395833336,153.63046875L51.924254687499996,153.4L51.94835868055556,153.423046875L52.005073958333334,153.38463541666667L52.083057465277776,154.2296875L52.165294618055555,153.96848958333334L52.17805555555556,153.1234375L52.268800000000006,153.47682291666666L52.29148611111111,153.16953125L52.29715763888888,153.78411458333335L52.318425868055556,153.13880208333333L52.36521597222222,153.53828125L52.5367796875,153.96848958333334L52.54812274305555,153.70729166666666L52.92953298611111,153.584375L53.079828472222225,153.64583333333334L53.39601614583333,153.84557291666667L53.48817847222222,153.50755208333334L53.57750503472222,153.53828125L53.62713090277777,154.16822916666666L53.75615815972222,153.90703125L53.93481128472222,153.47682291666666L54.11771805555556,153.78411458333335L54.21271614583333,153.63046875L54.22973072916667,153.78411458333335L54.2977890625,153.23098958333333L54.30062482638889,153.64583333333334L54.76143645833333,153.63046875L55.19530833333333,153.18489583333334L55.21941232638889,153.72265625L55.39239392361111,153.4921875L55.398065451388895,153.3078125L55.47746684027778,152.5703125L55.765296875,153.07734375L55.78231145833333,152.89296875L55.82059427083333,153.24635416666666L55.83051944444445,153.26171875L55.843280381944446,153.06197916666667L55.977979166666664,153.40768229166667L56.08715607638889,153.43072916666665L56.498341840277774,152.87760416666666L56.66848767361111,153.29244791666667L56.71527777777777,152.80078125L56.80460434027778,153.03125L57.167582118055556,153.4L57.292355729166665,153.36927083333333L57.324967013888894,153.23098958333333L57.334892187499996,153.53828125L57.499366493055554,153.35390625L57.67234809027777,153.63046875L57.67660173611111,153.20026041666665L57.79853958333334,152.86223958333335L57.95167083333333,152.77005208333333L58.10905572916666,153.47682291666666L58.134577604166665,152.86223958333335L58.28345520833333,152.962109375L58.31039496527777,153.18489583333334L58.328827430555556,152.77005208333333L58.46777986111111,152.69322916666667L58.56136006944444,153.18489583333334L58.89881597222222,153.50755208333334L59.00373923611111,153.32317708333332L59.04769357638889,153.61510416666667L59.1086625,152.27838541666668L59.16821354166667,153.07734375L59.344030902777774,152.37057291666667L59.46596875,152.846875L59.6829046875,152.9390625L59.698501388888886,152.89296875L59.92819826388889,152.14010416666667L60.04304670138889,152.7546875L60.172073958333335,152.14010416666667L60.31386215277777,152.23229166666667L60.35356284722222,152.90833333333333L60.381920486111106,153.20026041666665L60.61728888888889,152.03255208333334L60.79168836805555,152.15546875L60.984520312499995,152.0171875L61.258171527777776,152.44739583333333L61.37301996527778,152.43203125L61.56443402777778,153.10807291666666L61.83808524305556,152.23229166666667L62.05927482638889,151.54088541666667L62.427924131944444,152.5703125L62.494564583333336,152.58567708333334L62.535683159722225,152.18619791666666L62.73276875,151.52552083333333L62.910003993055554,151.69453125L63.04186701388888,152.501171875L63.274399652777774,152.12473958333334L63.31410034722222,152.04791666666665L63.34529375,152.06328125L63.44454548611111,151.84817708333333L63.667152951388886,151.75598958333333L63.67424236111111,151.87890625L63.80610538194444,152.178515625L63.932296875,151.70989583333335L64.23572361111111,151.57161458333334L64.65399878472222,152.06328125L64.697953125,152.03255208333334L64.7135498263889,151.78671875L64.72914652777779,151.98645833333333L64.92765,152.41666666666666L64.95458975694444,151.94036458333332L65.01130503472223,151.6484375L65.13466076388889,151.41796875L65.259434375,151.52552083333333L65.40831197916665,151.78671875L65.47778819444444,151.87890625L65.53733923611111,150.80338541666666L65.55010017361111,151.69453125L65.616740625,151.89427083333334L65.94710711805556,151.24895833333332L65.95986805555555,151.81744791666665L66.11867083333334,152.44739583333333L66.55396059027778,151.925L66.70425607638889,151.61770833333333L67.05163715277779,151.72526041666666L67.24163333333334,151.58697916666668L67.29834861111111,151.55625L67.34939236111111,152.0171875L67.37349635416668,152.21692708333333L67.4259579861111,150.68046875L67.60461111111111,151.70989583333335L67.62729722222221,151.78671875L67.72654895833332,151.6484375L67.82438281249999,151.17213541666666L67.89244114583333,151.87890625L68.09661614583332,151.6484375L68.11079496527778,151.63307291666666L68.322059375,152.00182291666667L68.34049184027778,151.6484375L68.37877465277778,151.40260416666666L68.38444618055556,151.60234375L68.83107899305556,151.63307291666666L68.9317486111111,151.2796875L69.02816458333334,151.925L69.0650295138889,151.70989583333335L69.09338715277777,152.09401041666666L69.38830659722223,151.77135416666667L69.64068958333333,151.740625L69.7158373263889,151.1875L69.78814930555555,151.43333333333334L69.85478975694444,151.0953125L69.955459375,151.20286458333334L70.01359253472222,150.94166666666666L70.25321458333333,151.49479166666666L70.3510484375,152.09401041666666L70.516940625,151.43333333333334L70.55522343749999,152.00182291666667L70.76365208333333,151.1875L71.01036354166666,151.8328125L71.01887083333334,151.40260416666666L71.19894184027778,151.54088541666667L71.2797611111111,151.44869791666667L71.31237239583332,151.94036458333332L71.47542881944445,151.2796875L71.60729184027778,150.94166666666666L71.61012760416668,151.21822916666667L71.70228993055555,151.34114583333334L72.09646111111111,151.41796875L72.50339322916668,151.12604166666665L72.51190052083334,151.55625L72.80965572916666,150.69583333333333L72.99965190972222,151.44869791666667L73.08472482638889,151.44869791666667L73.09606788194445,151.1875L73.27330312500001,151.41796875L73.30024288194444,151.43333333333334L73.51150729166666,150.86484375L73.84612743055555,151.34114583333334L73.95530434027778,151.31041666666667L74.51253194444445,150.88020833333334L74.54088958333332,151.26432291666666L74.54656111111112,151.29505208333333L74.69543871527777,151.31041666666667L74.72946788194444,151.41796875L75.06125225694444,152.17083333333335L75.41572274305555,151.34114583333334L75.43415520833332,151.34114583333334L75.53057118055555,151.84817708333333L75.9913828125,152.29375L76.19981145833333,151.87890625L76.35152482638888,152.26302083333334L76.45786597222222,151.90963541666667L76.60674357638888,151.86354166666666L76.61950451388888,151.06458333333333L76.94136371527777,151.925L76.97255711805556,152.03255208333334L77.06188368055555,151.61770833333333L77.13561354166667,151.32578125L77.22919375,151.77135416666667L77.32419184027778,151.67916666666667L77.39792170138888,152.64713541666666L78.04164010416667,150.38854166666667L78.0941017361111,151.70989583333335L78.10402690972222,151.06458333333333L78.38193177083333,151.14140625L78.44006493055555,151.67916666666667L78.48969079861111,150.69583333333333L78.74065590277777,151.23359375L78.81155000000001,151.12604166666665L78.9746064236111,151.44869791666667L79.55735590277779,151.2796875L79.80832100694445,151.20286458333334L79.96287013888889,151.15677083333333L79.98839201388888,151.41796875L80.17697031249999,150.84947916666667L80.24219288194445,150.52682291666667L80.45203940972222,150.32708333333335L80.65054288194445,150.64973958333334L80.85613576388889,150.83411458333333L80.92277621527778,150.52682291666667L80.94829809027779,150.37317708333333L81.09433993055555,150.77265625L81.185084375,150.95703125L81.33537986111112,150.61901041666667L81.44597465277778,150.95703125L81.46298923611111,149.66640625L81.593434375,150.20416666666668L81.74089409722222,150.634375L81.79902725694444,149.74322916666665L81.85716041666666,150.265625L81.87559288194444,150.45L81.950740625,149.9890625L82.03297777777777,150.11197916666666L82.7830373263889,150.29635416666667L82.96736197916667,150.69583333333333L83.28354965277778,150.15807291666667L83.33459340277777,149.82005208333334L83.47071006944444,149.528125L83.77839045138889,149.7125L83.94144687500001,148.82135416666668L84.07898142361111,149.23619791666667L84.20517291666667,150.265625L84.38949756944444,149.28229166666665L84.43203402777779,149.69713541666667L84.57240434027779,148.053125L84.99635104166667,148.99036458333333L85.07433454861112,148.82903645833332L85.11403524305555,148.86744791666666L85.26291284722221,149.19010416666666L85.26433072916667,149.38984375L85.2912704861111,148.95963541666666L85.70245625,148.03776041666666L85.76342517361111,147.73046875L86.3178170138889,147.79192708333332L86.37453229166665,148.54479166666667L86.50072378472223,148.74453125L86.84526909722223,148.68307291666667L87.28906614583335,148.20677083333334L87.37130329861112,147.37708333333333L87.57264253472222,147.99166666666667L87.667640625,147.71510416666666L88.00367864583333,147.11588541666666L88.03203628472222,147.60755208333333L88.15539201388889,148.11458333333334L88.47583333333334,147.85338541666667L88.47866909722221,147.69973958333333L88.52120555555555,147.80729166666666L88.5254592013889,148.34505208333334L89.0841046875,148.52942708333333L89.1606703125,147.08515625L89.47969375000001,146.73177083333334L89.4924546875,146.97760416666665L89.66401840277777,146.34765625L89.6739435763889,147.79192708333332L90.449525,147.14661458333333L90.5742986111111,147.10052083333332L90.59273107638889,147.80729166666666L90.78839878472222,147.53072916666667L90.86780017361112,147.06979166666667L90.94153003472223,146.88541666666666L90.985484375,146.45520833333333L91.23786736111111,147.08515625L91.27473229166667,147.46927083333333L91.33570121527778,147.20807291666665L91.77808038194445,146.93151041666667L91.96665868055557,146.73177083333334L92.10986475694443,147.37708333333333L92.12404357638889,147.08515625L92.68694270833333,148.1453125L93.06409930555556,147.2234375L93.15059010416667,146.65494791666666L93.231409375,147.60755208333333L93.4965532986111,146.88541666666666L94.08072065972222,147.36171875L94.34870034722222,146.91614583333333L94.38414739583334,147.11588541666666L94.6634701388889,146.59348958333334L94.74287152777778,147.23880208333333L94.9186888888889,147.11588541666666L95.22920503472223,147.88411458333334L95.26323420138888,146.50130208333334L95.40927604166667,146.578125L95.51278142361112,146.96223958333334L95.81195451388888,146.80859375L97.20573246527778,147.11588541666666L97.23267222222223,146.74713541666668L97.32625243055556,146.42447916666666L97.4652048611111,146.91614583333333L97.61266458333334,147.06979166666667L97.876390625,146.88541666666666L98.32444131944445,146.53203125L98.38682812500001,146.33229166666666L98.52010902777778,146.51666666666665L98.8207,146.45520833333333L98.89584774305555,146.47057291666667L98.99793524305555,146.82395833333334L99.09435121527778,146.70104166666667L99.44456805555556,146.946875L99.51120850694444,147.00833333333333L99.68844375,146.96223958333334L100.25276076388889,146.39375L100.61148489583333,146.53203125L100.67812534722222,146.73177083333334L101.29206822916666,146.97760416666665L101.29915763888889,147.19270833333334L102.51570034722222,147.10052083333332L102.94815434027778,146.27083333333334L102.96233315972222,146.97760416666665L103.33523611111112,146.47057291666667L103.38769774305555,146.93151041666667L103.63299131944444,146.08645833333333L103.78186892361111,146.65494791666666L103.82440538194444,147.51536458333334L103.82724114583333,146.28619791666665L104.19021892361111,147.2234375L104.4737953125,146.88541666666666L104.61841927083333,147.05442708333334L104.74602864583333,146.39375L104.94453211805555,146.59348958333334L105.33161388888888,146.37838541666667L105.40392586805555,146.51666666666665L105.40676163194445,146.56276041666666L105.44929809027778,146.43984375L105.96966076388888,145.97890625L106.31562395833333,146.54739583333333L106.34256371527778,147.11588541666666L106.39644322916666,145.59479166666665L107.15075642361111,147.02369791666666L107.51373420138889,146.00963541666667L108.46087934027777,145.64088541666666L108.60975694444446,146.13255208333334L108.74161996527778,146.07109375L108.76997760416667,145.42578125L108.84512534722222,146.31692708333333L108.850796875,146.39375L109.514365625,146.33229166666666L109.54555902777778,145.65625L110.03189253472222,146.08645833333333L110.16659131944445,147.00833333333333L111.08963246527777,146.82395833333334L111.22858489583334,146.34765625L111.33776180555556,146.70104166666667L111.68514288194446,146.36302083333334L112.10341805555555,146.80859375L112.45079913194444,146.33229166666666L112.76840468750001,146.34765625L113.16541163194444,145.73307291666666L113.4319734375,145.67161458333334L113.59219409722223,145.68697916666667L114.00763350694444,146.17864583333335L114.01330503472222,146.209375L114.05300572916667,145.91744791666667L114.15225746527778,146.08645833333333L114.18061510416668,145.7484375L114.63291944444444,145.31822916666667L114.71232083333334,145.99427083333333L114.91933159722223,145.97890625L115.0143296875,146.77786458333333L115.05970190972222,145.51796875L115.20290798611111,146.80859375L115.47655920138888,146.33229166666666L115.79558263888889,145.7484375L115.88632708333334,146.45520833333333L116.37407847222222,146.25546875L116.82496493055555,146.37838541666667L116.86041197916666,146.17864583333335L116.97384253472222,146.87005208333335L117.06175121527777,146.51666666666665L117.21771822916666,146.25546875L117.37793888888889,145.70234375L117.64733645833334,145.90208333333334L118.03158246527778,145.96354166666666L118.43709670138888,145.2875L118.59873524305556,143.92005208333333L119.32610868055555,145.5640625L119.41543524305555,146.3015625L119.42819618055556,146.37838541666667L119.57990954861111,146.7625L119.75005538194443,146.04036458333334L119.83371041666668,146.04036458333334L120.4533248263889,145.02630208333332L120.46183211805555,146.24010416666667L120.51571163194444,144.44244791666665L120.87018211805555,145.61015625L121.16368368055556,146.34765625L121.24875659722223,145.9328125L121.51673628472221,145.25677083333335L121.5706157986111,146.3015625L121.62591319444445,143.19791666666669L121.76770138888888,146.40911458333332L121.97045850694444,145.64088541666666L122.26679583333333,146.07109375L122.53761128472222,144.30416666666667L123.09342100694444,145.50260416666666L123.18132968750001,144.61145833333333L123.57550086805556,143.10572916666666L123.68325989583333,145.64088541666666L123.97959722222221,144.99557291666667L124.1001171875,144.734375L124.44466249999999,145.73307291666666L124.59354010416668,145.3796875L124.68286666666667,144.99557291666667L125.16494652777777,145.33359375L125.17770746527778,144.61145833333333L125.4272546875,145.24140625L125.47829843749999,143.21328125L125.52792430555554,141.33880208333335L126.22410434027779,144.25807291666666L126.25813350694445,145.7484375L126.43395086805556,144.93411458333333L126.77424253472222,143.67421875L126.84513663194444,143.30546875L127.3158734375,143.01354166666667L127.37542447916667,142.78307291666667L127.40236423611111,142.9828125L127.53564513888888,142.90598958333334L127.85750434027779,143.45911458333333L127.85892222222222,140.52447916666665L128.5281625,144.39635416666667L129.5873203125,144.11979166666666L130.17999496527779,145.02630208333332L130.21118836805553,142.56796875L130.62237413194444,140.35546875L130.65214965277775,138.86510416666667L130.69610399305554,142.84453125L131.04064930555558,140.66276041666666L131.1087076388889,143.59739583333334L131.2235560763889,143.996875L131.82048437499998,145.27213541666666L132.23450590277778,141.67682291666665L132.46562065972222,140.24791666666667L132.59890156249998,144.13515625L133.65096996527777,143.98151041666665L133.74171440972222,144.76510416666667L133.82536944444445,139.3875L134.16282534722222,143.27473958333334L134.7072920138889,142.3375L134.83490138888888,140.93932291666667L135.2631017361111,138.28125L135.71682395833335,138.32734375L135.7380921875,142.29140625L136.2003217013889,139.8484375L136.29815555555555,139.52578125L136.49098750000002,144.33489583333335L136.95888854166665,144.41171875L136.975903125,140.32473958333333L137.31194114583334,142.18385416666666L137.77842430555555,140.27864583333331L137.88334756944445,134.74739583333331L137.94715225694443,144.33489583333335L137.9868529513889,144.13515625L137.99536024305556,134.51692708333334L138.97369878472225,138.03541666666666L139.4203315972222,140.23255208333333L139.55786614583332,141.415625L139.8315173611111,143.628125L139.84711406250003,137.32864583333333L140.23277795138887,138.65L140.51777222222225,139.60260416666665L140.8523923611111,143.61276041666667L141.48618559027778,140.8625L141.59961614583332,141.84583333333333L142.7622793402778,137.175L143.44711631944443,137.43619791666666L143.96038958333335,135.36197916666666L143.99583663194443,138.95729166666666L144.07240225694446,133.61041666666665L144.2212798611111,141.36953125L144.49351319444443,137.77421875L144.53463177083333,137.97395833333334L144.65656961805556,132.85755208333333L144.9160420138889,137.175L145.2293939236111,129.56953125L145.23931909722222,139.54114583333333L145.64483333333334,141.33880208333335L145.94684218749998,138.35807291666669L146.25735833333331,132.33515625L146.36653524305555,133.22630208333334L146.38496770833333,136.68333333333334L146.71391631944445,139.87916666666666L146.78339253472222,140.14036458333334L146.85854027777776,138.38880208333333L147.46114010416667,134.73203125L147.7021800347222,132.50416666666666L148.04814322916664,135.36197916666666L148.38276336805555,126.296875L148.7599199652778,130.353125L148.83506770833336,137.09817708333333L148.8790220486111,134.00989583333333L149.04774999999998,135.0546875L149.81907777777778,132.565625L149.8233314236111,133.671875L149.98213420138887,135.10078125L150.451453125,139.51041666666666L151.37165850694444,131.04453125L151.41703072916667,135.33125L151.4368810763889,126.54270833333334L151.5517295138889,127.57213541666667L153.29288854166668,138.26588541666666L153.36945416666666,128.24817708333333L153.4275873263889,131.13671875L153.62183715277777,139.6640625L154.24854097222223,134.88567708333335L154.25279461805556,131.38255208333334L154.25846614583335,128.6015625L154.72778506944445,134.94713541666667L154.74621753472223,128.4171875L155.0283760416667,129.83072916666666L155.24956562499997,127.24947916666667L155.41971145833332,135.26979166666666L155.66642291666668,132.64244791666667L156.168353125,133.28776041666666L156.61640381944443,129.67708333333334L156.75110260416665,130.50677083333335L156.83901128472223,128.38645833333334L157.0999015625,129.47734375L157.18781024305554,133.4875L157.6075032986111,130.39921875L157.9236909722222,132.73463541666666L158.48517222222222,134.85494791666667L158.75315190972222,134.11744791666666L158.82688177083332,130.58359375L159.14023368055555,130.76796875L159.6733572916667,131.04453125L159.75134079861112,120.50442708333333L160.35394062499998,126.92682291666668L160.3794625,126.91145833333334L160.5652050347222,128.9703125L161.3904123263889,133.13411458333334L162.16315798611112,126.35833333333333L162.2992746527778,120.15104166666666L162.3673329861111,125.22135416666667L162.57434375,129.47734375L162.58852256944445,125.69765625L162.7884439236111,128.0484375L162.92314270833333,120.765625L163.3017171875,125.78984375L163.31873177083335,132.8421875L163.71715659722224,133.41067708333333L164.3254279513889,121.93333333333334L164.6600480902778,131.47473958333333L165.9630815972222,124.86796874999999L166.00845381944444,125.40572916666667L166.1048697916667,124.96015625L166.11621284722222,114.34322916666667L166.12613802083334,132.67317708333331L166.2906123263889,136.48359375L166.43240052083334,129.246875L166.836496875,113.88229166666667L166.84075052083332,125.45182291666666L167.35827743055557,127.57213541666667L167.8857295138889,127.06510416666666L168.09132239583332,126.22005208333334L168.15938072916668,121.54921875L168.21609600694444,134.07135416666665L169.00443836805556,123.70026041666667L169.77576614583333,121.33411458333333L169.93882256944443,128.61692708333334L170.03665642361113,115.38802083333333L170.11180416666667,119.53645833333333L170.12881875,121.99479166666666L170.33866527777778,123.63880208333333L170.41806666666665,119.69010416666667L170.6108986111111,126.7578125L170.6293310763889,125.95885416666667L170.6874642361111,129.615625L170.74701527777776,124.46848958333334L170.89589288194443,122.77838541666668L171.00506979166667,114.15885416666667L171.01499496527777,121.39557291666668L172.46974184027778,119.13697916666666L172.85540572916668,117.30859375L172.86816666666667,127.49531250000001L173.53598906250002,114.35859375000001L173.71889583333333,108.90416666666667L173.83090850694444,117.40078125L174.10030607638888,115.84895833333334L174.17545381944444,115.34192708333333L174.3498532986111,118.15364583333333L174.88297690972223,117.43151041666667L175.75639218749998,111.65442708333333L177.0069640625,114.32786458333334L177.13315555555556,119.659375L177.31180868055557,121.134375L177.32031597222223,117.5390625L177.38553854166665,116.32526041666667L177.60247447916666,128.98567708333334L177.8264998263889,111.22421874999999L177.90731909722223,110.45598958333333L177.96828802083334,112.68385416666666L178.33126579861113,118.62994791666668L178.36104131944444,118.96796875L179.086996875,112.82213541666667L179.16356249999998,115.92578125L179.4088560763889,121.99479166666666L179.48825746527777,119.15234375L181.077703125,113.46744791666667L181.5782154513889,113.59036458333333L181.78806197916668,122.73229166666667L181.9837296875,119.55182291666667L182.09007083333333,111.90026041666667L182.27014184027777,114.63515625L182.51543541666666,102.95807291666667L182.70826736111113,116.58645833333333L183.01311197916667,105.21666666666667L183.0754987847222,105.9234375L183.40870104166666,100.46901041666668L183.6681734375,105.04765625L183.7121277777778,111.90026041666667L183.7986185763889,110.79401041666667L184.0481657986111,109.38046875L184.45084427083333,110.54817708333333L184.74576371527777,104.46380208333333L185.28739461805557,106.70703125L185.3044092013889,110.39453125L185.64611875,108.56614583333334L186.18916753472223,115.52630208333333L186.35505972222222,109.76458333333333L186.77049913194446,118.93723958333334L187.53899114583334,111.39322916666667L188.3868845486111,110.45598958333333L188.9157545138889,103.83385416666667L189.13836197916666,107.99765625L189.94088315972223,109.34973958333333L190.22162378472223,103.46510416666666L190.5690048611111,119.13697916666666L191.5289109375,104.00286458333333L191.56294010416667,106.15390625L191.78838333333331,112.20755208333334L192.0138265625,89.19140625L192.61926215277776,96.36666666666667L192.6958277777778,97.73411458333334L193.11835659722223,102.63541666666667L194.20020052083333,113.09869791666668L194.21579722222222,94.29244791666667L194.2725125,97.82630208333333L194.43131527777777,106.73776041666667L194.6269829861111,93.49348958333334L194.69504131944444,106.26145833333332L195.11331649305558,97.19635416666667L195.32599878472223,104.2640625L196.28590486111113,98.99401041666667L196.55813819444447,93.12473958333332L196.57657065972222,108.07447916666668L196.7226125,99.27057291666667L196.75238802083334,110.28697916666667L197.77751666666668,99.91588541666667L198.70906510416665,97.94921875L198.93876197916666,84.96614583333333L199.1443548611111,106.64557291666667L200.29425711805555,117.15494791666666L200.7394720486111,103.17317708333334L201.22864131944445,101.28333333333333L201.49662100694445,102.83515625L202.01414791666667,92.80208333333334L202.25944149305553,96.28984375L202.53025694444446,88.10052083333333L202.94853211805554,96.22838541666667L203.0676342013889,88.74583333333334L203.11158854166666,89.62161458333333L203.41501527777777,92.58697916666667L203.6050114583333,97.30390625L204.03888333333333,89.65234375L205.86086163194446,92.38723958333333L206.02958958333335,84.04427083333333L206.18272083333332,95.53697916666667L206.60099600694446,99.36276041666666L207.314190625,96.5203125L207.6870935763889,97.97994791666666L208.3733484375,98.51770833333333L208.92915815972222,90.68177083333333L209.01564895833332,89.95963541666667L209.11773645833333,88.10052083333333L210.0790604166667,81.34010416666666L210.45763489583334,79.97265625L210.83620937499998,89.65234375L211.5635828125,99.99270833333333L212.4540126736111,91.38854166666667L212.49938489583334,96.428125L212.97153958333334,94.4921875L213.18422187500002,103.63411458333333L213.36429288194444,92.04921875000001L213.40541145833333,91.68046875L213.46921614583334,86.41041666666668L213.62660104166665,91.17343749999999L214.30576649305556,70.75390625L215.04164722222222,71.95234375L215.18343541666667,93.27838541666667L215.23731493055556,95.5984375L215.71655902777778,85.71901041666668L217.08197934027777,80.55651041666667L217.42368888888888,71.98307291666667L217.75689114583332,81.61666666666667L217.80509913194444,78.83567708333332L218.4232956597222,75.50156249999999L218.45307118055555,85.88802083333334L218.75508003472223,80.21848958333332L219.02873125,71.29166666666667L219.23432413194445,71.82942708333333L219.7532689236111,59.96796875L220.39840520833334,86.3796875L220.9145142361111,81.125L221.16831510416668,85.50390625L221.27890989583332,87.94687499999999L222.70813489583335,76.43880208333333L222.7449998263889,85.78046875L223.15760347222223,72.38255208333334L223.30789895833334,74.11874999999999L223.3490175347222,73.934375L224.04661545138887,72.50546875L224.37698194444445,61.39687500000001L224.40250381944443,88.73046875L224.9469704861111,70.58489583333335L225.3638277777778,80.97135416666667L225.74098437499998,79.43489583333333L225.86575798611113,77.29921875000001L225.9196375,75.33255208333333L227.93019409722223,62.61067708333333L228.02093854166665,68.80260416666667L228.47040711805553,69.29427083333334L228.67883576388888,69.58619791666666L229.21337725694445,69.83203125L229.3622548611111,66.51328124999999L229.8627671875,45.34088541666668L230.1917157986111,64.86927083333333L230.6312592013889,57.38671875L231.3146782986111,51.455989583333334L231.45079496527777,53.08463541666666L232.21928697916667,81.60130208333332L233.20896857638888,53.407291666666666L233.68537690972224,56.21901041666666L233.93492413194446,56.18828125L233.95193871527778,62.6875L234.69774461805557,65.76041666666667L235.17840659722222,44.78776041666666L235.90294427083333,48.22942708333335L236.1127907986111,54.89765625L236.24748958333333,60.84375L236.2942796875,54.77473958333334L236.40771024305556,35.83020833333333L236.81180659722222,73.55026041666666L237.23575329861112,43.328125L237.25276788194444,56.111458333333346L237.57462708333333,63.39427083333334L239.13429722222222,39.271874999999994L239.23638472222223,49.5046875L239.8517454861111,54.95911458333333L239.9793548611111,55.94244791666665L240.92649999999998,52.48541666666665L241.01440868055556,70.87682291666667L241.2327625,37.658593749999994L241.3660434027778,50.28828125L241.60424756944445,48.21406249999998L241.7814828125,67.9421875L241.88924184027778,60.551822916666666L242.45923038194445,49.873437499999994L242.67616631944443,44.52656250000001L242.78250746527777,44.98750000000001L243.37801788194446,44.803124999999994L243.82181493055555,34.46276041666667L244.04584027777778,41.77630208333332L244.58179965277776,39.07213541666667L246.23505,58.738802083333326L246.71996562500001,33.98645833333333L246.87876840277778,29.576822916666657L246.92697638888887,41.13098958333333L247.12689774305557,38.08880208333335L247.13540503472223,39.51770833333333L247.1382407986111,40.08619791666666L247.1439123263889,26.10442708333335" style="fill: none;" fill="none"></path></g></g></g></g></g></g><g transform="translate(74, 177)" clip-path="url(#clip_1)"><clipPath id="clip_1"><rect width="255" height="23"></rect></clipPath><g><g><line x1="0" y1="0" x2="0" y2="5" style="visibility: inherit;" fill="rgb(0, 0, 0)" stroke="rgb(204, 204, 204)" stroke-width="1px"></line><line x1="28.357638888888886" y1="0" x2="28.357638888888886" y2="5" style="visibility: inherit;" fill="rgb(0, 0, 0)" stroke="rgb(204, 204, 204)" stroke-width="1px"></line><line x1="56.71527777777777" y1="0" x2="56.71527777777777" y2="5" style="visibility: inherit;" fill="rgb(0, 0, 0)" stroke="rgb(204, 204, 204)" stroke-width="1px"></line><line x1="85.07291666666666" y1="0" x2="85.07291666666666" y2="5" style="visibility: inherit;" fill="rgb(0, 0, 0)" stroke="rgb(204, 204, 204)" stroke-width="1px"></line><line x1="113.43055555555554" y1="0" x2="113.43055555555554" y2="5" style="visibility: inherit;" fill="rgb(0, 0, 0)" stroke="rgb(204, 204, 204)" stroke-width="1px"></line><line x1="141.78819444444446" y1="0" x2="141.78819444444446" y2="5" style="visibility: inherit;" fill="rgb(0, 0, 0)" stroke="rgb(204, 204, 204)" stroke-width="1px"></line><line x1="170.14583333333331" y1="0" x2="170.14583333333331" y2="5" style="visibility: inherit;" fill="rgb(0, 0, 0)" stroke="rgb(204, 204, 204)" stroke-width="1px"></line><line x1="198.50347222222223" y1="0" x2="198.50347222222223" y2="5" style="visibility: inherit;" fill="rgb(0, 0, 0)" stroke="rgb(204, 204, 204)" stroke-width="1px"></line><line x1="226.8611111111111" y1="0" x2="226.8611111111111" y2="5" style="visibility: inherit;" fill="rgb(0, 0, 0)" stroke="rgb(204, 204, 204)" stroke-width="1px"></line><line x1="255.21875" y1="0" x2="255.21875" y2="5" style="visibility: inherit;" fill="rgb(0, 0, 0)" stroke="rgb(204, 204, 204)" stroke-width="1px"></line></g><g transform="translate(0, 8)"><text x="0" y="0" dx="0em" dy="0.95em" style="text-anchor: middle; visibility: hidden; font-family: &quot;Helvetica Neue&quot;, sans-serif; font-size: 12px; font-weight: 200;" fill="rgb(50, 49, 63)" stroke="none" stroke-width="1px">-20k</text><text x="28.357638888888886" y="0" dx="0em" dy="0.95em" style="text-anchor: middle; visibility: inherit; font-family: &quot;Helvetica Neue&quot;, sans-serif; font-size: 12px; font-weight: 200;" fill="rgb(50, 49, 63)" stroke="none" stroke-width="1px">0</text><text x="56.71527777777777" y="0" dx="0em" dy="0.95em" style="text-anchor: middle; visibility: hidden; font-family: &quot;Helvetica Neue&quot;, sans-serif; font-size: 12px; font-weight: 200;" fill="rgb(50, 49, 63)" stroke="none" stroke-width="1px">20k</text><text x="85.07291666666666" y="0" dx="0em" dy="0.95em" style="text-anchor: middle; visibility: inherit; font-family: &quot;Helvetica Neue&quot;, sans-serif; font-size: 12px; font-weight: 200;" fill="rgb(50, 49, 63)" stroke="none" stroke-width="1px">40k</text><text x="113.43055555555554" y="0" dx="0em" dy="0.95em" style="text-anchor: middle; visibility: hidden; font-family: &quot;Helvetica Neue&quot;, sans-serif; font-size: 12px; font-weight: 200;" fill="rgb(50, 49, 63)" stroke="none" stroke-width="1px">60k</text><text x="141.78819444444446" y="0" dx="0em" dy="0.95em" style="text-anchor: middle; visibility: inherit; font-family: &quot;Helvetica Neue&quot;, sans-serif; font-size: 12px; font-weight: 200;" fill="rgb(50, 49, 63)" stroke="none" stroke-width="1px">80k</text><text x="170.14583333333331" y="0" dx="0em" dy="0.95em" style="text-anchor: middle; visibility: hidden; font-family: &quot;Helvetica Neue&quot;, sans-serif; font-size: 12px; font-weight: 200;" fill="rgb(50, 49, 63)" stroke="none" stroke-width="1px">100k</text><text x="198.50347222222223" y="0" dx="0em" dy="0.95em" style="text-anchor: middle; visibility: inherit; font-family: &quot;Helvetica Neue&quot;, sans-serif; font-size: 12px; font-weight: 200;" fill="rgb(50, 49, 63)" stroke="none" stroke-width="1px">120k</text><text x="226.8611111111111" y="0" dx="0em" dy="0.95em" style="text-anchor: middle; visibility: hidden; font-family: &quot;Helvetica Neue&quot;, sans-serif; font-size: 12px; font-weight: 200;" fill="rgb(50, 49, 63)" stroke="none" stroke-width="1px">140k</text><text x="255.21875" y="0" dx="0em" dy="0.95em" style="text-anchor: middle; visibility: hidden; font-family: &quot;Helvetica Neue&quot;, sans-serif; font-size: 12px; font-weight: 200;" fill="rgb(50, 49, 63)" stroke="none" stroke-width="1px">160k</text></g><line x1="0" y1="0" x2="255.21875" y2="0" fill="rgb(0, 0, 0)" stroke="rgb(204, 204, 204)" stroke-width="1px"></line></g></g></g></g></svg>