<svg viewBox="0 0 330 200" xmlns="http://www.w3.org/2000/svg"><g><g><g><g><g><line x1="63.984375" y1="177" x2="58.984375" y2="177" style="visibility: inherit;" fill="rgb(0, 0, 0)" stroke="rgb(204, 204, 204)" stroke-width="1px"></line><line x1="63.984375" y1="159.3" x2="58.984375" y2="159.3" style="visibility: inherit;" fill="rgb(0, 0, 0)" stroke="rgb(204, 204, 204)" stroke-width="1px"></line><line x1="63.984375" y1="141.6" x2="58.984375" y2="141.6" style="visibility: inherit;" fill="rgb(0, 0, 0)" stroke="rgb(204, 204, 204)" stroke-width="1px"></line><line x1="63.984375" y1="123.9" x2="58.984375" y2="123.9" style="visibility: inherit;" fill="rgb(0, 0, 0)" stroke="rgb(204, 204, 204)" stroke-width="1px"></line><line x1="63.984375" y1="106.2" x2="58.984375" y2="106.2" style="visibility: inherit;" fill="rgb(0, 0, 0)" stroke="rgb(204, 204, 204)" stroke-width="1px"></line><line x1="63.984375" y1="88.5" x2="58.984375" y2="88.5" style="visibility: inherit;" fill="rgb(0, 0, 0)" stroke="rgb(204, 204, 204)" stroke-width="1px"></line><line x1="63.984375" y1="70.8" x2="58.984375" y2="70.8" style="visibility: inherit;" fill="rgb(0, 0, 0)" stroke="rgb(204, 204, 204)" stroke-width="1px"></line><line x1="63.984375" y1="53.10000000000001" x2="58.984375" y2="53.10000000000001" style="visibility: inherit;" fill="rgb(0, 0, 0)" stroke="rgb(204, 204, 204)" stroke-width="1px"></line><line x1="63.984375" y1="35.400000000000006" x2="58.984375" y2="35.400000000000006" style="visibility: inherit;" fill="rgb(0, 0, 0)" stroke="rgb(204, 204, 204)" stroke-width="1px"></line><line x1="63.984375" y1="17.69999999999999" x2="58.984375" y2="17.69999999999999" style="visibility: inherit;" fill="rgb(0, 0, 0)" stroke="rgb(204, 204, 204)" stroke-width="1px"></line><line x1="63.984375" y1="0" x2="58.984375" y2="0" style="visibility: inherit;" fill="rgb(0, 0, 0)" stroke="rgb(204, 204, 204)" stroke-width="1px"></line></g><g transform="translate(53.984375, 0)"><text x="0" y="177" dx="0em" dy="0.3em" style="text-anchor: end; visibility: hidden; font-family: &quot;Helvetica Neue&quot;, sans-serif; font-size: 12px; font-weight: 200;" fill="rgb(50, 49, 63)" stroke="none" stroke-width="1px">-1e+4</text><text x="0" y="159.3" dx="0em" dy="0.3em" style="text-anchor: end; visibility: inherit; font-family: &quot;Helvetica Neue&quot;, sans-serif; font-size: 12px; font-weight: 200;" fill="rgb(50, 49, 63)" stroke="none" stroke-width="1px">0</text><text x="0" y="141.6" dx="0em" dy="0.3em" style="text-anchor: end; visibility: hidden; font-family: &quot;Helvetica Neue&quot;, sans-serif; font-size: 12px; font-weight: 200;" fill="rgb(50, 49, 63)" stroke="none" stroke-width="1px">1e+4</text><text x="0" y="123.9" dx="0em" dy="0.3em" style="text-anchor: end; visibility: inherit; font-family: &quot;Helvetica Neue&quot;, sans-serif; font-size: 12px; font-weight: 200;" fill="rgb(50, 49, 63)" stroke="none" stroke-width="1px">2e+4</text><text x="0" y="106.2" dx="0em" dy="0.3em" style="text-anchor: end; visibility: hidden; font-family: &quot;Helvetica Neue&quot;, sans-serif; font-size: 12px; font-weight: 200;" fill="rgb(50, 49, 63)" stroke="none" stroke-width="1px">3e+4</text><text x="0" y="88.5" dx="0em" dy="0.3em" style="text-anchor: end; visibility: inherit; font-family: &quot;Helvetica Neue&quot;, sans-serif; font-size: 12px; font-weight: 200;" fill="rgb(50, 49, 63)" stroke="none" stroke-width="1px">4e+4</text><text x="0" y="70.8" dx="0em" dy="0.3em" style="text-anchor: end; visibility: hidden; font-family: &quot;Helvetica Neue&quot;, sans-serif; font-size: 12px; font-weight: 200;" fill="rgb(50, 49, 63)" stroke="none" stroke-width="1px">5e+4</text><text x="0" y="53.10000000000001" dx="0em" dy="0.3em" style="text-anchor: end; visibility: inherit; font-family: &quot;Helvetica Neue&quot;, sans-serif; font-size: 12px; font-weight: 200;" fill="rgb(50, 49, 63)" stroke="none" stroke-width="1px">6e+4</text><text x="0" y="35.400000000000006" dx="0em" dy="0.3em" style="text-anchor: end; visibility: hidden; font-family: &quot;Helvetica Neue&quot;, sans-serif; font-size: 12px; font-weight: 200;" fill="rgb(50, 49, 63)" stroke="none" stroke-width="1px">7e+4</text><text x="0" y="17.69999999999999" dx="0em" dy="0.3em" style="text-anchor: end; visibility: inherit; font-family: &quot;Helvetica Neue&quot;, sans-serif; font-size: 12px; font-weight: 200;" fill="rgb(50, 49, 63)" stroke="none" stroke-width="1px">8e+4</text><text x="0" y="0" dx="0em" dy="0.3em" style="text-anchor: end; visibility: hidden; font-family: &quot;Helvetica Neue&quot;, sans-serif; font-size: 12px; font-weight: 200;" fill="rgb(50, 49, 63)" stroke="none" stroke-width="1px">9e+4</text></g><line x1="63.984375" y1="0" x2="63.984375" y2="177" fill="rgb(0, 0, 0)" stroke="rgb(204, 204, 204)" stroke-width="1px"></line></g></g><g transform="translate(63, 0)" clip-path="url(#clip_0)"><clipPath id="clip_0"><rect width="266" height="177"></rect></clipPath><g><g><g><line x1="0" y1="0" x2="0" y2="177" fill="rgb(0, 0, 0)" stroke="rgb(60, 60, 60)" stroke-width="1px" opacity="0.25"></line><line x1="29.557291666666664" y1="0" x2="29.557291666666664" y2="177" fill="rgb(0, 0, 0)" stroke="rgb(60, 60, 60)" stroke-width="1px" opacity="0.25"></line><line x1="59.11458333333333" y1="0" x2="59.11458333333333" y2="177" fill="rgb(0, 0, 0)" stroke="rgb(60, 60, 60)" stroke-width="1px" opacity="0.25"></line><line x1="88.671875" y1="0" x2="88.671875" y2="177" fill="rgb(0, 0, 0)" stroke="rgb(60, 60, 60)" stroke-width="1px" opacity="0.25"></line><line x1="118.22916666666666" y1="0" x2="118.22916666666666" y2="177" fill="rgb(0, 0, 0)" stroke="rgb(60, 60, 60)" stroke-width="1px" opacity="0.25"></line><line x1="147.78645833333334" y1="0" x2="147.78645833333334" y2="177" fill="rgb(0, 0, 0)" stroke="rgb(60, 60, 60)" stroke-width="1px" opacity="0.25"></line><line x1="177.34375" y1="0" x2="177.34375" y2="177" fill="rgb(0, 0, 0)" stroke="rgb(60, 60, 60)" stroke-width="1px" opacity="0.25"></line><line x1="206.90104166666666" y1="0" x2="206.90104166666666" y2="177" fill="rgb(0, 0, 0)" stroke="rgb(60, 60, 60)" stroke-width="1px" opacity="0.25"></line><line x1="236.45833333333331" y1="0" x2="236.45833333333331" y2="177" fill="rgb(0, 0, 0)" stroke="rgb(60, 60, 60)" stroke-width="1px" opacity="0.25"></line><line x1="266.015625" y1="0" x2="266.015625" y2="177" fill="rgb(0, 0, 0)" stroke="rgb(60, 60, 60)" stroke-width="1px" opacity="0.25"></line></g><g><line x1="0" y1="177" x2="266.015625" y2="177" fill="rgb(0, 0, 0)" stroke="rgb(60, 60, 60)" stroke-width="1px" opacity="0.25"></line><line x1="0" y1="159.3" x2="266.015625" y2="159.3" fill="rgb(0, 0, 0)" stroke="rgb(60, 60, 60)" stroke-width="1px" opacity="0.25"></line><line x1="0" y1="141.6" x2="266.015625" y2="141.6" fill="rgb(0, 0, 0)" stroke="rgb(60, 60, 60)" stroke-width="1px" opacity="0.25"></line><line x1="0" y1="123.9" x2="266.015625" y2="123.9" fill="rgb(0, 0, 0)" stroke="rgb(60, 60, 60)" stroke-width="1px" opacity="0.25"></line><line x1="0" y1="106.2" x2="266.015625" y2="106.2" fill="rgb(0, 0, 0)" stroke="rgb(60, 60, 60)" stroke-width="1px" opacity="0.25"></line><line x1="0" y1="88.5" x2="266.015625" y2="88.5" fill="rgb(0, 0, 0)" stroke="rgb(60, 60, 60)" stroke-width="1px" opacity="0.25"></line><line x1="0" y1="70.8" x2="266.015625" y2="70.8" fill="rgb(0, 0, 0)" stroke="rgb(60, 60, 60)" stroke-width="1px" opacity="0.25"></line><line x1="0" y1="53.10000000000001" x2="266.015625" y2="53.10000000000001" fill="rgb(0, 0, 0)" stroke="rgb(60, 60, 60)" stroke-width="1px" opacity="0.25"></line><line x1="0" y1="35.400000000000006" x2="266.015625" y2="35.400000000000006" fill="rgb(0, 0, 0)" stroke="rgb(60, 60, 60)" stroke-width="1px" opacity="0.25"></line><line x1="0" y1="17.69999999999999" x2="266.015625" y2="17.69999999999999" fill="rgb(0, 0, 0)" stroke="rgb(60, 60, 60)" stroke-width="1px" opacity="0.25"></line><line x1="0" y1="0" x2="266.015625" y2="0" fill="rgb(0, 0, 0)" stroke="rgb(60, 60, 60)" stroke-width="1px" opacity="0.25"></line></g></g></g><g><g><line x1="0" y1="159.3" x2="266.015625" y2="159.3" fill="rgb(0, 0, 0)" stroke="rgb(153, 153, 153)" stroke-width="1.5px"></line></g></g><g><g><line x1="29.557291666666664" y1="0" x2="29.557291666666664" y2="177" fill="rgb(0, 0, 0)" stroke="rgb(153, 153, 153)" stroke-width="1.5px"></line></g></g><g><g><g><g><g><path stroke="rgb(255, 112, 67)" stroke-width="2px" d="M30.59623046875,157.0808625L30.597708333333333,156.9856212890625L30.732194010416666,156.9291482142857L30.853378906249997,156.82868732192097L30.88884765625,156.6809322052828L30.918404947916667,156.6824494885372L30.981953125,156.65713672268L31.00264322916667,156.57784930953076L31.03515625,156.64503465924858L31.04845703125,156.59584926528032L31.049934895833335,156.44026824079165L31.051412760416667,156.40178354667262L31.094270833333333,156.47232463456L31.109049479166668,156.5005963105986L31.809557291666668,155.64979287635956L31.816946614583337,155.15979486699186L31.898229166666667,154.90686698295355L32.12434244791667,154.62553836805017L32.19971354166667,154.39726173557116L32.27951822916667,154.33130637991042L32.365234375,154.4920146033946L32.629772135416665,154.47577529829226L32.634205729166666,154.32493961278035L32.72435546875,154.2789989249837L32.780514322916666,154.2896225101934L32.842584635416664,154.42848136798386L32.97559244791667,154.25308864127754L32.98445963541667,154.30916659420367L33.02140625,154.12915214019472L33.06130859375,154.37839596421813L33.08199869791667,154.39804633113738L33.21500651041667,154.30053904092216L33.238652343750005,154.18968691925988L33.325846354166664,154.24417727811715L33.512057291666665,154.22801949159253L33.51501302083334,154.2197186948699L33.52388020833334,154.2196499669215L33.551959635416665,153.85076285378315L33.62585286458333,153.95818596250922L33.6864453125,154.0476189526251L33.75294921875,154.08267162160317L33.803196614583335,153.97376309790948L33.9879296875,153.91682548372927L34.44606770833333,153.83956341522418L34.82440104166667,153.9000920491408L34.842135416666665,153.85180322948148L34.85248046875,153.8873021876902L34.86578125,153.80450343761225L34.972187500000004,153.77343131256694L35.018001302083334,153.61374116253887L35.15100911458333,153.60038694752325L35.3002734375,153.64591691851408L35.44362630208333,153.68923127610853L35.532298177083334,153.79276801566522L35.53377604166666,153.63930405939905L36.48995442708333,153.36106593563932L36.59044921875,153.08944968638352L36.755970052083335,152.81145206183007L36.798828125,152.81258223709804L36.837252604166665,152.69659521725882L36.89341145833333,152.6256755053553L36.93626953125,152.53958167821318L36.948092447916665,152.3808625069279L37.04563151041667,152.36143125415674L37.067799479166666,152.27352975249406L37.11952473958333,151.90922460149642L37.26287760416667,151.72708138589786L37.67224609375,151.4834082065387L37.79343098958333,151.23713292392324L38.040234375,151.02159887935395L38.20132161458333,151.05137932761235L38.22496744791667,150.6413943465674L38.42595703125,150.66501860794045L38.58556640625,150.66191353976427L38.619557291666666,150.55378412385855L38.655026041666666,150.65749897431513L38.70675130208333,150.5412897595891L38.71266276041667,150.90844448075345L38.76291015625,150.40367893845206L38.80872395833334,150.42158786307124L38.838281249999994,150.47726909284276L38.941731770833336,150.23896070570564L39.017102864583336,150.5245258609234L39.03631510416667,150.55091301655403L39.06143880208333,150.47457255993243L39.093951822916665,150.59163041095945L39.54913411458334,150.48488724657568L39.940768229166665,150.4201997229454L40.101855468749996,150.11228083376724L40.1594921875,150.24670475026034L40.243730468749995,150.4419223501562L40.35900390625,149.87972691009372L40.36048177083334,149.73370239605623L40.46245442708333,150.20781931263375L40.539303385416666,151.00870908758026L40.59694010416667,150.23322882754815L40.650143229166666,149.8253107965289L40.65753255208333,150.13744622791734L40.73142578125,150.2266031117504L40.74324869791666,149.88777674205025L40.862955729166664,149.53146442023015L41.0284765625,150.03355352713808L41.668391927083334,150.29190661628286L41.9240625,150.2835474697697L42.01421223958333,149.85240448186184L42.18416666666667,149.5066125641171L42.212246093750004,149.03153553847025L42.237369791666666,149.47765419808215L42.27875,149.4062376438493L42.41027994791667,149.09076346130956L42.444270833333334,149.32236282678574L42.528509114583336,149.51086032107145L42.55215494791667,149.64557494264287L42.6068359375,149.6203585905857L42.61865885416667,149.35545965435142L42.62604817708333,149.51622654261087L42.69846354166666,149.52821342556652L42.701419270833334,149.2568960553399L42.818170572916664,150.01556763320394L42.893541666666664,149.97158632992236L42.931966145833336,149.4220076729534L42.93935546875,149.24390522877206L43.12408854166667,149.05513701226323L43.32655598958333,149.02659270735793L43.703411458333335,148.75193112441477L43.99750651041667,148.84177079964886L44.0610546875,148.7248474797893L44.21327473958333,148.5691803628736L44.24135416666667,148.50336996772415L44.25169921875,149.4961698556345L44.46155598958333,148.9590055383807L44.48815755208333,149.3055235730284L44.489635416666665,149.91307826881706L44.519192708333335,149.52142283629024L44.566484375,149.44895982677414L44.69210286458333,149.18266114606448L44.853190104166664,149.4588993126387L45.05713541666666,149.53253583758323L45.380787760416666,149.40987312754993L45.629069010416664,150.19512375152996L45.81527994791667,150.22344225091797L45.853704427083336,149.79218085055078L46.03991536458333,150.11714788533047L46.101985677083334,149.8533109186983L46.36061197916667,150.24478180121898L46.40051432291666,149.8241890807314L46.41233723958333,150.2620449484388L46.484752604166665,149.9578495940633L46.64288411458333,149.551449506438L46.660618489583335,149.67649957886277L46.701998697916665,149.44627099731767L47.08772135416667,148.7925992233906L47.333046875,147.66622228403435L47.39363932291666,147.7051663704206L47.486744791666666,148.34902844725238L47.563593749999995,148.86079444335144L47.834042968750005,148.29382804101084L47.904980468750004,148.1594991996065L48.04685546875,148.0671092697639L48.095625,148.41377506185836L48.09858072916667,148.78377378711502L48.107447916666665,148.458411584769L48.20942057291666,147.50195045086141L48.26557942708334,148.10226964551683L48.343906249999996,147.9037164123101L48.41041015625,148.11283097238606L48.735540364583336,147.32597533343164L48.872981770833334,147.434112200059L49.038502604166666,146.9123278200354L49.60600260416666,146.76729656702122L49.65772786458333,146.95918556521275L49.68728515625,146.84076746412765L49.69171875,146.2521022284766L49.69467447916667,146.68172983708595L49.775957031249995,146.53990677725156L49.82916015625,146.89687044135093L49.991725260416665,146.72839676481055L50.025716145833336,145.96214655888633L50.101087239583336,145.2710574353318L50.217838541666666,145.6287877111991L50.276953125,146.03038212671945L50.355279947916664,145.30994115103167L50.590260416666666,144.893628690619L50.59469401041667,145.1067183393714L50.72474609375,145.13235462862283L50.75430338541666,144.6549462771737L50.89617838541667,144.19639089130422L51.08238932291666,144.08637653478254L51.17549479166667,144.3191660458695L51.36022786458334,144.3695432525217L51.39126302083333,144.75848220151303L51.482890625,145.1419636959078L51.49027994791666,144.7402068425447L51.53757161458333,144.76713073052682L51.71639322916667,144.37990206331608L51.7577734375,143.91343811298964L51.88634765625,143.5932479927938L51.93807291666667,143.99934967067628L51.955807291666666,144.24570992740576L51.97501953125,144.17510808144345L52.00457682291667,144.4387135988661L52.198177083333334,144.68342990931964L52.249902343749994,144.13584444559177L52.33266276041667,144.31787179235508L53.018391927083336,143.98947782541305L53.06716145833333,143.72015907024783L53.11888671875,143.9248029421487L53.185390625,143.81222351528922L53.646484375,143.69681948417355L53.72776692708333,143.47922894050413L53.8504296875,143.53425911430247L53.89180989583334,143.78129234358147L53.900677083333335,143.3786219061489L54.09427734375,143.33667564368932L54.134179687499994,143.2211715112136L54.17555989583334,143.07137828172816L54.36768229166666,143.0927025940369L54.98099609375,143.29537393142215L55.080013020833334,143.14574635885327L55.14799479166667,143.22639869031195L55.18346354166666,142.9757928391872L55.40957682291667,143.4274727035123L55.415488281250006,143.27144599710738L55.49233723958333,143.27894122326444L55.65342447916667,143.41780348395866L55.89431640625,143.3460467153752L55.941608072916665,143.39111652922512L55.991855468749996,143.45935516753508L56.042102864583335,143.13943960052103L56.118951822916664,143.54982126031263L56.25639322916666,143.45220563118758L56.36575520833333,143.33973975371254L56.379055989583335,143.04972697722752L56.519453125,142.93076631133653L56.566744791666665,143.2615781618019L56.656894531249996,143.20604814708116L56.73669921875,143.10938626324867L56.98645833333334,142.99629788294922L57.02192708333333,143.10582097976953L57.264296875,142.9715469628617L57.63080729166667,143.20648505271703L57.749036458333336,143.00789553163023L57.76529296875,143.21059419397812L57.815540364583335,143.07910339138687L58.00322916666667,142.78362728483214L58.13032552083334,142.9564033708993L58.696347656250005,142.95493102253957L59.000787760416664,142.92940036352374L59.01704427083333,142.70772209311423L59.14857421875,142.67363600586856L59.256458333333335,142.97605447852112L59.32000651041667,142.79317318711267L59.38946614583334,142.7367103497676L59.39685546875,142.95874145986056L59.411634114583336,143.06071962591633L59.46188151041667,142.9389549005498L59.56680989583333,142.79814931532988L59.81361328125,142.92217196419793L59.81656901041667,142.97808905351877L60.177167968750005,142.92875905711125L60.38259114583333,143.17574568426676L60.580625000000005,143.07965553556005L60.701809895833335,142.99671257133605L60.72841145833333,142.85747329280161L60.77422526041667,142.88347060068097L60.92053385416666,142.72709136040856L61.00329427083334,142.51912094124515L61.00772786458334,142.7515357522471L61.009205729166666,142.87460107634826L61.01955078125,142.96445877080896L61.145169270833335,143.00616038748538L61.20723958333333,143.2739368574912L61.2633984375,142.91844861449474L61.30034505208333,143.03756166869684L61.387539062500004,142.9727616262181L61.49246744791667,142.96377247573088L61.563404947916666,142.79182198543853L61.67867838541667,142.9156320662631L61.79247395833333,142.62100586475788L61.87227864583333,143.0001207688547L62.017109375,142.81706033631284L62.02893229166667,142.6712267017877L62.425,142.7748201460726L62.61268880208333,142.79254921264356L62.64372395833333,142.79798727758615L62.67475911458334,142.83395086655167L62.71613932291667,143.03210864493101L62.753085937499996,142.99426981195862L62.76638671875,143.20467551217516L62.97328776041667,143.1700038073051L63.0013671875,142.98361728438306L63.060481770833334,142.81049912062983L63.110729166666665,142.83714359737792L63.12402994791667,142.78056028342672L63.215657552083336,142.61337354505605L63.291028645833336,142.37836450203363L63.322063802083335,142.52429820122018L63.38265625,142.5245089207321L63.387089843750005,142.89509635243925L63.63241536458334,142.92538168646357L63.65606119791667,142.96437251187814L63.669361979166666,142.74313088212688L63.71517578125,142.89143977927614L63.811236979166665,142.9054877425657L64.27528645833333,142.7204776455394L64.31075520833333,142.74615983732366L64.46149739583333,142.8517064023942L64.47775390625,142.7001342164365L64.48366536458333,142.5516880298619L64.56051432291666,142.54233669291716L64.79106119791666,142.72104926575028L64.84722005208333,142.6785790594502L64.85017578125,142.6144666856701L64.89303385416666,142.54982538640206L64.99057291666666,142.50712448184123L65.30240234375,142.80970618910476L65.32309244791666,142.76418633846285L65.37038411458333,142.69333242807772L65.37925130208333,142.82096133184663L65.42358723958334,142.76894817410798L65.82852213541666,142.7424971544648L66.14774088541667,142.68746529267887L66.237890625,142.63318405060733L66.255625,142.6717693053644L66.42262369791666,142.62294783321863L66.51425130208332,142.55444944993118L66.56893229166667,142.7086256699587L66.61326822916666,142.56744715197522L66.66647135416667,142.67328054118514L66.7433203125,142.7853006997111L66.7787890625,142.53959891982663L66.90440755208333,142.608693101896L67.01229166666666,142.8087194861376L67.0448046875,142.84417356668257L67.06697265625,142.78486676500953L67.27387369791666,142.81915343400573L67.3285546875,143.08002506040344L67.39801432291667,142.81407116124205L67.48668619791667,142.93398182174525L67.98324869791666,142.89014809304715L68.03054036458333,142.75831160582828L68.08522135416666,142.57630633849698L68.09408854166668,142.4694484280982L68.27882161458334,142.4581681818589L68.3394140625,142.62209440911533L68.43695312499999,142.5955323954692L68.44434244791667,142.7255980622815L68.46059895833334,142.5257474623689L68.51527994791667,142.75642985242135L68.51823567708333,142.79162616145283L68.65272135416667,142.8490731968717L68.71331380208333,142.82533054312302L68.71626953125,142.6629138258738L68.73991536458334,142.6660219205243L68.82563151041667,142.82866915231457L68.83302083333334,142.66086811638874L69.04731119791667,142.81247886983323L69.08869140624999,142.75750882189993L69.09755859375,142.65992179313997L69.28081380208333,142.65400495088397L69.64732421874999,142.4742734705304L69.86752604166666,142.80285020731822L69.95472005208333,142.87257837439094L70.00644531249999,142.79558189963456L70.01235677083334,143.08156876478074L70.10250651041667,142.93878675886845L70.18083333333334,142.92316530532105L70.23551432291666,143.04749380819263L70.24733723958333,142.87822915991558L70.27985026041667,142.70715362094936L70.30054036458334,142.5092601725696L70.32861979166667,142.47897985354177L70.46458333333334,142.56495403712506L70.848828125,142.59596229727504L70.86508463541666,142.660498753365L70.9375,142.778782127019L70.955234375,142.5666406512114L70.97444661458334,142.76010189072684L71.13110026041666,142.5744821344361L71.18578125,142.96742753066167L71.27297526041666,142.748105643397L71.46805338541667,142.7596170110382L71.54638020833333,142.5199185816229L71.59662760416667,142.52201389897374L71.983828125,142.68816871438423L72.04885416666667,142.72097772863054L72.09614583333334,142.61045751217833L72.11388020833333,142.601404882307L72.16264973958334,142.6337406793842L72.20255208333333,142.50012565763052L72.34294921875001,142.4568832695783L72.36216145833333,142.730930711747L72.60748697916667,142.5014899270482L72.70354817708333,142.68032358122892L72.84985677083334,142.66155552373735L72.90158203125,142.5066813142424L73.01981119791667,142.79658566354544L73.154296875,142.66186239812725L73.25774739583333,142.58452418887637L73.30651692708334,142.6109899508258L73.72770833333333,142.6542712204955L73.74544270833333,142.8095827322973L73.80603515624999,142.79957863937838L73.84150390625,142.75419368362702L73.88436197916667,142.6677562101762L73.92722005208334,142.74087785110572L73.95234375000001,142.80545983566344L73.95529947916667,142.60298015139807L73.95677734375,142.76708184083884L74.00702473958333,142.91941722950332L74.06761718749999,142.864483712702L74.2715625,142.9567732276212L74.29373046875,143.0444936865727L74.70901041666667,143.21356983694363L74.74152343749999,142.95497540216618L74.87305338541667,143.6849293662997L74.90852213541666,143.77412324477982L74.96615885416666,143.8942136968679L75.05335286458333,144.67057309312074L75.26173177083334,144.08390248087244L75.44350911458334,145.00711873852347L75.459765625,145.72386636811407L75.47158854166668,146.07601282086844L75.57799479166667,146.53691494252107L75.73169270833333,146.13207259051265L75.75829427083333,146.0070934293076L75.88982421875,145.99617993258454L75.99623046875,145.91354395955074L76.09229166666667,146.13813537573043L76.13219401041665,146.06803485043827L76.15288411458333,145.89264928526296L76.26372395833333,145.60532919615778L76.36274088541667,145.62803539269467L76.58146484375,145.7157778606168L76.75880859374999,145.29552359137008L76.81940104166667,144.94869815482204L76.91841796875,144.76290489289323L77.01300130208334,144.65078731073595L77.04847005208333,144.44704976144158L77.22876953125,144.37292910686494L77.38098958333333,144.18420171411896L77.62631510416668,144.06428352847138L77.63370442708333,144.26409399208285L77.71498697916667,144.2702798952497L77.73419921875,144.11221343714982L77.871640625,144.17185031228988L77.92484375,144.46302131237394L78.4125390625,144.18345341242437L78.46869791666667,144.3023420474546L78.6785546875,144.02317097847276L78.687421875,144.06547971208366L78.76131510416667,144.1931709522502L78.92092447916666,144.1448236963501L78.93718098958334,144.51271571781007L78.98447265625,144.36214918068606L79.02585286458334,144.47566900841161L79.33768229166667,145.10380890504698L79.41600911458333,144.5597397180282L79.49285807291668,144.2068145808169L79.5209375,145.43300749849016L79.6007421875,146.8282252490941L79.67906901041667,146.89502977445645L79.79729817708332,146.22051923967388L79.9465625,147.17663316880433L79.97020833333333,148.43086652628259L80.18449869791667,148.01823766576956L80.20666666666666,147.86637309946173L80.24804687500001,147.95415710967706L80.26873697916666,147.7848252658062L80.27169270833333,147.12299903448374L80.56135416666667,146.72495192069024L80.60125651041668,146.81045402741415L80.68106119791666,146.4885507914485L80.72096354166668,146.0400199748691L80.79485677083333,145.97799148492146L81.00914713541667,145.95243426595286L81.14658854166667,145.52617230957173L81.15693359375,145.63016763574302L81.33871093750001,145.22900183144583L81.36826822916667,145.3182745988675L81.37861328125,145.17904100932049L81.44955078125,144.7685376055923L81.45546223958334,144.9509959383554L81.578125,144.85999631301323L81.61507161458333,144.71950728780794L82.00966145833334,144.79601837268476L82.05547526041667,144.57399127361086L82.33922526041667,144.30718426416652L82.5091796875,144.2079216834999L82.52100260416667,144.76242138509994L82.52839192708333,145.24304895605997L82.55055989583333,146.71336512363598L82.59637369791668,147.1794720741816L82.71903645833333,146.22374261950895L82.77667317708334,147.03504232170536L82.82987630208333,147.74674489302322L83.04564453124999,147.21150593581393L83.11067057291667,147.23721618648835L83.1121484375,147.156575586893L83.1476171875,147.1394538521358L83.18456380208333,147.7298303112815L83.39885416666667,147.3462095617689L83.42102213541666,147.83397123706135L83.43727864583335,148.3947168672368L83.5023046875,148.6550542453421L84.15552083333333,148.02002242220524L84.32990885416667,147.46875145332314L84.39345703125,146.4156518719939L84.54124348958334,146.11648574819634L84.7437109375,146.0863298239178L84.752578125,146.24636464435068L84.79839192708333,146.5266867866104L84.86785156250001,146.30784744696624L84.87967447916667,146.12136409317975L84.93583333333333,146.37984658090784L84.98460286458334,145.7815134485447L85.03337239583334,145.82547619412682L85.036328125,145.9168349664761L85.19002604166667,145.76263535488567L85.25061848958333,145.4124699629314L85.28904296875,145.44160835275883L85.30382161458334,145.3193720116553L85.77082682291666,145.3168744569932L85.86245442708334,144.7399710491959L85.97181640625,144.27185387951755L86.10925781249999,144.00775432771053L86.17428385416666,143.9447418466263L86.19645182291667,143.9806106079758L86.20827473958333,143.88991386478546L86.23044270833333,144.14482544387127L86.43438802083334,144.05134414132277L86.43586588541666,143.93295135979366L86.46246744791668,143.77228731587618L86.64572265625,144.19118013952573L86.66641276041666,144.33470070871545L87.06986979166666,145.18144842522926L87.18514322916667,144.60681018013756L87.395,144.20709085808252L87.696484375,144.30822763984952L87.79550130208334,144.03163620890973L87.91373046875,144.27300260034582L88.02604817708334,143.9301874352075L88.06151692708333,143.7922672111245L88.18861328125,143.9715635766747L88.21078125,143.92975339600483L88.2905859375,144.06604703760289L88.35265625,144.55430372256174L88.40142578125,144.56547373353703L88.77680338541667,144.31548149012224L88.78271484375,144.55139039407334L88.80340494791666,144.396372236444L88.88764322916667,144.1791737168664L89.13296875,144.10558310511985L89.17139322916667,144.1147942380719L89.27188802083333,144.16709316784315L89.4787890625,144.24876265070588L89.76106119791666,144.16072209042355L89.77288411458333,143.85998712925414L89.8334765625,143.73448252755247L90.02412109375,143.83190964153147L90.02559895833333,143.6293351599189L90.05072265625,143.24217984595134L90.21919921875,143.4559045325708L90.24727864583333,143.5806435945425L90.28274739583334,143.8642806567255L90.47486979166666,143.8411788940353L90.47634765625,143.89628146142118L90.55467447916666,143.7088010018527L90.88571614583333,143.83382460111164L90.99655598958333,144.207083760667L91.07783854166667,144.4924140064002L91.36897786458334,144.25991940384012L91.60248046875,143.99417739230407L91.704453125,143.95792418538244L91.7133203125,144.30406676122948L91.75470052083334,144.2225785567377L91.84780598958332,144.67435225904262L91.89509765624999,144.16551023042558L91.94238932291665,144.13953313825533L91.9793359375,143.9615051329532L92.03697265625,144.38132970477193L92.06209635416666,144.37199457286317L92.1566796875,144.3315023687179L92.21727213541666,144.65010029623073L92.22022786458334,144.34913267773845L92.43008463541666,144.13288660664307L92.49954427083333,143.86848621398585L92.62664062500001,144.4550381033915L93.11581380208334,145.1138651120349L93.16458333333333,144.78600569222095L93.29759114583334,145.57484816533255L93.32862630208332,145.49480739919954L93.36557291666666,145.6191809395197L93.63011067708334,145.43514168871184L93.78085286458334,145.26137426322708L93.85474609375,145.80796493293627L94.06312500000001,145.31444020976176L94.23603515625,145.40504825085705L94.44736979166666,145.49195895051423L94.45328124999999,145.33396212030854L94.58481119791666,145.41923939718512L94.59220052083333,145.62791363831107L94.66166015625,146.14884593298663L94.68530598958334,145.366372684792L94.69121744791667,145.7816453608752L94.76806640625,146.59674434152512L94.82422526041667,146.97458135491507L95.06955078125,146.64422031294905L95.12718749999999,146.07693656276942L95.2424609375,146.63816006266165L95.43606119791666,146.595472537597L95.53655598958333,146.0275541475582L95.65035156249999,145.82090273853493L96.04346354166667,146.28408726812094L96.10553385416667,146.07768173587257L96.10996744791666,146.21548866652353L96.17647135416667,146.03926607491414L96.21046223958334,146.08893851994847L96.24297526041666,146.48510986196908L96.28583333333333,146.29077779218144L96.49421223958333,146.25920492530886L96.5193359375,146.31725620518532L96.6966796875,146.2684987231112L96.811953125,146.49556235886672L96.88584635416666,146.22113841532004L96.95678385416667,146.160383049192L97.01146484375,145.7997322045152L97.70458333333333,146.20901457270912L97.77552083333335,146.14027624362546L97.80360026041666,145.8458789961753L97.89966145833333,145.63514602270516L98.05927083333334,145.4736823636231L98.124296875,145.29496379317385L98.14942057291667,145.63808702590433L98.18193359375,145.96518384054258L98.27356119791668,145.85883830432556L98.44203776041667,146.50754448259534L98.45386067708334,145.8252986895572L98.56913411458332,146.11669421373432L98.67110677083333,145.4193861532406L98.78342447916665,145.67475181694437L98.79968098958334,146.5685613401666L98.80115885416667,146.58473255409996L98.81889322916668,147.05271040745998L99.01692708333334,147.122513119476L99.19870442708333,147.0715361216856L99.23565104166667,146.84282054801136L99.38787109375,146.2360765788068L99.49279947916668,145.9243115722841L99.54452473958334,146.48184731837046L99.57999348958333,146.55560351602227L99.69674479166666,146.77236585961336L99.7469921875,146.16110301576802L99.80315104166667,145.7709149344608L99.86669921875,145.3961313356765L99.98640625,145.3239900514059L100.26424479166666,144.68775528084353L100.2790234375,144.5546330435061L100.37212890625001,145.25933432610367L100.40168619791666,145.3079770956622L100.45784505208334,145.55007163239733L100.64848958333333,145.58202622943838L100.6514453125,144.73679736266303L100.67509114583333,145.0853886675978L101.02830078125,145.1796262005587L101.27805989583334,145.2318764703352L101.28249348958333,144.74116513220113L101.30466145833333,144.97891095432067L101.36377604166667,144.7511859475924L101.600234375,144.25851544355544L101.72880859375,144.29717764113326L101.78644531249999,144.21065708467995L101.813046875,144.76050050080798L101.93275390625,144.61323667548479L102.07167317708334,144.73867225529088L102.07462890625,144.62005222817453L102.08645182291667,144.7901312119047L102.14704427083333,144.98463897714282L102.17069010416667,144.6684680112857L102.31699869791667,145.0129735567714L102.36429036458334,144.27396588406285L102.37906901041666,144.7015119054377L102.47513020833334,145.06308901826262L102.57710286458332,145.01539816095757L102.66281901041665,145.51919964657455L102.71454427083333,145.07478391294472L102.99681640624999,145.83382734776683L103.06184244791666,145.7878124086601L103.18598307291666,145.29489257019605L103.50224609375,145.66691741711765L103.55692708333333,146.42799107527057L103.72097005208333,146.22347389516236L103.88944661458333,146.26734271209742L103.95742838541666,146.38085862725845L104.05940104166667,145.92091080135506L104.13329427083333,145.82506173081305L104.21162109375,145.85260078848782L104.22935546875,144.87356559809268L104.23083333333334,145.99045535885563L104.24708984374999,145.87634646531336L104.69783854166667,145.27756700418803L104.88404947916666,145.8192072025128L104.99193359375,145.7326441965077L105.10425130208333,144.98441051790462L105.12789713541667,145.43710831074276L105.29194010416667,145.80107673644565L105.37026692708334,146.0631104168674L105.55056640625,145.70464112512045L105.71165364583334,145.57091317507226L105.82249348958334,146.42081140504337L105.9185546875,146.923891593026L105.94072265625,146.9884490808156L105.96732421875,146.43921169848937L105.998359375,145.63179139409363L106.16240234375,145.61074733645617L106.19195963541667,146.0048669018737L106.19491536458332,146.1900307661242L106.24072916666667,146.34787920967455L106.28654296875,145.6059314008047L106.47423177083333,145.81705659048282L106.73581380208333,146.3907230792897L106.849609375,145.68265797257382L106.91906901041666,146.2867862835443L107.00626302083333,146.01609002012657L107.01069661458332,146.24309438707593L107.02399739583333,146.67006375724557L107.1865625,146.76993225434734L107.80135416666667,146.0168481026084L107.81169921875,146.23319473656505L107.86342447916667,146.25270959193904L107.8959375,146.3777427551634L107.90184895833333,146.02586077809804L107.91514973958333,145.71076621685881L107.92253906250001,146.1408333551153L108.01712239583334,145.23080638806917L108.40727864583333,145.63753695784152L108.4900390625,146.2659307997049L108.63634765625,145.91288635482294L108.63782552083335,146.62298631289377L108.92748697916666,146.70219266273625L108.97034505208333,146.72141859764176L109.01615885416668,146.78143003358505L109.20089192708333,146.28123752015102L109.58218098958334,146.2449847620906L109.79203776041668,146.66659598225436L109.8023828125,146.26813633935262L109.8555859375,146.2366373036116L109.88662109375001,146.42299150716696L109.8910546875,145.68352252930015L109.90287760416666,145.8291183925801L109.94130208333333,145.87618628554804L110.14968098958333,145.75428677132885L110.20140625,145.4831283127973L110.21322916666668,146.26335648767838L110.2280078125,145.59161339260703L110.33589192708332,146.1295437855642L110.39352864583334,145.77649389633854L110.44673177083334,146.37680633780312L110.51619140625,146.38737455268188L110.86348958333333,146.58538435660913L111.31128255208334,146.70288486396547L111.55365234375,146.28703341837928L112.09159505208333,146.56892080102756L112.169921875,146.07005523061653L112.25859375,146.25002976336992L112.30736328125,146.57908748302196L112.382734375,146.63235561481318L112.53052083333334,146.0007213688879L112.53643229166667,145.81413982133273L112.74185546875,145.50346414279966L112.79358072916666,145.93731098567977L112.9058984375,146.05743509140785L112.91180989583333,146.0944635548447L112.93397786458334,146.10807400790682L113.27093098958333,145.8374431547441L113.38324869791666,145.55662951784646L113.42462890625,146.30159408570788L113.67291015625,146.53409307642474L113.77931640625,146.37384297085484L113.90050130208334,146.2100125325129L113.96404947916668,146.54153664450774L114.07784505208333,146.04800498670465L114.27144531249999,146.8619857420228L114.29656901041666,147.15069607021368L114.53154947916667,147.0165396421282L114.61578776041667,146.39595241027692L114.71332682291667,146.67210594616614L114.72219401041666,146.6981893176997L114.92909505208333,146.0920383406198L115.45521484375,146.0527666293719L115.81729166666666,145.42970460262313L115.95916666666668,145.6873148865739L116.37001302083333,145.49106705694433L116.53701171875,145.5696777341666L116.60055989583333,145.91340764049997L116.73947916666665,145.78376595929998L116.82815104166667,145.89249470058L116.83258463541667,145.496757570348L116.89465494791666,145.7483220422088L116.99514973958334,146.02747510032526L117.06165364583333,145.81662943519518L117.27594401041667,146.0304930361171L117.37052734375,145.82693619667026L117.47102213541667,146.18743684300216L117.56560546875001,145.6123038558013L117.81536458333333,146.39307681348077L118.45232421875,145.97505821308846L118.518828125,146.01824405285308L118.5454296875,145.55344518171185L118.77893229166668,146.19611635902712L118.89568359375001,146.29969169041627L118.90159505208334,145.96141863924976L118.908984375,145.67137080854985L118.94593098958333,145.94519636012993L118.9533203125,145.53968444107795L119.00356770833334,145.75425416464677L119.03460286458333,145.95808824878804L119.086328125,146.09142907427284L119.16761067708333,146.3142946945637L119.33313151041668,146.0585698167382L119.37746744791667,145.94164114004292L120.01294921875,145.74649980902575L120.04989583333334,145.74455351041544L120.18881510416666,145.37290260624928L120.33364583333334,145.60258956374958L120.55828125,145.42848348824975L120.753359375,145.37490734294983L121.09622395833333,144.9045317807699L121.24844401041666,145.21837606846194L121.2942578125,145.24736051607715L121.30903645833334,145.14704618464629L121.37258463541667,145.46822621078778L121.53662760416667,145.65257097647267L121.69771484375,145.4809070858836L121.70953776041667,145.67646350153015L121.75239583333332,145.69259760091808L121.7730859375,146.39187006055084L121.78047526041667,145.56378266133052L122.11003906250001,145.4746939717983L122.13368489583333,144.92300788307898L122.46177083333333,145.0517316048474L122.70118489583332,145.48130646290844L122.93912109375,145.22099450274507L122.94503255208333,145.13558520164705L123.22139322916667,145.2479097459882L123.36326822916666,145.55199772259294L123.38986979166667,145.55198563355577L123.7859375,145.57607250513345L123.80071614583333,145.00832737808008L123.93372395833333,144.99796230184805L123.96032552083334,145.15633113110883L124.25146484375,145.5672089286653L124.38890625,145.30890948219917L124.62979817708333,145.06319518931952L124.67856770833333,144.8606532385917L124.70073567708333,145.38373994315504L124.80861979166667,145.24858721589302L124.88694661458334,144.21492582953582L124.99483072916667,144.48506112272148L125.04360026041667,143.98980854863288L125.15739583333334,143.66285462917975L125.31700520833333,143.87022015250784L125.50321614583333,143.4448995915047L125.77514322916667,143.50180250490283L125.87859375000001,143.66690212794168L125.88893880208333,143.426652901765L125.91701822916667,143.20586236605902L126.18598958333332,143.5256230446354L126.26579427083334,143.20305107678124L126.36185546875,143.20387602106874L126.42392578125,143.01887498764125L126.58057942708332,142.77496949258475L126.73132161458334,142.54337857055086L126.75644531249999,142.5362005173305L126.93378906250001,142.6895343103983L126.94265625,142.59163571123898L126.98994791666667,142.4270948017434L127.10669921875,142.46742588104604L127.35202473958333,142.45142340362764L127.41557291666666,142.11328779217658L127.44660807291666,142.10240717530596L127.52493489583333,141.84998155518358L127.85893229166666,141.94075068311014L128.14268229166666,141.73834090986608L128.19588541666667,141.59583204591965L128.21657552083335,141.6503558525518L128.33184895833332,142.1871218865311L128.50623697916666,142.22560538191865L128.63185546875,142.3078134791512L128.64811197916666,142.2948785874907L128.72939453125,142.12521796499442L129.06339192708333,141.81634265399666L129.15206380208335,141.99402234239798L129.29837239583333,141.5063747804388L129.43581380208335,141.79020886826328L129.54665364583335,141.74366219595797L129.91168619791668,141.5063653175748L129.96784505208333,141.55081069054486L130.15553385416666,141.73797266432692L130.19248046875,141.53242209859616L130.24568359375,141.4642493841577L130.57524739583334,141.6197715054946L130.62697265625,141.59064502829676L130.64027343749999,141.55044676697807L130.65209635416667,141.44090318518684L130.6757421875,141.2729816611121L130.88116536458332,141.27780924666726L131.01860677083332,141.73351604800035L131.15752604166667,141.57822400380022L131.63783203125,141.64558777728013L131.95113932291667,141.29333154136808L132.067890625,141.44816867482083L132.24227864583335,141.1875798298925L132.24671223958333,141.3204002729355L132.44326822916665,141.2593111637613L132.55854166666666,141.05196332325679L132.56149739583333,141.39295399395405L132.599921875,141.52546514637243L132.62800130208333,140.96916571282347L132.91914062499998,141.03657867769408L133.37432291666667,141.03286495661644L133.43491536458333,140.99554647396985L133.451171875,140.96996938438193L133.6728515625,141.01181625562916L133.81916015625,141.20235300337748L133.96842447916666,141.1118196770265L133.98024739583332,141.2898785562159L134.10734374999998,140.84573500872955L134.37927083333335,140.61887475523773L134.48567708333331,140.79534060314265L134.67927734375,140.65912836188556L134.798984375,140.85159614213134L134.81967447916665,140.98718843527882L135.29259114583334,140.77523268616727L135.38274088541667,140.90632436170037L135.80541015625,140.98258986702024L136.25172526041666,140.58569429521214L136.33448567708334,140.61099932712727L136.57833333333335,140.63056309627638L136.61823567708333,139.40673073276582L136.85026041666669,139.0282676896595L136.856171875,139.3655101137957L137.18869140625,139.09214594327742L140.02619140625,138.36440456596645L141.81588541666667,137.43751398957988L142.39373046875,137.46561239374793L144.86028645833335,136.67282918624875L146.03666666666666,135.16847951174924L146.13863932291665,134.24356770704955L146.32485026041667,130.74853999922973L147.55295572916668,128.90142524953785L147.79236979166666,126.97674389972269L150.72297526041666,123.51308071483362L152.13876953124998,119.54936817890018L152.15650390624998,125.0417554073401L153.41268880208335,119.67843624440407L155.85559895833333,115.52993362164244L157.76352213541668,112.52350529798547L159.53843750000001,110.35724080379127L159.56947265624999,109.53777160727476L162.00942708333335,103.49826846436487L164.805546875,110.47040607861892L166.8745572916667,108.55867152217135L167.08145833333333,109.2816136633028L168.69676432291666,102.05583669798168L169.31155598958333,104.84147876878902L171.18696614583334,106.54552051127341L171.89634114583333,103.21069230676405L172.66335286458335,99.86072350905842L177.26246744791666,100.15262723043506L180.5270703125,96.85941021326103L186.12374348958335,95.78730837795662L187.66663411458333,97.86986940177398L188.17058593750002,94.38321789106439L190.09919921875002,91.82407973463863L194.08795572916665,85.55997546578318L194.71900390625,82.8138644044699L195.91459635416666,84.57063789268194L196.79540364583335,80.85745036060916L199.32994140625,76.49193096636549L202.00635416666668,72.90128757981931L212.56421875,75.52968492289158L212.7504296875,71.66304407873494L212.8627473958333,67.31417494724097L215.17264973958333,63.244868968344576L218.47419921875002,63.139220756006765L220.17374348958333,66.54797445360406L230.7596875,62.448826547162426L232.83017578125,55.10460242829744L233.99621093750002,47.49394758197846L235.81102864583335,51.625932049187085L237.90072916666665,50.114856854512254L238.15048828125,45.43857636270735L239.34903645833333,43.23376731762443L240.61556640625,39.93317239057467L248.66845052083335,41.96040518434478L252.6173046875,36.97878011060686L253.12864583333334,38.55952469136412L254.32719401041666,36.21882468981849L256.70951171875,45.40606256389111" style="fill: none;" fill="none"></path></g></g></g></g><g opacity="0.2"><g><g><g><path stroke="rgb(255, 112, 67)" stroke-width="2px" d="M30.59623046875,157.0808625L30.597708333333333,156.9284765625L30.732194010416666,156.8749340625L30.853378906249997,156.71054531250002L30.88884765625,156.488023125L30.918404947916667,156.6845484375L30.981953125,156.62093906249999L31.00264322916667,156.4622475L31.03515625,156.74412L31.04845703125,156.5228146875L31.049934895833335,156.2083078125L31.051412760416667,156.34426593749998L31.094270833333333,156.5779059375L31.109049479166668,156.5429484375L31.809557291666668,154.3745878125L31.816946614583337,154.4251434375L31.898229166666667,154.5275821875L32.12434244791667,154.203616875L32.19971354166667,154.0548815625L32.27951822916667,154.232379375L32.365234375,154.733068125L32.629772135416665,154.451416875L32.634205729166666,154.0986890625L32.72435546875,154.2100884375L32.780514322916666,154.3055578125L32.842584635416664,154.6367690625L32.97559244791667,153.99L32.98445963541667,154.3932834375L33.02140625,153.859130625L33.06130859375,154.7522615625L33.08199869791667,154.427521875L33.21500651041667,154.154278125L33.238652343750005,154.02340875L33.325846354166664,154.3259128125L33.512057291666665,154.2037828125L33.51501302083334,154.2072675L33.52388020833334,154.219546875L33.551959635416665,153.2974321875L33.62585286458333,154.119320625L33.6864453125,154.1817684375L33.75294921875,154.135250625L33.803196614583335,153.8104003125L33.9879296875,153.8314190625L34.44606770833333,153.7236703125L34.82440104166667,153.990885L34.842135416666665,153.77937L34.85248046875,153.94055062500001L34.86578125,153.6803053125L34.972187500000004,153.726823125L35.018001302083334,153.3742059375L35.15100911458333,153.580355625L35.3002734375,153.714211875L35.44362630208333,153.7542028125L35.532298177083334,153.948073125L35.53377604166666,153.409108125L36.48995442708333,152.94370874999998L36.59044921875,152.6820253125L36.755970052083335,152.394455625L36.798828125,152.8142775L36.837252604166665,152.5226146875L36.89341145833333,152.5192959375L36.93626953125,152.4104409375L36.948092447916665,152.14278375L37.04563151041667,152.332284375L37.067799479166666,152.14167750000001L37.11952473958333,151.362766875L37.26287760416667,151.4538665625L37.67224609375,151.1178984375L37.79343098958333,150.86772L38.040234375,150.6982978125L38.20132161458333,151.09605L38.22496744791667,150.026416875L38.42595703125,150.700455L38.58556640625,150.6572559375L38.619557291666666,150.39159L38.655026041666666,150.81307125L38.70675130208333,150.3669759375L38.71266276041667,151.4591765625L38.76291015625,149.646530625L38.80872395833334,150.44845125L38.838281249999994,150.5607909375L38.941731770833336,149.881498125L39.017102864583336,150.95287359374998L39.03631510416667,150.59049375L39.06143880208333,150.36006187499999L39.093951822916665,150.7672171875L39.54913411458334,150.3247725L39.940768229166665,150.3231684375L40.101855468749996,149.65040249999998L40.1594921875,150.44834062500001L40.243730468749995,150.73474875L40.35900390625,149.03643375000001L40.36048177083334,149.514665625L40.46245442708333,150.9189946875L40.539303385416666,152.21004375L40.59694010416667,149.0700084375L40.650143229166666,149.21343375L40.65753255208333,150.60564937499998L40.73142578125,150.3603384375L40.74324869791666,149.3795371875L40.862955729166664,148.9969959375L41.0284765625,150.7866871875L41.668391927083334,150.67943625L41.9240625,150.27100875L42.01421223958333,149.20569L42.18416666666667,148.9879246875L42.212246093750004,148.31892L42.237369791666666,150.1468321875L42.27875,149.2991128125L42.41027994791667,148.6175521875L42.444270833333334,149.669761875L42.528509114583336,149.7936065625L42.55215494791667,149.847646875L42.6068359375,149.5825340625L42.61865885416667,148.95811125L42.62604817708333,149.757376875L42.69846354166666,149.54619375L42.701419270833334,148.84992L42.818170572916664,151.153575L42.893541666666664,149.905614375L42.931966145833336,148.5976396875L42.93935546875,148.9767515625L43.12408854166667,148.7719846875L43.32655598958333,148.98377625L43.703411458333335,148.33993875L43.99750651041667,148.9765303125L44.0610546875,148.5494625L44.21327473958333,148.3356796875L44.24135416666667,148.404654375L44.25169921875,150.9853696875L44.46155598958333,148.1532590625L44.48815755208333,149.825300625L44.489635416666665,150.8244103125L44.519192708333335,148.93393968750001L44.566484375,149.3402653125L44.69210286458333,148.783213125L44.853190104166664,149.8732565625L45.05713541666666,149.642990625L45.380787760416666,149.2258790625L45.629069010416664,151.3729996875L45.81527994791667,150.26592L45.853704427083336,149.14528875L46.03991536458333,150.6045984375L46.101985677083334,149.45755546875L46.36061197916667,150.831988125L46.40051432291666,149.1933L46.41233723958333,150.91882875L46.484752604166665,149.5015565625L46.64288411458333,148.941849375L46.660618489583335,149.8640746875L46.701998697916665,149.100928125L47.08772135416667,147.8120915625L47.333046875,145.976656875L47.39363932291666,147.76358249999998L47.486744791666666,149.31482156250001L47.563593749999995,149.6284434375L47.834042968750005,147.4433784375L47.904980468750004,147.9580059375L48.04685546875,147.928524375L48.095625,148.93377375L48.09858072916667,149.338771875L48.107447916666665,147.97036828125L48.20942057291666,146.06725875L48.26557942708334,149.0027484375L48.343906249999996,147.6058865625L48.41041015625,148.4265028125L48.735540364583336,146.145691875L48.872981770833334,147.5963175L49.038502604166666,146.12965125L49.60600260416666,146.5497496875L49.65772786458333,147.2470190625L49.68728515625,146.6631403125L49.69171875,145.369104375L49.69467447916667,147.32617125L49.775957031249995,146.3271721875L49.82916015625,147.4323159375L49.991725260416665,146.47568625L50.025716145833336,144.81277125L50.101087239583336,144.23442375L50.217838541666666,146.165383125L50.276953125,146.63277375L50.355279947916664,144.2292796875L50.590260416666666,144.26916L50.59469401041667,145.4263528125L50.72474609375,145.17080906249998L50.75430338541666,143.93883375000001L50.89617838541667,143.5085578125L51.08238932291666,143.921355L51.17549479166667,144.6683503125L51.36022786458334,144.4451090625L51.39126302083333,145.341890625L51.482890625,145.7171859375L51.49027994791666,144.1375715625L51.53757161458333,144.80751656249998L51.71639322916667,143.7990590625L51.7577734375,143.2137421875L51.88634765625,143.1129628125L51.93807291666667,144.6085021875L51.955807291666666,144.6152503125L51.97501953125,144.0692053125L52.00457682291667,144.834121875L52.198177083333334,145.050504375L52.249902343749994,143.31446625L52.33266276041667,144.5909128125L53.018391927083336,143.496886875L53.06716145833333,143.3161809375L53.11888671875,144.23176875000001L53.185390625,143.643354375L53.646484375,143.5237134375L53.72776692708333,143.152843125L53.8504296875,143.61680437500002L53.89180989583334,144.1518421875L53.900677083333335,142.77461625L54.09427734375,143.27375625L54.134179687499994,143.0479153125L54.17555989583334,142.8466884375L54.36768229166666,143.1246890625L54.98099609375,143.5993809375L55.080013020833334,142.921305L55.14799479166667,143.3473771875L55.18346354166666,142.5998840625L55.40957682291667,144.1049925L55.415488281250006,143.0374059375L55.49233723958333,143.2901840625L55.65342447916667,143.626096875L55.89431640625,143.2384115625L55.941608072916665,143.45872125L55.991855468749996,143.56171312499998L56.042102864583335,142.65956625L56.118951822916664,144.16539375L56.25639322916666,143.3057821875L56.36575520833333,143.1710409375L56.379055989583335,142.6147078125L56.519453125,142.7523253125L56.566744791666665,143.7577959375L56.656894531249996,143.122753125L56.73669921875,142.9643934375L56.98645833333334,142.82666531249998L57.02192708333333,143.27010562499999L57.264296875,142.77013593750002L57.63080729166667,143.5588921875L57.749036458333336,142.71001125L57.76529296875,143.5146421875L57.815540364583335,142.8818671875L58.00322916666667,142.340413125L58.13032552083334,143.2155675L58.696347656250005,142.9527225L59.000787760416664,142.891104375L59.01704427083333,142.3752046875L59.14857421875,142.622506875L59.256458333333335,143.4296821875L59.32000651041667,142.51885125L59.38946614583334,142.65201609375L59.39685546875,143.29178812499998L59.411634114583336,143.213686875L59.46188151041667,142.75630781249998L59.56680989583333,142.5869409375L59.81361328125,143.1082059375L59.81656901041667,143.0619646875L60.177167968750005,142.8547640625L60.38259114583333,143.546225625L60.580625000000005,142.9355203125L60.701809895833335,142.872298125L60.72841145833333,142.648614375L60.77422526041667,142.9224665625L60.92053385416666,142.4925225L61.00329427083334,142.2071653125L61.00772786458334,143.10015796875L61.009205729166666,143.0591990625L61.01955078125,143.0992453125L61.145169270833335,143.0687128125L61.20723958333333,143.6756015625L61.2633984375,142.38521624999998L61.30034505208333,143.21623125L61.387539062500004,142.8755615625L61.49246744791667,142.95028875L61.563404947916666,142.53389625L61.67867838541667,143.1013471875L61.79247395833333,142.1790665625L61.87227864583333,143.568793125L62.017109375,142.5424696875L62.02893229166667,142.45247625000002L62.425,142.9302103125L62.61268880208333,142.8191428125L62.64372395833333,142.806144375L62.67475911458334,142.88789624999998L62.71613932291667,143.3293453125L62.753085937499996,142.9375115625L62.76638671875,143.5202840625L62.97328776041667,143.11799625L63.0013671875,142.7040375L63.060481770833334,142.550821875L63.110729166666665,142.8771103125L63.12402994791667,142.69568531250002L63.215657552083336,142.3625934375L63.291028645833336,142.0258509375L63.322063802083335,142.74319875L63.38265625,142.524825L63.387089843750005,143.4509775L63.63241536458334,142.9708096875L63.65606119791667,143.02285875L63.669361979166666,142.41126843749998L63.71517578125,143.113903125L63.811236979166665,142.9265596875L64.27528645833333,142.4429625L64.31075520833333,142.78468312500002L64.46149739583333,143.01002625L64.47775390625,142.4727759375L64.48366536458333,142.32901875L64.56051432291666,142.52830968749998L64.79106119791666,142.989118125L64.84722005208333,142.61487375000002L64.85017578125,142.518298125L64.89303385416666,142.4528634375L64.99057291666666,142.443073125L65.30240234375,143.26357875L65.32309244791666,142.6959065625L65.37038411458333,142.5870515625L65.37925130208333,143.0124046875L65.42358723958334,142.6909284375L65.82852213541666,142.70282062500002L66.14774088541667,142.6049175L66.237890625,142.5517621875L66.255625,142.7296471875L66.42262369791666,142.549715625L66.51425130208332,142.451701875L66.56893229166667,142.93989L66.61326822916666,142.355679375L66.66647135416667,142.832030625L66.7433203125,142.9533309375L66.7787890625,142.17104625000002L66.90440755208333,142.712334375L67.01229166666666,143.10875906249998L67.0448046875,142.8973546875L67.06697265625,142.6959065625L67.27387369791666,142.8705834375L67.3285546875,143.47133250000002L67.39801432291667,142.4151403125L67.48668619791667,143.1138478125L67.98324869791666,142.8243975L68.03054036458333,142.560556875L68.08522135416666,142.3032984375L68.09408854166668,142.3091615625L68.27882161458334,142.4412478125L68.3394140625,142.86798375L68.43695312499999,142.555689375L68.44434244791667,142.92069656249998L68.46059895833334,142.2259715625L68.51527994791667,143.1024534375L68.51823567708333,142.844420625L68.65272135416667,142.93524374999998L68.71331380208333,142.7897165625L68.71626953125,142.41928875L68.73991536458334,142.67068406250002L68.82563151041667,143.07264L68.83302083333334,142.4091665625L69.04731119791667,143.039895L69.08869140624999,142.67505375000002L69.09755859375,142.51354125L69.28081380208333,142.6451296875L69.64732421874999,142.20467625L69.86752604166666,143.2957153125L69.95472005208333,142.97717062499999L70.00644531249999,142.6800871875L70.01235677083334,143.5105490625L70.10250651041667,142.72461375L70.18083333333334,142.899733125L70.23551432291666,143.2339865625L70.24733723958333,142.6243321875L70.27985026041667,142.4505403125L70.30054036458334,142.21242L70.32861979166667,142.43355937500002L70.46458333333334,142.6939153125L70.848828125,142.6424746875L70.86508463541666,142.7573034375L70.9375,142.9562071875L70.955234375,142.2484284375L70.97444661458334,143.05029374999998L71.13110026041666,142.2960525L71.18578125,143.556845625L71.27297526041666,142.4191228125L71.46805338541667,142.77688406250002L71.54638020833333,142.1603709375L71.59662760416667,142.525156875L71.983828125,142.9374009375L72.04885416666667,142.77019125L72.09614583333334,142.44467718750002L72.11388020833333,142.58782593749999L72.16264973958334,142.68224437499998L72.20255208333333,142.299703125L72.34294921875001,142.3920196875L72.36216145833333,143.142001875L72.60748697916667,142.15732875L72.70354817708333,142.9485740625L72.84985677083334,142.6334034375L72.90158203125,142.27437L73.01981119791667,143.2314421875L73.154296875,142.4597775L73.25774739583333,142.468516875L73.30651692708334,142.65068859375L73.72770833333333,142.719193125L73.74544270833333,143.04255L73.80603515624999,142.7845725L73.84150390625,142.68611625L73.88436197916667,142.5381L73.92722005208334,142.8505603125L73.95234375000001,142.9023328125L73.95529947916667,142.299260625L73.95677734375,143.013234375L74.00702473958333,143.1479203125L74.06761718749999,142.7820834375L74.2715625,143.09520750000001L74.29373046875,143.17607437499998L74.70901041666667,143.4671840625L74.74152343749999,142.56708375L74.87305338541667,144.7798603125L74.90852213541666,143.9079140625L74.96615885416666,144.074349375L75.05335286458333,145.8351121875L75.26173177083334,143.2038965625L75.44350911458334,146.391943125L75.459765625,146.7989878125L75.47158854166668,146.6042325L75.57799479166667,147.228268125L75.73169270833333,145.5248090625L75.75829427083333,145.8196246875L75.88982421875,145.9798096875L75.99623046875,145.78959L76.09229166666667,146.4750225L76.13219401041665,145.9628840625L76.15288411458333,145.6295709375L76.26372395833333,145.1743490625L76.36274088541667,145.6620946875L76.58146484375,145.8473915625L76.75880859374999,144.6651421875L76.81940104166667,144.42846L76.91841796875,144.484215L77.01300130208334,144.4826109375L77.04847005208333,144.14144343750002L77.22876953125,144.261748125L77.38098958333333,143.901110625L77.62631510416668,143.88440624999998L77.63370442708333,144.5638096875L77.71498697916667,144.27955875L77.73419921875,143.87511375L77.871640625,144.261305625L77.92484375,144.89977781250002L78.4125390625,143.7641015625L78.46869791666667,144.480675L78.6785546875,143.604414375L78.687421875,144.1289428125L78.76131510416667,144.38470781249998L78.92092447916666,144.0723028125L78.93718098958334,145.06455375L78.98447265625,144.136299375L79.02585286458334,144.64594875L79.33768229166667,146.04601875L79.41600911458333,143.7436359375L79.49285807291668,143.677426875L79.5209375,147.272296875L79.6007421875,148.921051875L79.67906901041667,146.9952365625L79.79729817708332,145.2087534375L79.9465625,148.6108040625L79.97020833333333,150.3122165625L80.18449869791667,147.399294375L80.20666666666666,147.63857625L80.24804687500001,148.085833125L80.26873697916666,147.5308275L80.27169270833333,146.1302596875L80.56135416666667,146.12788125L80.60125651041668,146.9387071875L80.68106119791666,146.0056959375L80.72096354166668,145.36722375L80.79485677083333,145.88494875L81.00914713541667,145.9140984375L81.14658854166667,144.886779375L81.15693359375,145.786160625L81.33871093750001,144.627253125L81.36826822916667,145.45218375L81.37861328125,144.970190625L81.44955078125,144.1527825L81.45546223958334,145.2246834375L81.578125,144.723496875L81.61507161458333,144.50877375L82.00966145833334,144.910785L82.05547526041667,144.240950625L82.33922526041667,143.90697375L82.5091796875,144.0590278125L82.52100260416667,145.5941709375L82.52839192708333,145.9639903125L82.55055989583333,148.918839375L82.59637369791668,147.8786325L82.71903645833333,144.7901484375L82.77667317708334,148.251991875L82.82987630208333,148.81429875L83.04564453124999,146.4086475L83.11067057291667,147.27578156250001L83.1121484375,147.0356146875L83.1476171875,147.11377125L83.18456380208333,148.615395L83.39885416666667,146.7707784375L83.42102213541666,148.56561375L83.43727864583335,149.2358353125L83.5023046875,149.04556031250002L84.15552083333333,147.0674746875L84.32990885416667,146.641845L84.39345703125,144.8360025L84.54124348958334,145.6677365625L84.7437109375,146.04109593750002L84.752578125,146.486416875L84.79839192708333,146.94717L84.86785156250001,145.9795884375L84.87967447916667,145.8416390625L84.93583333333333,146.7675703125L84.98460286458334,144.88401375L85.03337239583334,145.8914203125L85.036328125,146.053873125L85.19002604166667,145.5313359375L85.25061848958333,144.887221875L85.28904296875,145.4853159375L85.30382161458334,145.1360175L85.77082682291666,145.313128125L85.86245442708334,143.8746159375L85.97181640625,143.569678125L86.10925781249999,143.611605L86.17428385416666,143.850223125L86.19645182291667,144.03441375L86.20827473958333,143.75386875L86.23044270833333,144.5271928125L86.43438802083334,143.91112218749998L86.43586588541666,143.7553621875L86.46246744791668,143.53129125L86.64572265625,144.819519375L86.66641276041666,144.5499815625L87.06986979166666,146.45157L87.18514322916667,143.7448528125L87.395,143.607511875L87.696484375,144.4599328125L87.79550130208334,143.6167490625L87.91373046875,144.6350521875L88.02604817708334,143.4159646875L88.06151692708333,143.58538687499998L88.18861328125,144.240508125L88.21078125,143.867038125L88.2905859375,144.2704875L88.35265625,145.28668875L88.40142578125,144.58222875L88.77680338541667,143.940493125L88.78271484375,144.90525374999999L88.80340494791666,144.16384499999998L88.88764322916667,143.8533759375L89.13296875,143.9951971875L89.17139322916667,144.1286109375L89.27188802083333,144.2455415625L89.4787890625,144.371266875L89.76106119791666,144.02866125L89.77288411458333,143.4088846875L89.8334765625,143.546225625L90.02412109375,143.9780503125L90.02559895833333,143.3254734375L90.05072265625,142.661446875L90.21919921875,143.7764915625L90.24727864583333,143.7677521875L90.28274739583334,144.28973625L90.47486979166666,143.80652625L90.47634765625,143.9789353125L90.55467447916666,143.4275803125L90.88571614583333,144.02136L90.99655598958333,144.7669725L91.07783854166667,144.92040937500002L91.36897786458334,143.9111775L91.60248046875,143.59556437499998L91.704453125,143.903544375L91.7133203125,144.823280625L91.75470052083334,144.10034625L91.84780598958332,145.3520128125L91.89509765624999,143.4022471875L91.94238932291665,144.1005675L91.9793359375,143.694463125L92.03697265625,145.0110665625L92.06209635416666,144.357991875L92.1566796875,144.2707640625L92.21727213541666,145.1279971875L92.22022786458334,143.89768125L92.43008463541666,143.8085175L92.49954427083333,143.471885625L92.62664062500001,145.3348659375L93.11581380208334,146.102105625L93.16458333333333,144.2942165625L93.29759114583334,146.758111875L93.32862630208332,145.37474625L93.36557291666666,145.80574125L93.63011067708334,145.1590828125L93.78085286458334,145.000723125L93.85474609375,146.6278509375L94.06312500000001,144.574153125L94.23603515625,145.5409603125L94.44736979166666,145.622325L94.45328124999999,145.096966875L94.58481119791666,145.5471553125L94.59220052083333,145.940925L94.66166015625,146.930244375L94.68530598958334,144.1926628125L94.69121744791667,146.404554375L94.76806640625,147.81939281249998L94.82422526041667,147.541336875L95.06955078125,146.14867875L95.12718749999999,145.2260109375L95.2424609375,147.4799953125L95.43606119791666,146.53144125L95.53655598958333,145.1756765625L95.65035156249999,145.510925625L96.04346354166667,146.9788640625L96.10553385416667,145.7680734375L96.10996744791666,146.4221990625L96.17647135416667,145.7749321875L96.21046223958334,146.1634471875L96.24297526041666,147.079366875L96.28583333333333,145.9992796875L96.49421223958333,146.211845625L96.5193359375,146.404333125L96.6966796875,146.1953625L96.811953125,146.8361578125L96.88584635416666,145.8095025L96.95678385416667,146.06925L97.01146484375,145.2587559375L97.70458333333333,146.822938125L97.77552083333335,146.03716875L97.80360026041666,145.404283125L97.89966145833333,145.3190465625L98.05927083333334,145.231486875L98.124296875,145.0268859375L98.14942057291667,146.15277187499998L98.18193359375,146.45582906250002L98.27356119791668,145.69932L98.44203776041667,147.48060375L98.45386067708334,144.80193L98.56913411458332,146.5537875L98.67110677083333,144.3734240625L98.78342447916665,146.0578003125L98.79968098958334,147.909275625L98.80115885416667,146.608989375L98.81889322916668,147.7546771875L99.01692708333334,147.2272171875L99.19870442708333,146.995070625L99.23565104166667,146.4997471875L99.38787109375,145.325960625L99.49279947916668,145.4566640625L99.54452473958334,147.3181509375L99.57999348958333,146.66623781250001L99.69674479166666,147.097509375L99.7469921875,145.24420875L99.80315104166667,145.1856328125L99.86669921875,144.8339559375L99.98640625,145.21577812499999L100.26424479166666,143.733403125L100.2790234375,144.35494968749998L100.37212890625001,146.31638625L100.40168619791666,145.38094125L100.45784505208334,145.9132134375L100.64848958333333,145.629958125L100.6514453125,143.46895406250002L100.67509114583333,145.608275625L101.02830078125,145.3209825L101.27805989583334,145.310251875L101.28249348958333,144.005098125L101.30466145833333,145.3355296875L101.36377604166667,144.4095984375L101.600234375,143.5195096875L101.72880859375,144.3551709375L101.78644531249999,144.08087625000002L101.813046875,145.585265625L101.93275390625,144.3923409375L102.07167317708334,144.926825625L102.07462890625,144.4421221875L102.08645182291667,145.04524968750002L102.14704427083333,145.276400625L102.17069010416667,144.1942115625L102.31699869791667,145.529731875L102.36429036458334,143.165454375L102.37906901041666,145.3428309375L102.47513020833334,145.6054546875L102.57710286458332,144.94386187499998L102.66281901041665,146.274901875L102.71454427083333,144.4081603125L102.99681640624999,146.9723925L103.06184244791666,145.71879L103.18598307291666,144.5555128125L103.50224609375,146.2249546875L103.55692708333333,147.5696015625L103.72097005208333,145.916698125L103.88944661458333,146.3331459375L103.95742838541666,146.5511325L104.05940104166667,145.2309890625L104.13329427083333,145.681288125L104.21162109375,145.893909375L104.22935546875,143.4050128125L104.23083333333334,147.66579000000002L104.24708984374999,145.705183125L104.69783854166667,144.3793978125L104.88404947916666,146.6316675L104.99193359375,145.6027996875L105.10425130208333,143.86205999999999L105.12789713541667,146.116155L105.29194010416667,146.347029375L105.37026692708334,146.4561609375L105.55056640625,145.1669371875L105.71165364583334,145.37032125000002L105.82249348958334,147.69565875L105.9185546875,147.678511875L105.94072265625,147.0852853125L105.96732421875,145.615355625L105.998359375,144.4206609375L106.16240234375,145.57918125L106.19195963541667,146.59604625L106.19491536458332,146.4677765625L106.24072916666667,146.584651875L106.28654296875,144.4930096875L106.47423177083333,146.133744375L106.73581380208333,147.2512228125L106.849609375,144.6205603125L106.91906901041666,147.19297875L107.00626302083333,145.610045625L107.01069661458332,146.5836009375L107.02399739583333,147.3105178125L107.1865625,146.919735L107.80135416666667,144.887221875L107.81169921875,146.5577146875L107.86342447916667,146.28198187499999L107.8959375,146.5652925L107.90184895833333,145.4980378125L107.91514973958333,145.238124375L107.92253906250001,146.7859340625L108.01712239583334,143.8657659375L108.40727864583333,146.2476328125L108.4900390625,147.2085215625L108.63634765625,145.3833196875L108.63782552083335,147.68813625L108.92748697916666,146.8210021875L108.97034505208333,146.7502575L109.01615885416668,146.8714471875L109.20089192708333,145.53094875L109.58218098958334,146.190605625L109.79203776041668,147.2990128125L109.8023828125,145.670446875L109.8555859375,146.18938875L109.88662109375001,146.7025228125L109.8910546875,144.5743190625L109.90287760416666,146.0475121875L109.94130208333333,145.946788125L110.14968098958333,145.5714375L110.20140625,145.076390625L110.21322916666668,147.43369875L110.2280078125,144.58399875L110.33589192708332,146.936439375L110.39352864583334,145.2469190625L110.44673177083334,147.277275L110.51619140625,146.403226875L110.86348958333333,146.8823990625L111.31128255208334,146.879135625L111.55365234375,145.66325625L112.09159505208333,146.991751875L112.169921875,145.321756875L112.25859375,146.5199915625L112.30736328125,147.0726740625L112.382734375,146.7122578125L112.53052083333334,145.05327L112.53643229166667,145.5342675L112.74185546875,145.037450625L112.79358072916666,146.58808125000002L112.9058984375,146.23762125L112.91180989583333,146.15000625L112.93397786458334,146.1284896875L113.27093098958333,145.431496875L113.38324869791666,145.1354090625L113.42462890625,147.4190409375L113.67291015625,146.8828415625L113.77931640625,146.1334678125L113.90050130208334,145.964266875L113.96404947916668,147.0388228125L114.07784505208333,145.3077075L114.27144531249999,148.082956875L114.29656901041666,147.5837615625L114.53154947916667,146.815305L114.61578776041667,145.4650715625L114.71332682291667,147.08633625L114.72219401041666,146.737314375L114.92909505208333,145.182811875L115.45521484375,145.9938590625L115.81729166666666,144.4951115625L115.95916666666668,146.0737303125L116.37001302083333,145.1966953125L116.53701171875,145.68759375L116.60055989583333,146.4290025L116.73947916666665,145.5893034375L116.82815104166667,146.0555878125L116.83258463541667,144.903151875L116.89465494791666,146.12566875L116.99514973958334,146.4462046875L117.06165364583333,145.5003609375L117.27594401041667,146.3512884375L117.37052734375,145.5216009375L117.47102213541667,146.72818781249998L117.56560546875001,144.749604375L117.81536458333333,147.56423625L118.45232421875,145.3480303125L118.518828125,146.0830228125L118.5454296875,144.856246875L118.77893229166668,147.160123125L118.89568359375001,146.4550546875L118.90159505208334,145.4540090625L118.908984375,145.2362990625L118.94593098958333,146.3559346875L118.9533203125,144.9314165625L119.00356770833334,146.07610875L119.03460286458333,146.263839375L119.086328125,146.29144031250001L119.16761067708333,146.648593125L119.33313151041668,145.6749825L119.37746744791667,145.766248125L120.01294921875,145.4537878125L120.04989583333334,145.7416340625L120.18881510416666,144.81542625L120.33364583333334,145.94711999999998L120.55828125,145.167324375L120.753359375,145.294543125L121.09622395833333,144.1989684375L121.24844401041666,145.6891425L121.2942578125,145.2908371875L121.30903645833334,144.99657468750001L121.37258463541667,145.94999625L121.53662760416667,145.929088125L121.69771484375,145.22341125L121.70953776041667,145.969798125L121.75239583333332,145.71679875L121.7730859375,147.44077875L121.78047526041667,144.3216515625L122.11003906250001,145.3410609375L122.13368489583333,144.09547875L122.46177083333333,145.2448171875L122.70118489583332,146.12566875L122.93912109375,144.83052656249998L122.94503255208333,145.00747125L123.22139322916667,145.4163965625L123.36326822916666,146.0081296875L123.38986979166667,145.5519675L123.7859375,145.61220281250002L123.80071614583333,144.15670968749998L123.93372395833333,144.9824146875L123.96032552083334,145.393884375L124.25146484375,146.183525625L124.38890625,144.92146031250002L124.62979817708333,144.69462375L124.67856770833333,144.55684031250001L124.70073567708333,146.16837L124.80861979166667,145.045858125L124.88694661458334,142.66443375L124.99483072916667,144.8902640625L125.04360026041667,143.2469296875L125.15739583333334,143.17242375L125.31700520833333,144.1812684375L125.50321614583333,142.80691875L125.77514322916667,143.587156875L125.87859375000001,143.91455156249998L125.88893880208333,143.0662790625L125.91701822916667,142.87467656249999L126.18598958333332,144.0052640625L126.26579427083334,142.719193125L126.36185546875,143.2051134375L126.42392578125,142.7413734375L126.58057942708332,142.40911125L126.73132161458334,142.1959921875L126.75644531249999,142.5254334375L126.93378906250001,142.919535L126.94265625,142.4447878125L126.98994791666667,142.1802834375L127.10669921875,142.5279225L127.35202473958333,142.4274196875L127.41557291666666,141.606084375L127.44660807291666,142.08608625L127.52493489583333,141.471343125L127.85893229166666,142.076904375L128.14268229166666,141.43472625L128.19588541666667,141.38206875L128.21657552083335,141.7321415625L128.33184895833332,142.9922709375L128.50623697916666,142.283330625L128.63185546875,142.431125625L128.64811197916666,142.27547625L128.72939453125,141.87072703125L129.06339192708333,141.3530296875L129.15206380208335,142.260541875L129.29837239583333,140.7749034375L129.43581380208335,142.21596L129.54665364583335,141.6738421875L129.91168619791668,141.15042L129.96784505208333,141.61747875L130.15553385416666,142.018715625L130.19248046875,141.22409625L130.24568359375,141.36199031249998L130.57524739583334,141.8530546875L130.62697265625,141.54695531250002L130.64027343749999,141.490149375L130.65209635416667,141.2765878125L130.6757421875,141.021099375L130.88116536458332,141.285050625L131.01860677083332,142.41707625L131.15752604166667,141.3452859375L131.63783203125,141.7466334375L131.95113932291667,140.7649471875L132.067890625,141.680424375L132.24227864583335,140.79669656250002L132.24671223958333,141.51963093749998L132.44326822916665,141.1676775L132.55854166666666,140.74094156249998L132.56149739583333,141.90444L132.599921875,141.724231875L132.62800130208333,140.1347165625L132.91914062499998,141.137698125L133.37432291666667,141.027294375L133.43491536458333,140.93956875L133.451171875,140.93160375L133.6728515625,141.0745865625L133.81916015625,141.488158125L133.96842447916666,140.9760196875L133.98024739583332,141.556966875L134.10734374999998,140.1795196875L134.37927083333335,140.278584375L134.48567708333331,141.060039375L134.67927734375,140.45481L134.798984375,141.1402978125L134.81967447916665,141.190576875L135.29259114583334,140.4572990625L135.38274088541667,141.102961875L135.80541015625,141.096988125L136.25172526041666,139.9903509375L136.33448567708334,140.648956875L136.57833333333335,140.65990875L136.61823567708333,137.5709821875L136.85026041666669,138.460573125L136.856171875,139.87137375L137.18869140625,138.6820996875L140.02619140625,137.2727925L141.81588541666667,136.04717812500002L142.39373046875,137.50776L144.86028645833335,135.48365437500001L146.03666666666666,132.911955L146.13863932291665,132.8562L146.32485026041667,125.50599843750001L147.55295572916668,126.130753125L147.79236979166666,124.08972187500001L150.72297526041666,118.31758593750001L152.13876953124998,113.603799375L152.15650390624998,133.28033625L153.41268880208335,111.6334575L155.85559895833333,109.3071796875L157.76352213541668,108.0138628125L159.53843750000001,107.10784406249999L159.56947265624999,108.3085678125L162.00942708333335,94.43901375L164.805546875,120.9286125L166.8745572916667,105.69106968749999L167.08145833333333,110.366026875L168.69676432291666,91.21717124999999L169.31155598958333,109.019941875L171.18696614583334,109.10158312499999L171.89634114583333,98.20845L172.66335286458335,94.8357703125L177.26246744791666,100.5904828125L180.5270703125,91.9195846875L186.12374348958335,94.179155625L187.66663411458333,100.9937109375L188.17058593750002,89.153240625L190.09919921875002,87.98537250000001L194.08795572916665,76.1638190625L194.71900390625,78.6946978125L195.91459635416666,87.205798125L196.79540364583335,75.28766906249999L199.32994140625,69.943651875L202.00635416666668,67.5153225L212.56421875,79.4722809375L212.7504296875,65.86308281250001L212.8627473958333,60.790871249999995L215.17264973958333,57.14090999999999L218.47419921875002,62.9807484375L220.17374348958333,71.661105L230.7596875,56.30010468750001L232.83017578125,44.088266250000004L233.99621093750002,36.0779653125L235.81102864583335,57.82390875L237.90072916666665,47.84824406249999L238.15048828125,38.424155625L239.34903645833333,39.92655375000001L240.61556640625,34.98228L248.66845052083335,45.001254375L252.6173046875,29.506342499999988L253.12864583333334,40.9306415625L254.32719401041666,32.707774687500006L256.70951171875,59.186919375" style="fill: none;" fill="none"></path></g></g></g></g></g></g><g transform="translate(63, 177)" clip-path="url(#clip_1)"><clipPath id="clip_1"><rect width="266" height="23"></rect></clipPath><g><g><line x1="0" y1="0" x2="0" y2="5" style="visibility: inherit;" fill="rgb(0, 0, 0)" stroke="rgb(204, 204, 204)" stroke-width="1px"></line><line x1="29.557291666666664" y1="0" x2="29.557291666666664" y2="5" style="visibility: inherit;" fill="rgb(0, 0, 0)" stroke="rgb(204, 204, 204)" stroke-width="1px"></line><line x1="59.11458333333333" y1="0" x2="59.11458333333333" y2="5" style="visibility: inherit;" fill="rgb(0, 0, 0)" stroke="rgb(204, 204, 204)" stroke-width="1px"></line><line x1="88.671875" y1="0" x2="88.671875" y2="5" style="visibility: inherit;" fill="rgb(0, 0, 0)" stroke="rgb(204, 204, 204)" stroke-width="1px"></line><line x1="118.22916666666666" y1="0" x2="118.22916666666666" y2="5" style="visibility: inherit;" fill="rgb(0, 0, 0)" stroke="rgb(204, 204, 204)" stroke-width="1px"></line><line x1="147.78645833333334" y1="0" x2="147.78645833333334" y2="5" style="visibility: inherit;" fill="rgb(0, 0, 0)" stroke="rgb(204, 204, 204)" stroke-width="1px"></line><line x1="177.34375" y1="0" x2="177.34375" y2="5" style="visibility: inherit;" fill="rgb(0, 0, 0)" stroke="rgb(204, 204, 204)" stroke-width="1px"></line><line x1="206.90104166666666" y1="0" x2="206.90104166666666" y2="5" style="visibility: inherit;" fill="rgb(0, 0, 0)" stroke="rgb(204, 204, 204)" stroke-width="1px"></line><line x1="236.45833333333331" y1="0" x2="236.45833333333331" y2="5" style="visibility: inherit;" fill="rgb(0, 0, 0)" stroke="rgb(204, 204, 204)" stroke-width="1px"></line><line x1="266.015625" y1="0" x2="266.015625" y2="5" style="visibility: inherit;" fill="rgb(0, 0, 0)" stroke="rgb(204, 204, 204)" stroke-width="1px"></line></g><g transform="translate(0, 8)"><text x="0" y="0" dx="0em" dy="0.95em" style="text-anchor: middle; visibility: hidden; font-family: &quot;Helvetica Neue&quot;, sans-serif; font-size: 12px; font-weight: 200;" fill="rgb(50, 49, 63)" stroke="none" stroke-width="1px">-20k</text><text x="29.557291666666664" y="0" dx="0em" dy="0.95em" style="text-anchor: middle; visibility: inherit; font-family: &quot;Helvetica Neue&quot;, sans-serif; font-size: 12px; font-weight: 200;" fill="rgb(50, 49, 63)" stroke="none" stroke-width="1px">0</text><text x="59.11458333333333" y="0" dx="0em" dy="0.95em" style="text-anchor: middle; visibility: inherit; font-family: &quot;Helvetica Neue&quot;, sans-serif; font-size: 12px; font-weight: 200;" fill="rgb(50, 49, 63)" stroke="none" stroke-width="1px">20k</text><text x="88.671875" y="0" dx="0em" dy="0.95em" style="text-anchor: middle; visibility: inherit; font-family: &quot;Helvetica Neue&quot;, sans-serif; font-size: 12px; font-weight: 200;" fill="rgb(50, 49, 63)" stroke="none" stroke-width="1px">40k</text><text x="118.22916666666666" y="0" dx="0em" dy="0.95em" style="text-anchor: middle; visibility: inherit; font-family: &quot;Helvetica Neue&quot;, sans-serif; font-size: 12px; font-weight: 200;" fill="rgb(50, 49, 63)" stroke="none" stroke-width="1px">60k</text><text x="147.78645833333334" y="0" dx="0em" dy="0.95em" style="text-anchor: middle; visibility: inherit; font-family: &quot;Helvetica Neue&quot;, sans-serif; font-size: 12px; font-weight: 200;" fill="rgb(50, 49, 63)" stroke="none" stroke-width="1px">80k</text><text x="177.34375" y="0" dx="0em" dy="0.95em" style="text-anchor: middle; visibility: inherit; font-family: &quot;Helvetica Neue&quot;, sans-serif; font-size: 12px; font-weight: 200;" fill="rgb(50, 49, 63)" stroke="none" stroke-width="1px">100k</text><text x="206.90104166666666" y="0" dx="0em" dy="0.95em" style="text-anchor: middle; visibility: inherit; font-family: &quot;Helvetica Neue&quot;, sans-serif; font-size: 12px; font-weight: 200;" fill="rgb(50, 49, 63)" stroke="none" stroke-width="1px">120k</text><text x="236.45833333333331" y="0" dx="0em" dy="0.95em" style="text-anchor: middle; visibility: inherit; font-family: &quot;Helvetica Neue&quot;, sans-serif; font-size: 12px; font-weight: 200;" fill="rgb(50, 49, 63)" stroke="none" stroke-width="1px">140k</text><text x="266.015625" y="0" dx="0em" dy="0.95em" style="text-anchor: middle; visibility: hidden; font-family: &quot;Helvetica Neue&quot;, sans-serif; font-size: 12px; font-weight: 200;" fill="rgb(50, 49, 63)" stroke="none" stroke-width="1px">160k</text></g><line x1="0" y1="0" x2="266.015625" y2="0" fill="rgb(0, 0, 0)" stroke="rgb(204, 204, 204)" stroke-width="1px"></line></g></g></g></g></svg>