<svg viewBox="0 0 330 200" xmlns="http://www.w3.org/2000/svg"><g><g><g><g><g><line x1="74.78125" y1="171.89954197449492" x2="69.78125" y2="171.89954197449492" style="visibility: inherit;" fill="rgb(0, 0, 0)" stroke="rgb(204, 204, 204)" stroke-width="1px"></line><line x1="74.78125" y1="155.36191247450517" x2="69.78125" y2="155.36191247450517" style="visibility: inherit;" fill="rgb(0, 0, 0)" stroke="rgb(204, 204, 204)" stroke-width="1px"></line><line x1="74.78125" y1="138.82428297451548" x2="69.78125" y2="138.82428297451548" style="visibility: inherit;" fill="rgb(0, 0, 0)" stroke="rgb(204, 204, 204)" stroke-width="1px"></line><line x1="74.78125" y1="122.28665347452575" x2="69.78125" y2="122.28665347452575" style="visibility: inherit;" fill="rgb(0, 0, 0)" stroke="rgb(204, 204, 204)" stroke-width="1px"></line><line x1="74.78125" y1="105.74902397453602" x2="69.78125" y2="105.74902397453602" style="visibility: inherit;" fill="rgb(0, 0, 0)" stroke="rgb(204, 204, 204)" stroke-width="1px"></line><line x1="74.78125" y1="89.2113944745463" x2="69.78125" y2="89.2113944745463" style="visibility: inherit;" fill="rgb(0, 0, 0)" stroke="rgb(204, 204, 204)" stroke-width="1px"></line><line x1="74.78125" y1="72.67376497455658" x2="69.78125" y2="72.67376497455658" style="visibility: inherit;" fill="rgb(0, 0, 0)" stroke="rgb(204, 204, 204)" stroke-width="1px"></line><line x1="74.78125" y1="56.136135474566856" x2="69.78125" y2="56.136135474566856" style="visibility: inherit;" fill="rgb(0, 0, 0)" stroke="rgb(204, 204, 204)" stroke-width="1px"></line><line x1="74.78125" y1="39.59850597457714" x2="69.78125" y2="39.59850597457714" style="visibility: inherit;" fill="rgb(0, 0, 0)" stroke="rgb(204, 204, 204)" stroke-width="1px"></line><line x1="74.78125" y1="23.060876474587417" x2="69.78125" y2="23.060876474587417" style="visibility: inherit;" fill="rgb(0, 0, 0)" stroke="rgb(204, 204, 204)" stroke-width="1px"></line><line x1="74.78125" y1="6.523246974597697" x2="69.78125" y2="6.523246974597697" style="visibility: inherit;" fill="rgb(0, 0, 0)" stroke="rgb(204, 204, 204)" stroke-width="1px"></line></g><g transform="translate(64.78125, 0)"><text x="0" y="171.89954197449492" dx="0em" dy="0.3em" style="text-anchor: end; visibility: inherit; font-family: &quot;Helvetica Neue&quot;, sans-serif; font-size: 12px; font-weight: 200;" fill="rgb(50, 49, 63)" stroke="none" stroke-width="1px">-4e+4</text><text x="0" y="155.36191247450517" dx="0em" dy="0.3em" style="text-anchor: end; visibility: hidden; font-family: &quot;Helvetica Neue&quot;, sans-serif; font-size: 12px; font-weight: 200;" fill="rgb(50, 49, 63)" stroke="none" stroke-width="1px">-2e+4</text><text x="0" y="138.82428297451548" dx="0em" dy="0.3em" style="text-anchor: end; visibility: inherit; font-family: &quot;Helvetica Neue&quot;, sans-serif; font-size: 12px; font-weight: 200;" fill="rgb(50, 49, 63)" stroke="none" stroke-width="1px">0</text><text x="0" y="122.28665347452575" dx="0em" dy="0.3em" style="text-anchor: end; visibility: hidden; font-family: &quot;Helvetica Neue&quot;, sans-serif; font-size: 12px; font-weight: 200;" fill="rgb(50, 49, 63)" stroke="none" stroke-width="1px">2e+4</text><text x="0" y="105.74902397453602" dx="0em" dy="0.3em" style="text-anchor: end; visibility: inherit; font-family: &quot;Helvetica Neue&quot;, sans-serif; font-size: 12px; font-weight: 200;" fill="rgb(50, 49, 63)" stroke="none" stroke-width="1px">4e+4</text><text x="0" y="89.2113944745463" dx="0em" dy="0.3em" style="text-anchor: end; visibility: hidden; font-family: &quot;Helvetica Neue&quot;, sans-serif; font-size: 12px; font-weight: 200;" fill="rgb(50, 49, 63)" stroke="none" stroke-width="1px">6e+4</text><text x="0" y="72.67376497455658" dx="0em" dy="0.3em" style="text-anchor: end; visibility: inherit; font-family: &quot;Helvetica Neue&quot;, sans-serif; font-size: 12px; font-weight: 200;" fill="rgb(50, 49, 63)" stroke="none" stroke-width="1px">8e+4</text><text x="0" y="56.136135474566856" dx="0em" dy="0.3em" style="text-anchor: end; visibility: hidden; font-family: &quot;Helvetica Neue&quot;, sans-serif; font-size: 12px; font-weight: 200;" fill="rgb(50, 49, 63)" stroke="none" stroke-width="1px">1e+5</text><text x="0" y="39.59850597457714" dx="0em" dy="0.3em" style="text-anchor: end; visibility: inherit; font-family: &quot;Helvetica Neue&quot;, sans-serif; font-size: 12px; font-weight: 200;" fill="rgb(50, 49, 63)" stroke="none" stroke-width="1px">1.2e+5</text><text x="0" y="23.060876474587417" dx="0em" dy="0.3em" style="text-anchor: end; visibility: hidden; font-family: &quot;Helvetica Neue&quot;, sans-serif; font-size: 12px; font-weight: 200;" fill="rgb(50, 49, 63)" stroke="none" stroke-width="1px">1.4e+5</text><text x="0" y="6.523246974597697" dx="0em" dy="0.3em" style="text-anchor: end; visibility: hidden; font-family: &quot;Helvetica Neue&quot;, sans-serif; font-size: 12px; font-weight: 200;" fill="rgb(50, 49, 63)" stroke="none" stroke-width="1px">1.6e+5</text></g><line x1="74.78125" y1="0" x2="74.78125" y2="177" fill="rgb(0, 0, 0)" stroke="rgb(204, 204, 204)" stroke-width="1px"></line></g></g><g transform="translate(74, 0)" clip-path="url(#clip_0)"><clipPath id="clip_0"><rect width="255" height="177"></rect></clipPath><g><g><g><line x1="9.123409064918336" y1="0" x2="9.123409064918336" y2="177" fill="rgb(0, 0, 0)" stroke="rgb(60, 60, 60)" stroke-width="1px" opacity="0.25"></line><line x1="32.96924595164434" y1="0" x2="32.96924595164434" y2="177" fill="rgb(0, 0, 0)" stroke="rgb(60, 60, 60)" stroke-width="1px" opacity="0.25"></line><line x1="56.81508283837033" y1="0" x2="56.81508283837033" y2="177" fill="rgb(0, 0, 0)" stroke="rgb(60, 60, 60)" stroke-width="1px" opacity="0.25"></line><line x1="80.66091972509633" y1="0" x2="80.66091972509633" y2="177" fill="rgb(0, 0, 0)" stroke="rgb(60, 60, 60)" stroke-width="1px" opacity="0.25"></line><line x1="104.50675661182233" y1="0" x2="104.50675661182233" y2="177" fill="rgb(0, 0, 0)" stroke="rgb(60, 60, 60)" stroke-width="1px" opacity="0.25"></line><line x1="128.35259349854834" y1="0" x2="128.35259349854834" y2="177" fill="rgb(0, 0, 0)" stroke="rgb(60, 60, 60)" stroke-width="1px" opacity="0.25"></line><line x1="152.19843038527432" y1="0" x2="152.19843038527432" y2="177" fill="rgb(0, 0, 0)" stroke="rgb(60, 60, 60)" stroke-width="1px" opacity="0.25"></line><line x1="176.04426727200035" y1="0" x2="176.04426727200035" y2="177" fill="rgb(0, 0, 0)" stroke="rgb(60, 60, 60)" stroke-width="1px" opacity="0.25"></line><line x1="199.89010415872636" y1="0" x2="199.89010415872636" y2="177" fill="rgb(0, 0, 0)" stroke="rgb(60, 60, 60)" stroke-width="1px" opacity="0.25"></line><line x1="223.73594104545234" y1="0" x2="223.73594104545234" y2="177" fill="rgb(0, 0, 0)" stroke="rgb(60, 60, 60)" stroke-width="1px" opacity="0.25"></line><line x1="247.58177793217834" y1="0" x2="247.58177793217834" y2="177" fill="rgb(0, 0, 0)" stroke="rgb(60, 60, 60)" stroke-width="1px" opacity="0.25"></line></g><g><line x1="0" y1="171.89954197449492" x2="255.21875" y2="171.89954197449492" fill="rgb(0, 0, 0)" stroke="rgb(60, 60, 60)" stroke-width="1px" opacity="0.25"></line><line x1="0" y1="155.36191247450517" x2="255.21875" y2="155.36191247450517" fill="rgb(0, 0, 0)" stroke="rgb(60, 60, 60)" stroke-width="1px" opacity="0.25"></line><line x1="0" y1="138.82428297451548" x2="255.21875" y2="138.82428297451548" fill="rgb(0, 0, 0)" stroke="rgb(60, 60, 60)" stroke-width="1px" opacity="0.25"></line><line x1="0" y1="122.28665347452575" x2="255.21875" y2="122.28665347452575" fill="rgb(0, 0, 0)" stroke="rgb(60, 60, 60)" stroke-width="1px" opacity="0.25"></line><line x1="0" y1="105.74902397453602" x2="255.21875" y2="105.74902397453602" fill="rgb(0, 0, 0)" stroke="rgb(60, 60, 60)" stroke-width="1px" opacity="0.25"></line><line x1="0" y1="89.2113944745463" x2="255.21875" y2="89.2113944745463" fill="rgb(0, 0, 0)" stroke="rgb(60, 60, 60)" stroke-width="1px" opacity="0.25"></line><line x1="0" y1="72.67376497455658" x2="255.21875" y2="72.67376497455658" fill="rgb(0, 0, 0)" stroke="rgb(60, 60, 60)" stroke-width="1px" opacity="0.25"></line><line x1="0" y1="56.136135474566856" x2="255.21875" y2="56.136135474566856" fill="rgb(0, 0, 0)" stroke="rgb(60, 60, 60)" stroke-width="1px" opacity="0.25"></line><line x1="0" y1="39.59850597457714" x2="255.21875" y2="39.59850597457714" fill="rgb(0, 0, 0)" stroke="rgb(60, 60, 60)" stroke-width="1px" opacity="0.25"></line><line x1="0" y1="23.060876474587417" x2="255.21875" y2="23.060876474587417" fill="rgb(0, 0, 0)" stroke="rgb(60, 60, 60)" stroke-width="1px" opacity="0.25"></line><line x1="0" y1="6.523246974597697" x2="255.21875" y2="6.523246974597697" fill="rgb(0, 0, 0)" stroke="rgb(60, 60, 60)" stroke-width="1px" opacity="0.25"></line></g></g></g><g><g><line x1="0" y1="138.82428297451548" x2="255.21875" y2="138.82428297451548" fill="rgb(0, 0, 0)" stroke="rgb(153, 153, 153)" stroke-width="1.5px"></line></g></g><g><g><line x1="56.81508283837033" y1="0" x2="56.81508283837033" y2="177" fill="rgb(0, 0, 0)" stroke="rgb(153, 153, 153)" stroke-width="1.5px"></line></g></g><g><g><g><g><g><path stroke="rgb(255, 112, 67)" stroke-width="2px" d="M56.885428057186175,138.52601500668084L57.28723040872751,138.50755784216494L57.34207583356698,138.4945819702611L57.417190219760165,138.4546912266207L57.43388230558087,138.44591962973044L57.45176668324592,138.46709228833248L57.47322793644397,138.44215333521632L57.4970737733307,138.453443711578L57.501842940708045,138.47441475466618L57.50541981624105,138.45659556558158L57.52568877759477,138.4833737368121L57.526881069439106,138.47286039668043L57.53403482050513,138.43330134635215L57.57099586767955,138.4104295087388L57.604380039320965,138.40370076406572L57.61391837407566,138.3928679754707L57.61749524960866,138.3872534108293L57.63657191911805,138.3988951375392L57.63776421096238,138.42940103543776L57.64253337833973,138.41933112717714L57.64849483756141,138.40368512822272L57.65922546416043,138.41339126035683L57.66041775600477,138.42197421302535L57.6616100478491,138.4140998099249L57.67949442551415,138.42137187120093L57.712878597155566,138.42046754188425L57.714070888999906,138.40926734867492L57.72599380744327,138.36619067665634L57.736724434042294,138.3571010781894L57.741493601419634,138.37745702109186L57.77249318937238,138.3794414874434L57.79514673441477,138.37546415745578L58.249409927106896,138.32897741895582L58.304255351946374,138.29023810917877L58.309024519323714,138.25579161222146L58.40440786687062,138.1866513606481L58.53079080237027,138.18950515633787L58.53675226159195,138.13802139871376L58.54390601265797,138.0590341982962L58.64644311127089,138.06332197041482L58.68221186660098,138.08553306872932L58.697711660577355,138.0282302818081L58.744211042506464,138.0613772500258L58.764480003860186,138.1133070881121L58.76567229570452,138.1033276375726L58.836017514520364,138.08679722844263L58.84555584927506,138.12145722111111L58.90159356595886,138.0511628955965L59.00532295641612,138.03482634638283L59.047053170967885,138.06253417095283L59.04943775465656,138.04608360669457L59.107860055029036,137.8836402920405L59.12097526531674,137.84976415343067L59.15435943695815,137.84060137017732L59.19728194335426,137.75861716378785L59.228281531307005,137.67488435271227L59.247358200816386,137.68119265956284L59.296242166434176,137.76839932548165L59.30220362565586,137.7659424273142L59.31770341963223,137.55671431782008L59.34512613205196,137.50146237749857L59.35108759127364,137.52272534387015L59.48581656968365,137.5306818816286L59.6849293076878,136.95663877178401L59.69565993428684,136.95743592168958L59.7767357797017,136.6478336585081L59.80654307581011,136.61194456794286L59.983002268771884,136.3516490876976L60.05930894680941,136.26782392861293L60.085539367384804,136.35499787838077L60.165422920955336,136.1230617412104L60.21073001104011,135.67692031131463L60.24888335005888,135.44437791606464L60.35261274051613,135.27901243282093L60.38122774478021,136.2041925790837L60.42295795933198,135.60363379647617L60.540994851921276,135.3321882854741L60.67691612217561,135.10627126640418L60.72341550410473,135.08131645224339L60.7520305083688,134.61672676171594L60.78899155554323,134.323502521587L60.9165667828872,133.8964027294785L60.961873872971985,133.52127864218227L61.05129576129721,133.30137219902323L61.070372430806586,132.75702119747183L61.234908705325,132.7466927607283L61.25517766667872,132.43351595108862L61.369637683735,132.2931555501173L61.44713665361686,132.19756968925324L61.47694394972527,132.11127732110984L61.50198207845633,132.28379350031742L61.51986645612137,131.74647006471733L61.534173958253405,132.51659315220036L61.56398125436181,132.38537954637806L61.72970982072456,131.97899959841612L61.8823231767996,131.8530022398264L61.88828463602129,131.56344824301644L61.994398610167224,131.25948201261804L62.00870611229926,130.9282636088791L62.12674300488855,130.703692520542L62.217357185058106,130.84492155982082L62.32227886735971,130.30846427529474L62.338970953180414,130.2966704577039L62.465353888680056,130.04773133571206L62.54523744225059,129.83841895557947L62.55358348516094,129.46373348315635L62.56431411175998,129.15933485773377L62.95896271223529,128.7234632307616L63.14496023995175,128.615946929297L63.316650265536175,127.85995751494988L63.42157194783777,127.69577238259146L63.812643672780084,127.39364173995776L63.86987368130823,127.41081490837743L63.90802702032698,127.48210131821044L63.919949938770344,127.6726782277664L63.985525990208835,127.33637396962526L64.0403714150483,127.45190718077163L64.14886997288292,127.04887106486599L64.34440583535407,126.87940152438506L64.40521271941522,126.4614376359092L64.46840418716505,126.38327081072984L64.50774981802813,126.20096887409105L64.52682648753752,126.17841026698272L64.60313316557504,125.58605807021809L64.6377096290608,125.8797487100339L64.71163172340965,125.90609082657971L64.88332174899408,125.96634097578846L64.89286008374876,125.84745078875127L65.04070427244646,125.0980738670294L65.04189656429081,124.9109825823086L65.04905031535682,124.46900882332008L65.13847220368206,124.54491317636426L65.15397199765842,124.60182540847201L65.19689450405453,124.92021325476773L65.20047137958753,125.02338980582647L65.35666161119559,124.78038319255565L65.659503739657,124.42062364293704L65.67738811732205,124.0859037011347L65.78469438331231,124.2261603444906L66.07561359333037,124.06741789722301L66.13522818554719,123.44296828486281L66.45476239982932,123.23574201613407L67.17132979827542,122.51915239842845L67.23094439049224,122.40858159752364L67.31678940328446,122.41045683866818L67.40382670792101,122.5407822138236L67.43244171218508,122.69856478088556L67.59220881932615,122.35498713937298L67.6041317377695,122.5374748477152L67.72932238142482,122.12706574531461L68.08581764288138,122.27462258634277L68.13827848403218,121.77917164924128L68.20743141100368,121.22556782973052L68.2348541234234,121.59418758808616L68.27181517059783,120.62671732278775L68.29804559117325,120.78732768557701L68.4280054022059,120.49454280907894L68.47927395151235,121.01190191941404L68.51981187421978,120.63600576136552L68.61638751361103,120.39909844625518L68.6187720972997,120.28796211250145L68.70461711009192,120.49208399531153L68.82026941899254,120.23729245202907L68.8286154619029,120.29527230218447L69.05395862048246,120.3465978417777L69.0754198736805,120.24715933322122L69.09688112687856,120.20506745943106L69.3377240794345,119.33535962881375L69.5249138989953,119.1225818817244L69.75144934941919,118.83160614215842L69.7812566455276,119.33816431344965L69.92194708315928,119.2968762004121L70.31540339179026,119.57391507096438L70.94970265297717,118.76028384542136L71.12616184593894,118.30828117462677L71.25016019774992,118.1476749694312L71.37415854956089,118.02547120022012L71.55896378543302,118.45447943475565L71.58877108154144,118.01627033463367L71.91784363057825,117.8629066699979L72.13841762178046,117.70163714768525L72.14914824837949,117.9180567929537L72.16345575051152,118.23499051383341L72.20995513244063,118.16881748911138L72.21472429981799,117.2836273660912L72.25287763883674,117.80471996921594L72.44245204208622,117.09204250209143L72.46987475450595,117.10991841647268L72.5402199733218,117.41522049057L72.54498914069914,117.48470553221597L72.58075789602923,117.4623132428911L72.67017978435446,117.3909961660462L72.7441018787033,116.79419533168961L72.76675542374569,116.74826258788795L72.84544668547188,117.058690744513L72.93606086564145,117.13331863936311L72.98732941494791,116.33570987361745L73.00044462523562,117.27524634379417L73.1184815178249,117.31596569296302L73.26155653914525,117.18639062774568L73.76470369745518,116.50812291739689L73.82312599782765,116.23242972534379L73.92804768012925,116.19828124426812L74.1796212592842,116.26358110865388L74.38708004019873,115.92032834509808L74.68992216866015,116.54125816196411L74.8628044860889,116.14378267849044L75.00945638294228,116.1833362843748L75.2669914213189,115.4752783425309L75.87982942930776,114.43648408223743L75.90963672541618,114.2690259391548L76.04913487120353,113.7509759084305L76.19340218436821,113.97658524690183L76.30547761773583,114.27422633945328L76.38059200392901,113.91017002701574L76.44139888799016,113.82610447924063L76.45689868196654,114.10951854610661L76.46286014118822,113.90436951694517L76.85393186613052,114.35699632641672L76.88970062146062,115.10919726944309L77.02442959987061,115.03028008941548L77.12338982295053,115.09455878052384L77.14365878430425,114.32691655706438L77.17346608041265,114.22085665539473L77.2342729644738,114.2636817042991L77.27600317902558,113.2981525654861L77.3391946467754,113.03718445007311L77.39523236345921,113.7033506484498L77.4011938226809,114.23948581085074L77.41669361665726,114.51155401979132L77.50373092129381,114.50425064093702L77.62534468941611,114.95672062856167L77.62892156494912,114.6803936439493L77.97468619980665,114.57144555458808L78.10583830268364,113.8114962619718L78.49094856840426,113.38653474171451L78.51121752975799,114.02769062809081L78.88440487703525,114.60876851022898L78.95951926322843,113.87213330357505L79.0239030228226,114.36762905186336L79.74285500495738,113.7109119990557L80.12200381145632,114.05694068749563L80.40338468671969,113.0376725120291L80.53692137328537,113.33981563662363L80.59295908996916,113.12936641259934L80.60845888394554,113.5653762811844L80.81472537301572,113.25540038274204L81.08299103799138,112.8130815864268L81.09252937274607,112.99213910144988L81.22010460009005,112.30266658893296L81.2379889777551,112.18252600504763L81.32979544976901,111.86134361037284L81.3524489948114,111.55390436891179L81.54321568990518,112.1746166603159L81.57659986154661,112.23799708387732L81.58375361261264,113.36027367210724L81.59090736367864,114.02743801398269L81.59209965552299,113.20808644348372L81.6254838271644,113.18779794193405L81.80909677119219,113.05159261975433L81.84605781836662,111.80086574116596L81.87348053078635,111.97860406969988L81.95813325173422,111.88679551282034L82.10955431596494,112.66582706659837L82.15247682236104,111.39886210505374L82.20493766351183,111.64747852762635L82.87619797187318,110.66485436226436L83.08484904463202,110.57554315542187L83.0908105038537,110.9415987798786L83.36742221173974,111.12402248817767L83.97787563603991,111.2355439168446L84.08041273465284,110.95620015638873L84.09710482047355,111.56172807923973L84.19606504355346,111.18705311651328L84.52156071705727,111.41186494090839L84.92097848490994,111.65734743282664L84.97701620159374,111.47285073613403L85.04139996118789,111.24432210793105L85.17016748037621,112.07879066413366L85.24170499103639,111.47661863057465L85.38478001235676,111.82333267340756L85.49089398650268,112.38692013335708L85.49327857019136,110.89249654035919L85.52308586629977,110.21496597543532L85.53500878474313,109.94074867248092L85.76869798623304,110.48423555367658L85.88077341960066,110.24494747386308L85.92011905046374,111.11430443284935L86.07034782285012,111.84677338436599L86.13473158244429,111.92656131365119L86.2766143119203,111.53618688947259L86.36603620024553,111.47664094655906L86.59734081804677,111.95151269162312L86.7428004230558,111.50361203144328L86.77141542731987,111.92118325958494L86.9037598220412,110.56550873128343L87.0647192210266,109.38517535977151L87.1827561136159,110.12505151995721L87.21852486894599,109.12606904219452L87.27098571009678,110.32618036550453L88.24508814691954,109.62504462433517L88.40604754590494,109.40384833547719L88.41200900512662,108.42357705028793L88.61231403497511,109.35170818395467L88.64569820661653,109.47137328424874L88.88534886732813,109.30234311483159L89.22157516743097,108.54665504608795L89.28118975964779,107.65809582862329L89.3050355965345,108.29396398342502L89.30742018022318,109.32458683418065L89.43976457494452,108.76775524829101L89.68776127856647,108.71376239641329L89.6925304459438,108.74958440697414L89.79983671193408,108.3576368758109L90.15513968154629,108.05838504280048L90.38644429934753,108.20545212561903L90.44367430787568,109.354167866997L90.74055497711541,107.99479845751256L90.88601458212445,107.61018878066538L91.17574150029816,108.18149800530657L91.21270254747259,106.96044395049852L91.2949706847318,107.41335283239418L91.32239339715153,107.51868826468794L91.35339298510428,107.39480759034556L91.4332765386748,108.30550174283327L91.53700592913206,107.90513894545148L91.6991576199618,107.80032310855358L91.80407930226339,106.83096478944665L91.97576932784781,106.13048558595132L91.99842287289022,106.78307677766595L92.34061063221473,106.05007268669543L92.45507064927101,106.65317449245622L92.51826211702084,106.55818356097548L92.5301850354642,106.97767945205548L92.56118462341693,107.87124373167184L92.97133301786863,106.84664351538012L93.5615174808151,107.98590571444775L93.68074666524873,106.75316521557703L93.73320750639952,106.56753150450425L93.87270565218687,106.33005185292315L93.89059002985191,106.57619835522426L94.1266638150305,107.53629730579192L94.188662990936,107.9573163995701L94.40685239844953,107.76547906302478L94.60715742829804,105.88188390644245L94.61311888751972,105.05870656008662L94.71207911059963,105.7834167260536L95.50853006261627,106.14899150210259L95.53118360765866,106.12854073998211L95.56576007114442,105.41548823264777L95.65756654315831,105.41143348418441L95.94848575317637,105.59918337435627L95.98425450850647,106.39090971980272L95.99975430248283,106.61064587166449L96.03552305781292,107.16833152240629L96.11659890322778,107.52568215341387L96.14521390749186,106.8584301593002L96.38486456820345,105.36246100845769L96.43017165828823,104.01216191038995L96.78428233605611,104.36065011839234L96.8295894261409,104.92220127191231L97.14554676489001,104.0715234455563L97.1515082241117,104.79213654564815L97.15746968333337,105.62760912476553L97.21469969186151,105.42294261295514L97.30054470465373,106.11152015321215L97.72738518492613,105.29364688146086L98.06599606871764,105.4726969131597L98.42010674648552,105.4736659422728L98.56675864333889,105.14556197342836L98.7014876217489,104.42776426287203L98.8624470207343,104.71440531610027L98.89702348422004,104.80266819869352L99.03771392185172,104.43184917231224L99.04009850554039,104.24863462654595L99.15694310628535,103.86480141049259L99.16886602472871,104.92547018370352L99.28809520916234,105.07917938659915L100.05831574060359,105.36985646233637L100.51138664145138,104.74012047334172L100.55192456415882,104.48321029566361L100.57696269288988,104.26808168027553L100.71646083867724,103.96329219760528L100.73553750818661,104.46879733594021L100.77369084720537,104.74522677100369L100.83211314757786,104.17205911376097L100.86072815184193,105.16667290707076L101.39845177363759,104.42802760093248L101.46998928429777,105.12283604721755L101.87298392768345,104.0720064968645L101.88967601350416,103.61928828377756L102.04109707773486,104.23242053417484L102.29028607320114,102.6374899831332L102.51801381546939,104.46092061219396L102.64916591834638,104.96892674422455L102.85900928294956,103.48870003928775L102.89477803827965,103.41814307473142L103.13085182345824,102.97373777877911L103.20119704227407,103.41924627155103L103.22385058731646,102.85243467930847L103.30492643273134,103.2617090606812L103.32757997777374,103.41528312541115L103.47900104200444,102.19888763006244L103.57915355692869,103.1042084496647L103.74726670698011,104.07324490105078L103.83788088714967,105.0329650466947L103.93326423469657,104.874939825019L103.9511486123616,104.82870397866981L104.23849094684665,105.24851206920376L104.374412217101,104.72622914255587L105.16132483436296,104.67125984750447L105.35447611314545,104.51941405844245L105.56551176959297,103.90220324653683L105.60008823307872,104.51586571464283L105.74912471362076,103.86596537941332L105.82543139165828,104.5706095308062L105.88027681649776,104.33085723979856L105.88146910834207,104.10431771769404L105.91127640445049,104.78183865546208L106.50146086739696,102.96197284668678L106.6636125582267,103.32743196110819L106.81980278983474,103.60665633669849L106.85199466963184,103.34007818767796L107.16079825731494,103.49848066614042L107.6722914585352,103.71858797631158L108.07528610192088,102.80774810207119L108.16947715762345,101.24624716696506L108.31135988709947,102.73314292949365L108.73581578368318,102.3880589800428L108.74893099397089,102.25129353574727L108.78469974930098,103.00645176260693L108.88604455606956,102.28950941159844L108.88842913975823,101.9358305374308L109.02435041001257,101.75153046271146L109.1400027189132,102.20633062641075L109.5871121605393,101.26266135453733L109.67772634070887,101.21429431513171L109.68964925915223,101.85091367886291L109.8923388726894,101.28093799900849L109.91380012588745,100.85833164728338L110.09383619438223,101.27764263652914L110.12483578233497,101.304937629983L110.18683495824045,100.5213067989933L110.67329003072967,101.84132669377337L110.7400583740125,102.28294760561039L110.89624860562056,100.8962244064011L110.92009444250728,100.24197000400045L111.19432156670464,101.4359961927153L111.22770573834605,102.41081236688156L111.25035928338843,100.46027674866414L111.58777787533562,101.16800992782628L112.36634444968723,101.23709080107376L112.40449778870598,101.25786728814728L112.59168760826678,101.2620643656414L112.70614762532307,100.84804106910686L112.92552932468095,100.19548877028015L113.48113732414166,101.43394749857687L113.54671337558015,101.1175808457118L113.63971213943839,101.6533493483048L113.67667318661282,101.83940860832944L114.00574573564963,100.39133898212646L114.01289948671565,100.30390020027917L114.37416391554956,100.71345695532676L114.54585394113398,100.50750700263684L114.71873625856273,100.45628916008535L114.88565711676982,101.11910529171027L115.02038609517982,100.33952247065471L115.09669277321734,99.16582271874056L115.18611466154256,100.10192899362231L115.4233807385655,99.92250023658306L115.48180303893797,99.57608095645342L115.82637538195117,99.01370395596959L116.43444422256268,99.87525589442856L116.68363321802897,99.66246415581689L117.1116659901457,98.89602317321278L117.23924121748968,99.64753994452457L117.27739455650844,99.28190455074964L117.40735436754109,99.8604639378592L117.43239249627216,99.31146677159424L117.59215960341322,99.27457779361632L117.70542732862518,99.49430723826693L117.84492547441252,99.31916515746374L117.98800049573288,98.06884906610753L118.01303862446395,98.604460104918L118.07026863299208,97.08808265001794L118.56506974839164,98.31884559548281L118.8989114648058,98.48262073763709L119.02887127583847,98.56228098974218L119.33767486352156,100.43645159891034L119.54751822812476,99.68083221063115L119.6774780391574,98.18558991916429L119.68940095760078,97.87242958600255L119.78359201330335,97.6132148588868L120.18062519746734,98.06234310121074L120.27958542054725,98.00623546582406L120.6587342270462,97.62941507246725L120.73504090508371,97.85810764770288L121.11776658711567,98.79533101990627L121.48976164254859,99.045517286416L121.51718435496832,98.80182674385331L122.26594363321152,99.42564579190899L122.32078905805098,99.7203498787737L122.69755328086127,98.36020638923722L122.79770579578552,99.35395712392047L122.8692433064457,97.62873782366934L123.09577875686958,98.52644169132998L123.25435357216631,97.45057793198986L123.26150732323232,97.40661594944793L123.55838799247206,97.28721459398531L123.64661758895295,96.90962763495793L123.88746054150889,97.11718823391625L124.068688901848,96.47169121969795L124.41564582854987,96.34072626841683L124.54322105589385,97.10246559661637L124.74591066943103,96.89903761538027L124.78048713291678,98.42867657295007L124.83294797406757,97.33610436139945L124.83890943328925,96.70743468240656L124.93310048899181,96.92765474069796L124.98556133014262,97.39777457857883L125.72001310625377,98.5728784743068L125.87620333786184,98.04795461768185L125.99662481413979,97.3650380473321L126.10512337197441,97.18268051074712L126.2529675606721,96.100646653828L126.48427217847335,96.55944751617582L126.52600239302512,96.73860306211583L126.62019344872769,94.46571134352507L126.86938244419397,96.18831141780619L126.92422786903344,97.42549102559349L128.0259055332002,96.28250902726704L128.47182268298198,96.66753133839549L128.482553309581,97.13317234360368L128.54455248548646,96.60841471229159L128.68524292311815,95.83257371119211L128.8700481589903,96.34175564918807L128.90700920616473,96.92323650426674L129.6068845187901,96.27573283993955L129.72372911953508,96.83400993021765L129.74995954011047,96.72762819710353L129.90614977171853,96.24415680867283L130.28529857821746,96.71687213630142L130.40333547080675,95.48007302072328L130.97802013977685,96.71217307293766L131.02094264617298,95.59715139657995L131.13063349585192,96.02478994698339L131.35359207074282,95.22089758553861L132.09162072238695,93.49927355801627L132.1261971858727,94.8983642798451L132.36107867920697,94.27217129850581L132.38373222424934,93.99878209223341L132.49103849023962,93.43164384940773L132.57449891934317,93.8283190183056L132.91430209497904,94.13144103580055L132.93457105633274,94.04974577614144L133.10626108191715,94.71184668884553L133.20999047237444,94.45483726937462L133.58198552780735,93.10578788631783L133.61060053207143,92.38318081135871L133.62490803420343,92.99355442857006L133.82759764774062,94.44506053483371L134.4153975269984,91.81825555934408L134.48455045396994,92.21531849376784L135.41453809255225,93.60085430098385L135.42169184361825,92.87247060309569L135.76984106216446,91.21785741242606L135.94272337959322,91.61941838524216L136.08818298460224,93.7384095190244L136.395794280441,94.69765644248145L136.59013785106782,95.26700298549316L136.91682581641598,94.36105348589473L137.05393937851466,93.47019356663588L137.3746658846411,93.02043296626802L137.57258633080093,94.68961366492111L137.72043051949865,92.3939322025525L137.79554490569183,91.90335370706828L137.81223699151252,91.81676058037138L137.95054284545554,93.11985672150865L138.5168814715153,91.59264788725493L139.46594577960698,91.17141786985864L139.68055831158753,91.4571864200143L139.82721020844087,91.52218656020152L139.9237858478321,91.2273332487828L140.16462880038804,92.2721386412433L140.17059025960972,91.51399540609546L140.22066651707186,91.32474513885033L140.24689693764725,91.53057794822183L140.38162591605726,90.15328775672063L140.38520279159027,90.63131916863163L140.53900843950964,91.07834630155938L140.63439178705656,91.32692414628478L140.7536209714902,91.54325497296372L141.15542332303153,90.43066405278438L141.44157336567224,89.98533389708287L142.51344373373055,90.20909667944291L142.62313458340952,90.10459232295284L142.66128792242827,90.86877118405828L142.89140024838517,91.05130680844046L142.91643837711624,91.82750137228811L143.62585202449634,90.19397276594175L144.19934440162208,90.43040497222692L144.2136519037541,91.65961343562238L144.55345507938998,91.71392769494129L144.65718446984724,91.94186699900129L144.86822012629477,90.45277488121955L145.3057912331662,88.5835994700511L145.57644148183053,89.0693450903803L145.59313356765122,88.31065298932846L145.60505648609458,88.75467133275929L145.73740088081593,87.08514608547524L145.8017846404101,88.7573589068844L146.36216180724813,89.73277934994869L146.53981329205425,91.45499364391154L146.98215356630303,90.74670311357158L147.16338192664213,91.47626205483563L147.2206119351703,91.79203240203164L147.25638069050038,90.13031370819415L147.39110966891036,90.51830896251579L147.57829948847115,90.84206307735873L147.73568201192356,91.001173083577L148.0552162262057,90.222211927496L148.0683314364934,88.7201997882543L148.1577533248186,89.88619619220802L148.6668619423502,89.71136687476826L148.98281928109932,88.00542002833667L149.88419191541757,87.5617025548211L149.89253795832792,88.09858070330502L149.98195984665315,88.30391058405166L150.1739188335913,88.28033705068728L150.29434030986926,88.17626957026243L150.3479934428644,86.41148684535234L151.56770799962044,87.18312607568639L151.72985969045016,85.54686426923188L151.77158990500192,86.05659464588949L152.11139308063778,81.97686024885554L152.19723809342997,82.60708590132076L152.4142352090992,82.83224821992499L152.45238854811797,83.15029313743116L152.67415483116451,83.93957555546574L153.4324524441624,84.26740714631782L153.54572016937433,84.2511841210167L153.70071810913805,82.88226388130563L154.08225149932568,81.80767928576039L154.0858283748587,84.8518535087747L154.2205573532687,86.2556148884898L154.61282137005534,82.24097665254064L155.3770804422749,81.66683698362624L155.3830419014966,82.14406664805834L155.62150027036387,78.29392986803268L155.62507714589685,79.17457669167155L155.66442277675995,82.14329873894711L155.68946090549102,80.70796302956443L155.73953716295316,79.15941637784151L155.8659200984528,79.3476119799008L156.43822018373422,80.9747560422292L156.47160435537566,80.38100127897096L157.28951656059033,81.12243357907784L157.47789867199546,78.36106003983146L157.56016680925467,77.02051808047094L157.68654974475433,79.93095793128981L158.0800060533853,77.89733989918972L158.22308107470565,80.31441396808366L158.37092526340336,78.50054378685957L159.2198370565708,78.91611236078042L159.287797691698,79.57475983525767L159.78617568263056,80.37718744638128L159.89348194862083,77.49633721533876L160.45147453177023,74.59055457668276L160.83420021380215,74.30963160239449L161.0619279560704,73.2377098063846L161.432730719659,73.55580644346554L161.48042239343246,73.66294267637045L162.05510706240253,75.32310566286237L162.23991229827465,73.1987594884782L162.25541209225102,74.3737881535337L162.45690941394386,75.75891536575406L162.7072907012545,74.39875578433765L162.88732676974928,74.60902666633092L163.40478143019124,73.7997795269337L163.84712170443999,71.57571294210894L163.85189087181735,73.50021960455582L164.3466919872169,76.19912475658549L164.42061408156576,78.51924989786536L164.45519054505152,75.51128193379228L164.47307492271653,72.04240218691196L164.75803267351293,69.96934315353374L164.83076247601744,72.9550064781292L164.8319547678618,76.3050760532605L164.9476070767624,73.5894901687172L164.98218354024814,72.86040584389694L165.02629833848857,74.64416561122214L165.2003729477617,76.02553562658582L165.31483296481798,75.16545222311757L166.33901165910285,74.36929608138055L167.10803989869976,68.59542654896663L167.20700012177969,70.3063492611713L168.0189508677727,70.32410748899474L168.39094592320563,70.58179326634492L168.53879011190332,70.3301992081615L169.1313591585385,71.46504346687566L169.19931979366564,70.47254863707394L169.42347066040085,73.91016613350293L169.4640085831083,72.78924295261227L169.51050796503742,73.22781102610845L170.0851926340075,74.151423448362L170.61576250473715,69.96549284627957L170.74214544023684,70.69530986702809L171.42652095888587,68.95850180022856L171.43963616917355,69.64976725211652L171.45513596314993,69.65418659128079L171.47421263265932,69.44184901127949L171.54455785147516,68.2798110176856L172.08585834880384,69.42343310524687L172.39466193648693,71.91530877881377L172.72373448552375,70.48947537251823L172.83938679442437,72.16526624408307L172.85130971286773,70.76451567477346L173.07307599591428,69.76385704740657L173.12434454522074,68.92883425245532L173.4391095921255,68.56322241701572L174.0686396859351,68.58055013797059L174.07579343700112,68.82867519460585L174.27013700762794,68.71604896211844L174.71128499003237,67.59419934200163L175.40042967605874,65.9505374386509L175.42785238847847,68.68737413782564L175.59238866299688,71.47367339836104L176.41030086821158,71.46378275490204L177.14832951985574,70.12553559223375L177.34148079863823,69.25436957294531L177.88635817149992,66.44120827562367L177.99127985380153,65.87063509032374L178.10812445454647,64.51019336305065L178.4300432525173,66.48878771218507L178.53734951850754,66.16481842610416L178.6339251578988,64.45827735705029L178.84853768987932,65.046771591867L178.87834498598772,67.52185271797444L179.1263416896097,64.1799807833294L179.43752986098147,67.14958329650806L179.79044824690502,67.71892984169725L179.91683118240465,68.15872994396692L180.01936828101756,67.09959964532959L180.24232685590846,67.80573665933383L180.54039981699253,66.12913992123768L180.85397257205298,66.94542192891011L181.44058015946644,66.60520885298283L181.70407665706477,64.99641610177108L181.75415291452688,64.06111490451279L181.92584294011132,66.88498022443694L181.9747269057291,67.44130378642338L182.21199298275204,67.44227812992798L182.93452184041982,67.13381578474964L183.13959603764565,67.87484562964208L183.25644063839061,65.72822371429791L183.7095115392384,67.23304274690216L183.7679338396109,69.83724280127616L184.1029678478694,68.71136443830851L184.51550082600977,67.5355741281532L184.52742374445313,67.68695587052825L184.56796166716055,65.90903278245442L184.57392312638223,66.50327709251535L186.36355318473102,65.31252171845912L186.58770405146623,65.32055618280617L186.63539572523968,63.87006546541532L186.757009493362,64.12432984098011L187.05269787075738,62.48669007294511L187.20411893498812,66.05092072277752L187.9683780072077,64.86332837949153L188.10191469377332,64.63966664561339L188.242605131405,62.756615285662605L188.30341201546617,64.96015041578376L188.38687244456972,62.8775870205461L188.59075434995123,64.66063679296411L188.7278679120499,63.35214881394768L188.80417459008743,61.17996235222614L188.85067397201655,61.79088108981705L188.96394169722848,65.25823786361966L189.63877888112282,64.59340543090296L190.50915192748835,64.07357455555423L190.98129949784553,59.76163689503498L191.03256804715195,60.38484162540894L191.07429826170375,61.968078620820066L191.1649124418733,58.64097638863191L191.21856557486845,60.58687248137906L192.4502030500678,61.405052713840064L192.72323788242085,61.658232429254326L192.77808330726032,59.63337477556672L192.81862122996773,59.09133498363501L193.18227024249032,57.67876196885166L193.22996191626376,57.686006884762335L193.99422098848336,56.16475751293471L194.46756085068486,55.89180743111898L194.73701880750485,57.73115775521582L195.475047459149,57.719511560268316L195.4977010041914,55.33627320452008L195.9805792011476,52.608126275321936L196.5576484538064,54.17540383342606L196.81279890849436,53.81756645253934L197.15379437597454,55.39616322291245L197.1633327107292,54.574828530481156L197.2837541870072,52.414827941054654L197.40179107959648,53.76071390002214L197.75590175736437,54.01010047977795L197.76544009211904,52.79434439203855L197.85724656413296,52.98169557480058L198.06470534504746,51.2553286044277L198.23162620325456,52.341493007421406L198.28408704440534,52.091890841468185L198.46769998843314,51.44703425874032L199.0447692410919,51.77537278497816L200.0570250169334,50.89949718690902L200.09994752332955,52.9238675765972L200.39682819256927,54.794826981190965L200.74378511927114,54.91894324288532L200.91309056116688,56.11693820405749L201.0025124494921,54.07291745241875L201.34231562512798,54.406210183653315L202.08749802783817,54.304374084019244L202.26395722079994,54.254642044520025L202.6049526882801,52.924531701383785L203.04729296252884,52.04687815353337L203.4061728076741,51.182298221917065L203.49678698784365,51.69301769932166L203.6231699233433,51.48471566757722L204.42081316720427,52.88946517727962L204.66880987082624,50.320395196884434L204.76896238575048,51.24202640230203L204.78207759603816,53.819831137457584L205.6297970973613,51.94632547758427L205.9982152772612,52.14109803428448L206.06975278792137,54.09570564649097L206.0840602900534,54.40541267428415L206.1496363414919,55.057391322491L206.1591746762466,52.47800681247948L206.16990530284565,51.467849065222225L206.76247434948078,55.296939928396355L206.81731977432025,53.1747129624286L207.18812253790884,51.70809323806678L207.5028875848136,48.198638312951346L207.6006555160492,47.863525316224724L207.8343447175391,47.829901016876164L209.05763614982817,46.998348989923784L209.23409534278994,50.70100926859348L209.525014552808,49.841438339578474L209.5452835141617,49.65644837216925L210.19031340194763,48.69996808353673L210.2189284062117,47.68679912676376L210.27496612289553,49.0975221535425L210.45619448323464,50.302615809390744L211.41002795870367,46.82924851727731L212.0753268078433,46.76281894100799L212.1075186876404,47.38033196787097L212.8300475453082,48.663510212019474L213.0661213304868,50.08665352375816L213.46434680649514,51.14519267586374L213.4834234760045,48.52963836853533L213.50488472920256,49.84405492819903L213.79461164737629,49.237342374935594L214.09387690030468,48.53946144744651L214.46706424758196,45.57703875348588L214.94636556900514,45.791335890014494L215.07155621266045,48.43260025408637L215.1419014314763,48.9703202048114L215.23251561164585,45.75906747146735L215.4578587702254,47.639071421989826L215.52105023797523,46.48798172683598L215.80720028061594,46.52601720958697L216.42242287229348,45.95038303170665L216.45699933577922,46.135240270821896L217.14733631364996,46.60171364854085L217.20337403033375,45.3301613077044L217.44421698288969,43.11915372010969L218.08805457883128,46.68768749954984L218.6043169474289,45.625675653434655L218.7223538400182,44.65771595576575L218.90715907589032,48.06354244850567L219.36261456042678,45.717331313746115L219.54622750445458,44.779893471796356L219.5819962597847,45.84225286500046L219.87053088611404,44.14992994511189L220.03745174432115,44.965045058458855L220.46906139197088,44.03601239684292L221.65777636077416,44.77472951193505L221.87477347644338,45.16317888327163L222.0619632960042,43.15333250513743L222.1978845662585,45.90301893428571L222.6306865057526,47.30063194189984L223.16364096017094,46.255977187157015L223.21848638501038,47.95788928827861L223.8039016805795,49.22400018592013L223.80867084795685,45.305584779695494L224.0435523412911,43.98400297233505L224.1806659033898,46.216406484573156L224.2569725814273,44.577008078230364L224.2855875856914,45.79184015607959L224.43462406623343,46.54347864335159L224.52046907902564,46.76190132087123L224.9461172674537,44.326521549353316L225.42422629703253,44.633786441097726L225.60903153290468,44.61349221108202L225.83914385886158,44.03696906638541L226.25286912884627,44.07348786175476L226.98732090495744,45.9372776245377L227.1995488532493,44.54079819636527L227.54889036363983,43.729784187399304L227.66335038069613,43.10570673680104L227.8886935392757,45.53335486484659L228.24280421704356,45.585278836018574L228.34772589934516,43.77765553869162L228.949833280735,44.640387433919244L229.35163563227633,45.59110574358681L229.89889758882666,44.03748494048244L229.98474260161888,42.68980451743255L230.559427270589,43.24141628997677L231.07449734734226,43.565148140597074L231.53949116663344,42.507695418188774L231.86856371567026,41.652032990181425L232.05336895154235,41.24096211590822L232.79974364609689,41.378819477219025L232.92135741421922,40.506485790381134L233.27546809198708,39.64923218274734L233.47219624630256,39.0645950927921L233.50558041794397,44.375883738877945L233.5985791818022,43.7290276880631L233.64150168819833,45.1228436361981L233.73211586836788,45.32140086748569L233.7356927439009,42.713893542447465L233.75953858078762,40.40622942176876L234.01588132731993,43.26043211057765L234.05761154187167,41.27369272508403L234.0874188379801,41.8398058300055L234.96375334356728,42.01306379611475L235.47643883663187,41.217784971718345L236.20850602905438,44.32411526935954L236.71046089551996,42.045237258196835L237.23149243149493,41.80143565565473L237.26487660313634,41.72027161028569L237.4174899592114,38.63175016059745L237.7501393837812,38.159529354033594L238.11855756368112,37.99919548950146L238.30574738324194,36.58515282000175L238.7409339064247,37.21167704933228L239.38715608605494,40.25428434380393L239.3883483778993,41.928942851299524L239.3895406697436,38.1305901878936L239.39073296158796,36.30429619741224L239.3919252534323,37.031793455497336L239.39311754527662,36.827458667223794L239.39430983712097,37.092458485665645L239.39550212896532,38.553796699854985L239.39669442080967,36.116872117308134L239.39788671265396,37.37412381868455L239.3990790044983,38.456126623978975L239.40027129634265,40.03763717021755L239.40146358818697,39.28006685393049L239.40265588003132,39.457055390689106L239.40384817187567,37.56529614877678L239.40504046372,35.143406308161445L239.40623275556433,35.73266964704098L239.40742504740868,38.29400118861733L239.40861733925303,37.439045447127086L239.40980963109732,36.36585980292082L239.41100192294167,38.90337489145759L239.412194214786,36.278039745613455L239.41338650663033,37.087358111636775L239.41457879847468,38.74712082574999L239.41577109031903,37.787403765844175L239.41696338216337,36.538698729619824L239.4181556740077,36.43237605469733L239.41934796585204,35.1592682925571L239.4205402576964,35.53339926524097L239.42173254954068,33.8725880858525L239.42292484138503,33.99135776762495L239.42411713322937,34.264171936219554L239.42530942507372,35.25784271790704L239.42650171691804,34.888661064857644L239.4276940087624,36.562777854464315L239.42888630060673,36.25664079035417L239.43007859245105,34.89671965370127L239.4312708842954,35.78414281020849L239.43246317613975,35.17860107414478L239.43365546798407,36.999276728348946L239.4348477598284,37.200717331559474L239.43604005167273,39.12314970714095L239.43723234351708,38.780987264584496L239.4384246353614,36.48367966730197L239.43961692720575,34.19985989380794L239.4408092190501,33.02181797264896L239.4420015108944,37.05922528276312L239.44319380273876,36.641331802208384L239.4443860945831,35.62262954396974L239.44557838642743,36.157672633744596" style="fill: none;" fill="none"></path></g></g></g></g><g opacity="0.2"><g><g><g><path stroke="rgb(255, 112, 67)" stroke-width="2px" d="M56.885428057186175,138.52601500668084L57.28723040872751,138.49648354345544L57.34207583356698,138.48212513323338L57.417190219760165,138.40777971209963L57.43388230558087,138.43446743283044L57.45176668324592,138.49638169733623L57.47322793644397,138.40649023323695L57.4970737733307,138.46990518870095L57.501842940708045,138.50534296980584L57.50541981624105,138.4301361465105L57.52568877759477,138.52329811761567L57.526881069439106,138.4571475996157L57.53403482050513,138.37409193802267L57.57099586767955,138.37616656062966L57.604380039320965,138.39361555644285L57.61391837407566,138.3766264327L57.61749524960866,138.37883393976276L57.63657191911805,138.41635477177093L57.63776421096238,138.47515523501914L57.64253337833973,138.40422718521575L57.64849483756141,138.38021698785485L57.65922546416043,138.4279501391736L57.66041775600477,138.43484847257267L57.6616100478491,138.402288298554L57.67949442551415,138.43227991142834L57.712878597155566,138.41911105176573L57.714070888999906,138.3924670875192L57.72599380744327,138.3015757347613L57.736724434042294,138.34346668886178L57.741493601419634,138.40799092419513L57.77249318937238,138.38241818631263L57.79514673441477,138.36949816326575L58.249409927106896,138.25924731675542L58.304255351946374,138.23212914728802L58.309024519323714,138.20412186826584L58.40440786687062,138.08294098507093L58.53079080237027,138.19378584982837L58.53675226159195,138.06079576275556L58.54390601265797,137.94055339810978L58.64644311127089,138.06975362857844L58.68221186660098,138.11884971615655L58.697711660577355,137.94227610149525L58.744211042506464,138.1110977023284L58.764480003860186,138.19120184521898L58.76567229570452,138.08835846176592L58.836017514520364,138.06200161475033L58.84555584927506,138.1734472101106L58.90159356595886,137.9457214073285L59.00532295641612,138.01032152256283L59.047053170967885,138.10409590780728L59.04943775465656,138.02140776030734L59.107860055029036,137.63997532006056L59.12097526531674,137.7989499455161L59.15435943695815,137.82685719529735L59.19728194335426,137.6356408542037L59.228281531307005,137.549285136099L59.247358200816386,137.6906551198387L59.296242166434176,137.8992093243598L59.30220362565586,137.762257080063L59.31770341963223,137.24287215357896L59.34512613205196,137.41858446701633L59.35108759127364,137.55461979342752L59.48581656968365,137.54261668826626L59.6849293076878,136.09557410701717L59.69565993428684,136.95863164654787L59.7767357797017,136.18343026373586L59.80654307581011,136.55811093209502L59.983002268771884,135.96120586732974L60.05930894680941,136.1420861899859L60.085539367384804,136.48575880303255L60.165422920955336,135.77515753545487L60.21073001104011,135.00770816647096L60.24888335005888,135.09556432318965L60.35261274051613,135.03096420795532L60.38122774478021,137.59196279847785L60.42295795933198,134.7027956225649L60.540994851921276,134.92502001897103L60.67691612217561,134.76739573779923L60.72341550410473,135.0438842310022L60.7520305083688,133.91984222592475L60.78899155554323,133.88366616139353L60.9165667828872,133.2557530413158L60.961873872971985,132.95859251123787L61.05129576129721,132.97151253428473L61.070372430806586,131.94049469514474L61.234908705325,132.731200105613L61.25517766667872,131.9637507366291L61.369637683735,132.08261494866028L61.44713665361686,132.05419089795717L61.47694394972527,131.9818387688947L61.50198207845633,132.54256776912874L61.51986645612137,130.94048491131724L61.534173958253405,133.67177778342491L61.56398125436181,132.1885591376446L61.72970982072456,131.36942967647323L61.8823231767996,131.6640062019418L61.88828463602129,131.1291172478015L61.994398610167224,130.80353266702045L62.00870611229926,130.43143600327068L62.12674300488855,130.36683588803635L62.217357185058106,131.05676511873904L62.32227886735971,129.50377834850565L62.338970953180414,130.27897973131766L62.465353888680056,129.67432265272427L62.54523744225059,129.52445038538062L62.55358348516094,128.90170527452165L62.56431411175998,128.7027369195999L62.95896271223529,128.0696557903034L63.14496023995175,128.45467247710005L63.316650265536175,126.72597339342924L63.42157194783777,127.44949468405379L63.812643672780084,126.94044577600722L63.86987368130823,127.43657466100692L63.90802702032698,127.58903093295996L63.919949938770344,127.95854359210034L63.985525990208835,126.83191758241355L64.0403714150483,127.62520699749118L64.14886997288292,126.44431689100753L64.34440583535407,126.62519721366368L64.40521271941522,125.83449180319542L64.46840418716505,126.26602057296077L64.50774981802813,125.92751596913286L64.52682648753752,126.14457235632023L64.60313316557504,124.69752977507113L64.6377096290608,126.32028466975763L64.71163172340965,125.94560400139846L64.88332174899408,126.05671619960152L64.89286008374876,125.66911550819552L65.04070427244646,123.97400848444657L65.04189656429081,124.63034565522742L65.04905031535682,123.80604818483731L65.13847220368206,124.65876970593052L65.15397199765842,124.68719375663363L65.19689450405453,125.39779502421132L65.20047137958753,125.17815463241456L65.35666161119559,124.41587327264942L65.659503739657,123.88098431850912L65.67738811732205,123.58382378843119L65.78469438331231,124.4365453095244L66.07561359333037,123.82930422632167L66.13522818554719,122.5062938663225L66.45476239982932,122.92490261304098L67.17132979827542,121.44426797187003L67.23094439049224,122.2427253961664L67.31678940328446,122.41326970038504L67.40382670792101,122.73627027655672L67.43244171218508,122.93523863147847L67.59220881932615,121.83962067710415L67.6041317377695,122.81120641022855L67.72932238142482,121.51145209171372L68.08581764288138,122.495957847885L68.13827848403218,121.03599524358903L68.20743141100368,120.39516210046443L68.2348541234234,122.14711722561958L68.27181517059783,119.17551192484018L68.29804559117325,121.0282432297609L68.4280054022059,120.05536549433182L68.47927395151235,121.78794058491668L68.51981187421978,120.07216152429275L68.61638751361103,120.04373747358963L68.6187720972997,120.12125761187085L68.70461711009192,120.79826681952667L68.82026941899254,119.85510513710538L68.8286154619029,120.38224207741754L69.05395862048246,120.42358615116753L69.0754198736805,120.09800157038649L69.09688112687856,120.14192964874583L69.3377240794345,118.03079788288777L69.5249138989953,118.80341526109041L69.75144934941919,118.39514253280942L69.7812566455276,120.09800157038649L69.92194708315928,119.23494403085577L70.31540339179026,119.9894733767928L70.94970265297717,117.53983700710683L71.12616184593894,117.63027716843489L71.25016019774992,117.90676566163785L71.37415854956089,117.8421655464035L71.55896378543302,119.09799178655899L71.58877108154144,117.35895668445067L71.91784363057825,117.63286117304426L72.13841762178046,117.45973286421625L72.14914824837949,118.24268626085639L72.16345575051152,118.71039109515297L72.20995513244063,118.06955795202836L72.21472429981799,115.95584218156094L72.25287763883674,118.58635887390305L72.44245204208622,116.02302630140463L72.46987475450595,117.13673228804457L72.5402199733218,117.87317360171599L72.54498914069914,117.58893309468492L72.58075789602923,117.42872480890377L72.67017978435446,117.28402055077885L72.7441018787033,115.89899408015472L72.76675542374569,116.67936347218549L72.84544668547188,117.52433297945058L72.93606086564145,117.24526048163825L72.98732941494791,115.13929672499893L73.00044462523562,118.68455104905924L73.1184815178249,117.3770447167163L73.26155653914525,116.99202802991965L73.76470369745518,115.49072135187372L73.82312599782765,115.81888993726415L73.92804768012925,116.14705852265456L74.1796212592842,116.36153090523256L74.38708004019873,115.4054491997644L74.68992216866015,117.47265288726311L74.8628044860889,115.54756945327993L75.00945638294228,116.24266669320137L75.2669914213189,114.41319142976502L75.87982942930776,112.87829269179721L75.90963672541618,114.01783872453089L76.04913487120353,112.97390086234404L76.19340218436821,114.31499925460884L76.30547761773583,114.72068797828045L76.38059200392901,113.36408555835942L76.44139888799016,113.70000615757796L76.45689868196654,114.53463964640557L76.46286014118822,113.59664597320301L76.85393186613052,115.035936540624L76.88970062146062,116.23749868398264L77.02442959987061,114.91190431937407L77.12338982295053,115.19097681718641L77.14365878430425,113.17545322187516L77.17346608041265,114.06176680289023L77.2342729644738,114.3279192776557L77.27600317902558,111.84985885726661L77.3391946467754,112.64573227695362L77.39523236345921,114.70259994601483L77.4011938226809,115.04368855445213L77.41669361665726,114.9196563332022L77.50373092129381,114.4932955726556L77.62534468941611,115.63542560999863L77.62892156494912,114.26590316703073L77.97468619980665,114.40802342054627L78.10583830268364,112.67157232304734L78.49094856840426,112.74909246132854L78.51121752975799,114.98942445765528L78.88440487703525,115.48038533343623L78.95951926322843,112.76718049359417L79.0239030228226,115.11087267429583L79.74285500495738,112.72583641984419L80.12200381145632,114.57598372015553L80.40338468671969,111.50877024882932L80.53692137328537,113.7930303235154L80.59295908996916,112.81369257656289L80.60845888394554,114.21939108406201L80.81472537301572,112.79043653507853L81.08299103799138,112.14960339195392L81.09252937274607,113.26072537398449L81.22010460009005,111.2684578201576L81.2379889777551,112.00231512921964L81.32979544976901,111.37957001836065L81.3524489948114,111.0927455067202L81.54321568990518,113.10568509742208L81.57659986154661,112.33306771921943L81.58375361261264,115.04368855445213L81.59090736367864,115.02818452679588L81.59209965552299,111.97905908773528L81.6254838271644,113.15736518960955L81.80909677119219,112.84728463648474L81.84605781836662,109.92477542328344L81.87348053078635,112.24521156250074L81.95813325173422,111.74908267750105L82.10955431596494,113.83437439726538L82.15247682236104,109.49841466273682L82.20493766351183,112.02040316148526L82.87619797187318,109.19091811422139L83.08484904463202,110.44157634515811L83.0908105038537,111.49068221656371L83.36742221173974,111.39765805062626L83.97787563603991,111.40282605984501L84.08041273465284,110.53718451570492L84.09710482047355,112.47001996351622L84.19606504355346,110.62504067242362L84.52156071705727,111.74908267750105L84.92097848490994,112.025571170704L84.97701620159374,111.19610569109514L85.04139996118789,110.90152916562657L85.17016748037621,113.33049349843756L85.24170499103639,110.57336058023616L85.38478001235676,112.34340373765693L85.49089398650268,113.23230132328138L85.49327857019136,108.65086115086235L85.52308586629977,109.1986701280495L85.53500878474313,109.5294227180493L85.76869798623304,111.29946587547008L85.88077341960066,109.88601535414283L85.92011905046374,112.41833987132875L86.07034782285012,112.94547681164093L86.13473158244429,112.04624320757898L86.2766143119203,110.95062525320466L86.36603620024553,111.38732203218878L86.59734081804677,112.66382030921922L86.7428004230558,110.8317610411735L86.77141542731987,112.54754010179742L86.9037598220412,108.53199693883117L87.0647192210266,107.61467530250361L87.1827561136159,111.23486576023573L87.21852486894599,107.62759532555049L87.27098571009678,112.12634735046956L88.24508814691954,108.57334101258114L88.40604754590494,109.0720539021902L88.41200900512662,106.95317012250402L88.61231403497511,110.74390488445479L88.64569820661653,109.65087093468985L88.88534886732813,109.04879786070585L89.22157516743097,107.41312294297249L89.28118975964779,106.32525700242628L89.3050355965345,109.24776621562759L89.30742018022318,110.87052111031409L89.43976457494452,107.93250786945654L89.68776127856647,108.63277311859673L89.6925304459438,108.80331742281538L89.79983671193408,107.76971557906602L90.15513968154629,107.60950729328486L90.38644429934753,108.42605274984686L90.44367430787568,111.07724147906397L90.74055497711541,105.9557443432859L90.88601458212445,107.0332742653946L91.17574150029816,109.03846184226836L91.21270254747259,105.12886286828642L91.2949706847318,108.0927161552377L91.32239339715153,107.67669141312858L91.35339298510428,107.208986578832L91.4332765386748,109.67154297156483L91.53700592913206,107.30459474937881L91.6991576199618,107.64309935320672L91.80407930226339,105.37692731078626L91.97576932784781,105.07976678070831L91.99842287289022,107.76196356523789L92.34061063221473,104.95056655023964L92.45507064927101,107.55782720109741L92.51826211702084,106.41569716375436L92.5301850354642,107.60692328867549L92.56118462341693,109.21159015109637L92.97133301786863,105.30974319094256L93.5615174808151,109.69479901304919L93.68074666524873,104.90405446727092L93.73320750639952,106.28908093789506L93.87270565218687,105.97383237555151L93.89059002985191,106.94541810867591L94.1266638150305,108.9764457316434L94.188662990936,108.58884504023737L94.40685239844953,107.47772305820682L94.60715742829804,103.05649117156895L94.61311888751972,103.82394054055285L94.71207911059963,106.87048197500408L95.50853006261627,106.69735366617607L95.53118360765866,106.09786459680143L95.56576007114442,104.34590947164627L95.65756654315831,105.40535136148937L95.94848575317637,105.88080820961406L95.98425450850647,107.5784992379724L95.99975430248283,106.94025009945716L96.03552305781292,108.004859998519L96.11659890322778,108.06170809992521L96.14521390749186,105.8575521681297L96.38486456820345,103.11850728219392L96.43017165828823,101.98671326328837L96.78428233605611,104.88338243039594L96.8295894261409,105.76452800219226L97.14554676489001,102.79550670602224L97.1515082241117,105.87305619578595L97.15746968333337,106.88081799344157L97.21469969186151,105.11594284523954L97.30054470465373,107.14438646359766L97.72738518492613,104.06683697383394L98.06599606871764,105.7412719607079L98.42010674648552,105.47511948594244L98.56675864333889,104.6534060201617L98.7014876217489,103.35106769703752L98.8624470207343,105.14436689594265L98.89702348422004,104.93506252258341L99.03771392185172,103.87562063274031L99.04009850554039,103.97381280789651L99.15694310628535,103.28905158641255L99.16886602472871,106.51647334351992L99.28809520916234,105.30974319094256L100.05831574060359,105.80587207594223L100.51138664145138,103.79551648984973L100.55192456415882,104.09784502914643L100.57696269288988,103.9453887571934L100.71646083867724,103.50610797359992L100.73553750818661,105.2270550434426L100.77369084720537,105.15987092359889L100.83211314757786,103.31230762789691L100.86072815184193,106.65859359703546L101.39845177363759,103.32005964172504L101.46998928429777,106.16504871664515L101.87298392768345,102.49576217133492L101.88967601350416,102.94021096414714L102.04109707773486,105.15211890977078L102.29028607320114,100.2450941565707L102.51801381546939,107.19606655578512L102.64916591834638,105.73093594227042L102.85900928294956,101.26835998188255L102.89477803827965,103.31230762789691L103.13085182345824,102.30712983485066L103.20119704227407,104.08750901070893L103.22385058731646,102.0022172909446L103.30492643273134,103.87562063274031L103.32757997777374,103.64564422250609L103.47900104200444,100.37429438703937L103.57915355692869,104.46218967906808L103.74726670698011,105.52679957812991L103.83788088714967,106.47254526516058L103.93326423469657,104.63790199250546L103.9511486123616,104.759350209146L104.23849094684665,105.87822420500468L104.374412217101,103.94280475258402L105.16132483436296,104.58880590492737L105.35447611314545,104.29164537484944L105.56551176959297,102.97638702867837L105.60008823307872,105.43635941680185L105.74912471362076,102.89111487656906L105.82543139165828,105.62757575789547L105.88027681649776,103.97122880328712L105.88146910834207,103.76450843453726L105.91127640445049,105.79812006211412L106.50146086739696,100.23217413352383L106.6636125582267,103.87562063274031L106.81980278983474,104.02549290008398L106.85199466963184,102.94021096414714L107.16079825731494,103.73608438383415L107.6722914585352,104.04874894156833L108.07528610192088,101.44148829071058L108.16947715762345,98.9039957643059L108.31135988709947,104.96348657328652L108.73581578368318,101.87043305586656L108.74893099397089,102.04614536930396L108.78469974930098,104.13918910289641L108.88604455606956,101.21409588508571L108.88842913975823,101.40531222617935L109.02435041001257,101.47508035063242L109.1400027189132,102.88853087195967L109.5871121605393,99.8471574467272L109.67772634070887,101.14174375602326L109.68964925915223,102.80584272445972L109.8923388726894,100.42597447922682L109.91380012588745,100.2244221196957L110.09383619438223,101.90660912039779L110.12483578233497,101.34588012016376L110.18683495824045,99.34586055250875L110.67329003072967,103.82135653594348L110.7400583740125,102.94537897336589L110.89624860562056,98.81613960758722L110.92009444250728,99.26058840039943L111.19432156670464,103.22703547578759L111.22770573834605,103.87303662813095L111.25035928338843,97.53447332133801L111.58777787533562,102.22960969656947L112.36634444968723,101.34071211094502L112.40449778870598,101.28903201875755L112.59168760826678,101.26835998188255L112.70614762532307,100.22700612430508L112.92552932468095,99.21666032204008L113.48113732414166,103.29163559102193L113.54671337558015,100.64303086641421L113.63971213943839,102.45700210219432L113.67667318661282,102.11849749836641L114.00574573564963,98.21923454282195L114.01289948671565,100.17274202750824L114.37416391554956,101.32779208789815L114.54585394113398,100.19858207360197L114.71873625856273,100.3794623962581L114.88565711676982,102.11332948914766L115.02038609517982,99.17014823907137L115.09669277321734,97.40527309086933L115.18611466154256,101.50608840594491L115.4233807385655,99.65335710102418L115.48180303893797,99.05645203625893L115.82637538195117,98.17013845524386L116.43444422256268,101.167583802117L116.68363321802897,99.34327654789938L117.1116659901457,97.74636169930662L117.23924121748968,100.77481510149224L117.27739455650844,98.73345146008727L117.40735436754109,100.72830301852352L117.43239249627216,98.48797102219679L117.59215960341322,99.21924432664946L117.70542732862518,99.82390140524282L117.84492547441252,99.05645203625893L117.98800049573288,96.19337492907322L118.01303862446395,99.40787666313372L118.07026863299208,94.81351646766782L118.56506974839164,100.16499001368011L118.8989114648058,98.7282834508685L119.02887127583847,98.68177136789978L119.33767486352156,103.24770751266259L119.54751822812476,98.54740312821238L119.6774780391574,95.942726481964L119.68940095760078,97.40268908625997L119.78359201330335,97.2243927682132L120.18062519746734,98.73603546469664L120.27958542054725,97.92207401274402L120.6587342270462,97.06418448243205L120.73504090508371,98.20114651055634L121.11776658711567,100.20116607821134L121.48976164254859,99.42079668618058L121.51718435496832,98.43629093000932L122.26594363321152,100.3613743639925L122.32078905805098,100.16240600907075L122.69755328086127,96.31999115493251L122.79770579578552,100.84458322594533L122.8692433064457,95.04090887329268L123.09577875686958,99.87299749282093L123.25435357216631,95.83678229297969L123.26150732323232,97.340672975635L123.55838799247206,97.1081125607914L123.64661758895295,96.34324719641687L123.88746054150889,97.4285291323537L124.068688901848,95.50344569837051L124.41564582854987,96.14427884149512L124.54322105589385,98.24507458891568L124.74591066943103,96.59389564352608L124.78048713291678,100.72313500930478L124.83294797406757,95.69724604407352L124.83890943328925,95.76443016391724L124.93310048899181,97.25798482813505L124.98556133014262,98.10295433540016L125.72001310625377,100.33553431789876L125.87620333786184,97.26056883274443L125.99662481413979,96.34066319180751L126.10512337197441,96.90914420586965L126.2529675606721,94.47759586844928L126.48427217847335,97.24764880969757L126.52600239302512,97.00733638102584L126.62019344872769,91.05637376563891L126.86938244419397,98.77221152922786L126.92422786903344,99.28126043727441L128.0259055332002,94.56803602977735L128.47182268298198,97.24506480508818L128.482553309581,97.83163385141594L128.54455248548646,95.82127826532344L128.68524292311815,94.66881220954292L128.8700481589903,97.10552855618202L128.90700920616473,97.79545778688471L129.6068845187901,95.30447734344877L129.72372911953508,97.67142556563479L129.74995954011047,96.56805559743236L129.90614977171853,95.51894972602676L130.28529857821746,97.42594512774433L130.40333547080675,93.62487434735606L130.97802013977685,98.56032315125924L131.02094264617298,93.92461888204338L131.13063349585192,96.66624777258855L131.35359207074282,94.01505904337144L132.09162072238695,90.91683751673274L132.1261971858727,96.99700036258834L132.36107867920697,93.33288182649686L132.38373222424934,93.58869828282484L132.49103849023962,92.5809364851692L132.57449891934317,94.42333177165244L132.91430209497904,94.58612406204297L132.93457105633274,93.92720288665275L133.10626108191715,95.70499805790165L133.20999047237444,94.0693231401683L133.58198552780735,91.08221381173264L133.61060053207143,91.29927019892001L133.62490803420343,93.90911485438713L133.82759764774062,96.6223196942292L134.4153975269984,87.87804809610964L134.48455045396994,92.81091289540345L135.41453809255225,95.67915801180791L135.42169184361825,91.77989505626346L135.76984106216446,88.7359376264216L135.94272337959322,92.2217598444663L136.08818298460224,96.91689621969776L136.395794280441,96.136526827667L136.59013785106782,96.12102280001076L136.91682581641598,93.00212923649707L137.05393937851466,92.13390368774762L137.3746658846411,92.34579206571622L137.57258633080093,97.19338471290072L137.72043051949865,88.95041000899958L137.79554490569183,91.16748596384197L137.81223699151252,91.68687089032602L137.95054284545554,95.07450093321454L138.5168814715153,89.30183463587437L139.46594577960698,90.53957284376422L139.68055831158753,91.88583924524777L139.82721020844087,91.6196867704823L139.9237858478321,90.7850532816547L140.16462880038804,93.83934672993405L140.17059025960972,90.3767805533737L140.22066651707186,91.04086973798267L140.24689693764725,91.83932716227905L140.38162591605726,88.08735246946887L140.38520279159027,91.3483662864981L140.53900843950964,91.74888700095097L140.63439178705656,91.69979091337288L140.7536209714902,91.86775121298216L141.15542332303153,88.76177767251532L141.44157336567224,89.3173386635306L142.51344373373055,90.54474085298298L142.62313458340952,89.94783578821772L142.66128792242827,92.01503947571643L142.89140024838517,91.32511024501375L142.91643837711624,92.99179321805957L143.62585202449634,87.74367985642222L144.19934440162208,90.7850532816547L144.2136519037541,93.50342613071551L144.55345507938998,91.7953990839197L144.65718446984724,92.28377595509127L144.86822012629477,88.21913670454693L145.3057912331662,85.77983635329844L145.57644148183053,89.79796352087406L145.59313356765122,87.1726148377507L145.60505648609458,89.42069884790554L145.73740088081593,84.58085821454918L145.8017846404101,91.26567813899815L146.36216180724813,91.19591001454508L146.53981329205425,94.0383150848558L146.98215356630303,89.68426731806164L147.16338192664213,92.57060046673172L147.2206119351703,92.26568792282566L147.25638069050038,87.63773566743791L147.39110966891036,91.10030184399825L147.57829948847115,91.32769424962311L147.73568201192356,91.23983809290442L148.0552162262057,89.05377019337453L148.0683314364934,86.46718157939176L148.1577533248186,91.63519079813854L148.6668619423502,89.44912289860866L148.98281928109932,85.44649975868927L149.88419191541757,86.89612634454774L149.89253795832792,88.90389792603087L149.98195984665315,88.61190540517168L150.1739188335913,88.24497675064065L150.29434030986926,88.02016834962517L150.3479934428644,83.76431275798718L151.56770799962044,88.34058492118747L151.72985969045016,83.09247155955012L151.77158990500192,86.82119021087591L152.11139308063778,75.8572586533046L152.19723809342997,83.55242438001856L152.4142352090992,83.1699916978313L152.45238854811797,83.62736051369039L152.67415483116451,85.12349918251759L153.4324524441624,84.75915453259594L153.54572016937433,84.22684958306502L153.70071810913805,80.82888352173902L154.08225149932568,80.19580239244252L154.0858283748587,89.41811484329618L154.2205573532687,88.36125695806246L154.61282137005534,76.21901929861689L155.3770804422749,80.80562748025466L155.3830419014966,82.8599111447065L155.62150027036387,72.51872469799417L155.62507714589685,80.49554692712985L155.66442277675995,86.59638180986043L155.68946090549102,78.55495946549043L155.73953716295316,76.83659640025711L155.8659200984528,79.62990538298976L156.43822018373422,83.41547213572179L156.47160435537566,79.4903691340836L157.28951656059033,82.23458202923813L157.47789867199546,74.21899973096187L157.56016680925467,75.00970514143012L157.68654974475433,84.2966177075181L158.0800060533853,74.8469128510396L158.22308107470565,83.94002507142457L158.37092526340336,75.7797385150234L159.2198370565708,79.53946522166169L159.287797691698,80.56273104697355L159.78617568263056,81.58082886306667L159.89348194862083,73.17506186877503L160.45147453177023,70.23188061869872L160.83420021380215,73.88824714096208L161.0619279560704,71.62982711236974L161.432730719659,74.032951399087L161.48042239343246,73.82364702572774L162.05510706240253,77.81335014260026L162.23991229827465,70.01224022690198L162.25541209225102,76.13633115111693L162.45690941394386,77.83660618408462L162.7072907012545,72.35851641221304L162.88732676974928,74.9244329893208L163.40478143019124,72.58590881783789L163.84712170443999,68.23961306487185L163.85189087181735,76.38697959822615L164.3466919872169,80.24748248463L164.42061408156576,81.99943760978515L164.45519054505152,70.99932998768263L164.47307492271653,66.83908256659146L164.75803267351293,66.85975460346646L164.83076247601744,77.43350146502237L164.8319547678618,81.33018041595744L164.9476070767624,69.5161113419023L164.98218354024814,71.76677935666652L165.02629833848857,77.31980526220994L165.2003729477617,78.09759064963134L165.31483296481798,73.87532711791522L166.33901165910285,73.17506186877503L167.10803989869976,59.93462225034574L167.20700012177969,72.87273332947834L168.0189508677727,70.3507448307299L168.39094592320563,70.96832193237013L168.53879011190332,69.9528081208864L169.1313591585385,73.1673098549469L169.19931979366564,68.98380639237138L169.42347066040085,79.06659237814637L169.4640085831083,71.10785818127631L169.51050796503742,73.8856631363527L170.0851926340075,75.53684208174231L170.61576250473715,63.68659694315592L170.74214544023684,71.79003539815088L171.42652095888587,66.35328970002926L171.43963616917355,70.68666542994843L171.45513596314993,69.6608156000272L171.47421263265932,69.12334264127753L171.54455785147516,66.53675402729478L172.08585834880384,71.13886623658878L172.39466193648693,75.6531222891641L172.72373448552375,68.35072526307489L172.83938679442437,74.67895255143034L172.85130971286773,68.66338982080906L173.07307599591428,68.2628691063562L173.12434454522074,67.67630006002844L173.4391095921255,68.01480466385635L174.0686396859351,68.60654171940286L174.07579343700112,69.20086277955873L174.27013700762794,68.54710961338726L174.71128499003237,65.9114249118264L175.40042967605874,63.485044583624784L175.42785238847847,72.79262918658776L175.59238866299688,75.6531222891641L176.41030086821158,71.4489467897136L177.14832951985574,68.1181648482313L177.34148079863823,67.94762054401264L177.88635817149992,62.2214663296412L177.99127985380153,65.01477531237384L178.10812445454647,62.469530772141056L178.4300432525173,69.45667923588671L178.53734951850754,65.67886449698281L178.6339251578988,61.89846575346952L178.84853768987932,65.92951294409202L178.87834498598772,71.23447440713561L179.1263416896097,59.16717288136185L179.43752986098147,71.60398706627599L179.79044824690502,68.57294965948101L179.91683118240465,68.81843009737148L180.01936828101756,65.51090419737353L180.24232685590846,68.8649421803402L180.54039981699253,63.61424481409347L180.85397257205298,68.16984494041876L181.44058015946644,66.09488923909193L181.70407665706477,62.58322697495349L181.75415291452688,62.6581631086253L181.92584294011132,71.12077820432319L181.9747269057291,68.27578912940305L182.21199298275204,67.44373964518483L182.93452184041982,66.6711222669822L183.13959603764565,68.98639039698075L183.25644063839061,62.50829084128165L183.7095115392384,69.49027129580857L183.7679338396109,73.74354288283716L184.1029678478694,67.02254689385697L184.51550082600977,65.77188866292025L184.52742374445313,67.91402848409079L184.56796166716055,63.24214815034368L184.57392312638223,67.39464355760674L186.36355318473102,63.52638865737477L186.58770405146623,65.33260787932677L186.63539572523968,61.69432938932903L186.757009493362,64.50572640432728L187.05269787075738,60.030230420892565L187.20411893498812,71.39726669752612L187.9683780072077,63.08193986456254L188.10191469377332,64.30417404479617L188.242605131405,59.93203824573638L188.30341201546617,68.26545311096557L188.38687244456972,59.7537419276896L188.59075434995123,67.33521145159115L188.7278679120499,61.38941684542297L188.80417459008743,57.92168265964388L188.85067397201655,62.70725919620341L188.96394169722848,70.45927302432358L189.63877888112282,63.596156781827844L190.50915192748835,63.29382824253116L190.98129949784553,53.293730404256124L191.03256804715195,61.319648720969894L191.07429826170375,64.34293411393676L191.1649124418733,53.65032304034965L191.21856557486845,63.50571662049978L192.4502030500678,62.63232306253157L192.72323788242085,62.038002002375706L192.77808330726032,56.59608829503533L192.81862122996773,58.2782752957374L193.18227024249032,55.55990244667659L193.22996191626376,57.696874258628384L193.99422098848336,53.882883455193266L194.46756085068486,55.48238230839539L194.73701880750485,60.490183241361024L195.475047459149,57.70204226784715L195.4977010041914,51.761415670897705L195.9805792011476,48.51590588152473L196.5576484538064,56.52632017058225L196.81279890849436,53.280810381209264L197.15379437597454,57.7640583784721L197.1633327107292,53.34282649183423L197.2837541870072,49.174827056914935L197.40179107959648,55.77954283847333L197.75590175736437,54.38418034941169L197.76544009211904,50.97071026042944L197.85724656413296,53.26272234894364L198.06470534504746,48.665778148868384L198.23162620325456,53.97073961191197L198.28408704440534,51.71748759253835L198.46769998843314,50.4797493846485L199.0447692410919,52.26788057433488L200.0570250169334,49.5856837898053L200.09994752332955,55.96042316112947L200.39682819256927,57.60126608808156L200.74378511927114,55.105117635426865L200.91309056116688,57.91393064581577L201.0025124494921,51.006886324960675L201.34231562512798,54.90614928050512L202.08749802783817,54.15161993456809L202.26395722079994,54.1800439852712L202.6049526882801,50.92936618667949L203.04729296252884,50.73039783175771L203.4061728076741,49.88542832449262L203.49678698784365,52.45909691542852L203.6231699233433,51.17226261996058L204.42081316720427,54.996589441833194L204.66880987082624,46.46679022629161L204.76896238575048,52.62447321042842L204.78207759603816,57.6865382401909L205.6297970973613,49.13606698777434L205.9982152772612,52.433256869334784L206.06975278792137,57.02761706480068L206.0840602900534,54.869973215973886L206.1496363414919,56.035359294801296L206.1591746762466,48.60893004746217L206.16990530284565,49.95261244433634L206.76247434948078,61.04057622315756L206.81731977432025,49.99137251347693L207.18812253790884,49.5081636515241L207.5028875848136,42.9344559252782L207.6006555160492,47.360855821134805L207.8343447175391,47.779464567853296L209.05763614982817,45.7510209494952L209.23409534278994,56.25499968659804L209.525014552808,48.55208194605595L209.5452835141617,49.37896342105543L210.19031340194763,47.26524765058798L210.2189284062117,46.1670456916043L210.27496612289553,51.213606693710545L210.45619448323464,52.110256293163104L211.41002795870367,41.61919757910715L212.0753268078433,46.66317457660401L212.1075186876404,48.30660150816547L212.8300475453082,50.5882775782422L213.0661213304868,52.221368491366164L213.46434680649514,52.73300140402209L213.4834234760045,44.60630690754277L213.50488472920256,51.81567976769453L213.79461164737629,48.32727354504047L214.09387690030468,47.49264005621285L214.46706424758196,41.133404712544944L214.94636556900514,46.11278159480747L215.07155621266045,52.39449680019419L215.1419014314763,49.77690013089895L215.23251561164585,40.942188371451294L215.4578587702254,50.4590773477735L215.52105023797523,44.761347184105176L215.80720028061594,46.58307043371343L216.42242287229348,45.08693176488623L216.45699933577922,46.41252612949478L217.14733631364996,47.30142371511923L217.20337403033375,43.42283279644974L217.44421698288969,39.80264233871765L218.08805457883128,52.04048816871003L218.6043169474289,44.03265788426188L218.7223538400182,43.2057764092624L218.90715907589032,53.172282187615565L219.36261456042678,42.198014611606766L219.54622750445458,43.37373670887166L219.5819962597847,47.43579195480666L219.87053088611404,41.61144556527901L220.03745174432115,46.1877177284793L220.46906139197088,42.642463404419004L221.65777636077416,45.88280518457324L221.87477347644338,45.74585294027645L222.0619632960042,40.13856293793617L222.1978845662585,50.027548578008165L222.6306865057526,49.39705145332104L223.16364096017094,44.68899505504271L223.21848638501038,50.51075743996097L223.8039016805795,51.12316653238247L223.80867084795685,39.42796167035851L224.0435523412911,42.001630261294395L224.1806659033898,49.56501175293033L224.2569725814273,42.11791046871619L224.2855875856914,47.614088272853394L224.43462406623343,47.67093637425964L224.52046907902564,47.08953533715061L224.9461172674537,40.673451892076486L225.42422629703253,45.09468377871434L225.60903153290468,44.583050866058414L225.83914385886158,43.17218434934054L226.25286912884627,44.128266054808705L226.98732090495744,48.7329622687121L227.1995488532493,42.44607905410663L227.54889036363983,42.51326317395032L227.66335038069613,42.16959056090366L227.8886935392757,49.174827056914935L228.24280421704356,45.663164792776485L228.34772589934516,41.06622059270123L228.949833280735,45.93448527676071L229.35163563227633,47.01718320808817L229.89889758882666,41.70705373582584L229.98474260161888,40.66828388285771L230.559427270589,44.06883394879313L231.07449734734226,44.05074591652749L231.53949116663344,40.921516334576324L231.86856371567026,40.36853934817043L232.05336895154235,40.62435580449838L232.79974364609689,41.585605519185265L232.92135741421922,39.197985260124256L233.27546809198708,38.363351771296664L233.47219624630256,38.18763945785926L233.50558041794397,52.34281670800672L233.5985791818022,42.7587436118408L233.64150168819833,47.21356755840051L233.73211586836788,45.619236714417156L233.7356927439009,38.802632554890124L233.75953858078762,36.94473324075065L234.01588132731993,47.541736143790956L234.05761154187167,38.29358364684359L234.0874188379801,42.68897548738772L234.96375334356728,42.27295074527859L235.47643883663187,40.02486673512374L236.20850602905438,48.9836107158213L236.71046089551996,38.62692024145275L237.23149243149493,41.43573325184161L237.26487660313634,41.59852554223215L237.4174899592114,33.998967986065L237.7501393837812,37.451198144187856L238.11855756368112,37.75869469270327L238.30574738324194,34.464088815752206L238.7409339064247,38.151463393328044L239.38715608605494,44.81819528551139L239.3883483778993,44.44093061254287L239.3895406697436,32.43306119278472L239.39073296158796,33.56485521169026L239.3919252534323,38.123039342624935L239.39311754527662,36.52095648481341L239.39430983712097,37.489958213328435L239.39550212896532,40.74580402113892L239.39669442080967,32.46148524348783L239.39788671265396,39.26000137074922L239.3990790044983,40.079130831920594L239.40027129634265,42.409902989575386L239.40146358818697,38.143711379499905L239.40265588003132,39.72253819582704L239.40384817187567,34.72765728590829L239.40504046372,31.510571547238413L239.40623275556433,36.616564655360236L239.40742504740868,42.13599850098183L239.40861733925303,36.15661183489178L239.40980963109732,34.7560813366114L239.41100192294167,42.70964752426269L239.412194214786,32.340037026847284L239.41338650663033,38.3013356606717L239.41457879847468,41.23676489691988L239.41577109031903,36.3478281759854L239.41696338216337,34.665641175283326L239.4181556740077,36.27289204231357L239.41934796585204,33.2496066493467L239.4205402576964,36.09459572426681L239.42173254954068,31.38137131676973L239.42292484138503,34.16951229028365L239.42411713322937,34.67339318911144L239.42530942507372,36.74834889043828L239.42650171691804,34.33488858528355L239.4276940087624,39.07395303887435L239.42888630060673,35.79743519418889L239.43007859245105,32.85683794872196L239.4312708842954,37.1152775449693L239.43246317613975,34.270288470049195L239.43365546798407,39.73029020965518L239.4348477598284,37.502878236375324L239.43604005167273,42.006798270513144L239.43723234351708,38.26774360074984L239.4384246353614,33.03771827137808L239.43961692720575,30.774130233567007L239.4408092190501,31.254755090910464L239.4420015108944,43.11533624793432L239.44319380273876,36.014491581376234L239.4443860945831,34.094576156611794L239.44557838642743,36.9602372684069" style="fill: none;" fill="none"></path></g></g></g></g></g></g><g transform="translate(74, 177)" clip-path="url(#clip_1)"><clipPath id="clip_1"><rect width="255" height="23"></rect></clipPath><g><g><line x1="9.123409064918336" y1="0" x2="9.123409064918336" y2="5" style="visibility: inherit;" fill="rgb(0, 0, 0)" stroke="rgb(204, 204, 204)" stroke-width="1px"></line><line x1="32.96924595164434" y1="0" x2="32.96924595164434" y2="5" style="visibility: inherit;" fill="rgb(0, 0, 0)" stroke="rgb(204, 204, 204)" stroke-width="1px"></line><line x1="56.81508283837033" y1="0" x2="56.81508283837033" y2="5" style="visibility: inherit;" fill="rgb(0, 0, 0)" stroke="rgb(204, 204, 204)" stroke-width="1px"></line><line x1="80.66091972509633" y1="0" x2="80.66091972509633" y2="5" style="visibility: inherit;" fill="rgb(0, 0, 0)" stroke="rgb(204, 204, 204)" stroke-width="1px"></line><line x1="104.50675661182233" y1="0" x2="104.50675661182233" y2="5" style="visibility: inherit;" fill="rgb(0, 0, 0)" stroke="rgb(204, 204, 204)" stroke-width="1px"></line><line x1="128.35259349854834" y1="0" x2="128.35259349854834" y2="5" style="visibility: inherit;" fill="rgb(0, 0, 0)" stroke="rgb(204, 204, 204)" stroke-width="1px"></line><line x1="152.19843038527432" y1="0" x2="152.19843038527432" y2="5" style="visibility: inherit;" fill="rgb(0, 0, 0)" stroke="rgb(204, 204, 204)" stroke-width="1px"></line><line x1="176.04426727200035" y1="0" x2="176.04426727200035" y2="5" style="visibility: inherit;" fill="rgb(0, 0, 0)" stroke="rgb(204, 204, 204)" stroke-width="1px"></line><line x1="199.89010415872636" y1="0" x2="199.89010415872636" y2="5" style="visibility: inherit;" fill="rgb(0, 0, 0)" stroke="rgb(204, 204, 204)" stroke-width="1px"></line><line x1="223.73594104545234" y1="0" x2="223.73594104545234" y2="5" style="visibility: inherit;" fill="rgb(0, 0, 0)" stroke="rgb(204, 204, 204)" stroke-width="1px"></line><line x1="247.58177793217834" y1="0" x2="247.58177793217834" y2="5" style="visibility: inherit;" fill="rgb(0, 0, 0)" stroke="rgb(204, 204, 204)" stroke-width="1px"></line></g><g transform="translate(0, 8)"><text x="9.123409064918336" y="0" dx="0em" dy="0.95em" style="text-anchor: middle; visibility: hidden; font-family: &quot;Helvetica Neue&quot;, sans-serif; font-size: 12px; font-weight: 200;" fill="rgb(50, 49, 63)" stroke="none" stroke-width="1px">-40k</text><text x="32.96924595164434" y="0" dx="0em" dy="0.95em" style="text-anchor: middle; visibility: inherit; font-family: &quot;Helvetica Neue&quot;, sans-serif; font-size: 12px; font-weight: 200;" fill="rgb(50, 49, 63)" stroke="none" stroke-width="1px">-20k</text><text x="56.81508283837033" y="0" dx="0em" dy="0.95em" style="text-anchor: middle; visibility: hidden; font-family: &quot;Helvetica Neue&quot;, sans-serif; font-size: 12px; font-weight: 200;" fill="rgb(50, 49, 63)" stroke="none" stroke-width="1px">0</text><text x="80.66091972509633" y="0" dx="0em" dy="0.95em" style="text-anchor: middle; visibility: inherit; font-family: &quot;Helvetica Neue&quot;, sans-serif; font-size: 12px; font-weight: 200;" fill="rgb(50, 49, 63)" stroke="none" stroke-width="1px">20k</text><text x="104.50675661182233" y="0" dx="0em" dy="0.95em" style="text-anchor: middle; visibility: hidden; font-family: &quot;Helvetica Neue&quot;, sans-serif; font-size: 12px; font-weight: 200;" fill="rgb(50, 49, 63)" stroke="none" stroke-width="1px">40k</text><text x="128.35259349854834" y="0" dx="0em" dy="0.95em" style="text-anchor: middle; visibility: inherit; font-family: &quot;Helvetica Neue&quot;, sans-serif; font-size: 12px; font-weight: 200;" fill="rgb(50, 49, 63)" stroke="none" stroke-width="1px">60k</text><text x="152.19843038527432" y="0" dx="0em" dy="0.95em" style="text-anchor: middle; visibility: hidden; font-family: &quot;Helvetica Neue&quot;, sans-serif; font-size: 12px; font-weight: 200;" fill="rgb(50, 49, 63)" stroke="none" stroke-width="1px">80k</text><text x="176.04426727200035" y="0" dx="0em" dy="0.95em" style="text-anchor: middle; visibility: inherit; font-family: &quot;Helvetica Neue&quot;, sans-serif; font-size: 12px; font-weight: 200;" fill="rgb(50, 49, 63)" stroke="none" stroke-width="1px">100k</text><text x="199.89010415872636" y="0" dx="0em" dy="0.95em" style="text-anchor: middle; visibility: hidden; font-family: &quot;Helvetica Neue&quot;, sans-serif; font-size: 12px; font-weight: 200;" fill="rgb(50, 49, 63)" stroke="none" stroke-width="1px">120k</text><text x="223.73594104545234" y="0" dx="0em" dy="0.95em" style="text-anchor: middle; visibility: inherit; font-family: &quot;Helvetica Neue&quot;, sans-serif; font-size: 12px; font-weight: 200;" fill="rgb(50, 49, 63)" stroke="none" stroke-width="1px">140k</text><text x="247.58177793217834" y="0" dx="0em" dy="0.95em" style="text-anchor: middle; visibility: hidden; font-family: &quot;Helvetica Neue&quot;, sans-serif; font-size: 12px; font-weight: 200;" fill="rgb(50, 49, 63)" stroke="none" stroke-width="1px">160k</text></g><line x1="0" y1="0" x2="255.21875" y2="0" fill="rgb(0, 0, 0)" stroke="rgb(204, 204, 204)" stroke-width="1px"></line></g></g></g></g></svg>