<svg viewBox="0 0 330 200" xmlns="http://www.w3.org/2000/svg"><g><g><g><g><g><line x1="74.78125" y1="177" x2="69.78125" y2="177" style="visibility: inherit;" fill="rgb(0, 0, 0)" stroke="rgb(204, 204, 204)" stroke-width="1px"></line><line x1="74.78125" y1="151.71428571428572" x2="69.78125" y2="151.71428571428572" style="visibility: inherit;" fill="rgb(0, 0, 0)" stroke="rgb(204, 204, 204)" stroke-width="1px"></line><line x1="74.78125" y1="126.42857142857143" x2="69.78125" y2="126.42857142857143" style="visibility: inherit;" fill="rgb(0, 0, 0)" stroke="rgb(204, 204, 204)" stroke-width="1px"></line><line x1="74.78125" y1="101.14285714285715" x2="69.78125" y2="101.14285714285715" style="visibility: inherit;" fill="rgb(0, 0, 0)" stroke="rgb(204, 204, 204)" stroke-width="1px"></line><line x1="74.78125" y1="75.85714285714286" x2="69.78125" y2="75.85714285714286" style="visibility: inherit;" fill="rgb(0, 0, 0)" stroke="rgb(204, 204, 204)" stroke-width="1px"></line><line x1="74.78125" y1="50.57142857142857" x2="69.78125" y2="50.57142857142857" style="visibility: inherit;" fill="rgb(0, 0, 0)" stroke="rgb(204, 204, 204)" stroke-width="1px"></line><line x1="74.78125" y1="25.285714285714306" x2="69.78125" y2="25.285714285714306" style="visibility: inherit;" fill="rgb(0, 0, 0)" stroke="rgb(204, 204, 204)" stroke-width="1px"></line><line x1="74.78125" y1="0" x2="69.78125" y2="0" style="visibility: inherit;" fill="rgb(0, 0, 0)" stroke="rgb(204, 204, 204)" stroke-width="1px"></line></g><g transform="translate(64.78125, 0)"><text x="0" y="177" dx="0em" dy="0.3em" style="text-anchor: end; visibility: hidden; font-family: &quot;Helvetica Neue&quot;, sans-serif; font-size: 12px; font-weight: 200;" fill="rgb(50, 49, 63)" stroke="none" stroke-width="1px">-500</text><text x="0" y="151.71428571428572" dx="0em" dy="0.3em" style="text-anchor: end; visibility: inherit; font-family: &quot;Helvetica Neue&quot;, sans-serif; font-size: 12px; font-weight: 200;" fill="rgb(50, 49, 63)" stroke="none" stroke-width="1px">0</text><text x="0" y="126.42857142857143" dx="0em" dy="0.3em" style="text-anchor: end; visibility: inherit; font-family: &quot;Helvetica Neue&quot;, sans-serif; font-size: 12px; font-weight: 200;" fill="rgb(50, 49, 63)" stroke="none" stroke-width="1px">500</text><text x="0" y="101.14285714285715" dx="0em" dy="0.3em" style="text-anchor: end; visibility: inherit; font-family: &quot;Helvetica Neue&quot;, sans-serif; font-size: 12px; font-weight: 200;" fill="rgb(50, 49, 63)" stroke="none" stroke-width="1px">1e+3</text><text x="0" y="75.85714285714286" dx="0em" dy="0.3em" style="text-anchor: end; visibility: inherit; font-family: &quot;Helvetica Neue&quot;, sans-serif; font-size: 12px; font-weight: 200;" fill="rgb(50, 49, 63)" stroke="none" stroke-width="1px">1.5e+3</text><text x="0" y="50.57142857142857" dx="0em" dy="0.3em" style="text-anchor: end; visibility: inherit; font-family: &quot;Helvetica Neue&quot;, sans-serif; font-size: 12px; font-weight: 200;" fill="rgb(50, 49, 63)" stroke="none" stroke-width="1px">2e+3</text><text x="0" y="25.285714285714306" dx="0em" dy="0.3em" style="text-anchor: end; visibility: inherit; font-family: &quot;Helvetica Neue&quot;, sans-serif; font-size: 12px; font-weight: 200;" fill="rgb(50, 49, 63)" stroke="none" stroke-width="1px">2.5e+3</text><text x="0" y="0" dx="0em" dy="0.3em" style="text-anchor: end; visibility: hidden; font-family: &quot;Helvetica Neue&quot;, sans-serif; font-size: 12px; font-weight: 200;" fill="rgb(50, 49, 63)" stroke="none" stroke-width="1px">3e+3</text></g><line x1="74.78125" y1="0" x2="74.78125" y2="177" fill="rgb(0, 0, 0)" stroke="rgb(204, 204, 204)" stroke-width="1px"></line></g></g><g transform="translate(74, 0)" clip-path="url(#clip_0)"><clipPath id="clip_0"><rect width="255" height="177"></rect></clipPath><g><g><g><line x1="0" y1="0" x2="0" y2="177" fill="rgb(0, 0, 0)" stroke="rgb(60, 60, 60)" stroke-width="1px" opacity="0.25"></line><line x1="28.357638888888886" y1="0" x2="28.357638888888886" y2="177" fill="rgb(0, 0, 0)" stroke="rgb(60, 60, 60)" stroke-width="1px" opacity="0.25"></line><line x1="56.71527777777777" y1="0" x2="56.71527777777777" y2="177" fill="rgb(0, 0, 0)" stroke="rgb(60, 60, 60)" stroke-width="1px" opacity="0.25"></line><line x1="85.07291666666666" y1="0" x2="85.07291666666666" y2="177" fill="rgb(0, 0, 0)" stroke="rgb(60, 60, 60)" stroke-width="1px" opacity="0.25"></line><line x1="113.43055555555554" y1="0" x2="113.43055555555554" y2="177" fill="rgb(0, 0, 0)" stroke="rgb(60, 60, 60)" stroke-width="1px" opacity="0.25"></line><line x1="141.78819444444446" y1="0" x2="141.78819444444446" y2="177" fill="rgb(0, 0, 0)" stroke="rgb(60, 60, 60)" stroke-width="1px" opacity="0.25"></line><line x1="170.14583333333331" y1="0" x2="170.14583333333331" y2="177" fill="rgb(0, 0, 0)" stroke="rgb(60, 60, 60)" stroke-width="1px" opacity="0.25"></line><line x1="198.50347222222223" y1="0" x2="198.50347222222223" y2="177" fill="rgb(0, 0, 0)" stroke="rgb(60, 60, 60)" stroke-width="1px" opacity="0.25"></line><line x1="226.8611111111111" y1="0" x2="226.8611111111111" y2="177" fill="rgb(0, 0, 0)" stroke="rgb(60, 60, 60)" stroke-width="1px" opacity="0.25"></line><line x1="255.21875" y1="0" x2="255.21875" y2="177" fill="rgb(0, 0, 0)" stroke="rgb(60, 60, 60)" stroke-width="1px" opacity="0.25"></line></g><g><line x1="0" y1="177" x2="255.21875" y2="177" fill="rgb(0, 0, 0)" stroke="rgb(60, 60, 60)" stroke-width="1px" opacity="0.25"></line><line x1="0" y1="151.71428571428572" x2="255.21875" y2="151.71428571428572" fill="rgb(0, 0, 0)" stroke="rgb(60, 60, 60)" stroke-width="1px" opacity="0.25"></line><line x1="0" y1="126.42857142857143" x2="255.21875" y2="126.42857142857143" fill="rgb(0, 0, 0)" stroke="rgb(60, 60, 60)" stroke-width="1px" opacity="0.25"></line><line x1="0" y1="101.14285714285715" x2="255.21875" y2="101.14285714285715" fill="rgb(0, 0, 0)" stroke="rgb(60, 60, 60)" stroke-width="1px" opacity="0.25"></line><line x1="0" y1="75.85714285714286" x2="255.21875" y2="75.85714285714286" fill="rgb(0, 0, 0)" stroke="rgb(60, 60, 60)" stroke-width="1px" opacity="0.25"></line><line x1="0" y1="50.57142857142857" x2="255.21875" y2="50.57142857142857" fill="rgb(0, 0, 0)" stroke="rgb(60, 60, 60)" stroke-width="1px" opacity="0.25"></line><line x1="0" y1="25.285714285714306" x2="255.21875" y2="25.285714285714306" fill="rgb(0, 0, 0)" stroke="rgb(60, 60, 60)" stroke-width="1px" opacity="0.25"></line><line x1="0" y1="0" x2="255.21875" y2="0" fill="rgb(0, 0, 0)" stroke="rgb(60, 60, 60)" stroke-width="1px" opacity="0.25"></line></g></g></g><g><g><line x1="0" y1="151.71428571428572" x2="255.21875" y2="151.71428571428572" fill="rgb(0, 0, 0)" stroke="rgb(153, 153, 153)" stroke-width="1.5px"></line></g></g><g><g><line x1="28.357638888888886" y1="0" x2="28.357638888888886" y2="177" fill="rgb(0, 0, 0)" stroke="rgb(153, 153, 153)" stroke-width="1.5px"></line></g></g><g><g><g><g><g><path stroke="rgb(255, 112, 67)" stroke-width="2px" d="M32.07107170138889,146.65714285714284L32.26957517361111,146.65714285714284L32.63822447916667,146.65714285714284L33.323061458333335,146.65714285714284L33.524400694444445,146.65714285714284L34.01498784722222,146.65714285714284L34.43042725694445,146.65714285714284L34.52826111111111,146.65714285714284L35.2584703125,146.65714285714284L35.47682413194444,146.65714285714284L35.923456944444446,146.65714285714284L36.460834201388884,146.65714285714284L36.779857638888885,146.65714285714284L37.057762499999995,146.65714285714284L37.528499305555556,146.65714285714284L37.99923611111111,146.65714285714284L38.016250694444444,146.65714285714284L38.12684548611111,146.65714285714284L38.90384479166667,146.65714285714284L39.28667291666667,146.65714285714284L39.455400868055555,144.953600070324L39.70211232638889,145.14256285411298L39.814125,145.30874991037538L39.9162125,145.45527716279116L39.933227083333335,145.58475922329404L40.494708333333335,145.69940494033975L41.295811631944446,145.80109179592927L41.4092421875,145.89142443957428L41.64602847222223,145.9717811875791L42.11251163194444,146.04335129425536L43.19151979166667,146.1071650766799L43.219877430555556,146.16411845361515L43.304950347222224,145.17131145457589L43.30778611111111,145.3241453390466L43.426888194444444,145.460867458106L44.41940555555556,144.03114273097475L45.53811440972222,142.75063691446005L46.4880953125,142.37587746842473L46.57316822916667,142.81115261958163L46.750403472222224,143.2015216421645L46.951742708333335,143.55174268223962L47.029726215277776,143.86604569735027L47.37285364583334,142.61452711346453L47.56568559027777,143.02274750191924L47.88896267361111,141.85888603985958L48.53693472222222,142.34251067395624L48.85595815972222,142.77704590448036L48.914091319444445,142.4041113056326L49.18348888888889,141.3059832646719L49.27706909722222,141.84387137834358L49.28132274305556,140.80322875474275L49.33236649305555,141.39107415967243L49.390499652777784,140.39680259245748L49.41318576388889,139.50267035024973L49.78750659722222,138.69852753398158L49.94489149305556,139.49657486002536L49.98601006944445,138.6935092179161L50.09235121527777,137.97112709739832L50.273840104166666,137.82801435185777L50.526223090277774,137.19264257561724L50.66942916666667,136.62102526465108L50.68644375,136.10674559240428L50.804127951388885,137.16316925554264L50.876439930555556,137.10106482200064L50.882111458333334,136.538933281256L50.886365104166664,136.03312833547446L50.90905121527778,137.09644371194523L51.09762951388889,137.29409509191115L51.116061979166666,136.71285235090357L51.222403125,136.1898108176755L51.351430381944446,135.71913574097906L51.3882953125,136.3075207892304L51.42941388888889,135.82511978972448L51.54284444444444,135.39100077372674L51.56269479166667,136.5180319706335L51.74134791666666,136.0146325753599L51.86186788194444,135.56160497824993L51.97671631944445,136.67145811750993L52.071714409722226,137.6702690522733L52.09156475694445,137.05167842934003L52.17380190972223,138.01241377867834L52.325515277777775,138.877039694484L52.35245503472222,139.655173942566L52.41484184027778,138.83811085814335L52.45454253472222,138.1027763375942L52.50983993055556,138.95831232267284L52.566555208333334,139.7282758339777L52.592077083333336,140.42122770572126L52.70834340277778,141.0448720070512L52.78065538194444,141.6061418481084L52.85154947916667,141.35265314135273L52.87139982638889,141.12451660750304L52.872817708333336,141.6778099586653L52.97490520833333,141.1642890113291L53.11243975694444,140.95499355281862L53.14079739583333,140.00802728934755L53.2003484375,139.15576493647353L53.33788298611111,139.90592732775343L53.360569097222225,140.5810688059169L53.42437378472222,140.17723691327097L53.42720954861111,140.82524299841145L53.45273142361111,140.64985778234706L53.53071493055556,140.94716347520543L53.58175868055555,140.0010020675641L53.6342203125,139.14945993358754L53.87951388888889,139.39451739941498L53.880931770833335,139.27792137251123L53.92063246527778,138.49869175426716L54.02555572916667,137.79738679068214L54.05674913194444,137.16621369464696L54.130478993055554,137.10387751988048L54.29069965277778,136.92134554144513L54.324728819444445,137.51564357116277L54.36442951388889,137.51950780895572L54.40980173611111,137.6747007339153L54.440995138888894,138.5729493673108L54.473606423611116,139.3813722973592L54.49771041666666,138.59180334840164L54.51330711805556,137.88119189242266L54.5530078125,138.75878982287432L54.561515104166666,139.04291166633627L54.58278333333334,138.2871899515409L54.78979409722222,138.3656139981493L54.805390798611114,138.18333792643026L54.921657118055556,138.01928953525933L54.99113333333333,137.74521725424037L55.10739965277777,137.11926599058202L55.19247256944445,137.20611508859767L55.47321319444444,137.04784101600234L55.487392013888886,136.99734257182817L56.016261979166664,137.3564658214278L56.08006666666667,137.61224806971777L56.18073628472222,137.64979886991512L56.43453715277778,137.64024754729616L56.91094548611111,137.63165135827973L56.91236336805555,137.69134345247173L56.92087065972222,137.2604231608679L56.927960069444445,137.14976533530069L56.94781041666666,136.83621723642221L57.21011857638889,137.0597384576775L57.22713315972222,137.10919320081268L57.34907100694444,137.3054168002747L57.43130815972222,136.913089293675L57.47809826388889,137.12892327704606L57.683691145833336,137.07031665004058L57.79286805555556,136.91642781007135L60.32804097222222,136.7947850576661L60.33938402777778,136.8328065583252L60.43012847222222,136.50038299478763L60.67400416666666,136.15063036171642L60.747734027777774,135.95998281632137L60.76049496527777,136.01827025543795L60.88385069444444,136.32358611750567L60.94907326388889,135.98428876591328L60.97034149305556,136.04014560812274L61.59562743055555,136.0904167652534L61.61689565972222,136.33016636070352L63.545215104166665,136.11345216024446L64.47109201388889,136.08414780308718L66.02650850694445,136.0380706548565L66.71985277777777,135.58283499838626L67.07006961805556,135.23908569371875L67.5691640625,135.2570818525819L68.13631684027777,134.98108794439486L68.26959774305556,134.63155056867518L68.3092984375,134.4215975354649L68.33056666666667,134.27972349296522L68.38019253472221,134.1688940499783L68.50780190972222,134.00894335139066L68.51347343750001,133.75662044062366L68.51914496527777,133.63067268038907L68.7431703125,133.55840898280456L68.76727430555555,133.33533593896053L68.81831805555557,133.2515166298635L68.86227239583333,133.17281652424407L68.87645121527778,133.05467772791764L68.97428506944445,133.1424817854844L68.99980694444444,133.0257451766214L69.02674670138889,132.9206822288036L69.23517534722222,132.77718543366197L69.26211510416665,132.6480383181927L69.2762939236111,132.53180591439852L69.3145767361111,132.42719675108756L69.33726284722222,132.380459218658L69.40673906250001,132.29098472505703L69.49181197916667,132.1946541093971L69.52016961805555,132.17117084124936L69.54143784722221,132.2543394716179L69.57972065972223,132.17747695285473L69.60524253472222,132.20944354334821L69.85478975694444,132.43071116102627L70.52686579861111,132.3362114733402L70.78633819444445,132.25116175445214L71.02028871527777,132.17461700747674L71.1422265625,132.10572673521818L71.19043454861111,132.04372549020113L71.27408958333334,131.98792436969845L71.3208796875,131.9377033612563L71.34498368055556,131.89250445366665L71.37901284722223,131.85182543684272L71.47542881944445,131.81521432170663L71.59311302083334,131.78226431808855L71.92631527777777,131.7526093148359L71.97452326388888,131.773330526219L71.99862725694445,131.74456890215657L72.04399947916667,131.71868344050264L72.14466909722222,131.69538652501595L72.18153402777777,131.6744193010794L72.23824930555556,131.65554879953774L72.29638246527777,131.63856534815122L72.31056128472223,131.62328024190413L72.32899375,131.6095236462824L72.39138055555554,131.59714271022338L72.41406666666667,131.58599986777065L72.46936406249999,131.57597130956358L72.4948859375,131.56694560717744L72.5998092013889,131.55882247503018L72.71891128472222,131.55151165609783L72.73592586805556,131.59234263334906L72.75577621527778,131.58167979858467L73.01383072916667,131.5720832472969L73.16696197916667,131.56344635113803L73.37255486111111,131.55567314459518L73.46613506944443,131.64349868728345L73.50158211805555,131.62772024712575L73.54979010416668,131.66093036527184L73.56396892361111,131.64340875731534L73.91560364583334,131.62763931015468L73.99784079861112,131.61344680771015L74.11552499999999,131.60067355551018L74.3352967013889,131.58917762853028L74.34947552083334,131.57883129424843L74.40902656249999,131.56951959339483L74.52103923611112,131.56113906262658L74.9960296875,131.55359658493524L75.2228907986111,131.5310047835842L75.25975572916667,131.52647573379716L75.56176458333333,131.61722101756146L75.57168975694445,131.6040703443766L75.75601440972223,131.59223473851023L75.78011840277777,131.58158269323053L76.03391927083334,131.57199585247884L76.04809809027779,131.612307837753L76.54435677083333,131.59964848254907L76.67621979166667,131.63566577715153L77.12285260416667,131.6680813422937L77.15971753472222,131.6972553509216L77.63470798611111,131.67610124440077L77.64037951388889,131.6412589771034L77.6857517361111,131.62570450796446L77.91403072916667,131.61170548573938L78.44006493055555,131.59910636573684L78.64565781249999,131.58776715773456L78.7505810763889,131.57756187053252L78.95192031250001,131.59998425490787L79.35459878472223,131.6359679722743L79.54459496527778,131.65254974647547L79.70197986111111,131.7306876289709L79.81541041666667,131.73881695305764L79.857946875,131.7461333447357L79.97279531250001,131.65687715311918L80.47897916666668,131.62395729495006L80.60800642361112,131.5785258511693L80.68457204861112,131.53763755176664L80.78240590277777,131.56405236801857L80.98374513888889,131.55621855978814L81.26165,131.53336456095215L81.27724670138888,131.49699239057122L82.28110711805554,131.48006100865692L82.28394288194444,131.46431300715648L82.94751163194444,131.4348459921551L82.9687798611111,131.40832567865385L83.1630296875,131.40026096793133L83.49906770833333,131.37719915685247L83.53735052083333,131.3564435268815L83.73868975694444,131.3535670313362L83.88898524305556,131.31937104248829L84.03219131944445,131.30439822395374L84.19524774305555,131.27511911584406L84.22785902777778,131.24876791854538L84.48024201388888,131.24085541240512L84.58658315972222,131.20212701402176L84.68441701388889,131.19887859833386L84.84463767361112,131.19595502421475L84.95948611111112,131.14591309322185L85.56775746527778,131.14828606961396L85.85416961805555,131.10301103408113L86.21431163194445,131.03065635924443L86.33199583333334,131.04455500903427L86.61415434027778,131.05706379384515L86.61699010416666,131.03671455731777L86.67937690972221,131.0342038158717L86.69639149305556,131.03194414857023L87.29473767361111,131.06151759085608L87.41667552083334,131.02491940319902L87.93703819444444,130.91296317716484L88.45314722222221,130.89122043087693L88.80194618055556,130.8242412449321L89.14223784722223,130.81137069186747L89.54916996527777,130.64175147982354L90.23967847222222,130.66293347469835L91.18682361111111,130.50815798437137L91.50017552083332,130.3530564716485L93.00029461805556,130.41891153876938L93.89781388888889,130.2411275277496L94.02967690972223,129.9388897749746L94.77690069444445,129.73009008319144L96.40037552083332,129.62118821772944L99.63172847222222,129.19130153881363L99.68135434027778,127.06601067064653L99.73806961805556,125.8486060321533L100.86953940972222,125.7485668575094L106.82606145833333,125.91138874318703L108.23401822916667,123.49774986886833L108.23968975694444,122.22627845341006L108.25670434027778,122.21981132235479L108.27939045138888,121.07613376154785L108.38431371527778,120.7895918139645L108.6211,116.69143620399662L108.73027690972222,113.47720329788265L108.88907968749999,112.19635796809439L108.9500486111111,108.11993645699923L108.9911671875,105.52579995415645L109.02803211805555,106.99973781588366L109.28892239583334,105.76610332000958L111.2782107638889,99.39324298800861L114.618740625,101.22757940349346L114.66978437499999,94.2655357488584L114.77754340277778,97.02353574540113L115.79983628472222,93.92707502800387L115.95296753472222,94.63284966806063L115.9685642361111,91.97300220125456L116.88168020833334,86.91623769541482L117.02772204861111,82.01747106873049L117.91673402777778,76.66036681900027L117.92240555555556,71.52290156567167L118.2073998263889,67.08882569481881L118.242846875,64.83655026819406L118.395978125,62.1457523842318L119.6337890625,60.81448071723719L120.56108385416667,60.58035407408488L120.89995763888889,57.05089009524782L120.92547951388889,54.1904439428659L121.07435711805556,56.98925669143644L121.10838628472222,56.537116736578525L122.17179774305555,53.72804792006352L122.27104947916668,52.90667169948573L123.01118385416666,59.38966524382286L123.3500576388889,56.29534157658344L123.398265625,53.19437884749652L123.7144532986111,51.03565524846114L124.28727760416666,48.77673258075788L124.33123194444444,46.42763075125353L125.80441128472222,44.62951053327103L126.09365920138889,43.011202337086786L126.67357291666667,41.23865353194958L126.90326979166667,39.64335960732606L127.97802430555556,39.17161293230774L128.17085624999999,38.41516592479124L128.2346609375,38.066238618026404L128.43458229166666,36.788186184795194L128.51681944444445,35.96981399488712L128.74084479166666,34.9014040239698L128.99606354166664,33.93983505014424L129.9091795138889,33.39049440227268L130.65214965277775,33.227962819188264L130.69326822916668,32.433737965840834L130.70744704861113,32.35107845497103L130.98676979166666,32.276684895188225L131.6517564236111,32.541605691383666L133.54462881944445,33.41217726510246L133.87074166666665,32.91560239573508L135.23474409722223,32.468685013304395L135.49705225694444,32.39833436911684L136.24285815972223,32.31921521791941L137.1091840277778,31.931936553270333L137.2594795138889,31.899457183657603L137.75573819444443,32.83424360814894L138.29169756944444,33.043408533048364L138.53982690972222,33.23165696545777L139.043175,32.753134126054874L139.0658611111111,33.27067785630649L139.15376979166666,33.10432435639012L139.64719270833334,32.65433834932253L139.77196631944446,33.54524380010457L140.37173038194445,32.719290848665565L140.58157690972223,33.58789747808473L140.64112795138888,33.136964873133394L141.18984826388888,33.047196957248616L141.60954131944445,32.27104869009517L141.79528385416666,32.85260453537137L142.03490590277778,32.74386193897712L142.12706822916667,32.962065030793696L142.45459895833335,32.19442995628572L142.54817916666667,31.819629817800006L142.88988871527778,32.13025612173428L143.42443020833332,31.761873366703696L143.6527092013889,31.825418172890465L144.61545104166666,31.503322784172866L144.887684375,30.88156193432701L145.959603125,31.9971557408943L147.1463703125,31.64208302394772L147.5802421875,31.65439257869579L148.10769427083335,31.349399749397634L148.8719326388889,31.406781203029283L149.11864409722222,31.742888797012085L149.2391640625,31.745117774453718L149.24058194444444,31.099177425579768L149.96795538194445,31.87693825445038L150.64853871527777,31.217815857576767L151.217109375,30.624605700390504L151.4624029513889,30.7544665589229L152.1259717013889,30.586877045887746L152.5896190972222,30.056760769870408L152.90580677083332,30.21179897859767L153.37796145833332,30.035261937880733L153.56937552083335,30.555932172664086L153.67713454861112,30.3607853839691L153.93944270833333,30.16934970271504L154.07839513888888,30.344736161014964L154.16063229166667,30.21811968777061L154.46264114583332,29.724879147564963L154.5448782986111,29.607229862830792L154.75756059027776,29.87043544797629L155.13046354166667,30.107320474607235L156.23782934027778,29.625159855717925L156.90281597222221,29.85496529871756L157.15236319444443,30.045986625988633L157.9010048611111,29.886030820532653L159.13030850694443,29.425999167050804L159.37276631944445,29.01197067891715L159.6294029513889,28.971220039596858L159.65917847222224,29.250615892780047L160.73251510416668,28.85412573207347L161.02176302083333,29.20844530172323L161.18765520833335,28.816172200122367L162.20853020833331,28.463126408681518L162.77851875000002,28.145385196384808L163.10037795138888,28.50736453388916L163.45343055555557,28.83314593764311L163.62499427083333,28.47840277245021L163.63917309027778,28.159133923776608L163.97521111111112,27.87179195997038L164.70967395833333,27.613184192544793L165.01593645833333,27.69650863043313L165.1293670138889,27.455429195961244L165.56465677083335,27.238457704936536L165.7574887152778,27.043183363014293L165.80853246527778,27.246722169570035L166.06800486111112,27.366692809755875L166.1601671875,27.15859495735171L166.90455520833333,27.619253318759377L167.80065659722223,27.385899415454872L168.42027100694443,27.1758809024808L169.0257065972222,26.986864240804152L169.44114600694445,26.81674924529517L169.60562031249998,26.663645749337064L169.61412760416667,26.90513831726051L169.8835251736111,27.122481628391597L170.09762534722222,27.90282275126671L170.4194845486111,27.972986904711462L172.19183697916665,27.704259642811735L172.57324722222222,27.462405107102L174.61357934027777,27.24473602496323L175.89534461805556,27.048833851038353L176.27817274305556,26.872521894505923L176.43981128472223,26.713841133626772L176.73614861111113,26.571028448835534L177.5996387152778,26.44249703252339L178.1398517361111,26.658693757842485L178.25186440972223,26.679431524915373L178.3341015625,26.540059800995266L178.33551944444446,26.41462524946715L178.57088784722222,26.617805581663305L178.88423975694445,26.484596452068388L180.20428784722222,26.680779664004405L180.46943177083332,26.857344554746817L180.64808489583334,26.70018152784357L180.6509206597222,26.558734803630614L181.06068854166668,26.431432751838997L181.19113368055557,26.31686090522652L181.60657309027778,26.213746243275295L181.9000746527778,26.452818047519173L183.07691666666668,26.33610767133871L183.23997309027777,26.231068332776232L183.34064270833335,26.13653292807004L184.31189184027778,26.699397492405893L184.32607065972223,26.558029171736706L185.0392652777778,26.746869111705905L186.36498489583332,26.600753629106748L186.87825815972224,26.469249694767484L186.96616684027777,26.666967582433614L187.53899114583334,27.47705653847595L188.29897586805555,28.206136598914043L188.45919652777778,28.878112224736952L188.9667982638889,28.83494385940611L189.85581024305554,30.692520902036932L189.9210328125,30.151840240404653L189.959315625,30.313174073507042L190.76750833333332,30.837660237584913L191.09645694444444,30.930412070969254L191.1716046875,31.314156578158048L191.60122291666667,31.043187348913648L191.83375555555557,30.467440042593722L192.41225138888888,30.897481752620052L192.6674701388889,30.98425143450089L193.7776717013889,30.730469148193663L195.0282435763889,31.134207947660002L195.61099305555555,30.549358581465412L196.00374635416668,30.655137009033155L196.34262013888886,30.11819473670127L196.60918194444446,30.28289312017398L196.87432586805556,30.810407379585172L197.0132782986111,30.5740094987695L197.35215208333332,30.361251406035393L197.5719237847222,31.117983408289007L197.66266822916666,30.850827924602953L197.74348750000001,31.242530846428366L197.8016206597222,30.64684919035696L198.48078611111112,30.426807128464105L199.55554062500002,30.560644272760555L199.86038524305556,30.665294131198777L201.57035086805556,30.759479003793217L202.40548333333334,30.860048960556753L203.51001336805555,31.882972635929633L204.05306215277778,31.871193229479502L204.54364930555553,32.476931049388696L204.68685538194444,32.706023658735546L204.72797395833334,33.24408200714771L204.7336454861111,32.764316663575784L204.75207795138888,32.680206425789635L205.75877413194442,32.88897149749636L205.87362256944445,32.760788633461004L206.02817170138889,32.32935262725778L206.99374930555555,31.624988793103398L207.7962704861111,31.307132770935937L207.94373020833333,31.021062350985204L207.98910243055556,30.76359897302953L208.27693246527778,30.86375693286945L208.61438836805556,30.938095525296774L208.82139913194445,30.372857401338507L208.85117465277776,30.812357375490365L210.00533055555556,30.5757644950842L210.94963993055555,30.046759474147194L211.53664305555557,29.886726383875327L211.5891046875,29.742696602630616L213.07504496527778,29.613069799510413L213.19981857638888,29.812477105273643L213.24519079861113,29.3598008233177L213.52451354166666,29.647749312414504L214.2150220486111,29.21154580974448L214.37524270833333,29.135034085912878L214.39792881944445,29.445459248750154L214.8360543402778,29.029484752446564L215.1111234375,29.603321991487604L215.95759895833334,29.80370407805313L217.09332239583333,30.30011938453353L217.36555572916666,29.798678874651586L217.51726909722223,30.311400272900727L217.91427604166665,30.456778102753503L218.9649265625,30.587618149620994L218.97059809027778,30.373499191801756L219.26693541666666,29.864720701192994L219.39738055555554,30.038962916787995L219.52498993055556,29.895513053680617L219.56327274305556,30.445961748312527L219.83692395833333,30.562079859195592L220.26370642361113,30.034443301847432L220.76705451388887,29.559570400234122L220.83511284722223,29.780131217353556L221.0166017361111,29.978635952761067L222.29553125,29.50934378605635L222.42881215277777,29.403052264593583L223.16752864583333,29.93953275241992L223.5021487847222,29.790222334320788L223.6963986111111,29.65584295803157L223.8878126736111,29.866776519371257L223.9445279513889,29.40867029600554L225.6800154513889,28.996374694976424L225.8005354166667,28.62530865405023L226.52790885416664,28.291349217216634L227.44386059027778,27.9907857240664L227.4991579861111,28.668492865945467L227.64378194444444,28.330215007922362L227.81392777777776,28.673711364273004L228.17974131944445,28.33491165641712L228.548390625,28.029991919346827L229.2445706597222,28.08743915598359L229.65717430555554,27.807266668956657L230.48379947916666,27.871182859203827L231.00699791666668,27.612636001854895L231.74004288194442,27.37994383024082L232.070409375,27.170520875788156L233.41597934027777,27.298111645352208L233.6938842013889,27.096871909388426L234.87072621527778,26.91575614702097L235.22236093749999,27.068823389461727L235.45914722222224,27.269798193372708L236.15674513888888,27.387461231178264L236.63315347222223,27.177286536631897L236.65583958333335,27.620272168682988L236.73665885416665,27.702887808957513L236.79337413194443,28.093313313776065L237.52500121527777,28.128624839541317L237.81283125,28.160405212730012L238.08222881944445,27.87293612002844L238.65505312500002,28.246356793739892L238.88049635416667,28.582435400080186L239.70995729166668,28.252763288643564L240.46285260416667,28.58820124549348L241.27388107638888,28.574023978086984L243.15824618055555,28.877335865992563L243.65875850694445,29.1503165651076L243.70413072916665,29.079927765739683L245.0326861111111,28.70050641773716L245.47648315972222,28.343223633106305L245.852221875,28.037472698367083L246.36974878472222,28.078368285673207L246.48743298611112,28.115174314248748L246.53564097222224,28.780442597109584L246.53705885416667,29.063112623112886L246.5384767361111,28.68537278937302L246.53989461805557,29.609692653292853L246.5413125,29.493366245106444L246.54273038194444,29.704743906310057L246.5441482638889,29.578912372821918L246.54556614583333,30.097806849825417L246.54698402777777,30.564811879128598L246.54840190972223,30.35297354835862L246.54981979166666,29.846247622094182L246.5512376736111,29.706265717027605L246.55265555555556,29.580282002467726L246.5540734375,29.782968087935217L246.55549131944446,29.665117707713136L246.5569092013889,29.875123794084658L246.55832708333332,29.41618284324761L246.5597449652778,29.635278844637128L246.56116284722222,29.51639381731627L246.56258072916665,29.09332586415607L246.56399861111112,29.3289039920262L246.56541649305555,29.240656449966423L246.56683437499998,28.845162233541203" style="fill: none;" fill="none"></path></g></g></g></g><g opacity="0.2"><g><g><g><path stroke="rgb(255, 112, 67)" stroke-width="2px" d="M32.07107170138889,146.65714285714284L32.26957517361111,146.65714285714284L32.63822447916667,146.65714285714284L33.323061458333335,146.65714285714284L33.524400694444445,146.65714285714284L34.01498784722222,146.65714285714284L34.43042725694445,146.65714285714284L34.52826111111111,146.65714285714284L35.2584703125,146.65714285714284L35.47682413194444,146.65714285714284L35.923456944444446,146.65714285714284L36.460834201388884,146.65714285714284L36.779857638888885,146.65714285714284L37.057762499999995,146.65714285714284L37.528499305555556,146.65714285714284L37.99923611111111,146.65714285714284L38.016250694444444,146.65714285714284L38.12684548611111,146.65714285714284L38.90384479166667,146.65714285714284L39.28667291666667,146.65714285714284L39.455400868055555,131.4857142857143L39.70211232638889,146.65714285714284L39.814125,146.65714285714284L39.9162125,146.65714285714284L39.933227083333335,146.65714285714284L40.494708333333335,146.65714285714284L41.295811631944446,146.65714285714284L41.4092421875,146.65714285714284L41.64602847222223,146.65714285714284L42.11251163194444,146.65714285714284L43.19151979166667,146.65714285714284L43.219877430555556,146.65714285714284L43.304950347222224,136.54285714285714L43.30778611111111,146.65714285714284L43.426888194444444,146.65714285714284L44.41940555555556,131.4857142857143L45.53811440972222,131.4857142857143L46.4880953125,139.07142857142858L46.57316822916667,146.65714285714284L46.750403472222224,146.65714285714284L46.951742708333335,146.65714285714284L47.029726215277776,146.65714285714284L47.37285364583334,131.4857142857143L47.56568559027777,146.65714285714284L47.88896267361111,131.4857142857143L48.53693472222222,146.65714285714284L48.85595815972222,146.65714285714284L48.914091319444445,139.07142857142858L49.18348888888889,131.4857142857143L49.27706909722222,146.65714285714284L49.28132274305556,131.4857142857143L49.33236649305555,146.65714285714284L49.390499652777784,131.4857142857143L49.41318576388889,131.4857142857143L49.78750659722222,131.4857142857143L49.94489149305556,146.65714285714284L49.98601006944445,131.4857142857143L50.09235121527777,131.4857142857143L50.273840104166666,136.54285714285714L50.526223090277774,131.4857142857143L50.66942916666667,131.4857142857143L50.68644375,131.4857142857143L50.804127951388885,146.65714285714284L50.876439930555556,136.54285714285714L50.882111458333334,131.4857142857143L50.886365104166664,131.4857142857143L50.90905121527778,146.65714285714284L51.09762951388889,139.07142857142858L51.116061979166666,131.4857142857143L51.222403125,131.4857142857143L51.351430381944446,131.4857142857143L51.3882953125,141.6L51.42941388888889,131.4857142857143L51.54284444444444,131.4857142857143L51.56269479166667,146.65714285714284L51.74134791666666,131.4857142857143L51.86186788194444,131.4857142857143L51.97671631944445,146.65714285714284L52.071714409722226,146.65714285714284L52.09156475694445,131.4857142857143L52.17380190972223,146.65714285714284L52.325515277777775,146.65714285714284L52.35245503472222,146.65714285714284L52.41484184027778,131.4857142857143L52.45454253472222,131.4857142857143L52.50983993055556,146.65714285714284L52.566555208333334,146.65714285714284L52.592077083333336,146.65714285714284L52.70834340277778,146.65714285714284L52.78065538194444,146.65714285714284L52.85154947916667,139.07142857142858L52.87139982638889,139.07142857142858L52.872817708333336,146.65714285714284L52.97490520833333,136.54285714285714L53.11243975694444,139.07142857142858L53.14079739583333,131.4857142857143L53.2003484375,131.4857142857143L53.33788298611111,146.65714285714284L53.360569097222225,146.65714285714284L53.42437378472222,136.54285714285714L53.42720954861111,146.65714285714284L53.45273142361111,139.07142857142858L53.53071493055556,143.62285714285713L53.58175868055555,131.4857142857143L53.6342203125,131.4857142857143L53.87951388888889,141.6L53.880931770833335,138.2285719430106L53.92063246527778,131.4857142857143L54.02555572916667,131.4857142857143L54.05674913194444,131.4857142857143L54.130478993055554,136.54285714285714L54.29069965277778,135.27857142857144L54.324728819444445,142.8642857142857L54.36442951388889,137.5542857142857L54.40980173611111,139.07142857142858L54.440995138888894,146.65714285714284L54.473606423611116,146.65714285714284L54.49771041666666,131.4857142857143L54.51330711805556,131.4857142857143L54.5530078125,146.65714285714284L54.561515104166666,141.6L54.58278333333334,131.4857142857143L54.78979409722222,139.07142857142858L54.805390798611114,136.54285714285714L54.921657118055556,136.54285714285714L54.99113333333333,135.27857142857144L55.10739965277777,131.4857142857143L55.19247256944445,137.98775576346262L55.47321319444444,135.62337634277344L55.487392013888886,136.54285714285714L56.016261979166664,140.5885714285714L56.08006666666667,139.9142859715053L56.18073628472222,137.98775576346262L56.43453715277778,137.5542857142857L56.91094548611111,137.5542857142857L56.91236336805555,138.2285719430106L56.92087065972222,133.38214285714287L56.927960069444445,136.15384544154574L56.94781041666666,134.0142857142857L57.21011857638889,139.07142857142858L57.22713315972222,137.5542857142857L57.34907100694444,139.07142857142858L57.43130815972222,133.38214285714287L57.47809826388889,139.07142857142858L57.683691145833336,136.54285714285714L57.79286805555556,135.53142857142856L60.32804097222222,135.70000051443918L60.33938402777778,137.175L60.43012847222222,133.50857142857143L60.67400416666666,133.00285714285712L60.747734027777774,134.24415514264788L60.76049496527777,136.54285714285714L60.88385069444444,139.07142857142858L60.94907326388889,132.93061290631977L60.97034149305556,136.54285714285714L61.59562743055555,136.54285714285714L61.61689565972222,138.487912562779L63.545215104166665,134.16302448381697L64.47109201388889,135.82040860421318L66.02650850694445,135.62337634277344L66.71985277777777,131.4857142857143L67.07006961805556,132.14534208461217L67.5691640625,135.41904727608818L68.13631684027777,132.49714285714285L68.26959774305556,131.4857142857143L68.3092984375,132.5320202898298L68.33056666666667,133.00285714285712L68.38019253472221,133.17142908586774L68.50780190972222,132.56938709368023L68.51347343750001,131.4857142857143L68.51914496527777,132.49714285714285L68.7431703125,132.90803571428572L68.76727430555555,131.32767857142858L68.81831805555557,132.49714285714285L68.86227239583333,132.46451558140348L68.87645121527778,131.99142857142857L68.97428506944445,133.932718296596L68.99980694444444,131.97511570521763L69.02674670138889,131.97511570521763L69.23517534722222,131.4857142857143L69.26211510416665,131.4857142857143L69.2762939236111,131.4857142857143L69.3145767361111,131.4857142857143L69.33726284722222,131.95982142857144L69.40673906250001,131.4857142857143L69.49181197916667,131.32767857142858L69.52016961805555,131.95982142857144L69.54143784722221,133.00285714285712L69.57972065972223,131.4857142857143L69.60524253472222,132.49714285714285L69.85478975694444,134.42211971609933L70.52686579861111,131.4857142857143L70.78633819444445,131.4857142857143L71.02028871527777,131.4857142857143L71.1422265625,131.4857142857143L71.19043454861111,131.4857142857143L71.27408958333334,131.4857142857143L71.3208796875,131.4857142857143L71.34498368055556,131.4857142857143L71.37901284722223,131.4857142857143L71.47542881944445,131.4857142857143L71.59311302083334,131.4857142857143L71.92631527777777,131.4857142857143L71.97452326388888,131.95982142857144L71.99862725694445,131.4857142857143L72.04399947916667,131.4857142857143L72.14466909722222,131.4857142857143L72.18153402777777,131.4857142857143L72.23824930555556,131.4857142857143L72.29638246527777,131.4857142857143L72.31056128472223,131.4857142857143L72.32899375,131.4857142857143L72.39138055555554,131.4857142857143L72.41406666666667,131.4857142857143L72.46936406249999,131.4857142857143L72.4948859375,131.4857142857143L72.5998092013889,131.4857142857143L72.71891128472222,131.4857142857143L72.73592586805556,131.95982142857144L72.75577621527778,131.4857142857143L73.01383072916667,131.4857142857143L73.16696197916667,131.4857142857143L73.37255486111111,131.4857142857143L73.46613506944443,132.43392857142857L73.50158211805555,131.4857142857143L73.54979010416668,131.95982142857144L73.56396892361111,131.4857142857143L73.91560364583334,131.4857142857143L73.99784079861112,131.4857142857143L74.11552499999999,131.4857142857143L74.3352967013889,131.4857142857143L74.34947552083334,131.4857142857143L74.40902656249999,131.4857142857143L74.52103923611112,131.4857142857143L74.9960296875,131.4857142857143L75.2228907986111,131.32767857142858L75.25975572916667,131.4857142857143L75.56176458333333,132.43392857142857L75.57168975694445,131.4857142857143L75.75601440972223,131.4857142857143L75.78011840277777,131.4857142857143L76.03391927083334,131.4857142857143L76.04809809027779,131.97511570521763L76.54435677083333,131.4857142857143L76.67621979166667,131.95982142857144L77.12285260416667,131.95982142857144L77.15971753472222,131.95982142857144L77.63470798611111,131.4857142857143L77.64037951388889,131.32767857142858L77.6857517361111,131.4857142857143L77.91403072916667,131.4857142857143L78.44006493055555,131.4857142857143L78.64565781249999,131.4857142857143L78.7505810763889,131.4857142857143L78.95192031250001,131.80178571428573L79.35459878472223,131.95982142857144L79.54459496527778,131.80178571428573L79.70197986111111,132.43392857142857L79.81541041666667,131.81198086983818L79.857946875,131.81198086983818L79.97279531250001,130.85357142857143L80.47897916666668,131.32767857142858L80.60800642361112,131.16964285714286L80.68457204861112,131.16964285714286L80.78240590277777,131.80178571428573L80.98374513888889,131.4857142857143L81.26165,131.32767857142858L81.27724670138888,131.16964285714286L82.28110711805554,131.32767857142858L82.28394288194444,131.32258099365234L82.94751163194444,131.16964285714286L82.9687798611111,131.16964285714286L83.1630296875,131.32767857142858L83.49906770833333,131.16964285714286L83.53735052083333,131.16964285714286L83.73868975694444,131.32767857142858L83.88898524305556,131.01160714285714L84.03219131944445,131.16964285714286L84.19524774305555,131.01160714285714L84.22785902777778,131.01160714285714L84.48024201388888,131.16964285714286L84.58658315972222,130.85357142857143L84.68441701388889,131.16964285714286L84.84463767361112,131.16964285714286L84.95948611111112,130.6955357142857L85.56775746527778,131.16964285714286L85.85416961805555,130.6955357142857L86.21431163194445,130.37946428571428L86.33199583333334,131.16964285714286L86.61415434027778,131.16964285714286L86.61699010416666,130.85357142857143L86.67937690972221,131.01160714285714L86.69639149305556,131.01160714285714L87.29473767361111,131.32767857142858L87.41667552083334,130.6955357142857L87.93703819444444,129.90535714285716L88.45314722222221,130.6955357142857L88.80194618055556,130.22142857142856L89.14223784722223,130.6955357142857L89.54916996527777,129.11517857142857L90.23967847222222,130.85357142857143L91.18682361111111,129.11517857142857L91.50017552083332,128.95714285714286L93.00029461805556,131.01160714285714L93.89781388888889,128.64107142857142L94.02967690972223,127.21875L94.77690069444445,127.85089285714285L96.40037552083332,128.64107142857142L99.63172847222222,125.32232142857143L99.68135434027778,107.93839285714286L99.73806961805556,114.8919642857143L100.86953940972222,124.84821428571428L106.82606145833333,127.37678571428572L108.23401822916667,101.775L108.23968975694444,110.78303571428572L108.25670434027778,122.16160714285715L108.27939045138888,110.78303571428572L108.38431371527778,118.21071428571429L108.6211,79.80803571428571L108.73027690972222,84.54910714285714L108.88907968749999,100.66875L108.9500486111111,71.43214285714286L108.9911671875,82.17857142857143L109.02803211805555,120.26517857142856L109.28892239583334,94.66339285714285L111.2782107638889,42.037499999999994L114.618740625,117.73660714285714L114.66978437499999,31.60714285714286L114.77754340277778,121.84553571428572L115.79983628472222,66.05892857142857L115.95296753472222,100.98482142857144L115.9685642361111,68.034375L116.88168020833334,41.40535714285713L117.02772204861111,37.928571428571445L117.91673402777778,28.446428571428555L117.92240555555556,25.285714285714306L118.2073998263889,27.18214285714285L118.242846875,44.56607142857143L118.395978125,37.928571428571445L119.6337890625,48.83303571428573L120.56108385416667,58.47321428571429L120.89995763888889,25.285714285714306L120.92547951388889,28.446428571428555L121.07435711805556,82.17857142857143L121.10838628472222,52.46785714285713L122.17179774305555,28.446428571428555L122.27104947916668,45.514285714285705L123.01118385416666,117.73660714285714L123.3500576388889,28.446428571428555L123.398265625,25.285714285714306L123.7144532986111,31.60714285714286L124.28727760416666,28.446428571428555L124.33123194444444,25.285714285714306L125.80441128472222,28.446428571428555L126.09365920138889,28.446428571428555L126.67357291666667,25.285714285714306L126.90326979166667,25.285714285714306L127.97802430555556,34.925892857142856L128.17085624999999,31.60714285714286L128.2346609375,34.925892857142856L128.43458229166666,25.285714285714306L128.51681944444445,28.604464285714272L128.74084479166666,25.285714285714306L128.99606354166664,25.285714285714306L129.9091795138889,28.446428571428555L130.65214965277775,31.765178571428578L130.69326822916668,25.285714285714306L130.70744704861113,31.60714285714286L130.98676979166666,31.60714285714286L131.6517564236111,34.925892857142856L133.54462881944445,41.24732142857141L133.87074166666665,28.446428571428555L135.23474409722223,28.446428571428555L135.49705225694444,31.765178571428578L136.24285815972223,31.60714285714286L137.1091840277778,28.446428571428555L137.2594795138889,31.60714285714286L137.75573819444443,41.24732142857141L138.29169756944444,34.925892857142856L138.53982690972222,34.925892857142856L139.043175,28.446428571428555L139.0658611111111,37.928571428571445L139.15376979166666,31.60714285714286L139.64719270833334,28.604464285714272L139.77196631944446,41.56339285714287L140.37173038194445,25.285714285714306L140.58157690972223,41.40535714285713L140.64112795138888,29.078571428571422L141.18984826388888,32.23928571428573L141.60954131944445,25.285714285714306L141.79528385416666,38.08660714285713L142.03490590277778,31.765178571428578L142.12706822916667,34.925892857142856L142.45459895833335,25.285714285714306L142.54817916666667,28.446428571428555L142.88988871527778,34.925892857142856L143.42443020833332,28.446428571428555L143.6527092013889,32.397321428571445L144.61545104166666,28.604464285714272L144.887684375,25.285714285714306L145.959603125,42.037499999999994L147.1463703125,28.446428571428555L147.5802421875,31.765178571428578L148.10769427083335,28.604464285714272L148.8719326388889,31.923214285714295L149.11864409722222,34.76785714285714L149.2391640625,31.765178571428578L149.24058194444444,25.285714285714306L149.96795538194445,38.87678571428572L150.64853871527777,25.285714285714306L151.217109375,25.285714285714306L151.4624029513889,31.923214285714295L152.1259717013889,29.078571428571422L152.5896190972222,25.285714285714306L152.90580677083332,31.60714285714286L153.37796145833332,28.446428571428555L153.56937552083335,35.24196428571429L153.67713454861112,28.604464285714272L153.93944270833333,28.446428571428555L154.07839513888888,31.923214285714295L154.16063229166667,29.078571428571422L154.46264114583332,25.285714285714306L154.5448782986111,28.5483863002232L154.75756059027776,32.23928571428573L155.13046354166667,32.23928571428573L156.23782934027778,25.285714285714306L156.90281597222221,31.923214285714295L157.15236319444443,31.765178571428578L157.9010048611111,28.446428571428555L159.13030850694443,25.285714285714306L159.37276631944445,25.285714285714306L159.6294029513889,28.604464285714272L159.65917847222224,31.765178571428578L160.73251510416668,25.285714285714306L161.02176302083333,32.397321428571445L161.18765520833335,25.285714285714306L162.20853020833331,25.285714285714306L162.77851875000002,25.285714285714306L163.10037795138888,31.765178571428578L163.45343055555557,31.765178571428578L163.62499427083333,25.285714285714306L163.63917309027778,25.285714285714306L163.97521111111112,25.285714285714306L164.70967395833333,25.285714285714306L165.01593645833333,28.446428571428555L165.1293670138889,25.285714285714306L165.56465677083335,25.285714285714306L165.7574887152778,25.285714285714306L165.80853246527778,29.078571428571422L166.06800486111112,28.446428571428555L166.1601671875,25.285714285714306L166.90455520833333,31.765178571428578L167.80065659722223,25.285714285714306L168.42027100694443,25.285714285714306L169.0257065972222,25.285714285714306L169.44114600694445,25.285714285714306L169.60562031249998,25.285714285714306L169.61412760416667,29.078571428571422L169.8835251736111,29.078571428571422L170.09762534722222,34.925892857142856L170.4194845486111,28.604464285714272L172.19183697916665,25.285714285714306L172.57324722222222,25.285714285714306L174.61357934027777,25.285714285714306L175.89534461805556,25.285714285714306L176.27817274305556,25.285714285714306L176.43981128472223,25.285714285714306L176.73614861111113,25.285714285714306L177.5996387152778,25.285714285714306L178.1398517361111,28.604464285714272L178.25186440972223,26.866071428571445L178.3341015625,25.285714285714306L178.33551944444446,25.285714285714306L178.57088784722222,28.446428571428555L178.88423975694445,25.285714285714306L180.20428784722222,28.446428571428555L180.46943177083332,28.446428571428555L180.64808489583334,25.285714285714306L180.6509206597222,25.285714285714306L181.06068854166668,25.285714285714306L181.19113368055557,25.285714285714306L181.60657309027778,25.285714285714306L181.9000746527778,28.604464285714272L183.07691666666668,25.285714285714306L183.23997309027777,25.285714285714306L183.34064270833335,25.285714285714306L184.31189184027778,31.765178571428578L184.32607065972223,25.285714285714306L185.0392652777778,28.446428571428555L186.36498489583332,25.285714285714306L186.87825815972224,25.285714285714306L186.96616684027777,28.446428571428555L187.53899114583334,34.76785714285714L188.29897586805555,34.76785714285714L188.45919652777778,34.925892857142856L188.9667982638889,28.446428571428555L189.85581024305554,47.410714285714306L189.9210328125,25.285714285714306L189.959315625,31.765178571428578L190.76750833333332,35.558035714285694L191.09645694444444,31.765178571428578L191.1716046875,34.76785714285714L191.60122291666667,28.604464285714272L191.83375555555557,25.285714285714306L192.41225138888888,34.76785714285714L192.6674701388889,31.765178571428578L193.7776717013889,28.446428571428555L195.0282435763889,34.76785714285714L195.61099305555555,25.285714285714306L196.00374635416668,31.60714285714286L196.34262013888886,25.285714285714306L196.60918194444446,31.765178571428578L196.87432586805556,35.558035714285694L197.0132782986111,28.446428571428555L197.35215208333332,28.446428571428555L197.5719237847222,37.928571428571445L197.66266822916666,28.446428571428555L197.74348750000001,34.76785714285714L197.8016206597222,25.285714285714306L198.48078611111112,28.446428571428555L199.55554062500002,31.765178571428578L199.86038524305556,31.60714285714286L201.57035086805556,31.60714285714286L202.40548333333334,31.765178571428578L203.51001336805555,41.089285714285694L204.05306215277778,31.765178571428578L204.54364930555553,37.928571428571445L204.68685538194444,34.76785714285714L204.72797395833334,38.08660714285713L204.7336454861111,28.446428571428555L204.75207795138888,31.923214285714295L205.75877413194442,34.76785714285714L205.87362256944445,31.60714285714286L206.02817170138889,28.446428571428555L206.99374930555555,25.285714285714306L207.7962704861111,28.446428571428555L207.94373020833333,28.446428571428555L207.98910243055556,28.446428571428555L208.27693246527778,31.765178571428578L208.61438836805556,31.60714285714286L208.82139913194445,25.285714285714306L208.85117465277776,34.76785714285714L210.00533055555556,28.446428571428555L210.94963993055555,25.285714285714306L211.53664305555557,28.446428571428555L211.5891046875,28.446428571428555L213.07504496527778,28.446428571428555L213.19981857638888,31.60714285714286L213.24519079861113,25.285714285714306L213.52451354166666,32.23928571428573L214.2150220486111,25.285714285714306L214.37524270833333,28.446428571428555L214.39792881944445,32.23928571428573L214.8360543402778,25.285714285714306L215.1111234375,34.76785714285714L215.95759895833334,31.60714285714286L217.09332239583333,34.76785714285714L217.36555572916666,25.285714285714306L217.51726909722223,34.925892857142856L217.91427604166665,31.765178571428578L218.9649265625,31.765178571428578L218.97059809027778,28.446428571428555L219.26693541666666,25.285714285714306L219.39738055555554,31.60714285714286L219.52498993055556,28.604464285714272L219.56327274305556,35.400000000000006L219.83692395833333,31.60714285714286L220.26370642361113,25.285714285714306L220.76705451388887,25.285714285714306L220.83511284722223,31.765178571428578L221.0166017361111,31.765178571428578L222.29553125,25.285714285714306L222.42881215277777,28.446428571428555L223.16752864583333,34.76785714285714L223.5021487847222,28.446428571428555L223.6963986111111,28.446428571428555L223.8878126736111,31.765178571428578L223.9445279513889,25.285714285714306L225.6800154513889,25.285714285714306L225.8005354166667,25.285714285714306L226.52790885416664,25.285714285714306L227.44386059027778,25.285714285714306L227.4991579861111,34.76785714285714L227.64378194444444,25.285714285714306L227.81392777777776,31.765178571428578L228.17974131944445,25.285714285714306L228.548390625,25.285714285714306L229.2445706597222,28.604464285714272L229.65717430555554,25.285714285714306L230.48379947916666,28.446428571428555L231.00699791666668,25.285714285714306L231.74004288194442,25.285714285714306L232.070409375,25.285714285714306L233.41597934027777,28.446428571428555L233.6938842013889,25.285714285714306L234.87072621527778,25.285714285714306L235.22236093749999,28.446428571428555L235.45914722222224,29.078571428571422L236.15674513888888,28.446428571428555L236.63315347222223,25.285714285714306L236.65583958333335,31.60714285714286L236.73665885416665,28.446428571428555L236.79337413194443,31.60714285714286L237.52500121527777,28.446428571428555L237.81283125,28.446428571428555L238.08222881944445,25.285714285714306L238.65505312500002,31.60714285714286L238.88049635416667,31.60714285714286L239.70995729166668,25.285714285714306L240.46285260416667,31.60714285714286L241.27388107638888,28.446428571428555L243.15824618055555,31.60714285714286L243.65875850694445,31.60714285714286L243.70413072916665,28.446428571428555L245.0326861111111,25.285714285714306L245.47648315972222,25.12767857142859L245.852221875,25.285714285714306L246.36974878472222,28.446428571428555L246.48743298611112,28.446428571428555L246.53564097222224,34.76785714285714L246.53705885416667,31.60714285714286L246.5384767361111,25.285714285714306L246.53989461805557,37.928571428571445L246.5413125,28.446428571428555L246.54273038194444,31.60714285714286L246.5441482638889,28.446428571428555L246.54556614583333,34.76785714285714L246.54698402777777,34.76785714285714L246.54840190972223,28.446428571428555L246.54981979166666,25.285714285714306L246.5512376736111,28.446428571428555L246.55265555555556,28.446428571428555L246.5540734375,31.60714285714286L246.55549131944446,28.604464285714272L246.5569092013889,31.765178571428578L246.55832708333332,25.285714285714306L246.5597449652778,31.60714285714286L246.56116284722222,28.446428571428555L246.56258072916665,25.285714285714306L246.56399861111112,31.449107142857144L246.56541649305555,28.446428571428555L246.56683437499998,25.285714285714306" style="fill: none;" fill="none"></path></g></g></g></g></g></g><g transform="translate(74, 177)" clip-path="url(#clip_1)"><clipPath id="clip_1"><rect width="255" height="23"></rect></clipPath><g><g><line x1="0" y1="0" x2="0" y2="5" style="visibility: inherit;" fill="rgb(0, 0, 0)" stroke="rgb(204, 204, 204)" stroke-width="1px"></line><line x1="28.357638888888886" y1="0" x2="28.357638888888886" y2="5" style="visibility: inherit;" fill="rgb(0, 0, 0)" stroke="rgb(204, 204, 204)" stroke-width="1px"></line><line x1="56.71527777777777" y1="0" x2="56.71527777777777" y2="5" style="visibility: inherit;" fill="rgb(0, 0, 0)" stroke="rgb(204, 204, 204)" stroke-width="1px"></line><line x1="85.07291666666666" y1="0" x2="85.07291666666666" y2="5" style="visibility: inherit;" fill="rgb(0, 0, 0)" stroke="rgb(204, 204, 204)" stroke-width="1px"></line><line x1="113.43055555555554" y1="0" x2="113.43055555555554" y2="5" style="visibility: inherit;" fill="rgb(0, 0, 0)" stroke="rgb(204, 204, 204)" stroke-width="1px"></line><line x1="141.78819444444446" y1="0" x2="141.78819444444446" y2="5" style="visibility: inherit;" fill="rgb(0, 0, 0)" stroke="rgb(204, 204, 204)" stroke-width="1px"></line><line x1="170.14583333333331" y1="0" x2="170.14583333333331" y2="5" style="visibility: inherit;" fill="rgb(0, 0, 0)" stroke="rgb(204, 204, 204)" stroke-width="1px"></line><line x1="198.50347222222223" y1="0" x2="198.50347222222223" y2="5" style="visibility: inherit;" fill="rgb(0, 0, 0)" stroke="rgb(204, 204, 204)" stroke-width="1px"></line><line x1="226.8611111111111" y1="0" x2="226.8611111111111" y2="5" style="visibility: inherit;" fill="rgb(0, 0, 0)" stroke="rgb(204, 204, 204)" stroke-width="1px"></line><line x1="255.21875" y1="0" x2="255.21875" y2="5" style="visibility: inherit;" fill="rgb(0, 0, 0)" stroke="rgb(204, 204, 204)" stroke-width="1px"></line></g><g transform="translate(0, 8)"><text x="0" y="0" dx="0em" dy="0.95em" style="text-anchor: middle; visibility: hidden; font-family: &quot;Helvetica Neue&quot;, sans-serif; font-size: 12px; font-weight: 200;" fill="rgb(50, 49, 63)" stroke="none" stroke-width="1px">-20k</text><text x="28.357638888888886" y="0" dx="0em" dy="0.95em" style="text-anchor: middle; visibility: inherit; font-family: &quot;Helvetica Neue&quot;, sans-serif; font-size: 12px; font-weight: 200;" fill="rgb(50, 49, 63)" stroke="none" stroke-width="1px">0</text><text x="56.71527777777777" y="0" dx="0em" dy="0.95em" style="text-anchor: middle; visibility: hidden; font-family: &quot;Helvetica Neue&quot;, sans-serif; font-size: 12px; font-weight: 200;" fill="rgb(50, 49, 63)" stroke="none" stroke-width="1px">20k</text><text x="85.07291666666666" y="0" dx="0em" dy="0.95em" style="text-anchor: middle; visibility: inherit; font-family: &quot;Helvetica Neue&quot;, sans-serif; font-size: 12px; font-weight: 200;" fill="rgb(50, 49, 63)" stroke="none" stroke-width="1px">40k</text><text x="113.43055555555554" y="0" dx="0em" dy="0.95em" style="text-anchor: middle; visibility: hidden; font-family: &quot;Helvetica Neue&quot;, sans-serif; font-size: 12px; font-weight: 200;" fill="rgb(50, 49, 63)" stroke="none" stroke-width="1px">60k</text><text x="141.78819444444446" y="0" dx="0em" dy="0.95em" style="text-anchor: middle; visibility: inherit; font-family: &quot;Helvetica Neue&quot;, sans-serif; font-size: 12px; font-weight: 200;" fill="rgb(50, 49, 63)" stroke="none" stroke-width="1px">80k</text><text x="170.14583333333331" y="0" dx="0em" dy="0.95em" style="text-anchor: middle; visibility: hidden; font-family: &quot;Helvetica Neue&quot;, sans-serif; font-size: 12px; font-weight: 200;" fill="rgb(50, 49, 63)" stroke="none" stroke-width="1px">100k</text><text x="198.50347222222223" y="0" dx="0em" dy="0.95em" style="text-anchor: middle; visibility: inherit; font-family: &quot;Helvetica Neue&quot;, sans-serif; font-size: 12px; font-weight: 200;" fill="rgb(50, 49, 63)" stroke="none" stroke-width="1px">120k</text><text x="226.8611111111111" y="0" dx="0em" dy="0.95em" style="text-anchor: middle; visibility: hidden; font-family: &quot;Helvetica Neue&quot;, sans-serif; font-size: 12px; font-weight: 200;" fill="rgb(50, 49, 63)" stroke="none" stroke-width="1px">140k</text><text x="255.21875" y="0" dx="0em" dy="0.95em" style="text-anchor: middle; visibility: hidden; font-family: &quot;Helvetica Neue&quot;, sans-serif; font-size: 12px; font-weight: 200;" fill="rgb(50, 49, 63)" stroke="none" stroke-width="1px">160k</text></g><line x1="0" y1="0" x2="255.21875" y2="0" fill="rgb(0, 0, 0)" stroke="rgb(204, 204, 204)" stroke-width="1px"></line></g></g></g></g></svg>