<svg viewBox="0 0 330 200" xmlns="http://www.w3.org/2000/svg"><g><g><g><g><g><line x1="63.984375" y1="177" x2="58.984375" y2="177" style="visibility: inherit;" fill="rgb(0, 0, 0)" stroke="rgb(204, 204, 204)" stroke-width="1px"></line><line x1="63.984375" y1="160.9090909090909" x2="58.984375" y2="160.9090909090909" style="visibility: inherit;" fill="rgb(0, 0, 0)" stroke="rgb(204, 204, 204)" stroke-width="1px"></line><line x1="63.984375" y1="144.8181818181818" x2="58.984375" y2="144.8181818181818" style="visibility: inherit;" fill="rgb(0, 0, 0)" stroke="rgb(204, 204, 204)" stroke-width="1px"></line><line x1="63.984375" y1="128.72727272727275" x2="58.984375" y2="128.72727272727275" style="visibility: inherit;" fill="rgb(0, 0, 0)" stroke="rgb(204, 204, 204)" stroke-width="1px"></line><line x1="63.984375" y1="112.63636363636364" x2="58.984375" y2="112.63636363636364" style="visibility: inherit;" fill="rgb(0, 0, 0)" stroke="rgb(204, 204, 204)" stroke-width="1px"></line><line x1="63.984375" y1="96.54545454545455" x2="58.984375" y2="96.54545454545455" style="visibility: inherit;" fill="rgb(0, 0, 0)" stroke="rgb(204, 204, 204)" stroke-width="1px"></line><line x1="63.984375" y1="80.45454545454547" x2="58.984375" y2="80.45454545454547" style="visibility: inherit;" fill="rgb(0, 0, 0)" stroke="rgb(204, 204, 204)" stroke-width="1px"></line><line x1="63.984375" y1="64.36363636363636" x2="58.984375" y2="64.36363636363636" style="visibility: inherit;" fill="rgb(0, 0, 0)" stroke="rgb(204, 204, 204)" stroke-width="1px"></line><line x1="63.984375" y1="48.27272727272728" x2="58.984375" y2="48.27272727272728" style="visibility: inherit;" fill="rgb(0, 0, 0)" stroke="rgb(204, 204, 204)" stroke-width="1px"></line><line x1="63.984375" y1="32.18181818181819" x2="58.984375" y2="32.18181818181819" style="visibility: inherit;" fill="rgb(0, 0, 0)" stroke="rgb(204, 204, 204)" stroke-width="1px"></line><line x1="63.984375" y1="16.090909090909093" x2="58.984375" y2="16.090909090909093" style="visibility: inherit;" fill="rgb(0, 0, 0)" stroke="rgb(204, 204, 204)" stroke-width="1px"></line><line x1="63.984375" y1="0" x2="58.984375" y2="0" style="visibility: inherit;" fill="rgb(0, 0, 0)" stroke="rgb(204, 204, 204)" stroke-width="1px"></line></g><g transform="translate(53.984375, 0)"><text x="0" y="177" dx="0em" dy="0.3em" style="text-anchor: end; visibility: hidden; font-family: &quot;Helvetica Neue&quot;, sans-serif; font-size: 12px; font-weight: 200;" fill="rgb(50, 49, 63)" stroke="none" stroke-width="1px">-1e+3</text><text x="0" y="160.9090909090909" dx="0em" dy="0.3em" style="text-anchor: end; visibility: inherit; font-family: &quot;Helvetica Neue&quot;, sans-serif; font-size: 12px; font-weight: 200;" fill="rgb(50, 49, 63)" stroke="none" stroke-width="1px">0</text><text x="0" y="144.8181818181818" dx="0em" dy="0.3em" style="text-anchor: end; visibility: hidden; font-family: &quot;Helvetica Neue&quot;, sans-serif; font-size: 12px; font-weight: 200;" fill="rgb(50, 49, 63)" stroke="none" stroke-width="1px">1e+3</text><text x="0" y="128.72727272727275" dx="0em" dy="0.3em" style="text-anchor: end; visibility: inherit; font-family: &quot;Helvetica Neue&quot;, sans-serif; font-size: 12px; font-weight: 200;" fill="rgb(50, 49, 63)" stroke="none" stroke-width="1px">2e+3</text><text x="0" y="112.63636363636364" dx="0em" dy="0.3em" style="text-anchor: end; visibility: hidden; font-family: &quot;Helvetica Neue&quot;, sans-serif; font-size: 12px; font-weight: 200;" fill="rgb(50, 49, 63)" stroke="none" stroke-width="1px">3e+3</text><text x="0" y="96.54545454545455" dx="0em" dy="0.3em" style="text-anchor: end; visibility: inherit; font-family: &quot;Helvetica Neue&quot;, sans-serif; font-size: 12px; font-weight: 200;" fill="rgb(50, 49, 63)" stroke="none" stroke-width="1px">4e+3</text><text x="0" y="80.45454545454547" dx="0em" dy="0.3em" style="text-anchor: end; visibility: hidden; font-family: &quot;Helvetica Neue&quot;, sans-serif; font-size: 12px; font-weight: 200;" fill="rgb(50, 49, 63)" stroke="none" stroke-width="1px">5e+3</text><text x="0" y="64.36363636363636" dx="0em" dy="0.3em" style="text-anchor: end; visibility: inherit; font-family: &quot;Helvetica Neue&quot;, sans-serif; font-size: 12px; font-weight: 200;" fill="rgb(50, 49, 63)" stroke="none" stroke-width="1px">6e+3</text><text x="0" y="48.27272727272728" dx="0em" dy="0.3em" style="text-anchor: end; visibility: hidden; font-family: &quot;Helvetica Neue&quot;, sans-serif; font-size: 12px; font-weight: 200;" fill="rgb(50, 49, 63)" stroke="none" stroke-width="1px">7e+3</text><text x="0" y="32.18181818181819" dx="0em" dy="0.3em" style="text-anchor: end; visibility: inherit; font-family: &quot;Helvetica Neue&quot;, sans-serif; font-size: 12px; font-weight: 200;" fill="rgb(50, 49, 63)" stroke="none" stroke-width="1px">8e+3</text><text x="0" y="16.090909090909093" dx="0em" dy="0.3em" style="text-anchor: end; visibility: hidden; font-family: &quot;Helvetica Neue&quot;, sans-serif; font-size: 12px; font-weight: 200;" fill="rgb(50, 49, 63)" stroke="none" stroke-width="1px">9e+3</text><text x="0" y="0" dx="0em" dy="0.3em" style="text-anchor: end; visibility: hidden; font-family: &quot;Helvetica Neue&quot;, sans-serif; font-size: 12px; font-weight: 200;" fill="rgb(50, 49, 63)" stroke="none" stroke-width="1px">1e+4</text></g><line x1="63.984375" y1="0" x2="63.984375" y2="177" fill="rgb(0, 0, 0)" stroke="rgb(204, 204, 204)" stroke-width="1px"></line></g></g><g transform="translate(63, 0)" clip-path="url(#clip_0)"><clipPath id="clip_0"><rect width="266" height="177"></rect></clipPath><g><g><g><line x1="0" y1="0" x2="0" y2="177" fill="rgb(0, 0, 0)" stroke="rgb(60, 60, 60)" stroke-width="1px" opacity="0.25"></line><line x1="29.557291666666664" y1="0" x2="29.557291666666664" y2="177" fill="rgb(0, 0, 0)" stroke="rgb(60, 60, 60)" stroke-width="1px" opacity="0.25"></line><line x1="59.11458333333333" y1="0" x2="59.11458333333333" y2="177" fill="rgb(0, 0, 0)" stroke="rgb(60, 60, 60)" stroke-width="1px" opacity="0.25"></line><line x1="88.671875" y1="0" x2="88.671875" y2="177" fill="rgb(0, 0, 0)" stroke="rgb(60, 60, 60)" stroke-width="1px" opacity="0.25"></line><line x1="118.22916666666666" y1="0" x2="118.22916666666666" y2="177" fill="rgb(0, 0, 0)" stroke="rgb(60, 60, 60)" stroke-width="1px" opacity="0.25"></line><line x1="147.78645833333334" y1="0" x2="147.78645833333334" y2="177" fill="rgb(0, 0, 0)" stroke="rgb(60, 60, 60)" stroke-width="1px" opacity="0.25"></line><line x1="177.34375" y1="0" x2="177.34375" y2="177" fill="rgb(0, 0, 0)" stroke="rgb(60, 60, 60)" stroke-width="1px" opacity="0.25"></line><line x1="206.90104166666666" y1="0" x2="206.90104166666666" y2="177" fill="rgb(0, 0, 0)" stroke="rgb(60, 60, 60)" stroke-width="1px" opacity="0.25"></line><line x1="236.45833333333331" y1="0" x2="236.45833333333331" y2="177" fill="rgb(0, 0, 0)" stroke="rgb(60, 60, 60)" stroke-width="1px" opacity="0.25"></line><line x1="266.015625" y1="0" x2="266.015625" y2="177" fill="rgb(0, 0, 0)" stroke="rgb(60, 60, 60)" stroke-width="1px" opacity="0.25"></line></g><g><line x1="0" y1="177" x2="266.015625" y2="177" fill="rgb(0, 0, 0)" stroke="rgb(60, 60, 60)" stroke-width="1px" opacity="0.25"></line><line x1="0" y1="160.9090909090909" x2="266.015625" y2="160.9090909090909" fill="rgb(0, 0, 0)" stroke="rgb(60, 60, 60)" stroke-width="1px" opacity="0.25"></line><line x1="0" y1="144.8181818181818" x2="266.015625" y2="144.8181818181818" fill="rgb(0, 0, 0)" stroke="rgb(60, 60, 60)" stroke-width="1px" opacity="0.25"></line><line x1="0" y1="128.72727272727275" x2="266.015625" y2="128.72727272727275" fill="rgb(0, 0, 0)" stroke="rgb(60, 60, 60)" stroke-width="1px" opacity="0.25"></line><line x1="0" y1="112.63636363636364" x2="266.015625" y2="112.63636363636364" fill="rgb(0, 0, 0)" stroke="rgb(60, 60, 60)" stroke-width="1px" opacity="0.25"></line><line x1="0" y1="96.54545454545455" x2="266.015625" y2="96.54545454545455" fill="rgb(0, 0, 0)" stroke="rgb(60, 60, 60)" stroke-width="1px" opacity="0.25"></line><line x1="0" y1="80.45454545454547" x2="266.015625" y2="80.45454545454547" fill="rgb(0, 0, 0)" stroke="rgb(60, 60, 60)" stroke-width="1px" opacity="0.25"></line><line x1="0" y1="64.36363636363636" x2="266.015625" y2="64.36363636363636" fill="rgb(0, 0, 0)" stroke="rgb(60, 60, 60)" stroke-width="1px" opacity="0.25"></line><line x1="0" y1="48.27272727272728" x2="266.015625" y2="48.27272727272728" fill="rgb(0, 0, 0)" stroke="rgb(60, 60, 60)" stroke-width="1px" opacity="0.25"></line><line x1="0" y1="32.18181818181819" x2="266.015625" y2="32.18181818181819" fill="rgb(0, 0, 0)" stroke="rgb(60, 60, 60)" stroke-width="1px" opacity="0.25"></line><line x1="0" y1="16.090909090909093" x2="266.015625" y2="16.090909090909093" fill="rgb(0, 0, 0)" stroke="rgb(60, 60, 60)" stroke-width="1px" opacity="0.25"></line><line x1="0" y1="0" x2="266.015625" y2="0" fill="rgb(0, 0, 0)" stroke="rgb(60, 60, 60)" stroke-width="1px" opacity="0.25"></line></g></g></g><g><g><line x1="0" y1="160.9090909090909" x2="266.015625" y2="160.9090909090909" fill="rgb(0, 0, 0)" stroke="rgb(153, 153, 153)" stroke-width="1.5px"></line></g></g><g><g><line x1="29.557291666666664" y1="0" x2="29.557291666666664" y2="177" fill="rgb(0, 0, 0)" stroke="rgb(153, 153, 153)" stroke-width="1.5px"></line></g></g><g><g><g><g><g><path stroke="rgb(255, 112, 67)" stroke-width="2px" d="M29.879466145833334,156.7656818181818L29.911979166666665,156.81596590909092L30.065677083333334,156.32425800905736L30.124791666666667,156.492094837955L30.130703125,156.46558214945355L30.166171875,156.4534348261226L30.19720703125,156.4554556012732L30.225286458333333,156.48961918434236L30.368639322916668,156.51005903890226L30.96421875,156.42307863752094L31.109049479166668,156.23338078082872L31.154863281249998,156.15900178711956L31.194765625000002,156.194499702119L31.20954427083333,156.22357290795773L31.21693359375,156.3285656452503L31.485904947916666,156.1989076184042L31.487382812499998,156.2059770962252L31.506595052083334,156.00204264711115L31.524329427083334,155.92987349037514L31.5671875,155.92370105864646L31.84354817708333,155.84321135025402L31.87606119791667,155.699001332278L31.958821614583336,155.52913715085404L31.980989583333333,155.36734636972636L32.06818359375,155.26988181762584L32.080006510416666,155.0126364375649L32.15389973958334,155.05194553957003L32.1790234375,154.93404968391283L32.39479166666666,154.76268396507592L32.578046875,154.63106032168685L32.67854166666667,154.4687416128863L32.6933203125,154.3275182891811L32.82928385416667,154.24391583526844L33.13520182291666,154.18986760801073L33.244563802083334,154.06415450735557L33.31106770833334,153.93310490053554L33.582994791666664,153.7402854565368L33.77216145833333,153.4968227247975L33.8460546875,153.18091819713754L33.96280598958333,152.9481327622512L34.03965494791667,152.6144314625259L34.14162760416667,152.5078399891491L34.17118489583333,152.25813237025616L34.47119140625,151.93946744082248L34.52291666666667,151.6512322633394L34.539173177083335,151.42220487493722L34.685481770833334,151.09792193402774L34.74902994791667,150.89506630680626L35.15692057291667,150.48870141132176L35.279583333333335,150.2154085758041L35.36382161458333,149.82573640006888L35.36677734375,149.80763263941003L35.45397135416667,149.56422190192424L35.628359374999995,149.17731244193985L35.66826171875,148.9085302711274L35.858906250000004,148.65014283502774L36.293398437499995,148.30229381890086L36.34216796875,147.79486482630506L36.35399088541667,147.5626049363453L36.40719401041667,147.25845128455666L36.43675130208333,146.8861005407004L36.46630859375,146.77720413847655L36.575670572916664,146.64649999952633L36.62739583333333,146.29681555606953L36.63330729166667,146.07077198278103L36.948092447916665,145.69926897456355L37.381106770833334,145.39014740847108L37.48307942708333,145.00731664098493L37.6412109375,144.77453370918764L37.74318359375,144.53688313601566L37.97668619791667,144.1091979599979L37.99294270833333,143.49843693519665L38.046145833333334,143.0433882272996L38.272259114583335,142.78932564168653L38.29442708333333,142.27295770914697L38.34615234375,141.9159066803036L38.39196614583333,141.68411586490961L38.669804687500005,141.42270479293188L39.24912760416667,141.3152008307479L39.58016927083333,140.9775387953104L39.6274609375,140.2949433126793L39.69248697916667,139.66554498671223L39.71022135416667,139.15744649607407L39.83731770833334,138.6443498895336L39.965891927083334,138.4385559653582L40.298411458333334,137.8449922477857L40.4964453125,137.74630373321133L40.741770833333334,137.29037764090629L41.08020182291666,137.08724029660291L41.158528645833336,136.70377114618879L41.48513671875,136.4888991863951L41.4895703125,136.4197265904629L41.74376302083333,136.2433208395709L41.82208984375,135.828095843595L41.98908854166667,135.36036181055L42.011256510416665,135.0379659867888L42.04968098958334,134.95046449541354L42.277272135416666,134.8566280369829L42.61422526041667,134.81642711503008L42.645260416666666,134.51926514685312L42.65856119791667,134.61588639646925L42.815214843750006,134.74810173776376L42.852161458333335,134.42961494249937L42.85955078125,134.2410336845836L43.29256510416666,133.80077852469384L43.533457031249995,133.6378716681157L43.71966796875,133.241843674617L43.89405598958333,133.4209511277634L44.046276041666665,133.63293490093673L44.21327473958333,133.67387190361282L44.217708333333334,133.34967235187685L44.454166666666666,133.05236197725802L44.84432291666666,132.54341779791497L45.01575520833333,132.3222081966936L45.11625,132.48365871450324L45.256647135416664,131.94207995019406L45.43251302083333,131.3591193728384L45.547786458333334,131.33981247221965L45.587688802083335,130.7456756841136L45.84040364583333,130.47444246709617L45.961588541666664,130.08953687445447L46.21578125,129.2407826714772L46.22908203125,128.55132494035394L46.27637369791667,128.46181441576275L47.27688802083333,128.0136775742078L47.74241536458334,127.20808116153246L47.975917968750004,127.0039886392414L47.99365234375,126.82985941962656L48.095625,126.45842983115905L48.16065104166667,126.76928890260612L48.36459635416667,126.33301582023876L49.22323567708333,125.8071171676681L49.36215494791667,125.6923343339567L49.372499999999995,125.22094998414501L49.472994791666665,124.24709865642475L49.775957031249995,124.39592581165653L50.27104166666666,124.72044704162451L50.29764322916667,124.65348753228002L50.4631640625,124.45997108099928L50.48828776041666,124.07712723168541L51.018841145833335,124.1509315800495L51.240520833333335,124.14846626216965L51.24938802083333,124.86078461254982L51.917382812499994,124.60279131211223L52.167141927083335,125.11983048258278L52.177486979166666,125.11400368310879L52.233645833333334,125.51354657164217L52.37256510416667,125.40046462263963L52.575032552083336,125.7512477591849L53.285885416666666,126.01767415610155L53.66126302083333,125.9688271890188L53.73367838541667,126.07370584538245L53.95535807291667,125.62804544364275L54.005605468750005,125.35366701099895L54.3647265625,125.34306167267816L54.395761718749995,124.56065033485376L54.63369791666666,123.9288892372767L54.83025390625,123.68011109434374L54.923359375,122.87995505610981L55.06227864583333,122.71394533802953L55.207109374999995,122.65303659706461L55.385930989583336,122.89388919667005L55.464257812499994,122.94823891525782L55.74357421875,122.51844910118166L55.7834765625,122.0481666778087L55.85145833333333,121.93214830253943L56.148509114583334,121.6572686932828L56.21057942708333,122.05803899127994L56.63916015625,121.77207883686395L56.786946614583336,121.19792492089476L56.817981770833335,120.86522617382194L57.12389973958334,120.8669990110091L57.43572916666667,120.70215422154456L57.59681640625,120.05095299682486L57.725390625,119.8626190589279L57.75790364583333,119.01880885011735L57.77120442708333,118.44844784692906L57.78893880208334,118.2473871517048L57.79189453125,118.3374637780242L57.83770833333333,117.8573622837994L58.08598958333333,117.84313173716332L58.16579427083333,117.90323617736587L58.25151041666666,118.09058301496728L58.637233072916665,118.04548778148069L58.700781250000006,118.38253559539663L58.821966145833336,118.66274794581204L59.327395833333334,119.26089360743647L59.528385416666666,119.26973322398763L59.822480468749994,119.30232808348032L59.860904947916666,118.75842481948632L60.17569010416667,118.53089199621425L60.228893229166665,118.48048461469202L60.314609375,118.05044467531576L60.52298828125,118.02042577592616L61.58557291666666,117.71634342524297L61.960950520833336,117.7353227191027L61.96242838541667,116.53301487784705L62.144205729166664,116.01814236688662L62.16194010416667,115.1816491522695L62.203320312500004,114.72246435035495L62.43682291666667,113.92201052844757L62.51958333333333,113.31172424798132L62.688059895833334,112.87258875477552L62.849147135416665,112.46781283365605L62.88166015625,112.4318696184573L63.15506510416667,113.21010027053971L63.51714192708333,113.71590842547462L63.9235546875,113.20668690095431L64.03439453125,112.34661764244197L64.08168619791667,111.71988769622543L64.14227864583333,111.15281369920461L64.14819010416666,110.83855505649427L64.16592447916666,111.89579330103443L64.23538411458334,112.06740147095867L64.36100260416666,112.04032325567705L64.48957682291666,112.85871422567088L64.85608723958333,113.51229734863524L64.91963541666667,113.91245965926863L64.92259114583334,113.74210857968917L64.93736979166667,114.18717328994023L65.06003255208333,114.16283096094433L65.10732421875,114.12583763757462L65.92014973958334,114.69595273748914L66.05463541666667,114.62224098646337L66.26892578124999,114.2260367741606L66.31030598958334,113.53104105125831L66.40341145833334,113.80563012796193L66.45365885416668,113.69272620607066L66.51720703125,113.92248483547124L66.74923177083333,113.7662164655558L67.22067057291666,113.94990731900516L67.5058984375,112.73643931434798L67.54284505208334,113.19809651928688L67.60934895833334,112.87089198098813L67.66994140625,113.30200732835148L68.07044270833333,113.74632932279613L68.43843098958334,114.50021911780001L68.51380208333333,114.90115175147972L68.65715494791667,114.54845987178221L68.72809244791667,113.73976161186829L68.86257812500001,113.60679397340746L68.92021484375,113.76368559879532L69.03548828125,113.23711533436634L69.50692708333334,113.0825060736559L69.55717447916666,112.66176682992409L69.68574869791667,111.60376344238036L70.04634765624999,111.03824505268497L70.08329427083333,110.6273324792328L70.35078776041667,110.57681514040024L70.458671875,110.69628135363337L70.47936197916667,110.62931515008799L70.81188151041667,110.43327852144225L70.82961588541667,110.70638532838964L70.93454427083333,110.5685138410049L71.07198567708333,110.56108859326804L71.11484374999999,109.85646268848532L71.3542578125,109.87599255600047L71.89072265624999,109.89507795949135L71.96313802083333,109.34303891354143L72.19220703124999,109.10365831764155L72.27348958333333,109.28747146315031L72.43162109375,109.11398852138056L72.48630208333333,109.38929137378821L72.58531901041667,108.84810655459077L72.6311328125,108.79650044458619L72.6666015625,109.17797255921873L72.79222005208332,109.24574064420598L73.00946614583333,109.04475180705802L73.04050130208333,109.80417435362533L73.34641927083332,109.83748135008096L73.367109375,110.71575026052777L73.3759765625,111.14163262083879L73.45578125,110.75206026784569L74.00406901041667,110.51207015015196L74.23609375000001,110.63599949877317L74.484375,110.36487398071397L74.71639973958334,109.95190646900612L74.90113281250001,109.6234800266509L74.9720703125,110.05148429671314L75.19670572916667,110.67654325340557L75.20705078125,110.61356222351955L75.33858072916668,110.47843611480394L75.45533203125001,109.72626011695982L75.62528645833333,109.73819376435475L75.885390625,109.80072666064655L76.169140625,108.95490967639999L76.417421875,109.62123973148732L76.85043619791666,110.19328053106591L77.37951171875,110.30383315977748L77.49182942708333,109.3176970028906L77.68986328125,109.10850684805608L77.86277343750001,108.79502832234137L77.96326822916666,108.60793458101631L78.30317708333332,108.09661271382375L78.41549479166667,108.28709916971411L78.50121093749999,107.22858811637904L78.78939453125001,106.99096794110476L78.8825,107.14317796517611L79.08496744791665,107.26407607774941L79.503203125,108.44393551542903L79.72931640625,108.11796810024975L79.73375,108.0750121993157L79.78104166666667,108.75943711574777L80.02193359375,108.24453033599117L80.21848958333334,107.40750343875567L80.709140625,107.14998036760738L80.72244140625,107.32199085357391L80.7534765625,107.22236279094379L80.83180338541668,107.33232537548578L81.04904947916667,107.69226613339173L81.26925130208333,107.61394008823439L81.38452473958333,107.01345232941094L81.46876302083334,107.22928607374259L81.89734375,108.15868985273197L81.94759114583334,109.13594870836786L81.96384765625,109.56745042844017L82.0126171875,110.10011731741433L82.38799479166667,109.3390089947638L82.45006510416667,108.44130979983287L82.78701822916666,107.53482370621322L83.20377604166666,107.88256008559189L83.41511067708332,108.31318759975997L83.88211588541667,107.58042281705671L83.92349609375,108.1423350808056L84.078671875,108.28802202727049L84.36389973958335,107.59598971090706L84.46143880208334,107.5157259670891L84.52942057291666,107.2896192794711L84.68902994791667,107.00667439697851L84.717109375,106.3487455936443L84.77474609375,105.97132273882534L84.84568359375,106.55485807857917L85.0540625,106.49523590708489L85.35406901041667,106.03779470274002L85.62008463541666,105.92076239155693L85.79742838541668,106.26145319785579L85.81072916666668,106.38101810534295L85.81811848958333,106.13613504480863L85.84472005208335,106.80074029032778L86.064921875,106.76631114765863L86.135859375,106.91634764652912L86.25408854166666,106.58926970005804L86.61764322916667,106.59660409368858L86.62651041666668,107.02609425250154L87.14967447916668,107.77618937270594L87.40534505208333,107.02722952634444L87.60633463541667,107.91046396007361L87.68909505208333,107.4995624504299L87.69796223958333,107.55616018265964L88.18861328125,107.89044899393913L88.28615234374999,107.72240977636339L88.44132812500001,107.87438754872704L88.55364583333333,108.24901129385434L88.57433593750001,108.27994255083254L88.86399739583334,108.81715852302203L88.96449218750001,108.64193130708345L89.505390625,108.42690294910238L89.59849609375,109.21693424510124L89.64430989583333,109.81532604786385L89.80244140625,110.07882469307745L89.83052083333332,110.60862688286062L90.04776692708333,110.79530964912001L90.32708333333333,111.10059970693528L90.36402994791668,111.9626789407872L90.37585286458332,111.3019337739812L91.0748828125,111.7476409647649L91.44582682291667,112.08039107283386L91.59065755208333,112.49652526100502L91.81529296875,113.04502898490452L91.85076171875,112.79246642732316L92.27934244791666,112.64762603459084L92.49954427083333,112.54090320385903L92.52614583333333,112.65705151983677L92.72861328125,112.98283500421672L93.07295572916667,112.59368502652232L93.45572265625,112.84786481932463L93.48823567708334,113.0439419737558L93.94489583333333,113.51407050365296L93.96263020833334,113.30762936237856L93.96706380208333,113.26463915341344L94.63062500000001,113.0162633062539L94.67052734375,113.54950061199216L95.03999348958332,113.40589145988386L95.322265625,113.76339322298638L95.53507812500001,113.59034935523319L95.54690104166666,112.76030021516442L96.4129296875,111.80357133001161L96.67598958333333,110.82736476519227L96.78978515625,110.34702885685488L97.10900390625,110.03339699389664L97.13708333333334,110.01562263541607L97.19767578125,109.13323082641993L97.45630208333333,108.0444134255961L97.49472656249999,107.9535004921274L97.79473307291667,108.21109646564193L97.81246744791666,107.76761750089592L97.83906901041667,107.8446767735336L98.52627604166666,107.93364091436207L98.65485026041667,107.12971432292586L99.45585286458333,106.52082811790599L99.5253125,106.7648049652063L99.55782552083333,105.80019378686748L99.67014322916667,104.8797482718171L99.70265625,104.28617401281721L99.71004557291666,104.1662980888082L100.05734375,104.46168816629103L100.13123697916666,104.82609605420737L100.181484375,104.62054894878663L101.56772135416666,103.63503382663525L101.98004557291667,103.18805601215354L102.1233984375,103.83118222912L102.20615885416667,103.78395889257163L102.22093749999999,102.52357720785993L102.28891927083333,102.09773653252847L102.39828125000001,102.51751685654835L102.58744791666668,102.76055778452987L102.70124348958333,102.69066393789508L102.92883463541666,103.09841856683283L103.03376302083333,103.56797727833138L103.17711588541667,104.15500909595279L103.38106119791667,104.33034341363023L103.48746744791666,104.21158179953994L103.69584635416666,104.04485827867686L104.14068359375,103.73138381444552L104.19388671875,103.12693577391006L104.56926432291667,102.73328196924632L104.68305989583334,103.49680888595806L104.68897135416665,103.71784958827135L104.71852864583333,103.77096235671694L105.54908854166666,103.7569144164998L105.82840494791667,103.38474002030433L106.00279296875,103.91919499554663L106.24072916666667,103.61325845053743L106.27619791666666,102.46749794639277L106.48162109375,101.84411746993533L106.93384765625001,101.50181083657816L107.26341145833332,101.84642236655671L107.34173828125,101.84078865262829L107.50134765625,101.59837740100183L107.64322265625,101.22734363817436L108.05406901041667,101.0402427970842L108.15751953125,100.93420431283033L108.46048177083333,100.65724410882004L108.50777343749999,100.98021287975621L108.79595703125,101.02700693268967L108.88315104166666,100.90921817123888L108.95556640625,99.95893839956955L109.19645833333334,100.77412410506714L109.5895703125,100.49657817183314L110.006328125,99.78920160464983L110.30781250000001,99.5362303078212L110.38613932291666,99.0289765952209L111.15167317708332,99.02349654933518L111.5935546875,98.37341962167439L111.59651041666666,98.60144413677968L111.66301432291667,98.09011790491988L111.7354296875,98.22931065988244L111.84479166666667,98.62108982116692L112.12854166666666,98.25714277086841L112.27780598958334,97.10493133469066L112.33692057291665,97.05904047394888L112.35908854166667,97.12283244928126L113.26501953125,96.14238159071677L113.38916015625,95.52899570437236L113.70542317708333,95.2690989748442L113.83990885416667,95.53652430463251L114.06158854166667,95.40862471507836L114.29952473958333,94.60764008447961L114.73992838541666,94.26639880330438L114.74140625,93.97129954797394L114.76652994791667,93.08123209317655L114.86111328125,92.961017974768L114.99116536458334,92.36205254092756L115.03254557291667,92.41784444592572L115.03993489583333,93.14488102406042L115.08870442708334,93.52818269438167L115.15520833333333,93.17269681130713L115.42122395833333,92.88041576654005L116.31533203125001,93.29418668988606L116.89465494791666,93.26531347544291L116.93751302083332,93.34592985517135L117.08086588541667,93.24751868783603L117.36313802083333,93.20772420541607L117.75920572916667,92.89534667123812L117.80354166666666,92.86512450411429L118.22768880208334,93.33573705370287L118.39912109375,93.3655639165144L119.21490234375,93.00119786577206L119.35086588541667,92.25289342010393L119.95087890625001,92.15416657809354L120.11935546875,92.79392889755691L120.15482421875,92.83066953052851L120.28192057291668,92.79836678202112L120.2833984375,93.12832271745536L120.48734375000001,92.54782567298257L120.505078125,92.06108003750249L120.88784505208334,92.43157714738861L122.41595703125,92.5105870462861L122.49428385416667,91.82089765983932L122.83567057291667,91.65446883135539L122.86818359374999,91.10771513003803L123.342578125,91.09283282157969L123.41942708333333,91.20364044851263L123.58494791666666,91.25962015366137L123.79628255208334,90.51299904738615L123.89234375,90.7008980062839L124.41255208333332,91.11187354656458L124.47018880208334,90.72849585099904L124.47166666666666,90.79930535680822L124.50270182291666,90.21135209385467L124.73916015625,90.06586177083285L125.17217447916666,88.80252275284049L125.40124348958334,88.06376763664736L126.28500651041668,87.81423462298261L126.45348307291667,88.28256968341161L126.48895182291666,88.00562521507047L127.44069661458333,88.00829848901797L127.59143880208333,87.85281239011617L128.733828125,87.64599706019547L129.11807291666668,87.15765587690319L129.159453125,87.74545278921286L129.28507161458333,88.02858080574613L129.40921223958333,88.0993562478988L129.66636067708333,88.02024732765437L129.86291666666668,87.22847827670711L129.92055338541667,86.67629238085458L129.98705729166667,86.40761484731458L130.7466796875,86.08836756712857L130.83682942708333,84.55299387859753L130.86047526041668,84.97937346801051L130.94471354166666,84.70640487120946L131.29496744791666,84.49341779317942L131.47231119791667,84.47571237749783L131.55654947916668,84.40446500338442L131.801875,84.30363498031869L132.59253255208333,84.88317489137773L132.83638020833334,84.37846251587634L133.00633463541666,84.13893444610687L133.23983723958335,84.58258361513255L134.01276041666665,85.1176349127102L134.21227213541667,84.56584301234827L135.18470703124999,83.72629280202253L135.85122395833332,84.323842499093L135.92216145833333,83.90724518100188L136.04186848958332,82.6025547538108L136.08768229166668,82.35054359661153L136.7157747395833,81.71190685058673L136.83991536458333,81.29804287007352L137.22859375000002,80.96880960579342L137.3601236979167,80.32805364521408L138.22467447916668,80.24516305341994L138.89858072916667,80.54216095262342L139.2266666666667,81.35453860736108L139.38184244791665,80.26086883753405L140.15919921875002,79.22779047650792L140.42817057291666,79.4590796106753L140.65723958333334,78.90694437688052L140.9262109375,78.07915334828336L140.94690104166668,77.96671528618229L141.18335937499998,78.90891591665498L141.53656901041666,79.18818341589856L141.70208984374997,80.17467757430872L141.9370703125,80.51090583960512L142.62871093750002,80.66668173291733L142.76171875,80.36086015053468L143.00408854166668,80.3400582263903L143.25089192708333,79.16882513102401L143.30705078124998,78.23489432246704L143.68538411458331,78.13046540158398L143.8346484375,78.09737340688012L143.94253255208332,78.40650538437393L144.09918619791668,78.22361905048197L144.22923828125,78.9183764636156L144.23810546875,77.96172063543587L145.01250651041667,78.58712811734684L145.30955729166666,79.31341814652123L145.98346354166668,79.39333769550545L146.17854166666666,79.72322267595493L146.5834765625,79.07628677199581L146.71796223958333,78.98180014025077L146.82584635416666,78.97067978531659L147.46428385416667,78.43872260223948L147.68152994791666,78.09220829656097L147.70813151041665,77.5611067850867L147.74951171875,77.71216940203257L147.83374999999998,77.48457178001114L148.0376953125,77.69055494291912L148.93623697916667,77.52344831226357L148.986484375,77.30868870830993L149.04707682291667,76.9695812011153L149.38698567708335,76.23546114918558L149.92049479166664,75.7039832160852L150.1835546875,75.62641728084031L150.32838541666666,76.05643180275628L150.34611979166667,75.38441163384428L150.43774739583336,75.2442687659144L150.52641927083334,74.79431063932294L150.85007161458333,74.96862105266338L151.185546875,74.78708849285158L151.4515625,74.4281040753846L151.50180989583333,73.50010048602796L152.1151236979167,73.86115577833425L152.35897135416664,73.18741321186447L152.60725260416666,73.3755838224962L152.66784505208332,73.78982089479202L153.37426432291664,73.851375737131L153.56047526041667,74.33167566341791L153.76146484375,74.05393423343973L154.06442708333333,74.80462035555031L154.09398437500002,74.55953616090436L154.129453125,74.12575584026848L154.13684244791665,73.36677116533254L154.44719401041667,73.22977018516292L154.96149088541665,73.19597498482844L155.01912760416664,71.95366242952741L155.44327473958333,71.78147516384739L155.61766276041666,71.5370009429172L155.76840494791665,70.92425539408002L156.0625,71.0455855364902L156.21324218750001,72.1589559601139L156.47186848958333,71.6414041141025L156.51768229166666,72.11038870269226L157.179765625,71.27034415060484L157.36449869791667,71.43802280372617L158.33693359375,71.18012393244446L159.19113932291665,71.07372517556365L159.42759765625001,70.9407560670982L160.13401692708334,71.3294560285702L160.20199869791668,71.773317243895L160.23598958333332,71.99931222405095L160.25815755208333,70.93605145619131L160.34239583333334,71.14973040148126L160.47540364583332,71.12028861133312L160.74585286458333,70.72219156838163L161.32665364583332,70.51319769563437L161.43305989583334,70.31962224425274L162.82520833333334,70.5260549061911L162.83850911458333,70.97030452920835L163.24787760416666,71.06138487174205L163.31290364583333,71.18358445274966L163.46512369791668,70.9571635074747L163.80798828125,71.25622556581814L164.1405078125,71.65913710014543L164.89569661458336,71.61194214013086L165.28585286458332,71.52521667611778L165.3464453125,71.21736546305145L165.95828125,71.27921414401904L166.082421875,70.81338165007168L166.50952473958336,70.64158041688269L166.720859375,69.58586839792169L166.8568229166667,69.31405996722042L166.92776041666667,69.70854317504384L167.10510416666665,70.09877692572128L167.19673177083334,70.05324582405822L168.27409505208334,70.12741840074331L168.47804036458334,71.5272049697599L168.5741015625,70.85811515460207L169.64407552083333,71.0112013664146L169.6972786458333,71.1580300934095L169.71353515625,70.9085196977049L169.75639322916666,71.19886943247988L169.83176432291668,70.2785080574137L170.95494140625001,70.01381719485414L171.10272786458333,69.00127070264145L172.58650390625002,69.74834817783186L172.81113932291666,70.14415540550321L173.28848958333333,69.45492537631651L173.30474609375,70.65998113413939L173.59145182291667,70.86003415708909L173.60327473958333,71.11601085501655L173.62544270833334,71.03362283769671L174.1973763020833,71.09624634938157L174.35994140625,70.87705069171614L175.27621744791668,70.54551607708997L175.47868489583334,70.06158662847189L175.79051432291666,70.44819501107925L176.06244140625,70.15351187360768L176.09495442708334,70.506288527156L176.1259895833333,70.73579035625858L176.40973958333333,71.82181075245092L176.4304296875,71.35356149538762L176.758515625,71.63757267539432L176.97280598958335,71.68455404421852L177.27724609375,71.20086568525122L177.36000651041667,70.76604900308972L177.81075520833335,70.96052364823528L178.45362630208334,71.20036702204813L178.97383463541667,72.33144679711604L179.418671875,74.05591007194987L179.42162760416664,74.27439292839126L179.53246744791667,74.8682215332794L179.61670572916665,75.71196472086054L180.52263671875,76.05246711241085L180.64382161458332,76.97640790116976L180.65416666666667,76.8324432474164L180.98964192708334,77.49132960449295L182.55174479166666,77.88268812131638L182.7261328125,79.00526305918474L182.85322916666667,79.63291857144809L182.89904296875,80.10629148703055L183.02466145833333,79.8228185883275L183.25668619791668,80.19267394540383L183.26407552083333,80.434579846318L183.45767578125,80.35260197532257L183.83748697916667,81.6103446186994L184.30153645833335,81.08540191819309L184.52912760416666,80.50891570364651L184.56459635416667,80.06751561055458L185.06115885416665,80.90769671995363L185.84294921875,80.18958045704919L186.08531901041667,80.94419059316245L186.12374348958335,80.78057835202803L186.19468098958333,81.05269665318886L186.2907421875,81.34788721514269L186.41192708333332,81.2625757663557L186.45478515624998,81.33262500790194L186.849375,80.98937387074811L187.4966796875,81.1923398927642L188.05531249999999,81.41221953985139L188.25777994791665,81.67397201768443L188.41738932291668,80.83950379318873L188.5681315104167,80.64864716386984L189.33809895833335,81.00687051566467L189.37800130208333,80.95817494137093L189.51692057291666,81.26533187905201L189.8080598958333,81.03440664569227L190.43024088541665,81.05184666294123L190.61054036458333,81.20180120119255L190.71842447916669,80.1997867060733L191.09675781250002,81.14998701273869L191.38346354166666,80.89238035691938L191.69381510416667,80.16423038940924L191.93766276041666,81.12301473683196L192.19037760416666,80.28279849042148L192.27018229166666,79.9670925050157L192.53767578125,79.85342018633231L192.80516927083335,80.74824862224455L192.98546875000002,80.5152277372928L193.66972005208333,80.92903166810898L193.72144531249998,80.33650350129807L193.78055989583333,80.77572246935007L193.889921875,80.79740874514235L194.45594401041666,80.32715934790085L194.62146484375,80.1186479585653L194.92294921875,79.81282009452694L195.44906901041665,80.3692738805288L195.486015625,79.63153484474863L195.65005859375,79.93005749663739L195.84218098958334,79.41077617879185L196.0003125,77.79940964045811L196.0801171875,77.39966469913958L196.16139973958332,77.6141385701347L196.4761848958333,77.25197840630304L196.99787109375,76.99095102021819L197.03629557291666,76.35123944092364L197.12348958333334,76.07921492864946L197.60527343750002,76.24269968578452L197.614140625,75.61043255811515L198.25110026041668,75.05542140457636L198.358984375,75.97347017320963L198.64716796875,75.9468958831614L198.82303385416668,75.94460118120891L198.83042317708333,76.19496208581528L199.11712890625,75.70072155905194L199.17919921875,76.362657925874L199.23092447916665,76.10055406510477L199.3195963541667,76.1296577495034L199.59300130208334,76.07685475864395L199.70531901041667,75.49006033391592L199.7688671875,74.36082418688795L200.36888020833334,73.9368582454719L200.75608072916665,74.42218662547015L200.80337239583332,74.29177762201404L201.09746744791667,73.33305610981263L201.19352864583334,71.68431669201318L202.09798177083331,70.09787167053912L202.38320963541668,69.33286575348521L202.90046223958333,68.78616156450032L203.36155598958334,67.82296586259574L203.79604817708335,66.79362183315433L203.88619791666667,65.73496504756618L204.05319661458336,65.92266740644591L204.3709375,64.62471202943769L204.50246744791667,64.04296525831211L204.58375,63.664211346117256L204.75518229166667,64.16408282514189L204.885234375,63.22507028126405L204.98868489583333,63.244895639501294L205.41430989583336,63.153119143732994L205.81185546875,62.7607702975415L206.49315104166666,61.816818267787355L206.62763671875,60.91949155464498L206.83305989583334,60.50260489918048L207.5542578125,59.82620520471697L207.73012369791667,59.140963377427084L208.09220052083333,58.86165198286619L208.10697916666666,57.891762352761376L208.19712890625,58.4660378220307L208.29466796875002,58.190861028463985L208.67004557291665,58.963013561981214L208.68334635416667,58.354034080783094L209.17990885416665,58.15296305906841L209.25971354166668,57.469510219070685L209.886328125,57.250741867618146L210.18633463541667,57.146875919492686L210.29717447916667,57.040322702543406L210.36515624999998,56.54672793228907L210.46860677083336,56.410683832241986L210.5764908854167,56.814718574017775L210.77600260416665,55.87599188707054L210.84102864583335,55.15031116427258L210.86763020833334,54.14571271829985L211.01098307291667,54.348377241924425L211.70853515624998,54.04000258591378L212.09573567708335,53.28124664550421L213.04748046875,53.582375674135605L213.55586588541667,54.08424606126749L214.14996744791668,54.14723338695893L214.26967447916667,53.88305919599031L214.67313151041668,54.90698054911856L214.90220052083333,54.46279385784307L215.93522786458334,54.953054244786046L216.43031249999999,53.845488308943814L216.61208984375,53.51293180759487L216.81751302083333,52.5956394791081L217.13820963541667,52.27538121301548L217.52541015625,52.327672637168476L217.76777994791667,51.67779741890615L217.7869921875,50.97977051792465L218.83775390625,51.49299517067762L219.02839843750002,49.87841582406442L219.1599283854167,49.96519441211251L219.24564453125,50.01513605044671L219.75698567708332,50.22405994540202L220.13827473958335,50.66185253040727L220.39098958333335,50.542465288730185L220.88902994791667,50.67648097576627L221.129921875,50.13691526455328L221.27031901041664,49.42648595400705L221.30726562499999,50.037664915424514L221.35012369791667,50.21064558297297L222.00481770833335,50.25520034285749L223.92604166666666,49.685806160844464L224.42555989583335,49.09128776066912L224.86005208333333,48.39244591642037L225.09798828125,48.81336979068743L225.1112890625,48.234239061618695L225.31375651041668,48.25619015545681L225.69356770833332,48.377922276274774L226.2462890625,48.33215362819274L226.57141927083336,47.92484337900984L226.9201953125,48.54393290474522L227.67242838541665,48.04806404608888L228.24288411458335,48.32396218693455L228.5192447916667,48.14586142278654L228.54732421875,47.85171448505335L228.69215494791666,48.010776559275314L229.12221354166667,48.057588107893224L229.20940755208332,47.775788388012984L229.29807942708334,47.97527858330258L229.5094140625,47.9028964636087L230.43899088541667,47.594276987702386L231.61389322916668,47.81091264120485L231.86365234375,47.55086399072073L232.44297526041666,47.84726708028501L232.479921875,47.670524179074704L232.57893880208334,47.66069874980357L233.04446614583335,47.45506907368687L233.40654296875,47.4810195526818L233.69620442708333,46.64285765423182L234.80164713541666,45.81625370699044L235.32037760416668,45.88829523970048L235.41200520833334,45.588648386184985L236.04009765625,44.77172445665741L236.07852213541668,45.02266451099166L236.23960937500001,44.19998669625613L236.30759114583333,43.48084683344871L236.71548177083332,43.56173459328565L237.13667317708334,44.48388215668433L237.20613281250002,44.95076382737955L237.34357421875,45.172737444641626L237.3686979166667,45.66778188199564L237.81944661458334,45.3957176142506L238.03078125000002,45.023087898280096L238.89237630208333,45.239840472088474L239.57071614583333,44.65601722033418L239.93279296875002,45.032170043755315L240.20472005208333,43.86811838028885L240.5047265625,43.812174724078176L240.61852213541667,42.95873821757945L240.744140625,43.10787746400331L241.02050130208332,43.11744852442118L241.169765625,43.353899694706314L241.72100911458332,43.025548361599306L241.78603515625002,43.43898755953032L241.9752018229167,43.53763795130453L241.98259114583334,44.100099440264984L242.13776692708333,44.25382330305666L243.97475260416667,44.389057165932826L244.05307942708333,44.428402301612266L244.17130859375,44.54180354872375L244.3826432291667,44.138509557487765L244.69003906249998,44.32756371537536L244.97083333333333,44.497712457474194L245.33438802083336,44.57949320036312L245.426015625,43.81978791441773L245.49399739583333,43.08783071388504L245.59597005208335,42.94201724476926L245.63735026041667,42.99683625892868L245.7999153645833,42.10319581485402L246.56101562499998,42.53952850609588L247.76399739583334,42.352452360031776L248.06548177083334,42.463663374028584L248.55465494791667,42.11672771844391L248.61524739583334,41.842248980690414L249.03791666666666,42.34344538943958L249.09998697916666,42.3901877823138L249.58916015625002,42.41319826544603L249.611328125,43.17157531390143L249.89655598958333,43.48854931660222L250.23794270833335,43.15980688494196L250.39459635416665,43.19329949190234L251.48082682291667,42.45962749725754L251.59757812499998,42.04576503162272L252.45178385416668,42.61299790346047L252.67494140624999,43.10505322675078L252.72962239583333,42.461615801802964L253.31190104166666,42.824946551168125L253.41682942708334,42.26991098696041L253.67545572916666,42.59911108144618L253.68284505208334,42.602184632392465L253.84245442708334,43.31601815778956L253.97250651041665,43.65077997837426L254.61685546874997,43.52153323053682L255.42968098958332,42.76509468021044L255.70456380208333,42.53942129173484L256.3001432291667,41.81119848074317L256.4109830729167,41.465195962214324L256.63857421875,41.65407011599288L256.6769986979167,41.69879918393903L257.6183984375,41.391039151908785L257.8519010416667,41.43798523671791L257.85337890625,40.7268301789552L257.85633463541666,41.04485341105968L257.85929036458333,41.74093994495374L257.86224609375,41.35917151864018L257.8637239583333,41.4233336281398L257.86815755208335,41.097411913053094L257.86963541666665,40.1595408922023L257.87111328125,40.758610382527536L257.8725911458333,41.083612980638435L257.8770247395833,40.61219940984731L257.87850260416667,40.593216968862606L257.88145833333334,40.25014101061271L257.8903255208333,40.01996668227872L257.89475911458334,39.529660070869L257.8991927083333,39.336284688782115L257.9006705729167,39.33472127672209L257.90658203125,39.7366931831408L257.91544921875,40.06980596709943L257.91840494791666,39.784250370389486L257.9257942708333,39.039947208350526L257.9346614583333,38.677360442060944L257.94057291666667,39.7857380342185L257.94352864583334,40.42274093534209L257.95091796875,40.714905194080615L257.95387369791666,39.96648910649071L257.9553515625,40.0824754231144L257.95830729166664,39.36315941489386L257.96421875,40.01119375749536L257.97013020833333,40.52100989310944L257.97160807291664,40.550317710616724L257.97751953125,41.01014361000961L257.9834309895833,41.016786351281326L257.98786458333336,41.116695500244134L257.9967317708333,41.27454754112881L257.99820963541663,40.16801011656142L258.00116536458336,39.93347785490525L258.0100325520833,39.76866018305111L258.01594401041666,40.592416323836886L258.02185546875,40.81426162327142L258.0248111979167,41.044696256398794L258.0262890625,41.14432861939531L258.02776692708335,41.0534778597285L258.0322005208333,40.67357780102839L258.0336783854167,40.59611178228917L258.04106770833334,39.75659321769663L258.0440234375,40.49149724819969L258.04993489583336,39.937544398379714L258.05141276041667,40.01820927672358L258.052890625,39.8439127808694L258.05436848958334,39.55681013914611L258.0558463541667,39.650909238867854L258.05732421875,39.72599416725379L258.0588020833333,39.07993878461929L258.0617578125,38.26672956524828L258.070625,38.484355756450725L258.07505859375,39.17149489671476L258.08392578125,39.22206188431599L258.08983723958335,38.961895184520756" style="fill: none;" fill="none"></path></g></g></g></g><g opacity="0.2"><g><g><g><path stroke="rgb(255, 112, 67)" stroke-width="2px" d="M29.879466145833334,156.7656818181818L29.911979166666665,156.86122159090908L30.065677083333334,155.4834375L30.124791666666667,156.90144886363638L30.130703125,156.38352272727272L30.166171875,156.40866477272726L30.19720703125,156.46397727272728L30.225286458333333,156.6500284090909L30.368639322916668,156.61482954545454L30.96421875,155.9435369318182L31.109049479166668,155.12139204545454L31.154863281249998,155.69965909090908L31.194765625000002,156.42374999999998L31.20954427083333,156.4187215909091L31.21693359375,157.05732954545454L31.485904947916666,155.27224431818183L31.487382812499998,156.2578125L31.506595052083334,154.47272727272727L31.524329427083334,155.3778409090909L31.5671875,155.87565340909092L31.84354817708333,155.206875L31.87606119791667,154.543125L31.958821614583336,154.1509090909091L31.980989583333333,154.0402840909091L32.06818359375,154.46267045454545L32.080006510416666,152.86363636363637L32.15389973958334,155.3828693181818L32.1790234375,153.9346875L32.39479166666666,153.30110795454544L32.578046875,153.50224431818182L32.67854166666667,153.06980113636365L32.6933203125,153.105L32.82928385416667,153.51732954545454L33.13520182291666,153.71846590909092L33.244563802083334,152.96420454545455L33.31106770833334,152.78318181818182L33.582994791666664,152.0440056818182L33.77216145833333,151.35008522727273L33.8460546875,150.3896590909091L33.96280598958333,150.8874715909091L34.03965494791667,149.65551136363638L34.14162760416667,151.5612784090909L34.17118489583333,150.03767045454546L34.47119140625,149.10238636363636L34.52291666666667,149.08227272727274L34.539173177083335,149.37894886363637L34.685481770833334,148.20230113636364L34.74902994791667,149.08227272727274L35.15692057291667,146.8546875L35.279583333333335,147.76985795454544L35.36382161458333,146.33676136363636L35.36677734375,149.64545454545456L35.45397135416667,147.38267045454546L35.628359374999995,145.70821022727273L35.66826171875,146.49767045454544L35.858906250000004,146.33173295454546L36.293398437499995,145.18022727272728L36.34216796875,143.23926136363636L36.35399088541667,145.4769034090909L36.40719401041667,144.52653409090908L36.43675130208333,143.54096590909091L36.46630859375,145.79872159090908L36.575670572916664,145.471875L36.62739583333333,143.1537784090909L36.63330729166667,144.03877840909092L36.948092447916665,142.35928977272727L37.381106770833334,142.61071022727273L37.48307942708333,141.56480113636363L37.6412109375,142.68110795454544L37.74318359375,142.39951704545456L37.97668619791667,140.26244318181818L37.99294270833333,138.0046875L38.046145833333334,138.95002840909092L38.272259114583335,140.50380681818183L38.29442708333333,137.6275568181818L38.34615234375,138.70363636363635L38.39196614583333,139.5986931818182L38.669804687500005,139.07071022727274L39.24912760416667,140.34792613636364L39.58016927083333,137.93931818181818L39.6274609375,134.15292613636365L39.69248697916667,134.00207386363635L39.71022135416667,134.58536931818182L39.83731770833334,134.0272159090909L39.965891927083334,136.58667613636362L40.298411458333334,132.50360795454546L40.4964453125,136.85821022727274L40.741770833333334,133.1874715909091L41.08020182291666,135.25917613636364L41.158528645833336,133.2528409090909L41.48513671875,134.55519886363635L41.4895703125,135.7972159090909L41.74376302083333,134.65576704545455L41.82208984375,132.0912784090909L41.98908854166667,131.1509659090909L42.011256510416665,132.1365340909091L42.04968098958334,134.16298295454544L42.277272135416666,134.01213068181818L42.61422526041667,134.45463068181817L42.645260416666666,131.84488636363636L42.65856119791667,135.48545454545456L42.815214843750006,135.93801136363635L42.852161458333335,131.56329545454545L42.85955078125,132.54383522727272L43.29256510416666,129.83855113636363L43.533457031249995,132.17173295454546L43.71966796875,129.67764204545455L43.89405598958333,135.0328977272727L44.046276041666665,135.54076704545454L44.21327473958333,134.04230113636362L44.217708333333334,130.43190340909092L44.454166666666666,130.3765909090909L44.84432291666666,127.96295454545455L45.01575520833333,130.33133522727272L45.11625,133.93670454545455L45.256647135416664,127.06789772727274L45.43251302083333,126.11250000000001L45.547786458333334,131.16605113636365L45.587688802083335,125.39846590909092L45.84040364583333,128.03335227272726L45.961588541666664,126.62539772727273L46.21578125,121.60201704545455L46.22908203125,122.3462215909091L46.27637369791667,127.65622159090908L47.27688802083333,123.98045454545453L47.74241536458334,119.95772727272728L47.975917968750004,125.16715909090908L47.99365234375,125.26269886363636L48.095625,123.11556818181819L48.16065104166667,129.56701704545455L48.36459635416667,122.4065625L49.22323567708333,121.0740340909091L49.36215494791667,124.65928977272728L49.372499999999995,120.97849431818182L49.472994791666665,115.48244318181818L49.775957031249995,125.73536931818182L50.27104166666666,127.64113636363636L50.29764322916667,124.05085227272727L50.4631640625,122.71832386363636L50.48828776041666,120.63153409090908L51.018841145833335,124.81517045454547L51.240520833333335,124.12627840909092L51.24938802083333,131.27164772727272L51.917382812499994,122.28085227272727L52.167141927083335,129.7731818181818L52.177486979166666,125.0615625L52.233645833333334,129.1094318181818L52.37256510416667,124.38272727272727L52.575032552083336,128.90829545454545L53.285885416666666,128.41551136363637L53.66126302083333,125.52920454545455L53.73367838541667,127.01761363636363L53.95535807291667,121.61710227272727L54.005605468750005,122.88426136363637L54.3647265625,125.24761363636364L54.395761718749995,117.51894886363635L54.63369791666666,118.24303977272727L54.83025390625,121.44110795454546L54.923359375,115.67855113636364L55.06227864583333,121.21985795454546L55.207109374999995,122.10485795454545L55.385930989583336,125.0615625L55.464257812499994,123.43738636363636L55.74357421875,118.65034090909091L55.7834765625,117.81562500000001L55.85145833333333,120.88798295454546L56.148509114583334,119.18335227272726L56.21057942708333,125.66497159090909L56.63916015625,119.19843750000001L56.786946614583336,116.03053977272727L56.817981770833335,117.8709375L57.12389973958334,120.88295454545455L57.43572916666667,119.21855113636363L57.59681640625,114.19014204545454L57.725390625,118.16761363636363L57.75790364583333,111.42451704545455L57.77120442708333,113.31519886363637L57.78893880208334,116.43784090909091L57.79189453125,119.14815340909091L57.83770833333333,113.53644886363637L58.08598958333333,117.71505681818181L58.16579427083333,118.44417613636364L58.25151041666666,119.77670454545455L58.637233072916665,117.63963068181818L58.700781250000006,121.41596590909091L58.821966145833336,121.1846590909091L59.327395833333334,124.64420454545456L59.528385416666666,119.34928977272727L59.822480468749994,119.59568181818182L59.860904947916666,113.86329545454547L60.17569010416667,116.48309659090908L60.228893229166665,118.02681818181819L60.314609375,114.18008522727273L60.52298828125,117.75025568181819L61.58557291666666,114.97960227272728L61.960950520833336,117.90613636363636L61.96242838541667,105.71224431818182L62.144205729166664,111.38428977272727L62.16194010416667,107.65321022727272L62.203320312500004,110.58980113636363L62.43682291666667,106.71792613636363L62.51958333333333,107.81914772727272L62.688059895833334,108.92036931818181L62.849147135416665,108.82482954545455L62.88166015625,112.10838068181818L63.15506510416667,120.21417613636365L63.51714192708333,118.26818181818182L63.9235546875,108.62369318181818L64.03439453125,104.60599431818181L64.08168619791667,106.07931818181818L64.14227864583333,106.04914772727273L64.14819010416666,108.01022727272728L64.16592447916666,121.41093749999999L64.23538411458334,113.611875L64.36100260416666,111.79661931818181L64.48957682291666,120.22423295454546L64.85608723958333,119.39454545454547L64.91963541666667,117.51392045454546L64.92259114583334,112.20894886363637L64.93736979166667,118.19275568181818L65.06003255208333,113.94375L65.10732421875,113.79289772727273L65.92014973958334,119.82698863636364L66.05463541666667,113.95883522727273L66.26892578124999,110.66019886363637L66.31030598958334,107.27607954545455L66.40341145833334,116.27693181818182L66.45365885416668,112.6765909090909L66.51720703125,115.9903125L66.74923177083333,112.35980113636364L67.22067057291666,115.603125L67.5058984375,101.81522727272728L67.54284505208334,117.35301136363637L67.60934895833334,109.92605113636364L67.66994140625,117.18204545454546L68.07044270833333,117.74522727272728L68.43843098958334,121.28522727272727L68.51380208333333,118.50954545454545L68.65715494791667,111.37423295454545L68.72809244791667,106.46147727272728L68.86257812500001,112.41008522727273L68.92021484375,115.17571022727273L69.03548828125,108.49798295454545L69.50692708333334,111.69102272727272L69.55717447916666,108.87511363636364L69.68574869791667,102.08173295454546L70.04634765624999,105.94857954545455L70.08329427083333,106.92911931818182L70.35078776041667,110.1221590909091L70.458671875,111.77147727272727L70.47936197916667,110.02661931818182L70.81188151041667,108.66894886363636L70.82961588541667,113.16434659090909L70.93454427083333,109.32767045454545L71.07198567708333,110.49426136363637L71.11484374999999,103.51482954545455L71.3542578125,110.05176136363636L71.89072265624999,110.0668465909091L71.96313802083333,104.3746875L72.19220703124999,106.94923295454545L72.27348958333333,110.94178977272728L72.43162109375,107.55264204545455L72.48630208333333,111.86701704545455L72.58531901041667,103.97744318181819L72.6311328125,108.33204545454545L72.6666015625,112.6112215909091L72.79222005208332,109.8556534090909L73.00946614583333,107.23585227272727L73.04050130208333,116.63897727272727L73.34641927083332,110.13724431818181L73.367109375,118.62017045454544L73.3759765625,114.97457386363637L73.45578125,107.2459090909091L74.00406901041667,108.3521590909091L74.23609375000001,111.75136363636364L74.484375,107.92474431818182L74.71639973958334,106.23519886363637L74.90113281250001,106.66764204545454L74.9720703125,113.90352272727273L75.19670572916667,116.30207386363637L75.20705078125,110.04673295454545L75.33858072916668,109.26230113636363L75.45533203125001,102.95667613636364L75.62528645833333,109.8455965909091L75.885390625,110.36352272727272L76.169140625,101.34255681818182L76.417421875,115.61821022727273L76.85043619791666,115.34164772727273L77.37951171875,111.29880681818182L77.49182942708333,100.4424715909091L77.68986328125,107.22579545454545L77.86277343750001,105.9737215909091L77.96326822916666,106.9240909090909L78.30317708333332,103.49471590909091L78.41549479166667,110.00147727272727L78.50121093749999,97.70198863636364L78.78939453125001,104.85238636363637L78.8825,108.51306818181818L79.08496744791665,108.3521590909091L79.503203125,119.06267045454545L79.72931640625,105.18426136363637L79.73375,107.68840909090909L79.78104166666667,114.91926136363637L80.02193359375,103.61036931818182L80.21848958333334,99.87426136363636L80.709140625,104.83227272727272L80.72244140625,108.87008522727272L80.7534765625,106.32571022727272L80.83180338541668,108.32198863636364L81.04904947916667,110.93173295454545L81.26925130208333,106.90900568181819L81.38452473958333,101.6090625L81.46876302083334,109.17178977272727L81.89734375,116.52332386363636L81.94759114583334,117.93127840909091L81.96384765625,113.45096590909091L82.0126171875,114.89411931818182L82.38799479166667,102.48903409090909L82.45006510416667,100.36201704545455L82.78701822916666,99.37644886363637L83.20377604166666,111.0121875L83.41511067708332,112.18883522727273L83.88211588541667,100.98553977272728L83.92349609375,113.19954545454544L84.078671875,109.59920454545454L84.36389973958335,101.36769886363636L84.46143880208334,106.79335227272728L84.52942057291666,105.25465909090909L84.68902994791667,104.46017045454545L84.717109375,100.42738636363636L84.77474609375,102.57451704545454L84.84568359375,111.80667613636363L85.0540625,105.95863636363636L85.35406901041667,101.92082386363636L85.62008463541666,104.86747159090909L85.79742838541668,109.32767045454545L85.81072916666668,107.45710227272727L85.81811848958333,103.9321875L85.84472005208335,112.7821875L86.064921875,106.45644886363637L86.135859375,108.26667613636364L86.25408854166666,103.64556818181818L86.61764322916667,106.66261363636363L86.62651041666668,110.89150568181819L87.14967447916668,114.52704545454546L87.40534505208333,100.2865909090909L87.60633463541667,115.85957386363637L87.68909505208333,103.80144886363637L87.69796223958333,108.06553977272728L88.18861328125,110.89904829545455L88.28615234374999,106.21005681818181L88.44132812500001,109.2421875L88.55364583333333,111.620625L88.57433593750001,108.55832386363636L88.86399739583334,113.65210227272726L88.96449218750001,107.06488636363636L89.505390625,106.49164772727272L89.59849609375,116.32721590909091L89.64430989583333,115.20085227272727L89.80244140625,112.4503125L89.83052083333332,115.37684659090908L90.04776692708333,112.47545454545454L90.32708333333333,113.84821022727272L90.36402994791668,119.72139204545454L90.37585286458332,105.35522727272728L91.0748828125,115.75900568181818L91.44582682291667,115.07514204545456L91.59065755208333,116.24173295454545L91.81529296875,117.9815625L91.85076171875,110.51940340909091L92.27934244791666,111.3440625L92.49954427083333,111.58039772727273L92.52614583333333,113.70238636363636L92.72861328125,115.91488636363637L93.07295572916667,109.09133522727272L93.45572265625,115.13548295454547L93.48823567708334,114.80863636363637L93.94489583333333,117.74522727272728L93.96263020833334,111.4496590909091L93.96706380208333,112.87772727272728L94.63062500000001,110.78088068181818L94.67052734375,118.34863636363636L95.03999348958332,112.11340909090909L95.322265625,116.98090909090908L95.53507812500001,112.03295454545454L95.54690104166666,105.28985795454545L96.4129296875,103.19301136363636L96.67598958333333,102.04150568181818L96.78978515625,106.02400568181818L97.10900390625,107.21071022727273L97.13708333333334,109.8556534090909L97.19767578125,101.19170454545454L97.45630208333333,98.24505681818182L97.49472656249999,107.1352840909091L97.79473307291667,110.52946022727272L97.81246744791666,103.77630681818182L97.83906901041667,108.53821022727273L98.52627604166666,108.73431818181818L98.65485026041667,99.894375L99.45585286458333,101.04085227272728L99.5253125,108.96059659090909L99.55782552083333,97.11869318181819L99.67014322916667,96.59573863636363L99.70265625,98.94400568181818L99.71004557291666,103.08741477272727L100.05734375,107.12019886363636L100.13123697916666,108.10576704545454L100.181484375,102.770625L101.56772135416666,94.76539772727273L101.98004557291667,99.16525568181818L102.1233984375,109.61931818181819L102.20615885416667,103.35894886363636L102.22093749999999,91.18014204545455L102.28891927083333,98.26517045454545L102.39828125000001,106.29553977272727L102.58744791666668,104.94792613636365L102.70124348958333,102.06161931818181L102.92883463541666,106.76821022727273L103.03376302083333,107.79400568181818L103.17711588541667,109.43829545454545L103.38106119791667,105.90835227272727L103.48746744791666,103.14272727272727L103.69584635416666,102.54434659090909L104.14068359375,100.91011363636363L104.19388671875,97.6869034090909L104.56926432291667,99.19039772727272L104.68305989583334,110.36855113636364L104.68897135416665,105.7072159090909L104.71852864583333,104.24897727272727L105.54908854166666,103.63048295454546L105.82840494791667,100.03517045454545L106.00279296875,108.72928977272728L106.24072916666667,100.85982954545455L106.27619791666666,92.1556534090909L106.48162109375,96.23369318181818L106.93384765625001,98.42105113636363L107.26341145833332,104.94792613636365L107.34173828125,101.79008522727273L107.50134765625,99.41667613636365L107.64322265625,97.88803977272727L108.05406901041667,99.35633522727272L108.15751953125,99.97985795454545L108.46048177083333,98.16460227272728L108.50777343749999,103.88693181818182L108.79595703125,101.4481534090909L108.88315104166666,99.84911931818182L108.95556640625,91.40642045454545L109.19645833333334,108.11079545454545L109.5895703125,97.99866477272727L110.006328125,93.4228125L110.30781250000001,97.25948863636364L110.38613932291666,94.46369318181819L111.15167317708332,98.97417613636364L111.5935546875,92.52272727272727L111.59651041666666,100.65366477272727L111.66301432291667,93.48818181818181L111.7354296875,99.48204545454546L111.84479166666667,102.14710227272727L112.12854166666666,94.98161931818181L112.27780598958334,86.7350284090909L112.33692057291665,96.64602272727272L112.35908854166667,97.69696022727273L113.26501953125,87.31832386363635L113.38916015625,90.00852272727273L113.70542317708333,92.93002840909091L113.83990885416667,97.94335227272727L114.06158854166667,94.25752840909091L114.29952473958333,87.39877840909091L114.73992838541666,91.19522727272727L114.74140625,91.31540625L114.76652994791667,85.07062499999999L114.86111328125,91.8790909090909L114.99116536458334,86.97136363636363L115.03254557291667,92.91997159090909L115.03993489583333,99.68821022727273L115.08870442708334,96.97789772727273L115.15520833333333,89.97332386363637L115.42122395833333,90.24988636363636L116.31533203125001,97.018125L116.89465494791666,93.00545454545454L116.93751302083332,94.07147727272728L117.08086588541667,92.36181818181818L117.36313802083333,92.84957386363637L117.75920572916667,90.08394886363637L117.80354166666666,92.593125L118.22768880208334,97.57125L118.39912109375,93.63400568181818L119.21490234375,89.72190340909091L119.35086588541667,85.51815340909091L119.95087890625001,91.265625L120.11935546875,98.55178977272728L120.15482421875,93.16133522727272L120.28192057291668,92.50764204545455L120.2833984375,96.09792613636364L120.48734375000001,87.32335227272728L120.505078125,87.68036931818182L120.88784505208334,95.76605113636364L122.41595703125,93.22167613636364L122.49428385416667,85.61369318181818L122.83567057291667,90.156609375L122.86818359374999,86.18693181818182L123.342578125,90.95889204545455L123.41942708333333,92.2009090909091L123.58494791666666,91.7634375L123.79628255208334,83.7934090909091L123.89234375,92.39198863636364L124.41255208333332,94.8106534090909L124.47018880208334,87.27809659090909L124.47166666666666,91.43659090909091L124.50270182291666,84.91977272727271L124.73916015625,88.75644886363636L125.17217447916666,77.4324715909091L125.40124348958334,81.41497159090909L126.28500651041668,85.56843749999999L126.45348307291667,92.49758522727272L126.48895182291666,85.513125L127.44069661458333,88.03235795454545L127.59143880208333,86.45343749999999L128.733828125,85.78465909090909L129.11807291666668,82.76258522727272L129.159453125,93.035625L129.28507161458333,90.57673295454545L129.40921223958333,88.73633522727273L129.66636067708333,87.30826704545454L129.86291666666668,80.10255681818181L129.92055338541667,81.70661931818182L129.98705729166667,83.98951704545453L130.7466796875,83.21514204545454L130.83682942708333,70.73463068181819L130.86047526041668,88.81678977272728L130.94471354166666,82.24968750000001L131.29496744791666,82.57653409090909L131.47231119791667,84.31636363636363L131.55654947916668,83.76323863636364L131.801875,83.39616477272727L132.59253255208333,90.09903409090909L132.83638020833334,79.83605113636364L133.00633463541666,81.9831818181818L133.23983723958335,88.57542613636363L134.01276041666665,89.93309659090909L134.21227213541667,79.5997159090909L135.18470703124999,76.1703409090909L135.85122395833332,89.70178977272727L135.92216145833333,80.15786931818182L136.04186848958332,70.86034090909092L136.08768229166668,80.08244318181818L136.7157747395833,75.96417613636363L136.83991536458333,77.57326704545454L137.22859375000002,78.00571022727271L137.3601236979167,74.56125L138.22467447916668,79.49914772727271L138.89858072916667,83.21514204545454L139.2266666666667,88.6659375L139.38184244791665,70.41784090909091L140.15919921875002,69.93008522727274L140.42817057291666,81.54068181818182L140.65723958333334,73.93772727272727L140.9262109375,70.62903409090909L140.94690104166668,76.95477272727274L141.18335937499998,87.3887215909091L141.53656901041666,81.7015909090909L141.70208984374997,89.053125L141.9370703125,83.53696022727271L142.62871093750002,82.06866477272726L142.76171875,77.60846590909091L143.00408854166668,80.15284090909091L143.25089192708333,68.62772727272727L143.30705078124998,69.82951704545455L143.68538411458331,77.19060511363637L143.8346484375,77.79954545454547L143.94253255208332,81.1886931818182L144.09918619791668,76.57764204545454L144.22923828125,85.17119318181818L144.23810546875,69.35181818181819L145.01250651041667,84.21579545454546L145.30955729166666,85.8500284090909L145.98346354166668,80.11261363636363L146.17854166666666,82.6921875L146.5834765625,73.25386363636363L146.71796223958333,78.13142045454545L146.82584635416666,78.87059659090909L147.46428385416667,73.65110795454547L147.68152994791666,74.97357954545454L147.70813151041665,72.78119318181817L147.74951171875,79.07173295454547L147.83374999999998,75.43619318181817L148.0376953125,79.54440340909092L148.93623697916667,76.01948863636363L148.986484375,75.37585227272729L149.04707682291667,73.91761363636364L149.38698567708335,69.62838068181819L149.92049479166664,70.9206818181818L150.1835546875,74.92832386363636L150.32838541666666,79.9265625L150.34611979166667,69.33623011363638L150.43774739583336,73.98298295454545L150.52641927083334,70.7446875L150.85007161458333,76.53741477272726L151.185546875,73.15329545454546L151.4515625,71.19724431818182L151.50180989583333,65.14806818181818L152.1151236979167,77.11065340909092L152.35897135416664,67.12373011363636L152.60725260416666,75.0691193181818L152.66784505208332,77.51795454545456L153.37426432291664,74.40536931818183L153.56047526041667,78.65437499999999L153.76146484375,71.55426136363637L154.06442708333333,81.56079545454546L154.09398437500002,72.35377840909092L154.129453125,70.22173295454546L154.13684244791665,66.53590909090909L154.44719401041667,71.99676136363637L154.96149088541665,72.8918181818182L155.01912760416664,60.77284943181817L155.44327473958333,70.23178977272728L155.61766276041666,69.33673295454545L155.76840494791665,65.40954545454545L156.0625,72.13755681818182L156.21324218750001,82.17928977272726L156.47186848958333,66.9834375L156.51768229166666,76.33125L157.179765625,63.70994318181819L157.36449869791667,72.94713068181818L158.33693359375,68.85903409090909L159.19113932291665,70.11613636363636L159.42759765625001,69.7440340909091L160.13401692708334,74.82775568181818L160.20199869791668,75.7680681818182L160.23598958333332,74.03326704545454L160.25815755208333,61.36670454545454L160.34239583333334,73.07284090909091L160.47540364583332,70.8553125L160.74585286458333,67.13931818181817L161.32665364583332,68.63225284090909L161.43305989583334,68.57744318181818L162.82520833333334,72.38394886363636L162.83850911458333,74.96855113636364L163.24787760416666,71.88110795454546L163.31290364583333,72.28338068181817L163.46512369791668,68.919375L163.80798828125,73.94778409090908L164.1405078125,75.2853409090909L164.89569661458336,71.18718750000001L165.28585286458332,70.7446875L165.3464453125,68.44670454545455L165.95828125,71.83585227272728L166.082421875,66.62088920454545L166.50952473958336,69.09536931818182L166.720859375,60.08446022727273L166.8568229166667,66.8677840909091L166.92776041666667,73.25889204545456L167.10510416666665,73.61088068181819L167.19673177083334,69.6434659090909L168.27409505208334,70.7949715909091L168.47804036458334,84.1252840909091L168.5741015625,64.83630681818182L169.64407552083333,72.38897727272726L169.6972786458333,72.47948863636364L169.71353515625,68.66292613636364L169.75639322916666,73.81201704545454L169.83176432291668,61.99525568181818L170.95494140625001,67.63159943181819L171.10272786458333,59.888352272727275L172.58650390625002,76.47204545454545L172.81113932291666,73.70642045454545L173.28848958333333,63.25185511363637L173.30474609375,81.50548295454544L173.59145182291667,72.66051136363636L173.60327473958333,73.41980113636363L173.62544270833334,70.29213068181818L174.1973763020833,71.65985795454546L174.35994140625,68.90428977272727L175.27621744791668,67.56170454545455L175.47868489583334,65.7062215909091L175.79051432291666,73.92767045454546L176.06244140625,67.50136363636364L176.09495442708334,73.68127840909091L176.1259895833333,72.80130681818181L176.40973958333333,81.59599431818181L176.4304296875,67.13931818181817L176.758515625,74.19367329545453L176.97280598958335,72.10738636363635L177.27724609375,66.84767045454545L177.36000651041667,66.85269886363636L177.81075520833335,72.71079545454545L178.45362630208334,73.35895738636364L178.97383463541667,82.51116477272727L179.418671875,89.57607954545455L179.42162760416664,76.24073863636364L179.53246744791667,80.21267897727273L179.61670572916665,83.30565340909092L180.52263671875,79.11698863636364L180.64382161458332,85.291875L180.65416666666667,75.53676136363636L180.98964192708334,83.42130681818182L182.55174479166666,81.40491477272728L182.7261328125,89.1084375L182.85322916666667,85.28181818181818L182.89904296875,84.36664772727273L183.02466145833333,77.27156249999999L183.25668619791668,83.5213721590909L183.26407552083333,82.61173295454545L183.45767578125,79.61480113636364L183.83748697916667,92.93002840909091L184.30153645833335,76.36091761363637L184.52912760416666,75.32053977272727L184.56459635416667,76.09491477272728L185.06115885416665,88.46932670454545L185.84294921875,73.72653409090908L186.08531901041667,87.73568181818183L186.12374348958335,79.30806818181819L186.19468098958333,83.50176136363638L186.2907421875,84.00460227272727L186.41192708333332,80.49477272727272L186.45478515624998,81.96306818181817L186.849375,77.90011363636363L187.4966796875,83.01903409090909L188.05531249999999,83.39113636363638L188.25777994791665,84.02974431818181L188.41738932291668,73.32928977272728L188.5681315104167,78.9309375L189.33809895833335,84.23088068181818L189.37800130208333,80.51991477272728L189.51692057291666,84.02974431818181L189.8080598958333,78.95607954545454L190.43024088541665,81.20880681818183L190.61054036458333,82.55139204545455L190.71842447916669,71.18165625L191.09675781250002,89.70178977272727L191.38346354166666,78.57392045454546L191.69381510416667,73.61088068181819L191.93766276041666,89.75207386363637L192.19037760416666,72.72085227272729L192.27018229166666,77.12573863636365L192.53767578125,78.83036931818181L192.80516927083335,88.80170454545454L192.98546875000002,78.41803977272727L193.66972005208333,84.65326704545454L193.72144531249998,75.00375L193.78055989583333,84.72869318181817L193.889921875,80.99258522727274L194.45594401041666,76.09491477272728L194.62146484375,78.24204545454545L194.92294921875,77.06036931818183L195.44906901041665,85.37735795454545L195.486015625,72.99188352272728L195.65005859375,82.61676136363637L195.84218098958334,74.73724431818182L196.0003125,63.29711079545454L196.0801171875,73.80196022727273L196.16139973958332,79.54440340909092L196.4761848958333,73.99253693181818L196.99787109375,74.64170454545456L197.03629557291666,70.59383522727272L197.12348958333334,73.63099431818182L197.60527343750002,77.7140625L197.614140625,69.9200284090909L198.25110026041668,70.06032102272727L198.358984375,84.2359090909091L198.64716796875,75.70772727272727L198.82303385416668,75.92394886363637L198.83042317708333,78.44821022727272L199.11712890625,71.25255681818183L199.17919921875,82.32008522727273L199.23092447916665,73.74161931818182L199.3195963541667,76.39159090909092L199.59300130208334,75.6016278409091L199.70531901041667,70.20891051136363L199.7688671875,64.19769886363636L200.36888020833334,70.12116477272727L200.75608072916665,78.79014204545456L200.80337239583332,73.11809659090909L201.09746744791667,64.70456250000001L201.19352864583334,56.845661931818185L202.09798177083331,55.819866477272726L202.38320963541668,62.4478125L202.90046223958333,63.865823863636365L203.36155598958334,59.15420454545455L203.79604817708335,57.52952556818181L203.88619791666667,56.20705397727272L204.05319661458336,67.61198863636363L204.3709375,52.94311363636365L204.50246744791667,58.80724431818183L204.58375,60.25542613636364L204.75518229166667,68.66292613636364L204.885234375,54.77395738636365L204.98868489583333,63.423323863636355L205.41430989583336,62.32713068181819L205.81185546875,59.22963068181818L206.49315104166666,53.321250000000006L206.62763671875,52.843551136363644L206.83305989583334,56.750625000000014L207.5542578125,53.73860795454546L207.73012369791667,52.97378693181817L208.09220052083333,56.34784943181819L208.10697916666666,49.16275568181817L208.19712890625,63.634517045454544L208.29466796875002,55.71426988636364L208.67004557291665,65.91238636363637L208.68334635416667,52.87321875000001L209.17990885416665,56.34332386363637L209.25971354166668,51.31843465909091L209.886328125,55.28182670454545L210.18633463541667,56.21208238636363L210.29717447916667,56.08134375L210.36515624999998,52.104375000000005L210.46860677083336,55.18628693181819L210.5764908854167,60.451031249999986L210.77600260416665,47.42745170454546L210.84102864583335,48.619184659090905L210.86763020833334,45.10432670454546L211.01098307291667,56.17235795454546L211.70853515624998,51.26463068181819L212.09573567708335,46.45244318181818L213.04748046875,56.29253693181818L213.55586588541667,58.60107954545454L214.14996744791668,54.714119318181815L214.26967447916667,51.50549147727271L214.67313151041668,64.12227272727273L214.90220052083333,50.46511363636364L215.93522786458334,59.365397727272736L216.43031249999999,43.87739488636362L216.61208984375,50.51992329545455L216.81751302083333,44.34000852272729L217.13820963541667,49.39305681818182L217.52541015625,52.79829545454547L217.76777994791667,45.828920454545454L217.7869921875,44.69752840909092L218.83775390625,56.11201704545455L219.02839843750002,35.347201704545455L219.1599283854167,50.746201704545456L219.24564453125,50.46461079545455L219.75698567708332,52.104375000000005L220.13827473958335,54.60198579545455L220.39098958333335,49.46798011363636L220.88902994791667,51.882622159090914L221.129921875,45.28082386363636L221.27031901041664,43.03262215909089L221.30726562499999,55.53827556818182L221.35012369791667,51.767471590909096L222.00481770833335,50.65619318181817L223.92604166666666,44.561258522727286L224.42555989583335,43.74062215909092L224.86005208333333,42.10286931818183L225.09798828125,52.60168465909091L225.1112890625,43.022062500000004L225.31375651041668,48.453750000000014L225.69356770833332,49.47351136363636L226.2462890625,47.920235795454545L226.57141927083336,44.25905113636364L226.9201953125,54.115738636363645L227.67242838541665,43.58524431818182L228.24288411458335,50.807045454545445L228.5192447916667,46.542954545454535L228.54732421875,45.20439204545454L228.69215494791666,49.442335227272736L229.12221354166667,48.47889204545456L229.20940755208332,45.23959090909091L229.29807942708334,49.770690340909084L229.5094140625,47.251457386363654L230.43899088541667,44.816701704545466L231.61389322916668,49.760633522727275L231.86365234375,45.21042613636362L232.44297526041666,50.51489488636365L232.479921875,46.0798380681818L232.57893880208334,47.57226988636364L233.04446614583335,45.60440198863637L233.40654296875,47.71457386363636L233.69620442708333,39.09940056818181L234.80164713541666,38.37681818181818L235.32037760416668,46.53666903409092L235.41200520833334,42.89182670454545L236.04009765625,37.419409090909085L236.07852213541668,47.281125L236.23960937500001,36.795886363636356L236.30759114583333,37.00858806818181L236.71548177083332,44.28972443181817L237.13667317708334,52.78321022727273L237.20613281250002,49.15269886363636L237.34357421875,47.170500000000004L237.3686979166667,50.12318181818182L237.81944661458334,42.94713920454544L238.03078125000002,41.669420454545445L238.89237630208333,47.19061363636362L239.57071614583333,39.401607954545455L239.93279296875002,48.41754545454546L240.20472005208333,33.39165340909091L240.5047265625,43.30868181818184L240.61852213541667,35.277809659090906L240.744140625,44.450130681818166L241.02050130208332,43.2035880681818L241.169765625,45.48196022727274L241.72100911458332,40.07038636363637L241.78603515625002,47.15994034090909L241.9752018229167,44.42549147727274L241.98259114583334,49.16225284090909L242.13776692708333,45.63733806818183L243.97475260416667,45.60616193181818L244.05307942708333,44.782508522727255L244.17130859375,45.562414772727266L244.3826432291667,40.50886363636363L244.69003906249998,46.02905113636365L244.97083333333333,46.02905113636365L245.33438802083336,45.31551988636363L245.426015625,36.98244034090908L245.49399739583333,36.50021590909091L245.59597005208335,41.62969602272727L245.63735026041667,43.490207386363636L245.7999153645833,34.060431818181826L246.56101562499998,46.46652272727272L247.76399739583334,40.66876704545453L248.06548177083334,43.4645625L248.55465494791667,38.994306818181826L248.61524739583334,39.371940340909106L249.03791666666666,46.85421306818182L249.09998697916666,42.81086931818183L249.58916015625002,42.620292613636366L249.611328125,49.99696875000001L249.89655598958333,46.34131534090909L250.23794270833335,40.20112499999999L250.39459635416665,43.49473295454544L251.48082682291667,35.85657954545454L251.59757812499998,38.321002840909074L252.45178385416668,47.71809374999998L252.67494140624999,47.53355113636363L252.72962239583333,36.67067897727273L253.31190104166666,46.09492329545455L253.41682942708334,37.274590909090904L253.67545572916666,45.56191193181817L253.68284505208334,42.6298465909091L253.84245442708334,49.74051988636364L253.97250651041665,46.66363636363636L254.61685546874997,42.35831250000001L255.42968098958332,35.95714772727271L255.70456380208333,40.508360795454536L256.3001432291667,35.25719318181817L256.4109830729167,38.351173295454544L256.63857421875,43.3539375L256.6769986979167,42.101360795454525L257.6183984375,38.62119886363638L257.8519010416667,41.8605L257.85337890625,34.32643465909092L257.85633463541666,43.907062499999995L257.85929036458333,48.00571875L257.86224609375,37.923255681818176L257.8637239583333,42.00079261363638L257.86815755208335,38.16411647727273L257.86963541666665,31.718701704545452L257.87111328125,46.15023579545456L257.8725911458333,44.008636363636356L257.8770247395833,36.369477272727266L257.87850260416667,40.42237499999999L257.88145833333334,37.16245738636363L257.8903255208333,37.94839772727275L257.89475911458334,35.11690056818182L257.8991927083333,37.59590625000001L257.9006705729167,39.32065056818183L257.90658203125,43.35444034090909L257.91544921875,43.06782102272729L257.91840494791666,37.21425000000002L257.9257942708333,32.341218749999996L257.9346614583333,35.41407954545454L257.94057291666667,49.76113636363637L257.94352864583334,46.15576704545455L257.95091796875,43.34438352272727L257.95387369791666,33.23074431818182L257.9553515625,41.126352272727274L257.95830729166664,32.88931534090909L257.96421875,45.84350284090908L257.97013020833333,45.109355113636354L257.97160807291664,40.81408806818183L257.97751953125,45.148576704545434L257.9834309895833,41.07657102272728L257.98786458333336,42.01587784090907L257.9967317708333,42.695215909090905L257.99820963541663,30.209173295454548L258.00116536458336,37.8226875L258.0100325520833,38.28530113636364L258.01594401041666,48.00622159090909L258.02185546875,42.81086931818183L258.0248111979167,43.11860795454547L258.0262890625,42.04101988636364L258.02776692708335,40.235821022727265L258.0322005208333,37.25447727272726L258.0336783854167,39.89891761363634L258.04106770833334,32.20092613636365L258.0440234375,47.10563352272729L258.04993489583336,34.95196874999999L258.05141276041667,40.74419318181819L258.052890625,38.27524431818182L258.05436848958334,36.97288636363635L258.0558463541667,40.49780113636365L258.05732421875,40.40175852272728L258.0588020833333,33.265440340909095L258.0617578125,30.94784659090911L258.070625,40.44299147727273L258.07505859375,45.355747159090924L258.08392578125,39.67716477272728L258.08983723958335,36.62039488636364" style="fill: none;" fill="none"></path></g></g></g></g></g></g><g transform="translate(63, 177)" clip-path="url(#clip_1)"><clipPath id="clip_1"><rect width="266" height="23"></rect></clipPath><g><g><line x1="0" y1="0" x2="0" y2="5" style="visibility: inherit;" fill="rgb(0, 0, 0)" stroke="rgb(204, 204, 204)" stroke-width="1px"></line><line x1="29.557291666666664" y1="0" x2="29.557291666666664" y2="5" style="visibility: inherit;" fill="rgb(0, 0, 0)" stroke="rgb(204, 204, 204)" stroke-width="1px"></line><line x1="59.11458333333333" y1="0" x2="59.11458333333333" y2="5" style="visibility: inherit;" fill="rgb(0, 0, 0)" stroke="rgb(204, 204, 204)" stroke-width="1px"></line><line x1="88.671875" y1="0" x2="88.671875" y2="5" style="visibility: inherit;" fill="rgb(0, 0, 0)" stroke="rgb(204, 204, 204)" stroke-width="1px"></line><line x1="118.22916666666666" y1="0" x2="118.22916666666666" y2="5" style="visibility: inherit;" fill="rgb(0, 0, 0)" stroke="rgb(204, 204, 204)" stroke-width="1px"></line><line x1="147.78645833333334" y1="0" x2="147.78645833333334" y2="5" style="visibility: inherit;" fill="rgb(0, 0, 0)" stroke="rgb(204, 204, 204)" stroke-width="1px"></line><line x1="177.34375" y1="0" x2="177.34375" y2="5" style="visibility: inherit;" fill="rgb(0, 0, 0)" stroke="rgb(204, 204, 204)" stroke-width="1px"></line><line x1="206.90104166666666" y1="0" x2="206.90104166666666" y2="5" style="visibility: inherit;" fill="rgb(0, 0, 0)" stroke="rgb(204, 204, 204)" stroke-width="1px"></line><line x1="236.45833333333331" y1="0" x2="236.45833333333331" y2="5" style="visibility: inherit;" fill="rgb(0, 0, 0)" stroke="rgb(204, 204, 204)" stroke-width="1px"></line><line x1="266.015625" y1="0" x2="266.015625" y2="5" style="visibility: inherit;" fill="rgb(0, 0, 0)" stroke="rgb(204, 204, 204)" stroke-width="1px"></line></g><g transform="translate(0, 8)"><text x="0" y="0" dx="0em" dy="0.95em" style="text-anchor: middle; visibility: hidden; font-family: &quot;Helvetica Neue&quot;, sans-serif; font-size: 12px; font-weight: 200;" fill="rgb(50, 49, 63)" stroke="none" stroke-width="1px">-20k</text><text x="29.557291666666664" y="0" dx="0em" dy="0.95em" style="text-anchor: middle; visibility: inherit; font-family: &quot;Helvetica Neue&quot;, sans-serif; font-size: 12px; font-weight: 200;" fill="rgb(50, 49, 63)" stroke="none" stroke-width="1px">0</text><text x="59.11458333333333" y="0" dx="0em" dy="0.95em" style="text-anchor: middle; visibility: inherit; font-family: &quot;Helvetica Neue&quot;, sans-serif; font-size: 12px; font-weight: 200;" fill="rgb(50, 49, 63)" stroke="none" stroke-width="1px">20k</text><text x="88.671875" y="0" dx="0em" dy="0.95em" style="text-anchor: middle; visibility: inherit; font-family: &quot;Helvetica Neue&quot;, sans-serif; font-size: 12px; font-weight: 200;" fill="rgb(50, 49, 63)" stroke="none" stroke-width="1px">40k</text><text x="118.22916666666666" y="0" dx="0em" dy="0.95em" style="text-anchor: middle; visibility: inherit; font-family: &quot;Helvetica Neue&quot;, sans-serif; font-size: 12px; font-weight: 200;" fill="rgb(50, 49, 63)" stroke="none" stroke-width="1px">60k</text><text x="147.78645833333334" y="0" dx="0em" dy="0.95em" style="text-anchor: middle; visibility: inherit; font-family: &quot;Helvetica Neue&quot;, sans-serif; font-size: 12px; font-weight: 200;" fill="rgb(50, 49, 63)" stroke="none" stroke-width="1px">80k</text><text x="177.34375" y="0" dx="0em" dy="0.95em" style="text-anchor: middle; visibility: inherit; font-family: &quot;Helvetica Neue&quot;, sans-serif; font-size: 12px; font-weight: 200;" fill="rgb(50, 49, 63)" stroke="none" stroke-width="1px">100k</text><text x="206.90104166666666" y="0" dx="0em" dy="0.95em" style="text-anchor: middle; visibility: inherit; font-family: &quot;Helvetica Neue&quot;, sans-serif; font-size: 12px; font-weight: 200;" fill="rgb(50, 49, 63)" stroke="none" stroke-width="1px">120k</text><text x="236.45833333333331" y="0" dx="0em" dy="0.95em" style="text-anchor: middle; visibility: inherit; font-family: &quot;Helvetica Neue&quot;, sans-serif; font-size: 12px; font-weight: 200;" fill="rgb(50, 49, 63)" stroke="none" stroke-width="1px">140k</text><text x="266.015625" y="0" dx="0em" dy="0.95em" style="text-anchor: middle; visibility: hidden; font-family: &quot;Helvetica Neue&quot;, sans-serif; font-size: 12px; font-weight: 200;" fill="rgb(50, 49, 63)" stroke="none" stroke-width="1px">160k</text></g><line x1="0" y1="0" x2="266.015625" y2="0" fill="rgb(0, 0, 0)" stroke="rgb(204, 204, 204)" stroke-width="1px"></line></g></g></g></g></svg>