<svg viewBox="0 0 330 200" xmlns="http://www.w3.org/2000/svg"><g><g><g><g><g><line x1="74.78125" y1="177" x2="69.78125" y2="177" style="visibility: inherit;" fill="rgb(0, 0, 0)" stroke="rgb(204, 204, 204)" stroke-width="1px"></line><line x1="74.78125" y1="157.33333333333334" x2="69.78125" y2="157.33333333333334" style="visibility: inherit;" fill="rgb(0, 0, 0)" stroke="rgb(204, 204, 204)" stroke-width="1px"></line><line x1="74.78125" y1="137.66666666666669" x2="69.78125" y2="137.66666666666669" style="visibility: inherit;" fill="rgb(0, 0, 0)" stroke="rgb(204, 204, 204)" stroke-width="1px"></line><line x1="74.78125" y1="118" x2="69.78125" y2="118" style="visibility: inherit;" fill="rgb(0, 0, 0)" stroke="rgb(204, 204, 204)" stroke-width="1px"></line><line x1="74.78125" y1="98.33333333333334" x2="69.78125" y2="98.33333333333334" style="visibility: inherit;" fill="rgb(0, 0, 0)" stroke="rgb(204, 204, 204)" stroke-width="1px"></line><line x1="74.78125" y1="78.66666666666666" x2="69.78125" y2="78.66666666666666" style="visibility: inherit;" fill="rgb(0, 0, 0)" stroke="rgb(204, 204, 204)" stroke-width="1px"></line><line x1="74.78125" y1="59" x2="69.78125" y2="59" style="visibility: inherit;" fill="rgb(0, 0, 0)" stroke="rgb(204, 204, 204)" stroke-width="1px"></line><line x1="74.78125" y1="39.33333333333334" x2="69.78125" y2="39.33333333333334" style="visibility: inherit;" fill="rgb(0, 0, 0)" stroke="rgb(204, 204, 204)" stroke-width="1px"></line><line x1="74.78125" y1="19.666666666666686" x2="69.78125" y2="19.666666666666686" style="visibility: inherit;" fill="rgb(0, 0, 0)" stroke="rgb(204, 204, 204)" stroke-width="1px"></line><line x1="74.78125" y1="0" x2="69.78125" y2="0" style="visibility: inherit;" fill="rgb(0, 0, 0)" stroke="rgb(204, 204, 204)" stroke-width="1px"></line></g><g transform="translate(64.78125, 0)"><text x="0" y="177" dx="0em" dy="0.3em" style="text-anchor: end; visibility: hidden; font-family: &quot;Helvetica Neue&quot;, sans-serif; font-size: 12px; font-weight: 200;" fill="rgb(50, 49, 63)" stroke="none" stroke-width="1px">-5e+3</text><text x="0" y="157.33333333333334" dx="0em" dy="0.3em" style="text-anchor: end; visibility: inherit; font-family: &quot;Helvetica Neue&quot;, sans-serif; font-size: 12px; font-weight: 200;" fill="rgb(50, 49, 63)" stroke="none" stroke-width="1px">0</text><text x="0" y="137.66666666666669" dx="0em" dy="0.3em" style="text-anchor: end; visibility: hidden; font-family: &quot;Helvetica Neue&quot;, sans-serif; font-size: 12px; font-weight: 200;" fill="rgb(50, 49, 63)" stroke="none" stroke-width="1px">5e+3</text><text x="0" y="118" dx="0em" dy="0.3em" style="text-anchor: end; visibility: inherit; font-family: &quot;Helvetica Neue&quot;, sans-serif; font-size: 12px; font-weight: 200;" fill="rgb(50, 49, 63)" stroke="none" stroke-width="1px">1e+4</text><text x="0" y="98.33333333333334" dx="0em" dy="0.3em" style="text-anchor: end; visibility: hidden; font-family: &quot;Helvetica Neue&quot;, sans-serif; font-size: 12px; font-weight: 200;" fill="rgb(50, 49, 63)" stroke="none" stroke-width="1px">1.5e+4</text><text x="0" y="78.66666666666666" dx="0em" dy="0.3em" style="text-anchor: end; visibility: inherit; font-family: &quot;Helvetica Neue&quot;, sans-serif; font-size: 12px; font-weight: 200;" fill="rgb(50, 49, 63)" stroke="none" stroke-width="1px">2e+4</text><text x="0" y="59" dx="0em" dy="0.3em" style="text-anchor: end; visibility: hidden; font-family: &quot;Helvetica Neue&quot;, sans-serif; font-size: 12px; font-weight: 200;" fill="rgb(50, 49, 63)" stroke="none" stroke-width="1px">2.5e+4</text><text x="0" y="39.33333333333334" dx="0em" dy="0.3em" style="text-anchor: end; visibility: inherit; font-family: &quot;Helvetica Neue&quot;, sans-serif; font-size: 12px; font-weight: 200;" fill="rgb(50, 49, 63)" stroke="none" stroke-width="1px">3e+4</text><text x="0" y="19.666666666666686" dx="0em" dy="0.3em" style="text-anchor: end; visibility: hidden; font-family: &quot;Helvetica Neue&quot;, sans-serif; font-size: 12px; font-weight: 200;" fill="rgb(50, 49, 63)" stroke="none" stroke-width="1px">3.5e+4</text><text x="0" y="0" dx="0em" dy="0.3em" style="text-anchor: end; visibility: hidden; font-family: &quot;Helvetica Neue&quot;, sans-serif; font-size: 12px; font-weight: 200;" fill="rgb(50, 49, 63)" stroke="none" stroke-width="1px">4e+4</text></g><line x1="74.78125" y1="0" x2="74.78125" y2="177" fill="rgb(0, 0, 0)" stroke="rgb(204, 204, 204)" stroke-width="1px"></line></g></g><g transform="translate(74, 0)" clip-path="url(#clip_0)"><clipPath id="clip_0"><rect width="255" height="177"></rect></clipPath><g><g><g><line x1="0" y1="0" x2="0" y2="177" fill="rgb(0, 0, 0)" stroke="rgb(60, 60, 60)" stroke-width="1px" opacity="0.25"></line><line x1="28.357638888888886" y1="0" x2="28.357638888888886" y2="177" fill="rgb(0, 0, 0)" stroke="rgb(60, 60, 60)" stroke-width="1px" opacity="0.25"></line><line x1="56.71527777777777" y1="0" x2="56.71527777777777" y2="177" fill="rgb(0, 0, 0)" stroke="rgb(60, 60, 60)" stroke-width="1px" opacity="0.25"></line><line x1="85.07291666666666" y1="0" x2="85.07291666666666" y2="177" fill="rgb(0, 0, 0)" stroke="rgb(60, 60, 60)" stroke-width="1px" opacity="0.25"></line><line x1="113.43055555555554" y1="0" x2="113.43055555555554" y2="177" fill="rgb(0, 0, 0)" stroke="rgb(60, 60, 60)" stroke-width="1px" opacity="0.25"></line><line x1="141.78819444444446" y1="0" x2="141.78819444444446" y2="177" fill="rgb(0, 0, 0)" stroke="rgb(60, 60, 60)" stroke-width="1px" opacity="0.25"></line><line x1="170.14583333333331" y1="0" x2="170.14583333333331" y2="177" fill="rgb(0, 0, 0)" stroke="rgb(60, 60, 60)" stroke-width="1px" opacity="0.25"></line><line x1="198.50347222222223" y1="0" x2="198.50347222222223" y2="177" fill="rgb(0, 0, 0)" stroke="rgb(60, 60, 60)" stroke-width="1px" opacity="0.25"></line><line x1="226.8611111111111" y1="0" x2="226.8611111111111" y2="177" fill="rgb(0, 0, 0)" stroke="rgb(60, 60, 60)" stroke-width="1px" opacity="0.25"></line><line x1="255.21875" y1="0" x2="255.21875" y2="177" fill="rgb(0, 0, 0)" stroke="rgb(60, 60, 60)" stroke-width="1px" opacity="0.25"></line></g><g><line x1="0" y1="177" x2="255.21875" y2="177" fill="rgb(0, 0, 0)" stroke="rgb(60, 60, 60)" stroke-width="1px" opacity="0.25"></line><line x1="0" y1="157.33333333333334" x2="255.21875" y2="157.33333333333334" fill="rgb(0, 0, 0)" stroke="rgb(60, 60, 60)" stroke-width="1px" opacity="0.25"></line><line x1="0" y1="137.66666666666669" x2="255.21875" y2="137.66666666666669" fill="rgb(0, 0, 0)" stroke="rgb(60, 60, 60)" stroke-width="1px" opacity="0.25"></line><line x1="0" y1="118" x2="255.21875" y2="118" fill="rgb(0, 0, 0)" stroke="rgb(60, 60, 60)" stroke-width="1px" opacity="0.25"></line><line x1="0" y1="98.33333333333334" x2="255.21875" y2="98.33333333333334" fill="rgb(0, 0, 0)" stroke="rgb(60, 60, 60)" stroke-width="1px" opacity="0.25"></line><line x1="0" y1="78.66666666666666" x2="255.21875" y2="78.66666666666666" fill="rgb(0, 0, 0)" stroke="rgb(60, 60, 60)" stroke-width="1px" opacity="0.25"></line><line x1="0" y1="59" x2="255.21875" y2="59" fill="rgb(0, 0, 0)" stroke="rgb(60, 60, 60)" stroke-width="1px" opacity="0.25"></line><line x1="0" y1="39.33333333333334" x2="255.21875" y2="39.33333333333334" fill="rgb(0, 0, 0)" stroke="rgb(60, 60, 60)" stroke-width="1px" opacity="0.25"></line><line x1="0" y1="19.666666666666686" x2="255.21875" y2="19.666666666666686" fill="rgb(0, 0, 0)" stroke="rgb(60, 60, 60)" stroke-width="1px" opacity="0.25"></line><line x1="0" y1="0" x2="255.21875" y2="0" fill="rgb(0, 0, 0)" stroke="rgb(60, 60, 60)" stroke-width="1px" opacity="0.25"></line></g></g></g><g><g><line x1="0" y1="157.33333333333334" x2="255.21875" y2="157.33333333333334" fill="rgb(0, 0, 0)" stroke="rgb(153, 153, 153)" stroke-width="1.5px"></line></g></g><g><g><line x1="28.357638888888886" y1="0" x2="28.357638888888886" y2="177" fill="rgb(0, 0, 0)" stroke="rgb(153, 153, 153)" stroke-width="1.5px"></line></g></g><g><g><g><g><g><path stroke="rgb(255, 112, 67)" stroke-width="2px" d="M28.79151076388889,149.74445833333334L28.812778993055556,149.4216403508772L28.831211458333335,149.24186070110702L28.838300868055555,148.94838080352815L28.846808159722222,148.72075979219068L28.87658368055556,148.69369778743624L28.882255208333333,148.57091285718832L28.890762499999997,148.4484886170455L29.440900694444444,148.56935233671936L29.447990104166667,148.51443862608244L29.47209409722222,148.60394849081527L29.49619809027778,148.5400333752786L29.53164513888889,148.51611485385766L29.541570312500003,148.37671260541904L29.57559947916667,148.34896608169615L29.609628645833336,148.27342589020245L29.69895520833333,148.17484984501374L29.704626736111113,148.03600646385374L30.132827083333332,148.09753152413822L30.181035069444444,148.00907874547153L30.186706597222223,148.0312768482212L30.22782517361111,148.05646966169803L30.229243055555557,147.99783877644967L30.29162986111111,147.95736385857177L30.426328645833333,148.0315086453721L30.826171354166668,148.0549761167086L30.84035017361111,148.1025445998203L30.8942296875,148.15401068875408L30.924005208333334,148.2699649655455L31.011913888888888,148.1976465579274L31.102658333333334,148.1924611516267L31.16504513888889,148.19279741605465L31.173552430555556,148.1984249152592L31.257207465277776,148.14694006728175L31.532276562499998,148.0669692670656L31.54220173611111,148.09434959192376L31.706676041666668,148.17457669888603L31.70809392361111,148.0665519598336L31.804509895833334,148.17228532777753L31.878239756944446,148.05052583214788L31.87965763888889,148.05938484860985L32.079578993055556,147.81354681414885L32.252560590277774,147.85627967389823L32.322036805555555,147.7854249930943L32.400020312500004,147.905429892172L32.41419913194445,147.97049172452702L32.530465451388885,147.9312778234997L32.62262777777778,147.99524873460112L32.65949270833333,148.02319849646295L32.848071006944444,147.96257663202132L32.98418767361111,147.92091949645797L33.032395659722226,147.82989547844372L33.06500694444445,147.73052634060028L33.130229513888885,147.7987857684175L33.20679513888889,147.72726662407837L33.23940642361111,147.72185639344133L33.4208953125,147.68975829784426L33.443581423611114,147.69106662061478L33.62081666666667,147.6474123784168L33.66902465277778,147.67869819484278L33.79238038194445,147.7290055712781L33.81081284722222,147.81070309796746L33.850513541666665,147.7245762101814L33.999391145833336,147.7023382034762L34.2375953125,147.70558491159784L34.27446024305556,147.738772698272L34.400651736111115,147.70011219957388L34.429009375,147.74614283680052L34.49848559027778,147.84562072615535L34.565126041666666,147.90709508873562L34.726764583333335,147.94581157956605L34.86571701388888,147.969953090788L35.014594618055554,147.92035387598284L35.04437013888889,147.78828919681726L35.12093576388889,147.8562208277234L35.16630798611111,147.84653093498386L35.33220017361111,147.63874890448227L35.4116015625,147.503887639037L35.45980954861111,147.42948498059593L35.48533142361111,147.47010160623333L35.63704479166667,147.4266203960279L35.781668749999994,147.3942505447822L35.82845885416667,147.37028208956488L35.95323246527778,147.33789298791828L36.07800607638889,147.4568773722792L36.120542534722226,147.35006056627975L36.14748229166667,147.15201923185526L36.259494965277774,147.0683177702063L36.33747847222222,146.9615186202123L36.419715624999995,146.85581287247422L36.63239791666667,146.7210973491826L36.689113194444445,146.52499426398785L36.80254375,146.46712495724958L36.91881006944445,146.34891071984867L36.921645833333336,146.3558532934877L36.938660416666664,146.21914367961892L37.10738836805555,145.93274387656868L37.168357291666666,145.74013400621106L37.24350503472222,145.5643279170837L37.494470138888886,145.18607674516173L37.51006684027778,144.9951228391763L37.51857413194445,144.69813333227538L37.66886961805555,144.3525445573226L37.76386770833333,144.1080150068567L37.79647899305556,143.89691227851844L37.856030034722224,143.67090536039444L37.89856649305556,143.46577888504675L37.99640034722222,143.28546768489787L38.054533506944445,143.043291340976L38.340945659722216,142.72183631309224L38.35370659722223,142.50492587378062L38.54653854166666,142.2252624384448L38.59474652777778,141.90006108232004L38.82586128472222,141.63810963236725L38.91518784722222,141.33745327491414L39.205853645833336,141.0207688887399L39.329209375,140.6878155249848L39.48517638888889,140.31784916419943L39.655322222222225,140.00847980441307L39.686515625,139.71369962205404L39.741813020833334,139.3676411540915L39.86942239583333,138.93265715089933L39.92046614583334,138.56526348758717L40.13598420138889,138.2520635585825L40.36000954861111,137.926179497983L40.452171875,137.61444642986947L40.605303125,137.12296144443178L40.71873368055555,136.70557721978926L40.79246354166666,136.44842334275793L40.92149079861111,136.1404077449996L40.948430555555554,135.8617187714175L41.11715850694444,135.53112575943018L41.36528784722222,135.3529442872303L41.44043559027778,135.06142880981747L41.59640260416667,134.8506899553878L41.76371267361111,134.71879588092548L41.824681597222224,134.32905983294165L41.984902256944444,134.09617457010307L42.03311024305555,133.88129243602287L42.48541458333334,133.60898600217948L42.56339809027777,133.32838730281455L42.696678993055556,133.03491722920765L42.82712413194445,132.85683587198557L42.939136805555556,132.49866677586118L42.976001736111115,132.24428753930312L43.153236979166664,131.97625872945014L43.37300868055556,131.7535932313597L43.63248107638889,131.5448359562767L43.6806890625,131.3143023255845L43.95575815972222,131.05396789072182L43.9869515625,130.8526085768417L44.107471527777776,130.62713519415655L44.20814114583333,130.47976749336783L44.41798767361111,130.28248239297866L44.425077083333335,130.10554038937804L44.5229109375,129.9992696760424L44.83626284722222,129.78279894426478L44.942603993055556,129.53180236838108L45.122675,129.32372837050787L45.19498697916667,129.14494302492346L45.56363628472222,129.0731508026804L46.20168315972222,128.98481488566375L46.2328765625,128.88269589354405L46.43421579861111,128.86712005370185L46.48242378472222,128.8307309639727L46.59301857638889,128.84616411796694L46.81562604166667,128.77007895443325L46.872341319444445,128.69299814073952L47.27643767361111,128.66369624279037L47.37710729166667,128.56295995016814L47.48911996527778,128.46860978707141L47.73157777777778,128.4542488081707L47.78545729166667,128.46676767750552L47.9683640625,128.34835757512866L47.97119982638889,128.370359317832L47.98821440972222,128.52119005404953L48.45044392361111,128.56856063235497L48.73260243055555,128.38576498447657L48.74536336805556,128.3846051526881L48.755288541666665,128.32861755376106L48.85170451388889,128.4598995490706L48.93535954861111,128.32742626020752L49.027521875,128.01116488284887L49.13811666666667,127.9731004777524L49.61877864583333,128.03656126352794L49.909444444444446,128.06540513726412L49.97608489583333,128.01023962338456L49.995935243055555,128.02659691108698L50.06966510416667,127.8721851362978L50.30928715277778,127.78680620582861L50.31212291666667,127.69066725173734L50.37309184027778,127.58902344306367L50.38159913194445,127.4856210986048L51.18837395833334,127.53428190547557L51.21389583333333,127.3543682980464L51.279118402777776,127.32998980154886L51.31881909722222,127.2181970712858L51.49889010416667,127.21640861415565L51.559859027777776,127.14694900268564L51.595306076388894,127.18682493577855L52.23618871527778,127.29879869227179L52.42334913194445,127.12903548961425L52.47013923611111,126.96002360723259L52.49282534722222,126.93550041316463L52.64312083333333,126.6725128717386L52.685657291666665,126.5640261678574L52.73244739583333,126.66035063443749L52.74237256944445,126.49739890427759L52.806177256944444,126.51704859718853L52.90542899305556,126.41796248744531L53.564744097222224,126.29141832200611L53.763247569444445,126.19682648978664L53.798694618055556,126.0225792574434L53.91070729166667,125.92623174835018L53.922050347222225,125.84173149016954L54.09077829861111,125.62457292445754L54.23823802083333,125.34419479864545L54.29495329861111,124.96795448540773L55.083295659722225,124.77388820351513L55.212322916666665,124.67248688315493L55.257695138888884,124.44761527815541L55.30732100694445,124.20233291698949L55.35127534722222,124.06184337528177L55.658955729166664,123.81875487107324L55.67313454861111,123.7576773006295L56.479909375,123.50985123722191L56.563564409722225,123.39325361349492L56.60326510416667,123.21518033547221L56.608936631944445,123.06609980192002L56.657144618055554,123.07487940506161L56.689755902777776,122.97332375621939L57.056987326388885,122.8282705472606L57.12079201388889,122.50486640919415L58.15017430555555,122.28042351827034L58.15868159722223,122.00000408310501L58.28770885416667,121.39129117478484L58.619493229166665,121.10833497396898L59.31709114583333,120.7676327265677L59.416342881944445,120.50033403724116L59.548205902777774,120.48384230018355L59.56238472222222,119.97389140349372L59.63469670138889,119.62076684647471L59.651711284722225,119.63163391182732L59.692829861111115,119.10021218730762L59.860139930555555,118.67134513524088L60.0657328125,118.24676895504777L60.13946267361111,117.90963789287466L61.02847465277778,117.51845743691877L61.08802569444444,117.32225335989276L61.102204513888886,117.18955094056966L61.218470833333335,116.71476667984447L61.30921527777778,116.23509834519194L61.63674600694444,115.90676976067189L61.84659253472222,115.29808236793659L62.59948784722223,114.98687829780891L62.616502430555556,114.56236755136054L62.65053159722222,114.12020162955704L62.65478524305555,113.79133146660081L62.739858159722225,113.4620379032736L62.768215798611116,112.89169244627885L63.063135243055555,112.60208986831731L63.08298559027777,112.39676004815202L63.31835399305556,112.1843069600033L63.51260381944444,111.88407209733604L64.23005208333333,111.41498155426875L64.32079652777777,110.75999589884144L64.38176545138889,110.4588713089571L64.40870520833334,110.04933209472784L64.74190746527778,109.81386555192161L64.78302604166667,109.34369774672923L65.23958402777777,109.01138213872285L66.04352309027779,108.61556267485042L66.10590989583334,107.92068974069849L66.28881666666666,107.36462909996182L66.3951578125,106.75748285663215L66.50149895833333,106.30164082096881L66.58090034722221,105.56553090553845L66.71843489583334,104.90462989831781L67.1352921875,104.42068982515262L67.85415833333333,103.82510625930392L67.86833715277778,103.27519146670679L67.97751406249999,102.31355357003599L68.04557239583333,101.78523987969899L68.08527309027778,101.16434714172904L68.34190972222223,100.7766436775561L68.38444618055556,100.13639805980043L68.39437135416667,99.28250825382032L68.72331996527778,98.41641159510488L69.12032690972222,97.60779335226101L69.7257625,97.13558068370156L69.86046128472222,96.91278719866472L69.8689685763889,96.42550847879822L69.94553420138888,96.01055763091838L70.02635347222223,95.95250603449321L70.17664895833335,95.87862626437722L70.30425833333334,95.5935886379395L70.35955572916667,95.23405060747885L70.69275798611112,94.78447679673097L71.06991458333333,94.6326999503912L71.63848524305556,94.22113620535207L71.74057274305555,93.67778508481686L71.7831092013889,93.10518574300183L71.89370399305557,92.39748175203498L71.96601597222222,92.0053981601648L72.20422013888889,92.11604167748165L72.4211560763889,91.37843542640015L73.15136527777778,91.0302398004268L73.57814774305557,90.47889707038411L73.5824013888889,90.00198653001236L73.73127899305555,89.68179412701113L73.89433541666666,88.92616888097669L74.03045208333333,88.26823115954566L74.11552499999999,87.83329762692445L74.45439878472222,87.64688244756535L74.74648246527778,87.00256086947546L75.519228125,86.42918603252794L75.55609305555555,86.12653201260848L75.80422239583334,85.98591006134762L75.82690850694445,85.81067530521287L76.04384444444443,85.8357411080249L76.21682604166666,85.32693158055577L76.40115069444444,85.23812175583349L76.74994965277777,85.21731583025017L77.3596388888889,84.42384674722514L77.52694895833334,84.05155582250262L77.6786623263889,83.9752335735857L78.0331328125,83.06210604956044L78.26424756944445,82.42306836127106L78.43439340277777,81.84731985847728L78.8498328125,81.1786962059629L79.3092265625,80.81318075203326L79.4978048611111,80.26358142682993L79.6183248263889,79.61566495081362L80.08055434027779,79.21802137239892L80.36554861111111,78.2185171518257L80.470471875,77.86680293664313L80.87456822916667,77.28389972631214L81.39634878472222,76.78829517034758L81.55373368055557,76.60135940331281L81.55940520833333,75.90875471298155L82.1931984375,75.12635632501672L82.28677864583334,75.53041444251505L82.40871649305555,75.09830424826353L82.52781857638888,74.44697799010385L82.92766128472222,73.87688644109346L83.20556614583333,73.28476863031743L83.46787430555557,72.67393343395236L83.54727569444445,72.36042759055711L84.1101748263889,72.23953899816807L84.45755590277778,71.89682884835125L84.98926163194444,71.5062813801828L85.53231041666666,71.31384282549784L85.5464892361111,70.70576895961473L86.13774600694444,70.3026837303199L86.23416197916666,70.13423827395458L86.5574390625,70.08932902989245L86.57587152777778,69.78488571023654L87.03526527777778,69.47315130587954L87.49465902777777,69.32706117529159L87.54144913194445,68.96560297442909L87.58823923611111,68.97253434365285L87.88883020833333,68.69753924262089L88.05755815972222,68.83526448502548L88.2674046875,68.57694636985626L88.56515989583333,68.49196006620396L88.5963532986111,68.40748280958354L89.08694045138888,67.78263036195851L89.10820868055555,67.580531909096L89.47969375000001,67.33362038485306L89.60304947916667,67.02412917970109L89.79446354166667,66.75296209506432L90.04401076388889,66.83513255222455L90.20139565972222,66.86717138033544L90.56295555555556,66.69417715896854L90.62250659722223,66.4911594430717L91.02234930555555,66.34089349876452L91.09040763888889,66.29980831555473L91.43069930555555,66.0951733173326L91.59517361111111,65.87007056893265L91.61360607638889,65.49047809537274L91.72420086805556,65.44900736916878L92.06449253472222,65.18268996558525L92.15949062499999,65.14188346902672L92.64015260416666,64.96073053879071L92.64582413194445,64.65363456824497L92.94074357638888,64.69449611142046L93.09387482638888,64.5907777502784L93.44409166666667,64.48132914191724L93.52774670138889,64.58944831105886L93.6425951388889,64.24388681328631L94.09348159722222,64.23648563195768L94.93853923611111,64.07703915209524L95.01226909722222,64.01822690355236L95.38517204861111,64.09546462986381L95.52412447916667,63.903043166877424L95.62762986111112,63.59760551685635L95.7708359375,63.2949324651707L96.06150173611111,63.30646421865363L96.17493229166668,63.2783698801216L96.61872934027777,63.07817455877611L96.8937984375,63.09454251956515L96.9802892361111,63.077192434275304L97.52617378472222,62.92600027418109L97.86930121527777,62.69749399676297L98.21242864583333,62.58464043042001L98.88592256944445,62.26280555404469L99.0603220486111,62.14732708197354L99.32263020833334,62.12894645710952L99.38785277777778,62.13883097806524L99.56508802083333,61.89255204692539L99.87560416666666,61.97462809223285L100.02448177083333,61.94389444967622L100.25134288194445,61.75091125470858L100.5788736111111,61.70333887923772L100.65827499999999,61.70612582464727L100.77879496527778,61.65430490884923L101.29348611111111,61.49937650129763L101.33035104166667,61.279061767834534L101.54019756944444,61.22200975771776L101.8705640625,61.072698365279294L101.93578663194445,61.1086806120847L102.24063125,61.16700005087624L102.57950503472222,61.17867921245528L102.94957222222222,61.128100874543065L103.32531093749999,60.87915328708877L103.4174732638889,60.73413587504655L103.46851701388889,60.66618478754188L104.76304322916666,60.655424642121034L105.31601718750001,60.54458009457559L105.35146423611111,60.5119325017847L105.71727777777778,60.242493418272886L105.85623020833333,60.26230240977894L106.10010590277777,60.256284668801044L106.32838489583334,60.18805828525427L106.55241024305556,60.05978787339551L106.78494288194443,60.10819241938928L106.81613628472222,60.09251067745035L106.96501388888889,60.02480544303866L107.29821614583334,59.98796239873478L107.46836197916666,59.83766407552798L107.70373038194445,59.948228917975186L107.96887430555556,59.87639144284435L108.23260034722222,59.76687313189325L108.34319513888889,59.59148373537057L108.60266753472223,59.566137445166845L108.93728767361111,59.59888411731683L108.98124201388889,59.67248320558514L109.38108472222223,59.555084885026616L109.84047847222223,59.4131659798573L110.09853298611111,59.32292854853823L110.37643784722222,59.09310861035107L110.42464583333333,59.01828316598261L110.71814739583334,58.9189819327177L110.93791909722222,58.786712906112584L111.04000659722223,58.757399948834646L111.45828177083332,58.681605787284525L111.66387465277778,58.70693062522275L111.9517046875,58.522239646033796L112.12752204861111,58.50978651476373L112.47064947916667,58.462932863287364L112.5897515625,58.47103749362529L112.68474965277777,58.47083374426278L113.05056319444444,58.48957953650316L113.087428125,58.55672366618619L113.19518715277778,58.38717629956754L113.5950298611111,58.13194825294413L113.60637291666666,58.05281592764972L114.18486875,58.044530168218074L114.50956371527776,58.05747715139627L114.63291944444444,58.15467943625664L114.65276979166666,58.03541565929764L115.07388072916667,58.0771761767012L115.13626753472222,58.14266272569775L115.21425104166667,58.39089228646131L115.72043489583334,58.1430363911485L115.73177795138888,58.12314733536698L116.05789079861111,58.30093051849694L116.15856041666666,58.47654579998057L116.5357170138889,58.69814746998253L116.69026614583333,58.660482722984256L116.7498171875,58.62756778401916L117.16242083333334,58.73106308895056L117.64166493055555,58.75709636338884L117.78345312500001,58.560751310383296L118.21023559027778,58.33401367934498L118.49381197916667,58.29244564474379L118.72918038194445,58.16850108026941L118.82134270833333,57.997950972242464L119.20275295138889,58.17288920835155L119.20700659722222,58.06471070418306L119.63804270833333,57.88868338376477L119.85781440972221,57.43759421205493L120.11161527777777,57.169157707516106L120.2718359375,57.13320443676449L120.55966597222222,56.9910819097547L120.9736875,56.846700802112565L121.34233680555556,56.69745988856798L121.37211232638889,56.693557649711195L121.74359739583333,56.53959563474005L122.43694166666667,56.51091732126605L123.31319270833333,56.39500892247277L123.48617430555556,56.39492469689215L123.55281475694444,56.27475931053627L123.80661562499999,56.19660212948264L123.95549322916668,55.94090233320105L124.44608038194445,55.96619334988094L124.5751076388889,55.78515943155951L124.67719513888889,55.615468488403565L125.43292621527777,55.588367472896536L125.57613229166667,55.65714739227356L125.64702638888889,55.39639306971287L125.90933454861111,55.674645429408244L126.58708211805556,55.65527046980074L126.60835034722223,55.605260089487345L126.869240625,55.23366116387194L127.43639340277778,55.21044713081808L127.50161597222223,54.969164917736265L127.79228177083334,55.00571092596263L127.88019045138888,55.177006500033045L127.88444409722221,55.01626001669639L128.03899322916666,54.99032568169342L128.59480295138889,55.01811811352408L128.6018923611111,55.16961255217166L129.0414357638889,54.83223671362116L129.54903750000003,54.69625679225905L129.61567795138888,54.49127486303314L129.6695574652778,54.40967237672983L129.8581357638889,54.581940555723506L129.9474623263889,54.501227750151145L130.0438782986111,54.39638205846937L130.14171215277779,54.42567510262245L131.25049583333333,54.422907592360175L131.77369427083332,54.022781416457505L131.81197708333332,53.87519077481174L131.8814532986111,53.78046336399724L131.88570694444442,53.952596194264174L132.1366720486111,53.70164490817109L132.17353697916667,53.724695000687305L132.31390729166665,53.70278800061857L132.69957118055555,53.40823003389005L132.73927187500001,53.493809113834374L133.37873663194443,53.54305111911759L133.99835104166667,53.468754340539164L134.04514114583333,53.69418307315192L134.04939479166666,53.56531684917006L134.28192743055556,53.698858080919706L134.42938715277776,53.44685352282774L134.4393123263889,53.28384317054497L134.71154565972222,53.15495677015714L134.84908020833333,53.11590484314142L135.71115243055556,52.89687477549394L136.11241302083334,52.99929563127789L136.2159184027778,52.84760773481676L136.24285815972223,52.9387302946684L136.35487083333334,52.546159348534886L136.43994375,52.46375383034807L136.62426840277777,52.46887011397993L136.67673003472223,52.28971435258194L136.93194878472224,52.45346583399041L137.10776614583332,52.29994216725805L137.96274895833332,52.05716878386558L138.37393472222223,51.92766440547901L138.45475399305553,51.79783546493111L138.4717685763889,51.49747483510467L138.5937064236111,51.582748184927524L138.8489251736111,51.57664836643477L139.0204888888889,51.72296061312461L140.16188385416666,51.48392496847883L140.65247100694444,51.507742888297614L140.83821354166665,51.3219415161345L140.86373541666669,51.08908278118773L141.07358194444444,50.93174950306896L141.11044687499998,50.88528705276207L141.23663836805554,51.042595847485856L141.49185711805555,51.07440917940394L142.35392934027777,51.072680761463545L142.7495184027778,50.635385601983856L142.7821296875,50.74061579178547L142.89272447916665,50.73625212927358L143.0245875,50.747566499679564L143.16353993055557,50.39575984971161L143.43151961805557,50.39060469807377L143.68248472222223,50.16201089493305L144.6197046875,50.27880980543975L145.00253281250002,50.09679549156243L145.15282829861113,49.874474275739516L145.21237934027778,49.917268514832244L145.2223045138889,50.324287496682345L145.27193038194443,50.28202958034743L145.4108828125,50.22629745564602L145.6689373263889,50.31786146008142L145.81214340277776,50.135875314073274L146.8145859375,50.48551069933261L147.25412934027779,50.27766379606602L147.29524791666668,50.33655783312608L147.439871875,50.52821246648014L147.46114010416667,50.24000996983213L147.48524409722222,50.40481313951558L147.8865046875,50.258504742230684L147.97583125,50.38347718467428L149.1073010416667,50.33591488287351L149.27744687499998,50.34448797791951L149.40647413194444,50.03520168012756L149.54684444444445,49.89782942878146L149.72549756944446,49.894775652569976L149.7467657986111,49.8427376706463L149.8162420138889,49.82306807024834L149.90415069444444,49.78631334655685L150.12392239583335,49.737500761901146L150.15653368055555,49.71852151904437L151.34046510416667,49.542140200473256L151.5035215277778,49.206888680425934L151.75732239583334,48.94474147905001L151.8991105902778,48.92206941447833L152.02530208333334,48.7480187230305L152.1132107638889,48.54503351739413L152.12171805555556,48.85671766565471L152.2252234375,48.73787714908926L152.46059184027777,48.41925818418031L153.58213645833334,48.2566469490956L154.02876927083335,47.817755170852735L154.11242430555555,47.560173403767436L154.3619715277778,47.581681063390675L154.41443315972222,47.262279623718285L154.46547690972224,46.83297249467978L154.75330694444443,46.58438566187846L155.93014895833332,46.27559917902397L155.9485814236111,46.090001761121584L156.47036197916665,45.929970335009415L156.48028715277778,45.677898301508435L156.51715208333331,45.42829388802426L156.56961371527777,45.32115824922187L156.6589402777778,45.37321950763297L156.81207152777776,45.131589223536366L157.09423003472222,44.93219071784938L158.16614878472222,44.974104979397765L158.29517604166665,44.50725489812464L158.68367569444442,44.45497940831217L158.70494392361113,44.85338146748097L158.71770486111112,44.681066237399534L158.822628125,44.75620544699291L158.94881961805555,44.747499485626946L159.04098194444444,44.65435995373093L159.39828819444443,44.5694281250245L160.33834392361112,44.60164781252203L160.42625260416668,43.90752678126981L160.49856458333335,43.83655743647617L160.90975034722223,43.82879648449523L161.04161336805555,43.87263766937903L161.1422829861111,43.60123848577447L161.18481944444443,43.552662553863684L161.25429565972223,43.83467338181063L161.66264565972224,44.16198729362958L162.47367413194445,44.306980230933306L162.70053524305555,44.18660095783994L162.7983690972222,43.872374195389284L163.1556753472222,43.34459719251703L163.2350767361111,43.138662473265356L163.28186684027776,43.15551914260544L163.416565625,43.266442228344914L163.544175,43.292891755510425L164.06311979166668,43.20840674662605L164.67422690972222,43.257868155296734L164.9294456597222,43.017462589767064L165.06414444444442,42.89144133079037L165.13362065972223,42.528255531044664L165.56465677083335,42.25596331127355L165.76883177083332,42.09116489681284L165.82129340277777,41.71016507379821L165.82838281250002,41.803004816418394L166.39269982638888,41.8429251681099L166.97970295138887,41.49940973463225L167.02932881944446,41.50368334450235L167.5383484375,41.37293584338545L167.89140104166668,41.018894342380236L167.97647395833334,40.520306991475536L168.1097548611111,40.37690337566133L168.1919920138889,40.448808871428525L168.79033819444444,40.29768215095234L168.94346944444445,40.414138935857096L170.03523854166667,40.13938337560472L170.17986249999998,39.96327212137757L170.3741123263889,39.904703242573135L170.42940972222223,39.70006625164916L170.43649913194443,39.51294295981759L170.5314972222222,39.52005699716915L170.89589288194443,39.62860338078556L171.16103680555557,39.60866387604034L171.56655104166668,39.36700998843628L171.634609375,39.46750690625933L172.44563784722223,39.58733121563341L172.44705572916666,39.26619392740341L172.65832013888888,39.02117453466306L172.87100243055554,39.325142497863396L172.92204618055555,39.27667199807706L173.59979375,38.905106881602705L173.8833701388889,39.09297119344242L173.98403975694444,38.71543865743155L174.78088940972222,38.7615562500217L175.00207899305556,39.01097562501954L175.09565920138888,38.88489472918425L175.32960972222222,38.64149900626583L175.34378854166667,38.1592782723059L176.0725798611111,38.56922544507529L176.83540034722222,38.314129983901125L177.18561718750001,38.13875031884433L177.2820331597222,38.4025127869599L177.4493432291667,38.45294275826393L177.67762222222223,38.46120889910421L177.6932189236111,38.46446925919372L178.80342048611112,38.573972333274384L179.30109704861113,38.7087855166136L179.60735954861113,38.53560904828558L179.67258211805557,38.16993147679034L179.75623715277777,38.309748745777995L180.11070763888887,38.09264678786684L180.4680138888889,38.34995710908018L180.6849498263889,38.445590564838824L180.75442604166668,38.45618984168826L180.95860104166667,38.16458335751943L181.5697081597222,38.393066688434146L182.0446986111111,38.17832668625741L182.0957423611111,38.02377943429832L182.30842465277777,38.1629702408685L182.48991354166665,38.13816071678167L182.77490781249998,37.70873214510348L183.11378159722221,37.2854943472598L183.25698767361112,37.61553032920048L183.8539159722222,37.633296046280435L184.38278593750002,37.67964560831908L184.39129322916668,37.60434354748716L184.43808333333334,37.31261752607176L184.68337690972223,37.23394744013123L184.69755572916668,37.0886568627848L184.86061215277778,37.10158492650632L184.99105729166666,36.98526393385569L185.46888350694445,36.93269170713677L185.52418090277777,36.94744961975644L186.13103437499998,36.703958824447454L186.5776671875,36.680131692002675L186.73221631944443,36.38458310613575L186.81728923611112,35.971581045522186L187.05123975694445,36.12030835763662L187.2256392361111,36.31943168853962L187.23698229166666,35.91294476968565L187.83107482638889,36.05757945938376L187.8565967013889,35.923848596778726L188.45068923611112,35.881542903767524L188.5556125,35.88304694672411L189.0788109375,35.653194335384995L189.14686927083332,35.60120198517984L189.26171770833335,35.96409011999518L189.44037083333333,35.44072069132898L189.58215902777778,35.12259653886278L190.1790873263889,35.37379938497648L190.25848871527776,35.109690279812156L190.54490086805555,35.20939833516428L190.7632546875,35.71188975164782L191.55585069444444,35.53406119314974L191.70331041666665,35.59588007383479L191.83942708333333,35.63221914978459L191.91315694444447,35.74273056813948L192.11166041666667,35.53821792799221L192.48172760416665,35.716146135192986L192.7227675347222,35.42726693834035L193.09425260416668,35.71646732783964L193.9123704861111,35.08830601172235L194.0966951388889,35.22948582721679L194.1165454861111,35.1734018278284L194.22288663194445,35.43882206171227L194.40721128472222,35.395975272207664L194.46676232638887,35.431408994986924L195.05943697916666,35.59064101215489L196.14978819444445,35.769718577606085L196.43052881944445,35.50473630317879L196.5184375,35.704081422860924L196.52836267361113,35.35740869724151L196.9367126736111,34.99758866085068L197.50670121527776,34.88799437809894L197.7335623263889,34.74535535695571L198.29646145833334,34.501684404593476L198.60130607638888,34.67313263080081L198.6977220486111,34.91716520105402L198.8565248263889,35.02678409761532L198.95719444444444,34.67544318785377L199.60800225694445,34.29765511906837L199.89583229166666,34.2516625238282L199.9766515625,34.365021271445386L200.21769149305558,34.34154622763418L200.88551388888888,34.107527021537436L200.9209609375,34.01601598605035L200.93513975694447,34.11004147077861L201.1988657986111,34.24678107370079L201.3137142361111,34.13913213299736L201.70221388888888,34.042985586364296L201.9475074652778,33.781912027727884L202.13466788194444,34.386220824955075L202.34593229166666,34.33837790912622L203.230690625,34.39604949321361L203.62202604166666,34.35459871055892L204.12820989583332,34.322947172836365L204.15656753472223,34.29888578888608L204.26858020833333,34.259407626664114L204.57342482638887,34.327987697331054L204.65566197916667,34.403107677597944L205.36743871527779,34.37705315983814L205.58295677083333,34.19516451052098L205.64959722222224,34.16581264280222L206.0565293402778,34.48626679518864L206.0735439236111,34.34913803233644L206.08772274305554,34.271815895769464L206.5641310763889,34.25237597285917L206.87181145833333,34.44383837557325L207.0022565972222,34.371919121349265L207.671496875,34.140762625880996L207.85015,34.02871969662621L208.07417534722222,34.08103522696359L208.18902378472222,33.633748370933915L208.44140677083334,33.86998811717385L209.0269920138889,33.73942055545646L209.20422725694445,33.74851391657748L210.0294345486111,33.73543335825306L210.16696909722222,33.86956293909441L210.17831215277778,33.90472956185161L210.39383020833333,33.96120868899979L210.85322395833336,33.92550657009983L210.8574776041667,33.73591841308982L211.05739895833332,33.496947405114184L211.50970329861113,33.07979849793608L211.81454791666667,32.95892489814247L212.13924288194443,32.97489907499491L212.5050564236111,32.986080000828764L212.6837095486111,33.79694491741253L213.2253404513889,33.98232542567126L213.30332395833332,33.902719966437445L213.71309184027777,33.794937553127056L213.88040190972222,33.8741958811477L214.07606961805556,33.617832543032904L214.28024461805555,33.380468038729646L214.84314375,33.24427748485667L214.9934392361111,33.40822473637101L215.6031284722222,33.80652726273388L215.68678350694444,33.45736828646051L215.71939479166664,33.176312707814446L216.04125399305556,33.177308520366324L216.07953680555556,33.38630266832968L216.67788298611111,33.33470990149675L217.19115625,33.364853494680375L217.40667430555555,33.142216061879L217.8859184027778,33.43498403902444L218.05748211805556,33.41847105178866L218.10427222222222,33.40692811327648L218.21628489583333,33.335326968615504L218.2800895833333,33.329885938420574L218.55090503472223,33.61396609457853L219.06559618055556,33.27754865178733L219.12089357638888,33.03156045327529L219.52498993055556,32.86757315794776L219.78729809027777,32.71347000881963L220.04109895833332,32.72485842460432L220.23534878472222,32.58183091547724L220.42392708333335,32.83967907392949L220.58981927083332,32.73728616653656L220.80959097222222,32.94935129988286L221.2618953125,32.87864325322792L221.44905572916667,33.30261642790512L221.8162871527778,33.42545270178127L221.95523958333334,33.60508451493649L222.56634670138888,33.483061480109484L222.79887934027778,33.42769283209853L222.8626840277778,33.529786048888695L222.94208541666669,33.29040952733317L223.23133333333334,33.068333157933154L224.11042013888888,33.085658175473185L224.44362239583333,33.19331527459252L224.85906180555554,33.021019163799934L225.1468918402778,32.842106830753295L225.179503125,32.37993989767796L225.32270920138888,32.68403549124349L225.58076371527775,32.2971673587858L225.6034498263889,32.53234853957389L225.86717586805554,32.309132435616476L226.2287357638889,32.28425460872151L226.404553125,32.28263748118269L226.76753090277776,32.69307581639774L227.20991006944445,32.34156406809129L227.40841354166668,32.317868077948845L227.54736597222222,32.37299585348728L227.78415225694445,32.52364835147188L227.82101718750002,32.488012682991354L227.9075079861111,32.622000998025555L227.97556631944445,32.883084231556325L228.5895092013889,33.2398695584007L228.76674444444444,33.12474510256061L229.12688645833333,33.33358725897122L229.54374375,33.27300769974079L229.64866701388888,33.49738401310003L229.8145592013889,33.46000394512336L230.11089652777778,33.18741188394438L230.3760404513889,33.08871861221658L230.9190892361111,33.27670300099493L231.11617482638889,33.42241186756209L231.51743541666667,33.499220680805905L231.7074315972222,33.497548612725325L231.92862118055555,33.33108958478613L232.32846388888888,33.24654520964083L232.56525017361113,33.185819855343425L232.78360399305555,32.90278786980906L233.31956336805555,32.96629033282818L233.72365972222224,32.66526338287869L233.86686579861112,32.52327871125746L234.13342760416666,32.51890084013172L234.21282899305555,32.665533672785216L234.52334513888889,32.94918238884L235.1741529513889,32.91807039995601L235.69735138888888,32.96086960996038L235.70869444444446,32.86872848229771L236.19077430555555,32.975461884067926L236.3906956597222,32.84658444566111L236.48285798611113,32.93045725109499L237.430003125,33.056461525985526L237.61716354166668,32.871054956720315L237.71074375,32.49314112771489L238.08790034722222,31.921689514943438L238.1290189236111,31.769249730115746L238.5458762152778,31.840766423770845L238.6834107638889,31.997380406393745L239.11019322916667,31.650046532421044L239.55682604166665,31.69353562917891L239.59085520833332,31.957736232927687L239.85032760416667,31.768995942968246L240.00487673611113,31.86167968200479L240.3522578125,32.12959296380427L240.88679930555557,32.25873783409051L240.96336493055557,32.20694113401481L240.9874689236111,32.255584520613326L241.5971581597222,31.871367735218655L241.92185312499998,31.707120545030108L242.31035277777775,32.087348073860426L242.38408263888888,31.9875445164744L242.59676493055554,31.97884631482694L242.89310225694445,32.52881376667759L243.1667534722222,32.78176155667646L243.25040850694444,32.630093734342154L243.3695105902778,32.59585936090795L243.53540277777776,32.33138384148384L243.68428038194446,32.26126004066879L244.75336336805557,32.29721945326855L244.77888524305556,32.119026674608364L244.95895625,32.01126150714754L245.00574635416666,31.498077023099427L245.00716423611112,31.428929737456173L245.00858211805556,31.221532597043904L245.01,31.226748087339473L245.01141788194445,31.181169111938857L245.0128357638889,31.608829284078325L245.01425364583332,31.738794272337145L245.01567152777778,32.03005859510341L245.01708940972222,32.06295690225974L245.01850729166665,31.790436212033768L245.0199251736111,31.741219674163716L245.02276093749998,31.655993540080686L245.02417881944444,31.74412126940595L245.0255967013889,31.544661225798706L245.0270145833333,30.956572186552137L245.02843246527777,31.096081634563603L245.02985034722224,31.09503597110725L245.03126822916664,31.284246957329884L245.03693975694443,31.2148493449302L245.0383576388889,31.23339357710384L245.03977552083333,31.452895886060134L245.04119340277776,31.342172964120806L245.04402916666666,31.33876608437538L245.0454470486111,31.335208225937805L245.04686493055556,31.14713948667739L245.0482828125,31.33114012134297L245.04970069444445,31.574669859208655L245.05253645833332,31.982032039954476L245.05395434027778,31.73137050262571L245.05537222222222,31.98133970236313L245.05679010416668,31.765041148793472L245.0582079861111,31.57823911724745L245.05962586805555,31.5658527055227L245.06104375,31.741292434970433L245.06246163194444,31.673636108140045L245.0638795138889,31.998457913992723L245.06529739583334,31.811053789260143L245.06671527777777,31.674717160334126L245.06813315972224,31.336295444300674L245.06955104166667,31.29340548320394L245.0709689236111,31.295244101550196L245.07238680555557,31.166607191395173L245.0738046875,31.220090222255692L245.07522256944443,31.228891616696757L245.0766404513889,31.271352455027085L245.07805833333333,31.437400542857716L245.07947621527777,31.34813965523861L245.0823119791667,31.26473193971475L245.0837298611111,31.272879579076573L245.08514774305556,31.080964537835598" style="fill: none;" fill="none"></path></g></g></g></g><g opacity="0.2"><g><g><g><path stroke="rgb(255, 112, 67)" stroke-width="2px" d="M28.79151076388889,149.74445833333334L28.812778993055556,149.13110416666666L28.831211458333335,148.9344375L28.838300868055555,148.23258333333334L28.846808159722222,148.01625L28.87658368055556,148.59395833333332L28.882255208333333,148.053125L28.890762499999997,147.87366666666668L29.440900694444444,149.188875L29.447990104166667,148.2116875L29.47209409722222,149.12864583333334L29.49619809027778,148.1453125L29.53164513888889,148.36164583333334L29.541570312500003,147.441L29.57559947916667,148.156375L29.609628645833336,147.73354166666667L29.69895520833333,147.4520625L29.704626736111113,146.9948125L30.132827083333332,148.56814583333335L30.181035069444444,147.32054166666666L30.186706597222223,148.20677083333334L30.22782517361111,148.25839583333334L30.229243055555557,147.522125L30.29162986111111,147.625375L30.426328645833333,148.64558333333332L30.826171354166668,148.25102083333334L30.84035017361111,148.503L30.8942296875,148.59027083333334L30.924005208333334,149.2589375L31.011913888888888,147.5774375L31.102658333333334,148.14777083333334L31.16504513888889,148.19570833333333L31.173552430555556,148.24733333333333L31.257207465277776,147.69789583333335L31.532276562499998,147.36725L31.54220173611111,148.33460416666668L31.706676041666668,148.88035416666668L31.70809392361111,147.11404166666665L31.804509895833334,149.10652083333332L31.878239756944446,146.9726875L31.87965763888889,148.1379375L32.079578993055556,145.6304375L32.252560590277774,148.23627083333332L32.322036805555555,147.15460416666667L32.400020312500004,148.975L32.41419913194445,148.5509375L32.530465451388885,147.581125L32.62262777777778,148.56691666666666L32.65949270833333,148.27314583333333L32.848071006944444,147.42010416666668L32.98418767361111,147.5479375L33.032395659722226,147.01447916666666L33.06500694444445,146.8399375L33.130229513888885,148.4108125L33.20679513888889,147.08577083333333L33.23940642361111,147.6733125L33.4208953125,147.40166666666667L33.443581423611114,147.7028125L33.62081666666667,147.25539583333332L33.66902465277778,147.95970833333334L33.79238038194445,148.18095833333334L33.81081284722222,148.54479166666667L33.850513541666665,146.9505625L33.999391145833336,147.50245833333332L34.2375953125,147.73477083333333L34.27446024305556,148.03714583333334L34.400651736111115,147.3525L34.429009375,148.1600625L34.49848559027778,148.74022916666667L34.565126041666666,148.45997916666667L34.726764583333335,148.29404166666666L34.86571701388888,148.18710416666667L35.014594618055554,147.4741875L35.04437013888889,146.60025L35.12093576388889,148.46735416666667L35.16630798611111,147.75935416666667L35.33220017361111,145.76933333333335L35.4116015625,146.2905L35.45980954861111,146.76004166666667L35.48533142361111,147.8355625L35.63704479166667,147.035375L35.781668749999994,147.10297916666667L35.82845885416667,147.15460416666667L35.95323246527778,147.0464375L36.07800607638889,148.52758333333333L36.120542534722226,146.38883333333334L36.14748229166667,145.36985416666667L36.259494965277774,146.31508333333335L36.33747847222222,146.00041666666667L36.419715624999995,145.90454166666666L36.63239791666667,145.50875L36.689113194444445,144.7601875L36.80254375,145.94633333333334L36.91881006944445,145.28504166666667L36.921645833333336,146.41833333333332L36.938660416666664,144.9888125L37.10738836805555,143.35525L37.168357291666666,144.00670833333334L37.24350503472222,143.982125L37.494470138888886,141.78191666666666L37.51006684027778,143.27658333333335L37.51857413194445,142.02529166666667L37.66886961805555,141.2423125L37.76386770833333,141.90729166666665L37.79647899305556,141.99702083333332L37.856030034722224,141.636875L37.89856649305556,141.61966666666666L37.99640034722222,141.6626875L38.054533506944445,140.86372916666667L38.340945659722216,139.82877083333332L38.35370659722223,140.55275L38.54653854166666,139.7083125L38.59474652777778,138.97327083333334L38.82586128472222,139.2805625L38.91518784722222,138.6315625L39.205853645833336,138.170625L39.329209375,137.69125L39.48517638888889,136.98816666666667L39.655322222222225,137.22416666666666L39.686515625,137.0606875L39.741813020833334,136.253125L39.86942239583333,135.0178125L39.92046614583334,135.25872916666668L40.13598420138889,135.43327083333332L40.36000954861111,134.99322916666665L40.452171875,134.80885416666666L40.605303125,132.6996041666667L40.71873368055555,132.94912499999998L40.79246354166666,134.13404166666666L40.92149079861111,133.36827083333333L40.948430555555554,133.35352083333333L41.11715850694444,132.55579166666666L41.36528784722222,133.7493125L41.44043559027778,132.43779166666667L41.59640260416667,132.95404166666668L41.76371267361111,133.53175L41.824681597222224,130.8214375L41.984902256944444,132.00020833333332L42.03311024305555,131.94735416666666L42.48541458333334,131.15822916666667L42.56339809027777,130.803L42.696678993055556,130.3936875L42.82712413194445,131.25410416666665L42.939136805555556,129.27514583333334L42.976001736111115,129.95487500000002L43.153236979166664,129.564L43.37300868055556,129.74960416666667L43.63248107638889,129.66602083333333L43.6806890625,129.23950000000002L43.95575815972222,128.71095833333334L43.9869515625,129.04037499999998L44.107471527777776,128.597875L44.20814114583333,129.15345833333333L44.41798767361111,128.50691666666665L44.425077083333335,128.5130625L44.5229109375,129.04283333333333L44.83626284722222,127.8345625L44.942603993055556,127.27283333333332L45.122675,127.4510625L45.19498697916667,127.535875L45.56363628472222,128.42702083333333L46.20168315972222,128.18979166666668L46.2328765625,127.963625L46.43421579861111,128.7269375L46.48242378472222,128.50322916666667L46.59301857638889,128.9850625L46.81562604166667,128.0853125L46.872341319444445,127.99927083333333L47.27643767361111,128.39997916666667L47.37710729166667,127.65633333333332L47.48911996527778,127.61945833333334L47.73157777777778,128.325L47.78545729166667,128.5794375L47.9683640625,127.28266666666667L47.97119982638889,128.568375L47.98821440972222,129.87866666666667L48.45044392361111,128.99489583333335L48.73260243055555,126.74060416666667L48.74536336805556,128.37416666666667L48.755288541666665,127.82472916666666L48.85170451388889,129.6414375L48.93535954861111,127.13516666666666L49.027521875,125.1648125L49.13811666666667,127.63052083333332L49.61877864583333,128.60770833333333L49.909444444444446,128.325L49.97608489583333,127.51374999999999L49.995935243055555,128.1738125L50.06966510416667,126.48247916666666L50.30928715277778,127.01839583333333L50.31212291666667,126.82541666666665L50.37309184027778,126.67422916666666L50.38159913194445,126.555L51.18837395833334,127.97222916666666L51.21389583333333,125.73514583333333L51.279118402777776,127.11058333333332L51.31881909722222,126.2120625L51.49889010416667,127.2003125L51.559859027777776,126.52181250000001L51.595306076388894,127.54570833333332L52.23618871527778,128.3065625L52.42334913194445,125.60116666666667L52.47013923611111,125.43891666666667L52.49282534722222,126.71479166666666L52.64312083333333,124.30562499999999L52.685657291666665,125.58764583333334L52.73244739583333,127.52727083333333L52.74237256944445,125.03083333333333L52.806177256944444,126.69389583333333L52.90542899305556,125.5261875L53.564744097222224,125.15252083333334L53.763247569444445,125.3455L53.798694618055556,124.45435416666666L53.91070729166667,125.05910416666666L53.922050347222225,125.08122916666667L54.09077829861111,123.67014583333334L54.23823802083333,122.82079166666666L54.29495329861111,121.58179166666666L55.083295659722225,123.02729166666667L55.212322916666665,123.759875L55.257695138888884,122.42377083333334L55.30732100694445,121.99479166666666L55.35127534722222,122.7974375L55.658955729166664,121.63095833333334L55.67313454861111,123.20797916666666L56.479909375,121.27941666666666L56.563564409722225,122.343875L56.60326510416667,121.61252083333333L56.608936631944445,121.724375L56.657144618055554,123.15389583333334L56.689755902777776,122.05932291666667L57.056987326388885,121.52279166666668L57.12079201388889,119.59422916666668L58.15017430555555,120.2604375L58.15868159722223,119.47622916666666L58.28770885416667,115.912875L58.619493229166665,118.56172916666667L59.31709114583333,117.7013125L59.416342881944445,118.09464583333335L59.548205902777774,120.33541666666667L59.56238472222222,115.38433333333333L59.63469670138889,116.44264583333333L59.651711284722225,119.7294375L59.692829861111115,114.31741666666667L59.860139930555555,114.81154166666667L60.0657328125,114.42558333333334L60.13946267361111,114.87545833333334L61.02847465277778,113.99783333333333L61.08802569444444,115.55641666666666L61.102204513888886,115.99522916666666L61.218470833333335,112.44170833333334L61.30921527777778,111.91808333333333L61.63674600694444,112.9518125L61.84659253472222,109.81989583333333L62.59948784722223,112.18604166666667L62.616502430555556,110.74177083333333L62.65053159722222,110.14070833333334L62.65478524305555,110.83149999999999L62.739858159722225,110.49839583333333L62.768215798611116,107.75858333333333L63.063135243055555,109.99566666666666L63.08298559027777,110.54879166666667L63.31835399305556,110.27222916666666L63.51260381944444,109.18195833333333L64.23005208333333,107.19316666666667L64.32079652777777,104.86512499999999L64.38176545138889,107.74875L64.40870520833334,106.36347916666666L64.74190746527778,107.69466666666666L64.78302604166667,105.1121875L65.23958402777777,106.02054166666666L66.04352309027779,105.05318749999999L66.10590989583334,101.66683333333333L66.28881666666666,102.36008333333334L66.3951578125,101.29316666666666L66.50149895833333,102.1990625L66.58090034722221,98.94054166666668L66.71843489583334,98.95652083333333L67.1352921875,100.06522916666667L67.85415833333333,98.46485416666667L67.86833715277778,98.32595833333333L67.97751406249999,93.6588125L68.04557239583333,97.03041666666667L68.08527309027778,95.5763125L68.34190972222223,97.2873125L68.38444618055556,94.37418749999999L68.39437135416667,91.5975L68.72331996527778,90.62154166666666L69.12032690972222,90.33022916666667L69.7257625,92.88566666666667L69.86046128472222,94.90764583333333L69.8689685763889,92.04L69.94553420138888,92.276L70.02635347222223,95.43004166666667L70.17664895833335,95.21370833333334L70.30425833333334,93.02825L70.35955572916667,91.99820833333334L70.69275798611112,90.7383125L71.06991458333333,93.26670833333334L71.63848524305556,90.5170625L71.74057274305555,88.78762499999999L71.7831092013889,87.95179166666667L71.89370399305557,86.02814583333333L71.96601597222222,88.47664583333334L72.20422013888889,93.11183333333334L72.4211560763889,84.73997916666667L73.15136527777778,87.89647916666667L73.57814774305557,85.51681250000001L73.5824013888889,85.70979166666666L73.73127899305555,86.80006250000001L73.89433541666666,82.12554166666666L74.03045208333333,82.34679166666666L74.11552499999999,83.91889583333332L74.45439878472222,85.96914583333334L74.74648246527778,81.20366666666666L75.519228125,81.26881250000001L75.55609305555555,83.40264583333332L75.80422239583334,84.7203125L75.82690850694445,84.23356249999999L76.04384444444443,86.06133333333334L76.21682604166666,80.74764583333332L76.40115069444444,84.43883333333333L76.74994965277777,85.0300625L77.3596388888889,77.28262500000001L77.52694895833334,80.7009375L77.6786623263889,83.28833333333333L78.0331328125,74.84395833333335L78.26424756944445,76.67172916666667L78.43439340277777,76.66558333333333L78.8498328125,75.16108333333334L79.3092265625,77.52354166666666L79.4978048611111,75.3171875L79.6183248263889,73.78441666666667L80.08055434027779,75.63922916666668L80.36554861111111,69.22297916666668L80.470471875,74.701375L80.87456822916667,72.03777083333333L81.39634878472222,72.32785416666665L81.55373368055557,74.91893750000001L81.55940520833333,69.6753125L82.1931984375,68.08477083333334L82.28677864583334,79.16693749999999L82.40871649305555,71.2093125L82.52781857638888,68.58504166666667L82.92766128472222,68.74606250000001L83.20556614583333,67.95570833333333L83.46787430555557,67.17641666666667L83.54727569444445,69.53887499999999L84.1101748263889,71.15154166666667L84.45755590277778,68.81243749999999L84.98926163194444,67.99135416666667L85.53231041666666,69.58189583333333L85.5464892361111,65.23310416666668L86.13774600694444,66.67491666666666L86.23416197916666,68.61822916666667L86.5574390625,69.68514583333332L86.57587152777778,67.04489583333334L87.03526527777778,66.66754166666665L87.49465902777777,68.01225L87.54144913194445,65.71247916666667L87.58823923611111,69.03491666666666L87.88883020833333,66.22258333333333L88.05755815972222,70.07479166666667L88.2674046875,66.25208333333333L88.56515989583333,67.72708333333333L88.5963532986111,67.6471875L89.08694045138888,62.158958333333345L89.10820868055555,65.76164583333332L89.47969375000001,65.11141666666666L89.60304947916667,64.23870833333334L89.79446354166667,64.31245833333334L90.04401076388889,67.57466666666667L90.20139565972222,67.15552083333334L90.56295555555556,65.13722916666667L90.62250659722223,64.66399999999999L91.02234930555555,64.9885L91.09040763888889,65.93004166666665L91.43069930555555,64.25345833333333L91.59517361111111,63.84414583333334L91.61360607638889,62.07414583333333L91.72420086805556,65.07577083333334L92.06449253472222,62.78583333333334L92.15949062499999,64.77462500000001L92.64015260416666,63.330354166666666L92.64582413194445,61.88977083333333L92.94074357638888,65.06225L93.09387482638888,63.6573125L93.44409166666667,63.49629166666668L93.52774670138889,65.56252083333334L93.6425951388889,61.13383333333333L94.09348159722222,64.16987499999999L94.93853923611111,62.64202083333332L95.01226909722222,63.48891666666667L95.38517204861111,64.79060416666667L95.52412447916667,62.171249999999986L95.62762986111112,60.84866666666666L95.7708359375,60.570875L96.06150173611111,63.41024999999999L96.17493229166668,63.025520833333346L96.61872934027777,61.27641666666668L96.8937984375,63.24185416666667L96.9802892361111,62.92104166666665L97.52617378472222,61.56527083333333L97.86930121527777,60.64093750000001L98.21242864583333,61.56895833333333L98.88592256944445,59.36629166666667L99.0603220486111,61.10802083333334L99.32263020833334,61.963520833333334L99.38785277777778,62.227791666666675L99.56508802083333,59.67604166666666L99.87560416666666,62.7133125L100.02448177083333,61.66729166666666L100.25134288194445,60.01406250000001L100.5788736111111,61.2751875L100.65827499999999,61.73120833333333L100.77879496527778,61.187916666666666L101.29348611111111,60.10502083333333L101.33035104166667,59.29622916666666L101.54019756944444,60.70854166666666L101.8705640625,59.72889583333334L101.93578663194445,61.43252083333334L102.24063125,61.691874999999996L102.57950503472222,61.28379166666666L102.94957222222222,60.67289583333333L103.32531093749999,58.63862499999999L103.4174732638889,59.42897916666668L103.46851701388889,60.054625L104.76304322916666,60.55858333333333L105.31601718750001,59.54697916666666L105.35146423611111,60.21810416666668L105.71727777777778,57.81754166666667L105.85623020833333,60.44058333333332L106.10010590277777,60.202124999999995L106.32838489583334,59.57402083333332L106.55241024305556,58.90535416666667L106.78494288194443,60.54383333333334L106.81613628472222,59.951374999999985L106.96501388888889,59.41545833333333L107.29821614583334,59.656375L107.46836197916666,58.48497916666666L107.70373038194445,60.943312500000005L107.96887430555556,59.22985416666667L108.23260034722222,58.78120833333334L108.34319513888889,58.01297916666667L108.60266753472223,59.33802083333333L108.93728767361111,59.89360416666668L108.98124201388889,60.33487500000001L109.38108472222223,58.49850000000001L109.84047847222223,58.135895833333336L110.09853298611111,58.51079166666668L110.37643784722222,57.02472916666666L110.42464583333333,58.344854166666664L110.71814739583334,58.02527083333334L110.93791909722222,57.59629166666667L111.04000659722223,58.49358333333332L111.45828177083332,57.99945833333332L111.66387465277778,58.93485416666665L111.9517046875,56.86002083333334L112.12752204861111,58.39770833333333L112.47064947916667,58.04124999999999L112.5897515625,58.543979166666674L112.68474965277777,58.46900000000001L113.05056319444444,58.65829166666667L113.087428125,59.16102083333334L113.19518715277778,56.86125000000001L113.5950298611111,55.834895833333334L113.60637291666666,57.340625L114.18486875,57.96995833333334L114.50956371527776,58.17399999999999L114.63291944444444,59.0295L114.65276979166666,56.962041666666664L115.07388072916667,58.453020833333326L115.13626753472222,58.73204166666666L115.21425104166667,60.62495833333334L115.72043489583334,55.912333333333336L115.73177795138888,57.94414583333334L116.05789079861111,59.90097916666666L116.15856041666666,60.057083333333324L116.5357170138889,60.692562499999994L116.69026614583333,58.3215L116.7498171875,58.33133333333335L117.16242083333334,59.66252083333333L117.64166493055555,58.99139583333334L117.78345312500001,56.79364583333333L118.21023559027778,56.293375L118.49381197916667,57.91833333333332L118.72918038194445,57.05300000000001L118.82134270833333,56.462999999999994L119.20275295138889,59.747333333333344L119.20700659722222,57.09110416666667L119.63804270833333,56.30443749999999L119.85781440972221,53.37779166666667L120.11161527777777,54.75322916666666L120.2718359375,56.809625L120.55966597222222,55.711979166666666L120.9736875,55.54727083333334L121.34233680555556,55.35429166666667L121.37211232638889,56.65843749999999L121.74359739583333,55.1539375L122.43694166666667,56.252812500000005L123.31319270833333,55.35183333333333L123.48617430555556,56.39416666666666L123.55281475694444,55.193270833333344L123.80661562499999,55.493187500000005L123.95549322916668,53.63960416666667L124.44608038194445,56.19381249999999L124.5751076388889,54.15585416666667L124.67719513888889,54.08825L125.43292621527777,55.34445833333332L125.57613229166667,56.27616666666667L125.64702638888889,53.049604166666654L125.90933454861111,58.17891666666665L126.58708211805556,55.480895833333335L126.60835034722223,55.15516666666666L126.869240625,51.88927083333333L127.43639340277778,55.001520833333345L127.50161597222223,52.797625L127.79228177083334,55.334625L127.88019045138888,56.718666666666664L127.88444409722221,53.569541666666666L128.03899322916666,54.75691666666667L128.59480295138889,55.26825000000001L128.6018923611111,56.5330625L129.0414357638889,51.79585416666666L129.54903750000003,53.4724375L129.61567795138888,52.646437500000005L129.6695574652778,53.675250000000005L129.8581357638889,56.13235416666667L129.9474623263889,53.77481250000001L130.0438782986111,53.45277083333333L130.14171215277779,54.6893125L131.25049583333333,54.397999999999996L131.77369427083332,50.42164583333334L131.81197708333332,52.546875L131.8814532986111,52.92791666666666L131.88570694444442,55.50179166666666L132.1366720486111,51.443083333333334L132.17353697916667,53.93214583333334L132.31390729166665,53.505624999999995L132.69957118055555,50.75720833333334L132.73927187500001,54.26402083333335L133.37873663194443,53.98622916666666L133.99835104166667,52.80008333333335L134.04514114583333,55.72304166666666L134.04939479166666,52.40552083333333L134.28192743055556,54.900729166666665L134.42938715277776,51.17881249999999L134.4393123263889,51.81675L134.71154565972222,51.99497916666667L134.84908020833333,52.764437499999985L135.71115243055556,50.92560416666666L136.11241302083334,53.92108333333334L136.2159184027778,51.482416666666666L136.24285815972223,53.75883333333333L136.35487083333334,49.01302083333333L136.43994375,51.72210416666667L136.62426840277777,52.51491666666668L136.67673003472223,50.6773125L136.93194878472224,53.92722916666666L137.10776614583332,50.91822916666666L137.96274895833332,49.87220833333333L138.37393472222223,50.762125L138.45475399305553,50.629374999999996L138.4717685763889,48.79422916666667L138.5937064236111,52.35020833333334L138.8489251736111,51.52175000000001L139.0204888888889,53.039770833333336L140.16188385416666,49.33260416666667L140.65247100694444,51.72210416666667L140.83821354166665,49.649729166666674L140.86373541666669,48.99335416666668L141.07358194444444,49.51575000000001L141.11044687499998,50.467124999999996L141.23663836805554,52.458375000000004L141.49185711805555,51.36072916666666L142.35392934027777,51.05712500000001L142.7495184027778,46.69972916666666L142.7821296875,51.687687499999996L142.89272447916665,50.696979166666665L143.0245875,50.84939583333333L143.16353993055557,47.2295L143.43151961805557,50.34420833333333L143.68248472222223,48.104666666666674L144.6197046875,51.33000000000001L145.00253281250002,48.45866666666666L145.15282829861113,47.87358333333333L145.21237934027778,50.30241666666666L145.2223045138889,53.987458333333336L145.27193038194443,49.90170833333333L145.4108828125,49.72470833333334L145.6689373263889,51.1419375L145.81214340277776,48.49799999999999L146.8145859375,53.63222916666666L147.25412934027779,48.40704166666666L147.29524791666668,50.86660416666666L147.439871875,52.253104166666674L147.46114010416667,47.646187499999996L147.48524409722222,51.88804166666668L147.8865046875,48.941729166666676L147.97583125,51.508229166666666L149.1073010416667,49.90785416666667L149.27744687499998,50.42164583333334L149.40647413194444,47.25162499999999L149.54684444444445,48.66147916666665L149.72549756944446,49.86729166666666L149.7467657986111,49.37439583333334L149.8162420138889,49.64604166666666L149.90415069444444,49.45552083333334L150.12392239583335,49.2981875L150.15653368055555,49.54770833333333L151.34046510416667,47.95470833333334L151.5035215277778,46.18962500000001L151.75732239583334,46.585416666666646L151.8991105902778,48.71802083333333L152.02530208333334,47.18156250000001L152.1132107638889,46.71816666666666L152.12171805555556,51.661874999999995L152.2252234375,47.668312499999985L152.46059184027777,45.551687499999986L153.58213645833334,46.79314583333334L154.02876927083335,43.86772916666666L154.11242430555555,45.241937500000006L154.3619715277778,47.77525L154.41443315972222,44.38766666666666L154.46547690972224,42.96920833333334L154.75330694444443,44.34710416666667L155.93014895833332,43.496520833333335L155.9485814236111,44.419624999999996L156.47036197916665,44.4896875L156.48028715277778,43.409249999999986L156.51715208333331,43.18185416666665L156.56961371527777,44.35693749999999L156.6589402777778,45.84177083333333L156.81207152777776,42.95691666666667L157.09423003472222,43.13760416666668L158.16614878472222,45.35133333333334L158.29517604166665,40.305604166666654L158.68367569444442,43.9845L158.70494392361113,48.43899999999999L158.71770486111112,43.13022916666665L158.822628125,45.43245833333333L158.94881961805555,44.66914583333332L159.04098194444444,43.81610416666666L159.39828819444443,43.805041666666654L160.33834392361112,44.891625000000005L160.42625260416668,37.6604375L160.49856458333335,43.197833333333335L160.90975034722223,43.75894791666667L161.04161336805555,44.267208333333315L161.1422829861111,41.15864583333334L161.18481944444443,43.11547916666666L161.25429565972223,46.372770833333334L161.66264565972224,47.107812499999994L162.47367413194445,45.61191666666667L162.70053524305555,43.10318749999999L162.7983690972222,41.04433333333333L163.1556753472222,38.59460416666667L163.2350767361111,41.28524999999999L163.28186684027776,43.30722916666667L163.416565625,44.26474999999999L163.544175,43.53093749999999L164.06311979166668,42.44804166666668L164.67422690972222,43.70302083333334L164.9294456597222,40.853812500000004L165.06414444444442,41.75725L165.13362065972223,39.25958333333335L165.56465677083335,39.80533333333335L165.76883177083332,40.60797916666667L165.82129340277777,38.28116666666668L165.82838281250002,42.638562500000006L166.39269982638888,42.202208333333346L166.97970295138887,38.40777083333333L167.02932881944446,41.542145833333336L167.5383484375,40.19620833333332L167.89140104166668,37.83252083333332L167.97647395833334,36.033020833333325L168.1097548611111,39.086270833333316L168.1919920138889,41.09595833333333L168.79033819444444,38.937541666666675L168.94346944444445,41.46224999999998L170.03523854166667,37.666583333333335L170.17986249999998,38.378270833333346L170.3741123263889,39.37758333333332L170.42940972222223,37.85833333333335L170.43649913194443,37.828833333333336L170.5314972222222,39.58408333333335L170.89589288194443,40.605520833333344L171.16103680555557,39.42920833333332L171.56655104166668,37.192125000000004L171.634609375,40.37197916666668L172.44563784722223,40.66575L172.44705572916666,36.37595833333333L172.65832013888888,36.816L172.87100243055554,42.06085416666667L172.92204618055555,38.84043749999998L173.59979375,35.561020833333345L173.8833701388889,40.78375L173.98403975694444,35.31764583333333L174.78088940972222,39.17661458333333L175.00207899305556,41.255750000000006L175.09565920138888,37.75016666666667L175.32960972222222,36.45093750000001L175.34378854166667,33.81929166666666L176.0725798611111,42.25874999999999L176.83540034722222,36.01827083333333L177.18561718750001,36.56033333333335L177.2820331597222,40.776375L177.4493432291667,38.9068125L177.67762222222223,38.53560416666667L177.6932189236111,38.49381249999999L178.80342048611112,39.559500000000014L179.30109704861113,39.92210416666666L179.60735954861113,36.97702083333334L179.67258211805557,34.87883333333332L179.75623715277777,39.56810416666667L180.11070763888887,36.13872916666668L180.4680138888889,40.66575L180.6849498263889,39.30629166666665L180.75442604166668,38.551583333333326L180.95860104166667,35.54012500000002L181.5697081597222,40.44941666666668L182.0446986111111,36.245666666666665L182.0957423611111,36.63285416666665L182.30842465277777,39.41568750000002L182.48991354166665,37.914874999999995L182.77490781249998,33.843875L183.11378159722221,33.47635416666668L183.25698767361112,40.58585416666668L183.8539159722222,37.793187500000016L184.38278593750002,38.09679166666666L184.39129322916668,36.926625L184.43808333333334,34.687083333333334L184.68337690972223,36.52591666666666L184.69755572916668,35.78104166666665L184.86061215277778,37.217937500000005L184.99105729166666,35.93837500000001L185.46888350694445,36.45954166666667L185.52418090277777,37.080270833333316L186.13103437499998,34.512541666666664L186.5776671875,36.4656875L186.73221631944443,33.72464583333334L186.81728923611112,32.25456249999999L187.05123975694445,37.45885416666667L187.2256392361111,38.11154166666665L187.23698229166666,32.25456249999999L187.83107482638889,37.35929166666665L187.8565967013889,34.72027083333333L188.45068923611112,35.50079166666666L188.5556125,35.896583333333325L189.0788109375,33.58452083333333L189.14686927083332,35.13327083333331L189.26171770833335,39.23008333333334L189.44037083333333,30.73039583333332L189.58215902777778,32.259479166666665L190.1790873263889,37.634625L190.25848871527776,32.732708333333335L190.54490086805555,36.10677083333334L190.7632546875,40.234312500000016L191.55585069444444,33.93360416666667L191.70331041666665,36.15225000000001L191.83942708333333,35.959270833333335L191.91315694444447,36.73733333333334L192.11166041666667,33.69760416666668L192.48172760416665,37.317499999999995L192.7227675347222,32.82735416666665L193.09425260416668,38.31927083333332L193.9123704861111,29.434854166666668L194.0966951388889,36.50010416666666L194.1165454861111,34.66864583333333L194.22288663194445,37.827604166666674L194.40721128472222,35.01035416666667L194.46676232638887,35.75031250000001L195.05943697916666,37.02372916666667L196.14978819444445,37.38141666666667L196.43052881944445,33.119895833333345L196.5184375,37.4981875L196.52836267361113,32.23735416666668L196.9367126736111,31.759208333333333L197.50670121527776,33.90164583333333L197.7335623263889,33.46160416666666L198.29646145833334,32.308645833333344L198.60130607638888,36.21616666666665L198.6977220486111,37.11345833333334L198.8565248263889,36.01335416666666L198.95719444444444,31.513374999999996L199.60800225694445,30.897562499999992L199.89583229166666,33.83772916666666L199.9766515625,35.385249999999985L200.21769149305558,34.13027083333333L200.88551388888888,32.00135416666666L200.9209609375,33.192416666666674L200.93513975694447,34.95627083333332L201.1988657986111,35.47743750000001L201.3137142361111,33.170291666666685L201.70221388888888,33.17766666666665L201.9475074652778,31.43225000000001L202.13466788194444,39.82499999999999L202.34593229166666,33.90779166666667L203.230690625,34.91509375000001L203.62202604166666,33.98154166666666L204.12820989583332,34.03808333333333L204.15656753472223,34.08233333333334L204.26858020833333,33.904104166666656L204.57342482638887,34.94520833333334L204.65566197916667,35.07918749999999L205.36743871527779,34.1425625L205.58295677083333,32.558166666666665L205.64959722222224,33.90164583333333L206.0565293402778,37.37035416666669L206.0735439236111,33.11497916666667L206.08772274305554,33.57591666666667L206.5641310763889,34.077416666666664L206.87181145833333,36.167L207.0022565972222,33.72464583333334L207.671496875,32.060354166666684L207.85015,33.020333333333326L208.07417534722222,34.551874999999995L208.18902378472222,29.608166666666648L208.44140677083334,35.996145833333344L209.0269920138889,32.5643125L209.20422725694445,33.830354166666666L210.0294345486111,33.617708333333354L210.16696909722222,35.07672916666667L210.17831215277778,34.22122916666666L210.39383020833333,34.46952083333335L210.85322395833336,33.604187499999995L210.8574776041667,32.02962500000001L211.05739895833332,31.346208333333323L211.50970329861113,29.32545833333333L211.81454791666667,31.871062499999994L212.13924288194443,33.118666666666655L212.5050564236111,33.08670833333335L212.6837095486111,41.09472916666667L213.2253404513889,35.650750000000016L213.30332395833332,33.18627083333334L213.71309184027777,32.82489583333333L213.88040190972222,34.587520833333315L214.07606961805556,31.310562500000003L214.28024461805555,31.24418750000001L214.84314375,32.0185625L214.9934392361111,34.88375000000002L215.6031284722222,37.391250000000014L215.68678350694444,30.314937500000013L215.71939479166664,30.64681250000001L216.04125399305556,33.18627083333334L216.07953680555556,35.26725000000002L216.67788298611111,32.870374999999996L217.19115625,33.63614583333333L217.40667430555555,31.138479166666656L217.8859184027778,36.069895833333334L218.05748211805556,33.269854166666676L218.10427222222222,33.303041666666644L218.21628489583333,32.69091666666668L218.2800895833333,33.280916666666656L218.55090503472223,36.170687499999985L219.06559618055556,30.249791666666653L219.12089357638888,30.817666666666668L219.52498993055556,31.391687500000018L219.78729809027777,31.326541666666657L220.04109895833332,32.82735416666665L220.23534878472222,31.29458333333332L220.42392708333335,35.1603125L220.58981927083332,31.81574999999998L220.80959097222222,34.85793749999999L221.2618953125,32.24227083333332L221.44905572916667,37.118375000000015L221.8162871527778,34.53097916666667L221.95523958333334,35.22177083333332L222.56634670138888,32.384854166666685L222.79887934027778,32.92937499999999L222.8626840277778,34.44862500000002L222.94208541666669,31.136020833333333L223.23133333333334,31.06964583333334L224.11042013888888,33.241583333333324L224.44362239583333,34.16222916666666L224.85906180555554,31.470354166666652L225.1468918402778,31.23189583333334L225.179503125,28.220437500000003L225.32270920138888,35.42089583333333L225.58076371527775,28.81535416666668L225.6034498263889,34.64897916666666L225.86717586805554,30.30018750000002L226.2287357638889,32.060354166666684L226.404553125,32.26808333333335L226.76753090277776,36.38702083333334L227.20991006944445,29.17795833333335L227.40841354166668,32.10460416666666L227.54736597222222,32.869145833333334L227.78415225694445,33.879520833333316L227.82101718750002,32.16729166666667L227.9075079861111,33.82789583333334L227.97556631944445,35.23283333333333L228.5895092013889,36.45093750000001L228.76674444444444,32.08862499999998L229.12688645833333,35.213166666666666L229.54374375,32.72779166666666L229.64866701388888,35.51677083333331L229.8145592013889,33.12358333333333L230.11089652777778,30.73408333333333L230.3760404513889,32.20047916666667L230.9190892361111,34.96856249999999L231.11617482638889,34.73379166666666L231.51743541666667,34.190500000000014L231.7074315972222,33.482500000000016L231.92862118055555,31.83295833333335L232.32846388888888,32.485645833333336L232.56525017361113,32.63929166666668L232.78360399305555,30.355500000000006L233.31956336805555,33.5378125L233.72365972222224,29.956020833333326L233.86686579861112,31.24541666666667L234.13342760416666,32.4795L234.21282899305555,33.98522916666667L234.52334513888889,35.50202083333332L235.1741529513889,32.63806249999999L235.69735138888888,33.34606249999999L235.70869444444446,32.03945833333333L236.19077430555555,33.93606249999999L236.3906956597222,31.686687500000005L236.48285798611113,33.68531250000001L237.430003125,34.190500000000014L237.61716354166668,31.202395833333327L237.71074375,29.091916666666663L238.08790034722222,26.778625000000005L238.1290189236111,30.39729166666666L238.5458762152778,32.48441666666665L238.6834107638889,33.40690624999999L239.11019322916667,28.524041666666676L239.55682604166665,32.084937499999995L239.59085520833332,34.33554166666667L239.85032760416667,30.070333333333338L240.00487673611113,32.695833333333326L240.3522578125,34.540812500000015L240.88679930555557,33.42104166666667L240.96336493055557,31.74077083333333L240.9874689236111,32.693375L241.5971581597222,28.413416666666677L241.92185312499998,30.228895833333326L242.31035277777775,35.50939583333334L242.38408263888888,31.089312499999977L242.59676493055554,31.900562500000007L242.89310225694445,37.478520833333334L243.1667534722222,35.05829166666666L243.25040850694444,31.265083333333337L243.3695105902778,32.28774999999999L243.53540277777776,29.95110416666668L243.68428038194446,31.63014583333333L244.75336336805557,32.620854166666675L244.77888524305556,30.515291666666656L244.95895625,31.041374999999988L245.00574635416666,26.879416666666657L245.00716423611112,30.80660416666666L245.00858211805556,29.354958333333343L245.01,31.273687499999994L245.01141788194445,30.77095833333334L245.0128357638889,35.45777083333334L245.01425364583332,32.908479166666666L245.01567152777778,34.651437500000014L245.01708940972222,32.359041666666656L245.01850729166665,29.33775L245.0199251736111,31.298270833333333L245.02276093749998,30.888958333333335L245.02417881944444,32.53727083333334L245.0255967013889,29.74952083333332L245.0270145833333,25.66377083333333L245.02843246527777,32.35166666666666L245.02985034722224,31.085624999999993L245.03126822916664,32.98714583333333L245.03693975694443,30.590270833333335L245.0383576388889,31.400291666666675L245.03977552083333,33.428416666666664L245.04119340277776,30.34566666666666L245.04402916666666,31.30810416666668L245.0454470486111,31.303187500000007L245.04686493055556,29.454520833333333L245.0482828125,32.98714583333333L245.04970069444445,33.766437499999995L245.05253645833332,35.648291666666665L245.05395434027778,29.47541666666669L245.05537222222222,34.23106250000001L245.05679010416668,29.818354166666666L245.0582079861111,29.89702083333333L245.05962586805555,31.454375L245.06104375,33.320250000000016L245.06246163194444,31.064729166666666L245.0638795138889,34.92185416666666L245.06529739583334,30.12441666666666L245.06671527777777,30.4476875L245.06813315972224,28.29050000000001L245.06955104166667,30.90739583333334L245.0709689236111,31.311791666666664L245.07238680555557,30.008875000000018L245.0738046875,31.701437499999997L245.07522256944443,31.30810416666668L245.0766404513889,31.65349999999998L245.07805833333333,32.931833333333316L245.07947621527777,30.54479166666667L245.0823119791667,30.514062499999994L245.0837298611111,31.346208333333323L245.08514774305556,29.353729166666653" style="fill: none;" fill="none"></path></g></g></g></g></g></g><g transform="translate(74, 177)" clip-path="url(#clip_1)"><clipPath id="clip_1"><rect width="255" height="23"></rect></clipPath><g><g><line x1="0" y1="0" x2="0" y2="5" style="visibility: inherit;" fill="rgb(0, 0, 0)" stroke="rgb(204, 204, 204)" stroke-width="1px"></line><line x1="28.357638888888886" y1="0" x2="28.357638888888886" y2="5" style="visibility: inherit;" fill="rgb(0, 0, 0)" stroke="rgb(204, 204, 204)" stroke-width="1px"></line><line x1="56.71527777777777" y1="0" x2="56.71527777777777" y2="5" style="visibility: inherit;" fill="rgb(0, 0, 0)" stroke="rgb(204, 204, 204)" stroke-width="1px"></line><line x1="85.07291666666666" y1="0" x2="85.07291666666666" y2="5" style="visibility: inherit;" fill="rgb(0, 0, 0)" stroke="rgb(204, 204, 204)" stroke-width="1px"></line><line x1="113.43055555555554" y1="0" x2="113.43055555555554" y2="5" style="visibility: inherit;" fill="rgb(0, 0, 0)" stroke="rgb(204, 204, 204)" stroke-width="1px"></line><line x1="141.78819444444446" y1="0" x2="141.78819444444446" y2="5" style="visibility: inherit;" fill="rgb(0, 0, 0)" stroke="rgb(204, 204, 204)" stroke-width="1px"></line><line x1="170.14583333333331" y1="0" x2="170.14583333333331" y2="5" style="visibility: inherit;" fill="rgb(0, 0, 0)" stroke="rgb(204, 204, 204)" stroke-width="1px"></line><line x1="198.50347222222223" y1="0" x2="198.50347222222223" y2="5" style="visibility: inherit;" fill="rgb(0, 0, 0)" stroke="rgb(204, 204, 204)" stroke-width="1px"></line><line x1="226.8611111111111" y1="0" x2="226.8611111111111" y2="5" style="visibility: inherit;" fill="rgb(0, 0, 0)" stroke="rgb(204, 204, 204)" stroke-width="1px"></line><line x1="255.21875" y1="0" x2="255.21875" y2="5" style="visibility: inherit;" fill="rgb(0, 0, 0)" stroke="rgb(204, 204, 204)" stroke-width="1px"></line></g><g transform="translate(0, 8)"><text x="0" y="0" dx="0em" dy="0.95em" style="text-anchor: middle; visibility: hidden; font-family: &quot;Helvetica Neue&quot;, sans-serif; font-size: 12px; font-weight: 200;" fill="rgb(50, 49, 63)" stroke="none" stroke-width="1px">-20k</text><text x="28.357638888888886" y="0" dx="0em" dy="0.95em" style="text-anchor: middle; visibility: inherit; font-family: &quot;Helvetica Neue&quot;, sans-serif; font-size: 12px; font-weight: 200;" fill="rgb(50, 49, 63)" stroke="none" stroke-width="1px">0</text><text x="56.71527777777777" y="0" dx="0em" dy="0.95em" style="text-anchor: middle; visibility: hidden; font-family: &quot;Helvetica Neue&quot;, sans-serif; font-size: 12px; font-weight: 200;" fill="rgb(50, 49, 63)" stroke="none" stroke-width="1px">20k</text><text x="85.07291666666666" y="0" dx="0em" dy="0.95em" style="text-anchor: middle; visibility: inherit; font-family: &quot;Helvetica Neue&quot;, sans-serif; font-size: 12px; font-weight: 200;" fill="rgb(50, 49, 63)" stroke="none" stroke-width="1px">40k</text><text x="113.43055555555554" y="0" dx="0em" dy="0.95em" style="text-anchor: middle; visibility: hidden; font-family: &quot;Helvetica Neue&quot;, sans-serif; font-size: 12px; font-weight: 200;" fill="rgb(50, 49, 63)" stroke="none" stroke-width="1px">60k</text><text x="141.78819444444446" y="0" dx="0em" dy="0.95em" style="text-anchor: middle; visibility: inherit; font-family: &quot;Helvetica Neue&quot;, sans-serif; font-size: 12px; font-weight: 200;" fill="rgb(50, 49, 63)" stroke="none" stroke-width="1px">80k</text><text x="170.14583333333331" y="0" dx="0em" dy="0.95em" style="text-anchor: middle; visibility: hidden; font-family: &quot;Helvetica Neue&quot;, sans-serif; font-size: 12px; font-weight: 200;" fill="rgb(50, 49, 63)" stroke="none" stroke-width="1px">100k</text><text x="198.50347222222223" y="0" dx="0em" dy="0.95em" style="text-anchor: middle; visibility: inherit; font-family: &quot;Helvetica Neue&quot;, sans-serif; font-size: 12px; font-weight: 200;" fill="rgb(50, 49, 63)" stroke="none" stroke-width="1px">120k</text><text x="226.8611111111111" y="0" dx="0em" dy="0.95em" style="text-anchor: middle; visibility: hidden; font-family: &quot;Helvetica Neue&quot;, sans-serif; font-size: 12px; font-weight: 200;" fill="rgb(50, 49, 63)" stroke="none" stroke-width="1px">140k</text><text x="255.21875" y="0" dx="0em" dy="0.95em" style="text-anchor: middle; visibility: hidden; font-family: &quot;Helvetica Neue&quot;, sans-serif; font-size: 12px; font-weight: 200;" fill="rgb(50, 49, 63)" stroke="none" stroke-width="1px">160k</text></g><line x1="0" y1="0" x2="255.21875" y2="0" fill="rgb(0, 0, 0)" stroke="rgb(204, 204, 204)" stroke-width="1px"></line></g></g></g></g></svg>