<svg viewBox="0 0 330 200" xmlns="http://www.w3.org/2000/svg"><g><g><g><g><g><line x1="74.78125" y1="177" x2="69.78125" y2="177" style="visibility: inherit;" fill="rgb(0, 0, 0)" stroke="rgb(204, 204, 204)" stroke-width="1px"></line><line x1="74.78125" y1="163.3846153846154" x2="69.78125" y2="163.3846153846154" style="visibility: inherit;" fill="rgb(0, 0, 0)" stroke="rgb(204, 204, 204)" stroke-width="1px"></line><line x1="74.78125" y1="149.76923076923077" x2="69.78125" y2="149.76923076923077" style="visibility: inherit;" fill="rgb(0, 0, 0)" stroke="rgb(204, 204, 204)" stroke-width="1px"></line><line x1="74.78125" y1="136.15384615384616" x2="69.78125" y2="136.15384615384616" style="visibility: inherit;" fill="rgb(0, 0, 0)" stroke="rgb(204, 204, 204)" stroke-width="1px"></line><line x1="74.78125" y1="122.53846153846153" x2="69.78125" y2="122.53846153846153" style="visibility: inherit;" fill="rgb(0, 0, 0)" stroke="rgb(204, 204, 204)" stroke-width="1px"></line><line x1="74.78125" y1="108.92307692307692" x2="69.78125" y2="108.92307692307692" style="visibility: inherit;" fill="rgb(0, 0, 0)" stroke="rgb(204, 204, 204)" stroke-width="1px"></line><line x1="74.78125" y1="95.3076923076923" x2="69.78125" y2="95.3076923076923" style="visibility: inherit;" fill="rgb(0, 0, 0)" stroke="rgb(204, 204, 204)" stroke-width="1px"></line><line x1="74.78125" y1="81.6923076923077" x2="69.78125" y2="81.6923076923077" style="visibility: inherit;" fill="rgb(0, 0, 0)" stroke="rgb(204, 204, 204)" stroke-width="1px"></line><line x1="74.78125" y1="68.07692307692307" x2="69.78125" y2="68.07692307692307" style="visibility: inherit;" fill="rgb(0, 0, 0)" stroke="rgb(204, 204, 204)" stroke-width="1px"></line><line x1="74.78125" y1="54.46153846153847" x2="69.78125" y2="54.46153846153847" style="visibility: inherit;" fill="rgb(0, 0, 0)" stroke="rgb(204, 204, 204)" stroke-width="1px"></line><line x1="74.78125" y1="40.84615384615384" x2="69.78125" y2="40.84615384615384" style="visibility: inherit;" fill="rgb(0, 0, 0)" stroke="rgb(204, 204, 204)" stroke-width="1px"></line><line x1="74.78125" y1="27.230769230769226" x2="69.78125" y2="27.230769230769226" style="visibility: inherit;" fill="rgb(0, 0, 0)" stroke="rgb(204, 204, 204)" stroke-width="1px"></line><line x1="74.78125" y1="13.615384615384613" x2="69.78125" y2="13.615384615384613" style="visibility: inherit;" fill="rgb(0, 0, 0)" stroke="rgb(204, 204, 204)" stroke-width="1px"></line><line x1="74.78125" y1="0" x2="69.78125" y2="0" style="visibility: inherit;" fill="rgb(0, 0, 0)" stroke="rgb(204, 204, 204)" stroke-width="1px"></line></g><g transform="translate(64.78125, 0)"><text x="0" y="177" dx="0em" dy="0.3em" style="text-anchor: end; visibility: hidden; font-family: &quot;Helvetica Neue&quot;, sans-serif; font-size: 12px; font-weight: 200;" fill="rgb(50, 49, 63)" stroke="none" stroke-width="1px">-5e+4</text><text x="0" y="163.3846153846154" dx="0em" dy="0.3em" style="text-anchor: end; visibility: inherit; font-family: &quot;Helvetica Neue&quot;, sans-serif; font-size: 12px; font-weight: 200;" fill="rgb(50, 49, 63)" stroke="none" stroke-width="1px">0</text><text x="0" y="149.76923076923077" dx="0em" dy="0.3em" style="text-anchor: end; visibility: hidden; font-family: &quot;Helvetica Neue&quot;, sans-serif; font-size: 12px; font-weight: 200;" fill="rgb(50, 49, 63)" stroke="none" stroke-width="1px">5e+4</text><text x="0" y="136.15384615384616" dx="0em" dy="0.3em" style="text-anchor: end; visibility: inherit; font-family: &quot;Helvetica Neue&quot;, sans-serif; font-size: 12px; font-weight: 200;" fill="rgb(50, 49, 63)" stroke="none" stroke-width="1px">1e+5</text><text x="0" y="122.53846153846153" dx="0em" dy="0.3em" style="text-anchor: end; visibility: hidden; font-family: &quot;Helvetica Neue&quot;, sans-serif; font-size: 12px; font-weight: 200;" fill="rgb(50, 49, 63)" stroke="none" stroke-width="1px">1.5e+5</text><text x="0" y="108.92307692307692" dx="0em" dy="0.3em" style="text-anchor: end; visibility: inherit; font-family: &quot;Helvetica Neue&quot;, sans-serif; font-size: 12px; font-weight: 200;" fill="rgb(50, 49, 63)" stroke="none" stroke-width="1px">2e+5</text><text x="0" y="95.3076923076923" dx="0em" dy="0.3em" style="text-anchor: end; visibility: hidden; font-family: &quot;Helvetica Neue&quot;, sans-serif; font-size: 12px; font-weight: 200;" fill="rgb(50, 49, 63)" stroke="none" stroke-width="1px">2.5e+5</text><text x="0" y="81.6923076923077" dx="0em" dy="0.3em" style="text-anchor: end; visibility: inherit; font-family: &quot;Helvetica Neue&quot;, sans-serif; font-size: 12px; font-weight: 200;" fill="rgb(50, 49, 63)" stroke="none" stroke-width="1px">3e+5</text><text x="0" y="68.07692307692307" dx="0em" dy="0.3em" style="text-anchor: end; visibility: hidden; font-family: &quot;Helvetica Neue&quot;, sans-serif; font-size: 12px; font-weight: 200;" fill="rgb(50, 49, 63)" stroke="none" stroke-width="1px">3.5e+5</text><text x="0" y="54.46153846153847" dx="0em" dy="0.3em" style="text-anchor: end; visibility: inherit; font-family: &quot;Helvetica Neue&quot;, sans-serif; font-size: 12px; font-weight: 200;" fill="rgb(50, 49, 63)" stroke="none" stroke-width="1px">4e+5</text><text x="0" y="40.84615384615384" dx="0em" dy="0.3em" style="text-anchor: end; visibility: hidden; font-family: &quot;Helvetica Neue&quot;, sans-serif; font-size: 12px; font-weight: 200;" fill="rgb(50, 49, 63)" stroke="none" stroke-width="1px">4.5e+5</text><text x="0" y="27.230769230769226" dx="0em" dy="0.3em" style="text-anchor: end; visibility: inherit; font-family: &quot;Helvetica Neue&quot;, sans-serif; font-size: 12px; font-weight: 200;" fill="rgb(50, 49, 63)" stroke="none" stroke-width="1px">5e+5</text><text x="0" y="13.615384615384613" dx="0em" dy="0.3em" style="text-anchor: end; visibility: hidden; font-family: &quot;Helvetica Neue&quot;, sans-serif; font-size: 12px; font-weight: 200;" fill="rgb(50, 49, 63)" stroke="none" stroke-width="1px">5.5e+5</text><text x="0" y="0" dx="0em" dy="0.3em" style="text-anchor: end; visibility: hidden; font-family: &quot;Helvetica Neue&quot;, sans-serif; font-size: 12px; font-weight: 200;" fill="rgb(50, 49, 63)" stroke="none" stroke-width="1px">6e+5</text></g><line x1="74.78125" y1="0" x2="74.78125" y2="177" fill="rgb(0, 0, 0)" stroke="rgb(204, 204, 204)" stroke-width="1px"></line></g></g><g transform="translate(74, 0)" clip-path="url(#clip_0)"><clipPath id="clip_0"><rect width="255" height="177"></rect></clipPath><g><g><g><line x1="0" y1="0" x2="0" y2="177" fill="rgb(0, 0, 0)" stroke="rgb(60, 60, 60)" stroke-width="1px" opacity="0.25"></line><line x1="28.357638888888886" y1="0" x2="28.357638888888886" y2="177" fill="rgb(0, 0, 0)" stroke="rgb(60, 60, 60)" stroke-width="1px" opacity="0.25"></line><line x1="56.71527777777777" y1="0" x2="56.71527777777777" y2="177" fill="rgb(0, 0, 0)" stroke="rgb(60, 60, 60)" stroke-width="1px" opacity="0.25"></line><line x1="85.07291666666666" y1="0" x2="85.07291666666666" y2="177" fill="rgb(0, 0, 0)" stroke="rgb(60, 60, 60)" stroke-width="1px" opacity="0.25"></line><line x1="113.43055555555554" y1="0" x2="113.43055555555554" y2="177" fill="rgb(0, 0, 0)" stroke="rgb(60, 60, 60)" stroke-width="1px" opacity="0.25"></line><line x1="141.78819444444446" y1="0" x2="141.78819444444446" y2="177" fill="rgb(0, 0, 0)" stroke="rgb(60, 60, 60)" stroke-width="1px" opacity="0.25"></line><line x1="170.14583333333331" y1="0" x2="170.14583333333331" y2="177" fill="rgb(0, 0, 0)" stroke="rgb(60, 60, 60)" stroke-width="1px" opacity="0.25"></line><line x1="198.50347222222223" y1="0" x2="198.50347222222223" y2="177" fill="rgb(0, 0, 0)" stroke="rgb(60, 60, 60)" stroke-width="1px" opacity="0.25"></line><line x1="226.8611111111111" y1="0" x2="226.8611111111111" y2="177" fill="rgb(0, 0, 0)" stroke="rgb(60, 60, 60)" stroke-width="1px" opacity="0.25"></line><line x1="255.21875" y1="0" x2="255.21875" y2="177" fill="rgb(0, 0, 0)" stroke="rgb(60, 60, 60)" stroke-width="1px" opacity="0.25"></line></g><g><line x1="0" y1="177" x2="255.21875" y2="177" fill="rgb(0, 0, 0)" stroke="rgb(60, 60, 60)" stroke-width="1px" opacity="0.25"></line><line x1="0" y1="163.3846153846154" x2="255.21875" y2="163.3846153846154" fill="rgb(0, 0, 0)" stroke="rgb(60, 60, 60)" stroke-width="1px" opacity="0.25"></line><line x1="0" y1="149.76923076923077" x2="255.21875" y2="149.76923076923077" fill="rgb(0, 0, 0)" stroke="rgb(60, 60, 60)" stroke-width="1px" opacity="0.25"></line><line x1="0" y1="136.15384615384616" x2="255.21875" y2="136.15384615384616" fill="rgb(0, 0, 0)" stroke="rgb(60, 60, 60)" stroke-width="1px" opacity="0.25"></line><line x1="0" y1="122.53846153846153" x2="255.21875" y2="122.53846153846153" fill="rgb(0, 0, 0)" stroke="rgb(60, 60, 60)" stroke-width="1px" opacity="0.25"></line><line x1="0" y1="108.92307692307692" x2="255.21875" y2="108.92307692307692" fill="rgb(0, 0, 0)" stroke="rgb(60, 60, 60)" stroke-width="1px" opacity="0.25"></line><line x1="0" y1="95.3076923076923" x2="255.21875" y2="95.3076923076923" fill="rgb(0, 0, 0)" stroke="rgb(60, 60, 60)" stroke-width="1px" opacity="0.25"></line><line x1="0" y1="81.6923076923077" x2="255.21875" y2="81.6923076923077" fill="rgb(0, 0, 0)" stroke="rgb(60, 60, 60)" stroke-width="1px" opacity="0.25"></line><line x1="0" y1="68.07692307692307" x2="255.21875" y2="68.07692307692307" fill="rgb(0, 0, 0)" stroke="rgb(60, 60, 60)" stroke-width="1px" opacity="0.25"></line><line x1="0" y1="54.46153846153847" x2="255.21875" y2="54.46153846153847" fill="rgb(0, 0, 0)" stroke="rgb(60, 60, 60)" stroke-width="1px" opacity="0.25"></line><line x1="0" y1="40.84615384615384" x2="255.21875" y2="40.84615384615384" fill="rgb(0, 0, 0)" stroke="rgb(60, 60, 60)" stroke-width="1px" opacity="0.25"></line><line x1="0" y1="27.230769230769226" x2="255.21875" y2="27.230769230769226" fill="rgb(0, 0, 0)" stroke="rgb(60, 60, 60)" stroke-width="1px" opacity="0.25"></line><line x1="0" y1="13.615384615384613" x2="255.21875" y2="13.615384615384613" fill="rgb(0, 0, 0)" stroke="rgb(60, 60, 60)" stroke-width="1px" opacity="0.25"></line><line x1="0" y1="0" x2="255.21875" y2="0" fill="rgb(0, 0, 0)" stroke="rgb(60, 60, 60)" stroke-width="1px" opacity="0.25"></line></g></g></g><g><g><line x1="0" y1="163.3846153846154" x2="255.21875" y2="163.3846153846154" fill="rgb(0, 0, 0)" stroke="rgb(153, 153, 153)" stroke-width="1.5px"></line></g></g><g><g><line x1="28.357638888888886" y1="0" x2="28.357638888888886" y2="177" fill="rgb(0, 0, 0)" stroke="rgb(153, 153, 153)" stroke-width="1.5px"></line></g></g><g><g><g><g><g><path stroke="rgb(255, 112, 67)" stroke-width="2px" d="M28.72203454861111,163.18889423076922L28.843972395833333,163.1953436234818L28.92195590277778,163.17183103888732L29.223964756944444,163.1746399445277L29.259411805555555,163.1863704173656L29.39127482638889,163.18135170901226L29.491944444444442,163.18557036669532L29.530227256944446,163.17996824085134L29.632314756944446,163.18443980002215L29.63940416666667,163.1833599110003L29.649329340277777,163.1888293154244L29.663508159722223,163.18592106605206L29.672015451388887,163.1833759733334L29.686194270833333,163.18366116731144L29.76134201388889,163.17579027233344L29.7712671875,163.17430696153818L29.795371180555556,163.174607433298L29.79962482638889,163.17907187484838L29.837907638888886,163.17975494012268L29.849250694444443,163.17715290736487L29.86342951388889,163.1763022825002L29.91872690972222,163.17818042136182L30.054843576388887,163.17851564783263L30.063350868055554,163.17467770349631L30.088872743055553,163.17775866266211L30.108723090277778,163.1783396107754L30.165438368055558,163.17859287706605L30.366777604166664,163.17613297602048L30.371031249999998,163.17846343649043L30.403642534722223,163.17815753895195L30.406478298611113,163.17906146394932L30.454686284722225,163.1800885159656L30.512819444444442,163.1796361164905L30.81482829861111,163.17775242163205L30.84602170138889,163.1775161695582L30.851693229166667,163.17993382623018L30.882886631944444,163.18074418171028L31.003406597222224,163.18158300304634L31.033182118055556,163.17945396793453L31.1239265625,163.18340065668554L31.19482065972222,163.17952019600696L31.218924652777776,163.1791856615723L31.24444652777778,163.17586593992363L31.301161805555555,163.17662298563863L31.312504861111112,163.17695953795265L31.329519444444447,163.17465446783075L31.377727430555556,163.16904387535058L31.393324131944446,163.1702794164828L31.46138246527778,163.1662718431063L31.491157986111112,163.16458543859977L31.515261979166667,163.1630351365145L31.55496267361111,163.16589679015576L31.796002604166667,163.16698374301L31.872568229166667,163.16739768186002L31.876821875,163.16694200771164L31.886747048611113,163.16268378821698L31.926447743055558,163.16641176244266L31.95905902777778,163.16225154894252L31.97323784722222,163.16089657321325L32.06398229166667,163.1596861349527L32.075325347222226,163.15800903984518L32.10793663194445,163.15859658723576L32.12778697916667,163.15777041351538L32.16465190972222,163.1580664615946L32.18450225694444,163.1594061889652L32.18733802083333,163.16051797798653L32.26248576388889,163.15881000063527L32.29084340277778,163.15619154236055L32.30502222222223,163.1555128771772L32.34614079861112,163.1540762181256L32.353230208333336,163.15251093477093L32.45389982638889,163.15120451478654L32.487928993055554,163.15693331470106L32.58009131944444,163.1527498499541L32.59852378472222,163.14924044151797L32.66374635416667,163.14744421270214L32.717625868055556,163.1503136321394L32.762998090277776,163.1502317179853L32.845235243055555,163.14926427287844L32.893443229166664,163.1517641609832L32.9359796875,163.1455707578635L32.94165121527778,163.14506955492055L32.95157638888889,163.14146091891936L32.97000885416667,163.14263037927458L33.03664930555556,163.14335094392038L33.10045399305555,163.1375909499875L33.17701961805555,163.1331645174457L33.18552690972222,163.13481471128003L33.19828784722222,163.137261524177L33.21813819444444,163.13619567518114L33.26918194444445,163.13747460880776L33.38544826388889,163.13652362770952L33.41097013888889,163.12851077188142L33.41947743055555,163.13209852785533L33.44074565972222,163.1340765044277L33.444999305555555,163.13942233963522L33.45634236111111,163.14189332070285L33.488953645833334,163.14067918920358L33.565519270833335,163.1426840698372L33.61939878472222,163.1436800162303L33.646338541666665,163.1421255351393L33.66760677083333,163.1404627054654L33.691710763888885,163.1392214589612L33.727157812499996,163.14094660274444L33.73141145833333,163.14285663588896L33.74133663194444,163.14009102941512L33.756933333333336,163.1318238887536L33.80088767361111,163.12985522736892L33.99088385416666,163.12688356828318L34.002226909722225,163.12237098696977L34.03058454861111,163.1193138147136L34.168119097222224,163.12077465573952L34.17662638888889,163.11784308383443L34.17804427083333,163.11061796231752L34.21349131944445,163.1105827043545L34.22625225694445,163.11175934355649L34.251774131944444,163.11035902799787L34.331175520833334,163.1089540811354L34.34535434027778,163.10765559143974L34.49564982638889,163.10195131195218L34.50982864583334,163.09385610915277L34.569379687499996,163.08931904406225L34.57646909722222,163.0823849598708L34.76362951388889,163.07247663519857L34.79765868055555,163.06714170189048L35.098249652777774,163.05717066362806L35.17623315972222,163.0466522348653L35.278320659722226,163.03853017316533L35.47257048611111,163.03159474332588L35.68667065972222,163.0262293494905L35.70084947916666,163.01350356510704L35.724953472222225,162.9823676032762L35.75189322916667,162.97195165170652L35.75756475694445,162.96872975338647L36.02129079861111,162.9808750553537L36.03121597222223,162.95297642735494L36.127631944444445,162.9191538144813L36.20986909722222,162.92194353053915L36.304867187499994,162.8966022914308L36.57001111111111,162.8725187355248L36.66784496527778,162.8606551270112L36.71605295138889,162.81399070523972L36.74441059027778,162.8141663943814L37.67312326388889,162.7581695482116L37.95386388888888,162.6978757044127L38.07154809027778,162.65005302783968L38.3210953125,162.66221450618553L38.36363177083333,162.59734765998897L38.44019739583334,162.5592459170409L38.47564444444445,162.49825968237292L38.623104166666664,162.4394661588152L38.854218923611114,162.42065002161655L39.022946875,162.3878961219555L39.06548333333333,162.36819516183667L39.39726770833334,162.33647448924276L39.88076545138889,162.29642939317444L39.92188402777778,162.29808640588857L40.04949340277778,162.23828295408336L40.12322326388889,162.20387028184996L40.31747309027778,162.17345200221305L40.45075399305556,162.1402039159481L40.47344010416666,162.06879626197713L40.496126215277776,162.02273995148454L40.60246736111111,162.01170263868275L40.71731579861111,161.9459629979616L40.83216423611111,161.92383116875789L40.91865503472223,161.90540170530753L41.21499236111111,161.87653581302982L41.217828125000004,161.83809843293915L41.72401197916667,161.79924998322943L41.81333854166667,161.76948575369144L41.983484375,161.73849419713528L42.15079444444444,161.69325919994986L42.25855347222222,161.64773126022698L42.418774131944446,161.6488872207541L42.59459149305556,161.59123676739955L42.72220086805556,161.56844573470894L42.84697447916667,161.50161596845157L43.069581944444444,161.4688616310106L43.347486805555555,161.4669709005909L43.416963020833336,161.42124049298528L43.4765140625,161.40619913592374L43.597034027777774,161.3772765299013L44.13015763888889,161.3275554151834L44.148590104166665,161.27056107539286L44.252095486111116,161.26111645820907L44.51723940972222,161.22810010075804L44.63917725694445,161.17198004246512L44.754025694444444,161.13176011505126L44.85185954861111,161.13227266123948L45.669977430555555,161.0809869815606L45.77631857638889,161.03677857179363L46.08541684027777,160.9814354260711L46.17048975694444,160.9714090469122L46.28959184027777,160.93420145948423L46.347725000000004,160.90185491927025L46.38884357638889,160.835002888817L46.69085243055555,160.82668514800497L46.81846180555555,160.75407509468602L46.836894270833334,160.70825561403126L47.19845416666667,160.71034904301408L47.2537515625,160.7009493790919L47.36576423611111,160.6841162200202L47.368599999999994,160.67830993455397L47.72448836805555,160.64837235454763L47.745756597222226,160.58706670560835L47.75568177083333,160.53544013118395L47.76560694444444,160.56072078153477L47.991050173611114,160.53654283799005L48.071869444444445,160.52383691957255L48.13000260416666,160.51605221799818L48.20940399305556,160.4998981500413L48.30298420138889,160.50107674849892L48.4532796875,160.48730522749295L48.60215729166667,160.4728770605108L48.65887256944444,160.45147570061076L48.844615104166664,160.41624192862247L49.89101197916667,160.37718773575608L50.201528125,160.37840905833443L50.45391111111111,160.37182406596196L50.560252256944445,160.3250088709006L50.62405694444445,160.32331288765658L50.65241458333334,160.28601207965784L50.87360416666667,160.27523861207607L50.90479756944444,160.2389499431743L51.222403125,160.22815134308715L51.25501440972222,160.19338029531548L51.29755086805556,160.2075021696306L51.58679878472222,160.13190757766503L51.66336440972223,160.1118922045133L51.70590086805555,160.0866877436767L52.01783489583333,159.99071041161437L52.244696006944444,159.96154095699077L52.498496875,160.00656498629257L52.70125399305556,159.9999688722786L52.725357986111106,159.93056765812656L53.02311319444444,159.9137351230829L53.13370798611111,159.86192641846623L53.20318420138889,159.86557339200428L53.53780434027778,159.85341922588063L53.61578784722222,159.86275888983113L53.621459375,159.84914170277096L53.93622916666667,159.87455830172485L54.484949479166666,159.86673905809076L54.49345677083333,159.84386534458923L54.687706597222224,159.81726270436093L54.79121197916667,159.7681829243092L54.86068819444445,159.7609939107244L55.005312152777776,159.74462711580574L55.534182118055554,159.7044447407635L55.55545034722222,159.66729348784088L55.663209374999994,159.6563652929029L55.76104322916667,159.68809087899731L56.082902430555556,159.64786068532825L56.163721701388894,159.66825096294932L56.55505711805556,159.6170871647312L57.32071336805556,159.5902034001811L57.32213125,159.55844296400912L57.42847239583333,159.51201390799275L57.770181944444445,159.47602280565496L57.80562899305556,159.49908797701258L57.8453296875,159.45662869854203L57.8708515625,159.4659415498417L57.91622378472223,159.480067106396L57.960178125,159.48935924191025L58.576956770833334,159.47672043310382L58.850607986111115,159.47154901479345L58.938516666666665,159.4648013729295L59.35679184027778,159.4631705144827L59.368134895833336,159.46152829476517L59.60917482638889,159.4253948883656L59.658800694444444,159.378782899529L59.663054340277775,159.3677475422684L59.71693385416666,159.3742307688108L59.79208159722222,159.33011423039125L59.91969097222222,159.31105367273673L61.066757465277774,159.35828292084767L61.3545875,159.33888179222444L61.39570607638889,159.2944538053097L61.42406371527778,159.30473491516335L61.433988888888884,159.25406320249314L61.8012203125,159.28752149762846L62.07628940972222,159.28328064594254L62.542772569444445,159.2569559467329L62.99224114583333,159.23784189052114L63.25454930555556,159.25050798993055L63.31126458333333,159.2670898351683L63.73237552083334,159.19840652472837L63.783419270833335,159.1358341895632L64.02162343750001,159.12079923214537L64.05139895833334,159.04235642431544L64.12512881944444,158.98141631073005L64.17617256944445,158.91040193927242L64.50370329861111,158.8932153030375L65.3742828125,158.86827612850297L65.65218767361111,158.86741976565267L65.71457447916667,158.86928701985664L65.72733541666666,158.82955976017865L65.93009253472222,158.7999321495454L66.21083315972221,158.78735071343704L66.69291302083333,158.81095513728565L66.97223576388889,158.7451755370186L67.1608140625,158.72118668523981L67.30402013888889,158.69133388210045L67.4259579861111,158.60873688812117L67.62446145833334,158.59225646853983L67.9264703125,158.56326409091662L68.38019253472221,158.4865812875942L69.02816458333334,158.40411306268092L69.18129583333334,158.39053968910514L69.29898003472222,158.2921127394254L69.50740868055556,158.27454973471362L69.51875173611111,158.2366861073961L70.1341125,158.17258691973342L70.22202118055556,158.163793900837L70.55380555555556,158.16233898190714L70.69275798611112,158.1460271029472L70.81753159722221,158.08456054649864L71.05006423611111,158.0343889630026L71.23722465277778,158.05370338401005L71.35916250000001,158.07328184368598L71.76325885416666,158.10609212085583L72.31339704861111,158.05952838953948L72.37578385416667,157.9608448775086L72.456603125,157.86224365898852L72.52891510416667,157.8724778988589L72.95002604166666,157.88379058974223L73.44628472222223,157.82072124230646L73.53561128472222,157.8019585171143L74.04037725694445,157.83548728078748L74.18641909722221,157.83733465847794L74.72521423611111,157.75985787532247L74.77342222222222,157.7284305493287L75.39303663194444,157.6520070617035L76.6039078125,157.52430534591778L76.95696041666666,157.43269865747985L77.05479427083333,157.42362254173185L77.19232881944444,157.34936836448173L77.38799652777777,157.3689122011105L77.76089947916665,157.3895736252302L78.11962361111112,157.28011621463025L78.27842638888889,157.25831872778264L78.39469270833332,157.2231879607736L78.40887152777778,157.2618596935424L79.30497291666666,157.23623747418816L79.79272430555555,157.1958263710001L80.28331145833333,157.18104527236164L80.47897916666668,157.16902723551007L80.61934947916667,157.10871056965138L80.623603125,156.86885638768624L80.72852638888888,156.88318973930222L80.7668092013889,156.86145562114123L81.15530885416666,156.77072900133481L81.57641979166667,156.76588283197057L81.60052378472223,156.72761046223505L81.73096892361112,156.75316662755L81.88126440972222,156.76964030133345L82.08402152777778,156.70265516543088L82.77027638888889,156.7353956585032L83.14459722222222,156.6785490734221L83.36436892361111,156.6770662814645L83.77555468749999,156.69482734562573L83.94286475694445,156.61641513990932L84.26755972222223,156.67897708745684L84.65464149305556,156.65279062871116L84.82053368055556,156.6010304600708L85.1509001736111,156.67742726983298L85.23455520833333,156.65889276400353L86.02431545138889,156.64266271837238L86.2738626736111,156.48750235999668L86.40005416666668,156.47414923938163L86.79847899305555,156.47006239236654L87.3230953125,156.47977836466836L87.83636857638888,156.39457658589384L88.17382447916665,156.2772190234583L88.20076423611111,156.21439207303553L88.9820171875,156.22898820227044L89.04440399305555,156.04499947819724L89.32798038194444,155.94221058806983L89.4158890625,155.8818158754167L89.43857517361111,155.85960145133657L89.6484217013889,155.85544486389523L90.10214392361111,155.91578984865953L90.25669305555554,155.7884115368705L90.76145902777778,155.81199273895268L92.15665486111112,155.79226755159587L92.17366944444444,155.72194247912861L92.28426423611111,155.70133414467728L92.66425659722222,155.64786318213262L92.73089704861111,155.62705518122706L92.96201180555555,155.7131664419505L93.06126354166666,155.68924047083237L93.6525203125,155.72164954874913L94.10057100694445,155.72701632464344L94.58406875,155.78432522102526L95.1809970486111,155.7039786604612L95.2476375,155.6177535347997L95.48584166666666,155.6186606332428L95.5666609375,155.5069033199185L96.5265670138889,155.51652125715742L97.02282569444445,155.5340188910571L97.18304635416666,155.48317902118214L97.19438940972222,155.46286688829468L97.76579583333333,155.39393673792677L98.03377552083333,155.28838993913408L98.16138489583334,155.19193416637452L99.17800625,155.03873195166014L99.5735953125,154.98132539110952L99.57926684027777,154.8755383327678L100.31514756944445,154.78007469179872L100.70364722222223,154.6839373668496L101.17721979166667,154.63053319747235L102.97934774305556,154.5976250700328L103.59896215277779,154.4042316976449L103.62590190972222,154.35519242211117L103.64149861111112,154.26180342028468L104.13775729166667,154.20343533787158L104.1831295138889,154.2422292560075L104.89207048611111,154.26282209963753L105.89593090277778,154.24049248582762L106.29010208333332,153.90993102570638L106.60061822916667,153.67383960582808L107.03023645833333,153.5325913183222L107.48254079861111,153.36608535956688L108.15745260416666,153.21807658322558L108.6211,153.24515579990302L109.27190781249999,152.93251228722042L110.05174288194445,152.89967346234454L110.126890625,152.85154202957162L110.22330659722223,152.63733364392215L110.55934461805555,152.7753914333761L111.16478020833333,152.55050243426925L111.83118472222222,152.42395704661155L111.98998750000001,152.19977307271964L112.30759305555556,151.9785800442938L112.38274079861111,152.02410670332597L112.39691961805555,151.915915648378L113.0009373263889,151.77074518930942L115.29790607638888,151.83245163191694L116.56549253472222,151.66854997834062L117.10286979166666,151.6595069516604L117.59912847222222,151.50656010264822L119.58841684027777,151.17927966930648L119.66498246527779,151.26990651006813L120.70287204861111,151.38098201290748L121.16651944444445,151.39065443661673L122.14485798611112,151.29034293526274L122.91902152777779,150.913628930198L123.22811979166667,150.63560026794744L123.69743871527778,150.62971105846037L124.38511145833334,150.65564105838357L124.94092118055556,150.57035281792983L124.97920399305555,150.47419147844454L125.28263072916667,150.39771314790778L125.48822361111111,150.069518083117L125.54919253472222,150.11306348634378L125.81717222222223,149.91624016655555L126.11918107638888,149.96891836143845L126.63245434027777,149.77756594837152L126.63812586805555,149.7914710843036L126.68916961805556,149.58174859125785L128.50122274305556,149.46945724174745L128.73375538194443,149.22581642141887L128.81599253472223,148.8957189619693L130.17290555555556,148.87701480615698L130.9045326388889,148.34884678707974L130.9725909722222,148.74422494491023L131.0193810763889,148.5004692773423L131.05057447916667,148.46071013806957L131.75809756944446,148.57883181657033L133.81544427083332,148.40396661568252L137.11343767361112,147.99128245411427L139.18070954861113,147.55142387216438L139.5989847222222,147.4543918214864L140.4950861111111,147.26287975472238L141.05514947916666,147.05258302925014L141.79528385416666,146.43032121670973L142.30004982638889,146.38625760465413L143.57047204861112,145.97161564226565L143.62435156249998,145.59659128957756L144.2524732638889,145.18080643946595L146.90958402777778,144.6019608435963L147.57882430555557,143.92350384577512L147.82837152777776,143.60962283619762L151.063978125,142.77285612950092L151.84948472222223,142.211326045397L153.47721319444443,141.48680935431884L153.72534253472222,140.93621298619462L153.76787899305555,140.77157264911364L154.81994739583334,140.35428826881764L155.04964427083334,139.6941282400128L155.8209720486111,139.28280479101153L156.13432395833334,138.95296628306423L157.3295984375,138.58968556821932L157.33101631944444,138.59586734793587L158.8609109375,138.1925779689115L159.03247465277778,138.13356397009727L159.64074600694443,137.6934766115491L159.69320763888888,136.84818390231726L160.5652050347222,136.22408488708555L163.31306024305556,135.74848755222314L165.84539739583334,135.20047288353928L166.50613038194444,134.58775915287765L167.77797048611112,133.92373458374374L168.0969939236111,134.1075164138309L170.3514262152778,132.6892465993709L174.72417413194444,131.87600766058765L177.55426649305554,129.66729992337503L177.63792152777776,128.5997353156529L180.55875833333334,128.79111207254917L181.37545833333334,126.68831399029426L182.35946840277776,125.81209908164945L183.57317534722222,124.57111749079219L189.857228125,123.73465141478991L197.7661736111111,121.2691442060032L198.95435868055557,120.85305185271059L200.42186649305555,118.7904397443626L202.42816944444442,120.3245834141571L204.84282239583334,116.49788762081832L205.7701171875,116.38844780104418L206.32876267361112,113.77579460747822L222.86693767361112,110.28318221403809L238.7514690972222,106.44962466571121L244.65269375,102.90629364144777L245.2680545138889,99.9238751426876L245.26947239583333,96.12060748418808L245.27089027777777,92.59532995692312L245.27230815972223,93.1121196535385L245.27372604166666,89.28303167856926L245.2751439236111,90.08899668378926L245.27656180555556,89.95610240002573L245.2779796875,89.06216509271545L245.27939756944446,89.77387329498238L245.2808154513889,86.70724779240723L245.28223333333332,86.8379075804742L245.28365121527779,87.47419648588833L245.28506909722222,82.19081150076103L245.28648697916665,82.17935650453109L245.28790486111112,77.80709474830873L245.28932274305555,73.51961642732401L245.29074062499998,69.899155169207L245.29215850694445,68.68039272920937L245.2935763888889,69.60659100436536L245.2949942708333,68.5975654135442L245.29641215277778,65.30812863180515L245.29783003472224,64.04846937439387L245.29924791666664,60.36615474464678L245.3006657986111,56.913552058643646L245.30208368055557,54.0055133431639L245.30350156249997,50.68102734538597L245.30491944444444,49.17213932238583L245.3063373263889,47.17227683245494L245.30775520833333,46.17296818767096L245.30917309027777,44.18761882082694L245.31059097222223,42.499601025282715L245.31200885416666,41.29690866313905L245.3134267361111,39.81896712374822L245.31484461805556,37.912914497911856L245.31626250000002,35.42464088465914L245.31768038194443,33.88799525773169L245.3190982638889,33.645345203112356L245.32051614583335,33.499266355878035L245.3219340277778,31.51810284529023L245.32335190972222,30.51804241653045L245.32476979166668,30.947836684492813L245.32618767361112,30.735123592966573L245.32760555555555,30.560615945208383L245.3290234375,30.140756610302958L245.33044131944445,28.745243833888026L245.33185920138888,28.373142046653072L245.33327708333334,28.50877260160314L245.33469496527778,27.847470437596655L245.3361128472222,29.684908201529282L245.33753072916667,28.98598286214562L245.3389486111111,27.608844239392596L245.34036649305557,27.614588950068708" style="fill: none;" fill="none"></path></g></g></g></g><g opacity="0.2"><g><g><g><path stroke="rgb(255, 112, 67)" stroke-width="2px" d="M28.72203454861111,163.18889423076922L28.843972395833333,163.20114807692306L28.92195590277778,163.13162451923077L29.223964756944444,163.1814908653846L29.259411805555555,163.22267740384615L29.39127482638889,163.1628548076923L29.491944444444442,163.20336057692307L29.530227256944446,163.15366442307692L29.632314756944446,163.20736009615385L29.63940416666667,163.17740625L29.649329340277777,163.2208903846154L29.663508159722223,163.16796057692306L29.672015451388887,163.1669394230769L29.686194270833333,163.18557548076922L29.76134201388889,163.1211576923077L29.7712671875,163.16370576923077L29.795371180555556,163.1768105769231L29.79962482638889,163.21255096153845L29.837907638888886,163.18497980769232L29.849250694444443,163.15689807692308L29.86342951388889,163.16957740384615L29.91872690972222,163.19323413461538L30.054843576388887,163.1812355769231L30.063350868055554,163.14319759615384L30.088872743055553,163.20327548076924L30.108723090277778,163.18319278846155L30.165438368055558,163.180725L30.366777604166664,163.15528125L30.371031249999998,163.19833990384615L30.403642534722223,163.1755341346154L30.406478298611113,163.18685192307692L30.454686284722225,163.1889793269231L30.512819444444442,163.17570432692307L30.81482829861111,163.16132307692308L30.84602170138889,163.17544903846155L30.851693229166667,163.20114807692306L30.882886631944444,163.18787307692307L31.003406597222224,163.1889793269231L31.033182118055556,163.1606423076923L31.1239265625,163.2183375L31.19482065972222,163.1451122596154L31.218924652777776,163.17621490384616L31.24444652777778,163.14634615384614L31.301161805555555,163.18336298076923L31.312504861111112,163.1799591346154L31.329519444444447,163.15408990384614L31.377727430555556,163.1189451923077L31.393324131944446,163.18132067307693L31.46138246527778,163.13043317307694L31.491157986111112,163.14949471153847L31.515261979166667,163.14915432692308L31.55496267361111,163.19153221153846L31.796002604166667,163.17672548076922L31.872568229166667,163.1711091346154L31.876821875,163.1628548076923L31.886747048611113,163.1244764423077L31.926447743055558,163.1998716346154L31.95905902777778,163.12490192307692L31.97323784722222,163.14872884615386L32.06398229166667,163.1488139423077L32.075325347222226,163.1429423076923L32.10793663194445,163.16387596153845L32.12778697916667,163.1503456730769L32.16465190972222,163.16072740384615L32.18450225694444,163.17144951923078L32.18733802083333,163.17051346153846L32.26248576388889,163.14345288461539L32.29084340277778,163.13264567307692L32.30502222222223,163.14940961538463L32.34614079861112,163.14115528846153L32.353230208333336,163.13843221153846L32.45389982638889,163.1394533653846L32.487928993055554,163.20846634615384L32.58009131944444,163.1151158653846L32.59852378472222,163.11766875L32.66374635416667,163.13128413461538L32.717625868055556,163.17612980769232L32.762998090277776,163.14949471153847L32.845235243055555,163.1405596153846L32.893443229166664,163.1742576923077L32.9359796875,163.08984230769232L32.94165121527778,163.1405596153846L32.95157638888889,163.1089889423077L32.97000885416667,163.15315384615386L33.03664930555556,163.14983509615385L33.10045399305555,163.08575769230768L33.17701961805555,163.09333125L33.18552690972222,163.14966490384614L33.19828784722222,163.15928076923078L33.21813819444444,163.12660384615384L33.26918194444445,163.14898413461538L33.38544826388889,163.12796538461538L33.41097013888889,163.05639951923078L33.41947743055555,163.16438653846154L33.44074565972222,163.15187740384616L33.444999305555555,163.18753269230768L33.45634236111111,163.16413125L33.488953645833334,163.12975240384614L33.565519270833335,163.16072740384615L33.61939878472222,163.15264326923077L33.646338541666665,163.12813557692309L33.66760677083333,163.12549759615385L33.691710763888885,163.12805048076922L33.727157812499996,163.15647259615383L33.73141145833333,163.16004663461538L33.74133663194444,163.11520096153845L33.756933333333336,163.05742067307693L33.80088767361111,163.1121375L33.99088385416666,163.1001389423077L34.002226909722225,163.08175817307693L34.03058454861111,163.09179951923076L34.168119097222224,163.13392211538462L34.17662638888889,163.09145913461538L34.17804427083333,163.04559230769232L34.21349131944445,163.1102653846154L34.22625225694445,163.12234903846155L34.251774131944444,163.09775625L34.331175520833334,163.09630961538463L34.34535434027778,163.09596923076924L34.49564982638889,163.05061298076924L34.50982864583334,163.02099951923077L34.569379687499996,163.04848557692307L34.57646909722222,163.01997836538462L34.76362951388889,162.9833019230769L34.79765868055555,163.01912740384614L35.098249652777774,162.96743149038463L35.17623315972222,162.95198653846154L35.278320659722226,162.96543173076924L35.47257048611111,162.96917596153847L35.68667065972222,162.97794086538462L35.70084947916666,162.89897163461538L35.724953472222225,162.70214423076922L35.75189322916667,162.87820817307693L35.75756475694445,162.9397326923077L36.02129079861111,163.09018269230768L36.03121597222223,162.7018889423077L36.127631944444445,162.61475048076923L36.20986909722222,162.94705096153845L36.304867187499994,162.66853125L36.57001111111111,162.65576682692307L36.66784496527778,162.75388269230768L36.71605295138889,162.3940110576923L36.74441059027778,162.81574759615384L37.67312326388889,162.25419807692307L37.95386388888888,162.15523124999999L38.07154809027778,162.21964903846154L38.3210953125,162.77166778846154L38.36363177083333,162.01354615384616L38.44019739583334,162.21633028846153L38.47564444444445,161.94938365384616L38.623104166666664,161.91032451923076L38.854218923611114,162.2513048076923L39.022946875,162.0931110576923L39.06548333333333,162.19088653846154L39.39726770833334,162.05098846153845L39.88076545138889,161.9360235576923L39.92188402777778,162.31299951923077L40.04949340277778,161.70005192307693L40.12322326388889,161.89415625L40.31747309027778,161.8996875L40.45075399305556,161.84097115384617L40.47344010416666,161.42612740384615L40.496126215277776,161.6082331730769L40.60246736111111,161.9123668269231L40.71731579861111,161.35430625L40.83216423611111,161.72464471153847L40.91865503472223,161.73953653846155L41.21499236111111,161.61674278846155L41.217828125000004,161.49216201923076L41.72401197916667,161.44961394230768L41.81333854166667,161.5016076923077L41.983484375,161.4595701923077L42.15079444444444,161.28614423076922L42.25855347222222,161.2379798076923L42.418774131944446,161.6592908653846L42.59459149305556,161.07238269230768L42.72220086805556,161.36332644230768L42.84697447916667,160.90014807692307L43.069581944444444,161.17407259615385L43.347486805555555,161.4499543269231L43.416963020833336,161.00966682692308L43.4765140625,161.27082692307692L43.597034027777774,161.11697307692307L44.13015763888889,160.8800653846154L44.148590104166665,160.75761201923078L44.252095486111116,161.17611490384616L44.51723940972222,160.93095288461538L44.63917725694445,160.66689951923075L44.754025694444444,160.76978076923078L44.85185954861111,161.13688557692308L45.669977430555555,160.6194158653846L45.77631857638889,160.6389028846154L46.08541684027777,160.48334711538462L46.17048975694444,160.88117163461538L46.28959184027777,160.59933317307693L46.347725000000004,160.6107360576923L46.38884357638889,160.23333461538462L46.69085243055555,160.75182548076924L46.81846180555555,160.1005846153846L46.836894270833334,160.29588028846155L47.19845416666667,160.72918990384616L47.2537515625,160.61635240384615L47.36576423611111,160.53261778846155L47.368599999999994,160.62605336538462L47.72448836805555,160.37893413461538L47.745756597222226,160.03531586538463L47.75568177083333,160.07080096153845L47.76560694444444,160.78824663461538L47.991050173611114,160.31894134615385L48.071869444444445,160.40948365384617L48.13000260416666,160.44598990384617L48.20940399305556,160.35451153846154L48.30298420138889,160.5116841346154L48.4532796875,160.36336153846153L48.60215729166667,160.3430235576923L48.65887256944444,160.25886346153845L48.844615104166664,160.09913798076923L49.89101197916667,160.0257L50.201528125,160.38940096153846L50.45391111111111,160.31255913461538L50.560252256944445,159.9036721153846L50.62405694444445,160.30804903846155L50.65241458333334,159.9503048076923L50.87360416666667,160.17827740384615L50.90479756944444,159.91235192307693L51.222403125,160.1309639423077L51.25501440972222,159.88044086538463L51.29755086805556,160.33459903846153L51.58679878472222,159.45155625L51.66336440972223,159.93175384615384L51.70590086805555,159.85984759615386L52.01783489583333,159.12691442307693L52.244696006944444,159.6990158653846L52.498496875,160.41178125L52.70125399305556,159.94060384615383L52.725357986111106,159.30595673076922L53.02311319444444,159.7622423076923L53.13370798611111,159.39564807692307L53.20318420138889,159.89839615384616L53.53780434027778,159.74403173076922L53.61578784722222,159.94681586538462L53.621459375,159.72658701923078L53.93622916666667,160.10330769230768L54.484949479166666,159.79636586538462L54.49345677083333,159.63800192307693L54.687706597222224,159.5778389423077L54.79121197916667,159.32646490384616L54.86068819444445,159.69629278846153L55.005312152777776,159.59732596153847L55.534182118055554,159.3428033653846L55.55545034722222,159.33293221153846L55.663209374999994,159.55801153846153L55.76104322916667,159.97362115384615L56.082902430555556,159.2857889423077L56.163721701388894,159.85176346153847L56.55505711805556,159.15661298076924L57.32071336805556,159.34824951923076L57.32213125,159.27259903846155L57.42847239583333,159.09415240384615L57.770181944444445,159.15210288461537L57.80562899305556,159.70667451923077L57.8453296875,159.0744951923077L57.8708515625,159.54975721153846L57.91622378472223,159.60719711538462L57.960178125,159.57298846153847L58.576956770833334,159.36297115384616L58.850607986111115,159.42500625L58.938516666666665,159.40407259615384L59.35679184027778,159.44849278846155L59.368134895833336,159.4467483173077L59.60917482638889,159.10019423076923L59.658800694444444,158.959275L59.663054340277775,159.26842932692307L59.71693385416666,159.43257980769232L59.79208159722222,158.9330653846154L59.91969097222222,159.13950865384615L61.066757465277774,159.78334615384614L61.3545875,159.16427163461537L61.39570607638889,158.89460192307692L61.42406371527778,159.39726490384615L61.433988888888884,158.79801778846155L61.8012203125,159.58864615384616L62.07628940972222,159.24511298076922L62.542772569444445,159.02003365384616L62.99224114583333,159.06581538461538L63.25454930555556,159.36450288461538L63.31126458333333,159.4163264423077L63.73237552083334,158.58025673076924L63.783419270833335,158.57268317307694L64.02162343750001,158.98548461538462L64.05139895833334,158.33637115384616L64.12512881944444,158.43295528846153L64.17617256944445,158.27127259615384L64.50370329861111,158.73853557692308L65.3742828125,158.64382355769231L65.65218767361111,158.8597125L65.71457447916667,158.8860923076923L65.72733541666666,158.47201442307693L65.93009253472222,158.53328365384615L66.21083315972221,158.67411778846153L66.69291302083333,159.02339495192308L66.97223576388889,158.15315913461538L67.1608140625,158.50528701923076L67.30402013888889,158.42265865384616L67.4259579861111,157.86536394230768L67.62446145833334,158.4439326923077L67.9264703125,158.3023326923077L68.38019253472221,157.79643605769232L69.02816458333334,157.66189903846154L69.18129583333334,158.26837932692308L69.29898003472222,157.4062701923077L69.50740868055556,158.1164826923077L69.51875173611111,157.89591346153847L70.1341125,157.59569423076923L70.22202118055556,158.08465673076924L70.55380555555556,158.14924471153847L70.69275798611112,157.9992201923077L70.81753159722221,157.53136153846154L71.05006423611111,157.58284471153846L71.23722465277778,158.22753317307692L71.35916250000001,158.24948798076923L71.76325885416666,158.40138461538461L72.31339704861111,157.64045480769232L72.37578385416667,157.07269326923077L72.456603125,156.9748326923077L72.52891510416667,157.96458605769232L72.95002604166666,157.9856048076923L73.44628472222223,157.2530971153846L73.53561128472222,157.63309399038462L74.04037725694445,158.13724615384615L74.18641909722221,157.85396105769232L74.72521423611111,157.06256682692307L74.77342222222222,157.4455846153846L75.39303663194444,156.96419567307692L76.6039078125,156.37498990384614L76.95696041666666,156.60823846153846L77.05479427083333,157.3419375L77.19232881944444,156.68108076923076L77.38799652777777,157.54480673076924L77.76089947916665,157.5755264423077L78.11962361111112,156.29499951923077L78.27842638888889,157.06214134615385L78.39469270833332,156.9070110576923L78.40887152777778,157.60990528846153L79.30497291666666,157.0056375L79.79272430555555,156.8321264423077L80.28331145833333,157.04801538461538L80.47897916666668,157.06086490384615L80.61934947916667,156.5658605769231L80.623603125,154.71016875L80.72852638888888,157.01218990384615L80.7668092013889,156.6658485576923L81.15530885416666,155.9541894230769L81.57641979166667,156.7222673076923L81.60052378472223,156.38315913461537L81.73096892361112,156.9831721153846L81.88126440972222,156.91790336538463L82.08402152777778,156.0997889423077L82.77027638888889,157.03006009615385L83.14459722222222,156.1669298076923L83.36436892361111,156.66372115384615L83.77555468749999,156.8546769230769L83.94286475694445,155.91070528846154L84.26755972222223,157.24203461538463L84.65464149305556,156.4171125L84.82053368055556,156.1351889423077L85.1509001736111,157.3649985576923L85.23455520833333,156.49208221153845L86.02431545138889,156.4965923076923L86.2738626736111,155.0910591346154L86.40005416666668,156.35397115384615L86.79847899305555,156.43328076923078L87.3230953125,156.56722211538462L87.83636857638888,155.62776057692307L88.17382447916665,155.22100096153846L88.20076423611111,155.64894951923077L88.9820171875,156.3603533653846L89.04440399305555,154.38910096153847L89.32798038194444,155.01711057692307L89.4158890625,155.33826346153847L89.43857517361111,155.6596716346154L89.6484217013889,155.81803557692308L90.10214392361111,156.45889471153845L90.25669305555554,154.64200673076922L90.76145902777778,156.0242235576923L92.15665486111112,155.61474086538462L92.17366944444444,155.08901682692309L92.28426423611111,155.5158591346154L92.66425659722222,155.16662451923077L92.73089704861111,155.43978317307693L92.96201180555555,156.48816778846154L93.06126354166666,155.47390673076922L93.6525203125,156.01333125L94.10057100694445,155.77531730769232L94.58406875,156.30010528846154L95.1809970486111,154.98085961538462L95.2476375,154.84172740384616L95.48584166666666,155.62682451923078L95.5666609375,154.5010875L96.5265670138889,155.60308269230768L97.02282569444445,155.69149759615385L97.18304635416666,155.02562019230768L97.19438940972222,155.2800576923077L97.76579583333333,154.77356538461538L98.03377552083333,154.33846875L98.16138489583334,154.32383221153847L99.17800625,153.65991201923077L99.5735953125,154.46466634615385L99.57926684027777,153.9234548076923L100.31514756944445,153.92090192307694L100.70364722222223,153.81870144230768L101.17721979166667,154.1498956730769L102.97934774305556,154.3014519230769L103.59896215277779,152.66369134615385L103.62590190972222,153.9138389423077L103.64149861111112,153.42130240384614L104.13775729166667,153.67812259615386L104.1831295138889,154.59137451923078L104.89207048611111,154.4481576923077L105.89593090277778,154.03952596153846L106.29010208333332,150.9348778846154L106.60061822916667,151.54901682692307L107.03023645833333,152.26135673076922L107.48254079861111,151.86753173076923L108.15745260416666,151.88599759615386L108.6211,153.48886875L109.27190781249999,150.11872067307692L110.05174288194445,152.60412403846155L110.126890625,152.4183591346154L110.22330659722223,150.7094581730769L110.55934461805555,154.01791153846153L111.16478020833333,150.5265014423077L111.83118472222222,151.2850485576923L111.98998750000001,150.1821173076923L112.30759305555556,149.98784278846153L112.38274079861111,152.43384663461538L112.39691961805555,150.94219615384617L113.0009373263889,150.4642110576923L115.29790607638888,152.3878096153846L116.56549253472222,150.19343509615385L117.10286979166666,151.57811971153848L117.59912847222222,150.13003846153845L119.58841684027777,148.23375576923075L119.66498246527779,152.0855480769231L120.70287204861111,152.38066153846154L121.16651944444445,151.47770624999998L122.14485798611112,150.38753942307693L122.91902152777779,147.5232028846154L123.22811979166667,148.13334230769232L123.69743871527778,150.57670817307692L124.38511145833334,150.8890110576923L124.94092118055556,149.80275865384615L124.97920399305555,149.6087394230769L125.28263072916667,149.70940817307692L125.48822361111111,147.1157625L125.54919253472222,150.50497211538462L125.81717222222223,148.14483028846155L126.11918107638888,150.44302211538462L126.63245434027777,148.05539423076922L126.63812586805555,149.91661730769232L126.68916961805556,147.69424615384617L128.50122274305556,148.45883509615385L128.73375538194443,147.03304903846154L128.81599253472223,145.92484182692309L130.17290555555556,148.70867740384614L130.9045326388889,143.59533461538462L130.9725909722222,152.3026283653846L131.0193810763889,146.30666826923078L131.05057447916667,148.1028778846154L131.75809756944446,149.64192692307694L133.81544427083332,146.8301798076923L137.11343767361112,144.277125L139.18070954861113,143.59269663461538L139.5989847222222,146.58110336538462L140.4950861111111,145.53927115384616L141.05514947916666,145.1599125L141.79528385416666,140.82996490384616L142.30004982638889,145.98968509615383L143.57047204861112,142.23983798076924L143.62435156249998,142.2213721153846L144.2524732638889,141.43874278846152L146.90958402777778,139.39235048076924L147.57882430555557,137.81739086538462L147.82837152777776,140.78469375L151.063978125,135.24195576923077L151.84948472222223,137.15755528846154L153.47721319444443,134.9661591346154L153.72534253472222,135.9808456730769L153.76787899305555,139.28980961538463L154.81994739583334,136.59872884615385L155.04964427083334,133.75268798076922L155.8209720486111,135.58089375L156.13432395833334,135.98441971153846L157.3295984375,135.32015913461538L157.33101631944444,138.6515033653846L158.8609109375,134.56297355769232L159.03247465277778,137.60243798076922L159.64074600694443,133.73269038461538L159.69320763888888,129.24054951923077L160.5652050347222,130.60719375L163.31306024305556,131.46811153846153L165.84539739583334,130.26834086538463L166.50613038194444,129.07333557692309L167.77797048611112,127.94751346153845L168.0969939236111,135.76155288461538L170.3514262152778,119.92481826923077L174.72417413194444,124.55685721153846L177.55426649305554,109.78893028846154L177.63792152777776,118.99165384615385L180.55875833333334,130.51350288461538L181.37545833333334,107.76313125L182.35946840277776,117.92616490384616L183.57317534722222,113.40228317307692L189.857228125,116.20645673076923L197.7661736111111,99.07957932692307L198.95435868055557,117.10822067307691L200.42186649305555,100.22693076923078L202.42816944444442,134.13187644230769L204.84282239583334,82.05762548076922L205.7701171875,115.40348942307693L206.32876267361112,90.26191586538461L222.86693767361112,78.84967067307693L238.7514690972222,71.94760673076922L244.65269375,71.01631442307692L245.2680545138889,73.08210865384615L245.26947239583333,61.891198557692306L245.27089027777777,60.86783221153847L245.27230815972223,97.76322692307691L245.27372604166666,54.82123990384616L245.2751439236111,97.34268173076923L245.27656180555556,88.76005384615385L245.2779796875,81.01672932692308L245.27939756944446,96.17924711538461L245.2808154513889,59.10761826923077L245.28223333333332,88.01384567307693L245.28365121527779,93.20079663461539L245.28506909722222,34.64034663461538L245.28648697916665,82.07626153846154L245.28790486111112,38.45673894230768L245.28932274305555,34.93231153846153L245.29074062499998,37.31500384615384L245.29215850694445,57.71153076923076L245.2935763888889,77.94237548076923L245.2949942708333,59.51633509615385L245.29641215277778,35.70319759615384L245.29783003472224,52.7115360576923L245.29924791666664,27.225323076923075L245.3006657986111,25.840127884615384L245.30208368055557,27.833164903846153L245.30350156249997,20.760653365384627L245.30491944444444,35.59214711538462L245.3063373263889,29.17351442307691L245.30775520833333,37.179190384615396L245.30917309027777,26.319474519230766L245.31059097222223,27.30744086538462L245.31200885416666,30.47267740384615L245.3134267361111,26.517493269230783L245.31484461805556,20.758440865384614L245.31626250000002,13.030178365384614L245.31768038194443,20.05818461538462L245.3190982638889,31.46149471153845L245.32051614583335,32.18455673076923L245.3219340277778,13.687631249999981L245.32335190972222,21.517498557692306L245.32476979166668,34.81598509615384L245.32618767361112,28.820705769230784L245.32760555555555,28.990047115384613L245.3290234375,26.36202259615385L245.33044131944445,16.18562884615386L245.33185920138888,25.024225961538463L245.33327708333334,29.729447596153847L245.33469496527778,21.895750961538482L245.3361128472222,46.22184807692307L245.33753072916667,22.695654807692307L245.3389486111111,15.21459663461539L245.34036649305557,27.666291346153855" style="fill: none;" fill="none"></path></g></g></g></g></g></g><g transform="translate(74, 177)" clip-path="url(#clip_1)"><clipPath id="clip_1"><rect width="255" height="23"></rect></clipPath><g><g><line x1="0" y1="0" x2="0" y2="5" style="visibility: inherit;" fill="rgb(0, 0, 0)" stroke="rgb(204, 204, 204)" stroke-width="1px"></line><line x1="28.357638888888886" y1="0" x2="28.357638888888886" y2="5" style="visibility: inherit;" fill="rgb(0, 0, 0)" stroke="rgb(204, 204, 204)" stroke-width="1px"></line><line x1="56.71527777777777" y1="0" x2="56.71527777777777" y2="5" style="visibility: inherit;" fill="rgb(0, 0, 0)" stroke="rgb(204, 204, 204)" stroke-width="1px"></line><line x1="85.07291666666666" y1="0" x2="85.07291666666666" y2="5" style="visibility: inherit;" fill="rgb(0, 0, 0)" stroke="rgb(204, 204, 204)" stroke-width="1px"></line><line x1="113.43055555555554" y1="0" x2="113.43055555555554" y2="5" style="visibility: inherit;" fill="rgb(0, 0, 0)" stroke="rgb(204, 204, 204)" stroke-width="1px"></line><line x1="141.78819444444446" y1="0" x2="141.78819444444446" y2="5" style="visibility: inherit;" fill="rgb(0, 0, 0)" stroke="rgb(204, 204, 204)" stroke-width="1px"></line><line x1="170.14583333333331" y1="0" x2="170.14583333333331" y2="5" style="visibility: inherit;" fill="rgb(0, 0, 0)" stroke="rgb(204, 204, 204)" stroke-width="1px"></line><line x1="198.50347222222223" y1="0" x2="198.50347222222223" y2="5" style="visibility: inherit;" fill="rgb(0, 0, 0)" stroke="rgb(204, 204, 204)" stroke-width="1px"></line><line x1="226.8611111111111" y1="0" x2="226.8611111111111" y2="5" style="visibility: inherit;" fill="rgb(0, 0, 0)" stroke="rgb(204, 204, 204)" stroke-width="1px"></line><line x1="255.21875" y1="0" x2="255.21875" y2="5" style="visibility: inherit;" fill="rgb(0, 0, 0)" stroke="rgb(204, 204, 204)" stroke-width="1px"></line></g><g transform="translate(0, 8)"><text x="0" y="0" dx="0em" dy="0.95em" style="text-anchor: middle; visibility: hidden; font-family: &quot;Helvetica Neue&quot;, sans-serif; font-size: 12px; font-weight: 200;" fill="rgb(50, 49, 63)" stroke="none" stroke-width="1px">-20k</text><text x="28.357638888888886" y="0" dx="0em" dy="0.95em" style="text-anchor: middle; visibility: inherit; font-family: &quot;Helvetica Neue&quot;, sans-serif; font-size: 12px; font-weight: 200;" fill="rgb(50, 49, 63)" stroke="none" stroke-width="1px">0</text><text x="56.71527777777777" y="0" dx="0em" dy="0.95em" style="text-anchor: middle; visibility: hidden; font-family: &quot;Helvetica Neue&quot;, sans-serif; font-size: 12px; font-weight: 200;" fill="rgb(50, 49, 63)" stroke="none" stroke-width="1px">20k</text><text x="85.07291666666666" y="0" dx="0em" dy="0.95em" style="text-anchor: middle; visibility: inherit; font-family: &quot;Helvetica Neue&quot;, sans-serif; font-size: 12px; font-weight: 200;" fill="rgb(50, 49, 63)" stroke="none" stroke-width="1px">40k</text><text x="113.43055555555554" y="0" dx="0em" dy="0.95em" style="text-anchor: middle; visibility: hidden; font-family: &quot;Helvetica Neue&quot;, sans-serif; font-size: 12px; font-weight: 200;" fill="rgb(50, 49, 63)" stroke="none" stroke-width="1px">60k</text><text x="141.78819444444446" y="0" dx="0em" dy="0.95em" style="text-anchor: middle; visibility: inherit; font-family: &quot;Helvetica Neue&quot;, sans-serif; font-size: 12px; font-weight: 200;" fill="rgb(50, 49, 63)" stroke="none" stroke-width="1px">80k</text><text x="170.14583333333331" y="0" dx="0em" dy="0.95em" style="text-anchor: middle; visibility: hidden; font-family: &quot;Helvetica Neue&quot;, sans-serif; font-size: 12px; font-weight: 200;" fill="rgb(50, 49, 63)" stroke="none" stroke-width="1px">100k</text><text x="198.50347222222223" y="0" dx="0em" dy="0.95em" style="text-anchor: middle; visibility: inherit; font-family: &quot;Helvetica Neue&quot;, sans-serif; font-size: 12px; font-weight: 200;" fill="rgb(50, 49, 63)" stroke="none" stroke-width="1px">120k</text><text x="226.8611111111111" y="0" dx="0em" dy="0.95em" style="text-anchor: middle; visibility: hidden; font-family: &quot;Helvetica Neue&quot;, sans-serif; font-size: 12px; font-weight: 200;" fill="rgb(50, 49, 63)" stroke="none" stroke-width="1px">140k</text><text x="255.21875" y="0" dx="0em" dy="0.95em" style="text-anchor: middle; visibility: hidden; font-family: &quot;Helvetica Neue&quot;, sans-serif; font-size: 12px; font-weight: 200;" fill="rgb(50, 49, 63)" stroke="none" stroke-width="1px">160k</text></g><line x1="0" y1="0" x2="255.21875" y2="0" fill="rgb(0, 0, 0)" stroke="rgb(204, 204, 204)" stroke-width="1px"></line></g></g></g></g></svg>