<svg viewBox="0 0 330 200" xmlns="http://www.w3.org/2000/svg"><g><g><g><g><g><line x1="53.1875" y1="177" x2="48.1875" y2="177" style="visibility: inherit;" fill="rgb(0, 0, 0)" stroke="rgb(204, 204, 204)" stroke-width="1px"></line><line x1="53.1875" y1="163.3846153846154" x2="48.1875" y2="163.3846153846154" style="visibility: inherit;" fill="rgb(0, 0, 0)" stroke="rgb(204, 204, 204)" stroke-width="1px"></line><line x1="53.1875" y1="149.76923076923077" x2="48.1875" y2="149.76923076923077" style="visibility: inherit;" fill="rgb(0, 0, 0)" stroke="rgb(204, 204, 204)" stroke-width="1px"></line><line x1="53.1875" y1="136.15384615384616" x2="48.1875" y2="136.15384615384616" style="visibility: inherit;" fill="rgb(0, 0, 0)" stroke="rgb(204, 204, 204)" stroke-width="1px"></line><line x1="53.1875" y1="122.53846153846153" x2="48.1875" y2="122.53846153846153" style="visibility: inherit;" fill="rgb(0, 0, 0)" stroke="rgb(204, 204, 204)" stroke-width="1px"></line><line x1="53.1875" y1="108.92307692307692" x2="48.1875" y2="108.92307692307692" style="visibility: inherit;" fill="rgb(0, 0, 0)" stroke="rgb(204, 204, 204)" stroke-width="1px"></line><line x1="53.1875" y1="95.3076923076923" x2="48.1875" y2="95.3076923076923" style="visibility: inherit;" fill="rgb(0, 0, 0)" stroke="rgb(204, 204, 204)" stroke-width="1px"></line><line x1="53.1875" y1="81.6923076923077" x2="48.1875" y2="81.6923076923077" style="visibility: inherit;" fill="rgb(0, 0, 0)" stroke="rgb(204, 204, 204)" stroke-width="1px"></line><line x1="53.1875" y1="68.07692307692307" x2="48.1875" y2="68.07692307692307" style="visibility: inherit;" fill="rgb(0, 0, 0)" stroke="rgb(204, 204, 204)" stroke-width="1px"></line><line x1="53.1875" y1="54.46153846153847" x2="48.1875" y2="54.46153846153847" style="visibility: inherit;" fill="rgb(0, 0, 0)" stroke="rgb(204, 204, 204)" stroke-width="1px"></line><line x1="53.1875" y1="40.84615384615384" x2="48.1875" y2="40.84615384615384" style="visibility: inherit;" fill="rgb(0, 0, 0)" stroke="rgb(204, 204, 204)" stroke-width="1px"></line><line x1="53.1875" y1="27.230769230769226" x2="48.1875" y2="27.230769230769226" style="visibility: inherit;" fill="rgb(0, 0, 0)" stroke="rgb(204, 204, 204)" stroke-width="1px"></line><line x1="53.1875" y1="13.615384615384613" x2="48.1875" y2="13.615384615384613" style="visibility: inherit;" fill="rgb(0, 0, 0)" stroke="rgb(204, 204, 204)" stroke-width="1px"></line><line x1="53.1875" y1="0" x2="48.1875" y2="0" style="visibility: inherit;" fill="rgb(0, 0, 0)" stroke="rgb(204, 204, 204)" stroke-width="1px"></line></g><g transform="translate(43.1875, 0)"><text x="0" y="177" dx="0em" dy="0.3em" style="text-anchor: end; visibility: hidden; font-family: &quot;Helvetica Neue&quot;, sans-serif; font-size: 12px; font-weight: 200;" fill="rgb(50, 49, 63)" stroke="none" stroke-width="1px">-220</text><text x="0" y="163.3846153846154" dx="0em" dy="0.3em" style="text-anchor: end; visibility: inherit; font-family: &quot;Helvetica Neue&quot;, sans-serif; font-size: 12px; font-weight: 200;" fill="rgb(50, 49, 63)" stroke="none" stroke-width="1px">-200</text><text x="0" y="149.76923076923077" dx="0em" dy="0.3em" style="text-anchor: end; visibility: hidden; font-family: &quot;Helvetica Neue&quot;, sans-serif; font-size: 12px; font-weight: 200;" fill="rgb(50, 49, 63)" stroke="none" stroke-width="1px">-180</text><text x="0" y="136.15384615384616" dx="0em" dy="0.3em" style="text-anchor: end; visibility: inherit; font-family: &quot;Helvetica Neue&quot;, sans-serif; font-size: 12px; font-weight: 200;" fill="rgb(50, 49, 63)" stroke="none" stroke-width="1px">-160</text><text x="0" y="122.53846153846153" dx="0em" dy="0.3em" style="text-anchor: end; visibility: hidden; font-family: &quot;Helvetica Neue&quot;, sans-serif; font-size: 12px; font-weight: 200;" fill="rgb(50, 49, 63)" stroke="none" stroke-width="1px">-140</text><text x="0" y="108.92307692307692" dx="0em" dy="0.3em" style="text-anchor: end; visibility: inherit; font-family: &quot;Helvetica Neue&quot;, sans-serif; font-size: 12px; font-weight: 200;" fill="rgb(50, 49, 63)" stroke="none" stroke-width="1px">-120</text><text x="0" y="95.3076923076923" dx="0em" dy="0.3em" style="text-anchor: end; visibility: hidden; font-family: &quot;Helvetica Neue&quot;, sans-serif; font-size: 12px; font-weight: 200;" fill="rgb(50, 49, 63)" stroke="none" stroke-width="1px">-100</text><text x="0" y="81.6923076923077" dx="0em" dy="0.3em" style="text-anchor: end; visibility: inherit; font-family: &quot;Helvetica Neue&quot;, sans-serif; font-size: 12px; font-weight: 200;" fill="rgb(50, 49, 63)" stroke="none" stroke-width="1px">-80</text><text x="0" y="68.07692307692307" dx="0em" dy="0.3em" style="text-anchor: end; visibility: hidden; font-family: &quot;Helvetica Neue&quot;, sans-serif; font-size: 12px; font-weight: 200;" fill="rgb(50, 49, 63)" stroke="none" stroke-width="1px">-60</text><text x="0" y="54.46153846153847" dx="0em" dy="0.3em" style="text-anchor: end; visibility: inherit; font-family: &quot;Helvetica Neue&quot;, sans-serif; font-size: 12px; font-weight: 200;" fill="rgb(50, 49, 63)" stroke="none" stroke-width="1px">-40</text><text x="0" y="40.84615384615384" dx="0em" dy="0.3em" style="text-anchor: end; visibility: hidden; font-family: &quot;Helvetica Neue&quot;, sans-serif; font-size: 12px; font-weight: 200;" fill="rgb(50, 49, 63)" stroke="none" stroke-width="1px">-20</text><text x="0" y="27.230769230769226" dx="0em" dy="0.3em" style="text-anchor: end; visibility: inherit; font-family: &quot;Helvetica Neue&quot;, sans-serif; font-size: 12px; font-weight: 200;" fill="rgb(50, 49, 63)" stroke="none" stroke-width="1px">0</text><text x="0" y="13.615384615384613" dx="0em" dy="0.3em" style="text-anchor: end; visibility: hidden; font-family: &quot;Helvetica Neue&quot;, sans-serif; font-size: 12px; font-weight: 200;" fill="rgb(50, 49, 63)" stroke="none" stroke-width="1px">20</text><text x="0" y="0" dx="0em" dy="0.3em" style="text-anchor: end; visibility: hidden; font-family: &quot;Helvetica Neue&quot;, sans-serif; font-size: 12px; font-weight: 200;" fill="rgb(50, 49, 63)" stroke="none" stroke-width="1px">40</text></g><line x1="53.1875" y1="0" x2="53.1875" y2="177" fill="rgb(0, 0, 0)" stroke="rgb(204, 204, 204)" stroke-width="1px"></line></g></g><g transform="translate(53, 0)" clip-path="url(#clip_0)"><clipPath id="clip_0"><rect width="276" height="177"></rect></clipPath><g><g><g><line x1="0" y1="0" x2="0" y2="177" fill="rgb(0, 0, 0)" stroke="rgb(60, 60, 60)" stroke-width="1px" opacity="0.25"></line><line x1="30.756944444444443" y1="0" x2="30.756944444444443" y2="177" fill="rgb(0, 0, 0)" stroke="rgb(60, 60, 60)" stroke-width="1px" opacity="0.25"></line><line x1="61.513888888888886" y1="0" x2="61.513888888888886" y2="177" fill="rgb(0, 0, 0)" stroke="rgb(60, 60, 60)" stroke-width="1px" opacity="0.25"></line><line x1="92.27083333333333" y1="0" x2="92.27083333333333" y2="177" fill="rgb(0, 0, 0)" stroke="rgb(60, 60, 60)" stroke-width="1px" opacity="0.25"></line><line x1="123.02777777777777" y1="0" x2="123.02777777777777" y2="177" fill="rgb(0, 0, 0)" stroke="rgb(60, 60, 60)" stroke-width="1px" opacity="0.25"></line><line x1="153.78472222222223" y1="0" x2="153.78472222222223" y2="177" fill="rgb(0, 0, 0)" stroke="rgb(60, 60, 60)" stroke-width="1px" opacity="0.25"></line><line x1="184.54166666666666" y1="0" x2="184.54166666666666" y2="177" fill="rgb(0, 0, 0)" stroke="rgb(60, 60, 60)" stroke-width="1px" opacity="0.25"></line><line x1="215.29861111111111" y1="0" x2="215.29861111111111" y2="177" fill="rgb(0, 0, 0)" stroke="rgb(60, 60, 60)" stroke-width="1px" opacity="0.25"></line><line x1="246.05555555555554" y1="0" x2="246.05555555555554" y2="177" fill="rgb(0, 0, 0)" stroke="rgb(60, 60, 60)" stroke-width="1px" opacity="0.25"></line><line x1="276.8125" y1="0" x2="276.8125" y2="177" fill="rgb(0, 0, 0)" stroke="rgb(60, 60, 60)" stroke-width="1px" opacity="0.25"></line></g><g><line x1="0" y1="177" x2="276.8125" y2="177" fill="rgb(0, 0, 0)" stroke="rgb(60, 60, 60)" stroke-width="1px" opacity="0.25"></line><line x1="0" y1="163.3846153846154" x2="276.8125" y2="163.3846153846154" fill="rgb(0, 0, 0)" stroke="rgb(60, 60, 60)" stroke-width="1px" opacity="0.25"></line><line x1="0" y1="149.76923076923077" x2="276.8125" y2="149.76923076923077" fill="rgb(0, 0, 0)" stroke="rgb(60, 60, 60)" stroke-width="1px" opacity="0.25"></line><line x1="0" y1="136.15384615384616" x2="276.8125" y2="136.15384615384616" fill="rgb(0, 0, 0)" stroke="rgb(60, 60, 60)" stroke-width="1px" opacity="0.25"></line><line x1="0" y1="122.53846153846153" x2="276.8125" y2="122.53846153846153" fill="rgb(0, 0, 0)" stroke="rgb(60, 60, 60)" stroke-width="1px" opacity="0.25"></line><line x1="0" y1="108.92307692307692" x2="276.8125" y2="108.92307692307692" fill="rgb(0, 0, 0)" stroke="rgb(60, 60, 60)" stroke-width="1px" opacity="0.25"></line><line x1="0" y1="95.3076923076923" x2="276.8125" y2="95.3076923076923" fill="rgb(0, 0, 0)" stroke="rgb(60, 60, 60)" stroke-width="1px" opacity="0.25"></line><line x1="0" y1="81.6923076923077" x2="276.8125" y2="81.6923076923077" fill="rgb(0, 0, 0)" stroke="rgb(60, 60, 60)" stroke-width="1px" opacity="0.25"></line><line x1="0" y1="68.07692307692307" x2="276.8125" y2="68.07692307692307" fill="rgb(0, 0, 0)" stroke="rgb(60, 60, 60)" stroke-width="1px" opacity="0.25"></line><line x1="0" y1="54.46153846153847" x2="276.8125" y2="54.46153846153847" fill="rgb(0, 0, 0)" stroke="rgb(60, 60, 60)" stroke-width="1px" opacity="0.25"></line><line x1="0" y1="40.84615384615384" x2="276.8125" y2="40.84615384615384" fill="rgb(0, 0, 0)" stroke="rgb(60, 60, 60)" stroke-width="1px" opacity="0.25"></line><line x1="0" y1="27.230769230769226" x2="276.8125" y2="27.230769230769226" fill="rgb(0, 0, 0)" stroke="rgb(60, 60, 60)" stroke-width="1px" opacity="0.25"></line><line x1="0" y1="13.615384615384613" x2="276.8125" y2="13.615384615384613" fill="rgb(0, 0, 0)" stroke="rgb(60, 60, 60)" stroke-width="1px" opacity="0.25"></line><line x1="0" y1="0" x2="276.8125" y2="0" fill="rgb(0, 0, 0)" stroke="rgb(60, 60, 60)" stroke-width="1px" opacity="0.25"></line></g></g></g><g><g><line x1="0" y1="27.230769230769226" x2="276.8125" y2="27.230769230769226" fill="rgb(0, 0, 0)" stroke="rgb(153, 153, 153)" stroke-width="1.5px"></line></g></g><g><g><line x1="30.756944444444443" y1="0" x2="30.756944444444443" y2="177" fill="rgb(0, 0, 0)" stroke="rgb(153, 153, 153)" stroke-width="1.5px"></line></g></g><g><g><g><g><g><path stroke="rgb(255, 112, 67)" stroke-width="2px" d="M32.79920555555556,134.75226305448092L33.87877430555556,146.27664456077918L33.994112847222226,147.0365644528045L34.64462222222222,135.77788069983131L34.68768194444445,143.21195474170915L34.867610069444446,144.99885118494842L34.96910798611111,143.90844008871466L35.498127430555556,138.3984344876674L35.56425486111111,147.76992251191064L35.827226736111115,143.54157152689356L35.830302430555555,139.2949421653883L36.62690729166667,133.34675365058277L36.731480902777776,132.3278720201715L36.76685138888889,131.11249433676414L37.27434097222222,133.52897810569323L37.42812569444445,136.051604666567L38.29393368055556,137.45762564463274L39.44424340277778,139.79064251141946L39.85177291666666,140.24580424598918L40.11320694444444,137.68342305855313L40.41308715277778,135.49761799310906L40.556106944444444,141.2829858132099L40.61762083333333,132.9392230788677L40.78217048611111,128.98102009407575L40.803700347222225,137.47803938994375L41.26813020833334,127.80239161735712L41.28504652777778,128.8870835551353L41.35732534722223,132.38966224951497L41.54801840277778,127.80056131986095L41.66489479166666,122.51909361605587L42.12317326388889,116.31630431806416L42.330782638888884,113.5465470527597L42.547619097222224,119.97928536804415L42.89517256944444,124.57237250865099L43.0166625,138.72640569175053L43.167371527777775,136.0865530836654L43.46878958333333,148.68298313586953L43.47494097222222,143.84510934133357L43.797888888888885,136.45323867424028L43.98858194444445,135.59995303011266L44.329984027777776,131.49131511050638L44.64370486111111,126.79557921476608L44.67907534722222,124.3591721065819L44.69906736111111,116.80829764321369L45.00817465277778,111.90751447707413L45.29575208333333,107.12706904823389L45.31113055555556,103.15996998573266L45.48952083333333,97.95063532164188L46.00162395833333,96.6167024684943L46.41376701388889,95.70795887414225L46.83359930555555,92.6036872693595L47.74246701388889,93.0119459187239L48.67440243055555,91.07848729848719L49.12960520833333,88.23924304156317L49.189581249999996,93.89205973322159L49.35259305555555,94.95178178732935L49.535596874999996,94.24956010778577L50.001564583333334,90.9441941162367L50.08307048611111,90.61743016224058L50.293755555555556,87.48788377403385L50.678217361111116,85.83912131864837L51.56555520833333,84.46936925149323L51.75624826388889,82.84501592863924L51.75778611111111,82.49787417613373L51.91464652777778,83.60132495616588L52.28834340277778,85.35228771557627L52.55900451388889,83.80212079941634L53.327928125,85.10496776631231L53.38636631944445,87.17620126797402L53.43557743055556,86.80912019361719L53.75852534722222,89.53944006243574L54.45517013888889,91.3879725280403L55.36096215277778,90.12282798379121L55.68544791666667,91.42959873178748L55.76234027777778,89.43397742478159L55.95149548611111,89.07787891019993L56.04530416666666,88.35855668950299L56.09297743055556,94.73475063654722L57.00645868055555,93.23638525826227L57.08488888888889,90.58370565112229L57.43398020833333,87.77424415640587L58.185987499999996,88.60337695495663L58.302863888888886,85.1614140382638L58.33669652777778,82.76334235369526L58.747301736111105,83.65275199294699L58.916464930555556,87.6609229368093L58.98413020833334,87.34768235309778L59.42241666666667,88.37070280970192L59.70538055555556,90.52823822268378L59.80687847222222,89.62415301415521L61.09251875,88.20966958245651L61.10174583333333,89.19184015079868L61.61077326388889,93.01006089726718L62.41506736111111,91.23146591343777L62.43044583333334,92.15821677839719L63.07787951388889,89.93720903195337L63.134779861111106,86.0296645113684L63.262421180555556,92.39021453449885L63.27779965277777,94.19332301090881L63.300867361111116,94.01202414805068L63.36699479166666,98.04930244530503L63.689942708333334,95.97105825713626L63.916006249999995,92.97735600204969L63.92830902777778,93.77771144579155L64.33430069444445,94.69658932849865L64.33583854166666,92.96822475388845L64.46194201388889,90.08194262013504L65.24163055555556,84.7158023873022L65.25547118055556,85.71373231382307L65.37080972222222,87.14117037942037L66.02747048611111,84.83761115038111L66.64260937499999,83.65752242712698L66.76871284722222,84.15690170341773L67.71448888888888,82.70774110237629L68.19891076388889,83.31420118182908L68.37576319444445,83.31842199464249L68.75407361111111,81.22695523257198L69.0985513888889,80.62675731649166L69.58604895833334,81.65235449550683L70.17658229166666,81.8151966680191L70.26116388888889,83.0963730324198L70.28423159722222,83.0648893891031L70.60564166666667,81.19166527116703L70.6779204861111,79.60788000385593L71.41608715277779,78.57391695494775L71.57294756944445,81.52714592001756L71.63292361111111,82.21308640675961L71.78517048611111,80.45908302017838L72.02046111111112,80.66993314951037L72.43567986111111,79.66781055878222L72.71095451388888,80.56237639014921L73.21690625000001,79.57857378016307L73.37530451388889,77.16217606103125L73.43220486111112,77.00249679850387L74.10578194444444,76.66211891805526L74.31646701388888,75.62489679020612L75.07462569444445,78.20587003962302L75.2299482638889,78.30943703588986L75.4390954861111,77.7201757675591L76.16957291666667,78.53557631594165L77.02000243055555,78.01163371070398L77.28451215277778,77.60167885207805L77.42906979166666,73.26237510955055L77.76432048611112,74.4705087752482L78.06573854166668,76.00961210068282L78.24566666666666,78.00749746130792L79.70508368055556,77.92496885352611L80.20488402777778,76.23216388590153L80.36635798611111,77.51946028278599L81.009178125,78.69315567165539L81.02917013888889,76.33807058356865L81.26138506944444,76.29484044349527L81.50436493055557,77.17497187159287L81.93342430555556,74.72662841456783L81.94265138888889,76.78473497024329L82.46705729166666,74.17118446388405L82.4962763888889,73.64840169481911L82.69773437500001,73.51484351103952L83.20061041666666,77.53220552684076L83.46665798611112,77.64186959477568L83.56046666666667,78.36784757584748L83.84189270833333,80.89577445445944L83.91878506944444,81.20883453094004L84.635421875,88.16698975728872L85.29977187499999,86.60534553420433L85.36589930555556,86.5565417487767L85.51968402777779,91.55031076482805L85.70422569444445,92.7974337678776L86.57310937499999,91.69372872834143L87.7295704861111,89.51358667501866L87.76186527777779,86.85448060364311L87.87874166666667,84.81031468242315L88.13248645833333,84.68232146641212L88.5584701388889,81.7198104412684L88.6845736111111,80.15129092018861L88.79222291666666,79.87217557563064L89.17207118055555,78.92163630857097L90.35775138888889,80.5942803820047L90.40234895833333,79.83269828498558L90.42849236111111,79.22442862608582L90.53152812500001,76.6460242115495L91.4942204861111,79.22699872560312L92.02631562500001,79.03102962144456L92.03092916666667,79.0702341786285L92.48151840277778,77.83474921807061L92.97824305555557,76.16306922061256L93.48111909722222,74.48080084198482L93.51648958333332,73.33664372797419L93.73640173611112,75.38397956753386L93.77177222222221,74.10865853127694L93.90710277777778,73.80048515840892L94.669875,69.96043663627444L95.90476631944445,71.13362374360825L96.19695729166666,69.94295367535909L96.34459062500001,69.12096608571305L96.56450277777778,70.71848486347496L97.12120347222222,68.02625180241951L97.24423125,67.47697830714976L97.38725104166667,69.3239920163442L97.48567326388888,69.56442521879599L98.21461284722221,70.3551367513266L98.41145729166666,69.83798846051378L98.7313295138889,69.5711127778125L98.75439722222222,68.11121303781702L100.83202881944445,66.88239942583111L100.99811631944445,65.92964025212154L101.0842357638889,67.10595507346017L101.1811201388889,70.03675379777347L101.27492881944445,70.80519362969295L101.313375,71.78044367086137L101.60249027777778,71.2172070825225L101.78549409722223,69.06510175845682L101.87622708333333,68.51592896050103L101.90237048611111,69.32298991073503L101.98080069444445,70.4509987160102L102.48521458333335,67.49051422863756L102.58671249999999,67.45384731727695L102.60055312499999,68.4919242972493L102.61593159722223,68.37100101171777L103.74624930555555,67.45659321815988L103.7554763888889,65.84223197314236L105.11493333333333,64.15954723724967L105.45941111111112,63.35507591866099L105.60396875,63.72514524989265L105.69316388888889,63.116476965282985L105.84079722222222,60.31079080708834L105.9284545138889,61.087404034103656L106.55589618055555,62.648663457622376L106.85885208333333,61.2550791486685L106.89883611111111,62.0053404645933L107.53396701388888,62.84396036818754L107.82308229166667,60.57610279285231L108.38285868055556,58.05849251351219L109.38092152777779,55.554374031342604L109.56546319444445,55.59485975707072L109.92839513888889,55.26368142172748L109.97606840277778,60.57856327963076L110.06065,61.05609156705846L110.37744652777778,60.65192471804025L110.56352604166666,64.11750147704157L110.92492013888888,64.37728979087832L111.15713506944444,63.88170359473119L111.47546944444446,65.71722575071863L111.53852118055556,63.95627236312181L112.10752465277777,64.70872204989118L112.4889107638889,64.19458061412999L113.50388993055556,64.96210042630292L113.87451111111112,62.3292557682762L114.28050277777778,69.30325326839983L114.7111,68.86746650697384L114.90948229166668,67.56302754857988L115.01251805555556,70.33749402449929L115.23550590277779,69.94124462204833L115.35238229166667,68.21821894964134L115.41082048611112,68.34996844614994L115.50616701388888,65.44074078901643L115.5969,63.96839747934298L115.78451736111111,62.04518404938358L116.24433368055554,60.60605025982781L116.27816631944444,64.07621446461866L116.37812638888889,64.51032378738807L117.32544027777779,65.25842602403465L117.36234861111112,66.6975834216325L118.17125625,67.73413256402353L118.37732777777778,65.11341161531152L118.81715208333334,61.937839684547455L119.34002013888889,59.87121917762994L119.80598784722223,60.555635721405764L120.178146875,62.73737984157394L120.65026597222221,64.31518049208427L121.49146840277777,62.79881634096766L121.8528625,64.0754731684098L122.36188993055555,63.055728012271715L122.71098125,62.76361666294173L122.75865451388889,61.67812038126266L123.5198888888889,61.77338526621334L123.84437465277777,65.67143135497746L124.358015625,64.9725190406489L125.27303472222222,64.12565175196849L125.520628125,67.40724052680315L125.75591874999999,70.40151647412323L125.99428506944444,68.43309559594141L126.30339236111111,66.34155521517772L126.38182256944444,67.08693825907564L126.46947986111111,64.97343674086018L126.67401354166667,64.92978532252789L126.75244375,70.2141144825832L126.95697743055555,72.08808747658104L127.11537569444445,73.97889394040986L127.25685763888889,72.36754300790724L127.887375,73.91271178403966L128.1303548611111,72.06970983640485L128.85929444444443,71.94273885276435L129.85581944444445,69.52746501942643L131.06764305555555,65.77433390209904L131.26294965277776,63.19641974265829L131.29216875,62.264579929095675L131.67509270833332,61.46158356121191L131.88116423611112,60.50629058970608L132.09646284722223,60.355661617299745L132.316375,58.13240314787744L132.49784097222224,57.89012428498695L132.68084479166666,59.11303493341133L132.8130996527778,58.971250670839424L132.8146375,59.32018329606318L132.82540243055556,58.41613203652285L133.42823854166667,55.5245188274603L133.59432604166668,57.06568212157539L133.89420625,55.80680626039229L134.32634131944442,55.626894778558L134.75847638888888,59.74814760839455L135.14908958333334,62.96371746293971L136.42396493055554,60.51369187049188L136.47932743055557,61.769245933494346L136.60389305555555,66.12155193624714L136.72999652777779,63.55997366569933L136.99911979166666,62.77777437605246L137.67731041666667,59.71663155383183L138.10021840277778,61.50573762921789L138.2524652777778,60.6651638662961L138.4047121527778,60.28307055658955L138.91373958333335,57.85311512145802L139.14134097222222,55.84607284008143L139.45659965277778,54.73752324838098L140.31779409722225,52.69030936344029L140.42390555555556,52.56108611940395L141.53423125,52.393727507463566L141.76644618055556,50.013585525947974L142.157059375,50.11799620412239L142.57074027777776,50.55235042986399L142.57689166666665,51.99846154072375L142.66301111111113,49.86207692511293L143.05516215277777,48.676830749422095L143.33197465277777,47.0768399821722L143.33505034722222,47.856155880077836L144.74371840277777,48.40323251319808L144.8359892361111,49.55367849264751L144.99131180555554,48.240426027998154L145.00207673611112,47.988883381916196L145.15893715277778,48.31845649562183L145.30964618055555,51.17930315375196L145.7540840277778,50.83648269138766L146.00782881944446,53.332065364608226L146.17391631944443,55.47030113583972L146.25080868055556,53.85471332994807L147.21965243055556,52.46876122772248L147.39189131944445,52.041731206857804L147.58566006944443,53.67928885540279L147.74559618055554,53.374581123708694L149.00816875,55.72981531903011L149.18040763888888,53.80381179055564L150.13233506944442,54.005738303807775L150.97046180555557,54.232856867683594L150.9735375,52.621878873222926L151.42258888888887,51.103921755131395L151.51178402777776,50.10537570749513L151.78705868055556,49.45176121366869L152.0807875,48.53673899039421L152.18074756944446,47.63152662981636L152.62364756944444,46.47645088991163L152.9819659722222,46.13467118553584L153.04655555555556,51.051973297751516L153.33259513888888,57.45177596797636L153.33567083333335,55.396367588963315L153.38488194444443,54.79911534157445L153.81855486111112,55.10574226895547L154.49520763888887,53.57086032378295L154.62592465277777,52.59014797342674L154.80431493055553,51.54055629628928L155.94693541666666,53.07505835896805L156.45288715277778,51.57986021537893L157.2925517361111,50.77879727076413L157.47401770833332,50.19399446676462L157.88616076388888,49.25921040470355L158.20757083333334,51.10694321038703L158.516678125,54.182498889348324L159.14873333333333,52.91694130810582L159.48244618055554,52.29532412634143L159.79924270833334,51.53163789352273L159.8515295138889,49.98655102724739L160.0452982638889,48.35770361683035L160.36055694444445,47.26616402437807L160.592771875,49.51743223732488L160.80960833333333,48.91126597995145L160.94340104166668,48.581293228110155L160.94493888888888,47.399317751453L161.32171145833334,46.5397705916923L161.60159965277776,45.56194737867693L162.17214097222222,46.28171417927078L162.38743958333333,47.054311905548644L162.72115243055555,51.87964994576299L162.95644305555555,53.40860811467407L164.08368506944444,51.88005499551436L164.18518298611113,49.823587957501374L164.69421041666666,50.457575315597396L165.90295833333334,51.5812889378838L166.1413246527778,51.982775515275094L167.09325208333334,52.4802672810811L167.22243125,50.09147132220376L167.41158645833335,48.35001649767571L167.6730204861111,48.17147636040036L167.90215972222222,46.213559493591106L168.79103541666666,45.472588159616606L169.16473229166667,44.567444728270345L169.42770416666667,44.8566342657289L169.87214201388886,44.76193237761754L170.059759375,45.82266213021458L170.23661180555555,45.52924207103928L170.5795517361111,45.430493706660656L171.46227604166666,44.26859820378951L171.665271875,48.33773859116485L171.7898375,49.177041568560995L172.22966180555557,48.020587411704895L172.26810798611112,46.508913264277965L172.36960590277778,47.64456039938861L172.94783645833334,48.893565811347L173.1446809027778,48.27036303308401L173.53068055555556,47.60736514803193L173.67062465277778,48.905474787074894L173.75059270833336,47.8272350006751L174.0535486111111,47.01566539004358L174.1089111111111,47.9417912452958L176.0865826388889,46.959919813073924L176.60483715277778,46.41662013945884L176.61713993055557,45.069881176466765L176.72017569444446,44.170969981896974L177.1400079861111,46.6126229837073L177.22766527777776,47.42020675261844L177.55061319444445,48.01087829848461L177.6244298611111,48.88286730514881L177.99505104166667,48.93015749771084L178.31030972222223,50.300218671016665L178.36567222222223,50.557504582786976L178.97773541666666,48.497138739892904L179.60056354166667,47.11934794282669L179.61132847222223,48.01241306197974L179.85277048611113,53.865210217320225L180.1295829861111,53.17599688789588L180.2049375,53.576858737567846L181.33986875,51.99744209458029L181.75816319444445,50.74615942358379L183.78658368055554,51.934620404302336L184.53397743055555,54.29013249200838L184.80156284722221,55.2603500120383L184.90767430555556,57.60854560693667L184.99379375,56.068460277012235L185.11989722222222,53.59315271084948L185.26906840277778,51.56960667053376L185.36133923611112,50.98741528618818L185.367490625,52.84953914218477L185.43054236111112,52.39804676642781L185.8319204861111,51.174780551323494L186.2609798611111,49.256917880806526L186.7377125,48.81295690523879L187.30825381944445,48.884257368561066L187.332859375,50.22487009324341L188.49239618055555,48.96363308391909L188.7015434027778,50.52323122742442L188.73383819444444,50.831965796989664L188.80919270833334,50.037615371136866L189.10599722222221,48.57385383402317L189.13829201388887,47.05223768139007L189.17673819444443,46.176340836327995L189.19980590277777,44.82639906038753L189.77803645833333,48.1952977890158L191.1744017361111,47.278844976473266L191.4358357638889,46.05692201728749L191.96793090277777,47.35122990212301L192.30625729166667,46.63264537344918L192.39852812499998,45.55476547312995L193.53499722222222,44.70948123350928L193.55037569444445,43.710456187081405L193.78720416666664,42.607102876065596L194.08554652777778,41.68216181922824L194.308534375,40.57740717576698L195.03747395833332,41.64812791008751L195.27584027777777,40.665911272924916L195.29429444444443,46.130089376401656L195.52958506944444,45.261311207992264L195.53419861111112,44.22412239488537L196.0309232638889,45.11171015539682L196.12319409722224,44.80428913985713L196.22622986111114,43.42136022587141L196.3707875,41.938454972515046L196.50919374999998,42.37384024449429L196.71834097222222,42.08491775850641L198.30078576388888,42.72690675188656L199.32345416666666,43.00402381228773L199.429565625,43.900159806033145L199.55259340277777,42.75514381460928L199.70637812500001,42.632321740840666L200.04009097222223,43.49755101865384L200.27999513888886,42.65375745525L200.6875246527778,41.6050163251096L201.07506215277778,41.3929762310602L201.63483854166668,41.63329403585169L202.18231215277777,40.329195401497316L202.34839965277777,40.176660476732195L202.71594513888888,39.39264827521282L202.99737118055555,40.1847296015377L203.3403111111111,46.020391256768534L203.42027916666666,47.61335213109169L204.28608715277775,46.3239399949056L204.51215069444444,44.75500753387658L204.6259513888889,43.36566063746329L204.8058795138889,42.22870995833236L204.993496875,47.536608193268364L205.05039722222222,47.990831989326125L205.09960833333332,46.2211718673166L205.22263611111111,46.81828553637996L205.27646076388888,44.99568775197275L205.55634895833333,50.0268882075447L205.7332013888889,49.44919938679024L206.045384375,47.29543329426508L206.5082763888889,46.03781304176161L207.08958263888888,44.293262506816234L208.28910347222222,43.301820871519226L209.63471979166667,41.89894647667501L210.10991458333334,40.97674413669981L210.22832881944444,40.350992799952905L210.40364340277776,40.12820121226531L210.64354756944445,41.69768878334645L210.65123680555556,43.11022759731952L210.90805729166667,41.93074329912602L211.06337986111112,43.18382281536728L211.803084375,42.52457514921514L212.00300451388887,41.2334637881398L212.23521944444445,42.85127116891539L212.3351795138889,42.14018251356231L212.61814340277778,41.39808733912915L212.64582465277778,42.517220912908556L212.67811944444443,42.86069112931L213.00414305555555,43.510198939455904L213.45165659722224,41.950332891664175L213.84688333333332,42.656838064036236L213.95607048611112,42.74807733455569L214.22980729166667,42.5578849857155L214.75421319444445,43.441904179451626L214.86493819444442,42.96107914612185L215.18173472222222,42.34112507766352L215.1924996527778,42.259704877589485L215.26477847222222,41.84604208213821L215.31552743055553,41.28653402777056L215.54312881944446,40.58441906489088L216.99485659722222,40.35530408147872L217.46697569444444,39.49669673943339L219.03711770833334,39.63164245010543L219.12785069444445,43.973862820479496L219.77067083333336,42.91224576920081L219.913690625,42.36525196151149L220.45655069444445,41.46449599612956L220.8333232638889,40.51766178113198L221.14704409722222,39.9037802184034L221.2762232638889,38.84070988887078L221.45000000000002,38.63279274613754L222.06975243055555,40.76028270229301L222.69873194444443,40.10511981667909L223.2000701388889,39.43037706578042L223.24774340277776,38.65291628227931L223.47995833333334,37.64685542328215L224.01512916666667,37.85332377038989L224.17506527777778,37.154145250325286L224.35653125,37.57440380221584L224.36729618055557,37.384194165255764L224.40420451388889,40.93000551796092L225.0608652777778,39.764312658472534L225.68061770833333,39.60018908493299L227.12465625000002,39.707766330285835L227.76286284722224,42.78295123571877L227.94432881944445,43.46065606020835L228.660965625,43.3693981464952L228.73632013888889,42.02784294723028L228.9024076388889,41.36505865250726L229.57290902777777,40.9047066334104L229.98197638888888,40.08192827776165L230.58173680555555,41.74681228649811L231.01694756944443,42.81405413477137L231.041553125,42.1066871828327L231.40448506944446,41.050249244600735L232.0672972222222,41.94207057786397L232.2164684027778,42.070748135462196L232.87312916666667,40.79098101422366L232.89465902777778,40.575248297416664L233.13610104166665,40.28464652295702L233.60360659722224,39.76214340912284L233.78507256944445,39.43939062831316L234.47095243055557,39.239682334712626L234.61704791666668,38.58340640893368L235.08609131944445,37.78852730650186L235.23833819444442,37.41352072969781L235.83502291666667,37.597937844215124L236.12413819444447,37.07179790594745L236.5655003472222,39.12846435576316L236.577803125,41.81907945864839L236.66238472222224,42.00771002626058L236.6869902777778,42.027708254403734L236.74850416666666,40.95647589050185L236.81770729166666,40.094482147605504L237.23292604166667,38.944264702075714L237.56202534722223,38.24945361648352L238.26328368055556,39.56431594714286L239.70732222222225,38.852884341608046L240.13023020833336,40.51586513821647L240.53929756944444,39.70927861357427L241.006803125,39.8002737858578L241.09907395833332,42.287554099579694L241.48968715277778,41.12226022808326L242.41700902777777,40.50464956824928L242.4200847222222,40.67495384219356L242.47544722222224,39.761689238025525L242.695359375,39.053212621915264L243.19208402777778,38.65385289818528L243.37355,38.26039068528982L243.7733902777778,38.20127467204284L244.19168472222222,37.52630103800777L244.20244965277777,37.9944401649762L244.88217812500002,37.80307307155553L244.9360027777778,37.562765764399956L244.965221875,36.83591226488306L245.35429722222221,37.168859499933205L245.63726111111112,36.787742780709095L245.91407361111112,36.37666081033052L246.01403368055554,36.710148618733456L246.25701354166665,37.872595295321645L246.57996145833334,37.1941819088151L246.958271875,36.47014833331821L247.32735520833333,36.25421039709403L249.2542777777778,36.64532781892308L249.3034888888889,36.48675657549231L249.57107430555556,36.65038861025076L250.11239652777778,36.49811900596421L250.32308159722223,36.66061479767549L250.34614930555557,36.26224562560023L250.46302569444444,36.550444139963304L251.08124027777777,37.86501511058236L251.19811666666666,37.363225137985665L252.3069045138889,41.285556470340936L253.5817798611111,40.01623159253759L253.6094611111111,39.71345456548892L253.65867222222224,38.73749372432465L254.53524513888888,42.11393665958448L254.69518125000002,40.85254298821576L255.0473482638889,42.37228860282991L255.21651145833334,41.53890589639306L255.4348857638889,40.737803768292224L255.49947534722222,39.523254160693796L255.58405694444443,38.81139027659361L255.70093333333332,39.7734380250221L256.2361041666667,40.15301729944298L256.5652034722222,40.245023305088495L256.5744305555555,39.76052097457966L256.9312111111111,39.32446887712169L257.72935381944444,39.163483501901766L258.38909027777777,38.514827459403904L258.47059618055556,38.06719086730968L258.64437291666667,37.187779472886405L258.8412173611111,36.328232294828524L258.90580694444446,36.984255219191795L259.4117586805555,40.38284892804188L260.97728715277776,40.08879480446845L261.03880104166666,39.51779993940622L261.50630659722225,39.446404560850226L261.5585934027778,38.93964872014982L261.78158125,38.51760692505792L261.9922663194444,37.69526930947518L262.1983378472222,37.55083853237383L262.4136364583333,37.335754679136414L263.5716354166667,36.461409980453595L263.59162743055555,36.69565359779281L263.84691006944445,36.634165161090465L264.4451326388889,36.91921018344297L264.5696982638889,37.28921219873962L264.6035309027778,36.827983286557924L264.9187895833333,36.76687725260982L265.532390625,36.085574142733435L266.0644857638889,35.43836288230625L266.06909930555554,35.02606505561408L266.21365694444444,36.39095855005269L266.667321875,36.496093464278175L266.70115451388887,37.20340719477346L267.12252465277777,36.68268185991147" style="fill: none;" fill="none"></path></g></g></g></g><g opacity="0.2"><g><g><g><path stroke="rgb(255, 112, 67)" stroke-width="2px" d="M32.79920555555556,134.75226305448092L33.87877430555556,156.64858791644758L33.994112847222226,148.33602746816783L34.64462222222222,108.31795102632962L34.68768194444445,166.2211573087252L34.867610069444446,151.58461884718676L34.96910798611111,139.31014269315278L35.498127430555556,112.527151459914L35.56425486111111,195.80625L35.827226736111115,120.22976091825045L35.830302430555555,114.40165082491362L36.62690729166667,96.61249826871432L36.731480902777776,125.74779774592473L36.76685138888889,122.95448948786809L37.27434097222222,150.30200623732347L37.42812569444445,154.08076576819786L38.29393368055556,147.76696771474985L39.44424340277778,157.28606115487906L39.85177291666666,143.72740384615383L40.11320694444444,117.73724969717173L40.41308715277778,118.21705821110652L40.556106944444444,187.65403430645281L40.61762083333333,65.24038374974177L40.78217048611111,96.5145109616793L40.803700347222225,207.8512199988732L41.26813020833334,46.97307692307692L41.28504652777778,138.01856548602765L41.35732534722223,162.07980422973634L41.54801840277778,88.66017855130708L41.66489479166666,77.22475961538461L42.12317326388889,62.85769144204947L42.330782638888884,89.56977873582106L42.547619097222224,175.88601115300105L42.89517256944444,164.63268884512095L43.0166625,262.5697297316331L43.167371527777775,112.92259615384616L43.46878958333333,259.4968569242037L43.47494097222222,101.18706057621883L43.797888888888885,71.14038461538462L43.98858194444445,128.0465053851788L44.329984027777776,95.06013749929575L44.64370486111111,85.09615384615384L44.67907534722222,102.69403742276705L44.69906736111111,49.582691442049466L45.00817465277778,68.22820455110991L45.29575208333333,64.478572170551L45.31113055555556,67.73653846153846L45.48952083333333,51.398076923076914L46.00162395833333,84.68769334646372L46.41376701388889,87.57610112703765L46.83359930555555,64.80923128861647L47.74246701388889,96.66923076923077L48.67440243055555,73.75000173128569L49.12960520833333,62.78205070495606L49.189581249999996,144.59538046029897L49.35259305555555,104.46025525606596L49.535596874999996,87.94687499999999L50.001564583333334,61.269230769230774L50.08307048611111,87.68307900061976L50.293755555555556,59.3782045511099L50.678217361111116,71.02692480820876L51.56555520833333,72.16153846153846L51.75624826388889,68.24711538461538L51.75778611111111,79.3776912689209L51.91464652777778,93.52067307692307L52.28834340277778,101.09423076923078L52.55900451388889,69.86394230769231L53.327928125,96.8205122434176L53.38636631944445,105.80288288409893L53.43557743055556,83.50769057640663L53.75852534722222,114.09692203815167L54.45517013888889,108.01538288409894L55.36096215277778,78.74230596102201L55.68544791666667,103.18516335120567L55.76234027777778,71.48076923076923L55.95149548611111,85.87417805011455L56.04530416666666,81.88681244483362L56.09297743055556,152.10329818725586L57.00645868055555,79.75473412733812L57.08488888888889,66.71538461538461L57.43398020833333,62.49461486522968L58.185987499999996,96.06410487248348L58.302863888888886,54.189229730459346L58.33669652777778,61.18413461538461L58.747301736111105,91.65629134544959L58.916464930555556,123.7298076923077L58.98413020833334,84.52884442256047L59.42241666666667,97.57692480820876L59.70538055555556,109.94423076923077L59.80687847222222,81.4880748455341L61.09251875,75.48028846153846L61.10174583333333,98.03076923076922L61.61077326388889,127.37192723200872L62.41506736111111,75.22500000000001L62.43044583333334,100.49855769230768L63.07787951388889,69.94903846153846L63.134779861111106,50.86318755516638L63.262421180555556,149.63307900061974L63.27779965277777,110.42076715322642L63.300867361111116,92.3803825378418L63.36699479166666,134.38384199876052L63.689942708333334,77.2673076923077L63.916006249999995,66.03461538461539L63.92830902777778,100.98077096205492L64.33430069444445,102.96634615384615L64.33583854166666,77.41318755516639L64.46194201388889,64.10577009641207L65.24163055555556,36.42115384615386L65.25547118055556,94.69499896122859L65.37080972222222,99.98798076923077L66.02747048611111,64.10577009641207L66.64260937499999,73.03681244483361L66.76871284722222,88.65128147418683L67.71448888888888,69.66538374974178L68.19891076388889,88.77230873107911L68.37576319444445,83.35640910221981L68.75407361111111,62.40384701948899L69.0985513888889,75.22500000000001L69.58604895833334,90.88269230769231L70.17658229166666,83.2807709620549L70.26116388888889,94.62692307692308L70.28423159722222,82.78153742276706L70.60564166666667,64.33269230769231L70.6779204861111,65.35384615384616L71.41608715277779,69.26826923076923L71.57294756944445,108.10615592369666L71.63292361111111,88.38654019282414L71.78517048611111,64.67307692307693L72.02046111111112,82.56758167560285L72.43567986111111,70.64871852581318L72.71095451388888,88.61345980717586L73.21690625000001,70.72435926290659L73.37530451388889,55.41461642338679L73.43220486111112,75.56538461538462L74.10578194444444,73.59872025709885L74.31646701388888,66.28990384615385L75.07462569444445,101.43461538461538L75.2299482638889,79.24153950030988L75.4390954861111,72.41682692307693L76.16957291666667,85.87417805011455L77.02000243055555,73.29615211486816L77.28451215277778,73.91208642812876L77.42906979166666,34.20865384615385L77.76432048611112,85.34370865455041L78.06573854166668,89.86153846153846L78.24566666666666,95.98846153846154L79.70508368055556,77.18221153846154L80.20488402777778,60.99692203815168L80.36635798611111,89.1051258967473L81.009178125,89.25641256479116L81.02917013888889,55.142307692307696L81.26138506944444,75.90576923076924L81.50436493055557,85.09615384615384L81.93342430555556,52.69153950030987L81.94265138888889,95.3076923076923L82.46705729166666,50.649231808002185L82.4962763888889,68.94335711552546L82.69773437500001,72.31281993572527L83.20061041666666,113.68846153846154L83.46665798611112,78.62884615384615L83.56046666666667,84.90164909362794L83.84189270833333,103.64711538461538L83.91878506944444,84.0263751103328L84.635421875,150.79038461538462L85.29977187499999,72.5505479665903L85.36589930555556,86.1173076923077L85.51968402777779,136.49423076923077L85.70422569444445,104.02154053908129L86.57310937499999,81.7603835766132L87.7295704861111,69.89230855795053L87.76186527777779,62.922526359558105L87.87874166666667,66.41282166701097L88.13248645833333,83.53038253784179L88.5584701388889,55.057211538461544L88.6845736111111,66.03461538461539L88.79222291666666,77.36013749929575L89.17207118055555,70.3667829806988L90.35775138888889,95.64807692307693L90.40234895833333,72.97845946091871L90.42849236111111,73.75000173128569L90.53152812500001,53.440384615384616L91.4942204861111,102.45576923076923L92.02631562500001,77.2673076923077L92.03092916666667,79.42307519179124L92.48151840277778,66.71538461538461L92.97824305555557,61.11794929504394L93.48111909722222,59.340385481027454L93.51648958333332,63.039229730459354L93.73640173611112,93.81000207754282L93.77177222222221,62.63076923076922L93.90710277777778,71.02692480820876L94.669875,35.400000000000006L95.90476631944445,81.6923076923077L96.19695729166666,59.226923076923086L96.34459062500001,61.72307778871976L96.56450277777778,85.09615384615384L97.12120347222222,43.79615427897525L97.24423125,62.53351685450626L97.38725104166667,85.94711538461539L97.48567326388888,71.72832403916578L98.21461284722221,77.47154053908129L98.41145729166666,65.18365384615385L98.7313295138889,67.16923163487361L98.75439722222222,54.97211538461539L100.83202881944445,55.823076923076925L100.99811631944445,57.35480769230769L101.0842357638889,77.69278846153846L101.1811201388889,96.41394230769231L101.27492881944445,77.72115211486816L101.313375,80.557694038978L101.60249027777778,66.14807778871977L101.78549409722223,49.69615384615385L101.87622708333333,63.57337377988375L101.90237048611111,76.58653846153847L101.98080069444445,80.60307796184833L102.48521458333335,40.84615384615384L102.58671249999999,67.12384511507474L102.60055312499999,77.83461711590105L102.61593159722223,67.28269144204947L103.74624930555555,59.226923076923086L103.7554763888889,51.31298076923076L105.11493333333333,49.01538461538462L105.45941111111112,56.1148340518658L105.60396875,67.05576923076923L105.69316388888889,57.638462404104374L105.84079722222222,35.05961538461537L105.9284545138889,68.07692307692307L106.55589618055555,76.69999826871432L106.85885208333333,48.71282036854669L106.89883611111111,68.7576923076923L107.53396701388888,70.39153950030988L107.82308229166667,40.165384615384596L108.38285868055556,35.400000000000006L109.38092152777779,33.017307692307696L109.56546319444445,55.959231288616465L109.92839513888889,52.28307640369121L109.97606840277778,108.4125L110.06065,65.35384615384616L110.37744652777778,57.014423076923066L110.56352604166666,95.3076923076923L110.92492013888888,66.71538461538461L111.15713506944444,59.42142782944899L111.47546944444446,82.23692515446591L111.53852118055556,48.10769187487088L112.10752465277777,71.48076923076923L112.4889107638889,59.56730769230769L113.50388993055556,71.86977873582106L113.87451111111112,38.633653846153834L114.28050277777778,132.06923076923078L114.7111,64.94538565415603L114.90948229166668,55.823076923076925L115.01251805555556,95.3076923076923L115.23550590277779,66.375L115.35238229166667,52.71098789801964L115.41082048611112,69.53571391472448L115.50616701388888,39.257691874870886L115.5969,50.717307692307685L115.78451736111111,44.73626317977906L116.24433368055554,47.65384615384616L116.27816631944444,95.3076923076923L116.37812638888889,68.41730769230769L117.32544027777779,71.99134615384615L117.36234861111112,79.64999999999999L118.17125625,77.0630748455341L118.37732777777778,41.52692307692308L118.81715208333334,33.357692307692304L119.34002013888889,41.27163461538461L119.80598784722223,66.71538461538461L120.178146875,82.37307692307692L120.65026597222221,78.51538634667028L121.49146840277777,49.15153898092416L121.8528625,75.56538461538462L122.36188993055555,53.878021607032196L122.71098125,60.13461451897254L122.75865451388889,51.90865384615384L123.5198888888889,62.63076923076922L123.84437465277777,100.75384615384615L124.358015625,58.682308211693396L125.27303472222222,56.503846153846155L125.520628125,96.94153950030987L125.75591874999999,97.35L125.99428506944444,50.717307692307685L126.30339236111111,47.51769178830659L126.38182256944444,73.79538565415604L126.46947986111111,45.951923076923066L126.67401354166667,64.53692255753737L126.75244375,117.77307692307693L126.95697743055555,88.95384442256048L127.11537569444445,90.99615211486817L127.25685763888889,57.86538461538461L127.887375,87.81923076923077L128.1303548611111,55.482692307692304L128.85929444444443,70.8L129.85581944444445,47.7900005193857L131.06764305555555,31.996153846153845L131.26294965277776,39.99519230769229L131.29216875,53.878021607032196L131.67509270833332,54.23461625025821L131.88116423611112,51.90865384615384L132.09646284722223,59.00000086564283L132.316375,38.12307692307692L132.49784097222224,55.70961451897253L132.68084479166666,70.11923076923078L132.8130996527778,57.695192307692295L132.8146375,62.460576923076914L132.82540243055556,50.27967070066012L133.42823854166667,29.499999945897315L133.59432604166668,70.93615176861103L133.89420625,44.476923509744495L134.32634131944442,54.00769144204946L134.75847638888888,96.83942307692308L135.14908958333334,91.90384615384615L136.42396493055554,38.46346153846153L136.47932743055557,73.06923250051645L136.60389305555555,105.29230596102201L136.72999652777779,40.50576923076923L136.99911979166666,55.737980769230774L137.67731041666667,32.16634615384615L138.10021840277778,77.6076923076923L138.2524652777778,53.10000000000001L138.4047121527778,56.84423076923076L138.91373958333335,35.98351620527416L139.14134097222222,37.782692307692315L139.45659965277778,44.76057692307691L140.31779409722225,34.26538439897391L140.42390555555556,51.398076923076914L141.53423125,50.8875L141.76644618055556,28.592307692307685L142.157059375,51.05769230769231L142.57074027777776,54.46153846153847L142.57689166666665,65.01346153846154L142.66301111111113,30.634615384615387L143.05516215277777,38.009615168204675L143.33197465277777,32.67692307692309L143.33505034722222,54.8699989612286L144.74371840277777,53.326922211280234L144.8359892361111,59.907692307692315L144.99131180555554,36.42115384615386L145.00207673611112,45.72499956717857L145.15893715277778,51.284614518972546L145.30964618055555,76.92692307692307L145.7540840277778,47.75109853010912L146.00782881944446,75.79230942359338L146.17391631944443,74.71442307692308L146.25080868055556,39.31442307692308L147.21965243055556,39.99519230769229L147.39189131944445,48.198461019075836L147.58566006944443,68.41730769230769L147.74559618055554,50.63221153846153L149.00816875,76.92692307692307L149.18040763888888,36.46978003428532L150.13233506944442,55.823076923076925L150.97046180555557,56.276923942565915L150.9735375,38.12307692307692L151.42258888888887,37.44230769230771L151.51178402777776,41.11846127876868L151.78705868055556,43.569230769230785L152.0807875,40.301538980924164L152.18074756944446,39.48461538461538L152.62364756944444,36.08076923076925L152.9819659722222,43.058653846153845L153.04655555555556,95.3076923076923L153.33259513888888,115.05000000000001L153.33567083333335,36.8976921778459L153.38488194444443,49.423845115074755L153.81855486111112,57.86538461538461L154.49520763888887,39.75692281723022L154.62592465277777,43.76373682022094L154.80431493055553,42.094231202052185L155.94693541666666,66.88557692307693L156.45288715277778,38.12307692307692L157.2925517361111,43.569230769230785L157.47401770833332,44.930769230769215L157.88616076388888,40.84615384615384L158.20757083333334,67.73653846153846L158.516678125,81.8625L159.14873333333333,41.52692307692308L159.48244618055554,46.70076949046208L159.79924270833334,44.658461798154406L159.8515295138889,36.08076923076925L160.0452982638889,33.69807692307691L160.36055694444445,37.44230769230771L160.592771875,69.77884615384616L160.80960833333333,43.455769663590644L160.94340104166668,45.61153846153846L160.94493888888888,36.761538461538464L161.32171145833334,38.803846153846166L161.60159965277776,36.761538461538464L162.17214097222222,52.75961538461539L162.38743958333333,54.00769144204946L162.72115243055555,95.3076923076923L162.95644305555555,67.16923163487361L164.08368506944444,38.12307692307692L164.18518298611113,31.31538461538463L164.69421041666666,56.16346153846153L165.90295833333334,61.69471153846153L166.1413246527778,55.5961547117967L167.09325208333334,56.957693173335144L167.22243125,28.592307692307685L167.41158645833335,32.67692307692309L167.6730204861111,46.56461512492254L167.90215972222222,28.592307692307685L168.79103541666666,38.803846153846166L169.16473229166667,36.42115384615386L169.42770416666667,47.459340102855975L169.87214201388886,43.90961538461539L170.059759375,55.36922990358792L170.23661180555555,42.88846153846154L170.5795517361111,44.54175842725314L171.46227604166666,33.81153867794919L171.665271875,84.96000207754281L171.7898375,56.730768365126394L172.22966180555557,37.61250000000001L172.26810798611112,32.90384593743545L172.36960590277778,57.86538461538461L172.94783645833334,60.13461451897254L173.1446809027778,42.66153802871705L173.53068055555556,41.640384182563196L173.67062465277778,60.588461538461544L173.75059270833336,38.12307692307692L174.0535486111111,39.711538894359876L174.1089111111111,56.276923942565915L176.0865826388889,38.12307692307692L176.60483715277778,41.52692307692308L176.61713993055557,32.9492305095379L176.72017569444446,36.08076923076925L177.1400079861111,68.58749999999999L177.22766527777776,54.68846067281869L177.55061319444445,53.326922211280234L177.6244298611111,56.730768365126394L177.99505104166667,49.355769230769226L178.31030972222223,62.63076923076922L178.36567222222223,52.873077788719755L178.97773541666666,29.953846153846143L179.60056354166667,34.71923076923076L179.61132847222223,56.049999134357165L179.85277048611113,106.54038461538462L180.1295829861111,46.97307692307692L180.2049375,57.184615384615384L181.33986875,37.782692307692315L181.75816319444445,39.48461538461538L183.78658368055554,62.63076923076922L184.53397743055555,75.48974128136268L184.80156284722221,63.992307692307705L184.90767430555556,78.74230596102201L184.99379375,42.20769230769233L185.11989722222222,31.31538461538463L185.26906840277778,33.357692307692304L185.36133923611112,45.747692827078L185.367490625,69.60865384615386L185.43054236111112,48.334615384615404L185.8319204861111,40.165384615384596L186.2609798611111,31.996153846153845L186.7377125,44.8173081251291L187.30825381944445,49.525961538461544L187.332859375,62.29038461538461L188.49239618055555,37.61250000000001L188.7015434027778,64.55961451897254L188.73383819444444,53.610576923076934L188.80919270833334,42.88846153846154L189.10599722222221,35.400000000000006L189.13829201388887,33.357692307692304L189.17673819444443,38.293269230769226L189.19980590277777,32.67692307692309L189.77803645833333,78.51538634667028L191.1744017361111,39.03076966359063L191.4358357638889,35.05961538461537L191.96793090277777,59.00000086564283L192.30625729166667,40.165384615384596L192.39852812499998,35.85384637025686L193.53499722222222,37.10192307692307L193.55037569444445,34.71923076923076L193.78720416666664,32.67692307692309L194.08554652777778,33.357692307692304L194.308534375,30.634615384615387L195.03747395833332,51.284614518972546L195.27584027777777,31.82596153846154L195.29429444444443,95.3076923076923L195.52958506944444,37.44230769230771L195.53419861111112,34.889423076923066L196.0309232638889,53.10000000000001L196.12319409722224,42.037499999999994L196.22622986111114,30.974999999999994L196.3707875,28.592307692307685L196.50919374999998,46.29230769230767L196.71834097222222,39.48461538461538L198.30078576388888,48.50480769230771L199.32345416666666,45.498077355898346L199.429565625,51.965383749741775L199.55259340277777,32.44999989179465L199.70637812500001,41.52692307692308L200.04009097222223,51.284614518972546L200.27999513888886,35.05961538461537L200.6875246527778,32.16634615384615L201.07506215277778,39.48461538461538L201.63483854166668,43.79615427897525L202.18231215277777,28.592307692307685L202.34839965277777,38.803846153846166L202.71594513888888,32.33653846153845L202.99737118055555,47.31346153846155L203.3403111111111,98.54134615384616L203.42027916666666,61.95L204.28608715277775,34.71923076923076L204.51215069444444,30.634615384615387L204.6259513888889,30.86153856974383L204.8058795138889,31.996153846153845L204.993496875,95.3076923076923L205.05039722222222,52.07884615384614L205.09960833333332,30.29423076923075L205.22263611111111,52.192308557950525L205.27646076388888,28.592307692307685L205.55634895833333,95.3076923076923L205.7332013888889,44.25L206.045384375,27.91153846153847L206.5082763888889,34.71923076923076L207.08958263888888,28.592307692307685L208.28910347222222,34.378846153846155L209.63471979166667,29.27307692307693L210.10991458333334,32.67692307692309L210.22832881944444,34.71923076923076L210.40364340277776,38.12307692307692L210.64354756944445,55.823076923076925L210.65123680555556,55.823076923076925L210.90805729166667,31.31538461538463L211.06337986111112,54.46153846153847L211.803084375,36.59134615384616L212.00300451388887,29.613461538461536L212.23521944444445,57.411537595895624L212.3351795138889,35.74038461538461L212.61814340277778,34.71923076923076L212.64582465277778,52.58942307692308L212.67811944444443,45.951923076923066L213.00414305555555,49.355769230769226L213.45165659722224,27.91153846153847L213.84688333333332,49.01538461538462L213.95607048611112,43.569230769230785L214.22980729166667,40.84615384615384L214.75421319444445,51.398076923076914L214.86493819444442,38.633653846153834L215.18173472222222,36.761538461538464L215.1924996527778,41.52692307692308L215.26477847222222,38.12307692307692L215.31552743055553,36.25096153846155L215.54312881944446,34.26538439897391L216.99485659722222,38.293269230769226L217.46697569444444,31.769230661025404L219.03711770833334,40.84615384615384L219.12785069444445,83.05384615384615L219.77067083333336,33.357692307692304L219.913690625,37.44230769230771L220.45655069444445,33.357692307692304L220.8333232638889,31.996153846153845L221.14704409722222,34.378846153846155L221.2762232638889,29.27307692307693L221.45000000000002,36.761538461538464L222.06975243055555,59.907692307692315L222.69873194444443,34.20865384615385L223.2000701388889,33.357692307692304L223.24774340277776,31.655769230769238L223.47995833333334,28.592307692307685L224.01512916666667,39.711538894359876L224.17506527777778,30.86153856974383L224.35653125,41.35673076923075L224.36729618055557,35.67230743261484L224.40420451388889,72.84230769230768L225.0608652777778,29.27307692307693L225.68061770833333,38.12307692307692L227.12465625000002,40.675961538461536L227.76286284722224,70.45961538461539L227.94432881944445,49.559999480614294L228.660965625,42.548076923076934L228.73632013888889,29.953846153846143L228.9024076388889,35.400000000000006L229.57290902777777,36.761538461538464L229.98197638888888,32.67692307692309L230.58173680555555,56.730768365126394L231.01694756944443,52.419230769230765L231.041553125,35.74038461538461L231.40448506944446,31.542307800513044L232.0672972222222,49.96846257723294L232.2164684027778,43.22884615384615L232.87312916666667,29.27307692307693L232.89465902777778,38.633653846153834L233.13610104166665,37.66923055282007L233.60360659722224,35.05961538461537L233.78507256944445,36.534615601026076L234.47095243055557,37.44230769230771L234.61704791666668,32.67692307692309L235.08609131944445,30.634615384615387L235.23833819444442,34.03846153846155L235.83502291666667,39.257691874870886L236.12413819444447,32.33653846153845L236.5655003472222,57.638462404104374L236.577803125,66.03461538461539L236.66238472222224,43.705385134770324L236.6869902777778,42.20769230769233L236.74850416666666,31.31538461538463L236.81770729166666,32.33653846153845L237.23292604166667,28.592307692307685L237.56202534722223,31.996153846153845L238.26328368055556,51.398076923076914L239.70732222222225,32.44999989179465L240.13023020833336,55.482692307692304L240.53929756944444,32.44999989179465L241.006803125,40.619230336409345L241.09907395833332,64.67307692307693L241.48968715277778,30.634615384615387L242.41700902777777,34.94615362974315L242.4200847222222,42.20769230769233L242.47544722222224,31.542307800513044L242.695359375,32.67692307692309L243.19208402777778,35.05961538461537L243.37355,34.71923076923076L243.7733902777778,37.66923055282007L244.19168472222222,31.451538331692035L244.20244965277777,42.20769230769233L244.88217812500002,36.08076923076925L244.9360027777778,35.400000000000006L244.965221875,30.29423076923075L245.35429722222221,40.165384615384596L245.63726111111112,33.357692307692304L245.91407361111112,32.67692307692309L246.01403368055554,39.711538894359876L246.25701354166665,48.334615384615404L246.57996145833334,31.08846143025619L246.958271875,29.953846153846143L247.32735520833333,34.310768971076385L249.2542777777778,40.165384615384596L249.3034888888889,35.05961538461537L249.57107430555556,38.12307692307692L250.11239652777778,35.12769256738517L250.32308159722223,38.12307692307692L250.34614930555557,32.67692307692309L250.46302569444444,39.144230769230774L251.08124027777777,49.69615384615385L251.19811666666666,32.84711538461539L252.3069045138889,76.58653846153847L253.5817798611111,28.592307692307685L253.6094611111111,36.988461322050824L253.65867222222224,29.953846153846143L254.53524513888888,72.50192307692308L254.69518125000002,29.499999945897315L255.0473482638889,56.049999134357165L255.21651145833334,34.03846153846155L255.4348857638889,33.52788461538461L255.49947534722222,28.592307692307685L255.58405694444443,32.40461531969217L255.70093333333332,48.43186776087836L256.2361041666667,43.569230769230785L256.5652034722222,41.07307735589836L256.5744305555555,35.400000000000006L256.9312111111111,35.400000000000006L257.72935381944444,37.71461512492252L258.38909027777777,32.67692307692309L258.47059618055556,34.03846153846155L258.64437291666667,29.27307692307693L258.8412173611111,28.592307692307685L258.90580694444446,42.88846153846154L259.4117586805555,70.97019230769232L260.97728715277776,37.44230769230771L261.03880104166666,34.378846153846155L261.50630659722225,38.803846153846166L261.5585934027778,34.378846153846155L261.78158125,34.71923076923076L261.9922663194444,30.29423076923075L262.1983378472222,36.25096153846155L262.4136364583333,35.400000000000006L263.5716354166667,28.592307692307685L263.59162743055555,38.803846153846166L263.84691006944445,36.08076923076925L264.4451326388889,39.48461538461538L264.5696982638889,40.619230336409345L264.6035309027778,32.67692307692309L264.9187895833333,36.216922947076654L265.532390625,29.953846153846143L266.0644857638889,29.613461538461536L266.06909930555554,31.31538461538463L266.21365694444444,48.67500000000001L266.667321875,37.44230769230771L266.70115451388887,43.569230769230785L267.12252465277777,31.996153846153845" style="fill: none;" fill="none"></path></g></g></g></g></g></g><g transform="translate(53, 177)" clip-path="url(#clip_1)"><clipPath id="clip_1"><rect width="276" height="23"></rect></clipPath><g><g><line x1="0" y1="0" x2="0" y2="5" style="visibility: inherit;" fill="rgb(0, 0, 0)" stroke="rgb(204, 204, 204)" stroke-width="1px"></line><line x1="30.756944444444443" y1="0" x2="30.756944444444443" y2="5" style="visibility: inherit;" fill="rgb(0, 0, 0)" stroke="rgb(204, 204, 204)" stroke-width="1px"></line><line x1="61.513888888888886" y1="0" x2="61.513888888888886" y2="5" style="visibility: inherit;" fill="rgb(0, 0, 0)" stroke="rgb(204, 204, 204)" stroke-width="1px"></line><line x1="92.27083333333333" y1="0" x2="92.27083333333333" y2="5" style="visibility: inherit;" fill="rgb(0, 0, 0)" stroke="rgb(204, 204, 204)" stroke-width="1px"></line><line x1="123.02777777777777" y1="0" x2="123.02777777777777" y2="5" style="visibility: inherit;" fill="rgb(0, 0, 0)" stroke="rgb(204, 204, 204)" stroke-width="1px"></line><line x1="153.78472222222223" y1="0" x2="153.78472222222223" y2="5" style="visibility: inherit;" fill="rgb(0, 0, 0)" stroke="rgb(204, 204, 204)" stroke-width="1px"></line><line x1="184.54166666666666" y1="0" x2="184.54166666666666" y2="5" style="visibility: inherit;" fill="rgb(0, 0, 0)" stroke="rgb(204, 204, 204)" stroke-width="1px"></line><line x1="215.29861111111111" y1="0" x2="215.29861111111111" y2="5" style="visibility: inherit;" fill="rgb(0, 0, 0)" stroke="rgb(204, 204, 204)" stroke-width="1px"></line><line x1="246.05555555555554" y1="0" x2="246.05555555555554" y2="5" style="visibility: inherit;" fill="rgb(0, 0, 0)" stroke="rgb(204, 204, 204)" stroke-width="1px"></line><line x1="276.8125" y1="0" x2="276.8125" y2="5" style="visibility: inherit;" fill="rgb(0, 0, 0)" stroke="rgb(204, 204, 204)" stroke-width="1px"></line></g><g transform="translate(0, 8)"><text x="0" y="0" dx="0em" dy="0.95em" style="text-anchor: middle; visibility: hidden; font-family: &quot;Helvetica Neue&quot;, sans-serif; font-size: 12px; font-weight: 200;" fill="rgb(50, 49, 63)" stroke="none" stroke-width="1px">-20k</text><text x="30.756944444444443" y="0" dx="0em" dy="0.95em" style="text-anchor: middle; visibility: inherit; font-family: &quot;Helvetica Neue&quot;, sans-serif; font-size: 12px; font-weight: 200;" fill="rgb(50, 49, 63)" stroke="none" stroke-width="1px">0</text><text x="61.513888888888886" y="0" dx="0em" dy="0.95em" style="text-anchor: middle; visibility: inherit; font-family: &quot;Helvetica Neue&quot;, sans-serif; font-size: 12px; font-weight: 200;" fill="rgb(50, 49, 63)" stroke="none" stroke-width="1px">20k</text><text x="92.27083333333333" y="0" dx="0em" dy="0.95em" style="text-anchor: middle; visibility: inherit; font-family: &quot;Helvetica Neue&quot;, sans-serif; font-size: 12px; font-weight: 200;" fill="rgb(50, 49, 63)" stroke="none" stroke-width="1px">40k</text><text x="123.02777777777777" y="0" dx="0em" dy="0.95em" style="text-anchor: middle; visibility: inherit; font-family: &quot;Helvetica Neue&quot;, sans-serif; font-size: 12px; font-weight: 200;" fill="rgb(50, 49, 63)" stroke="none" stroke-width="1px">60k</text><text x="153.78472222222223" y="0" dx="0em" dy="0.95em" style="text-anchor: middle; visibility: inherit; font-family: &quot;Helvetica Neue&quot;, sans-serif; font-size: 12px; font-weight: 200;" fill="rgb(50, 49, 63)" stroke="none" stroke-width="1px">80k</text><text x="184.54166666666666" y="0" dx="0em" dy="0.95em" style="text-anchor: middle; visibility: inherit; font-family: &quot;Helvetica Neue&quot;, sans-serif; font-size: 12px; font-weight: 200;" fill="rgb(50, 49, 63)" stroke="none" stroke-width="1px">100k</text><text x="215.29861111111111" y="0" dx="0em" dy="0.95em" style="text-anchor: middle; visibility: inherit; font-family: &quot;Helvetica Neue&quot;, sans-serif; font-size: 12px; font-weight: 200;" fill="rgb(50, 49, 63)" stroke="none" stroke-width="1px">120k</text><text x="246.05555555555554" y="0" dx="0em" dy="0.95em" style="text-anchor: middle; visibility: inherit; font-family: &quot;Helvetica Neue&quot;, sans-serif; font-size: 12px; font-weight: 200;" fill="rgb(50, 49, 63)" stroke="none" stroke-width="1px">140k</text><text x="276.8125" y="0" dx="0em" dy="0.95em" style="text-anchor: middle; visibility: hidden; font-family: &quot;Helvetica Neue&quot;, sans-serif; font-size: 12px; font-weight: 200;" fill="rgb(50, 49, 63)" stroke="none" stroke-width="1px">160k</text></g><line x1="0" y1="0" x2="276.8125" y2="0" fill="rgb(0, 0, 0)" stroke="rgb(204, 204, 204)" stroke-width="1px"></line></g></g></g></g></svg>