<svg viewBox="0 0 330 200" xmlns="http://www.w3.org/2000/svg"><g><g><g><g><g><line x1="42.390625" y1="177" x2="37.390625" y2="177" style="visibility: inherit;" fill="rgb(0, 0, 0)" stroke="rgb(204, 204, 204)" stroke-width="1px"></line><line x1="42.390625" y1="162.25" x2="37.390625" y2="162.25" style="visibility: inherit;" fill="rgb(0, 0, 0)" stroke="rgb(204, 204, 204)" stroke-width="1px"></line><line x1="42.390625" y1="147.5" x2="37.390625" y2="147.5" style="visibility: inherit;" fill="rgb(0, 0, 0)" stroke="rgb(204, 204, 204)" stroke-width="1px"></line><line x1="42.390625" y1="132.75" x2="37.390625" y2="132.75" style="visibility: inherit;" fill="rgb(0, 0, 0)" stroke="rgb(204, 204, 204)" stroke-width="1px"></line><line x1="42.390625" y1="118" x2="37.390625" y2="118" style="visibility: inherit;" fill="rgb(0, 0, 0)" stroke="rgb(204, 204, 204)" stroke-width="1px"></line><line x1="42.390625" y1="103.25" x2="37.390625" y2="103.25" style="visibility: inherit;" fill="rgb(0, 0, 0)" stroke="rgb(204, 204, 204)" stroke-width="1px"></line><line x1="42.390625" y1="88.5" x2="37.390625" y2="88.5" style="visibility: inherit;" fill="rgb(0, 0, 0)" stroke="rgb(204, 204, 204)" stroke-width="1px"></line><line x1="42.390625" y1="73.75" x2="37.390625" y2="73.75" style="visibility: inherit;" fill="rgb(0, 0, 0)" stroke="rgb(204, 204, 204)" stroke-width="1px"></line><line x1="42.390625" y1="59" x2="37.390625" y2="59" style="visibility: inherit;" fill="rgb(0, 0, 0)" stroke="rgb(204, 204, 204)" stroke-width="1px"></line><line x1="42.390625" y1="44.25" x2="37.390625" y2="44.25" style="visibility: inherit;" fill="rgb(0, 0, 0)" stroke="rgb(204, 204, 204)" stroke-width="1px"></line><line x1="42.390625" y1="29.5" x2="37.390625" y2="29.5" style="visibility: inherit;" fill="rgb(0, 0, 0)" stroke="rgb(204, 204, 204)" stroke-width="1px"></line><line x1="42.390625" y1="14.75" x2="37.390625" y2="14.75" style="visibility: inherit;" fill="rgb(0, 0, 0)" stroke="rgb(204, 204, 204)" stroke-width="1px"></line><line x1="42.390625" y1="0" x2="37.390625" y2="0" style="visibility: inherit;" fill="rgb(0, 0, 0)" stroke="rgb(204, 204, 204)" stroke-width="1px"></line></g><g transform="translate(32.390625, 0)"><text x="0" y="177" dx="0em" dy="0.3em" style="text-anchor: end; visibility: hidden; font-family: &quot;Helvetica Neue&quot;, sans-serif; font-size: 12px; font-weight: 200;" fill="rgb(50, 49, 63)" stroke="none" stroke-width="1px">-30</text><text x="0" y="162.25" dx="0em" dy="0.3em" style="text-anchor: end; visibility: inherit; font-family: &quot;Helvetica Neue&quot;, sans-serif; font-size: 12px; font-weight: 200;" fill="rgb(50, 49, 63)" stroke="none" stroke-width="1px">-25</text><text x="0" y="147.5" dx="0em" dy="0.3em" style="text-anchor: end; visibility: hidden; font-family: &quot;Helvetica Neue&quot;, sans-serif; font-size: 12px; font-weight: 200;" fill="rgb(50, 49, 63)" stroke="none" stroke-width="1px">-20</text><text x="0" y="132.75" dx="0em" dy="0.3em" style="text-anchor: end; visibility: inherit; font-family: &quot;Helvetica Neue&quot;, sans-serif; font-size: 12px; font-weight: 200;" fill="rgb(50, 49, 63)" stroke="none" stroke-width="1px">-15</text><text x="0" y="118" dx="0em" dy="0.3em" style="text-anchor: end; visibility: hidden; font-family: &quot;Helvetica Neue&quot;, sans-serif; font-size: 12px; font-weight: 200;" fill="rgb(50, 49, 63)" stroke="none" stroke-width="1px">-10</text><text x="0" y="103.25" dx="0em" dy="0.3em" style="text-anchor: end; visibility: inherit; font-family: &quot;Helvetica Neue&quot;, sans-serif; font-size: 12px; font-weight: 200;" fill="rgb(50, 49, 63)" stroke="none" stroke-width="1px">-5</text><text x="0" y="88.5" dx="0em" dy="0.3em" style="text-anchor: end; visibility: hidden; font-family: &quot;Helvetica Neue&quot;, sans-serif; font-size: 12px; font-weight: 200;" fill="rgb(50, 49, 63)" stroke="none" stroke-width="1px">0</text><text x="0" y="73.75" dx="0em" dy="0.3em" style="text-anchor: end; visibility: inherit; font-family: &quot;Helvetica Neue&quot;, sans-serif; font-size: 12px; font-weight: 200;" fill="rgb(50, 49, 63)" stroke="none" stroke-width="1px">5</text><text x="0" y="59" dx="0em" dy="0.3em" style="text-anchor: end; visibility: hidden; font-family: &quot;Helvetica Neue&quot;, sans-serif; font-size: 12px; font-weight: 200;" fill="rgb(50, 49, 63)" stroke="none" stroke-width="1px">10</text><text x="0" y="44.25" dx="0em" dy="0.3em" style="text-anchor: end; visibility: inherit; font-family: &quot;Helvetica Neue&quot;, sans-serif; font-size: 12px; font-weight: 200;" fill="rgb(50, 49, 63)" stroke="none" stroke-width="1px">15</text><text x="0" y="29.5" dx="0em" dy="0.3em" style="text-anchor: end; visibility: hidden; font-family: &quot;Helvetica Neue&quot;, sans-serif; font-size: 12px; font-weight: 200;" fill="rgb(50, 49, 63)" stroke="none" stroke-width="1px">20</text><text x="0" y="14.75" dx="0em" dy="0.3em" style="text-anchor: end; visibility: inherit; font-family: &quot;Helvetica Neue&quot;, sans-serif; font-size: 12px; font-weight: 200;" fill="rgb(50, 49, 63)" stroke="none" stroke-width="1px">25</text><text x="0" y="0" dx="0em" dy="0.3em" style="text-anchor: end; visibility: hidden; font-family: &quot;Helvetica Neue&quot;, sans-serif; font-size: 12px; font-weight: 200;" fill="rgb(50, 49, 63)" stroke="none" stroke-width="1px">30</text></g><line x1="42.390625" y1="0" x2="42.390625" y2="177" fill="rgb(0, 0, 0)" stroke="rgb(204, 204, 204)" stroke-width="1px"></line></g></g><g transform="translate(42, 0)" clip-path="url(#clip_0)"><clipPath id="clip_0"><rect width="287" height="177"></rect></clipPath><g><g><g><line x1="0" y1="0" x2="0" y2="177" fill="rgb(0, 0, 0)" stroke="rgb(60, 60, 60)" stroke-width="1px" opacity="0.25"></line><line x1="31.95659722222222" y1="0" x2="31.95659722222222" y2="177" fill="rgb(0, 0, 0)" stroke="rgb(60, 60, 60)" stroke-width="1px" opacity="0.25"></line><line x1="63.91319444444444" y1="0" x2="63.91319444444444" y2="177" fill="rgb(0, 0, 0)" stroke="rgb(60, 60, 60)" stroke-width="1px" opacity="0.25"></line><line x1="95.86979166666666" y1="0" x2="95.86979166666666" y2="177" fill="rgb(0, 0, 0)" stroke="rgb(60, 60, 60)" stroke-width="1px" opacity="0.25"></line><line x1="127.82638888888889" y1="0" x2="127.82638888888889" y2="177" fill="rgb(0, 0, 0)" stroke="rgb(60, 60, 60)" stroke-width="1px" opacity="0.25"></line><line x1="159.78298611111111" y1="0" x2="159.78298611111111" y2="177" fill="rgb(0, 0, 0)" stroke="rgb(60, 60, 60)" stroke-width="1px" opacity="0.25"></line><line x1="191.73958333333331" y1="0" x2="191.73958333333331" y2="177" fill="rgb(0, 0, 0)" stroke="rgb(60, 60, 60)" stroke-width="1px" opacity="0.25"></line><line x1="223.69618055555557" y1="0" x2="223.69618055555557" y2="177" fill="rgb(0, 0, 0)" stroke="rgb(60, 60, 60)" stroke-width="1px" opacity="0.25"></line><line x1="255.65277777777777" y1="0" x2="255.65277777777777" y2="177" fill="rgb(0, 0, 0)" stroke="rgb(60, 60, 60)" stroke-width="1px" opacity="0.25"></line><line x1="287.609375" y1="0" x2="287.609375" y2="177" fill="rgb(0, 0, 0)" stroke="rgb(60, 60, 60)" stroke-width="1px" opacity="0.25"></line></g><g><line x1="0" y1="177" x2="287.609375" y2="177" fill="rgb(0, 0, 0)" stroke="rgb(60, 60, 60)" stroke-width="1px" opacity="0.25"></line><line x1="0" y1="162.25" x2="287.609375" y2="162.25" fill="rgb(0, 0, 0)" stroke="rgb(60, 60, 60)" stroke-width="1px" opacity="0.25"></line><line x1="0" y1="147.5" x2="287.609375" y2="147.5" fill="rgb(0, 0, 0)" stroke="rgb(60, 60, 60)" stroke-width="1px" opacity="0.25"></line><line x1="0" y1="132.75" x2="287.609375" y2="132.75" fill="rgb(0, 0, 0)" stroke="rgb(60, 60, 60)" stroke-width="1px" opacity="0.25"></line><line x1="0" y1="118" x2="287.609375" y2="118" fill="rgb(0, 0, 0)" stroke="rgb(60, 60, 60)" stroke-width="1px" opacity="0.25"></line><line x1="0" y1="103.25" x2="287.609375" y2="103.25" fill="rgb(0, 0, 0)" stroke="rgb(60, 60, 60)" stroke-width="1px" opacity="0.25"></line><line x1="0" y1="88.5" x2="287.609375" y2="88.5" fill="rgb(0, 0, 0)" stroke="rgb(60, 60, 60)" stroke-width="1px" opacity="0.25"></line><line x1="0" y1="73.75" x2="287.609375" y2="73.75" fill="rgb(0, 0, 0)" stroke="rgb(60, 60, 60)" stroke-width="1px" opacity="0.25"></line><line x1="0" y1="59" x2="287.609375" y2="59" fill="rgb(0, 0, 0)" stroke="rgb(60, 60, 60)" stroke-width="1px" opacity="0.25"></line><line x1="0" y1="44.25" x2="287.609375" y2="44.25" fill="rgb(0, 0, 0)" stroke="rgb(60, 60, 60)" stroke-width="1px" opacity="0.25"></line><line x1="0" y1="29.5" x2="287.609375" y2="29.5" fill="rgb(0, 0, 0)" stroke="rgb(60, 60, 60)" stroke-width="1px" opacity="0.25"></line><line x1="0" y1="14.75" x2="287.609375" y2="14.75" fill="rgb(0, 0, 0)" stroke="rgb(60, 60, 60)" stroke-width="1px" opacity="0.25"></line><line x1="0" y1="0" x2="287.609375" y2="0" fill="rgb(0, 0, 0)" stroke="rgb(60, 60, 60)" stroke-width="1px" opacity="0.25"></line></g></g></g><g><g><line x1="0" y1="88.5" x2="287.609375" y2="88.5" fill="rgb(0, 0, 0)" stroke="rgb(153, 153, 153)" stroke-width="1.5px"></line></g></g><g><g><line x1="31.95659722222222" y1="0" x2="31.95659722222222" y2="177" fill="rgb(0, 0, 0)" stroke="rgb(153, 153, 153)" stroke-width="1.5px"></line></g></g><g><g><g><g><g><path stroke="rgb(255, 112, 67)" stroke-width="2px" d="M32.68201197916667,148.00703125L32.97441484375,148.03129111842105L33.06389331597222,148.03934790129153L33.15337178819444,148.12377348974994L34.13124366319445,147.97145157093235L34.26546137152778,148.02823170514546L34.29901579861111,148.0153327583795L34.37091814236111,148.1676470336683L34.52590763888889,148.08875571833858L34.69687543402778,148.0125156168417L34.73042986111111,148.09904192864064L34.765582118055555,148.1054901554994L35.24493107638889,148.1355509373706L35.586866666666666,148.08900354277984L35.61562760416667,147.99161405702583L35.746649652777776,147.9539020380755L35.81695416666667,147.84963938760393L36.224400781250004,147.68918600723487L36.48964053819444,147.58737340922053L37.008935243055554,147.50396420646544L37.44514279513889,147.3378968652111L37.57296918402778,147.2433946228424L37.57616484375,147.10970646154948L38.35430798611111,147.04192269547653L38.635526041666665,146.80325259763242L38.95828767361111,146.3948193834372L39.15002725694445,146.04234091484565L39.30821241319445,145.68058042368386L40.04800763888889,145.25235228485903L40.14068177083333,144.76505365294014L40.49060651041667,144.28264334926303L41.16329288194445,143.41295413655308L41.407760850694444,142.5314486734834L41.56594600694444,141.7813476162379L42.39681753472222,140.56190711251503L42.40480668402778,139.3288756764197L43.170167187500006,138.2339440064559L44.01541918402778,136.21050080695795L44.13365859375,134.5464974610736L44.56027916666667,133.01673649723134L44.78876883680555,131.53218921993414L44.84149722222222,129.88265876957973L45.08596519097222,128.26208705511146L45.220182899305556,126.85346793138567L46.04466310763889,125.00243413268876L47.84701519097222,122.31750641323337L47.87098263888889,119.7101350677998L47.98762421875,117.31135890283846L48.35033159722222,114.71960027213879L49.67972604166666,112.04699121864614L50.23577083333333,108.65326941542052L50.98035954861111,106.05553558354194L51.76010052083333,102.68324950198075L53.01919045138889,98.80885495539307L53.413854427083336,95.23192771629637L53.77656180555555,91.98703491871127L54.40291111111111,89.1699810412665L55.09477144097222,85.40713494554603L55.61246831597222,82.11453468812911L55.71153376736111,79.07856304700687L57.56022291666667,75.90401000824873L58.08910460069444,72.57704760299904L58.093898090277776,69.65754949029657L58.76658446180556,66.9661212977501L58.99347630208334,64.59981073652946L59.28747699652778,62.40601582787774L59.408912065972224,60.33050533457306L60.0815984375,58.223012041227335L60.09278324652778,56.62178356406592L60.813404513888884,54.9410520970406L60.83896979166666,53.797552043787775L60.90128515625,52.51949193711455L61.24961206597222,51.43392188115568L62.083679253472226,50.52156087296542L62.951300868055554,49.61750779644072L64.31265190972222,48.77625813937911L65.04445798611111,48.0837372833999L65.27294765625,47.37751682214318L65.88172083333333,46.46532495585956L66.10541701388888,45.91179652842689L67.0721040798611,45.24767379108923L67.30219157986112,44.80673463147053L68.74503194444445,44.22549984627352L70.01370885416667,43.840707205038086L70.25018767361111,43.69724297664342L70.42435112847222,43.337633176013156L70.87813480902778,43.170727417481714L71.59396258680556,42.946758612338954L71.70581067708333,42.8834836454171L71.74575642361111,42.955609525233626L72.37210572916666,42.81769536736894L73.36276024305556,42.67513578418516L73.95875078125,42.63902645049666L74.17126215277777,42.1271294708574L74.17925130208334,41.970659485444685L75.34406927083334,41.820618712684706L75.39360199652778,41.694802257244675L76.7629421875,41.38796821986435L76.90035555555555,41.50823744734339L77.06972552083334,41.16474832905757L78.56050078125,41.03998926375405L79.00949097222222,40.77098454981399L79.17566527777778,40.5657571209606L79.62625329861112,40.565431403188285L80.13276536458334,40.583576047454414L80.57057074652778,40.43396633084569L80.82782135416667,40.26244251868235L81.14898515625,40.430731440997874L81.89037821180557,40.305625759506825L82.30421614583334,40.202249726150654L83.2213704861111,40.07233617067385L83.35399036458334,40.185884655415805L83.67355633680556,40.00229495035893L84.23759027777777,39.82784564529999L84.84156996527778,39.88287388170599L84.87512439236112,39.75724212519086L85.36885381944444,39.653392452649626L85.5062671875,39.78117871683315L85.57337604166666,39.6749354639436L86.01757274305555,39.487128811075365L86.19493185763888,39.23513394758979L86.2125079861111,39.13740154719321L86.53846527777777,38.89272331647189L86.5576392361111,38.9582948737517L87.37413029513888,38.9712154110139L88.15706692708333,38.79846857345237L88.16984956597223,38.80893423227175L88.63481805555556,38.744603219618995L89.21003680555556,38.576080186822L89.26276519097222,38.31839375299299L90.5681921875,38.3215543808966L91.14021527777777,38.32439894540127L91.33035703125,38.05961508351834L91.36071579861112,37.97802851489462L91.62275989583333,37.72022549199886L91.74099930555556,37.62648413670547L91.85444522569445,37.52367941766971L92.09252187499999,37.40349891765217L92.30663107638888,37.42439903500406L92.4680118923611,37.2772715737413L92.83870842013889,37.32923193472689L93.54494921874999,37.26537122094604L93.80699331597222,37.21711533504032L93.92523272569444,36.97087248810769L93.96677630208333,37.00737899776013L94.29113576388889,36.71757853751893L94.32309236111111,36.650351921143226L94.69378888888889,36.617504223477596L94.71935416666666,36.65247255644857L95.09324635416667,36.57331903996828L95.21947491319445,36.511299628330505L95.32333385416668,36.372513400108545L95.41441015625,36.40432456327224L96.12864010416666,36.515923366968224L96.53768454861111,36.46886227646732L96.74540243055556,36.52791355311655L97.2710884548611,36.479653444645095L97.29026241319444,36.40856309599141L97.54591519097222,36.60270679668861L98.03325329861111,36.463998610399045L98.26493862847224,36.5419737527088L98.40554765625001,36.575276378725476L98.51899357638888,36.45774873676342L98.5637328125,36.49025511410508L99.1261689236111,36.39966710014136L100.0017796875,36.2904816373576L100.08646467013888,36.16455847074707L100.11043211805556,36.106540122480226L100.51148741319444,36.09119860994855L100.93491232638888,36.13270374964446L101.04036909722223,36.308339627310744L101.10907578125,36.245161913728L101.15061935763889,36.28970822289568L101.50214192708333,36.37589365154719L101.75939253472222,36.4073667867018L102.29626336805555,36.14991135575448L102.35378524305555,35.752263967013704L102.75164487847222,35.69860006992789L102.77081883680556,35.493583811613206L102.84911249999999,35.336725429541616L103.05523255208334,35.47211538729454L103.23898298611113,35.4372475984012L103.942028125,35.35977283823334L104.20247439236111,35.47442055484652L104.21845269097223,35.513072249494314L104.29035503472223,35.33582752399826L104.63708411458333,35.2961510214883L104.80805190972222,35.36184841950359L104.84639982638889,35.28269482737528L105.01097630208332,35.22067534451227L105.07808515625,35.01735780969079L105.36090104166666,35.157028278950605L105.64531475694444,35.24585670118657L106.06873967013888,35.05845853081914L106.23651180555557,34.91745642756874L106.32119678819444,34.974929534873695L106.9890896701389,34.998999081409636L107.34380789930556,34.983786673255395L107.91902664930555,34.99775175594081L108.03407039930556,35.148601580453146L108.21941866319445,34.99858517231257L108.61408263888889,35.01107040508845L108.70995243055556,34.911682114528475L109.39382361111112,34.89598265306836L109.95945538194445,34.7988843877211L111.42306753472222,34.70227719891275L111.6371767361111,34.56923697897656L111.69789427083334,34.63387578109857L112.04781901041667,34.74736320301972L112.23636293402778,34.563720632672585L112.79240772569443,34.58281731940954L113.02569088541667,34.44328558744078L113.23820225694443,34.511300778708915L113.72713819444445,34.4895457008345L113.88212769097221,34.543716130758924L114.14097612847222,34.214500767639976L115.12044583333333,34.379144440895374L115.16358723958332,34.186229996785386L115.23868524305556,34.17854449710612L115.34893550347222,34.13475254739177L115.93853472222222,34.01237104264314L116.11429600694444,34.04050893838078L116.33000303819445,33.85380179453102L116.46422074652779,33.72264036507053L116.48659036458334,33.54928257855471L116.5808623263889,33.50388557069715L116.88445,33.536778263628804L116.97552630208334,33.35435043725917L117.16566805555556,33.3100091435318L118.20265963541667,33.39916447918128L118.51104079861112,33.47018553126506L119.22047725694445,33.46957322813853L119.25722734375,33.450584655324235L119.33232534722222,33.35052618978989L119.33711883680556,33.315786070810304L119.58318463541667,33.32139496372935L119.64070651041666,33.26191171735556L119.89635928819443,33.30056429562049L120.60579574652778,33.15097661605671L120.60899140625,32.89650395444838L120.96370963541666,32.93482230900389L121.09313385416667,32.8863400781031L121.19219930555556,32.90723732029295L121.313634375,33.101201088265015L121.68433090277779,33.17436222943894L121.82014644097222,33.04661350649434L121.95596197916666,33.00538965584471L122.08219053819444,32.96828819026007L122.60148524305555,32.925678121233915L123.02491015625,32.91498530911048L123.1830953125,33.062080528199914L123.34767178819445,32.991653725379706L123.39400885416666,32.87295710284141L124.19452161458334,33.08878639255781L124.19771727430555,33.246157753302356L124.2057064236111,33.31404197797224L124.4038373263889,33.34748153017506L125.05255625000001,33.44210837715772L125.24269800347223,33.25071003944166L125.45361154513888,33.345795285497616L125.89461258680555,33.31152825694784L126.16784149305556,33.160844181252884L126.21737421875001,33.14507226312759L126.79578862847222,33.04790878681476L127.60748619791666,32.97889915813323L127.66341024305555,32.8246029923198L128.42717291666668,32.75026769308778L128.44315121527777,32.62805342377891L128.64287994791667,32.65634183140102L128.75472803819446,32.783207648261L129.1094462673611,32.7498868834349L129.48972977430554,32.55396069509132L129.61276267361112,32.41450212558212L130.07453550347222,32.279770663023896L130.17999227430556,32.25991859672149L130.28065555555554,32.16830173704932L131.07797265624998,32.10428406334438L131.38475598958334,32.09276190700996L131.667571875,32.10082946630894L131.70591979166667,32.135746519678065L131.76823515625,32.04732811771024L132.77007447916668,32.023064055939216L132.98418368055556,32.01044515034528L133.1807167534722,32.00830688531076L133.69521796875,31.98794494677969L133.83263133680555,31.941962952101704L134.16657777777777,31.789954156891525L134.1825560763889,31.809864991202375L136.28370234375,31.837003492082147L136.52018116319445,31.76924064287391L136.56971388888888,31.791222828586513L136.71990989583333,31.78335054572787L136.75346432291667,31.7670467411551L136.7758339409722,31.71549831703959L138.2953701388889,31.705979735335603L138.4567509548611,31.531475511802057L138.85940407986112,31.54035921062183L139.33236171875,31.511479539559645L139.46498159722222,31.467050335603687L139.6742973090278,31.344095302043314L139.93634140625,31.288748271838983L140.53392977430556,31.257373444655087L140.64897352430555,31.127729850189553L140.74164765625,31.11245686517063L141.3472251736111,31.264648678653543L142.24041206597224,31.254121310788207L142.55838020833332,31.382927929709382L142.76929375,31.388228886738432L142.8156308159722,31.439093498064608L142.92428324652778,31.420340398258134L143.15756640625,31.320493858432343L143.93890520833332,31.341256972589065L144.07152508680554,31.35994377533018L144.5077326388889,31.247699397797163L144.66272213541666,31.137460708017443L144.80652682291665,31.038245887215737L144.82250512152777,30.930515048494158L144.8992009548611,30.83355729364473L145.14047326388888,30.847701564280243L145.42009348958334,30.851212657852216L146.45548723958333,30.845153892066975L146.7414987847222,30.8673572528603L147.32790234375,30.68452777757426L147.58834861111112,30.85185624981682L147.63308784722224,30.771983124835145L147.66664227430556,30.84759731235164L147.85199053819446,30.832681331116476L148.4671550347222,30.846913198004813L148.7339926215278,30.73987812820434L149.19256979166667,30.65276531538393L149.3555484375,30.55592628384551L149.50574444444445,30.59783365546096L149.70547317708332,30.50648778991487L149.94674548611113,30.42427651092339L150.5027902777778,30.313411359831065L150.61623619791666,30.407226473847942L150.74406258680554,30.50087882646315L151.19624843749997,30.594384693816835L151.23938984375002,30.54947747443518L151.47427083333332,30.65656097699167L151.4838578125,30.633092379292492L151.95841328125,30.667283141363242L152.7908826388889,30.61508607722689L153.71922178819446,30.549671219504233L154.3583537326389,30.629079097553813L154.81852873263887,30.682108687798404L155.1812361111111,30.582335319018597L155.23396449652776,30.69535178711672L155.6829546875,30.723316608405042L155.68615034722222,30.656297447564526L156.01849895833334,30.5683239528081L156.0872056423611,30.443054057527263L156.33327144097223,30.477811151774546L157.51726336805558,30.46299878659707L157.61473098958334,30.366698907937376L157.65947022569443,30.427529017143655L158.20912369791668,30.334776115429293L158.38168932291666,30.334267253886367L158.97288637152778,30.41677802849773L159.01602777777777,30.472600225647938L159.09751710069443,30.402996453083148L159.20297387152777,30.441759307774845L159.23493046874998,30.458208376997362L159.42826788194446,30.426918789297616L159.9667365451389,30.490945660367856L160.04822586805554,30.51169484433106L161.09640225694443,30.677869109897983L161.21144600694444,30.67070719890816L162.14777430555557,30.66426147901737L162.24524192708336,30.64002283111563L163.07451562499998,30.50758304800405L163.46278828125,30.34229349320367L163.7759629340278,30.3594703938833L164.12588767361112,30.301179604494962L164.2233552951389,30.221061644045477L164.29206197916668,30.241142979640927L165.09577039930556,30.24077868167683L165.14210746527777,30.212794563509163L165.15009661458333,30.23370260715825L165.26514036458335,30.243301096442394L165.38657543402778,30.233502236798188L165.77165243055555,30.160152013118363L166.60571961805556,30.121793061806528L166.9125029513889,30.13336375562588L166.91889427083333,30.17143363006329L167.25763420138887,30.15038401705695L167.7337875,30.113001865351265L168.75480078125,30.060920428816104L169.11431249999998,29.967953385934493L169.23894322916667,30.022564297341063L169.49938949652775,29.951870367606972L169.5345417534722,29.943558330846287L170.05703211805556,30.019046247761622L170.52040277777778,30.068547872985476L170.64503350694443,30.020911835686917L171.29535026041668,30.061008152118234L171.63409019097222,30.07865733690639L171.7762970486111,30.085322853215757L172.24925468749998,30.09132181789417L172.87081050347223,29.98609588610475L173.23032222222224,30.029673797494297L173.24949618055555,30.09655016774485L173.96692178819444,30.11986390097036L174.77222803819444,30.159283760873336L174.83294557291666,30.13023038478599L175.27714227430556,30.122519846307398L175.28992491319443,30.060267861676664L175.4864579861111,29.90283482550899L176.29495989583333,29.89020759295809L176.44515590277777,29.758999333662246L176.59375407986113,29.71466190029605L176.88775477430553,29.64710196026644L177.1801576388889,29.540204264239776L177.43421258680556,29.517746337815794L177.98067039930555,29.56206545403421L178.41368229166665,29.5650776586308L178.69969383680558,29.558569892767736L178.91699869791665,29.50661915349096L179.33563012152777,29.515175988141863L179.42830425347222,29.49522088932767L179.79420729166665,29.606323800394904L179.94280546875,29.78006642035541L180.3886,29.73362227831987L180.65383975694445,29.673385050487866L180.65543758680553,29.609952795439085L180.71295946180555,29.442238765895183L180.74331822916665,29.448014889305654L180.79604661458336,29.3794634003751L180.98139487847223,29.40995456033758L182.06152786458333,29.345209104303848L182.10626710069445,29.240844443873442L182.55685512152778,29.266759999486112L182.58082256944442,29.36383399953749L182.61597482638888,29.414325599583748L183.40370494791668,29.44133053962537L183.68492300347222,29.49329123566281L183.84310815972222,29.392555862096515L183.86228211805553,29.40330027588689L184.3096744791667,29.4406264982982L184.72990373263886,29.382032598468385L184.84175182291668,29.384610588621513L184.86731710069444,29.34083702975937L184.87370842013888,29.329097076783427L184.8769040798611,29.253999869105087L185.19647005208333,29.287818632194586L186.37886414930554,29.40122426897514L187.3759099826389,29.457195592077596L187.62676927083334,29.33241353286985L188.10132473958333,29.24776592958287L188.23394461805557,29.282208086624593L188.95296805555554,29.221018527962116L189.62725225694444,29.12907292516593L190.2360254340278,29.203040632649305L190.23762326388888,29.214299069384367L190.29194947916665,29.242869162445942L191.16276675347223,29.25936349620136L191.24585390625,29.22811464658122L191.61175694444447,29.218428181923088L192.18378003472222,29.163616613730795L192.1917691840278,29.188036202357694L192.5992157986111,29.117826332121922L192.9395535590278,29.07307494890975L193.20958680555557,29.08811120401876L194.4526984375,29.000237583616894L194.46707890625,28.967245075255192L194.56294869791665,28.946770567729658L194.8233949652778,28.974437260956705L195.00554756944445,29.03621228486105L195.02312369791667,29.101028556374956L195.13816744791666,29.19623820073744L195.3698527777778,29.2081768806637L196.70244288194445,29.126734192597326L197.14663958333333,29.090310773337592L197.3016290798611,29.168154696003825L197.98550026041667,29.182901726403458L198.01106553819446,29.16851780376311L198.55113203125,29.2293222733868L199.1822748263889,29.210296296048114L199.18866614583334,29.230047916443283L199.36602526041668,29.19251187479898L199.59291710069445,29.278573187319097L199.62647152777777,29.153215868587182L199.7431131076389,29.169456781728456L200.47811484374998,29.128761103555576L200.693821875,29.11057249320004L201.06292057291665,29.066546493880026L201.44480190972223,29.054579344492026L201.59499791666664,29.025371410042823L201.84106371527778,29.054396769038533L201.9001834201389,28.969894592134693L202.11269479166666,28.930717632921215L202.3939128472222,28.99686461962912L203.7009376736111,29.010303157666186L203.78562265625,29.086929091899577L203.88149244791666,29.109798682709595L204.6069072048611,29.056631314438647L204.720353125,29.073311932994784L205.18851727430555,29.16207448969533L205.69183368055556,29.205085790725775L205.71260546875,29.123952211653204L206.06412803819444,29.069369490487873L206.31658515625,29.18618254143908L206.74320572916668,29.162251787295162L206.91577135416668,29.30665160856566L206.9924671875,29.2706739477091L207.0915326388889,29.17376280293817L207.29605486111112,29.187949022644347L207.76102335069444,29.19149787037992L208.1700677951389,29.148598083341938L208.23238315972225,29.11920702500774L208.46726414930555,29.083536322506973L208.49762291666667,29.05143269025629L209.61450598958334,29.087070671230634L209.9244849826389,28.96242610410758L210.74257387152778,28.859464743696805L210.82725885416667,28.941955769327137L210.84004149305557,28.90557269239443L210.8911720486111,28.90048417315498L210.94070477430557,28.840592005839454L211.1532161458333,28.786689055255522L211.2474881076389,28.821145149729972L211.81951119791668,28.750749384756944L211.8275003472222,28.705830696281254L212.01923993055556,28.637747626653123L212.33880590277778,28.59491036398782L212.49539322916667,28.62088807758903L213.18246006944446,28.584346144830135L213.23359062499998,28.602161530347132L213.27193854166669,28.599757877312413L213.74329835069446,28.588375839581175L213.7784506076389,28.615007005623028L214.30253880208332,28.583662555060755L214.4974740451389,28.62920254955469L214.69560494791668,28.60565729459921L214.84260529513887,28.58446656513928L214.8697684027778,28.666801158625333L215.5504439236111,28.750121042762828L215.56482439236112,28.732921438486528L215.80769453124998,28.699004294637888L216.1943693576389,28.769885115174105L216.2694673611111,28.861334103656702L216.28384782986112,28.83301319329101L216.34616319444444,28.890493123961903L216.79994687500002,28.85925631156573L216.87983836805554,28.775830680409143L216.914990625,28.78371636236824L217.39753524305556,28.7723759761314L217.43268750000001,28.845138378518243L217.93919956597222,28.790780790666417L217.9791453125,28.7326402115998L218.31149392361112,28.68953244043982L218.62147291666668,28.752141696395853L218.6566251736111,28.68864627675626L218.9154736111111,28.668375399080645L219.80226918402778,28.640912859172545L220.02756319444447,28.77291532325529L220.11224817708333,28.698123790929742L220.1346177951389,28.704561411836778L220.36150963541667,28.719574020653113L220.68746692708334,28.7054291185878L220.70504305555556,28.775667456728996L221.31062057291666,28.737475711056135L221.56307769097225,28.7584156399505L221.8219261284722,28.694292825955472L222.72949348958332,28.627363543359905L222.93082005208333,28.585564689023897L223.14013576388888,28.547945720121504L223.4597017361111,28.541744898109357L223.57314765625,28.609914158298437L223.64185434027777,28.542203992468586L223.69458272569443,28.582671093221734L223.91827890624998,28.57299773389954L223.97260512152778,28.564291710509593L224.0748662326389,28.47348753945863L224.15315989583334,28.493170035512776L224.36886692708333,28.575415531961482L224.622921875,28.612561478765343L224.71399817708334,28.645992830888787L224.95846614583334,28.685299797799928L225.3419453125,28.702238568019936L225.6599134548611,28.72670221121794L226.5626873263889,28.77637574009617L226.72406814236112,28.710456916086542L226.8391118923611,28.65112997447787L227.79780980902777,28.70836072703011L228.10139748263887,28.630805904327076L228.3346806423611,28.55178781389438L228.38101770833333,28.526765282504954L228.55198550347222,28.522682504254448L228.7533120659722,28.555883003828995L228.91788854166668,28.613419703446112L229.03133446180556,28.5730152331015L229.0361279513889,28.555088709791335L229.87339079861113,28.538954838812202L230.14821753472222,28.533653104930977L230.2185220486111,28.565756544437903L230.38948984375,28.52089963999407L230.6323599826389,28.489747175994694L231.15644817708332,28.443272458395228L231.21077439236112,28.484413962555692L231.410503125,28.44769131630011L231.51595989583336,28.40542218467013L232.0847873263889,28.422692466203102L232.8373651909722,28.438235719582792L233.21445303819445,28.37847464762453L233.77529131944445,28.35234593286205L233.81843272569444,28.319611339575857L234.09965078124998,28.40999395561829L234.9752615451389,28.399150810056426L235.2325121527778,28.36173572905082L235.36193637152778,28.34649965614571L235.44342569444444,28.397318440531137L235.59521953125002,28.304774096478013L235.77577430555556,28.341327936830226L236.26630807291667,28.429538893147196L236.57948272569445,28.352210003832482L236.587471875,28.430114003449233L236.73127656250003,28.518665103104297L237.6548222222222,28.41398609279389L238.2300409722222,28.448837483514467L238.26519322916667,28.470984985163057L238.87556423611113,28.444823986646753L239.27342387152777,28.41206033798207L239.92853411458336,28.44710430418388L240.3807199652778,28.450987623765485L240.3951004340278,28.54667011138892L240.46220928819443,28.559034350250045L240.49895937500003,28.570162165225014L240.61240529513887,28.58939594870256L240.8568732638889,28.50530010383227L242.684790625,28.595551343449046L242.79504088541665,28.630683709104147L242.85735625,28.597771588193723L242.86214973958334,28.687994429374385L243.9918154513889,28.759976236436927L244.36730546875,28.87085361279324L244.43760998263886,28.823143251513898L244.5382732638889,28.798641426362508L244.59259947916667,28.73049603372627L245.3291990451389,28.715258930353627L245.41867751736112,28.646233037318268L245.55609088541667,28.556453483586438L245.60881927083332,28.494089385227795L245.71267821180555,28.631555446704994L246.08976605902777,28.570899902034483L246.25753819444444,28.507091161831056L246.53076710069445,28.532632045647972L246.65060434027777,28.491087591083158L246.90945277777777,28.453697581974836L246.98295295138888,28.512234073777336L247.60131310763887,28.50960441639961L248.02473802083333,28.461143974759636L248.29956475694445,28.45440457728367L248.39383671875,28.512870369555287L248.4657390625,28.48252083259976L249.04734913194446,28.492081249339805L249.48195885416666,28.49146687440583L249.5602525173611,28.518570186965235L249.817503125,28.496869418268744L250.0779493923611,28.532651226441857L250.23293888888887,28.537198603797663L250.50297213541666,28.605822493417918L250.80975546874998,28.53852149407612L251.26353914930556,28.56091934466852L251.5016157986111,28.654827410201676L251.55114852430555,28.610282169181488L251.6022790798611,28.55175395226337L251.73489895833333,28.508297307036997L251.98895390625,28.459967576333327L252.24940017361112,28.453345818699972L252.45871588541667,28.47965186182998L252.57056397569445,28.50793667564696L252.7766840277778,28.468861758082284L253.7689363715278,28.507444332274076L254.22112222222222,28.486856149046645L254.42244878472223,28.486764284141998L254.48476414930556,28.45902535572779L254.49435112847223,28.397185320155018L254.55666649305556,28.341529288139526L254.86984114583333,28.28222010932555L255.0184393229167,28.27493559839303L255.02962413194444,28.28681703855372L255.56489713541666,28.279072834698354L255.98033289930555,28.290540551228503L256.24237699652775,28.300861496105654L256.30309453125,28.310150346495107L256.6306496527778,28.30007281184558L256.8591393229167,28.30022178066102L257.8178372395833,28.30957460259495L258.3099688368055,28.35486714233545L258.3419254340278,28.358755428101887L259.0114161458333,28.343817385291715L259.24310147569446,28.35802939676256L259.5626674479167,28.29707020708628L259.90460303819447,28.24220693637767L260.30725616319444,28.31267374273989L260.58847421875,28.30234386846587L260.8744857638889,28.265390731619277L261.9290534722222,28.278226658457356L262.6001420138889,28.27134149261161L262.7423488715278,28.329676093350486L262.87496875,28.28077098401542L263.25685008680557,28.255193885613892L263.4677636284722,28.22295574705248L264.15163480902777,28.23081642234726L264.16281961805555,28.320859780112528L264.1947762152778,28.31893005210125L264.2634828993056,28.354068296891143L264.4328528645833,28.311942717202015L264.51753784722223,28.338560945481817L264.69329913194446,28.408611100933626L265.2221808159722,28.41634374084026L267.18271805555554,28.469396866756256L267.189109375,28.4987071800806L267.19869635416666,28.534305212072553L267.84581744791666,28.446499690865295L268.3283620659722,28.43200597177878L268.48015590277777,28.400524124600878L268.90358081597225,28.335315462140784L269.7280610243056,28.322721415926736L269.72965885416664,28.292949274334063L269.8926375,28.28459184690064L270.2153991319445,28.32316391221059L270.26173619791666,28.33944127098954L270.3863669270834,28.372528393890576L271.8499790798611,28.319338054501486L272.14397977430554,28.317560499051353L272.2062951388889,28.33439819914622L272.68883975694445,28.32189587923159L273.2896237847222,28.34751879130843L273.32956953125,28.342923162177584L273.9750927951389,28.329568345959842L274.0166363715278,28.317549011363866L274.05817994791664,28.29751286022747L274.69251840277775,28.279480324204712L274.77720338541667,28.346219791784222L274.86188836805553,28.304879062605806L275.37159609375,28.313766156345224L275.4610745659722,28.2480145407107L275.644825,28.198056836639637L275.8014123263889,28.346688652975672L275.85733637152777,28.379051037678096L276.70099053819445,28.371302183910302L277.07967621527774,28.3919844655193L277.12761111111115,28.429036018967366L277.2218830729167,28.471601167070617L277.36249210069445,28.45459730036356L278.13264609375,28.466950070327186L278.36912491319447,28.45963006329447L278.3819075520833,28.453042056965018L278.40907065972226,28.43789410126854L278.41705980902776,28.488792191141698L278.42025546875,28.571475472027487L278.4218532986111,28.516827924824753L278.42664678819443,28.513738882342267L278.44262508680555,28.483302494108045L278.4522120659722,28.446690994697235L278.45860338541667,28.39530314522753L278.4665925347222,28.35827283070475L278.46978819444445,28.315726797634312L278.47298385416667,28.341966617870867L278.4761795138889,28.356363706083783L278.4793751736111,28.41541483547539L278.48576649305556,28.367154601927865L278.4873643229167,28.355986016735073L278.4921578125,28.304449915061554L278.4937556423611,28.479317423555415L278.49535347222223,28.479979431199837L278.5017447916667,28.554325238079883L278.5049404513889,28.53826771427191L278.50973394097224,28.5514721928447L278.51133177083335,28.498824973560232L278.5145274305556,28.469879976204197L278.5225165798611,28.425391978583775L278.52571223958336,28.403790280725417L278.5273100694444,28.412005002652876L278.5289078993056,28.391742002387588L278.5384948784722,28.41038030214881L278.5416905381944,28.41793602193391L278.54648402777775,28.36942366974054L278.56086449652776,28.325762552766463L278.5656579861111,28.27724879748982L278.5688536458333,28.31655516774086L278.57204930555554,28.296618400966764L278.5752449652778,28.38008156087008L278.578440625,28.326135904783087L278.59282109375,28.286803564304762L278.59921241319444,28.2974982078743L278.60240807291666,28.311732762086876L278.6072015625,28.33837198587821L278.6199842013889,28.270159787290368L278.62637552083334,28.28251880856132L278.6327668402778,28.18301692770521L278.64235381944445,28.167215234934673L278.65353862847223,28.18064996144119L278.65673428819446,28.229616215297085L278.6647234375,28.24602959376739L278.6759082465278,28.223926634390637L278.68070173611113,28.296221470951565L278.68229956597224,28.305974323856418L278.6902887152778,28.360845641470746L278.6918865451389,28.327261077323698L278.69348437499997,28.389222469591317L278.69668003472225,28.31592522263219L278.7014735243056,28.36058270036895L278.7094626736111,28.39155568033206L278.7142561631944,28.336462612298874L278.7158539930556,28.35141010106898L278.71904965277776,28.438612840962065L278.7286366319444,28.452564056865867L278.74461493055554,28.446682651179287L278.7557997395833,28.376858136061344L278.76059322916666,28.378547322455205L278.76219105902777,28.380067590209705L278.77337586805555,28.39987333118873L278.77497369791666,28.390042248069847L278.7765715277778,28.41806927326286L278.7781693576389,28.387981095936595L278.78615850694445,28.34246423634292L278.7909519965278,28.36603031270863L278.8292999131944,28.39645853143776L278.83409340277774,28.405406428293958L278.8372890625,28.477990785464584L278.8452782118056,28.524879206918115L278.8500717013889,28.57629753622632L278.85166953125,28.55804278260368L278.8548651909722,28.60614475434329L278.85646302083336,28.557249028908956L278.86764782986114,28.59621162601806L278.87084348958336,28.60362171341626L278.87403914930553,28.59185329207463L278.88841961805554,28.562824212867156L278.89640876736115,28.57357304158043L278.8980065972222,28.54637198742239L278.9075935763889,28.503453538680162L278.9107892361111,28.45560818481215L278.9139848958333,28.440203616330933L278.91718055555555,28.536964504697835L278.923571875,28.467330554228056L278.9283653645833,28.413878748805246L278.9347566840278,28.457959623924722L278.9491371527778,28.460757411532228L278.9507349826389,28.435619170379027L278.9523328125,28.52361975334111L278.9619197916667,28.510632778006993L278.97470243055557,28.46206950020627L278.98109375,28.44601880018567L278.98428940972224,28.422354420167125L278.98588723958335,28.391837728150392L278.98748506944446,28.345935205335365L278.9938763888889,28.33227918480182L279.00186553819447,28.338426266321648L279.01305034722225,28.31630238968947L279.01944166666664,28.388578400720547L279.0258329861111,28.389095560648457L279.0322243055556,28.398779754583614L279.038615625,28.379839279125235L279.04181128472226,28.445761601212723L279.05139826388887,28.394466691091452L279.0561917534722,28.440488771982302L279.05938741319443,28.435814894784073L279.0625830729167,28.36707715530565L279.0657787326389,28.452713189775096L279.0705722222222,28.474473120797597L279.07376788194443,28.438744558717843L279.07856137152777,28.443463852846037L279.0849526909722,28.49380496756146L279.08814835069444,28.548330720805325L279.0977353298611,28.486778898724765L279.10572447916667,28.52356975885229L279.1073223090278,28.57511903296708L279.1137136284722,28.52010712967035L279.1248984375,28.49825266670331L279.1376810763889,28.506239900032966L279.14247456597224,28.47655341002968L279.14726805555557,28.468273069026708L279.1488658854167,28.470039512124032L279.153659375,28.370223060911627L279.1616485243056,28.344919504820467L279.1712355034722,28.340583804338422L279.17283333333336,28.39199417390458L279.1792246527778,28.3645135065141L279.1824203125,28.3029059058627L279.19200729166664,28.311990315276432L279.1936051215278,28.347822533748797L279.19680078125,28.380071530373897L279.2031921006945,28.409095627336512L279.2143769097222,28.38912356460287L279.2239638888889,28.454117458142605L279.2287573784722,28.457299462328336L279.2383443576389,28.460163266095464L279.2511269965278,28.453521939485938L279.2559204861111,28.37379474553734L279.25911614583333,28.366571520983626L279.26071397569444,28.313976868885277L279.268703125,28.326563556996717L279.2703009548611,28.277969701297053L279.27509444444445,28.289547731167346L279.2782901041667,28.336842958050624L279.2798879340278,28.434721162245552L279.28308359375,28.421405296020993L279.29107274305557,28.400202266418916L279.3070510416667,28.408775789776996L279.3166380208333,28.416491960799306L279.3198336805556,28.395780264719377L279.32143151041663,28.386358488247424L279.32782282986113,28.3594413894227L279.32942065972225,28.464278500480418L279.33581197916664,28.401913150432364L279.3390076388889,28.355003085389143L279.3485946180556,28.32200277685024L279.3501924479167,28.31995874916521L279.35498593750003,28.281244124248673L279.3613772569444,28.28327596182382L279.38055121527776,28.211354615641454L279.3885403645833,28.211156654077286L279.39013819444443,28.220197238669584L279.39333385416666,28.209896264802637L279.40771432291666,28.228281638322358L279.4093121527778,28.18951597449015L279.41889913194444,28.24681437704112L279.42049696180555,28.289164189336987L279.4236926215278,28.410247770403288L279.4428665798611,28.399379243362972L279.44925789930556,28.417253819026655L279.4524535590278,28.368809687123985L279.45564921875,28.371303718411582L279.46044270833335,28.318235846570417L279.4652361979167,28.33500601191338L279.4796166666667,28.340880410722036L279.48920364583336,28.272417369649844L279.4923993055555,28.220019382684853L279.5099754340278,28.255829944416377L279.51157326388886,28.26962194997472L279.52116024305553,28.318909754977255L279.5323450520833,28.381706279479516L279.57069296875,28.419785651531583L279.5722907986111,28.49093208637842L279.57548645833333,28.481213877740572L279.58027994791667,28.57848311496653L279.5834756076389,28.569228553469856L279.61703003472223,28.63464944812287L279.62182352430557,28.71196575331058L279.62821484374996,28.615612927979527L279.6298126736111,28.565770385181565L279.63141050347224,28.613099596663403L279.63460616319446,28.591164636997092L279.6409974826389,28.525329423297364L279.64579097222224,28.50295273096762L279.6489866319444,28.51968870787087L279.6521822916667,28.47943858708379L279.6633671006944,28.563057228375385L279.66816059027775,28.50003275553786L279.66975842013886,28.535498229984057L279.6745519097222,28.539760906985663L279.68254105902776,28.469847316287087L279.69532369791665,28.43458133465836L279.7017150173611,28.48581070119255L279.7049106770833,28.45816713107328L279.70810633680554,28.47016291796595L279.70970416666665,28.48095912616938L279.7192911458333,28.444581963552423L279.72568246527777,28.393405017197182L279.728878125,28.448752015477453L279.7320737847222,28.4801268139297L279.73686727430555,28.50836413253674L279.75124774305556,28.46002771928306L279.7544434027778,28.444181197354766L279.7560412326389,28.4207005776193L279.76243255208334,28.408786769857358L279.7704217013889,28.444158092871646L279.7736173611111,28.38380478358448L279.78959565972224,28.320268055226023L279.79279131944446,28.3368349997034L279.7959869791667,28.37018274973309L279.81675876736114,28.390976974759752L279.8231500868055,28.391254277283792L279.8263457465278,28.4191600995554L279.8423240451389,28.490369089599852L279.8503131944444,28.50836343063989L279.8614980034722,28.469245837575897L279.86629149305554,28.406383753818318L279.86948715277777,28.35902662843648L279.87907413194444,28.371717715592837L279.8902589409722,28.429233444033542L279.90144375,28.370372599630173L279.9030415798611,28.44646033966717L279.9046394097222,28.48728305570046L279.90783506944445,28.468711000130412L279.9126285590278,28.562621150117337L279.91582421875,28.518077785105618L279.9254111979167,28.450332506595032L279.9318025173611,28.370924255935535L279.93340034722223,28.317894330342L279.9429873263889,28.29782364730781L279.94458515625,28.399603782577003L279.9461829861111,28.343705904319336L279.9541721354167,28.367147813887357L279.9557699652778,28.369808032498668L279.9573677951389,28.362983479248783" style="fill: none;" fill="none"></path></g></g></g></g><g opacity="0.2"><g><g><g><path stroke="rgb(255, 112, 67)" stroke-width="2px" d="M32.68201197916667,148.00703125L32.97441484375,148.053125L33.06389331597222,148.053125L33.15337178819444,148.3296875L34.13124366319445,147.5L34.26546137152778,148.2375L34.29901579861111,147.9609375L34.37091814236111,148.8828125L34.52590763888889,147.684375L34.69687543402778,147.5921875L34.73042986111111,148.60625L34.765582118055555,148.1453125L35.24493107638889,148.3296875L35.586866666666666,147.7765625L35.61562760416667,147.315625L35.746649652777776,147.684375L35.81695416666667,147.08515625L36.224400781250004,146.4859375L36.48964053819444,146.80859375L37.008935243055554,146.8546875L37.44514279513889,146.025L37.57296918402778,146.4859375L37.57616484375,146.025L38.35430798611111,146.4859375L38.635526041666665,144.8265625L38.95828767361111,142.9828125L39.15002725694445,143.075L39.30821241319445,142.6140625L40.04800763888889,141.6L40.14068177083333,140.5859375L40.49060651041667,140.125L41.16329288194445,135.884375L41.407760850694444,134.8703125L41.56594600694444,135.2390625L42.39681753472222,129.8921875L42.40480668402778,128.509375L43.170167187500006,128.6015625L44.01541918402778,118.36875L44.13365859375,119.84375L44.56027916666667,119.475L44.78876883680555,118.36875L44.84149722222222,115.234375L45.08596519097222,113.8515625L45.220182899305556,114.3125L46.04466310763889,108.5046875L47.84701519097222,98.3640625L47.87098263888889,96.428125L47.98762421875,95.875L48.35033159722222,91.5421875L49.67972604166666,88.13125L50.23577083333333,78.26718749999999L50.98035954861111,82.784375L51.76010052083333,72.45937500000001L53.01919045138889,64.0703125L53.413854427083336,63.1484375L53.77656180555555,62.871875L54.40291111111111,63.8859375L55.09477144097222,51.625L55.61246831597222,52.546875L55.71153376736111,51.809375L57.56022291666667,47.384375000000006L58.08910460069444,42.68281249999998L58.093898090277776,43.420312499999994L58.76658446180556,42.775000000000006L58.99347630208334,43.328125L59.28747699652778,42.68281249999998L59.408912065972224,41.66875000000002L60.0815984375,39.271874999999994L60.09278324652778,42.22187500000001L60.813404513888884,39.82499999999999L60.83896979166666,43.51249999999999L60.90128515625,41.0234375L61.24961206597222,41.66875000000002L62.083679253472226,42.314062500000006L62.951300868055554,41.484375L64.31265190972222,41.20781249999999L65.04445798611111,41.853125000000006L65.27294765625,41.0234375L65.88172083333333,38.2578125L66.10541701388888,40.931250000000006L67.0721040798611,39.271874999999994L67.30219157986112,40.83906250000001L68.74503194444445,38.99531250000001L70.01370885416667,40.37812500000001L70.25018767361111,42.40625L70.42435112847222,40.1015625L70.87813480902778,41.66875000000002L71.59396258680556,40.931250000000006L71.70581067708333,42.314062500000006L71.74575642361111,43.60468750000001L72.37210572916666,41.576562499999994L73.36276024305556,41.392187500000006L73.95875078125,42.314062500000006L74.17126215277777,37.52031250000002L74.17925130208334,40.5625L75.34406927083334,40.470312500000006L75.39360199652778,40.5625L76.7629421875,38.626562500000006L76.90035555555555,42.59062499999999L77.06972552083334,38.07343750000001L78.56050078125,39.91718749999998L79.00949097222222,38.349999999999994L79.17566527777778,38.71875L79.62625329861112,40.5625L80.13276536458334,40.74687499999999L80.57057074652778,39.087500000000006L80.82782135416667,38.71875L81.14898515625,41.9453125L81.89037821180557,39.1796875L82.30421614583334,39.271874999999994L83.2213704861111,38.90312500000002L83.35399036458334,41.20781249999999L83.67355633680556,38.349999999999994L84.23759027777777,38.2578125L84.84156996527778,40.37812500000001L84.87512439236112,38.626562500000006L85.36885381944444,38.71875L85.5062671875,40.931250000000006L85.57337604166666,38.71875L86.01757274305555,37.796875L86.19493185763888,36.967187499999994L86.2125079861111,38.2578125L86.53846527777777,36.69062500000001L86.5576392361111,39.548437500000006L87.37413029513888,39.087500000000006L88.15706692708333,37.243750000000006L88.16984956597223,38.90312500000002L88.63481805555556,38.165625000000006L89.21003680555556,37.05937499999999L89.26276519097222,35.99921875000001L90.5681921875,38.349999999999994L91.14021527777777,38.349999999999994L91.33035703125,35.67656249999999L91.36071579861112,37.243750000000006L91.62275989583333,35.400000000000006L91.74099930555556,36.782812500000006L91.85444522569445,36.59843749999999L92.09252187499999,36.321875000000006L92.30663107638888,37.61250000000001L92.4680118923611,35.953125L92.83870842013889,37.796875L93.54494921874999,36.69062500000001L93.80699331597222,36.782812500000006L93.92523272569444,34.75468750000002L93.96677630208333,37.3359375L94.29113576388889,34.109375L94.32309236111111,36.045312499999994L94.69378888888889,36.321875000000006L94.71935416666666,36.967187499999994L95.09324635416667,35.860937500000006L95.21947491319445,35.953125L95.32333385416668,35.123437499999994L95.41441015625,36.69062500000001L96.12864010416666,37.52031250000002L96.53768454861111,36.045312499999994L96.74540243055556,37.05937499999999L97.2710884548611,36.045312499999994L97.29026241319444,35.76874999999998L97.54591519097222,38.349999999999994L98.03325329861111,35.21562499999999L98.26493862847224,37.243750000000006L98.40554765625001,36.875L98.51899357638888,35.400000000000006L98.5637328125,36.782812500000006L99.1261689236111,35.584374999999994L100.0017796875,35.30781250000001L100.08646467013888,35.03125L100.11043211805556,35.584374999999994L100.51148741319444,35.953125L100.93491232638888,36.506249999999994L101.04036909722223,37.889062499999994L101.10907578125,35.67656249999999L101.15061935763889,36.69062500000001L101.50214192708333,37.15156249999998L101.75939253472222,36.69062500000001L102.29626336805555,33.83281249999999L102.35378524305555,32.173437500000006L102.75164487847222,35.21562499999999L102.77081883680556,33.6484375L102.84911249999999,33.92500000000001L103.05523255208334,36.69062500000001L103.23898298611113,35.123437499999994L103.942028125,34.662499999999994L104.20247439236111,36.506249999999994L104.21845269097223,35.860937500000006L104.29035503472223,33.740624999999994L104.63708411458333,34.939062500000006L104.80805190972222,35.953125L104.84639982638889,34.5703125L105.01097630208332,34.662499999999994L105.07808515625,33.1875L105.36090104166666,36.4140625L105.64531475694444,36.045312499999994L106.06873967013888,33.37187500000002L106.23651180555557,33.6484375L106.32119678819444,35.4921875L106.9890896701389,35.21562499999999L107.34380789930556,34.84687500000001L107.91902664930555,35.123437499999994L108.03407039930556,36.506249999999994L108.21941866319445,33.6484375L108.61408263888889,35.123437499999994L108.70995243055556,34.017187500000006L109.39382361111112,34.75468750000002L109.95945538194445,33.92500000000001L111.42306753472222,33.83281249999999L111.6371767361111,33.37187500000002L111.69789427083334,35.21562499999999L112.04781901041667,35.76874999999998L112.23636293402778,32.91093749999999L112.79240772569443,34.75468750000002L113.02569088541667,33.1875L113.23820225694443,35.123437499999994L113.72713819444445,34.29374999999999L113.88212769097221,35.03125L114.14097612847222,31.251562500000006L115.12044583333333,35.860937500000006L115.16358723958332,32.44999999999999L115.23868524305556,34.109375L115.34893550347222,33.740624999999994L115.93853472222222,32.91093749999999L116.11429600694444,34.29374999999999L116.33000303819445,32.173437500000006L116.46422074652779,32.54218750000001L116.48659036458334,31.989062500000017L116.5808623263889,33.095312500000006L116.88445,33.83281249999999L116.97552630208334,31.712500000000006L117.16566805555556,32.91093749999999L118.20265963541667,34.201562499999994L118.51104079861112,34.109375L119.22047725694445,33.46406250000001L119.25722734375,33.279687499999994L119.33232534722222,32.44999999999999L119.33711883680556,33.00312499999998L119.58318463541667,33.37187500000002L119.64070651041666,32.7265625L119.89635928819443,33.6484375L120.60579574652778,31.8046875L120.60899140625,30.606250000000017L120.96370963541666,33.279687499999994L121.09313385416667,32.44999999999999L121.19219930555556,33.095312500000006L121.313634375,34.84687500000001L121.68433090277779,33.83281249999999L121.82014644097222,31.896874999999994L121.95596197916666,32.634375000000006L122.08219053819444,32.634375000000006L122.60148524305555,32.54218750000001L123.02491015625,32.818749999999994L123.1830953125,34.38593749999998L123.34767178819445,32.357812499999994L123.39400885416666,31.8046875L124.19452161458334,35.03125L124.19771727430555,34.662499999999994L124.2057064236111,33.92500000000001L124.4038373263889,33.6484375L125.05255625000001,34.29374999999999L125.24269800347223,31.52812499999999L125.45361154513888,34.201562499999994L125.89461258680555,33.00312499999998L126.16784149305556,31.8046875L126.21737421875001,33.00312499999998L126.79578862847222,32.173437500000006L127.60748619791666,32.357812499999994L127.66341024305555,31.435937499999994L128.42717291666668,32.08125000000001L128.44315121527777,31.52812499999999L128.64287994791667,32.91093749999999L128.75472803819446,33.92500000000001L129.1094462673611,32.44999999999999L129.48972977430554,30.790625000000006L129.61276267361112,31.15937500000001L130.07453550347222,31.06718749999999L130.17999227430556,32.08125000000001L130.28065555555554,31.34375L131.07797265624998,31.52812499999999L131.38475598958334,31.989062500000017L131.667571875,32.173437500000006L131.70591979166667,32.44999999999999L131.76823515625,31.251562500000006L132.77007447916668,31.8046875L132.98418368055556,31.896874999999994L133.1807167534722,31.989062500000017L133.69521796875,31.8046875L133.83263133680555,31.52812499999999L134.16657777777777,30.421875L134.1825560763889,31.989062500000017L136.28370234375,32.08125000000001L136.52018116319445,31.15937500000001L136.56971388888888,31.989062500000017L136.71990989583333,31.712500000000006L136.75346432291667,31.620312499999983L136.7758339409722,31.251562500000006L138.2953701388889,31.620312499999983L138.4567509548611,29.9609375L138.85940407986112,31.620312499999983L139.33236171875,31.251562500000006L139.46498159722222,31.06718749999999L139.6742973090278,30.237499999999983L139.93634140625,30.790625000000006L140.53392977430556,30.974999999999994L140.64897352430555,29.9609375L140.74164765625,30.974999999999994L141.3472251736111,32.634375000000006L142.24041206597224,31.15937500000001L142.55838020833332,32.54218750000001L142.76929375,31.435937499999994L142.8156308159722,31.896874999999994L142.92428324652778,31.251562500000006L143.15756640625,30.421875L143.93890520833332,31.52812499999999L144.07152508680554,31.52812499999999L144.5077326388889,30.237499999999983L144.66272213541666,30.14531249999999L144.80652682291665,30.14531249999999L144.82250512152777,29.9609375L144.8992009548611,29.9609375L145.14047326388888,30.974999999999994L145.42009348958334,30.8828125L146.45548723958333,30.790625000000006L146.7414987847222,31.06718749999999L147.32790234375,29.0390625L147.58834861111112,32.357812499999994L147.63308784722224,30.053124999999994L147.66664227430556,31.52812499999999L147.85199053819446,30.69843750000001L148.4671550347222,30.974999999999994L148.7339926215278,29.77656250000001L149.19256979166667,29.868750000000006L149.3555484375,29.68437499999999L149.50574444444445,30.974999999999994L149.70547317708332,29.68437499999999L149.94674548611113,29.68437499999999L150.5027902777778,29.31562500000001L150.61623619791666,31.251562500000006L150.74406258680554,31.34375L151.19624843749997,31.435937499999994L151.23938984375002,30.14531249999999L151.47427083333332,31.620312499999983L151.4838578125,30.421875L151.95841328125,30.974999999999994L152.7908826388889,30.14531249999999L153.71922178819446,29.9609375L154.3583537326389,31.34375L154.81852873263887,31.15937500000001L155.1812361111111,29.68437499999999L155.23396449652776,31.712500000000006L155.6829546875,30.974999999999994L155.68615034722222,30.053124999999994L156.01849895833334,29.77656250000001L156.0872056423611,29.31562500000001L156.33327144097223,30.790625000000006L157.51726336805558,30.329687500000006L157.61473098958334,29.5L157.65947022569443,30.974999999999994L158.20912369791668,29.5L158.38168932291666,30.329687500000006L158.97288637152778,31.15937500000001L159.01602777777777,30.974999999999994L159.09751710069443,29.77656250000001L159.20297387152777,30.790625000000006L159.23493046874998,30.606250000000017L159.42826788194446,30.14531249999999L159.9667365451389,31.06718749999999L160.04822586805554,30.69843750000001L161.09640225694443,32.173437500000006L161.21144600694444,30.606250000000017L162.14777430555557,30.606250000000017L162.24524192708336,30.421875L163.07451562499998,29.31562500000001L163.46278828125,28.854687499999983L163.7759629340278,30.514062499999994L164.12588767361112,29.77656250000001L164.2233552951389,29.5L164.29206197916668,30.421875L165.09577039930556,30.237499999999983L165.14210746527777,29.9609375L165.15009661458333,30.421875L165.26514036458335,30.329687500000006L165.38657543402778,30.14531249999999L165.77165243055555,29.5L166.60571961805556,29.77656250000001L166.9125029513889,30.237499999999983L166.91889427083333,30.514062499999994L167.25763420138887,29.9609375L167.7337875,29.77656250000001L168.75480078125,29.592187499999994L169.11431249999998,29.131249999999994L169.23894322916667,30.514062499999994L169.49938949652775,29.31562500000001L169.5345417534722,29.868750000000006L170.05703211805556,30.69843750000001L170.52040277777778,30.514062499999994L170.64503350694443,29.592187499999994L171.29535026041668,30.421875L171.63409019097222,30.237499999999983L171.7762970486111,30.14531249999999L172.24925468749998,30.14531249999999L172.87081050347223,29.0390625L173.23032222222224,30.421875L173.24949618055555,30.69843750000001L173.96692178819444,30.329687500000006L174.77222803819444,30.514062499999994L174.83294557291666,29.868750000000006L175.27714227430556,30.053124999999994L175.28992491319443,29.5L175.4864579861111,28.485937500000006L176.29495989583333,29.77656250000001L176.44515590277777,28.578125L176.59375407986113,29.31562500000001L176.88775477430553,29.0390625L177.1801576388889,28.578125L177.43421258680556,29.31562500000001L177.98067039930555,29.9609375L178.41368229166665,29.592187499999994L178.69969383680558,29.5L178.91699869791665,29.0390625L179.33563012152777,29.592187499999994L179.42830425347222,29.31562500000001L179.79420729166665,30.606250000000017L179.94280546875,31.34375L180.3886,29.31562500000001L180.65383975694445,29.131249999999994L180.65543758680553,29.0390625L180.71295946180555,27.93281250000001L180.74331822916665,29.5L180.79604661458336,28.76249999999999L180.98139487847223,29.68437499999999L182.06152786458333,28.76249999999999L182.10626710069445,28.30156249999999L182.55685512152778,29.5L182.58082256944442,30.237499999999983L182.61597482638888,29.868750000000006L183.40370494791668,29.68437499999999L183.68492300347222,29.9609375L183.84310815972222,28.485937500000006L183.86228211805553,29.5L184.3096744791667,29.77656250000001L184.72990373263886,28.854687499999983L184.84175182291668,29.407812500000006L184.86731710069444,28.946875000000006L184.87370842013888,29.223437500000017L184.8769040798611,28.578125L185.19647005208333,29.592187499999994L186.37886414930554,30.421875L187.3759099826389,29.9609375L187.62676927083334,28.209374999999994L188.10132473958333,28.485937500000006L188.23394461805557,29.592187499999994L188.95296805555554,28.670312499999994L189.62725225694444,28.30156249999999L190.2360254340278,29.868750000000006L190.23762326388888,29.31562500000001L190.29194947916665,29.5L191.16276675347223,29.407812500000006L191.24585390625,28.946875000000006L191.61175694444447,29.131249999999994L192.18378003472222,28.670312499999994L192.1917691840278,29.407812500000006L192.5992157986111,28.485937500000006L192.9395535590278,28.670312499999994L193.20958680555557,29.223437500000017L194.4526984375,28.209374999999994L194.46707890625,28.670312499999994L194.56294869791665,28.76249999999999L194.8233949652778,29.223437500000017L195.00554756944445,29.592187499999994L195.02312369791667,29.68437499999999L195.13816744791666,30.053124999999994L195.3698527777778,29.31562500000001L196.70244288194445,28.39375000000001L197.14663958333333,28.76249999999999L197.3016290798611,29.868750000000006L197.98550026041667,29.31562500000001L198.01106553819446,29.0390625L198.55113203125,29.77656250000001L199.1822748263889,29.0390625L199.18866614583334,29.407812500000006L199.36602526041668,28.854687499999983L199.59291710069445,30.053124999999994L199.62647152777777,28.025000000000006L199.7431131076389,29.31562500000001L200.47811484374998,28.76249999999999L200.693821875,28.946875000000006L201.06292057291665,28.670312499999994L201.44480190972223,28.946875000000006L201.59499791666664,28.76249999999999L201.84106371527778,29.31562500000001L201.9001834201389,28.209374999999994L202.11269479166666,28.578125L202.3939128472222,29.592187499999994L203.7009376736111,29.131249999999994L203.78562265625,29.77656250000001L203.88149244791666,29.31562500000001L204.6069072048611,28.578125L204.720353125,29.223437500000017L205.18851727430555,29.9609375L205.69183368055556,29.592187499999994L205.71260546875,28.39375000000001L206.06412803819444,28.578125L206.31658515625,30.237499999999983L206.74320572916668,28.946875000000006L206.91577135416668,30.606250000000017L206.9924671875,28.946875000000006L207.0915326388889,28.30156249999999L207.29605486111112,29.31562500000001L207.76102335069444,29.223437500000017L208.1700677951389,28.76249999999999L208.23238315972225,28.854687499999983L208.46726414930555,28.76249999999999L208.49762291666667,28.76249999999999L209.61450598958334,29.407812500000006L209.9244849826389,27.840625000000017L210.74257387152778,27.93281250000001L210.82725885416667,29.68437499999999L210.84004149305557,28.578125L210.8911720486111,28.854687499999983L210.94070477430557,28.30156249999999L211.1532161458333,28.30156249999999L211.2474881076389,29.131249999999994L211.81951119791668,28.1171875L211.8275003472222,28.30156249999999L212.01923993055556,28.025000000000006L212.33880590277778,28.209374999999994L212.49539322916667,28.854687499999983L213.18246006944446,28.255468750000006L213.23359062499998,28.76249999999999L213.27193854166669,28.578125L213.74329835069446,28.485937500000006L213.7784506076389,28.854687499999983L214.30253880208332,28.30156249999999L214.4974740451389,29.0390625L214.69560494791668,28.39375000000001L214.84260529513887,28.39375000000001L214.8697684027778,29.407812500000006L215.5504439236111,29.5L215.56482439236112,28.578125L215.80769453124998,28.39375000000001L216.1943693576389,29.407812500000006L216.2694673611111,29.68437499999999L216.28384782986112,28.578125L216.34616319444444,29.407812500000006L216.79994687500002,28.578125L216.87983836805554,28.025000000000006L216.914990625,28.854687499999983L217.39753524305556,28.670312499999994L217.43268750000001,29.5L217.93919956597222,28.30156249999999L217.9791453125,28.209374999999994L218.31149392361112,28.30156249999999L218.62147291666668,29.31562500000001L218.6566251736111,28.1171875L218.9154736111111,28.485937500000006L219.80226918402778,28.39375000000001L220.02756319444447,29.9609375L220.11224817708333,28.025000000000006L220.1346177951389,28.76249999999999L220.36150963541667,28.854687499999983L220.68746692708334,28.578125L220.70504305555556,29.407812500000006L221.31062057291666,28.39375000000001L221.56307769097225,28.946875000000006L221.8219261284722,28.1171875L222.72949348958332,28.025000000000006L222.93082005208333,28.209374999999994L223.14013576388888,28.209374999999994L223.4597017361111,28.485937500000006L223.57314765625,29.223437500000017L223.64185434027777,27.93281250000001L223.69458272569443,28.946875000000006L223.91827890624998,28.485937500000006L223.97260512152778,28.485937500000006L224.0748662326389,27.65625L224.15315989583334,28.670312499999994L224.36886692708333,29.31562500000001L224.622921875,28.946875000000006L224.71399817708334,28.946875000000006L224.95846614583334,29.0390625L225.3419453125,28.854687499999983L225.6599134548611,28.946875000000006L226.5626873263889,29.223437500000017L226.72406814236112,28.1171875L226.8391118923611,28.1171875L227.79780980902777,29.223437500000017L228.10139748263887,27.93281250000001L228.3346806423611,27.840625000000017L228.38101770833333,28.30156249999999L228.55198550347222,28.485937500000006L228.7533120659722,28.854687499999983L228.91788854166668,29.131249999999994L229.03133446180556,28.209374999999994L229.0361279513889,28.39375000000001L229.87339079861113,28.39375000000001L230.14821753472222,28.485937500000006L230.2185220486111,28.854687499999983L230.38948984375,28.1171875L230.6323599826389,28.209374999999994L231.15644817708332,28.025000000000006L231.21077439236112,28.854687499999983L231.410503125,28.1171875L231.51595989583336,28.025000000000006L232.0847873263889,28.578125L232.8373651909722,28.578125L233.21445303819445,27.840625000000017L233.77529131944445,28.1171875L233.81843272569444,28.025000000000006L234.09965078124998,29.223437500000017L234.9752615451389,28.30156249999999L235.2325121527778,28.025000000000006L235.36193637152778,28.209374999999994L235.44342569444444,28.854687499999983L235.59521953125002,27.471874999999983L235.77577430555556,28.670312499999994L236.26630807291667,29.223437500000017L236.57948272569445,27.65625L236.587471875,29.131249999999994L236.73127656250003,29.31562500000001L237.6548222222222,27.471874999999983L238.2300409722222,28.76249999999999L238.26519322916667,28.670312499999994L238.87556423611113,28.209374999999994L239.27342387152777,28.1171875L239.92853411458336,28.76249999999999L240.3807199652778,28.485937500000006L240.3951004340278,29.407812500000006L240.46220928819443,28.670312499999994L240.49895937500003,28.670312499999994L240.61240529513887,28.76249999999999L240.8568732638889,27.748437499999994L242.684790625,29.407812500000006L242.79504088541665,28.946875000000006L242.85735625,28.30156249999999L242.86214973958334,29.5L243.9918154513889,29.407812500000006L244.36730546875,29.868750000000006L244.43760998263886,28.39375000000001L244.5382732638889,28.578125L244.59259947916667,28.1171875L245.3291990451389,28.578125L245.41867751736112,28.025000000000006L245.55609088541667,27.748437499999994L245.60881927083332,27.93281250000001L245.71267821180555,29.868750000000006L246.08976605902777,28.025000000000006L246.25753819444444,27.93281250000001L246.53076710069445,28.76249999999999L246.65060434027777,28.1171875L246.90945277777777,28.1171875L246.98295295138888,29.0390625L247.60131310763887,28.485937500000006L248.02473802083333,28.025000000000006L248.29956475694445,28.39375000000001L248.39383671875,29.0390625L248.4657390625,28.209374999999994L249.04734913194446,28.578125L249.48195885416666,28.485937500000006L249.5602525173611,28.76249999999999L249.817503125,28.30156249999999L250.0779493923611,28.854687499999983L250.23293888888887,28.578125L250.50297213541666,29.223437500000017L250.80975546874998,27.93281250000001L251.26353914930556,28.76249999999999L251.5016157986111,29.5L251.55114852430555,28.209374999999994L251.6022790798611,28.025000000000006L251.73489895833333,28.1171875L251.98895390625,28.025000000000006L252.24940017361112,28.39375000000001L252.45871588541667,28.716406250000006L252.57056397569445,28.76249999999999L252.7766840277778,28.1171875L253.7689363715278,28.854687499999983L254.22112222222222,28.30156249999999L254.42244878472223,28.485937500000006L254.48476414930556,28.209374999999994L254.49435112847223,27.840625000000017L254.55666649305556,27.840625000000017L254.86984114583333,27.748437499999994L255.0184393229167,28.209374999999994L255.02962413194444,28.39375000000001L255.56489713541666,28.209374999999994L255.98033289930555,28.39375000000001L256.24237699652775,28.39375000000001L256.30309453125,28.39375000000001L256.6306496527778,28.209374999999994L256.8591393229167,28.30156249999999L257.8178372395833,28.39375000000001L258.3099688368055,28.76249999999999L258.3419254340278,28.39375000000001L259.0114161458333,28.209374999999994L259.24310147569446,28.485937500000006L259.5626674479167,27.748437499999994L259.90460303819447,27.748437499999994L260.30725616319444,28.946875000000006L260.58847421875,28.209374999999994L260.8744857638889,27.93281250000001L261.9290534722222,28.39375000000001L262.6001420138889,28.209374999999994L262.7423488715278,28.854687499999983L262.87496875,27.840625000000017L263.25685008680557,28.025000000000006L263.4677636284722,27.93281250000001L264.15163480902777,28.30156249999999L264.16281961805555,29.131249999999994L264.1947762152778,28.30156249999999L264.2634828993056,28.670312499999994L264.4328528645833,27.93281250000001L264.51753784722223,28.578125L264.69329913194446,29.0390625L265.2221808159722,28.485937500000006L267.18271805555554,28.946875000000006L267.189109375,28.76249999999999L267.19869635416666,28.854687499999983L267.84581744791666,27.65625L268.3283620659722,28.30156249999999L268.48015590277777,28.1171875L268.90358081597225,27.748437499999994L269.7280610243056,28.209374999999994L269.72965885416664,28.025000000000006L269.8926375,28.209374999999994L270.2153991319445,28.670312499999994L270.26173619791666,28.485937500000006L270.3863669270834,28.670312499999994L271.8499790798611,27.840625000000017L272.14397977430554,28.30156249999999L272.2062951388889,28.485937500000006L272.68883975694445,28.209374999999994L273.2896237847222,28.578125L273.32956953125,28.30156249999999L273.9750927951389,28.209374999999994L274.0166363715278,28.209374999999994L274.05817994791664,28.1171875L274.69251840277775,28.1171875L274.77720338541667,28.946875000000006L274.86188836805553,27.93281250000001L275.37159609375,28.39375000000001L275.4610745659722,27.65625L275.644825,27.748437499999994L275.8014123263889,29.68437499999999L275.85733637152777,28.670312499999994L276.70099053819445,28.30156249999999L277.07967621527774,28.578125L277.12761111111115,28.76249999999999L277.2218830729167,28.854687499999983L277.36249210069445,28.30156249999999L278.13264609375,28.578125L278.36912491319447,28.39375000000001L278.3819075520833,28.39375000000001L278.40907065972226,28.30156249999999L278.41705980902776,28.946875000000006L278.42025546875,29.31562500000001L278.4218532986111,28.025000000000006L278.42664678819443,28.485937500000006L278.44262508680555,28.209374999999994L278.4522120659722,28.1171875L278.45860338541667,27.93281250000001L278.4665925347222,28.025000000000006L278.46978819444445,27.93281250000001L278.47298385416667,28.578125L278.4761795138889,28.485937500000006L278.4793751736111,28.946875000000006L278.48576649305556,27.93281250000001L278.4873643229167,28.255468750000006L278.4921578125,27.840625000000017L278.4937556423611,30.053124999999994L278.49535347222223,28.485937500000006L278.5017447916667,29.223437500000017L278.5049404513889,28.39375000000001L278.50973394097224,28.670312499999994L278.51133177083335,28.025000000000006L278.5145274305556,28.209374999999994L278.5225165798611,28.025000000000006L278.52571223958336,28.209374999999994L278.5273100694444,28.485937500000006L278.5289078993056,28.209374999999994L278.5384948784722,28.578125L278.5416905381944,28.485937500000006L278.54648402777775,27.93281250000001L278.56086449652776,27.93281250000001L278.5656579861111,27.840625000000017L278.5688536458333,28.670312499999994L278.57204930555554,28.1171875L278.5752449652778,29.131249999999994L278.578440625,27.840625000000017L278.59282109375,27.93281250000001L278.59921241319444,28.39375000000001L278.60240807291666,28.439843749999994L278.6072015625,28.578125L278.6199842013889,27.65625L278.62637552083334,28.39375000000001L278.6327668402778,27.287499999999994L278.64235381944445,28.025000000000006L278.65353862847223,28.30156249999999L278.65673428819446,28.670312499999994L278.6647234375,28.39375000000001L278.6759082465278,28.025000000000006L278.68070173611113,28.946875000000006L278.68229956597224,28.39375000000001L278.6902887152778,28.854687499999983L278.6918865451389,28.025000000000006L278.69348437499997,28.946875000000006L278.69668003472225,27.65625L278.7014735243056,28.76249999999999L278.7094626736111,28.670312499999994L278.7142561631944,27.840625000000017L278.7158539930556,28.485937500000006L278.71904965277776,29.223437500000017L278.7286366319444,28.578125L278.74461493055554,28.39375000000001L278.7557997395833,27.748437499999994L278.76059322916666,28.39375000000001L278.76219105902777,28.39375000000001L278.77337586805555,28.578125L278.77497369791666,28.30156249999999L278.7765715277778,28.670312499999994L278.7781693576389,28.1171875L278.78615850694445,27.93281250000001L278.7909519965278,28.578125L278.8292999131944,28.670312499999994L278.83409340277774,28.485937500000006L278.8372890625,29.131249999999994L278.8452782118056,28.946875000000006L278.8500717013889,29.0390625L278.85166953125,28.39375000000001L278.8548651909722,29.0390625L278.85646302083336,28.1171875L278.86764782986114,28.946875000000006L278.87084348958336,28.670312499999994L278.87403914930553,28.485937500000006L278.88841961805554,28.30156249999999L278.89640876736115,28.670312499999994L278.8980065972222,28.30156249999999L278.9075935763889,28.1171875L278.9107892361111,28.025000000000006L278.9139848958333,28.30156249999999L278.91718055555555,29.407812500000006L278.923571875,27.840625000000017L278.9283653645833,27.93281250000001L278.9347566840278,28.854687499999983L278.9491371527778,28.485937500000006L278.9507349826389,28.209374999999994L278.9523328125,29.31562500000001L278.9619197916667,28.39375000000001L278.97470243055557,28.025000000000006L278.98109375,28.30156249999999L278.98428940972224,28.209374999999994L278.98588723958335,28.1171875L278.98748506944446,27.93281250000001L278.9938763888889,28.209374999999994L279.00186553819447,28.39375000000001L279.01305034722225,28.1171875L279.01944166666664,29.0390625L279.0258329861111,28.39375000000001L279.0322243055556,28.485937500000006L279.038615625,28.209374999999994L279.04181128472226,29.0390625L279.05139826388887,27.93281250000001L279.0561917534722,28.854687499999983L279.05938741319443,28.39375000000001L279.0625830729167,27.748437499999994L279.0657787326389,29.223437500000017L279.0705722222222,28.670312499999994L279.07376788194443,28.1171875L279.07856137152777,28.485937500000006L279.0849526909722,28.946875000000006L279.08814835069444,29.0390625L279.0977353298611,27.93281250000001L279.10572447916667,28.854687499999983L279.1073223090278,29.0390625L279.1137136284722,28.025000000000006L279.1248984375,28.30156249999999L279.1376810763889,28.578125L279.14247456597224,28.209374999999994L279.14726805555557,28.39375000000001L279.1488658854167,28.485937500000006L279.153659375,27.471874999999983L279.1616485243056,28.1171875L279.1712355034722,28.30156249999999L279.17283333333336,28.854687499999983L279.1792246527778,28.1171875L279.1824203125,27.748437499999994L279.19200729166664,28.39375000000001L279.1936051215278,28.670312499999994L279.19680078125,28.670312499999994L279.2031921006945,28.670312499999994L279.2143769097222,28.209374999999994L279.2239638888889,29.0390625L279.2287573784722,28.485937500000006L279.2383443576389,28.485937500000006L279.2511269965278,28.39375000000001L279.2559204861111,27.65625L279.25911614583333,28.30156249999999L279.26071397569444,27.840625000000017L279.268703125,28.439843749999994L279.2703009548611,27.840625000000017L279.27509444444445,28.39375000000001L279.2782901041667,28.76249999999999L279.2798879340278,29.31562500000001L279.28308359375,28.30156249999999L279.29107274305557,28.209374999999994L279.3070510416667,28.485937500000006L279.3166380208333,28.485937500000006L279.3198336805556,28.209374999999994L279.32143151041663,28.30156249999999L279.32782282986113,28.1171875L279.32942065972225,29.407812500000006L279.33581197916664,27.840625000000017L279.3390076388889,27.93281250000001L279.3485946180556,28.025000000000006L279.3501924479167,28.30156249999999L279.35498593750003,27.93281250000001L279.3613772569444,28.30156249999999L279.38055121527776,27.564062500000006L279.3885403645833,28.209374999999994L279.39013819444443,28.30156249999999L279.39333385416666,28.1171875L279.40771432291666,28.39375000000001L279.4093121527778,27.840625000000017L279.41889913194444,28.76249999999999L279.42049696180555,28.670312499999994L279.4236926215278,29.5L279.4428665798611,28.30156249999999L279.44925789930556,28.578125L279.4524535590278,27.93281250000001L279.45564921875,28.39375000000001L279.46044270833335,27.840625000000017L279.4652361979167,28.485937500000006L279.4796166666667,28.39375000000001L279.48920364583336,27.65625L279.4923993055555,27.748437499999994L279.5099754340278,28.578125L279.51157326388886,28.39375000000001L279.52116024305553,28.76249999999999L279.5323450520833,28.946875000000006L279.57069296875,28.76249999999999L279.5722907986111,29.131249999999994L279.57548645833333,28.39375000000001L279.58027994791667,29.45390624999999L279.5834756076389,28.485937500000006L279.61703003472223,29.223437500000017L279.62182352430557,29.407812500000006L279.62821484374996,27.748437499999994L279.6298126736111,28.1171875L279.63141050347224,29.0390625L279.63460616319446,28.39375000000001L279.6409974826389,27.93281250000001L279.64579097222224,28.30156249999999L279.6489866319444,28.670312499999994L279.6521822916667,28.1171875L279.6633671006944,29.31562500000001L279.66816059027775,27.93281250000001L279.66975842013886,28.854687499999983L279.6745519097222,28.578125L279.68254105902776,27.840625000000017L279.69532369791665,28.1171875L279.7017150173611,28.946875000000006L279.7049106770833,28.209374999999994L279.70810633680554,28.578125L279.70970416666665,28.578125L279.7192911458333,28.1171875L279.72568246527777,27.93281250000001L279.728878125,28.946875000000006L279.7320737847222,28.76249999999999L279.73686727430555,28.76249999999999L279.75124774305556,28.025000000000006L279.7544434027778,28.30156249999999L279.7560412326389,28.209374999999994L279.76243255208334,28.30156249999999L279.7704217013889,28.76249999999999L279.7736173611111,27.840625000000017L279.78959565972224,27.748437499999994L279.79279131944446,28.485937500000006L279.7959869791667,28.670312499999994L279.81675876736114,28.578125L279.8231500868055,28.39375000000001L279.8263457465278,28.670312499999994L279.8423240451389,29.131249999999994L279.8503131944444,28.670312499999994L279.8614980034722,28.1171875L279.86629149305554,27.840625000000017L279.86948715277777,27.93281250000001L279.87907413194444,28.485937500000006L279.8902589409722,28.946875000000006L279.90144375,27.840625000000017L279.9030415798611,29.131249999999994L279.9046394097222,28.854687499999983L279.90783506944445,28.30156249999999L279.9126285590278,29.407812500000006L279.91582421875,28.1171875L279.9254111979167,27.840625000000017L279.9318025173611,27.65625L279.93340034722223,27.840625000000017L279.9429873263889,28.1171875L279.94458515625,29.31562500000001L279.9461829861111,27.840625000000017L279.9541721354167,28.578125L279.9557699652778,28.39375000000001L279.9573677951389,28.30156249999999" style="fill: none;" fill="none"></path></g></g></g></g></g></g><g transform="translate(42, 177)" clip-path="url(#clip_1)"><clipPath id="clip_1"><rect width="287" height="23"></rect></clipPath><g><g><line x1="0" y1="0" x2="0" y2="5" style="visibility: inherit;" fill="rgb(0, 0, 0)" stroke="rgb(204, 204, 204)" stroke-width="1px"></line><line x1="31.95659722222222" y1="0" x2="31.95659722222222" y2="5" style="visibility: inherit;" fill="rgb(0, 0, 0)" stroke="rgb(204, 204, 204)" stroke-width="1px"></line><line x1="63.91319444444444" y1="0" x2="63.91319444444444" y2="5" style="visibility: inherit;" fill="rgb(0, 0, 0)" stroke="rgb(204, 204, 204)" stroke-width="1px"></line><line x1="95.86979166666666" y1="0" x2="95.86979166666666" y2="5" style="visibility: inherit;" fill="rgb(0, 0, 0)" stroke="rgb(204, 204, 204)" stroke-width="1px"></line><line x1="127.82638888888889" y1="0" x2="127.82638888888889" y2="5" style="visibility: inherit;" fill="rgb(0, 0, 0)" stroke="rgb(204, 204, 204)" stroke-width="1px"></line><line x1="159.78298611111111" y1="0" x2="159.78298611111111" y2="5" style="visibility: inherit;" fill="rgb(0, 0, 0)" stroke="rgb(204, 204, 204)" stroke-width="1px"></line><line x1="191.73958333333331" y1="0" x2="191.73958333333331" y2="5" style="visibility: inherit;" fill="rgb(0, 0, 0)" stroke="rgb(204, 204, 204)" stroke-width="1px"></line><line x1="223.69618055555557" y1="0" x2="223.69618055555557" y2="5" style="visibility: inherit;" fill="rgb(0, 0, 0)" stroke="rgb(204, 204, 204)" stroke-width="1px"></line><line x1="255.65277777777777" y1="0" x2="255.65277777777777" y2="5" style="visibility: inherit;" fill="rgb(0, 0, 0)" stroke="rgb(204, 204, 204)" stroke-width="1px"></line><line x1="287.609375" y1="0" x2="287.609375" y2="5" style="visibility: inherit;" fill="rgb(0, 0, 0)" stroke="rgb(204, 204, 204)" stroke-width="1px"></line></g><g transform="translate(0, 8)"><text x="0" y="0" dx="0em" dy="0.95em" style="text-anchor: middle; visibility: hidden; font-family: &quot;Helvetica Neue&quot;, sans-serif; font-size: 12px; font-weight: 200;" fill="rgb(50, 49, 63)" stroke="none" stroke-width="1px">-20k</text><text x="31.95659722222222" y="0" dx="0em" dy="0.95em" style="text-anchor: middle; visibility: inherit; font-family: &quot;Helvetica Neue&quot;, sans-serif; font-size: 12px; font-weight: 200;" fill="rgb(50, 49, 63)" stroke="none" stroke-width="1px">0</text><text x="63.91319444444444" y="0" dx="0em" dy="0.95em" style="text-anchor: middle; visibility: inherit; font-family: &quot;Helvetica Neue&quot;, sans-serif; font-size: 12px; font-weight: 200;" fill="rgb(50, 49, 63)" stroke="none" stroke-width="1px">20k</text><text x="95.86979166666666" y="0" dx="0em" dy="0.95em" style="text-anchor: middle; visibility: inherit; font-family: &quot;Helvetica Neue&quot;, sans-serif; font-size: 12px; font-weight: 200;" fill="rgb(50, 49, 63)" stroke="none" stroke-width="1px">40k</text><text x="127.82638888888889" y="0" dx="0em" dy="0.95em" style="text-anchor: middle; visibility: inherit; font-family: &quot;Helvetica Neue&quot;, sans-serif; font-size: 12px; font-weight: 200;" fill="rgb(50, 49, 63)" stroke="none" stroke-width="1px">60k</text><text x="159.78298611111111" y="0" dx="0em" dy="0.95em" style="text-anchor: middle; visibility: inherit; font-family: &quot;Helvetica Neue&quot;, sans-serif; font-size: 12px; font-weight: 200;" fill="rgb(50, 49, 63)" stroke="none" stroke-width="1px">80k</text><text x="191.73958333333331" y="0" dx="0em" dy="0.95em" style="text-anchor: middle; visibility: inherit; font-family: &quot;Helvetica Neue&quot;, sans-serif; font-size: 12px; font-weight: 200;" fill="rgb(50, 49, 63)" stroke="none" stroke-width="1px">100k</text><text x="223.69618055555557" y="0" dx="0em" dy="0.95em" style="text-anchor: middle; visibility: inherit; font-family: &quot;Helvetica Neue&quot;, sans-serif; font-size: 12px; font-weight: 200;" fill="rgb(50, 49, 63)" stroke="none" stroke-width="1px">120k</text><text x="255.65277777777777" y="0" dx="0em" dy="0.95em" style="text-anchor: middle; visibility: inherit; font-family: &quot;Helvetica Neue&quot;, sans-serif; font-size: 12px; font-weight: 200;" fill="rgb(50, 49, 63)" stroke="none" stroke-width="1px">140k</text><text x="287.609375" y="0" dx="0em" dy="0.95em" style="text-anchor: middle; visibility: hidden; font-family: &quot;Helvetica Neue&quot;, sans-serif; font-size: 12px; font-weight: 200;" fill="rgb(50, 49, 63)" stroke="none" stroke-width="1px">160k</text></g><line x1="0" y1="0" x2="287.609375" y2="0" fill="rgb(0, 0, 0)" stroke="rgb(204, 204, 204)" stroke-width="1px"></line></g></g></g></g></svg>