<svg viewBox="0 0 330 200" xmlns="http://www.w3.org/2000/svg"><g><g><g><g><g><line x1="42.390625" y1="177" x2="37.390625" y2="177" style="visibility: inherit;" fill="rgb(0, 0, 0)" stroke="rgb(204, 204, 204)" stroke-width="1px"></line><line x1="42.390625" y1="154.875" x2="37.390625" y2="154.875" style="visibility: inherit;" fill="rgb(0, 0, 0)" stroke="rgb(204, 204, 204)" stroke-width="1px"></line><line x1="42.390625" y1="132.75" x2="37.390625" y2="132.75" style="visibility: inherit;" fill="rgb(0, 0, 0)" stroke="rgb(204, 204, 204)" stroke-width="1px"></line><line x1="42.390625" y1="110.625" x2="37.390625" y2="110.625" style="visibility: inherit;" fill="rgb(0, 0, 0)" stroke="rgb(204, 204, 204)" stroke-width="1px"></line><line x1="42.390625" y1="88.5" x2="37.390625" y2="88.5" style="visibility: inherit;" fill="rgb(0, 0, 0)" stroke="rgb(204, 204, 204)" stroke-width="1px"></line><line x1="42.390625" y1="66.375" x2="37.390625" y2="66.375" style="visibility: inherit;" fill="rgb(0, 0, 0)" stroke="rgb(204, 204, 204)" stroke-width="1px"></line><line x1="42.390625" y1="44.25" x2="37.390625" y2="44.25" style="visibility: inherit;" fill="rgb(0, 0, 0)" stroke="rgb(204, 204, 204)" stroke-width="1px"></line><line x1="42.390625" y1="22.125" x2="37.390625" y2="22.125" style="visibility: inherit;" fill="rgb(0, 0, 0)" stroke="rgb(204, 204, 204)" stroke-width="1px"></line><line x1="42.390625" y1="0" x2="37.390625" y2="0" style="visibility: inherit;" fill="rgb(0, 0, 0)" stroke="rgb(204, 204, 204)" stroke-width="1px"></line></g><g transform="translate(32.390625, 0)"><text x="0" y="177" dx="0em" dy="0.3em" style="text-anchor: end; visibility: hidden; font-family: &quot;Helvetica Neue&quot;, sans-serif; font-size: 12px; font-weight: 200;" fill="rgb(50, 49, 63)" stroke="none" stroke-width="1px">-50</text><text x="0" y="154.875" dx="0em" dy="0.3em" style="text-anchor: end; visibility: inherit; font-family: &quot;Helvetica Neue&quot;, sans-serif; font-size: 12px; font-weight: 200;" fill="rgb(50, 49, 63)" stroke="none" stroke-width="1px">0</text><text x="0" y="132.75" dx="0em" dy="0.3em" style="text-anchor: end; visibility: hidden; font-family: &quot;Helvetica Neue&quot;, sans-serif; font-size: 12px; font-weight: 200;" fill="rgb(50, 49, 63)" stroke="none" stroke-width="1px">50</text><text x="0" y="110.625" dx="0em" dy="0.3em" style="text-anchor: end; visibility: inherit; font-family: &quot;Helvetica Neue&quot;, sans-serif; font-size: 12px; font-weight: 200;" fill="rgb(50, 49, 63)" stroke="none" stroke-width="1px">100</text><text x="0" y="88.5" dx="0em" dy="0.3em" style="text-anchor: end; visibility: hidden; font-family: &quot;Helvetica Neue&quot;, sans-serif; font-size: 12px; font-weight: 200;" fill="rgb(50, 49, 63)" stroke="none" stroke-width="1px">150</text><text x="0" y="66.375" dx="0em" dy="0.3em" style="text-anchor: end; visibility: inherit; font-family: &quot;Helvetica Neue&quot;, sans-serif; font-size: 12px; font-weight: 200;" fill="rgb(50, 49, 63)" stroke="none" stroke-width="1px">200</text><text x="0" y="44.25" dx="0em" dy="0.3em" style="text-anchor: end; visibility: hidden; font-family: &quot;Helvetica Neue&quot;, sans-serif; font-size: 12px; font-weight: 200;" fill="rgb(50, 49, 63)" stroke="none" stroke-width="1px">250</text><text x="0" y="22.125" dx="0em" dy="0.3em" style="text-anchor: end; visibility: inherit; font-family: &quot;Helvetica Neue&quot;, sans-serif; font-size: 12px; font-weight: 200;" fill="rgb(50, 49, 63)" stroke="none" stroke-width="1px">300</text><text x="0" y="0" dx="0em" dy="0.3em" style="text-anchor: end; visibility: hidden; font-family: &quot;Helvetica Neue&quot;, sans-serif; font-size: 12px; font-weight: 200;" fill="rgb(50, 49, 63)" stroke="none" stroke-width="1px">350</text></g><line x1="42.390625" y1="0" x2="42.390625" y2="177" fill="rgb(0, 0, 0)" stroke="rgb(204, 204, 204)" stroke-width="1px"></line></g></g><g transform="translate(42, 0)" clip-path="url(#clip_0)"><clipPath id="clip_0"><rect width="287" height="177"></rect></clipPath><g><g><g><line x1="0" y1="0" x2="0" y2="177" fill="rgb(0, 0, 0)" stroke="rgb(60, 60, 60)" stroke-width="1px" opacity="0.25"></line><line x1="31.95659722222222" y1="0" x2="31.95659722222222" y2="177" fill="rgb(0, 0, 0)" stroke="rgb(60, 60, 60)" stroke-width="1px" opacity="0.25"></line><line x1="63.91319444444444" y1="0" x2="63.91319444444444" y2="177" fill="rgb(0, 0, 0)" stroke="rgb(60, 60, 60)" stroke-width="1px" opacity="0.25"></line><line x1="95.86979166666666" y1="0" x2="95.86979166666666" y2="177" fill="rgb(0, 0, 0)" stroke="rgb(60, 60, 60)" stroke-width="1px" opacity="0.25"></line><line x1="127.82638888888889" y1="0" x2="127.82638888888889" y2="177" fill="rgb(0, 0, 0)" stroke="rgb(60, 60, 60)" stroke-width="1px" opacity="0.25"></line><line x1="159.78298611111111" y1="0" x2="159.78298611111111" y2="177" fill="rgb(0, 0, 0)" stroke="rgb(60, 60, 60)" stroke-width="1px" opacity="0.25"></line><line x1="191.73958333333331" y1="0" x2="191.73958333333331" y2="177" fill="rgb(0, 0, 0)" stroke="rgb(60, 60, 60)" stroke-width="1px" opacity="0.25"></line><line x1="223.69618055555557" y1="0" x2="223.69618055555557" y2="177" fill="rgb(0, 0, 0)" stroke="rgb(60, 60, 60)" stroke-width="1px" opacity="0.25"></line><line x1="255.65277777777777" y1="0" x2="255.65277777777777" y2="177" fill="rgb(0, 0, 0)" stroke="rgb(60, 60, 60)" stroke-width="1px" opacity="0.25"></line><line x1="287.609375" y1="0" x2="287.609375" y2="177" fill="rgb(0, 0, 0)" stroke="rgb(60, 60, 60)" stroke-width="1px" opacity="0.25"></line></g><g><line x1="0" y1="177" x2="287.609375" y2="177" fill="rgb(0, 0, 0)" stroke="rgb(60, 60, 60)" stroke-width="1px" opacity="0.25"></line><line x1="0" y1="154.875" x2="287.609375" y2="154.875" fill="rgb(0, 0, 0)" stroke="rgb(60, 60, 60)" stroke-width="1px" opacity="0.25"></line><line x1="0" y1="132.75" x2="287.609375" y2="132.75" fill="rgb(0, 0, 0)" stroke="rgb(60, 60, 60)" stroke-width="1px" opacity="0.25"></line><line x1="0" y1="110.625" x2="287.609375" y2="110.625" fill="rgb(0, 0, 0)" stroke="rgb(60, 60, 60)" stroke-width="1px" opacity="0.25"></line><line x1="0" y1="88.5" x2="287.609375" y2="88.5" fill="rgb(0, 0, 0)" stroke="rgb(60, 60, 60)" stroke-width="1px" opacity="0.25"></line><line x1="0" y1="66.375" x2="287.609375" y2="66.375" fill="rgb(0, 0, 0)" stroke="rgb(60, 60, 60)" stroke-width="1px" opacity="0.25"></line><line x1="0" y1="44.25" x2="287.609375" y2="44.25" fill="rgb(0, 0, 0)" stroke="rgb(60, 60, 60)" stroke-width="1px" opacity="0.25"></line><line x1="0" y1="22.125" x2="287.609375" y2="22.125" fill="rgb(0, 0, 0)" stroke="rgb(60, 60, 60)" stroke-width="1px" opacity="0.25"></line><line x1="0" y1="0" x2="287.609375" y2="0" fill="rgb(0, 0, 0)" stroke="rgb(60, 60, 60)" stroke-width="1px" opacity="0.25"></line></g></g></g><g><g><line x1="0" y1="154.875" x2="287.609375" y2="154.875" fill="rgb(0, 0, 0)" stroke="rgb(153, 153, 153)" stroke-width="1.5px"></line></g></g><g><g><line x1="31.95659722222222" y1="0" x2="31.95659722222222" y2="177" fill="rgb(0, 0, 0)" stroke="rgb(153, 153, 153)" stroke-width="1.5px"></line></g></g><g><g><g><g><g><path stroke="rgb(255, 112, 67)" stroke-width="2px" d="M33.81647118055556,110.625L33.84043862847222,110.625L34.046558680555556,110.625L34.34375503472222,110.625L34.856658420138885,110.625L34.96371302083333,114.78029314344617L35.02762621527778,113.98380695361018L35.040408854166664,113.3940591791914L35.06277847222222,112.94202656473601L35.18900703125,115.57559107285664L35.703508246527775,117.82051191240429L35.979932812499996,121.03692814218772L36.53118411458333,123.1255969180212L36.635043055555556,122.04147678468117L36.78364123263889,121.54919713705621L37.058467968749994,122.41067754605902L37.898926475694445,121.64206391644137L38.30317743055556,123.13209133460589L38.46296041666667,123.50143657903351L39.2011578125,122.65144586140245L39.221929600694445,123.18570795149094L39.26027751736111,125.55499690041879L39.34656032986111,125.69917928627277L39.45041927083333,124.06109739142485L39.88183333333333,124.7429368242226L40.102333854166666,125.19093224264456L40.135888281250004,127.63934647453928L40.20619279513889,127.4140259824654L40.31005173611111,126.30951348669072L40.35798663194444,124.88245823811167L40.41391067708334,124.18081029987765L40.44906293402778,125.8500617104963L40.45545425347222,126.4693094349774L40.74146579861112,126.40416025791055L41.29271710069444,124.78573246779692L41.79603350694444,123.68786349003828L41.79763133680556,123.59801318838916L42.93049270833333,123.7794842924155L43.98665824652778,124.7041674348814L44.349365625000004,123.37618443005064L44.389311371527775,121.98717420678247L44.88304079861111,122.6384336876264L45.40393333333333,121.52325364739713L45.50299878472222,122.13468591718527L45.737879774305554,122.39786591338542L45.79380381944444,120.91159976543425L46.3338703125,119.87561574394553L46.416957465277775,120.47546456893662L47.040111111111116,119.48474483783457L47.51466657986111,120.82509226589504L47.676047395833336,119.74614878284982L47.698417013888886,118.8954749046912L47.77351501736111,117.86404441202512L48.802517447916664,119.08018973478265L49.609421527777776,118.49562616161907L50.12072708333333,117.70640191751079L50.13510755208333,118.24411846571246L50.184640277777774,117.48051253553429L50.381173350694446,116.7935897182276L50.619249999999994,116.17562024890343L50.951598611111116,115.61965906283314L51.22962100694444,115.0793050664752L51.49965425347222,114.63675183727128L51.795252777777776,114.51199205946332L51.79685060763889,115.9224457593684L51.91509001736111,115.35620729789753L52.15955798611111,118.25964458539329L52.45355868055555,117.49558908866047L52.46314565972222,118.68445161423116L52.71080928819445,117.82127028923395L53.15660381944444,118.65086108387601L53.33236510416667,118.52855665246882L53.66950720486111,120.1920702151391L54.677737847222225,119.29860526668884L55.22419565972222,119.95258045330849L55.26573923611111,119.60325296054279L55.63963142361111,120.2267082582262L57.06968914930556,122.30928664879085L57.31895060763889,124.23606008209339L57.499505381944445,123.28959104453381L57.55383159722222,122.02288287098845L57.71521241319444,122.05849151034917L57.918136805555555,120.9481530180222L57.92932161458333,120.84783896209086L57.96287604166667,119.63457042073759L58.06513715277778,120.4553102342326L59.04460685763889,119.48324013368676L59.333814062500004,118.59733280418108L59.89305451388889,119.22998119707053L60.364414322916666,100.39148551072094L60.71913255208334,101.82977931851602L60.83896979166666,105.32164966031651L60.85175243055556,105.85201414716798L61.158535763888885,106.19796283545212L61.32471006944445,106.64068646648457L61.50686267361111,108.6017753370991L61.788080729166666,110.32525434901814L62.21470130208333,110.86688730026307L62.98006180555555,110.69473255199128L63.623987239583336,110.68775911156783L64.51238064236111,112.94105269097766L64.63860920138889,112.70944243884712L64.92302291666667,112.50099415872421L64.95657734375,113.83451173197426L65.06203411458334,113.51355552482252L65.14671909722222,114.16917016437615L65.15311041666666,95.1465427300141L65.1850670138889,96.9433152509706L65.57973098958334,98.7263458240251L65.78585104166667,101.43733009909747L66.10062352430555,102.35610474740265L66.14056927083334,103.13183602948403L66.71578802083333,104.96114133968413L66.76052725694444,105.5275306473215L66.9139189236111,85.52867602622341L67.00020173611111,88.03832077577347L67.128028125,91.12668987872236L67.69685555555556,93.07652866431818L67.77994270833334,94.83138209439021L67.95570399305555,96.41074898511543L68.27367213541666,99.3532763885343L68.91120625,100.48045169802123L69.48962065972222,103.01600624721966L69.66378411458334,103.5819302590256L70.23580720486112,105.80733522660866L70.30611171875,107.81019889116975L70.51702526041667,108.09167943681027L70.57454713541667,108.78336401712926L71.09064618055555,108.897004320089L71.20728776041666,109.82343774371493L71.35908159722223,109.90359405057156L71.62751701388889,109.97573471130917L71.87997413194444,111.56175629203395L72.32736649305556,111.34501019020982L72.54147569444444,112.10269717495454L72.74759574652778,114.25178030593993L73.04798776041667,115.27191532473682L73.110303125,114.81690325922222L73.21416206597223,115.30207251994209L73.39631467013889,116.74126427047591L73.56248897569445,117.02431763094262L74.39336050347222,116.18664341396229L74.41732795138888,117.31612783333136L74.86631814236111,118.09896837664658L74.87910078125,117.10890999735646L74.92543784722223,117.75621444517715L76.51847421875,118.28762435044749L77.04416024305556,118.26393222389873L77.55546579861111,117.50003888531941L77.96610807291667,116.81253490267406L78.37834817708334,118.20992220956802L78.46463098958333,117.45142990450799L78.53972899305555,116.76878684593359L78.67714236111111,116.15440810616012L79.01428446180556,115.50052193018848L79.87871041666666,115.01296970170034L80.11678706597222,116.09526655239344L80.37723333333332,115.54823986491931L80.55938593750001,115.05591585231718L81.38546397569445,114.64739456008627L82.46399913194445,115.07484262243997L82.4735861111111,114.6298583429919L82.64615173611111,114.14225530422607L82.71006493055555,113.583107881293L83.0903484375,113.28729708482635L83.14147899305556,115.09528617220565L83.40512092013888,115.17510911930742L83.70231727430556,114.64680913402185L84.20563368055556,114.24462821318254L84.31907960069445,113.8826653858402L84.68178697916666,113.57349259262523L85.30653845486111,113.18184645308304L85.52703897569444,113.3631305599742L85.56858255208333,113.50416125551672L85.82743098958333,113.2162451271356L85.97443133680557,112.95712061213015L86.18214921875001,112.60498667311408L87.23831475694445,113.23667551032821L87.78317473958334,112.97550795761144L87.92538159722221,112.66993372257706L88.04681666666666,112.23036222302362L88.26252369791666,111.94122443686217L88.51498081597222,111.80960199261915L88.65558984375001,112.93567304764458L88.85052508680556,112.70460574208835L89.62227690972222,112.49664516723814L89.74051631944444,112.30948064999485L90.4371701388889,113.82114977627151L90.64009453125,113.7808629235538L90.66406197916666,113.46527663055986L90.89894296875,113.1010458418406L90.92610607638889,92.95615216214036L90.94528003472222,94.72303694853255L91.18655234375,96.31323325579034L91.21531328124999,98.60866774545386L91.27603081597222,99.70659003458907L91.35432447916666,100.79843103218683L92.03659782986111,103.3021816811489L92.10210885416666,105.4712057022343L92.11329366319445,105.84830388227692L92.21395694444443,106.24023911929811L92.58625130208334,106.67871520761886L92.66134930555556,110.96457806406126L92.96174131944446,112.86655775853552L93.1870353298611,112.6424019825886L93.31326388888888,112.44066178425409L93.53536223958334,112.67393935590738L94.16330937500001,112.46904542025442L94.49246232638887,116.60316431685897L94.57874513888889,117.52644163540018L95.29297508680555,116.83629747170737L95.36008394097222,116.25526928692085L95.48950815972222,117.62817985847498L95.66367161458334,116.92786187251446L95.83783506944444,116.71241943523171L96.01679201388889,116.10367749162896L96.15899887152779,116.18498942997564L96.29801006944444,115.62899048691921L96.38908637152777,115.12859143817958L96.91956588541667,115.92276354442973L97.21676223958335,115.42064343994801L97.48519765625,116.46217284602558L97.55070868055556,115.87845556138652L97.78079618055555,115.69743031773766L98.09237300347222,115.07817947343253L98.39755850694445,114.51532246356362L98.64841779513888,114.0281105296873L98.68037439236112,113.687799476706L98.87051614583334,113.38151952902521L99.28595190972223,113.10586757611445L99.5719634548611,112.76236675599375L99.59752873263889,112.96347383039924L99.87555112847222,113.17350925986389L100.05450807291666,112.9186583338725L100.61534635416666,112.55101125047877L101.3663263888889,112.35841012542784L102.12050208333332,112.09518630038127L102.14446953125001,112.3630114203466L102.56310095486111,113.71030402832754L102.88426475694445,114.92286737550744L102.94977578125,114.49308063795263L102.98173237847222,114.1062725741541L103.12234140625,116.33570781675564L103.28052656249999,115.76463703507618L103.6560165798611,115.14696239406476L103.98836519097222,114.69476615465578L104.04748489583334,115.11747703919232L104.69141032986111,115.14668246027321L104.90232387152778,114.71663921424415L104.98700885416666,114.17887373031778L105.08128081597224,115.27405666978956L105.35930321180555,114.80915100280924L105.46475998263888,114.39073590252721L105.59418420138888,114.01416231227358L105.64851041666667,113.6752460810455L105.66289088541667,113.78506522294116L105.99683732638889,113.88390245064723L106.01121779513889,113.47780908058186L106.09110928819445,113.60184067252385L106.17419644097222,113.30415660527109L106.39789262152777,113.0362409447437L106.53690381944445,114.2857887252706L106.5432951388889,115.37719422774455L106.77657829861111,114.9019748049697L106.93476345486111,114.47427732447241L106.95713307291668,114.08934959202489L107.968559375,113.74291463282219L108.3120927951389,93.10377941952872L108.34404939236111,94.87802647757674L108.40316909722222,97.86872382982037L108.83458315972221,99.578554571839L109.49928038194444,100.68319911465551L109.67663949652778,81.67223076568384L109.72936788194444,84.5675076891163L110.25185824652777,88.09282723270559L110.7583703125,91.75927888443587L111.11308854166666,93.64585099599269L111.22174097222222,95.34376589639375L111.25689322916666,96.87880336925463L111.26168671875001,98.17736834482938L111.34317604166667,99.3211861978466L111.78737274305556,80.91657539055964L112.35939583333334,84.30226160150404L112.72210321180555,86.93453544135392L112.72689670138888,92.118988147219L112.76684244791667,95.49068308249738L112.83554913194445,98.52520852424787L112.84833177083333,80.71736735932191L113.3452568576389,83.70813062338989L113.35324600694445,86.39981756105104L113.53699644097222,90.34342955494613L113.60090963541667,92.37158659945162L113.75909479166667,94.19692793950652L114.07706293402778,97.36082889555598L114.51966180555556,100.20833975600047L115.14760894097222,102.77109953040049L115.56943602430556,105.0775833273605L115.59819696180556,105.63232499462447L116.2533072048611,106.13159249516202L116.29485078124999,106.58923012064582L116.30443776041666,106.92228367108126L116.64317769097222,107.29255530397313L116.86367821180556,107.6257997735758L117.0282546875,107.92571979621825L117.4181251736111,110.45931187909645L117.62744088541666,111.99697444118681L117.73769114583332,111.77404262206812L118.00133307291667,111.6591383598613L118.34326866319445,111.55572452387518L118.4247579861111,111.87749582148767L118.50464947916666,112.1670899893389L118.50784513888888,112.01288099040501L118.59892144097222,111.87409289136451L118.73473697916667,111.74918360222804L119.09584652777778,112.88129649200525L119.23325989583334,112.70959653030474L119.27799913194444,112.50113687727426L119.39943420138889,112.31352318954684L120.01619652777778,112.14467087059214L120.16000121527777,114.75832878353293L120.17757734375,114.14725371767963L120.55466519097222,115.73096584591168L120.83588324652779,116.74146301132052L120.87263333333334,116.12981671018846L120.92536171875,115.57933503916962L121.23054722222223,115.08390153525265L122.0742013888889,116.15910513172739L122.50561545138889,115.60569461855465L122.7676595486111,115.94146109419918L122.84595321180555,95.54571342227925L123.17350833333334,98.29817333005133L123.3684435763889,99.5502153720462L123.57136796875,101.90222508484158L124.14498888888889,102.7745025763574L124.33672847222222,106.40952888122169L124.3926525173611,107.34963068059952L124.44218524305555,88.17951136253956L124.60196822916667,70.09671647628561L124.87999062499999,54.928451078657034L125.5574704861111,60.49810597079134L125.63576414930554,65.5107953737122L125.65334027777777,70.02221583634096L125.66612291666667,74.08249425270687L125.90260173611111,57.42737763993617L126.39952682291667,62.74713987594258L126.51457057291667,67.4395118258483L126.60564687499999,71.76497470576348L127.23199618055556,75.65097723518713L127.37580086805555,79.14837951166842L127.44930104166666,82.33199468550157L127.50362725694444,85.16544365445141L127.66021458333334,87.71139928900625L127.79922578125,90.02626717260563L128.14116137152777,92.08614045534506L128.45593385416666,94.67844828481056L128.6940105034722,97.65591595632951L128.81544557291667,98.87262123569656L128.84740217013888,101.4652419246269L129.34592508680555,103.63128023216422L129.4258165798611,104.79389439644778L129.7421868923611,105.291270581803L130.13844869791666,105.82464352362271L130.50275390625,106.22862448376043L131.00607031250001,106.6682620353844L131.08755963541665,107.06393583184595L131.13549453125,107.23889381116135L131.23615781249998,107.48209036754521L131.42629956597222,108.2112250807907L131.46304965277778,108.79968851021162L131.8401375,109.39706340919047L132.00631180555555,111.04095081827141L132.02229010416667,92.36734011144428L132.11815989583332,94.19310610029986L132.12774687499999,75.53245955276986L132.26516024305556,78.93108859749289L132.46968246527777,83.6215734877436L132.71415043402777,87.84300988896923L133.1088144097222,90.0119667125723L133.4523478298611,93.19887941631507L133.89654453125002,94.94149147468357L134.57881788194445,97.78341263971522L134.95910138888888,99.0675713757437L135.81713602430557,81.00222048816934L135.96094071180556,85.20902968935239L135.97691901041668,88.99515797041715L136.01526692708333,70.73953279837544L136.6304314236111,75.22450920603791L136.6591923611111,78.76455828543412L136.83974713541667,64.2506024568907L136.89567118055555,68.88804221120162L137.0155084201389,73.06173799008145L137.5955206597222,76.81806419107332L137.60670546875,80.09504683446596L137.87194522569445,83.14804215101938L137.88313003472223,85.89573793591742L138.40881605902777,68.98854695482568L138.56700121527777,54.07352819684313L138.65008836805555,59.72867537715881L138.67086015625,64.81830783944292L138.89136067708333,69.39897705549865L138.93609991319445,75.04267309994877L138.9472847222222,80.12199953995389L139.22211145833333,83.1805964609585L139.24288324652778,85.92503681486265L140.32141840277777,88.42130657087641L140.6122234375,92.07426966378877L141.17306171875,93.9293426974099L141.29769244791666,95.5989084276689L141.3616056423611,98.34743164740202L142.02949852430555,99.5751884826618L142.03588984375,100.68016963439563L142.3059230902778,103.19574642095606L142.34267317708333,104.76835927886046L142.35545581597222,105.3540233509744L142.366640625,86.38346476587698L142.83160911458333,88.80761828928928L143.89736163194445,71.49170021036036L144.03956848958333,75.40503018932432L144.15621006944446,80.44812092039189L144.2600690104167,83.88065257835268L144.39908020833334,86.47211857051741L144.61318940972222,88.88740671346568L144.99507074652777,91.0611660421191L145.0829513888889,73.07186193790719L145.11650581597223,57.32951949411648L145.28427795138887,64.18016129470483L145.51116979166667,68.82464516523434L145.67894192708332,72.88437596121089L146.35642178819444,77.48812586508981L146.44430243055555,80.80181327858082L146.65681380208335,85.72006945072275L146.93164053819444,88.09993750565046L147.67942491319445,70.43994375508541L147.68102274305556,54.42564469207686L147.88394713541666,60.04558022286919L148.61095972222222,65.10352220058225L148.8650146701389,70.08019341802404L149.01201501736114,74.13467407622161L149.78216901041668,79.71964416859946L149.8764409722222,82.81017975173951L150.21358307291666,88.63384927656556L150.2455396701389,71.33530809890898L150.37656171875,75.26427728901808L150.38774652777778,58.887849560116294L151.03326979166667,43.62497866660465L151.13073741319445,30.827324549944194L151.73471710069444,38.80709209494978L151.93764149305554,45.988882885454785L152.12778324652777,53.973588346909324L152.13737022569444,59.63872951221839L152.18690295138887,65.35962218599656L153.27342725694444,69.88615996739689L153.5722214409722,75.4811377206572L153.76555885416664,79.42696144859147L154.14264670138888,82.54676530373234L154.63318046875,85.3545887733591L154.72265894097222,87.7433486460232L154.9032137152778,90.03151378142087L155.30267118055556,92.09086240327879L155.30426901041668,94.77396366295092L155.5263673611111,96.35906729665582L155.596671875,99.30951994199023L155.68615034722222,100.44106794779123L156.20704288194443,101.7692111530121L156.3556410590278,102.65479003771087L157.24563229166665,103.45181103393979L157.49968723958332,104.16912993054581L157.6786441840278,104.74419349999123L157.84481848958333,105.7471178999921L157.9007425347222,107.9371482974929L158.06691684027777,108.2059334677436L158.45039600694443,108.26392605846924L158.49673307291667,110.02112720262231L158.51271137152776,110.08151448236008L160.02745407986112,110.13586303412407L160.2879003472222,110.19583923071167L160.59628151041667,110.2387553076405L160.67457517361112,110.27737977687646L161.10439140625002,110.72698554918881L161.2178373263889,110.71678699426992L161.70357760416667,110.56932704484294L161.82820833333332,111.42117559035864L161.9847956597222,111.34155803132276L162.11262204861112,111.26990222819049L162.15895911458333,111.20541200537144L162.53604696180557,111.0381286173343L162.80448237847222,110.99681575560088L163.03936336805558,110.95963418004078L163.2758421875,110.92617076203669L163.42763602430554,110.89605368583302L163.52510364583333,90.95644831724972L163.62896258680556,82.96705348552476L163.86224574652778,85.65264501197227L164.09712673611114,88.14988051077503L164.1274855034722,90.39739245969753L164.17542039930558,72.09280946372779L164.39911657986113,75.946028517355L165.25235772569445,80.24361316561951L165.8467504340278,84.26769716155754L166.10879453125,86.90342744540177L166.34367552083333,89.19814720086161L166.47150190972224,91.93129341827544L166.51783897569445,94.1436015764479L166.81982881944444,95.79174141880311L167.08187291666667,97.27506727692281L167.4557651041667,98.61006054923051L167.89037482638886,99.81155449430746L167.95748368055555,100.89289904487673L168.04536432291667,101.86610914038904L168.59022430555555,102.74199822635013L168.71645286458335,103.41967340371512L168.75959427083333,104.06968262584361L169.16704088541664,104.72521436325924L169.17982352430556,105.31519292693334L169.51217213541668,107.36726738423998L169.73267265624997,107.693040645816L169.84292291666668,107.9862365812344L169.92121657986112,108.25011292311096L170.0027059027778,109.73213288079985L170.69296840277775,109.82141959271986L170.72652282986112,111.60263700844787L171.00933871527775,111.5048733076031L171.29215460069443,112.2465734768428L171.30973072916666,112.08441612915851L171.46791588541666,111.93847451624265L172.00958020833332,111.80712706461838L172.30358090277778,113.21000810815656L172.57041848958332,112.95150729734088L172.67747309027777,113.13370031760681L172.95389765625,113.86877559834613L173.04976744791668,113.5443980385115L173.15841987847224,92.92511448466037L173.21913741319443,94.69510303619434L173.2830506076389,96.7029364825749L173.64416015625,98.09514283431741L173.86625850694443,78.91569105088568L173.99568272569445,82.0990672582971L174.65878211805557,84.9516605324674L174.8792826388889,88.34868197922066L174.94319583333333,90.57631378129858L175.19405512152778,92.58118240316873L175.23080520833332,94.39247822535184L175.64783880208333,96.01573040281666L175.85236102430557,97.47665736253501L176.47231901041667,98.79149162628151L176.5745801215278,99.97484246365335L176.61292803819444,101.11867852978801L176.89893958333332,102.06931067680921L177.1801576388889,103.4060983591283L177.2217012152778,104.12798852321546L177.47415833333332,105.53823654589392L177.51889756944445,106.04691289130453L177.54765850694443,86.17737785217408L177.76496336805553,88.62214006695667L177.84964835069445,90.82242606026101L178.37054088541666,94.0472147042349L178.68371553819443,95.72296979631142L178.75561788194443,97.21317281668027L178.79716145833333,98.55435553501223L178.86586814236114,99.62313873151102L179.57690243055558,100.72332485835992L179.75905503472222,101.73561737252392L179.92203368055556,102.62455563527153L180.3758173611111,104.94569382174438L180.60590486111113,105.51362443956992L181.09963428819444,106.02476199561293L181.95127760416668,106.48478579605164L182.18296293402778,106.89880721644647L182.5328876736111,108.79252024480184L182.9035842013889,108.97576822032164L183.08254114583332,109.5555351482895L183.1480521701389,110.07732538346053L183.17681310763888,110.13209284511449L183.39411796875,110.22839918560302L183.5634879340278,110.68290301704273L183.70409696180556,111.09195646533846L184.16746762152778,111.0452608188046L185.94904791666664,111.05025036192416L186.00017847222222,111.00772532573174L186.0129611111111,110.96945279315855L186.04491770833334,110.9350075138427L186.30376614583335,111.31885051245843L186.83424565972223,111.66430921121258L186.8757892361111,111.97522204009131L187.0803114583333,112.53160608608219L187.14742031249997,112.34094547747398L187.55806258680553,112.07393686722656L187.9814875,111.99541818050392L188.0230310763889,112.68806386245352L188.13168350694446,112.48175747620817L188.15245529513888,112.29608172858735L188.46882560763888,112.1372704307286L188.48480390625,111.98604338765576L188.73246753472222,111.84993904889018L189.01208776041668,111.72744514400115L189.84295928819444,111.61720062960106L189.9052746527778,111.51798056664094L190.5523957465278,111.42868250997685L190.69620043402776,111.34831425897916L191.60376779513888,111.27598283308124L191.66128967013887,111.21088454977313L192.7110638888889,111.15229609479582L193.22716293402777,111.09956648531622L193.30226093750002,111.0521098367846L193.6649683159722,111.00939885310613L193.6873379340278,110.97095896779553L194.2337957465278,112.18089432101597L194.34244817708333,91.59563301391438L194.39038307291665,93.49856971252294L194.3967743923611,95.21121274127064L195.39861371527778,96.75259146714357L195.40820069444445,98.55467607042922L195.631896875,99.7617084633863L195.65266866319442,100.84803761704767L195.90991927083334,101.82573385534289L195.98661510416667,102.7056604698086L196.11603932291666,103.49759442282776L196.16876770833335,104.21033498054499L196.17675685763888,104.85180148249047L196.5043119791667,105.84396508424142L197.07313940972222,106.73691232581729L197.2137484375,107.12572109323555L197.8880326388889,107.475648983912L197.89921744791667,107.79058408552079L198.11971796875,108.07402567696872L198.92502421875,87.89115435927185L199.03207881944445,91.60957798584467L200.15695104166664,93.5111201872602L200.48131050347223,75.61284410603419L200.59475642361113,79.11405969543077L200.75933289930558,82.26515372588769L200.98622473958332,64.80836491579892L201.13002942708334,69.39002842421904L201.13482291666668,73.51352558179713L201.86183550347224,77.11404802361743L201.97847708333333,80.46514322125569L202.65915260416668,83.48112889913013L202.7342506076389,86.20934413421712L203.87829678819446,88.6509097207954L204.30331953125,90.84831874871587L204.5030482638889,92.82598687384427L204.7938532986111,94.60588818645985L205.43618090277778,96.20779936781388L205.47772447916668,99.17061318103248L205.90913854166666,101.69886436292923L206.13762821180555,102.59147792663632L206.27344374999998,104.91592388397267L206.4012701388889,107.0120736830754L206.47956380208333,107.37336631476786L207.0947282986111,107.69852968329108L207.30723967013887,107.99117671496197L207.55170763888887,108.25455904346578L207.68912100694445,108.49160313911919L207.71947977430557,108.70494282520727L207.7849907986111,109.35880791768655L208.09337196180556,109.4854271259179L208.26114409722223,109.59938441332609L208.4001552951389,109.70194597199348L208.74209088541667,110.21462637479414L209.15912447916665,110.25566373731473L209.21824418402778,110.71435517608325L209.27576605902777,111.25854465847493L209.42915772569444,111.19519019262742L209.63048428819445,111.58205398586469L209.9260828125,111.39923139977822L210.1529746527778,111.32180825980039L210.58279088541664,112.77322118382034L210.73458472222222,112.55839906543831L210.92153081597223,112.36505915889448L211.08131380208334,112.53399074300503L211.3177926215278,112.34309166870455L211.40247760416665,112.20032156433408L211.8546634548611,113.56388315790068L211.86265260416667,113.26999484211059L212.07676180555555,113.00549535789953L212.51296935763887,112.76744582210956L212.52255633680554,112.55320123989861L212.71110026041669,112.36038111590875L212.71269809027777,91.85949925431788L213.0194814236111,93.7360493288861L213.45409114583333,95.83978814599749L213.6761894965278,97.31830933139774L213.72092873263887,98.64897839825798L214.07564696180557,99.84658055843217L214.20666901041668,102.34457094008896L214.28176701388887,103.17261384608005L214.56777855902777,104.06996183647205L215.13820381944444,104.72546565282484L215.14139947916667,106.20318471254237L215.22288880208333,107.48473342878813L215.77254227430558,107.79876008590932L216.03458637152778,108.08138407731839L216.11607569444445,108.33574566958656L216.3269892361111,108.56467110262788L216.4867722222222,108.7707039923651L216.54269626736112,108.95613359312858L216.6401638888889,109.54892648381573L217.06838229166667,110.12807289793416L217.33681770833334,111.69885935814072L217.41191571180556,112.00631717232666L217.44706796875,111.868185455094L217.45665494791666,111.7438669095846L217.96796050347223,111.65825365612613L218.23160243055554,111.55492829051352L218.61348376736112,111.46193546146216L218.72053836805557,111.37824191531595L219.08644140625,111.71776147378436L219.09123489583334,112.04960251390592L219.43956180555554,111.76886101251532L219.81505182291667,90.91228741126379L220.1665743923611,92.88355867013742L220.45258593749998,95.39197624062366L220.54366223958334,77.4176223665613L220.55324921875,80.63879762990517L220.78972803819443,83.63741786691465L220.89997829861113,86.3361760802232L221.0437829861111,88.76505847220086L221.26268567708334,91.36589637498078L221.59663211805557,94.5653770499827L221.69409973958335,96.17133934498445L221.94016553819444,97.61670541048599L222.25653585069443,98.91753486943739L222.40673185763887,99.99563294499366L222.50899296875,101.05856965049429L222.70872170138887,102.01521268544485L222.77742838541664,102.87619141690037L222.9547875,104.64254883771034L223.15451623263888,105.24079395393929L223.8000394965278,105.77921455854536L223.9310615451389,106.26379310269083L224.29536675347222,86.37257004242176L224.8514115451389,88.79781303817957L225.1821623263889,90.9805317343616L225.60878289930554,92.94497856092545L225.88680529513888,94.7129807048329L225.92675104166665,96.71902638434962L226.0194251736111,98.10962374591465L226.7672095486111,99.77600512132318L226.77519869791666,100.86090460919087L226.78798133680556,101.84699383577178L226.85828585069444,102.72479445219459L226.9781230902778,103.51481500697514L227.02446015625,104.22583350627762L227.60447239583334,104.86575015564985L228.12376710069444,105.44167514008488L228.4305504340278,105.96000762607639L228.44013741319446,106.42650686346873L228.63986614583334,106.84635617712188L229.29497638888887,107.22422055940969L229.3956396701389,107.56429850346872L229.8014884548611,107.87036865312184L230.0715217013889,108.14583178780966L230.55726197916667,108.39374860902869L230.68668619791669,109.03171749812581L231.09732847222222,109.08318637331324L231.60543836805556,109.23736773598192L231.77800399305556,109.37613096238373L231.80356927083335,109.40975224114536L232.25096163194445,109.40267545453082L232.29410303819444,109.93975165907773L232.6008863715278,111.52937024316996L232.61207118055557,111.43893321885297L232.94122413194444,111.35753989696767L233.21125737847223,111.2842859072709L233.3103228298611,111.2183573165438L233.35825772569447,111.15902158488943L233.90471553819444,111.13189286390048L234.12841171875002,111.08120357751044L234.16516180555556,111.0355832197594L234.1843357638889,110.99452489778346L234.98005503472223,110.9575724080051L235.37312118055556,90.59697141720459L235.38430598958334,92.59977427548414L236.00586180555555,94.40229684793572L236.06498151041666,96.02456716314215L236.24713411458333,97.48461044682794L236.38135182291666,98.79864940214514L236.58427621527778,99.98128446193063L236.6274176215278,101.04565601573758L236.96455972222222,82.09109041416382L237.7842464409722,84.94448137274743L237.80182256944445,87.51253323547269L237.85774661458333,91.34487366192542L238.99220581597223,72.84183160823287L239.17116276041668,76.62014844740956L239.41882638888887,80.02063360266862L239.64731605902776,83.08107024240175L239.8790013888889,86.66515071816157L239.89497968749998,89.06113564634542L239.97167552083334,91.21752208171087L240.0100234375,93.15826987353977L240.39190477430554,96.4260366361858L240.45581796874998,97.84593297256723L240.48138324652777,99.1238396753105L240.59642699652778,100.27395570777946L241.16365659722223,101.21364607450151L241.37616796875002,102.15478146705135L241.38096145833336,103.0018033203462L241.75964713541669,103.7641229883116L241.9817454861111,104.45021068948043L242.19106119791667,105.06768962053239L242.2981157986111,105.62342065847916L242.37481163194445,106.12357859263123L242.5857251736111,106.5737207333681L242.7263342013889,106.9788486600313L243.1401721354167,107.34346379402815L243.4613359375,107.53471897712535L243.70899956597222,107.87278614191283L244.00619592013888,108.14800752772153L244.21710946180556,108.39570677494937L244.80191519097224,108.61863609745443L244.83227395833333,108.81927248770899L245.1534377604167,108.9998452389381L245.19338350694443,109.16236071504429L245.87405902777778,109.30862464353984L245.88524383680553,109.33240280418586L246.0657986111111,109.38145939876728L246.50200616319444,109.50581345889054L246.89667013888888,109.5154039880015L247.29612760416666,109.62636358920135L247.32648637152778,110.5780397302812L247.39838871527778,110.58273575725309L247.59651961805554,110.58696218152778L248.96106631944443,110.592148775875L249.1831646701389,110.5954338982875L249.60179609375,110.46010925845876L249.6992637152778,110.47659833261287L250.11310164930555,110.49143849935159L250.21696059027778,110.91963839941643L250.5780701388889,110.89017455947479L250.66595078125002,110.8636571035273L250.71708133680556,110.74437733067457L250.72027699652776,110.73243959760713L250.7394509548611,110.72169563784641L251.11973446180554,110.71202607406175L251.16127803819444,110.70332346665559L251.31946319444444,92.30685049499003L251.50001796874997,94.13866544549103L251.9569973090278,95.78729890094192L252.4075853298611,97.27106901084773L252.51623776041666,98.60646210976294L252.76230355902777,99.80831589878666L252.8118362847222,100.889984308908L253.28798958333334,101.8634858780172L253.40463116319447,102.63177791521548L253.59157725694445,103.43110012369394L253.89836059027778,104.15049011132453L254.20035043402777,104.79794110019208L254.3633290798611,105.79549074017288L254.5055359375,106.27844166615557L254.75799305555554,108.23419124954002L254.89221076388887,110.37325649958602L254.96091744791664,90.50943866212744L255.99311553819444,92.45047135841469L256.0410504340278,94.26792422257321L256.4245296006944,97.42472555031588L257.02211796875,78.4174092452843L257.2569989583333,82.50795738325586L257.3768361979167,85.31966164493026L257.6932065104167,87.85019548043725L257.9392723090278,70.21517593239354L257.97442456597224,74.25615833915417L258.23007734375,77.89304250523875L258.3227514756945,81.05837887971487L258.7461763888889,85.53890036674339L258.8532309895833,88.04751033006904L259.11207942708336,91.82635304706214L259.7512113715278,94.55388180485592L259.96532057291665,96.16099362437033L260.63640911458333,97.60739426193331L260.7019201388889,98.90915483573998L260.77062682291665,100.08073935216598L260.90324670138887,101.05911072944939L260.91762717013887,101.90645746900445L261.3314651041667,102.77831172210398L261.43053055555555,103.56298054989358L261.80122708333334,104.26918249490424L261.8843142361111,104.82870955791381L262.2118693576389,105.41110422712244L262.49628307291664,105.93249380441019L262.63529427083336,107.92283817396917L262.8238381944444,108.19305435657223L263.09706710069446,108.436248920915L263.40704609375,108.65512402882352L263.8512427951389,108.85211162594116L263.9471125868056,108.89111921334704L264.22833064236113,109.51668697951233L264.63897291666666,109.6275182815611L264.69329913194446,111.251125828405L264.7779841145833,111.18851324556448L264.77958194444443,111.05334160850803L265.1918220486111,110.90679651015724L265.31325711805556,110.87861685914152L265.32603975694445,110.85325517322734L265.57210555555554,112.09155465590462L265.7095189236111,111.94489919031415L265.7382798611111,111.81290927128275L265.8980628472222,112.04673553165448L266.30231380208335,111.90456197848903L266.3342703993056,111.77660578064011L266.54997743055554,111.6614452025761L267.0724677951389,111.55780068231849L267.1587506076389,111.46452061408665L267.3936315972222,111.38056855267797L267.88736102430556,111.30501169741018L268.07270928819446,111.23701052766916L268.1957421875,111.17580947490224L268.6686998263889,112.64182227741202L269.33819053819445,113.68467129967081L269.835115625,114.20839166970373L270.0348443576389,113.85005250273338L270.2265839409722,113.52754725246001L270.31606241319446,113.65213627721403L270.55733472222227,113.23050077449263L270.7938135416667,112.96995069704336L270.9679769965278,112.73545562733902L271.2412059027778,112.52441006460512L271.2683690104167,112.33446905814459L271.51443480902776,111.94642058983014L271.7221526909722,111.81427853084713L272.02893602430555,112.01339755276243L272.0752730902778,111.87455779748618L272.42040434027774,111.74960201773754L272.7415681423611,92.13948556596381L273.0004165798611,93.98803700936743L273.8488642361111,95.65173330843068L273.9223644097222,98.6701537275876L274.22914774305553,99.86563835482885L274.4544417534722,100.94157451934596L274.55031154513887,101.90991706741136L274.64618133680557,102.78142536067021L274.7372576388889,104.04008751210321L274.9273993923611,105.94311001089288L275.06321493055555,106.41129900980359L275.52978125,106.83266910882324L275.5345747395833,108.33612876044091L275.66719461805553,108.56501588439683L275.68796640625,108.77101429595714L275.95799965277774,108.86238161636143L276.12257612847225,109.03864345472529L276.29194609375,111.13321660925274L276.4980661458333,111.08239494832749L276.5060552951389,111.03665545349473L277.0381326388889,110.99548990814525L277.0780783854167,91.46216747983074L277.0812740451389,93.37845073184766L277.08606753472225,95.1031056586629L277.09565451388886,76.32795134279662L277.10524149305553,39.934039021016986L277.11163281250003,47.00313511891528L277.1164263020833,53.78016535702375L277.12441545138887,59.46464882132136L277.12761111111115,64.58068393918921L277.1324046006945,69.14086554527032L277.1419915798611,53.37677899074329L277.1435894097222,60.09999171666895L277.14678506944443,65.15249254500206L277.15157855902777,69.69974329050186L277.1563720486111,73.79226896145165L277.1579698784722,77.3870420653065L277.1595677083333,82.23193160877585L277.17394817708333,85.07123844789827L277.17554600694444,87.62661460310844L277.17714383680556,89.92645314279758L277.17874166666667,72.08380782851782L277.1819373263889,76.38872392066604L277.1851329861111,79.69757809109943L277.18992647569445,82.7903202819895L277.19152430555556,86.40347575379053L277.197915625,89.65531567841148L277.20111128472223,91.75228411057033L277.20270911458334,93.6395556995133L277.20430694444445,95.33810012956197L277.20590477430557,96.86679011660577L277.21868741319446,99.27972047994518L277.23306788194446,100.41424843195068L277.2362635416667,101.4463860887556L277.24105703124997,102.29510685488005L277.2490461805556,103.12809616939205L277.2538396701389,103.78098967745282L277.25543749999997,104.46539070970755L277.2602309895833,64.75853913873681L277.2618288194444,69.34518522486313L277.26662230902775,73.4731667023768L277.2714157986111,77.18835003213913L277.2746114583333,80.53201502892522L277.2778071180556,83.54131352603268L277.2826006076389,86.24968217342942L277.2873940972222,88.68721395608647L277.2889919270833,70.96849256047783L277.2905897569444,74.93414330443005L277.29378541666665,78.50322897398704L277.30656805555554,81.71540607658834L277.30976371527777,84.6063654689295L277.312959375,87.08792423453656L277.3161550347222,89.4416318110829L277.3241441840278,91.5599686299746L277.33213333333333,93.46647176697714L277.3385246527778,95.18232459027942L277.3401224826389,96.72659213125148" style="fill: none;" fill="none"></path></g></g></g></g><g opacity="0.2"><g><g><g><path stroke="rgb(255, 112, 67)" stroke-width="2px" d="M33.81647118055556,110.625L33.84043862847222,110.625L34.046558680555556,110.625L34.34375503472222,110.625L34.856658420138885,110.625L34.96371302083333,130.095L35.02762621527778,110.625L35.040408854166664,110.625L35.06277847222222,110.625L35.18900703125,130.095L35.703508246527775,130.98L35.979932812499996,140.9005647611618L36.53118411458333,136.61450011253356L36.635043055555556,114.76451471328735L36.78364123263889,118.13224044799804L37.058467968749994,128.56766063690185L37.898926475694445,116.00637216567992L38.30317743055556,134.30588687896727L38.46296041666667,126.32661312103272L39.2011578125,116.03491968154907L39.221929600694445,127.40948258399963L39.26027751736111,144.545390625L39.34656032986111,126.86903280258178L39.45041927083333,110.625L39.88183333333333,130.39000056266784L40.102333854166666,128.9334375L40.135888281250004,148.251328125L40.20619279513889,125.5040625L40.31005173611111,116.88914062500001L40.35798663194444,112.64390625L40.41391067708334,118.133671875L40.44906293402778,140.30015625L40.45545425347222,131.851171875L40.74146579861112,125.8359375L41.29271710069444,110.625L41.79603350694444,114.054375L41.79763133680556,122.807578125L42.93049270833333,125.379609375L43.98665824652778,132.874453125L44.349365625000004,111.620625L44.389311371527775,109.670859375L44.88304079861111,128.42179687499998L45.40393333333333,111.606796875L45.50299878472222,127.57828125L45.737879774305554,124.743515625L45.79380381944444,107.651953125L46.3338703125,110.625L46.416957465277775,125.8359375L47.040111111111116,110.625L47.51466657986111,132.819140625L47.676047395833336,110.085703125L47.698417013888886,111.274921875L47.77351501736111,108.619921875L48.802517447916664,129.984375L49.609421527777776,113.25234375L50.12072708333333,110.625L50.13510755208333,123.0703125L50.184640277777774,110.625L50.381173350694446,110.625L50.619249999999994,110.625L50.951598611111116,110.625L51.22962100694444,110.223984375L51.49965425347222,110.6595703125L51.795252777777776,113.390625L51.79685060763889,128.6015625L51.91509001736111,110.26546875L52.15955798611111,144.365625L52.45355868055555,110.625L52.46314565972222,129.37593750000002L52.71080928819445,110.058046875L53.15660381944444,126.11250000000001L53.33236510416667,117.4284375L53.66950720486111,135.15609375L54.677737847222225,111.26109375L55.22419565972222,125.8359375L55.26573923611111,116.46046874999999L55.63963142361111,125.8359375L57.06968914930556,141.046875L57.31895060763889,141.57234375000002L57.499505381944445,114.7734375L57.55383159722222,110.625L57.71521241319444,122.37890625L57.918136805555555,110.956875L57.92932161458333,119.94515625L57.96287604166667,108.71671875L58.06513715277778,127.84101562500001L59.04460685763889,110.735625L59.333814062500004,110.625L59.89305451388889,124.92328125L60.364414322916666,-69.140625L60.71913255208334,114.7734375L60.83896979166666,136.746328125L60.85175243055556,110.625L61.158535763888885,109.311328125L61.32471006944445,110.625L61.50686267361111,126.25078124999999L61.788080729166666,125.8359375L62.21470130208333,115.74140625000001L62.98006180555555,109.145390625L63.623987239583336,110.625L64.51238064236111,133.22015625L64.63860920138889,110.625L64.92302291666667,110.625L64.95657734375,125.8359375L65.06203411458334,110.625L65.14671909722222,120.069609375L65.15311041666666,-76.0546875L65.1850670138889,113.11406249999999L65.57973098958334,114.7734375L65.78585104166667,125.8359375L66.10062352430555,110.625L66.14056927083334,110.113359375L66.71578802083333,121.424765625L66.76052725694444,110.625L66.9139189236111,-94.45992187500002L67.00020173611111,110.625L67.128028125,118.921875L67.69685555555556,110.625L67.77994270833334,110.625L67.95570399305555,110.625L68.27367213541666,125.8359375L68.91120625,110.625L69.48962065972222,125.8359375L69.66378411458334,108.675234375L70.23580720486112,125.8359375L70.30611171875,125.8359375L70.51702526041667,110.625L70.57454713541667,115.008515625L71.09064618055555,109.919765625L71.20728776041666,118.16132812500001L71.35908159722223,110.625L71.62751701388889,110.625L71.87997413194444,125.8359375L72.32736649305556,109.394296875L72.54147569444444,118.921875L72.74759574652778,133.593515625L73.04798776041667,124.453125L73.110303125,110.721796875L73.21416206597223,119.66859375L73.39631467013889,129.693984375L73.56248897569445,119.57179687499999L74.39336050347222,108.647578125L74.41732795138888,127.481484375L74.86631814236111,125.14453125L74.87910078125,108.19838687896728L74.92543784722223,123.581953125L76.51847421875,123.0703125L77.04416024305556,118.050703125L77.55546579861111,110.625L77.96610807291667,110.625L78.37834817708334,130.78640625L78.46463098958333,110.625L78.53972899305555,110.625L78.67714236111111,110.625L79.01428446180556,109.615546875L79.87871041666666,110.625L80.11678706597222,125.8359375L80.37723333333332,110.625L80.55938593750001,110.625L81.38546397569445,110.970703125L82.46399913194445,118.921875L82.4735861111111,110.625L82.64615173611111,109.753828125L82.71006493055555,108.55078125L83.0903484375,110.625L83.14147899305556,131.3671875L83.40512092013888,115.893515625L83.70231727430556,109.892109375L84.20563368055556,110.625L84.31907960069445,110.625L84.68178697916666,110.7909375L85.30653845486111,109.65703125L85.52703897569444,114.9946875L85.56858255208333,114.7734375L85.82743098958333,110.625L85.97443133680557,110.625L86.18214921875001,109.43578125L87.23831475694445,118.921875L87.78317473958334,110.625L87.92538159722221,109.919765625L88.04681666666666,108.27421875L88.26252369791666,109.338984375L88.51498081597222,110.625L88.65558984375001,123.0703125L88.85052508680556,110.625L89.62227690972222,110.625L89.74051631944444,110.625L90.4371701388889,127.426171875L90.64009453125,113.41828125L90.66406197916666,110.625L90.89894296875,109.82296875L90.92610607638889,-88.34789062499999L90.94528003472222,110.625L91.18655234375,110.625L91.21531328124999,119.267578125L91.27603081597222,109.587890625L91.35432447916666,110.625L92.03659782986111,125.8359375L92.10210885416666,124.99242187499999L92.11329366319445,109.2421875L92.21395694444443,109.76765625L92.58625130208334,110.625L92.66134930555556,149.53734375L92.96174131944446,129.984375L93.1870353298611,110.625L93.31326388888888,110.625L93.53536223958334,114.7734375L94.16330937500001,110.625L94.49246232638887,153.810234375L94.57874513888889,125.8359375L95.29297508680555,110.625L95.36008394097222,111.026015625L95.48950815972222,129.984375L95.66367161458334,110.625L95.83783506944444,114.7734375L96.01679201388889,110.625L96.15899887152779,116.91679687499999L96.29801006944444,110.625L96.38908637152777,110.625L96.91956588541667,123.0703125L97.21676223958335,110.9015625L97.48519765625,125.8359375L97.55070868055556,110.625L97.78079618055555,114.068203125L98.09237300347222,109.504921875L98.39755850694445,109.449609375L98.64841779513888,109.643203125L98.68037439236112,110.625L98.87051614583334,110.625L99.28595190972223,110.625L99.5719634548611,109.670859375L99.59752873263889,114.7734375L99.87555112847222,115.063828125L100.05450807291666,110.625L100.61534635416666,109.2421875L101.3663263888889,110.625L102.12050208333332,109.726171875L102.14446953125001,114.7734375L102.56310095486111,125.8359375L102.88426475694445,125.8359375L102.94977578125,110.625L102.98173237847222,110.625L103.12234140625,136.400625L103.28052656249999,110.625L103.6560165798611,109.587890625L103.98836519097222,110.625L104.04748489583334,118.921875L104.69141032986111,115.40953125L104.90232387152778,110.84625L104.98700885416666,109.338984375L105.08128081597224,125.130703125L105.35930321180555,110.625L105.46475998263888,110.625L105.59418420138888,110.625L105.64851041666667,110.625L105.66289088541667,114.7734375L105.99683732638889,114.7734375L106.01121779513889,109.82296875L106.09110928819445,114.718125L106.17419644097222,110.625L106.39789262152777,110.625L106.53690381944445,125.53171875000001L106.5432951388889,125.19984375L106.77657829861111,110.625L106.93476345486111,110.625L106.95713307291668,110.625L107.968559375,110.625L108.3120927951389,-92.6484375L108.34404939236111,110.84625L108.40316909722222,124.785L108.83458315972221,114.96703124999999L109.49928038194444,110.625L109.67663949652778,-89.42648437499997L109.72936788194444,110.625L110.25185824652777,119.820703125L110.7583703125,124.75734374999999L111.11308854166666,110.625L111.22174097222222,110.625L111.25689322916666,110.694140625L111.26168671875001,109.864453125L111.34317604166667,109.615546875L111.78737274305556,-84.724921875L112.35939583333334,114.7734375L112.72210321180555,110.625L112.72689670138888,138.7790625L112.76684244791667,125.8359375L112.83554913194445,125.8359375L112.84833177083333,-79.55320312499998L113.3452568576389,110.625L113.35324600694445,110.625L113.53699644097222,125.8359375L113.60090963541667,110.625L113.75909479166667,110.625L114.07706293402778,125.8359375L114.51966180555556,125.8359375L115.14760894097222,125.8359375L115.56943602430556,125.8359375L115.59819696180556,110.625L116.2533072048611,110.625L116.29485078124999,110.70796875L116.30443776041666,109.919765625L116.64317769097222,110.625L116.86367821180556,110.625L117.0282546875,110.625L117.4181251736111,133.26164062499998L117.62744088541666,125.8359375L117.73769114583332,109.76765625L118.00133307291667,110.625L118.34326866319445,110.625L118.4247579861111,114.7734375L118.50464947916666,114.7734375L118.50784513888888,110.625L118.59892144097222,110.625L118.73473697916667,110.625L119.09584652777778,123.0703125L119.23325989583334,111.164296875L119.27799913194444,110.625L119.39943420138889,110.625L120.01619652777778,110.625L120.16000121527777,138.28125L120.17757734375,108.647578125L120.55466519097222,129.984375L120.83588324652779,125.8359375L120.87263333333334,110.625L120.92536171875,110.625L121.23054722222223,110.625L122.0742013888889,125.8359375L122.50561545138889,110.625L122.7676595486111,118.96335937500001L122.84595321180555,-88.01601562500002L123.17350833333334,123.0703125L123.3684435763889,110.81859375L123.57136796875,123.0703125L124.14498888888889,110.625L124.33672847222222,139.124765625L124.3926525173611,115.810546875L124.44218524305555,-84.3515625L124.87999062499999,-81.5859375L125.5574704861111,110.625L125.63576414930554,110.625L125.65334027777777,110.625L125.66612291666667,110.625L125.90260173611111,-92.46867187499998L126.39952682291667,110.625L126.51457057291667,109.670859375L126.60564687499999,110.694140625L127.23199618055556,110.625L127.37580086805555,110.625L127.44930104166666,110.98453125L127.50362725694444,110.666484375L127.66021458333334,110.625L127.79922578125,110.860078125L128.14116137152777,110.625L128.45593385416666,118.00921875L128.6940105034722,124.453125L128.81544557291667,109.82296875L128.84740217013888,124.798828125L129.34592508680555,123.125625L129.4258165798611,115.257421875L129.7421868923611,109.76765625L130.13844869791666,110.625L130.50275390625,109.864453125L131.00607031250001,110.625L131.08755963541665,110.625L131.13549453125,108.813515625L131.23615781249998,109.670859375L131.42629956597222,114.7734375L131.46304965277778,114.095859375L131.8401375,114.7734375L132.00631180555555,125.8359375L132.02229010416667,-75.69515625000003L132.11815989583332,110.625L132.12774687499999,-92.41335937500003L132.26516024305556,109.51875L132.46968246527777,125.8359375L132.71415043402777,125.8359375L133.1088144097222,109.532578125L133.4523478298611,121.88109374999999L133.89654453125002,110.625L134.57881788194445,123.360703125L134.95910138888888,110.625L135.81713602430557,-81.5859375L135.96094071180556,123.0703125L135.97691901041668,123.0703125L136.01526692708333,-93.56109375L136.6304314236111,115.589296875L136.6591923611111,110.625L136.83974713541667,-66.375L136.89567118055555,110.625L137.0155084201389,110.625L137.5955206597222,110.625L137.60670546875,109.587890625L137.87194522569445,110.625L137.88313003472223,110.625L138.40881605902777,-83.17617187500002L138.56700121527777,-80.16164062500002L138.65008836805555,110.625L138.67086015625,110.625L138.89136067708333,110.625L138.93609991319445,125.8359375L138.9472847222222,125.8359375L139.22211145833333,110.70796875L139.24288324652778,110.625L140.32141840277777,110.887734375L140.6122234375,124.95093750000001L141.17306171875,110.625L141.29769244791666,110.625L141.3616056423611,123.084140625L142.02949852430555,110.625L142.03588984375,110.625L142.3059230902778,125.8359375L142.34267317708333,118.921875L142.35545581597222,110.625L142.366640625,-84.3515625L142.83160911458333,110.625L143.89736163194445,-84.3515625L144.03956848958333,110.625L144.15621006944446,125.8359375L144.2600690104167,114.7734375L144.39908020833334,109.7953125L144.61318940972222,110.625L144.99507074652777,110.625L145.0829513888889,-88.83187500000003L145.11650581597223,-84.3515625L145.28427795138887,125.8359375L145.51116979166667,110.625L145.67894192708332,109.421953125L146.35642178819444,118.921875L146.44430243055555,110.625L146.65681380208335,129.984375L146.93164053819444,109.51875L147.67942491319445,-88.5L147.68102274305556,-89.70304687499998L147.88394713541666,110.625L148.61095972222222,110.625L148.8650146701389,114.870234375L149.01201501736114,110.625L149.78216901041668,129.984375L149.8764409722222,110.625L150.21358307291666,141.046875L150.2455396701389,-84.3515625L150.37656171875,110.625L150.38774652777778,-88.5L151.13073741319445,-84.3515625L151.73471710069444,110.625L151.93764149305554,110.625L152.12778324652777,125.8359375L152.13737022569444,110.625L152.18690295138887,116.84765625L153.27342725694444,110.625L153.5722214409722,125.8359375L153.76555885416664,114.939375L154.14264670138888,110.625L154.63318046875,110.625L154.72265894097222,109.2421875L154.9032137152778,110.625L155.30267118055556,110.625L155.30426901041668,118.921875L155.5263673611111,110.625L155.596671875,125.86359375L155.68615034722222,110.625L156.20704288194443,113.7225L156.3556410590278,110.625L157.24563229166665,110.625L157.49968723958332,110.625L157.6786441840278,109.919765625L157.84481848958333,114.7734375L157.9007425347222,127.647421875L158.06691684027777,110.625L158.45039600694443,108.785859375L158.49673307291667,125.8359375L158.51271137152776,110.625L160.02745407986112,110.625L160.2879003472222,110.735625L160.59628151041667,110.625L160.67457517361112,110.625L161.10439140625002,114.7734375L161.2178373263889,110.625L161.70357760416667,109.2421875L161.82820833333332,119.0878125L161.9847956597222,110.625L162.11262204861112,110.625L162.15895911458333,110.625L162.53604696180557,109.532578125L162.80448237847222,110.625L163.03936336805558,110.625L163.2758421875,110.625L163.42763602430554,110.625L163.52510364583333,-88.5L163.62896258680556,11.0625L163.86224574652778,109.82296875L164.09712673611114,110.625L164.1274855034722,110.625L164.17542039930558,-92.6484375L164.39911657986113,110.625L165.25235772569445,118.921875L165.8467504340278,120.484453125L166.10879453125,110.625L166.34367552083333,109.850625L166.47150190972224,116.529609375L166.51783897569445,114.054375L166.81982881944444,110.625L167.08187291666667,110.625L167.4557651041667,110.625L167.89037482638886,110.625L167.95748368055555,110.625L168.04536432291667,110.625L168.59022430555555,110.625L168.71645286458335,109.51875L168.75959427083333,109.919765625L169.16704088541664,110.625L169.17982352430556,110.625L169.51217213541668,125.8359375L169.73267265624997,110.625L169.84292291666668,110.625L169.92121657986112,110.625L170.0027059027778,123.0703125L170.69296840277775,110.625L170.72652282986112,127.63359374999999L171.00933871527775,110.625L171.29215460069443,118.921875L171.30973072916666,110.625L171.46791588541666,110.625L172.00958020833332,110.625L172.30358090277778,125.8359375L172.57041848958332,110.625L172.67747309027777,114.7734375L172.95389765625,120.484453125L173.04976744791668,110.625L173.15841987847224,-92.6484375L173.21913741319443,110.625L173.2830506076389,114.7734375L173.64416015625,110.625L173.86625850694443,-93.69937499999997L173.99568272569445,110.749453125L174.65878211805557,110.625L174.8792826388889,118.921875L174.94319583333333,110.625L175.19405512152778,110.625L175.23080520833332,110.694140625L175.64783880208333,110.625L175.85236102430557,110.625L176.47231901041667,110.625L176.5745801215278,110.625L176.61292803819444,111.413203125L176.89893958333332,110.625L177.1801576388889,115.4371875L177.2217012152778,110.625L177.47415833333332,118.23046875L177.51889756944445,110.625L177.54765850694443,-92.6484375L177.76496336805553,110.625L177.84964835069445,110.625L178.37054088541666,123.0703125L178.68371553819443,110.804765625L178.75561788194443,110.625L178.79716145833333,110.625L178.86586814236114,109.2421875L179.57690243055558,110.625L179.75905503472222,110.84625L179.92203368055556,110.625L180.3758173611111,125.8359375L180.60590486111113,110.625L181.09963428819444,110.625L181.95127760416668,110.625L182.18296293402778,110.625L182.5328876736111,125.8359375L182.9035842013889,110.625L183.08254114583332,114.7734375L183.1480521701389,114.7734375L183.17681310763888,110.625L183.39411796875,111.09515625L183.5634879340278,114.7734375L183.70409696180556,114.7734375L184.16746762152778,110.625L185.94904791666664,111.09515625L186.00017847222222,110.625L186.0129611111111,110.625L186.04491770833334,110.625L186.30376614583335,114.7734375L186.83424565972223,114.7734375L186.8757892361111,114.7734375L187.0803114583333,117.5390625L187.14742031249997,110.625L187.55806258680553,109.670859375L187.9814875,111.28875L188.0230310763889,118.921875L188.13168350694446,110.625L188.15245529513888,110.625L188.46882560763888,110.70796875L188.48480390625,110.625L188.73246753472222,110.625L189.01208776041668,110.625L189.84295928819444,110.625L189.9052746527778,110.625L190.5523957465278,110.625L190.69620043402776,110.625L191.60376779513888,110.625L191.66128967013887,110.625L192.7110638888889,110.625L193.22716293402777,110.625L193.30226093750002,110.625L193.6649683159722,110.625L193.6873379340278,110.625L194.2337957465278,123.0703125L194.34244817708333,-93.67171875000003L194.39038307291665,110.625L194.3967743923611,110.625L195.39861371527778,110.625L195.40820069444445,114.7734375L195.631896875,110.625L195.65266866319442,110.625L195.90991927083334,110.625L195.98661510416667,110.625L196.11603932291666,110.625L196.16876770833335,110.625L196.17675685763888,110.625L196.5043119791667,114.7734375L197.07313940972222,114.7734375L197.2137484375,110.625L197.8880326388889,110.625L197.89921744791667,110.625L198.11971796875,110.625L198.92502421875,-93.75468749999999L199.03207881944445,125.07539062500001L200.15695104166664,110.625L200.48131050347223,-85.47164062500002L200.59475642361113,110.625L200.75933289930558,110.625L200.98622473958332,-92.302734375L201.13002942708334,110.625L201.13482291666668,110.625L201.86183550347224,109.51875L201.97847708333333,110.625L202.65915260416668,110.625L202.7342506076389,110.76328125L203.87829678819446,110.625L204.30331953125,110.625L204.5030482638889,110.625L204.7938532986111,110.625L205.43618090277778,110.625L205.47772447916668,125.8359375L205.90913854166666,124.453125L206.13762821180555,110.625L206.27344374999998,125.8359375L206.4012701388889,125.87742187500001L206.47956380208333,110.625L207.0947282986111,110.625L207.30723967013887,110.625L207.55170763888887,110.625L207.68912100694445,110.625L207.71947977430557,110.625L207.7849907986111,115.24359375L208.09337196180556,110.625L208.26114409722223,110.625L208.4001552951389,110.625L208.74209088541667,114.82875L209.15912447916665,110.625L209.21824418402778,114.84257812499999L209.27576605902777,116.15625L209.42915772569444,110.625L209.63048428819445,115.063828125L209.9260828125,109.753828125L210.1529746527778,110.625L210.58279088541664,125.8359375L210.73458472222222,110.625L210.92153081597223,110.625L211.08131380208334,114.054375L211.3177926215278,110.625L211.40247760416665,110.915390625L211.8546634548611,125.8359375L211.86265260416667,110.625L212.07676180555555,110.625L212.51296935763887,110.625L212.52255633680554,110.625L212.71110026041669,110.625L212.71269809027777,-92.6484375L213.0194814236111,110.625L213.45409114583333,114.7734375L213.6761894965278,110.625L213.72092873263887,110.625L214.07564696180557,110.625L214.20666901041668,124.826484375L214.28176701388887,110.625L214.56777855902777,112.14609375L215.13820381944444,110.625L215.14139947916667,119.50265625L215.22288880208333,119.018671875L215.77254227430558,110.625L216.03458637152778,110.625L216.11607569444445,110.625L216.3269892361111,110.625L216.4867722222222,110.625L216.54269626736112,110.625L216.6401638888889,114.8840625L217.06838229166667,115.340390625L217.33681770833334,125.8359375L217.41191571180556,114.7734375L217.44706796875,110.625L217.45665494791666,110.625L217.96796050347223,110.887734375L218.23160243055554,110.625L218.61348376736112,110.625L218.72053836805557,110.625L219.08644140625,114.7734375L219.09123489583334,115.036171875L219.43956180555554,109.2421875L219.81505182291667,-96.796875L220.1665743923611,110.625L220.45258593749998,117.967734375L220.54366223958334,-84.3515625L220.55324921875,109.629375L220.78972803819443,110.625L220.89997829861113,110.625L221.0437829861111,110.625L221.26268567708334,114.7734375L221.59663211805557,123.360703125L221.69409973958335,110.625L221.94016553819444,110.625L222.25653585069443,110.625L222.40673185763887,109.698515625L222.50899296875,110.625L222.70872170138887,110.625L222.77742838541664,110.625L222.9547875,120.539765625L223.15451623263888,110.625L223.8000394965278,110.625L223.9310615451389,110.625L224.29536675347222,-92.6484375L224.8514115451389,110.625L225.1821623263889,110.625L225.60878289930554,110.625L225.88680529513888,110.625L225.92675104166665,114.7734375L226.0194251736111,110.625L226.7672095486111,114.7734375L226.77519869791666,110.625L226.78798133680556,110.721796875L226.85828585069444,110.625L226.9781230902778,110.625L227.02446015625,110.625L227.60447239583334,110.625L228.12376710069444,110.625L228.4305504340278,110.625L228.44013741319446,110.625L228.63986614583334,110.625L229.29497638888887,110.625L229.3956396701389,110.625L229.8014884548611,110.625L230.0715217013889,110.625L230.55726197916667,110.625L230.68668619791669,114.7734375L231.09732847222222,109.54640625L231.60543836805556,110.625L231.77800399305556,110.625L231.80356927083335,109.71234375L232.25096163194445,109.338984375L232.29410303819444,114.7734375L232.6008863715278,125.8359375L232.61207118055557,110.625L232.94122413194444,110.625L233.21125737847223,110.625L233.3103228298611,110.625L233.35825772569447,110.625L233.90471553819444,110.887734375L234.12841171875002,110.625L234.16516180555556,110.625L234.1843357638889,110.625L234.98005503472223,110.625L235.37312118055556,-92.6484375L235.38430598958334,110.625L236.00586180555555,110.625L236.06498151041666,110.625L236.24713411458333,110.625L236.38135182291666,110.625L236.58427621527778,110.625L236.6274176215278,110.625L236.96455972222222,-88.5L237.7842464409722,110.625L237.80182256944445,110.625L237.85774661458333,125.8359375L238.99220581597223,-93.685546875L239.17116276041668,110.625L239.41882638888887,110.625L239.64731605902776,110.625L239.8790013888889,118.921875L239.89497968749998,110.625L239.97167552083334,110.625L240.0100234375,110.625L240.39190477430554,125.8359375L240.45581796874998,110.625L240.48138324652777,110.625L240.59642699652778,110.625L241.16365659722223,109.670859375L241.37616796875002,110.625L241.38096145833336,110.625L241.75964713541669,110.625L241.9817454861111,110.625L242.19106119791667,110.625L242.2981157986111,110.625L242.37481163194445,110.625L242.5857251736111,110.625L242.7263342013889,110.625L243.1401721354167,110.625L243.4613359375,109.256015625L243.70899956597222,110.915390625L244.00619592013888,110.625L244.21710946180556,110.625L244.80191519097224,110.625L244.83227395833333,110.625L245.1534377604167,110.625L245.19338350694443,110.625L245.87405902777778,110.625L245.88524383680553,109.54640625L246.0657986111111,109.82296875L246.50200616319444,110.625L246.89667013888888,109.60171875L247.29612760416666,110.625L247.32648637152778,119.143125L247.39838871527778,110.625L247.59651961805554,110.625L248.96106631944443,110.638828125L249.1831646701389,110.625L249.60179609375,109.2421875L249.6992637152778,110.625L250.11310164930555,110.625L250.21696059027778,114.7734375L250.5780701388889,110.625L250.66595078125002,110.625L250.71708133680556,109.670859375L250.72027699652776,110.625L250.7394509548611,110.625L251.11973446180554,110.625L251.16127803819444,110.625L251.31946319444444,-73.26140625L251.50001796874997,110.625L251.9569973090278,110.625L252.4075853298611,110.625L252.51623776041666,110.625L252.76230355902777,110.625L252.8118362847222,110.625L253.28798958333334,110.625L253.40463116319447,109.54640625L253.59157725694445,110.625L253.89836059027778,110.625L254.20035043402777,110.625L254.3633290798611,114.7734375L254.5055359375,110.625L254.75799305555554,125.8359375L254.89221076388887,129.62484375L254.96091744791664,-88.26492187500003L255.99311553819444,109.919765625L256.0410504340278,110.625L256.4245296006944,125.8359375L257.02211796875,-92.6484375L257.2569989583333,119.322890625L257.3768361979167,110.625L257.6932065104167,110.625L257.9392723090278,-88.5L257.97442456597224,110.625L258.23007734375,110.625L258.3227514756945,109.54640625L258.7461763888889,125.86359375L258.8532309895833,110.625L259.11207942708336,125.8359375L259.7512113715278,119.101640625L259.96532057291665,110.625L260.63640911458333,110.625L260.7019201388889,110.625L260.77062682291665,110.625L260.90324670138887,109.864453125L260.91762717013887,109.532578125L261.3314651041667,110.625L261.43053055555555,110.625L261.80122708333334,110.625L261.8843142361111,109.864453125L262.2118693576389,110.65265625L262.49628307291664,110.625L262.63529427083336,125.8359375L262.8238381944444,110.625L263.09706710069446,110.625L263.40704609375,110.625L263.8512427951389,110.625L263.9471125868056,109.2421875L264.22833064236113,115.146796875L264.63897291666666,110.625L264.69329913194446,125.86359375L264.7779841145833,110.625L264.77958194444443,109.836796875L265.1918220486111,109.587890625L265.31325711805556,110.625L265.32603975694445,110.625L265.57210555555554,123.23625L265.7095189236111,110.625L265.7382798611111,110.625L265.8980628472222,114.15117187499999L266.30231380208335,110.625L266.3342703993056,110.625L266.54997743055554,110.625L267.0724677951389,110.625L267.1587506076389,110.625L267.3936315972222,110.625L267.88736102430556,110.625L268.07270928819446,110.625L268.1957421875,110.625L268.6686998263889,125.8359375L269.33819053819445,123.0703125L269.835115625,118.921875L270.0348443576389,110.625L270.2265839409722,110.625L270.31606241319446,114.7734375L270.55733472222227,109.43578125L270.7938135416667,110.625L270.9679769965278,110.625L271.2412059027778,110.625L271.2683690104167,110.625L271.51443480902776,108.453984375L271.7221526909722,110.625L272.02893602430555,113.80546874999999L272.0752730902778,110.625L272.42040434027774,110.625L272.7415681423611,-84.3515625L273.0004165798611,110.625L273.8488642361111,110.625L273.9223644097222,125.8359375L274.22914774305553,110.625L274.4544417534722,110.625L274.55031154513887,110.625L274.64618133680557,110.625L274.7372576388889,115.368046875L274.9273993923611,123.0703125L275.06321493055555,110.625L275.52978125,110.625L275.5345747395833,121.867265625L275.66719461805553,110.625L275.68796640625,110.625L275.95799965277774,109.6846875L276.12257612847225,110.625L276.29194609375,129.984375L276.4980661458333,110.625L276.5060552951389,110.625L277.0381326388889,110.625L277.0780783854167,-84.33773437500003L277.0812740451389,110.625L277.08606753472225,110.625L277.09565451388886,-92.6484375L277.10524149305553,-287.611171875L277.11163281250003,110.625L277.1164263020833,114.7734375L277.12441545138887,110.625L277.12761111111115,110.625L277.1324046006945,110.1825L277.1419915798611,-88.5L277.1435894097222,120.60890624999999L277.14678506944443,110.625L277.15157855902777,110.625L277.1563720486111,110.625L277.1579698784722,109.74L277.1595677083333,125.8359375L277.17394817708333,110.625L277.17554600694444,110.625L277.17714383680556,110.625L277.17874166666667,-88.5L277.1819373263889,115.13296875L277.1851329861111,109.477265625L277.18992647569445,110.625L277.19152430555556,118.921875L277.197915625,118.921875L277.20111128472223,110.625L277.20270911458334,110.625L277.20430694444445,110.625L277.20590477430557,110.625L277.21868741319446,120.99609375L277.23306788194446,110.625L277.2362635416667,110.735625L277.24105703124997,109.93359375L277.2490461805556,110.625L277.2538396701389,109.65703125L277.25543749999997,110.625L277.2602309895833,-292.60312500000003L277.2618288194444,110.625L277.26662230902775,110.625L277.2714157986111,110.625L277.2746114583333,110.625L277.2778071180556,110.625L277.2826006076389,110.625L277.2873940972222,110.625L277.2889919270833,-88.5L277.2905897569444,110.625L277.29378541666665,110.625L277.30656805555554,110.625L277.30976371527777,110.625L277.312959375,109.421953125L277.3161550347222,110.625L277.3241441840278,110.625L277.33213333333333,110.625L277.3385246527778,110.625L277.3401224826389,110.625" style="fill: none;" fill="none"></path></g></g></g></g></g></g><g transform="translate(42, 177)" clip-path="url(#clip_1)"><clipPath id="clip_1"><rect width="287" height="23"></rect></clipPath><g><g><line x1="0" y1="0" x2="0" y2="5" style="visibility: inherit;" fill="rgb(0, 0, 0)" stroke="rgb(204, 204, 204)" stroke-width="1px"></line><line x1="31.95659722222222" y1="0" x2="31.95659722222222" y2="5" style="visibility: inherit;" fill="rgb(0, 0, 0)" stroke="rgb(204, 204, 204)" stroke-width="1px"></line><line x1="63.91319444444444" y1="0" x2="63.91319444444444" y2="5" style="visibility: inherit;" fill="rgb(0, 0, 0)" stroke="rgb(204, 204, 204)" stroke-width="1px"></line><line x1="95.86979166666666" y1="0" x2="95.86979166666666" y2="5" style="visibility: inherit;" fill="rgb(0, 0, 0)" stroke="rgb(204, 204, 204)" stroke-width="1px"></line><line x1="127.82638888888889" y1="0" x2="127.82638888888889" y2="5" style="visibility: inherit;" fill="rgb(0, 0, 0)" stroke="rgb(204, 204, 204)" stroke-width="1px"></line><line x1="159.78298611111111" y1="0" x2="159.78298611111111" y2="5" style="visibility: inherit;" fill="rgb(0, 0, 0)" stroke="rgb(204, 204, 204)" stroke-width="1px"></line><line x1="191.73958333333331" y1="0" x2="191.73958333333331" y2="5" style="visibility: inherit;" fill="rgb(0, 0, 0)" stroke="rgb(204, 204, 204)" stroke-width="1px"></line><line x1="223.69618055555557" y1="0" x2="223.69618055555557" y2="5" style="visibility: inherit;" fill="rgb(0, 0, 0)" stroke="rgb(204, 204, 204)" stroke-width="1px"></line><line x1="255.65277777777777" y1="0" x2="255.65277777777777" y2="5" style="visibility: inherit;" fill="rgb(0, 0, 0)" stroke="rgb(204, 204, 204)" stroke-width="1px"></line><line x1="287.609375" y1="0" x2="287.609375" y2="5" style="visibility: inherit;" fill="rgb(0, 0, 0)" stroke="rgb(204, 204, 204)" stroke-width="1px"></line></g><g transform="translate(0, 8)"><text x="0" y="0" dx="0em" dy="0.95em" style="text-anchor: middle; visibility: hidden; font-family: &quot;Helvetica Neue&quot;, sans-serif; font-size: 12px; font-weight: 200;" fill="rgb(50, 49, 63)" stroke="none" stroke-width="1px">-20k</text><text x="31.95659722222222" y="0" dx="0em" dy="0.95em" style="text-anchor: middle; visibility: inherit; font-family: &quot;Helvetica Neue&quot;, sans-serif; font-size: 12px; font-weight: 200;" fill="rgb(50, 49, 63)" stroke="none" stroke-width="1px">0</text><text x="63.91319444444444" y="0" dx="0em" dy="0.95em" style="text-anchor: middle; visibility: inherit; font-family: &quot;Helvetica Neue&quot;, sans-serif; font-size: 12px; font-weight: 200;" fill="rgb(50, 49, 63)" stroke="none" stroke-width="1px">20k</text><text x="95.86979166666666" y="0" dx="0em" dy="0.95em" style="text-anchor: middle; visibility: inherit; font-family: &quot;Helvetica Neue&quot;, sans-serif; font-size: 12px; font-weight: 200;" fill="rgb(50, 49, 63)" stroke="none" stroke-width="1px">40k</text><text x="127.82638888888889" y="0" dx="0em" dy="0.95em" style="text-anchor: middle; visibility: inherit; font-family: &quot;Helvetica Neue&quot;, sans-serif; font-size: 12px; font-weight: 200;" fill="rgb(50, 49, 63)" stroke="none" stroke-width="1px">60k</text><text x="159.78298611111111" y="0" dx="0em" dy="0.95em" style="text-anchor: middle; visibility: inherit; font-family: &quot;Helvetica Neue&quot;, sans-serif; font-size: 12px; font-weight: 200;" fill="rgb(50, 49, 63)" stroke="none" stroke-width="1px">80k</text><text x="191.73958333333331" y="0" dx="0em" dy="0.95em" style="text-anchor: middle; visibility: inherit; font-family: &quot;Helvetica Neue&quot;, sans-serif; font-size: 12px; font-weight: 200;" fill="rgb(50, 49, 63)" stroke="none" stroke-width="1px">100k</text><text x="223.69618055555557" y="0" dx="0em" dy="0.95em" style="text-anchor: middle; visibility: inherit; font-family: &quot;Helvetica Neue&quot;, sans-serif; font-size: 12px; font-weight: 200;" fill="rgb(50, 49, 63)" stroke="none" stroke-width="1px">120k</text><text x="255.65277777777777" y="0" dx="0em" dy="0.95em" style="text-anchor: middle; visibility: inherit; font-family: &quot;Helvetica Neue&quot;, sans-serif; font-size: 12px; font-weight: 200;" fill="rgb(50, 49, 63)" stroke="none" stroke-width="1px">140k</text><text x="287.609375" y="0" dx="0em" dy="0.95em" style="text-anchor: middle; visibility: hidden; font-family: &quot;Helvetica Neue&quot;, sans-serif; font-size: 12px; font-weight: 200;" fill="rgb(50, 49, 63)" stroke="none" stroke-width="1px">160k</text></g><line x1="0" y1="0" x2="287.609375" y2="0" fill="rgb(0, 0, 0)" stroke="rgb(204, 204, 204)" stroke-width="1px"></line></g></g></g></g></svg>