<svg viewBox="0 0 330 200" xmlns="http://www.w3.org/2000/svg"><g><g><g><g><g><line x1="72.34375" y1="177" x2="67.34375" y2="177" style="visibility: inherit;" fill="rgb(0, 0, 0)" stroke="rgb(204, 204, 204)" stroke-width="1px"></line><line x1="72.34375" y1="151.71428571428572" x2="67.34375" y2="151.71428571428572" style="visibility: inherit;" fill="rgb(0, 0, 0)" stroke="rgb(204, 204, 204)" stroke-width="1px"></line><line x1="72.34375" y1="126.42857142857143" x2="67.34375" y2="126.42857142857143" style="visibility: inherit;" fill="rgb(0, 0, 0)" stroke="rgb(204, 204, 204)" stroke-width="1px"></line><line x1="72.34375" y1="101.14285714285714" x2="67.34375" y2="101.14285714285714" style="visibility: inherit;" fill="rgb(0, 0, 0)" stroke="rgb(204, 204, 204)" stroke-width="1px"></line><line x1="72.34375" y1="75.85714285714286" x2="67.34375" y2="75.85714285714286" style="visibility: inherit;" fill="rgb(0, 0, 0)" stroke="rgb(204, 204, 204)" stroke-width="1px"></line><line x1="72.34375" y1="50.57142857142857" x2="67.34375" y2="50.57142857142857" style="visibility: inherit;" fill="rgb(0, 0, 0)" stroke="rgb(204, 204, 204)" stroke-width="1px"></line><line x1="72.34375" y1="25.285714285714295" x2="67.34375" y2="25.285714285714295" style="visibility: inherit;" fill="rgb(0, 0, 0)" stroke="rgb(204, 204, 204)" stroke-width="1px"></line><line x1="72.34375" y1="0" x2="67.34375" y2="0" style="visibility: inherit;" fill="rgb(0, 0, 0)" stroke="rgb(204, 204, 204)" stroke-width="1px"></line></g><g transform="translate(62.34375, 0)"><text x="0" y="177" dx="0em" dy="0.3em" style="text-anchor: end; visibility: hidden; font-family: Roboto, sans-serif; font-size: 12px; font-weight: 200;" fill="rgb(33, 33, 33)" stroke="none" stroke-width="1px">-5e+3</text><text x="0" y="151.71428571428572" dx="0em" dy="0.3em" style="text-anchor: end; visibility: inherit; font-family: Roboto, sans-serif; font-size: 12px; font-weight: 200;" fill="rgb(33, 33, 33)" stroke="none" stroke-width="1px">0</text><text x="0" y="126.42857142857143" dx="0em" dy="0.3em" style="text-anchor: end; visibility: inherit; font-family: Roboto, sans-serif; font-size: 12px; font-weight: 200;" fill="rgb(33, 33, 33)" stroke="none" stroke-width="1px">5e+3</text><text x="0" y="101.14285714285714" dx="0em" dy="0.3em" style="text-anchor: end; visibility: inherit; font-family: Roboto, sans-serif; font-size: 12px; font-weight: 200;" fill="rgb(33, 33, 33)" stroke="none" stroke-width="1px">1e+4</text><text x="0" y="75.85714285714286" dx="0em" dy="0.3em" style="text-anchor: end; visibility: inherit; font-family: Roboto, sans-serif; font-size: 12px; font-weight: 200;" fill="rgb(33, 33, 33)" stroke="none" stroke-width="1px">1.5e+4</text><text x="0" y="50.57142857142857" dx="0em" dy="0.3em" style="text-anchor: end; visibility: inherit; font-family: Roboto, sans-serif; font-size: 12px; font-weight: 200;" fill="rgb(33, 33, 33)" stroke="none" stroke-width="1px">2e+4</text><text x="0" y="25.285714285714295" dx="0em" dy="0.3em" style="text-anchor: end; visibility: inherit; font-family: Roboto, sans-serif; font-size: 12px; font-weight: 200;" fill="rgb(33, 33, 33)" stroke="none" stroke-width="1px">2.5e+4</text><text x="0" y="0" dx="0em" dy="0.3em" style="text-anchor: end; visibility: hidden; font-family: Roboto, sans-serif; font-size: 12px; font-weight: 200;" fill="rgb(33, 33, 33)" stroke="none" stroke-width="1px">3e+4</text></g><line x1="72.34375" y1="0" x2="72.34375" y2="177" fill="rgb(0, 0, 0)" stroke="rgb(204, 204, 204)" stroke-width="1px"></line></g></g><g transform="translate(72, 0)" clip-path="url(#clip_0)"><clipPath id="clip_0"><rect width="257" height="177"></rect></clipPath><g><g><g><line x1="0" y1="0" x2="0" y2="177" fill="rgb(0, 0, 0)" stroke="rgb(66, 66, 66)" stroke-width="1px" opacity="0.25"></line><line x1="25.765625" y1="0" x2="25.765625" y2="177" fill="rgb(0, 0, 0)" stroke="rgb(66, 66, 66)" stroke-width="1px" opacity="0.25"></line><line x1="51.53125" y1="0" x2="51.53125" y2="177" fill="rgb(0, 0, 0)" stroke="rgb(66, 66, 66)" stroke-width="1px" opacity="0.25"></line><line x1="77.296875" y1="0" x2="77.296875" y2="177" fill="rgb(0, 0, 0)" stroke="rgb(66, 66, 66)" stroke-width="1px" opacity="0.25"></line><line x1="103.0625" y1="0" x2="103.0625" y2="177" fill="rgb(0, 0, 0)" stroke="rgb(66, 66, 66)" stroke-width="1px" opacity="0.25"></line><line x1="128.828125" y1="0" x2="128.828125" y2="177" fill="rgb(0, 0, 0)" stroke="rgb(66, 66, 66)" stroke-width="1px" opacity="0.25"></line><line x1="154.59375" y1="0" x2="154.59375" y2="177" fill="rgb(0, 0, 0)" stroke="rgb(66, 66, 66)" stroke-width="1px" opacity="0.25"></line><line x1="180.359375" y1="0" x2="180.359375" y2="177" fill="rgb(0, 0, 0)" stroke="rgb(66, 66, 66)" stroke-width="1px" opacity="0.25"></line><line x1="206.125" y1="0" x2="206.125" y2="177" fill="rgb(0, 0, 0)" stroke="rgb(66, 66, 66)" stroke-width="1px" opacity="0.25"></line><line x1="231.890625" y1="0" x2="231.890625" y2="177" fill="rgb(0, 0, 0)" stroke="rgb(66, 66, 66)" stroke-width="1px" opacity="0.25"></line><line x1="257.65625" y1="0" x2="257.65625" y2="177" fill="rgb(0, 0, 0)" stroke="rgb(66, 66, 66)" stroke-width="1px" opacity="0.25"></line></g><g><line x1="0" y1="177" x2="257.65625" y2="177" fill="rgb(0, 0, 0)" stroke="rgb(66, 66, 66)" stroke-width="1px" opacity="0.25"></line><line x1="0" y1="151.71428571428572" x2="257.65625" y2="151.71428571428572" fill="rgb(0, 0, 0)" stroke="rgb(66, 66, 66)" stroke-width="1px" opacity="0.25"></line><line x1="0" y1="126.42857142857143" x2="257.65625" y2="126.42857142857143" fill="rgb(0, 0, 0)" stroke="rgb(66, 66, 66)" stroke-width="1px" opacity="0.25"></line><line x1="0" y1="101.14285714285714" x2="257.65625" y2="101.14285714285714" fill="rgb(0, 0, 0)" stroke="rgb(66, 66, 66)" stroke-width="1px" opacity="0.25"></line><line x1="0" y1="75.85714285714286" x2="257.65625" y2="75.85714285714286" fill="rgb(0, 0, 0)" stroke="rgb(66, 66, 66)" stroke-width="1px" opacity="0.25"></line><line x1="0" y1="50.57142857142857" x2="257.65625" y2="50.57142857142857" fill="rgb(0, 0, 0)" stroke="rgb(66, 66, 66)" stroke-width="1px" opacity="0.25"></line><line x1="0" y1="25.285714285714295" x2="257.65625" y2="25.285714285714295" fill="rgb(0, 0, 0)" stroke="rgb(66, 66, 66)" stroke-width="1px" opacity="0.25"></line><line x1="0" y1="0" x2="257.65625" y2="0" fill="rgb(0, 0, 0)" stroke="rgb(66, 66, 66)" stroke-width="1px" opacity="0.25"></line></g></g></g><g><g><line x1="0" y1="151.71428571428572" x2="257.65625" y2="151.71428571428572" fill="rgb(0, 0, 0)" stroke="rgb(153, 153, 153)" stroke-width="1.5px"></line></g></g><g><g><line x1="25.765625" y1="0" x2="25.765625" y2="177" fill="rgb(0, 0, 0)" stroke="rgb(153, 153, 153)" stroke-width="1.5px"></line></g></g><g><g><g><g><g><path stroke="rgb(255, 112, 67)" stroke-width="2px" d="M25.845498437499998,151.46142857142857L25.9382546875,151.1848660714286L26.0310109375,151.2130867346939L26.05291171875,150.98586889443277L26.13020859375,150.89053689154358L26.16885703125,150.81842181985576L26.177875,150.40666951987146L26.342775,150.4114389631118L26.3453515625,150.1077312755475L26.355657812500002,149.81299949208218L26.37755859375,149.63730513844962L26.420071875,149.93775137484437L26.5050984375,150.2821720908365L26.538593749999997,150.2734392682413L26.5875484375,150.4958824360965L26.61460234375,150.42693858326786L26.653250781249998,150.3223597339693L26.785943749999998,150.38606516744554L26.79753828125,150.3357788933671L26.80011484375,150.38146900652316L26.8039796875,150.4720976777449L26.820727343749997,150.6908329142488L26.91606015625,150.7841433425928L26.963726562500003,150.90334371322965L26.966303125,150.29214734743175L26.974032812500003,150.55757457551513L27.03329375,150.52718757135113L27.08353671875,150.5342411185708L27.1080140625,150.4626160733232L27.12991484375,150.67249826182197L27.20463515625,150.43178463944957L27.222671093749998,150.52757079129304L27.350210937499998,149.86439958596523L27.3734,150.14921118831077L27.45713828125,150.26952671505478L27.491921875,150.37964460159725L27.533146875,150.38250104669032L27.6903171875,150.2704291990266L27.7985328125,150.05147180464243L27.8062625,149.80631165388633L27.91318984375,150.16492984976227L27.92091953125,150.38010076710376L28.02655859375,150.39541760312383L28.04330625,150.5563219904736L28.12189140625,150.31150747997302L28.141215625,150.39219020227455L28.152810156250002,150.3394569785056L28.155386718749998,150.68710275853974L28.2004765625,150.49111879797834L28.204341406250002,150.44938556450097L28.31771015625,150.386417052986L28.378259375,150.39920737464877L28.3962953125,150.48906013907515L28.4066015625,150.27115036915913L28.432367187500002,150.36797593578126L28.656528125,150.23010699004013L28.659104687499998,150.21059990830977L28.79179765625,150.3316456592716L28.826581249999997,150.50541596699156L28.83559921875,150.24303529448062L28.85621171875,149.96549974811694L28.927067187499997,149.9696569917273L29.0404359375,149.89629419503638L29.07006640625,149.82699080273613L29.09067890625,149.7980516244988L29.126750781250003,150.04618811755643L29.1538046875,150.13817715624813L29.1873,149.83304915089175L29.294227343750002,150.0924723476779L29.3290109375,150.21019769432104L29.336740625,150.0406186165926L29.47973984375,149.87565688424127L29.488757812499998,149.78932270197333L29.4939109375,149.6363793354697L29.54801875,149.84804188699613L29.6072796875,150.08882513219768L29.7051890625,150.1700807936043L29.728378125,149.96597704759117L29.75414375,149.84351479998327L29.790215625000002,149.85853745141853L29.82242265625,150.01926532799396L29.83015234375,149.53413062536782L29.8752421875,149.19247837522067L29.87653046875,149.40470131084672L29.925485156249998,149.51939221507945L30.149646093749997,149.68934961476197L30.16252890625,149.61432405457145L30.1689703125,149.55666586131431L30.1792765625,149.61057094536L30.2153484375,149.64291399578744L30.21921328125,149.73817696890103L30.3544828125,150.01026332419778L30.362212500000002,149.9080151373758L30.384113281250002,149.85298765385406L30.40214921875,150.0665068780267L30.44852734375,149.98601126967316L30.462698437500002,149.9946067618039L30.47686953125,149.46876405708235L30.51809453125,149.36818700567798L30.5296890625,149.37105506054965L30.578643749999998,149.49920446490123L30.6507875,149.6266655360836L30.67268828125,149.51349932165016L30.7152015625,149.57202816441864L30.836299999999998,149.64507404150834L30.93549765625,149.29697299633358L30.975434375,149.73289808351444L30.9805875,149.58988170725152L31.119721875,149.65578616720805L31.12873984375,149.49304312889626L31.2408203125,149.61032587733777L31.243396875000002,149.61748124068836L31.28591015625,149.72291731584158L31.292351562500002,149.7798575323621L31.321982031250002,149.64334309084583L31.40185546875,149.46029156879322L31.41216171875,149.2493177984188L31.480440625,149.50201925047983L31.539701562500003,149.60306869314505L31.5706203125,149.54991264445846L31.6582234375,149.41687615810366L31.738096875,149.1474114091479L31.754844531249997,149.04894684548876L31.807664062500002,149.31858239300755L31.8901140625,149.45507800723308L31.91459140625,149.35997537576844L32.05114921875,149.4293423683182L32.20703125,149.4583197067052L32.2147609375,149.23549182402311L32.222490625,149.2408665229853L32.275310156249994,149.6233770566483L32.29334609375,149.511526233989L32.302364062500004,149.62141574039342L32.411867968749995,149.82642087280746L32.610263281250006,149.84828109511304L32.705596093749996,149.7096829427821L32.70817265625,149.42423833709785L32.77516328125,149.37940014511585L32.851171875,149.26399722992664L33.021225,149.22004119509884L33.02251328125,149.05459614563074L33.0392609375,149.39782911594986L33.049567187499996,149.21184032671277L33.160359375,148.98646133888482L33.299493749999996,149.3316625176166L33.36004296875,149.0330689391414L33.39096171875,149.44812707777055L33.57905078125,148.83744767523376L33.6164109375,149.01468289085454L33.661500781250005,149.17159544879843L33.71045546875,148.9623144121362L33.87664375000001,148.912602932996L33.996453906250004,149.00920461694048L34.057003125,148.82695134159286L34.08663359375,148.93252794781284L34.30306484375,148.85680248297342L34.324965625000004,148.84929577549835L34.42416328125,148.95857746529902L34.48857734375,148.85978933632225L34.65605390625,148.87637360179335L34.80034140625,148.8357527325046L34.829971875,148.72288021093132L34.96781796875,148.98387098370165L35.042538281249996,148.773822590221L35.10952890625,148.68572212556117L35.11468203125,148.69607613247956L35.2396453125,148.50000282234487L35.32338359375,148.54671597912122L35.3530140625,148.3724581589013L35.36976171875,148.86211775248364L35.50631953125,148.9283420800616L35.704714843750004,148.82900524803696L35.89538046875,148.7567602916793L35.901821874999996,148.511127603579L35.940470312500004,148.13617656214743L35.980407031249996,148.13877736585988L36.1002171875,148.00126641951593L36.2573875,148.03254556599526L36.32308984375,148.03867019674001L36.33597265625,148.3331306894726L36.36689140625,148.49716412796928L36.377197656250004,148.2921556196387L36.400386718750006,148.50418622892607L36.551115625,148.7641545944985L36.621971093750005,148.27534989955626L36.62454765625,148.14642422544804L36.69926796875,148.66328310669738L36.717303906249995,148.34125557830416L36.777853125,147.98368191841107L36.839690624999996,148.08520915104663L37.0174734375,148.07026834777082L37.01876171875,147.9854467229482L37.1205359375,146.75876803376892L37.2287515625,146.93304653454706L37.3369671875,147.44218506358538L37.33825546875,147.43159675243695L37.406534375,147.324100908605L37.44131796875,147.6388891165916L37.468371874999995,147.92890489852638L37.46966015625,148.01441436768724L37.71185703125,147.96457719204093L37.803324999999994,147.80824631522455L37.839396875,147.73973350342047L37.9038109375,147.92619724490942L37.93859453125,146.24278977551708L38.20398046875,146.87631672245308L38.24005234375,146.99093289061472L38.292871875,147.54013116294027L38.3006015625,146.0111501263356L38.3263671875,144.8788329329442L38.3572859375,145.64072833119508L38.4603484375,146.56565128443134L38.508014843750004,147.24703362780167L38.58788828125,147.23864874810957L38.675491406249996,146.98076067743716L38.7283109375,147.597242120748L38.81204921875,147.84070241530594L38.8932109375,147.88563573489787L38.940877343749996,146.04145286951012L38.96921953125,146.59115743599182L39.0478046875,145.69462303302365L39.117371875,144.37284524838563L39.23202890625,145.40035000617422L39.34797421875,146.09271000370452L39.412388281249996,146.9885545736513L39.41754140625,147.43756131561935L39.51029765625,147.47939393222876L39.6558734375,147.87113635933724L39.87488125,147.66368181560236L39.9650609375,147.71620908936143L40.07198828125,147.43165402504542L40.105483593749994,147.41263527217012L40.158303124999996,147.23686687758777L40.364428124999996,147.21990584083838L40.7792546875,143.98580064736015L41.06396484375,145.30719467413041L41.075559375000005,144.34267394733536L41.0807125,142.4617472255441L41.250765625,140.6884054781836L41.386035156249996,143.40461471548159L41.425971875,141.5196259721461L41.47879140625,140.37598986900193L41.66172734375,141.3586653499726L41.7222765625,142.22641349569784L41.920671875000004,140.83799095456155L41.930978124999996,138.00736600130836L41.982509375,138.42034817221358L42.0520765625,136.784351760471L42.092013281250004,137.54746819913973L42.263354687500005,135.55262377662672L42.322615625,136.4417885516903L42.3509578125,140.37621598815704L42.39089453125,137.41422959289423L42.5673890625,137.2679663271651L42.6343796875,137.7238512248705L42.737442187499994,137.99738216349374L42.889459375,138.02242929809623L42.91393671875,138.631671864572L43.16386328125,138.80757454731466L43.219259375,138.78668758553164L43.34164609375,140.7337982656047L43.398330468750004,136.99663610221998L43.518140625,133.91991023276054L43.712671093750004,133.71744613965632L43.844075781250005,133.2672533980795L43.8840125,131.56849489599054L44.41349609375,130.9032397947372L44.559071875,130.4661581625566L44.58870234374999,130.1912663261054L44.60158515625,128.90111693852037L44.7059359375,128.68331302025507L44.708512500000005,128.66641638358163L44.865682812500005,130.61592125872042L44.9996640625,131.00176704094653L45.06923125,129.58970308171075L45.110456250000006,130.8158932775979L45.18646484375,132.61360739513015L45.22253671875,131.46709300850668L45.40804921875,132.334255805104L45.5742375,131.27419634020526L45.6438046875,130.27151780412316L45.68760625,129.0883392539025L45.703065625,128.92207498091292L45.733984375,130.69345927426204L45.759750000000004,132.42636127884293L45.9736046875,138.0112096244486L46.0689375,136.53886863181205L46.12175703125,133.61996403623007L46.36653046875,139.1256212788809L46.4270796875,140.1280156244714L46.455421875,143.25802366039713L46.559772656250004,144.98431419623827L46.723384375,147.01887423202868L46.90503203125,145.52139596778864L46.94625703125,146.8101232949589L47.032571875,145.3835025484039L47.149805468749996,144.09767295761378L47.20133671875,141.442389488854L47.38169609375,142.69386226474094L47.70634296874999,139.297888787416L47.855783593750004,135.6420189867353L48.0812328125,134.54842567775546L48.171412499999995,131.94526969236756L48.2873578125,130.99023324399195L48.420050781250005,130.60685423210947L48.56949140625,129.8331839678371L48.6326171875,130.16548180927367L48.635193750000006,130.01086051413566L48.836165625,129.96865916562425L48.999777343750004,129.42498121366026L49.144064843749995,129.2378458710533L49.22909140625001,129.138207522632L49.33215390625,133.23792451357917L49.357919531250005,129.51539756529036L49.40945078125,131.74480996774565L49.5704859375,130.21252883779027L49.60526953125,130.3930887312456L49.6142875,130.3244246673188L49.856484375,130.87744051467698L49.9002859375,129.76164288023477L49.9054390625,128.12498572814084L49.99433046875,128.9382771511702L50.12573515625,130.20378771927358L50.258428125,129.553415488707L50.352472656249994,126.77369215036705L50.3537609375,131.38935814736308L50.38339140625,132.98297203127498L50.38596796875,130.9807117901936L50.3949859375,130.6137842169733L50.629453125000005,130.39362767304112L50.67583125,130.33739088953897L50.90385703125,129.35543453372338L50.925757812499995,127.48933214880546L50.9412171875,128.24081357499756L51.63560078125,124.7724167164271L52.06846328125,124.91652145842768L52.211462499999996,123.39734144648519L52.475560156250005,122.48583343931969L52.5232265625,125.22607149216324L52.805360156249996,118.3110000381551L53.100376562499996,115.56531430860736L53.2395109375,111.85711715659298L53.3245375,116.95241315109864L53.405699218749994,116.50751931923062L53.528085937499995,118.56686873439551L53.68654453125,113.9741212406373L53.74065234375,107.83018703009665L53.82954375,105.44604078948657L53.856597656249996,105.65912447369193L54.0485515625,103.83997468421516L54.23019921875,103.87369909624339L54.32553203125,105.23407660060316L54.7674125,109.4891602460762L54.99286171875001,104.60821043336L55.47854375,103.70249768858743L55.6923984375,98.96164147029532L55.8985234375,99.5117348821772L56.07244140625,94.68982664359204L56.12912578125,95.52632455758379L56.25022421875,96.38222330597887L56.3571515625,96.55440541215873L56.4705203125,96.79678610443811L56.720446875,100.63392880552L56.8003203125,104.90850014045485L56.969085156249996,102.2770286557015L57.235759375,105.86907433627803L57.8799,102.28444460176681L58.39392421875,104.62188104677438L58.45576171875,104.08998577092176L58.47379765625,116.52749146255306L58.70311171875,116.22728059181756L58.83193984375,106.72936835509053L58.95046171875,103.02819244162575L59.1501453125,99.05012975068975L59.40908984375,100.69636356469957L59.68220546875,98.10617528167688L59.850970312499996,93.391348026149L60.18205859375,92.9393088156894L60.7063890625,93.55308528941363L60.84938828125,86.62642260221962L60.876442187500004,87.37585356133177L61.0104234375,89.92422642251333L61.91350859375,86.62367871065086L61.98822890625,85.95820722639053L62.1054625,81.07071005012001L62.18147109375,84.58606888721488L62.256191406250004,82.7633556180432L62.5718203125,82.2639419422545L62.770215625,82.97572230820984L62.99824140625,82.4419333849259L63.39245546875,79.47930288809839L63.803417187499996,83.5174388757162L63.88973203125,91.70546332542972L63.9477046875,87.52806370954355L64.02886640625,89.91440965429756L64.0662265625,90.7140743640071L64.10487499999999,84.84715890411854L64.3187296875,82.43958105675684L64.36639609375,83.0052486340541L64.52614296875001,82.18150632328961L64.5557734375,83.4319752225452L64.65754765624999,84.46039941924141L64.769628125,81.53745393725912L64.82373593749999,79.26532950521262L65.0195546875,77.699769131699L65.77835234375,77.43050433616226L65.87110859375001,78.57115974455449L66.20477343750001,83.11162441816127L66.20992656249999,84.33140322232533L66.46887109375,80.52448479053807L66.48433046875,81.80561944575143L66.58223984375,82.42258595316514L66.78321171875,79.66998014332765L67.02025546875,81.81127380028232L67.37839765625,81.28812142302652L67.63347734374999,79.48237285381592L67.686296875,77.46335228371812L67.830584375,78.78051137023087L67.995484375,77.81344967928139L68.00321406249999,78.18774837899741L68.01480859375,77.19229188454129L68.07149296875001,76.62030370215336L68.61514765625,81.78939650700629L68.9153171875,81.79335218991807L68.93464140625,78.96372559966514L68.9926140625,77.82223535979908L69.18585625,84.41962693016517L69.23867578125,82.72670472952768L69.29536015625,87.1094514091452L69.34946796874999,85.99681370262995L69.51952109375,83.96380250729226L69.77717734375,85.6771386472325L70.00906796875,83.74671175976808L70.12758984375,81.27359848443227L70.22034609375001,79.04380194780224L70.2345171875,77.3519240258242L70.5978125,78.27115441549451L70.62357812500001,78.65833550643957L70.76142421875001,86.42578701814946L70.932765625,82.60290078231826L70.94178359375,83.36874046939096L70.9817203125,82.43752999592029L71.04742265625,85.21651799755217L71.30250234375,86.7954107985313L71.3166734375,82.67296076483308L71.35661015625,79.65584788747128L71.45967265625,81.76486587533992L71.6722390625,86.4185623823468L71.72119375,84.06513742940807L71.83069765625,80.44058245764485L71.9582375,79.64392090315833L72.00332734375,78.01542397046644L72.07547109375,82.36096866799416L72.29834375,79.93643834365365L72.61139609375,80.36550586333503L72.66292734375,77.43694637514388L73.18081640625,76.77973925365777L73.45135546875001,76.44862926648037L73.839128125,76.19939184560252L73.931884375,75.19013510736151L74.15733359375,80.46350963584547L74.38664765624999,78.35546292436443L74.38922421875,76.72399204033294L74.73706015625001,76.42782379562836L74.80920390625,76.33862284880558L75.333534375,75.8805308521405L75.343840625,76.02288993985572L75.68523515624999,77.96680539248486L75.72388359375,80.72615466406236L75.807621875,78.77854994129456L76.2791328125,77.2180585362053L76.3048984375,76.63576369315176L76.47752812499999,75.73010107303391L76.52648281249999,76.71648921524893L76.57157265625,77.34625067200648L76.6450046875,76.6115361174896L76.85757109375,81.73356452763663L77.07400234375,80.91278157372484L77.08688515624999,80.64788322994919L77.51974765625,78.42815850939809L77.58673828124999,76.27453796278171L77.66145859375,75.60186563481189L77.956475,74.22476223803L78.08916796874999,73.98007162853229L78.10462734375,77.98011440569078L78.24118515625001,76.75164007198592L78.4331390625,75.98926975747727L78.6238046875,75.02613328305777L78.66760624999999,82.43853711269182L79.0901625,79.18647941047224L79.14684687500001,77.36167336056906L79.18163046875,75.81164687348429L79.40965625,75.47584526694774L79.806446875,74.83186430302577L80.0769859375,74.58454715324405L80.22256171875,74.72694257766072L80.6180640625,78.9718798323107L81.37170859375,76.7398421851007L81.42452812500001,75.14776245391758L81.86640859375,74.67294318663626L81.90248046875,74.7041230548389L82.01327265625,75.75954526147477L82.28123515624999,86.17837001402772L82.52343203125,84.32559343698807L82.54919765624999,79.8382846336214L82.61876484375,77.90447078017284L82.63937734375,76.68096818238942L82.8029890625,76.07329519514792L82.89832187500001,75.48111997423163L82.95371796875,74.4304576988247L82.96917734375,74.45748890500911L83.032303125,73.89213620014831L83.2461578125,74.13449600580329L83.36081484375,73.66041188919625L83.70478593749999,73.00931856208918L83.88643359375,74.80587685153924L84.8616625,74.22759753949497L84.96343671875,73.18527280941127L85.36666875,72.82537797136105L85.46973125000001,73.39329821138804L85.52899218750001,73.03869321254713L85.68229765625,73.28107307038542L85.8845578125,73.2747866993741L86.03013359375,75.58465773391019L86.25429453125,74.23972321177467L86.268465625,81.39776249849338L86.39342890625001,77.98044321338175L86.52225703125,76.43576592802906L86.66654453125001,74.23203098538885L86.89070546875,73.45343287694762L87.01438046874999,72.93570258331142L87.03241640625001,73.34570726427256L87.84661015625,72.80785292999212L87.91360078125,71.5495689008524L88.93778437499999,72.07152705479717L89.23537734375,72.9536305185926L90.6099734375,69.43717831115556L90.83155781250001,68.94559270097906L91.03124140624999,68.87821276344458L91.5684546875,67.08042765806674L91.8493,68.50504230912577L91.86347109375,70.21952538547546L91.89696640625,69.35178665985669L92.06444296875,66.49221485305686L92.13916328125,64.3086860546913L92.26412656250001,63.30199734710048L92.29375703125,61.35784126540315L92.81679921875,62.26477618781333L92.843853125,61.291794284116556L93.15432890625,58.217362284755644L93.33597656250001,61.063203085139115L93.58332656249999,60.59613613679775L93.86030703125,61.972110253507225L94.14115234375001,61.10355186639003L94.42199765625,66.36020254840545L94.70284296875,58.0976929576147L95.41139765625,56.806615774568826L95.43458671875,51.821898036169856L95.5621265625,51.195281678844765L95.88935,58.695811864449695L96.10706953124999,59.17570140438413L96.523184375,55.88570655691618L96.533490625,55.226566791292576L96.62753515625,56.08272578906125L96.64299453125,53.5494926162939L96.87488515625,52.62376699834779L97.00113671875,57.69440305615152L97.07456875,55.338284690833774L97.285846875,53.57061367164312L97.378603125,60.62672534584303L97.40308046875,55.15067806464867L97.9634828125,49.0583354102178L98.16316640625,43.329501246130675L98.43112890625,43.19198646196411L98.90135156250001,43.47612044860705L98.924540625,49.689886554878534L99.18863828125001,44.138289075784265L99.44629453125,46.61040201689912L99.542915625,44.692741210139474L99.77867109375,50.723287583226565L99.96676015625,46.54097254993595L100.382875,38.53194067281872L100.46146015625,44.839592975119785L100.810584375,44.957755785071875L100.85567421875,48.99851061390029L101.1481140625,52.73782065405445L101.20608671875,50.88512096386126L101.207375,46.41050114974534L101.93267734375,42.77751497556149L102.41964765624999,47.39958041390833L102.57166484375,45.68460539120213L102.58583593750001,43.65683466329272L102.59227734375,46.15717222654707L103.4154890625,44.5219461930711L104.4461140625,50.36795343012836L104.5749421875,55.59498634379132L104.7115,53.383277520560505L104.7810671875,47.63125222662201L104.95885,41.94225133597321L105.11473203125,40.57699365872678L105.20748828125,40.035981909521794L105.21650625,34.81858914571309L106.14535703125,38.73022491599928L106.59110234375,35.286777806742414L106.9582625,34.68728096975974L107.0432890625,36.641225724712996L107.1051265625,44.76716400625636L107.3782421875,33.156441260896685L107.49418750000001,35.57100761368086L107.64749296875,37.399033139637076L108.16795859375,38.06599131235368L108.20145390625001,37.366237644555056L108.78504531249999,44.519456872447336L108.9035671875,44.436959837754095L109.0117828125,39.88660447408103L109.06717890624999,40.83546268444862L109.15864687499999,39.29342046781204L109.199871875,40.37840942354437L109.20888984375,42.736188511269475L109.59666250000001,33.594070249618824L109.6713828125,30.99137072119986L110.47269374999999,34.80296528986278L110.53839609375,34.51077917391767L110.56416171875,34.03836036149347L110.61311640625,32.294659074038954L110.7509625,34.952795444423366L110.79476406250001,39.41760583808259L111.879496875,34.90270635999242L112.090775,32.42133810170976L112.240215625,31.09687428959729L112.54811484375,36.66155314518694L113.3661734375,41.53014617282644L113.97553046875,36.66330198941016L114.01546718750001,43.71840976507467L114.02706171874999,37.508474430473356L114.15073671875,38.09372751542689L114.4431765625,40.74587936639898L114.868309375,39.758027619839375L114.98683125000001,37.64817371476078L115.249640625,35.96504708599931L116.69251562500001,39.02617110874246L116.87158671875001,37.765345522388344L116.981090625,31.913778742004425L117.20138671874999,32.01869581663122L117.45260156249999,37.88471748997875L117.70123984375,34.07147335113011L118.02202187500001,42.71959829639234L118.109625,44.22940183497826L118.2255703125,38.68742681527268L119.0088453125,39.117170374877915L119.3437984375,35.83501651064102L119.743165625,38.94815276352746L119.79340859375,36.17610594383078L120.10517265624999,35.89094928058419L120.4388375,32.97635528263621L120.44785546874999,30.41845602672459L120.5187109375,36.91193075889192L120.75446640625,33.10851559819229L121.03273515625001,28.993252216058238L121.24916640625,26.916022758206367L121.33676953125,24.784685083495248L121.76447890624999,30.61116819295429L121.84692890625,38.7469866300583L122.12777421875,37.42083483517785L122.54775390625001,41.02485804396385L122.75774374999999,35.639486254949745L123.11202109375,35.30347746725557L123.40574921875,44.00244362321049L123.8218640625,35.365251888212015L124.6927421875,36.7951511329272L124.74942656249999,35.45323353689919L125.45798125,36.885868693568085L125.48889999999999,37.11330693042657L125.53398984375,29.12041272968454L125.7568625,31.063319066382142L125.87667265625001,31.849777154114992L126.80681171875,32.78943772104042L127.1404765625,33.89687691833854L127.43033984374999,32.39941186528885L127.55916796875,30.41364711917331L128.44292890625,29.904902557218293L128.69414375,29.119227248616696L128.9749890625,31.024679206312868L129.08191640625,30.62552180950202L129.82911953125,32.004313085701206L130.1499015625,34.09587356570644L130.15247812500002,31.393595567995288L130.45007109375,28.191871626511478L131.07875234375,28.470694404478323L131.75123515625,28.916130928401273L131.7576765625,23.089535699897926L132.615671875,25.2575785627959L132.914553125,28.40426142339183L132.97381406250003,32.51741399689224L133.00859765625,30.85109125527822L133.17349765625,32.544226181738374L133.68108046875003,31.14532142332872L134.0353578125,25.64076428256867L134.0817359375,26.87681571239834L134.17062734375,28.71837514172472L134.17320390625,36.486096513606256L134.41411250000002,35.76087219387805L134.73489453125,30.888094744898286L135.63153828125002,28.280499704081837L135.64184453125,24.07358553673481L136.33751640625,27.50422275061233L137.0808546875,24.164105078938817L137.48537499999998,24.23346304736329L137.7301484375,24.71757782841799L137.86799453125002,21.13933241133651L138.28410937499999,20.572742303944786L138.83549374999998,19.49950252522402L139.1575640625,24.190844372277265L139.4512921875,21.253149480509226L140.32861171874998,20.729532545448382L140.536025,20.744076670126173L140.60945703125,21.979160287790002L140.9714640625,19.635353315531166L141.58339765625,18.35549770360441L142.04717890625002,19.180584336448362L142.19661953124998,21.20542203044047L142.32029453125,22.041038932549995L142.41305078125,27.865051930958575L142.4452578125,30.980174015717992L142.96443515625,32.457318695145084L143.13706484375,31.788534074229915L143.79022343749998,24.952049015966512L144.034996875,22.304086552437038L144.68429062500002,24.798951931462227L144.98188359374998,28.90029973030592L145.33358437500002,26.620036981040702L146.50978515625002,22.091165045767298L146.972278125,21.42198474174609L147.075340625,19.75619084504765L147.7297875,26.68378593560003L148.167803125,21.636342989931457L148.48343203125,19.73309150824461L148.54011640625,18.881926333518184L148.76427734375,24.149012942968053L148.940771875,21.746407765780823L149.14303203125002,19.053201802325653L149.34786875,23.670206795681107L149.43676015625,24.291124077408668L149.4947328125,24.638388732159495L149.56301171874998,24.922604667867144L150.38107031250001,24.600062800720274L150.5047453125,23.15489482328931L150.54339375,23.691151179687864L150.65289765625002,22.723333564955574L150.79203203125002,19.512928710401926L151.00588671875,19.02797151195545L151.12956171875,17.548568621459005L151.5817484375,16.509212601446848L152.08160156250003,24.470098989439553L152.91769609375,21.281630822235172L153.06842500000002,18.799621350483957L153.12382109375,23.265201381718953L153.743484375,19.319692257602785L153.83237578125002,17.748886783133102L154.8127578125,18.892474927022725L155.25721484375,18.80741352764222L155.28555703125,15.861162402299607L155.34481796875,15.57262601280835L155.42855624999999,15.81671846482787L155.47364609375,15.432173936039593L155.47879921875003,19.740232933052326L155.78025703125,25.447854045545682L156.165453125,23.86585528447025L156.17962421875,19.591584599253594L156.76836875,17.671807902409295L156.99768281250002,21.817299027159862L157.07240312500002,23.48280798772451L157.35711328124998,24.393613364063285L157.63795859375,21.450668018437966L158.32332421875,22.643329382491338L158.36454921875,19.61664048663768L158.53073750000001,21.188912863411172L158.66600703125002,19.805990575189576L159.06279765625,22.28866577368519L159.33333671875002,20.503770892782537L159.752028125,22.757905392812383L159.79969453125,29.268671807115986L159.93625234375,25.703203084269596L160.1385125,23.563921850561766L160.23126875,25.592781681765622L160.66541953125,21.677097580487956L160.92049921875,21.375829976864203L161.59555859375,20.613497986118517L161.947259375,19.10674164881397L162.04774531249998,22.969044989288392L162.11988906250002,24.527855565001616L162.153384375,19.976141910429536L162.1662671875,20.595470860543443L162.9289296875,19.500496802040367L163.04487500000002,19.943440938367097L163.37596328125,21.789564563020264L163.66325,20.280167309240728L163.709628125,18.932028956973006L163.81140234375,20.297717374183815L164.02525703125,16.515130424510307L164.05875234375,17.241935397563317L165.02367500000003,22.305304095680867L165.06876484375,22.005611028837084L165.14348515625,22.445295188730835L165.20789921875,19.320819970381358L165.21562890625,17.054206267943094L165.65879765625,21.01688090362302L165.67941015625,20.726842827888103L166.69972890625002,20.72981998244714L166.8813765625,18.165106275182588L168.05886562499998,16.8159209079667L168.51749375,16.58798111620859L169.0972203125,15.553574384010869L169.52364140625,14.541001773263664L170.31206953125,16.39881534967248L170.45249218749998,16.843432066946363L171.21386640625,21.75013066873924L171.367171875,18.499149829814975L171.54366640625,19.405847040746128L173.13984687500002,19.49472251016197L173.3099,17.714833506097204L173.66417734375,16.571042960801183L173.686078125,17.98348291933787L175.077421875,17.11151832303128L175.51930234375,21.809839565247334L176.99051953125002,18.433832310576985L177.69134453125,18.78508510063191L177.968325,16.694836774664868L178.08169375,15.996973493370346L178.65240234375,15.426541238879341L178.71681640625002,16.348567600470464L178.80313125,17.318997703139424L179.292678125,16.24504147902653L179.63149609375,14.601882030273064L179.80670234375,13.375772075306703L180.00509765625,18.342034673755457L180.16613281250002,15.796863661396138L181.323009375,16.823618196837675L181.91561875,18.982099489531183L182.01481640625,16.029188265147283L182.1552390625,17.152655816231213L182.78263203125,13.856879204024457L182.94753203125,13.282770379557519L182.97329765625,12.230305084877367L183.12145,14.354968765212142L183.17298125,18.272124116270135L183.67025781249998,17.120345898333515L184.28090312499998,14.494921824714396L184.88253046875002,16.111988809114358L185.48802265625,15.520836142611484L185.49832890624998,13.080073114138315L185.6851296875,12.412115297054408L186.074190625,12.428554892518354L186.187559375,12.640704364082454L186.36405390625,11.984136904163751L186.5920796875,12.05798214249825L187.12413984375,13.847003571213234L187.34314765625,13.833130714156514L187.8803609375,21.233521285636773L188.56443828125,17.12718419995349L188.65719453124998,14.461096234257806L188.98441796875,12.5074434548404L189.21888515625,12.460466072904248L189.351578125,16.591779643742548L189.90167421875,14.367424929102672L190.48011250000002,20.97252638603304L190.8099125,17.53951583161983L190.97867734374998,15.391209498971916L191.11137031250001,14.253939985097432L191.155171875,12.648649705344175L192.37517421875,12.785404108920792L192.38032734375,14.030599608209613L192.5903171875,16.07993119349721L192.70755078124998,16.23488728752691L192.90336953125,16.54278951537329L192.93428828125002,16.89188799493826L193.17133203125,15.318704225534384L193.24862890625002,13.12315110674921L193.25635859375,13.209176378335243L193.6106359375,12.982648684144001L194.8525390625,12.834089210486388L195.10117734374998,12.112810669148976L195.1385375,14.170686401489391L195.25319453125,17.794911840893654L196.0068390625,15.291589961679048L196.69091640624998,16.773311119864587L196.7746546875,12.921272386204464L197.06580624999998,12.62026343172269L197.112184375,14.525729487605028L197.359534375,16.8953662639916L198.04232343750002,13.222076901252105L198.5215640625,10.752603283608408L198.63106796875002,9.586990541593623L198.94154375,11.71962289638475L199.66942265625,13.492273737830853L199.81628671874998,12.570935671269934L199.84978203125002,11.297489974190528L200.15381640625,10.887422555942901L200.23368984375,10.097739247851445L200.33159921875,11.722643548710888L200.3406171875,13.633157557797956L200.38055390625,10.973965963250203L200.98346953125,11.363379577950115L202.38383125,17.210456318198634L202.62989296875,17.305130933776347L203.07306171875,13.101292845980105L203.16581796875,11.24906142187377L203.28691640625001,10.719293995981399L203.3912671875,10.426719254731706L203.40672656249998,10.718960124267616L203.7880578125,10.420197503132005L203.924615625,12.636761359022062L204.02381328125,8.315342529698942L204.19257812499998,7.682134089247945L205.37006718749998,14.10406616783447L205.656065625,13.34258255784355L205.79648828125,10.508835248991856L206.03353203125002,15.812729720823684L206.7665640625,13.685066403922773L207.23163359375,11.25796841378226L208.79560703125,9.687923905412212L209.00946171875,10.50325434324733L211.02046875,14.861166891662672L211.7187171875,12.380842992140469L212.5277578125,11.411005795284282L212.80473828125,11.24631776288486L212.8781703125,9.149933514873805L213.746471875,8.612745823209968L214.45631484375002,12.336147493925997L214.82733984375002,11.902545639212745L214.94586171875,11.604455954956235L215.189346875,10.768173572973762L215.40577812499998,10.898547000927106L215.9185140625,15.174199629127699L216.18003515625,16.310948348905193L216.38487187500002,16.474640437914555L216.9130671875,13.209855691320152L217.05091328125,11.23834198622066L217.58683828125,10.801362334589532L217.65382890625,12.195388829325164L217.7942515625,12.323804726166513L217.80842265625,11.945711407128483L217.8329,11.921141129991373L217.85737734375002,9.403113249423413L218.4383921875,8.284225092511186L218.76303906249998,11.949392198363855L219.45098125,9.660278176161192L219.51281875,10.22116690569671L219.53729609375,10.34277157198948L219.69961953125,9.45487722890796L221.0278375,10.072640623059067L221.55989765625,10.038727230978314L222.23624531250002,9.082807767158412L223.21920390625002,9.533327517437908L223.8594796875,9.019782224748473L224.26271171875,10.152940763420496L224.43018828125,9.720264458052311L225.07948203125,9.308944389117089L225.12328359375002,8.885152347755943L225.20702187499998,9.389448551510725L225.60252421875,12.271169130906424L226.072746875,13.443915764258145L227.371334375,11.618992315697735L227.6470265625,9.032181103704369L228.4457609375,11.020094376508352L228.535940625,11.150842340190739L229.26253125,10.59714826125727L229.48282734375,12.806146099611523L229.52147578125,8.126187659766911L229.62453828125,7.48014116728872L229.68895234375,7.4717989860875225L229.70183515624998,12.435436534509671L229.84354609375,14.781476206420095L229.95949140625,12.699671438137763L230.04967109375,11.185088577168361L230.12696796875,8.986767432015318L230.17849921875,10.183703316352055L230.20426484375,9.574364846954103L230.21714765625,10.182261765315287L230.60363203125002,20.31992848776062L230.65516328125,22.05338566408493L230.66804609375,14.900888541308122L230.75822578125,11.519675981927746L230.77110859375,11.47587701772807L230.83552265625,15.153954782065425L230.99011640625,12.25308715495353L231.06741328125,10.740138007257872L231.09317890625,13.47351137578328L231.10606171875,15.290535396898543L231.24777265625,11.867249809567701L231.28642109375,12.228064171454916L231.46678046875002,11.951481360015801L231.51831171875,13.732531673152335L231.54407734375,12.689804718177115L231.69867109375,14.251382830906284L231.76308515624999,12.242543984258049L231.80173359375,13.704883533411978L231.86614765624998,12.420358691475753L231.89191328125003,13.482858072028321L231.91767890625002,11.275714843216996" style="fill: none;" fill="none"></path></g></g></g></g><g opacity="0.2"><g><g><g><path stroke="rgb(255, 112, 67)" stroke-width="2px" d="M25.845498437499998,151.46142857142857L25.9382546875,151.01892857142857L26.0310109375,151.24017857142857L26.05291171875,150.7186607142857L26.13020859375,150.76607142857142L26.16885703125,150.7186607142857L26.177875,149.81785714285715L26.342775,150.41839285714283L26.3453515625,149.65982142857143L26.355657812500002,149.37535714285713L26.37755859375,149.37535714285713L26.420071875,150.3867857142857L26.5050984375,150.79767857142858L26.538593749999997,150.26035714285715L26.5875484375,150.8292857142857L26.61460234375,150.32357142857143L26.653250781249998,150.1655357142857L26.785943749999998,150.48160714285714L26.79753828125,150.26035714285715L26.80011484375,150.45L26.8039796875,150.6080357142857L26.820727343749997,151.01892857142857L26.91606015625,150.92410714285714L26.963726562500003,151.08214285714286L26.966303125,149.37535714285713L26.974032812500003,150.9557142857143L27.03329375,150.48160714285714L27.08353671875,150.54482142857142L27.1080140625,150.35517857142858L27.12991484375,150.98732142857145L27.20463515625,150.07071428571427L27.222671093749998,150.67125000000001L27.350210937499998,148.86964285714285L27.3734,150.57642857142858L27.45713828125,150.45L27.491921875,150.54482142857142L27.533146875,150.3867857142857L27.6903171875,150.10232142857143L27.7985328125,149.72303571428571L27.8062625,149.43857142857144L27.91318984375,150.70285714285714L27.92091953125,150.70285714285714L28.02655859375,150.41839285714283L28.04330625,150.79767857142858L28.12189140625,149.9442857142857L28.141215625,150.51321428571427L28.152810156250002,150.26035714285715L28.155386718749998,151.20857142857145L28.2004765625,150.19714285714284L28.204341406250002,150.3867857142857L28.31771015625,150.29196428571427L28.378259375,150.41839285714283L28.3962953125,150.6238392857143L28.4066015625,149.9442857142857L28.432367187500002,150.51321428571427L28.656528125,150.02330357142858L28.659104687499998,150.18133928571427L28.79179765625,150.51321428571427L28.826581249999997,150.76607142857142L28.83559921875,149.8494642857143L28.85621171875,149.54919642857143L28.927067187499997,149.97589285714287L29.0404359375,149.78625L29.07006640625,149.72303571428571L29.09067890625,149.75464285714287L29.126750781250003,150.41839285714283L29.1538046875,150.2761607142857L29.1873,149.37535714285713L29.294227343750002,150.48160714285714L29.3290109375,150.3867857142857L29.336740625,149.78625L29.47973984375,149.6282142857143L29.488757812499998,149.65982142857143L29.4939109375,149.40696428571428L29.54801875,150.1655357142857L29.6072796875,150.45L29.7051890625,150.29196428571427L29.728378125,149.65982142857143L29.75414375,149.65982142857143L29.790215625000002,149.88107142857143L29.82242265625,150.26035714285715L29.83015234375,148.80642857142857L29.8752421875,148.68L29.87653046875,149.72303571428571L29.925485156249998,149.6914285714286L30.149646093749997,149.9442857142857L30.16252890625,149.50178571428572L30.1689703125,149.47017857142856L30.1792765625,149.6914285714286L30.2153484375,149.6914285714286L30.21921328125,149.88107142857143L30.3544828125,150.41839285714283L30.362212500000002,149.75464285714287L30.384113281250002,149.77044642857143L30.40214921875,150.3867857142857L30.44852734375,149.86526785714287L30.462698437500002,150.0075L30.47686953125,148.68L30.51809453125,149.21732142857144L30.5296890625,149.37535714285713L30.578643749999998,149.6914285714286L30.6507875,149.81785714285715L30.67268828125,149.34375L30.7152015625,149.65982142857143L30.836299999999998,149.75464285714287L30.93549765625,148.7748214285714L30.975434375,150.3867857142857L30.9805875,149.37535714285713L31.119721875,149.75464285714287L31.12873984375,149.24892857142856L31.2408203125,149.78625L31.243396875000002,149.6282142857143L31.28591015625,149.88107142857143L31.292351562500002,149.86526785714287L31.321982031250002,149.43857142857144L31.40185546875,149.18571428571428L31.41216171875,148.93285714285713L31.480440625,149.88107142857143L31.539701562500003,149.75464285714287L31.5706203125,149.47017857142856L31.6582234375,149.21732142857144L31.738096875,148.7432142857143L31.754844531249997,148.90125L31.807664062500002,149.72303571428571L31.8901140625,149.65982142857143L31.91459140625,149.21732142857144L32.05114921875,149.53339285714287L32.20703125,149.50178571428572L32.2147609375,148.90125L32.222490625,149.24892857142856L32.275310156249994,150.19714285714284L32.29334609375,149.34375L32.302364062500004,149.78625L32.411867968749995,150.13392857142856L32.610263281250006,149.88107142857143L32.705596093749996,149.50178571428572L32.70817265625,148.9960714285714L32.77516328125,149.31214285714287L32.851171875,149.09089285714285L33.021225,149.15410714285713L33.02251328125,148.80642857142857L33.0392609375,149.9126785714286L33.049567187499996,148.93285714285713L33.160359375,148.64839285714285L33.299493749999996,149.8494642857143L33.36004296875,148.58517857142857L33.39096171875,150.07071428571427L33.57905078125,147.92142857142858L33.6164109375,149.28053571428572L33.661500781250005,149.40696428571428L33.71045546875,148.64839285714285L33.87664375000001,148.8380357142857L33.996453906250004,149.15410714285713L34.057003125,148.55357142857144L34.08663359375,149.09089285714285L34.30306484375,148.7432142857143L34.324965625000004,148.8380357142857L34.42416328125,149.1225L34.48857734375,148.71160714285713L34.65605390625,148.90125L34.80034140625,148.7748214285714L34.829971875,148.55357142857144L34.96781796875,149.37535714285713L35.042538281249996,148.45875L35.10952890625,148.55357142857144L35.11468203125,148.71160714285713L35.2396453125,148.20589285714286L35.32338359375,148.61678571428573L35.3530140625,148.11107142857142L35.36976171875,149.59660714285715L35.50631953125,149.02767857142857L35.704714843750004,148.68L35.89538046875,148.64839285714285L35.901821874999996,148.14267857142858L35.940470312500004,147.57375L35.980407031249996,148.14267857142858L36.1002171875,147.795L36.2573875,148.0794642857143L36.32308984375,148.04785714285714L36.33597265625,148.7748214285714L36.36689140625,148.7432142857143L36.377197656250004,147.98464285714286L36.400386718750006,148.82223214285713L36.551115625,149.15410714285713L36.621971093750005,147.54214285714286L36.62454765625,147.9530357142857L36.69926796875,149.43857142857144L36.717303906249995,147.8582142857143L36.777853125,147.44732142857143L36.839690624999996,148.2375L37.0174734375,148.04785714285714L37.01876171875,147.8582142857143L37.1205359375,144.91875L37.2287515625,147.19446428571428L37.3369671875,148.20589285714286L37.33825546875,147.41571428571427L37.406534375,147.16285714285715L37.44131796875,148.11107142857142L37.468371874999995,148.36392857142857L37.46966015625,148.14267857142858L37.71185703125,147.88982142857142L37.803324999999994,147.57375L37.839396875,147.63696428571427L37.9038109375,148.20589285714286L37.93859453125,143.71767857142856L38.20398046875,147.82660714285714L38.24005234375,147.16285714285715L38.292871875,148.36392857142857L38.3006015625,143.71767857142856L38.3263671875,143.18035714285713L38.3572859375,146.78357142857143L38.4603484375,147.9530357142857L38.508014843750004,148.26910714285717L38.58788828125,147.22607142857143L38.675491406249996,146.59392857142856L38.7283109375,148.5219642857143L38.81204921875,148.20589285714286L38.8932109375,147.9530357142857L38.940877343749996,143.27517857142857L38.96921953125,147.41571428571427L39.0478046875,144.34982142857143L39.117371875,142.39017857142858L39.23202890625,146.94160714285715L39.34797421875,147.13125L39.412388281249996,148.33232142857142L39.41754140625,148.11107142857142L39.51029765625,147.54214285714286L39.6558734375,148.45875L39.87488125,147.3525L39.9650609375,147.795L40.07198828125,147.00482142857143L40.105483593749994,147.38410714285715L40.158303124999996,146.97321428571428L40.364428124999996,147.19446428571428L40.7792546875,139.13464285714284L41.06396484375,147.2892857142857L41.075559375000005,142.89589285714285L41.0807125,139.64035714285714L41.250765625,138.02839285714285L41.386035156249996,147.47892857142855L41.425971875,138.69214285714287L41.47879140625,138.66053571428571L41.66172734375,142.83267857142857L41.7222765625,143.5280357142857L41.920671875000004,138.75535714285715L41.930978124999996,133.76142857142858L41.982509375,139.03982142857143L42.0520765625,134.33035714285714L42.092013281250004,138.69214285714287L42.263354687500005,132.56035714285713L42.322615625,137.7755357142857L42.3509578125,146.27785714285713L42.39089453125,132.97125L42.5673890625,137.04857142857142L42.6343796875,138.40767857142856L42.737442187499994,138.40767857142856L42.889459375,138.06L42.91393671875,139.5455357142857L43.16386328125,139.07142857142856L43.219259375,138.75535714285715L43.34164609375,143.65446428571428L43.398330468750004,131.39089285714286L43.518140625,129.30482142857142L43.712671093750004,133.41375L43.844075781250005,132.59196428571428L43.8840125,129.02035714285714L44.41349609375,129.90535714285716L44.559071875,129.81053571428572L44.58870234374999,129.77892857142857L44.60158515625,126.96589285714285L44.7059359375,128.35660714285714L44.708512500000005,128.64107142857145L44.865682812500005,133.54017857142856L44.9996640625,131.58053571428573L45.06923125,127.47160714285715L45.110456250000006,132.65517857142856L45.18646484375,135.31017857142857L45.22253671875,129.7473214285714L45.40804921875,133.635L45.5742375,129.68410714285713L45.6438046875,128.7675L45.68760625,127.31357142857144L45.703065625,128.67267857142858L45.733984375,133.3505357142857L45.759750000000004,135.0257142857143L45.9736046875,146.38848214285713L46.0689375,134.33035714285714L46.12175703125,129.24160714285713L46.36653046875,147.38410714285715L46.4270796875,141.63160714285715L46.455421875,147.9530357142857L46.559772656250004,147.57375L46.723384375,150.07071428571427L46.90503203125,143.27517857142857L46.94625703125,148.7432142857143L47.032571875,143.2435714285714L47.149805468749996,142.16892857142855L47.20133671875,137.4594642857143L47.38169609375,144.57107142857143L47.70634296874999,134.20392857142858L47.855783593750004,130.15821428571428L48.0812328125,132.90803571428572L48.171412499999995,128.0405357142857L48.2873578125,129.55767857142857L48.420050781250005,130.03178571428572L48.56949140625,128.67267857142858L48.6326171875,130.66392857142858L48.635193750000006,129.77892857142857L48.836165625,129.90535714285716L48.999777343750004,128.60946428571427L49.144064843749995,128.95714285714288L49.22909140625001,128.98875L49.33215390625,139.3875L49.357919531250005,123.93160714285715L49.40945078125,135.08892857142857L49.5704859375,127.91410714285716L49.60526953125,130.66392857142858L49.6142875,130.2214285714286L49.856484375,131.7069642857143L49.9002859375,128.08794642857143L49.9054390625,125.66999999999999L49.99433046875,130.15821428571428L50.12573515625,132.10205357142857L50.258428125,128.57785714285714L50.352472656249994,122.60410714285715L50.3537609375,138.31285714285713L50.38339140625,135.37339285714285L50.38596796875,127.97732142857141L50.3949859375,130.06339285714284L50.629453125000005,130.06339285714284L50.67583125,130.25303571428572L50.90385703125,127.88249999999998L50.925757812499995,124.69017857142858L50.9412171875,129.36803571428572L51.63560078125,119.56982142857144L52.06846328125,125.13267857142857L52.211462499999996,121.11857142857143L52.475560156250005,121.11857142857143L52.5232265625,129.33642857142857L52.805360156249996,107.93839285714284L53.100376562499996,111.44678571428572L53.2395109375,106.29482142857142L53.3245375,124.59535714285715L53.405699218749994,115.84017857142857L53.528085937499995,121.65589285714287L53.68654453125,107.085L53.74065234375,98.61428571428571L53.82954375,101.86982142857143L53.856597656249996,105.97875L54.0485515625,101.11125000000001L54.23019921875,103.92428571428572L54.32553203125,107.27464285714287L54.7674125,115.8717857142857L54.99286171875001,97.28678571428571L55.47854375,102.34392857142859L55.6923984375,91.85035714285713L55.8985234375,100.336875L56.07244140625,87.45696428571429L56.12912578125,96.78107142857141L56.25022421875,97.66607142857144L56.3571515625,96.81267857142859L56.4705203125,97.16035714285714L56.720446875,106.38964285714286L56.8003203125,111.32035714285716L56.969085156249996,98.32982142857142L57.235759375,111.25714285714285L57.8799,96.9075L58.39392421875,108.12803571428572L58.45576171875,103.29214285714286L58.47379765625,135.18375L58.70311171875,115.77696428571427L58.83193984375,92.48249999999999L58.95046171875,97.47642857142857L59.1501453125,93.08303571428571L59.40908984375,103.16571428571429L59.68220546875,94.22089285714287L59.850970312499996,86.31910714285713L60.18205859375,92.26125L60.7063890625,94.47375L60.84938828125,76.23642857142858L60.876442187500004,88.5L61.0104234375,93.7467857142857L61.91350859375,81.67285714285714L61.98822890625,84.96L62.1054625,73.73946428571428L62.18147109375,89.85910714285714L62.256191406250004,80.02928571428572L62.5718203125,81.51482142857142L62.770215625,84.04339285714286L62.99824140625,81.64125000000001L63.39245546875,75.03535714285714L63.803417187499996,89.57464285714285L63.88973203125,103.9875L63.9477046875,81.26196428571428L64.02886640625,93.49392857142858L64.0662265625,91.91357142857144L64.10487499999999,76.0467857142857L64.3187296875,78.8282142857143L64.36639609375,83.85375L64.52614296875001,80.94589285714285L64.5557734375,85.30767857142858L64.65754765624999,86.00303571428572L64.769628125,77.15303571428572L64.82373593749999,75.85714285714286L65.0195546875,75.35142857142857L65.77835234375,77.02660714285715L65.87110859375001,80.28214285714287L66.20477343750001,89.92232142857144L66.20992656249999,86.16107142857142L66.46887109375,74.81410714285715L66.48433046875,83.72732142857144L66.58223984375,83.34803571428571L66.78321171875,75.54107142857144L67.02025546875,85.02321428571427L67.37839765625,80.50339285714286L67.63347734374999,76.77374999999999L67.686296875,74.43482142857142L67.830584375,80.75625000000001L67.995484375,76.36285714285714L68.00321406249999,78.74919642857142L68.01480859375,75.69910714285714L68.07149296875001,75.76232142857143L68.61514765625,89.54303571428571L68.9153171875,81.79928571428572L68.93464140625,74.71928571428572L68.9926140625,76.11000000000001L69.18585625,94.3157142857143L69.23867578125,80.18732142857144L69.29536015625,93.68357142857144L69.34946796874999,84.32785714285714L69.51952109375,80.91428571428573L69.77717734375,88.24714285714285L70.00906796875,80.85107142857142L70.12758984375,77.56392857142856L70.22034609375001,75.69910714285714L70.2345171875,74.81410714285715L70.5978125,79.64999999999999L70.62357812500001,79.23910714285715L70.76142421875001,98.0769642857143L70.932765625,76.86857142857143L70.94178359375,84.51750000000001L70.9817203125,81.04071428571429L71.04742265625,89.385L71.30250234375,89.16374999999998L71.3166734375,76.48928571428571L71.35661015625,75.13017857142857L71.45967265625,84.92839285714287L71.6722390625,93.39910714285715L71.72119375,80.535L71.83069765625,75.00375L71.9582375,78.44892857142857L72.00332734375,75.57267857142857L72.07547109375,88.87928571428573L72.29834375,76.29964285714286L72.61139609375,81.00910714285713L72.66292734375,73.04410714285714L73.18081640625,75.79392857142858L73.45135546875001,75.9519642857143L73.839128125,75.8255357142857L73.931884375,73.67625L74.15733359375,88.37357142857144L74.38664765624999,75.19339285714285L74.38922421875,74.27678571428571L74.73706015625001,75.98357142857142L74.80920390625,76.20482142857142L75.333534375,75.19339285714285L75.343840625,76.23642857142858L75.68523515624999,80.88267857142857L75.72388359375,84.86517857142856L75.807621875,75.85714285714286L76.2791328125,74.87732142857143L76.3048984375,75.76232142857143L76.47752812499999,74.37160714285714L76.52648281249999,78.19607142857144L76.57157265625,78.29089285714285L76.6450046875,75.50946428571429L76.85757109375,89.41660714285715L77.07400234375,79.68160714285715L77.08688515624999,80.25053571428572L77.51974765625,75.09857142857142L77.58673828124999,73.04410714285714L77.66145859375,74.59285714285713L77.956475,72.15910714285715L78.08916796874999,73.61303571428572L78.10462734375,83.98017857142857L78.24118515625001,74.90892857142858L78.4331390625,74.84571428571428L78.6238046875,73.58142857142857L78.66760624999999,93.55714285714286L79.0901625,74.30839285714286L79.14684687500001,74.62446428571428L79.18163046875,73.48660714285714L79.40965625,74.97214285714286L79.806446875,73.86589285714287L80.0769859375,74.21357142857143L80.22256171875,74.94053571428572L80.6180640625,85.33928571428571L81.37170859375,73.3917857142857L81.42452812500001,72.75964285714285L81.86640859375,73.96071428571427L81.90248046875,74.75089285714287L82.01327265625,77.34267857142856L82.28123515624999,101.80660714285715L82.52343203125,81.54642857142858L82.54919765624999,73.10732142857142L82.61876484375,75.00375L82.63937734375,74.84571428571428L82.8029890625,75.16178571428571L82.89832187500001,74.59285714285713L82.95371796875,72.85446428571429L82.96917734375,74.49803571428572L83.032303125,73.04410714285714L83.2461578125,74.49803571428572L83.36081484375,72.94928571428571L83.70478593749999,72.03267857142856L83.88643359375,77.50071428571428L84.8616625,73.36017857142858L84.96343671875,71.62178571428572L85.36666875,72.28553571428571L85.46973125000001,74.24517857142858L85.52899218750001,72.50678571428573L85.68229765625,73.64464285714286L85.8845578125,73.26535714285714L86.03013359375,79.0494642857143L86.25429453125,72.22232142857143L86.268465625,92.13482142857144L86.39342890625001,72.85446428571429L86.52225703125,74.11874999999999L86.66654453125001,70.92642857142857L86.89070546875,72.28553571428571L87.01438046874999,72.15910714285715L87.03241640625001,73.96071428571427L87.84661015625,72.00107142857144L87.91360078125,69.66214285714285L88.93778437499999,72.85446428571429L89.23537734375,74.27678571428571L90.6099734375,64.16250000000001L90.83155781250001,68.20821428571428L91.03124140624999,68.77714285714286L91.5684546875,64.38375L91.8493,70.6419642857143L91.86347109375,72.79125L91.89696640625,68.05017857142857L92.06444296875,62.20285714285714L92.13916328125,61.033392857142864L92.26412656250001,61.79196428571428L92.29375703125,58.441607142857144L92.81679921875,63.62517857142856L92.843853125,59.83232142857143L93.15432890625,53.60571428571428L93.33597656250001,65.33196428571429L93.58332656249999,59.89553571428572L93.86030703125,64.03607142857142L94.14115234375001,59.800714285714285L94.42199765625,74.24517857142858L94.70284296875,45.70392857142858L95.41139765625,54.87000000000001L95.43458671875,44.344821428571436L95.5621265625,50.25535714285714L95.88935,69.94660714285713L96.10706953124999,59.89553571428572L96.523184375,50.95071428571428L96.533490625,54.23785714285714L96.62753515625,57.36696428571428L96.64299453125,49.74964285714285L96.87488515625,51.23517857142858L97.00113671875,65.30035714285714L97.07456875,51.80410714285715L97.285846875,50.91910714285714L97.378603125,71.21089285714287L97.40308046875,46.936607142857135L97.9634828125,39.91982142857143L98.16316640625,34.736250000000005L98.43112890625,42.98571428571429L98.90135156250001,43.90232142857142L98.924540625,59.010535714285716L99.18863828125001,35.81089285714285L99.44629453125,50.318571428571424L99.542915625,41.81624999999999L99.77867109375,59.76910714285714L99.96676015625,40.267500000000005L100.382875,26.518392857142853L100.46146015625,54.30107142857143L100.810584375,45.135L100.85567421875,55.059642857142855L101.1481140625,58.34678571428571L101.20608671875,48.10607142857143L101.207375,39.698571428571434L101.93267734375,37.328035714285704L102.41964765624999,54.332678571428566L102.57166484375,43.11214285714286L102.58583593750001,40.615178571428565L102.59227734375,49.90767857142856L103.4154890625,42.06910714285714L104.4461140625,59.13696428571428L104.5749421875,63.43553571428572L104.7115,50.06571428571428L104.7810671875,39.00321428571428L104.95885,33.40875L105.11473203125,38.529107142857136L105.20748828125,39.22446428571429L105.21650625,26.992499999999996L106.14535703125,44.59767857142858L106.59110234375,30.121607142857137L106.9582625,33.788035714285726L107.0432890625,39.57214285714285L107.1051265625,56.95607142857142L107.3782421875,15.74035714285715L107.49418750000001,39.19285714285714L107.64749296875,40.14107142857142L108.16795859375,39.06642857142858L108.20145390625001,36.316607142857144L108.78504531249999,55.24928571428572L108.9035671875,44.31321428571428L109.0117828125,33.06107142857144L109.06717890624999,42.258750000000006L109.15864687499999,36.98035714285715L109.199871875,42.005892857142854L109.20888984375,46.27285714285715L109.59666250000001,19.880892857142857L109.6713828125,27.08732142857143L110.47269374999999,40.52035714285715L110.53839609375,34.0725L110.56416171875,33.32973214285715L110.61311640625,29.67910714285715L110.7509625,38.94L110.79476406250001,46.11482142857143L111.879496875,28.13035714285714L112.090775,28.699285714285715L112.240215625,29.110178571428573L112.54811484375,45.008571428571436L113.3661734375,48.83303571428572L113.97553046875,29.36303571428572L114.01546718750001,54.30107142857143L114.02706171874999,28.193571428571424L114.15073671875,38.971607142857145L114.4431765625,44.72410714285714L114.868309375,38.27625000000001L114.98683125000001,34.48339285714286L115.249640625,33.440357142857145L116.69251562500001,43.61785714285715L116.87158671875001,35.874107142857135L116.981090625,23.136428571428564L117.20138671874999,32.17607142857143L117.45260156249999,46.68375000000001L117.70123984375,28.351607142857137L118.02202187500001,55.69178571428571L118.109625,46.494107142857146L118.2255703125,30.374464285714282L119.0088453125,39.761785714285715L119.3437984375,30.911785714285706L119.743165625,43.61785714285715L119.79340859375,32.01803571428572L120.10517265624999,35.463214285714294L120.4388375,28.604464285714283L120.44785546874999,26.581607142857134L120.5187109375,46.652142857142856L120.75446640625,27.403392857142855L121.03273515625001,22.820357142857137L121.24916640625,23.80017857142857L121.33676953125,21.587678571428576L121.76447890624999,39.35089285714285L121.84692890625,50.95071428571428L122.12777421875,35.431607142857146L122.54775390625001,46.43089285714286L122.75774374999999,27.561428571428568L123.11202109375,34.799464285714286L123.40574921875,57.05089285714285L123.8218640625,22.409464285714275L124.6927421875,38.94L124.74942656249999,33.440357142857145L125.45798125,39.034821428571426L125.48889999999999,37.45446428571429L125.53398984375,17.131071428571424L125.7568625,33.97767857142857L125.87667265625001,33.02946428571428L126.80681171875,34.19892857142857L127.1404765625,35.55803571428571L127.43033984374999,30.153214285714288L127.55916796875,27.435000000000006L128.44292890625,29.141785714285707L128.69414375,27.940714285714275L128.9749890625,33.882857142857134L129.08191640625,30.026785714285705L129.82911953125,34.0725L130.1499015625,37.2332142857143L130.15247812500002,27.340178571428574L130.45007109375,23.38928571428571L131.07875234375,28.88892857142858L131.75123515625,29.584285714285716L131.7576765625,14.349642857142857L132.615671875,28.50964285714285L132.914553125,33.12428571428572L132.97381406250003,38.68714285714285L133.00859765625,28.351607142857137L133.17349765625,35.083928571428565L133.68108046875003,29.046964285714292L134.0353578125,17.38392857142857L134.0817359375,28.730892857142866L134.17062734375,31.48071428571428L134.17320390625,48.13767857142858L134.41411250000002,34.6730357142857L134.73489453125,23.578928571428573L135.63153828125002,24.369107142857143L135.64184453125,17.763214285714277L136.33751640625,32.650178571428576L137.0808546875,19.15392857142857L137.48537499999998,24.33749999999999L137.7301484375,25.44375000000001L137.86799453125002,15.771964285714281L138.28410937499999,19.722857142857144L138.83549374999998,17.88964285714286L139.1575640625,31.227857142857133L139.4512921875,16.846607142857145L140.32861171874998,19.94410714285714L140.536025,20.76589285714286L140.60945703125,23.83178571428572L140.9714640625,16.11964285714286L141.58339765625,16.435714285714287L142.04717890625002,20.41821428571428L142.19661953124998,24.24267857142858L142.32029453125,23.294464285714277L142.41305078125,36.60107142857142L142.4452578125,35.65285714285714L142.96443515625,34.6730357142857L143.13706484375,30.785357142857144L143.79022343749998,14.697321428571435L144.034996875,18.332142857142852L144.68429062500002,28.54125L144.98188359374998,35.05232142857143L145.33358437500002,23.199642857142866L146.50978515625002,15.29785714285714L146.972278125,20.41821428571428L147.075340625,17.257500000000004L147.7297875,37.07517857142858L148.167803125,14.06517857142858L148.48343203125,16.878214285714275L148.54011640625,17.605178571428564L148.76427734375,32.04964285714286L148.940771875,18.142500000000005L149.14303203125002,15.013392857142863L149.34786875,30.59571428571428L149.43676015625,25.222499999999993L149.4947328125,25.159285714285712L149.56301171874998,25.348928571428576L150.38107031250001,24.116249999999997L150.5047453125,20.987142857142853L150.54339375,24.495535714285705L150.65289765625002,21.27160714285715L150.79203203125002,14.697321428571435L151.00588671875,18.30053571428572L151.12956171875,15.329464285714291L151.5817484375,14.950178571428582L152.08160156250003,36.41142857142857L152.91769609375,16.498928571428568L153.06842500000002,15.076607142857144L153.12382109375,29.963571428571424L153.743484375,13.401428571428575L153.83237578125002,15.392678571428572L154.8127578125,20.607857142857146L155.25721484375,18.67982142857143L155.28555703125,11.44178571428571L155.34481796875,15.139821428571427L155.42855624999999,16.18285714285714L155.47364609375,14.85535714285715L155.47879921875003,26.202321428571427L155.78025703125,34.00928571428572L156.165453125,21.492857142857144L156.17962421875,13.180178571428579L156.76836875,14.792142857142847L156.99768281250002,28.035535714285707L157.07240312500002,25.98107142857143L157.35711328124998,25.759821428571435L157.63795859375,17.036249999999992L158.32332421875,24.432321428571424L158.36454921875,15.076607142857144L158.53073750000001,23.547321428571422L158.66600703125002,17.731607142857147L159.06279765625,26.01267857142858L159.33333671875002,17.82642857142858L159.752028125,26.139107142857146L159.79969453125,39.034821428571426L159.93625234375,20.354999999999997L160.1385125,20.354999999999997L160.23126875,28.636071428571434L160.66541953125,15.80357142857143L160.92049921875,20.923928571428572L161.59555859375,19.47L161.947259375,16.846607142857145L162.04774531249998,28.762499999999996L162.11988906250002,26.86607142857143L162.153384375,13.14857142857143L162.1662671875,21.524464285714277L162.9289296875,17.85803571428571L163.04487500000002,20.607857142857146L163.37596328125,24.558750000000007L163.66325,18.016071428571422L163.709628125,16.909821428571426L163.81140234375,22.346249999999994L164.02525703125,10.841250000000004L164.05875234375,18.332142857142852L165.02367500000003,29.900357142857143L165.06876484375,21.55607142857143L165.14348515625,23.104821428571434L165.20789921875,14.634107142857134L165.21562890625,13.65428571428572L165.65879765625,26.960892857142863L165.67941015625,20.291785714285716L166.69972890625002,20.734285714285708L166.8813765625,14.318035714285706L168.05886562499998,14.792142857142847L168.51749375,16.246071428571423L169.0972203125,14.00196428571428L169.52364140625,13.022142857142866L170.31206953125,19.18553571428572L170.45249218749998,17.510357142857153L171.21386640625,29.110178571428573L171.367171875,13.62267857142857L171.54366640625,20.76589285714286L173.13984687500002,19.628035714285712L173.3099,15.044999999999995L173.66417734375,14.85535714285715L173.686078125,20.10214285714285L175.077421875,15.80357142857143L175.51930234375,28.857321428571428L176.99051953125002,13.369821428571424L177.69134453125,19.311964285714282L177.968325,13.559464285714288L178.08169375,14.950178571428582L178.65240234375,14.570892857142853L178.71681640625002,17.731607142857147L178.80313125,18.77464285714286L179.292678125,14.634107142857134L179.63149609375,12.137142857142866L179.80670234375,11.536607142857141L180.00509765625,25.791428571428565L180.16613281250002,11.979107142857151L181.323009375,18.363750000000003L181.91561875,22.219821428571432L182.01481640625,11.599821428571422L182.1552390625,18.837857142857143L182.78263203125,8.91321428571429L182.94753203125,12.421607142857141L182.97329765625,10.65160714285714L183.12145,17.541964285714283L183.17298125,24.14785714285715L183.67025781249998,15.392678571428572L184.28090312499998,10.556785714285708L184.88253046875002,18.53758928571428L185.48802265625,14.634107142857134L185.49832890624998,9.418928571428582L185.6851296875,11.410178571428577L186.074190625,12.453214285714292L186.187559375,12.958928571428565L186.36405390625,10.999285714285719L186.5920796875,12.168749999999996L187.12413984375,16.53053571428572L187.34314765625,13.812321428571435L187.8803609375,32.33410714285715L188.56443828125,10.967678571428568L188.65719453124998,10.461964285714275L188.98441796875,9.576964285714295L189.21888515625,12.389999999999992L189.351578125,22.788750000000004L189.90167421875,11.030892857142849L190.48011250000002,30.880178571428576L190.8099125,12.389999999999992L190.97867734374998,12.168749999999996L191.11137031250001,12.548035714285705L191.155171875,10.240714285714281L192.37517421875,12.990535714285715L192.38032734375,15.898392857142863L192.5903171875,19.15392857142857L192.70755078124998,16.467321428571438L192.90336953125,17.00464285714286L192.93428828125002,17.41553571428572L193.17133203125,12.958928571428565L193.24862890625002,9.829821428571421L193.25635859375,13.338214285714294L193.6106359375,12.642857142857137L194.8525390625,12.611250000000005L195.10117734374998,11.030892857142849L195.1385375,17.257500000000004L195.25319453125,23.231249999999996L196.0068390625,11.536607142857141L196.69091640624998,18.995892857142856L196.7746546875,7.143214285714288L197.06580624999998,12.168749999999996L197.112184375,17.38392857142857L197.359534375,20.44982142857143L198.04232343750002,7.712142857142862L198.5215640625,7.048392857142856L198.63106796875002,7.8385714285714245L198.94154375,14.91857142857143L199.66942265625,16.151250000000008L199.81628671874998,11.188928571428564L199.84978203125002,9.38732142857143L200.15381640625,10.27232142857143L200.23368984375,8.91321428571429L200.33159921875,14.159999999999993L200.3406171875,16.498928571428568L200.38055390625,6.985178571428574L200.98346953125,11.947500000000002L202.38383125,25.98107142857143L202.62989296875,17.44714285714285L203.07306171875,6.79553571428571L203.16581796875,8.47071428571428L203.28691640625001,9.924642857142853L203.3912671875,9.987857142857134L203.40672656249998,11.157321428571432L203.7880578125,9.97205357142857L203.924615625,15.961607142857146L204.02381328125,1.8332142857142832L204.19257812499998,6.732321428571428L205.37006718749998,23.736964285714286L205.656065625,12.200357142857147L205.79648828125,6.258214285714287L206.03353203125002,23.76857142857142L206.7665640625,10.493571428571427L207.23163359375,7.6173214285714295L208.79560703125,7.3328571428571525L209.00946171875,11.726250000000006L211.02046875,21.39803571428571L211.7187171875,8.660357142857144L212.5277578125,9.956250000000004L212.80473828125,10.999285714285719L212.8781703125,6.005357142857141L213.746471875,7.806964285714294L214.45631484375002,17.92124999999999L214.82733984375002,11.252142857142864L214.94586171875,11.157321428571432L215.189346875,9.513749999999995L215.40577812499998,11.094107142857151L215.9185140625,21.587678571428576L216.18003515625,18.016071428571422L216.38487187500002,16.720178571428562L216.9130671875,8.312678571428565L217.05091328125,8.281071428571435L217.58683828125,10.145892857142849L217.65382890625,14.286428571428576L217.7942515625,12.516428571428573L217.80842265625,11.378571428571428L217.8329,11.884285714285719L217.85737734375002,5.626071428571432L218.4383921875,6.605892857142865L218.76303906249998,17.44714285714285L219.45098125,6.226607142857136L219.51281875,11.0625L219.53729609375,10.525178571428578L219.69961953125,8.12303571428572L221.0278375,10.999285714285719L221.55989765625,9.987857142857134L222.23624531250002,7.64892857142858L223.21920390625002,10.20910714285715L223.8594796875,8.249464285714284L224.26271171875,11.85267857142857L224.43018828125,9.071250000000003L225.07948203125,8.691964285714294L225.12328359375002,8.249464285714284L225.20702187499998,10.145892857142849L225.60252421875,16.59375L226.072746875,15.203035714285708L227.371334375,8.881607142857138L227.6470265625,5.151964285714291L228.4457609375,14.00196428571428L228.535940625,11.346964285714277L229.26253125,9.76660714285714L229.48282734375,16.11964285714286L229.52147578125,1.1062499999999962L229.62453828125,6.511071428571433L229.68895234375,7.459285714285715L229.70183515624998,19.880892857142857L229.84354609375,18.30053571428572L229.95949140625,9.576964285714295L230.04967109375,8.91321428571429L230.12696796875,5.689285714285714L230.17849921875,11.979107142857151L230.20426484375,8.660357142857144L230.21714765625,11.094107142857151L230.60363203125002,35.526428571428575L230.65516328125,24.653571428571418L230.66804609375,4.172142857142858L230.75822578125,6.447857142857151L230.77110859375,11.410178571428577L230.83552265625,20.671071428571427L230.99011640625,7.9017857142857055L231.06741328125,8.47071428571428L231.09317890625,17.573571428571434L231.10606171875,18.016071428571422L231.24777265625,6.732321428571428L231.28642109375,12.76928571428572L231.46678046875002,11.536607142857141L231.51831171875,16.404107142857136L231.54407734375,11.125714285714281L231.69867109375,16.59375L231.76308515624999,9.229285714285718L231.80173359375,15.898392857142863L231.86614765624998,10.493571428571427L231.89191328125003,15.076607142857144L231.91767890625002,7.965000000000007" style="fill: none;" fill="none"></path></g></g></g></g></g></g><g transform="translate(72, 177)" clip-path="url(#clip_1)"><clipPath id="clip_1"><rect width="257" height="23"></rect></clipPath><g><g><line x1="0" y1="0" x2="0" y2="5" style="visibility: inherit;" fill="rgb(0, 0, 0)" stroke="rgb(204, 204, 204)" stroke-width="1px"></line><line x1="25.765625" y1="0" x2="25.765625" y2="5" style="visibility: inherit;" fill="rgb(0, 0, 0)" stroke="rgb(204, 204, 204)" stroke-width="1px"></line><line x1="51.53125" y1="0" x2="51.53125" y2="5" style="visibility: inherit;" fill="rgb(0, 0, 0)" stroke="rgb(204, 204, 204)" stroke-width="1px"></line><line x1="77.296875" y1="0" x2="77.296875" y2="5" style="visibility: inherit;" fill="rgb(0, 0, 0)" stroke="rgb(204, 204, 204)" stroke-width="1px"></line><line x1="103.0625" y1="0" x2="103.0625" y2="5" style="visibility: inherit;" fill="rgb(0, 0, 0)" stroke="rgb(204, 204, 204)" stroke-width="1px"></line><line x1="128.828125" y1="0" x2="128.828125" y2="5" style="visibility: inherit;" fill="rgb(0, 0, 0)" stroke="rgb(204, 204, 204)" stroke-width="1px"></line><line x1="154.59375" y1="0" x2="154.59375" y2="5" style="visibility: inherit;" fill="rgb(0, 0, 0)" stroke="rgb(204, 204, 204)" stroke-width="1px"></line><line x1="180.359375" y1="0" x2="180.359375" y2="5" style="visibility: inherit;" fill="rgb(0, 0, 0)" stroke="rgb(204, 204, 204)" stroke-width="1px"></line><line x1="206.125" y1="0" x2="206.125" y2="5" style="visibility: inherit;" fill="rgb(0, 0, 0)" stroke="rgb(204, 204, 204)" stroke-width="1px"></line><line x1="231.890625" y1="0" x2="231.890625" y2="5" style="visibility: inherit;" fill="rgb(0, 0, 0)" stroke="rgb(204, 204, 204)" stroke-width="1px"></line><line x1="257.65625" y1="0" x2="257.65625" y2="5" style="visibility: inherit;" fill="rgb(0, 0, 0)" stroke="rgb(204, 204, 204)" stroke-width="1px"></line></g><g transform="translate(0, 8)"><text x="0" y="0" dx="0em" dy="0.95em" style="text-anchor: middle; visibility: hidden; font-family: Roboto, sans-serif; font-size: 12px; font-weight: 200;" fill="rgb(33, 33, 33)" stroke="none" stroke-width="1px">-20k</text><text x="25.765625" y="0" dx="0em" dy="0.95em" style="text-anchor: middle; visibility: inherit; font-family: Roboto, sans-serif; font-size: 12px; font-weight: 200;" fill="rgb(33, 33, 33)" stroke="none" stroke-width="1px">0</text><text x="51.53125" y="0" dx="0em" dy="0.95em" style="text-anchor: middle; visibility: hidden; font-family: Roboto, sans-serif; font-size: 12px; font-weight: 200;" fill="rgb(33, 33, 33)" stroke="none" stroke-width="1px">20k</text><text x="77.296875" y="0" dx="0em" dy="0.95em" style="text-anchor: middle; visibility: inherit; font-family: Roboto, sans-serif; font-size: 12px; font-weight: 200;" fill="rgb(33, 33, 33)" stroke="none" stroke-width="1px">40k</text><text x="103.0625" y="0" dx="0em" dy="0.95em" style="text-anchor: middle; visibility: hidden; font-family: Roboto, sans-serif; font-size: 12px; font-weight: 200;" fill="rgb(33, 33, 33)" stroke="none" stroke-width="1px">60k</text><text x="128.828125" y="0" dx="0em" dy="0.95em" style="text-anchor: middle; visibility: inherit; font-family: Roboto, sans-serif; font-size: 12px; font-weight: 200;" fill="rgb(33, 33, 33)" stroke="none" stroke-width="1px">80k</text><text x="154.59375" y="0" dx="0em" dy="0.95em" style="text-anchor: middle; visibility: hidden; font-family: Roboto, sans-serif; font-size: 12px; font-weight: 200;" fill="rgb(33, 33, 33)" stroke="none" stroke-width="1px">100k</text><text x="180.359375" y="0" dx="0em" dy="0.95em" style="text-anchor: middle; visibility: inherit; font-family: Roboto, sans-serif; font-size: 12px; font-weight: 200;" fill="rgb(33, 33, 33)" stroke="none" stroke-width="1px">120k</text><text x="206.125" y="0" dx="0em" dy="0.95em" style="text-anchor: middle; visibility: hidden; font-family: Roboto, sans-serif; font-size: 12px; font-weight: 200;" fill="rgb(33, 33, 33)" stroke="none" stroke-width="1px">140k</text><text x="231.890625" y="0" dx="0em" dy="0.95em" style="text-anchor: middle; visibility: inherit; font-family: Roboto, sans-serif; font-size: 12px; font-weight: 200;" fill="rgb(33, 33, 33)" stroke="none" stroke-width="1px">160k</text><text x="257.65625" y="0" dx="0em" dy="0.95em" style="text-anchor: middle; visibility: hidden; font-family: Roboto, sans-serif; font-size: 12px; font-weight: 200;" fill="rgb(33, 33, 33)" stroke="none" stroke-width="1px">180k</text></g><line x1="0" y1="0" x2="257.65625" y2="0" fill="rgb(0, 0, 0)" stroke="rgb(204, 204, 204)" stroke-width="1px"></line></g></g></g></g></svg>