<svg viewBox="0 0 330 200" xmlns="http://www.w3.org/2000/svg"><g><g><g><g><g><line x1="74.78125" y1="177" x2="69.78125" y2="177" style="visibility: inherit;" fill="rgb(0, 0, 0)" stroke="rgb(204, 204, 204)" stroke-width="1px"></line><line x1="74.78125" y1="154.875" x2="69.78125" y2="154.875" style="visibility: inherit;" fill="rgb(0, 0, 0)" stroke="rgb(204, 204, 204)" stroke-width="1px"></line><line x1="74.78125" y1="132.75" x2="69.78125" y2="132.75" style="visibility: inherit;" fill="rgb(0, 0, 0)" stroke="rgb(204, 204, 204)" stroke-width="1px"></line><line x1="74.78125" y1="110.625" x2="69.78125" y2="110.625" style="visibility: inherit;" fill="rgb(0, 0, 0)" stroke="rgb(204, 204, 204)" stroke-width="1px"></line><line x1="74.78125" y1="88.5" x2="69.78125" y2="88.5" style="visibility: inherit;" fill="rgb(0, 0, 0)" stroke="rgb(204, 204, 204)" stroke-width="1px"></line><line x1="74.78125" y1="66.375" x2="69.78125" y2="66.375" style="visibility: inherit;" fill="rgb(0, 0, 0)" stroke="rgb(204, 204, 204)" stroke-width="1px"></line><line x1="74.78125" y1="44.25" x2="69.78125" y2="44.25" style="visibility: inherit;" fill="rgb(0, 0, 0)" stroke="rgb(204, 204, 204)" stroke-width="1px"></line><line x1="74.78125" y1="22.125" x2="69.78125" y2="22.125" style="visibility: inherit;" fill="rgb(0, 0, 0)" stroke="rgb(204, 204, 204)" stroke-width="1px"></line><line x1="74.78125" y1="0" x2="69.78125" y2="0" style="visibility: inherit;" fill="rgb(0, 0, 0)" stroke="rgb(204, 204, 204)" stroke-width="1px"></line></g><g transform="translate(64.78125, 0)"><text x="0" y="177" dx="0em" dy="0.3em" style="text-anchor: end; visibility: hidden; font-family: &quot;Helvetica Neue&quot;, sans-serif; font-size: 12px; font-weight: 200;" fill="rgb(50, 49, 63)" stroke="none" stroke-width="1px">-2e+3</text><text x="0" y="154.875" dx="0em" dy="0.3em" style="text-anchor: end; visibility: inherit; font-family: &quot;Helvetica Neue&quot;, sans-serif; font-size: 12px; font-weight: 200;" fill="rgb(50, 49, 63)" stroke="none" stroke-width="1px">0</text><text x="0" y="132.75" dx="0em" dy="0.3em" style="text-anchor: end; visibility: hidden; font-family: &quot;Helvetica Neue&quot;, sans-serif; font-size: 12px; font-weight: 200;" fill="rgb(50, 49, 63)" stroke="none" stroke-width="1px">2e+3</text><text x="0" y="110.625" dx="0em" dy="0.3em" style="text-anchor: end; visibility: inherit; font-family: &quot;Helvetica Neue&quot;, sans-serif; font-size: 12px; font-weight: 200;" fill="rgb(50, 49, 63)" stroke="none" stroke-width="1px">4e+3</text><text x="0" y="88.5" dx="0em" dy="0.3em" style="text-anchor: end; visibility: hidden; font-family: &quot;Helvetica Neue&quot;, sans-serif; font-size: 12px; font-weight: 200;" fill="rgb(50, 49, 63)" stroke="none" stroke-width="1px">6e+3</text><text x="0" y="66.375" dx="0em" dy="0.3em" style="text-anchor: end; visibility: inherit; font-family: &quot;Helvetica Neue&quot;, sans-serif; font-size: 12px; font-weight: 200;" fill="rgb(50, 49, 63)" stroke="none" stroke-width="1px">8e+3</text><text x="0" y="44.25" dx="0em" dy="0.3em" style="text-anchor: end; visibility: hidden; font-family: &quot;Helvetica Neue&quot;, sans-serif; font-size: 12px; font-weight: 200;" fill="rgb(50, 49, 63)" stroke="none" stroke-width="1px">1e+4</text><text x="0" y="22.125" dx="0em" dy="0.3em" style="text-anchor: end; visibility: inherit; font-family: &quot;Helvetica Neue&quot;, sans-serif; font-size: 12px; font-weight: 200;" fill="rgb(50, 49, 63)" stroke="none" stroke-width="1px">1.2e+4</text><text x="0" y="0" dx="0em" dy="0.3em" style="text-anchor: end; visibility: hidden; font-family: &quot;Helvetica Neue&quot;, sans-serif; font-size: 12px; font-weight: 200;" fill="rgb(50, 49, 63)" stroke="none" stroke-width="1px">1.4e+4</text></g><line x1="74.78125" y1="0" x2="74.78125" y2="177" fill="rgb(0, 0, 0)" stroke="rgb(204, 204, 204)" stroke-width="1px"></line></g></g><g transform="translate(74, 0)" clip-path="url(#clip_0)"><clipPath id="clip_0"><rect width="255" height="177"></rect></clipPath><g><g><g><line x1="0" y1="0" x2="0" y2="177" fill="rgb(0, 0, 0)" stroke="rgb(60, 60, 60)" stroke-width="1px" opacity="0.25"></line><line x1="25.521875" y1="0" x2="25.521875" y2="177" fill="rgb(0, 0, 0)" stroke="rgb(60, 60, 60)" stroke-width="1px" opacity="0.25"></line><line x1="51.04375" y1="0" x2="51.04375" y2="177" fill="rgb(0, 0, 0)" stroke="rgb(60, 60, 60)" stroke-width="1px" opacity="0.25"></line><line x1="76.565625" y1="0" x2="76.565625" y2="177" fill="rgb(0, 0, 0)" stroke="rgb(60, 60, 60)" stroke-width="1px" opacity="0.25"></line><line x1="102.0875" y1="0" x2="102.0875" y2="177" fill="rgb(0, 0, 0)" stroke="rgb(60, 60, 60)" stroke-width="1px" opacity="0.25"></line><line x1="127.609375" y1="0" x2="127.609375" y2="177" fill="rgb(0, 0, 0)" stroke="rgb(60, 60, 60)" stroke-width="1px" opacity="0.25"></line><line x1="153.13125" y1="0" x2="153.13125" y2="177" fill="rgb(0, 0, 0)" stroke="rgb(60, 60, 60)" stroke-width="1px" opacity="0.25"></line><line x1="178.653125" y1="0" x2="178.653125" y2="177" fill="rgb(0, 0, 0)" stroke="rgb(60, 60, 60)" stroke-width="1px" opacity="0.25"></line><line x1="204.175" y1="0" x2="204.175" y2="177" fill="rgb(0, 0, 0)" stroke="rgb(60, 60, 60)" stroke-width="1px" opacity="0.25"></line><line x1="229.696875" y1="0" x2="229.696875" y2="177" fill="rgb(0, 0, 0)" stroke="rgb(60, 60, 60)" stroke-width="1px" opacity="0.25"></line><line x1="255.21875" y1="0" x2="255.21875" y2="177" fill="rgb(0, 0, 0)" stroke="rgb(60, 60, 60)" stroke-width="1px" opacity="0.25"></line></g><g><line x1="0" y1="177" x2="255.21875" y2="177" fill="rgb(0, 0, 0)" stroke="rgb(60, 60, 60)" stroke-width="1px" opacity="0.25"></line><line x1="0" y1="154.875" x2="255.21875" y2="154.875" fill="rgb(0, 0, 0)" stroke="rgb(60, 60, 60)" stroke-width="1px" opacity="0.25"></line><line x1="0" y1="132.75" x2="255.21875" y2="132.75" fill="rgb(0, 0, 0)" stroke="rgb(60, 60, 60)" stroke-width="1px" opacity="0.25"></line><line x1="0" y1="110.625" x2="255.21875" y2="110.625" fill="rgb(0, 0, 0)" stroke="rgb(60, 60, 60)" stroke-width="1px" opacity="0.25"></line><line x1="0" y1="88.5" x2="255.21875" y2="88.5" fill="rgb(0, 0, 0)" stroke="rgb(60, 60, 60)" stroke-width="1px" opacity="0.25"></line><line x1="0" y1="66.375" x2="255.21875" y2="66.375" fill="rgb(0, 0, 0)" stroke="rgb(60, 60, 60)" stroke-width="1px" opacity="0.25"></line><line x1="0" y1="44.25" x2="255.21875" y2="44.25" fill="rgb(0, 0, 0)" stroke="rgb(60, 60, 60)" stroke-width="1px" opacity="0.25"></line><line x1="0" y1="22.125" x2="255.21875" y2="22.125" fill="rgb(0, 0, 0)" stroke="rgb(60, 60, 60)" stroke-width="1px" opacity="0.25"></line><line x1="0" y1="0" x2="255.21875" y2="0" fill="rgb(0, 0, 0)" stroke="rgb(60, 60, 60)" stroke-width="1px" opacity="0.25"></line></g></g></g><g><g><line x1="0" y1="154.875" x2="255.21875" y2="154.875" fill="rgb(0, 0, 0)" stroke="rgb(153, 153, 153)" stroke-width="1.5px"></line></g></g><g><g><line x1="25.521875" y1="0" x2="25.521875" y2="177" fill="rgb(0, 0, 0)" stroke="rgb(153, 153, 153)" stroke-width="1.5px"></line></g></g><g><g><g><g><g><path stroke="rgb(255, 112, 67)" stroke-width="2px" d="M26.082080156249997,139.75048828125L26.205861249999998,139.73968505859375L26.2645615625,139.27426458864795L27.10423125,139.26752068014707L27.1527228125,139.18611173609906L27.1833490625,139.02547716249327L27.31223453125,139.0364609610595L27.36072609375,138.88533035021507L28.14679984375,137.4957885805955L28.236126406249998,136.9882794346231L28.789951093750002,135.61293890331632L29.2353078125,134.2920364623888L29.2455165625,133.9416470570523L29.28762765625,133.5933168306612L29.4624525,132.74671703988713L30.00734453125,132.02323237095555L30.43228375,131.135632931639L30.63773484375,129.81903510786546L30.8074553125,128.6613114552009L31.08947203125,128.07043714481955L31.37276484375,127.49190584567918L31.3893540625,126.87652603267355L31.656057656250002,125.57804599011482L31.79387578125,124.70355001287348L31.825778125000003,124.21204267285455L31.87044140625,124.51728081189323L32.1703234375,124.67276708377463L32.430646562499994,124.22676153887537L32.7318046875,123.82640833831248L32.734356875,123.20454017800866L32.826235625,122.22021616374016L33.300942500000005,122.45792659216266L33.503841406250004,122.15805281597804L33.6608009375,121.96291762149596L34.1406121875,121.49736775239445L34.55789484375,121.54991283947865L34.643393125,121.39199457770988L34.866709531249995,121.25990768363548L35.1104434375,121.11704617236299L35.16021109375,120.82114176552224L35.91310640625,119.42948974569718L36.085379062499996,116.80652197115606L36.239786406250005,113.85131161934035L36.49245296875,112.53727915887656L36.5396684375,111.37411749520503L36.686419218750004,112.29825955968066L37.083284375000005,111.05094011076173L37.12794765625,108.39703281639746L37.58734140625,107.93029781483217L37.9331628125,106.86896775139073L38.33002796875,106.4257634633323L39.01911859375,107.11398151550138L39.25902421875,106.36811547179953L39.682687343750004,107.50806459558092L41.572582187500004,103.9136121948463L41.61469328125,102.6322610669073L41.7920703125,104.5419582026448L42.3127165625,101.95418273408653L42.41352796875,102.81867370295198L42.529652500000005,101.22996203427113L42.641948750000005,101.8393131580627L42.820601875,102.04866601983763L43.218743124999996,100.10835586190257L43.341248125,99.32444320464153L43.38846359375,99.42243154778492L43.9410121875,101.20835736617094L44.49994125,100.38822535720257L44.56119375,101.55275552682154L45.5590990625,97.96613769109292L45.72371515625,98.47746386465576L45.82580265625,98.46482988129345L46.0031796875,98.34109324127607L46.37835125,97.84785906976565L46.5901828125,97.71232481685938L46.674405,97.25764489011564L46.9117584375,95.24249318406937L47.082755,93.62132403544163L47.41836765625,93.42576317126498L47.849687343750006,94.02887196525899L48.23634375,92.9954794291554L48.312909375,94.39020171999323L48.4328621875,92.81679290699594L48.49283859375,93.10068511919756L48.7340203125,91.59920013401855L48.7774075,89.50355914291113L48.802929375,88.4854011107467L49.098983125,89.06095941644803L49.129609375,89.87091939986881L49.66684484375,89.5465672649213L49.8799525,89.27590129645279L49.98331609375,90.29165796537167L50.242363125000004,89.25418227922299L50.3929421875,88.7907203050338L51.04757828125,89.93279155802028L51.199433437500005,88.57838587231217L51.2096421875,89.0628205858873L51.343632031249996,90.12647360153237L51.435510781249995,88.28251697341943L51.62437265625,88.85902580905166L52.2764565625,89.022399860431L52.42065515625,89.8961821037586L52.5265709375,90.04985769975518L52.66566515625,89.90007086985311L52.753715625,91.05611283441186L52.82645296875,90.01292551314711L52.84176609375,91.43080999538827L53.0216953125,91.32186880973296L53.3100925,90.72273847333977L54.11020328125,90.18072902150388L54.378182968750004,91.14015616290233L54.5632165625,88.90040619774139L54.7929134375,89.94882184364485L54.80439828125,89.26558216868692L55.19743515625,88.80309148871216L55.46031046875,88.0111908307273L55.706596562499996,88.04077699843637L55.78699046875,89.20764588656183L55.972024062500005,88.44336878193711L56.05497015625,86.80664626916226L56.3523,90.62850338649734L56.696845312499995,88.81881296939841L56.80531328125,87.28496746913905L56.83849171875,88.00467579398342L56.852528750000005,87.28738360139006L56.872946250000005,88.37257078583404L57.061808125,90.04419872150042L57.2430134375,89.29515204540026L57.30171375,87.79478653974014L57.467605937500004,86.90286411134409L57.62711765625,86.15199190430646L57.7585553125,86.46339826758387L57.76748796875,87.29048427305032L57.77514453125,86.34307962633022L58.0903396875,85.66954308829813L58.17583796875,85.04970241547889L58.353215000000006,85.71214176178734L58.397878281249994,85.1291913070724L58.43616109375,85.45699915924345L59.43406640625,84.30544168304607L59.63313703125,84.39441344732764L59.694389531249996,86.16248400589659L59.8156184375,86.30237321603796L60.891365468749996,85.05327549212278L61.00110953125,84.08809810777367L61.12871890625,83.3458198021642L61.246119531249995,82.72068719379851L61.50133828125,84.0685920037791L61.5511059375,84.77224113976747L61.86630109375,85.03678999636047L62.089617499999996,83.6094333728163L62.3729103125,82.99362877368978L62.47755,82.99335695171386L62.54007859375,83.01255323352832L63.008404999999996,83.140918658867L63.044135624999996,82.7097543203202L63.141118750000004,83.75504790469212L63.312115312500005,84.08215374281528L63.67324984375,85.14129224568917L63.728121875,85.20014253491348L63.799583125000005,84.50671052094809L64.01013859375,84.02427631256887L64.3125728125,85.33749547504132L64.50143468750001,86.05905197252478L64.63414843749999,84.74687649601488L64.881710625,85.02848527260892L64.9302021875,84.75909897606535L65.208390625,84.73989688563921L65.21221890625,84.47670375638353L65.48913125,83.89841287883011L65.58101,82.86003210229808L65.60015140625,81.99362863637884L65.73286515625,81.5885599943273L65.85792234375,83.15285474659639L65.91917484375,84.04303316045782L65.93831625,85.65020270877471L66.3849490625,85.29253568776481L66.50873015625001,84.5967167251589L66.54828906249999,84.08519409759533L66.60060890625,83.3496086460572L66.6299590625,83.14195268763434L67.13146390625,82.3937106750806L67.20420125,84.00377328004836L67.48111359375,82.38533428052902L67.55767921875001,82.37670838081742L68.03111,83.92443127849045L68.41776640625,83.24347126709428L68.78017703124999,84.49427026025657L69.18342265625,82.95066371865394L69.240846875,84.89798416869237L69.34931484375,84.32818112621543L69.47181984375,82.89526023822926L69.69641234375001,81.85297645543756L69.7589409375,82.31587962326255L69.904415625,81.78052777395752L69.9069678125,82.00552760187452L70.322974375,82.6065353111247L70.54629078125001,82.30062431167482L70.79640515625,80.61257771200489L70.80789,81.18998412720293L71.28642515624999,80.80492016382176L71.35022984375,79.81610053579307L72.03166390625,80.33044157147584L72.099296875,81.8545383803855L72.86112484374999,80.4928870907313L72.89175109375,81.24400569193877L73.0818890625,81.62553622766328L73.08571734374999,80.84500142409796L73.20056578124999,81.06808679195879L73.86541062500001,81.48956301267529L74.39754171875,81.95816749510517L74.4345484375,82.1895489345631L74.65020828125,81.32169029823787L74.6693496875,80.25752980394272L74.8684203125,80.39617413236563L75.92247375000001,80.41298572941939L75.99265890625,79.40255706265162L76.51713343750001,78.51005767509099L76.79915015625,81.36936273005459L77.07606249999999,81.03008638803276L77.2215371875,80.98001277031966L77.8851059375,81.0274060996918L78.09821359375,80.98670147231508L78.4823178125,80.88207557088904L78.7834759375,82.47314378003342L79.19820640625001,81.11710501802006L79.38706828125001,82.34866144831204L79.43428375,81.27887655648723L79.46746218749999,81.71974780889234L79.7533071875,81.4339111853354L79.8451859375,81.06466702370125L80.1820746875,82.61173771422075L80.22929015625,80.90433950353244L80.2433271875,79.77065838961947L80.8533,79.85860206502169L81.47986203125001,80.43614561401301L82.12939374999999,80.25582018090779L82.226376875,80.01625773354468L82.23020515625001,79.7176452651268L82.25317484375,79.79844653407608L82.2748684375,78.82226323294566L83.32254140625001,78.19368606476739L83.5611709375,77.43903195136043L83.6071103125,77.59605979581626L83.716854375,77.86312806498978L83.9363425,77.91412683899387L84.012908125,80.51260891589632L84.28088781250001,79.39319034953779L84.405945,78.62474233472268L85.48679640625,78.7140329008336L85.49955734375,78.51455255300016L85.901526875,76.8302120005501L86.2971159375,78.78781470033005L86.3047725,79.41063413269804L86.37623375000001,78.48586485461884L86.41068828125,80.60121422527129L86.514051875,78.84621291016278L86.93388671875,76.91789180859767L87.18655328125,76.32232102265861L87.75569109375,75.68565042609518L87.9203071875,75.33960119315711L87.96241828125,76.77198727839428L88.88886234375,76.66206736703656L88.93735390625,75.63920917022193L88.96925625,75.52883800213317L89.29721234375,76.5757793637799L89.43885875,75.98983480576794L89.53456578125,76.04066650846076L89.91228953125001,75.70333740507647L89.985026875,77.57377588054588L90.18664968750001,76.78775771582752L90.28746109375,76.36592806699652L90.59372359375,77.49149434019792L90.88467296875,76.53373254161876L91.0186628125,75.02567702497124L91.11947421875,77.77008590248273L91.47678046875,77.13509060398965L91.82132578125,76.50518717489379L91.8251540625,75.69442480493628L91.92979375,77.64171738296176L92.1314165625,78.10624136727708L92.27178687499999,77.47644794536626L92.31645015625,76.74042345471973L92.4427834375,79.59266813533186L92.5499753125,76.4282180686991L92.77712,75.41454802871947L92.99788421875,75.2820335047317L93.34881,74.76832166533902L93.4636584375,75.6714383117034L93.568298125,77.09692548702206L93.86945625,76.07574122971324L94.160405625,76.05487442532797L94.38372203125,75.99810434269676L94.384998125,77.44088604311807L94.39137859374999,75.65985193837084L94.55982296875,76.42622366302251L94.61597109375,75.7784138853135L94.89543562499999,75.52800926868811L95.19021328125,74.87027431121288L95.60877203125,73.75380521172772L95.75935109375,74.67139250203665L95.834640625,74.87485893872197L95.91248234375,74.4147747382332L96.1434553125,74.9186304679399L96.23150578125,74.44242046826398L96.28254953125,74.26731946845838L96.29531046875,73.83453230607502L96.4803440625,74.86778969614502L97.0163034375,75.140658192687L97.40806421875,73.56065272811222L97.5777846875,73.20587601186733L97.75771390625,72.6403927946204L97.764094375,72.82380598927224L98.17372046874999,71.58976015606335L98.5144375,72.456160781138L98.86791546875,71.1382433436828L99.24436312499999,72.88080538120968L99.31199609375,72.55597541622582L99.36303984374999,72.09834306223549L99.83264234375,72.5690995873413L99.8339184375,73.30096756490478L99.92452109375,74.48818991394288L100.08530890624999,73.42914051086571L100.19888125,71.48142180651942L100.6506184375,73.32870464641167L100.8752109375,72.39742591284701L101.11639265625,72.8093930477082L101.13170578125,73.31792489112492L101.173816875,72.50711430967496L102.38865812499999,71.922448273305L102.6106984375,70.920343963983L102.9067521875,70.48363606588978L103.03691375000001,71.05544726453388L103.26278234375,72.22960429622033L103.2742671875,70.11730945273219L103.30616953124999,69.84694035913932L103.60987984375001,71.23761734048358L103.7489740625,70.76941415429016L103.8000178125,69.99067974257409L103.91103796875,70.23973597054444L104.03226687499999,71.50371658232669L104.14711531249999,71.40752682439599L104.44444515625,70.30302390713759L104.5044215625,69.40247840678258L104.98550890625,68.37816673156954L105.02379171875,67.32661097644173L105.02889609374999,67.71481033586504L105.5763403125,69.39553463901902L105.6529059375,69.6904379709114L105.82773078125,69.32531747004685L105.9591684375,68.85595610702812L106.09060609375001,69.23808928921686L106.20545453125,68.20347857353013L106.2143871875,68.04457151911808L106.58828265625,65.92617259897085L106.7095115625,65.24697699688252L106.76183140625,66.9759049481295L106.86136671874999,65.94872265637768L106.94303671875,67.47715546882662L107.14210734375,66.46519171879598L107.88224171875,65.7708962812776L108.299524375,65.47324089376656L108.37481390625,64.74290547375992L108.45648390625,66.05119640925597L108.48838625,64.75918659555357L108.5113559375,63.96738695733217L108.68490468750001,64.30263529939931L108.75891812500001,66.45631555463959L108.98223453125,66.44729714528376L109.1545071875,68.86733922467025L109.1851334375,68.14143478480214L109.46204578125001,66.6093218083813L109.74533859375,65.03114386627878L109.902298125,64.49009256976726L110.27364140625,65.29521960436037L110.28895453125,63.3763505126162L110.8083246875,62.45872437006973L110.87850984375001,63.54401587204184L110.93976234374999,64.62109702322509L110.96911250000001,63.17238477643508L111.1605265625,63.54354024086106L111.290688125,65.02459289451664L111.42340187500001,63.63296667420998L111.71945562500001,62.666623754525986L111.7475296875,62.41454456521562L111.8879,64.08169548912937L112.07676187499999,63.378361043477625L112.0997315625,62.85126662608657L112.20819953125,62.08974435065194L112.55784921875,62.80960442289117L112.6203778125,62.50586421623473L112.73650234374999,62.90578415474083L112.74926328125,61.85004080534449L112.852626875,61.11150104570669L112.97896015625,62.09958812742401L113.29287921875,62.02730756395441L113.45621921875001,61.41283766337263L113.97431328125,61.875226035523596L114.03556578125,62.51357312131414L114.1006465625,63.05698762278847L114.40180468749999,63.56280194867308L114.40308078125,62.40465773170385L114.414565625,62.40256026402231L114.59449484375,62.69445803341338L114.5957709375,62.02331544504804L114.690201875,61.26801270452883L114.7029628125,61.87959668521731L114.82163953125,61.733523636130386L114.92883140625001,60.88256730667821L114.99774046875001,61.050954446506935L115.27082453125,61.55092813665415L116.02882421875,62.2871896944925L116.3976153125,61.39314975419549L116.6017903125,60.20265547751728L116.6987734375,60.666515161510375L116.80213703125,62.481135659406235L116.9948271875,61.82203295814375L117.00631203125,61.552407274886264L117.0535275,61.72250686493176L117.313850625,62.31684786895906L117.32788765625,61.084600908875416L117.4286990625,60.64532304532527L117.52695828125,60.68597507719518L117.91744296875001,62.33378817131711L118.00932171875,61.94934321529027L118.1279984375,61.952371554174164L118.37683671875,62.048219807504495L118.64354031250001,60.710470947002676L119.38750296875,60.315751318201606L119.80350953125,59.570044540920975L119.88773171875,59.6591517245526L119.92346234375,59.62964728473156L120.03831078125,58.96340555833895L120.39689312499999,59.560668335003356L120.4760109375,59.21240881350201L120.63297046875,59.53030466310119L120.83969765625,59.24673748536074L121.16637765624999,59.36560499121644L121.203384375,58.820191119729856L121.7418959375,59.214770921837925L121.89375109375,60.40012817810276L122.04943453125,60.966147219361645L122.10558265625,59.73626645661702L122.1859765625,58.24055674897022L122.25871390625,58.15207623688214L122.50627609375,57.74360511712926L123.367639375,58.46925682027758L123.36891546875,58.787108779666525L123.898494375,57.498210580299926L123.9163596875,56.99452009817996L124.0337603125,59.22838393390798L124.041416875,59.87729598534479L124.306844375,58.633541653706885L124.54419781249999,58.85940624222414L124.76113375,60.257432807834476L124.96403265625,63.171850309700716L125.02018078124999,62.691407060820424L125.0903659375,61.551328611492266L125.18096859375,60.204914354395356L125.42087421875,59.9916751751372L125.55103578125001,59.17647385508231L125.69013,59.570970250549394L125.77052390624999,59.84776965032964L125.92110296875,59.19384147769779L126.2796853125,57.85702363661869L126.287341875,57.944081369471206L126.59488046874999,57.15833163418273L126.65996125,56.612209918009654L127.18443578124999,57.4516306383058L127.21123375,55.980626820483494L127.25079265625,56.62879796729008L127.3771259375,56.04834909287405L127.45496765624999,56.32787664322443L127.6833884375,55.98948379843466L128.31633093750003,56.50274496656078L128.38141171875,56.39032666743648L128.46691,56.28692256296189L128.54347562499999,56.55398947527712L128.83570109374998,57.6006124351663L129.0386,58.66970339859978L129.23129015625,58.54507985165988L129.46353921875,58.25458697349592L130.15007765625,59.75764280909755L130.19346484375,58.89777318545853L130.27513484375,60.61232797377512L130.5775690625,58.64865459676507L130.65158250000002,57.53405994555904L131.1900940625,56.64820159233544L131.39171687500001,56.75416314290126L131.86259546875002,57.64881038574076L132.39855484375002,56.67833310644444L132.45725515625,55.86926548886669L132.5274403125,56.17894210582001L132.65377359375,57.132209013492016L132.9383425,56.250833220595226L132.9408946875,58.22351555735713L132.95875999999998,57.491929646914286L133.00342328125,57.85639216314857L133.01363203125,57.20528061038917L133.46536921875,57.19073867873348L134.2323015625,55.969286957240115L134.342045625,57.00641592434407L134.3548065625,56.622005804606445L134.72487375,56.23510192026386L134.9775403125,58.046756464658316L135.04772546875,57.348538253794985L135.48287343750002,55.585513577276984L135.5339171875,55.9976284588662L135.5594390625,56.1453348878197L135.71384640624998,56.173114995191824L135.82103828125,55.96300180961509L135.8657015625,55.98627764826905L136.40804140625002,55.65177440146145L136.69388640625002,54.47618964087688L136.95038125,55.661143472026126L137.20815218750002,55.58667827071568L137.2260175,55.44658508742941L137.4710275,56.44941980245767L137.56290625,56.8188081314746L137.751768125,57.09160519138477L137.81940109375,57.18199436483087L138.1371484375,57.10071224389853L138.17925953124998,55.75209922133911L138.262205625,55.81272047030346L138.854313125,55.78963228218208L138.905356875,55.434224681809255L138.91046125,55.657948871585575L138.92449828125,56.34807401045133L139.4081378125,55.54942253127079L139.65952828125,54.45626289376247L140.00917796875,55.253703048757515L140.61404640625,55.53235073550452L140.84374328125,55.53152762880272L140.845019375,56.20446345228166L141.08875328124998,55.779920258868984L141.60684734375002,54.78262403032139L141.77273953124998,54.715246293192834L141.93607953125002,53.7372727759157L141.9552209375,53.43534804054943L142.01774953125002,54.30789632432966L142.12494140625,54.31287060709782L142.25510296875,56.53665205175871L142.43248,55.99720998105522L142.447793125,56.00680255113312L142.69663140625002,54.05449559317988L142.83062125,54.78862704340793L142.92377609375,55.08391060104475L143.17899484375,54.070479173126856L143.24279953125,52.65762344137613L143.25173218749998,51.54855843982567L143.29639546875,51.275838188895406L143.713678125,52.68584666333726L144.10288671875,53.11424237300233L144.23942875,52.6480688613014L144.31471828125,53.35984131678083L144.387455625,54.07107275881852L144.9565934375,54.21364365529111L144.989771875,54.004647130674655L145.4415090625,52.91957734090481L146.28755921874998,53.18257452954289L146.9421953125,52.89925565522573L146.965165,53.08188151813545L147.23186859375,53.849675785881274L147.26632312499999,54.01581328402878L147.33906046874998,54.8580660954173L147.38755203124998,54.64435528225039L147.57769,52.443292856850235L147.7027471875,53.36419446411014L147.85332624999998,52.326501053466075L148.50796234375,51.71356469457963L148.83719453125,51.81042787924778L149.114106875,52.68993641504866L149.18429203125,52.4322040365292L149.45737609375,51.825384921917504L149.53777,51.38800439065052L150.4540053125,51.280451071890326L150.57012984374998,52.39545814313422L150.92233171875,51.471462385880514L151.06014984375,51.453596181528326L151.08822390625002,52.720595208916976L151.10864140625,52.77694306285018L151.11374578125,52.70565802521013L151.31536859375,51.75576200262607L151.9342740625,52.549277514075655L152.1716275,52.2012305709454L152.39622,51.96474615506723L152.41025703125,50.61704300554035L152.52893375,50.770858615824224L152.90538140625,51.50200735699454L153.43878859375,51.52585285169674L153.55363703125002,50.88194139851805L153.7105965625,51.300391401610824L154.02323953125,52.56091452846651L154.26059296875,53.12778309207991L154.330778125,53.08071673024796L154.50943125,51.657219100648774L154.77485875,51.583026772889255L154.96882499999998,50.693612938733565L155.2163871875,49.60545682574015L155.3542053125,51.12081315794411L155.55072375,51.88483164476645L156.147935625,49.93714898685985L156.188770625,49.21933626711592L156.22067296875,48.359976760269575L156.3138278125,48.62565011866175L156.53331593750002,49.054702571197055L157.301524375,48.33448560521825L157.42785765625,48.02266011313094L158.27518390625,48.19094763037859L158.5138134375,49.27924826572715L158.58272250000002,49.92531458443629L158.76648,51.055524688161796L158.96044625,50.58315075039707L159.07274249999998,49.074554512738246L159.118681875,51.08021708264296L159.54617328125,50.40990368708576L159.62273890625,49.50298908725148L159.89837515625,48.633879389850904L160.0655434375,49.89071044641054L160.22633125000002,50.36271533034632L160.25312921875002,49.16077763570782L160.6678596875,50.15015408142469L161.1553275,49.13142057385481L161.24337796875,47.76516484431292L161.49732062500001,47.862216094087756L161.65555625,48.31316559395265L161.8316571875,48.65011029387159L161.98351234375002,49.02512867632295L162.67770734375,49.16578814329378L162.74023593750002,50.20155882347625L162.936754375,51.156279044085764L163.19580140624998,49.743392426451464L163.25833,49.25104326837088L163.86830281250002,48.49100877352254L164.2715484375,48.85361307661353L164.53314765625,48.64803503346812L165.060174375,47.68670383258086L165.12653125,47.528897299548504L165.3230496875,48.30538525472912L165.32943015625,49.97847334033746L165.948335625,49.54212697295249L166.13847359375,48.23698712127151L166.2469415625,49.2487938352629L166.3745509375,50.93585442615773L166.5276821875,49.39680171819464L166.61062828125,48.92693259341678L166.98324765625,47.73650330605008L167.2882340625,47.479956671130054L167.36479968749998,46.79779431517804L167.77953015625,46.78398127660682L167.81781296875002,47.558365328464106L168.05771859375,49.32560513457844L168.44565109375,47.85263651824707L169.3248796875,47.376785035948245L169.6770815625,46.93225070906897L169.77789296875,48.7300691754414L170.5550340625,47.72209619276481L170.74900031250002,46.66098427815891L170.97869718750002,47.20247337939534L171.00166687499998,46.19295277763723L171.01315171875,45.44481072908232L171.35004046875,46.0385661249494L171.46488890625,45.97306154996966L171.49551515624998,46.332008804981825L171.80432984375,47.657775595489056L172.17439703124998,49.27462629479345L172.48321171875,47.651963276876074L172.85327890624998,49.43845921612562L172.89539000000002,48.11394271717538L173.04469296874998,49.51099063030523L173.666150625,47.793781878183154L173.7248509375,46.4080738144099L173.94178687500002,46.149133351145935L174.38459140625,44.840503448187576L174.46881359375,45.28741144391253L174.61811656249998,44.093923428847546L174.88992453125,45.44790093230853L175.3327290625,44.51932649688513L175.37739234375002,45.88705683563106L175.51265828125,44.30160128887866L175.90824734375,44.390202960827196L176.7466409375,43.99256708899631L176.92657015625002,44.47719650339778L177.23793703125,43.67970071453868L178.26136421875,44.386273553723214L178.44639781249998,44.97338913223393L178.4872328125,45.19152566684036L178.63525968750002,45.420587275104225L179.14569718750002,45.17775080256254L179.56808421875002,44.43605673153755L179.84372046875,43.101891851422494L179.90880125,43.777545267103505L180.07214125,44.064706847762096L180.4422084375,43.89130067115727L180.71656859375,45.366428840194345L181.118538125,46.45754480411662L181.22955828125,46.780339382469975L181.76806984375,46.73893800448198L182.0143559375,45.45020655268917L182.57456109375002,46.06531143161351L182.823399375,45.2797259214681L182.9076215625,47.43848399038086L183.08499859375002,46.38848883172852L183.19729484375,46.41256204903712L183.72687374999998,45.94025597942229L183.74729125000002,45.03598952515338L184.2041328125,44.72159371509204L184.28963109375,45.60601872905522L184.46445593750002,45.00829873743314L184.64310906249997,45.20279174245988L184.75030093750001,45.29321410797593L184.80900125,44.78466283978557L184.87918640625,46.24261801637135L184.885566875,47.04963330982281L185.03486984375002,45.531529985893656L186.10806468750002,45.61905861653622L187.0625828125,43.85594298242174L187.22081843750001,41.72362828945302L187.22719890625,42.26816916117181L187.51687218749998,42.1067608717031L187.80144109375,41.14012683552187L188.38078765625,41.58481047631312L190.96615359375002,40.412112848287876L191.5901634375,38.27590052147272L191.61185703125,39.37122781288363L192.29839546875002,39.90535387523019L192.36347625,38.8499310751381L192.44131796874998,38.89425552008288L192.64932124999999,36.824506437049706L192.7794828125,36.305867924729824L192.79224374999998,35.80247387983792L192.95941203125,36.414476515402754L194.09513546875,34.518014034241645L194.36821953125,35.99918342054502L194.64385578124998,35.937892864827006L194.74083890625,34.3164154063962L194.8926940625,33.25641174383773L195.52180828125,34.26733923380266L196.0922221875,37.53442697778161L196.30532984375,38.26121087416897L196.3321278125,37.80398433700137L196.666464375,38.120109352200814L196.88467640625,39.1477687363205L197.94766249999998,37.23243467929231L198.31390140625,35.80667174507539L198.46575656250002,39.59746398454524L198.52318078124998,37.444173703227136L198.91749375,35.975199534436285L198.97491796875,31.19428378316178L199.63848671875,29.714078082397066L199.7673721875,32.68400153693824L200.0991565625,32.31568217216292L200.19996796875,36.500331178297756L200.56237859375,35.24848776947866L201.1863884375,33.51281922418721L201.515620625,31.496535284512305L201.87675515625,30.261874295707372L202.10772812500002,31.36298395242443L202.82872109375,34.09233724645463L203.4170003125,37.21094141037278L203.55992281250002,38.768205471223666L203.61989921875,41.061868595234216L203.66073421875,40.35001959464054L203.89043109374998,38.77932425678435L203.91722906249998,40.7228367415706L204.46212109375,41.97882704494236L204.9381040625,41.30535872696541L205.0861309375,41.728199611179264L205.1575921875,41.098286954207566L205.4893765625,39.52144092252456L205.57742703124998,39.26535674101473L205.8160565625,38.602831232108855L205.95259859375003,38.909167489265315L206.548534375,39.224336431059186L207.007928125,37.02393779613553L207.3397125,40.47855017768131L207.5515440625,41.234880106608784L207.71616015625,38.57873275146528L208.07346640625,38.25031777587918L208.2202171875,34.253300040527506L209.12496765625,34.100776899316514L209.2461965625,33.85853645208991L209.40826046875,32.71894999625391L210.3844721875,33.36546374775236L210.45082906250002,32.891879811151426L210.6141690625,35.096791949190845L210.89108140625,35.81683298201452L210.96509484375,36.78262322670872L211.12077828125,39.84562862352524L211.193515625,42.405259986615164L211.2266940625,42.974452866969074L212.2935084375,47.87233578268143L212.3394478125,45.35863584460887L212.55638375,45.70061900676532L212.612531875,45.40937921655919L213.592571875,43.49644002993551L213.6921071875,42.57684058046132L213.76101624999998,44.064729348276785L213.80440343749999,41.109095421466094L214.20382078125002,41.81094944037966L215.31147015625,42.50032747672782L215.4224903125,42.890446486036694L215.81425109375002,43.19227570412201L215.85380999999998,44.7561857349732L216.64881640625,43.97431300348393L216.97804859374997,43.36137686459034L217.04695765625002,41.544427681254206L217.1120384375,41.29639098375253L217.4285096875,38.561709590251525L217.54208203125,37.01631481665095L217.573984375,37.80653107749055L218.3217753125,36.33642645899434L219.3783809375,34.9385746253966L219.523855625,33.98785571273794L219.73823937499998,35.021486865142776L220.248676875,33.60339993158564L220.62129625,39.90860245895141L220.87906718750003,41.42805991287085L221.26827578125003,39.79259376022253L221.49797265625,36.92515781863352L221.49924875,37.97308687868011L222.02499937500002,45.28359431470807L222.1398478125,42.25802377632485L222.1500565625,40.381837703294934L222.20748078124998,42.39234480947695L222.40144703125,40.22043813568618L222.41676015625,42.13095038141171L222.4205884375,40.551734291347L222.89019093750002,37.28384526230823L222.93740640625,37.452643094884934L223.07012015625,37.17503116943095L223.09819421875,34.08519838915856L223.2219753125,34.68855653349516L223.2679146875,34.534782357597095L223.51675296875,36.79606472705825L223.6405340625,34.89216227373498L223.64308624999998,35.18518017674097L223.6507428125,33.288154981044585L223.65839937500002,33.49956486362677L223.6609515625,34.227934230676055L223.66477984374998,33.13556522590562L223.68009296875,33.055393823043374L223.69030171875002,27.589431606326002L223.69285390625,27.917612088795607L223.70051046875,31.436036003277366L223.709443125,32.31085597696642L223.71582359375,33.121990148679856L223.72475625,32.30467846420791L223.74134546875,35.45385395352474L223.74900203125,33.82133580961485L223.75155421875,33.140512423268945L223.77197171875,30.664713703961354L223.7758,28.844593847376814L223.7783521875,27.33767818342608L223.77962828125,32.49024753505563L223.8038740625,32.85903133353341L223.81535890625,32.66130942512004L223.83067203125,34.05409034257204L223.83450031249998,33.227618268043216L223.83832859375,31.534219398325945L223.8549178125,31.029820701495566L223.8651265625,30.092470545897356L223.8753353125,31.7176698275384L223.87661140625,31.102555021523045L223.8804396875,31.335009575413835L223.882991875,33.013552620248305L223.88426796875,32.09580344714897L223.90213328125,31.23263831828939L223.91234203125,34.09433299097364L223.9314834375,35.3245997945842L223.94041609375,33.86961925175052L223.94807265625,31.128451238550326L223.9519009375,29.653836368130214L223.96083359375,30.42291119587813L223.9774228125,29.531965467526902L223.97997500000002,28.22578865551614L223.98125109375,29.821902880809688L223.9825271875,28.435704228485832L223.99018375,30.178781912091495L223.99656421875,29.349534772254884L224.0131534375,30.581884925852904L224.0335709375,33.14660751801176L224.04250359374998,30.790058260807058L224.0488840625,30.73958183148423L224.05016015625,30.287538161390557L224.05781671875002,29.363624459334346L224.06930156250002,29.680448113100596L224.07440593750002,31.77882355536036L224.076958125,29.42870819571624L224.0846146875,30.809154604929745L224.08844296875,32.71048495045784L224.0948234375,33.8996815952747L224.11779312500002,34.133363644664826L224.12417359375,31.640697874298894L224.13183015624998,33.62978591207934L224.1407628125,31.591605922247624L224.1458671875,31.498455740848556L224.14969546875,31.02357344450914L224.168836875,27.146097191705508L224.17904562500001,28.343017690023288L224.18415,30.024990301513952L224.18542609375,31.048001993408377L224.20839578125,31.69223088354505L224.2122240625,30.36822915512701L224.21350015625,31.235968743076228L224.21605234375,31.05967499584574L224.21860453124998,30.18505499750745L224.219880625,30.1000173735045L224.224985,29.32163542410271L224.22626109375,29.804598441961645L224.24029812499998,31.063727815177003L224.2479546875,33.59335387660619L224.2530590625,30.321067013463733L224.28240921875002,29.505429270578247L224.29899843750002,30.575859124846943L224.3092071875,31.58871078740816L224.31686375,31.084640534944924L224.3194159375,31.18459682096696L224.32069203125002,30.040140905080193L224.33345296875,28.184990793048115L224.3347290625,29.89975228832884L224.35387046875,31.73755449799731L224.35769875,30.7632514487984L224.37173578125,29.975396181779047L224.373011875,32.41903458406745L224.37684015625,33.466225437940466L224.38960109375,34.3973758877643L224.39853375,33.80694897015857L224.40363812500001,34.662653757095114L224.4087425,34.427975066757085L224.42022734375,34.08527722755423L224.42660781249998,31.678221024032553L224.42916,33.85557323941953L224.43171218749998,33.61461738115173L224.44319703124998,33.41887980369103L224.4495775,32.01127319471462L224.45595796875003,33.48430297932876L224.47382328125,32.88298022509727L224.47509937499999,31.353710010058364L224.4776515625,30.918749443535006L224.48403203125,33.62114029112098L224.495516875,34.110051362172584L224.5031734375,35.90928081730357L224.51976265625,32.04388099038212L224.5312475,30.595812969229286L224.53379968750002,32.729058094037555L224.5389040625,29.27287235642254L224.54018015625,31.148473413853537L224.54528453125,31.321076235812114L224.55294109375,30.157981678987284L224.56059765625,30.461281194892365L224.566978125,31.214362466935427L224.57080640625,30.287547167661245L224.57335859375,31.215215800596752L224.587395625,33.281848230358065L224.5925,29.90876518821483L224.60398484375,29.288470050428913L224.60908921875,29.74321484275734L224.61419359375,28.52262421815442L224.6205740625,28.44019171839264L224.62185015625,30.430380656035595L224.62695453125,30.131056518621335L224.6358871875,31.78645422367282L224.64226765625,28.405856909203692L224.64481984375,32.460490708022206L224.64737203125,32.8909584873133L224.648648125,32.44262196738799L224.66013296875,33.36837005543279L224.6614090625,34.573740783259666L224.66268515625,32.824494469955795L224.67034171875,31.436157619473505L224.68565484375,29.8605851966841L224.6920353125,29.681319868010462L224.7022440625,31.186120045806263L224.70479625,30.158593902483744L224.7175571875,31.988273528990277L224.720109375,32.36978442989417L224.73925078125,32.04694878293648L224.75328781250002,32.888973957261896L224.75584,30.75716562435713L224.760944375,31.864814999614282L224.7634965625,32.59577962476857L224.77625749999999,31.82716308736113L224.78008578125002,31.63702441491668L224.79029453125,30.603370898950004L224.80688375,33.15535066437002L224.8094359375,32.16981977362201L224.82347296875002,31.860594989173194L224.83240562499998,31.311380431003926L224.83623390625002,32.46146107110235L224.84133828125,29.32388445516142L224.84771875,29.713299423096856L224.85920359374998,28.378839028858124L224.873240625,31.863498729814864L224.88217328125,31.889755487888948L224.89110593750001,31.635861105233374L224.903866875,32.44457916314002L224.90769515624999,33.836934997884015L224.91279953125002,33.23560631123041L224.914075625,32.53463722423825L224.91790390625002,31.172360459542944" style="fill: none;" fill="none"></path></g></g></g></g><g opacity="0.2"><g><g><g><path stroke="rgb(255, 112, 67)" stroke-width="2px" d="M26.082080156249997,139.75048828125L26.205861249999998,139.733203125L26.2645615625,138.8274609375L27.10423125,139.25958984375L27.1527228125,139.07982421875L27.1833490625,138.80326171875L27.31223453125,139.05216796874998L27.36072609375,138.66498046875L28.14679984375,135.446484375L28.236126406249998,136.2346875L28.789951093750002,133.56240234375L29.2353078125,132.31787109375L29.2455165625,133.41720703125L29.28762765625,133.07150390625L29.4624525,131.4778125L30.00734453125,130.93851562499998L30.43228375,129.80460937499998L30.63773484375,127.84447265624999L30.8074553125,126.92490234375L31.08947203125,127.1841796875L31.37276484375,126.624140625L31.3893540625,125.9534765625L31.656057656250002,123.63035156250001L31.79387578125,123.39181640625L31.825778125000003,123.47478515625L31.87044140625,124.97513671875L32.1703234375,124.90599609374999L32.430646562499994,123.55775390625L32.7318046875,123.22587890624999L32.734356875,122.27173828125001L32.826235625,120.74373046875L33.300942500000005,122.8144921875L33.503841406250004,121.70824218749999L33.6608009375,121.67021484374999L34.1406121875,120.79904296875L34.55789484375,121.62873046875L34.643393125,121.1551171875L34.866709531249995,121.06177734375001L35.1104434375,120.90275390625L35.16021109375,120.37728515625L35.91310640625,117.34201171875L36.085379062499996,112.8720703125L36.239786406250005,109.41849609375L36.49245296875,110.56623046875L36.5396684375,109.629375L36.686419218750004,113.68447265625L37.083284375000005,109.1799609375L37.12794765625,104.416171875L37.58734140625,107.2301953125L37.9331628125,105.27697265625L38.33002796875,105.76095703125L39.01911859375,108.14630859375L39.25902421875,105.24931640625L39.682687343750004,109.21798828125L41.572582187500004,98.52193359375L41.61469328125,100.710234375L41.7920703125,107.40650390625L42.3127165625,98.07251953125L42.41352796875,104.11541015625L42.529652500000005,98.84689453125L42.641948750000005,102.75333984375L42.820601875,102.3626953125L43.218743124999996,97.197890625L43.341248125,98.14857421875L43.38846359375,99.5694140625L43.9410121875,103.88724609375L44.49994125,99.15802734375L44.56119375,103.29955078125L45.5590990625,92.5862109375L45.72371515625,99.244453125L45.82580265625,98.44587890625L46.0031796875,98.15548828125L46.37835125,97.1080078125L46.5901828125,97.5090234375L46.674405,96.575625L46.9117584375,92.219765625L47.082755,91.1895703125L47.41836765625,93.132421875L47.849687343750006,94.93353515625L48.23634375,91.445390625L48.312909375,96.48228515625L48.4328621875,90.4566796875L48.49283859375,93.5265234375L48.7340203125,89.34697265625L48.7774075,86.36009765625L48.802929375,86.9581640625L49.098983125,89.924296875L49.129609375,91.085859375L49.66684484375,89.0600390625L49.8799525,88.86990234375L49.98331609375,91.81529296875L50.242363125000004,87.69796875L50.3929421875,88.09552734374999L51.04757828125,91.6458984375L51.199433437500005,86.54677734375001L51.2096421875,89.78947265625L51.343632031249996,91.721953125L51.435510781249995,85.51658203125L51.62437265625,89.7237890625L52.2764565625,89.2674609375L52.42065515625,91.20685546875L52.5265709375,90.28037109375L52.66566515625,89.675390625L52.753715625,92.79017578125L52.82645296875,88.44814453125001L52.84176609375,93.55763671875L53.0216953125,91.15845703125L53.3100925,89.82404296875L54.11020328125,89.36771484375L54.378182968750004,92.579296875L54.5632165625,85.54078125L54.7929134375,91.5214453125L54.80439828125,88.24072265625L55.19743515625,88.10935546875L55.46031046875,86.82333984374999L55.706596562499996,88.08515625L55.78699046875,90.95794921875L55.972024062500005,87.29695312499999L56.05497015625,84.3515625L56.3523,96.3612890625L56.696845312499995,86.10427734375L56.80531328125,84.98419921874999L56.83849171875,89.08423828125L56.852528750000005,86.2114453125L56.872946250000005,90.0003515625L57.061808125,92.551640625L57.2430134375,88.17158203125L57.30171375,85.54423828125L57.467605937500004,85.56498046875L57.62711765625,85.02568359375L57.7585553125,86.9305078125L57.76748796875,88.53111328125L57.77514453125,84.92197265624999L58.0903396875,84.65923828125L58.17583796875,84.11994140624999L58.353215000000006,86.70580078125L58.397878281249994,84.254765625L58.43616109375,85.9487109375L59.43406640625,82.57810546875L59.63313703125,84.52787109375L59.694389531249996,88.81458984375L59.8156184375,86.51220703125L60.891365468749996,83.17962890625L61.00110953125,82.64033203125L61.12871890625,82.23240234375L61.246119531249995,81.78298828125L61.50133828125,86.09044921875L61.5511059375,85.82771484374999L61.86630109375,85.43361328125L62.089617499999996,81.46839843750001L62.3729103125,82.06992187499999L62.47755,82.99294921875L62.54007859375,83.04134765625L63.008404999999996,83.333466796875L63.044135624999996,82.0630078125L63.141118750000004,85.32298828125L63.312115312500005,84.5728125L63.67324984375,86.73L63.728121875,85.28841796875L63.799583125000005,83.4665625L64.01013859375,83.300625L64.3125728125,87.30732421875L64.50143468750001,87.14138671875L64.63414843749999,82.77861328125L64.881710625,85.4508984375L64.9302021875,84.35501953125L65.208390625,84.71109375L65.21221890625,84.0819140625L65.48913125,83.0309765625L65.58101,81.3024609375L65.60015140625,80.69402343750001L65.73286515625,80.98095703125L65.85792234375,85.499296875L65.91917484375,85.37830078125L65.93831625,88.06095703125001L66.3849490625,84.75603515625001L66.50873015625001,83.55298828125L66.54828906249999,83.31791015625L66.60060890625,82.24623046875001L66.6299590625,82.83046875000001L67.13146390625,81.27134765624999L67.20420125,86.41886718750001L67.48111359375,79.95767578125L67.55767921875001,82.36376953125L68.03111,86.24601562500001L68.41776640625,82.22203124999999L68.78017703124999,86.37046874999999L69.18342265625,80.63525390625L69.240846875,87.81896484375L69.34931484375,83.4734765625L69.47181984375,80.74587890625L69.69641234375001,80.28955078125L69.7589409375,83.010234375L69.904415625,80.9775L69.9069678125,82.34302734375L70.322974375,83.508046875L70.54629078125001,81.8417578125L70.79640515625,78.0805078125L70.80789,82.05609375L71.28642515624999,80.22732421875L71.35022984375,78.33287109374999L72.03166390625,81.10195312500001L72.099296875,84.14068359375L72.86112484374999,78.45041015625L72.89175109375,82.37068359374999L73.0818890625,82.19783203124999L73.08571734374999,79.67419921875L73.20056578124999,81.40271484375L73.86541062500001,82.12177734375L74.39754171875,82.66107421875L74.4345484375,82.53662109375L74.65020828125,80.01990234375L74.6693496875,78.6612890625L74.8684203125,80.60414062500001L75.92247375000001,80.438203125L75.99265890625,77.8869140625L76.51713343750001,77.17130859375001L76.79915015625,85.6583203125L77.07606249999999,80.52117187500001L77.2215371875,80.90490234375L77.8851059375,81.09849609374999L78.09821359375,80.92564453124999L78.4823178125,80.72513671875L78.7834759375,84.85974609375L79.19820640625001,79.083046875L79.38706828125001,84.19599609375L79.43428375,79.67419921875L79.46746218749999,82.3810546875L79.7533071875,81.00515625L79.8451859375,80.51080078125L80.1820746875,84.93234375L80.22929015625,78.3432421875L80.2433271875,78.07013671874999L80.8533,79.990517578125L81.47986203125001,81.3024609375L82.12939374999999,79.98533203125L82.226376875,79.65691406250001L82.23020515625001,79.2697265625L82.25317484375,79.9196484375L82.2748684375,77.35798828124999L83.32254140625001,77.2508203125L83.5611709375,76.30705078125001L83.6071103125,77.8316015625L83.716854375,78.26373046875L83.9363425,77.99062500000001L84.012908125,84.41033203125001L84.28088781250001,77.7140625L84.405945,77.47207031250001L85.48679640625,78.84796874999999L85.49955734375,78.21533203125L85.901526875,74.303701171875L86.2971159375,81.72421874999999L86.3047725,80.34486328125001L86.37623375000001,77.09871093749999L86.41068828125,83.77423828124999L86.514051875,76.2137109375L86.93388671875,74.02541015625L87.18655328125,75.42896484375L87.75569109375,74.73064453125001L87.9203071875,74.82052734375L87.96241828125,78.92056640625L88.88886234375,76.4971875L88.93735390625,74.104921875L88.96925625,75.36328125L89.29721234375,78.14619140625L89.43885875,75.11091796874999L89.53456578125,76.1169140625L89.91228953125001,75.19734374999999L89.985026875,80.37943359375L90.18664968750001,75.60873046875L90.28746109375,75.73318359375L90.59372359375,79.17984375L90.88467296875,75.09708984375001L91.0186628125,72.76359375000001L91.11947421875,81.88669921875L91.47678046875,76.18259765625L91.82132578125,75.56033203125L91.8251540625,74.47828125L91.92979375,80.56265625L92.1314165625,78.80302734375L92.27178687499999,76.5317578125L92.31645015625,75.63638671875L92.4427834375,83.87103515625L92.5499753125,71.68154296875001L92.77712,73.89404296875L92.99788421875,75.08326171875L93.34881,73.99775390625L93.4636584375,77.02611328125L93.568298125,79.23515625L93.86945625,74.54396484375L94.160405625,76.02357421875001L94.38372203125,75.91294921874999L94.384998125,79.60505859374999L94.39137859374999,72.98830078125L94.55982296875,77.57578124999999L94.61597109375,74.80669921875L94.89543562499999,75.15240234375L95.19021328125,73.883671875L95.60877203125,72.0791015625L95.75935109375,76.04777343750001L95.834640625,75.18005859375L95.91248234375,73.7246484375L96.1434553125,75.67441406249999L96.23150578125,73.72810546874999L96.28254953125,74.00466796875L96.29531046875,73.1853515625L96.4803440625,76.41767578125L97.0163034375,75.5499609375L97.40806421875,71.19064453125L97.5777846875,72.6737109375L97.75771390625,71.79216796875001L97.764094375,73.09892578125L98.17372046874999,69.73869140625001L98.5144375,73.75576171875001L98.86791546875,69.1613671875L99.24436312499999,75.4946484375L99.31199609375,72.06873046875L99.36303984374999,71.41189453125L99.83264234375,73.275234375L99.8339184375,74.39876953125L99.92452109375,76.2690234375L100.08530890624999,71.84056640625L100.19888125,68.55984375L100.6506184375,76.09962890625L100.8752109375,71.0005078125L101.11639265625,73.42734374999999L101.13170578125,74.08072265625L101.173816875,71.2908984375L102.38865812499999,71.04544921875L102.6106984375,69.4171875L102.9067521875,69.82857421875L103.03691375000001,71.91316406249999L103.26278234375,73.99083984375L103.2742671875,66.94886718750001L103.30616953124999,69.44138671875L103.60987984375001,73.32363281250001L103.7489740625,70.067109375L103.8000178125,68.82257812499999L103.91103796875,70.6133203125L104.03226687499999,73.3996875L104.14711531249999,71.2632421875L104.44444515625,68.64626953125L104.5044215625,68.05166015625001L104.98550890625,66.84169921875001L105.02379171875,65.74927734375L105.02889609374999,68.297109375L105.5763403125,71.91662109375L105.6529059375,70.13279296875L105.82773078125,68.77763671875L105.9591684375,68.1519140625L106.09060609375001,69.8112890625L106.20545453125,66.6515625L106.2143871875,67.8062109375L106.58828265625,62.748574218749994L106.7095115625,64.22818359375L106.76183140625,69.569296875L106.86136671874999,64.40794921875L106.94303671875,69.7698046875L107.14210734375,64.94724609375L107.88224171875,64.729453125L108.299524375,65.02675781250001L108.37481390625,63.64740234375L108.45648390625,68.0136328125L108.48838625,62.821171875000005L108.5113559375,62.77968750000001L108.68490468750001,64.8055078125L108.75891812500001,69.68683593749999L108.98223453125,66.43376953125001L109.1545071875,72.49740234375L109.1851334375,67.052578125L109.46204578125001,64.31115234375L109.74533859375,62.663876953125L109.902298125,63.678515625L110.27364140625,66.50291015625L110.28895453125,60.498046875L110.8083246875,61.082285156249995L110.87850984375001,65.17195312499999L110.93976234374999,66.23671875000001L110.96911250000001,60.99931640625L111.1605265625,64.10027343750001L111.290688125,67.24617187499999L111.42340187500001,61.545527343749995L111.71945562500001,61.21710937499999L111.7475296875,62.03642578125L111.8879,66.58242187500001L112.07676187499999,62.323359374999995L112.0997315625,62.06062499999999L112.20819953125,60.9474609375L112.55784921875,63.889394531250005L112.6203778125,62.050253906250006L112.73650234374999,63.5056640625L112.74926328125,60.26642578124999L112.852626875,60.00369140625L112.97896015625,63.58171875000001L113.29287921875,61.91888671875L113.45621921875001,60.49113281250001L113.97431328125,62.568808593750006L114.03556578125,63.47109375000001L114.1006465625,63.872109374999994L114.40180468749999,64.3215234375L114.40308078125,60.667441406250006L114.414565625,62.3994140625L114.59449484375,63.132304687499996L114.5957709375,61.0166015625L114.690201875,60.13505859375L114.7029628125,62.79697265624999L114.82163953125,61.514414062499995L114.92883140625001,59.60613281250001L114.99774046875001,61.30353515624999L115.27082453125,62.300888671874986L116.02882421875,63.391582031249996L116.3976153125,60.05208984375L116.6017903125,58.41691406250001L116.6987734375,61.3623046875L116.80213703125,65.20306640625L116.9948271875,60.833378906250005L117.00631203125,61.147968750000004L117.0535275,61.977656249999995L117.313850625,63.208359374999986L117.32788765625,59.23623046875001L117.4286990625,59.98640624999999L117.52695828125,60.746953125000005L117.91744296875001,64.8055078125L118.00932171875,61.372675781249995L118.1279984375,61.956914062500005L118.37683671875,62.19199218749999L118.64354031250001,58.703847656250005L119.38750296875,59.723671874999994L119.80350953125,58.45148437499999L119.88773171875,59.7928125L119.92346234375,59.585390625L120.03831078125,57.96404296875001L120.39689312499999,60.456562500000004L120.4760109375,58.69001953124999L120.63297046875,60.00714843749999L120.83969765625,58.82138671874999L121.16637765624999,59.543906250000006L121.203384375,58.002070312499995L121.7418959375,59.806640625L121.89375109375,62.1781640625L122.04943453125,61.815175781250005L122.10558265625,57.8914453125L122.1859765625,55.99699218750001L122.25871390625,58.01935546874999L122.50627609375,57.130898437499994L123.367639375,59.557734374999995L123.36891546875,59.26388671875L123.898494375,55.56486328125001L123.9163596875,56.238984375L124.0337603125,62.57917968749999L124.041416875,60.85066406249999L124.306844375,56.76791015625L124.54419781249999,59.198203125000006L124.76113375,62.354472656249996L124.96403265625,67.5434765625L125.02018078124999,61.970742187499994L125.0903659375,59.84121093750001L125.18096859375,58.185292968750005L125.42087421875,59.67181640625L125.55103578125001,57.953671875L125.69013,60.162714843749995L125.77052390624999,60.26296875L125.92110296875,58.21294921875L126.2796853125,55.851796875000005L126.287341875,58.074667968750006L126.59488046874999,55.97970703125L126.65996125,55.79302734375L127.18443578124999,58.71076171874999L127.21123375,53.77412109375L127.25079265625,57.601054687499996L127.3771259375,55.17767578125L127.45496765624999,56.74716796874999L127.6833884375,55.481894531250006L128.31633093750003,57.27263671875001L128.38141171875,56.221699218750004L128.46691,56.131816406249996L128.54347562499999,56.95458984375L128.83570109374998,59.170546875000014L129.0386,60.27333984375001L129.23129015625,58.358144531250005L129.46353921875,57.81884765625L130.15007765625,62.012226562500004L130.19346484375,57.60796875L130.27513484375,63.18416015624999L130.5775690625,55.703144531250004L130.65158250000002,55.862167968749986L131.1900940625,55.31941406249999L131.39171687500001,56.913105468750004L131.86259546875002,58.99078125L132.39855484375002,55.222617187500006L132.45725515625,54.65566406250001L132.5274403125,56.64345703125001L132.65377359375,58.56210937499999L132.9383425,54.92876953125L132.9408946875,61.18253906250001L132.95875999999998,56.394550781250004L133.00342328125,58.403085937499995L133.01363203125,56.22861328124999L133.46536921875,57.168925781249996L134.2323015625,54.13710937500001L134.342045625,58.56210937499999L134.3548065625,56.045390624999996L134.72487375,55.654746093750006L134.9775403125,60.76423828124999L135.04772546875,56.3012109375L135.48287343750002,52.9409765625L135.5339171875,56.61580078124999L135.5594390625,56.36689453125L135.71384640624998,56.21478515625L135.82103828125,55.647832031250005L135.8657015625,56.02119140625L136.40804140625002,55.150019531249995L136.69388640625002,52.71281250000001L136.95038125,57.43857421874999L137.20815218750002,55.474980468750005L137.2260175,55.236445312499995L137.4710275,57.953671875L137.56290625,57.372890625L137.751768125,57.50080078124999L137.81940109375,57.317578125L138.1371484375,56.9787890625L138.17925953124998,53.72917968750001L138.262205625,55.90365234375L138.854313125,55.754999999999995L138.905356875,54.901113281250005L138.91046125,55.993535156250005L138.92449828125,57.383261718750006L139.4081378125,54.351445312500005L139.65952828125,52.816523437499995L140.00917796875,56.44986328125L140.61404640625,55.950322265625005L140.84374328125,55.530292968750004L140.845019375,57.2138671875L141.08875328124998,55.143105468749994L141.60684734375002,53.2866796875L141.77273953124998,54.61417968750001L141.93607953125002,52.2703125L141.9552209375,52.982460937499994L142.01774953125002,55.616718750000004L142.12494140625,54.320332031250004L142.25510296875,59.872324218749995L142.43248,55.188046875L142.447793125,56.02119140625L142.69663140625002,51.12603515625L142.83062125,55.88982421875001L142.92377609375,55.526835937499996L143.17899484375,52.550332031249994L143.24279953125,50.538339843749995L143.25173218749998,49.8849609375L143.29639546875,50.8667578125L143.713678125,54.80085937499999L144.10288671875,53.7568359375L144.23942875,51.94880859374999L144.31471828125,54.427499999999995L144.387455625,55.137919921874996L144.9565934375,54.427499999999995L144.989771875,53.691152343750005L145.4415090625,51.291972656249996L146.28755921874998,53.57707031250001L146.9421953125,52.47427734375L146.965165,53.355820312499986L147.23186859375,55.00136718750001L147.26632312499999,54.265019531250005L147.33906046874998,56.121445312499986L147.38755203124998,54.3237890625L147.57769,49.14169921874999L147.7027471875,54.745546875L147.85332624999998,50.7699609375L148.50796234375,50.79416015625L148.83719453125,51.95572265625L149.114106875,54.00919921875001L149.18429203125,52.04560546875L149.45737609375,50.915156249999995L149.53777,50.73193359375L150.4540053125,51.119121093749996L150.57012984374998,54.06796874999999L150.92233171875,50.085468750000004L151.06014984375,51.426796874999994L151.08822390625002,54.62109375L151.10864140625,52.861464843750014L151.11374578125,52.59873046874999L151.31536859375,50.330917968749986L151.9342740625,53.73955078125L152.1716275,51.679160156250006L152.39622,51.61001953125L152.41025703125,48.59548828125L152.52893375,51.001582031249995L152.90538140625,52.59873046874999L153.43878859375,51.56162109374999L153.55363703125002,49.91607421875L153.7105965625,51.92806640625L154.02323953125,54.451699218749994L154.26059296875,53.9780859375L154.330778125,53.010117187499986L154.50943125,49.52197265625L154.77485875,51.47173828125L154.96882499999998,49.359492187499995L155.2163871875,47.97322265624999L155.3542053125,53.39384765625L155.55072375,53.03085937499999L156.147935625,47.015625L156.188770625,48.14261718750001L156.22067296875,47.070937500000014L156.3138278125,49.024160156250005L156.53331593750002,49.698281249999994L157.301524375,47.25416015625001L157.42785765625,47.55492187499999L158.27518390625,48.44337890624999L158.5138134375,50.91169921874999L158.58272250000002,50.894414062500005L158.76648,52.750839843749986L158.96044625,49.87458984374999L159.07274249999998,46.811660156250014L159.118681875,54.0887109375L159.54617328125,49.404433593750014L159.62273890625,48.14261718750001L159.89837515625,47.330214843750014L160.0655434375,51.77595703124999L160.22633125000002,51.07072265625001L160.25312921875002,47.35787109374999L160.6678596875,51.63421875L161.1553275,47.60332031249999L161.24337796875,45.71578124999999L161.49732062500001,48.00779296875001L161.65555625,48.98958984375L161.8316571875,49.155527343749995L161.98351234375002,49.587656249999995L162.67770734375,49.37677734374999L162.74023593750002,51.75521484375L162.936754375,52.588359374999996L163.19580140624998,47.62406250000001L163.25833,48.51251953125001L163.86830281250002,47.350957031250005L164.2715484375,49.39751953125L164.53314765625,48.33966796875001L165.060174375,46.24470703124999L165.12653125,47.29218750000001L165.3230496875,49.47011718750001L165.32943015625,52.48810546874999L165.948335625,48.887607421875L166.13847359375,46.27927734375001L166.2469415625,50.76650390625001L166.3745509375,53.466445312500014L166.5276821875,47.08822265625L166.61062828125,48.22212890624999L166.98324765625,45.95085937499999L167.2882340625,47.09513671875001L167.36479968749998,45.774550781250014L167.77953015625,46.76326171874999L167.81781296875002,48.71994140625L168.05771859375,51.97646484375001L168.44565109375,45.643183593749995L169.3248796875,46.66300781250001L169.6770815625,46.26544921875001L169.77789296875,51.426796874999994L170.5550340625,46.21013671874999L170.74900031250002,45.06931640625001L170.97869718750002,48.01470703125L171.00166687499998,44.67867187499999L171.01315171875,44.32259765625L171.35004046875,46.92919921875L171.46488890625,45.87480468749999L171.49551515624998,46.87042968750001L171.80432984375,49.64642578125L172.17439703124998,51.69990234375L172.48321171875,45.21796875000001L172.85327890624998,52.118203124999994L172.89539000000002,46.12716796875L173.04469296874998,51.606562499999995L173.666150625,45.21796875000001L173.7248509375,44.32951171875001L173.94178687500002,45.76072265625001L174.38459140625,42.877558593749995L174.46881359375,45.95777343750001L174.61811656249998,42.30369140625001L174.88992453125,47.478867187499986L175.3327290625,43.12646484375L175.37739234375002,47.93865234374999L175.51265828125,41.92341796874999L175.90824734375,44.52310546875L176.7466409375,43.396113281249995L176.92657015625002,45.20414062500001L177.23793703125,42.48345703125L178.26136421875,45.4461328125L178.44639781249998,45.8540625L178.4872328125,45.51873046874999L178.63525968750002,45.76417968749999L179.14569718750002,44.81349609374999L179.56808421875002,43.323515625L179.84372046875,41.10064453125L179.90880125,44.79102539062501L180.07214125,44.49544921875L180.4422084375,43.63119140625L180.71656859375,47.57912109374999L181.118538125,48.09421875000001L181.22955828125,47.264531250000005L181.76806984375,46.67683593749999L182.0143559375,43.51710937499999L182.57456109375002,46.98796874999999L182.823399375,44.10134765625L182.9076215625,50.676621093749986L183.08499859375002,44.81349609374999L183.19729484375,46.448671875L183.72687374999998,45.231796874999986L183.74729125000002,43.679589843749994L184.2041328125,44.25L184.28963109375,46.93265625000001L184.46445593750002,44.111718749999994L184.64310906249997,45.494531249999994L184.75030093750001,45.428847656250014L184.80900125,44.021835937499986L184.87918640625,48.429550781249986L184.885566875,48.260156249999994L185.03486984375002,43.25437500000001L186.10806468750002,45.750351562499986L187.0625828125,41.21126953125L187.22081843750001,38.52515625000001L187.22719890625,43.08498046874999L187.51687218749998,41.864648437499994L187.80144109375,39.69017578124999L188.38078765625,42.251835937500005L190.96615359375002,38.65306640624999L191.5901634375,35.07158203124999L191.61185703125,41.01421875L192.29839546875002,40.70654296875L192.36347625,37.26679687500001L192.44131796874998,38.96074218749999L192.64932124999999,33.7198828125L192.7794828125,35.52791015624999L192.79224374999998,35.04738281249999L192.95941203125,37.33248046874999L194.09513546875,31.67332031250001L194.36821953125,38.22093749999999L194.64385578124998,35.84595703125001L194.74083890625,31.884199218750013L194.8926940625,31.666406249999994L195.52180828125,35.78373046875001L196.0922221875,42.43505859375L196.30532984375,39.35138671875001L196.3321278125,37.11814453125001L196.666464375,38.594296875L196.88467640625,40.68925781249999L197.94766249999998,34.35943359375L198.31390140625,33.66802734375L198.46575656250002,45.28365234374999L198.52318078124998,34.214238281250005L198.91749375,33.77173828125001L198.97491796875,24.022910156249992L199.63848671875,27.493769531249995L199.7673721875,37.13888671875L200.0991565625,31.76320312499999L200.19996796875,42.77730468749999L200.56237859375,33.370722656249995L201.1863884375,30.909316406250014L201.515620625,28.472109375000002L201.87675515625,28.4098828125L202.10772812500002,33.0146484375L202.82872109375,38.1863671875L203.4170003125,41.88884765624999L203.55992281250002,41.104101562500006L203.61989921875,44.50236328125001L203.66073421875,39.28224609374999L203.89043109374998,36.42328125L203.91722906249998,43.63810546875001L204.46212109375,43.86281249999999L204.9381040625,40.29515624999999L205.0861309375,42.3624609375L205.1575921875,40.153417968750006L205.4893765625,37.15617187500001L205.57742703124998,38.881230468750005L205.8160565625,37.60904296875L205.95259859375003,39.36867187499999L206.548534375,39.69708984375001L207.007928125,33.72333984375001L207.3397125,45.66046875000001L207.5515440625,42.36937499999999L207.71616015625,34.59451171875L208.07346640625,37.757695312500005L208.2202171875,28.257773437499992L209.12496765625,33.87199218750001L209.2461965625,33.49517578125L209.40826046875,31.00957031249999L210.3844721875,34.335234375L210.45082906250002,32.181503906249986L210.6141690625,38.404160156249986L210.89108140625,36.89689453125001L210.96509484375,38.231308593749986L211.12077828125,44.44013671875001L211.193515625,46.24470703124999L211.2266940625,43.828242187499995L212.2935084375,55.21916015625001L212.3394478125,41.58808593750001L212.55638375,46.21359375L212.612531875,44.972519531249986L213.592571875,40.62703124999999L213.6921071875,41.19744140624999L213.76101624999998,46.29656249999999L213.80440343749999,36.675644531249986L214.20382078125002,42.86373046874999L215.31147015625,43.53439453125L215.4224903125,43.47562500000001L215.81425109375002,43.64501953125L215.85380999999998,47.10205078125L216.64881640625,42.80150390624999L216.97804859374997,42.44197265624999L217.04695765625002,38.81900390625L217.1120384375,40.92433593749999L217.4285096875,34.4596875L217.54208203125,34.69822265625001L217.573984375,38.99185546875L218.3217753125,34.13126953125001L219.3783809375,32.841796875L219.523855625,32.56177734375001L219.73823937499998,36.57193359375L220.248676875,31.47626953125001L220.62129625,49.36640625L220.87906718750003,43.70724609375L221.26827578125003,37.33939453125001L221.49797265625,32.62400390625001L221.49924875,39.54498046875L222.02499937500002,56.24935546875L222.1398478125,37.71966796875L222.1500565625,37.56755859374999L222.20748078124998,45.408105468749994L222.40144703125,36.96257812499999L222.41676015625,44.996718750000014L222.4205884375,38.18291015624999L222.89019093750002,32.38201171874999L222.93740640625,37.70583984375L223.07012015625,36.75861328125001L223.09819421875,29.45044921875001L223.2219753125,35.59359375L223.2679146875,34.30412109375001L223.51675296875,40.18798828125L223.6405340625,32.03630859374999L223.64308624999998,35.62470703125001L223.6507428125,30.44261718749999L223.65839937500002,33.8166796875L223.6609515625,35.32048828124999L223.66477984374998,31.497011718750002L223.68009296875,32.93513671874999L223.69030171875002,19.390488281249986L223.69285390625,28.4098828125L223.70051046875,36.71367187499999L223.709443125,33.62308593750001L223.71582359375,34.33869140625001L223.72475625,31.078710937500006L223.74134546875,40.177617187500005L223.74900203125,31.37255859375L223.75155421875,32.119277343750014L223.77197171875,26.951015624999997L223.7758,26.114414062500003L223.7783521875,25.077304687500003L223.77962828125,40.219101562499986L223.8038740625,33.412207031250006L223.81535890625,32.36472656250001L223.83067203125,36.14326171875001L223.83450031249998,31.987910156249995L223.83832859375,28.99412109375001L223.8549178125,30.27322265625L223.8651265625,28.686445312500013L223.8753353125,34.15546875000001L223.87661140625,30.17988281250001L223.8804396875,31.683691406250006L223.882991875,35.531367187499995L223.88426796875,30.719179687500002L223.90213328125,29.937890624999994L223.91234203125,38.386875L223.9314834375,37.16999999999999L223.94041609375,31.687148437500014L223.94807265625,27.016699218750006L223.9519009375,27.44191406249999L223.96083359375,31.576523437499986L223.9774228125,28.19554687499999L223.97997500000002,26.266523437500013L223.98125109375,32.21607421875001L223.9825271875,26.356406249999992L223.99018375,32.7933984375L223.99656421875,28.10566406250001L224.0131534375,32.43041015624999L224.0335709375,36.99369140625001L224.04250359374998,27.255234374999986L224.0488840625,30.66386718749999L224.05016015625,29.609472656250006L224.05781671875002,27.97775390625L224.06930156250002,30.155683593750013L224.07440593750002,34.926386718749995L224.076958125,25.90353515625L224.0846146875,32.87982421875L224.08844296875,35.56248046875001L224.0948234375,35.683476562500005L224.11779312500002,34.48388671875L224.12417359375,27.901699218749997L224.13183015624998,36.613417968750014L224.1407628125,28.534335937500003L224.1458671875,31.358730468749997L224.14969546875,30.31125L224.168836875,21.32988281249999L224.17904562500001,30.1383984375L224.18415,32.547949218750006L224.18542609375,32.58251953125L224.20839578125,32.658574218750005L224.2122240625,28.382226562499994L224.21350015625,32.53757812500001L224.21605234375,30.795234375000007L224.21860453124998,28.873124999999987L224.219880625,29.97246093749999L224.224985,28.15406250000001L224.22626109375,30.52904296874999L224.24029812499998,32.952421875L224.2479546875,37.387792968750006L224.2530590625,25.412636718750008L224.28240921875002,28.28197265624999L224.29899843750002,32.181503906249986L224.3092071875,33.10798828124999L224.31686375,30.328535156250013L224.3194159375,31.334531249999998L224.32069203125002,28.32345703125L224.33345296875,25.402265625000013L224.3347290625,32.47189453125L224.35387046875,34.494257812499995L224.35769875,29.301796875000008L224.37173578125,28.793613281250003L224.373011875,36.08449218749999L224.37684015625,35.037011718749994L224.38960109375,35.7941015625L224.39853375,32.92130859375001L224.40363812500001,35.94621093750001L224.4087425,34.07595703125L224.42022734375,33.57123046875L224.42660781249998,28.06763671875001L224.42916,37.12160156249999L224.43171218749998,33.25318359375001L224.44319703124998,33.1252734375L224.4495775,29.899863281249992L224.45595796875003,35.69384765625L224.47382328125,31.980996093750008L224.47509937499999,29.05980468749999L224.4776515625,30.26630859375001L224.48403203125,37.67472656250001L224.495516875,34.84341796875L224.5031734375,38.608125L224.51976265625,26.245781249999993L224.5312475,28.423710937500005L224.53379968750002,35.92892578125L224.5389040625,24.08859375L224.54018015625,33.96187499999999L224.54528453125,31.579980468749994L224.55294109375,28.41333984375001L224.56059765625,30.91623046875L224.566978125,32.34398437499999L224.57080640625,28.897324218749986L224.57335859375,32.60671875L224.587395625,36.38179687499999L224.5925,24.84914062499999L224.60398484375,28.358027343749995L224.60908921875,30.425332031250008L224.61419359375,26.691738281249997L224.6205740625,28.316542968750014L224.62185015625,33.415664062500014L224.62695453125,29.682070312500002L224.6358871875,34.26955078124999L224.64226765625,23.3349609375L224.64481984375,38.54244140624999L224.64737203125,33.53666015625001L224.648648125,31.770117187500006L224.66013296875,34.7569921875L224.6614090625,36.38179687499999L224.66268515625,30.200625000000002L224.67034171875,29.353652343750014L224.68565484375,27.497226562500003L224.6920353125,29.412421875000007L224.7022440625,33.44332031249999L224.70479625,28.617304687499995L224.7175571875,34.732792968750005L224.720109375,32.94205078125L224.73925078125,31.56269531250001L224.75328781250002,34.15201171875L224.75584,27.559453125000005L224.760944375,33.52628906250001L224.7634965625,33.6922265625L224.77625749999999,30.674238281250013L224.78008578125002,31.35181640625001L224.79029453125,29.052890625000003L224.80688375,36.98332031250001L224.8094359375,30.691523437499995L224.82347296875002,31.3967578125L224.83240562499998,30.48755859375001L224.83623390625002,34.18658203125L224.84133828125,24.617519531249997L224.84771875,30.297421874999998L224.85920359374998,26.37714843750001L224.873240625,37.09048828125L224.88217328125,31.929140625000002L224.89110593750001,31.255019531250014L224.903866875,33.65765625L224.90769515624999,35.92546874999999L224.91279953125002,32.333613281249995L224.914075625,31.48318359375L224.91790390625002,29.128945312500008" style="fill: none;" fill="none"></path></g></g></g></g></g></g><g transform="translate(74, 177)" clip-path="url(#clip_1)"><clipPath id="clip_1"><rect width="255" height="23"></rect></clipPath><g><g><line x1="0" y1="0" x2="0" y2="5" style="visibility: inherit;" fill="rgb(0, 0, 0)" stroke="rgb(204, 204, 204)" stroke-width="1px"></line><line x1="25.521875" y1="0" x2="25.521875" y2="5" style="visibility: inherit;" fill="rgb(0, 0, 0)" stroke="rgb(204, 204, 204)" stroke-width="1px"></line><line x1="51.04375" y1="0" x2="51.04375" y2="5" style="visibility: inherit;" fill="rgb(0, 0, 0)" stroke="rgb(204, 204, 204)" stroke-width="1px"></line><line x1="76.565625" y1="0" x2="76.565625" y2="5" style="visibility: inherit;" fill="rgb(0, 0, 0)" stroke="rgb(204, 204, 204)" stroke-width="1px"></line><line x1="102.0875" y1="0" x2="102.0875" y2="5" style="visibility: inherit;" fill="rgb(0, 0, 0)" stroke="rgb(204, 204, 204)" stroke-width="1px"></line><line x1="127.609375" y1="0" x2="127.609375" y2="5" style="visibility: inherit;" fill="rgb(0, 0, 0)" stroke="rgb(204, 204, 204)" stroke-width="1px"></line><line x1="153.13125" y1="0" x2="153.13125" y2="5" style="visibility: inherit;" fill="rgb(0, 0, 0)" stroke="rgb(204, 204, 204)" stroke-width="1px"></line><line x1="178.653125" y1="0" x2="178.653125" y2="5" style="visibility: inherit;" fill="rgb(0, 0, 0)" stroke="rgb(204, 204, 204)" stroke-width="1px"></line><line x1="204.175" y1="0" x2="204.175" y2="5" style="visibility: inherit;" fill="rgb(0, 0, 0)" stroke="rgb(204, 204, 204)" stroke-width="1px"></line><line x1="229.696875" y1="0" x2="229.696875" y2="5" style="visibility: inherit;" fill="rgb(0, 0, 0)" stroke="rgb(204, 204, 204)" stroke-width="1px"></line><line x1="255.21875" y1="0" x2="255.21875" y2="5" style="visibility: inherit;" fill="rgb(0, 0, 0)" stroke="rgb(204, 204, 204)" stroke-width="1px"></line></g><g transform="translate(0, 8)"><text x="0" y="0" dx="0em" dy="0.95em" style="text-anchor: middle; visibility: hidden; font-family: &quot;Helvetica Neue&quot;, sans-serif; font-size: 12px; font-weight: 200;" fill="rgb(50, 49, 63)" stroke="none" stroke-width="1px">-20k</text><text x="25.521875" y="0" dx="0em" dy="0.95em" style="text-anchor: middle; visibility: inherit; font-family: &quot;Helvetica Neue&quot;, sans-serif; font-size: 12px; font-weight: 200;" fill="rgb(50, 49, 63)" stroke="none" stroke-width="1px">0</text><text x="51.04375" y="0" dx="0em" dy="0.95em" style="text-anchor: middle; visibility: hidden; font-family: &quot;Helvetica Neue&quot;, sans-serif; font-size: 12px; font-weight: 200;" fill="rgb(50, 49, 63)" stroke="none" stroke-width="1px">20k</text><text x="76.565625" y="0" dx="0em" dy="0.95em" style="text-anchor: middle; visibility: inherit; font-family: &quot;Helvetica Neue&quot;, sans-serif; font-size: 12px; font-weight: 200;" fill="rgb(50, 49, 63)" stroke="none" stroke-width="1px">40k</text><text x="102.0875" y="0" dx="0em" dy="0.95em" style="text-anchor: middle; visibility: hidden; font-family: &quot;Helvetica Neue&quot;, sans-serif; font-size: 12px; font-weight: 200;" fill="rgb(50, 49, 63)" stroke="none" stroke-width="1px">60k</text><text x="127.609375" y="0" dx="0em" dy="0.95em" style="text-anchor: middle; visibility: inherit; font-family: &quot;Helvetica Neue&quot;, sans-serif; font-size: 12px; font-weight: 200;" fill="rgb(50, 49, 63)" stroke="none" stroke-width="1px">80k</text><text x="153.13125" y="0" dx="0em" dy="0.95em" style="text-anchor: middle; visibility: hidden; font-family: &quot;Helvetica Neue&quot;, sans-serif; font-size: 12px; font-weight: 200;" fill="rgb(50, 49, 63)" stroke="none" stroke-width="1px">100k</text><text x="178.653125" y="0" dx="0em" dy="0.95em" style="text-anchor: middle; visibility: inherit; font-family: &quot;Helvetica Neue&quot;, sans-serif; font-size: 12px; font-weight: 200;" fill="rgb(50, 49, 63)" stroke="none" stroke-width="1px">120k</text><text x="204.175" y="0" dx="0em" dy="0.95em" style="text-anchor: middle; visibility: hidden; font-family: &quot;Helvetica Neue&quot;, sans-serif; font-size: 12px; font-weight: 200;" fill="rgb(50, 49, 63)" stroke="none" stroke-width="1px">140k</text><text x="229.696875" y="0" dx="0em" dy="0.95em" style="text-anchor: middle; visibility: inherit; font-family: &quot;Helvetica Neue&quot;, sans-serif; font-size: 12px; font-weight: 200;" fill="rgb(50, 49, 63)" stroke="none" stroke-width="1px">160k</text><text x="255.21875" y="0" dx="0em" dy="0.95em" style="text-anchor: middle; visibility: hidden; font-family: &quot;Helvetica Neue&quot;, sans-serif; font-size: 12px; font-weight: 200;" fill="rgb(50, 49, 63)" stroke="none" stroke-width="1px">180k</text></g><line x1="0" y1="0" x2="255.21875" y2="0" fill="rgb(0, 0, 0)" stroke="rgb(204, 204, 204)" stroke-width="1px"></line></g></g></g></g></svg>