<svg viewBox="0 0 330 200" xmlns="http://www.w3.org/2000/svg"><g><g><g><g><g><line x1="74.78125" y1="177" x2="69.78125" y2="177" style="visibility: inherit;" fill="rgb(0, 0, 0)" stroke="rgb(204, 204, 204)" stroke-width="1px"></line><line x1="74.78125" y1="154.875" x2="69.78125" y2="154.875" style="visibility: inherit;" fill="rgb(0, 0, 0)" stroke="rgb(204, 204, 204)" stroke-width="1px"></line><line x1="74.78125" y1="132.75" x2="69.78125" y2="132.75" style="visibility: inherit;" fill="rgb(0, 0, 0)" stroke="rgb(204, 204, 204)" stroke-width="1px"></line><line x1="74.78125" y1="110.625" x2="69.78125" y2="110.625" style="visibility: inherit;" fill="rgb(0, 0, 0)" stroke="rgb(204, 204, 204)" stroke-width="1px"></line><line x1="74.78125" y1="88.5" x2="69.78125" y2="88.5" style="visibility: inherit;" fill="rgb(0, 0, 0)" stroke="rgb(204, 204, 204)" stroke-width="1px"></line><line x1="74.78125" y1="66.375" x2="69.78125" y2="66.375" style="visibility: inherit;" fill="rgb(0, 0, 0)" stroke="rgb(204, 204, 204)" stroke-width="1px"></line><line x1="74.78125" y1="44.25" x2="69.78125" y2="44.25" style="visibility: inherit;" fill="rgb(0, 0, 0)" stroke="rgb(204, 204, 204)" stroke-width="1px"></line><line x1="74.78125" y1="22.125" x2="69.78125" y2="22.125" style="visibility: inherit;" fill="rgb(0, 0, 0)" stroke="rgb(204, 204, 204)" stroke-width="1px"></line><line x1="74.78125" y1="0" x2="69.78125" y2="0" style="visibility: inherit;" fill="rgb(0, 0, 0)" stroke="rgb(204, 204, 204)" stroke-width="1px"></line></g><g transform="translate(64.78125, 0)"><text x="0" y="177" dx="0em" dy="0.3em" style="text-anchor: end; visibility: hidden; font-family: &quot;Helvetica Neue&quot;, sans-serif; font-size: 12px; font-weight: 200;" fill="rgb(50, 49, 63)" stroke="none" stroke-width="1px">-5e+4</text><text x="0" y="154.875" dx="0em" dy="0.3em" style="text-anchor: end; visibility: inherit; font-family: &quot;Helvetica Neue&quot;, sans-serif; font-size: 12px; font-weight: 200;" fill="rgb(50, 49, 63)" stroke="none" stroke-width="1px">0</text><text x="0" y="132.75" dx="0em" dy="0.3em" style="text-anchor: end; visibility: hidden; font-family: &quot;Helvetica Neue&quot;, sans-serif; font-size: 12px; font-weight: 200;" fill="rgb(50, 49, 63)" stroke="none" stroke-width="1px">5e+4</text><text x="0" y="110.625" dx="0em" dy="0.3em" style="text-anchor: end; visibility: inherit; font-family: &quot;Helvetica Neue&quot;, sans-serif; font-size: 12px; font-weight: 200;" fill="rgb(50, 49, 63)" stroke="none" stroke-width="1px">1e+5</text><text x="0" y="88.5" dx="0em" dy="0.3em" style="text-anchor: end; visibility: hidden; font-family: &quot;Helvetica Neue&quot;, sans-serif; font-size: 12px; font-weight: 200;" fill="rgb(50, 49, 63)" stroke="none" stroke-width="1px">1.5e+5</text><text x="0" y="66.375" dx="0em" dy="0.3em" style="text-anchor: end; visibility: inherit; font-family: &quot;Helvetica Neue&quot;, sans-serif; font-size: 12px; font-weight: 200;" fill="rgb(50, 49, 63)" stroke="none" stroke-width="1px">2e+5</text><text x="0" y="44.25" dx="0em" dy="0.3em" style="text-anchor: end; visibility: hidden; font-family: &quot;Helvetica Neue&quot;, sans-serif; font-size: 12px; font-weight: 200;" fill="rgb(50, 49, 63)" stroke="none" stroke-width="1px">2.5e+5</text><text x="0" y="22.125" dx="0em" dy="0.3em" style="text-anchor: end; visibility: inherit; font-family: &quot;Helvetica Neue&quot;, sans-serif; font-size: 12px; font-weight: 200;" fill="rgb(50, 49, 63)" stroke="none" stroke-width="1px">3e+5</text><text x="0" y="0" dx="0em" dy="0.3em" style="text-anchor: end; visibility: hidden; font-family: &quot;Helvetica Neue&quot;, sans-serif; font-size: 12px; font-weight: 200;" fill="rgb(50, 49, 63)" stroke="none" stroke-width="1px">3.5e+5</text></g><line x1="74.78125" y1="0" x2="74.78125" y2="177" fill="rgb(0, 0, 0)" stroke="rgb(204, 204, 204)" stroke-width="1px"></line></g></g><g transform="translate(74, 0)" clip-path="url(#clip_0)"><clipPath id="clip_0"><rect width="255" height="177"></rect></clipPath><g><g><g><line x1="0" y1="0" x2="0" y2="177" fill="rgb(0, 0, 0)" stroke="rgb(60, 60, 60)" stroke-width="1px" opacity="0.25"></line><line x1="28.357638888888886" y1="0" x2="28.357638888888886" y2="177" fill="rgb(0, 0, 0)" stroke="rgb(60, 60, 60)" stroke-width="1px" opacity="0.25"></line><line x1="56.71527777777777" y1="0" x2="56.71527777777777" y2="177" fill="rgb(0, 0, 0)" stroke="rgb(60, 60, 60)" stroke-width="1px" opacity="0.25"></line><line x1="85.07291666666666" y1="0" x2="85.07291666666666" y2="177" fill="rgb(0, 0, 0)" stroke="rgb(60, 60, 60)" stroke-width="1px" opacity="0.25"></line><line x1="113.43055555555554" y1="0" x2="113.43055555555554" y2="177" fill="rgb(0, 0, 0)" stroke="rgb(60, 60, 60)" stroke-width="1px" opacity="0.25"></line><line x1="141.78819444444446" y1="0" x2="141.78819444444446" y2="177" fill="rgb(0, 0, 0)" stroke="rgb(60, 60, 60)" stroke-width="1px" opacity="0.25"></line><line x1="170.14583333333331" y1="0" x2="170.14583333333331" y2="177" fill="rgb(0, 0, 0)" stroke="rgb(60, 60, 60)" stroke-width="1px" opacity="0.25"></line><line x1="198.50347222222223" y1="0" x2="198.50347222222223" y2="177" fill="rgb(0, 0, 0)" stroke="rgb(60, 60, 60)" stroke-width="1px" opacity="0.25"></line><line x1="226.8611111111111" y1="0" x2="226.8611111111111" y2="177" fill="rgb(0, 0, 0)" stroke="rgb(60, 60, 60)" stroke-width="1px" opacity="0.25"></line><line x1="255.21875" y1="0" x2="255.21875" y2="177" fill="rgb(0, 0, 0)" stroke="rgb(60, 60, 60)" stroke-width="1px" opacity="0.25"></line></g><g><line x1="0" y1="177" x2="255.21875" y2="177" fill="rgb(0, 0, 0)" stroke="rgb(60, 60, 60)" stroke-width="1px" opacity="0.25"></line><line x1="0" y1="154.875" x2="255.21875" y2="154.875" fill="rgb(0, 0, 0)" stroke="rgb(60, 60, 60)" stroke-width="1px" opacity="0.25"></line><line x1="0" y1="132.75" x2="255.21875" y2="132.75" fill="rgb(0, 0, 0)" stroke="rgb(60, 60, 60)" stroke-width="1px" opacity="0.25"></line><line x1="0" y1="110.625" x2="255.21875" y2="110.625" fill="rgb(0, 0, 0)" stroke="rgb(60, 60, 60)" stroke-width="1px" opacity="0.25"></line><line x1="0" y1="88.5" x2="255.21875" y2="88.5" fill="rgb(0, 0, 0)" stroke="rgb(60, 60, 60)" stroke-width="1px" opacity="0.25"></line><line x1="0" y1="66.375" x2="255.21875" y2="66.375" fill="rgb(0, 0, 0)" stroke="rgb(60, 60, 60)" stroke-width="1px" opacity="0.25"></line><line x1="0" y1="44.25" x2="255.21875" y2="44.25" fill="rgb(0, 0, 0)" stroke="rgb(60, 60, 60)" stroke-width="1px" opacity="0.25"></line><line x1="0" y1="22.125" x2="255.21875" y2="22.125" fill="rgb(0, 0, 0)" stroke="rgb(60, 60, 60)" stroke-width="1px" opacity="0.25"></line><line x1="0" y1="0" x2="255.21875" y2="0" fill="rgb(0, 0, 0)" stroke="rgb(60, 60, 60)" stroke-width="1px" opacity="0.25"></line></g></g></g><g><g><line x1="0" y1="154.875" x2="255.21875" y2="154.875" fill="rgb(0, 0, 0)" stroke="rgb(153, 153, 153)" stroke-width="1.5px"></line></g></g><g><g><line x1="28.357638888888886" y1="0" x2="28.357638888888886" y2="177" fill="rgb(0, 0, 0)" stroke="rgb(153, 153, 153)" stroke-width="1.5px"></line></g></g><g><g><g><g><g><path stroke="rgb(255, 112, 67)" stroke-width="2px" d="M28.617111284722224,154.79534999999998L28.67099079861111,154.77904736842106L28.70218420138889,154.7981258302583L28.720616666666665,154.79474524571097L28.77024253472222,154.8002957217162L28.79151076388889,154.79262951069128L28.807107465277777,154.79484734096846L28.814196875,154.79338169384243L28.826957812499998,154.79045240980332L28.83971875,154.7939219080647L28.860986979166665,154.78639163905L28.865240625000002,154.7925733819178L28.869494270833336,154.79769217130982L28.87658368055556,154.7978802709642L28.886508854166667,154.7992333258752L28.89643402777778,154.79875666753492L28.9290453125,154.78985074367773L28.970163888888887,154.77279581618842L28.971581770833335,154.77438027090747L29.019789756944444,154.77701934342457L29.14598125,154.77808389077734L29.151652777777777,154.76723736766445L29.165831597222223,154.7729924503118L29.167249479166667,154.7784674246196L29.283515798611113,154.7809218873156L29.309037673611112,154.7853027496895L29.371424479166667,154.78856199946273L29.384185416666668,154.79161297141124L29.40403576388889,154.79479138147462L29.416796701388886,154.79590591861168L29.422468229166668,154.7972282774407L29.428139756944443,154.7921077520446L29.46216892361111,154.78513654453832L29.463586805555558,154.78982838344433L29.5160484375,154.79175630394812L29.564256423611113,154.79212395616946L29.65641875,154.78974329123884L29.657836631944445,154.79166655789183L29.704626736111113,154.79564016140077L29.71738767361111,154.77899257929838L29.757088368055555,154.78231610478122L29.87051892361111,154.78217973663337L29.91447326388889,154.78127450890256L29.97260642361111,154.7671205113194L30.002381944444444,154.77130750410797L30.02081440972222,154.75812066890165L30.025068055555554,154.7576364286018L30.033575347222225,154.76221126901208L30.034993229166666,154.7657667522904L30.06760451388889,154.7593593274843L30.108723090277778,154.76272113126527L30.2561828125,154.7638971094529L30.271779513888887,154.76290868444374L30.3072265625,154.75195577993665L30.315733854166666,154.75542074671256L30.369613368055557,154.7462117829912L30.371031249999998,154.74206114234573L30.386627951388892,154.7356293948282L30.407896180555554,154.7293252968553L30.44476111111111,154.72951185241203L30.487297569444443,154.73226512050698L30.545430729166668,154.73149248382305L30.549684375000002,154.73035424432365L30.573788368055553,154.73479405428412L30.633339409722222,154.71543641687617L30.714158680555556,154.71565965564952L30.74393420138889,154.70868181135546L30.80206736111111,154.690420092188L30.816246180555556,154.692064227614L30.833260763888887,154.69286902327755L30.91266215277778,154.68762666467435L31.017585416666666,154.68065331565998L31.087061631944444,154.6699509521406L31.10124045138889,154.65635173594666L31.15653784722222,154.66100995265523L31.193402777777777,154.66609346264588L31.255789583333335,154.65215711276085L31.268550520833333,154.64849382201595L31.34653402777778,154.64775497551713L31.491157986111112,154.62714684971516L31.614513715277777,154.61460578531796L31.715183333333332,154.60318872131555L31.967566319444447,154.59878380335311L32.00017760416667,154.59019964685513L32.079578993055556,154.58947458863202L32.08666840277778,154.59073977576475L32.09092204861111,154.58626641722847L32.14054791666667,154.58381054454034L32.26248576388889,154.5761065154197L32.28942552083333,154.57643688904471L32.33054409722222,154.56080312829565L32.37166267361111,154.54485794310116L32.37875208333333,154.53804677054424L32.4255421875,154.52062484566756L32.46240711805555,154.5116644589453L32.54748003472222,154.51528476714316L32.66941788194445,154.49846085227816L32.67367152777778,154.47068707135404L32.90620416666667,154.46534234310866L33.22097395833334,154.4527795515712L33.32589722222222,154.43364114070596L33.362762152777776,154.43152859565595L33.396791319444446,154.40979531346264L33.4208953125,154.40454319058796L33.42231319444444,154.40705342763923L33.53999739583333,154.39632293340563L33.54566892361111,154.38559739998456L33.67469618055556,154.36297447233423L33.69880017361111,154.36550205111067L33.81081284722222,154.36736201947548L33.850513541666665,154.3711637541846L33.85902083333333,154.36874235880097L33.90864670138889,154.3572753025195L33.97954079861111,154.35609526689774L33.98379444444444,154.35427538598668L34.0334203125,154.3395302748143L34.03483819444445,154.3452587251923L34.19364097222222,154.35526757130177L34.20073038194444,154.35071499330178L34.34960798611111,154.3404559626432L34.42050208333333,154.35104320964882L34.477217361111116,154.33235335383517L34.65445260416667,154.33019926338068L34.696989062499995,154.31150876250027L34.94086475694444,154.2973528574567L34.97347604166667,154.27821409077634L35.01884826388889,154.27402517342824L35.03586284722222,154.25917419794132L35.128025173611114,154.2641799994672L35.173397395833334,154.2641684519916L35.194665625,154.2637298298892L35.2074265625,154.24771433049307L35.33220017361111,154.23610288791272L35.35346840277778,154.21134983785424L35.35488628472222,154.2092656339331L35.49809236111111,154.2148570426356L35.57465798611111,154.19422696980936L35.66398454861111,154.17466071582894L35.7178640625,154.1736091578254L35.853980729166665,154.15400370309575L35.9348,154.13580567010607L36.08225972222222,154.09510331909473L36.092184895833334,154.0710414177986L36.27367378472222,154.03424613262965L36.460834201388884,154.00451604372446L36.50762430555556,153.99670350022197L36.54590711805556,153.94691564085062L36.567175347222225,153.90116625653383L36.73306753472222,153.85833243686534L36.815304687499996,153.8081663738115L36.820976215277774,153.79592785992256L36.83940868055556,153.75919288235704L36.91030277777778,153.66750014747095L36.94433194444444,153.6387680988933L36.984032638888884,153.5900928475694L37.013808159722224,153.55845387301073L37.032240625,153.53537176544836L37.04074791666667,153.4785064605526L37.07761284722223,153.4551222195072L37.132910243055555,153.45053187233736L37.15559635416667,153.42413727771975L37.209475868055556,153.42637901878447L37.35268194444444,153.37930674026808L37.39238263888889,153.33597372113425L37.41223298611111,153.32241775488876L37.48738072916667,153.2849119159485L37.5299171875,153.22322384794532L37.770957118055556,153.14115458646455L37.934013541666666,153.02760553196833L37.95811753472222,152.92873013337595L38.006325520833336,152.85585873881988L38.141024305555554,152.78743302026547L38.19773958333334,152.6932154983458L38.27714097222222,152.65764785437287L38.28423038194445,152.57516431812496L38.326766840277784,152.50770491696582L38.35087083333333,152.46524458118125L38.42176493055556,152.39118866464682L38.46571927083333,152.32193776648563L38.48273385416667,152.28007758334417L38.51676302083334,152.19248388705228L38.63444722222222,152.08156831032568L38.72802743055555,151.98990288515535L38.75071354166666,151.93948525269786L38.75780295138889,151.852210164629L38.86414409722222,151.72014774150884L38.89250173611111,151.5743267169532L39.049886631944446,151.37422373225803L39.18742118055556,151.24861385874985L39.24271857638889,151.06199934749728L39.43271475694445,150.7982173810172L39.47383333333334,150.63811283015306L39.50502673611111,150.4971992031799L39.50644461805556,150.36000584517978L39.58159236111111,150.19933416671984L39.62838246527778,150.03053043736634L39.75599184027778,149.89395629974752L39.765917013888895,149.7290020758791L39.77867795138889,149.58234093067622L39.83539322916666,149.49196855629484L40.08635833333333,149.3679045130866L40.12605902777778,149.26979843672186L40.19978888888889,149.12881781172717L40.228146527777774,148.96957743673073L40.252250520833336,148.79016969298291L40.31038368055555,148.71125662990505L40.341577083333334,148.65226534189463L40.46209704861111,148.50002552640893L40.503215625,148.39398469248906L40.64925746527778,148.32938466072426L40.65067534722222,148.26861728838838L40.694629687500004,148.22239750338798L40.73007673611111,148.16126634678824L40.97820607638889,147.99534674333262L41.101561805555555,147.848231600228L41.15827708333333,147.80322172144932L41.2050671875,147.6851370492905L41.216410243055556,147.58065850060038L41.22491753472222,147.5057106192832L41.24051423611111,147.49108096360362L41.28446857638889,147.40891192973692L41.336930208333335,147.38100745551128L41.430510416666664,147.28827389745436L41.48013628472222,147.17840197645273L41.49006145833333,147.11270474755412L41.56520920138889,147.13557802279976L41.63610329861111,147.0654514705169L41.69423645833333,147.03593991721414L41.698490104166666,147.00135920674157L42.02460295138889,146.91533891106485L42.05012482638889,146.83992572308134L42.19474878472222,146.77959018202174L42.28265746527778,146.7768671013195L42.36914826388889,146.7236671099365L42.43862447916667,146.76262774269355L42.44996753472222,146.73435949967373L42.49250399305556,146.7216399559562L42.493921875000005,146.72623299161063L42.51519010416666,146.7125284424494L42.53787621527778,146.70945919195444L42.57190538194445,146.72923671025916L42.613023958333336,146.73804819548332L42.698096875000005,146.6718597821845L42.71652934027778,146.64312692896584L42.83137777777778,146.61961814231913L42.85264600694445,146.55089148433683L42.900853993055556,146.525128898403L43.02704548611111,146.55158553981283L43.07667135416667,146.50501136083136L43.131968750000006,146.48674069349815L43.19151979166667,146.5036228741484L43.28793576388889,146.5266988679836L43.41979878472222,146.4989305436852L43.49920017361111,146.4699288955666L43.52897569444444,146.39446100600978L43.538900868055556,146.38171412415878L43.541736631944445,146.37328411799288L43.56016909722223,146.3828439874436L43.618302256944446,146.37609865119924L43.628227430555555,146.38344112982932L43.76009045138889,146.3813376418464L43.77994079861111,146.4329593464118L43.81822361111111,146.33781888052053L43.937325694444446,146.31925886746848L43.95575815972222,146.2837486057216L43.96710121527778,146.2195698388994L43.99404097222222,146.18877379250944L44.0124734375,146.14529328825847L44.07344236111111,146.07269677193258L44.12306822916667,146.04303646973932L44.147172222222224,146.04994454151537L44.35843663194444,146.03541961861384L44.4080625,145.98680890675243L44.41373402777778,145.92826317232718L44.471867187499996,145.87681654259444L44.61365538194444,145.897995825835L44.657609722222226,145.8361626495015L44.67887795138889,145.83997372830135L44.73417534722223,145.8193427617212L44.91566423611111,145.72472020429908L44.96529010416667,145.69957396511916L44.97237951388889,145.62992672485723L45.118421354166664,145.5949004586215L45.146778993055555,145.59020338150935L45.1609578125,145.55624554335841L45.17797239583333,145.53550145777257L45.20349427083333,145.5071520932453L45.271552604166665,145.45204547767077L45.29991024305556,145.4377112424037L45.49557795138889,145.3913463681633L45.52251770833333,145.278403137597L45.87415243055556,145.2262589175873L45.96064322916667,145.18887052582858L45.97623993055556,145.1512108169957L46.015940625,145.13653817279612L46.09392413194444,145.12042888676652L46.12795329861111,145.08933677933987L46.137878472222226,145.01406169515587L46.21160833333333,144.98738365064028L46.28817395833334,144.97623356682627L46.394515104166665,144.92554380389362L46.44555885416666,144.89167692350426L46.45123038194445,144.86257954365385L46.468244965277776,144.81067158928846L46.47958802083333,144.7458395866096L46.48951319444444,144.70657359669866L46.56607881944445,144.69405061202878L46.58309340277778,144.6896939883259L46.61428680555556,144.67429568324332L46.62421197916667,144.64453486491897L46.77876111111111,144.6835720034271L46.82271545138889,144.68510308433437L46.96733940972223,144.67555683840095L47.04390503472222,144.62976756081085L47.05950173611111,144.58994002347976L47.29487013888889,144.5748374273818L47.32464565972222,144.5691271221436L47.39837552083333,144.51821675367924L47.422479513888895,144.54817554706133L47.474941145833334,144.5935298673552L47.477776909722216,144.54792297436967L47.48061267361111,144.51005723943268L47.4834484375,144.48358354673942L47.55150677083333,144.4745533170655L47.56852135416667,144.45204486035894L47.6365796875,144.38172943682304L47.64083333333333,144.37707680564074L47.666355208333336,144.36058240632667L47.69471284722222,144.339791353194L47.704638020833336,144.3544051866246L47.71030954861111,144.31653185546213L47.79680034722222,144.26142710741593L47.80105399305556,144.24322267792434L47.84500833333333,144.21162775388188L47.869112326388894,144.15360013474373L47.89463420138889,144.10317293376934L47.90739513888889,144.1054954841424L48.24343315972222,144.05213499822815L48.511412847222225,144.00701446715533L48.587978472222225,143.9662677079398L48.61350034722222,143.96527218714584L48.637604340277775,143.94612309343125L48.670215625000004,143.99526390908812L48.678722916666665,143.9547242369293L48.81625746527778,143.94354400073638L48.85312239583334,143.98976225691274L48.907001909722226,143.93801884372147L48.94103107638889,143.90472477184932L49.04737222222222,143.92979604466439L49.07289409722222,143.92000237769793L49.08707291666666,143.92059120242817L49.11259479166667,143.89706020718535L49.122519965277775,143.8182190302168L49.33803802083333,143.78349165844512L49.34370954861111,143.7211237426006L49.3465453125,143.69776527459055L49.45005069444444,143.60290046588148L49.50109444444444,143.58818385679334L49.556391840277776,143.589873283614L49.56489913194444,143.56000392400261L49.66556875,143.50228478160236L49.78467083333333,143.4676227096921L49.794596006944445,143.4006120012229L49.839968229166665,143.3599383011006L49.964741840277775,143.27631634599055L49.96615972222222,143.3031081488915L49.97183125,143.28324733400234L50.10794791666667,143.2649577568521L50.239810937499996,143.2356369811669L50.27100434027778,143.2420209393002L50.282347395833334,143.29740947037018L50.28660104166667,143.27438492958316L50.317794444444445,143.29141362412486L50.33622690972222,143.22487694921236L50.34898784722222,143.22722050429113L50.41562829861112,143.249933610112L50.48794027777778,143.2573769678508L50.51346215277778,143.20917833356572L50.53047673611111,143.11546518770916L50.5715953125,143.11409210643825L50.636817881944445,143.0912844582944L50.69495104166666,143.065641168715L50.75733784722222,143.05929423934347L50.77718819444444,143.06644215915912L50.87218628472222,143.0192221619932L50.97002013888889,143.0509811957939L51.03382482638889,142.9325713574645L51.06360034722222,142.88988844046804L51.10188315972222,142.86253631517127L51.1585984375,142.79878580865412L51.19262760416667,142.71015879028872L51.240835590277776,142.65971009875983L51.315983333333335,142.63580901075886L51.327326388888885,142.65433045343298L51.398220486111114,142.6172083455897L51.4903828125,142.5658218860307L51.50030798611111,142.58346000992762L51.565530555555554,142.5958772901849L51.63784253472222,142.57815206116638L51.6690359375,142.53523451129973L51.75127309027778,142.48789699766976L51.79948107638889,142.4024260479028L51.832092361111116,142.42077797436252L51.97246267361111,142.36525017692625L51.98380572916667,142.38607515923363L52.01499913194444,142.35628092456028L52.03484947916667,142.30084189460425L52.077385937500004,142.2942287988938L52.10148993055555,142.28302232525442L52.122758159722224,142.212092748979L52.18798072916666,142.22873581783108L52.21775625,142.255606767298L52.234770833333336,142.20193827806818L52.268800000000006,142.18115460651137L52.37372326388889,142.12414539586024L52.402080902777776,142.0743582000242L52.42051336805555,142.0731083175218L52.43327430555556,142.1201052982696L52.436110069444446,142.10944086219266L52.45879618055556,142.1233506822234L52.533943923611105,142.18495936400103L52.58498767361111,142.16158686510093L52.637449305555556,142.13778599109085L52.69558246527778,142.16614645448175L52.767894444444444,142.1882138402836L52.844460069444445,142.11597917500524L52.872817708333336,142.0195781325047L52.92102569444444,141.93254063175422L52.99475555555556,141.86789672482882L53.008934374999995,141.85728595859592L53.09542517361111,141.87248861273633L53.14079739583333,141.8546428764627L53.17624444444444,141.82904030756643L53.208855729166665,141.92160112055979L53.325122048611114,141.8738152272538L53.51228246527778,141.83716886077843L53.51795399305555,141.8462246309506L53.55340104166667,141.77444826160553L53.56757986111111,141.73031515419498L53.58175868055555,141.68907426377547L53.621459375,141.63232152489792L53.66399583333333,141.63047218490811L53.774590625,141.6191280914173L53.777426388888884,141.6658902822756L53.926303993055555,141.66068406654801L54.01137690972222,141.5966758161432L54.03406302083333,141.5559387032789L54.20562673611111,141.49825655170102L54.22689496527778,141.4567137090309L54.31480364583333,141.3848931193778L54.327564583333334,141.29204521369005L54.358757986111115,141.21857662982103L54.365847395833335,141.18882287308892L54.490621006944444,141.17836167953004L54.518978645833336,141.12787707407702L54.540246875,141.12323389791933L54.58561909722222,141.0445214456274L54.602633680555556,141.05346851981466L54.65084166666667,141.0626271365832L54.652259548611106,141.00076129792487L54.71039270833334,141.01187188688237L54.75151128472223,140.89174876069416L54.76994375,140.88610435337472L54.83658420138889,140.91255251178725L54.85359878472222,140.86403476060852L54.90038888888889,140.8671078470477L54.931582291666665,140.76865174984292L54.96419357638889,140.78900688735862L55.01949097222222,140.72090072987277L55.130085763888886,140.75764659438548L55.1910546875,140.68299677869692L55.254859375,140.64250022582723L55.3186640625,140.57798223449453L55.403736979166666,140.51839494854505L55.4207515625,140.41083670369056L55.45194496527778,140.4256272520715L55.50866024305555,140.37228718311434L55.5738828125,140.4248115898029L55.59798680555556,140.3761163683226L55.687313368055555,140.42618363774034L55.78089357638889,140.33005902396633L55.81775850694444,140.36730859031968L55.82201215277778,140.28619804378772L55.82484791666667,140.20891183315894L55.8801453125,140.22370580609305L55.90992083333333,140.27435631923373L55.9567109375,140.16824724981038L55.98506857638889,140.11506314982933L55.994993750000006,140.0703779285964L56.02476927083333,140.09446201073678L56.03753020833333,140.1630150284131L56.09424548611111,140.1327557130718L56.11126006944444,140.1814387355146L56.220436979166664,140.06705970571315L56.275734375,140.00574123514184L56.52386371527778,140.00033586162766L56.62311545138889,139.94472180671488L56.66706979166667,139.8567800947934L56.66848767361111,139.89047005406405L56.81452951388889,139.80850664240765L56.83296197916667,139.7896372281669L56.841469270833336,139.7849617866002L56.854230208333334,139.76333045169017L56.858483854166664,139.70182475027116L56.87266267361111,139.77742196274403L56.94213888888889,139.78489226646963L57.08818072916667,139.79728507107268L57.11512048611112,139.6940800014654L57.15765694444444,139.70739543881888L57.19593975694445,139.67554417618697L57.21579010416667,139.7606835085683L57.22855104166667,139.77535890771145L57.24414774305556,139.7808230169403L57.29802725694445,139.70650555899627L57.42563663194444,139.75646750309664L57.492277083333335,139.72814419028697L57.51212743055556,139.68785711500828L57.52347048611111,139.70096515350747L57.64540833333333,139.6658850444067L57.74607795138889,139.56130044621605L57.84391180555556,139.49745790159443L57.86943368055555,139.434191798935L57.92047743055556,139.4531687127915L58.171442534722225,139.36888777901234L58.1771140625,139.3328599386111L58.27353003472222,139.293105976L58.30897708333334,139.23243678465002L58.32599166666667,139.243794668685L58.334498958333334,139.1930347330665L58.36002083333333,139.16366797850986L58.411064583333335,139.01693321190888L58.45927256944445,139.00794223446798L58.501809027777774,138.96168472977118L58.51598784722222,139.04132563179405L58.64501510416667,139.01067431861466L58.6875515625,139.0630146992532L58.73717743055556,138.97349916682788L58.85911527777778,138.9958164376451L58.92291996527778,138.96860979388057L58.930009375,138.91052147074254L58.934263020833335,138.87801619866826L59.00232135416667,138.75625129755144L59.032096875,138.67957382404632L59.03776840277778,138.56410159789166L59.38373159722222,138.5407945631025L59.423432291666664,138.49714010679224L59.44186475694445,138.47001984611302L59.44895416666667,138.43717645525172L59.48156545138889,138.30860802847656L59.55813107638889,138.24475191312888L59.76088819444445,138.260432190566L59.783574305555554,138.2705342840094L59.80058888888889,138.31848319935847L59.81334982638889,138.27956730129762L59.87290086805555,138.24585666491785L59.91969097222222,138.23570615467605L59.96222743055556,138.24897225795846L59.9891671875,138.2224695634126L60.03879305555556,138.21728510707135L60.064314930555554,138.15993394011423L60.25147534722222,138.1350061711028L60.294011805555556,138.2111657102425L60.306772743055554,138.23020460796826L60.31386215277777,138.15994586592143L60.421621180555555,138.1196676855793L60.621542534722224,138.10775482327136L60.65982534722222,138.12233871594424L60.783181076388885,138.0191696880998L60.85265729166667,137.8563472505398L60.92922291666667,137.88459455673586L60.95332690972222,137.78611713231226L61.04265347222222,137.82470620033104L61.048325,137.87506214279793L61.107876041666664,137.77186842851813L61.180188020833334,137.76279252316633L61.188695312499995,137.7131398333497L61.37018420138889,137.70979850626472L61.384363020833334,137.62313115563825L61.388616666666664,137.5420883525744L61.40846701388889,137.61296232981698L61.415556423611115,137.5752504718353L61.421227951388886,137.56509417465173L61.433988888888884,137.56217616343656L61.59846319444444,137.5538804220929L61.60413472222222,137.49372909863362L61.61264201388889,137.39105618877028L61.63958177083333,137.35520760114323L61.75726597222223,137.2627915285289L61.901889930555555,137.31112253192603L62.00114166666667,137.3373352787334L62.142929861111114,137.22402831336007L62.218077604166666,137.19216063827406L62.2861359375,137.13610004319665L62.56545868055556,137.166125195127L62.63918854166667,137.0670353318643L62.668964062499995,136.88022789242785L62.69165017361111,136.78041213443507L62.768215798611116,136.71339435849157L62.83627413194445,136.7646713288924L62.85187083333333,136.77984560225318L62.931272222222226,136.77068604202785L62.93552586805556,136.76576118782506L63.0007484375,136.79493116279255L63.10850746527778,136.7615849215133L63.16522274305555,136.74706080436198L63.221938020833335,136.77533519267575L63.25880295138889,136.7234829234082L63.27723541666667,136.69078228731738L63.341040104166666,136.66231968358562L63.43603819444444,136.62923615272706L63.44312760416666,136.61785238120436L63.465813715277775,136.61299995558392L63.73095763888889,136.65053199127553L63.980504861111115,136.61682957339798L64.06415989583333,136.6256309910582L64.11236788194445,136.5331600794524L64.1237109375,136.45214875900712L64.17050104166667,136.42044638310642L64.1846798611111,136.33024080729575L64.29811041666667,136.27947766406618L64.31087135416666,136.32215255390958L64.32930381944443,136.2912810485186L64.3534078125,136.31632013116675L64.36475086805555,136.26183264930006L64.40870520833334,136.28539157187006L64.45691319444444,136.28792663343307L64.47959930555555,136.22991756383976L64.55900069444444,136.18918674495578L64.58452256944445,136.1861313517102L64.59161197916667,136.22403618528918L64.63981996527778,136.24653491051026L64.64265572916668,136.16971032570925L64.68519218750001,136.0585306993883L64.70929618055555,135.98736981694947L64.78444392361111,135.95900158525453L64.91914270833334,135.85824517672907L64.94608246527777,135.78872144030618L65.02264809027778,135.81672429627554L65.19988333333333,135.779423741648L65.41114774305555,135.6859774612332L65.43525173611111,135.65622034010988L65.48771336805557,135.5831147123489L65.49338489583333,135.600426678614L65.52174253472222,135.5857238545026L65.54017499999999,135.65103506280235L65.55151805555555,135.6373557752721L65.58412934027777,135.6285014477449L65.64935190972223,135.6592513029704L65.65076979166666,135.53384882892337L65.81382621527779,135.46468347728103L65.86345208333333,135.39026591080292L65.92583888888889,135.34776588222263L65.93151041666667,135.27881741900038L65.96128593750001,135.3522794271003L65.98397204861111,135.3672311718903L65.99531510416666,135.38704867970125L65.99673298611111,135.39451334298116L66.06620920138889,135.46193700868304L66.15695364583333,135.49689799531473L66.17113246527778,135.49310116453324L66.19807222222222,135.42911682932993L66.41642604166667,135.50123874014693L66.52843871527779,135.45967189738224L66.75955347222222,135.379947676394L66.82335815972222,135.31538650250462L66.85880520833334,135.35324863350417L66.88999861111111,135.31610970765374L66.9084310763889,135.39801123688835L67.11544184027778,135.32970776944953L67.11685972222222,135.31981355500457L67.12820277777777,135.3334486057541L67.20193263888889,135.3559529639287L67.26431944444444,135.34163657378582L67.28416979166667,135.24924010390725L67.34939236111111,135.23605359351652L67.35364600694444,135.26649979666487L67.43446527777779,135.27440372324838L67.505359375,135.19592116342355L67.55498524305555,135.07287826583118L67.56207465277778,135.05409668924807L67.61170052083334,135.04147998907325L67.64856545138889,134.9743976151659L67.97326041666666,134.97943050989934L68.10937708333333,134.7943765214094L68.12355590277778,134.74799433801846L68.18027118055556,134.7070800604666L68.23415069444445,134.66071580441997L68.34758124999999,134.72339031772796L68.39153559027778,134.77965909845517L68.40996805555555,134.81661115735966L68.42556475694444,134.74048754162368L68.43548993055556,134.7231403499613L68.46242968749999,134.71084662746517L68.47093697916667,134.73034243346865L68.6666046875,134.8002972526218L68.7020517361111,134.74073940235962L68.71055902777778,134.72723889962367L68.7942140625,134.7558814159113L68.8197359375,134.64545264932016L68.86652604166666,134.61258004063814L68.91331614583333,134.60539625532434L68.9317486111111,134.50559100479188L68.96010625,134.44798581056273L68.99271753472222,134.45518722950644L69.00264270833333,134.3842310065558L69.12032690972222,134.46667196840022L69.35002378472223,134.4272016465602L69.39397812499999,134.44339554440418L69.43651458333333,134.42091067746375L69.54994513888889,134.38387312534238L69.58681006944444,134.40384675030813L69.74419496527779,134.32889801277733L69.77822413194444,134.27679336774958L69.79098506944445,134.28382887472463L69.87038645833333,134.23042333100216L70.12985885416667,134.20766381040195L70.13269461805555,134.19990211686178L70.2078423611111,134.20992518642558L70.22485694444444,134.18617329278302L70.28157222222222,134.11515361975472L70.29007951388888,134.07502028902925L70.32127291666667,134.00045810387633L70.3510484375,134.0009716684887L70.3765703125,133.96036434538982L70.38933125,133.95562244210083L70.40776371527778,133.95909847914075L70.47723993055556,133.90649956872667L70.55238767361111,133.930928518104L70.56514861111111,133.8870926975436L70.619028125,133.88428499028925L70.79768125,133.84953852251033L70.81894947916668,133.88312060775928L70.96499131944445,133.76372417198337L71.13230138888889,133.65751191103502L71.17909149305555,133.70448884493152L71.28401475694444,133.67209621043838L71.28826840277779,133.65690924564453L71.41020625,133.59774644608007L71.46975729166667,133.74887961397206L71.57468055555556,133.75961665257486L71.61438125000001,133.79057529981736L71.639903125,133.77156073858563L71.68811111111111,133.72264294597707L71.69803628472222,133.71927162012935L71.76042309027777,133.66866867686642L71.76467673611111,133.53241352792978L71.7831092013889,133.4957948313868L71.79161649305556,133.49118566074813L71.9362404513889,133.4548178759233L71.95750868055555,133.50574702583097L71.99579149305555,133.48852701074787L72.15459427083333,133.4731672784231L72.17869826388889,133.40721148808078L72.32615798611111,133.3842192455227L72.36018715277778,133.32701997722043L72.42540972222223,133.2832843857484L72.43533489583334,133.20271454092355L72.49205017361112,133.2209141805812L72.60689861111112,133.14091182502307L72.62391319444444,133.09435345502078L72.7912232638889,133.1713727970187L73.23076666666667,133.1100144235668L73.24069184027778,133.03308173121013L73.2832282986111,133.07073371433913L73.34845086805555,132.9807204991552L73.35837604166666,132.9876554804897L73.49449270833333,132.9515829011907L73.53702916666667,132.86256054857165L73.61501267361112,132.90813808746447L73.62351996527778,132.86079615371804L73.64478819444444,132.9353126320962L73.64620607638889,132.91747277513662L73.65754913194445,132.78982393512294L73.77239756944445,132.77505560411066L73.77948697916668,132.7877609811996L73.92836458333333,132.65372394557963L73.98933350694445,132.62753670727164L74.00776597222222,132.6125416302945L74.0261984375,132.59863121726505L74.32395364583334,132.56329543928854L74.45439878472222,132.5256854266097L74.55506840277778,132.48160360269873L74.5621578125,132.52130339867884L74.75073611111111,132.51112384006097L75.10520659722224,132.45453176855486L75.14348940972222,132.36059343544937L75.30938159722223,132.34394502940444L75.51213871527777,132.33753490146398L75.5603467013889,132.2765915675676L75.65109114583333,132.36237459831085L75.69504548611111,132.15845354472975L75.71347795138888,132.15925350275677L75.748925,132.15886721498111L75.80989392361111,132.155339087233L75.83966944444444,132.09920205350969L75.85810190972222,132.0461896606587L75.89354895833334,131.98520350709285L76.41674739583333,132.04909956263356L76.49331302083334,131.98450366887022L76.63510121527777,132.0228876769832L76.65920520833333,131.9726668780349L76.69607013888889,131.94682753398138L76.9130060763889,131.96090806183324L76.9328564236111,131.94426491189992L77.29441631944444,131.93647670195992L77.356803125,131.91854309426392L77.41351840277778,131.90890206608753L77.4716515625,131.8702181094788L77.53970989583334,131.9281892672809L77.54112777777777,131.9586531530528L77.54963506944445,131.93933158774752L77.62761857638888,131.86510858522277L77.63187222222221,131.8341227267005L77.70985572916666,131.84232686028045L77.73395972222222,131.8396851898774L77.75097430555556,131.80501901463967L77.77649618055555,131.8703397694257L77.84313663194443,131.81518469873313L77.8445545138889,131.75254669760983L77.87716579861112,131.68510999659884L78.12387725694445,131.72052243443895L78.1862640625,131.72916237849506L78.24014357638889,131.63336567189555L78.5052875,131.659847854706L78.61021076388889,131.6681943192354L78.69386579861111,131.72050926231185L78.9618454861111,131.66830677358067L79.24400399305556,131.5831589087226L79.35318090277778,131.46974301785033L79.42832864583333,131.4524351223153L79.54459496527778,131.4065744225838L79.72891961805554,131.2911810428254L80.26204322916666,131.24983012604287L80.51584409722223,131.27815961343856L80.56688784722222,131.1364741208447L80.89725434027777,131.01974311501024L81.0546392361111,130.90528208475922L81.19359166666666,130.8140210637833L81.29567916666667,130.95922051990496L81.30985798611111,130.78111799916448L81.6827609375,130.76118119924803L81.68559670138889,130.8351951105732L81.68985034722223,130.7635263807659L81.90678628472222,130.7067682739393L82.205959375,130.74266488404538L82.23857065972223,130.70818198939082L86.54042447916667,130.74366066545176L89.03873246527777,130.67658209890658L89.91214774305556,130.35555123276592L90.08796510416666,130.08529142198933L90.24393211805555,129.8217302485404L91.48599670138888,129.65352753618635L91.59659149305556,129.2973505638177L92.47000677083334,129.48331550743595L92.66142083333332,129.22408630044237L92.85567065972224,129.34975813914812L93.75886145833334,129.0214690439833L93.82266614583332,129.03631198333497L94.30191024305556,128.89175344125147L94.3189248263889,129.05563669087633L94.64645555555555,128.87623474053868L94.7499609375,128.82761048523483L94.9286140625,128.75895803046134L95.26465208333335,128.6072880086652L95.44755885416667,128.62317092654868L95.45323038194444,128.31485539639382L95.48584166666666,128.19432063800443L95.67300208333334,128.32465107420398L96.17635017361111,128.0789601855336L96.66977309027779,128.12237041698023L96.78603940972222,127.69128337528221L97.20289670138888,127.394432381504L98.28615850694445,127.06476336210359L98.51301961805555,126.99567218214324L100.3548482638889,126.4376135576789L100.42999600694445,126.14983501441102L100.66252864583333,125.82860776296991L100.86953940972222,125.88133448667293L100.97020902777777,125.39211900675564L101.13610121527779,124.94090085608008L101.73161163194445,124.39182170797207L101.75996927083334,124.08114969342486L101.86205677083333,123.74844488033239L102.23212395833333,123.32165351729914L102.51002881944444,122.75998816556923L102.53129704861111,122.50505497401231L102.5341328125,122.44722213286107L102.7921873263889,121.94893898207496L103.14098628472222,121.46508414636747L103.287028125,121.31184682548073L103.62023038194445,120.84786604918264L104.0555201388889,120.09121772551438L105.10333489583333,119.59580767171295L106.56800694444445,118.84018862329165L107.32373802083333,118.21834788596249L108.84512534722222,116.96604044111623L109.17974548611112,116.16350983450461L109.71995850694444,115.49640650730416L110.46009288194445,114.25950491907375L112.01692725694444,113.61976848966634L114.80731892361112,112.68475101569972L120.70287204861111,111.49241575787975L121.76061197916667,110.65176480709178L122.7219359375,109.93458910763259L122.83820225694444,108.67806613436933L123.08633159722223,107.03942670843239L127.33430590277777,104.70385044383916L129.11658350694447,101.61325914945525L132.64285590277777,101.05432151575972L135.20780434027776,99.21824639543375L135.81040416666667,98.40708191214036L137.38850677083335,97.71782684592633L140.82545260416666,96.39917697383369L140.90201822916669,93.00915693270032L143.98023993055557,89.17643498943029L145.81781493055556,85.42497899048728L147.26263663194445,81.07060531018854L148.27784010416667,82.89849946666969L150.04877465277778,85.17195420750271L151.45105989583334,84.90323534925244L152.66902048611112,83.77168681432718L153.0064763888889,84.78782516414446L156.66886545138888,83.48003171023001L158.41286024305555,83.870297289207L159.7470871527778,80.9415050602863L163.93125677083333,79.61069049175768L178.23059618055555,74.73661206758189L179.17206979166664,71.6312555483237L181.17837274305558,70.59150030599135L183.97727170138887,69.43364090039219L184.79538958333333,69.84739243535297L185.11583090277776,66.23450319181767L186.2359576388889,65.3331309976359L188.6988185763889,66.3689186791223L189.244703125,65.37113618621007L190.69661423611112,61.33898741133906L192.64478402777777,60.201051951455156L193.77341805555557,58.94515066255963L199.58956979166666,57.18372387755369L204.53655989583334,57.2697069585483L207.2404607638889,56.60701048144347L209.50481822916666,58.48443521454915L212.38311857638888,57.50127919309422L215.76193125,56.0086926800348L216.97563819444446,56.202637474531315L221.12861440972222,52.96205575832819L221.65039496527777,53.51348768249534L222.88962378472223,51.65056000799581L225.94657725694444,49.76567353844624L228.77099809027777,50.47509290335161L233.85552274305556,48.37491017551645L234.163203125,47.84488009546479L241.1590326388889,47.88543974216833L241.43835538194443,47.2720215492015L243.65875850694445,45.23425142553134L244.0912125,42.79735206422819L245.68916545138887,43.87643013905537L246.0592326388889,41.60711759389986L246.06065052083332,42.404480053259846L246.06206840277778,41.68328986043386L246.06348628472222,41.45182806189047L246.06490416666665,40.2105515057014L246.06773993055558,37.5756276051313L246.06915781249998,35.73948281336817L246.07057569444444,39.012115782031344L246.0719935763889,34.80018623507823L246.0734114583333,33.0738504240704L246.07482934027777,32.58726460041336L246.07624722222224,31.478396734122015L246.0790829861111,31.939282841959823L246.08050086805557,33.665954557763826L246.08191875,31.396482539487437L246.08333663194443,28.825170223038697L246.0847545138889,29.22946023198483L246.08617239583336,33.769553271286355L246.0904260416667,36.251159662907725L246.09326180555556,38.04694525911694L246.09467968750002,35.074703858205254L246.09609756944442,36.31899206613471L246.0975154513889,37.603820984521235L246.09893333333335,39.91384747981911L246.10035121527778,40.08237757558723L246.10176909722222,41.948327318028475L246.10318697916668,43.929964898725615L246.1046048611111,44.21778872135306L246.10602274305555,45.539936411717775L246.11027638888888,41.92736152054596L246.11169427083334,42.44171911849136L246.11594791666667,44.026101894142215L246.1173657986111,42.73509639222803L246.11878368055557,41.756828940505216L246.1202015625,43.3639296402047L246.12161944444443,44.02502105118421L246.1230373263889,43.80884550856581L246.12587309027776,44.131597676459194L246.12729097222223,44.45858087756329L246.1287088541667,41.49330013355697L246.1301267361111,40.65414668270128L246.13154461805556,41.75035623318115L246.13296250000002,43.648494828613025" style="fill: none;" fill="none"></path></g></g></g></g><g opacity="0.2"><g><g><g><path stroke="rgb(255, 112, 67)" stroke-width="2px" d="M28.617111284722224,154.79534999999998L28.67099079861111,154.764375L28.70218420138889,154.83075L28.720616666666665,154.7865L28.77024253472222,154.817475L28.79151076388889,154.764375L28.807107465277777,154.8042L28.814196875,154.7865L28.826957812499998,154.7754375L28.83971875,154.81305L28.860986979166665,154.74225L28.865240625000002,154.83075L28.869494270833336,154.83075L28.87658368055556,154.7991428561783L28.886508854166667,154.808625L28.89643402777778,154.79534999999998L28.9290453125,154.72455L28.970163888888887,154.6449L28.971581770833335,154.7865L29.019789756944444,154.7975625L29.14598125,154.7865L29.151652777777777,154.6803L29.165831597222223,154.8196875L29.167249479166667,154.82337500112533L29.283515798611113,154.80124999774932L29.309037673611112,154.8219L29.371424479166667,154.8160000022507L29.384185416666668,154.817475L29.40403576388889,154.8219L29.416796701388886,154.80546428764345L29.422468229166668,154.808625L29.428139756944443,154.74778125L29.46216892361111,154.72455L29.463586805555558,154.83075L29.5160484375,154.808625L29.564256423611113,154.79534999999998L29.65641875,154.7688L29.657836631944445,154.808625L29.704626736111113,154.83075L29.71738767361111,154.631625L29.757088368055555,154.81178571235657L29.87051892361111,154.78096875L29.91447326388889,154.773225L29.97260642361111,154.64110715057373L30.002381944444444,154.808625L30.02081440972222,154.640475L30.025068055555554,154.7533125L30.033575347222225,154.80309375000002L30.034993229166666,154.7975625L30.06760451388889,154.70202272850037L30.108723090277778,154.79282143146514L30.2561828125,154.77443182125091L30.271779513888887,154.75404999549866L30.3072265625,154.65375L30.315733854166666,154.7865L30.369613368055557,154.66358333633423L30.371031249999998,154.7048076912689L30.386627951388892,154.67788635749815L30.407896180555554,154.67271428764343L30.44476111111111,154.7311875L30.487297569444443,154.75700000450135L30.545430729166668,154.72455L30.549684375000002,154.720125L30.573788368055553,154.77469999774934L30.633339409722222,154.5414230873108L30.714158680555556,154.71766667266846L30.74393420138889,154.64594118759155L30.80206736111111,154.52620588394166L30.816246180555556,154.70685L30.833260763888887,154.70010714157104L30.91266215277778,154.640475L31.017585416666666,154.61792856628418L31.087061631944444,154.57367856628417L31.10124045138889,154.53401469635008L31.15653784722222,154.70291666816712L31.193402777777777,154.711828125L31.255789583333335,154.52677172973634L31.268550520833333,154.61553408599855L31.34653402777778,154.64110715057373L31.491157986111112,154.44171874099732L31.614513715277777,154.50176086486817L31.715183333333332,154.50045534942626L31.967566319444447,154.559146557312L32.00017760416667,154.51295454299927L32.079578993055556,154.58294999999998L32.08666840277778,154.6021249909973L32.09092204861111,154.54601086486815L32.14054791666667,154.56171L32.26248576388889,154.5067767741394L32.28942552083333,154.57941L32.33054409722222,154.42011L32.37166267361111,154.4013611151123L32.37875208333333,154.47675L32.4255421875,154.36383622924805L32.46240711805555,154.4310250090027L32.54748003472222,154.54786607528686L32.66941788194445,154.34705174835204L32.67367152777778,154.22073215057372L32.90620416666667,154.41724136627198L33.22097395833334,154.3397177645874L33.32589722222222,154.26140001800536L33.362762152777776,154.41251614471435L33.396791319444446,154.21419998199462L33.4208953125,154.357275L33.42231319444444,154.4296451673889L33.53999739583333,154.29975L33.54566892361111,154.289068961792L33.67469618055556,154.15937071014403L33.69880017361111,154.38825L33.81081284722222,154.3841015625L33.850513541666665,154.4053790496826L33.85902083333333,154.3469499819946L33.90864670138889,154.25407257019043L33.97954079861111,154.34547501800537L33.98379444444444,154.337896557312L34.0334203125,154.206825L34.03483819444445,154.39681452484132L34.19364097222222,154.44534678726197L34.20073038194444,154.3097419546509L34.34960798611111,154.24812501800537L34.42050208333333,154.446328125L34.477217361111116,154.16414514038087L34.65445260416667,154.3108125L34.696989062499995,154.14329465057372L34.94086475694444,154.16994998199462L34.97347604166667,154.105965519104L35.01884826388889,154.23632498199464L35.03586284722222,154.125515625L35.128025173611114,154.30923215057373L35.173397395833334,154.2640645248413L35.194665625,154.2597822354126L35.2074265625,154.10357498199463L35.33220017361111,154.1316L35.35346840277778,153.98857257019043L35.35488628472222,154.1905078125L35.49809236111111,154.2651796875L35.57465798611111,154.00855642547606L35.66398454861111,153.9985645248413L35.7178640625,154.16414514038087L35.853980729166665,153.9775546875L35.9348,153.9720234375L36.08225972222222,153.7287822894287L36.092184895833334,153.854484375L36.27367378472222,153.70308866088868L36.460834201388884,153.73694531249998L36.50762430555556,153.926390625L36.54590711805556,153.498825L36.567175347222225,153.489421875L36.73306753472222,153.472828125L36.815304687499996,153.356671875L36.820976215277774,153.68578125L36.83940868055556,153.428578125L36.91030277777778,152.842265625L36.94433194444444,153.3801796875L36.984032638888884,153.152015625L37.013808159722224,153.273703125L37.032240625,153.32763281249998L37.04074791666667,152.96671875L37.07761284722223,153.2446640625L37.132910243055555,153.40921875L37.15559635416667,153.1865859375L37.209475868055556,153.4465546875L37.35268194444444,152.95565625L37.39238263888889,152.9459765625L37.41223298611111,153.2004140625L37.48738072916667,152.947359375L37.5299171875,152.66803125L37.770957118055556,152.40253125L37.934013541666666,152.0056640625L37.95811753472222,152.0388515625L38.006325520833336,152.20001619873045L38.141024305555554,152.1716015625L38.19773958333334,151.8452578125L38.27714097222222,152.3375390625L38.28423038194445,151.8328125L38.326766840277784,151.9005703125L38.35087083333333,152.0831015625L38.42176493055556,151.72468542114257L38.46571927083333,151.6986796875L38.48273385416667,151.9033359375L38.51676302083334,151.404140625L38.63444722222222,151.083328125L38.72802743055555,151.1649140625L38.75071354166666,151.4857265625L38.75780295138889,151.066734375L38.86414409722222,150.5315859375L38.89250173611111,150.2619375L39.049886631944446,149.573296875L39.18742118055556,150.118125L39.24271857638889,149.38246875L39.43271475694445,148.4241796875L39.47383333333334,149.197171875L39.50502673611111,149.2289765625L39.50644461805556,149.125265625L39.58159236111111,148.75328906250002L39.62838246527778,148.511296875L39.75599184027778,148.6647890625L39.765917013888895,148.2444140625L39.77867795138889,148.262390625L39.83539322916666,148.6786171875L40.08635833333333,148.251328125L40.12605902777778,148.38684375L40.19978888888889,147.85999218749998L40.228146527777774,147.5364140625L40.252250520833336,147.1755L40.31038368055555,148.0010390625L40.341577083333334,148.12134375L40.46209704861111,147.1298671875L40.503215625,147.4396171875L40.64925746527778,147.747984375L40.65067534722222,147.7217109375L40.694629687500004,147.80641943847655L40.73007673611111,147.6110859375L40.97820607638889,146.5020703125L41.101561805555555,146.5241953125L41.15827708333333,147.3981328125L41.2050671875,146.622375L41.216410243055556,146.6403515625L41.22491753472222,146.8311796875L41.24051423611111,147.3594140625L41.28446857638889,146.669390625L41.336930208333335,147.1298671875L41.430510416666664,146.453671875L41.48013628472222,146.1895546875L41.49006145833333,146.5214296875L41.56520920138889,147.34143749999998L41.63610329861111,146.4343125L41.69423645833333,146.7703359375L41.698490104166666,146.6901328125L42.02460295138889,146.14115625L42.05012482638889,146.16120703125L42.19474878472222,146.2365703125L42.28265746527778,146.752359375L42.36914826388889,146.2448671875L42.43862447916667,147.1132734375L42.44996753472222,146.4799453125L42.49250399305556,146.6071640625L42.493921875000005,146.7675703125L42.51519010416666,146.5891875L42.53787621527778,146.6818359375L42.57190538194445,146.907234375L42.613023958333336,146.8173515625L42.698096875000005,146.0761640625L42.71652934027778,146.38453125L42.83137777777778,146.4080390625L42.85264600694445,145.9323515625L42.900853993055556,146.293265625L43.02704548611111,146.7896953125L43.07667135416667,146.08584375L43.131968750000006,146.3223046875L43.19151979166667,146.6555625L43.28793576388889,146.7343828125L43.41979878472222,146.249015625L43.49920017361111,146.2089140625L43.52897569444444,145.71525L43.538900868055556,146.2669921875L43.541736631944445,146.2974140625L43.56016909722223,146.4688828125L43.618302256944446,146.315390625L43.628227430555555,146.4495234375L43.76009045138889,146.36240625L43.77994079861111,146.8975546875L43.81822361111111,145.4815546875L43.937325694444446,146.15221875L43.95575815972222,145.96415625L43.96710121527778,145.64196093750002L43.99404097222222,145.911609375L44.0124734375,145.75396875L44.07344236111111,145.419328125L44.12306822916667,145.77609375L44.147172222222224,146.1121171875L44.35843663194444,145.9046953125L44.4080625,145.54931249999998L44.41373402777778,145.4013515625L44.471867187499996,145.413796875L44.61365538194444,146.088609375L44.657609722222226,145.2796640625L44.67887795138889,145.8742734375L44.73417534722223,145.6336640625L44.91566423611111,144.8731171875L44.96529010416667,145.4732578125L44.97237951388889,145.0031015625L45.118421354166664,145.2796640625L45.146778993055555,145.5479296875L45.1609578125,145.250625L45.17797239583333,145.3488046875L45.20349427083333,145.2520078125L45.271552604166665,144.9560859375L45.29991024305556,145.308703125L45.49557795138889,144.9740625L45.52251770833333,144.2619140625L45.87415243055556,144.7569609375L45.96064322916667,144.852375L45.97623993055556,144.81227343749998L46.015940625,145.004484375L46.09392413194444,144.9754453125L46.12795329861111,144.8095078125L46.137878472222226,144.3365859375L46.21160833333333,144.74728125000001L46.28817395833334,144.87588281249998L46.394515104166665,144.4693359375L46.44555885416666,144.586875L46.45123038194445,144.600703125L46.468244965277776,144.3435L46.47958802083333,144.1623515625L46.48951319444444,144.3531796875L46.56607881944445,144.58134375L46.58309340277778,144.65048437500002L46.61428680555556,144.5357109375L46.62421197916667,144.3766875L46.77876111111111,145.03490625L46.82271545138889,144.6988828125L46.96733940972223,144.58964062500002L47.04390503472222,144.2176640625L47.05950173611111,144.2314921875L47.29487013888889,144.4389140625L47.32464565972222,144.517734375L47.39837552083333,144.0600234375L47.422479513888895,144.8178046875L47.474941145833334,145.00171875L47.477776909722216,144.1374609375L47.48061267361111,144.169265625L47.4834484375,144.24532031249998L47.55150677083333,144.39328125L47.56852135416667,144.24946875L47.6365796875,143.748890625L47.64083333333333,144.335203125L47.666355208333336,144.2121328125L47.69471284722222,144.152671875L47.704638020833336,144.4859296875L47.71030954861111,143.975671875L47.79680034722222,143.765484375L47.80105399305556,144.0793828125L47.84500833333333,143.9272734375L47.869112326388894,143.63135156250002L47.89463420138889,143.649328125L47.90739513888889,144.1263984375L48.24343315972222,143.571890625L48.511412847222225,143.6009296875L48.587978472222225,143.599546875L48.61350034722222,143.9563125L48.637604340277775,143.77378125L48.670215625000004,144.43753125L48.678722916666665,143.5898671875L48.81625746527778,143.842921875L48.85312239583334,144.4057265625L48.907001909722226,143.472328125L48.94103107638889,143.605078125L49.04737222222222,144.1554375L49.07289409722222,143.831859375L49.08707291666666,143.925890625L49.11259479166667,143.68528125L49.122519965277775,143.1086484375L49.33803802083333,143.4709453125L49.34370954861111,143.1598125L49.3465453125,143.4875390625L49.45005069444444,142.74911718750002L49.50109444444444,143.455734375L49.556391840277776,143.605078125L49.56489913194444,143.2911796875L49.66556875,142.9828125L49.78467083333333,143.1556640625L49.794596006944445,142.797515625L49.839968229166665,142.993875L49.964741840277775,142.52371875L49.96615972222222,143.544234375L49.97183125,143.1045L50.10794791666667,143.1003515625L50.239810937499996,142.97175L50.27100434027778,143.2994765625L50.282347395833334,143.79590625L50.28660104166667,143.0671640625L50.317794444444445,143.444671875L50.33622690972222,142.626046875L50.34898784722222,143.2483125L50.41562829861112,143.4543515625L50.48794027777778,143.3243671875L50.51346215277778,142.775390625L50.53047673611111,142.272046875L50.5715953125,143.101734375L50.636817881944445,142.886015625L50.69495104166666,142.8348515625L50.75733784722222,143.002171875L50.77718819444444,143.1307734375L50.87218628472222,142.59424218750002L50.97002013888889,143.3368125L51.03382482638889,141.8668828125L51.06360034722222,142.5057421875L51.10188315972222,142.6163671875L51.1585984375,142.22503125L51.19262760416667,141.912515625L51.240835590277776,142.205671875L51.315983333333335,142.42069921875L51.327326388888885,142.8210234375L51.398220486111114,142.28310937499998L51.4903828125,142.10334375L51.50030798611111,142.742203125L51.565530555555554,142.7076328125L51.63784253472222,142.418625L51.6690359375,142.1489765625L51.75127309027778,142.061859375L51.79948107638889,141.6331875L51.832092361111116,142.5859453125L51.97246267361111,141.8655L51.98380572916667,142.5735L52.01499913194444,142.0881328125L52.03484947916667,141.801890625L52.077385937500004,142.2347109375L52.10148993055555,142.1821640625L52.122758159722224,141.57372656249998L52.18798072916666,142.3785234375L52.21775625,142.4974453125L52.234770833333336,141.718921875L52.268800000000006,141.9941015625L52.37372326388889,141.6110625L52.402080902777776,141.6262734375L52.42051336805555,142.061859375L52.43327430555556,142.543078125L52.436110069444446,142.01346093749999L52.45879618055556,142.24853906250002L52.533943923611105,142.7394375L52.58498767361111,141.951234375L52.637449305555556,141.923578125L52.69558246527778,142.42139062500002L52.767894444444444,142.3868203125L52.844460069444445,141.4658671875L52.872817708333336,141.15196875L52.92102569444444,141.14920312499999L52.99475555555556,141.2861015625L53.008934374999995,141.7617890625L53.09542517361111,142.0093125L53.14079739583333,141.69403125L53.17624444444444,141.5986171875L53.208855729166665,142.7546484375L53.325122048611114,141.4437421875L53.51228246527778,141.5073515625L53.51795399305555,141.9277265625L53.55340104166667,141.1284609375L53.56757986111111,141.3331171875L53.58175868055555,141.31790625L53.621459375,141.121546875L53.66399583333333,141.613828125L53.774590625,141.51703125L53.777426388888884,142.08675L53.926303993055555,141.613828125L54.01137690972222,141.02060156250002L54.03406302083333,141.1893046875L54.20562673611111,140.9791171875L54.22689496527778,141.082828125L54.31480364583333,140.73850781250002L54.327564583333334,140.45641406250002L54.358757986111115,140.557359375L54.365847395833335,140.9210390625L54.490621006944444,141.08421093750002L54.518978645833336,140.673515625L54.540246875,141.0814453125L54.58561909722222,140.336109375L54.602633680555556,141.13399218749998L54.65084166666667,141.1450546875L54.652259548611106,140.44396875L54.71039270833334,141.1118671875L54.75151128472223,139.81064062500002L54.76994375,140.8353046875L54.83658420138889,141.1505859375L54.85359878472222,140.42737499999998L54.90038888888889,140.894765625L54.931582291666665,139.882546875L54.96419357638889,140.972203125L55.01949097222222,140.1079453125L55.130085763888886,141.088359375L55.1910546875,140.0111484375L55.254859375,140.27803125L55.3186640625,139.9973203125L55.403736979166666,139.982109375L55.4207515625,139.4428125L55.45194496527778,140.5587421875L55.50866024305555,139.8922265625L55.5738828125,140.89753125L55.59798680555556,139.93785937500002L55.687313368055555,140.8767890625L55.78089357638889,139.46493750000002L55.81775850694444,140.7025546875L55.82201215277778,139.556203125L55.82484791666667,139.5133359375L55.8801453125,140.3568515625L55.90992083333333,140.7302109375L55.9567109375,139.213265625L55.98506857638889,139.63640625L55.994993750000006,139.6682109375L56.02476927083333,140.31121875L56.03753020833333,140.7799921875L56.09424548611111,139.860421875L56.11126006944444,140.6195859375L56.220436979166664,139.0376484375L56.275734375,139.45387499999998L56.52386371527778,139.9516875L56.62311545138889,139.4441953125L56.66706979166667,139.0653046875L56.66848767361111,140.1936796875L56.81452951388889,139.0708359375L56.83296197916667,139.6198125L56.841469270833336,139.7428828125L56.854230208333334,139.5686484375L56.858483854166664,139.1482734375L56.87266267361111,140.45779687499999L56.94213888888889,139.852125L57.08818072916667,139.90882031249998L57.11512048611112,138.765234375L57.15765694444444,139.827234375L57.19593975694445,139.38888281250001L57.21579010416667,140.5269375L57.22855104166667,139.90743750000001L57.24414774305556,139.82999999999998L57.29802725694445,139.0376484375L57.42563663194444,140.206125L57.492277083333335,139.473234375L57.51212743055556,139.32527343750002L57.52347048611111,139.8189375L57.64540833333333,139.3501640625L57.74607795138889,138.62003906249998L57.84391180555556,138.922875L57.86943368055555,138.864796875L57.92047743055556,139.6239609375L58.171442534722225,138.610359375L58.1771140625,139.008609375L58.27353003472222,138.93532031249998L58.30897708333334,138.6864140625L58.32599166666667,139.346015625L58.334498958333334,138.7361953125L58.36002083333333,138.8993671875L58.411064583333335,137.6963203125L58.45927256944445,138.9270234375L58.501809027777774,138.5453671875L58.51598784722222,139.75809375L58.64501510416667,138.7348125L58.6875515625,139.534078125L58.73717743055556,138.167859375L58.85911527777778,139.196671875L58.92291996527778,138.72375L58.930009375,138.3877265625L58.934263020833335,138.58546875L59.00232135416667,137.66036718750001L59.032096875,137.9894765625L59.03776840277778,137.5248515625L59.38373159722222,138.33103125L59.423432291666664,138.10425L59.44186475694445,138.2259375L59.44895416666667,138.1415859375L59.48156545138889,137.1514921875L59.55813107638889,137.670046875L59.76088819444445,138.4015546875L59.783574305555554,138.361453125L59.80058888888889,138.7500234375L59.81334982638889,137.92932421875L59.87290086805555,137.94246093750002L59.91969097222222,138.1443515625L59.96222743055556,138.36836718749998L59.9891671875,137.9839453125L60.03879305555556,138.170625L60.064314930555554,137.6437734375L60.25147534722222,137.91065625L60.294011805555556,138.8966015625L60.306772743055554,138.4015546875L60.31386215277777,137.5276171875L60.421621180555555,137.7571640625L60.621542534722224,138.0005390625L60.65982534722222,138.25359375L60.783181076388885,137.0906484375L60.85265729166667,136.3909453125L60.92922291666667,138.1388203125L60.95332690972222,136.8998203125L61.04265347222222,138.1720078125L61.048325,138.328265625L61.107876041666664,136.843125L61.180188020833334,137.681109375L61.188695312499995,137.266265625L61.37018420138889,137.6797265625L61.384363020833334,136.843125L61.388616666666664,136.81270312499998L61.40846701388889,138.250828125L61.415556423611115,137.23584375000002L61.421227951388886,137.4736875L61.433988888888884,137.5359140625L61.59846319444444,137.47921875L61.60413472222222,136.9523671875L61.61264201388889,136.46699999999998L61.63958177083333,137.0325703125L61.75726597222223,136.431046875L61.901889930555555,137.7461015625L62.00114166666667,137.57325L62.142929861111114,136.204265625L62.218077604166666,136.90535156250002L62.2861359375,136.6315546875L62.56545868055556,137.4363515625L62.63918854166667,136.1752265625L62.668964062499995,135.1989609375L62.69165017361111,135.8820703125L62.768215798611116,136.110234375L62.83627413194445,137.2261640625L62.85187083333333,136.9164140625L62.931272222222226,136.68824999999998L62.93552586805556,136.7214375L63.0007484375,137.0574609375L63.10850746527778,136.46146875L63.16522274305555,136.61634375L63.221938020833335,137.0298046875L63.25880295138889,136.2568125L63.27723541666667,136.3964765625L63.341040104166666,136.40615624999998L63.43603819444444,136.331484375L63.44312760416666,136.51539843749998L63.465813715277775,136.569328125L63.73095763888889,136.9883203125L63.980504861111115,136.3135078125L64.06415989583333,136.70484375L64.11236788194445,135.700921875L64.1237109375,135.723046875L64.17050104166667,136.13512500000002L64.1846798611111,135.518390625L64.29811041666667,135.822609375L64.31087135416666,136.7062265625L64.32930381944443,136.0134375L64.3534078125,136.541671875L64.36475086805555,135.7714453125L64.40870520833334,136.497421875L64.45691319444444,136.3107421875L64.47959930555555,135.7078359375L64.55900069444444,135.822609375L64.58452256944445,136.1586328125L64.59161197916667,136.5651796875L64.63981996527778,136.4490234375L64.64265572916668,135.47828906249998L64.68519218750001,135.0579140625L64.70929618055555,135.346921875L64.78444392361111,135.7036875L64.91914270833334,134.9514375L64.94608246527777,135.16300781249998L65.02264809027778,136.06875L65.19988333333333,135.44371875000002L65.41114774305555,134.8449609375L65.43525173611111,135.38840625L65.48771336805557,134.92516406250002L65.49338489583333,135.756234375L65.52174253472222,135.4533984375L65.54017499999999,136.2388359375L65.55151805555555,135.5142421875L65.58412934027777,135.5488125L65.64935190972223,135.936L65.65076979166666,134.4052265625L65.81382621527779,134.8421953125L65.86345208333333,134.7205078125L65.92583888888889,134.965265625L65.93151041666667,134.65828125000002L65.96128593750001,136.0134375L65.98397204861111,135.501796875L65.99531510416666,135.56540625L65.99673298611111,135.4616953125L66.06620920138889,136.06875L66.15695364583333,135.811546875L66.17113246527778,135.4589296875L66.19807222222222,134.8532578125L66.41642604166667,136.1503359375L66.52843871527779,135.0855703125L66.75955347222222,134.6624296875L66.82335815972222,134.7343359375L66.85880520833334,135.6940078125L66.88999861111111,134.981859375L66.9084310763889,136.13512500000002L67.11544184027778,134.7149765625L67.11685972222222,135.230765625L67.12820277777777,135.4561640625L67.20193263888889,135.5584921875L67.26431944444444,135.2127890625L67.28416979166667,134.417671875L67.34939236111111,135.117375L67.35364600694444,135.540515625L67.43446527777779,135.3455390625L67.505359375,134.489578125L67.55498524305555,133.9654921875L67.56207465277778,134.8850625L67.61170052083334,134.9279296875L67.64856545138889,134.37065625L67.97326041666666,135.0247265625L68.10937708333333,133.128890625L68.12355590277778,134.3305546875L68.18027118055556,134.3388515625L68.23415069444445,134.2434375L68.34758124999999,135.2874609375L68.39153559027778,135.286078125L68.40996805555555,135.1491796875L68.42556475694444,134.055375L68.43548993055556,134.567015625L68.46242968749999,134.600203125L68.47093697916667,134.9058046875L68.6666046875,135.42989062499998L68.7020517361111,134.20471874999998L68.71055902777778,134.605734375L68.7942140625,135.0136640625L68.8197359375,133.65159375000002L68.86652604166666,134.3167265625L68.91331614583333,134.5407421875L68.9317486111111,133.60734374999998L68.96010625,133.9295390625L68.99271753472222,134.52L69.00264270833333,133.745625L69.12032690972222,135.208640625L69.35002378472223,134.07196875L69.39397812499999,134.589140625L69.43651458333333,134.21854687500002L69.54994513888889,134.05053515625L69.58681006944444,134.583609375L69.74419496527779,133.654359375L69.77822413194444,133.8078515625L69.79098506944445,134.3471484375L69.87038645833333,133.74977343749998L70.12985885416667,134.002828125L70.13269461805555,134.130046875L70.2078423611111,134.3001328125L70.22485694444444,133.97240625L70.28157222222222,133.4759765625L70.29007951388888,133.7138203125L70.32127291666667,133.3293984375L70.3510484375,134.00559375L70.3765703125,133.5948984375L70.38933125,133.9129453125L70.40776371527778,133.9903828125L70.47723993055556,133.43310937500002L70.55238767361111,134.1507890625L70.56514861111111,133.4925703125L70.619028125,133.85901562499998L70.79768125,133.5368203125L70.81894947916668,134.185359375L70.96499131944445,132.68915625L71.13230138888889,132.7016015625L71.17909149305555,134.12728125L71.28401475694444,133.3805625L71.28826840277779,133.5202265625L71.41020625,133.06528125L71.46975729166667,135.109078125L71.57468055555556,133.85625L71.61438125000001,134.069203125L71.639903125,133.6004296875L71.68811111111111,133.2823828125L71.69803628472222,133.6889296875L71.76042309027777,133.2132421875L71.76467673611111,132.3061171875L71.7831092013889,133.16622656250001L71.79161649305556,133.44970312499998L71.9362404513889,133.1275078125L71.95750868055555,133.964109375L71.99579149305555,133.333546875L72.15459427083333,133.3349296875L72.17869826388889,132.813609375L72.32615798611111,133.1772890625L72.36018715277778,132.8122265625L72.42540972222223,132.8896640625L72.43533489583334,132.4775859375L72.49205017361112,133.3847109375L72.60689861111112,132.420890625L72.62391319444444,132.675328125L72.7912232638889,133.864546875L73.23076666666667,132.5577890625L73.24069184027778,132.3406875L73.2832282986111,133.4096015625L73.34845086805555,132.1706015625L73.35837604166666,133.0500703125L73.49449270833333,132.6269296875L73.53702916666667,132.061359375L73.61501267361112,133.3183359375L73.62351996527778,132.43471875L73.64478819444444,133.60596093750002L73.64620607638889,132.75691406250002L73.65754913194445,131.64098437500002L73.77239756944445,132.642140625L73.77948697916668,132.902109375L73.92836458333333,131.447390625L73.98933350694445,132.3918515625L74.00776597222222,132.4775859375L74.0261984375,132.4734375L74.32395364583334,132.2452734375L74.45439878472222,132.1871953125L74.55506840277778,132.08486718749998L74.5621578125,132.8786015625L74.75073611111111,132.4195078125L75.10520659722224,131.945203125L75.14348940972222,131.5151484375L75.30938159722223,132.19410937499998L75.51213871527777,132.27984375L75.5603467013889,131.7281015625L75.65109114583333,133.134421875L75.69504548611111,130.32316406249998L75.71347795138888,132.166453125L75.748925,132.155390625L75.80989392361111,132.1235859375L75.83966944444444,131.59396875L75.85810190972222,131.569078125L75.89354895833334,131.436328125L76.41674739583333,132.6241640625L76.49331302083334,131.403140625L76.63510121527777,132.36834375L76.65920520833333,131.5206796875L76.69607013888889,131.7142734375L76.9130060763889,132.0876328125L76.9328564236111,131.7944765625L77.29441631944444,131.8663828125L77.356803125,131.757140625L77.41351840277778,131.8221328125L77.4716515625,131.5220625L77.53970989583334,132.4499296875L77.54112777777777,132.232828125L77.54963506944445,131.7654375L77.62761857638888,131.1971015625L77.63187222222221,131.55525L77.70985572916666,131.9161640625L77.73395972222222,131.81591015625L77.75097430555556,131.4930234375L77.77649618055555,132.4582265625L77.84313663194443,131.3187890625L77.8445545138889,131.1888046875L77.87716579861112,131.07817968749998L78.12387725694445,132.039234375L78.1862640625,131.806921875L78.24014357638889,130.7711953125L78.5052875,131.8981875L78.61021076388889,131.7433125L78.69386579861111,132.19134375L78.9618454861111,131.198484375L79.24400399305556,130.816828125L79.35318090277778,130.449L79.42832864583333,131.29666406249999L79.54459496527778,130.993828125L79.72891961805554,130.252640625L80.26204322916666,130.877671875L80.51584409722223,131.53312499999998L80.56688784722222,129.8613046875L80.89725434027777,129.9691640625L81.0546392361111,129.8751328125L81.19359166666666,129.99267187499998L81.29567916666667,132.266015625L81.30985798611111,129.1781953125L81.6827609375,130.58175L81.68559670138889,131.5013203125L81.68985034722223,130.1185078125L81.90678628472222,130.1959453125L82.205959375,131.065734375L82.23857065972223,130.3978359375L86.54042447916667,131.06296875L89.03873246527777,130.072875L89.91214774305556,127.4662734375L90.08796510416666,127.65295312500001L90.24393211805555,127.44967968750001L91.48599670138888,128.13970312499998L91.59659149305556,126.0917578125L92.47000677083334,131.15699999999998L92.66142083333332,126.8910234375L92.85567065972224,130.4808046875L93.75886145833334,126.06686718750001L93.82266614583332,129.1698984375L94.30191024305556,127.5907265625L94.3189248263889,130.5305859375L94.64645555555555,127.26161718750001L94.7499609375,128.3899921875L94.9286140625,128.1410859375L95.26465208333335,127.24225781250001L95.44755885416667,128.76611718750002L95.45323038194444,125.540015625L95.48584166666666,127.1095078125L95.67300208333334,129.497625L96.17635017361111,125.8677421875L96.66977309027779,128.5130625L96.78603940972222,123.8115L97.20289670138888,124.7227734375L98.28615850694445,124.0977421875L98.51301961805555,126.3738515625L100.3548482638889,121.4150859375L100.42999600694445,123.559828125L100.66252864583333,122.93756250000001L100.86953940972222,126.355875L100.97020902777777,120.9891796875L101.13610121527779,120.8799375L101.73161163194445,119.450109375L101.75996927083334,121.2851015625L101.86205677083333,120.75410156250001L102.23212395833333,119.48053125000001L102.51002881944444,117.705L102.53129704861111,120.21065625L102.5341328125,121.9267265625L102.7921873263889,117.464390625L103.14098628472222,117.110390625L103.287028125,119.9327109375L103.62023038194445,116.6720390625L104.0555201388889,113.2813828125L105.10333489583333,115.1371171875L106.56800694444445,112.0396171875L107.32373802083333,112.62178125L108.84512534722222,105.6952734375L109.17974548611112,108.94073437499999L109.71995850694444,109.4924765625L110.46009288194445,103.127390625L112.01692725694444,107.86214062500001L114.80731892361112,104.26959375L120.70287204861111,100.76139843749999L121.76061197916667,103.08590625000001L122.7219359375,103.48000781249999L122.83820225694444,97.369359375L123.08633159722223,92.29167187499999L127.33430590277777,83.6836640625L129.11658350694447,73.79793749999999L132.64285590277777,96.0238828125L135.20780434027776,82.6935703125L135.81040416666667,91.1066015625L137.38850677083335,91.51453125L140.82545260416666,84.53132812499999L140.90201822916669,62.498976562500005L143.98023993055557,54.68193749999999L145.81781493055556,51.661874999999995L147.26263663194445,41.88124218750002L148.27784010416667,99.349546875L150.04877465277778,105.633046875L151.45105989583334,82.48476562500001L152.66902048611112,73.58774999999999L153.0064763888889,93.9330703125L156.66886545138888,71.709890625L158.41286024305555,87.38268749999999L159.7470871527778,54.582375L163.93125677083333,67.633359375L178.23059618055555,30.869906249999985L179.17206979166664,43.683046875L181.17837274305558,61.23370312499999L183.97727170138887,59.01290625L184.79538958333333,73.57115624999999L185.11583090277776,33.718500000000006L186.2359576388889,57.22078124999999L188.6988185763889,75.69100781249999L189.244703125,56.391093749999996L190.69661423611112,25.049648437499997L192.64478402777777,49.959632812500004L193.77341805555557,47.642039062500004L199.58956979166666,41.33088281249999L204.53655989583334,58.04355468749999L207.2404607638889,50.642742187500005L209.50481822916666,75.38125781250001L212.38311857638888,48.652874999999995L215.76193125,42.575414062500016L216.97563819444446,57.94814062500001L221.12861440972222,23.796820312500017L221.65039496527777,58.47637499999999L222.88962378472223,34.8842109375L225.94657725694444,32.801695312500016L228.77099809027777,56.8598671875L233.85552274305556,29.473265624999982L234.163203125,43.074609374999994L241.1590326388889,48.25047656250001L241.43835538194443,41.7512578125L243.65875850694445,26.894320312499985L244.0912125,20.865257812500005L245.68916545138887,53.58813281250001L246.0592326388889,21.183304687499998L246.06065052083332,49.58074218750001L246.06206840277778,35.19257812500001L246.06348628472222,39.36867187499999L246.06490416666665,29.0390625L246.06773993055558,13.861312499999997L246.06915781249998,19.214179687500007L246.07057569444444,68.4658125L246.0719935763889,-3.1071796875000075L246.0734114583333,17.536828125L246.07482934027777,28.207992187499997L246.07624722222224,21.498585937499996L246.0790829861111,36.087257812499985L246.08050086805557,49.206L246.08191875,10.971234374999995L246.08333663194443,5.683359375000009L246.0847545138889,32.86807031250001L246.08617239583336,74.630390625L246.0904260416667,58.585617187500006L246.09326180555556,54.20901562499999L246.09467968750002,8.324531250000007L246.09609756944442,47.5175859375L246.0975154513889,49.16728125L246.09893333333335,60.7040859375L246.10035121527778,41.59914843749999L246.10176909722222,58.74187500000001L246.10318697916668,61.764703125L246.1046048611111,46.808203125000006L246.10602274305555,57.43926562499999L246.11027638888888,9.414187499999997L246.11169427083334,47.070937500000014L246.11594791666667,58.28554687500001L246.1173657986111,31.116046874999995L246.11878368055557,32.952421875L246.1202015625,57.8278359375L246.12161944444443,49.974843750000005L246.1230373263889,41.863265625L246.12587309027776,47.03636718749999L246.12729097222223,47.401429687499984L246.1287088541667,14.805773437499994L246.1301267361111,33.10176562500001L246.13154461805556,51.61624218749999L246.13296250000002,60.73174218749999" style="fill: none;" fill="none"></path></g></g></g></g></g></g><g transform="translate(74, 177)" clip-path="url(#clip_1)"><clipPath id="clip_1"><rect width="255" height="23"></rect></clipPath><g><g><line x1="0" y1="0" x2="0" y2="5" style="visibility: inherit;" fill="rgb(0, 0, 0)" stroke="rgb(204, 204, 204)" stroke-width="1px"></line><line x1="28.357638888888886" y1="0" x2="28.357638888888886" y2="5" style="visibility: inherit;" fill="rgb(0, 0, 0)" stroke="rgb(204, 204, 204)" stroke-width="1px"></line><line x1="56.71527777777777" y1="0" x2="56.71527777777777" y2="5" style="visibility: inherit;" fill="rgb(0, 0, 0)" stroke="rgb(204, 204, 204)" stroke-width="1px"></line><line x1="85.07291666666666" y1="0" x2="85.07291666666666" y2="5" style="visibility: inherit;" fill="rgb(0, 0, 0)" stroke="rgb(204, 204, 204)" stroke-width="1px"></line><line x1="113.43055555555554" y1="0" x2="113.43055555555554" y2="5" style="visibility: inherit;" fill="rgb(0, 0, 0)" stroke="rgb(204, 204, 204)" stroke-width="1px"></line><line x1="141.78819444444446" y1="0" x2="141.78819444444446" y2="5" style="visibility: inherit;" fill="rgb(0, 0, 0)" stroke="rgb(204, 204, 204)" stroke-width="1px"></line><line x1="170.14583333333331" y1="0" x2="170.14583333333331" y2="5" style="visibility: inherit;" fill="rgb(0, 0, 0)" stroke="rgb(204, 204, 204)" stroke-width="1px"></line><line x1="198.50347222222223" y1="0" x2="198.50347222222223" y2="5" style="visibility: inherit;" fill="rgb(0, 0, 0)" stroke="rgb(204, 204, 204)" stroke-width="1px"></line><line x1="226.8611111111111" y1="0" x2="226.8611111111111" y2="5" style="visibility: inherit;" fill="rgb(0, 0, 0)" stroke="rgb(204, 204, 204)" stroke-width="1px"></line><line x1="255.21875" y1="0" x2="255.21875" y2="5" style="visibility: inherit;" fill="rgb(0, 0, 0)" stroke="rgb(204, 204, 204)" stroke-width="1px"></line></g><g transform="translate(0, 8)"><text x="0" y="0" dx="0em" dy="0.95em" style="text-anchor: middle; visibility: hidden; font-family: &quot;Helvetica Neue&quot;, sans-serif; font-size: 12px; font-weight: 200;" fill="rgb(50, 49, 63)" stroke="none" stroke-width="1px">-20k</text><text x="28.357638888888886" y="0" dx="0em" dy="0.95em" style="text-anchor: middle; visibility: inherit; font-family: &quot;Helvetica Neue&quot;, sans-serif; font-size: 12px; font-weight: 200;" fill="rgb(50, 49, 63)" stroke="none" stroke-width="1px">0</text><text x="56.71527777777777" y="0" dx="0em" dy="0.95em" style="text-anchor: middle; visibility: hidden; font-family: &quot;Helvetica Neue&quot;, sans-serif; font-size: 12px; font-weight: 200;" fill="rgb(50, 49, 63)" stroke="none" stroke-width="1px">20k</text><text x="85.07291666666666" y="0" dx="0em" dy="0.95em" style="text-anchor: middle; visibility: inherit; font-family: &quot;Helvetica Neue&quot;, sans-serif; font-size: 12px; font-weight: 200;" fill="rgb(50, 49, 63)" stroke="none" stroke-width="1px">40k</text><text x="113.43055555555554" y="0" dx="0em" dy="0.95em" style="text-anchor: middle; visibility: hidden; font-family: &quot;Helvetica Neue&quot;, sans-serif; font-size: 12px; font-weight: 200;" fill="rgb(50, 49, 63)" stroke="none" stroke-width="1px">60k</text><text x="141.78819444444446" y="0" dx="0em" dy="0.95em" style="text-anchor: middle; visibility: inherit; font-family: &quot;Helvetica Neue&quot;, sans-serif; font-size: 12px; font-weight: 200;" fill="rgb(50, 49, 63)" stroke="none" stroke-width="1px">80k</text><text x="170.14583333333331" y="0" dx="0em" dy="0.95em" style="text-anchor: middle; visibility: hidden; font-family: &quot;Helvetica Neue&quot;, sans-serif; font-size: 12px; font-weight: 200;" fill="rgb(50, 49, 63)" stroke="none" stroke-width="1px">100k</text><text x="198.50347222222223" y="0" dx="0em" dy="0.95em" style="text-anchor: middle; visibility: inherit; font-family: &quot;Helvetica Neue&quot;, sans-serif; font-size: 12px; font-weight: 200;" fill="rgb(50, 49, 63)" stroke="none" stroke-width="1px">120k</text><text x="226.8611111111111" y="0" dx="0em" dy="0.95em" style="text-anchor: middle; visibility: hidden; font-family: &quot;Helvetica Neue&quot;, sans-serif; font-size: 12px; font-weight: 200;" fill="rgb(50, 49, 63)" stroke="none" stroke-width="1px">140k</text><text x="255.21875" y="0" dx="0em" dy="0.95em" style="text-anchor: middle; visibility: hidden; font-family: &quot;Helvetica Neue&quot;, sans-serif; font-size: 12px; font-weight: 200;" fill="rgb(50, 49, 63)" stroke="none" stroke-width="1px">160k</text></g><line x1="0" y1="0" x2="255.21875" y2="0" fill="rgb(0, 0, 0)" stroke="rgb(204, 204, 204)" stroke-width="1px"></line></g></g></g></g></svg>