<svg viewBox="0 0 330 200" xmlns="http://www.w3.org/2000/svg"><g><g><g><g><g><line x1="74.78125" y1="177" x2="69.78125" y2="177" style="visibility: inherit;" fill="rgb(0, 0, 0)" stroke="rgb(204, 204, 204)" stroke-width="1px"></line><line x1="74.78125" y1="157.33333333333334" x2="69.78125" y2="157.33333333333334" style="visibility: inherit;" fill="rgb(0, 0, 0)" stroke="rgb(204, 204, 204)" stroke-width="1px"></line><line x1="74.78125" y1="137.66666666666669" x2="69.78125" y2="137.66666666666669" style="visibility: inherit;" fill="rgb(0, 0, 0)" stroke="rgb(204, 204, 204)" stroke-width="1px"></line><line x1="74.78125" y1="118" x2="69.78125" y2="118" style="visibility: inherit;" fill="rgb(0, 0, 0)" stroke="rgb(204, 204, 204)" stroke-width="1px"></line><line x1="74.78125" y1="98.33333333333334" x2="69.78125" y2="98.33333333333334" style="visibility: inherit;" fill="rgb(0, 0, 0)" stroke="rgb(204, 204, 204)" stroke-width="1px"></line><line x1="74.78125" y1="78.66666666666666" x2="69.78125" y2="78.66666666666666" style="visibility: inherit;" fill="rgb(0, 0, 0)" stroke="rgb(204, 204, 204)" stroke-width="1px"></line><line x1="74.78125" y1="59" x2="69.78125" y2="59" style="visibility: inherit;" fill="rgb(0, 0, 0)" stroke="rgb(204, 204, 204)" stroke-width="1px"></line><line x1="74.78125" y1="39.33333333333334" x2="69.78125" y2="39.33333333333334" style="visibility: inherit;" fill="rgb(0, 0, 0)" stroke="rgb(204, 204, 204)" stroke-width="1px"></line><line x1="74.78125" y1="19.666666666666686" x2="69.78125" y2="19.666666666666686" style="visibility: inherit;" fill="rgb(0, 0, 0)" stroke="rgb(204, 204, 204)" stroke-width="1px"></line><line x1="74.78125" y1="0" x2="69.78125" y2="0" style="visibility: inherit;" fill="rgb(0, 0, 0)" stroke="rgb(204, 204, 204)" stroke-width="1px"></line></g><g transform="translate(64.78125, 0)"><text x="0" y="177" dx="0em" dy="0.3em" style="text-anchor: end; visibility: hidden; font-family: &quot;Helvetica Neue&quot;, sans-serif; font-size: 12px; font-weight: 200;" fill="rgb(50, 49, 63)" stroke="none" stroke-width="1px">-2e+3</text><text x="0" y="157.33333333333334" dx="0em" dy="0.3em" style="text-anchor: end; visibility: inherit; font-family: &quot;Helvetica Neue&quot;, sans-serif; font-size: 12px; font-weight: 200;" fill="rgb(50, 49, 63)" stroke="none" stroke-width="1px">0</text><text x="0" y="137.66666666666669" dx="0em" dy="0.3em" style="text-anchor: end; visibility: hidden; font-family: &quot;Helvetica Neue&quot;, sans-serif; font-size: 12px; font-weight: 200;" fill="rgb(50, 49, 63)" stroke="none" stroke-width="1px">2e+3</text><text x="0" y="118" dx="0em" dy="0.3em" style="text-anchor: end; visibility: inherit; font-family: &quot;Helvetica Neue&quot;, sans-serif; font-size: 12px; font-weight: 200;" fill="rgb(50, 49, 63)" stroke="none" stroke-width="1px">4e+3</text><text x="0" y="98.33333333333334" dx="0em" dy="0.3em" style="text-anchor: end; visibility: hidden; font-family: &quot;Helvetica Neue&quot;, sans-serif; font-size: 12px; font-weight: 200;" fill="rgb(50, 49, 63)" stroke="none" stroke-width="1px">6e+3</text><text x="0" y="78.66666666666666" dx="0em" dy="0.3em" style="text-anchor: end; visibility: inherit; font-family: &quot;Helvetica Neue&quot;, sans-serif; font-size: 12px; font-weight: 200;" fill="rgb(50, 49, 63)" stroke="none" stroke-width="1px">8e+3</text><text x="0" y="59" dx="0em" dy="0.3em" style="text-anchor: end; visibility: hidden; font-family: &quot;Helvetica Neue&quot;, sans-serif; font-size: 12px; font-weight: 200;" fill="rgb(50, 49, 63)" stroke="none" stroke-width="1px">1e+4</text><text x="0" y="39.33333333333334" dx="0em" dy="0.3em" style="text-anchor: end; visibility: inherit; font-family: &quot;Helvetica Neue&quot;, sans-serif; font-size: 12px; font-weight: 200;" fill="rgb(50, 49, 63)" stroke="none" stroke-width="1px">1.2e+4</text><text x="0" y="19.666666666666686" dx="0em" dy="0.3em" style="text-anchor: end; visibility: hidden; font-family: &quot;Helvetica Neue&quot;, sans-serif; font-size: 12px; font-weight: 200;" fill="rgb(50, 49, 63)" stroke="none" stroke-width="1px">1.4e+4</text><text x="0" y="0" dx="0em" dy="0.3em" style="text-anchor: end; visibility: hidden; font-family: &quot;Helvetica Neue&quot;, sans-serif; font-size: 12px; font-weight: 200;" fill="rgb(50, 49, 63)" stroke="none" stroke-width="1px">1.6e+4</text></g><line x1="74.78125" y1="0" x2="74.78125" y2="177" fill="rgb(0, 0, 0)" stroke="rgb(204, 204, 204)" stroke-width="1px"></line></g></g><g transform="translate(74, 0)" clip-path="url(#clip_0)"><clipPath id="clip_0"><rect width="255" height="177"></rect></clipPath><g><g><g><line x1="0" y1="0" x2="0" y2="177" fill="rgb(0, 0, 0)" stroke="rgb(60, 60, 60)" stroke-width="1px" opacity="0.25"></line><line x1="28.357638888888886" y1="0" x2="28.357638888888886" y2="177" fill="rgb(0, 0, 0)" stroke="rgb(60, 60, 60)" stroke-width="1px" opacity="0.25"></line><line x1="56.71527777777777" y1="0" x2="56.71527777777777" y2="177" fill="rgb(0, 0, 0)" stroke="rgb(60, 60, 60)" stroke-width="1px" opacity="0.25"></line><line x1="85.07291666666666" y1="0" x2="85.07291666666666" y2="177" fill="rgb(0, 0, 0)" stroke="rgb(60, 60, 60)" stroke-width="1px" opacity="0.25"></line><line x1="113.43055555555554" y1="0" x2="113.43055555555554" y2="177" fill="rgb(0, 0, 0)" stroke="rgb(60, 60, 60)" stroke-width="1px" opacity="0.25"></line><line x1="141.78819444444446" y1="0" x2="141.78819444444446" y2="177" fill="rgb(0, 0, 0)" stroke="rgb(60, 60, 60)" stroke-width="1px" opacity="0.25"></line><line x1="170.14583333333331" y1="0" x2="170.14583333333331" y2="177" fill="rgb(0, 0, 0)" stroke="rgb(60, 60, 60)" stroke-width="1px" opacity="0.25"></line><line x1="198.50347222222223" y1="0" x2="198.50347222222223" y2="177" fill="rgb(0, 0, 0)" stroke="rgb(60, 60, 60)" stroke-width="1px" opacity="0.25"></line><line x1="226.8611111111111" y1="0" x2="226.8611111111111" y2="177" fill="rgb(0, 0, 0)" stroke="rgb(60, 60, 60)" stroke-width="1px" opacity="0.25"></line><line x1="255.21875" y1="0" x2="255.21875" y2="177" fill="rgb(0, 0, 0)" stroke="rgb(60, 60, 60)" stroke-width="1px" opacity="0.25"></line></g><g><line x1="0" y1="177" x2="255.21875" y2="177" fill="rgb(0, 0, 0)" stroke="rgb(60, 60, 60)" stroke-width="1px" opacity="0.25"></line><line x1="0" y1="157.33333333333334" x2="255.21875" y2="157.33333333333334" fill="rgb(0, 0, 0)" stroke="rgb(60, 60, 60)" stroke-width="1px" opacity="0.25"></line><line x1="0" y1="137.66666666666669" x2="255.21875" y2="137.66666666666669" fill="rgb(0, 0, 0)" stroke="rgb(60, 60, 60)" stroke-width="1px" opacity="0.25"></line><line x1="0" y1="118" x2="255.21875" y2="118" fill="rgb(0, 0, 0)" stroke="rgb(60, 60, 60)" stroke-width="1px" opacity="0.25"></line><line x1="0" y1="98.33333333333334" x2="255.21875" y2="98.33333333333334" fill="rgb(0, 0, 0)" stroke="rgb(60, 60, 60)" stroke-width="1px" opacity="0.25"></line><line x1="0" y1="78.66666666666666" x2="255.21875" y2="78.66666666666666" fill="rgb(0, 0, 0)" stroke="rgb(60, 60, 60)" stroke-width="1px" opacity="0.25"></line><line x1="0" y1="59" x2="255.21875" y2="59" fill="rgb(0, 0, 0)" stroke="rgb(60, 60, 60)" stroke-width="1px" opacity="0.25"></line><line x1="0" y1="39.33333333333334" x2="255.21875" y2="39.33333333333334" fill="rgb(0, 0, 0)" stroke="rgb(60, 60, 60)" stroke-width="1px" opacity="0.25"></line><line x1="0" y1="19.666666666666686" x2="255.21875" y2="19.666666666666686" fill="rgb(0, 0, 0)" stroke="rgb(60, 60, 60)" stroke-width="1px" opacity="0.25"></line><line x1="0" y1="0" x2="255.21875" y2="0" fill="rgb(0, 0, 0)" stroke="rgb(60, 60, 60)" stroke-width="1px" opacity="0.25"></line></g></g></g><g><g><line x1="0" y1="157.33333333333334" x2="255.21875" y2="157.33333333333334" fill="rgb(0, 0, 0)" stroke="rgb(153, 153, 153)" stroke-width="1.5px"></line></g></g><g><g><line x1="28.357638888888886" y1="0" x2="28.357638888888886" y2="177" fill="rgb(0, 0, 0)" stroke="rgb(153, 153, 153)" stroke-width="1.5px"></line></g></g><g><g><g><g><g><path stroke="rgb(255, 112, 67)" stroke-width="2px" d="M28.47815885416667,156.4745555305481L28.885090972222223,156.0079034969263L28.955985069444445,155.76107948207033L29.185681944444443,155.67319773871364L29.524555729166668,155.46327464231868L29.603957118055554,155.48331755210836L29.694701562499997,155.46213595435506L29.71029826388889,155.42379119911192L29.715969791666666,155.45278444584682L29.76417777777778,155.48013699566576L29.951338194444446,155.4376269402782L29.95700972222222,155.4337333240135L29.964099131944444,155.42062068461036L29.98111371527778,155.38334323029252L30.2179,155.33325964019969L30.47311875,155.21967853468783L30.477372395833335,155.10381499081745L30.51423732638889,154.99915721230565L30.538341319444445,154.90095499424743L30.811992534722222,154.6986018232466L31.153702083333336,154.40027624056634L31.3281015625,154.18161092592553L31.648542881944444,153.94614295256218L31.788913194444444,153.834701901011L31.876821875,153.66471595397886L32.07390746527778,153.52274882976292L32.34472291666667,153.3831257338108L32.683596701388886,153.28568222759662L32.78426631944444,153.24575964131026L32.79419149305556,153.2085979326385L33.134483159722215,153.17354669645735L33.171348090277775,153.10025888854233L33.23231701388889,153.10708993386976L33.51872916666667,153.0898064888089L33.722904166666666,153.05417347347645L33.77961944444444,153.09143941822146L33.78387309027778,153.12669786105812L33.91431822916667,153.15203203980474L34.129836284722224,153.09507572231132L34.158193923611115,153.04680254658726L34.23475954861111,152.93310986148572L34.47863524305555,152.74150488180894L34.485724652777776,152.55645417345426L34.531096875,152.41511517092567L34.70266059027777,152.1406140682092L34.7735546875,151.84074925648474L34.83594149305556,151.53016087117248L34.913925,151.12147150551172L34.98623697916667,150.78938099960956L35.014594618055554,150.4680053518027L35.27406701388889,150.0228692650943L35.6668203125,149.42823542183288L35.689506423611114,148.8947721871296L35.690924305555555,148.39592065588283L35.91211388888889,147.85049162858914L36.39135798611111,147.3019922490567L36.63523368055556,146.71498143879822L36.75291788194444,146.19926624799282L36.88903454861111,145.6891544274206L37.02089756944444,145.28381266468924L37.4661125,144.83665612446936L37.732674305555555,144.43681476159404L37.847522743055556,144.10722234594397L37.972296354166666,143.79221204171984L38.04319045138889,143.50508199241605L38.138188541666665,143.25348977135775L38.26296215277778,143.06247140475142L38.52810607638889,142.85706537161565L38.55788159722222,142.67776525596295L38.74645989583333,142.47398604664477L39.36182065972222,142.28384480069613L39.5461453125,142.11335295777513L39.57592083333333,141.99927805533054L39.75882760416667,141.91383595802841L39.777260069444445,141.81481155767105L39.9544953125,141.7103268595823L39.981435069444444,141.6261335250003L40.065090104166664,141.54790532266395L40.16575972222223,141.50086378775774L40.39829236111111,141.45914329411795L40.422396354166665,141.39946723077782L40.71164427083333,141.335925929822L40.72582309027778,141.27505280837158L40.80097083333333,141.18553990498793L40.91581927083333,141.12925990397463L41.291557986111115,141.11487390993918L41.63752118055556,140.96178718871147L42.20609184027778,140.7336599320262L42.335119097222226,140.60026181447375L42.52369739583333,140.37756241837698L42.83704930555555,140.06035734574886L42.983091145833335,139.79393017164435L43.056821006944446,139.5200375693235L43.40136631944444,139.20377842243892L43.69345,138.80052827454543L43.70904670138889,138.42285599082786L44.432166493055554,137.92561477456772L44.72283229166666,137.45044396538083L45.0205875,137.03754363305336L45.03618420138889,136.6161530770254L45.122675,136.24059129142108L45.384983159722225,135.91119174200227L45.77206493055556,135.61473349407063L45.784825868055556,135.3639016067662L45.81034774305556,135.1596644927856L46.02586579861111,134.9328302582233L46.21019045138889,134.72130496180063L46.60010798611111,134.54814123569918L46.71637430555556,134.38000246524234L46.834058506944444,134.1985630383373L47.21405086805555,134.10471636893493L47.24949791666667,134.0104211079978L47.69896649305556,133.90220118321233L47.77978576388889,133.77899073288228L47.86060503472222,133.68715365735943L47.94709583333333,133.56701061696043L48.07328732638889,133.44167358339317L48.56954600694445,133.40876651052912L48.87155486111111,133.30970200402768L48.918344965277775,133.2592628907446L49.01901458333333,133.2224719114104L49.35079895833333,133.1555578785764L49.65847934027778,133.06522062805396L49.71094097222222,133.00911511304403L49.84563975694445,132.96538060167836L49.85981857638889,132.900821597384L50.09660486111112,132.81813514326655L50.24690034722222,132.74556111138918L50.3418984375,132.70298411364988L50.72898020833333,132.65606064945052L50.85942534722222,132.59293368720108L50.94024461805555,132.53673401722494L51.01964600694445,132.5617481360348L51.25076076388889,132.5234170441143L51.38262378472222,132.50674199528277L51.42516024305556,132.44564067585898L51.6435140625,132.47423287367135L51.69030416666667,132.4692366672159L51.73851215277778,132.47764633749614L51.846271180555554,132.46616294923814L52.03201371527778,132.46381748681893L52.036267361111115,132.4358940625905L52.23193506944445,132.4021588133429L52.27447152777778,132.34659916769726L52.51409357638889,132.34268925002112L52.63035989583333,132.32011823697633L52.86714618055555,132.32807516477286L52.97206944444444,132.29405930921348L53.22728819444444,132.26897629114364L53.43855260416667,132.26545366154704L53.47258177083333,132.23216870795824L54.03689878472222,132.22556641976368L54.25525260416667,132.215322276765L54.38569774305556,132.17414421205677L54.43674149305556,132.15552145601245L54.44666666666667,132.1215526412733L54.49203888888889,132.14076196173704L54.49487465277778,132.11257118056878L54.648005902777776,132.0693765602211L54.81389809027778,132.05508473685018L54.927328645833335,132.0471387628238L55.14710034722222,132.09161238826087L55.23359114583334,132.10951365005766L55.444855555555556,132.10104145145326L55.612165625,132.09218730605838L55.622090798611104,132.07899461678457L55.732685590277775,132.1015378639541L55.77663993055556,132.14302991174455L55.86880225694444,132.15148733739315L56.01909774305555,132.162171937165L56.129692534722224,132.18100682706392L56.14387135416667,132.19427072786968L56.40617951388889,132.17978115490692L56.42602986111111,132.19193845621564L56.74647118055556,132.19243211059893L56.83579774305556,132.1725951493636L57.07258402777778,132.31699188557667L57.2072828125,132.31235519698578L57.2710875,132.2239842600507L57.35616041666667,132.2446275008321L57.59720034722223,132.33818558457085L57.76451041666667,132.3560128595309L57.90346284722222,132.33886990683862L57.94599930555555,132.30930583270887L57.974356944444445,132.27901066600083L58.014057638888886,132.24559918263105L58.286290972222226,132.24933093104497L58.46352621527778,132.22503325454645L58.58971770833333,132.2689257625238L58.64217934027778,132.2174706861673L58.852025868055556,132.25658820095515L58.983888888888885,132.29056479758196L58.98814253472222,132.31499790119318L59.16537777777778,132.24664394431645L59.19373541666666,132.2502712165558L59.20366059027778,132.34265034499956L59.30716597222222,132.2936561437855L59.37947795138889,132.3786238628143L59.773649131944445,132.53253230998683L59.779320659722224,132.5711801206821L60.0146890625,132.52821835858663L60.08132951388889,132.47726110603216L60.17774548611111,132.37915999537847L60.20752100694445,132.35171274582794L60.223117708333334,132.32701022123484L60.63288559027777,132.30908003243798L60.84982152777778,132.33965119587117L60.87250763888889,132.34749857628643L61.03839982638889,132.2906445519756L61.061085937499996,132.29909051344674L61.19153107638889,132.28641062876594L61.24115694444445,132.21661331587543L61.26242517361111,132.19189990095012L61.34891597222222,132.1450744941809L61.4439140625,132.13980662809536L61.52331545138889,132.09081554861277L61.700550694444445,132.13706732709028L61.91606875,132.1264543443801L61.941590624999996,132.0775693266041L61.97703767361111,132.0212811439389L62.11882586805555,131.92575719620427L62.379716145833335,131.83917105991117L62.40382013888889,131.72989978724655L62.583891145833334,131.6118889751819L62.69306805555556,131.41041882765353L62.914257638888884,131.08712694487343L63.10850746527778,130.72057050037102L63.187908854166665,130.40726345032238L63.343875868055555,130.2205475219506L63.504096527777776,129.8662844364116L63.56506545138889,129.62304140943056L63.89117829861111,129.31623726848008L63.996101562499994,129.26628020829764L65.16443628472221,128.38671468745062L65.2339125,127.61661613535863L65.36435763888889,126.58612118847306L65.64509826388888,126.1349778196193L65.75285729166666,125.31594878764682L65.93576406250001,124.41227057553832L66.17538611111111,123.28736643463944L66.31008489583333,122.6246506245026L66.40366510416666,121.69694597871117L66.57664670138888,120.99230346416803L66.66030173611112,120.07848978441163L67.05163715277779,119.37282830596612L67.33095989583333,119.14950380870161L67.81020399305555,118.9300742611637L67.84281527777779,118.69202516837959L67.84848680555555,118.54415598487437L67.89102326388888,118.27402163638595L68.28094079861111,117.69165072274544L68.45675815972223,117.00096481713553L68.61556093749999,116.14764958541971L68.69496232638889,115.27211379354233L68.81264652777777,114.2524336641859L68.83391475694444,113.64631529776615L69.38547083333333,112.40510043465405L69.45920069444443,111.63770497452077L69.62792864583334,110.55002822706716L70.13127673611112,108.98726498769179L70.32410868055555,107.43819473892084L70.93521579861111,106.12423464002741L70.9862595486111,105.01142575935697L71.16349479166666,103.88206443342034L71.22871736111111,103.33886840674455L71.3719234375,102.36262739940277L71.53072621527777,101.70710424279542L71.60020243055556,100.98069590184882L71.83415295138889,100.44369922833033L72.19854861111112,100.24679805549722L72.25526388888889,99.9448265832807L72.51757204861111,99.77507309161925L72.55301909722223,99.31623244912383L72.62533107638889,99.72005712087824L72.78129809027777,99.45723890879034L72.915996875,99.70683793457802L72.93017569444444,99.21610205778678L73.08614270833333,99.11737726867474L73.20382690972222,98.95416037514057L73.27755677083334,98.90744225429317L73.85179895833333,98.59989594553048L74.14671840277778,98.65743760097745L74.20343368055556,98.20219384087964L74.34947552083334,98.01249529012499L74.45156302083333,98.12631867777917L74.57633663194444,97.8673847266679L74.81170503472222,97.48192750400108L74.98043298611111,97.16513058693428L74.99744756944445,97.24015919490753L75.17751857638889,97.30522660875012L75.68653819444445,97.28266228120843L75.79713298611112,97.14742730308758L75.95735364583332,97.55671582277883L76.10055972222221,97.55632549050094L76.33025659722222,97.50434919145086L76.3997328125,97.54852885563909L76.50890972222221,97.38179055340852L76.87330538194445,97.57712191473435L77.47874097222223,97.58821180659424L77.6602298611111,97.69283854260149L77.96365659722223,97.663471355008L78.04022222222221,97.66838463617387L78.15932430555556,98.01328575588981L78.27559062499999,98.10736343030084L78.54498819444444,98.15761667060409L78.70379097222221,98.53717792021034L78.88669774305556,98.19659554485597L79.18019930555555,98.0904255737037L79.24400399305556,97.96783093300002L79.26101857638889,97.78743325636667L79.79556006944445,97.64412743073L80.06779340277778,97.60242302099032L80.34286250000001,97.49544113555795L80.36554861111111,97.33462618866882L80.46196458333333,97.31895523646861L80.98799878472222,97.09650762948843L81.17799496527778,96.80165894987292L81.26165,97.00645138821895L81.62462777777777,96.92526458273039L81.75790868055556,96.92471729112401L82.13648315972222,97.00596431201163L82.31655416666666,97.0600345474771L83.20840190972223,97.4430310927294L83.56287239583334,97.44970715012312L83.65645260416666,97.37889268511083L83.77980833333334,97.01462841659973L83.85920972222223,96.64008224160641L83.86062760416667,96.39333443411245L83.89323888888889,96.37468849070119L85.0162013888889,96.60005297496441L85.21328697916665,96.53553726080129L85.34940364583332,96.59178561805449L85.8144689236111,96.66453413958237L85.87118420138889,96.44484114229081L86.09946319444445,96.54641952806172L86.16893940972223,96.82405882525555L86.24692291666666,96.89140294273001L86.33199583333334,97.04358556512368L86.73042065972223,97.44666450861129L86.80273263888888,97.27966472441683L86.88496979166666,97.31373991864182L87.29331979166668,96.69786592677762L87.89166597222223,97.18468350076654L88.01502170138889,97.34256931735653L88.35247760416667,97.27816655228756L88.46874392361111,97.10712073039213L88.47866909722221,97.12649199068625L88.53113072916666,98.12818133328429L88.90119791666666,98.36564444995585L89.01462847222223,98.68998625496026L89.09119409722221,98.91920637946424L89.26842934027778,98.66149407485113L89.59596006944444,98.47134466736601L89.69662968749999,98.49073103396275L89.9036404513889,98.18921001389981L89.91072986111111,98.16121609584316L90.1305015625,98.10959448625884L90.18579895833334,98.13995795429962L90.41691371527777,97.66394132553633L90.85362135416666,97.37933885964935L91.23361371527778,96.72371747368442L91.3271939236111,96.65298114298265L91.67032135416667,96.1037976120177L91.87591423611111,95.9254282674826L91.8915109375,95.67946877406767L91.96665868055557,95.53800106332756L92.13822239583332,95.23921137366149L92.50828958333334,94.72999856962866L92.76634409722223,94.52798829599914L93.15342586805556,94.57726238306587L93.30088559027779,94.52020281142596L93.39871944444444,94.40001586361669L93.54617916666666,94.02511844392168L93.67237065972222,93.63424201619617L94.02825902777778,93.21423448124324L94.20265850694445,92.96897769978555L94.39407256944445,92.57923617980701L94.51175677083334,92.13197922849298L94.71734965277778,91.51956776397701L94.72302118055555,91.40997557091265L94.77831857638888,90.84856134715471L94.78682586805556,90.59711146243923L95.273159375,90.24727531619531L95.87434131944445,89.88325611790911L96.32522777777777,89.40629508945153L96.51664184027779,89.30521766383971L96.8271579861111,89.01512298078906L97.24543315972223,88.89293359937682L97.29505902777778,88.76882773943915L97.570128125,88.90911163216188L97.80124288194445,89.14169005227903L97.96146354166667,89.16786479705114L97.97422447916666,89.053140817346L98.10041597222222,88.9972121522781L98.1060875,89.02984510371695L98.33294861111112,89.00328767667858L99.26166128472222,88.86200057567738L99.27300434027778,88.30647760144298L99.42897135416666,88.464725674632L99.72956232638889,88.1474406071688L99.86000746527779,87.92887362978524L100.04291423611112,87.96631960014005L100.19179184027777,87.6202084734594L100.19462760416667,87.74936470944677L100.40730989583334,87.71933448850211L100.52499409722222,87.47597395631855L100.5689484375,87.35897031068669L100.72775121527778,87.15779202961804L100.96170173611111,87.02958574332288L100.97871631944444,86.98733550232393L101.80959513888888,86.95883632709152L101.86772829861111,86.91690061104904L102.42495590277778,86.52946054994415L102.44197048611112,86.3184311616164L102.980765625,86.57653596212143L103.50679982638889,86.53196049090928L103.56776875,86.38705610848501L103.69396024305556,86.64260049763652L103.8641060763889,86.56837169787286L103.925075,86.51385744475222L104.25118784722223,86.46540920027702L104.41991579861111,86.44208703024931L104.5503609375,86.42908666055772L104.73043194444443,86.50404257783529L104.77296840277778,86.53094040338507L104.78998298611111,86.5072109463799L105.31601718750001,87.2338023517419L105.70309895833334,86.85707836656773L105.74847118055555,86.57272469657761L105.86899114583333,86.30390014358652L106.30428090277778,86.13447887922786L106.3780107638889,85.9402080746384L106.92673107638889,86.08832789217455L107.31239496527779,86.17584926962375L107.34217048611112,86.3382018426614L107.41590034722222,86.40565249172857L107.4314970486111,86.60771224255572L107.85969739583332,86.49087851830015L108.3120017361111,86.58116566647013L108.33752361111112,86.90887201648978L108.83236440972223,87.11284939817413L109.01810694444444,87.08255404169005L109.17832760416667,87.18619447085437L109.39809930555555,87.43557502376895L110.05316076388888,87.87635085472539L110.27435034722222,87.6873511859195L110.37785572916667,87.84420981732755L110.45300347222222,87.81391383559479L110.484196875,87.85240786870199L110.90105416666667,88.07634416516512L111.42141684027777,87.66514724864861L111.52350434027777,87.66689294045041L111.9772265625,87.72008906307205L112.06797100694445,87.87613224009814L112.19558038194445,87.99383151608833L112.5670654513889,88.02170878114619L112.73862916666666,87.72721498636488L112.79534444444444,87.57894140439505L112.95981875,87.23223476395555L113.3015282986111,87.03696962089333L113.49010659722222,87.10276224213733L114.07285607638889,87.40535060125691L114.52516041666667,87.70164887446455L114.67262013888889,87.67331732035144L114.71232083333334,87.73631892164961L114.92925677083333,87.365270362818L114.97037534722222,87.6686495765362L115.39290416666667,87.6362429522159L115.39857569444443,87.53517074032762L115.996921875,87.0772994996282L116.19542534722223,86.8422153829987L116.25214062500001,86.70316051136552L116.25781215277777,86.65790696022896L116.39534670138889,86.41621001420606L116.56691041666666,86.1040369294521L116.70586284722222,85.83783115317357L117.1836890625,86.18517303785623L117.23189704861112,86.06941615073727L117.67852986111112,85.3107037023302L117.69270868055555,85.11092499876386L117.76785642361111,85.11795749888746L117.82315381944444,84.56132841566539L118.48388680555556,84.56063307409885L118.84970034722222,84.3805489333556L119.02977135416666,84.76360862335338L119.15312708333333,84.2829769276847L119.24528940972223,84.05199173491626L119.61110295138889,84.19564672809126L119.65789305555556,84.44969663861548L119.75430902777778,84.62856030808726L119.87908263888889,84.73238136061185L119.97124496527778,84.42695572455068L120.10452586805555,84.64865598542896L120.26474652777777,84.70437372021938L120.44198177083332,84.50315509819742L121.5762873263889,84.59923542171103L122.19590173611111,84.46753062953994L122.70350347222222,83.70491298325258L122.74462204861112,83.64973418492734L123.32453576388889,83.4876045164346L123.33020729166667,83.68093781479112L123.37416163194443,83.80515653331202L124.23056232638888,83.2857762966475L124.9423390625,81.75141741698272L125.00756163194444,81.05452567528447L125.65836944444445,81.05911477442268L125.74344236111111,80.94954704698041L125.80866493055557,80.00281109228237L126.38290711805556,79.64979039972079L126.60976822916666,80.03576969308205L127.02378975694445,80.32906772377383L127.89011562499999,80.03130678472978L127.90145868055554,80.42276985625679L128.11697673611113,80.6122220372978L128.49555121527777,79.73179150023469L128.8982296875,79.52878943354453L129.1860597222222,78.92878549019008L130.0495498263889,78.66104235783774L130.2069347222222,78.48890687205395L130.238128125,78.16989118484855L130.84214583333335,77.50603748303037L130.9343081597222,76.762912901394L130.95132274305556,75.54281952792128L131.14982621527776,74.89461049179582L131.22780972222222,73.6413265259496L132.41599479166666,73.06280845668796L133.09657812499998,72.3135171943525L133.53328576388887,71.28269672491726L133.90335295138888,70.65057288575888L133.97141128472222,70.18675518051631L134.52722100694444,69.28441299579802L134.551325,68.74456544621822L134.63214427083332,67.56483806826307L135.20071493055556,67.11275009477009L135.20922222222222,66.51227716862643L135.72533125,65.46051820176379L136.08121961805554,66.02642471492074L136.12942760416666,65.97401141009534L136.25420121527776,65.42718318575247L136.3959894097222,63.87611070051055L137.00426076388888,63.758478797126145L137.17582447916666,62.730120500746864L137.39559618055554,61.30740011733883L137.66357586805555,59.90096218893831L137.94431649305557,59.98417847004448L138.25057899305557,59.76530228970668L138.46609704861112,59.41466789406934L138.91840138888887,59.18452402132908L139.25302152777778,58.10222786919617L140.29374687499998,58.4329217489432L140.40717743055555,57.31331707404888L140.41710260416667,56.55457911664399L141.64357048611112,55.23807953831293L142.10296423611112,53.7440945011483L142.43900225694443,53.4903933843668L142.49429965277778,53.798593629263436L142.9154105902778,52.89843218300375L142.94660399305556,52.957307714703376L143.04160208333334,52.57701444323304L143.32376059027777,51.858010915576415L143.44002690972223,51.338126490685426L143.88098819444446,50.863470091616875L144.2056831597222,49.83091474912186L144.31769583333335,50.03859410754302L144.683509375,48.327057613455395L144.78701475694444,47.8044247687765L145.12447065972222,46.541242708565505L145.32439201388888,45.78419135437562L145.58528229166666,45.934376385604736L145.70863802083332,46.17893874704424L145.9269918402778,46.78869070567316L146.18362847222224,47.347915385105836L147.26972604166664,47.17148842992859L147.47248315972223,46.86336042026906L147.91060868055555,46.98982646157549L148.3232123263889,46.34463548208461L148.40119583333333,46.256859433876144L148.59260989583333,45.908673490488525L148.6776828125,45.35869155810636L148.74715902777777,45.164853652295704L148.94708038194446,44.8717849537328L149.16118055555555,45.30373145835952L149.44759270833333,45.08711872919022L149.53975503472225,44.98128185627121L149.83183871527777,44.34765367064409L150.33802256944443,44.46326330357968L150.48122864583334,43.86177030655506L151.06823177083334,44.28962452589954L151.28233194444445,44.3723183233096L151.29509288194444,45.428846907645294L151.47941753472222,45.36811846688076L151.6481454861111,45.89547328685936L152.1004498263889,46.230582208173416L152.27484930555556,45.77194065402273L152.35992222222222,46.85874658862045L152.5059640625,47.72440317975841L152.69312447916664,48.451254528449226L153.07028107638888,48.042191575604306L153.49989930555554,48.90320158471053L153.59915104166666,49.7174439262395L153.6445232638889,49.938314116948874L153.871384375,50.20777437192065L153.95645729166665,49.83263235139525L154.075559375,50.04136911625571L154.34921059027778,49.77812803796347L154.44137291666667,48.900200650833796L154.49525243055555,48.89919100241707L154.52786371527776,48.66719898550869L154.66823402777777,48.551822836957825L154.70226319444444,49.353880136595365L154.87099114583333,50.365200456269164L155.29210208333333,51.391544993975586L155.37292135416666,51.93913007791136L155.94716354166667,51.87821707012023L155.95567083333333,51.67343702977486L156.05208680555555,52.58309332679737L156.30163402777777,53.08035691078429L156.40372152777778,53.36318580303919L156.69864097222222,54.0381068060686L156.89998020833335,55.62456695879507L157.80742465277777,55.99714151291555L157.8499611111111,57.12588569495735L158.13779114583335,58.13622420879494L158.28950451388891,58.75421637124879L158.41286024305555,60.21937806745724L158.55606631944445,61.29280484404485L158.56315572916665,62.84089935964036L158.77300225694444,62.894392757009655L159.09202569444443,63.871786814642036L159.30896163194444,64.15345188317781L159.75134079861112,65.51135669486003L159.95693368055555,66.3014189420407L160.72400781250002,66.19139163116996L160.76370850694445,66.3431170513863L161.0529564236111,66.43357617958098L161.27556388888888,66.96793731162289L161.42018784722222,67.69100816379392L161.4995892361111,68.6982302640812L161.59458732638888,68.52798015433976L161.9958479166667,69.34333838890578L162.01711614583334,70.16320246668188L162.03129496527777,70.36393430334702L162.05965260416667,70.33563462301233L162.2269626736111,70.62421699404442L162.36307934027778,69.96882654463998L162.46942048611112,70.37460014017599L162.82247309027778,70.47798387615838L162.82814461805555,69.94661257187587L162.9415751736111,70.27717006468829L163.21239062499998,70.89671347488614L163.6235763888889,71.26931296073086L164.4913201388889,70.87391291465777L164.82168663194443,70.51743828985866L165.07123385416668,69.10080904420613L165.4101076388889,67.9524468897855L165.55189583333333,67.10821261747364L165.8383079861111,67.01092260572628L166.28635868055557,66.24793451182032L166.3161342013889,64.90364106063828L166.55433836805557,63.81423528790779L166.72306631944446,64.05494717578368L166.8421684027778,64.00854620820532L167.0023890625,63.99321242071812L167.0435076388889,64.43666201197962L167.6886439236111,64.99986039411499L167.8346857638889,64.7188431047035L167.99632430555556,64.95820879423313L168.03177135416666,64.7673983314765L168.18490260416667,64.63746058166217L168.26713975694446,64.61331869016263L168.43303194444442,65.00704932114635L169.00302048611113,64.51635480569838L169.06257152777778,64.42995890846186L169.10369010416665,64.21392135094902L169.15189809027777,64.34521671585411L169.80695954861113,64.10262212760203L170.4932144097222,63.59789116484181L170.90440017361112,63.719497881690984L171.56513315972222,63.69127726018854L171.66580277777777,62.812837034169675L171.940871875,62.36394916408605L172.1166892361111,61.666179247677434L172.7490645833333,60.72351965624303L172.88092760416666,60.86460519061872L173.17726493055554,60.94118633822353L173.37860416666666,60.6905260377345L173.46367708333332,61.04632760062772L173.5841970486111,61.15636150723162L174.1938862847222,61.78762118984177L174.28746649305558,61.97102573752426L174.37962881944443,61.477256497105145L174.61925086805556,61.20433293072797L175.47139791666666,59.83094130432184L176.13496666666668,60.08095134055634L176.17041371527776,60.20947078983403L176.17892100694442,59.696419544183954L176.48092986111112,59.06812133976558L177.05942569444446,59.516715455789026L177.7059798611111,59.303408493543444L178.1653736111111,59.12433847752243L178.16962725694444,59.18934212977018L178.3780559027778,59.64302250012649L178.41633871527776,60.010157750113834L178.52409774305556,60.2029128084358L178.6871541666667,60.034069444258876L178.92252256944445,60.31662083316631L180.11212552083333,61.10376083318302L180.39853767361112,61.2326347498647L180.60696631944447,61.872246274878236L180.82673802083335,61.547532064057066L180.90330364583332,61.785674690984706L181.12023958333333,62.11984680521957L181.48747100694445,61.61549754136426L181.79515138888888,61.54569778722782L181.96955086805556,60.873825925171715L182.13827881944445,61.012787082654555L182.16521857638887,61.07885212438909L182.2290232638889,61.01539399528349L182.95923246527778,61.186906679088494L183.02729079861112,59.944934761179624L183.2697486111111,59.626118368395L183.36049305555557,58.99132944822216L183.48810243055556,59.02046733673326L183.553325,58.66073310305994L183.73056024305555,58.42455041775395L184.0311512152778,57.89086620931188L184.29771302083333,57.079904588380685L184.31898124999998,56.10666412954261L184.43524756944447,55.92153938325501L184.68054114583333,55.61603127826285L185.44336163194444,55.45845940043655L185.74395260416668,54.86861346039289L185.85596527777778,55.62960628102029L185.88290503472223,54.937833152918245L186.20618211805555,54.82964358762642L186.42453593750002,55.05554381219713L186.60177118055557,55.43984880597739L187.1618345486111,55.146249342046346L187.28802604166665,54.09104107450837L187.59570642361112,53.75778071705753L187.87219340277778,54.235294312018425L188.04092135416667,53.540983630816584L188.11039756944444,53.223395684401595L188.62367083333334,52.947399865961415L188.8235921875,53.56556612936528L189.0178420138889,54.044478266428754L189.23761371527777,54.14485335645254L189.3269402777778,55.324847187473964L189.3666409722222,55.39183121872655L189.51977222222223,55.0225230968539L189.8373777777778,55.705437453835174L190.22587743055556,56.57818537511832L190.32796493055557,56.46575225427314L190.55057239583334,57.00311452884584L190.9007892361111,57.35644890929457L191.10638211805556,56.15827276836512L191.15742586805555,55.99379965819526L191.4750314236111,56.72401344237575L191.57853680555556,56.32965376480483L191.64092361111113,55.19974047165769L191.73025017361113,54.58844350782526L191.97979739583332,52.43605749037606L192.1386001736111,52.195160074671776L192.3172532986111,51.84621698387127L192.41934079861113,50.93725153548414L192.45195208333334,50.98820346526904L192.65754496527776,50.63212270207548L193.10701354166667,50.364504181867915L193.36081440972222,50.00318918034779L193.60043645833332,51.151776512313006L193.66424114583333,50.96863011108172L193.8925201388889,51.2807150166402L194.43273315972223,50.31890393164285L195.36286371527777,50.14652395514523L195.7173342013889,49.56731947629737L195.85061510416665,48.225566695334294L196.17956371527777,48.01238502580085L196.43194670138888,48.38593818988741L196.5751527777778,48.574021454231996L196.8601470486111,47.84231722547548L197.18058836805557,47.88440841959459L197.58184895833332,48.480946744301775L197.85550017361112,48.746799986538264L198.07243611111113,48.10721373788445L199.10465416666668,48.13203403076267L199.8462064236111,48.955174377686404L200.1014251736111,49.59582360658443L200.12836493055556,50.307001662592654L200.19216961805554,50.59920774633339L200.47574600694443,50.68826613836673L200.85857413194444,50.081929107863374L201.26550625,49.535611197077046L201.30520694444445,48.486497994036L201.32505729166667,48.61966069463239L201.38035468750002,49.201673791835816L201.59020121527777,50.16306891265225L201.61430520833335,50.49978285472035L201.65400590277775,50.077617069248305L202.3218282986111,50.38046994565681L204.1594032986111,50.343287534424476L204.24589409722222,50.602365030982014L204.28559479166665,51.11209727788382L204.87826944444444,51.3913979667621L205.79563906250002,51.028799836752555L205.81832517361113,50.66312818641063L205.91474114583332,51.11823203443623L206.16003472222224,51.69622133099263L206.84345381944445,51.47276586456002L206.90725850694446,50.235468444770675L207.03486788194442,50.17959868362695L207.2532217013889,50.71071173193093L207.34113038194445,50.62206764207116L207.5282907986111,50.312433794530705L208.47543593749998,49.808211248410956L208.73774409722222,49.11472345690321L208.8029666666667,48.91956361121288L209.2410921875,49.75490933342492L209.47220694444445,50.397324650082425L209.76287274305557,50.74318593507418L210.3130109375,51.04708609156677L210.52994687499998,50.751492065743406L210.85464184027776,50.76140535916909L210.97799756944445,51.02476482325217L211.0758314236111,50.58451750759362L211.54515034722223,50.01436784016758L211.72380347222222,50.23688938948416L211.85141284722224,49.41756503386907L212.26118072916665,49.17798561381551L212.36610399305556,49.946926635767284L212.45826631944442,50.709036055523896L212.7957222222222,50.18789286663815L212.86945208333333,49.03913482997433L213.48623072916666,48.74029426364359L213.8407012152778,48.55000442061254L213.90025225694444,48.13168106188462L213.93286354166668,47.38644003902951L214.08883055555555,46.92160853512655L214.511359375,47.07851018161389L215.01045381944442,47.31621124678583L215.31388055555556,46.58614220544058L215.39469982638892,46.52153840156319L215.61305364583333,47.16770747807351L215.82431805555555,46.68234298026616L216.45669340277777,46.26149409890621L216.76153802083334,45.885188439015565L217.59808836805556,46.32519042844734L218.084421875,47.47098388560261L218.15389809027778,47.55819799704233L218.1935987847222,47.53466986400477L218.36374461805556,47.375213294270935L219.1152220486111,47.33003571484386L219.64692777777776,46.542657143359435L220.02550225694443,47.0527351790235L220.35019722222222,46.641555411121146L220.48206024305554,46.65314987000903L220.61675902777776,46.23399113300812L220.82660555555557,46.278967019707295L221.0265269097222,46.130768234403234L221.11727135416666,46.0680664109629L221.24062708333332,45.6484160198666L221.3058496527778,45.59092858454662L221.5483074652778,45.53120030942529L221.6418876736111,45.729424028482754L221.78084010416666,46.30791912563447L222.01762638888889,45.676220963071046L222.1083708333333,45.9570467834306L222.3820220486111,45.90126918842088L222.54224270833333,45.78776726957878L222.68403090277778,45.17612595928756L222.74783559027776,44.88254461335882L223.02006892361112,45.16468598535627L223.25260156250002,44.9914778034873L223.25827309027775,45.008288356471894L223.33625659722222,45.201032437491364L223.60990781249998,45.98048127707557L223.7729642361111,45.139381066034645L223.96579618055557,44.87835962609785L224.15437447916665,44.55494033015472L224.88741944444445,44.695915047139266L225.00368576388888,45.62113604242532L225.18659253472222,45.31931410484947L225.34681319444445,46.12380977769783L225.46875104166665,45.83871004992807L225.6615829861111,45.665703628268574L226.3988815972222,46.01887284877503L226.6243248263889,46.337339730564224L226.7533520833333,46.581553674174444L226.93342309027778,46.478689973423684L227.5657984375,46.72474805941462L227.91176163194444,46.75752325347318L228.17123402777779,47.246729261459194L228.68167152777778,46.62071258531327L228.85039947916667,47.131589243448616L229.0744248263889,46.28108656910376L229.40762708333335,45.47630082886005L229.57068350694445,45.666493662640704L229.71956111111112,45.6956984630433L230.27537083333334,45.347701533405626L230.51215711805554,45.19859804673172L230.51499288194447,45.123404908725234L230.99565486111112,44.73430400118602L230.99990850694445,44.22923818440077L231.01266944444447,43.707689365960675L231.24661996527777,43.881149596031264L231.5472109375,43.47553463642814L231.77548993055555,43.08098117278533L232.03354444444446,43.164695555506796L232.2646592013889,43.64259058328943L232.47025208333335,43.660925274960505L232.7467390625,43.43958274746444L233.48120190972222,43.026499472718L234.01007187500002,42.781943275446196L234.22133628472224,42.90109269790156L234.29648402777778,43.331598011444754L234.80125,42.98524029363358L234.95296336805558,42.81671626427024L234.98841041666665,42.18382588784323L235.05646875000002,42.1378495490589L235.46340086805557,42.21692917748632L235.6817546875,41.98019459307102L236.46867916666667,42.21946680043058L237.50373298611112,42.08142637038753L237.56470190972223,41.09800248334878L237.67671458333334,40.78878556834724L237.78872725694444,41.63517784484583L238.27364288194445,41.73809756036124L238.39841649305555,41.25055863765846L238.52744375,41.7422527738926L238.60542725694444,41.71830874650334L238.7259472222222,41.781571621853004L239.25339930555555,41.66765404300102L239.33847222222224,41.12570113870092L239.5894373263889,41.71530810816415L240.09278541666666,41.37201688068106L240.2076338541667,42.07097144261297L240.56494010416665,42.58694721501831L240.57061163194444,42.702242076849814L241.20298697916667,43.10285120249816L241.30365659722221,42.9674306655817L241.4752203125,44.26216676569018L241.58014357638888,43.7803459224545L241.96297170138888,44.124769663542395L242.0877453125,43.96029269718815L242.5244529513889,44.36170092746934L243.00369704861112,44.21532250138907L243.27593038194445,44.11246733458347L243.32130260416668,44.47038726779181L243.33122777777777,45.469171457679295L243.81614340277775,45.11432722857802L244.33508819444444,44.64869658905357L244.48113003472224,44.96651443014821L244.76612430555556,44.01539423713339L244.93768802083332,43.538891271753386L245.05253645833332,43.16012714457804L245.09081927083335,42.58815609678692L245.47222951388886,42.15696548710821L245.78416354166666,42.232289771730734L246.0351286458333,41.3345712112243L246.0408001736111,40.91995784010189L246.0464717013889,41.54058705609171L246.04788958333333,41.514684600482525L246.05214322916666,41.09803905710092L246.05781475694445,40.77775598472414L246.06065052083332,40.33985017791841L246.06915781249998,40.47704224345989L246.0734114583333,41.17023385244724L246.07624722222224,41.401387550535844L246.0790829861111,40.6838633788156L246.08191875,40.460924957600696L246.08617239583336,40.07774912850729L246.08900815972223,40.40278671565656L246.09326180555556,39.58661221075758L246.09467968750002,39.437138489681814L246.09893333333335,40.09665380738031L246.10176909722222,40.13832175997558L246.11027638888888,40.46529166731136L246.1173657986111,40.744200000580236L246.11878368055557,41.10768625052219L246.12445520833333,41.87670929213664L246.13438038194442,42.204382112922985L246.1457234375,42.61114181829734L246.14714131944444,42.359569303134265L246.14997708333334,42.05571653948749L246.15423072916667,41.61876988553877L246.1556486111111,40.50584081365156L246.15990225694443,40.245392148953044L246.16699166666666,39.814321684057745L246.17549895833335,40.704691598985306L246.17691684027778,40.52945160575342L246.18258836805555,40.03248561184475L246.18542413194444,40.076268300660274L246.19393142361113,40.83227688726092L246.19534930555554,41.15376794853481L246.19818506944446,40.96373490368134L246.20385659722223,40.65749682997989L246.21378177083332,41.07882006364852L246.2222890625,41.538521390617035L246.22654270833334,40.842929668221984L246.23505,40.89355336806642L246.24355729166666,40.686520947926454" style="fill: none;" fill="none"></path></g></g></g></g><g opacity="0.2"><g><g><g><path stroke="rgb(255, 112, 67)" stroke-width="2px" d="M28.47815885416667,156.4745555305481L28.885090972222223,155.58791666666667L28.955985069444445,155.33901041666667L29.185681944444443,155.45885416666667L29.524555729166668,154.81354166666665L29.603957118055554,155.5571875L29.694701562499997,155.3728125L29.71029826388889,155.24375L29.715969791666666,155.60139788818358L29.76417777777778,155.63093750000002L29.951338194444446,155.1884375L29.95700972222222,155.4096875L29.964099131944444,155.3359375L29.98111371527778,155.133125L30.2179,154.985625L30.47311875,154.40791666666667L30.477372395833335,154.25427083333332L30.51423732638889,154.21432291666667L30.538341319444445,154.14979166666666L30.811992534722222,153.1234375L31.153702083333336,152.04177083333332L31.3281015625,152.42895833333333L31.648542881944444,152.035625L31.788913194444444,152.920625L31.876821875,152.256875L32.07390746527778,152.33677083333333L32.34472291666667,152.20770833333333L32.683596701388886,152.4596875L32.78426631944444,152.90526041666666L32.79419149305556,152.88989583333333L33.134483159722215,152.87145833333332L33.171348090277775,152.46583333333334L33.23231701388889,153.16645833333334L33.51872916666667,152.9390625L33.722904166666666,152.74239583333332L33.77961944444444,153.4184375L33.78387309027778,153.436875L33.91431822916667,153.37541666666667L34.129836284722224,152.59182291666667L34.158193923611115,152.61947916666668L34.23475954861111,151.925L34.47863524305555,151.04L34.485724652777776,150.9109375L34.531096875,151.15677083333333L34.70266059027777,149.6940625L34.7735546875,149.16552083333335L34.83594149305556,148.75682291666666L34.913925,147.46927083333333L34.98623697916667,147.81958333333333L35.014594618055554,147.5921875L35.27406701388889,146.03729166666668L35.6668203125,144.10135416666668L35.689506423611114,144.11364583333332L35.690924305555555,143.923125L35.91211388888889,142.95822916666668L36.39135798611111,142.38052083333332L36.63523368055556,141.44635416666665L36.75291788194444,141.56927083333335L36.88903454861111,141.10833333333335L37.02089756944444,141.64302083333334L37.4661125,140.81947916666667L37.732674305555555,140.8440625L37.847522743055556,141.14520833333333L37.972296354166666,140.96083333333334L38.04319045138889,140.92395833333333L38.138188541666665,140.9915625L38.26296215277778,141.34494791666668L38.52810607638889,141.01L38.55788159722222,141.0653125L38.74645989583333,140.64125L39.36182065972222,140.57364583333333L39.5461453125,140.57979166666667L39.57592083333333,140.97312499999998L39.75882760416667,141.14520833333333L39.777260069444445,140.92395833333333L39.9544953125,140.7703125L39.981435069444444,140.86864583333335L40.065090104166664,140.8440625L40.16575972222223,141.07760416666667L40.39829236111111,141.08375L40.422396354166665,140.8625L40.71164427083333,140.76416666666665L40.72582309027778,140.72729166666667L40.80097083333333,140.38005208333334L40.91581927083333,140.6228125L41.291557986111115,140.98541666666665L41.63752118055556,139.58416666666668L42.20609184027778,138.68072916666665L42.335119097222226,139.39979166666666L42.52369739583333,138.3734375L42.83704930555555,137.20572916666666L42.983091145833335,137.39625L43.056821006944446,137.05515625L43.40136631944444,136.35760416666668L43.69345,135.17145833333333L43.70904670138889,135.02395833333333L44.432166493055554,133.450625L44.72283229166666,133.1740625L45.0205875,133.3215625L45.03618420138889,132.82375000000002L45.122675,132.860625L45.384983159722225,132.94666666666666L45.77206493055556,132.94666666666666L45.784825868055556,133.10645833333334L45.81034774305556,133.3215625L46.02586579861111,132.89135416666667L46.21019045138889,132.81760416666668L46.60010798611111,132.9896875L46.71637430555556,132.86677083333333L46.834058506944444,132.565625L47.21405086805555,133.26010416666668L47.24949791666667,133.16177083333332L47.69896649305556,132.92822916666665L47.77978576388889,132.67010416666665L47.86060503472222,132.860625L47.94709583333333,132.48572916666666L48.07328732638889,132.31364583333334L48.56954600694445,133.11260416666667L48.87155486111111,132.418125L48.918344965277775,132.8053125L49.01901458333333,132.89135416666667L49.35079895833333,132.55333333333334L49.65847934027778,132.2521875L49.71094097222222,132.50416666666666L49.84563975694445,132.57177083333335L49.85981857638889,132.31979166666667L50.09660486111112,132.07395833333334L50.24690034722222,132.09239583333334L50.3418984375,132.31979166666667L50.72898020833333,132.23375L50.85942534722222,132.02479166666666L50.94024461805555,132.0309375L51.01964600694445,132.786875L51.25076076388889,132.1784375L51.38262378472222,132.35666666666665L51.42516024305556,131.89572916666668L51.6435140625,132.7315625L51.69030416666667,132.42427083333334L51.73851215277778,132.55333333333334L51.846271180555554,132.3628125L52.03201371527778,132.44270833333334L52.036267361111115,132.18458333333334L52.23193506944445,132.09854166666668L52.27447152777778,131.8465625L52.51409357638889,132.3075L52.63035989583333,132.11697916666668L52.86714618055555,132.3996875L52.97206944444444,131.98791666666665L53.22728819444444,132.04322916666666L53.43855260416667,132.23375L53.47258177083333,131.93260416666666L54.03689878472222,132.16614583333333L54.25525260416667,132.12312500000002L54.38569774305556,131.80354166666666L54.43674149305556,131.98791666666665L54.44666666666667,131.81583333333333L54.49203888888889,132.31364583333334L54.49487465277778,131.85885416666667L54.648005902777776,131.680625L54.81389809027778,131.92645833333333L54.927328645833335,131.97562499999998L55.14710034722222,132.491875L55.23359114583334,132.270625L55.444855555555556,132.02479166666666L55.612165625,132.0125L55.622090798611104,131.96026041666667L55.732685590277775,132.30442708333334L55.77663993055556,132.51645833333333L55.86880225694444,132.22760416666665L56.01909774305555,132.25833333333333L56.129692534722224,132.35052083333332L56.14387135416667,132.31364583333334L56.40617951388889,132.049375L56.42602986111111,132.30135416666667L56.74647118055556,132.196875L56.83579774305556,131.99406249999998L57.07258402777778,133.6165625L57.2072828125,132.270625L57.2710875,131.42864583333335L57.35616041666667,132.43041666666667L57.59720034722223,133.18020833333333L57.76451041666667,132.51645833333333L57.90346284722222,132.18458333333334L57.94599930555555,132.04322916666666L57.974356944444445,132.00635416666665L58.014057638888886,131.94489583333333L58.286290972222226,132.28291666666667L58.46352621527778,132.00635416666665L58.58971770833333,132.6639583333333L58.64217934027778,131.754375L58.852025868055556,132.60864583333333L58.983888888888885,132.59635416666666L58.98814253472222,132.53489583333334L59.16537777777778,131.63145833333334L59.19373541666666,132.28291666666667L59.20366059027778,133.1740625L59.30716597222222,131.85270833333334L59.37947795138889,133.14333333333332L59.773649131944445,133.91770833333334L59.779320659722224,132.91901041666665L60.0146890625,132.14156250000002L60.08132951388889,132.01864583333332L60.17774548611111,131.49625L60.20752100694445,132.1046875L60.223117708333334,132.1046875L60.63288559027777,132.14770833333333L60.84982152777778,132.61479166666666L60.87250763888889,132.418125L61.03839982638889,131.77895833333332L61.061085937499996,132.37510416666666L61.19153107638889,132.17229166666667L61.24115694444445,131.5884375L61.26242517361111,131.96947916666667L61.34891597222222,131.72364583333334L61.4439140625,132.09239583333334L61.52331545138889,131.64989583333335L61.700550694444445,132.55333333333334L61.91606875,132.0309375L61.941590624999996,131.63760416666668L61.97703767361111,131.5146875L62.11882586805555,131.06604166666668L62.379716145833335,131.05989583333334L62.40382013888889,130.74645833333335L62.583891145833334,130.54979166666666L62.69306805555556,129.5971875L62.914257638888884,128.1775L63.10850746527778,127.4215625L63.187908854166665,127.5875L63.343875868055555,128.54010416666665L63.504096527777776,126.67791666666668L63.56506545138889,127.43385416666666L63.89117829861111,126.555L63.996101562499994,128.81666666666666L65.16443628472221,120.470625L65.2339125,120.68572916666668L65.36435763888889,117.31166666666667L65.64509826388888,122.07468750000001L65.75285729166666,117.94468750000001L65.93576406250001,116.27916666666667L66.17538611111111,113.16322916666667L66.31008489583333,116.66020833333334L66.40366510416666,113.34760416666667L66.57664670138888,114.65052083333333L66.66030173611112,111.85416666666666L67.05163715277779,113.021875L67.33095989583333,117.13958333333332L67.81020399305555,116.95520833333333L67.84281527777779,116.54958333333335L67.84848680555555,117.21333333333334L67.89102326388888,115.84281250000001L68.28094079861111,112.4503125L68.45675815972223,110.78479166666666L68.61556093749999,108.4678125L68.69496232638889,107.39229166666667L68.81264652777777,105.0753125L68.83391475694444,108.19125L69.38547083333333,101.23416666666667L69.45920069444443,104.73114583333333L69.62792864583334,100.7609375L70.13127673611112,94.92239583333334L70.32410868055555,93.49656250000001L70.93521579861111,94.29859375000001L70.9862595486111,94.99614583333333L71.16349479166666,93.7178125L71.22871736111111,98.45010416666668L71.3719234375,93.57645833333333L71.53072621527777,95.80739583333333L71.60020243055556,94.44302083333334L71.83415295138889,95.61072916666667L72.19854861111112,98.4746875L72.25526388888889,97.22708333333333L72.51757204861111,98.24729166666667L72.55301909722223,95.18666666666667L72.62533107638889,103.35447916666666L72.78129809027777,97.091875L72.915996875,101.95322916666667L72.93017569444444,94.79947916666667L73.08614270833333,98.22885416666666L73.20382690972222,97.48520833333333L73.27755677083334,98.48697916666667L73.85179895833333,95.83197916666667L74.14671840277778,99.1753125L74.20343368055556,94.105L74.34947552083334,96.30520833333334L74.45156302083333,99.15072916666666L74.57633663194444,95.53697916666667L74.81170503472222,94.0128125L74.98043298611111,94.31395833333333L74.99744756944445,97.91541666666666L75.17751857638889,97.89083333333333L75.68653819444445,97.07958333333333L75.79713298611112,95.9303125L75.95735364583332,101.2403125L76.10055972222221,97.5528125L76.33025659722222,97.0365625L76.3997328125,97.94614583333333L76.50890972222221,95.88114583333333L76.87330538194445,99.33510416666667L77.47874097222223,97.68802083333334L77.6602298611111,98.63447916666667L77.96365659722223,97.39916666666666L78.04022222222221,97.71260416666667L78.15932430555556,101.11739583333333L78.27559062499999,98.9540625L78.54498819444444,98.60989583333333L78.70379097222221,101.95322916666667L78.88669774305556,95.13135416666667L79.18019930555555,97.13489583333333L79.24400399305556,96.86447916666667L79.26101857638889,96.16385416666667L79.79556006944445,96.354375L80.06779340277778,97.22708333333333L80.34286250000001,96.53260416666666L80.36554861111111,95.88729166666666L80.46196458333333,97.17791666666666L80.98799878472222,95.09447916666666L81.17799496527778,94.14802083333333L81.26165,98.84958333333333L81.62462777777777,96.19458333333334L81.75790868055556,96.91979166666667L82.13648315972222,97.7371875L82.31655416666666,97.54666666666667L83.20840190972223,100.89L83.56287239583334,97.50979166666667L83.65645260416666,96.7415625L83.77980833333334,93.73625L83.85920972222223,93.26916666666666L83.86062760416667,94.17260416666667L83.89323888888889,96.206875L85.0162013888889,98.62833333333333L85.21328697916665,95.95489583333332L85.34940364583332,97.09802083333334L85.8144689236111,97.31927083333333L85.87118420138889,94.46760416666666L86.09946319444445,97.460625L86.16893940972223,99.3228125L86.24692291666666,97.4975L86.33199583333334,98.41322916666667L86.73042065972223,101.074375L86.80273263888888,95.77666666666667L86.88496979166666,97.62041666666667L87.29331979166668,91.155L87.89166597222223,101.56604166666666L88.01502170138889,98.76354166666667L88.35247760416667,96.69854166666667L88.46874392361111,95.56770833333334L88.47866909722221,97.30083333333333L88.53113072916666,107.14338541666666L88.90119791666666,100.5028125L89.01462847222223,101.6090625L89.09119409722221,100.9821875L89.26842934027778,96.34208333333333L89.59596006944444,96.76L89.69662968749999,98.66520833333333L89.9036404513889,95.47552083333333L89.91072986111111,97.90927083333332L90.1305015625,97.64500000000001L90.18579895833334,98.41322916666667L90.41691371527777,93.37979166666666L90.85362135416666,94.81791666666666L91.23361371527778,90.823125L91.3271939236111,96.01635416666666L91.67032135416667,91.16114583333334L91.87591423611111,94.32010416666667L91.8915109375,93.46583333333334L91.96665868055557,94.26479166666667L92.13822239583332,92.55010416666667L92.50828958333334,90.14708333333334L92.76634409722223,92.70989583333333L93.15342586805556,95.02072916666667L93.30088559027779,94.00666666666666L93.39871944444444,93.31833333333333L93.54617916666666,90.65104166666667L93.67237065972222,90.11635416666667L94.02825902777778,89.43416666666667L94.20265850694445,90.76166666666667L94.39407256944445,89.0715625L94.51175677083334,88.10666666666667L94.71734965277778,86.00786458333333L94.72302118055555,90.42364583333332L94.77831857638888,85.79583333333335L94.78682586805556,88.33406249999999L95.273159375,87.09875L95.87434131944445,86.60708333333334L96.32522777777777,85.11364583333334L96.51664184027779,88.39552083333334L96.8271579861111,86.40427083333334L97.24543315972223,87.79322916666668L97.29505902777778,87.651875L97.570128125,90.17166666666667L97.80124288194445,91.23489583333333L97.96146354166667,89.40343750000001L97.97422447916666,88.02062500000001L98.10041597222222,88.49385416666667L98.1060875,89.32354166666667L98.33294861111112,88.76427083333334L99.26166128472222,87.59041666666666L99.27300434027778,83.30677083333333L99.42897135416666,89.88895833333333L99.72956232638889,85.291875L99.86000746527779,85.96177083333333L100.04291423611112,88.30333333333334L100.19179184027777,84.50520833333334L100.19462760416667,88.91177083333334L100.40730989583334,87.4490625L100.52499409722222,85.28572916666667L100.5689484375,86.30593749999998L100.72775121527778,85.3471875L100.96170173611111,85.87572916666667L100.97871631944444,86.60708333333334L101.80959513888888,86.70234375L101.86772829861111,86.53947916666668L102.42495590277778,83.04249999999999L102.44197048611112,84.41916666666665L102.980765625,88.89947916666667L103.50679982638889,86.13078125L103.56776875,85.08291666666666L103.69396024305556,88.9425L103.8641060763889,85.90031250000001L103.925075,86.02322916666667L104.25118784722223,86.029375L104.41991579861111,86.2321875L104.5503609375,86.31208333333332L104.73043194444443,87.17864583333335L104.77296840277778,86.77302083333333L104.78998298611111,86.29364583333334L105.31601718750001,93.773125L105.70309895833334,83.4665625L105.74847118055555,84.01354166666667L105.86899114583333,83.88447916666667L106.30428090277778,84.6096875L106.3780107638889,84.19177083333332L106.92673107638889,87.42140625L107.31239496527779,86.96354166666666L107.34217048611112,87.79937500000001L107.41590034722222,87.01270833333334L107.4314970486111,88.42625000000001L107.85969739583332,85.439375L108.3120017361111,87.39375L108.33752361111112,89.85822916666666L108.83236440972223,88.94864583333333L109.01810694444444,86.80989583333333L109.17832760416667,88.11895833333334L109.39809930555555,89.67999999999999L110.05316076388888,91.84333333333333L110.27435034722222,85.98635416666667L110.37785572916667,89.2559375L110.45300347222222,87.54125L110.484196875,88.19885416666666L110.90105416666667,90.09177083333334L111.42141684027777,83.964375L111.52350434027777,87.68260416666668L111.9772265625,88.19885416666666L112.06797100694445,89.28052083333334L112.19558038194445,89.053125L112.5670654513889,88.27260416666667L112.73862916666666,85.07677083333333L112.79534444444444,86.24447916666666L112.95981875,84.111875L113.3015282986111,85.27958333333333L113.49010659722222,87.69489583333332L114.07285607638889,90.12864583333334L114.52516041666667,90.36833333333333L114.67262013888889,87.41833333333334L114.71232083333334,88.30333333333334L114.92925677083333,84.02583333333334L114.97037534722222,90.3990625L115.39290416666667,87.34458333333333L115.39857569444443,86.62552083333334L115.996921875,82.95645833333333L116.19542534722223,84.72645833333333L116.25214062500001,85.45166666666667L116.25781215277777,86.250625L116.39534670138889,84.2409375L116.56691041666666,83.29447916666666L116.70586284722222,83.44197916666666L117.1836890625,89.31125L117.23189704861112,85.02760416666668L117.67852986111112,78.48229166666667L117.69270868055555,83.31291666666667L117.76785642361111,85.18124999999999L117.82315381944444,79.55166666666666L118.48388680555556,84.554375L118.84970034722222,82.75979166666667L119.02977135416666,88.21114583333333L119.15312708333333,79.95729166666666L119.24528940972223,81.973125L119.61110295138889,85.48854166666666L119.65789305555556,86.73614583333334L119.75430902777778,86.23833333333333L119.87908263888889,85.66677083333335L119.97124496527778,81.678125L120.10452586805555,86.64395833333334L120.26474652777777,85.20583333333333L120.44198177083332,82.6921875L121.5762873263889,85.46395833333332L122.19590173611111,83.2821875L122.70350347222222,76.84135416666668L122.74462204861112,83.153125L123.32453576388889,82.0284375L123.33020729166667,85.4209375L123.37416163194443,84.92312499999998L124.23056232638888,78.61135416666667L124.9423390625,67.9421875L125.00756163194444,74.7825L125.65836944444445,81.10041666666667L125.74344236111111,79.9634375L125.80866493055557,71.4821875L126.38290711805556,76.47260416666667L126.60976822916666,83.50958333333334L127.02378975694445,82.96875L127.89011562499999,77.35145833333334L127.90145868055554,83.9459375L128.11697673611113,82.31729166666666L128.49555121527777,71.80791666666667L128.8982296875,77.70177083333334L129.1860597222222,73.52875L130.0495498263889,76.25135416666666L130.2069347222222,76.9396875L130.238128125,75.29875L130.84214583333335,71.53135416666667L130.9343081597222,70.07479166666667L130.95132274305556,64.56197916666666L131.14982621527776,69.06072916666668L131.22780972222222,62.36177083333334L132.41599479166666,67.85614583333333L133.09657812499998,65.56989583333332L133.53328576388887,62.0053125L133.90335295138888,64.96145833333333L133.97141128472222,66.01239583333333L134.52722100694444,61.16333333333333L134.551325,63.8859375L134.63214427083332,56.94729166666667L135.20071493055556,63.04395833333332L135.20922222222222,61.10802083333334L135.72533125,55.99468750000001L136.08121961805554,71.11958333333332L136.12942760416666,65.50229166666666L136.25420121527776,60.50572916666667L136.3959894097222,49.91645833333334L137.00426076388888,62.699791666666655L137.17582447916666,53.474895833333335L137.39559618055554,48.502916666666664L137.66357586805555,47.24302083333333L137.94431649305557,60.733125L138.25057899305557,57.79541666666667L138.46609704861112,56.258958333333325L138.91840138888887,57.11322916666667L139.25302152777778,48.36156249999999L140.29374687499998,61.40916666666668L140.40717743055555,47.236875L140.41710260416667,49.725937499999986L141.64357048611112,43.38958333333335L142.10296423611112,40.29822916666666L142.43900225694443,51.207083333333344L142.49429965277778,56.57239583333333L142.9154105902778,44.79697916666666L142.94660399305556,53.487187500000005L143.04160208333334,49.154375L143.32376059027777,45.38697916666666L143.44002690972223,46.659166666666664L143.88098819444446,46.59156249999998L144.2056831597222,40.53791666666669L144.31769583333335,51.90770833333333L144.683509375,32.92322916666666L144.78701475694444,43.10072916666667L145.12447065972222,35.17260416666667L145.32439201388888,38.97072916666667L145.58528229166666,47.28604166666668L145.70863802083332,48.379999999999995L145.9269918402778,52.27645833333332L146.18362847222224,52.38093749999999L147.26972604166664,45.58364583333332L147.47248315972223,44.09020833333332L147.91060868055555,48.12802083333332L148.3232123263889,40.53791666666669L148.40119583333333,45.46687499999999L148.59260989583333,42.775000000000006L148.6776828125,40.408854166666686L148.74715902777777,43.420312499999994L148.94708038194446,42.23416666666665L149.16118055555555,49.19125000000001L149.44759270833333,43.13760416666668L149.53975503472225,44.02875L149.83183871527777,38.64500000000001L150.33802256944443,45.50375L150.48122864583334,38.44833333333332L151.06823177083334,48.14031249999999L151.28233194444445,45.116562499999986L151.29509288194444,54.937604166666674L151.47941753472222,44.8215625L151.6481454861111,50.641666666666666L152.1004498263889,49.246562499999996L152.27484930555556,41.64416666666668L152.35992222222222,56.639999999999986L152.5059640625,55.51531249999999L152.69312447916664,54.99291666666667L153.07028107638888,44.360625L153.49989930555554,56.652291666666656L153.59915104166666,57.045625L153.6445232638889,51.92614583333334L153.871384375,52.63291666666666L153.95645729166665,46.45635416666667L154.075559375,51.92L154.34921059027778,47.408958333333345L154.44137291666667,40.99885416666666L154.49525243055555,48.890104166666674L154.52786371527776,46.57927083333331L154.66823402777777,47.51343750000001L154.70226319444444,56.57239583333333L154.87099114583333,59.467083333333335L155.29210208333333,60.62864583333334L155.37292135416666,56.86739583333335L155.94716354166667,51.33000000000001L155.95567083333333,49.83041666666668L156.05208680555555,60.77000000000001L156.30163402777777,57.555729166666666L156.40372152777778,55.908645833333324L156.69864097222222,60.11239583333334L156.89998020833335,69.90270833333334L157.80742465277777,59.3503125L157.8499611111111,67.28458333333334L158.13779114583335,67.22927083333333L158.28950451388891,64.31614583333332L158.41286024305555,73.40583333333333L158.55606631944445,70.95364583333334L158.56315572916665,76.77374999999999L158.77300225694444,63.37583333333333L159.09202569444443,72.66833333333334L159.30896163194444,66.6884375L159.75134079861112,77.7325L159.95693368055555,73.41197916666667L160.72400781250002,65.20114583333333L160.76370850694445,67.70864583333332L161.0529564236111,67.24770833333334L161.27556388888888,71.7771875L161.42018784722222,74.19864583333334L161.4995892361111,77.76322916666666L161.59458732638888,66.99572916666666L161.9958479166667,76.6815625L162.01711614583334,77.54197916666666L162.03129496527777,72.17052083333334L162.05965260416667,70.0809375L162.2269626736111,73.22145833333335L162.36307934027778,64.0703125L162.46942048611112,74.0265625L162.82247309027778,71.4084375L162.82814461805555,65.16427083333335L162.9415751736111,73.25218749999999L163.21239062499998,76.47260416666667L163.6235763888889,74.62270833333332L164.4913201388889,67.3153125L164.82168663194443,67.30916666666667L165.07123385416668,56.351145833333334L165.4101076388889,57.6171875L165.55189583333333,59.51010416666668L165.8383079861111,66.1353125L166.28635868055557,59.381041666666675L166.3161342013889,52.80500000000001L166.55433836805557,54.009583333333325L166.72306631944446,66.22135416666666L166.8421684027778,63.590937499999995L167.0023890625,63.85520833333334L167.0435076388889,68.42770833333334L167.6886439236111,70.06864583333333L167.8346857638889,62.18968749999999L167.99632430555556,67.1125L168.03177135416666,63.05010416666666L168.18490260416667,63.46802083333333L168.26713975694446,64.39604166666668L168.43303194444442,68.55062500000001L169.00302048611113,60.10010416666667L169.06257152777778,63.652395833333344L169.10369010416665,62.269583333333344L169.15189809027777,65.526875L169.80695954861113,61.91927083333333L170.4932144097222,59.0553125L170.90440017361112,64.81395833333333L171.56513315972222,63.43729166666665L171.66580277777777,54.906875L171.940871875,58.32395833333334L172.1166892361111,55.38624999999999L172.7490645833333,52.23958333333333L172.88092760416666,62.134375000000006L173.17726493055554,61.630416666666676L173.37860416666666,58.434583333333336L173.46367708333332,64.24854166666667L173.5841970486111,62.146666666666675L174.1938862847222,67.46895833333333L174.28746649305558,63.62166666666667L174.37962881944443,57.03333333333333L174.61925086805556,58.74802083333334L175.47139791666666,47.470416666666665L176.13496666666668,62.331041666666664L176.17041371527776,61.366145833333334L176.17892100694442,55.07895833333333L176.48092986111112,53.4134375L177.05942569444446,63.554062499999986L177.7059798611111,57.38364583333335L178.1653736111111,57.51270833333332L178.16962725694444,59.774375000000006L178.3780559027778,63.726145833333334L178.41633871527776,63.314375L178.52409774305556,61.93770833333333L178.6871541666667,58.514479166666675L178.92252256944445,62.85958333333333L180.11212552083333,68.18802083333334L180.39853767361112,62.39250000000001L180.60696631944447,67.62875L180.82673802083335,58.625104166666674L180.90330364583332,63.92895833333333L181.12023958333333,65.12739583333334L181.48747100694445,57.07635416666666L181.79515138888888,60.91749999999999L181.96955086805556,54.826979166666675L182.13827881944445,62.26343750000001L182.16521857638887,61.67343749999999L182.2290232638889,60.444270833333334L182.95923246527778,62.73052083333333L183.02729079861112,48.767187500000006L183.2697486111111,56.75677083333335L183.36049305555557,53.27822916666666L183.48810243055556,59.28270833333333L183.553325,55.423125L183.73056024305555,56.29890625L184.0311512152778,53.08770833333334L184.29771302083333,49.78125L184.31898124999998,47.3475L184.43524756944447,54.25541666666666L184.68054114583333,52.86645833333333L185.44336163194444,54.0403125L185.74395260416668,49.56L185.85596527777778,62.47854166666667L185.88290503472223,48.71187500000002L186.20618211805555,53.85593750000001L186.42453593750002,57.08864583333333L186.60177118055557,58.89859375L187.1618345486111,52.503854166666656L187.28802604166665,44.594166666666666L187.59570642361112,50.7584375L187.87219340277778,58.532916666666665L188.04092135416667,47.29218750000001L188.11039756944444,50.365104166666654L188.62367083333334,50.46343750000001L188.8235921875,59.1290625L189.0178420138889,58.3546875L189.23761371527777,55.04822916666666L189.3269402777778,65.94479166666666L189.3666409722222,55.99468750000001L189.51977222222223,51.698750000000004L189.8373777777778,61.851666666666674L190.22587743055556,64.43291666666666L190.32796493055557,55.45385416666667L190.55057239583334,61.839375000000004L190.9007892361111,60.53645833333333L191.10638211805556,45.37468749999999L191.15742586805555,54.513541666666654L191.4750314236111,63.295937499999994L191.57853680555556,52.78041666666667L191.64092361111113,45.03052083333333L191.73025017361113,49.08677083333335L191.97979739583332,33.06458333333333L192.1386001736111,50.02708333333334L192.3172532986111,48.705729166666686L192.41934079861113,42.7565625L192.45195208333334,51.44677083333333L192.65754496527776,47.42739583333335L193.10701354166667,47.955937500000005L193.36081440972222,46.75135416666666L193.60043645833332,61.4890625L193.66424114583333,49.3203125L193.8925201388889,54.08947916666668L194.43273315972223,41.66260416666668L195.36286371527777,48.59510416666666L195.7173342013889,44.354479166666664L195.85061510416665,36.14979166666666L196.17956371527777,46.09375L196.43194670138888,51.747916666666654L196.5751527777778,50.266770833333325L196.8601470486111,41.25697916666667L197.18058836805557,48.26322916666666L197.58184895833332,53.849791666666675L197.85550017361112,51.13947916666666L198.07243611111113,42.350937499999986L199.10465416666668,48.355416666666656L199.8462064236111,56.3634375L200.1014251736111,55.36166666666668L200.12836493055556,56.70760416666667L200.19216961805554,53.22906250000001L200.47574600694443,51.48979166666666L200.85857413194444,44.62489583333334L201.26550625,44.618750000000006L201.30520694444445,39.04447916666666L201.32505729166667,49.81812500000001L201.38035468750002,54.439791666666665L201.59020121527777,58.815625L201.61430520833335,53.530208333333334L201.65400590277775,46.27812499999999L202.3218282986111,53.10614583333334L204.1594032986111,50.00864583333333L204.24589409722222,52.934062499999996L204.28559479166665,55.699687499999996L204.87826944444444,53.90510416666666L205.79563906250002,47.76541666666665L205.81832517361113,47.372083333333336L205.91474114583332,55.21416666666667L206.16003472222224,56.89812499999999L206.84345381944445,49.46166666666667L206.90725850694446,39.099791666666675L207.03486788194442,49.676770833333336L207.2532217013889,55.49072916666667L207.34113038194445,49.824270833333344L207.5282907986111,47.52572916666668L208.47543593749998,45.27020833333333L208.73774409722222,42.873333333333335L208.8029666666667,47.16312500000001L209.2410921875,57.27302083333332L209.47220694444445,56.1790625L209.76287274305557,53.85593750000001L210.3130109375,53.78218749999999L210.52994687499998,48.091145833333314L210.85464184027776,50.850624999999994L210.97799756944445,53.394999999999996L211.0758314236111,46.622291666666655L211.54515034722223,44.88302083333335L211.72380347222222,52.23958333333333L211.85141284722224,42.04364583333333L212.26118072916665,47.021770833333335L212.36610399305556,56.86739583333335L212.45826631944442,57.568020833333335L212.7957222222222,45.49760416666666L212.86945208333333,38.700312499999995L213.48623072916666,46.050729166666684L213.8407012152778,46.83739583333332L213.90025225694444,44.366770833333334L213.93286354166668,40.679270833333334L214.08883055555555,42.738125L214.511359375,48.490624999999994L215.01045381944442,49.45552083333334L215.31388055555556,40.01552083333334L215.39469982638892,45.940104166666686L215.61305364583333,52.983229166666675L215.82431805555555,42.314062500000006L216.45669340277777,42.473854166666655L216.76153802083334,42.498437499999994L217.59808836805556,50.28520833333333L218.084421875,57.783125L218.15389809027778,48.343124999999986L218.1935987847222,47.322916666666686L218.36374461805556,45.940104166666686L219.1152220486111,46.923437500000006L219.64692777777776,39.45625000000001L220.02550225694443,51.64343749999999L220.35019722222222,42.94093749999999L220.48206024305554,46.75749999999999L220.61675902777776,42.461562499999985L220.82660555555557,46.68375L221.0265269097222,44.79697916666666L221.11727135416666,45.50375L221.24062708333332,41.87156250000001L221.3058496527778,45.07354166666667L221.5483074652778,44.99364583333332L221.6418876736111,47.51343750000001L221.78084010416666,51.514375L222.01762638888889,39.9909375L222.1083708333333,48.48447916666666L222.3820220486111,45.39927083333333L222.54224270833333,44.766250000000014L222.68403090277778,39.671354166666646L222.74783559027776,42.24031249999999L223.02006892361112,47.70395833333333L223.25260156250002,43.432604166666664L223.25827309027775,45.15958333333333L223.33625659722222,46.935729166666675L223.60990781249998,52.99552083333333L223.7729642361111,37.56947916666667L223.96579618055557,42.52916666666667L224.15437447916665,41.64416666666668L224.88741944444445,45.9646875L225.00368576388888,53.948125000000005L225.18659253472222,42.60291666666666L225.34681319444445,53.36427083333332L225.46875104166665,43.272812500000015L225.6615829861111,44.10864583333333L226.3988815972222,49.197395833333346L226.6243248263889,49.20354166666668L226.7533520833333,48.779479166666675L226.93342309027778,45.552916666666675L227.5657984375,48.93927083333335L227.91176163194444,47.05250000000001L228.17123402777779,51.649583333333325L228.68167152777778,40.98656249999999L228.85039947916667,51.72947916666668L229.0744248263889,38.626562500000006L229.40762708333335,38.23322916666666L229.57068350694445,47.37822916666667L229.71956111111112,45.95854166666666L230.27537083333334,42.21572916666668L230.51215711805554,43.856666666666655L230.51499288194447,44.44666666666666L230.99565486111112,41.23239583333333L230.99990850694445,39.683645833333316L231.01266944444447,39.013750000000016L231.24661996527777,45.44229166666668L231.5472109375,39.82499999999999L231.77548993055555,39.53L232.03354444444446,43.918125L232.2646592013889,47.943645833333335L232.47025208333335,43.82593749999998L232.7467390625,41.44749999999999L233.48120190972222,39.30875L234.01007187500002,40.580937500000005L234.22133628472224,43.97343749999999L234.29648402777778,47.20614583333332L234.80125,39.86802083333333L234.95296336805558,41.29999999999998L234.98841041666665,36.48781250000002L235.05646875000002,41.7240625L235.46340086805557,42.92864583333335L235.6817546875,39.84958333333333L236.46867916666667,44.37291666666667L237.50373298611112,40.83906250000001L237.56470190972223,32.247187499999995L237.67671458333334,38.00583333333333L237.78872725694444,49.25270833333333L238.27364288194445,42.66437500000001L238.39841649305555,36.86270833333333L238.52744375,46.16750000000002L238.60542725694444,41.502812500000005L238.7259472222222,42.350937499999986L239.25339930555555,40.64239583333335L239.33847222222224,36.248125000000016L239.5894373263889,47.021770833333335L240.09278541666666,38.28239583333331L240.2076338541667,48.36156249999999L240.56494010416665,47.23072916666666L240.57061163194444,43.73989583333332L241.20298697916667,46.708333333333314L241.30365659722221,41.74864583333334L241.4752203125,55.91479166666666L241.58014357638888,39.44395833333334L241.96297170138888,47.22458333333333L242.0877453125,42.47999999999999L242.5244529513889,47.97437499999998L243.00369704861112,42.897916666666674L243.27593038194445,43.18677083333333L243.32130260416668,47.69166666666666L243.33122777777777,54.45822916666667L243.81614340277775,41.92072916666669L244.33508819444444,40.458020833333336L244.48113003472224,47.826875L244.76612430555556,35.45531249999999L244.93768802083332,39.25036458333332L245.05253645833332,39.75125L245.09081927083335,37.440416666666664L245.47222951388886,38.276250000000005L245.78416354166666,42.910208333333344L246.0351286458333,33.255104166666655L246.0408001736111,37.18843749999999L246.0464717013889,47.12625L246.04788958333333,41.28156250000001L246.05214322916666,37.34822916666667L246.05781475694445,37.89520833333333L246.06065052083332,36.39869791666666L246.06915781249998,41.71177083333333L246.0734114583333,47.408958333333345L246.07624722222224,43.48177083333334L246.0790829861111,34.226145833333334L246.08191875,38.45447916666666L246.08617239583336,36.62916666666666L246.08900815972223,43.328125L246.09326180555556,32.24104166666669L246.09467968750002,38.09187499999999L246.09893333333335,46.03229166666668L246.10176909722222,40.51333333333335L246.11027638888888,43.40802083333335L246.1173657986111,43.25437500000001L246.11878368055557,44.3790625L246.12445520833333,48.79791666666668L246.13438038194442,45.153437499999995L246.1457234375,46.27197916666668L246.14714131944444,40.095416666666665L246.14997708333334,39.32104166666667L246.15423072916667,37.68625L246.1556486111111,30.489479166666655L246.15990225694443,37.901354166666664L246.16699166666666,35.934687499999995L246.17549895833335,48.71802083333333L246.17691684027778,38.95229166666667L246.18258836805555,35.559791666666655L246.18542413194444,40.470312500000006L246.19393142361113,47.63635416666668L246.19534930555554,44.04718750000001L246.19818506944446,39.25343750000002L246.20385659722223,37.901354166666664L246.21378177083332,44.87072916666668L246.2222890625,45.675833333333344L246.22654270833334,34.58260416666667L246.23505,41.34916666666666L246.24355729166666,38.823229166666664" style="fill: none;" fill="none"></path></g></g></g></g></g></g><g transform="translate(74, 177)" clip-path="url(#clip_1)"><clipPath id="clip_1"><rect width="255" height="23"></rect></clipPath><g><g><line x1="0" y1="0" x2="0" y2="5" style="visibility: inherit;" fill="rgb(0, 0, 0)" stroke="rgb(204, 204, 204)" stroke-width="1px"></line><line x1="28.357638888888886" y1="0" x2="28.357638888888886" y2="5" style="visibility: inherit;" fill="rgb(0, 0, 0)" stroke="rgb(204, 204, 204)" stroke-width="1px"></line><line x1="56.71527777777777" y1="0" x2="56.71527777777777" y2="5" style="visibility: inherit;" fill="rgb(0, 0, 0)" stroke="rgb(204, 204, 204)" stroke-width="1px"></line><line x1="85.07291666666666" y1="0" x2="85.07291666666666" y2="5" style="visibility: inherit;" fill="rgb(0, 0, 0)" stroke="rgb(204, 204, 204)" stroke-width="1px"></line><line x1="113.43055555555554" y1="0" x2="113.43055555555554" y2="5" style="visibility: inherit;" fill="rgb(0, 0, 0)" stroke="rgb(204, 204, 204)" stroke-width="1px"></line><line x1="141.78819444444446" y1="0" x2="141.78819444444446" y2="5" style="visibility: inherit;" fill="rgb(0, 0, 0)" stroke="rgb(204, 204, 204)" stroke-width="1px"></line><line x1="170.14583333333331" y1="0" x2="170.14583333333331" y2="5" style="visibility: inherit;" fill="rgb(0, 0, 0)" stroke="rgb(204, 204, 204)" stroke-width="1px"></line><line x1="198.50347222222223" y1="0" x2="198.50347222222223" y2="5" style="visibility: inherit;" fill="rgb(0, 0, 0)" stroke="rgb(204, 204, 204)" stroke-width="1px"></line><line x1="226.8611111111111" y1="0" x2="226.8611111111111" y2="5" style="visibility: inherit;" fill="rgb(0, 0, 0)" stroke="rgb(204, 204, 204)" stroke-width="1px"></line><line x1="255.21875" y1="0" x2="255.21875" y2="5" style="visibility: inherit;" fill="rgb(0, 0, 0)" stroke="rgb(204, 204, 204)" stroke-width="1px"></line></g><g transform="translate(0, 8)"><text x="0" y="0" dx="0em" dy="0.95em" style="text-anchor: middle; visibility: hidden; font-family: &quot;Helvetica Neue&quot;, sans-serif; font-size: 12px; font-weight: 200;" fill="rgb(50, 49, 63)" stroke="none" stroke-width="1px">-20k</text><text x="28.357638888888886" y="0" dx="0em" dy="0.95em" style="text-anchor: middle; visibility: inherit; font-family: &quot;Helvetica Neue&quot;, sans-serif; font-size: 12px; font-weight: 200;" fill="rgb(50, 49, 63)" stroke="none" stroke-width="1px">0</text><text x="56.71527777777777" y="0" dx="0em" dy="0.95em" style="text-anchor: middle; visibility: hidden; font-family: &quot;Helvetica Neue&quot;, sans-serif; font-size: 12px; font-weight: 200;" fill="rgb(50, 49, 63)" stroke="none" stroke-width="1px">20k</text><text x="85.07291666666666" y="0" dx="0em" dy="0.95em" style="text-anchor: middle; visibility: inherit; font-family: &quot;Helvetica Neue&quot;, sans-serif; font-size: 12px; font-weight: 200;" fill="rgb(50, 49, 63)" stroke="none" stroke-width="1px">40k</text><text x="113.43055555555554" y="0" dx="0em" dy="0.95em" style="text-anchor: middle; visibility: hidden; font-family: &quot;Helvetica Neue&quot;, sans-serif; font-size: 12px; font-weight: 200;" fill="rgb(50, 49, 63)" stroke="none" stroke-width="1px">60k</text><text x="141.78819444444446" y="0" dx="0em" dy="0.95em" style="text-anchor: middle; visibility: inherit; font-family: &quot;Helvetica Neue&quot;, sans-serif; font-size: 12px; font-weight: 200;" fill="rgb(50, 49, 63)" stroke="none" stroke-width="1px">80k</text><text x="170.14583333333331" y="0" dx="0em" dy="0.95em" style="text-anchor: middle; visibility: hidden; font-family: &quot;Helvetica Neue&quot;, sans-serif; font-size: 12px; font-weight: 200;" fill="rgb(50, 49, 63)" stroke="none" stroke-width="1px">100k</text><text x="198.50347222222223" y="0" dx="0em" dy="0.95em" style="text-anchor: middle; visibility: inherit; font-family: &quot;Helvetica Neue&quot;, sans-serif; font-size: 12px; font-weight: 200;" fill="rgb(50, 49, 63)" stroke="none" stroke-width="1px">120k</text><text x="226.8611111111111" y="0" dx="0em" dy="0.95em" style="text-anchor: middle; visibility: hidden; font-family: &quot;Helvetica Neue&quot;, sans-serif; font-size: 12px; font-weight: 200;" fill="rgb(50, 49, 63)" stroke="none" stroke-width="1px">140k</text><text x="255.21875" y="0" dx="0em" dy="0.95em" style="text-anchor: middle; visibility: hidden; font-family: &quot;Helvetica Neue&quot;, sans-serif; font-size: 12px; font-weight: 200;" fill="rgb(50, 49, 63)" stroke="none" stroke-width="1px">160k</text></g><line x1="0" y1="0" x2="255.21875" y2="0" fill="rgb(0, 0, 0)" stroke="rgb(204, 204, 204)" stroke-width="1px"></line></g></g></g></g></svg>