<svg viewBox="0 0 330 200" xmlns="http://www.w3.org/2000/svg"><g><g><g><g><g><line x1="85.578125" y1="177" x2="80.578125" y2="177" style="visibility: inherit;" fill="rgb(0, 0, 0)" stroke="rgb(204, 204, 204)" stroke-width="1px"></line><line x1="85.578125" y1="165.2" x2="80.578125" y2="165.2" style="visibility: inherit;" fill="rgb(0, 0, 0)" stroke="rgb(204, 204, 204)" stroke-width="1px"></line><line x1="85.578125" y1="153.4" x2="80.578125" y2="153.4" style="visibility: inherit;" fill="rgb(0, 0, 0)" stroke="rgb(204, 204, 204)" stroke-width="1px"></line><line x1="85.578125" y1="141.6" x2="80.578125" y2="141.6" style="visibility: inherit;" fill="rgb(0, 0, 0)" stroke="rgb(204, 204, 204)" stroke-width="1px"></line><line x1="85.578125" y1="129.8" x2="80.578125" y2="129.8" style="visibility: inherit;" fill="rgb(0, 0, 0)" stroke="rgb(204, 204, 204)" stroke-width="1px"></line><line x1="85.578125" y1="118" x2="80.578125" y2="118" style="visibility: inherit;" fill="rgb(0, 0, 0)" stroke="rgb(204, 204, 204)" stroke-width="1px"></line><line x1="85.578125" y1="106.2" x2="80.578125" y2="106.2" style="visibility: inherit;" fill="rgb(0, 0, 0)" stroke="rgb(204, 204, 204)" stroke-width="1px"></line><line x1="85.578125" y1="94.4" x2="80.578125" y2="94.4" style="visibility: inherit;" fill="rgb(0, 0, 0)" stroke="rgb(204, 204, 204)" stroke-width="1px"></line><line x1="85.578125" y1="82.6" x2="80.578125" y2="82.6" style="visibility: inherit;" fill="rgb(0, 0, 0)" stroke="rgb(204, 204, 204)" stroke-width="1px"></line><line x1="85.578125" y1="70.8" x2="80.578125" y2="70.8" style="visibility: inherit;" fill="rgb(0, 0, 0)" stroke="rgb(204, 204, 204)" stroke-width="1px"></line><line x1="85.578125" y1="59" x2="80.578125" y2="59" style="visibility: inherit;" fill="rgb(0, 0, 0)" stroke="rgb(204, 204, 204)" stroke-width="1px"></line><line x1="85.578125" y1="47.20000000000002" x2="80.578125" y2="47.20000000000002" style="visibility: inherit;" fill="rgb(0, 0, 0)" stroke="rgb(204, 204, 204)" stroke-width="1px"></line><line x1="85.578125" y1="35.400000000000006" x2="80.578125" y2="35.400000000000006" style="visibility: inherit;" fill="rgb(0, 0, 0)" stroke="rgb(204, 204, 204)" stroke-width="1px"></line><line x1="85.578125" y1="23.599999999999994" x2="80.578125" y2="23.599999999999994" style="visibility: inherit;" fill="rgb(0, 0, 0)" stroke="rgb(204, 204, 204)" stroke-width="1px"></line><line x1="85.578125" y1="11.800000000000011" x2="80.578125" y2="11.800000000000011" style="visibility: inherit;" fill="rgb(0, 0, 0)" stroke="rgb(204, 204, 204)" stroke-width="1px"></line><line x1="85.578125" y1="0" x2="80.578125" y2="0" style="visibility: inherit;" fill="rgb(0, 0, 0)" stroke="rgb(204, 204, 204)" stroke-width="1px"></line></g><g transform="translate(75.578125, 0)"><text x="0" y="177" dx="0em" dy="0.3em" style="text-anchor: end; visibility: hidden; font-family: &quot;Helvetica Neue&quot;, sans-serif; font-size: 12px; font-weight: 200;" fill="rgb(50, 49, 63)" stroke="none" stroke-width="1px">-3.6e+4</text><text x="0" y="165.2" dx="0em" dy="0.3em" style="text-anchor: end; visibility: inherit; font-family: &quot;Helvetica Neue&quot;, sans-serif; font-size: 12px; font-weight: 200;" fill="rgb(50, 49, 63)" stroke="none" stroke-width="1px">-3.4e+4</text><text x="0" y="153.4" dx="0em" dy="0.3em" style="text-anchor: end; visibility: hidden; font-family: &quot;Helvetica Neue&quot;, sans-serif; font-size: 12px; font-weight: 200;" fill="rgb(50, 49, 63)" stroke="none" stroke-width="1px">-3.2e+4</text><text x="0" y="141.6" dx="0em" dy="0.3em" style="text-anchor: end; visibility: hidden; font-family: &quot;Helvetica Neue&quot;, sans-serif; font-size: 12px; font-weight: 200;" fill="rgb(50, 49, 63)" stroke="none" stroke-width="1px">-3e+4</text><text x="0" y="129.8" dx="0em" dy="0.3em" style="text-anchor: end; visibility: inherit; font-family: &quot;Helvetica Neue&quot;, sans-serif; font-size: 12px; font-weight: 200;" fill="rgb(50, 49, 63)" stroke="none" stroke-width="1px">-2.8e+4</text><text x="0" y="118" dx="0em" dy="0.3em" style="text-anchor: end; visibility: hidden; font-family: &quot;Helvetica Neue&quot;, sans-serif; font-size: 12px; font-weight: 200;" fill="rgb(50, 49, 63)" stroke="none" stroke-width="1px">-2.6e+4</text><text x="0" y="106.2" dx="0em" dy="0.3em" style="text-anchor: end; visibility: hidden; font-family: &quot;Helvetica Neue&quot;, sans-serif; font-size: 12px; font-weight: 200;" fill="rgb(50, 49, 63)" stroke="none" stroke-width="1px">-2.4e+4</text><text x="0" y="94.4" dx="0em" dy="0.3em" style="text-anchor: end; visibility: inherit; font-family: &quot;Helvetica Neue&quot;, sans-serif; font-size: 12px; font-weight: 200;" fill="rgb(50, 49, 63)" stroke="none" stroke-width="1px">-2.2e+4</text><text x="0" y="82.6" dx="0em" dy="0.3em" style="text-anchor: end; visibility: hidden; font-family: &quot;Helvetica Neue&quot;, sans-serif; font-size: 12px; font-weight: 200;" fill="rgb(50, 49, 63)" stroke="none" stroke-width="1px">-2e+4</text><text x="0" y="70.8" dx="0em" dy="0.3em" style="text-anchor: end; visibility: hidden; font-family: &quot;Helvetica Neue&quot;, sans-serif; font-size: 12px; font-weight: 200;" fill="rgb(50, 49, 63)" stroke="none" stroke-width="1px">-1.8e+4</text><text x="0" y="59" dx="0em" dy="0.3em" style="text-anchor: end; visibility: inherit; font-family: &quot;Helvetica Neue&quot;, sans-serif; font-size: 12px; font-weight: 200;" fill="rgb(50, 49, 63)" stroke="none" stroke-width="1px">-1.6e+4</text><text x="0" y="47.20000000000002" dx="0em" dy="0.3em" style="text-anchor: end; visibility: hidden; font-family: &quot;Helvetica Neue&quot;, sans-serif; font-size: 12px; font-weight: 200;" fill="rgb(50, 49, 63)" stroke="none" stroke-width="1px">-1.4e+4</text><text x="0" y="35.400000000000006" dx="0em" dy="0.3em" style="text-anchor: end; visibility: hidden; font-family: &quot;Helvetica Neue&quot;, sans-serif; font-size: 12px; font-weight: 200;" fill="rgb(50, 49, 63)" stroke="none" stroke-width="1px">-1.2e+4</text><text x="0" y="23.599999999999994" dx="0em" dy="0.3em" style="text-anchor: end; visibility: inherit; font-family: &quot;Helvetica Neue&quot;, sans-serif; font-size: 12px; font-weight: 200;" fill="rgb(50, 49, 63)" stroke="none" stroke-width="1px">-1e+4</text><text x="0" y="11.800000000000011" dx="0em" dy="0.3em" style="text-anchor: end; visibility: hidden; font-family: &quot;Helvetica Neue&quot;, sans-serif; font-size: 12px; font-weight: 200;" fill="rgb(50, 49, 63)" stroke="none" stroke-width="1px">-8e+3</text><text x="0" y="0" dx="0em" dy="0.3em" style="text-anchor: end; visibility: hidden; font-family: &quot;Helvetica Neue&quot;, sans-serif; font-size: 12px; font-weight: 200;" fill="rgb(50, 49, 63)" stroke="none" stroke-width="1px">-6e+3</text></g><line x1="85.578125" y1="0" x2="85.578125" y2="177" fill="rgb(0, 0, 0)" stroke="rgb(204, 204, 204)" stroke-width="1px"></line></g></g><g transform="translate(85, 0)" clip-path="url(#clip_0)"><clipPath id="clip_0"><rect width="244" height="177"></rect></clipPath><g><g><g><line x1="0" y1="0" x2="0" y2="177" fill="rgb(0, 0, 0)" stroke="rgb(60, 60, 60)" stroke-width="1px" opacity="0.25"></line><line x1="27.15798611111111" y1="0" x2="27.15798611111111" y2="177" fill="rgb(0, 0, 0)" stroke="rgb(60, 60, 60)" stroke-width="1px" opacity="0.25"></line><line x1="54.31597222222222" y1="0" x2="54.31597222222222" y2="177" fill="rgb(0, 0, 0)" stroke="rgb(60, 60, 60)" stroke-width="1px" opacity="0.25"></line><line x1="81.47395833333333" y1="0" x2="81.47395833333333" y2="177" fill="rgb(0, 0, 0)" stroke="rgb(60, 60, 60)" stroke-width="1px" opacity="0.25"></line><line x1="108.63194444444444" y1="0" x2="108.63194444444444" y2="177" fill="rgb(0, 0, 0)" stroke="rgb(60, 60, 60)" stroke-width="1px" opacity="0.25"></line><line x1="135.78993055555557" y1="0" x2="135.78993055555557" y2="177" fill="rgb(0, 0, 0)" stroke="rgb(60, 60, 60)" stroke-width="1px" opacity="0.25"></line><line x1="162.94791666666666" y1="0" x2="162.94791666666666" y2="177" fill="rgb(0, 0, 0)" stroke="rgb(60, 60, 60)" stroke-width="1px" opacity="0.25"></line><line x1="190.10590277777777" y1="0" x2="190.10590277777777" y2="177" fill="rgb(0, 0, 0)" stroke="rgb(60, 60, 60)" stroke-width="1px" opacity="0.25"></line><line x1="217.26388888888889" y1="0" x2="217.26388888888889" y2="177" fill="rgb(0, 0, 0)" stroke="rgb(60, 60, 60)" stroke-width="1px" opacity="0.25"></line><line x1="244.421875" y1="0" x2="244.421875" y2="177" fill="rgb(0, 0, 0)" stroke="rgb(60, 60, 60)" stroke-width="1px" opacity="0.25"></line></g><g><line x1="0" y1="177" x2="244.421875" y2="177" fill="rgb(0, 0, 0)" stroke="rgb(60, 60, 60)" stroke-width="1px" opacity="0.25"></line><line x1="0" y1="165.2" x2="244.421875" y2="165.2" fill="rgb(0, 0, 0)" stroke="rgb(60, 60, 60)" stroke-width="1px" opacity="0.25"></line><line x1="0" y1="153.4" x2="244.421875" y2="153.4" fill="rgb(0, 0, 0)" stroke="rgb(60, 60, 60)" stroke-width="1px" opacity="0.25"></line><line x1="0" y1="141.6" x2="244.421875" y2="141.6" fill="rgb(0, 0, 0)" stroke="rgb(60, 60, 60)" stroke-width="1px" opacity="0.25"></line><line x1="0" y1="129.8" x2="244.421875" y2="129.8" fill="rgb(0, 0, 0)" stroke="rgb(60, 60, 60)" stroke-width="1px" opacity="0.25"></line><line x1="0" y1="118" x2="244.421875" y2="118" fill="rgb(0, 0, 0)" stroke="rgb(60, 60, 60)" stroke-width="1px" opacity="0.25"></line><line x1="0" y1="106.2" x2="244.421875" y2="106.2" fill="rgb(0, 0, 0)" stroke="rgb(60, 60, 60)" stroke-width="1px" opacity="0.25"></line><line x1="0" y1="94.4" x2="244.421875" y2="94.4" fill="rgb(0, 0, 0)" stroke="rgb(60, 60, 60)" stroke-width="1px" opacity="0.25"></line><line x1="0" y1="82.6" x2="244.421875" y2="82.6" fill="rgb(0, 0, 0)" stroke="rgb(60, 60, 60)" stroke-width="1px" opacity="0.25"></line><line x1="0" y1="70.8" x2="244.421875" y2="70.8" fill="rgb(0, 0, 0)" stroke="rgb(60, 60, 60)" stroke-width="1px" opacity="0.25"></line><line x1="0" y1="59" x2="244.421875" y2="59" fill="rgb(0, 0, 0)" stroke="rgb(60, 60, 60)" stroke-width="1px" opacity="0.25"></line><line x1="0" y1="47.20000000000002" x2="244.421875" y2="47.20000000000002" fill="rgb(0, 0, 0)" stroke="rgb(60, 60, 60)" stroke-width="1px" opacity="0.25"></line><line x1="0" y1="35.400000000000006" x2="244.421875" y2="35.400000000000006" fill="rgb(0, 0, 0)" stroke="rgb(60, 60, 60)" stroke-width="1px" opacity="0.25"></line><line x1="0" y1="23.599999999999994" x2="244.421875" y2="23.599999999999994" fill="rgb(0, 0, 0)" stroke="rgb(60, 60, 60)" stroke-width="1px" opacity="0.25"></line><line x1="0" y1="11.800000000000011" x2="244.421875" y2="11.800000000000011" fill="rgb(0, 0, 0)" stroke="rgb(60, 60, 60)" stroke-width="1px" opacity="0.25"></line><line x1="0" y1="0" x2="244.421875" y2="0" fill="rgb(0, 0, 0)" stroke="rgb(60, 60, 60)" stroke-width="1px" opacity="0.25"></line></g></g></g><g><g><line x1="0" y1="-35.400000000000006" x2="244.421875" y2="-35.400000000000006" fill="rgb(0, 0, 0)" stroke="rgb(153, 153, 153)" stroke-width="1.5px"></line></g></g><g><g><line x1="27.15798611111111" y1="0" x2="27.15798611111111" y2="177" fill="rgb(0, 0, 0)" stroke="rgb(153, 153, 153)" stroke-width="1.5px"></line></g></g><g><g><g><g><g><path stroke="rgb(255, 112, 67)" stroke-width="2px" d="M28.727717708333333,141.44881250000003L30.912577690972224,141.4437664473684L31.07145190972222,143.67636185424354L31.988033940972223,145.45526034094217L33.398891319444445,144.47834943743743L35.08947595486111,143.8340670338474L40.0118609375,143.37138382210355L40.29023029513889,143.03640375500265L41.08460138888889,142.77750970916463L46.06130234375,142.5741889087035L46.76740998263889,142.40645030371414L48.50280529513889,142.27127320571077L48.72142708333333,144.65026113498183L49.32026067708333,145.36927964335754L50.00192612847222,144.7518345937523L52.30628125,138.49669985056573L52.33208133680555,132.46690877707243L52.67155616319444,125.18954199945641L53.65467526041667,117.87927796413507L54.70433142361111,112.86417120275893L56.93943368055555,118.21634299741218L57.00053914930555,118.53704537876243L57.634678125,112.29842310965645L58.25116440972222,106.46344979438297L58.64088151041667,101.74048876828654L60.65871987847222,97.39950874217587L61.54814392361111,93.44226420114036L61.997608593749995,89.40564211985995L62.14697751736111,85.95926341025718L62.18635659722222,82.65508571195318L63.14231770833334,79.30932419275766L63.54561380208334,76.41976986401735L63.74929869791666,73.71159066008053L63.84570954861111,71.14609152995436L63.91903611111112,69.06646131115353L64.19740546875,67.3047894065031L64.45948003472223,65.16803628817202L65.55258897569445,62.68355171331059L65.70331579861111,60.00687220279434L65.90564279513889,57.46029336125699L66.37819175347222,54.58841058328484L66.51126588541666,51.56614920471576L66.59817144097222,48.79465128845135L66.62261362847222,46.38295330234513L66.87925659722222,44.33119467253917L66.89690928819445,42.69229229053167L67.02862552083333,41.42201325769133L67.16984704861112,41.14149457981449L67.25539470486112,39.691057124782446L67.64239600694445,38.29486261465334L68.65403098958333,37.10860526986423L69.39272821180556,36.676895671154256L69.51901284722223,35.96405037144771L69.86799296875,35.635336636838844L70.11648854166667,35.37073867217873L70.12056223958334,34.85685544107312L70.26993116319444,34.107161563038346L70.33511032986112,33.6237087891553L70.72075373263888,33.520734804338275L70.85518576388888,33.39924613250986L71.03578637152778,33.41990273988145L72.06100034722222,34.08294945733559L72.15469539930555,34.71768665534901L72.26875894097222,35.01081390475164L72.38282248263889,34.767786508869534L72.87302413194445,34.99452533218138L72.94906649305555,35.88765294612696L73.01424565972222,36.208844860807886L73.90774340277778,36.415046744691864L74.00687005208334,36.786973549154254L74.01230164930556,36.88488453328654L74.2458603298611,36.89856083357395L74.44682942708333,37.05599150450411L74.65051432291666,37.35539856479221L75.12849487847222,37.73054594602422L75.36748515625,38.184181157245916L75.62548602430556,38.496114650079704L76.0735927951389,38.699433962183036L76.1102560763889,38.89260933417904L76.2867829861111,39.03082922328241L76.3234462673611,39.16414688981371L77.06214348958333,39.46182934290343L77.19250182291667,39.666753108893175L77.49667126736111,39.61040534605243L77.76825112847223,39.81305783003779L77.96786232638888,39.81410466857858L78.32770564236111,39.73234597079028L78.51373784722223,39.8742825347928L78.6794015625,39.96352214718797L78.7744545138889,40.40333968660295L79.21848758680555,40.58865373550216L79.28774045138888,40.651716628162745L79.6054888888889,40.79817591121184L79.78201579861111,40.82179106287495L80.01421657986111,40.481874478972486L80.05902725694445,40.39031551192346L80.33739661458333,40.422285125556414L80.81266137152778,40.51475198891035L80.92672491319445,40.56757647401068L81.3829790798611,40.82617788292478L81.49840052083334,40.87958121500279L81.55814809027778,40.944597617313065L81.65727473958333,40.983107038749694L81.72788550347222,40.98118473887493L81.82293845486112,40.952424876410845L82.02390755208333,40.93203553845757L82.04156024305556,40.94109288092844L82.06464453125,40.87550284289145L82.20450815972222,40.92429556070036L83.00295295138889,41.20229357927761L83.29761710069445,41.26398473556097L83.59363914930556,41.15091291377129L83.9195349826389,41.30686955034341L84.10964088541667,41.441182786449474L84.37443125,41.811359344709984L84.39208394097221,41.91532017192179L84.53058967013888,41.94464828464416L85.07782309027778,41.85276652737255L85.33718185763888,41.79406028899433L85.46210859375,41.74277346947713L85.48383498263888,41.69113940996422L85.69838307291667,41.60843900264922L85.86268888888888,41.51400394257283L86.08131067708334,41.45235435519808L86.24290069444444,41.36795969625135L86.50769105902778,41.38397094160399L86.60545980902778,41.273549770643825L87.19207230902778,41.41071498425069L87.22873559027778,41.616634680946845L87.23145138888889,41.74239072944951L87.35366232638889,41.668633144260724L87.38353611111111,41.62396150784255L87.49081015624999,41.569680000002364L88.17247560763889,41.76742839608832L88.25259166666666,41.98303288732916L88.35714991319445,42.00730430061989L88.45220286458333,41.993453550598616L88.78488819444443,42.155185461429L88.81747777777778,42.226146008740756L88.93968871527778,42.07281666016942L89.04288906250001,41.94521901156702L89.06733125,41.86874958609252L89.40544817708334,42.14944689532058L89.46519574652778,42.056961244465526L89.47877473958333,41.98644604117166L89.556175,41.85918859800296L89.72862821180556,41.76803565858597L89.7666493923611,41.61093894117775L89.85627074652778,41.51525847000681L90.08847152777778,41.512649497648994L90.29894592013889,41.38138640671215L90.39807256944444,41.26855962853051L90.52299930555556,41.22623678645388L90.81766345486112,41.20328341824694L90.93172699652779,41.22063429657479L91.3499599826389,41.155447737174995L91.3553915798611,41.118923273566054L91.3744021701389,41.06475594301753L92.06014131944444,41.1535122284229L92.13075208333333,41.121716941562994L92.26382621527779,41.060190244763646L92.27604730902779,41.05395215754609L92.31135269097223,40.9862403769354L92.67255390625,41.30859697433689L92.684775,41.53804009587L92.90611258680555,42.633539864071736L92.93191267361111,42.51565493747327L93.01746032986111,42.334858971261184L93.20349253472223,42.30397994856406L93.27546119791667,42.130753825824684L93.39224053819444,42.04406469194379L93.60407282986111,41.972276346781626L93.71813637152778,42.0506127755539L94.47584418402778,41.96966993461467L94.59805512152778,41.93314325329422L94.85741388888889,41.78171611412546L94.89271927083333,41.66272606426574L95.84189088541666,41.85242345919818L95.87040677083333,41.75617611265781L96.07409166666667,41.75439653849105L96.54392482638889,41.641696884053346L96.76797821180556,41.54065438267307L97.37631710069445,41.44209222523881L99.26379713541667,41.3726903462007L99.39822916666667,41.293127873808004L99.54759809027779,41.262019617581274L99.65487213541667,41.21203546818441L99.95904157986111,41.134396921172055L100.65971762152778,41.06091769763964L100.76156006944446,41.15109030305808L101.17164565972223,41.10074939766065L101.39434114583334,41.1783100830217L101.45001501736111,41.224459387287595L101.52741527777778,41.14836251095781L101.57629965277778,41.1164553223239L101.92527977430557,41.079985883802294L102.27969149305557,41.06347135790608L103.08085208333334,44.16115328731357L103.23836840277778,43.79874358329812L103.47328498263889,43.472390474738035L103.75165434027778,43.16249377081746L103.75980173611111,42.89052211818969L104.27580347222222,42.65086115624746L104.37900381944445,42.40007972800663L104.44282508680556,42.499761442747456L104.46183567708333,42.61600654851631L104.46998307291666,42.67882933118588L104.47948836805556,42.726630460581816L104.92623723958334,42.76105960203304L106.25697855902777,42.83259911059736L106.78248559027777,42.576384199480884L107.10702352430556,42.38681421699502L107.41526666666667,42.21122310776403L107.46415104166667,42.03619173445935L107.70857291666667,41.895644435993006L107.95435269097223,41.7539409298752L108.12273220486111,41.80993464939428L108.31012230902778,41.650399621937964L108.60071276041667,41.530584034732726L108.63330234375,41.41318094374941L109.09227230902778,42.83246534948401L109.75628506944444,42.617490064520695L110.02243333333334,42.362965745552714L110.24648671875,42.20834448348873L110.27228680555555,42.060120435522975L110.30759218749999,41.89204073571301L110.38091875,41.753629162136036L110.69323559027778,41.6150185896673L110.84532031250001,41.68226798070282L111.45230130208334,41.52982720801859L111.53377526041666,41.46832854971507L111.67907048611112,41.34323069474053L112.09051397569445,41.45622543776895L112.2140828125,41.54912601899386L112.40690451388889,41.4488777920927L112.46122048611112,41.32834313788152L112.63231579861112,41.28522288659275L112.78168472222222,41.178730597932116L112.83600069444445,41.107501600638074L112.95413793402778,41.09061394057409L113.00845390625,41.13821317151712L113.35471822916666,41.0437299793646L113.48371866319445,40.9582894814275L114.08934175347221,40.93080553328457L114.2522896701389,40.85101560495565L114.45190086805555,40.80623404445981L114.81038628472221,40.76524845251362L115.12134522569444,40.68529141976188L115.25306145833333,40.61865852778541L115.38341979166667,40.53261830000659L115.45538845486111,40.470844751255726L116.20494887152778,40.44968058863009L116.25790694444444,40.45637159226709L116.26198064236111,40.431897870540325L116.3692546875,40.43122214598631L117.21251015624999,40.40644243138763L117.3197842013889,40.3664222507488L117.32114210069444,40.34522783817391L117.34422638888888,40.3196259918565L117.38496336805555,40.33091495517084L117.39446866319444,40.380734084653795L117.66876432291666,40.42216036368845L117.73122769097222,40.41102713981962L117.762459375,40.42110411333766L117.83171223958333,40.432846827003885L118.03811293402778,40.44861464430352L118.09378680555555,40.45487755487318L118.09514470486111,40.47533792438588L118.24587152777777,40.46613288194729L118.49979869791667,40.441273031252535L118.68583090277778,40.38589604062727L118.69669409722222,40.316734249064524L118.87729470486111,40.279130355408086L119.33354887152777,40.28749028861728L119.63500251736112,40.274152197255546L119.70018168402777,40.235266040029984L119.75178185763889,40.22237506102698L120.00163532986112,40.20645880492427L120.02064592013889,40.167225111931856L120.66564809027777,40.23315510073866L120.84081710069445,40.31087427816479L121.12190225694445,40.32786903784833L121.15720763888889,40.36687494656351L121.82393619791667,40.36726245190715L121.83751519097221,40.342370269216445L122.0181157986111,40.33438542979479L122.37388541666668,40.31621032431531L122.75409722222223,40.30475710438378L122.89260295138888,40.286060143945406L122.92655043402777,40.23246850455084L122.9903717013889,40.19469009159576L123.11529843750002,40.204386394936165L123.38823619791667,40.15022275544257L123.43983637152778,40.12992454239833L123.63265807291667,40.157288963158464L123.83905876736111,40.29687475434261L123.9463328125,40.30667759140837L124.02101727430555,40.290019519767554L124.12014392361111,40.2614019427908L124.2491443576389,40.238467061011704L124.25729175347222,40.231543167410535L124.38086059027778,40.20702166316951L124.410734375,40.19741605935252L124.85205164930555,40.19690195341727L124.99191527777779,40.20716988307555L125.20510546874999,40.190119144768005L125.43594835069443,40.1805905115412L125.64913854166667,40.169516460387115L126.17871927083333,40.17068606434839L126.28191961805555,40.180625582913535L126.29821440972222,40.1707833371222L126.92963758680555,40.174905315909996L126.96765876736112,40.17144290931898L127.17949105902777,40.16777361838706L127.20800694444445,40.140668444048345L127.22022803819445,40.12027472464351L127.49316579861112,40.1090003771792L127.78918784722221,40.09938815196125L128.03225182291666,40.09553089926513L128.10693628472222,40.09355280933863L128.4409795138889,40.05097034090477L128.62701171875,40.01500611931431L128.82119131944444,40.02119113238285L128.90809687499998,40.02930201914458L129.31410876736112,40.106019004730115L129.8613421875,40.07863616675712L130.16822743055556,40.06298911258139L130.31352265625,40.00430645132329L130.4900495659722,40.02055893119095L130.64485008680555,40.02351522557183L130.84038758680558,40.01614589051468L131.2939259548611,40.010509113963195L131.5695795138889,40.04352789006688L131.645621875,40.1540194760602L132.04891796875,40.121560028454184L132.14261302083332,40.08202152560878L132.33950842013888,40.06247749804788L132.36938220486113,40.02809131074309L132.70478333333335,40.02090967966879L132.96414210069443,40.013266211701904L133.0877109375,40.01922880928174L133.12030052083333,40.02991436585353L133.1664690972222,40.00934917926821L133.58470208333333,40.010780667591405L133.89294522569446,40.003126819582235L133.90652421874998,39.992338825123994L133.97441918402777,39.98860338011161L134.10613541666666,39.991399604600446L134.55016848958334,39.96972620664039L134.5881896701389,39.971994835976375L135.1462862847222,39.981319414878726L135.16122317708334,39.98622684839086L135.263065625,39.977202601051744L135.45181362847222,39.97347812219661L135.4735400173611,39.975131872476936L135.6446353298611,39.97088618522923L135.68537230902777,39.94501381670631L136.09545789930556,39.93551993503567L136.1036052951389,39.945376066532106L136.1769318576389,39.92797314737891L136.55306996527779,39.92224833264103L136.77033385416667,39.91268943687692L137.0256189236111,39.914577368189185L137.09894548611112,39.914635568870295L137.17091414930553,39.90947013698326L137.48323098958335,39.906664998284924L137.66654739583333,39.90284974845645L137.73036866319444,39.90070664861079L137.87566388888888,39.89927567124968L137.94763255208335,39.898421072874726L138.3617918402778,39.893033340587266L138.6360875,39.84773250652856L138.65238229166667,39.80113550587569L138.81397230902778,39.80543945528811L138.85199348958335,39.80466675975933L138.9076673611111,39.81056274003336L138.94568854166667,39.815306778530044L139.11678385416667,39.85691235067705L139.36663732638888,39.87284080310934L139.47526927083334,39.885636879048405L139.69796475694443,39.89572444114356L139.80116510416664,39.864461997029196L139.8242493923611,39.86884954732628L139.87992326388888,39.86911084259367L140.01299739583334,39.87495100833431L140.2003875,39.867817157500866L140.61183098958335,39.86226325425079L140.8399580729167,39.88991755382571L140.87933715277777,39.892515485943136L140.88341085069445,39.89883612484883L141.13462222222222,39.90083719986396L141.23782256944446,39.888680979877535L141.34373871527777,39.8828199131398L141.42113897569445,39.86916510932582L141.47545494791666,39.88060484839323L141.72395052083334,39.88273280105392L142.34586840277777,39.88337577094853L142.73015390625,39.873942881353685L142.73286970486112,39.867979218218295L142.77089088541666,39.871904421396465L142.9569230902778,39.87265304175682L142.95828098958333,39.890805550081154L142.96507048611113,39.887728120073035L143.084565625,39.90511062056575L143.55032508680554,39.89175268350917L143.6317990451389,39.878863977658284L143.6467359375,39.873385392392436L143.83005234375,39.86592872815319L144.33247508680554,39.86294210533788L144.4261701388889,39.861544769804084L144.4356754340278,39.86386404282368L144.47369661458333,39.859959201041306L144.53751788194444,39.85568890593717L144.55652847222223,39.846148452843465L144.63121293402776,39.837119545059124L144.71132899305556,39.83459852805322L144.7289816840278,39.8334911752479L144.85662421875,39.84595393272312L145.11734088541667,39.86325478945079L145.1594357638889,39.86464712300571L145.2531308159722,39.86000944195516L145.40249973958333,39.887557247759645L146.10181788194444,39.878056522983684L146.22267092013888,39.860969308185304L146.31500807291667,39.85197018986679L146.43450321180555,39.84659973338009L146.44265060763888,39.85032132254207L146.71694626736112,39.85422387778789L146.84458880208334,39.8655536775091L147.09851597222223,39.86372924725816L147.38503272569446,39.856426947532356L147.40540121527778,39.855976127779115L147.7109285590278,39.8516616400012L147.9214029513889,39.85406578850109L147.9553504340278,39.85580545965098L148.21199340277778,39.84818928868589L148.7823111111111,39.838900984817286L148.91266944444445,39.84510713633554L149.00364869791667,39.85401142270203L149.01179609375,39.85588559293183L149.2467126736111,39.855507346138666L149.40558689236113,39.851479424024774L149.81159878472224,39.84931085662231L150.03972586805557,39.841661958460065L150.23254756944445,39.83581045011405L150.28686354166666,39.82853440510269L150.3656217013889,39.82270502709241L150.93050781250003,39.83030952438318L151.0744451388889,39.82507700944487L151.25911944444445,39.82995524600037L151.34466710069447,39.832501908900355L151.36503559027778,39.833282030510304L151.54835199652777,39.844106327459286L151.7832685763889,39.839798819713366L151.82943715277779,39.82456456274201L151.98287977430553,39.819021543967835L152.2721123263889,39.83208313957104L152.35901788194445,39.83283138811393L152.40382855902777,39.83175324930255L152.49344991319444,39.83541073687226L152.62109244791665,39.82539060068507L152.6563978298611,39.82119388436655L152.69849270833333,39.81360949592988L152.80440885416667,39.81775385883691L153.0637676215278,39.810034097953206L153.15746267361112,39.81038756315792L153.3597896701389,39.8210306818421L153.54853767361112,39.806705269907894L154.19218194444443,39.8241144304171L154.53708836805555,39.827189862375405L154.70682578125,39.82976415738784L154.81409982638888,39.81995836664905L154.86977369791668,39.82475846748417L154.9974162326389,39.81502918323574L155.0612375,39.81421938991218L155.10740607638888,39.80771963842096L155.28257508680556,39.787931112078866L155.34639635416664,39.77397487587098L155.4061439236111,39.77723363828389L155.5894603298611,39.79220621195549L155.71031336805555,39.797642778259956L155.75919774305555,39.794865687933935L156.05929348958333,39.78449349414055L156.12447265625002,39.76162539472648L156.24939939236108,39.77194535525385L156.4055578125,39.77137847597848L156.6404743923611,39.77658679049L156.72466414930557,39.785539673941L157.4008980034722,39.780561956546904L157.40904539930557,39.789504510892215L157.7688887152778,39.78573437230298L158.19662699652775,39.786379060072676L158.29032204861113,39.78513396656541L158.37586970486112,39.78563588240888L158.38673289930554,39.780630106667985L158.7737342013889,39.76851022100118L158.88643984375,39.78081513640106L158.9937138888889,39.775664560260964L159.19332508680557,39.774163416734865L159.77722178819445,39.77395551256134L160.02435946180555,39.77205371130523L160.34210789930555,39.77543084017472L160.38420277777777,39.789459006157244L160.54443489583335,39.80359623054153L160.7250355034722,39.80420629498738L160.77663567708333,39.80525316548864L161.17314227430555,39.80302409893977L161.3252269965278,39.8032120015458L161.4189220486111,39.80266205139122L161.55471197916668,39.7908649087521L161.6389017361111,39.79204748037688L161.8534498263889,39.79030929483923L161.86838671875,39.78360086535528L161.89147100694444,39.78167484131973L161.93356588541667,39.780153450937775L161.98923975694444,39.786739980844004L162.21465104166666,39.77609254525959L162.23366163194444,39.76437110323363L162.2784723090278,39.77941305541029L162.3843884548611,39.77349924986922L163.11086458333332,39.76646213738232L163.31047578125,39.76876382403472L163.3199810763889,39.757775254131246L163.34578116319443,39.75642210371811L163.49786588541667,39.7587073933463L163.53588706597222,39.75798931026168L163.62958211805557,39.75672537923549L163.6377295138889,39.762630966311974L163.70562447916666,39.76344724468075L163.76129835069443,39.75903783271269L163.8943724826389,39.756636549441424L164.21619461805554,39.75687226949728L164.3275423611111,39.758061605047544L164.39951102430555,39.7603304445428L164.43617430555557,39.768733337588515L164.58690112847222,39.75623594132969L164.68059618055557,39.75383828469671L164.94810234374998,39.75418789372705L165.0146394097222,39.75520316685433L165.02007100694445,39.76994503766889L165.10561866319443,39.766969283902L165.49669366319443,39.77743704301179L165.57816762152777,39.774597088710635L165.58224131944442,39.76073894233957L165.61618880208334,39.756692548105605L165.95023203125,39.75513423079505L166.47709696180556,39.772298307715545L166.51240234375,39.76723425819401L166.78941380208335,39.776679894874604L166.9795197048611,39.781696280387166L167.0229724826389,39.78169383984846L167.22665737847223,39.78853195586362L167.34886831597223,39.78707157277722L167.5851427951389,39.78867035299953L167.65711145833333,39.78393269269955L167.87301744791665,39.78280317342961L167.88659644097223,39.77811754358663L167.93548081597223,39.780593289227966L168.1921237847222,39.79478739780518L168.1961974826389,39.79430553302467L168.26680824652777,39.810613104722194L168.36186119791665,39.82254273174999L168.50036692708335,39.814546896075L168.65245164930556,39.803257518967484L168.80996796875,39.804804892070734L168.87786293402777,39.79515346536368L168.97970538194443,39.782834993827294L169.17116918402778,39.77248586944458L169.17524288194446,39.76391837625013L169.46447543402778,39.76759278862511L169.54459149305555,39.77538007226261L169.66408663194446,39.77390737753635L169.7659290798611,39.77970804603271L170.00899305555558,39.772603178929415L170.19502526041668,39.792260986036496L170.54400538194443,39.79039082493287L170.60782664930557,39.78164611743955L171.1591337673611,39.79272963069562L171.1727127604167,39.78308729262608L171.2664078125,39.77415106336346L171.3492396701389,39.771676582027084L171.63439852430554,39.76511673632439L171.84487291666665,39.76846850019194L171.93992586805555,39.76252446267276L172.13138967013887,39.7589448289055L172.14089496527777,39.76159550226495L172.23323211805555,39.759104389538464L172.56184374999998,39.755451919334604L172.62294921875002,39.75652516490115L172.74923385416668,39.75152655466104L172.80490772569445,39.73815014919492L173.25437239583334,39.776925134275444L173.28696197916665,39.77092824584793L173.48385737847224,39.77416901501314L173.53545755208333,39.779676176011805L173.54767864583332,39.79635887091064L173.81246901041666,39.789690796319576L173.91023776041666,39.7906773416876L174.59461901041666,39.795215857518855L174.6788087673611,39.80064645926697L174.7344826388889,39.79605712584029L174.77793541666665,39.792977663256266L174.84447248263888,39.785707396930604L174.8865673611111,39.78452946973755L175.09432595486112,39.786327147763785L175.21789479166665,39.773453182987424L175.31566354166668,39.77711442718868L175.42701128472223,39.777865171969836L175.4609587673611,39.77778490477283L175.4772535590278,39.76760891429555L175.71352803819443,39.770785210366L175.7882125,39.76245231432941L176.02856067708333,39.769997707896465L176.11818203125,39.76602106210683L176.20237178819443,39.759289268396145L176.86231085069443,39.76936346655654L176.95193220486112,39.77632836990088L177.04970095486112,39.76967209541078L177.41904956597222,39.76974738586972L177.73679800347222,39.76456045978273L177.78839817708334,39.75491410130448L178.183546875,39.75145019117403L178.46055833333332,39.75476735955661L179.10012890625,39.755245311100936L179.22369774305557,39.75097390499084L179.52107769097222,39.75103838949178L179.88227890625,39.76186392554263L179.92437378472223,39.76801159548833L179.9284474826389,39.7566557484395L179.95832126736113,39.76124079859554L180.10090069444445,39.76061046873599L180.2176800347222,39.7528341093624L180.44716501736113,39.74583538592617L180.50962838541668,39.73927840983353L180.66986050347222,39.73960900635018L180.74454496527778,39.73057716821515L180.84231371527778,39.722430076393664L181.1071040798611,39.73263175625431L181.34745225694442,39.73314764312886L181.58915833333333,39.731012253816004L181.95850694444445,39.72484977843439L182.02368611111112,39.71580042559094L182.1486128472222,39.72509788303185L182.289834375,39.72509496972867L182.3414345486111,39.73134266025579L182.4174769097222,39.73978651923022L182.45549809027779,39.73750349230721L182.85879418402777,39.731466268076474L183.23629019097223,39.72488964126882L183.6002072048611,39.71908130214197L183.60563880208332,39.72440004692777L183.61107039930556,39.733575042235L183.62329149305555,39.73604316301149L183.67896536458332,39.72231603421034L183.76722881944443,39.69185599328932L183.82290269097223,39.68820789396037L183.88672395833333,39.69456741706435L184.20039869791668,39.68993833160789L184.36063081597223,39.687514498447115L184.47333645833334,39.6925421111024L184.55616831597223,39.70012758749215L184.58196840277776,39.702566391242954L184.59283159722222,39.704134439618656L184.87934835069444,39.7107266206568L184.96761180555555,39.70672177109111L185.04772786458332,39.708722406481996L185.20117048611112,39.7151507908338L185.20931788194446,39.728569461750425L185.34239201388888,39.712270953075375L185.65470885416664,39.705346045267845L185.760625,39.703501753241085L185.8923412326389,39.70309564041696L185.9249308159722,39.72872701387527L185.98196258680554,39.72315259373772L186.07429973958332,39.73363233436396L186.13947890625,39.734416913427566L186.2277423611111,39.728208972084815L186.44364835069445,39.72566401237634L186.76682838541666,39.72896011113869L186.86459713541666,39.72394316252485L187.21221935763887,39.71998103377234L187.3099881076389,39.71955871164511L187.32628289930557,39.717989402980606L187.36973567708333,39.726072337682524L187.53947309027777,39.7314663539143L187.61008385416665,39.728190031022876L187.92104279513887,39.72356352792056L187.94276918402778,39.718994050128515L188.04053793402778,39.71454042636566L188.10843289930554,39.7131410712291L188.2143490451389,39.71162352660619L188.31619149305556,39.71602867394557L188.43976032986112,39.717596431551016L188.81725633680554,39.71620491339593L188.85391961805556,39.71349598455632L188.9408251736111,39.70847669860069L189.20018394097224,39.712016528740634L189.24771041666668,39.73080050086659L189.34276336805556,39.7338042007799L189.5097849826389,39.729704093201946L189.58582734375,39.72562680888174L189.6021221354167,39.72236287799356L189.97826024305556,39.723334090194214L190.05294470486112,39.74096786867477L190.10318697916668,39.73226108180731L190.15750295138886,39.72400091112658L190.16157664930554,39.71971957001395L190.2552717013889,39.71710167551254L190.29736657986112,39.71640494546128L190.45895659722223,39.71250811302451L190.56487274305556,39.71552783883146L190.72103116319443,39.71605786744831L190.94780034722223,39.71963239320348L191.14197994791667,39.719687435133125L191.24110659722223,39.74268244161982L191.4217072048611,39.73883763495783L191.74081354166665,39.73921230896204L191.95671953125,39.738037640565835L191.97437222222223,39.72754043900926L191.98116171875,39.73177358260833L192.46728967013888,39.7279318493475L192.55012152777778,39.72819866441273L192.57999531250002,39.72805161047148L192.67369036458334,39.72467426192435L193.09328125000002,39.7094843357319L193.39745069444444,39.7196346521587L193.5984197916667,39.71483118694283L193.79667309027778,39.71367931824855L194.11170572916666,39.70908419892368L194.22576927083333,39.71033234153134L194.23663246527778,39.705592544878186L194.58425468750002,39.70503266539038L194.6331390625,39.70321971135132L194.79337118055554,39.85801180271619L194.93459270833333,39.84171218494458L194.98347708333333,39.835560653950125L195.26184644097222,39.83325083855513L195.2781412326389,39.8244607546996L195.28221493055554,39.825270616729654L195.34332039930555,39.809368867556685L195.3759099826389,39.804239168301024L195.5714474826389,39.79798150147093L195.63798454861112,39.78814585132383L195.74390069444445,39.790319391191446L195.90956440972224,39.79635026457228L196.075228125,39.79344430061505L196.44457673611112,39.784984245553545L196.5491349826389,39.784192070998216L196.57221927083333,39.775403488898405L196.65640902777776,39.76677470250854L196.76775677083336,39.76299129475771L196.83972543402777,39.76010247778191L196.94156788194445,39.75416535500372L196.97551536458332,39.74773413200336L197.12216848958334,39.740102281303024L197.3217796875,39.744591115672705L197.65039131944445,39.744279816605456L197.75494956597223,39.7426537099449L197.94505546874998,39.742075213950415L198.0061609375,39.73919456755536L198.09985598958335,39.73418667329983L198.4515519097222,39.73234839659486L198.6851105902778,39.734588869435356L198.70140538194445,39.726022169991836L198.9050902777778,39.72406464049266L199.22691241319444,39.720256301443385L199.2988810763889,39.70919567129906L199.45096579861112,39.710100791669134L199.60712421875,39.71873290000221L199.68588237847223,39.729156797501986L199.72797725694446,39.7279920552518L199.76192473958335,39.71943050597662L199.76735633680553,39.73007964287896L199.96968333333334,39.72054417859107L200.00227291666667,39.718120385731964L200.15978923611112,39.713394597158754L200.27521067708335,39.71692201244289L200.3254529513889,39.7149894986986L200.40285321180556,39.71398773632876L200.58073802083334,39.71087365019588L200.74097013888888,39.70935237892627L201.12389774305555,39.70894198478365L201.22166649305555,39.70913497380528L201.7947,39.702154913924744L201.84086857638889,39.70315567253229L202.00653229166667,39.70765166777903L202.14232222222222,39.715828063501135L202.1803434027778,39.71481619465101L202.36773350694446,39.69928457518594L202.4817970486111,39.7087770551673L202.6691871527778,39.70847028715059L202.7751032986111,39.71005638343556L202.8552193576389,39.709142307592L203.1906204861111,39.70841182683279L203.38887378472222,39.70744095664952L203.42825286458336,39.69940420473458L203.59391657986112,39.70202597176109L203.75414869791666,39.70381399958501L204.48741432291666,39.702427130876515L204.6028357638889,39.71035160528885L204.62456215277777,39.71750206975997L204.93416319444444,39.72032373778396L205.1459954861111,39.71860417650558L205.16636397569445,39.72133407135499L205.37412256944444,39.720072939610134L205.81136614583332,39.71800970814911L206.06121961805556,39.71545217483421L206.11689348958333,39.70948133235078L206.15898836805553,39.711989605365716L206.34230477430555,39.71798064482914L206.57993715277777,39.70795883034623L206.9058329861111,39.71997638481159L207.3987504340278,39.71515718383043L207.56712994791667,39.711723340447406L207.67847769097224,39.72023006890268L208.31940616319446,39.714242374512395L208.47692248263888,39.72015563706117L208.81096571180555,39.71762319835506L208.88429227430555,39.71278119101956L209.15044053819443,39.71012885316756L209.40165190972223,39.71374315535084L209.45596788194445,39.72694593942512L209.59175781250002,39.722886345482635L209.75742152777778,39.72495755468435L209.84296918402777,39.71987992421592L210.30465494791667,39.718951463044334L210.3168760416667,39.7178853792399L210.3644025173611,39.71980215381589L210.53413993055554,39.71752631343429L211.08952074652777,39.71092399459087L211.23753177083333,39.7050372201318L211.54713281250002,39.710497404368596L211.5566381076389,39.70646016393175L211.63675416666666,39.713981335038596L211.76847039930556,39.70801007653472L211.78476519097222,39.70512500638125L211.8743865451389,39.71185781824312L212.0264712673611,39.70805328641882L212.07263984375,39.71229920777694L212.0943662326389,39.71114241199925L212.25595625,39.70748317079932L212.44198845486113,39.703175791219365L212.60357847222224,39.699299149597465L212.75158949652777,39.6992764221377L212.88330572916666,39.69879502992396L212.90367421874998,39.69736615193153L213.03403255208335,39.701703599238414L213.03946414930556,39.70357917681457L213.07341163194445,39.69848219663308L213.41288645833333,39.694632414469794L213.68854001736113,39.6978235480228L214.03344644097223,39.70034525572055L214.1719521701389,39.703149480148454L214.56574296875002,39.70073203213363L214.60919574652777,39.69442632892026L215.07902890625002,39.70044057102825L215.1469238715278,39.69657932642542L215.3628298611111,39.7028484250329L215.90598958333334,39.701318426279585L216.20201163194446,39.69134033365165L216.24546440972222,39.69685192528647L216.63925520833334,39.69709235775781L216.80356102430557,39.69655280948203L217.1864886284722,39.69162377853385L217.33449965277777,39.689068275680455L217.41597361111113,39.69274207311241L217.4838685763889,39.70392130330117L217.84371189236109,39.70666292297105L218.0338177951389,39.70560881817394L218.06912317708333,39.70150731135655L218.10307065972222,39.69959517397092L218.24565008680554,39.69930315657382L218.48464036458333,39.69970409091644L218.66252517361113,39.69386993182479L218.73449383680554,39.69721106364233L218.8091782986111,39.70237526977809L219.03458958333334,39.70300368030027L219.25456927083334,39.71016987477029L219.41208559027777,39.71184413729321L219.7936552951389,39.708391286063886L220.028571875,39.71374653245752L220.04758246527777,39.713256254211785L220.18065659722222,39.7143545350406L220.23089887152778,39.71232845653651L220.2824990451389,39.70973061088287L220.68986883680554,39.71900817479457L220.70208993055556,39.71566860731514L220.88540633680554,39.7137323715836L220.91256432291667,39.72214882192526L220.98317508680557,39.720468002232735L220.99539618055556,39.72627495200945L221.0035435763889,39.72020823805852L221.07008064236112,39.716490539252646L221.30092352430557,39.71270211032737L221.32808151041667,39.72531471179465L221.51275581597224,39.72486605311519L222.03690494791667,39.719945072803654L222.17948437500002,39.71798681552329L222.2500951388889,39.72105500897095L222.58685416666665,39.72409294557386L223.04039253472223,39.71738708851649L223.3065407986111,39.723096504664824L223.5754048611111,39.718122010448354L223.6514472222222,39.7118657469035L223.68267890625,39.70774698471317L223.96919565972223,39.71283478624184L224.22583862847222,39.70961474511765L224.35076536458334,39.72288639560588L224.35212326388887,39.719398693545315L224.42001822916666,39.71448976169077L224.50285008680555,39.70922359802171L224.70789288194445,39.70595905071954L224.84232491319446,39.70189627064758L224.89392508680555,39.69785258108283L225.1043994791667,39.70005794797453L225.14106276041667,39.698908403177086L225.38005303819443,39.698703500359386L225.40042152777778,39.69398346282344L225.49004288194442,39.69204011654111L225.99518142361111,39.70485672988701L226.26947708333333,39.70505261939829L226.27762447916666,39.70222360745845L226.52068845486113,39.69834999671261L226.9117634548611,39.693388747041354L226.93213194444442,39.69417830983724L227.16025902777778,39.698262978853506L227.17926961805557,39.69642636846817L227.2050697048611,39.69527123162135L227.51874444444445,39.70243629595919L227.80526119791668,39.7030586038633L227.85414557291668,39.70887336847696L228.01573559027779,39.71801540662926L228.0700515625,39.71372417846635L228.39187369791668,39.7057689481197L228.39594739583333,39.70316330330775L228.48556875,39.712433847976996L228.5154425347222,39.708995775679256L228.5833375,39.705956823111364L228.7150537326389,39.70362739080022L229.2038974826389,39.7077443392202L229.32475052083333,39.710546155298175L229.43474036458332,39.70335122726837L229.57731979166667,39.699733604541535L229.59225668402777,39.70007305658737L229.61805677083333,39.70461918842864L229.6682990451389,39.69925226958577L229.71582552083333,39.69949235512718L229.9004998263889,39.69867593211447L229.96975269097223,39.703048338903045L230.0159212673611,39.71316006751272L230.04579505208335,39.709815310761456L230.3092275173611,39.71813487343533L230.50340711805555,39.71517763609177L230.57265998263887,39.71544768498259L230.57673368055555,39.709292916484344L230.70844991319444,39.71439206233592L230.73289210069444,39.71297066860234L231.0859459201389,39.712613289242086L231.0981670138889,39.71254977281791L231.1035986111111,39.709321358036135L231.3357993923611,39.7058626597325L231.48109461805555,39.71255858125926L232.02425434027776,39.712518973133314L232.14239157986108,39.71731395082L232.7317198784722,39.713221930738L232.8118359375,39.706238800164186L233.14044756944446,39.708453670147776L233.17711085069445,39.707902678132996L233.38079574652778,39.7017556915697L233.61299652777777,39.70023355991273L233.65509140625,39.69749926642146L233.84248151041666,39.7072440272793L234.21861961805556,39.699992124551386L234.36391484375,39.69934697459624L234.56081024305556,39.69745727713661L234.6178420138889,39.682536861922955L234.63142100694446,39.68376630073067L234.73054765625,39.68723279565762L234.9355904513889,39.69217795359182L235.00212751736112,39.69106047073265L235.07409618055556,39.68426536115939L235.14063324652778,39.686170075043464L235.30086536458333,39.68639088003911L235.36740243055556,39.693595854535204L235.43665529513888,39.69554470658167L235.9825308159722,39.699363673423505L236.02598359375,39.69999824358115L236.17535251736112,39.71085748172305L236.22966848958333,39.71587392105073L236.34508993055556,39.71303215394565L236.42520598958333,39.7106958135511L236.53519583333335,39.710897794695995L236.61259609375,39.71181707772638L236.73073333333335,39.70927958870374L236.73888072916668,39.702911942333344L236.75110182291667,39.70230668560001L236.93441822916668,39.70217391743063L237.18834539930555,39.6989321506876L237.39474609375,39.70501206061883L237.44634626736112,39.708437417056956" style="fill: none;" fill="none"></path></g></g></g></g><g opacity="0.2"><g><g><g><path stroke="rgb(255, 112, 67)" stroke-width="2px" d="M28.727717708333333,141.4488125L30.912577690972224,141.439225L31.07145190972222,147.4941L31.988033940972223,149.79399375L33.398891319444445,141.4547125L35.08947595486111,141.45950625L40.0118609375,141.420234375L40.29023029513889,141.4635625L41.08460138888889,141.450471875L46.06130234375,141.4532375L46.76740998263889,141.423184375L48.50280529513889,141.436459375L48.72142708333333,160.014084375L49.32026067708333,150.1955625L50.00192612847222,140.46609375L52.30628125,93.791378125L52.33208133680555,88.25478125L52.67155616319444,70.61617812499999L53.65467526041667,61.961984375L54.70433142361111,73.825409375L56.93943368055555,160.529596875L57.00053914930555,121.10754843749999L57.634678125,61.680075L58.25116440972222,58.60304062499999L58.64088151041667,62.62444375L60.65871987847222,61.135431249999996L61.54814392361111,60.128190625L61.997608593749995,55.188599999999994L62.14697751736111,56.565143750000004L62.18635659722222,54.318165625000006L63.14231770833334,50.47394687500001L63.54561380208334,51.40596249999999L63.74929869791666,50.174890625L63.84570954861111,48.770137500000004L63.91903611111112,50.870353124999994L64.19740546875,51.846618750000005L64.45948003472223,46.370496875000015L65.55258897569445,40.776559375000005L65.70331579861111,36.356353125L65.90564279513889,34.917490625L66.37819175347222,29.12350624999999L66.51126588541666,24.727637499999986L66.59817144097222,24.149806249999983L66.62261362847222,24.911551562499994L66.87925659722222,26.04444375L66.89690928819445,28.070909375000014L67.02862552083333,30.079306250000002L67.16984704861112,38.63467499999999L67.25539470486112,26.72017812499999L67.64239600694445,25.801068750000013L68.65403098958333,26.4873125L69.39272821180556,32.80953125000002L69.51901284722223,29.57522499999999L69.86799296875,32.68802812500002L70.11648854166667,32.99740937499999L70.12056223958334,30.24598125L70.26993116319444,27.378396874999993L70.33511032986112,29.283359375000003L70.72075373263888,32.596025L70.85518576388888,32.30803125L71.03578637152778,33.60547812499999L72.06100034722222,40.040718749999996L72.15469539930555,40.42200625000001L72.26875894097222,37.645503125000005L72.38282248263889,32.58311875000001L72.87302413194445,37.033009375000006L72.94906649305555,43.918125L73.01424565972222,39.097087500000015L73.90774340277778,38.26942812499999L74.00687005208334,40.131984375L74.01230164930556,37.76553124999998L74.2458603298611,37.02157812499999L74.44682942708333,38.47214843750001L74.65051432291666,40.048831250000006L75.12849487847222,41.105484375L75.36748515625,42.2653875L75.62548602430556,41.30258125L76.0735927951389,40.52875937499999L76.1102560763889,40.63071875L76.2867829861111,40.27450625L76.3234462673611,40.36374375L77.06214348958333,42.14044462890624L77.19250182291667,41.51074062499998L77.49667126736111,39.10335624999999L77.76825112847223,41.63666875000001L77.96786232638888,39.82352500000002L78.32770564236111,38.99660312500001L78.51373784722223,41.151578124999986L78.6794015625,40.76660312500002L78.7744545138889,44.36136250000001L79.21848758680555,42.256353125000004L79.28774045138888,41.219243750000004L79.6054888888889,42.11622812500002L79.78201579861111,41.034315625000005L80.01421657986111,37.42277812500001L80.05902725694445,39.566321875L80.33739661458333,40.71000000000001L80.81266137152778,41.34692343750001L80.92672491319445,41.04298125L81.3829790798611,43.153521874999996L81.49840052083334,41.3601984375L81.55814809027778,41.52973125L81.65727473958333,41.329684375L81.72788550347222,40.96388437499999L81.82293845486112,40.69359062500001L82.02390755208333,40.74853437499999L82.04156024305556,41.022607812499984L82.06464453125,40.2852L82.20450815972222,41.36342500000001L83.00295295138889,43.70425L83.29761710069445,41.819199999999995L83.59363914930556,40.133275L83.9195349826389,42.71046875000002L84.10964088541667,42.64999374999999L84.37443125,45.142928125L84.39208394097221,42.85096249999998L84.53058967013888,42.20860000000002L85.07782309027778,41.02583437500002L85.33718185763888,41.265706249999994L85.46210859375,41.28119375L85.48383498263888,41.226434375L85.69838307291667,40.8641375L85.86268888888888,40.664090625L86.08131067708334,40.897509375L86.24290069444444,40.60840937500001L86.50769105902778,41.528071874999995L86.60545980902778,40.27976093749999L87.19207230902778,42.64519999999999L87.22873559027778,43.469909375000015L87.23145138888889,42.87419374999999L87.35366232638889,41.00481562499999L87.38353611111111,41.2219171875L87.49081015624999,41.081146875L88.17247560763889,43.547162499999985L88.25259166666666,43.92347187500002L88.35714991319445,42.225746875L88.45220286458333,41.868796875000015L88.78488819444443,43.61077187500001L88.81747777777778,42.86479062500001L88.93968871527778,40.692853125L89.04288906250001,40.79684062499999L89.06733125,41.18052499999999L89.40544817708334,44.675721874999994L89.46519574652778,41.22459062499999L89.47877473958333,41.35180937499999L89.556175,40.713871874999995L89.72862821180556,40.947659375L89.7666493923611,40.19706875L89.85627074652778,40.65413437500001L90.08847152777778,41.489168750000005L90.29894592013889,40.20001875L90.39807256944444,40.25311875L90.52299930555556,40.845331250000015L90.81766345486112,40.99670312500001L90.93172699652779,41.3767921875L91.3499599826389,40.568768750000004L91.3553915798611,40.790203125000005L91.3744021701389,40.57724999999999L92.06014131944444,41.95231874999999L92.13075208333333,40.835559375L92.26382621527779,40.50645L92.27604730902779,40.997809375L92.31135269097223,40.37683437499999L92.67255390625,44.209806250000014L92.684775,43.60302812500001L92.90611258680555,52.4930375L92.93191267361111,41.454690624999984L93.01746032986111,40.70769531249999L93.20349253472223,42.02606875000001L93.27546119791667,40.57171875L93.39224053819444,41.263862500000016L93.60407282986111,41.32618124999999L93.71813637152778,42.755640624999984L94.47584418402778,41.24118437500002L94.59805512152778,41.604403125000005L94.85741388888889,40.41887187500001L94.89271927083333,40.59181562500001L95.84189088541666,43.55969999999999L95.87040677083333,40.88995L96.07409166666667,41.73838037109377L96.54392482638889,40.627399999999994L96.76797821180556,40.63127187500001L97.37631710069445,40.5550328125L99.26379713541667,40.74807343750001L99.39822916666667,40.57706562500002L99.54759809027779,40.98204531250002L99.65487213541667,40.76217812499999L99.95904157986111,40.43565000000001L100.65971762152778,40.399604687500016L100.76156006944446,41.96264375000001L101.17164565972223,40.647681250000005L101.39434114583334,41.876356250000015L101.45001501736111,41.639803124999986L101.52741527777778,40.46349062500002L101.57629965277778,40.829290625L101.92527977430557,40.751760937499995L102.27969149305557,40.91484062500001L103.08085208333334,72.04029062500001L103.23836840277778,40.537056250000006L103.47328498263889,40.5352125L103.75165434027778,40.37342343750001L103.75980173611111,40.442777246093755L104.27580347222222,40.49391249999999L104.37900381944445,40.14304687500001L104.44282508680556,43.39689687500001L104.46183567708333,43.66221250000001L104.46998307291666,43.24423437499999L104.47948836805556,43.156840625L104.92623723958334,43.07092187500001L106.25697855902777,43.476454687499995L106.78248559027777,40.27045000000001L107.10702352430556,40.680684375L107.41526666666667,40.630903125L107.46415104166667,40.460909375L107.70857291666667,40.63071875L107.95435269097223,40.47860937499999L108.12273220486111,42.313878125L108.31012230902778,40.21458437499999L108.60071276041667,40.45224375000001L108.63330234375,40.356553125000005L109.09227230902778,55.606025L109.75628506944444,40.68271250000001L110.02243333333334,40.07224687500002L110.24648671875,40.81675312499999L110.27228680555555,40.726104003906244L110.30759218749999,40.379323437500005L110.38091875,40.507925L110.69323559027778,40.36752343750001L110.84532031250001,42.28751249999999L111.45230130208334,40.15786025390625L111.53377526041666,40.91484062500001L111.67907048611112,40.21734999999998L112.09051397569445,42.473178125000004L112.2140828125,42.385231250000004L112.40690451388889,40.54664374999999L112.46122048611112,40.24353124999999L112.63231579861112,40.89714062499999L112.78168472222222,40.22029999999998L112.83600069444445,40.46644062500002L112.95413793402778,40.938625L113.00845390625,41.56660625000001L113.35471822916666,40.193381250000016L113.48371866319445,40.189325L114.08934175347221,40.68344999999999L114.2522896701389,40.13290624999999L114.45190086805555,40.4032L114.81038628472221,40.39637812500001L115.12134522569444,39.96567812500001L115.25306145833333,40.018962500000015L115.38341979166667,39.75825624999999L115.45538845486111,39.9148828125L116.20494887152778,40.259203125L116.25790694444444,40.51659062499999L116.26198064236111,40.21163437499999L116.3692546875,40.42514062499998L117.21251015624999,40.183425L117.3197842013889,40.006240625000004L117.32114210069444,40.154478125L117.34422638888888,40.089209374999996L117.38496336805555,40.43251562500001L117.39446866319444,40.829106249999995L117.66876432291666,40.79499687500001L117.73122769097222,40.310828125L117.762459375,40.51179687499999L117.83171223958333,40.538531250000005L118.03811293402778,40.590525000000014L118.09378680555555,40.511243750000006L118.09514470486111,40.65948125L118.24587152777777,40.383287499999994L118.49979869791667,40.217534374999985L118.68583090277778,39.887503124999995L118.69669409722222,39.69427812500001L118.87729470486111,39.9406953125L119.33354887152777,40.36272968750001L119.63500251736112,40.15410937499999L119.70018168402777,39.88529062499998L119.75178185763889,40.106356250000005L120.00163532986112,40.06321249999999L120.02064592013889,39.81412187500001L120.66564809027777,40.826525000000004L120.84081710069445,41.01034687500001L121.12190225694445,40.480821875000004L121.15720763888889,40.717928125000014L121.82393619791667,40.37074999999999L121.83751519097221,40.118340625L122.0181157986111,40.262521875000004L122.37388541666668,40.15263437500002L122.75409722222223,40.201678125L122.89260295138888,40.11778750000002L122.92655043402777,39.75014375000001L122.9903717013889,39.854684375000005L123.11529843750002,40.29165312500001L123.38823619791667,39.66274999999999L123.43983637152778,39.947240625000006L123.63265807291667,40.403568750000005L123.83905876736111,41.55314687500001L123.9463328125,40.394903124999985L124.02101727430555,40.14009687500001L124.12014392361111,40.00384374999999L124.2491443576389,40.032053125000004L124.25729175347222,40.16922812500002L124.38086059027778,39.986328125L124.410734375,40.110965625000006L124.85205164930555,40.192274999999995L124.99191527777779,40.29958124999999L125.20510546874999,40.036662500000006L125.43594835069443,40.09483281249999L125.64913854166667,40.06985L126.17871927083333,40.18121249999999L126.28191961805555,40.270081250000004L126.29821440972222,40.08220312500001L126.92963758680555,40.212003124999995L126.96765876736112,40.140281250000015L127.17949105902777,40.13475L127.20800694444445,39.896721875L127.22022803819445,39.93673124999998L127.49316579861112,40.00753125L127.78918784722221,40.012878125000015L128.03225182291666,40.060815625000004L128.10693628472222,40.07575L128.4409795138889,39.667728125L128.62701171875,39.69132812500001L128.82119131944444,40.07685624999999L128.90809687499998,40.102300000000014L129.31410876736112,40.79647187500001L129.8613421875,39.83219062500001L130.16822743055556,39.92216562499999L130.31352265625,39.47616249999999L130.4900495659722,40.16683125L130.64485008680555,40.050121875L130.84038758680558,39.949821875L131.2939259548611,39.959778125000014L131.5695795138889,40.34069687499999L131.645621875,41.148443749999984L132.04891796875,39.829425000000015L132.14261302083332,39.726174999999984L132.33950842013888,39.886581250000006L132.36938220486113,39.71861562500001L132.70478333333335,39.956275000000005L132.96414210069443,39.94447499999998L133.0877109375,40.0728921875L133.12030052083333,40.126084375000005L133.1664690972222,39.8242625L133.58470208333333,40.02366406250002L133.89294522569446,39.93424218750002L133.90652421874998,39.895246875L133.97441918402777,39.95498437500001L134.10613541666666,40.016565625L134.55016848958334,39.77466562499998L134.5881896701389,39.9924125L135.1462862847222,40.065240625L135.16122317708334,40.03039375L135.263065625,39.89598437499998L135.45181362847222,39.93995781250001L135.4735400173611,39.990015624999984L135.6446353298611,39.93267499999999L135.68537230902777,39.712162500000005L136.09545789930556,39.850075000000004L136.1036052951389,40.034081250000014L136.1769318576389,39.771346875000006L136.55306996527779,39.87072499999999L136.77033385416667,39.82665937499999L137.0256189236111,39.93156875L137.09894548611112,39.915159375L137.17091414930553,39.86298124999999L137.48323098958335,39.881418749999995L137.66654739583333,39.86851250000001L137.73036866319444,39.881418749999995L137.87566388888888,39.886396875L137.94763255208335,39.8907296875L138.3617918402778,39.844543749999985L138.6360875,39.44002500000002L138.65238229166667,39.38176250000001L138.81397230902778,39.84417500000001L138.85199348958335,39.79771249999999L138.9076673611111,39.8636265625L138.94568854166667,39.85800312499998L139.11678385416667,40.23136250000002L139.36663732638888,40.01619687499999L139.47526927083334,40.00080156249999L139.69796475694443,39.9865125L139.80116510416664,39.5831L139.8242493923611,39.90833749999999L139.87992326388888,39.87146250000001L140.01299739583334,39.927512500000006L140.2003875,39.803612499999986L140.61183098958335,39.812278125000006L140.8399580729167,40.13880624999999L140.87933715277777,39.915896875000016L140.88341085069445,39.955721874999995L141.13462222222222,39.918846875000014L141.23782256944446,39.779274999999984L141.34373871527777,39.8300703125L141.42113897569445,39.74627187499999L141.47545494791666,39.983562500000005L141.72395052083334,39.90188437499998L142.34586840277777,39.8891625L142.73015390625,39.789046875L142.73286970486112,39.81430624999999L142.77089088541666,39.907231249999995L142.9569230902778,39.879390624999985L142.95828098958333,40.05417812499999L142.96507048611113,39.86003124999999L143.084565625,40.06155312500002L143.55032508680554,39.77153125000001L143.6317990451389,39.76286562499999L143.6467359375,39.824078125L143.83005234375,39.79881874999998L144.33247508680554,39.8360625L144.4261701388889,39.84896875000001L144.4356754340278,39.8847375L144.47369661458333,39.824815625000014L144.53751788194444,39.817256249999986L144.55652847222223,39.760284375L144.63121293402776,39.755859375L144.71132899305556,39.811909375L144.7289816840278,39.82352500000002L144.85662421875,39.95811874999998L145.11734088541667,40.018962500000015L145.1594357638889,39.877178125L145.2531308159722,39.818270312500005L145.40249973958333,40.13548750000001L146.10181788194444,39.792550000000006L146.22267092013888,39.707184375L146.31500807291667,39.770978125L146.43450321180555,39.798265625L146.44265060763888,39.88381562500001L146.71694626736112,39.889346875L146.84458880208334,39.96752187499999L147.09851597222223,39.84730937500001L147.38503272569446,39.79070625L147.40540121527778,39.85191875000001L147.7109285590278,39.812831250000016L147.9214029513889,39.875703125L147.9553504340278,39.87146250000001L148.21199340277778,39.77964374999999L148.7823111111111,39.75530624999999L148.91266944444445,39.90096249999999L149.00364869791667,39.93415000000002L149.01179609375,39.872753125L149.2467126736111,39.852103124999985L149.40558689236113,39.815228125000004L149.81159878472224,39.82979374999999L150.03972586805557,39.772821875000005L150.23254756944445,39.783146875L150.28686354166666,39.76304999999999L150.3656217013889,39.770240625000014L150.93050781250003,39.89875000000001L151.0744451388889,39.77798437500002L151.25911944444445,39.873859374999995L151.34466710069447,39.85542187499999L151.36503559027778,39.84030312499999L151.54835199652777,39.941524999999984L151.7832685763889,39.801031249999994L151.82943715277779,39.68745625L151.98287977430553,39.76913437500002L152.2721123263889,39.949637499999994L152.35901788194445,39.839565625000006L152.40382855902777,39.82204999999999L152.49344991319444,39.868328125000005L152.62109244791665,39.73520937500001L152.6563978298611,39.783423437500005L152.69849270833333,39.74535L152.80440885416667,39.85505312499998L153.0637676215278,39.74055625L153.15746267361112,39.81356875L153.3597896701389,39.916818750000004L153.54853767361112,39.677776562500014L154.19218194444443,39.98079687500001L154.53708836805555,39.85486875000001L154.70682578125,39.8529328125L154.81409982638888,39.73170625L154.86977369791668,39.867959375L154.9974162326389,39.72746562500001L155.0612375,39.80693125000002L155.10740607638888,39.74922187499999L155.28257508680556,39.60983437500002L155.34639635416664,39.64836875L155.4061439236111,39.806562499999984L155.5894603298611,39.926959374999996L155.71031336805555,39.846571874999995L155.75919774305555,39.76987187500001L156.05929348958333,39.69114374999998L156.12447265625002,39.5558125L156.24939939236108,39.864824999999996L156.4055578125,39.766276562499996L156.6404743923611,39.82346162109377L156.72466414930557,39.86611562499999L157.4008980034722,39.73576249999999L157.40904539930557,39.86998750000001L157.7688887152778,39.75180312500001L158.19662699652775,39.79218125L158.29032204861113,39.773928125L158.37586970486112,39.79015312499999L158.38673289930554,39.73557812499999L158.7737342013889,39.65943125000001L158.88643984375,39.891559375000014L158.9937138888889,39.729309375000014L159.19332508680557,39.760653125000005L159.77722178819445,39.77208437500002L160.02435946180555,39.75493750000001L160.34210789930555,39.805825L160.38420277777777,39.91571250000001L160.54443489583335,39.93083124999998L160.7250355034722,39.809696874999986L160.77663567708333,39.814674999999994L161.17314227430555,39.7829625L161.3252269965278,39.80490312500001L161.4189220486111,39.79771249999999L161.55471197916668,39.684690625L161.6389017361111,39.802690625L161.8534498263889,39.77466562499998L161.86838671875,39.723224999999985L161.89147100694444,39.76434062500002L161.93356588541667,39.7664609375L161.98923975694444,39.84601875000001L162.21465104166666,39.680265625000004L162.23366163194444,39.658878125L162.2784723090278,39.91479062500002L162.3843884548611,39.72027499999999L163.11086458333332,39.703128125000006L163.31047578125,39.78947900390625L163.3199810763889,39.658878125L163.34578116319443,39.74424375000001L163.49786588541667,39.779274999999984L163.53588706597222,39.751526562500004L163.62958211805557,39.74535L163.6377295138889,39.815781250000015L163.70562447916666,39.770793749999996L163.76129835069443,39.719353125L163.8943724826389,39.73502500000001L164.21619461805554,39.75899375L164.3275423611111,39.768765624999986L164.39951102430555,39.78075000000001L164.43617430555557,39.84435937499998L164.58690112847222,39.643759375L164.68059618055557,39.73225937500001L164.94810234374998,39.757334375L165.0146394097222,39.76434062500002L165.02007100694445,39.902621874999994L165.10561866319443,39.74018749999999L165.49669366319443,39.87164687499998L165.57816762152777,39.749037500000014L165.58224131944442,39.636015625L165.61618880208334,39.72027499999999L165.95023203125,39.74110937500001L166.47709696180556,39.92677499999999L166.51240234375,39.72165781250001L166.78941380208335,39.861690624999994L166.9795197048611,39.826843749999995L167.0229724826389,39.781671875L167.22665737847223,39.850075000000004L167.34886831597223,39.773928125L167.5851427951389,39.803059375000004L167.65711145833333,39.74129375000001L167.87301744791665,39.7726375L167.88659644097223,39.735946874999996L167.93548081597223,39.802875L168.1921237847222,39.922534375L168.1961974826389,39.789968749999986L168.26680824652777,39.95738125L168.36186119791665,39.929909374999994L168.50036692708335,39.74258437499998L168.65245164930556,39.70165312500001L168.80996796875,39.81873125000001L168.87786293402777,39.70829062499999L168.97970538194443,39.67196875000002L169.17116918402778,39.67934374999999L169.17524288194446,39.68681093750001L169.46447543402778,39.80066249999999L169.54459149305555,39.845465625L169.66408663194446,39.760653125000005L169.7659290798611,39.831914062500005L170.00899305555558,39.708659374999996L170.19502526041668,39.96918125000002L170.54400538194443,39.77355937499999L170.60782664930557,39.70294375L171.1591337673611,39.89248125L171.1727127604167,39.69630625000002L171.2664078125,39.693725L171.3492396701389,39.74940624999999L171.63439852430554,39.706078125000005L171.84487291666665,39.798634375000006L171.93992586805555,39.709028125L172.13138967013887,39.726728124999994L172.14089496527777,39.785451562499986L172.23323211805555,39.73668437499998L172.56184374999998,39.7225796875L172.62294921875002,39.766184374999995L172.74923385416668,39.706539062499985L172.80490772569445,39.6177625L173.25437239583334,40.1259L173.28696197916665,39.71695625000001L173.48385737847224,39.80333593750001L173.53545755208333,39.82924062500001L173.54767864583332,39.94650312499999L173.81246901041666,39.72967812499999L173.91023776041666,39.799556249999995L174.59461901041666,39.8360625L174.6788087673611,39.84952187499999L174.7344826388889,39.75475312500001L174.77793541666665,39.765262500000006L174.84447248263888,39.72027499999999L174.8865673611111,39.773928125L175.09432595486112,39.80250624999999L175.21789479166665,39.657587500000005L175.31566354166668,39.81006562499999L175.42701128472223,39.784621875L175.4609587673611,39.7770625L175.4772535590278,39.67602500000001L175.71352803819443,39.79937187499999L175.7882125,39.68745625L176.02856067708333,39.83790625L176.11818203125,39.73023125L176.20237178819443,39.69870312500001L176.86231085069443,39.86003124999999L176.95193220486112,39.839012499999995L177.04970095486112,39.70976562499999L177.41904956597222,39.77042499999999L177.73679800347222,39.717878125L177.78839817708334,39.668096875L178.183546875,39.72027499999999L178.46055833333332,39.784621875L179.10012890625,39.75954687500001L179.22369774305557,39.712531249999984L179.52107769097222,39.751618750000006L179.88227890625,39.859293750000006L179.92437378472223,39.823340624999986L179.9284474826389,39.654453125L179.95832126736113,39.80250624999999L180.10090069444445,39.75493750000001L180.2176800347222,39.682846874999996L180.44716501736113,39.682846874999996L180.50962838541668,39.680265625000004L180.66986050347222,39.74258437499998L180.74454496527778,39.64929062499999L180.84231371527778,39.64910624999999L181.1071040798611,39.82444687500001L181.34745225694442,39.737790625L181.58915833333333,39.71179375L181.95850694444445,39.6693875L182.02368611111112,39.634356249999996L182.1486128472222,39.808775L182.289834375,39.72506874999999L182.3414345486111,39.787571875L182.4174769097222,39.815781250000015L182.45549809027779,39.71695625000001L182.85879418402777,39.67713125L183.23629019097223,39.66569999999999L183.6002072048611,39.66680624999998L183.60563880208332,39.772268749999995L183.61107039930556,39.81614999999999L183.62329149305555,39.75825624999999L183.67896536458332,39.59877187499998L183.76722881944443,39.417715625L183.82290269097223,39.65537499999999L183.88672395833333,39.75180312500001L184.20039869791668,39.6482765625L184.36063081597223,39.66569999999999L184.47333645833334,39.737790625L184.55616831597223,39.76839687500001L184.58196840277776,39.72451562500001L184.59283159722222,39.718246875000006L184.87934835069444,39.77005625000001L184.96761180555555,39.670678124999995L185.04772786458332,39.726728124999994L185.20117048611112,39.77300625000001L185.20931788194446,39.84933749999999L185.34239201388888,39.565584374999986L185.65470885416664,39.64302187500002L185.760625,39.686903124999986L185.8923412326389,39.699440624999994L185.9249308159722,39.95940937500001L185.98196258680554,39.67298281250001L186.07429973958332,39.82794999999999L186.13947890625,39.741478124999986L186.2277423611111,39.6723375L186.44364835069445,39.702759375L186.76682838541666,39.758624999999995L186.86459713541666,39.678790625000005L187.21221935763887,39.684321874999995L187.3099881076389,39.715757812500016L187.32628289930557,39.70386562499999L187.36973567708333,39.79881874999998L187.53947309027777,39.7800125L187.61008385416665,39.69870312500001L187.92104279513887,39.68192500000001L187.94276918402778,39.677868750000016L188.04053793402778,39.67445781250001L188.10843289930554,39.700546874999986L188.2143490451389,39.697965624999995L188.31619149305556,39.755675L188.43976032986112,39.73170625L188.81725633680554,39.70368124999999L188.85391961805556,39.689115625L188.9408251736111,39.663303125L189.20018394097224,39.743875L189.24771041666668,39.89985625L189.34276336805556,39.76083750000001L189.5097849826389,39.69280312500001L189.58582734375,39.688931249999996L189.6021221354167,39.69298749999999L189.97826024305556,39.73207500000001L190.05294470486112,39.899671874999996L190.10318697916668,39.65389999999999L190.15750295138886,39.649659375L190.16157664930554,39.68118749999999L190.2552717013889,39.693540625L190.29736657986112,39.710134374999996L190.45895659722223,39.67743662109373L190.56487274305556,39.74270537109376L190.72103116319443,39.720828125L190.94780034722223,39.75180312500001L191.14197994791667,39.720182812499985L191.24110659722223,39.949637499999994L191.4217072048611,39.704234375L191.74081354166665,39.74258437499998L191.95671953125,39.72746562500001L191.97437222222223,39.633065625L191.98116171875,39.76987187500001L192.46728967013888,39.69335625000002L192.55012152777778,39.73060000000001L192.57999531250002,39.726728124999994L192.67369036458334,39.69427812500001L193.09328125000002,39.57277500000001L193.39745069444444,39.81098750000001L193.5984197916667,39.671599999999984L193.79667309027778,39.70331250000001L194.11170572916666,39.667728125L194.22576927083333,39.72156562500001L194.23663246527778,39.66293437499999L194.58425468750002,39.699993750000004L194.6331390625,39.686903124999986L194.79337118055554,41.251140625000005L194.93459270833333,39.695015624999996L194.98347708333333,39.780196875L195.26184644097222,39.81246249999998L195.2781412326389,39.74535L195.28221493055554,39.83255937499999L195.34332039930555,39.666253125L195.3759099826389,39.758071874999985L195.5714474826389,39.74166249999999L195.63798454861112,39.699625L195.74390069444445,39.80988125000002L195.90956440972224,39.850628125000014L196.075228125,39.767290625000015L196.44457673611112,39.70884375L196.5491349826389,39.7770625L196.57221927083333,39.69630625000002L196.65640902777776,39.689115625L196.76775677083336,39.72894062499998L196.83972543402777,39.73410312500002L196.94156788194445,39.70073124999999L196.97551536458332,39.68985312500001L197.12216848958334,39.67141562500001L197.3217796875,39.784990625000006L197.65039131944445,39.741478124999986L197.75494956597223,39.72801874999999L197.94505546874998,39.736868749999985L198.0061609375,39.71326875L198.09985598958335,39.689115625L198.4515519097222,39.71580390625002L198.6851105902778,39.75475312500001L198.70140538194445,39.64892187500001L198.9050902777778,39.70644687499998L199.22691241319444,39.68598125L199.2988810763889,39.60964999999999L199.45096579861112,39.718246875000006L199.60712421875,39.79642187499999L199.68588237847223,39.82297187500001L199.72797725694446,39.71750937499999L199.76192473958335,39.642376562500004L199.76735633680553,39.825921875000006L199.96968333333334,39.634725L200.00227291666667,39.69630625000002L200.15978923611112,39.6708625L200.27521067708335,39.74866875000001L200.3254529513889,39.69759687499999L200.40285321180556,39.70497187500001L200.58073802083334,39.682846874999996L200.74097013888888,39.69566093750001L201.12389774305555,39.70524843749999L201.22166649305555,39.71087187500001L201.7947,39.639334375000004L201.84086857638889,39.712162500000005L202.00653229166667,39.748115625L202.14232222222222,39.789415625000004L202.1803434027778,39.705709375L202.36773350694446,39.559500000000014L202.4817970486111,39.79420937500001L202.6691871527778,39.705709375L202.7751032986111,39.724331250000006L202.8552193576389,39.70091562499999L203.1906204861111,39.70183749999998L203.38887378472222,39.69870312500001L203.42825286458336,39.6270734375L203.59391657986112,39.725621875L203.75414869791666,39.71990625000001L204.48741432291666,39.68994531249999L204.6028357638889,39.781671875L204.62456215277777,39.781856250000004L204.93416319444444,39.74571875000001L205.1459954861111,39.703128125000006L205.16636397569445,39.74590312500001L205.37412256944444,39.708722753906244L205.81136614583332,39.699440624999994L206.06121961805556,39.692434375000005L206.11689348958333,39.65574375L206.15898836805553,39.7345640625L206.34230477430555,39.77189999999999L206.57993715277777,39.6177625L206.9058329861111,39.82813437499999L207.3987504340278,39.67178437499999L207.56712994791667,39.680818750000014L207.67847769097224,39.796790625L208.31940616319446,39.660353125L208.47692248263888,39.77337499999999L208.81096571180555,39.69483124999999L208.88429227430555,39.669203124999996L209.15044053819443,39.6862578125L209.40165190972223,39.74627187499999L209.45596788194445,39.84577099609376L209.59175781250002,39.686350000000004L209.75742152777778,39.7435984375L209.84296918402777,39.674181250000004L210.30465494791667,39.710595312500004L210.3168760416667,39.70829062499999L210.3644025173611,39.73705312500002L210.53413993055554,39.697043750000006L211.08952074652777,39.651503125000005L211.23753177083333,39.65205624999999L211.54713281250002,39.759639062500014L211.5566381076389,39.67012500000001L211.63675416666666,39.781671875L211.76847039930556,39.65426875L211.78476519097222,39.67915937500001L211.8743865451389,39.772453125L212.0264712673611,39.6738125L212.07263984375,39.75051250000001L212.0943662326389,39.70073124999999L212.25595625,39.67454999999998L212.44198845486113,39.66440937499999L212.60357847222224,39.66440937499999L212.75158949652777,39.699071875000016L212.88330572916666,39.694462500000014L212.90367421874998,39.68450625L213.03403255208335,39.740740625L213.03946414930556,39.72045937499999L213.07341163194445,39.652609375L213.41288645833333,39.65998437499999L213.68854001736113,39.72654375000002L214.03344644097223,39.72304062499998L214.1719521701389,39.7283875L214.56574296875002,39.67897500000001L214.60919574652777,39.637675L215.07902890625002,39.754568750000004L215.1469238715278,39.661828125L215.3628298611111,39.75927031250001L215.90598958333334,39.6875484375L216.20201163194446,39.601537500000006L216.24546440972222,39.746456249999994L216.63925520833334,39.69925625000002L216.80356102430557,39.69169687499999L217.1864886284722,39.64726249999998L217.33449965277777,39.666068749999994L217.41597361111113,39.725806250000005L217.4838685763889,39.804534375L217.84371189236109,39.731337499999995L218.0338177951389,39.69612187499999L218.06912317708333,39.664593749999995L218.10307065972222,39.68238593749999L218.24565008680554,39.696675L218.48464036458333,39.70331250000001L218.66252517361113,39.641362499999985L218.73449383680554,39.727281250000004L218.8091782986111,39.74885312500001L219.03458958333334,39.708659374999996L219.25456927083334,39.77466562499998L219.41208559027777,39.7269125L219.7936552951389,39.677315625000006L220.028571875,39.76194375L220.04758246527777,39.70884375L220.18065659722222,39.724239062500004L220.23089887152778,39.69409374999998L220.2824990451389,39.686350000000004L220.68986883680554,39.80250624999999L220.70208993055556,39.68561250000002L220.88540633680554,39.69630625000002L220.91256432291667,39.79789687499999L220.98317508680557,39.70534062499999L220.99539618055556,39.7785375L221.0035435763889,39.665607812499985L221.07008064236112,39.68303125L221.30092352430557,39.67860625L221.32808151041667,39.83882812499999L221.51275581597224,39.720828125L222.03690494791667,39.67565625L222.17948437500002,39.70036250000001L222.2500951388889,39.74866875000001L222.58685416666665,39.751434375L223.04039253472223,39.657034374999995L223.3065407986111,39.77448125000001L223.5754048611111,39.67335156249999L223.6514472222222,39.655559374999996L223.68267890625,39.670678124999995L223.96919565972223,39.758624999999995L224.22583862847222,39.68063437500001L224.35076536458334,39.84233125L224.35212326388887,39.68800937500001L224.42001822916666,39.670309375000016L224.50285008680555,39.661828125L224.70789288194445,39.67657812499999L224.84232491319446,39.66533125000001L224.89392508680555,39.66145937499999L225.1043994791667,39.71990625000001L225.14106276041667,39.68856250000002L225.38005303819443,39.696859375L225.40042152777778,39.651503125000005L225.49004288194442,39.67454999999998L225.99518142361111,39.820206249999984L226.26947708333333,39.70681562499999L226.27762447916666,39.676762499999995L226.52068845486113,39.6634875L226.9117634548611,39.64873750000001L226.93213194444442,39.701284375L227.16025902777778,39.73502500000001L227.17926961805557,39.679896875L227.2050697048611,39.684875000000005L227.51874444444445,39.76692187499998L227.80526119791668,39.708659374999996L227.85414557291668,39.76120624999999L228.01573559027779,39.80029375000001L228.0700515625,39.67510312499999L228.39187369791668,39.63417187500002L228.39594739583333,39.679712499999994L228.48556875,39.79586874999998L228.5154425347222,39.67805312499999L228.5833375,39.67860625L228.7150537326389,39.68266250000002L229.2038974826389,39.74479687500002L229.32475052083333,39.73576249999999L229.43474036458332,39.63859687499999L229.57731979166667,39.667175000000015L229.59225668402777,39.703128125000006L229.61805677083333,39.745534375000005L229.6682990451389,39.650949999999995L229.71582552083333,39.70165312500001L229.9004998263889,39.69132812500001L229.96975269097223,39.7424L230.0159212673611,39.804165624999996L230.04579505208335,39.679712499999994L230.3092275173611,39.793010937499986L230.50340711805555,39.68856250000002L230.57265998263887,39.717878125L230.57673368055555,39.65389999999999L230.70844991319444,39.760284375L230.73289210069444,39.70017812500001L231.0859459201389,39.70939687499998L231.0981670138889,39.711978125L231.1035986111111,39.680265625000004L231.3357993923611,39.674734374999986L231.48109461805555,39.772821875000005L232.02425434027776,39.712162500000005L232.14239157986108,39.76046875L232.7317198784722,39.67639374999999L232.8118359375,39.643390624999995L233.14044756944446,39.7283875L233.17711085069445,39.70294375L233.38079574652778,39.646432812499995L233.61299652777777,39.68653437500001L233.65509140625,39.67289062500001L233.84248151041666,39.794946874999994L234.21861961805556,39.634725L234.36391484375,39.693540625L234.56081024305556,39.68044999999998L234.6178420138889,39.548253125L234.63142100694446,39.69483124999999L234.73054765625,39.71843125000001L234.9355904513889,39.73668437499998L235.00212751736112,39.68100312499999L235.07409618055556,39.623109374999984L235.14063324652778,39.70331250000001L235.30086536458333,39.688378125000014L235.36740243055556,39.75844062500002L235.43665529513888,39.713084374999994L235.9825308159722,39.73373437499998L236.02598359375,39.705709375L236.17535251736112,39.808590624999994L236.22966848958333,39.76102187499998L236.34508993055556,39.68745625L236.42520598958333,39.68966875000001L236.53519583333335,39.712715625000016L236.61259609375,39.72009062499998L236.73073333333335,39.686442187500006L236.73888072916668,39.64560312500001L236.75110182291667,39.696859375L236.93441822916668,39.70097900390624L237.18834539930555,39.66975624999998L237.39474609375,39.75973124999999L237.44634626736112,39.739265625" style="fill: none;" fill="none"></path></g></g></g></g></g></g><g transform="translate(85, 177)" clip-path="url(#clip_1)"><clipPath id="clip_1"><rect width="244" height="23"></rect></clipPath><g><g><line x1="0" y1="0" x2="0" y2="5" style="visibility: inherit;" fill="rgb(0, 0, 0)" stroke="rgb(204, 204, 204)" stroke-width="1px"></line><line x1="27.15798611111111" y1="0" x2="27.15798611111111" y2="5" style="visibility: inherit;" fill="rgb(0, 0, 0)" stroke="rgb(204, 204, 204)" stroke-width="1px"></line><line x1="54.31597222222222" y1="0" x2="54.31597222222222" y2="5" style="visibility: inherit;" fill="rgb(0, 0, 0)" stroke="rgb(204, 204, 204)" stroke-width="1px"></line><line x1="81.47395833333333" y1="0" x2="81.47395833333333" y2="5" style="visibility: inherit;" fill="rgb(0, 0, 0)" stroke="rgb(204, 204, 204)" stroke-width="1px"></line><line x1="108.63194444444444" y1="0" x2="108.63194444444444" y2="5" style="visibility: inherit;" fill="rgb(0, 0, 0)" stroke="rgb(204, 204, 204)" stroke-width="1px"></line><line x1="135.78993055555557" y1="0" x2="135.78993055555557" y2="5" style="visibility: inherit;" fill="rgb(0, 0, 0)" stroke="rgb(204, 204, 204)" stroke-width="1px"></line><line x1="162.94791666666666" y1="0" x2="162.94791666666666" y2="5" style="visibility: inherit;" fill="rgb(0, 0, 0)" stroke="rgb(204, 204, 204)" stroke-width="1px"></line><line x1="190.10590277777777" y1="0" x2="190.10590277777777" y2="5" style="visibility: inherit;" fill="rgb(0, 0, 0)" stroke="rgb(204, 204, 204)" stroke-width="1px"></line><line x1="217.26388888888889" y1="0" x2="217.26388888888889" y2="5" style="visibility: inherit;" fill="rgb(0, 0, 0)" stroke="rgb(204, 204, 204)" stroke-width="1px"></line><line x1="244.421875" y1="0" x2="244.421875" y2="5" style="visibility: inherit;" fill="rgb(0, 0, 0)" stroke="rgb(204, 204, 204)" stroke-width="1px"></line></g><g transform="translate(0, 8)"><text x="0" y="0" dx="0em" dy="0.95em" style="text-anchor: middle; visibility: hidden; font-family: &quot;Helvetica Neue&quot;, sans-serif; font-size: 12px; font-weight: 200;" fill="rgb(50, 49, 63)" stroke="none" stroke-width="1px">-20k</text><text x="27.15798611111111" y="0" dx="0em" dy="0.95em" style="text-anchor: middle; visibility: inherit; font-family: &quot;Helvetica Neue&quot;, sans-serif; font-size: 12px; font-weight: 200;" fill="rgb(50, 49, 63)" stroke="none" stroke-width="1px">0</text><text x="54.31597222222222" y="0" dx="0em" dy="0.95em" style="text-anchor: middle; visibility: hidden; font-family: &quot;Helvetica Neue&quot;, sans-serif; font-size: 12px; font-weight: 200;" fill="rgb(50, 49, 63)" stroke="none" stroke-width="1px">20k</text><text x="81.47395833333333" y="0" dx="0em" dy="0.95em" style="text-anchor: middle; visibility: inherit; font-family: &quot;Helvetica Neue&quot;, sans-serif; font-size: 12px; font-weight: 200;" fill="rgb(50, 49, 63)" stroke="none" stroke-width="1px">40k</text><text x="108.63194444444444" y="0" dx="0em" dy="0.95em" style="text-anchor: middle; visibility: hidden; font-family: &quot;Helvetica Neue&quot;, sans-serif; font-size: 12px; font-weight: 200;" fill="rgb(50, 49, 63)" stroke="none" stroke-width="1px">60k</text><text x="135.78993055555557" y="0" dx="0em" dy="0.95em" style="text-anchor: middle; visibility: inherit; font-family: &quot;Helvetica Neue&quot;, sans-serif; font-size: 12px; font-weight: 200;" fill="rgb(50, 49, 63)" stroke="none" stroke-width="1px">80k</text><text x="162.94791666666666" y="0" dx="0em" dy="0.95em" style="text-anchor: middle; visibility: hidden; font-family: &quot;Helvetica Neue&quot;, sans-serif; font-size: 12px; font-weight: 200;" fill="rgb(50, 49, 63)" stroke="none" stroke-width="1px">100k</text><text x="190.10590277777777" y="0" dx="0em" dy="0.95em" style="text-anchor: middle; visibility: inherit; font-family: &quot;Helvetica Neue&quot;, sans-serif; font-size: 12px; font-weight: 200;" fill="rgb(50, 49, 63)" stroke="none" stroke-width="1px">120k</text><text x="217.26388888888889" y="0" dx="0em" dy="0.95em" style="text-anchor: middle; visibility: hidden; font-family: &quot;Helvetica Neue&quot;, sans-serif; font-size: 12px; font-weight: 200;" fill="rgb(50, 49, 63)" stroke="none" stroke-width="1px">140k</text><text x="244.421875" y="0" dx="0em" dy="0.95em" style="text-anchor: middle; visibility: hidden; font-family: &quot;Helvetica Neue&quot;, sans-serif; font-size: 12px; font-weight: 200;" fill="rgb(50, 49, 63)" stroke="none" stroke-width="1px">160k</text></g><line x1="0" y1="0" x2="244.421875" y2="0" fill="rgb(0, 0, 0)" stroke="rgb(204, 204, 204)" stroke-width="1px"></line></g></g></g></g></svg>