<svg viewBox="0 0 330 200" xmlns="http://www.w3.org/2000/svg"><g><g><g><g><g><line x1="74.78125" y1="177" x2="69.78125" y2="177" style="visibility: inherit;" fill="rgb(0, 0, 0)" stroke="rgb(204, 204, 204)" stroke-width="1px"></line><line x1="74.78125" y1="159.3" x2="69.78125" y2="159.3" style="visibility: inherit;" fill="rgb(0, 0, 0)" stroke="rgb(204, 204, 204)" stroke-width="1px"></line><line x1="74.78125" y1="141.6" x2="69.78125" y2="141.6" style="visibility: inherit;" fill="rgb(0, 0, 0)" stroke="rgb(204, 204, 204)" stroke-width="1px"></line><line x1="74.78125" y1="123.9" x2="69.78125" y2="123.9" style="visibility: inherit;" fill="rgb(0, 0, 0)" stroke="rgb(204, 204, 204)" stroke-width="1px"></line><line x1="74.78125" y1="106.2" x2="69.78125" y2="106.2" style="visibility: inherit;" fill="rgb(0, 0, 0)" stroke="rgb(204, 204, 204)" stroke-width="1px"></line><line x1="74.78125" y1="88.5" x2="69.78125" y2="88.5" style="visibility: inherit;" fill="rgb(0, 0, 0)" stroke="rgb(204, 204, 204)" stroke-width="1px"></line><line x1="74.78125" y1="70.8" x2="69.78125" y2="70.8" style="visibility: inherit;" fill="rgb(0, 0, 0)" stroke="rgb(204, 204, 204)" stroke-width="1px"></line><line x1="74.78125" y1="53.10000000000001" x2="69.78125" y2="53.10000000000001" style="visibility: inherit;" fill="rgb(0, 0, 0)" stroke="rgb(204, 204, 204)" stroke-width="1px"></line><line x1="74.78125" y1="35.400000000000006" x2="69.78125" y2="35.400000000000006" style="visibility: inherit;" fill="rgb(0, 0, 0)" stroke="rgb(204, 204, 204)" stroke-width="1px"></line><line x1="74.78125" y1="17.69999999999999" x2="69.78125" y2="17.69999999999999" style="visibility: inherit;" fill="rgb(0, 0, 0)" stroke="rgb(204, 204, 204)" stroke-width="1px"></line><line x1="74.78125" y1="0" x2="69.78125" y2="0" style="visibility: inherit;" fill="rgb(0, 0, 0)" stroke="rgb(204, 204, 204)" stroke-width="1px"></line></g><g transform="translate(64.78125, 0)"><text x="0" y="177" dx="0em" dy="0.3em" style="text-anchor: end; visibility: hidden; font-family: &quot;Helvetica Neue&quot;, sans-serif; font-size: 12px; font-weight: 200;" fill="rgb(50, 49, 63)" stroke="none" stroke-width="1px">1.9e+3</text><text x="0" y="159.3" dx="0em" dy="0.3em" style="text-anchor: end; visibility: inherit; font-family: &quot;Helvetica Neue&quot;, sans-serif; font-size: 12px; font-weight: 200;" fill="rgb(50, 49, 63)" stroke="none" stroke-width="1px">2e+3</text><text x="0" y="141.6" dx="0em" dy="0.3em" style="text-anchor: end; visibility: hidden; font-family: &quot;Helvetica Neue&quot;, sans-serif; font-size: 12px; font-weight: 200;" fill="rgb(50, 49, 63)" stroke="none" stroke-width="1px">2.1e+3</text><text x="0" y="123.9" dx="0em" dy="0.3em" style="text-anchor: end; visibility: inherit; font-family: &quot;Helvetica Neue&quot;, sans-serif; font-size: 12px; font-weight: 200;" fill="rgb(50, 49, 63)" stroke="none" stroke-width="1px">2.2e+3</text><text x="0" y="106.2" dx="0em" dy="0.3em" style="text-anchor: end; visibility: hidden; font-family: &quot;Helvetica Neue&quot;, sans-serif; font-size: 12px; font-weight: 200;" fill="rgb(50, 49, 63)" stroke="none" stroke-width="1px">2.3e+3</text><text x="0" y="88.5" dx="0em" dy="0.3em" style="text-anchor: end; visibility: inherit; font-family: &quot;Helvetica Neue&quot;, sans-serif; font-size: 12px; font-weight: 200;" fill="rgb(50, 49, 63)" stroke="none" stroke-width="1px">2.4e+3</text><text x="0" y="70.8" dx="0em" dy="0.3em" style="text-anchor: end; visibility: hidden; font-family: &quot;Helvetica Neue&quot;, sans-serif; font-size: 12px; font-weight: 200;" fill="rgb(50, 49, 63)" stroke="none" stroke-width="1px">2.5e+3</text><text x="0" y="53.10000000000001" dx="0em" dy="0.3em" style="text-anchor: end; visibility: inherit; font-family: &quot;Helvetica Neue&quot;, sans-serif; font-size: 12px; font-weight: 200;" fill="rgb(50, 49, 63)" stroke="none" stroke-width="1px">2.6e+3</text><text x="0" y="35.400000000000006" dx="0em" dy="0.3em" style="text-anchor: end; visibility: hidden; font-family: &quot;Helvetica Neue&quot;, sans-serif; font-size: 12px; font-weight: 200;" fill="rgb(50, 49, 63)" stroke="none" stroke-width="1px">2.7e+3</text><text x="0" y="17.69999999999999" dx="0em" dy="0.3em" style="text-anchor: end; visibility: inherit; font-family: &quot;Helvetica Neue&quot;, sans-serif; font-size: 12px; font-weight: 200;" fill="rgb(50, 49, 63)" stroke="none" stroke-width="1px">2.8e+3</text><text x="0" y="0" dx="0em" dy="0.3em" style="text-anchor: end; visibility: hidden; font-family: &quot;Helvetica Neue&quot;, sans-serif; font-size: 12px; font-weight: 200;" fill="rgb(50, 49, 63)" stroke="none" stroke-width="1px">2.9e+3</text></g><line x1="74.78125" y1="0" x2="74.78125" y2="177" fill="rgb(0, 0, 0)" stroke="rgb(204, 204, 204)" stroke-width="1px"></line></g></g><g transform="translate(74, 0)" clip-path="url(#clip_0)"><clipPath id="clip_0"><rect width="255" height="177"></rect></clipPath><g><g><g><line x1="0" y1="0" x2="0" y2="177" fill="rgb(0, 0, 0)" stroke="rgb(60, 60, 60)" stroke-width="1px" opacity="0.25"></line><line x1="28.357638888888886" y1="0" x2="28.357638888888886" y2="177" fill="rgb(0, 0, 0)" stroke="rgb(60, 60, 60)" stroke-width="1px" opacity="0.25"></line><line x1="56.71527777777777" y1="0" x2="56.71527777777777" y2="177" fill="rgb(0, 0, 0)" stroke="rgb(60, 60, 60)" stroke-width="1px" opacity="0.25"></line><line x1="85.07291666666666" y1="0" x2="85.07291666666666" y2="177" fill="rgb(0, 0, 0)" stroke="rgb(60, 60, 60)" stroke-width="1px" opacity="0.25"></line><line x1="113.43055555555554" y1="0" x2="113.43055555555554" y2="177" fill="rgb(0, 0, 0)" stroke="rgb(60, 60, 60)" stroke-width="1px" opacity="0.25"></line><line x1="141.78819444444446" y1="0" x2="141.78819444444446" y2="177" fill="rgb(0, 0, 0)" stroke="rgb(60, 60, 60)" stroke-width="1px" opacity="0.25"></line><line x1="170.14583333333331" y1="0" x2="170.14583333333331" y2="177" fill="rgb(0, 0, 0)" stroke="rgb(60, 60, 60)" stroke-width="1px" opacity="0.25"></line><line x1="198.50347222222223" y1="0" x2="198.50347222222223" y2="177" fill="rgb(0, 0, 0)" stroke="rgb(60, 60, 60)" stroke-width="1px" opacity="0.25"></line><line x1="226.8611111111111" y1="0" x2="226.8611111111111" y2="177" fill="rgb(0, 0, 0)" stroke="rgb(60, 60, 60)" stroke-width="1px" opacity="0.25"></line><line x1="255.21875" y1="0" x2="255.21875" y2="177" fill="rgb(0, 0, 0)" stroke="rgb(60, 60, 60)" stroke-width="1px" opacity="0.25"></line></g><g><line x1="0" y1="177" x2="255.21875" y2="177" fill="rgb(0, 0, 0)" stroke="rgb(60, 60, 60)" stroke-width="1px" opacity="0.25"></line><line x1="0" y1="159.3" x2="255.21875" y2="159.3" fill="rgb(0, 0, 0)" stroke="rgb(60, 60, 60)" stroke-width="1px" opacity="0.25"></line><line x1="0" y1="141.6" x2="255.21875" y2="141.6" fill="rgb(0, 0, 0)" stroke="rgb(60, 60, 60)" stroke-width="1px" opacity="0.25"></line><line x1="0" y1="123.9" x2="255.21875" y2="123.9" fill="rgb(0, 0, 0)" stroke="rgb(60, 60, 60)" stroke-width="1px" opacity="0.25"></line><line x1="0" y1="106.2" x2="255.21875" y2="106.2" fill="rgb(0, 0, 0)" stroke="rgb(60, 60, 60)" stroke-width="1px" opacity="0.25"></line><line x1="0" y1="88.5" x2="255.21875" y2="88.5" fill="rgb(0, 0, 0)" stroke="rgb(60, 60, 60)" stroke-width="1px" opacity="0.25"></line><line x1="0" y1="70.8" x2="255.21875" y2="70.8" fill="rgb(0, 0, 0)" stroke="rgb(60, 60, 60)" stroke-width="1px" opacity="0.25"></line><line x1="0" y1="53.10000000000001" x2="255.21875" y2="53.10000000000001" fill="rgb(0, 0, 0)" stroke="rgb(60, 60, 60)" stroke-width="1px" opacity="0.25"></line><line x1="0" y1="35.400000000000006" x2="255.21875" y2="35.400000000000006" fill="rgb(0, 0, 0)" stroke="rgb(60, 60, 60)" stroke-width="1px" opacity="0.25"></line><line x1="0" y1="17.69999999999999" x2="255.21875" y2="17.69999999999999" fill="rgb(0, 0, 0)" stroke="rgb(60, 60, 60)" stroke-width="1px" opacity="0.25"></line><line x1="0" y1="0" x2="255.21875" y2="0" fill="rgb(0, 0, 0)" stroke="rgb(60, 60, 60)" stroke-width="1px" opacity="0.25"></line></g></g></g><g><g><line x1="0" y1="513.3" x2="255.21875" y2="513.3" fill="rgb(0, 0, 0)" stroke="rgb(153, 153, 153)" stroke-width="1.5px"></line></g></g><g><g><line x1="28.357638888888886" y1="0" x2="28.357638888888886" y2="177" fill="rgb(0, 0, 0)" stroke="rgb(153, 153, 153)" stroke-width="1.5px"></line></g></g><g><g><g><g><g><path stroke="rgb(255, 112, 67)" stroke-width="2px" d="M29.57701736111111,34.625625000000014L29.681940625,105.89529226202711L29.74007378472222,95.88411430555954L29.849250694444443,62.06669648024322L29.890369270833332,52.484564298411L30.806321006944444,61.89449147974554L31.0218390625,76.95354799533801L31.044525173611113,89.70284940161207L31.24302864583333,92.88350191259482L31.298326041666666,92.32937824545438L31.315340625,93.83488411536148L31.391906249999998,100.85943072894294L31.730780034722223,93.59832639620203L31.76764496527778,86.89846872158093L32.29226128472222,93.35647590008124L32.46240711805555,103.92745141447637L32.890607465277775,102.23524372130231L33.07351423611111,102.99733140423234L33.079185763888894,99.14771157627476L34.050434895833334,86.33972325111772L34.17095486111111,87.43938758590198L34.54811145833333,89.93838037872061L34.84303090277778,84.3795843893813L34.889821006944445,85.9573540220346L35.21026232638889,82.72736323090993L35.597344097222226,80.35236374624611L35.62428385416667,79.98415354527306L36.41687986111111,85.5988310067113L36.46225208333333,91.92852199786132L36.56575746527778,101.65892611694251L36.88336302083333,96.0698617856374L37.04783732638889,97.49731086204547L37.26335538194444,91.79578611685358L37.294548784722224,89.16630083679392L38.448704687500005,95.07757667979389L38.461465625,89.28614590495222L38.4997484375,62.7241997750894L38.512509375,67.4874151059301L38.79466788194445,65.67673791622708L38.99600711805556,59.34738571055726L39.5716671875,62.23251336209526L39.899197916666665,68.72031229713683L40.03673246527778,72.31899532590238L40.11613385416667,73.31872612504895L40.1203875,77.0044434863884L40.223892881944444,75.46981478283205L40.24232534722222,79.2421020571266L40.59963159722223,78.78437950680701L40.70880850694445,73.0886819896942L41.582223784722224,83.39131122585233L41.586477430555554,84.19137708882904L41.61625295138889,88.981592784879L41.624760243055555,94.26327733464255L41.7920703125,91.38191500876121L42.187659375,83.5559719803823L42.56481597222222,82.2990571839057L42.977419618055556,86.18324014941142L43.224131076388886,89.19829262255554L43.39853055555555,88.18612989714136L43.45241006944444,91.33173208696176L43.48076770833333,94.27357592926994L43.56158697916666,97.63050460902797L43.78986597222222,94.35685309750696L44.08620329861111,99.89526017192364L44.45343472222222,97.5585045845594L44.76253298611111,101.29247927010177L44.892978125,99.04369706433606L45.08864583333333,95.6414455325865L45.983329340277784,94.71646951230903L46.032955208333334,90.68504655712928L46.465409201388894,87.36126899429978L46.621376215277785,85.25050832306874L46.68801666666667,89.65417740355375L46.754657118055555,90.87782520274882L47.596878993055554,93.27880142618572L47.629490277777776,105.3276834364083L48.07895885416667,107.95270034542153L48.39940017361111,108.64430755052749L48.65461892361111,115.84704426216182L49.034611284722224,111.18792049577816L49.319605555555555,105.33372735346988L49.93638420138889,110.01212002681996L50.027128645833336,108.71251353852753L50.200110243055555,102.5131735643409L50.231303645833336,103.10613414440665L50.50637274305556,111.326545105607L51.13165868055555,114.79960988736995L51.476203993055556,112.98025101278397L51.924254687499996,112.54199443204655L51.971044791666664,111.69533049222824L52.58498767361111,111.34637207812187L52.93662239583333,102.9547170745503L53.06564965277778,103.80458414015517L53.1875875,111.3457526334246L53.327957812499996,109.20953484326728L53.43146319444444,111.19253204829161L53.51370034722222,117.40808630325452L53.54205798611111,120.99559531398809L54.131896875,123.75305466256455L54.19428368055556,119.92896012300776L54.54450052083333,117.36125272899659L54.699049652777774,118.35772772799838L54.82949479166666,124.17486831421783L54.972700868055554,124.2801333172423L55.17545798611111,126.0806622635329L55.51149600694445,125.89685262224394L55.71992465277778,125.64833795771371L56.18357204861111,126.32532440247769L56.294166840277775,126.70819446169779L56.359389409722226,128.15313839771318L56.611772395833334,128.4929245825269L56.806022222222225,128.45400683232407L57.03430121527777,130.1889928629387L57.0796734375,124.4898645617183L57.83398663194445,121.22126167078284L57.98286423611111,113.88380781248259L58.39546788194445,116.92683907049818L58.43658645833334,119.77176506495196L58.55427065972223,123.02766274078415L58.694640972222224,119.06600867355013L59.44186475694445,118.12198389556346L59.48156545138889,119.59089100836786L59.807678298611116,123.09718516176957L59.94804861111111,126.407723659658L60.04871822916667,126.59945165928644L60.07140434027778,123.24970074467029L60.092672569444446,105.67370208296936L60.980266666666665,103.6687040875558L61.00011701388889,105.58121107149196L61.31488680555556,107.74496740066411L61.66935729166667,113.72647600187392L62.73135086805556,114.27563451777235L62.938361631944446,117.93304167064736L63.21201284722222,120.33292677649271L63.27581753472222,122.96851085117248L63.32118975694444,123.68421102439822L64.11094999999999,120.01091294371389L64.48527083333333,120.38840066531573L64.50937482638889,123.74856206456477L64.51788211805555,115.96464030213335L64.53489670138889,117.23386422038865L65.06518454861111,115.07953961326002L65.6266657986111,119.78921199987087L65.75002152777778,128.92822321987825L65.82658715277778,126.94088639908622L66.02367274305556,126.33811013341177L66.07897013888888,130.83333236164353L66.17680399305556,131.26837419900204L66.59082552083333,132.95243984286816L66.6276904513889,127.8817966048832L67.29551284722223,123.79516287645889L67.34939236111111,116.7866796984164L67.45006197916666,118.1831738552411L67.56774618055556,121.69671907776483L67.57341770833332,123.64279732729582L67.57908923611112,126.46626078092953L68.25967256944445,123.78694702740917L68.42840052083334,127.24975252872206L68.89913732638888,128.47923090550782L69.15152031250001,131.8125347562859L69.79523871527778,133.00824893456183L69.95262361111111,127.7009702714615L70.30992986111112,125.44467316580523L70.32410868055555,119.49193024776731L70.53111944444446,124.82236237322743L70.60059565972222,120.06175101514577L70.72395138888888,119.3949970654016L71.21595642361112,125.25827069710567L71.65408194444444,127.72213117295692L71.93056892361112,125.85540398650772L72.04258159722222,126.2993495564206L72.10071475694444,126.56186816877062L72.43249913194444,122.53871370054317L72.74868680555555,121.4053253747536L73.018084375,129.86530911914844L73.4675529513889,121.67490772463591L73.5824013888889,120.06104193932563L73.80500885416667,121.27093919449075L74.04888454861111,121.76223404774063L74.22186614583333,124.46543182564541L74.30410329861111,127.22946965116896L74.4855921875,129.69426567859475L74.59476909722223,129.26329267336519L75.14065364583332,131.0390259127895L75.37318628472222,133.56822052255993L75.74325347222222,132.0532688757881L76.51741701388889,133.81871521088277L76.85061927083333,130.668584502238L76.87755902777778,134.737538561162L77.22210434027778,136.4636597085384L77.2518798611111,132.96160623130717L77.41068263888889,129.97712162867577L77.5510529513889,128.63928446383485L77.6786623263889,137.10385602868843L78.06716197916667,137.40501686172624L78.13096666666667,144.27395268293978L78.30536614583333,138.36784127123465L78.47125833333334,137.39674464326544L78.56058489583334,138.6135701798927L79.14049861111111,139.06708816222346L79.5261625,138.84469184585996L79.71190503472222,140.86809766243027L80.28047569444443,134.30664426488292L80.80083836805557,137.9232923400687L81.06031076388889,137.92554193907054L81.2588142361111,140.2949178119698L81.35806597222222,147.7045510332732L81.63880659722221,140.82486914562992L81.68985034722223,140.86812305139134L81.89402534722221,138.26918115576916L82.02872413194444,140.12103625837565L82.06842482638889,141.95043263290262L82.21304878472222,139.32319498437565L82.9687798611111,140.18807548607762L83.12191111111112,140.1465595146123L83.4182484375,139.8808063707335L83.584140625,141.68569333641153L84.1101748263889,143.79006150299318L84.49583871527777,147.28805535302718L84.70993888888889,147.8954442025422L84.76523628472222,149.2642863912804L84.9240390625,150.1536633674485L85.01761927083334,142.5612345302289L85.14664652777778,142.98430963680016L85.42313350694444,141.38562867303915L85.54223559027777,144.52454960714783L85.83715503472223,140.98328903105337L86.06401614583334,140.8965065634917L86.2993845486111,137.2970573474526L86.49221649305555,135.86885161266463L86.81549357638889,131.441716451279L87.08772690972222,130.2450448061221L87.42092916666667,134.5177119198413L87.63361145833333,133.80994072784333L87.68890885416667,134.2585452146372L87.86614409722223,135.67785268050076L87.95972430555555,132.8185674124098L88.07173697916667,133.8908402610263L88.35531336805556,138.39055551476096L88.44463993055555,139.10974996329236L88.61903940972223,140.96283746698052L88.72396267361111,138.79635372026416L88.96642048611112,139.56346834824365L89.2783545138889,137.56568401340564L89.37193472222222,141.4980531120893L89.61297465277778,143.80353721739704L89.92349079861111,146.52937788043653L90.16027708333334,142.3822457076086L90.23684270833333,142.82931271399798L90.51758333333333,142.48941384005786L90.55019461805556,143.1998288281247L90.92026180555555,143.6907487529309L91.06346788194445,143.1512724372066L91.42077413194444,135.2413326934671L91.70576840277778,131.9831994241133L91.72136510416667,127.63487948169359L92.03897065972222,130.59120403352944L92.07583559027778,130.79528218974718L92.46858888888889,128.24725397076884L92.57634791666668,132.32317436227137L92.74507586805557,138.0741069260508L92.77059774305556,137.13238373344475L93.69789253472221,134.0944578600975L93.71207135416665,141.22807457409368L94.10766041666668,140.98206711668414L94.2494486111111,139.2074854050145L94.33735729166666,134.40223686451014L94.75988611111111,136.72607567806048L94.89742065972221,135.728954072168L95.32562100694444,134.68765866495067L95.48584166666666,137.17101779845666L96.19903628472221,134.17668923638337L96.58611805555556,133.54727031274479L96.90939513888888,137.82402708274114L96.91648454861111,134.0792356049348L97.10222708333333,132.44181204444095L97.37729618055556,130.66723083999653L97.38296770833334,135.07925775599773L97.57579965277777,141.22939448039904L97.99832847222221,137.7378761993508L98.36981354166667,138.4190900198455L98.4024248263889,143.30492399881857L98.97524913194445,147.83920481671066L99.20069236111111,136.68968289460878L99.5353125,140.1661138849333L99.93515520833334,143.95227571421376L99.96067708333334,143.4118743879095L100.03015329861111,143.50724944911858L100.50939739583333,147.42292450420695L100.7220796875,146.92056725886437L100.72349756944443,149.90567252028274L101.35161927083334,143.30833205048083L101.398409375,147.86929956564774L101.63944930555556,146.0586821090829L102.34697239583333,146.2655013981746L102.49159635416667,145.29007625835715L102.64614548611111,145.33216582490417L102.72412899305556,138.39281965256984L103.03039149305556,140.8928501873129L103.05591336805556,141.07419016858162L103.30120694444444,132.1511599212546L103.75209340277777,131.99742532561356L103.8385842013889,131.6101968311381L103.92649288194444,128.92536464802424L104.0682810763889,130.58475613732344L104.10231024305556,132.51596802359117L104.13775729166667,129.02296978080233L104.5858079861111,131.1767353027222L104.90766718750001,127.2402237597546L105.13452829861112,123.94145138377912L105.37982187499999,124.08575980985438L105.65914461805555,122.93438382886885L105.68041284722221,127.62152643963438L106.51838107638889,124.95408221852246L107.01463975694445,131.0657989966703L107.13657760416667,135.10609409700334L107.23441145833334,143.9660008860335L107.35918506944445,142.64527579743012L107.86536892361111,146.65599821768714L108.0213359375,146.8252108959184L108.29924079861111,146.31449124675635L108.75012725694445,144.37726087208065L108.76430607638889,152.07559728487263L109.26765416666666,151.71319954369008L110.09995086805556,152.98574999947732L110.24599270833333,150.30556376906077L110.44449618055555,143.29493961871717L110.49837569444443,138.40175815684546L110.68411822916666,138.511394841161L111.19171996527778,132.2240539166152L111.60006996527778,137.34113232622323L111.64686006944444,130.20740786313215L111.69790381944445,138.0840860831666L111.83685625,135.80922391039678L111.87797482638888,140.11636401935715L111.9545404513889,141.4523410085347L111.95737621527778,143.69388012545463L112.34871163194445,139.61333012560445L112.7967623263889,138.84439567261433L113.1866798611111,139.155356105353L113.2150375,140.09675799481772L113.23772361111112,140.98934137502346L114.48545972222223,140.0002086779508L114.56486111111111,141.93018781015576L114.65560555555555,139.3483690291402L114.79597586805555,140.70404832495663L114.89806336805556,140.91533099246095L114.96895746527778,141.70286039321488L115.09798472222222,136.26088685389337L115.1419390625,133.47176577104307L115.81259722222222,132.49175118124347L115.93595295138888,126.52317462268944L115.97565364583333,129.1727923654986L116.04938350694444,129.89557562894873L116.13303854166666,131.55276806605391L116.43221163194444,129.53668981901893L116.46198715277778,129.0202222775467L116.51728454861112,130.76495004979208L116.6987734375,132.9989550448129L116.72854895833333,126.15099474540972L117.41338593750001,130.2766684886422L117.41763958333334,127.3441032999342L117.64450069444445,128.0174429699408L117.92949496527778,133.0869880894506L117.99897118055556,133.85568784007586L118.39739600694445,130.46205426114636L118.65261475694444,132.44978633503175L119.19849930555556,134.5067429066067L119.2665576388889,135.2274897829382L119.3686451388889,133.0571560878475L119.68341493055556,127.71644047906275L119.86632170138888,132.7886089311565L119.87482899305556,133.2243916659705L120.36399826388889,130.41132749937344L120.61070972222223,134.63625954435798L120.71846875,132.3293420127737L120.76809461805554,128.55163459372292L121.26009965277778,131.8287571572998L121.30405399305556,136.039080721355L121.36785868055556,138.82903494169997L121.48412499999999,143.4151653342487L121.4968859375,141.3456473603942L121.76628350694445,140.35475864974538L122.10373940972222,134.77866418125518L122.23985607638889,136.84139776312963L122.41709131944444,141.76585870703153L122.83962013888889,141.72567427675804L123.02961631944444,142.10029434908228L123.07215277777777,141.2394916964006L123.19976215277778,141.3326397191433L123.44789149305555,144.0315053370727L123.83780902777778,144.45210480336544L124.05049131944445,146.6006443230289L124.2560842013889,147.37954749326508L124.470184375,143.72978712870417L124.56801822916667,141.44812091583375L124.64316597222222,141.4404708115551L124.77786475694444,139.6864237303996L125.32374930555555,139.92203135735969L125.49956666666667,138.71807822162373L125.83844045138889,141.5071084121567L125.92918489583333,139.81491160902695L126.23119375,140.88412887097584L126.28223750000001,143.99790348387828L126.38999652777778,145.6308863532639L127.23080052083333,142.30444134586722L127.53848090277778,143.20464299985474L127.80220694444444,142.94978014029897L127.85466857638887,142.2948646262691L128.02339652777778,141.04918377887657L128.48137239583332,139.23660858946542L128.65151822916667,136.44681814067508L128.6968904513889,136.19882382660762L128.97195954861112,137.25814000351716L129.3420267361111,136.47045559300918L129.47105399305556,140.38637763624732L129.96164114583334,137.1961286421539L130.0878326388889,136.62019180332916L130.40827395833333,141.16062402680484L130.97400885416667,139.45739963681964L131.01796319444443,141.3617244680595L131.19378055555555,129.76255058082387L131.47877482638887,131.30029552274146L131.4887,130.58239097046734L131.74250086805554,129.91415187342056L131.95234739583333,132.5444148721137L131.96510833333335,127.57578588490239L132.14517934027776,126.30108229641212L132.62725920138888,130.3469020208725L132.63151284722224,130.28814404534776L132.6400201388889,130.313079640813L133.1703079861111,134.42864667673172L133.4255267361111,135.67678200905857L133.71052100694445,136.51690380815265L134.15715381944443,137.88808842733738L134.46058055555557,136.93767814417396L134.49319184027777,131.8883638942097L134.50737065972223,134.89502750478871L134.59669722222222,134.19377475430986L134.7739324652778,133.56407330426953L135.00504722222223,135.42966597384265L135.18086458333332,134.74489376122398L135.23332621527777,138.0300918851016L135.8657015625,135.80630947881798L135.86995520833332,137.93147925115105L135.98196788194443,136.138931326036L135.9933109375,137.8797881934324L136.11666666666667,139.33822249664775L136.55053854166667,138.148400246983L136.62993993055554,138.69268522228467L136.74478836805557,130.84141670005624L137.30626961805555,131.81450181227717L137.3147769097222,137.24660022724083L137.45940086805555,138.5360343451418L137.7543203125,132.19636611570576L137.9514059027778,139.12047248509222L137.95424166666666,141.23798773658302L138.01521059027777,140.58902697562004L138.36968107638887,137.49306177805806L138.39662083333334,141.3338933077718L139.0332498263889,142.68659955804935L139.35794479166668,146.266391006053L139.6202529513889,141.86150190544765L140.16188385416666,143.51685171490288L140.4667284722222,140.5484790434126L140.52911527777778,140.7642561390714L140.68508229166667,136.13163614039863L140.8169453125,138.43626488475724L140.82828836805555,140.67751339628154L141.10477534722222,138.06337328712215L141.212534375,142.56738130753098L141.52446840277779,138.56443553517633L141.54573663194444,138.395990541229L141.7811050347222,134.92353557890297L141.9725190972222,133.72161952101268L142.01221979166667,133.02494353082545L142.38795850694444,134.09263667774297L142.66302760416667,135.5845605099687L142.8558595486111,132.11510445897187L143.04869149305554,133.61819257264497L143.31383541666668,123.82956081538052L143.40599774305556,126.2924797338425L143.60024756944446,129.86979426045824L143.6782310763889,127.20412733441242L143.9405392361111,131.33868220351022L144.1759076388889,131.02625148315917L144.1858328125,135.6464643475386L144.7189564236111,137.50936650897617L144.8522373263889,134.72136735807854L144.88343072916666,130.7297931222707L145.52147760416668,131.62875131004364L145.68595190972223,129.47413535872676L146.0900482638889,125.92984682285413L146.12265954861113,124.74746358099839L146.52533802083335,126.17827972289857L146.59765000000002,119.20232675060873L146.7224236111111,117.91315657554784L147.18039947916665,123.3852416382079L147.27256180555557,131.2003043518285L147.48949774305558,133.50139891664563L147.58591371527777,131.82183785798887L148.08359027777777,131.53210763664305L148.15023072916668,131.95258437297875L148.21545329861112,132.94016394837618L148.21970694444445,132.0932447459214L148.42529982638888,129.13885777132924L148.66633975694447,132.53181000689162L148.83223194444443,136.78449941635873L149.05909305555556,140.26398697472283L149.49863645833332,139.62321327725056L149.7566909722222,142.7099891419083L149.8516890625,144.12485252019792L150.1423548611111,148.0318672681782L150.3110828125,144.1584305413604L150.31533645833332,136.62198892765406L150.5719730902778,133.88954003488863L150.95338333333333,139.61658603139975L151.18449809027777,142.34823992825977L151.29651076388888,139.7732909354338L151.3475545138889,137.238156226656L151.38158368055556,144.61730820652946L151.55456527777778,144.37088988587658L151.75165086805555,144.96699945685918L152.16992604166666,147.33668612006L152.26775989583334,145.026205008054L152.8448378472222,146.52210070597906L152.87744913194445,146.9891174176077L152.93416440972223,140.1880658076829L153.0674453125,141.91045994712943L153.5240032986111,140.5961639524165L153.74235711805557,140.54314611674516L153.82743003472223,140.6724300646409L154.04861961805554,134.40460822516903L154.43711927083334,133.50902240265214L154.45696961805555,131.86224516238693L154.585996875,133.2232081461482L154.67390555555556,131.9939845239162L154.72069565972222,127.42761846898549L155.16591059027778,127.20046785255565L155.31904184027778,130.0121710673001L155.37292135416666,133.42770396057008L155.90462708333334,133.36564198736463L156.0251470486111,137.48570278862815L156.13290607638888,138.47238250976534L156.2477545138889,135.86464425878884L156.39663211805555,135.26997983291L156.7355059027778,133.81216934961896L156.7681171875,137.52251491465708L157.19348177083333,130.6968619827617L157.25161493055558,129.28633777179024L157.62168211805556,129.2344539946112L157.82869288194445,125.74694082171256L157.88966180555556,121.26999673954136L158.17323819444442,124.02279850601687L158.65531805555557,126.80826163637221L159.1487409722222,127.39137297273497L159.2366496527778,127.89868923991459L159.44791406250002,128.87057031592312L159.6294029513889,122.11213828433077L159.79671302083332,125.65392445589768L160.21782395833333,126.4188445103079L160.43617777777777,128.97612204658185L160.62192031249998,127.40650984192368L161.1224326388889,128.48292135773136L161.17773003472223,126.0719207991066L161.2316095486111,118.09991621919593L161.45563489583336,121.04373021251067L161.76189739583333,123.97864876840802L162.00719097222222,126.8271970141258L162.5800152777778,125.73797731271321L162.68352065972223,125.6205545814419L162.70620677083332,122.91340193091494L162.74874322916668,120.22573776321407L163.02948385416667,119.33703439704888L163.0337375,119.07426845734398L163.35417881944446,123.47296661160955L163.38962586805553,125.77241995044858L163.93692829861112,127.43511316048182L164.27580208333336,129.21113309443365L164.3736359375,131.59195499006842L164.67139114583333,129.57805106821002L164.7791501736111,135.260558461389L164.9861609375,136.3480651152501L165.25981215277778,139.70525860372513L165.82129340277777,139.34160774335263L165.85532256944444,136.80182196901737L165.9375597222222,138.36576477211563L166.4182217013889,141.21438757468923L166.9031373263889,141.28613631722035L166.94000225694447,134.92866533686552L167.14984878472222,130.98237763618678L167.4646185763889,133.68852648145477L167.51708020833334,137.70107383330924L168.061546875,136.42052894997835L168.13669461805557,136.92667461455082L168.14661979166667,134.55058598610356L168.3550484375,130.55396488749324L168.53653732638887,131.1446979885877L168.58899895833332,130.06622818972897L169.0115277777778,134.2522060909709L169.06257152777778,135.05336048187382L169.15189809027777,132.51096193368647L169.36741614583332,135.1898657403178L169.54606927083333,135.21423553835632L169.87927152777777,135.80561054409097L169.9161364583333,134.91195229729905L169.95441927083334,133.2207585079988L170.66336024305556,133.27324515719894L170.70873246527776,127.8445456414791L170.7952232638889,120.8789660773312L170.9965625,124.41131946959808L171.63319149305553,118.01178608220862L171.78065121527777,122.59738069176122L172.2556416666667,122.1523926225851L172.40451927083333,125.68444277683048L172.46407031249998,126.16679705871773L172.53354652777776,129.5600525579241L172.79727256944443,132.94514449451447L173.26091996527776,134.62483004506305L173.3318140625,138.14328454055675L173.48069166666667,136.92450252204796L173.96560729166666,136.4406772698432L173.99112916666667,140.45235954285886L173.9953828125,139.81344756318236L174.02799409722223,137.16010280686416L174.24918368055557,135.82303002617778L174.66320520833332,132.5320108858647L174.7411887152778,134.17999729727825L174.9850644097222,132.64459612712074L175.02760086805557,137.11439353345162L175.63587222222222,134.3655330131143L175.9676565972222,138.83452830799422L176.4554079861111,144.28404307973386L176.64540416666668,146.20815497049097L176.7333128472222,147.49450146074656L177.1374092013889,144.08411381467192L177.25792916666666,137.8398274332048L178.0831364583333,139.6661017089273L178.321340625,143.9194290380346L178.42484600694445,141.40361572407485L178.50282951388888,139.49837915166734L178.69707934027778,141.17021942253575L179.08132534722222,134.92379892071187L179.4797501736111,131.5978565286407L179.65273177083333,134.53400837577664L179.7718338541667,133.76929503819898L179.86824982638888,131.6429280343791L179.89518958333332,133.51753357078493L179.9830982638889,136.35537949349157L180.261003125,138.61665404414242L180.28227135416668,141.78124565877113L180.71472534722224,138.37652253332368L180.96710833333333,137.0773238444444L181.05927065972222,135.86579145999994L181.18546215277777,133.58508731399996L181.34851857638887,134.7291574156078L181.51299288194443,129.30688530197665L181.93126805555553,130.11582177177905L182.17372586805556,133.4546145946011L182.4686453125,133.196090635141L182.73804288194444,131.51423157162694L182.85998072916667,127.19068341446422L183.00885833333334,127.88935589333033L183.15206440972221,132.70276565311838L183.59018993055557,137.06397288907607L183.83831927083335,137.31845060016852L183.9163027777778,137.5032305401517L183.94040677083333,136.62251871660527L184.44800850694446,133.25945434494477L184.63091527777777,134.84575891045034L184.86344791666667,134.1273080194053L185.10590572916666,134.88637865789445L185.8276076388889,136.30114079210506L185.89424809027778,135.45927671289454L186.41744652777777,135.24366154160512L186.59893541666665,139.4967328874446L186.6953513888889,141.46599709870014L186.77617065972223,139.79199882925982L187.10653715277778,135.4261114463339L187.10937291666667,136.9616878017005L187.4170532986111,133.31455141899136L187.6850329861111,122.36973990502187L188.121740625,124.51401591451969L188.16427708333333,124.26990590021612L188.2876328125,127.00960281019451L188.29755798611112,127.01724252917504L188.34009444444445,129.1949394432497L188.8179206597222,131.1213204989247L188.9228439236111,126.46093844903228L189.5155185763889,126.86859460412906L189.69842534722224,127.00317264371617L190.07699982638889,123.14179287934455L190.31945763888888,120.24654154551172L190.3520689236111,118.168146570648L190.46266371527778,116.5937333540129L190.97877274305557,118.7956725186116L191.0057125,117.9928784845239L191.3757796875,117.35639207650118L191.40413732638888,121.74488245869483L191.60405868055557,119.03989421282537L191.81957673611112,119.62546729154283L191.92166423611113,115.1323205623886L191.93726093749999,119.49377600614974L192.1003173611111,125.39779768531996L192.43919114583332,132.383330416788L192.8461232638889,134.7984348751092L193.03328368055557,134.80377888759824L193.06873072916665,129.12360864044004L193.80177569444444,124.6408727763961L193.87550555555555,126.66794748606114L194.29661649305558,134.89895201724016L194.44265833333333,132.92511931551616L194.6326545138889,129.97854258904266L194.65675850694444,130.98199763189618L194.69787708333334,129.9308603687066L195.12324166666664,126.71702433183592L195.14025625,128.5150718986523L196.08740138888888,125.05066636894335L196.1100875,116.45140117247871L196.212175,120.50394855523086L196.54537725694445,110.50903966162188L196.6488826388889,117.02538569545968L196.8119390625,115.00253462591368L197.03029288194443,108.91505438109577L197.22596059027777,111.57511144298621L197.46700052083335,114.22360029868757L197.5832668402778,113.16163882838916L197.65274305555556,111.94018336840176L197.7406517361111,112.53879003156156L198.1872845486111,116.26710541317101L198.20997065972222,118.90316808962734L198.26101440972224,120.94864984023488L198.64242465277778,115.7282384206645L198.6495140625,114.9923821811371L198.74734791666668,115.58445646302339L199.13726545138888,117.66071923957259L199.40949878472222,122.36135789911137L199.52860086805555,124.79409710920027L199.5938234375,120.07908883870991L199.89157864583333,116.55611745483893L200.0276953125,120.25525570935505L200.17231927083333,122.53354263841953L200.70544288194446,120.60150087457757L201.0074517361111,121.01128599219795L201.0840173611111,121.2337823929782L201.2073730902778,123.0491541536804L201.4115480902778,122.4594262383124L201.65967743055555,122.22735861448115L202.38137934027776,119.23146076572836L202.40548333333334,119.07291612958525L202.49480989583333,115.79142307619699L202.6819703125,117.72137796096007L203.12009583333332,122.68164088507888L203.16972170138888,122.63218521942252L203.88858784722223,121.94819347970682L204.06298732638888,118.78647579189237L204.65424409722223,123.05907821270318L204.83856875,123.24594360920631L204.89528402777776,123.97509924828569L205.22281475694444,122.1519132980665L205.41422881944445,127.49290946825984L205.71056614583335,127.09935934174634L205.88921927083334,127.42638952085292L205.936009375,129.02645899161917L206.19689965277777,130.7322116520276L206.2578685763889,128.29041165381705L206.3571203125,130.98205798843537L206.4492826388889,125.56122718959188L206.70875503472223,128.1700072782499L206.75979878472222,129.8099093580421L207.54530538194444,127.2166059222379L207.61903524305555,127.68144533001416L207.89126857638888,124.75678675892685L207.96074479166666,122.79048308303419L208.0486534722222,123.25543477473076L208.15215885416666,122.08659972010923L208.66968576388888,120.44084255571553L209.2694498263889,125.20069580014399L209.28362864583332,123.98650122012961L209.5374295138889,120.52635109811668L209.57145868055557,122.55627848830503L209.63951701388888,125.28284502424017L209.74302239583332,124.41443552181619L209.78555885416665,121.84837336611892L209.94152586805555,120.20093458907736L210.5200217013889,120.05815043192744L210.67740659722222,118.07852977350029L210.8844173611111,115.56907535572063L210.887253125,116.82254282014858L211.15097916666667,116.37978853813374L211.21620173611112,113.48118468432035L211.29134947916666,117.10383943366179L211.29276736111112,117.94332590045188L211.30694618055557,115.30874331040667L211.87551684027778,119.34244997301835L212.30797083333331,122.58300569593136L212.39446163194444,124.45151762633827L212.69079895833335,127.62661586370447L213.2040722222222,129.47751677733402L213.91868472222222,127.61795948436624L213.95129600694443,123.72828853592964L214.04487621527778,120.65902218233671L214.05480138888888,119.74411996410302L214.46456927083335,117.52999182999743L214.511359375,116.85376586477116L214.7991894097222,111.60142316501279L214.97500677083335,107.06450763073812L215.18627118055556,108.53786936766427L215.5194734375,105.36588243089787L215.5449953125,105.08423168780804L215.61730729166666,103.43722968601945L215.87961545138887,102.34470815784725L216.1008050347222,103.17273734206255L216.12065538194446,104.3319171723094L216.20714618055555,108.62291295507843L216.2312501736111,108.86737165957054L216.60131736111111,114.25283521382835L216.88914739583333,116.67780169244557L217.15712708333334,112.88062296363074L217.2039171875,112.72643107742394L217.53144791666668,113.90278652925184L217.66614670138887,107.91100787632669L217.7072652777778,108.03680989631118L217.76256267361111,109.44042048382848L218.29001475694443,112.44619093544557L218.75791579861112,117.640446841901L218.79478072916666,121.30395075390227L218.799034375,119.3663141501917L219.04716371527778,117.37594191486005L219.15917638888888,116.14415333860842L219.62282378472221,107.09318717466944L219.96453333333332,106.2073684572025L220.44803107638887,107.63369411148226L220.67914583333334,108.59800072572466L220.93152881944442,107.81613815315221L220.9527970486111,112.28971183783696L221.05346666666665,113.26803223120172L221.25764166666667,113.97722900808158L221.76949704861113,120.10250610727343L221.85598784722222,120.38269299654607L221.88576336805556,121.76323619689144L222.18635434027777,124.38853757720233L222.19911527777776,123.12280881948209L222.3763505208333,121.01015293753392L222.4614234375,122.09258681370241L222.52806388888888,116.84913374756655L222.57768975694444,112.39267393726298L223.28804861111112,113.73753613338044L223.2937201388889,117.06049094289394L223.49364149305555,120.15392781051858L223.63684756944446,114.98622252946672L223.80557552083334,116.7153988360904L223.83818680555555,123.18635895248136L224.11892743055554,123.89934805723325L224.16571753472223,124.11638085404897L224.94271684027777,128.20999276864404L224.9526420138889,127.55060472224841L225.02070034722223,126.31234569045323L225.11144479166666,125.33951256183758L225.1468918402778,126.89918630565381L225.4375576388889,128.84887890555717L225.72964131944445,125.93308820738429L225.95366666666666,125.20984188664585L226.1138873263889,124.42795489036408L226.33933055555556,122.70793261910109L226.35350937500002,125.45359292164409L226.4839545138889,129.47985862947968L226.6030565972222,125.78154879192235L226.73491961805556,131.38300730384336L226.99722777777777,127.18320657345907L227.68348263888888,129.3328859161132L227.77706284722223,130.8565001321191L227.91459739583334,133.6094959074814L228.76958020833334,131.71082173177234L228.79793784722224,133.8502395585951L229.1637513888889,122.57779443574336L229.16658715277777,122.61865862009873L229.35800121527777,126.41240614920213L229.63448819444443,124.41476409385226L230.07261371527778,120.66841268446703L230.18320850694442,116.07982141602034L230.1846263888889,118.30067728711359L230.6255876736111,115.94867435332412L230.73618246527778,114.19943191799175L230.80140503472222,115.76329434142694L230.96587934027778,115.71556346685458L231.27781336805555,114.8303821201691L231.5670612847222,113.60154246772245L231.59967256944444,115.04070072095024L231.69750642361112,110.91353345647242L232.0349623263889,114.48463367527827L232.28592743055555,112.47210253431295L232.5624144097222,110.56592467834263L232.57942899305556,108.45068858257865L232.76800729166666,109.40181410908636L232.9480782986111,110.166470710873L233.35075677083333,111.24113613978568L233.8385081597222,114.44831410295551L233.96753541666666,114.56748125223031L234.12917395833333,115.340862716851L234.38864635416667,117.09890603500968L234.5176736111111,114.75895293150876L234.76296718749998,117.82147292156105L234.8366970486111,118.91312418897522L234.89341232638887,121.80436260015584L235.0465435763889,125.39405592998398L235.64630763888889,123.88574752936839L235.65056128472222,128.1241102764316L235.9780920138889,127.89582883863218L235.98376354166666,128.61534314715178L236.22054982638886,132.32100883243658L236.43748576388887,126.84372044919292L236.44882881944446,120.53134840427364L236.5466626736111,124.45389174988145L237.1138154513889,121.93192374188548L237.12799427083334,120.40298136769698L237.31231892361112,116.43830823092728L237.37754149305556,117.31427596740484L237.57462708333333,118.88144693023467L237.87805381944443,113.86775580166432L238.1474513888889,116.57246618341195L238.70042534722222,118.07959456507079L238.8237810763889,118.06426010856372L238.99676267361113,107.81086649516827L239.07191041666667,115.16637912543655L239.09034288194445,116.38193977246317L239.0988501736111,107.19962079521689L239.18675885416667,107.9728572752655L239.25623506944444,101.5231340477389L239.54831875,102.67598263026971L240.27994583333333,104.95325936724277L240.41606249999998,105.44335459751066L240.7067282986111,107.8200191377596L240.7294144097222,105.19143839097586L241.3830579861111,104.21849311144861L241.4043262152778,99.31219023585061L241.5446965277778,102.17217265269525L241.92894253472224,96.78888761398827L242.0055081597222,97.1019340576676L242.13028177083334,97.90554065190084L242.43938003472223,99.02047254862482L242.49042378472222,98.74280029376231L242.7101954861111,104.54408276438606L243.07742690972222,107.02247592837713L243.3227204861111,107.2234283355394L243.34682447916668,107.13288694241513L243.5680140625,110.78514468372047L243.85726197916668,110.68063021534846L243.87711232638887,110.69719219381365L244.04158663194443,115.48003547443231L244.55060625000002,115.72822631175467L244.7590348958333,120.83908186661434L244.8767190972222,118.95479867995292L245.00574635416666,118.14394381195766L245.1560418402778,117.85667443076193L245.239696875,117.67556948768575L245.24111475694446,114.18704493637807L245.24395052083332,113.64277794274025L245.24536840277779,110.42050014846622L245.24962204861112,110.91199656916645L245.25245781249998,112.74750533510135L245.2567114583333,119.06998158381779L245.2623829861111,120.29524260512353L245.26947239583333,119.77642676746275L245.27372604166666,119.29807566786488L245.2751439236111,120.43200892139089L245.27656180555556,113.39200946968148L245.2779796875,109.71519729224458L245.27939756944446,109.34083955032476L245.2808154513889,106.50155415486267L245.28365121527779,107.63959873937641L245.28506909722222,107.31253720528251L245.28790486111112,109.48015848475421L245.28932274305555,113.73130462358345L245.29215850694445,118.32136166122513L245.2935763888889,116.03616299510261L245.2949942708333,119.04094525516271L245.29641215277778,115.71278593472452L245.29924791666664,110.38789611078332L245.3006657986111,115.002543999705L245.30208368055557,114.97874316418759L245.30350156249997,118.5429984376126L245.30491944444444,119.77563609385132L245.3063373263889,122.04067392489588L245.30775520833333,124.94798153240633L245.30917309027777,124.40924817408754L245.31059097222223,124.95569835667882L245.31200885416666,124.94969102101098L245.3134267361111,117.12309691890985L245.31626250000002,115.49407880416729L245.31768038194443,110.23406948332088L245.32051614583335,108.59166253498877L245.32476979166668,106.10680878148992L245.32760555555555,109.37956540334095L245.33327708333334,104.14222746652246L245.33469496527778,104.25360616029988L245.3361128472222,106.33993304426991L245.33753072916667,100.93600453476485L245.341784375,105.01382524828053L245.34320225694444,102.79825522345247" style="fill: none;" fill="none"></path></g></g></g></g><g opacity="0.2"><g><g><g><path stroke="rgb(255, 112, 67)" stroke-width="2px" d="M29.57701736111111,34.625625000000014L29.681940625,170.03799279785156L29.74007378472222,78.76499999999999L29.849250694444443,-20.41398559570311L29.890369270833332,22.82690698242186L30.806321006944444,96.575625L31.0218390625,140.45805615234374L31.044525173611113,149.565L31.24302864583333,109.186875L31.298326041666666,89.274375L31.315340625,102.66L31.391906249999998,144.24095581054686L31.730780034722223,46.705140380859376L31.76764496527778,41.926874999999995L32.29226128472222,138.18207641601563L32.46240711805555,179.478L32.890607465277775,89.8275L33.07351423611111,108.71226782226563L33.079185763888894,69.70139868164063L34.050434895833334,-13.36064794921873L34.17095486111111,96.133125L34.54811145833333,109.96838012695312L34.84303090277778,39.277146972656254L34.889821006944445,98.89875L35.21026232638889,55.97625000000001L35.597344097222226,60.511875L35.62428385416667,76.88437499999999L36.41687986111111,133.1925L36.46225208333333,145.914375L36.56575746527778,185.10773217773436L36.88336302083333,47.90062499999999L37.04783732638889,109.85421166992188L37.26335538194444,42.24401440429688L37.294548784722224,66.23226782226563L38.448704687500005,146.799375L38.461465625,38.46798559570314L38.4997484375,-170.9477321777344L38.512509375,109.48716137695313L38.79466788194445,49.678014404296874L38.99600711805556,3.3187499999999943L39.5716671875,87.81485961914062L39.899197916666665,126.33375000000001L40.03673246527778,104.319375L40.11613385416667,82.21935205078124L40.1203875,109.85421166992188L40.223892881944444,61.7787041015625L40.24232534722222,112.926L40.59963159722223,74.694L40.70880850694445,22.15356372070312L41.582223784722224,175.584L41.586477430555554,91.35485961914063L41.61625295138889,131.89356372070313L41.624760243055555,141.6L41.7920703125,65.54708422851562L42.187659375,13.36064794921873L42.56481597222222,71.02125L42.977419618055556,121.04514038085938L43.224131076388886,116.266875L43.39853055555555,79.096875L43.45241006944444,119.585625L43.48076770833333,120.702591796875L43.56158697916666,127.794L43.78986597222222,64.93687499999999L44.08620329861111,149.675625L44.45343472222222,76.5525L44.76253298611111,134.862591796875L44.892978125,78.82398559570312L45.08864583333333,65.04750000000001L45.983329340277784,86.39812500000001L46.032955208333334,54.427499999999995L46.465409201388894,57.46601440429687L46.621376215277785,66.264375L46.68801666666667,129.2670842285156L46.754657118055555,101.885625L47.596878993055554,114.8787041015625L47.629490277777776,213.7275L48.07895885416667,131.56998559570312L48.39940017361111,114.86690698242188L48.65461892361111,180.65419006347656L49.034611284722224,69.26598559570311L49.319605555555555,52.6575L49.93638420138889,152.109375L50.027128645833336,97.018125L50.200110243055555,46.72800000000001L50.231303645833336,108.44201440429687L50.50637274305556,185.3006993408203L51.13165868055555,146.05356372070312L51.476203993055556,96.60773217773438L51.924254687499996,108.59805615234376L51.971044791666664,104.07600000000001L52.58498767361111,108.20598559570313L52.93662239583333,27.435000000000002L53.06564965277778,111.45291577148438L53.1875875,179.2125L53.327957812499996,89.98453564453125L53.43146319444444,129.0387041015625L53.51370034722222,173.34580993652344L53.54205798611111,153.282L54.131896875,148.569375L54.19428368055556,85.513125L54.54450052083333,94.2525L54.699049652777774,127.32578833007813L54.82949479166666,176.52800720214844L54.972700868055554,125.2275L55.17545798611111,142.2851403808594L55.51149600694445,124.24259179687499L55.71992465277778,123.41173754882813L56.18357204861111,132.418125L56.294166840277775,130.15398559570312L56.359389409722226,141.1575L56.611772395833334,131.55097192382811L56.806022222222225,128.10375L57.03430121527777,145.80375L57.0796734375,73.19805615234374L57.83398663194445,91.80401440429688L57.98286423611111,47.84708422851563L58.39546788194445,144.31398559570312L58.43658645833334,145.37598559570313L58.55427065972223,152.330625L58.694640972222224,83.41125L59.44186475694445,109.62578833007812L59.48156545138889,132.8110166015625L59.807678298611116,154.65375L59.94804861111111,156.2025L60.04871822916667,128.325L60.07140434027778,93.102L60.092672569444446,-52.51001440429687L60.980266666666665,85.62375L61.00011701388889,122.79374999999999L61.31488680555556,127.21875L61.66935729166667,167.55999279785158L62.73135086805556,119.21805615234375L62.938361631944446,150.84967602539064L63.21201284722222,141.931875L63.27581753472222,146.68875L63.32118975694444,130.12550830078126L64.11094999999999,86.95124999999999L64.48527083333333,123.78578833007813L64.50937482638889,153.99L64.51788211805555,45.90937500000001L64.53489670138889,128.656875L65.06518454861111,95.690625L65.6266657986111,162.17625L65.75002152777778,211.1793006591797L65.82658715277778,109.05485961914063L66.02367274305556,120.913125L66.07897013888888,171.29032397460938L66.17680399305556,135.18375L66.59082552083333,148.10902807617188L66.6276904513889,82.24601440429687L67.29551284722223,87.01546435546875L67.34939236111111,53.7103388671875L67.45006197916666,130.75161987304688L67.56774618055556,153.31862292480469L67.57341770833332,141.1575L67.57908923611112,151.87742980957032L68.25967256944445,99.673125L68.42840052083334,158.415L68.89913732638888,139.54453564453127L69.15152031250001,161.81226782226562L69.79523871527778,143.76967602539062L69.95262361111111,79.93546435546875L70.30992986111112,105.13799999999999L70.32410868055555,65.91724584960939L70.53111944444446,172.79625L70.60059565972222,77.21625L70.72395138888888,113.39421166992187L71.21595642361112,178.02773217773438L71.65408194444444,149.896875L71.93056892361112,109.05485961914063L72.04258159722222,130.29485961914062L72.10071475694444,128.92453564453126L72.43249913194444,86.33032397460939L72.74868680555555,111.20483056640624L73.018084375,206.0051619873047L73.4675529513889,47.9612958984375L73.5824013888889,105.53625L73.80500885416667,132.16001440429687L74.04888454861111,126.1838876953125L74.22186614583333,148.79421166992188L74.30410329861111,152.10580993652343L74.4855921875,151.87742980957032L74.59476909722223,125.38453564453125L75.14065364583332,147.020625L75.37318628472222,156.33097192382812L75.74325347222222,118.4187041015625L76.51741701388889,149.70773217773439L76.85061927083333,102.317408203125L76.87755902777778,171.358125L77.22210434027778,151.99875L77.2518798611111,101.443125L77.41068263888889,103.11676025390625L77.5510529513889,116.59875L77.6786623263889,213.285L78.06716197916667,140.11546435546876L78.13096666666667,206.094375L78.30536614583333,85.21283862304688L78.47125833333334,128.656875L78.56058489583334,149.565L79.14049861111111,143.14875L79.5261625,136.843125L79.71190503472222,159.07875L80.28047569444443,75.25356372070311L80.80083836805557,170.473125L81.06031076388889,137.94578833007813L81.2588142361111,161.6193006591797L81.35806597222222,214.39125L81.63880659722221,78.90773217773437L81.68985034722223,141.257408203125L81.89402534722221,114.8787041015625L82.02872413194444,156.78773217773437L82.06842482638889,158.415L82.21304878472222,115.67805615234374L82.9687798611111,147.972L83.12191111111112,139.77291577148438L83.4182484375,137.48902807617188L83.584140625,157.92967602539062L84.1101748263889,162.729375L84.49583871527777,178.77L84.70993888888889,153.36194384765625L84.76523628472222,161.58386608886718L84.9240390625,158.15805615234376L85.01761927083334,74.229375L85.14664652777778,146.79198559570312L85.42313350694444,126.9975L85.54223559027777,172.7748380126953L85.83715503472223,109.11194384765625L86.06401614583334,140.11546435546876L86.2993845486111,104.90201440429688L86.49221649305555,123.015L86.81549357638889,91.5975L87.08772690972222,119.475L87.42092916666667,172.97171594238282L87.63361145833333,127.44L87.68890885416667,138.29598559570312L87.86614409722223,148.45161987304687L87.95972430555555,107.085L88.07173697916667,143.5412958984375L88.35531336805556,178.88799279785155L88.44463993055555,145.5825L88.61903940972223,157.640625L88.72396267361111,119.298L88.96642048611112,146.4675L89.2783545138889,119.585625L89.37193472222222,176.889375L89.61297465277778,164.55289416503905L89.92349079861111,171.06194384765624L90.16027708333334,105.05805615234375L90.23684270833333,146.8529157714844L90.51758333333333,139.43032397460937L90.55019461805556,149.59356372070312L90.92026180555555,148.10902807617188L91.06346788194445,138.29598559570312L91.42077413194444,64.051875L91.70576840277778,102.66L91.72136510416667,88.5L92.03897065972222,157.198125L92.07583559027778,132.63198559570313L92.46858888888889,105.315L92.57634791666668,169.00645788574218L92.74507586805557,189.8325L92.77059774305556,128.656875L93.69789253472221,106.753125L93.71207135416665,205.430625L94.10766041666668,138.768L94.2494486111111,123.23625L94.33735729166666,91.155L94.75988611111111,157.640625L94.89742065972221,126.75485961914063L95.32562100694444,125.316L95.48584166666666,159.52125L96.19903628472221,107.22773217773438L96.58611805555556,127.8825L96.90939513888888,176.3148380126953L96.91648454861111,100.3761123046875L97.10222708333333,117.705L97.37729618055556,114.696L97.38296770833334,174.7875L97.57579965277777,196.580625L97.99832847222221,106.31421166992187L98.36981354166667,144.55001440429686L98.4024248263889,187.27742980957032L98.97524913194445,188.64773217773438L99.20069236111111,36.34398559570312L99.5353125,171.45399279785155L99.93515520833334,178.02773217773438L99.96067708333334,138.54826245117187L100.03015329861111,144.365625L100.50939739583333,182.664L100.7220796875,142.39935205078126L100.72349756944443,176.7716198730469L101.35161927083334,83.93226782226563L101.398409375,188.91800720214843L101.63944930555556,129.763125L102.34697239583333,148.126875L102.49159635416667,136.51125L102.64614548611111,145.71097192382814L102.72412899305556,75.9387041015625L103.03039149305556,163.393125L103.05591336805556,142.70625L103.30120694444444,51.8438876953125L103.75209340277777,130.61381396484376L103.8385842013889,128.12514038085936L103.92649288194444,104.761875L104.0682810763889,145.51927954101564L104.10231024305556,149.896875L104.13775729166667,97.58598559570312L104.5858079861111,150.560625L104.90766718750001,91.81161987304688L105.13452829861112,94.2525L105.37982187499999,125.38453564453125L105.65914461805555,112.572L105.68041284722221,169.80580993652345L106.51838107638889,100.94708422851562L107.01463975694445,186.07125L107.13657760416667,171.46875L107.23441145833334,223.70516198730468L107.35918506944445,130.75875000000002L107.86536892361111,182.7525L108.0213359375,148.348125L108.29924079861111,141.71801440429687L108.75012725694445,126.94218749999999L108.76430607638889,221.360625L109.26765416666666,148.45161987304687L110.09995086805556,164.4387041015625L110.24599270833333,126.1838876953125L110.44449618055555,80.19932226562499L110.49837569444443,94.363125L110.68411822916666,139.49812500000002L111.19171996527778,75.63798559570313L111.60006996527778,183.39483801269532L111.64686006944444,66.00388769531249L111.69790381944445,208.97419006347656L111.83685625,115.33546435546876L111.87797482638888,178.880625L111.9545404513889,153.47613391113282L111.95737621527778,163.86773217773438L112.34871163194445,102.88838012695312L112.7967623263889,131.92398559570313L113.1866798611111,141.954L113.2150375,148.569375L113.23772361111112,149.022591796875L114.48545972222223,131.09801440429686L114.56486111111111,159.3L114.65560555555555,116.112L114.79597586805555,152.9051619873047L114.89806336805556,142.816875L114.96895746527778,148.790625L115.09798472222222,87.28312500000001L115.1419390625,108.36967602539062L115.81259722222222,123.67161987304686L115.93595295138888,72.80598559570312L115.97565364583333,153.01935205078127L116.04938350694444,136.400625L116.13303854166666,146.4675L116.43221163194444,111.39198559570313L116.46198715277778,124.37201440429688L116.51728454861112,146.4675L116.6987734375,153.105L116.72854895833333,64.51935205078125L117.41338593750001,167.40773217773437L117.41763958333334,100.9510166015625L117.64450069444445,134.0775L117.92949496527778,178.71289416503907L117.99897118055556,140.77398559570312L118.39739600694445,99.91935205078126L118.65261475694444,150.339375L119.19849930555556,153.01935205078127L119.2665576388889,141.71421166992187L119.3686451388889,113.52415283203125L119.68341493055556,79.64999999999999L119.86632170138888,178.438125L119.87482899305556,137.1464362792969L120.36399826388889,105.09375L120.61070972222223,172.66064794921874L120.71846875,111.56708422851563L120.76809461805554,94.55226782226562L121.26009965277778,161.3228602294922L121.30405399305556,173.93199279785156L121.36785868055556,163.9386229248047L121.48412499999999,184.6903388671875L121.4968859375,122.71998559570312L121.76628350694445,131.43676025390624L122.10373940972222,84.59381396484376L122.23985607638889,155.406L122.41709131944444,186.08600720214844L122.83962013888889,141.36401440429688L123.02961631944444,145.471875L123.07215277777777,133.49226782226563L123.19976215277778,142.17097192382812L123.44789149305555,168.3212958984375L123.83780902777778,148.2375L124.05049131944445,165.9375L124.2560842013889,154.38967602539063L124.470184375,110.88194384765625L124.56801822916667,120.913125L124.64316597222222,141.37161987304688L124.77786475694444,123.9L125.32374930555555,142.0425L125.49956666666667,127.8825L125.83844045138889,166.60838012695314L125.92918489583333,124.58514038085937L126.23119375,150.50708422851562L126.28223750000001,172.021875L126.38999652777778,160.3277321777344L127.23080052083333,112.36643627929688L127.53848090277778,151.3064578857422L127.80220694444444,140.65601440429688L127.85466857638887,136.400625L128.02339652777778,129.83805615234377L128.48137239583332,122.92343188476562L128.65151822916667,111.3387041015625L128.6968904513889,133.96687500000002L128.97195954861112,146.79198559570312L129.3420267361111,129.38129589843751L129.47105399305556,175.62967602539064L129.96164114583334,108.4838876953125L130.0878326388889,131.43676025390624L130.40827395833333,182.02451403808593L130.97400885416667,124.12838012695312L131.01796319444443,158.50064794921875L131.19378055555555,25.369985595703128L131.47877482638887,145.14L131.4887,124.12125L131.74250086805554,123.9L131.95234739583333,156.21678186035157L131.96510833333335,82.858125L132.14517934027776,114.82875L132.62725920138888,166.75927954101562L132.63151284722224,129.759322265625L132.6400201388889,130.5375L133.1703079861111,171.46875L133.4255267361111,146.91L133.71052100694445,144.078L134.15715381944443,150.22875L134.46058055555557,128.3839855957031L134.49319184027777,86.44453564453126L134.50737065972223,161.95499999999998L134.59669722222222,127.8825L134.7739324652778,127.89676025390625L135.00504722222223,152.22L135.18086458333332,128.58194384765625L135.23332621527777,167.596875L135.8657015625,115.79226782226561L135.86995520833332,157.05800720214845L135.98196788194443,120.006L135.9933109375,153.5475L136.11666666666667,152.46413122558593L136.55053854166667,127.44L136.62993993055554,143.59125L136.74478836805557,60.17999999999999L137.30626961805555,140.57226782226564L137.3147769097222,186.13548596191407L137.45940086805555,150.14094140625L137.7543203125,75.13935205078126L137.9514059027778,201.43742980957032L137.95424166666666,160.295625L138.01521059027777,134.74838012695312L138.36968107638887,109.629375L138.39662083333334,175.9013770751953L139.0332498263889,154.86095581054687L139.35794479166668,178.48451403808593L139.6202529513889,102.2175L140.16188385416666,158.415L140.4667284722222,113.833125L140.52911527777778,142.70625L140.68508229166667,94.43805615234375L140.8169453125,159.17792358398438L140.82828836805555,160.84875L141.10477534722222,114.53611230468749L141.212534375,183.10345349121093L141.52446840277779,102.53792358398438L141.54573663194444,136.87998559570312L141.7811050347222,103.67144091796875L141.9725190972222,122.904375L142.01221979166667,126.75485961914063L142.38795850694444,143.701875L142.66302760416667,149.011875L142.8558595486111,100.89L143.04869149305554,147.1459855957031L143.31383541666668,35.731875L143.40599774305556,148.45875L143.60024756944446,162.065625L143.6782310763889,103.213125L143.9405392361111,168.54967602539062L144.1759076388889,128.214375L144.1858328125,177.2283801269531L144.7189564236111,154.27548596191406L144.8522373263889,109.629375L144.88343072916666,94.805625L145.52147760416668,139.719375L145.68595190972223,110.08259179687501L146.0900482638889,94.03125L146.12265954861113,114.10601440429687L146.52533802083335,139.055625L146.59765000000002,56.41875L146.7224236111111,106.310625L147.18039947916665,172.63400720214844L147.27256180555557,201.53586877441407L147.48949774305558,154.21125L147.58591371527777,116.70578833007812L148.08359027777777,128.92453564453126L148.15023072916668,135.736875L148.21545329861112,141.82838012695314L148.21970694444445,124.47097192382813L148.42529982638888,102.549375L148.66633975694447,163.06838012695312L148.83223194444443,175.0587041015625L149.05909305555556,171.579375L149.49863645833332,133.85625L149.7566909722222,170.4909719238281L149.8516890625,156.85862292480468L150.1423548611111,183.195L150.3110828125,109.2975L150.31533645833332,68.79401440429687L150.5719730902778,109.2975L150.95338333333333,191.16L151.18449809027777,166.933125L151.29651076388888,116.59875L151.3475545138889,114.42194384765625L151.38158368055556,211.02967602539064L151.55456527777778,142.153125L151.75165086805555,150.33198559570312L152.16992604166666,168.6638660888672L152.26775989583334,124.231875L152.8448378472222,159.98516198730468L152.87744913194445,151.19226782226562L152.93416440972223,78.97860131835938L153.0674453125,157.41200720214843L153.5240032986111,128.76749999999998L153.74235711805557,140.06598559570313L153.82743003472223,141.8359855957031L154.04861961805554,77.99421166992187L154.43711927083334,125.44874999999999L154.45696961805555,117.04124999999999L154.585996875,145.471875L154.67390555555556,120.93097192382812L154.72069565972222,86.33032397460939L155.16591059027778,125.1561123046875L155.31904184027778,155.3175L155.37292135416666,164.1675L155.90462708333334,132.80708422851563L156.0251470486111,174.56625L156.13290607638888,147.3525L156.2477545138889,112.395L156.39663211805555,129.918L156.7355059027778,120.69187500000001L156.7681171875,170.915625L157.19348177083333,69.26598559570311L157.25161493055558,116.59161987304688L157.62168211805556,128.76749999999998L157.82869288194445,94.35932226562501L157.88966180555556,80.9775L158.17323819444442,148.79801440429688L158.65531805555557,151.87742980957032L159.1487409722222,132.639375L159.2366496527778,132.46453564453125L159.44791406250002,137.6175L159.6294029513889,61.286249999999995L159.79671302083332,157.53L160.21782395833333,133.303125L160.43617777777777,151.9916198730469L160.62192031249998,113.28L161.1224326388889,138.170625L161.17773003472223,104.37291577148437L161.2316095486111,46.35187500000001L161.45563489583336,147.53805615234376L161.76189739583333,150.39291577148438L162.00719097222222,152.46413122558593L162.5800152777778,115.935L162.68352065972223,124.56375L162.70620677083332,98.54902807617188L162.74874322916668,96.03676025390625L163.02948385416667,111.3387041015625L163.0337375,116.709375L163.35417881944446,163.06125L163.38962586805553,146.4675L163.93692829861112,142.39935205078126L164.27580208333336,145.1953125L164.3736359375,153.01935205078127L164.67139114583333,111.45291577148438L164.7791501736111,186.403125L164.9861609375,146.135625L165.25981215277778,169.92L165.82129340277777,136.06875L165.85532256944444,113.94375L165.9375597222222,152.44125L166.4182217013889,166.85199279785155L166.9031373263889,141.931875L166.94000225694447,77.71142651367187L167.14984878472222,95.46578833007813L167.4646185763889,158.0438660888672L167.51708020833334,173.814L168.061546875,124.895625L168.13669461805557,141.48198559570312L168.14661979166667,113.16578833007813L168.3550484375,94.584375L168.53653732638887,136.4612958984375L168.58899895833332,120.36L169.0115277777778,171.92600720214844L169.06257152777778,142.26375000000002L169.15189809027777,109.629375L169.36741614583332,159.3L169.54606927083333,135.43356372070312L169.87927152777777,141.12798559570314L169.9161364583333,126.86902807617187L169.95441927083334,118.00001440429688L170.66336024305556,133.745625L170.70873246527776,78.98625000000001L170.7952232638889,58.18875L170.9965625,156.2025L171.63319149305553,60.415985595703134L171.78065121527777,163.86773217773438L172.2556416666667,118.1475L172.40451927083333,157.47289416503907L172.46407031249998,130.50798559570313L172.53354652777776,160.09935205078125L172.79727256944443,163.41097192382813L173.26091996527776,149.742L173.3318140625,169.809375L173.48069166666667,125.95546435546876L173.96560729166666,132.08625L173.99112916666667,176.5575L173.9953828125,134.06323974609376L174.02799409722223,113.28L174.24918368055557,123.789375L174.66320520833332,102.91283862304687L174.7411887152778,149.011875L174.9850644097222,118.82598559570312L175.02760086805557,177.34257019042968L175.63587222222222,109.62578833007812L175.9676565972222,179.05548596191406L176.4554079861111,193.32967602539063L176.64540416666668,163.5251619873047L176.7333128472222,159.07161987304687L177.1374092013889,113.390625L177.25792916666666,81.64125000000001L178.0831364583333,156.10257019042967L178.321340625,182.199375L178.42484600694445,118.76129589843751L178.50282951388888,122.35125L178.69707934027778,156.21678186035157L179.08132534722222,78.70601440429688L179.4797501736111,101.664375L179.65273177083333,160.959375L179.7718338541667,126.886875L179.86824982638888,112.505625L179.89518958333332,150.3889833984375L179.9830982638889,161.89599279785156L180.261003125,158.968125L180.28227135416668,170.2625701904297L180.71472534722224,107.73401440429687L180.96710833333333,125.38453564453125L181.05927065972222,124.962L181.18546215277777,113.05875L181.34851857638887,145.02578833007811L181.51299288194443,80.50643627929686L181.93126805555553,137.39625L182.17372586805556,163.50375L182.4686453125,130.869375L182.73804288194444,116.3775L182.85998072916667,88.27875L183.00885833333334,134.177408203125L183.15206440972221,176.02345349121094L183.59018993055557,176.3148380126953L183.83831927083335,139.60875L183.9163027777778,139.16625L183.94040677083333,128.69611230468752L184.44800850694446,102.991875L184.63091527777777,149.1225L184.86344791666667,127.66125L185.10590572916666,141.71801440429687L185.8276076388889,149.034L185.89424809027778,127.8825L186.41744652777777,133.303125L186.59893541666665,177.774375L186.6953513888889,159.18937499999998L186.77617065972223,124.72601440429688L187.10653715277778,96.133125L187.10937291666667,150.781875L187.4170532986111,100.49032397460938L187.6850329861111,23.866436279296863L188.121740625,143.8125L188.16427708333333,122.07291577148439L188.2876328125,151.666875L188.29755798611112,127.08600000000001L188.34009444444445,148.79421166992188L188.8179206597222,148.45875L188.9228439236111,84.51750000000001L189.5155185763889,130.5375L189.69842534722224,128.214375L190.07699982638889,88.389375L190.31945763888888,94.18927954101562L190.3520689236111,99.462591796875L190.46266371527778,102.42401440429688L190.97877274305557,138.613125L191.0057125,110.76773217773437L191.3757796875,111.62801440429688L191.40413732638888,161.2412958984375L191.60405868055557,94.695L191.81957673611112,124.895625L191.92166423611113,74.694L191.93726093749999,158.746875L192.1003173611111,178.53399279785157L192.43919114583332,195.253125L192.8461232638889,156.534375L193.03328368055557,134.851875L193.06873072916665,78.00207641601563L193.80177569444444,84.29624999999999L193.87550555555555,144.91161987304687L194.29661649305558,208.97799279785156L194.44265833333333,115.16062500000001L194.6326545138889,103.45935205078125L194.65675850694444,140.01309301757811L194.69787708333334,120.470625L195.12324166666664,97.7925L195.14025625,144.6975L196.08740138888888,93.8710166015625L196.1100875,39.05801440429687L196.212175,156.976875L196.54537725694445,20.554859619140615L196.6488826388889,175.6725L196.8119390625,96.796875L197.03029288194443,54.12773217773437L197.22596059027777,135.515625L197.46700052083335,138.06L197.5832668402778,103.60398559570312L197.65274305555556,100.94708422851562L197.7406517361111,117.92625000000001L198.1872845486111,149.82194384765626L198.20997065972222,142.62773217773437L198.26101440972224,139.35798559570313L198.64242465277778,68.74453564453124L198.6495140625,108.36967602539062L198.74734791666668,120.913125L199.13726545138888,136.34708422851563L199.40949878472222,164.66710583496095L199.52860086805555,146.68875L199.5938234375,77.64401440429687L199.89157864583333,84.849375L200.0276953125,153.5475L200.17231927083333,143.038125L200.70544288194446,103.213125L201.0074517361111,124.69935205078124L201.0840173611111,123.23625L201.2073730902778,139.3875L201.4115480902778,117.15187499999999L201.65967743055555,120.13875L202.38137934027776,92.26838012695312L202.40548333333334,117.64601440429686L202.49480989583333,86.25798559570313L202.6819703125,135.09097192382814L203.12009583333332,167.32400720214844L203.16972170138888,122.18708422851563L203.88858784722223,115.79226782226561L204.06298732638888,90.33101660156251L204.65424409722223,161.5125L204.83856875,124.92773217773437L204.89528402777776,130.5375L205.22281475694444,105.74323974609375L205.41422881944445,175.561875L205.71056614583335,123.557408203125L205.88921927083334,130.3696611328125L205.936009375,143.42708422851564L206.19689965277777,146.08398559570313L206.2578685763889,106.31421166992187L206.3571203125,155.206875L206.4492826388889,76.77374999999999L206.70875503472223,151.64902807617187L206.75979878472222,144.5690280761719L207.54530538194444,103.876875L207.61903524305555,131.865L207.89126857638888,98.43485961914062L207.96074479166666,105.09375L208.0486534722222,127.44L208.15215885416666,111.56708422851563L208.66968576388888,105.62902807617188L209.2694498263889,168.039375L209.28362864583332,113.05875L209.5374295138889,89.385L209.57145868055557,140.825625L209.63951701388888,149.82194384765626L209.74302239583332,116.59875L209.78555885416665,98.75381396484376L209.94152586805555,105.37398559570312L210.5200217013889,118.77309301757813L210.67740659722222,100.26194384765624L210.8844173611111,92.98398559570313L210.887253125,128.10375L211.15097916666667,112.395L211.21620173611112,87.39375L211.29134947916666,149.70773217773439L211.29276736111112,125.4987041015625L211.30694618055557,91.5975L211.87551684027778,155.64580993652345L212.30797083333331,151.74800720214844L212.39446163194444,141.268125L212.69079895833335,156.2025L213.2040722222222,146.135625L213.91868472222222,110.88194384765625L213.95129600694443,88.72125L214.04487621527778,93.035625L214.05480138888888,111.51L214.46456927083335,97.60283862304688L214.511359375,110.76773217773437L214.7991894097222,64.3303388671875L214.97500677083335,66.23226782226563L215.18627118055556,121.798125L215.5194734375,76.81800000000001L215.5449953125,102.549375L215.61730729166666,88.61421166992187L215.87961545138887,92.51201440429688L216.1008050347222,110.625L216.12065538194446,114.76453564453126L216.20714618055555,147.241875L216.2312501736111,111.0675L216.60131736111111,162.72200720214843L216.88914739583333,138.5025L217.15712708333334,78.70601440429688L217.2039171875,111.3387041015625L217.53144791666668,124.48998559570313L217.66614670138887,53.985000000000014L217.7072652777778,109.16902807617187L217.76256267361111,122.07291577148439L218.29001475694443,139.49812500000002L218.75791579861112,164.38875000000002L218.79478072916666,154.27548596191406L218.799034375,101.92758471679687L219.04716371527778,99.462591796875L219.15917638888888,105.05805615234375L219.62282378472221,25.634491699218756L219.96453333333332,98.235L220.44803107638887,120.470625L220.67914583333334,117.27676025390625L220.93152881944442,100.779375L220.9527970486111,152.551875L221.05346666666665,122.07291577148439L221.25764166666667,120.36L221.76949704861113,175.23L221.85598784722222,122.904375L221.88576336805556,134.188125L222.18635434027777,148.01625L222.19911527777776,111.73125L222.3763505208333,101.99625L222.4614234375,131.83449169921874L222.52806388888888,69.65805615234376L222.57768975694444,72.28453564453125L223.28804861111112,125.8412958984375L223.2937201388889,146.96708422851563L223.49364149305555,147.9948596191406L223.63684756944446,68.47687499999999L223.80557552083334,132.27798559570311L223.83818680555555,181.425L224.11892743055554,130.31625L224.16571753472223,126.06967602539063L224.94271684027777,165.0525L224.9526420138889,121.6161123046875L225.02070034722223,115.16801440429688L225.11144479166666,116.58401440429688L225.1468918402778,140.93625L225.4375576388889,146.3961123046875L225.72964131944445,99.69097192382813L225.95366666666666,118.700625L226.1138873263889,117.39097192382812L226.33933055555556,107.22773217773438L226.35350937500002,150.16453564453124L226.4839545138889,165.71625L226.6030565972222,92.49676025390625L226.73491961805556,181.7961339111328L226.99722777777777,89.385L227.68348263888888,148.68L227.77706284722223,144.5690280761719L227.91459739583334,158.38645788574217L228.76958020833334,114.62275415039062L228.79793784722224,153.105L229.1637513888889,21.12578833007811L229.16658715277777,122.98643627929687L229.35800121527777,160.5561339111328L229.63448819444443,106.43598559570312L230.07261371527778,86.95124999999999L230.18320850694442,74.7825L230.1846263888889,138.28838012695311L230.6255876736111,94.78064794921876L230.73618246527778,98.45625L230.80140503472222,129.83805615234377L230.96587934027778,115.28598559570312L231.27781336805555,106.86375L231.5670612847222,102.54198559570312L231.59967256944444,127.993125L231.69750642361112,73.76902807617188L232.0349623263889,146.62453564453125L232.28592743055555,94.35932226562501L232.5624144097222,93.41032397460938L232.57942899305556,89.41356372070312L232.76800729166666,117.96194384765624L232.9480782986111,117.04838012695313L233.35075677083333,120.913125L233.8385081597222,143.31291577148437L233.96753541666666,115.63998559570314L234.12917395833333,122.3012958984375L234.38864635416667,132.9212958984375L234.5176736111111,93.699375L234.76296718749998,145.38415283203125L234.8366970486111,128.73798559570312L234.89341232638887,147.82550830078125L235.0465435763889,157.7012958984375L235.64630763888889,110.31097192382812L235.65056128472222,166.269375L235.9780920138889,125.8412958984375L235.98376354166666,135.09097192382814L236.22054982638886,165.672L236.43748576388887,77.548125L236.44882881944446,63.72L236.5466626736111,159.75678186035157L237.1138154513889,99.23421166992188L237.12799427083334,106.6425L237.31231892361112,80.75625000000001L237.37754149305556,125.19798559570313L237.57462708333333,132.98598559570314L237.87805381944443,68.74453564453124L238.1474513888889,140.91485961914063L238.70042534722222,131.64375L238.8237810763889,117.92625000000001L238.99676267361113,15.530323974609388L239.07191041666667,181.36599279785156L239.09034288194445,127.32198559570313L239.0988501736111,24.558750000000003L239.18675885416667,114.93198559570314L239.25623506944444,43.47562500000001L239.54831875,113.05161987304687L240.27994583333333,125.44874999999999L240.41606249999998,109.85421166992188L240.7067282986111,129.20999999999998L240.7294144097222,81.53421166992187L241.3830579861111,95.46198559570313L241.4043262152778,55.15546435546875L241.5446965277778,127.91201440429687L241.92894253472224,48.339322265625015L242.0055081597222,99.91935205078126L242.13028177083334,105.13799999999999L242.43938003472223,109.05485961914063L242.49042378472222,96.24375L242.7101954861111,156.755625L243.07742690972222,129.32801440429688L243.3227204861111,109.032L243.34682447916668,106.31801440429687L243.5680140625,143.65546435546875L243.85726197916668,109.74L243.87711232638887,110.84625L244.04158663194443,158.525625L244.55060625000002,117.96194384765624L244.7590348958333,166.83678186035155L244.8767190972222,101.99625L245.00574635416666,110.84625L245.1560418402778,115.27125000000001L245.239696875,116.045625L245.24111475694446,82.79032397460938L245.24395052083332,108.744375L245.24536840277779,81.41999999999999L245.24962204861112,115.33546435546876L245.25245781249998,129.2670842285156L245.2567114583333,175.97226782226562L245.2623829861111,131.322591796875L245.26947239583333,115.10708422851562L245.27372604166666,114.99291577148438L245.2751439236111,130.637408203125L245.27656180555556,50.03201440429687L245.2779796875,76.6238876953125L245.27939756944446,105.97161987304688L245.2808154513889,80.94798559570313L245.28365121527779,117.882L245.28506909722222,104.3689833984375L245.28790486111112,128.98875L245.28932274305555,151.9916198730469L245.29215850694445,159.631875L245.2935763888889,95.469375L245.2949942708333,146.08398559570313L245.29641215277778,85.75935205078125L245.29924791666664,62.46388769531251L245.3006657986111,156.534375L245.30208368055557,114.76453564453126L245.30350156249997,150.6212958984375L245.30491944444444,130.869375L245.3063373263889,142.42601440429686L245.30775520833333,151.11375L245.30917309027777,119.56064794921875L245.31059097222223,129.87375L245.31200885416666,124.895625L245.3134267361111,46.68375L245.31626250000002,100.83291577148437L245.31768038194443,62.89398559570313L245.32051614583335,93.81L245.32476979166668,83.743125L245.32760555555555,138.834375L245.33327708333334,57.00618603515625L245.33469496527778,105.25601440429688L245.3361128472222,125.116875L245.33753072916667,52.30064794921876L245.341784375,141.71421166992187L245.34320225694444,82.858125" style="fill: none;" fill="none"></path></g></g></g></g></g></g><g transform="translate(74, 177)" clip-path="url(#clip_1)"><clipPath id="clip_1"><rect width="255" height="23"></rect></clipPath><g><g><line x1="0" y1="0" x2="0" y2="5" style="visibility: inherit;" fill="rgb(0, 0, 0)" stroke="rgb(204, 204, 204)" stroke-width="1px"></line><line x1="28.357638888888886" y1="0" x2="28.357638888888886" y2="5" style="visibility: inherit;" fill="rgb(0, 0, 0)" stroke="rgb(204, 204, 204)" stroke-width="1px"></line><line x1="56.71527777777777" y1="0" x2="56.71527777777777" y2="5" style="visibility: inherit;" fill="rgb(0, 0, 0)" stroke="rgb(204, 204, 204)" stroke-width="1px"></line><line x1="85.07291666666666" y1="0" x2="85.07291666666666" y2="5" style="visibility: inherit;" fill="rgb(0, 0, 0)" stroke="rgb(204, 204, 204)" stroke-width="1px"></line><line x1="113.43055555555554" y1="0" x2="113.43055555555554" y2="5" style="visibility: inherit;" fill="rgb(0, 0, 0)" stroke="rgb(204, 204, 204)" stroke-width="1px"></line><line x1="141.78819444444446" y1="0" x2="141.78819444444446" y2="5" style="visibility: inherit;" fill="rgb(0, 0, 0)" stroke="rgb(204, 204, 204)" stroke-width="1px"></line><line x1="170.14583333333331" y1="0" x2="170.14583333333331" y2="5" style="visibility: inherit;" fill="rgb(0, 0, 0)" stroke="rgb(204, 204, 204)" stroke-width="1px"></line><line x1="198.50347222222223" y1="0" x2="198.50347222222223" y2="5" style="visibility: inherit;" fill="rgb(0, 0, 0)" stroke="rgb(204, 204, 204)" stroke-width="1px"></line><line x1="226.8611111111111" y1="0" x2="226.8611111111111" y2="5" style="visibility: inherit;" fill="rgb(0, 0, 0)" stroke="rgb(204, 204, 204)" stroke-width="1px"></line><line x1="255.21875" y1="0" x2="255.21875" y2="5" style="visibility: inherit;" fill="rgb(0, 0, 0)" stroke="rgb(204, 204, 204)" stroke-width="1px"></line></g><g transform="translate(0, 8)"><text x="0" y="0" dx="0em" dy="0.95em" style="text-anchor: middle; visibility: hidden; font-family: &quot;Helvetica Neue&quot;, sans-serif; font-size: 12px; font-weight: 200;" fill="rgb(50, 49, 63)" stroke="none" stroke-width="1px">-20k</text><text x="28.357638888888886" y="0" dx="0em" dy="0.95em" style="text-anchor: middle; visibility: inherit; font-family: &quot;Helvetica Neue&quot;, sans-serif; font-size: 12px; font-weight: 200;" fill="rgb(50, 49, 63)" stroke="none" stroke-width="1px">0</text><text x="56.71527777777777" y="0" dx="0em" dy="0.95em" style="text-anchor: middle; visibility: hidden; font-family: &quot;Helvetica Neue&quot;, sans-serif; font-size: 12px; font-weight: 200;" fill="rgb(50, 49, 63)" stroke="none" stroke-width="1px">20k</text><text x="85.07291666666666" y="0" dx="0em" dy="0.95em" style="text-anchor: middle; visibility: inherit; font-family: &quot;Helvetica Neue&quot;, sans-serif; font-size: 12px; font-weight: 200;" fill="rgb(50, 49, 63)" stroke="none" stroke-width="1px">40k</text><text x="113.43055555555554" y="0" dx="0em" dy="0.95em" style="text-anchor: middle; visibility: hidden; font-family: &quot;Helvetica Neue&quot;, sans-serif; font-size: 12px; font-weight: 200;" fill="rgb(50, 49, 63)" stroke="none" stroke-width="1px">60k</text><text x="141.78819444444446" y="0" dx="0em" dy="0.95em" style="text-anchor: middle; visibility: inherit; font-family: &quot;Helvetica Neue&quot;, sans-serif; font-size: 12px; font-weight: 200;" fill="rgb(50, 49, 63)" stroke="none" stroke-width="1px">80k</text><text x="170.14583333333331" y="0" dx="0em" dy="0.95em" style="text-anchor: middle; visibility: hidden; font-family: &quot;Helvetica Neue&quot;, sans-serif; font-size: 12px; font-weight: 200;" fill="rgb(50, 49, 63)" stroke="none" stroke-width="1px">100k</text><text x="198.50347222222223" y="0" dx="0em" dy="0.95em" style="text-anchor: middle; visibility: inherit; font-family: &quot;Helvetica Neue&quot;, sans-serif; font-size: 12px; font-weight: 200;" fill="rgb(50, 49, 63)" stroke="none" stroke-width="1px">120k</text><text x="226.8611111111111" y="0" dx="0em" dy="0.95em" style="text-anchor: middle; visibility: hidden; font-family: &quot;Helvetica Neue&quot;, sans-serif; font-size: 12px; font-weight: 200;" fill="rgb(50, 49, 63)" stroke="none" stroke-width="1px">140k</text><text x="255.21875" y="0" dx="0em" dy="0.95em" style="text-anchor: middle; visibility: hidden; font-family: &quot;Helvetica Neue&quot;, sans-serif; font-size: 12px; font-weight: 200;" fill="rgb(50, 49, 63)" stroke="none" stroke-width="1px">160k</text></g><line x1="0" y1="0" x2="255.21875" y2="0" fill="rgb(0, 0, 0)" stroke="rgb(204, 204, 204)" stroke-width="1px"></line></g></g></g></g></svg>