<svg viewBox="0 0 330 200" xmlns="http://www.w3.org/2000/svg"><g><g><g><g><g><line x1="74.78125" y1="177" x2="69.78125" y2="177" style="visibility: inherit;" fill="rgb(0, 0, 0)" stroke="rgb(204, 204, 204)" stroke-width="1px"></line><line x1="74.78125" y1="157.33333333333334" x2="69.78125" y2="157.33333333333334" style="visibility: inherit;" fill="rgb(0, 0, 0)" stroke="rgb(204, 204, 204)" stroke-width="1px"></line><line x1="74.78125" y1="137.66666666666669" x2="69.78125" y2="137.66666666666669" style="visibility: inherit;" fill="rgb(0, 0, 0)" stroke="rgb(204, 204, 204)" stroke-width="1px"></line><line x1="74.78125" y1="118" x2="69.78125" y2="118" style="visibility: inherit;" fill="rgb(0, 0, 0)" stroke="rgb(204, 204, 204)" stroke-width="1px"></line><line x1="74.78125" y1="98.33333333333334" x2="69.78125" y2="98.33333333333334" style="visibility: inherit;" fill="rgb(0, 0, 0)" stroke="rgb(204, 204, 204)" stroke-width="1px"></line><line x1="74.78125" y1="78.66666666666666" x2="69.78125" y2="78.66666666666666" style="visibility: inherit;" fill="rgb(0, 0, 0)" stroke="rgb(204, 204, 204)" stroke-width="1px"></line><line x1="74.78125" y1="59" x2="69.78125" y2="59" style="visibility: inherit;" fill="rgb(0, 0, 0)" stroke="rgb(204, 204, 204)" stroke-width="1px"></line><line x1="74.78125" y1="39.33333333333334" x2="69.78125" y2="39.33333333333334" style="visibility: inherit;" fill="rgb(0, 0, 0)" stroke="rgb(204, 204, 204)" stroke-width="1px"></line><line x1="74.78125" y1="19.666666666666686" x2="69.78125" y2="19.666666666666686" style="visibility: inherit;" fill="rgb(0, 0, 0)" stroke="rgb(204, 204, 204)" stroke-width="1px"></line><line x1="74.78125" y1="0" x2="69.78125" y2="0" style="visibility: inherit;" fill="rgb(0, 0, 0)" stroke="rgb(204, 204, 204)" stroke-width="1px"></line></g><g transform="translate(64.78125, 0)"><text x="0" y="177" dx="0em" dy="0.3em" style="text-anchor: end; visibility: hidden; font-family: &quot;Helvetica Neue&quot;, sans-serif; font-size: 12px; font-weight: 200;" fill="rgb(50, 49, 63)" stroke="none" stroke-width="1px">-500</text><text x="0" y="157.33333333333334" dx="0em" dy="0.3em" style="text-anchor: end; visibility: inherit; font-family: &quot;Helvetica Neue&quot;, sans-serif; font-size: 12px; font-weight: 200;" fill="rgb(50, 49, 63)" stroke="none" stroke-width="1px">0</text><text x="0" y="137.66666666666669" dx="0em" dy="0.3em" style="text-anchor: end; visibility: hidden; font-family: &quot;Helvetica Neue&quot;, sans-serif; font-size: 12px; font-weight: 200;" fill="rgb(50, 49, 63)" stroke="none" stroke-width="1px">500</text><text x="0" y="118" dx="0em" dy="0.3em" style="text-anchor: end; visibility: inherit; font-family: &quot;Helvetica Neue&quot;, sans-serif; font-size: 12px; font-weight: 200;" fill="rgb(50, 49, 63)" stroke="none" stroke-width="1px">1e+3</text><text x="0" y="98.33333333333334" dx="0em" dy="0.3em" style="text-anchor: end; visibility: hidden; font-family: &quot;Helvetica Neue&quot;, sans-serif; font-size: 12px; font-weight: 200;" fill="rgb(50, 49, 63)" stroke="none" stroke-width="1px">1.5e+3</text><text x="0" y="78.66666666666666" dx="0em" dy="0.3em" style="text-anchor: end; visibility: inherit; font-family: &quot;Helvetica Neue&quot;, sans-serif; font-size: 12px; font-weight: 200;" fill="rgb(50, 49, 63)" stroke="none" stroke-width="1px">2e+3</text><text x="0" y="59" dx="0em" dy="0.3em" style="text-anchor: end; visibility: hidden; font-family: &quot;Helvetica Neue&quot;, sans-serif; font-size: 12px; font-weight: 200;" fill="rgb(50, 49, 63)" stroke="none" stroke-width="1px">2.5e+3</text><text x="0" y="39.33333333333334" dx="0em" dy="0.3em" style="text-anchor: end; visibility: inherit; font-family: &quot;Helvetica Neue&quot;, sans-serif; font-size: 12px; font-weight: 200;" fill="rgb(50, 49, 63)" stroke="none" stroke-width="1px">3e+3</text><text x="0" y="19.666666666666686" dx="0em" dy="0.3em" style="text-anchor: end; visibility: hidden; font-family: &quot;Helvetica Neue&quot;, sans-serif; font-size: 12px; font-weight: 200;" fill="rgb(50, 49, 63)" stroke="none" stroke-width="1px">3.5e+3</text><text x="0" y="0" dx="0em" dy="0.3em" style="text-anchor: end; visibility: hidden; font-family: &quot;Helvetica Neue&quot;, sans-serif; font-size: 12px; font-weight: 200;" fill="rgb(50, 49, 63)" stroke="none" stroke-width="1px">4e+3</text></g><line x1="74.78125" y1="0" x2="74.78125" y2="177" fill="rgb(0, 0, 0)" stroke="rgb(204, 204, 204)" stroke-width="1px"></line></g></g><g transform="translate(74, 0)" clip-path="url(#clip_0)"><clipPath id="clip_0"><rect width="255" height="177"></rect></clipPath><g><g><g><line x1="0" y1="0" x2="0" y2="177" fill="rgb(0, 0, 0)" stroke="rgb(60, 60, 60)" stroke-width="1px" opacity="0.25"></line><line x1="28.357638888888886" y1="0" x2="28.357638888888886" y2="177" fill="rgb(0, 0, 0)" stroke="rgb(60, 60, 60)" stroke-width="1px" opacity="0.25"></line><line x1="56.71527777777777" y1="0" x2="56.71527777777777" y2="177" fill="rgb(0, 0, 0)" stroke="rgb(60, 60, 60)" stroke-width="1px" opacity="0.25"></line><line x1="85.07291666666666" y1="0" x2="85.07291666666666" y2="177" fill="rgb(0, 0, 0)" stroke="rgb(60, 60, 60)" stroke-width="1px" opacity="0.25"></line><line x1="113.43055555555554" y1="0" x2="113.43055555555554" y2="177" fill="rgb(0, 0, 0)" stroke="rgb(60, 60, 60)" stroke-width="1px" opacity="0.25"></line><line x1="141.78819444444446" y1="0" x2="141.78819444444446" y2="177" fill="rgb(0, 0, 0)" stroke="rgb(60, 60, 60)" stroke-width="1px" opacity="0.25"></line><line x1="170.14583333333331" y1="0" x2="170.14583333333331" y2="177" fill="rgb(0, 0, 0)" stroke="rgb(60, 60, 60)" stroke-width="1px" opacity="0.25"></line><line x1="198.50347222222223" y1="0" x2="198.50347222222223" y2="177" fill="rgb(0, 0, 0)" stroke="rgb(60, 60, 60)" stroke-width="1px" opacity="0.25"></line><line x1="226.8611111111111" y1="0" x2="226.8611111111111" y2="177" fill="rgb(0, 0, 0)" stroke="rgb(60, 60, 60)" stroke-width="1px" opacity="0.25"></line><line x1="255.21875" y1="0" x2="255.21875" y2="177" fill="rgb(0, 0, 0)" stroke="rgb(60, 60, 60)" stroke-width="1px" opacity="0.25"></line></g><g><line x1="0" y1="177" x2="255.21875" y2="177" fill="rgb(0, 0, 0)" stroke="rgb(60, 60, 60)" stroke-width="1px" opacity="0.25"></line><line x1="0" y1="157.33333333333334" x2="255.21875" y2="157.33333333333334" fill="rgb(0, 0, 0)" stroke="rgb(60, 60, 60)" stroke-width="1px" opacity="0.25"></line><line x1="0" y1="137.66666666666669" x2="255.21875" y2="137.66666666666669" fill="rgb(0, 0, 0)" stroke="rgb(60, 60, 60)" stroke-width="1px" opacity="0.25"></line><line x1="0" y1="118" x2="255.21875" y2="118" fill="rgb(0, 0, 0)" stroke="rgb(60, 60, 60)" stroke-width="1px" opacity="0.25"></line><line x1="0" y1="98.33333333333334" x2="255.21875" y2="98.33333333333334" fill="rgb(0, 0, 0)" stroke="rgb(60, 60, 60)" stroke-width="1px" opacity="0.25"></line><line x1="0" y1="78.66666666666666" x2="255.21875" y2="78.66666666666666" fill="rgb(0, 0, 0)" stroke="rgb(60, 60, 60)" stroke-width="1px" opacity="0.25"></line><line x1="0" y1="59" x2="255.21875" y2="59" fill="rgb(0, 0, 0)" stroke="rgb(60, 60, 60)" stroke-width="1px" opacity="0.25"></line><line x1="0" y1="39.33333333333334" x2="255.21875" y2="39.33333333333334" fill="rgb(0, 0, 0)" stroke="rgb(60, 60, 60)" stroke-width="1px" opacity="0.25"></line><line x1="0" y1="19.666666666666686" x2="255.21875" y2="19.666666666666686" fill="rgb(0, 0, 0)" stroke="rgb(60, 60, 60)" stroke-width="1px" opacity="0.25"></line><line x1="0" y1="0" x2="255.21875" y2="0" fill="rgb(0, 0, 0)" stroke="rgb(60, 60, 60)" stroke-width="1px" opacity="0.25"></line></g></g></g><g><g><line x1="0" y1="157.33333333333334" x2="255.21875" y2="157.33333333333334" fill="rgb(0, 0, 0)" stroke="rgb(153, 153, 153)" stroke-width="1.5px"></line></g></g><g><g><line x1="28.357638888888886" y1="0" x2="28.357638888888886" y2="177" fill="rgb(0, 0, 0)" stroke="rgb(153, 153, 153)" stroke-width="1.5px"></line></g></g><g><g><g><g><g><path stroke="rgb(255, 112, 67)" stroke-width="2px" d="M28.831211458333335,150.93552083333333L29.077922916666665,151.26222039473686L29.131802430555556,151.65646563653138L29.21829322916667,151.65413119729573L29.97827795138889,151.6317299460534L30.050589930555557,151.47396327290159L30.06760451388889,151.50387237773506L30.071858159722222,151.4558766259186L30.1030515625,151.45019002383242L30.249093402777778,151.54290497652957L30.25901857638889,151.47498932906052L30.328494791666667,151.53598947141953L30.751023611111112,151.61039789795177L31.07997222222222,151.5324541656106L31.10124045138889,151.49520643914656L31.162209375,151.4400865522409L31.204745833333334,151.46509182114673L31.275639930555556,151.40784425280717L31.400413541666666,151.2864413448523L31.740705208333335,151.2958173181699L32.044131944444445,151.30366745730868L32.21994930555555,151.33645679331082L32.22703871527778,151.19400896803984L32.360319618055556,151.18328381383336L32.411363368055554,151.23008619964253L32.914711458333336,151.13157743078784L33.00970954861111,150.91500302638474L33.05933541666667,150.87695964927676L33.257838888888884,150.85408194853449L33.30888263888889,150.79455665765394L33.320225694444446,150.70889533756852L33.55559409722222,150.7100884377668L33.66618888888889,150.52280227753337L33.74842604166667,150.31807808889337L33.888796354166665,150.2194044931263L34.210655555555554,150.01538872848775L34.33542916666667,149.8267065097357L34.47438159722222,149.59471922053297L34.6204234375,149.35613099895255L34.71825729166667,149.11907652462148L34.98907274305555,148.78618844709007L35.03728072916667,148.58385550145078L35.115264236111116,148.1356929651459L35.30667829861111,147.53964543964528L35.31234982638889,147.14752935410502L35.90360659722223,146.54997838928193L36.647994618055556,145.92766434086968L36.71747083333334,145.18410436857235L36.74015694444444,144.46882712267484L37.05067309027778,143.587401742134L37.67879479166667,142.90118696421553L38.24169392361111,142.1897755228619L38.6528796875,141.31071399664657L38.9591421875,140.4696214501132L39.75457395833333,139.4135809235614L39.943152256944444,138.79962458266343L40.39403871527778,138.22397228817988L40.63507864583333,137.62546600447746L41.1540234375,136.94481035379084L41.389391840277774,136.4796287990332L41.44894288194445,135.92077249231113L41.80483125,135.41366544237394L43.04689583333333,134.80294676080533L43.616884375,133.7378233679181L43.666510243055555,133.645703698081L43.89620711805556,133.38626055879044L44.18545503472222,132.97565658696809L44.20246961805556,132.75748466050266L44.348511458333334,132.4596851168243L44.76395086805555,132.12774820385977L44.84051649305555,131.73926472619843L45.607590625,131.27899006760651L45.6458734375,130.98345606803505L45.875570312499995,130.13832552948975L46.1818328125,129.86285980739558L46.743314062500005,129.61250087639326L47.12472430555555,129.54150034388988L48.755288541666665,129.57104577854298L49.19908559027778,129.2945720034999L49.49542291666667,129.37155870611463L49.800267534722224,128.96813601168867L50.048396875,128.9394631697824L51.233746180555556,128.41945486550125L51.29471510416667,128.08177347532254L52.804759375,127.42751172343934L53.90503576388888,127.3568460963704L53.963168923611114,127.26190156544038L54.19286579861111,127.07503758506616L54.591290625,126.94312682810215L55.613583506944444,127.20855311476257L55.73693923611111,126.691443600458L55.74828229166667,126.61572165142474L55.89999565972222,125.91205832621173L56.255884027777775,125.3617416554531L57.00027204861111,124.95803891389966L57.59294670138889,124.74774734244825L57.60003611111111,124.30649819778567L58.76269930555556,123.77846647953662L58.84777222222222,123.3745349938215L60.013271180555556,123.15727364034055L60.11535868055556,122.97280228313758L60.13662690972222,122.39499920687818L61.80405607638889,121.41464697004199L62.11173645833333,120.63005401665498L62.17270538194444,120.90174037618367L62.44210295138889,120.76090810060276L63.370815625,120.5223038425913L63.92804322916667,119.2381733591599L64.16199375000001,118.47149396711652L64.7078782986111,117.64197230455028L65.28070260416666,116.23595085455719L65.59830815972222,114.70994848812023L65.69472413194444,112.93276455722653L66.82761180555555,111.85570030683486L66.89708802083334,110.36886172832659L67.38767517361111,109.31280369103546L67.41461493055556,107.25425378652163L68.27243350694444,106.01737556011135L68.49078732638888,103.82313013103541L68.78854253472221,103.29258623800844L69.44785763888889,102.13044923666395L69.56554184027777,100.19399299782974L69.60098888888889,98.61650665112072L69.93702690972222,98.5488558426763L70.16105225694444,96.90480045679558L70.29575104166666,96.94809131874314L70.5297015625,94.98719582485717L70.55238767361111,93.23468213956262L71.55908385416666,93.18158885918265L71.90362916666666,92.72817946273969L72.43958854166667,91.73564176065618L72.58137673611111,90.95021749325657L73.55546163194444,90.67262259940574L73.8759029513889,88.80212979097585L73.98224409722222,88.23292685009717L75.50646718750001,86.90078961795547L75.93324965277779,84.77568867835939L75.95026423611111,82.05369140785842L76.21824392361111,80.9756447134702L76.44226927083334,79.44981922641603L76.6804734375,79.12628510612328L76.72726354166666,77.8032186747669L76.97822864583333,77.67384468692926L77.12852413194445,76.91701210662058L77.62761857638888,75.7110085330411L78.05440104166667,73.766417690676L78.36633506944445,72.73780697845609L79.09370850694444,71.9017865559882L79.16602048611111,70.39404517105942L79.19721388888888,69.63076554946701L79.31064444444445,69.0384597548802L79.4113140625,68.23926994077631L80.07062916666666,67.49172828876529L80.10182256944445,66.32850327208095L80.4066671875,66.57837171507047L80.5087546875,66.12966992758714L80.97381996527778,66.10503626654886L81.02486371527777,65.13702216618488L81.77775902777778,63.773528210587415L82.36476215277779,62.77255034175087L82.63132395833333,62.06833694399087L82.87094600694445,61.7645761545144L82.9687798611111,60.753076837200155L83.27504236111112,59.81814412420144L83.65645260416666,59.56178803788927L84.16689010416667,59.24748422612764L84.324275,58.86627746147873L84.3781545138889,58.147066367220134L84.38666180555556,57.20354721305054L84.49583871527777,56.177994558010724L85.29977777777778,55.426465924286205L86.08386649305555,55.404621414896425L86.22990833333333,55.27310718847785L86.32916006944444,54.60837979570499L86.50497743055556,54.638843899767195L87.34010989583334,53.885126169790766L87.52868819444444,53.25779063115131L87.56838888888889,52.36131364494699L87.65062604166665,51.713046859605726L87.77398177083333,51.25866925434174L87.85338315972223,51.29591691243543L88.96074895833334,51.20959605411947L89.10537291666667,50.4478760288185L89.44424670138889,49.93625509065539L89.5335732638889,49.301254579413964L89.57894548611111,49.374452038364964L89.61297465277778,49.03777766692734L89.74341979166667,49.290354067532206L90.38713819444445,49.42487074441473L90.628178125,49.50967533681151L90.70332586805556,49.26764530268963L91.07906458333333,48.67307868811287L91.25913559027778,48.401010402233595L91.87024270833334,48.020940611505665L91.87875,48.05192988372545L91.90427187499999,48.09641397873406L91.9269579861111,48.09834549752921L92.4884392361111,48.04722969773175L92.72664340277778,47.629402560964365L92.82022361111112,47.40761855471146L92.91096805555556,47.12873169906322L93.38028697916667,47.1432335291652L93.39304791666666,47.39474350971133L93.62841631944444,47.32917540870989L93.85953107638889,47.40107036786884L94.50041371527777,47.297379997709726L94.78540798611111,47.15612116455776L95.25756267361112,46.89255071468858L95.60210798611112,46.75059772651426L95.9721751736111,46.349965037097604L96.05866597222222,46.20941645002341L96.50246302083333,46.11795397166949L96.74492083333334,45.89920024112999L99.08017239583333,45.89775938368342L99.18509565972222,45.88601469531338L99.27300434027778,45.667715309086816L99.43038923611111,45.44912086148574L99.5735953125,45.17802127530845L99.9025439236111,45.26529206445261L100.37186284722222,45.09185660799247L100.46260729166667,45.14533761386403L101.06946076388888,45.04166843580373L101.6564638888889,44.98831409222004L102.28033194444444,44.82844101632236L102.49301423611111,44.5978989980118L102.62345937500001,45.037567431563986L102.6390560763889,45.36750860508781L102.68301041666666,45.00930982789913L103.41321961805556,45.089483011778555L103.54933628472223,44.7633888772576L103.93358229166667,44.560862489526386L104.09522083333333,44.42652624057047L104.2313375,44.387977783179224L104.23559114583333,44.19840917152425L105.09766336805556,44.04254742103575L105.15863229166666,44.09955309559976L105.44929809027778,43.957879036037724L105.73571024305556,44.27164321577132L106.19935763888888,43.94067681085701L107.18478559027778,43.80136954643655L107.34925989583334,43.88986800846038L107.41590034722222,43.830620790947165L107.48537656250001,43.98994412852031L107.62291111111111,43.770730965666786L107.64276145833334,43.564834952432165L108.26662951388889,43.69911187385634L108.61259270833332,43.61038818647029L108.61542847222222,43.71859936782374L109.18683489583334,43.69153630604123L109.29601180555555,43.48065350876968L109.59093125,43.55512982455963L109.65048229166666,43.780721008770996L109.80503142361111,43.76004474122715L109.97801302083333,44.06655068377182L110.03331041666667,43.90728103206095L110.22330659722223,43.8253966788547L110.32255833333333,43.98278409430284L111.13358680555557,43.75998485153889L111.402984375,43.64919469971818L111.52492222222223,43.545796063079536L111.6709640625,43.73913312343848L111.68514288194446,43.624282311094504L112.73579340277779,43.51661449665164L112.87899947916667,43.38959888031968L112.93571475694444,43.37300357562103L113.0463095486111,43.31750530139223L113.56241857638888,43.483275604586424L113.68861006944444,43.53413554412785L114.30255295138889,43.618628239715065L114.45993784722222,43.59695291574357L114.52657829861111,43.658570124169216L114.69530625,43.420254778418894L115.45245520833333,43.34835430057694L116.04371197916666,43.35370637051926L116.22520086805555,43.28170031680065L116.85899409722222,43.21996778512056L116.9795140625,43.09188767327515L117.27868715277778,42.886886405947564L117.41763958333334,42.75892693201948L117.69838020833333,42.66527382215082L118.30381579861111,42.51092352326907L118.53209479166667,42.45989367094214L118.72918038194445,42.54180013718127L118.75328437499999,42.74089095679648L118.76746319444445,42.741843527783516L119.14603767361112,42.72241959167184L120.18109149305556,42.683427632504646L120.51854739583334,42.60224111925413L120.59511302083332,42.63119409066206L120.62347065972222,42.50422051492919L121.36785868055556,42.727965130102945L121.50113958333334,42.67797070042599L121.57770520833333,42.69935071371671L122.08247118055556,42.74932189234505L122.21008055555556,42.6646188697772L123.07215277777777,42.50849031613282L123.18700121527777,42.58738086785286L124.63324079861111,42.73643444773424L124.64033020833334,42.67022850296081L124.64458385416667,42.50309106933139L124.97069670138889,42.42887571239825L125.00897951388889,42.41862355782507L125.59031111111112,42.57103203537591L126.95289565972223,42.51644966517165L127.14572760416667,42.3874296986545L127.19960711805555,42.432332562122355L127.64623993055554,42.23182847257678L127.71004461805556,42.28061437531912L128.31548020833333,42.15919877112054L128.44734322916665,42.325872644008484L128.808903125,42.41687912960765L129.4568751736111,42.324243299980196L129.50933680555556,42.313391886648816L129.54053020833334,42.422854781317255L129.7758986111111,42.20670471985221L130.33454409722222,42.20760716453367L131.4305668402778,42.02650269808029L131.6319060763889,42.095821178272274L131.64324913194443,42.19200989377836L131.69712864583335,42.14029848773387L132.15226875000002,42.23265405562714L132.27420659722222,42.321919900064444L132.33801128472223,41.983113326724634L132.5166644097222,41.890833244052175L132.84844878472222,41.90488533631361L132.943446875,41.96669888601559L133.2879921875,41.96701858074735L133.35037899305556,41.734993806005946L133.75022170138888,41.681661092072034L133.99835104166667,41.508901232864815L134.35423940972223,41.529188192911676L134.96818229166666,41.4693943736205L135.25317656250002,41.654652852925096L135.4927986111111,41.721208400965935L135.94652083333332,41.744233394202695L136.05853350694446,41.638351721449055L136.29390190972222,41.587308215970836L136.56897100694442,41.274639894373735L136.95463489583332,41.37735298826968L137.16022777777778,41.342576022776086L137.64372552083333,41.46922467049845L137.73730572916665,41.49225012011527L137.9301376736111,41.36485844143709L137.98259930555557,41.46469551396004L138.30445850694443,41.35235096256403L138.7525092013889,41.28995961630761L139.21332083333334,41.15698448801018L139.61174565972223,41.246879789209174L139.7677126736111,41.199952226954906L139.98323072916668,41.13559242092609L139.99599166666667,41.01313734550013L140.20158454861112,41.423479860950124L140.24979253472222,41.37732979152176L140.38732708333333,41.328419729036256L141.13596875000002,41.42022358946596L142.45743472222222,41.37132623051937L142.83175555555556,41.33776652413411L143.01040868055554,41.30141695505404L143.20465850694444,41.34429609288193L143.60308333333333,41.392106066927084L143.64136614583333,41.19114546023437L143.9206888888889,41.5240725808776L144.1248638888889,41.6374882394565L144.2269513888889,41.60189566551085L144.2723236111111,41.58092484895974L144.5275423611111,41.732290697397104L145.82915798611108,41.53172829432407L145.84900833333333,41.58599296489163L145.8603513888889,41.42710200173582L146.3268345486111,41.449423051562235L146.5848890625,41.27468907973932L147.0471185763889,41.25509517176539L147.18323524305555,41.12560648792217L147.388828125,40.983868755796635L147.6638972222222,40.861221463550294L147.7206125,40.80000556719526L147.797178125,40.83955709380908L148.05665052083333,40.6723409677615L148.20694600694446,40.75600270431869L149.25334288194446,41.12814201722017L149.27035746527778,41.08571323216481L150.21324895833334,40.96517315894832L150.25720329861113,40.986364176386786L150.8881607638889,41.01711317541478L151.50210364583333,40.858568524539976L151.55031163194445,41.0471387554193L151.89485694444446,41.190424879877355L152.05791336805555,41.20015322522295L152.12738958333333,41.04235665270065L152.78245104166666,40.81675640409725L152.80797291666667,40.49878909702085L152.82924114583332,40.301118520652096L153.335425,40.204954585253546L153.44601979166666,39.803125793394855L153.48713836805555,39.78626113072204L154.29816684027776,39.86204126764983L154.50234184027778,39.68195172421815L154.53353524305555,39.69256905179634L154.86957326388887,39.868062146616694L155.36866770833333,39.930130931955034L156.15701006944445,39.92699283875953L156.6589402777778,40.21056438821691L156.73125225694446,40.103174616061864L156.8475185763889,40.151565487789014L156.85744375000002,40.36044018901012L157.64436822916667,40.38863575344243L158.15338784722223,40.270199261431515L158.2739078125,40.28283558528835L159.01546006944446,40.149166610092834L159.19694895833334,40.28391661575023L159.2876934027778,40.17410828750852L159.57552343749998,40.228312042091005L160.33692604166666,40.219324587881886L160.92109340277779,40.120892129093704L161.01041996527778,40.07102166618432L161.0529564236111,40.18408616623256L161.29683211805556,40.24589629960931L161.80726961805556,40.06614000298171L161.97316180555555,40.13298433601685L162.5686722222222,40.13906090241517L162.65516302083333,40.137154812173634L162.8012048611111,40.27556433095626L163.44066961805558,40.26123706452731L163.66044131944446,40.212082108074554L163.87737725694444,40.41490514726712L163.92558524305554,40.31903963254041L164.2460265625,40.29790650261967L164.32826371527776,40.15289710235771L165.03862256944444,40.31677405878861L165.968753125,40.186471652909745L166.07651215277778,40.1269703209521L166.13889895833333,40.16130453885688L166.21404670138887,40.285622001637876L166.24382222222224,40.19162230147407L166.68194774305556,40.12853298799331L166.79254253472223,40.106169272527325L167.42917152777775,40.113698178607905L167.6049888888889,40.161651277413796L167.6914796875,40.02842364967242L167.7325982638889,40.16848753470518L167.79498506944444,40.096649197901314L168.061546875,40.20776552811117L168.43870347222222,40.20206189196671L168.65422152777776,40.331522369436726L168.66272881944442,40.08543263249305L169.1178689236111,40.22409770257704L169.2383888888889,40.2253650156527L169.30361145833334,40.26153684742073L169.31495451388886,40.242466496011986L170.01822395833335,40.13188651307746L170.6931357638889,40.175562445103026L170.77253715277777,40.08949578392608L170.8306703125,40.17490037220011L170.91148958333332,40.22595200164679L171.03626319444444,40.195690134815436L171.04902413194446,40.11375653800056L171.24327395833333,40.028953800867185L171.33685416666665,39.9520167541138L171.4431953125,39.99094007870238L171.634609375,39.89690857083215L171.67714583333333,39.913686463748945L171.78065121527777,39.83352615070737L172.98301510416667,39.71713186896994L173.51188506944445,39.69165826540629L173.8649376736111,39.51201327219897L173.93441388888888,39.578343194979084L174.2605267361111,39.60608179214782L174.40656857638888,39.46510902959972L175.3508779513889,39.60865020997309L175.69542326388887,39.64011852230911L176.18317465277775,39.47300250341155L176.30511249999998,39.28633766973704L176.33914166666665,39.31316223609667L177.0140534722222,39.31579392915367L177.12039461805557,39.25731870290497L177.46777569444444,39.20100349928114L178.244775,39.287986482686364L178.35111614583332,39.34660450108436L178.57088784722222,39.359412800975946L178.79491319444446,39.38200277087833L179.06289288194446,39.29109416045719L180.1971984375,39.256599327744794L180.43823836805558,39.07559564497032L180.49637152777777,39.271608997139936L180.7530081597222,39.377958514092626L180.77569427083336,39.35260016268336L180.82390225694445,39.4158193130817L180.96852621527776,39.42662279844018L181.1216574652778,39.33493968526284L182.11984635416667,39.324331133403206L182.76214687499998,39.44630427006288L182.91386024305555,39.338517593056594L183.29810625,39.239665833750934L183.31228506944444,39.25456383370917L183.68235225694445,39.23724286700491L184.20271493055554,39.328591496971086L184.29487725694443,39.40404484727398L184.73725642361111,39.27958827921324L185.04635468749998,39.29479611795858L185.12575607638888,39.199701922829405L185.263290625,39.24440881387977L185.59507499999998,39.38052001582514L185.89566597222222,39.39423884757599L186.00200711805556,39.42502329615172L186.17782447916667,39.46256263320319L186.45856510416667,39.51478553654954L186.75206666666668,39.46406739956126L186.9066157986111,39.53765024293844L187.46526128472223,39.581749801977935L187.68219722222221,39.59501232178013L188.31599045138887,39.456990256268796L188.3315871527778,39.378864147308576L188.43367465277777,39.46588398257771L189.55238350694444,39.58476433431994L189.82319895833334,39.58481915088794L190.11953628472222,39.61621223579914L190.12946145833334,39.603903512219205L190.41729149305553,39.62539857766396L190.51370746527778,39.58267121989758L190.69519635416665,39.71507076457448L190.88235677083333,39.74818868811701L191.03690590277776,39.63664065263865L191.31197500000002,39.721237004041456L191.50480694444445,39.54355080363732L191.54876128472222,39.55325822327356L191.89472447916668,39.46120323427954L192.27897048611112,39.46193707751826L192.4349375,39.626076703099784L192.5597111111111,39.715416949456454L192.77381128472223,39.786604421177486L192.90000277777776,39.57288147905973L192.93403194444446,39.54708291448708L194.11087395833331,39.6658329563717L194.6780267361111,39.60001007740121L195.00839322916667,39.67536323632774L195.0665263888889,39.58707691269498L195.09063038194444,39.61148380475879L195.2480152777778,39.59042917428289L195.25935833333332,39.65199042352128L195.4110717013889,39.476312214502485L195.56278506944446,39.53699349305225L195.77404947916668,39.54735664374701L195.778303125,39.504443896038964L195.93568802083334,39.55616617310173L196.36530625,39.471195389124915L196.7098515625,39.50165918354574L197.2911831597222,39.56718076519118L197.30110833333333,39.71280643867206L197.31812291666668,39.455452878138175L197.39043489583332,39.42357425699103L197.57901319444446,39.44405016462525L197.85975381944445,39.407473273162736L197.97743802083335,39.468892612513116L198.09512222222222,39.60529501792848L198.35317673611112,39.60452593280229L198.5885451388889,39.570646256188695L199.29606822916668,39.69564413056983L199.4818107638889,39.71964221751284L199.49031805555558,39.72095924576158L199.64628506944445,39.63610290451874L199.74837256944446,39.77114886406687L199.9738157986111,39.81033606099351L200.03194895833332,39.85912537156082L200.0815748263889,39.9030357510714L200.18649809027778,39.8202530092976L200.19642326388887,40.05058187503451L200.3112717013889,39.99422160419772L200.66432430555554,39.94042444377797L200.84155954861112,39.95961116606682L201.61430520833335,39.78512921612679L201.6766920138889,39.74302254451413L201.699378125,39.82927237339604L201.83265902777777,39.78766805272312L201.92056770833335,39.723797080784124L202.04959496527778,39.722240289372365L202.21123350694447,39.80196417710178L202.93860694444444,39.87002817605827L203.07472361111112,39.70450452511909L203.332778125,39.888022822607184L203.34979270833333,39.95178304034644L203.63478697916668,39.805125569645156L204.03746545138887,39.83661301268063L204.0403012152778,39.80533712807923L204.1111953125,39.89764716527131L204.37492135416664,39.80987203207749L204.5379777777778,39.68600982886974L204.7180487847222,39.693148429316096L205.60564288194445,39.585260669717826L205.96011336805557,39.55576585274605L206.2394361111111,39.65828301747143L206.4492826388889,39.59628804905762L206.5329376736111,39.544794660818525L206.53860920138888,39.52610686140332L206.65203975694445,39.59778784192966L206.70166562499998,39.61129030773668L206.70875503472223,39.63634877696299L206.7371126736111,39.64845348260005L206.76830607638888,39.739243551006695L206.94270555555556,39.76072544590605L207.04762881944444,39.707538317982085L207.4829185763889,39.65290948618389L207.59918489583333,39.694701870898825L207.6686611111111,39.65979418380894L207.9579090277778,39.57859601542805L208.181934375,39.52026766388525L209.08228940972222,39.415532564163385L209.25385312499998,39.56833347441369L209.34176180555556,39.424375126972336L210.1442829861111,39.41465636427512L210.33002552083335,39.39361781118092L210.67457083333335,39.41094353006284L210.90426770833335,39.431453343723206L210.96523663194446,39.510755926017566L211.15381493055554,39.71364908341582L211.21620173611112,39.75305500840756L211.38351180555557,39.70186409090013L211.41612309027778,39.792229765143446L212.21864427083332,39.80411095529578L212.2852847222222,39.88978319309953L212.44975902777776,39.86855487378958L212.55042864583334,39.846376469743944L212.71348506944443,39.937655489436224L213.33877100694446,39.90057744049261L213.362875,39.83340511310999L213.36429288194444,39.662939601798996L213.41533663194443,39.58757272495242L214.00375763888889,39.6746175357905L214.8658298611111,39.71485369887813L215.00903593750002,39.824201662323674L215.63715763888888,39.77327107942463L215.64566493055557,39.77475647148216L215.75342395833334,39.74352040766726L216.55310937500002,39.73384545023387L216.98414548611112,39.629262988543815L217.18548472222224,39.53022210635609L217.2095887152778,39.562158229053836L217.25354305555555,39.51346323948175L217.28757222222222,39.49237733220025L217.92136545138888,39.58402501564689L218.0461390625,39.545435014082216L218.31979027777777,39.49595401267399L218.37792343750002,39.5055044447399L219.24708506944444,39.480912333599235L219.65401718750002,39.386873183572646L219.66110659722221,39.324362948548725L219.92057899305556,39.16178082036049L220.48206024305554,39.144519404991115L221.07898854166666,39.08411954782534L221.53271076388887,39.1618950930428L221.57524722222223,39.247257667071864L221.60218697916665,39.54041731703134L221.61494791666667,39.50311516866154L221.82479444444445,39.58324115179539L222.03038732638888,39.68915661994916L223.54468524305554,39.61362637462091L223.57020711805555,39.67901373715881L223.9005736111111,39.744008196776264L224.02676510416669,39.828930293765325L224.12176319444444,39.8549643477221L224.34153489583332,39.9625929129499L224.4875767361111,39.80440653832159L224.6052609375,39.765903384489434L225.03062552083335,39.84925054604045L225.15539913194445,39.827158824769754L225.1851746527778,39.73045335895944L225.98769583333333,39.64096010639685L226.01463559027778,39.74048909575714L226.1110515625,39.601440186181435L226.12664826388888,39.655139917563275L226.18478142361113,39.66536550914026L226.53074461805556,39.661662291559566L226.6725328125,39.55569397907027L226.99580989583333,39.53653083116325L227.1801345486111,39.51313816471358L227.36020555555555,39.658636848242224L227.425428125,39.74533566341802L228.0152670138889,39.842416680409514L228.33287256944445,39.78228959570191L228.51861510416666,39.825893969465056L228.76958020833334,39.78401290585188L228.93830815972223,39.681174115266685L229.0744248263889,39.51548378707335L229.57777291666665,39.33378957503268L229.65150277777778,39.39827520086274L229.92090034722222,39.49380184744314L230.0598527777778,39.39048416269884L230.3732046875,39.34973782976226L230.56036510416666,39.3321182134527L230.71633211805556,39.55287514210744L231.04386284722221,39.407389711230024L231.2239338541667,39.37355699010703L231.24520208333334,39.3892012910963L231.304753125,39.389760328653324L231.35154322916665,39.39702387912135L231.76272899305556,39.321206907875876L231.99384375,39.33655496708829L232.3993579861111,39.268628637046106L232.5269673611111,39.40846369000815L232.64890520833333,39.37575273767402L233.15367118055556,39.37335454723993L233.54217083333333,39.4805920091826L233.63575104166665,39.368761974931004L233.9108201388889,39.2005107774379L234.0682050347222,39.21502219969412L234.20573958333333,39.23484289639134L234.39148211805554,39.24223360675222L234.4155861111111,39.04730191274368L234.59140347222223,39.13736338813595L235.08340850694444,39.00208538265568L235.16280989583333,38.81396017772346L235.37691006944445,38.816116243284426L235.50451944444444,38.87398378562264L235.7101123263889,38.78532499039372L236.1921921875,38.7460945746877L237.11523333333335,38.541162200552264L237.2641109375,38.54847306383036L237.42716736111112,38.67489659078066L237.90641145833334,38.72107359836926L238.1800626736111,38.674132905199L238.4097595486111,38.68412586467909L238.80676649305556,38.64886952821118L239.11586475694443,38.55322215872337L239.4235451388889,38.611566609517695L239.61354131944444,38.5516078652326L240.71381770833335,38.400540828709325L241.31074600694444,38.28363257917175L241.4043262152778,38.07946723792125L241.41850503472224,38.01617676412911L241.48939913194442,38.09565283771619L242.26072690972222,38.0848271372779L242.63362986111113,38.09290692355012L242.66765902777777,38.10079331452843L242.68892725694445,38.23449523307559L242.7229564236111,38.22883737643468L242.76407500000002,38.316547388791236L242.88317708333332,38.32296556657877L242.94839965277777,38.374835676587566L243.7055486111111,38.31396669226211L245.2949942708333,38.259184606369246L245.31626250000002,38.290391145732315L245.40417118055555,38.3719457811591L245.93020538194446,38.425678286376495L246.7681736111111,38.450683374405514L246.86458958333336,38.44614628696496L247.03189965277778,38.66146915826846L247.04324270833334,38.58238474244163L247.04466059027777,38.56775043486414L247.0489142361111,38.62341289137771L247.05175,38.55489451890659L247.05316788194443,38.589102983682636L247.05600364583333,38.59161976864769L247.08294340277777,38.677468208449596L247.0900328125,38.64779430427129L247.09428645833333,38.58052529051082L247.09854010416666,38.53043109479307L247.11130104166665,38.5646275686471L247.1127189236111,38.498914811782385L247.12122621527777,38.48095041393748L247.12406197916667,38.37320953921039L247.1254798611111,38.24797191862268L247.13398715277776,38.26985181009377L247.1382407986111,38.26127287908437L247.13965868055556,38.20254142450926L247.14674809027778,38.14353728205833L247.14958385416668,37.982881470519175L247.15241961805555,37.95690582346725L247.15667326388888,37.99006940778716L247.15809114583334,38.07031246700845L247.1694342013889,38.188624970307586L247.1765236111111,38.131012473276826L247.17935937500002,37.97037997594916L247.18077725694442,37.83011281168757L247.1821951388889,37.829861947185464L247.18786666666668,37.779854919133584L247.19779184027777,37.83256734388689L247.21197065972223,37.91934185949819L247.22331371527778,38.1455535068817L247.230403125,38.19242523952687L247.24741770833333,38.2825472989075L247.25450711805556,38.17375090235009L247.25734288194445,38.291552895448405L247.2587607638889,38.285720522570216L247.26301440972222,38.18951305364652L247.27719322916667,38.08756174828187L247.28570052083333,38.16481599012036L247.29137204861112,38.16981355777497L247.29846145833332,38.29108220199748L247.30129722222225,38.37010939846439L247.3041329861111,38.374858875284616L247.30696874999998,38.48361257108951L247.3098045138889,38.63373048064719L247.31547604166667,38.61396159924914L247.3168939236111,38.6312008559909L247.32114756944443,38.60738285372514L247.3225654513889,38.4968320683526L247.32398333333333,38.557128028183996L247.32965486111112,38.429477725365615L247.332490625,38.29431120282905L247.33674427083332,38.29311966587949L247.33816215277778,38.34797436595818L247.34099791666665,38.46556234602903L247.3480873263889,38.417745694759475L247.35092309027777,38.66479404195016L247.35234097222224,38.8281375544218L247.35375885416664,38.80675088231297L247.36226614583333,38.53613829408167L247.36510190972223,38.38415988134017L247.36935555555556,38.37951472653947L247.38211649305555,38.36242783721886L247.38637013888888,38.40727880349695L247.38920590277777,38.450717589813905L247.39204166666667,38.36197916416586L247.39487743055557,38.40257291441594L247.39771319444444,38.47844062297435L247.41047413194443,38.36849239401025L247.41614565972222,38.22405982127589L247.41898142361111,38.36633092248164L247.42323506944444,38.53186449690014L247.434578125,38.48663638054347L247.44024965277777,38.515378992489104L247.44592118055556,38.39436192657354L247.45442847222222,38.38685281724949L247.46435364583334,38.3936154521912L247.4671894097222,38.40830599030542L247.47427881944446,38.42029830794155L247.48420399305556,38.423101810480745L247.4884576388889,38.28795829609933L247.48987552083332,38.404172883156065L247.49696493055555,38.41534934484045L247.4983828125,38.31293941035639L247.49980069444445,38.22077046932074L247.50263645833334,38.16055800572201L247.50689010416667,38.07502303848315L247.51397951388887,38.10313531796817L247.5182331597222,38.056530119504686L247.51965104166666,38.09816877422088L247.52248680555553,37.94819564679878L247.53099409722222,37.90479274878558L247.54517291666667,37.87556347390702L247.5550980902778,37.93038212651632L247.55935173611113,37.99262516386469L247.56076961805556,38.0486438974782L247.57069479166665,37.91652950773039L247.57211267361112,38.03915780695735L247.57353055555558,38.07823160959495L247.57494843749998,38.032887615302116L247.58203784722224,37.96565093710521L247.58629149305557,38.040960843394686L247.62032065972224,38.30294809238856L247.62457430555557,37.96287203314972L247.62741006944444,37.88850149650142L247.6344994791667,38.258536763517924L247.63875312500002,38.2062247538328L247.64017100694443,38.15115436178286L247.64300677083335,38.105278508937886L247.64442465277776,38.36144857471075L247.65434982638888,38.23124121723967L247.65718559027778,38.1951795955157L247.66002135416667,38.155349135964116L247.67278229166666,38.107210055701046L247.6798717013889,38.210770300130946L247.68128958333335,38.21547452011785L247.689796875,38.29038540143941L247.69263263888888,38.19309686129546L247.69546840277778,38.21001634183256L247.69830416666667,38.18099387431596L247.70397569444444,38.088498653551056L247.70822934027777,38.02369045486259L247.71390086805556,38.146050576042995L247.72666180555555,38.108060101772026L247.7280796875,38.013024924928146L247.72949756944445,38.036274515768696L247.73800486111114,37.94718873085847L247.74934791666666,38.07105319110596L247.75501944444446,38.045479121995356L247.75785520833332,38.078389543129134L247.7592730902778,38.09387350548289L247.76069097222222,37.90745490493461L247.76636249999999,37.940646914441146L247.7734519097222,38.014769722997016L247.78337708333333,38.22160525069734L247.78904861111113,38.442788475627594L247.79472013888886,38.6781137947315L247.79613802083333,38.547583665258344L247.80039166666666,38.59604404873252L247.80606319444445,38.51059589385926L247.80889895833332,38.53448422113999L247.81740625,38.56827538235933L247.82165989583333,38.35961451079004L247.82449565972223,38.419496809711035L247.8273314236111,38.47523462873991L247.8301671875,38.34225283253261L247.83442083333333,38.290173382612664L247.83725659722222,38.22916646101808L247.84151024305555,37.961614398249594L247.84718177083332,37.94145295842466L247.85001753472224,37.949120162582176L247.8585248263889,37.89947897965729L247.8656142361111,37.77859358169158L247.86703211805556,37.69130714018908L247.87270364583333,37.74365559283683L247.88262881944445,37.64695670021979L247.893971875,37.8180526968645L247.89822552083334,37.856497427178056L247.90247916666667,37.95747268446024L247.9038970486111,37.95247541601424L247.90815069444443,38.124363291079476L247.91524010416668,37.997583211971545L247.92374739583335,38.36101239077436L247.92516527777778,38.42567156836361L247.93083680555554,38.42425024486059L247.93367256944444,38.523148137041204L247.9421798611111,38.4326979066704L247.94359774305556,38.429959366003345L247.94643350694443,38.32240092940299L247.95210503472222,38.52305666979606L247.96203020833335,38.53525100281644L247.9705375,38.50443423586813L247.97479114583334,38.44474081228131L247.9832984375,38.527454231053156L247.99464149305555,38.53613589128119L247.99889513888888,38.53595980215306L248.00173090277778,38.49954090527109L248.0031487847222,38.467378481410634L248.01023819444444,38.39971354993622L248.01165607638887,38.6522526116093L248.0159097222222,38.52062110044835L248.01874548611113,38.43411107373686L248.02016336805553,38.29294996636318L248.02299913194446,38.25932163639354L248.03008854166666,38.210004056087485L248.0442673611111,38.458159900478734L248.05277465277777,38.48176057709753L248.05561041666667,38.45567826938776L248.05702829861113,38.36460002578232L248.0626998263889,38.33671293987075L248.06411770833333,38.3656978958837L248.06978923611112,38.24305518962865L248.072625,38.21134342066577L248.08113229166665,38.18034449526587L248.0825501736111,38.30424754573929L248.08680381944444,38.335864457832L248.09247534722223,38.2063717620488L248.10948993055555,38.2465470858439L248.11657934027778,38.30605904392618L248.11799722222224,38.39157813953358L248.1208329861111,38.357305742246865L248.1265045138889,38.39713766802217L248.1335939236111,38.389965567886605L248.13501180555556,38.373677344431314L248.14351909722222,38.55322627665481L248.1449369791667,38.39830989898937L248.14777274305555,38.40392682575708L248.1647873263889,38.38992997651471L248.17045885416667,38.47505156219657L248.17329461805556,38.39617140597693L248.17613038194443,38.20410634871254L248.18038402777776,38.11606029717461L248.1846376736111,38.10196468412383L248.1973986111111,38.11570571571144L248.20590590277777,38.271270560806954L248.20874166666667,38.20846642139293L248.22433836805556,38.37626561258696L248.22575625000002,38.22736821799492L248.23426354166668,38.24208972952877L248.2441887152778,38.19510992324257L248.27821788194444,38.256078097584975L248.27963576388888,38.259939037826456L248.28247152777777,38.2173201340438L248.28672517361113,38.28036937063942L248.2895609375,38.21542618357549L248.31933645833334,38.20245648188461L248.32359010416667,38.310627500362784L248.32926163194443,38.37233558365986L248.3306795138889,38.34121660862721L248.33209739583333,38.23945953109782L248.33493315972223,38.064909411321366L248.3406046875,37.97050180352255L248.34485833333332,38.029347456503615L248.34769409722225,38.03867312751993L248.3505298611111,38.31440998143461L248.36045503472224,38.326573149957824L248.36470868055557,38.47334291829537L248.3661265625,38.33256070979917L248.37038020833333,38.19663797215256L248.37746961805556,38.148057508270654L248.3888126736111,38.1522725907769L248.3944842013889,38.009795331699195L248.39731996527777,37.98297204852926L248.40015572916664,38.086049843676335L248.4015736111111,38.1911115259754L248.41008090277776,38.259239956711184L248.41575243055556,38.22037846104007L248.41858819444442,38.140538531602715L248.42142395833335,38.28194301177575L248.42567760416668,38.24326954393152L248.43843854166667,38.269921756205036L248.44127430555557,38.239825413917856L248.4426921875,38.15619703919273L248.44836371527776,38.115962751940145" style="fill: none;" fill="none"></path></g></g></g></g><g opacity="0.2"><g><g><g><path stroke="rgb(255, 112, 67)" stroke-width="2px" d="M28.831211458333335,150.93552083333333L29.077922916666665,151.55625L29.131802430555556,152.330625L29.21829322916667,151.6484375L29.97827795138889,151.56239583333334L30.050589930555557,150.8925L30.06760451388889,151.63L30.071858159722222,151.23052083333334L30.1030515625,151.42104166666667L30.249093402777778,152.0540625L30.25901857638889,151.076875L30.328494791666667,151.91270833333334L30.751023611111112,152.0909375L31.07997222222222,151.00927083333335L31.10124045138889,151.23666666666668L31.162209375,151.04614583333333L31.204745833333334,151.6484375L31.275639930555556,150.97854166666667L31.400413541666666,150.3578125L31.740705208333335,151.36880208333332L32.044131944444445,151.36572916666665L32.21994930555555,151.59927083333332L32.22703871527778,150.03822916666667L32.360319618055556,151.0953125L32.411363368055554,151.61770833333333L32.914711458333336,150.30864583333334L33.00970954861111,149.09177083333333L33.05933541666667,150.55447916666665L33.257838888888884,150.65895833333332L33.30888263888889,150.2840625L33.320225694444446,149.97062499999998L33.55559409722222,150.72041666666667L33.66618888888889,148.89510416666667L33.74842604166667,148.5325L33.888796354166665,149.35604166666667L34.210655555555554,148.22520833333334L34.33542916666667,148.16682291666666L34.47438159722222,147.54916666666668L34.6204234375,147.24802083333333L34.71825729166667,147.020625L34.98907274305555,145.83447916666665L35.03728072916667,146.78708333333333L35.115264236111116,144.15052083333333L35.30667829861111,142.23302083333334L35.31234982638889,143.65270833333332L35.90360659722223,141.21895833333332L36.647994618055556,140.37083333333334L36.71747083333334,138.539375L36.74015694444444,138.07229166666667L37.05067309027778,135.7L37.67879479166667,136.75708333333333L38.24169392361111,135.81677083333332L38.6528796875,133.4321875L38.9591421875,132.92822916666665L39.75457395833333,129.94135416666666L39.943152256944444,133.29083333333332L40.39403871527778,133.05729166666666L40.63507864583333,132.2521875L41.1540234375,130.8325L41.389391840277774,132.30135416666667L41.44894288194445,130.90010416666667L41.80483125,130.85708333333332L43.04689583333333,129.31447916666667L43.616884375,124.16427083333335L43.666510243055555,132.81760416666668L43.89620711805556,131.05375L44.18545503472222,129.28375L44.20246961805556,130.795625L44.348511458333334,129.7815625L44.76395086805555,129.14239583333332L44.84051649305555,128.24510416666666L45.607590625,127.13885416666666L45.6458734375,128.325L45.875570312499995,122.53562500000001L46.1818328125,127.3846875L46.743314062500005,127.36010416666667L47.12472430555555,128.90270833333332L48.755288541666665,129.836875L49.19908559027778,126.80697916666668L49.49542291666667,130.06427083333335L49.800267534722224,125.33812499999999L50.048396875,128.68145833333335L51.233746180555556,123.74020833333333L51.29471510416667,125.043125L52.804759375,121.53999999999999L53.90503576388888,126.72093749999999L53.963168923611114,126.4075L54.19286579861111,125.3934375L54.591290625,125.75604166666666L55.613583506944444,129.5971875L55.73693923611111,122.0378125L55.74828229166667,125.93427083333333L55.89999565972222,119.57947916666667L56.255884027777775,120.40916666666666L57.00027204861111,121.32489583333333L57.59294670138889,122.85520833333334L57.60003611111111,120.33541666666667L58.76269930555556,119.02635416666666L58.84777222222222,119.73927083333334L60.013271180555556,121.20197916666666L60.11535868055556,121.31260416666666L60.13662690972222,117.19489583333333L61.80405607638889,112.59166666666667L62.11173645833333,113.56885416666667L62.17270538194444,123.34687500000001L62.44210295138889,119.4934375L63.370815625,118.37489583333334L63.92804322916667,107.68114583333333L64.16199375000001,111.57145833333334L64.7078782986111,110.17635416666667L65.28070260416666,103.581875L65.59830815972222,100.97604166666667L65.69472413194444,96.93822916666667L66.82761180555555,102.1621875L66.89708802083334,96.98739583333334L67.38767517361111,99.80833333333334L67.41461493055556,88.72739583333333L68.27243350694444,94.88552083333333L68.49078732638888,84.075L68.78854253472221,98.51770833333333L69.44785763888889,91.67125L69.56554184027777,82.7659375L69.60098888888889,84.41916666666665L69.93702690972222,97.94L70.16105225694444,82.10833333333333L70.29575104166666,97.33770833333332L70.5297015625,77.33916666666667L70.55238767361111,77.46208333333334L71.55908385416666,92.70375L71.90362916666666,88.64750000000001L72.43958854166667,82.80281249999999L72.58137673611111,83.88140625L73.55546163194444,88.17427083333334L73.8759029513889,71.96770833333335L73.98224409722222,83.11010416666667L75.50646718750001,74.9115625L75.93324965277779,65.64979166666667L75.95026423611111,57.555729166666666L76.21824392361111,71.27322916666667L76.44226927083334,65.71739583333333L76.6804734375,76.21447916666668L76.72726354166666,65.89562500000001L76.97822864583333,76.50947916666667L77.12852413194445,70.10552083333333L77.62761857638888,64.85697916666666L78.05440104166667,56.26510416666666L78.36633506944445,63.4803125L79.09370850694444,64.37760416666667L79.16602048611111,56.824375L79.19721388888888,62.761250000000004L79.31064444444445,63.70770833333333L79.4113140625,61.04656249999999L80.07062916666666,60.763854166666675L80.10182256944445,55.859479166666674L80.4066671875,68.8271875L80.5087546875,62.09135416666666L80.97381996527778,65.88333333333334L81.02486371527777,56.42489583333332L81.77775902777778,51.50208333333333L82.36476215277779,53.76374999999999L82.63132395833333,55.73041666666667L82.87094600694445,59.03072916666666L82.9687798611111,51.649583333333325L83.27504236111112,51.40375L83.65645260416666,57.25458333333334L84.16689010416667,56.41875L84.324275,55.43541666666667L84.3781545138889,51.674166666666665L84.38666180555556,48.71187500000002L84.49583871527777,46.948020833333345L85.29977777777778,48.66270833333334L86.08386649305555,55.208020833333336L86.22990833333333,54.08947916666668L86.32916006944444,48.62583333333333L86.50497743055556,54.913020833333334L87.34010989583334,47.10166666666666L87.52868819444444,47.61177083333334L87.56838888888889,44.293020833333344L87.65062604166665,45.87864583333334L87.77398177083333,47.16927083333334L87.85338315972223,51.631145833333335L88.96074895833334,50.43270833333334L89.10537291666667,43.59239583333334L89.44424670138889,45.33166666666665L89.5335732638889,43.58625000000001L89.57894548611111,50.03322916666667L89.61297465277778,46.00770833333334L89.74341979166667,51.563541666666666L90.38713819444445,50.63552083333333L90.628178125,50.27291666666666L90.70332586805556,47.08937499999999L91.07906458333333,43.321979166666665L91.25913559027778,45.95239583333333L91.87024270833334,44.6003125L91.87875,48.330833333333345L91.90427187499999,48.49677083333333L91.9269579861111,48.115729166666654L92.4884392361111,47.5871875L92.72664340277778,43.868958333333325L92.82022361111112,45.4115625L92.91096805555556,44.618750000000006L93.38028697916667,47.27375000000001L93.39304791666666,49.65833333333333L93.62841631944444,46.73906249999999L93.85953107638889,48.048125L94.50041371527777,46.36416666666668L94.78540798611111,45.88479166666667L95.25756267361112,44.52041666666668L95.60210798611112,45.47302083333332L95.9721751736111,42.74427083333333L96.05866597222222,44.94447916666667L96.50246302083333,45.29479166666667L96.74492083333334,43.93041666666667L99.08017239583333,45.88479166666667L99.18509565972222,45.78031250000001L99.27300434027778,43.70302083333334L99.43038923611111,43.48177083333334L99.5735953125,42.738125L99.9025439236111,46.050729166666684L100.37186284722222,43.53093749999999L100.46260729166667,45.626666666666665L101.06946076388888,44.10864583333333L101.6564638888889,44.50812500000001L102.28033194444444,43.38958333333335L102.49301423611111,42.523020833333334L102.62345937500001,48.99458333333334L102.6390560763889,48.33697916666665L102.68301041666666,41.78552083333335L103.41321961805556,45.81104166666668L103.54933628472223,41.828541666666666L103.93358229166667,42.738125L104.09522083333333,43.2175L104.2313375,44.04104166666667L104.23559114583333,42.49229166666666L105.09766336805556,42.63979166666667L105.15863229166666,44.61260416666667L105.44929809027778,42.68281249999998L105.73571024305556,47.095520833333325L106.19935763888888,40.96197916666665L107.18478559027778,42.54760416666667L107.34925989583334,44.68635416666669L107.41590034722222,43.297395833333354L107.48537656250001,45.42385416666667L107.62291111111111,41.79781250000002L107.64276145833334,41.71177083333333L108.26662951388889,44.90760416666666L108.61259270833332,42.811874999999986L108.61542847222222,44.692499999999995L109.18683489583334,43.44796875L109.29601180555555,41.58270833333333L109.59093125,44.22541666666666L109.65048229166666,45.81104166666668L109.80503142361111,43.57395833333334L109.97801302083333,46.82510416666668L110.03331041666667,42.473854166666655L110.22330659722223,43.0884375L110.32255833333333,45.39927083333333L111.13358680555557,41.75479166666668L111.402984375,42.65208333333334L111.52492222222223,42.61520833333333L111.6709640625,45.47916666666666L111.68514288194446,42.59062499999999L112.73579340277779,42.54760416666667L112.87899947916667,42.24645833333332L112.93571475694444,43.223645833333336L113.0463095486111,42.81802083333332L113.56241857638888,44.97520833333334L113.68861006944444,43.99187499999999L114.30255295138889,44.3790625L114.45993784722222,43.40187500000002L114.52657829861111,44.21312499999999L114.69530625,41.27541666666667L115.45245520833333,42.70124999999999L116.04371197916666,43.40187500000002L116.22520086805555,42.63364583333333L116.85899409722222,42.66437500000001L116.9795140625,41.939166666666665L117.27868715277778,41.041875000000005L117.41763958333334,41.60729166666667L117.69838020833333,41.82239583333333L118.30381579861111,41.12177083333333L118.53209479166667,42.000625000000014L118.72918038194445,43.27895833333335L118.75328437499999,44.532708333333346L118.76746319444445,42.750416666666666L119.14603767361112,42.54760416666667L120.18109149305556,42.33249999999998L120.51854739583334,41.87156250000001L120.59511302083332,42.89177083333334L120.62347065972222,41.36145833333333L121.36785868055556,44.741666666666674L121.50113958333334,42.22802083333332L121.57770520833333,42.89177083333334L122.08247118055556,43.1990625L122.21008055555556,41.902291666666684L123.07215277777777,41.103333333333325L123.18700121527777,43.297395833333354L124.63324079861111,44.07791666666665L124.64033020833334,42.074375L124.64458385416667,40.99885416666666L124.97069670138889,41.76093750000001L125.00897951388889,42.32635416666665L125.59031111111112,43.942708333333314L126.95289565972223,42.02520833333335L127.14572760416667,41.22624999999999L127.19960711805555,42.836458333333326L127.64623993055554,40.42729166666666L127.71004461805556,42.71968749999999L128.31548020833333,41.066458333333316L128.44734322916665,43.82593749999998L128.808903125,43.235937500000006L129.4568751736111,41.490520833333335L129.50933680555556,42.21572916666668L129.54053020833334,43.40802083333335L129.7758986111111,40.26135416666668L130.33454409722222,42.21572916666668L131.4305668402778,40.396562500000016L131.6319060763889,42.71968749999999L131.64324913194443,43.05770833333332L131.69712864583335,41.67489583333332L132.15226875000002,43.06385416666666L132.27420659722222,43.12531250000001L132.33801128472223,38.93385416666666L132.5166644097222,41.06031249999998L132.84844878472222,42.03135416666666L132.943446875,42.523020833333334L133.2879921875,41.96989583333334L133.35037899305556,39.646770833333335L133.75022170138888,41.201666666666654L133.99835104166667,39.95406249999999L134.35423940972223,41.71177083333333L134.96818229166666,40.931250000000006L135.25317656250002,43.321979166666665L135.4927986111111,42.32020833333334L135.94652083333332,41.951458333333335L136.05853350694446,40.68541666666667L136.29390190972222,41.127916666666664L136.56897100694442,38.46062499999999L136.95463489583332,42.301770833333336L137.16022777777778,41.029583333333335L137.64372552083333,42.60906249999999L137.73730572916665,41.69947916666666L137.9301376736111,40.218333333333334L137.98259930555557,42.363229166666656L138.30445850694443,40.34125L138.7525092013889,40.72843750000001L139.21332083333334,39.96020833333333L139.61174565972223,42.0559375L139.7677126736111,40.77760416666666L139.98323072916668,40.556354166666665L139.99599166666667,39.91104166666668L140.20158454861112,45.116562499999986L140.24979253472222,40.96197916666665L140.38732708333333,40.88822916666666L141.13596875000002,42.24645833333332L142.45743472222222,40.931250000000006L142.83175555555556,41.03572916666667L143.01040868055554,40.97427083333332L143.20465850694444,41.73020833333334L143.60308333333333,41.82239583333333L143.64136614583333,39.38249999999999L143.9206888888889,44.52041666666668L144.1248638888889,42.65822916666667L144.2269513888889,41.28156250000001L144.2723236111111,41.392187500000006L144.5275423611111,43.09458333333333L145.82915798611108,39.72666666666666L145.84900833333333,42.074375L145.8603513888889,39.997083333333336L146.3268345486111,41.65031250000001L146.5848890625,39.70208333333332L147.0471185763889,41.078749999999985L147.18323524305555,39.96020833333333L147.388828125,39.708229166666655L147.6638972222222,39.757395833333334L147.7206125,40.24906250000001L147.797178125,41.19552083333332L148.05665052083333,39.16739583333333L148.20694600694446,41.50895833333334L149.25334288194446,44.47739583333333L149.27035746527778,40.70385416666667L150.21324895833334,39.8803125L150.25720329861113,41.177083333333314L150.8881607638889,41.29385416666668L151.50210364583333,39.43166666666667L151.55031163194445,42.74427083333333L151.89485694444446,42.47999999999999L152.05791336805555,41.28770833333334L152.12738958333333,39.622187499999995L152.78245104166666,38.786354166666655L152.80797291666667,37.63708333333335L152.82924114583332,38.52208333333334L153.335425,39.33947916666668L153.44601979166666,36.18666666666667L153.48713836805555,39.634479166666665L154.29816684027776,40.544062499999995L154.50234184027778,38.06114583333334L154.53353524305555,39.78812499999998L154.86957326388887,41.44749999999999L155.36866770833333,40.48875000000001L156.15701006944445,39.89875000000001L156.6589402777778,42.762708333333336L156.73125225694446,39.136666666666684L156.8475185763889,40.58708333333334L156.85744375000002,42.24031249999999L157.64436822916667,40.64239583333335L158.15338784722223,39.20427083333334L158.2739078125,40.396562500000016L159.01546006944446,38.94614583333333L159.19694895833334,41.49666666666667L159.2876934027778,39.185833333333335L159.57552343749998,40.71614583333334L160.33692604166666,40.13843750000001L160.92109340277779,39.235000000000014L161.01041996527778,39.622187499999995L161.0529564236111,41.201666666666654L161.29683211805556,40.8021875L161.80726961805556,38.44833333333332L161.97316180555555,40.73458333333335L162.5686722222222,40.193749999999994L162.65516302083333,40.120000000000005L162.8012048611111,41.52125000000001L163.44066961805558,40.132291666666674L163.66044131944446,39.7696875L163.87737725694444,42.24031249999999L163.92558524305554,39.45625000000001L164.2460265625,40.107708333333335L164.32826371527776,38.8478125L165.03862256944444,41.791666666666686L165.968753125,39.013750000000016L166.07651215277778,39.59145833333332L166.13889895833333,40.470312500000006L166.21404670138887,41.404479166666675L166.24382222222224,39.34562500000001L166.68194774305556,39.56072916666665L166.79254253472223,39.90489583333334L167.42917152777775,40.181458333333325L167.6049888888889,40.593229166666674L167.6914796875,38.829375L167.7325982638889,41.429062499999986L167.79498506944444,39.45010416666668L168.061546875,41.20781249999999L168.43870347222222,40.15072916666668L168.65422152777776,41.49666666666667L168.66272881944442,37.87062500000002L169.1178689236111,41.47208333333333L169.2383888888889,40.23677083333334L169.30361145833334,40.58708333333334L169.31495451388886,40.070833333333326L170.01822395833335,39.136666666666684L170.6931357638889,40.568645833333335L170.77253715277777,39.31489583333334L170.8306703125,40.94354166666665L170.91148958333332,40.68541666666667L171.03626319444444,39.92333333333332L171.04902413194446,39.37635416666666L171.24327395833333,39.26572916666666L171.33685416666665,39.25958333333335L171.4431953125,40.34125L171.634609375,39.050625L171.67714583333333,40.06468749999999L171.78065121527777,39.112083333333345L172.98301510416667,38.66958333333332L173.51188506944445,39.46239583333332L173.8649376736111,37.89520833333333L173.93441388888888,40.17531249999999L174.2605267361111,39.85572916666666L174.40656857638888,38.19635416666665L175.3508779513889,40.90052083333333L175.69542326388887,39.92333333333332L176.18317465277775,37.96895833333335L176.30511249999998,37.60635416666668L176.33914166666665,39.55458333333334L177.0140534722222,39.33947916666668L177.12039461805557,38.73104166666667L177.46777569444444,38.69416666666666L178.244775,40.070833333333326L178.35111614583332,39.87416666666667L178.57088784722222,39.47468749999999L178.79491319444446,39.585312499999986L179.06289288194446,38.47291666666666L180.1971984375,38.94614583333333L180.43823836805558,37.4465625L180.49637152777777,41.03572916666667L180.7530081597222,40.33510416666667L180.77569427083336,39.124375000000015L180.82390225694445,39.984791666666666L180.96852621527776,39.523854166666666L181.1216574652778,38.50979166666667L182.11984635416667,39.22885416666668L182.76214687499998,40.544062499999995L182.91386024305555,38.3684375L183.29810625,38.349999999999994L183.31228506944444,39.38864583333333L183.68235225694445,39.08135416666667L184.20271493055554,40.15072916666668L184.29487725694443,40.083124999999995L184.73725642361111,38.15947916666667L185.04635468749998,39.43166666666667L185.12575607638888,38.34385416666666L185.263290625,39.646770833333335L185.59507499999998,40.605520833333344L185.89566597222222,39.51770833333333L186.00200711805556,39.70208333333332L186.17782447916667,39.80041666666665L186.45856510416667,39.984791666666666L186.75206666666668,39.00760416666668L186.9066157986111,40.19989583333333L187.46526128472223,39.97864583333333L187.68219722222221,39.71437499999999L188.31599045138887,38.214791666666656L188.3315871527778,38.675729166666656L188.43367465277777,40.24906250000001L189.55238350694444,40.654687499999994L189.82319895833334,39.585312499999986L190.11953628472222,39.89875000000001L190.12946145833334,39.49312499999999L190.41729149305553,39.818854166666654L190.51370746527778,39.198125000000005L190.69519635416665,40.906666666666666L190.88235677083333,40.046249999999986L191.03690590277776,38.63270833333334L191.31197500000002,40.482604166666675L191.50480694444445,37.94437500000001L191.54876128472222,39.640625L191.89472447916668,38.63270833333334L192.27897048611112,39.46854166666665L192.4349375,41.103333333333325L192.5597111111111,40.519479166666684L192.77381128472223,40.42729166666666L192.90000277777776,37.64937500000002L192.93403194444446,39.31489583333334L194.11087395833331,40.73458333333335L194.6780267361111,39.00760416666668L195.00839322916667,40.35354166666667L195.0665263888889,38.79249999999999L195.09063038194444,39.83114583333332L195.2480152777778,39.4009375L195.25935833333332,40.206041666666664L195.4110717013889,37.89520833333333L195.56278506944446,40.083124999999995L195.77404947916668,39.640625L195.778303125,39.11822916666668L195.93568802083334,40.021666666666675L196.36530625,38.70645833333333L196.7098515625,39.77583333333334L197.2911831597222,40.156875000000014L197.30110833333333,41.0234375L197.31812291666668,37.13927083333334L197.39043489583332,39.136666666666684L197.57901319444446,39.62833333333333L197.85975381944445,39.07828125L197.97743802083335,40.021666666666675L198.09512222222222,40.83291666666668L198.35317673611112,39.597604166666656L198.5885451388889,39.26572916666666L199.29606822916668,40.82062500000001L199.4818107638889,39.93562499999999L199.49031805555558,39.732812499999994L199.64628506944445,38.87239583333334L199.74837256944446,40.98656249999999L199.9738157986111,40.16302083333335L200.03194895833332,40.29822916666666L200.0815748263889,40.29822916666666L200.18649809027778,39.075208333333336L200.19642326388887,42.12354166666668L200.3112717013889,39.48697916666666L200.66432430555554,39.45625000000001L200.84155954861112,40.132291666666674L201.61430520833335,38.214791666666656L201.6766920138889,39.36406249999999L201.699378125,40.605520833333344L201.83265902777777,39.41322916666667L201.92056770833335,39.148958333333354L202.04959496527778,39.708229166666655L202.21123350694447,40.519479166666684L202.93860694444444,40.482604166666675L203.07472361111112,38.214791666666656L203.332778125,41.539687500000014L203.34979270833333,40.52562500000002L203.63478697916668,38.48520833333333L204.03746545138887,40.120000000000005L204.0403012152778,39.523854166666666L204.1111953125,40.72843750000001L204.37492135416664,39.01989583333335L204.5379777777778,38.57124999999999L204.7180487847222,39.757395833333334L205.60564288194445,38.614270833333336L205.96011336805557,39.2903125L206.2394361111111,40.580937500000005L206.4492826388889,39.03833333333333L206.5329376736111,39.08135416666667L206.53860920138888,39.35791666666668L206.65203975694445,40.24291666666667L206.70166562499998,39.732812499999994L206.70875503472223,39.861875L206.7371126736111,39.757395833333334L206.76830607638888,40.556354166666665L206.94270555555556,39.95406249999999L207.04762881944444,39.22885416666668L207.4829185763889,39.161249999999995L207.59918489583333,40.070833333333326L207.6686611111111,39.34562500000001L207.9579090277778,38.8478125L208.181934375,38.99531250000001L209.08228940972222,38.47291666666666L209.25385312499998,40.94354166666665L209.34176180555556,38.12875L210.1442829861111,39.32718750000001L210.33002552083335,39.20427083333334L210.67457083333335,39.56687499999998L210.90426770833335,39.61604166666666L210.96523663194446,40.22447916666667L211.15381493055554,41.539687500000014L211.21620173611112,40.107708333333335L211.38351180555557,39.24114583333335L211.41612309027778,40.605520833333344L212.21864427083332,39.91104166666668L212.2852847222222,40.66083333333333L212.44975902777776,39.67749999999998L212.55042864583334,39.646770833333335L212.71348506944443,40.75916666666666L213.33877100694446,39.56687499999998L213.362875,39.22885416666668L213.36429288194444,38.12875L213.41533663194443,38.90927083333332L214.00375763888889,40.458020833333336L214.8658298611111,40.07697916666666L215.00903593750002,40.80833333333334L215.63715763888888,39.31489583333334L215.64566493055557,39.78812499999998L215.75342395833334,39.46239583333332L216.55310937500002,39.646770833333335L216.98414548611112,38.688020833333326L217.18548472222224,38.638854166666675L217.2095887152778,39.84958333333333L217.25354305555555,39.075208333333336L217.28757222222222,39.30260416666667L217.92136545138888,40.408854166666686L218.0461390625,39.198125000000005L218.31979027777777,39.050625L218.37792343750002,39.59145833333332L219.24708506944444,39.25958333333335L219.65401718750002,38.54052083333332L219.66110659722221,38.761770833333344L219.92057899305556,37.69854166666667L220.48206024305554,38.98916666666668L221.07898854166666,38.54052083333332L221.53271076388887,39.861875L221.57524722222223,40.01552083333334L221.60218697916665,42.17885416666667L221.61494791666667,39.16739583333333L221.82479444444445,40.30437499999999L222.03038732638888,40.64239583333335L223.54468524305554,38.93385416666666L223.57020711805555,40.26750000000001L223.9005736111111,40.32895833333333L224.02676510416669,40.593229166666674L224.12176319444444,40.08927083333333L224.34153489583332,40.931250000000006L224.4875767361111,38.38072916666667L224.6052609375,39.419375L225.03062552083335,40.59937500000001L225.15539913194445,39.62833333333333L225.1851746527778,38.86010416666667L225.98769583333333,38.835520833333334L226.01463559027778,40.63625000000002L226.1110515625,38.349999999999994L226.12664826388888,40.13843750000001L226.18478142361113,39.757395833333334L226.53074461805556,39.62833333333333L226.6725328125,38.601979166666666L226.99580989583333,39.36406249999999L227.1801345486111,39.30260416666667L227.36020555555555,40.968124999999986L227.425428125,40.52562500000002L228.0152670138889,40.71614583333334L228.33287256944445,39.24114583333335L228.51861510416666,40.218333333333334L228.76958020833334,39.40708333333333L228.93830815972223,38.75562500000001L229.0744248263889,38.02427083333333L229.57777291666665,37.69854166666667L229.65150277777778,39.97864583333333L229.92090034722222,40.35354166666667L230.0598527777778,38.46062499999999L230.3732046875,38.98302083333334L230.56036510416666,39.173541666666665L230.71633211805556,41.539687500000014L231.04386284722221,38.09802083333332L231.2239338541667,39.0690625L231.24520208333334,39.53L231.304753125,39.39479166666666L231.35154322916665,39.46239583333332L231.76272899305556,38.638854166666675L231.99384375,39.47468749999999L232.3993579861111,38.65729166666665L232.5269673611111,40.666979166666664L232.64890520833333,39.08135416666667L233.15367118055556,39.35177083333335L233.54217083333333,40.445729166666666L233.63575104166665,38.362291666666664L233.9108201388889,37.68625L234.0682050347222,39.34562500000001L234.20573958333333,39.41322916666667L234.39148211805554,39.30875L234.4155861111111,37.292916666666656L234.59140347222223,39.94791666666666L235.08340850694444,37.78458333333333L235.16280989583333,37.12083333333334L235.37691006944445,38.835520833333334L235.50451944444444,39.39479166666666L235.7101123263889,37.98739583333332L236.1921921875,38.39302083333334L237.11523333333335,36.69677083333332L237.2641109375,38.614270833333336L237.42716736111112,39.81270833333332L237.90641145833334,39.136666666666684L238.1800626736111,38.251666666666665L238.4097595486111,38.774062500000014L238.80676649305556,38.33156249999999L239.11586475694443,37.692395833333336L239.4235451388889,39.136666666666684L239.61354131944444,38.01197916666666L240.71381770833335,37.040937499999984L241.31074600694444,37.231458333333336L241.4043262152778,36.24197916666668L241.41850503472224,37.4465625L241.48939913194442,38.810937499999994L242.26072690972222,37.98739583333332L242.63362986111113,38.165625000000006L242.66765902777777,38.17177083333334L242.68892725694445,39.43781250000001L242.7229564236111,38.17791666666665L242.76407500000002,39.10593750000001L242.88317708333332,38.38072916666667L242.94839965277777,38.84166666666667L243.7055486111111,37.766145833333354L245.2949942708333,37.766145833333354L245.31626250000002,38.57124999999999L245.40417118055555,39.10593750000001L245.93020538194446,38.90927083333332L246.7681736111111,38.675729166666656L246.86458958333336,38.40531249999998L247.03189965277778,40.59937500000001L247.04324270833334,37.87062500000002L247.04466059027777,38.436041666666654L247.0489142361111,39.124375000000015L247.05175,37.93822916666667L247.05316788194443,38.89697916666668L247.05600364583333,38.614270833333336L247.08294340277777,39.45010416666668L247.0900328125,38.38072916666667L247.09428645833333,37.97510416666668L247.09854010416666,38.07958333333332L247.11130104166665,38.87239583333334L247.1127189236111,37.9075L247.12122621527777,38.31927083333332L247.12406197916667,37.403541666666655L247.1254798611111,37.12083333333334L247.13398715277776,38.46677083333333L247.1382407986111,38.18406249999998L247.13965868055556,37.67395833333333L247.14674809027778,37.61250000000001L247.14958385416668,36.53697916666667L247.15241961805555,37.72312500000001L247.15667326388888,38.288541666666646L247.15809114583334,38.79249999999999L247.1694342013889,39.25343750000002L247.1765236111111,37.61250000000001L247.17935937500002,36.5246875L247.18077725694442,36.56770833333334L247.1821951388889,37.827604166666674L247.18786666666668,37.329791666666665L247.19779184027777,38.30697916666665L247.21197065972223,38.700312499999995L247.22331371527778,40.181458333333325L247.230403125,38.614270833333336L247.24741770833333,39.09364583333334L247.25450711805556,37.19458333333333L247.25734288194445,39.35177083333335L247.2587607638889,38.23322916666666L247.26301440972222,37.32364583333333L247.27719322916667,37.16999999999999L247.28570052083333,38.86010416666667L247.29137204861112,38.214791666666656L247.29846145833332,39.38249999999999L247.30129722222225,39.08135416666667L247.3041329861111,38.41760416666665L247.30696874999998,39.46239583333332L247.3098045138889,39.984791666666666L247.31547604166667,38.436041666666654L247.3168939236111,38.786354166666655L247.32114756944443,38.39302083333334L247.3225654513889,37.50187500000001L247.32398333333333,39.099791666666675L247.32965486111112,37.280624999999986L247.332490625,37.07781249999999L247.33674427083332,38.28239583333331L247.33816215277778,38.84166666666667L247.34099791666665,39.523854166666666L247.3480873263889,37.98739583333332L247.35092309027777,40.88822916666666L247.35234097222224,40.29822916666666L247.35375885416664,38.614270833333336L247.36226614583333,36.10062500000001L247.36510190972223,37.01635416666667L247.36935555555556,38.337708333333325L247.38211649305555,38.20864583333332L247.38637013888888,38.810937499999994L247.38920590277777,38.84166666666667L247.39204166666667,37.56333333333333L247.39487743055557,38.76791666666668L247.39771319444444,39.161249999999995L247.41047413194443,37.378958333333344L247.41614565972222,36.92416666666665L247.41898142361111,39.646770833333335L247.42323506944444,40.021666666666675L247.434578125,38.07958333333332L247.44024965277777,38.774062500000014L247.44592118055556,37.305208333333326L247.45442847222222,38.31927083333332L247.46435364583334,38.45447916666666L247.4671894097222,38.54052083333332L247.47427881944446,38.52822916666668L247.48420399305556,38.44833333333332L247.4884576388889,37.07166666666666L247.48987552083332,39.45010416666668L247.49696493055555,38.51593750000001L247.4983828125,37.391250000000014L247.49980069444445,37.391250000000014L247.50263645833334,37.618645833333346L247.50689010416667,37.305208333333326L247.51397951388887,38.35614583333333L247.5182331597222,37.63708333333335L247.51965104166666,38.47291666666666L247.52248680555553,36.59843749999999L247.53099409722222,37.51416666666668L247.54517291666667,37.61250000000001L247.5550980902778,38.423749999999984L247.55935173611113,38.55281249999999L247.56076961805556,38.55281249999999L247.57069479166665,36.72749999999999L247.57211267361112,39.14281250000002L247.57353055555558,38.42989583333332L247.57494843749998,37.62479166666668L247.58203784722224,37.36052083333334L247.58629149305557,38.71875L247.62032065972224,40.66083333333333L247.62457430555557,34.9021875L247.62741006944444,37.219166666666666L247.6344994791667,41.588854166666664L247.63875312500002,37.73541666666668L247.64017100694443,37.65552083333333L247.64300677083335,37.692395833333336L247.64442465277776,40.666979166666664L247.65434982638888,37.05937499999999L247.65718559027778,37.87062500000002L247.66002135416667,37.796875L247.67278229166666,37.67395833333333L247.6798717013889,39.14281250000002L247.68128958333335,38.2578125L247.689796875,38.96458333333334L247.69263263888888,37.317499999999995L247.69546840277778,38.362291666666664L247.69830416666667,37.91979166666667L247.70397569444444,37.256041666666675L247.70822934027777,37.440416666666664L247.71390086805556,39.24729166666668L247.72666180555555,37.766145833333354L247.7280796875,37.15770833333332L247.72949756944445,38.24552083333333L247.73800486111114,37.14541666666668L247.74934791666666,39.185833333333335L247.75501944444446,37.815312500000005L247.75785520833332,38.374583333333334L247.7592730902778,38.23322916666666L247.76069097222222,36.22968750000001L247.76636249999999,38.239374999999995L247.7734519097222,38.68187499999999L247.78337708333333,40.083124999999995L247.78904861111113,40.4334375L247.79472013888886,40.79604166666667L247.79613802083333,37.37281250000001L247.80039166666666,39.03218750000002L247.80606319444445,37.741562500000015L247.80889895833332,38.749479166666674L247.81740625,38.87239583333334L247.82165989583333,36.48166666666668L247.82449565972223,38.9584375L247.8273314236111,38.97687500000001L247.8301671875,37.14541666666668L247.83442083333333,37.82145833333334L247.83725659722222,37.680104166666666L247.84151024305555,35.55364583333332L247.84718177083332,37.76000000000002L247.85001753472224,38.018125L247.8585248263889,37.452708333333334L247.8656142361111,36.69062500000001L247.86703211805556,36.905729166666646L247.87270364583333,38.214791666666656L247.88262881944445,36.77666666666667L247.893971875,39.35791666666668L247.89822552083334,38.202499999999986L247.90247916666667,38.86625000000001L247.9038970486111,37.9075L247.90815069444443,39.671354166666646L247.91524010416668,36.856562499999995L247.92374739583335,41.63187500000001L247.92516527777778,39.00760416666668L247.93083680555554,38.411458333333314L247.93367256944444,39.41322916666667L247.9421798611111,37.618645833333346L247.94359774305556,38.40531249999998L247.94643350694443,37.354375000000005L247.95210503472222,40.32895833333333L247.96203020833335,38.64500000000001L247.9705375,38.227083333333326L247.97479114583334,37.9075L247.9832984375,39.271874999999994L247.99464149305555,38.614270833333336L247.99889513888888,38.53437499999998L248.00173090277778,38.17177083333334L248.0031487847222,38.17791666666665L248.01023819444444,37.790729166666665L248.01165607638887,40.92510416666667L248.0159097222222,37.3359375L248.01874548611113,37.65552083333333L248.02016336805553,37.02249999999998L248.02299913194446,37.95666666666668L248.03008854166666,37.766145833333354L248.0442673611111,40.6915625L248.05277465277777,38.69416666666666L248.05561041666667,38.22093749999999L248.05702829861113,37.54489583333333L248.0626998263889,38.08572916666665L248.06411770833333,38.626562500000006L248.06978923611112,37.13927083333334L248.072625,37.9259375L248.08113229166665,37.901354166666664L248.0825501736111,39.419375L248.08680381944444,38.62041666666667L248.09247534722223,37.040937499999984L248.10948993055555,38.608125L248.11657934027778,38.84166666666667L248.11799722222224,39.161249999999995L248.1208329861111,38.04885416666667L248.1265045138889,38.75562500000001L248.1335939236111,38.325416666666655L248.13501180555556,38.227083333333326L248.14351909722222,40.169166666666655L248.1449369791667,37.0040625L248.14777274305555,38.45447916666666L248.1647873263889,38.263958333333335L248.17045885416667,39.24114583333335L248.17329461805556,37.68625L248.17613038194443,36.47552083333335L248.18038402777776,37.32364583333333L248.1846376736111,37.97510416666668L248.1973986111111,38.239374999999995L248.20590590277777,39.671354166666646L248.20874166666667,37.643229166666686L248.22433836805556,39.88645833333334L248.22575625000002,36.88729166666667L248.23426354166668,38.374583333333334L248.2441887152778,37.77229166666669L248.27821788194444,38.80479166666666L248.27963576388888,38.29468749999998L248.28247152777777,37.83375000000001L248.28672517361113,38.8478125L248.2895609375,37.630937500000016L248.31933645833334,38.08572916666665L248.32359010416667,39.284166666666664L248.32926163194443,38.92770833333333L248.3306795138889,38.06114583333334L248.33209739583333,37.32364583333333L248.33493315972223,36.49395833333335L248.3406046875,37.12083333333334L248.34485833333332,38.55895833333332L248.34769409722225,38.12260416666666L248.3505298611111,40.79604166666667L248.36045503472224,38.436041666666654L248.36470868055557,39.794270833333314L248.3661265625,37.06552083333332L248.37038020833333,36.97333333333333L248.37746961805556,37.71083333333334L248.3888126736111,38.19020833333332L248.3944842013889,36.72749999999999L248.39731996527777,37.741562500000015L248.40015572916664,39.013750000000016L248.4015736111111,39.136666666666684L248.41008090277776,38.87239583333334L248.41575243055556,37.87062500000002L248.41858819444442,37.42197916666666L248.42142395833335,39.55458333333334L248.42567760416668,37.89520833333333L248.43843854166667,38.50979166666667L248.44127430555557,37.96895833333335L248.4426921875,37.403541666666655L248.44836371527776,37.753854166666684" style="fill: none;" fill="none"></path></g></g></g></g></g></g><g transform="translate(74, 177)" clip-path="url(#clip_1)"><clipPath id="clip_1"><rect width="255" height="23"></rect></clipPath><g><g><line x1="0" y1="0" x2="0" y2="5" style="visibility: inherit;" fill="rgb(0, 0, 0)" stroke="rgb(204, 204, 204)" stroke-width="1px"></line><line x1="28.357638888888886" y1="0" x2="28.357638888888886" y2="5" style="visibility: inherit;" fill="rgb(0, 0, 0)" stroke="rgb(204, 204, 204)" stroke-width="1px"></line><line x1="56.71527777777777" y1="0" x2="56.71527777777777" y2="5" style="visibility: inherit;" fill="rgb(0, 0, 0)" stroke="rgb(204, 204, 204)" stroke-width="1px"></line><line x1="85.07291666666666" y1="0" x2="85.07291666666666" y2="5" style="visibility: inherit;" fill="rgb(0, 0, 0)" stroke="rgb(204, 204, 204)" stroke-width="1px"></line><line x1="113.43055555555554" y1="0" x2="113.43055555555554" y2="5" style="visibility: inherit;" fill="rgb(0, 0, 0)" stroke="rgb(204, 204, 204)" stroke-width="1px"></line><line x1="141.78819444444446" y1="0" x2="141.78819444444446" y2="5" style="visibility: inherit;" fill="rgb(0, 0, 0)" stroke="rgb(204, 204, 204)" stroke-width="1px"></line><line x1="170.14583333333331" y1="0" x2="170.14583333333331" y2="5" style="visibility: inherit;" fill="rgb(0, 0, 0)" stroke="rgb(204, 204, 204)" stroke-width="1px"></line><line x1="198.50347222222223" y1="0" x2="198.50347222222223" y2="5" style="visibility: inherit;" fill="rgb(0, 0, 0)" stroke="rgb(204, 204, 204)" stroke-width="1px"></line><line x1="226.8611111111111" y1="0" x2="226.8611111111111" y2="5" style="visibility: inherit;" fill="rgb(0, 0, 0)" stroke="rgb(204, 204, 204)" stroke-width="1px"></line><line x1="255.21875" y1="0" x2="255.21875" y2="5" style="visibility: inherit;" fill="rgb(0, 0, 0)" stroke="rgb(204, 204, 204)" stroke-width="1px"></line></g><g transform="translate(0, 8)"><text x="0" y="0" dx="0em" dy="0.95em" style="text-anchor: middle; visibility: hidden; font-family: &quot;Helvetica Neue&quot;, sans-serif; font-size: 12px; font-weight: 200;" fill="rgb(50, 49, 63)" stroke="none" stroke-width="1px">-20k</text><text x="28.357638888888886" y="0" dx="0em" dy="0.95em" style="text-anchor: middle; visibility: inherit; font-family: &quot;Helvetica Neue&quot;, sans-serif; font-size: 12px; font-weight: 200;" fill="rgb(50, 49, 63)" stroke="none" stroke-width="1px">0</text><text x="56.71527777777777" y="0" dx="0em" dy="0.95em" style="text-anchor: middle; visibility: hidden; font-family: &quot;Helvetica Neue&quot;, sans-serif; font-size: 12px; font-weight: 200;" fill="rgb(50, 49, 63)" stroke="none" stroke-width="1px">20k</text><text x="85.07291666666666" y="0" dx="0em" dy="0.95em" style="text-anchor: middle; visibility: inherit; font-family: &quot;Helvetica Neue&quot;, sans-serif; font-size: 12px; font-weight: 200;" fill="rgb(50, 49, 63)" stroke="none" stroke-width="1px">40k</text><text x="113.43055555555554" y="0" dx="0em" dy="0.95em" style="text-anchor: middle; visibility: hidden; font-family: &quot;Helvetica Neue&quot;, sans-serif; font-size: 12px; font-weight: 200;" fill="rgb(50, 49, 63)" stroke="none" stroke-width="1px">60k</text><text x="141.78819444444446" y="0" dx="0em" dy="0.95em" style="text-anchor: middle; visibility: inherit; font-family: &quot;Helvetica Neue&quot;, sans-serif; font-size: 12px; font-weight: 200;" fill="rgb(50, 49, 63)" stroke="none" stroke-width="1px">80k</text><text x="170.14583333333331" y="0" dx="0em" dy="0.95em" style="text-anchor: middle; visibility: hidden; font-family: &quot;Helvetica Neue&quot;, sans-serif; font-size: 12px; font-weight: 200;" fill="rgb(50, 49, 63)" stroke="none" stroke-width="1px">100k</text><text x="198.50347222222223" y="0" dx="0em" dy="0.95em" style="text-anchor: middle; visibility: inherit; font-family: &quot;Helvetica Neue&quot;, sans-serif; font-size: 12px; font-weight: 200;" fill="rgb(50, 49, 63)" stroke="none" stroke-width="1px">120k</text><text x="226.8611111111111" y="0" dx="0em" dy="0.95em" style="text-anchor: middle; visibility: hidden; font-family: &quot;Helvetica Neue&quot;, sans-serif; font-size: 12px; font-weight: 200;" fill="rgb(50, 49, 63)" stroke="none" stroke-width="1px">140k</text><text x="255.21875" y="0" dx="0em" dy="0.95em" style="text-anchor: middle; visibility: hidden; font-family: &quot;Helvetica Neue&quot;, sans-serif; font-size: 12px; font-weight: 200;" fill="rgb(50, 49, 63)" stroke="none" stroke-width="1px">160k</text></g><line x1="0" y1="0" x2="255.21875" y2="0" fill="rgb(0, 0, 0)" stroke="rgb(204, 204, 204)" stroke-width="1px"></line></g></g></g></g></svg>