<svg viewBox="0 0 330 200" xmlns="http://www.w3.org/2000/svg"><g><g><g><g><g><line x1="74.78125" y1="177" x2="69.78125" y2="177" style="visibility: inherit;" fill="rgb(0, 0, 0)" stroke="rgb(204, 204, 204)" stroke-width="1px"></line><line x1="74.78125" y1="159.3" x2="69.78125" y2="159.3" style="visibility: inherit;" fill="rgb(0, 0, 0)" stroke="rgb(204, 204, 204)" stroke-width="1px"></line><line x1="74.78125" y1="141.6" x2="69.78125" y2="141.6" style="visibility: inherit;" fill="rgb(0, 0, 0)" stroke="rgb(204, 204, 204)" stroke-width="1px"></line><line x1="74.78125" y1="123.9" x2="69.78125" y2="123.9" style="visibility: inherit;" fill="rgb(0, 0, 0)" stroke="rgb(204, 204, 204)" stroke-width="1px"></line><line x1="74.78125" y1="106.2" x2="69.78125" y2="106.2" style="visibility: inherit;" fill="rgb(0, 0, 0)" stroke="rgb(204, 204, 204)" stroke-width="1px"></line><line x1="74.78125" y1="88.5" x2="69.78125" y2="88.5" style="visibility: inherit;" fill="rgb(0, 0, 0)" stroke="rgb(204, 204, 204)" stroke-width="1px"></line><line x1="74.78125" y1="70.8" x2="69.78125" y2="70.8" style="visibility: inherit;" fill="rgb(0, 0, 0)" stroke="rgb(204, 204, 204)" stroke-width="1px"></line><line x1="74.78125" y1="53.10000000000001" x2="69.78125" y2="53.10000000000001" style="visibility: inherit;" fill="rgb(0, 0, 0)" stroke="rgb(204, 204, 204)" stroke-width="1px"></line><line x1="74.78125" y1="35.400000000000006" x2="69.78125" y2="35.400000000000006" style="visibility: inherit;" fill="rgb(0, 0, 0)" stroke="rgb(204, 204, 204)" stroke-width="1px"></line><line x1="74.78125" y1="17.69999999999999" x2="69.78125" y2="17.69999999999999" style="visibility: inherit;" fill="rgb(0, 0, 0)" stroke="rgb(204, 204, 204)" stroke-width="1px"></line><line x1="74.78125" y1="0" x2="69.78125" y2="0" style="visibility: inherit;" fill="rgb(0, 0, 0)" stroke="rgb(204, 204, 204)" stroke-width="1px"></line></g><g transform="translate(64.78125, 0)"><text x="0" y="177" dx="0em" dy="0.3em" style="text-anchor: end; visibility: hidden; font-family: &quot;Helvetica Neue&quot;, sans-serif; font-size: 12px; font-weight: 200;" fill="rgb(50, 49, 63)" stroke="none" stroke-width="1px">-5e+4</text><text x="0" y="159.3" dx="0em" dy="0.3em" style="text-anchor: end; visibility: inherit; font-family: &quot;Helvetica Neue&quot;, sans-serif; font-size: 12px; font-weight: 200;" fill="rgb(50, 49, 63)" stroke="none" stroke-width="1px">0</text><text x="0" y="141.6" dx="0em" dy="0.3em" style="text-anchor: end; visibility: hidden; font-family: &quot;Helvetica Neue&quot;, sans-serif; font-size: 12px; font-weight: 200;" fill="rgb(50, 49, 63)" stroke="none" stroke-width="1px">5e+4</text><text x="0" y="123.9" dx="0em" dy="0.3em" style="text-anchor: end; visibility: inherit; font-family: &quot;Helvetica Neue&quot;, sans-serif; font-size: 12px; font-weight: 200;" fill="rgb(50, 49, 63)" stroke="none" stroke-width="1px">1e+5</text><text x="0" y="106.2" dx="0em" dy="0.3em" style="text-anchor: end; visibility: hidden; font-family: &quot;Helvetica Neue&quot;, sans-serif; font-size: 12px; font-weight: 200;" fill="rgb(50, 49, 63)" stroke="none" stroke-width="1px">1.5e+5</text><text x="0" y="88.5" dx="0em" dy="0.3em" style="text-anchor: end; visibility: inherit; font-family: &quot;Helvetica Neue&quot;, sans-serif; font-size: 12px; font-weight: 200;" fill="rgb(50, 49, 63)" stroke="none" stroke-width="1px">2e+5</text><text x="0" y="70.8" dx="0em" dy="0.3em" style="text-anchor: end; visibility: hidden; font-family: &quot;Helvetica Neue&quot;, sans-serif; font-size: 12px; font-weight: 200;" fill="rgb(50, 49, 63)" stroke="none" stroke-width="1px">2.5e+5</text><text x="0" y="53.10000000000001" dx="0em" dy="0.3em" style="text-anchor: end; visibility: inherit; font-family: &quot;Helvetica Neue&quot;, sans-serif; font-size: 12px; font-weight: 200;" fill="rgb(50, 49, 63)" stroke="none" stroke-width="1px">3e+5</text><text x="0" y="35.400000000000006" dx="0em" dy="0.3em" style="text-anchor: end; visibility: hidden; font-family: &quot;Helvetica Neue&quot;, sans-serif; font-size: 12px; font-weight: 200;" fill="rgb(50, 49, 63)" stroke="none" stroke-width="1px">3.5e+5</text><text x="0" y="17.69999999999999" dx="0em" dy="0.3em" style="text-anchor: end; visibility: inherit; font-family: &quot;Helvetica Neue&quot;, sans-serif; font-size: 12px; font-weight: 200;" fill="rgb(50, 49, 63)" stroke="none" stroke-width="1px">4e+5</text><text x="0" y="0" dx="0em" dy="0.3em" style="text-anchor: end; visibility: hidden; font-family: &quot;Helvetica Neue&quot;, sans-serif; font-size: 12px; font-weight: 200;" fill="rgb(50, 49, 63)" stroke="none" stroke-width="1px">4.5e+5</text></g><line x1="74.78125" y1="0" x2="74.78125" y2="177" fill="rgb(0, 0, 0)" stroke="rgb(204, 204, 204)" stroke-width="1px"></line></g></g><g transform="translate(74, 0)" clip-path="url(#clip_0)"><clipPath id="clip_0"><rect width="255" height="177"></rect></clipPath><g><g><g><line x1="0" y1="0" x2="0" y2="177" fill="rgb(0, 0, 0)" stroke="rgb(60, 60, 60)" stroke-width="1px" opacity="0.25"></line><line x1="28.357638888888886" y1="0" x2="28.357638888888886" y2="177" fill="rgb(0, 0, 0)" stroke="rgb(60, 60, 60)" stroke-width="1px" opacity="0.25"></line><line x1="56.71527777777777" y1="0" x2="56.71527777777777" y2="177" fill="rgb(0, 0, 0)" stroke="rgb(60, 60, 60)" stroke-width="1px" opacity="0.25"></line><line x1="85.07291666666666" y1="0" x2="85.07291666666666" y2="177" fill="rgb(0, 0, 0)" stroke="rgb(60, 60, 60)" stroke-width="1px" opacity="0.25"></line><line x1="113.43055555555554" y1="0" x2="113.43055555555554" y2="177" fill="rgb(0, 0, 0)" stroke="rgb(60, 60, 60)" stroke-width="1px" opacity="0.25"></line><line x1="141.78819444444446" y1="0" x2="141.78819444444446" y2="177" fill="rgb(0, 0, 0)" stroke="rgb(60, 60, 60)" stroke-width="1px" opacity="0.25"></line><line x1="170.14583333333331" y1="0" x2="170.14583333333331" y2="177" fill="rgb(0, 0, 0)" stroke="rgb(60, 60, 60)" stroke-width="1px" opacity="0.25"></line><line x1="198.50347222222223" y1="0" x2="198.50347222222223" y2="177" fill="rgb(0, 0, 0)" stroke="rgb(60, 60, 60)" stroke-width="1px" opacity="0.25"></line><line x1="226.8611111111111" y1="0" x2="226.8611111111111" y2="177" fill="rgb(0, 0, 0)" stroke="rgb(60, 60, 60)" stroke-width="1px" opacity="0.25"></line><line x1="255.21875" y1="0" x2="255.21875" y2="177" fill="rgb(0, 0, 0)" stroke="rgb(60, 60, 60)" stroke-width="1px" opacity="0.25"></line></g><g><line x1="0" y1="177" x2="255.21875" y2="177" fill="rgb(0, 0, 0)" stroke="rgb(60, 60, 60)" stroke-width="1px" opacity="0.25"></line><line x1="0" y1="159.3" x2="255.21875" y2="159.3" fill="rgb(0, 0, 0)" stroke="rgb(60, 60, 60)" stroke-width="1px" opacity="0.25"></line><line x1="0" y1="141.6" x2="255.21875" y2="141.6" fill="rgb(0, 0, 0)" stroke="rgb(60, 60, 60)" stroke-width="1px" opacity="0.25"></line><line x1="0" y1="123.9" x2="255.21875" y2="123.9" fill="rgb(0, 0, 0)" stroke="rgb(60, 60, 60)" stroke-width="1px" opacity="0.25"></line><line x1="0" y1="106.2" x2="255.21875" y2="106.2" fill="rgb(0, 0, 0)" stroke="rgb(60, 60, 60)" stroke-width="1px" opacity="0.25"></line><line x1="0" y1="88.5" x2="255.21875" y2="88.5" fill="rgb(0, 0, 0)" stroke="rgb(60, 60, 60)" stroke-width="1px" opacity="0.25"></line><line x1="0" y1="70.8" x2="255.21875" y2="70.8" fill="rgb(0, 0, 0)" stroke="rgb(60, 60, 60)" stroke-width="1px" opacity="0.25"></line><line x1="0" y1="53.10000000000001" x2="255.21875" y2="53.10000000000001" fill="rgb(0, 0, 0)" stroke="rgb(60, 60, 60)" stroke-width="1px" opacity="0.25"></line><line x1="0" y1="35.400000000000006" x2="255.21875" y2="35.400000000000006" fill="rgb(0, 0, 0)" stroke="rgb(60, 60, 60)" stroke-width="1px" opacity="0.25"></line><line x1="0" y1="17.69999999999999" x2="255.21875" y2="17.69999999999999" fill="rgb(0, 0, 0)" stroke="rgb(60, 60, 60)" stroke-width="1px" opacity="0.25"></line><line x1="0" y1="0" x2="255.21875" y2="0" fill="rgb(0, 0, 0)" stroke="rgb(60, 60, 60)" stroke-width="1px" opacity="0.25"></line></g></g></g><g><g><line x1="0" y1="159.3" x2="255.21875" y2="159.3" fill="rgb(0, 0, 0)" stroke="rgb(153, 153, 153)" stroke-width="1.5px"></line></g></g><g><g><line x1="28.357638888888886" y1="0" x2="28.357638888888886" y2="177" fill="rgb(0, 0, 0)" stroke="rgb(153, 153, 153)" stroke-width="1.5px"></line></g></g><g><g><g><g><g><path stroke="rgb(255, 112, 67)" stroke-width="2px" d="M28.981506944444448,159.00972000000002L29.32038072916667,159.01699983261108L29.602539236111113,159.0473761935238L29.613882291666666,159.0526433380441L29.652165104166667,159.0548501006898L29.749998958333332,159.03377949000162L29.75283472222222,159.051228411304L29.79962482638889,159.0475731524702L29.836489756944445,159.05748881855052L29.913055381944442,159.0504633105701L29.931487847222222,159.04361062500055L29.95559184027778,159.0386280289733L30.032157465277777,159.03308699725773L30.05767934027778,159.02745278314984L30.183870833333334,159.00946571263944L30.20230329861111,159.00354775806363L30.21506423611111,159.00382418326836L30.229243055555557,159.0350538112305L30.232078819444443,159.0326196384096L30.23775034722222,159.03292929436728L30.27886892361111,159.02337986713505L30.290211979166667,159.02915549630086L30.458939930555555,159.03616085310392L30.60781753472222,159.0217789437154L30.748187847222223,159.04125581037206L30.9197515625,159.02142442431835L31.114001388888887,159.02886716220857L31.519515625,159.00678278376324L31.7492125,158.99308966521264L31.76480920138889,158.9888562981917L31.82294236111111,158.97856538878045L31.82861388888889,158.98014173339374L31.84137482638889,158.9704675395743L31.903761631944448,158.9699730237304L31.93070138888889,158.9679063142027L31.93637291666667,158.9719762885636L31.990252430555557,158.95494827303278L32.00017760416667,158.95446646381788L32.06256440972222,158.96214237830782L32.09942934027778,158.95347292697312L32.117861805555556,158.95358125618395L32.132040625,158.95099125370913L32.22845659722222,158.9379322522217L32.239799652777776,158.96018685133689L32.34330503472222,158.95274211080135L32.35039444444445,158.93455776647968L32.37875208333333,158.92939965988762L32.489346875,158.90329479593197L32.51345086805556,158.9177218775594L32.8338921875,158.88212812653535L32.840981597222225,158.87360437592116L32.86508559027778,158.8693751255527L32.87359288194445,158.8588725753316L32.923218750000004,158.86938604519895L32.971426736111106,158.86109162711938L33.00262013888889,158.88000997627162L33.02955989583334,158.87012098576298L33.032395659722226,158.88277259145778L33.15149774305556,158.87133605487466L33.167094444444444,158.8565091329248L33.17418385416667,158.86000297975488L33.18978055555555,158.85767428785292L33.23515277777778,158.86070207271175L33.280525,158.83021624362706L33.29612170138889,158.83537724617622L33.315972048611115,158.83980134770573L33.33724027777778,158.84289830862343L33.357090625000005,158.84387148517408L33.362762152777776,158.85330539110444L33.413805902777774,158.85100073466265L33.4719390625,158.8394404407976L33.50029670138889,158.84976176447856L33.54283315972222,158.84887455868713L33.54708680555556,158.8430322352123L33.7782015625,158.84527934112737L33.79379826388889,158.82361760467643L33.83066319444445,158.83141806280585L33.88170694444444,158.8352133376835L33.919989756944446,158.84280050261012L33.954018923611116,158.83983030156605L33.965361979166666,158.83583568093962L33.98521232638889,158.83476640856378L34.036256076388895,158.84164734513826L34.040509722222225,158.82232340708296L34.10856805555556,158.82134904424979L34.14117934027777,158.83315442654987L34.14401510416667,158.83669765592992L34.1865515625,158.82200859355794L34.24184895833333,158.81717765613476L34.25319201388889,158.81560659368085L34.280131770833336,158.8146639562085L34.29289270833333,158.7981683737251L34.318414583333336,158.80243102423506L34.35386163194445,158.81428111454105L34.37512986111111,158.80280616872463L34.51550017361111,158.80255870123477L34.526843229166666,158.81701272074088L34.56654392361111,158.80577263244453L34.58639427083334,158.81186107946672L34.5949015625,158.81418664768003L34.610498263888886,158.785934488608L34.67572083333333,158.78889569316482L34.72534670138889,158.77783991589888L34.77780833333333,158.77961394953934L34.81467326388889,158.7744833697236L34.844448784722225,158.78468002183416L34.929521701388886,158.79876301310048L34.98056545138889,158.7824328078603L35.04720590277778,158.77617468471618L35.093996006944444,158.7728623108297L35.2074265625,158.7748573864978L35.23720208333334,158.7738419318987L35.245709375,158.76969265913922L35.249963020833334,158.77649559548354L35.254216666666665,158.76464735729013L35.26981336805556,158.75532591437405L35.289663715277776,158.74884804862444L35.35063263888889,158.72504882917468L35.35772204861111,158.7523642975048L35.43286979166667,158.72937107850288L35.43854131944445,158.77221514710172L35.462645312499994,158.77800908826103L35.54771822916667,158.77440545295661L35.55622552083334,158.77003077177397L35.57465798611111,158.75811346306438L35.66398454861111,158.75627307783864L35.689506423611114,158.7348138467032L35.734878645833334,158.73919580802192L35.74480381944444,158.75686998481314L35.75472899305555,158.7524294908879L35.80293697916667,158.75153519453272L35.83696614583333,158.75984861671964L35.87808472222222,158.78342167003177L36.01703715277778,158.76216550201906L36.07233454861111,158.74896930121145L36.100692187499995,158.75255658072686L36.167332638888894,158.74054894843613L36.2027796875,158.72405186906167L36.214122743055555,158.715481121437L36.32471753472222,158.70989617286222L36.331806944444445,158.7074302037173L36.363000347222226,158.6948881222304L36.367253993055556,158.70904537333823L36.40270104166667,158.73479722400293L36.43814809027778,158.71750333440175L36.47217725694445,158.73456200064106L36.47501302083333,158.72001720038463L36.50053489583333,158.68916532023079L36.52889253472222,158.71490419213848L36.59269722222222,158.7272500152831L36.6111296875,158.73333000916983L36.71747083333334,158.68564800550192L36.75433576388889,158.71102380330115L36.98828628472222,158.69571678198068L36.99112204861111,158.71529506918841L36.99821145833333,158.72925454151306L37.07335920138889,158.72878022490784L37.12582083333333,158.7267256349447L37.16693940972222,158.70159788096683L37.20664010416667,158.71262872858009L37.215147395833334,158.72057473714807L37.34559253472222,158.71073984228883L37.46894826388889,158.6486414053733L37.47178402777777,158.674659843224L37.47320190972222,158.64956090593438L37.58805034722222,158.67255654356063L37.606482812500005,158.6713089261364L37.67312326388889,158.69401285568182L37.71849548611111,158.6709077134091L37.72274913194445,158.68492212804546L37.728420659722225,158.69421577682726L37.75252465277778,158.65332946609635L37.76812135416667,158.67304767965783L37.770957118055556,158.66850610779468L37.91699895833334,158.6750736646768L38.00348975694445,158.6621991988061L38.04886197916667,158.64208451928366L38.08572690972222,158.6238207115702L38.179307118055554,158.6305624269421L38.26579791666667,158.61336745616526L38.27997673611111,158.63314047369917L38.3210953125,158.5640267842195L38.33952777777778,158.5579585705317L38.47989809027778,158.54369764231902L38.52385243055555,158.56965608539141L38.59758229166667,158.53434365123485L38.68123732638889,158.5551936907409L38.701087673611106,158.52035621444455L38.79041423611111,158.5007812286667L38.83011493055555,158.49169123720003L38.86697986111111,158.49508724232L38.899591145833334,158.492257345392L38.9080984375,158.4330344072352L38.91235208333333,158.32935564434112L38.92653090277778,158.28086588660466L38.927948784722226,158.28628703196281L38.95205277777777,158.29219471917767L38.974738888888886,158.26210933150662L39.30085173611111,158.18166559890398L39.455400868055555,158.18251685934237L39.534802256944445,158.06089761560543L39.584428124999995,158.16227106936327L39.79994618055555,157.97972014161795L40.22531076388889,157.87948208497076L40.456425520833335,157.66092425098248L40.48620104166666,157.41296955058948L40.68754027777778,157.3597767303537L40.744255555555554,157.3088335382122L40.79813506944444,157.01099762292733L40.87044704861111,156.9858435737564L40.90447621527778,157.31545864425385L41.060443229166665,157.4251701865523L41.216410243055556,157.04053211193138L41.23200694444445,156.96550926715884L41.30857256944444,156.7917280602953L41.31282621527778,156.54541683617717L41.548194618055554,156.4458626017063L41.699907986111114,156.43657506102377L41.821845833333334,156.29250003661429L42.342208506944445,156.39942752196856L42.47407152777778,155.78390401318114L42.52795104166667,155.3123724079087L42.83137777777778,155.11175844474522L42.96182291666667,155.08652756684714L43.066746180555555,154.8262440401083L43.33472586805556,154.75857392406496L43.41838090277778,154.726379354439L44.07344236111111,154.6159076126634L44.158515277777774,154.07393706759802L44.832009201388885,153.65051974055882L44.85185954861111,153.40974434433528L45.03618420138889,152.99446910660117L45.08297430555555,153.0196539639607L45.47289184027778,152.59757487837643L45.56080052083333,151.86509992702585L45.630276736111114,151.53889495621553L45.633112499999996,152.5149119737293L45.634530381944444,152.15135968423758L45.784825868055556,152.36820581054255L45.92377829861111,152.31113598632552L46.13929635416667,151.7622665917953L46.20026527777778,151.5895899550772L46.29668125,151.71077397304632L46.512199305555555,151.44629938382778L46.56182517361111,150.88228463029668L46.784432638888894,151.283735778178L46.84398368055556,151.4927464669068L46.92622083333334,151.9814453801441L46.97442881944445,151.76667472808646L47.15875347222222,151.24752733685187L47.45650868055555,150.46123640211113L47.84784409722222,150.15230184126668L47.989632291666666,149.45939360476L48.244851041666664,149.035241162856L48.675887152777776,148.0510671977136L49.49258715277778,147.23311781862816L49.597510416666665,146.9874931911769L50.01720347222222,146.59718591470613L50.06257569444445,146.87364654882367L50.119290972222224,146.27222792929422L50.190185069444446,146.84106925757652L50.366002430555554,146.61685905454593L50.56875954861111,146.81907543272754L50.61129600694445,146.28860275963652L50.70345833333333,146.71194915578192L50.723308680555554,146.80886949346916L50.82397829861111,146.6493116960815L51.08628645833333,146.0805445176489L51.240835590277776,146.00522671058934L51.29329722222222,144.7834285263536L51.37695225694444,144.99862711581216L51.439339062500004,145.3706787694873L51.50597951388889,145.7567497616924L51.85761423611111,145.66271235701544L51.94835868055556,144.81111741420926L52.355290798611115,144.25458294852555L52.38931996527778,144.59370476911533L52.45028888888889,144.11307286146922L52.46446770833334,144.10877871688152L52.69274670138889,144.00885223012892L53.05288871527778,143.70419383807734L53.14505104166666,143.5740563028464L53.49668576388889,144.22963878170785L53.846902604166665,143.6039107690247L54.18719427083333,143.87496646141483L54.26943142361111,143.5663373768489L54.336071875,143.73958492610933L54.43248784722223,143.2656284556656L54.489203124999996,142.81664457339934L54.55726145833333,142.01182924403963L55.053520138888885,142.06613504642377L55.26620243055556,142.45802852785425L55.44201979166667,142.62546211671255L55.658955729166664,142.95557977002753L55.75820746527778,142.19431036201652L56.133946180555554,142.20084621720991L56.204840277777784,142.73045773032595L56.363643055555556,142.1393296381956L56.479909375,141.69526778291734L56.90669184027777,142.5151681697504L56.971914409722224,142.35619090185025L56.98609322916667,142.23779454111013L57.22571527777777,142.2703017246661L57.283848437500005,142.40352853479965L57.462501562499995,142.3369971208798L57.496530729166665,141.90900577252788L58.134577604166665,141.44512096351673L58.534420312499996,141.69823257811004L59.05194722222222,141.59167954686603L59.3511203125,141.34455272811962L59.39507465277778,141.20689663687176L59.45746145833333,141.69822548212306L59.48156545138889,141.69079528927384L59.52551979166666,141.3633121735643L59.79491736111111,141.42081730413858L59.95655590277778,141.02167038248314L60.898029513888886,140.63527222948989L61.40421336805556,139.69012333769393L61.50488298611111,139.09117400261636L61.56726979166667,138.12557940156984L62.498818229166666,138.6015851409419L62.54419045138889,138.93055358456513L62.6434421875,139.02350465073908L63.31126458333333,138.36906279044345L63.343875868055555,138.12419267426608L63.36939774305556,138.37198060455964L63.430366666666664,138.80164086273578L63.56648333333333,138.39126201764148L64.01169826388889,138.6317847105849L64.03722013888888,139.05797082635092L64.15632222222222,139.03933249581056L64.60579079861111,138.58255199748635L64.68093854166666,138.3394586984918L64.95175399305556,138.91443521909508L65.12473559027778,139.07622613145705L66.06195555555556,137.90863567887425L66.31717430555555,136.96116640732453L66.71843489583334,137.00997234439473L67.06723385416666,136.88836340663684L67.25581215277778,136.7459255439821L68.05975121527777,136.61798282638927L68.13348107638889,135.57081469583355L68.31780572916666,136.26868631750014L68.88637638888889,136.2404842905001L68.96294201388889,135.75628307430006L69.0749546875,135.34141984458003L69.15152031250001,136.282384406748L69.18554947916667,136.71642564404883L69.20823559027777,136.7100228864293L69.39823177083332,135.48930623185757L69.54852725694444,135.70913623911454L69.6080782986111,135.44057174346872L69.77397048611111,135.54670304608123L69.93419114583334,135.76038932764874L69.97672760416667,135.67089109658923L69.98098125,135.17690465795354L69.99657795138889,134.96989779477212L70.17097743055555,134.68550867686326L70.19366354166667,134.53478770611798L70.2234390625,134.87889012367077L70.60768506944444,135.50572657420247L70.78492031249999,135.9906834445215L70.8870078125,135.9334100667129L71.11528680555554,134.81270854002773L71.45132482638888,134.97174512401665L71.51087586805556,134.71316707440997L72.74726892361112,133.894712744646L73.17830503472223,133.5912601467876L73.3115859375,133.73044358807255L73.53277552083334,134.33521865284354L74.90670312499999,134.23080369170611L75.12789270833333,133.77034721502366L75.8609376736111,133.3095508290142L75.98003975694445,133.04015299740854L76.01265104166667,133.00683929844513L76.03817291666667,132.6425860790671L76.14734982638889,131.93197414744026L76.18988628472222,133.07780948846414L76.22816909722222,132.9303131930785L76.36428576388889,132.17939291584707L76.49189513888888,131.86557324950826L76.54435677083333,132.26624894970496L76.64928003472222,131.607936869823L76.70883107638889,132.70815712189378L77.3156845486111,133.16119927313628L78.54073454861111,132.48386206388176L79.36735972222223,130.96589973832906L80.49741163194444,130.81223984299743L80.76964496527778,130.93067390579847L81.2970970486111,130.26275934347908L81.34955868055556,130.22928560608744L81.46298923611111,129.84856386365246L81.52395815972221,130.21352331819148L81.59627013888888,129.8545939909149L81.75365503472221,129.69720389454892L82.08685729166666,129.58462733672937L82.23857065972223,129.4781414020376L82.39879131944444,130.2682748412226L82.52498281250001,129.46795490473355L82.55050468750001,130.04976294284012L82.8284095486111,129.7541252657041L82.9815407986111,129.36567015942245L83.16019392361112,129.34057209565347L83.19280520833334,128.8458432573921L83.27078871527779,128.81760345443524L84.57665798611112,128.33160957266114L84.78650451388889,128.1979857435967L84.89000989583333,128.166928946158L84.97791857638889,127.32922736769481L86.18595399305556,127.7620514206169L86.67654114583334,127.78854835237013L86.98705729166666,127.12609401142208L87.24369392361112,127.16713890685324L87.85054739583333,127.58824584411195L88.20076423611111,127.23291500646718L88.29576232638888,126.5024340038803L88.42478958333332,125.86502040232818L89.0330609375,125.86688349139692L89.32939826388889,125.89521509483814L89.54633420138889,125.43873905690288L89.59028854166667,126.41757093414174L89.98162395833333,125.51099006048503L90.02274253472221,124.64003403629103L90.48638993055556,124.52898542177462L90.58422378472223,125.64515875306478L90.58705954861112,124.61743275183886L90.77989149305554,125.37431715110333L91.25771770833333,124.61467029066199L91.37965555555556,124.5142096743972L91.40943107638888,124.53446830463832L91.47748940972222,124.96522848278299L91.59517361111111,124.57940458966979L92.36650138888889,124.02090275380188L92.36791927083333,124.60575915228114L92.88544618055556,124.41593799136866L92.93648993055555,124.51356029482119L93.16335104166666,123.84599117689272L93.24558819444444,123.38526970613563L93.43274861111112,123.52965432368138L94.56421840277777,124.28047759420883L94.66914166666666,123.6525990565253L94.95271805555556,123.80200443391519L95.17957916666667,122.5535276603491L95.9778467013889,122.96334909620947L96.36634635416667,120.98258195772569L96.57619288194444,121.5787241746354L97.30923784722222,120.92883700478124L97.52192013888889,120.69643470286874L97.6594546875,120.76408332172124L97.86362968750001,121.00954999303275L97.87213697916667,120.53555999581965L98.08340138888889,119.76530099749179L98.20108559027778,120.14433809849507L98.31593402777779,119.86598285909704L98.43645399305555,120.51538221545823L98.91144444444444,119.38060932927493L99.13405190972222,118.98117559756497L99.19927447916666,119.30570285853898L99.2673328125,118.78755171512339L99.28292951388889,118.51294602907404L99.50411909722222,118.34243011744442L99.79620277777778,118.34233807046665L99.85717170138889,119.07683284228L100.20880642361111,118.835194705368L100.47253246527777,118.6295893232208L100.97304479166667,118.76641609393248L101.07087864583333,118.6246071563595L101.23393506944444,118.2740217938157L101.38848420138889,118.75043057628942L101.9953376736111,118.77652834577366L102.32853993055555,118.10985200746418L103.08852465277778,118.02136620447851L103.60888732638888,117.70410222268711L104.63543385416666,117.88986883361227L104.63685173611111,116.48930630016737L104.89348836805556,116.81141628010042L105.58257899305555,117.41266726806023L106.21070069444444,116.71849786083615L106.58785729166667,116.2860662165017L106.79345017361112,116.92753722990102L106.98486423611111,117.5978323379406L106.99053576388889,116.89906940276437L107.08269809027779,117.06391164165862L107.191875,116.99156948499517L107.65126875,116.24635919099711L108.20282482638889,116.39660801459827L108.33610572916666,115.25572230875895L108.40274618055555,115.82700588525537L108.43393958333334,115.66886603115321L108.73311267361112,115.58460211869193L108.97698836805556,115.50129877121515L109.24071440972223,115.0831567627291L110.25733576388889,114.55570905763746L110.32681197916668,113.98834293458248L110.46860017361111,114.09883076074948L110.52531545138889,113.3469409564497L111.67521770833334,112.85863707386982L111.71350052083332,112.91036224432189L112.11192534722223,112.84448984659313L112.37565138888888,112.81824140795588L112.38841232638889,112.96311984477353L113.1923513888889,112.68055940686412L113.47450989583334,112.71501564411847L113.69711736111111,113.20031438647109L114.14658593749999,112.38789863188266L114.65135190972222,111.97832917912959L114.74351423611111,112.93309000747776L114.93351041666666,112.57713900448665L115.31350277777779,111.97859340269198L115.38156111111111,112.26241854161519L115.56588576388889,112.1048211249691L115.66088385416667,111.67971517498147L115.87923767361112,112.19991160498888L116.16139618055556,112.56158946299333L116.19542534722223,112.027231177796L116.40952552083334,111.4782862066776L116.46765868055556,111.04537422400655L116.86750138888888,111.10334203440392L116.88309809027778,111.32176022064236L117.16100295138888,110.79171613238542L117.17801753472223,111.06486967943125L117.25316527777778,110.40748180765877L117.81890017361111,111.07460658459526L118.52216961805556,110.64829145075716L118.64410746527778,111.2248448704543L118.99999583333333,111.18004942227259L119.08223298611111,110.79518965336356L119.49909027777777,110.88154629201814L120.14564444444444,110.55856277521089L121.00771666666667,110.20680016512652L121.47703559027778,109.8523725990759L122.62977361111112,109.28438855944556L122.99416927083332,109.11573063566733L123.04663090277778,108.9724983814004L123.117525,109.14011152884025L123.12886805555556,108.26231191730416L123.38408680555555,108.9356921503825L123.78109375,109.07554779022949L123.80236197916666,108.59040617413768L123.82504809027778,108.37321870448261L123.98526875,108.08139372268957L124.01929791666666,108.45455623361376L124.84592309027778,107.97222374016825L125.07278420138888,108.06558674410094L125.3988970486111,108.34772204646058L125.45135868055556,107.72050322787635L125.60448993055556,107.61365443672581L125.94336371527777,108.05266766203549L125.95470677083333,107.77224309722129L126.01142204861111,107.50885085833279L126.08798767361112,107.16983301499967L126.27373020833333,108.0855048089998L126.81961475694445,107.25740538539988L127.3413953125,106.81984073123994L128.46577569444443,106.06214443874397L128.5735347222222,106.31773916324639L128.66002552083333,106.19541849794784L130.76841597222224,106.2698210987687L130.8988611111111,105.93878015926121L131.54116163194445,105.86449809555673L132.40606961805557,105.02475635733403L132.42875572916668,104.90986881440043L132.54502204861112,104.36259378864025L132.62442343749998,104.42716877318415L132.74210763888888,103.59507376391049L132.98314756944447,103.72593675834631L133.02284826388887,103.64426955500778L133.11642847222222,103.95413673300467L133.62403020833332,104.6861020398028L134.5031170138889,104.14735622388169L134.73423177083333,103.20416623432902L134.78243975694446,102.99933224059741L135.0490015625,103.65478934435846L135.14967118055557,103.05465110661507L135.1992970486111,103.48974066396904L135.34675677083334,103.54193439838141L135.42615815972223,103.12278563902885L135.5722,102.30356888341731L136.2584548611111,101.72840633005039L136.75187777777776,102.16078129803024L136.80859305555555,102.26179127881814L137.0170217013889,102.67462726729089L137.49768368055555,103.24800886037454L137.5146982638889,101.63795781622473L139.1325015625,101.48258718973483L139.62876024305555,101.08580981384091L140.6609782986111,100.27293588830454L141.09201440972222,99.52811903298273L141.20119131944443,100.82069641978964L141.29193576388892,100.49663035187378L141.49611076388888,99.72605571112427L141.86476006944443,99.51991842667455L142.15259010416668,98.76832855600475L142.641759375,98.86032213360285L142.76936875,98.4703632801617L143.62009791666665,98.32577296809703L143.91643524305556,98.10671128085822L144.7132848958333,97.47082426851493L144.80828298611112,97.07601706110897L145.08051631944446,96.50062023666538L145.11879913194446,96.75187214199924L145.19252899305556,97.52477828519955L145.40095763888888,97.14201947111972L145.55408888888888,96.85262668267184L145.83199375,97.2657460096031L146.13400260416665,96.34232010576186L146.20915034722222,96.49095456345711L146.3991465277778,95.45397273807427L146.52250225694445,95.54819114284456L146.72525937499998,95.35515218570674L147.61710711805554,94.55389631142404L148.44656805555556,94.03154778685442L149.27602899305558,93.00615617211265L149.96653750000002,93.20512120326761L151.12211128472222,92.63243022196056L151.40710555555557,91.84808563317634L151.8835138888889,91.5314688799058L152.08627100694446,92.79555382794348L152.32872881944445,91.61231479676609L152.95401475694445,90.94352387805966L153.40631909722222,91.99099432683579L153.77071475694444,90.41671159610148L154.25846614583335,89.8150794576609L154.55338559027777,90.13510767459653L154.69375590277778,89.44743460475792L154.98300381944443,88.27904076285476L155.7188845486111,88.34087445771284L155.81246475694442,88.9505696746277L155.8805230902778,88.68007180477663L156.32290225694445,89.80013808286597L156.39096059027779,89.60709034971958L156.39946788194445,89.37753920983175L156.65185086805556,88.50658602589905L156.75535625,88.24022161553944L157.4515362847222,88.29103296932365L157.45295416666667,87.95380228159419L157.49123697916667,89.25021136895653L157.7053371527778,89.67361432137392L158.21293888888889,88.42935109282435L158.98001302083333,88.18857065569462L159.2465748263889,87.01263489341677L160.8799748263889,86.51106593605006L160.89840729166664,85.06935956163004L161.2245201388889,85.33979073697803L161.41735208333333,84.57102944218681L163.42365503472223,85.17442766531208L163.63633732638888,85.13954409918726L163.67603802083332,83.90970395951236L163.94401770833332,83.4594248757074L164.5622142361111,84.46498492542445L165.03011527777778,83.96428345525466L166.81948229166665,83.81918007315281L167.244846875,83.07146554389168L167.28171180555557,82.04316182633502L167.66312204861111,81.41024959580102L167.89707256944445,82.38941975748061L168.036025,82.76009685448835L168.22318541666667,82.34176311269302L168.32243715277778,81.9274803676158L168.4273604166667,81.19570072056948L168.78324878472222,80.8207954323417L169.06257152777778,80.30734225940503L169.16465902777776,80.53115535564302L169.337640625,81.0066107133858L169.94165833333335,79.95597642803148L170.01255243055556,80.34732835681889L170.50739322916667,81.39589701409135L170.64492777777778,80.15901570845482L171.14118645833332,79.53813192507289L171.18939444444445,80.51655415504374L173.84792309027776,79.84026999302623L174.11732065972222,79.21147949581575L174.51999913194445,78.99616019748944L175.18073211805554,78.25366361849368L175.513934375,77.6493081710962L176.4426470486111,76.55878240265774L177.60814600694445,75.79428444159464L177.87328993055556,76.26749066495677L177.98104895833333,75.68057439897407L178.0079887152778,75.97624463938443L179.07990746527778,75.28811678363067L180.47652118055555,75.5053600701784L180.50346093750002,75.01709104210704L180.8806175347222,74.24711462526423L180.94867586805557,74.23382377515856L181.01248055555556,74.75950426509513L181.9610435763889,75.04703505905708L182.01066944444443,74.02613103543426L182.0943244791667,74.37027362126057L182.24320208333333,73.35103417275633L182.5707328125,72.7855105036538L183.0528126736111,72.5010663021923L183.07691666666668,73.31938728131537L183.5051170138889,73.01564986878924L183.6072045138889,72.88650742127352L184.23249045138888,73.35462445276411L185.05060833333332,73.06466967165846L185.08180173611112,72.30792430299508L185.2476939236111,72.20610708179704L186.6443076388889,70.60909924907823L186.8995263888889,70.16994704944695L189.0121704861111,69.75290822966817L189.03911024305555,70.37042743780091L189.29432899305556,69.62760896268057L189.96498715277778,68.63808537760833L190.41729149305553,68.95946122656503L190.63989895833333,68.89342423593901L190.79444809027777,68.29094204156341L191.91599270833333,68.02193522493803L192.28747777777778,66.36665113496284L192.65754496527776,66.9956856809777L192.83336232638888,66.38102140858662L193.29417395833332,66.77553534515198L194.03572621527778,66.76532870709117L194.05415868055556,67.6884547242547L194.170425,67.41264283455284L194.19736475694444,66.83894945073172L195.62658975694444,67.71935217043901L195.65211163194445,67.82677630226341L195.9541204861111,66.84339078135805L196.21642864583333,66.05777446881484L196.31568038194445,64.87220968128891L196.47022951388888,64.68302080877336L196.66447934027778,65.05714248526402L196.73820920138888,65.2873679911584L198.13340503472222,64.94893079469504L198.1518375,65.24014097681702L198.2369104166667,66.3635870860902L198.63108159722222,64.88135225165412L199.32584375000002,65.09914635099248L200.66857795138887,65.27717031059551L201.7475861111111,64.2874696863573L201.8624345486111,62.58562931181439L202.26936666666666,62.52165258708864L202.98397916666667,62.788149052253175L204.11261319444444,62.36925693135191L204.9534171875,61.451516658811144L206.2195857638889,60.510144995286694L206.4109998263889,59.73513449717201L206.6406967013889,59.50819319830322L207.33545885416666,58.65562091898194L207.7508982638889,58.445862551389155L208.284021875,58.40275503083349L208.3960345486111,59.56942801850009L208.71364010416667,59.737989311100065L209.2893001736111,59.34795108666003L209.85503506944443,59.367923151996024L209.9968232638889,58.74359139119761L210.46330642361113,58.70219483471857L211.25590243055555,58.50035690083115L211.66141666666667,59.142124140498694L212.29379201388886,58.31473448429922L214.154053125,57.64528319057953L214.36957118055557,56.81305991434772L214.4858375,55.72520094860863L214.63187934027778,55.96058306916517L215.67118680555558,54.73404484149911L215.8824512152778,54.28530440489946L216.6622862847222,54.90991014293968L217.72286197916665,54.73907108576381L218.17800208333333,53.5068651514583L218.35381944444444,53.350314090875L218.5594123263889,54.932573454525L218.9833590277778,53.82518907271499L219.70931458333334,54.00549094362901L221.01234809027778,52.91582456617742L221.13995746527777,50.78982723970644L221.24062708333332,51.63867134382387L221.76098975694447,52.52985530629432L223.5815501736111,51.675558183776616L223.64819062499998,49.86379991026597L224.48474097222223,49.38385494615959L224.50600920138888,50.06363546769576L224.86473333333333,49.985638780617464L225.23621840277778,50.340630768370474L225.69419427083332,50.18104096102226L226.35634513888888,49.110459576613366L226.62007118055556,49.71463324596802L227.07379340277777,49.19346494758081L227.70900451388889,48.92457146854849L227.9231046875,47.97602788112911L228.09892204861112,47.26574422867748L228.3598123263889,46.58248153720649L228.9028611111111,46.65130892232389L230.27962447916667,47.36255035339434L230.38029409722222,47.66229771203663L231.08639930555557,47.66426112722198L231.13318940972223,47.29418167633321L231.64788055555556,46.530514005799915L233.2699375,45.94000590347997L234.17454618055558,46.87603104208799L234.50207690972223,47.23321112525281L234.88915868055554,44.67304417515169L234.90759114583332,44.29850650509101L236.66576475694447,45.811923903054634L237.2995579861111,44.51189934183279L238.00708107638889,44.50493210509967L238.03969236111112,43.5909717630598L240.62732690972223,43.07755305783587L240.74926475694443,44.05142433470155L241.86655572916666,42.244034600820925L242.47057343749998,41.87291076049257L242.50743836805555,40.266981456295554L242.6804199652778,40.237983873777324L242.90019166666667,40.77725032426642L243.8586798611111,41.595967694559846L243.8742765625,41.25043061673594L244.56903871527777,40.98514087004156L245.47790104166666,40.80339952202493L245.57857065972223,39.80448721321494L245.5814064236111,38.41660482792895L245.58282430555556,39.59459539675737L245.58424218750002,40.235014738054446L245.58566006944443,39.945781342832646L245.58849583333335,39.708521305699605L245.59133159722222,38.845775283419755L245.59274947916668,38.94143267005185L245.5941673611111,38.51738710203111L245.59558524305555,40.27102476121868L245.59700312500001,39.42797985673121L245.59842100694445,40.706312914038705L245.59983888888888,40.46529774842321L245.60125677083334,40.64769614905393L245.60267465277778,40.27392518943236L245.6040925347222,39.50317511365941L245.6069282986111,38.619022568195646L245.60834618055554,37.65488104091742L245.6097640625,38.45566862455044L245.61118194444444,38.789231174730276L245.61543559027777,39.778346204838186L245.61685347222223,39.53991522290292L245.61827135416667,38.575576633741775L245.6196892361111,38.35982348024507L245.62110711805556,38.79942658814704L245.62394288194443,38.93707595288819L245.6253607638889,38.85682557173294L245.62677864583335,39.65827534303975L245.62819652777776,39.73647020582385L245.62961440972222,40.35686712349431L245.63670381944442,39.62285527409662L245.63812170138888,39.75637066445796L245.63953958333335,39.54177489867479L245.64095746527778,39.322304939204884L245.6423753472222,39.43488296352291L245.64379322916668,38.928064778113765L245.6452111111111,38.82575386686827L245.64662899305554,39.87681232012096L245.648046875,40.69418239207258L245.64946475694444,41.170886935243544L245.65088263888887,39.46742966114613L245.65230052083334,40.6348452966877L245.65371840277777,38.2789471780126L245.6551362847222,39.2580058068076L245.65655416666667,38.88831348408456L245.65797204861113,39.42096059045073L245.65938993055556,39.34849385427043L245.6608078125,39.92893881256228L245.66222569444446,39.176265787537375L245.6636435763889,39.163621972522435L245.66506145833333,38.91133318351345L245.6664793402778,38.95864241010807L245.66789722222222,39.32642544606483L245.66931510416666,39.5209877676389L245.67215086805555,40.193505160583356L245.67498663194445,40.13991309635003L245.67640451388888,40.02766535781001L245.67782239583335,40.45281921468603L245.67924027777778,39.549446528811615L245.6806581597222,38.28703291728698L245.6834939236111,38.563707250372175L245.6863296875,37.64204685022332L245.68774756944447,38.393983110134L245.68916545138887,38.09200986608039L245.69058333333334,39.04097091964826L245.6934190972222,39.245727551788946L245.69483697916667,39.603549031073385L245.69625486111113,37.957971918644006L245.69767274305553,37.17506065118641L245.699090625,37.62836889071187L245.70334427083333,37.4326313344271L245.7047621527778,39.20731880065628L245.70901579861112,39.08092128039377L245.71043368055555,40.17903526823628L245.7118515625,38.129361160941784L245.71610520833332,38.60760669656506L245.71752309027778,38.859154017939034L245.72035885416668,38.72245741076344L245.7217767361111,39.48959694645802L245.72319461805554,37.99668566787483L245.7246125,38.326663900724895L245.72603038194444,39.40876584043494L245.72744826388887,40.34963450426096L245.72886614583334,40.76636070255657L245.73028402777777,39.95793642153396L245.7317019097222,40.97251435292037L245.73311979166667,41.015303611752216L245.73595555555553,41.13744216705135L245.7373734375,40.59609280023079L245.73879131944446,40.94476818013848L245.74162708333333,41.150875908083094L245.7430449652778,39.19700304484988L245.74446284722222,39.396429326909924L245.74588072916666,40.55640259614597L245.74729861111112,39.41247155768758L245.74871649305558,39.44207793461257L245.750134375,39.03371426076754L245.75155225694445,39.5643985564605L245.7529701388889,39.708021633876314L245.75438802083332,37.62152048032581L245.75580590277778,37.15151728819549L245.75864166666665,38.650577872917296L245.7600595486111,39.69205672375037L245.76147743055557,38.50357903425021L245.7628953125,38.12413742055011L245.76431319444444,37.89425995233009L245.7657310763889,38.43645597139806L245.76714895833334,38.894966082838835L245.76856684027777,37.53768964970331L245.76998472222223,38.37075128982201L245.77140260416667,38.381625773893205L245.7728204861111,37.61864296433592L245.77423836805556,38.198958278601566L245.77565625,38.30775496716092L245.77707413194443,38.775265480296554L245.77990989583333,38.27874178817794L245.7813277777778,37.446730072906774L245.78274565972222,36.569628043744075L245.78416354166666,38.50056932624645L245.78558142361112,38.52102409574786L245.78699930555555,39.286874457448704L245.7884171875,40.07516217446923L245.79408871527778,38.505112304681546L245.79692447916665,37.56617988280894L245.7983423611111,38.60909542968537L245.80117812499998,38.46533725781123L245.80259600694444,39.463649854686736L245.8040138888889,39.969712412812044L245.8054317708333,38.569724947687234L245.80684965277777,39.81479246861235L245.80968541666667,39.34938298116742L245.8111032986111,40.516227288700435L245.81252118055556,40.01760137322026L245.8139390625,40.46669332393216L245.81535694444443,39.54803599435931L245.8167748263889,40.36637909661559L245.81819270833333,39.45554495796935L245.81961059027776,39.90422697478161L245.82102847222222,40.40043868486896L245.82244635416666,40.140173210921375L245.82386423611112,39.24680892655283L245.82528211805555,38.4346703559317L245.8267,37.32655971355902L245.82811788194445,38.017513328135436L245.82953576388888,37.897545496881264L245.83095364583335,39.680967298128735L245.83237152777778,39.57397037887725L245.83378940972221,40.240339727326386L245.83520729166668,39.33080383639583L245.8366251736111,39.965229801837495L245.8394609375,39.40955538110251L245.84087881944444,38.472580728661484L245.8422967013889,37.83384343719689L245.84513246527777,37.893101062318124L245.84655034722223,38.57028063739091L245.84796822916667,38.482315882434534L245.8493861111111,37.49718952946074L245.85080399305556,37.538003717676474L245.852221875,37.97268973060588L245.8550576388889,38.61936133836352L245.85789340277776,38.664869303018094L245.8607291666667,39.49398408181088L245.86498281250002,39.18079294908654L245.86640069444442,38.74242326945193L245.86781857638888,39.45068896167115L245.86923645833335,38.739308377002715L245.87065434027778,37.88148502620163L245.87207222222222,38.48808601572097L245.8749079861111,38.098469109432585L245.87632586805555,38.21206146565953L245.87774375,37.93993437939574L245.87916163194444,38.61386812763746L245.88057951388888,39.80764837658248L245.88199739583334,38.8362215259495L245.88341527777777,39.197217915569695L245.88483315972223,38.71997574934181L245.88625104166667,39.28323044960507L245.8876689236111,39.08620076976305L245.8905046875,38.91267046185783L245.89192256944443,39.543987277114695L245.8933404513889,39.24884986626884L245.89617621527776,39.3505424197613L245.89759409722222,38.955782951856776L245.8990119791667,39.47914227111406L245.9004298611111,39.05816536266843L245.90184774305555,39.10382421760107L245.90326562500002,39.23387953056064L245.90468350694442,39.3119127183364L245.90610138888889,40.42737013100185L245.90751927083335,40.141729578601115L245.90893715277775,39.94777774716067" style="fill: none;" fill="none"></path></g></g></g></g><g opacity="0.2"><g><g><g><path stroke="rgb(255, 112, 67)" stroke-width="2px" d="M28.981506944444448,159.00972000000002L29.32038072916667,159.02136773217774L29.602539236111113,159.0765375L29.613882291666666,159.0588375L29.652165104166667,159.05773125L29.749998958333332,159.00463125L29.75283472222222,159.07618064794923L29.79962482638889,159.04224375L29.836489756944445,159.0721125L29.913055381944442,159.04003125L29.931487847222222,159.03339375L29.95559184027778,159.03118125L30.032157465277777,159.02479354211425L30.05767934027778,159.0190125L30.183870833333334,158.98250625L30.20230329861111,158.994675L30.21506423611111,159.00423870410157L30.229243055555557,159.08189032397462L30.232078819444443,159.02896875L30.23775034722222,159.03339375L30.27886892361111,159.00905625000001L30.290211979166667,159.03781874999999L30.458939930555555,159.04666875L30.60781753472222,159.00020625L30.748187847222223,159.07047097192384L30.9197515625,158.99167742980956L31.114001388888887,159.04003125L31.519515625,158.97365625L31.7492125,158.97255L31.76480920138889,158.98250625L31.82294236111111,158.96312902807617L31.82861388888889,158.98250625L31.84137482638889,158.95595624999999L31.903761631944448,158.96923125L31.93070138888889,158.96480625L31.93637291666667,158.97808125L31.990252430555557,158.92940625L32.00017760416667,158.95374375L32.06256440972222,158.97365625L32.09942934027778,158.94046875L32.117861805555556,158.95374375L32.132040625,158.94710625L32.22845659722222,158.91834375L32.239799652777776,158.99356875L32.34330503472222,158.941575L32.35039444444445,158.90728125L32.37875208333333,158.9216625L32.489346875,158.8641375L32.51345086805556,158.9393625L32.8338921875,158.8287375L32.840981597222225,158.86081875L32.86508559027778,158.86303125L32.87359288194445,158.84311875L32.923218750000004,158.88515625L32.971426736111106,158.84865L33.00262013888889,158.9083875L33.02955989583334,158.8552875L33.032395659722226,158.90175L33.15149774305556,158.85418125L33.167094444444444,158.83426875L33.17418385416667,158.86524375L33.18978055555555,158.85418125L33.23515277777778,158.86524375L33.280525,158.7844875L33.29612170138889,158.84311875L33.315972048611115,158.8464375L33.33724027777778,158.84754375L33.357090625000005,158.84533125000002L33.362762152777776,158.86745625L33.413805902777774,158.84754375L33.4719390625,158.8221L33.50029670138889,158.86524375L33.54283315972222,158.84754375L33.54708680555556,158.83426875L33.7782015625,158.84865L33.79379826388889,158.791125L33.83066319444445,158.84311875L33.88170694444444,158.84090625L33.919989756944446,158.85418125L33.954018923611116,158.835375L33.965361979166666,158.82984375L33.98521232638889,158.83316250000001L34.036256076388895,158.85196875L34.040509722222225,158.7933375L34.10856805555556,158.8198875L34.14117934027777,158.8508625L34.14401510416667,158.8420125L34.1865515625,158.799975L34.24184895833333,158.80993125L34.25319201388889,158.81325L34.280131770833336,158.81325L34.29289270833333,158.773425L34.318414583333336,158.808825L34.35386163194445,158.83205625L34.37512986111111,158.78559375L34.51550017361111,158.8021875L34.526843229166666,158.83869375L34.56654392361111,158.7889125L34.58639427083334,158.82099375L34.5949015625,158.817675L34.610498263888886,158.74355624999998L34.67572083333333,158.7933375L34.72534670138889,158.76125625L34.77780833333333,158.782275L34.81467326388889,158.7667875L34.844448784722225,158.799975L34.929521701388886,158.8198875L34.98056545138889,158.7579375L35.04720590277778,158.7667875L35.093996006944444,158.76789375L35.2074265625,158.77785L35.23720208333334,158.77231875L35.245709375,158.76346875L35.249963020833334,158.7867L35.254216666666665,158.746875L35.26981336805556,158.74134375L35.289663715277776,158.73913125L35.35063263888889,158.68935L35.35772204861111,158.7933375L35.43286979166667,158.69488125L35.43854131944445,158.83648125L35.462645312499994,158.7867L35.54771822916667,158.769L35.55622552083334,158.76346875L35.57465798611111,158.7402375L35.66398454861111,158.7535125L35.689506423611114,158.702625L35.734878645833334,158.74576875L35.74480381944444,158.78338125L35.75472899305555,158.74576875L35.80293697916667,158.75019375L35.83696614583333,158.77231875L35.87808472222222,158.81878125L36.01703715277778,158.73028125L36.07233454861111,158.729175L36.100692187499995,158.7579375L36.167332638888894,158.7225375L36.2027796875,158.69930625L36.214122743055555,158.702625L36.32471753472222,158.70151875L36.331806944444445,158.70373125L36.363000347222226,158.676075L36.367253993055556,158.73028125L36.40270104166667,158.773425L36.43814809027778,158.6915625L36.47217725694445,158.76015L36.47501302083333,158.69819999999999L36.50053489583333,158.6428875L36.52889253472222,158.7535125L36.59269722222222,158.74576875L36.6111296875,158.74245L36.71747083333334,158.614125L36.75433576388889,158.7490875L36.98828628472222,158.67275625L36.99112204861111,158.7446625L36.99821145833333,158.75019375L37.07335920138889,158.72806875L37.12582083333333,158.72364375L37.16693940972222,158.66390625L37.20664010416667,158.729175L37.215147395833334,158.73249375L37.34559253472222,158.6959875L37.46894826388889,158.55549375L37.47178402777777,158.7136875L37.47320190972222,158.61191250000002L37.58805034722222,158.70705L37.606482812500005,158.66943750000002L37.67312326388889,158.72806875L37.71849548611111,158.63625L37.72274913194445,158.70594375L37.728420659722225,158.70815625L37.75252465277778,158.592L37.76812135416667,158.702625L37.770957118055556,158.66169375L37.91699895833334,158.684925L38.00348975694445,158.6428875L38.04886197916667,158.61191250000002L38.08572690972222,158.596425L38.179307118055554,158.640675L38.26579791666667,158.587575L38.27997673611111,158.6628L38.3210953125,158.46035625L38.33952777777778,158.54885625L38.47989809027778,158.52230624999999L38.52385243055555,158.60859375L38.59758229166667,158.481375L38.68123732638889,158.58646875L38.701087673611106,158.4681L38.79041423611111,158.47141875L38.83011493055555,158.47805625L38.86697986111111,158.50018125L38.899591145833334,158.4880125L38.9080984375,158.3442L38.91235208333333,158.1738375L38.92653090277778,158.20813125L38.927948784722226,158.29441875L38.95205277777777,158.30105625L38.974738888888886,158.21698125L39.30085173611111,158.061L39.455400868055555,158.18379375L39.534802256944445,157.87846875L39.584428124999995,158.31433125L39.79994618055555,157.70589375L40.22531076388889,157.729125L40.456425520833335,157.3330875L40.48620104166666,157.0410375L40.68754027777778,157.2799875L40.744255555555554,157.23241875L40.79813506944444,156.56424375L40.87044704861111,156.9481125L40.90447621527778,157.80988125L41.060443229166665,157.5897375L41.216410243055556,156.463575L41.23200694444445,156.85297500000001L41.30857256944444,156.53105625L41.31282621527778,156.17595L41.548194618055554,156.29653125L41.699907986111114,156.42264375L41.821845833333334,156.0763875L42.342208506944445,156.55981875L42.47407152777778,154.86061875000001L42.52795104166667,154.605075L42.83137777777778,154.8108375L42.96182291666667,155.04868125000002L43.066746180555555,154.43581875L43.33472586805556,154.65706875L43.41838090277778,154.6780875L44.07344236111111,154.4502L44.158515277777774,153.26098125L44.832009201388885,153.01539375L44.85185954861111,153.04858125L45.03618420138889,152.37155625L45.08297430555555,153.05743125L45.47289184027778,151.96445625L45.56080052083333,150.7663875L45.630276736111114,151.0495875L45.633112499999996,153.9789375L45.634530381944444,151.60603125L45.784825868055556,152.693475L45.92377829861111,152.22553125L46.13929635416667,150.9389625L46.20026527777778,151.330575L46.29668125,151.89255L46.512199305555555,151.0495875L46.56182517361111,150.0362625L46.784432638888894,151.8859125L46.84398368055556,151.8062625L46.92622083333334,152.71449375L46.97442881944445,151.44451875L47.15875347222222,150.46880625L47.45650868055555,149.2818L47.84784409722222,149.6889L47.989632291666666,148.42003125L48.244851041666664,148.3990125L48.675887152777776,146.57480625L49.49258715277778,146.00619375L49.597510416666665,146.61905625L50.01720347222222,146.011725L50.06257569444445,147.2883375L50.119290972222224,145.3701L50.190185069444446,147.69433125L50.366002430555554,146.28054375L50.56875954861111,147.1224L50.61129600694445,145.49289375L50.70345833333333,147.34696875L50.723308680555554,146.95425L50.82397829861111,146.409975L51.08628645833333,145.22739375L51.240835590277776,145.89225L51.29329722222222,142.95073125L51.37695225694444,145.321425L51.439339062500004,145.92875625L51.50597951388889,146.33585625L51.85761423611111,145.52165625L51.94835868055556,143.533725L52.355290798611115,143.41978125L52.38931996527778,145.1023875L52.45028888888889,143.392125L52.46446770833334,144.1023375L52.69274670138889,143.8589625L53.05288871527778,143.24720625L53.14505104166666,143.37885L53.49668576388889,145.2130125L53.846902604166665,142.66531875L54.18719427083333,144.28155L54.26943142361111,143.10339375L54.336071875,143.99945625L54.43248784722223,142.55469375L54.489203124999996,142.14316875L54.55726145833333,140.80460625L55.053520138888885,142.14759375L55.26620243055556,143.04586875L55.44201979166667,142.8766125L55.658955729166664,143.45075624999998L55.75820746527778,141.05240625L56.133946180555554,142.21065L56.204840277777784,143.524875L56.363643055555556,141.2526375L56.479909375,141.029175L56.90669184027777,143.74501874999999L56.971914409722224,142.117725L56.98609322916667,142.0602L57.22571527777777,142.3190625L57.283848437500005,142.60336875000002L57.462501562499995,142.2372L57.496530729166665,141.26701875L58.134577604166665,140.74929375L58.534420312499996,142.0779L59.05194722222222,141.43185L59.3511203125,140.9738625L59.39507465277778,141.0004125L59.45746145833333,142.43521875L59.48156545138889,141.67965L59.52551979166666,140.8720875L59.79491736111111,141.507075L59.95655590277778,140.42295000000001L60.898029513888886,140.055675L61.40421336805556,138.2724L61.50488298611111,138.19275L61.56726979166667,136.6771875L62.498818229166666,139.31559375L62.54419045138889,139.42400625L62.6434421875,139.16293124999999L63.31126458333333,137.3874L63.343875868055555,137.7568875L63.36939774305556,138.7436625L63.430366666666664,139.44613125L63.56648333333333,137.77569375000002L64.01169826388889,138.99256875L64.03722013888888,139.69725L64.15632222222222,139.011375L64.60579079861111,137.89738125L64.68093854166666,137.97481875L64.95175399305556,139.7769L65.12473559027778,139.3189125L66.06195555555556,136.15725L66.31717430555555,135.5399625L66.71843489583334,137.08318125L67.06723385416666,136.70595L67.25581215277778,136.53226875000001L68.05975121527777,136.42606875L68.13348107638889,134.0000625L68.31780572916666,137.31549375L68.88637638888889,136.19818125L68.96294201388889,135.02998125L69.0749546875,134.719125L69.15152031250001,137.69383125L69.18554947916667,137.3674875L69.20823559027777,136.70041874999998L69.39823177083332,133.65823125L69.54852725694444,136.03888125L69.6080782986111,135.037725L69.77397048611111,135.70589999999999L69.93419114583334,136.08091875L69.97672760416667,135.53664375L69.98098125,134.435925L69.99657795138889,134.6593875L70.17097743055555,134.258925L70.19366354166667,134.30870625L70.2234390625,135.39504375L70.60768506944444,136.44598125L70.78492031249999,136.71811875L70.8870078125,135.8475L71.11528680555554,133.13165625L71.45132482638888,135.2103L71.51087586805556,134.3253L72.74726892361112,132.66703124999998L73.17830503472223,133.13608125L73.3115859375,133.93921875L73.53277552083334,135.24238125L74.90670312499999,134.07418125L75.12789270833333,133.07966249999998L75.8609376736111,132.61835625L75.98003975694445,132.63605625L76.01265104166667,132.95686875L76.03817291666667,132.09620625L76.14734982638889,130.86605624999999L76.18988628472222,134.7965625L76.22816909722222,132.70906875L76.36428576388889,131.0530125L76.49189513888888,131.39484375L76.54435677083333,132.8672625L76.64928003472222,130.62046875L76.70883107638889,134.3584875L77.3156845486111,133.84076249999998L78.54073454861111,131.46785625L79.36735972222223,128.68895625L80.49741163194444,130.58175L80.76964496527778,131.108325L81.2970970486111,129.2608875L81.34955868055556,130.179075L81.46298923611111,129.27748125L81.52395815972221,130.7609625L81.59627013888888,129.3162L81.75365503472221,129.46111875L82.08685729166666,129.4157625L82.23857065972223,129.3184125L82.39879131944444,131.453475L82.52498281250001,128.267475L82.55050468750001,130.92247500000002L82.8284095486111,129.31066875L82.9815407986111,128.7829875L83.16019392361112,129.302925L83.19280520833334,128.10375L83.27078871527779,128.77524375000002L84.57665798611112,127.60261875L84.78650451388889,127.99755L84.89000989583333,128.12034375000002L84.97791857638889,126.072675L86.18595399305556,128.41128750000001L86.67654114583334,127.82829375L86.98705729166666,126.13241249999999L87.24369392361112,127.22870624999999L87.85054739583333,128.21990625L88.20076423611111,126.69991875L88.29576232638888,125.4067125L88.42478958333332,124.90889999999999L89.0330609375,125.86967812500001L89.32939826388889,125.9377125L89.54633420138889,124.754025L89.59028854166667,127.88581875L89.98162395833333,124.15111875L90.02274253472221,123.33359999999999L90.48638993055556,124.3624125L90.58422378472223,127.31941875000001L90.58705954861112,123.07584374999999L90.77989149305554,126.50964375000001L91.25771770833333,123.4752L91.37965555555556,124.36351875L91.40943107638888,124.56485625L91.47748940972222,125.61136875L91.59517361111111,124.00066875L92.36650138888889,123.18315000000001L92.36791927083333,125.48304375000001L92.88544618055556,124.13120625L92.93648993055555,124.65999375L93.16335104166666,122.8446375L93.24558819444444,122.6941875L93.43274861111112,123.74623125L94.56421840277777,125.4067125L94.66914166666666,122.71078125L94.95271805555556,124.02611250000001L95.17957916666667,120.6808125L95.9778467013889,123.57808125L96.36634635416667,118.01143125L96.57619288194444,122.4729375L97.30923784722222,119.95400624999999L97.52192013888889,120.34783125L97.6594546875,120.86555625L97.86362968750001,121.37775L97.87213697916667,119.824575L98.08340138888889,118.60991250000001L98.20108559027778,120.71289375L98.31593402777779,119.44845000000001L98.43645399305555,121.48948125L98.91144444444444,117.67845L99.13405190972222,118.382025L99.19927447916666,119.79249375L99.2673328125,118.010325L99.28292951388889,118.10103749999999L99.50411909722222,118.08665625L99.79620277777778,118.3422L99.85717170138889,120.178575L100.20880642361111,118.4727375L100.47253246527777,118.32118125L100.97304479166667,118.97165625L101.07087864583333,118.41189374999999L101.23393506944444,117.74814375L101.38848420138889,119.46504375L101.9953376736111,118.815675L102.32853993055555,117.1098375L103.08852465277778,117.8886375L103.60888732638888,117.22820625L104.63543385416666,118.16851875L104.63685173611111,114.3884625L104.89348836805556,117.29458125L105.58257899305555,118.31454375L106.21070069444444,115.67724375L106.58785729166667,115.63741875L106.79345017361112,117.88974375000001L106.98486423611111,118.603275L106.99053576388889,115.850925L107.08269809027779,117.31117499999999L107.191875,116.88305625L107.65126875,115.12854375L108.20282482638889,116.62198125L108.33610572916666,113.54439375L108.40274618055555,116.68393125L108.43393958333334,115.43165625L108.73311267361112,115.45820624999999L108.97698836805556,115.37634374999999L109.24071440972223,114.45594375L110.25733576388889,113.7645375L110.32681197916668,113.13729375L110.46860017361111,114.2645625L110.52531545138889,112.21910625L111.67521770833334,112.12618125L111.71350052083332,112.98795L112.11192534722223,112.74568125L112.37565138888888,112.77886875L112.38841232638889,113.1804375L113.1923513888889,112.25671875L113.47450989583334,112.7667L113.69711736111111,113.9282625L114.14658593749999,111.169275L114.65135190972222,111.363975L114.74351423611111,114.36523125L114.93351041666666,112.0432125L115.31350277777779,111.080775L115.38156111111111,112.68815624999999L115.56588576388889,111.868425L115.66088385416667,111.04205625L115.87923767361112,112.98020625000001L116.16139618055556,113.10410625L116.19542534722223,111.22569374999999L116.40952552083334,110.65486875L116.46765868055556,110.39600625L116.86750138888888,111.19029375L116.88309809027778,111.6493875L117.16100295138888,109.99665L117.17801753472223,111.47460000000001L117.25316527777778,109.4214L117.81890017361111,112.07529375L118.52216961805556,110.00881875L118.64410746527778,112.089675L118.99999583333333,111.11285625000001L119.08223298611111,110.2179L119.49909027777777,111.01108125L120.14564444444444,110.07408749999999L121.00771666666667,109.67915625L121.47703559027778,109.32073125000001L122.62977361111112,108.4324125L122.99416927083332,108.86274375L123.04663090277778,108.75765L123.117525,109.39153125L123.12886805555556,106.9456125L123.38408680555555,109.9457625L123.78109375,109.28533125L123.80236197916666,107.86269375L123.82504809027778,108.0474375L123.98526875,107.64365625L124.01929791666666,109.0143L124.84592309027778,107.248725L125.07278420138888,108.20563125L125.3988970486111,108.77092499999999L125.45135868055556,106.779675L125.60448993055556,107.45338125L125.94336371527777,108.7111875L125.95470677083333,107.35160625L126.01142204861111,107.11376249999999L126.08798767361112,106.66130625L126.27373020833333,109.4590125L126.81961475694445,106.01525625000001L127.3413953125,106.16349375L128.46577569444443,104.9256L128.5735347222222,106.70113125L128.66002552083333,106.0119375L130.76841597222224,106.381425L130.8988611111111,105.44221875000001L131.54116163194445,105.753075L132.40606961805557,103.76514375000001L132.42875572916668,104.7375375L132.54502204861112,103.54168125L132.62442343749998,104.52403125000001L132.74210763888888,102.34693125L132.98314756944447,103.92223125L133.02284826388887,103.52176874999999L133.11642847222222,104.4189375L133.62403020833332,105.78405000000001L134.5031170138889,103.3392375L134.73423177083333,101.78938124999999L134.78243975694446,102.69208125L135.0490015625,104.637975L135.14967118055557,102.15444375L135.1992970486111,104.142375L135.34675677083334,103.62022499999999L135.42615815972223,102.4940625L135.5722,101.07474375L136.2584548611111,100.8656625L136.75187777777776,102.80934375L136.80859305555555,102.41330625L137.0170217013889,103.29388125L137.49768368055555,104.10808125L137.5146982638889,99.22288125L139.1325015625,101.24953125L139.62876024305555,100.49064375L140.6609782986111,99.053625L141.09201440972222,98.41089375L141.20119131944443,102.7595625L141.29193576388892,100.01053125L141.49611076388888,98.57019375L141.86476006944443,99.2107125L142.15259010416668,97.64094374999999L142.641759375,98.9983125L142.76936875,97.885425L143.62009791666665,98.1088875L143.91643524305556,97.77811875L144.7132848958333,96.51699375L144.80828298611112,96.48380625L145.08051631944446,95.637525L145.11879913194446,97.12875L145.19252899305556,98.6841375L145.40095763888888,96.56788125L145.55408888888888,96.4185375L145.83199375,97.885425L146.13400260416665,94.95718125L146.20915034722222,96.71390625L146.3991465277778,93.8985L146.52250225694445,95.68951874999999L146.72525937499998,95.06559374999999L147.61710711805554,93.3520125L148.44656805555556,93.248025L149.27602899305558,91.46806875L149.96653750000002,93.50356875L151.12211128472222,91.77339375L151.40710555555557,90.67156875L151.8835138888889,91.05654375L152.08627100694446,94.69168125L152.32872881944445,89.83745625L152.95401475694445,89.9403375L153.40631909722222,93.5622L153.77071475694444,88.05528749999999L154.25846614583335,88.91263125L154.55338559027777,90.61515L154.69375590277778,88.415925L154.98300381944443,86.52645L155.7188845486111,88.43362499999999L155.81246475694442,89.8651125L155.8805230902778,88.27432499999999L156.32290225694445,91.4802375L156.39096059027779,89.31751875L156.39946788194445,89.03321249999999L156.65185086805556,87.20015625L156.75535625,87.840675L157.4515362847222,88.36725L157.45295416666667,87.44795624999999L157.49123697916667,91.194825L157.7053371527778,90.30871875L158.21293888888889,86.56295625L158.98001302083333,87.8274L159.2465748263889,85.24873124999999L160.8799748263889,85.7587125L160.89840729166664,82.9068L161.2245201388889,85.7454375L161.41735208333333,83.41788749999999L163.42365503472223,86.079525L163.63633732638888,85.08721874999999L163.67603802083332,82.06494375L163.94401770833332,82.78400625L164.5622142361111,85.97332499999999L165.03011527777778,83.21323125L166.81948229166665,83.601525L167.244846875,81.94989375L167.28171180555557,80.50070625L167.66312204861111,80.46088125000001L167.89707256944445,83.85817499999999L168.036025,83.3161125L168.22318541666667,81.71426249999999L168.32243715277778,81.30605625L168.4273604166667,80.09803125L168.78324878472222,80.25843750000001L169.06257152777778,79.5371625L169.16465902777776,80.86687500000001L169.337640625,81.71979375000001L169.94165833333335,78.380025L170.01255243055556,80.93435625000001L170.50739322916667,82.96875L170.64492777777778,78.30369375000001L171.14118645833332,78.60680625L171.18939444444445,81.98418749999999L173.84792309027776,78.82584375L174.11732065972222,78.26829375000001L174.51999913194445,78.67318125000001L175.18073211805554,77.13991875L175.513934375,76.74277500000001L176.4426470486111,74.92299375L177.60814600694445,74.6475375L177.87328993055556,76.97729999999999L177.98104895833333,74.80019999999999L178.0079887152778,76.41975L179.07990746527778,74.255925L180.47652118055555,75.83122499999999L180.50346093750002,74.2846875L180.8806175347222,73.09215L180.94867586805557,74.21388750000001L181.01248055555556,75.548025L181.9610435763889,75.47833125000001L182.01066944444443,72.494775L182.0943244791667,74.88648749999999L182.24320208333333,71.822175L182.5707328125,71.93722500000001L183.0528126736111,72.0744L183.07691666666668,74.54686875L183.5051170138889,72.56004375L183.6072045138889,72.69279374999999L184.23249045138888,74.0568L185.05060833333332,72.6297375L185.08180173611112,71.17280625L185.2476939236111,72.05338124999999L186.6443076388889,68.2135875L186.8995263888889,69.51121875L189.0121704861111,69.12734999999999L189.03911024305555,71.29670625L189.29432899305556,68.51338125000001L189.96498715277778,67.15379999999999L190.41729149305553,69.44152500000001L190.63989895833333,68.79436875L190.79444809027777,67.38721875L191.91599270833333,67.61842499999999L192.28747777777778,63.88372500000001L192.65754496527776,67.9392375L192.83336232638888,65.459025L193.29417395833332,67.36730625000001L194.03572621527778,66.75001875L194.05415868055556,69.07314375L194.170425,66.998925L194.19736475694444,65.978409375L195.62658975694444,69.03995625L195.65211163194445,67.9879125L195.9541204861111,65.3683125L196.21642864583333,64.87935L196.31568038194445,63.0938625L196.47022951388888,64.39923750000001L196.66447934027778,65.618325L196.73820920138888,65.63270625L198.13340503472222,64.441275L198.1518375,65.67695624999999L198.2369104166667,68.04875625000001L198.63108159722222,62.658L199.32584375000002,65.42583749999999L200.66857795138887,65.54420624999999L201.7475861111111,62.80291874999999L201.8624345486111,60.032868750000006L202.26936666666666,62.42568750000001L202.98397916666667,63.18789375L204.11261319444444,61.74091874999999L204.9534171875,60.07490625L206.2195857638889,59.098087500000005L206.4109998263889,58.572618750000004L206.6406967013889,59.16778124999999L207.33545885416666,57.3767625L207.7508982638889,58.131225L208.284021875,58.33809375L208.3960345486111,61.31943749999999L208.71364010416667,59.99083125L209.2893001736111,58.76289374999999L209.85503506944443,59.39788125000001L209.9968232638889,57.80709375000001L210.46330642361113,58.640100000000004L211.25590243055555,58.197599999999994L211.66141666666667,60.10477499999999L212.29379201388886,57.07365L214.154053125,56.64110625000001L214.36957118055557,55.564724999999996L214.4858375,54.093412499999985L214.63187934027778,56.31365625000001L215.67118680555558,52.8942375L215.8824512152778,53.61219374999999L216.6622862847222,55.84681875L217.72286197916665,54.48281250000001L218.17800208333333,51.658556250000004L218.35381944444444,53.115487499999986L218.5594123263889,57.30596249999999L218.9833590277778,52.1641125L219.70931458333334,54.275943749999996L221.01234809027778,51.281324999999995L221.13995746527777,47.60083125L221.24062708333332,52.91193749999999L221.76098975694447,53.86663125000001L223.5815501736111,50.394112500000006L223.64819062499998,47.1461625L224.48474097222223,48.6639375L224.50600920138888,51.08330624999999L224.86473333333333,49.86864374999999L225.23621840277778,50.87311874999999L225.69419427083332,49.941656249999994L226.35634513888888,47.504587500000014L226.62007118055556,50.62089375000001L227.07379340277777,48.41171250000002L227.70900451388889,48.52123125L227.9231046875,46.5532125L228.09892204861112,46.20031875000001L228.3598123263889,45.55758750000001L228.9028611111111,46.754549999999995L230.27962447916667,48.42941250000001L230.38029409722222,48.11191875L231.08639930555557,47.66720624999999L231.13318940972223,46.73906249999999L231.64788055555556,45.385012500000016L233.2699375,45.05424374999998L234.17454618055558,48.28006875L234.50207690972223,47.768981249999996L234.88915868055554,40.83279375000001L234.90759114583332,43.736699999999985L236.66576475694447,48.08204999999998L237.2995579861111,42.56186250000002L238.00708107638889,44.49448125000001L238.03969236111112,42.220031250000005L240.62732690972223,42.307424999999995L240.74926475694443,45.51223125000001L241.86655572916666,39.53295L242.47057343749998,41.316225L242.50743836805555,37.85808750000001L242.6804199652778,40.19448750000001L242.90019166666667,41.58615L243.8586798611111,42.824043750000016L243.8742765625,40.732124999999996L244.56903871527777,40.58720625000001L245.47790104166666,40.5307875L245.57857065972223,38.306118749999996L245.5814064236111,36.33478124999999L245.58282430555556,41.36158125L245.58424218750002,41.195643750000016L245.58566006944443,39.51193125L245.58849583333335,39.35263125L245.59133159722222,37.55165625000001L245.59274947916668,39.084918749999986L245.5941673611111,37.88131875000002L245.59558524305555,42.90148124999999L245.59700312500001,38.16341249999999L245.59842100694445,42.623812499999985L245.59983888888888,40.103774999999985L245.60125677083334,40.92129374999999L245.60267465277778,39.71326875L245.6040925347222,38.347049999999996L245.6069282986111,37.292793750000016L245.60834618055554,36.20866874999999L245.6097640625,39.65684999999999L245.61118194444444,39.28957500000001L245.61543559027777,41.26201875000001L245.61685347222223,39.18226874999999L245.61827135416667,37.12906874999999L245.6196892361111,38.036193749999995L245.62110711805556,39.45883125L245.62394288194443,39.143550000000005L245.6253607638889,38.73644999999999L245.62677864583335,40.860449999999986L245.62819652777776,39.853762500000016L245.62961440972222,41.287462500000004L245.63670381944442,38.521837500000004L245.63812170138888,39.95664375000001L245.63953958333335,39.219881249999986L245.64095746527778,38.9931L245.6423753472222,39.60374999999999L245.64379322916668,38.16783750000002L245.6452111111111,38.67228749999998L245.64662899305554,41.45339999999999L245.648046875,41.92023750000001L245.64946475694444,41.885943749999996L245.65088263888887,36.912243750000016L245.65230052083334,42.38596874999999L245.65371840277777,34.74510000000001L245.6551362847222,40.726593750000006L245.65655416666667,38.333775L245.65797204861113,40.21993125L245.65938993055556,39.23979374999999L245.6608078125,40.79960625000001L245.66222569444446,38.047256250000004L245.6636435763889,39.14465625L245.66506145833333,38.53290000000001L245.6664793402778,39.02960625L245.66789722222222,39.87809999999999L245.66931510416666,39.812831250000016L245.67215086805555,41.20228125L245.67498663194445,40.05952500000001L245.67640451388888,39.859293750000006L245.67782239583335,41.09055000000001L245.67924027777778,38.194387500000005L245.6806581597222,36.39341249999998L245.6834939236111,38.97871875000001L245.6863296875,36.25955625L245.68774756944447,39.52188749999999L245.68916545138887,37.63905L245.69058333333334,40.46441250000001L245.6934190972222,39.5528625L245.69483697916667,40.140281250000015L245.69625486111113,35.48960625000001L245.69767274305553,36.00069375000001L245.699090625,38.30833124999998L245.70334427083333,37.139025000000004L245.7047621527778,41.86935L245.70901579861112,38.891324999999995L245.71043368055555,41.82620625000001L245.7118515625,35.05484999999999L245.71610520833332,39.324974999999995L245.71752309027778,39.236474999999984L245.72035885416668,38.517412500000006L245.7217767361111,40.64030625000001L245.72319461805554,35.757318749999996L245.7246125,38.821631249999996L245.72603038194444,41.03191874999999L245.72744826388887,41.76093750000001L245.72886614583334,41.39144999999999L245.73028402777777,38.745299999999986L245.7317019097222,42.49438125L245.73311979166667,41.0794875L245.73595555555553,41.32065L245.7373734375,39.78406874999999L245.73879131944446,41.46778125L245.74162708333333,41.4600375L245.7430449652778,36.266193749999985L245.74446284722222,39.69556875000001L245.74588072916666,42.29636249999999L245.74729861111112,37.696574999999996L245.74871649305558,39.48648750000001L245.750134375,38.42116874999999L245.75155225694445,40.36042499999999L245.7529701388889,39.923456250000015L245.75438802083332,34.491768750000006L245.75580590277778,36.44651250000001L245.75864166666665,40.89916875L245.7600595486111,41.25427500000001L245.76147743055557,36.72086250000001L245.7628953125,37.55497500000001L245.76431319444444,37.549443749999995L245.7657310763889,39.249750000000006L245.76714895833334,39.582731249999995L245.76856684027777,35.50177499999998L245.76998472222223,39.62034374999999L245.77140260416667,38.39793750000001L245.7728204861111,36.47416874999999L245.77423836805556,39.06943125000001L245.77565625,38.470950000000016L245.77707413194443,39.476531249999994L245.77990989583333,37.53395624999999L245.7813277777778,36.1987125L245.78274565972222,35.253975L245.78416354166666,41.39698125000001L245.78558142361112,38.551706249999995L245.78699930555555,40.43565000000001L245.7884171875,41.257593749999984L245.79408871527778,36.150037499999996L245.79692447916665,36.15778125L245.7983423611111,40.17346875000001L245.80117812499998,38.24969999999999L245.80259600694444,40.96111875L245.8040138888889,40.72880624999999L245.8054317708333,36.46974374999999L245.80684965277777,41.68239374999999L245.80968541666667,38.651268750000014L245.8111032986111,42.266493749999995L245.81252118055556,39.26966249999998L245.8139390625,41.14033125L245.81535694444443,38.17005L245.8167748263889,41.59389375000001L245.81819270833333,38.089293749999996L245.81961059027776,40.57724999999999L245.82102847222222,41.14475625L245.82244635416666,39.749775L245.82386423611112,37.90676250000001L245.82528211805555,37.216462500000006L245.8267,35.664393750000016L245.82811788194445,39.05394375L245.82953576388888,37.71759374999999L245.83095364583335,42.3561L245.83237152777778,39.413475000000005L245.83378940972221,41.23989374999999L245.83520729166668,37.966499999999996L245.8366251736111,40.91686874999999L245.8394609375,38.57604375L245.84087881944444,37.06711874999999L245.8422967013889,36.875737499999985L245.84513246527777,37.9819875L245.84655034722223,39.58605L245.84796822916667,38.35036875L245.8493861111111,36.019499999999994L245.85080399305556,37.59922499999999L245.852221875,38.62471875L245.8550576388889,39.589368750000006L245.85789340277776,38.733131250000014L245.8607291666667,40.737656249999986L245.86498281250002,38.71100625L245.86640069444442,38.08486875L245.86781857638888,40.51308750000001L245.86923645833335,37.672237499999994L245.87065434027778,36.594750000000005L245.87207222222222,39.3979875L245.8749079861111,37.514043749999985L245.87632586805555,38.382450000000006L245.87774375,37.531743750000004L245.87916163194444,39.62476874999999L245.88057951388888,41.598318750000004L245.88199739583334,37.379081249999984L245.88341527777777,39.73871249999999L245.88483315972223,38.00411249999999L245.88625104166667,40.128112499999986L245.8876689236111,38.79065625000001L245.8905046875,38.652375000000006L245.89192256944443,40.490962499999995L245.8933404513889,38.80614374999999L245.89617621527776,39.50308125000001L245.89759409722222,38.363643749999994L245.8990119791667,40.26418125000001L245.9004298611111,38.42669999999998L245.90184774305555,39.172312500000004L245.90326562500002,39.42896249999998L245.90468350694442,39.42896249999998L245.90610138888889,42.10055625000001L245.90751927083335,39.71326875L245.90893715277775,39.65684999999999" style="fill: none;" fill="none"></path></g></g></g></g></g></g><g transform="translate(74, 177)" clip-path="url(#clip_1)"><clipPath id="clip_1"><rect width="255" height="23"></rect></clipPath><g><g><line x1="0" y1="0" x2="0" y2="5" style="visibility: inherit;" fill="rgb(0, 0, 0)" stroke="rgb(204, 204, 204)" stroke-width="1px"></line><line x1="28.357638888888886" y1="0" x2="28.357638888888886" y2="5" style="visibility: inherit;" fill="rgb(0, 0, 0)" stroke="rgb(204, 204, 204)" stroke-width="1px"></line><line x1="56.71527777777777" y1="0" x2="56.71527777777777" y2="5" style="visibility: inherit;" fill="rgb(0, 0, 0)" stroke="rgb(204, 204, 204)" stroke-width="1px"></line><line x1="85.07291666666666" y1="0" x2="85.07291666666666" y2="5" style="visibility: inherit;" fill="rgb(0, 0, 0)" stroke="rgb(204, 204, 204)" stroke-width="1px"></line><line x1="113.43055555555554" y1="0" x2="113.43055555555554" y2="5" style="visibility: inherit;" fill="rgb(0, 0, 0)" stroke="rgb(204, 204, 204)" stroke-width="1px"></line><line x1="141.78819444444446" y1="0" x2="141.78819444444446" y2="5" style="visibility: inherit;" fill="rgb(0, 0, 0)" stroke="rgb(204, 204, 204)" stroke-width="1px"></line><line x1="170.14583333333331" y1="0" x2="170.14583333333331" y2="5" style="visibility: inherit;" fill="rgb(0, 0, 0)" stroke="rgb(204, 204, 204)" stroke-width="1px"></line><line x1="198.50347222222223" y1="0" x2="198.50347222222223" y2="5" style="visibility: inherit;" fill="rgb(0, 0, 0)" stroke="rgb(204, 204, 204)" stroke-width="1px"></line><line x1="226.8611111111111" y1="0" x2="226.8611111111111" y2="5" style="visibility: inherit;" fill="rgb(0, 0, 0)" stroke="rgb(204, 204, 204)" stroke-width="1px"></line><line x1="255.21875" y1="0" x2="255.21875" y2="5" style="visibility: inherit;" fill="rgb(0, 0, 0)" stroke="rgb(204, 204, 204)" stroke-width="1px"></line></g><g transform="translate(0, 8)"><text x="0" y="0" dx="0em" dy="0.95em" style="text-anchor: middle; visibility: hidden; font-family: &quot;Helvetica Neue&quot;, sans-serif; font-size: 12px; font-weight: 200;" fill="rgb(50, 49, 63)" stroke="none" stroke-width="1px">-20k</text><text x="28.357638888888886" y="0" dx="0em" dy="0.95em" style="text-anchor: middle; visibility: inherit; font-family: &quot;Helvetica Neue&quot;, sans-serif; font-size: 12px; font-weight: 200;" fill="rgb(50, 49, 63)" stroke="none" stroke-width="1px">0</text><text x="56.71527777777777" y="0" dx="0em" dy="0.95em" style="text-anchor: middle; visibility: hidden; font-family: &quot;Helvetica Neue&quot;, sans-serif; font-size: 12px; font-weight: 200;" fill="rgb(50, 49, 63)" stroke="none" stroke-width="1px">20k</text><text x="85.07291666666666" y="0" dx="0em" dy="0.95em" style="text-anchor: middle; visibility: inherit; font-family: &quot;Helvetica Neue&quot;, sans-serif; font-size: 12px; font-weight: 200;" fill="rgb(50, 49, 63)" stroke="none" stroke-width="1px">40k</text><text x="113.43055555555554" y="0" dx="0em" dy="0.95em" style="text-anchor: middle; visibility: hidden; font-family: &quot;Helvetica Neue&quot;, sans-serif; font-size: 12px; font-weight: 200;" fill="rgb(50, 49, 63)" stroke="none" stroke-width="1px">60k</text><text x="141.78819444444446" y="0" dx="0em" dy="0.95em" style="text-anchor: middle; visibility: inherit; font-family: &quot;Helvetica Neue&quot;, sans-serif; font-size: 12px; font-weight: 200;" fill="rgb(50, 49, 63)" stroke="none" stroke-width="1px">80k</text><text x="170.14583333333331" y="0" dx="0em" dy="0.95em" style="text-anchor: middle; visibility: hidden; font-family: &quot;Helvetica Neue&quot;, sans-serif; font-size: 12px; font-weight: 200;" fill="rgb(50, 49, 63)" stroke="none" stroke-width="1px">100k</text><text x="198.50347222222223" y="0" dx="0em" dy="0.95em" style="text-anchor: middle; visibility: inherit; font-family: &quot;Helvetica Neue&quot;, sans-serif; font-size: 12px; font-weight: 200;" fill="rgb(50, 49, 63)" stroke="none" stroke-width="1px">120k</text><text x="226.8611111111111" y="0" dx="0em" dy="0.95em" style="text-anchor: middle; visibility: hidden; font-family: &quot;Helvetica Neue&quot;, sans-serif; font-size: 12px; font-weight: 200;" fill="rgb(50, 49, 63)" stroke="none" stroke-width="1px">140k</text><text x="255.21875" y="0" dx="0em" dy="0.95em" style="text-anchor: middle; visibility: hidden; font-family: &quot;Helvetica Neue&quot;, sans-serif; font-size: 12px; font-weight: 200;" fill="rgb(50, 49, 63)" stroke="none" stroke-width="1px">160k</text></g><line x1="0" y1="0" x2="255.21875" y2="0" fill="rgb(0, 0, 0)" stroke="rgb(204, 204, 204)" stroke-width="1px"></line></g></g></g></g></svg>