<svg viewBox="0 0 330 200" xmlns="http://www.w3.org/2000/svg"><g><g><g><g><g><line x1="63.984375" y1="177" x2="58.984375" y2="177" style="visibility: inherit;" fill="rgb(0, 0, 0)" stroke="rgb(204, 204, 204)" stroke-width="1px"></line><line x1="63.984375" y1="160.9090909091" x2="58.984375" y2="160.9090909091" style="visibility: inherit;" fill="rgb(0, 0, 0)" stroke="rgb(204, 204, 204)" stroke-width="1px"></line><line x1="63.984375" y1="144.81818181818574" x2="58.984375" y2="144.81818181818574" style="visibility: inherit;" fill="rgb(0, 0, 0)" stroke="rgb(204, 204, 204)" stroke-width="1px"></line><line x1="63.984375" y1="128.72727272727144" x2="58.984375" y2="128.72727272727144" style="visibility: inherit;" fill="rgb(0, 0, 0)" stroke="rgb(204, 204, 204)" stroke-width="1px"></line><line x1="63.984375" y1="112.63636363637144" x2="58.984375" y2="112.63636363637144" style="visibility: inherit;" fill="rgb(0, 0, 0)" stroke="rgb(204, 204, 204)" stroke-width="1px"></line><line x1="63.984375" y1="96.54545454545715" x2="58.984375" y2="96.54545454545715" style="visibility: inherit;" fill="rgb(0, 0, 0)" stroke="rgb(204, 204, 204)" stroke-width="1px"></line><line x1="63.984375" y1="80.45454545455715" x2="58.984375" y2="80.45454545455715" style="visibility: inherit;" fill="rgb(0, 0, 0)" stroke="rgb(204, 204, 204)" stroke-width="1px"></line><line x1="63.984375" y1="64.36363636364285" x2="58.984375" y2="64.36363636364285" style="visibility: inherit;" fill="rgb(0, 0, 0)" stroke="rgb(204, 204, 204)" stroke-width="1px"></line><line x1="63.984375" y1="48.27272727272856" x2="58.984375" y2="48.27272727272856" style="visibility: inherit;" fill="rgb(0, 0, 0)" stroke="rgb(204, 204, 204)" stroke-width="1px"></line><line x1="63.984375" y1="32.18181818182856" x2="58.984375" y2="32.18181818182856" style="visibility: inherit;" fill="rgb(0, 0, 0)" stroke="rgb(204, 204, 204)" stroke-width="1px"></line><line x1="63.984375" y1="16.090909090914295" x2="58.984375" y2="16.090909090914295" style="visibility: inherit;" fill="rgb(0, 0, 0)" stroke="rgb(204, 204, 204)" stroke-width="1px"></line><line x1="63.984375" y1="0" x2="58.984375" y2="0" style="visibility: inherit;" fill="rgb(0, 0, 0)" stroke="rgb(204, 204, 204)" stroke-width="1px"></line></g><g transform="translate(53.984375, 0)"><text x="0" y="177" dx="0em" dy="0.3em" style="text-anchor: end; visibility: hidden; font-family: &quot;Helvetica Neue&quot;, sans-serif; font-size: 12px; font-weight: 200;" fill="rgb(50, 49, 63)" stroke="none" stroke-width="1px">-10</text><text x="0" y="160.9090909091" dx="0em" dy="0.3em" style="text-anchor: end; visibility: inherit; font-family: &quot;Helvetica Neue&quot;, sans-serif; font-size: 12px; font-weight: 200;" fill="rgb(50, 49, 63)" stroke="none" stroke-width="1px">-10</text><text x="0" y="144.81818181818574" dx="0em" dy="0.3em" style="text-anchor: end; visibility: hidden; font-family: &quot;Helvetica Neue&quot;, sans-serif; font-size: 12px; font-weight: 200;" fill="rgb(50, 49, 63)" stroke="none" stroke-width="1px">-10</text><text x="0" y="128.72727272727144" dx="0em" dy="0.3em" style="text-anchor: end; visibility: inherit; font-family: &quot;Helvetica Neue&quot;, sans-serif; font-size: 12px; font-weight: 200;" fill="rgb(50, 49, 63)" stroke="none" stroke-width="1px">-10</text><text x="0" y="112.63636363637144" dx="0em" dy="0.3em" style="text-anchor: end; visibility: hidden; font-family: &quot;Helvetica Neue&quot;, sans-serif; font-size: 12px; font-weight: 200;" fill="rgb(50, 49, 63)" stroke="none" stroke-width="1px">-10</text><text x="0" y="96.54545454545715" dx="0em" dy="0.3em" style="text-anchor: end; visibility: inherit; font-family: &quot;Helvetica Neue&quot;, sans-serif; font-size: 12px; font-weight: 200;" fill="rgb(50, 49, 63)" stroke="none" stroke-width="1px">-9.99</text><text x="0" y="80.45454545455715" dx="0em" dy="0.3em" style="text-anchor: end; visibility: hidden; font-family: &quot;Helvetica Neue&quot;, sans-serif; font-size: 12px; font-weight: 200;" fill="rgb(50, 49, 63)" stroke="none" stroke-width="1px">-9.99</text><text x="0" y="64.36363636364285" dx="0em" dy="0.3em" style="text-anchor: end; visibility: inherit; font-family: &quot;Helvetica Neue&quot;, sans-serif; font-size: 12px; font-weight: 200;" fill="rgb(50, 49, 63)" stroke="none" stroke-width="1px">-9.99</text><text x="0" y="48.27272727272856" dx="0em" dy="0.3em" style="text-anchor: end; visibility: hidden; font-family: &quot;Helvetica Neue&quot;, sans-serif; font-size: 12px; font-weight: 200;" fill="rgb(50, 49, 63)" stroke="none" stroke-width="1px">-9.99</text><text x="0" y="32.18181818182856" dx="0em" dy="0.3em" style="text-anchor: end; visibility: inherit; font-family: &quot;Helvetica Neue&quot;, sans-serif; font-size: 12px; font-weight: 200;" fill="rgb(50, 49, 63)" stroke="none" stroke-width="1px">-9.99</text><text x="0" y="16.090909090914295" dx="0em" dy="0.3em" style="text-anchor: end; visibility: hidden; font-family: &quot;Helvetica Neue&quot;, sans-serif; font-size: 12px; font-weight: 200;" fill="rgb(50, 49, 63)" stroke="none" stroke-width="1px">-9.98</text><text x="0" y="0" dx="0em" dy="0.3em" style="text-anchor: end; visibility: hidden; font-family: &quot;Helvetica Neue&quot;, sans-serif; font-size: 12px; font-weight: 200;" fill="rgb(50, 49, 63)" stroke="none" stroke-width="1px">-9.98</text></g><line x1="63.984375" y1="0" x2="63.984375" y2="177" fill="rgb(0, 0, 0)" stroke="rgb(204, 204, 204)" stroke-width="1px"></line></g></g><g transform="translate(63, 0)" clip-path="url(#clip_0)"><clipPath id="clip_0"><rect width="266" height="177"></rect></clipPath><g><g><g><line x1="0" y1="0" x2="0" y2="177" fill="rgb(0, 0, 0)" stroke="rgb(60, 60, 60)" stroke-width="1px" opacity="0.25"></line><line x1="26.6015625" y1="0" x2="26.6015625" y2="177" fill="rgb(0, 0, 0)" stroke="rgb(60, 60, 60)" stroke-width="1px" opacity="0.25"></line><line x1="53.203125" y1="0" x2="53.203125" y2="177" fill="rgb(0, 0, 0)" stroke="rgb(60, 60, 60)" stroke-width="1px" opacity="0.25"></line><line x1="79.8046875" y1="0" x2="79.8046875" y2="177" fill="rgb(0, 0, 0)" stroke="rgb(60, 60, 60)" stroke-width="1px" opacity="0.25"></line><line x1="106.40625" y1="0" x2="106.40625" y2="177" fill="rgb(0, 0, 0)" stroke="rgb(60, 60, 60)" stroke-width="1px" opacity="0.25"></line><line x1="133.0078125" y1="0" x2="133.0078125" y2="177" fill="rgb(0, 0, 0)" stroke="rgb(60, 60, 60)" stroke-width="1px" opacity="0.25"></line><line x1="159.609375" y1="0" x2="159.609375" y2="177" fill="rgb(0, 0, 0)" stroke="rgb(60, 60, 60)" stroke-width="1px" opacity="0.25"></line><line x1="186.2109375" y1="0" x2="186.2109375" y2="177" fill="rgb(0, 0, 0)" stroke="rgb(60, 60, 60)" stroke-width="1px" opacity="0.25"></line><line x1="212.8125" y1="0" x2="212.8125" y2="177" fill="rgb(0, 0, 0)" stroke="rgb(60, 60, 60)" stroke-width="1px" opacity="0.25"></line><line x1="239.4140625" y1="0" x2="239.4140625" y2="177" fill="rgb(0, 0, 0)" stroke="rgb(60, 60, 60)" stroke-width="1px" opacity="0.25"></line><line x1="266.015625" y1="0" x2="266.015625" y2="177" fill="rgb(0, 0, 0)" stroke="rgb(60, 60, 60)" stroke-width="1px" opacity="0.25"></line></g><g><line x1="0" y1="177" x2="266.015625" y2="177" fill="rgb(0, 0, 0)" stroke="rgb(60, 60, 60)" stroke-width="1px" opacity="0.25"></line><line x1="0" y1="160.9090909091" x2="266.015625" y2="160.9090909091" fill="rgb(0, 0, 0)" stroke="rgb(60, 60, 60)" stroke-width="1px" opacity="0.25"></line><line x1="0" y1="144.81818181818574" x2="266.015625" y2="144.81818181818574" fill="rgb(0, 0, 0)" stroke="rgb(60, 60, 60)" stroke-width="1px" opacity="0.25"></line><line x1="0" y1="128.72727272727144" x2="266.015625" y2="128.72727272727144" fill="rgb(0, 0, 0)" stroke="rgb(60, 60, 60)" stroke-width="1px" opacity="0.25"></line><line x1="0" y1="112.63636363637144" x2="266.015625" y2="112.63636363637144" fill="rgb(0, 0, 0)" stroke="rgb(60, 60, 60)" stroke-width="1px" opacity="0.25"></line><line x1="0" y1="96.54545454545715" x2="266.015625" y2="96.54545454545715" fill="rgb(0, 0, 0)" stroke="rgb(60, 60, 60)" stroke-width="1px" opacity="0.25"></line><line x1="0" y1="80.45454545455715" x2="266.015625" y2="80.45454545455715" fill="rgb(0, 0, 0)" stroke="rgb(60, 60, 60)" stroke-width="1px" opacity="0.25"></line><line x1="0" y1="64.36363636364285" x2="266.015625" y2="64.36363636364285" fill="rgb(0, 0, 0)" stroke="rgb(60, 60, 60)" stroke-width="1px" opacity="0.25"></line><line x1="0" y1="48.27272727272856" x2="266.015625" y2="48.27272727272856" fill="rgb(0, 0, 0)" stroke="rgb(60, 60, 60)" stroke-width="1px" opacity="0.25"></line><line x1="0" y1="32.18181818182856" x2="266.015625" y2="32.18181818182856" fill="rgb(0, 0, 0)" stroke="rgb(60, 60, 60)" stroke-width="1px" opacity="0.25"></line><line x1="0" y1="16.090909090914295" x2="266.015625" y2="16.090909090914295" fill="rgb(0, 0, 0)" stroke="rgb(60, 60, 60)" stroke-width="1px" opacity="0.25"></line><line x1="0" y1="0" x2="266.015625" y2="0" fill="rgb(0, 0, 0)" stroke="rgb(60, 60, 60)" stroke-width="1px" opacity="0.25"></line></g></g></g><g><g><line x1="0" y1="-80309.72727272638" x2="266.015625" y2="-80309.72727272638" fill="rgb(0, 0, 0)" stroke="rgb(153, 153, 153)" stroke-width="1.5px"></line></g></g><g><g><line x1="26.6015625" y1="0" x2="26.6015625" y2="177" fill="rgb(0, 0, 0)" stroke="rgb(153, 153, 153)" stroke-width="1.5px"></line></g></g><g><g><g><g><g><path stroke="rgb(255, 112, 67)" stroke-width="2px" d="M27.247980468749997,144.81818181818574L27.580499999999997,144.81818181818574L27.725478515625,52.0431063401616L28.385197265625,79.02044727590614L28.507564453125,95.08787775190055L28.715056640625,105.70133391565427L29.119400390625003,113.19924755707177L29.181914062500002,118.75097957607596L29.47187109375,123.00629693064649L29.606208984375,87.75357634003885L30.63169921875,96.06973586582085L30.816580078125,102.86327718765924L30.91899609375,108.48866601343775L30.981509765625,113.19924755708607L31.54679296875,117.18093514917722L32.093455078125004,120.57326547398792L32.528390625,123.48302258958977L33.269244140625005,125.99332080803055L33.47540625,128.16981962568065L33.5020078125,130.06507460489837L33.82920703125,131.721645656068L33.874429687500005,133.1743581739638L34.466314453125,134.4519749200008L34.772232421874996,135.57845056526497L34.829425781249995,136.57388578464725L34.852037109375,137.45526181507884L34.933171875,138.23701240670664L35.18056640625,138.9314738216312L35.546337890625,139.54924231225385L35.6194921875,140.09946065573007L35.973292968749995,140.59004974784642L36.360345703125,141.02789725384616L36.533255859375004,141.41901240210134L36.83784375,141.76865386541954L37.49490234375,142.0814360860753L37.727666015625005,142.36141820839575L37.89924609375,142.61217888235745L38.221125,142.83687951388413L38.529703125,143.03831800967362L38.573595703125,143.21897465525754L39.297158203125,143.38105144579401L39.600416015625,143.5265059391622L39.720123046875,143.6570805024176L39.861111328125,143.77432766618767L40.061953125,143.8796321753073L40.131117187499996,143.9742302230806L40.411763671875,144.05922627497864L40.4716171875,93.5295263340576L41.140646484375,98.68793105844063L41.396021484375,103.32485379183262L41.65538671875,107.49352253793933L42.542548828125,111.2416351792738L42.6210234375,114.61195246942273L42.936251953125,117.64282396867691L44.924718750000004,120.36865514678249L44.9406796875,122.82032275363694L45.311771484374994,125.02554460850457L45.575126953125,127.00920915120864L45.604388671875,128.79366941065965L45.81055078125,130.39900545682244L45.960849609375,131.8432588974311L46.07390625,133.1426425442096L46.57135546875,134.31172799754404L46.599287109375,135.3636135721188L46.605937499999996,136.31007470235312L47.070134765625,137.1616987190896L47.837589843749996,137.92800567323775L47.946656250000004,138.61755669269945L48.682189453125,139.23805119264802L48.746033203124995,139.7964141135445L48.940224609375,140.2988742317786L49.365849609375,140.7510344747463L49.5480703125,141.15793507147785L49.5906328125,141.52411028016422L49.83802734375,141.85363935594086L50.012267578125,142.15019235124367L50.163896484374995,142.4170712790708L50.656025390625004,142.65724711358706L50.8355859375,142.87339305336167L51.225298828125,143.067914427795L51.390228515625,143.24297558860422L51.572449218749995,143.40052409203662L51.600380859375,143.54231244699452L51.69481640625,143.66991767518846L51.783931640625,143.78475890483773L51.906298828124996,143.888113196243L52.120441406249995,143.98112977826185L52.16034375,144.06484285515268L52.62055078125,144.14018312837567L52.85464453125,144.20798816257465L53.0594765625,119.12524241024948L53.3254921875,121.69469489563957L53.48776171875,124.0071720073594L53.958609374999995,126.08837700698413L54.23260546875,102.81826529826868L54.23792578125,107.01842698862032L54.311080078125,110.79854020147809L54.489310546875,114.20061592351738L54.603697265625,117.26246287623435L55.234154296875,120.01810796423231L55.263416015625005,97.35552814023502L55.462927734375,102.1018956248478L55.53076171875,81.23107466251527L55.66376953125,87.5898961928496L55.77549609375,93.31281451499339L55.788796874999996,73.32102359032126L55.965697265624996,80.47083024594404L56.266294921875,86.90563897755915L57.019119140625,92.69695285673741L57.23326171875,97.9091240248189L57.581742187500005,102.60006890435476L57.77061328125,106.821911866837L57.77593359375,110.621564515535L58.165646484374996,114.0412470251479L58.463583984375,117.11895733570262L58.609892578125,119.88889341724524L58.683046874999995,122.38183330028716L58.83999609375,124.62547709685963L59.064779296875,126.64475481427087L59.34010546875,128.46210338331707L59.60878125,130.09771598041533L59.680605468749995,131.5697664146276L59.761740234375,107.75250643174161L59.77105078125,111.45908182354064L59.846865234375,114.79499818405546L59.926669921875,117.79732169991976L60.0822890625,120.49941188522604L60.353625,122.93129225904948L60.413478515625,125.11998395318187L60.612990234375,127.08980595764399L60.7366875,78.57850347462696L60.81915234375,85.20247735027436L60.825802734374996,91.16405269051586L60.966791015625,96.52946956697615L61.188914062500004,101.3583440026832L61.31394140625,105.70433038481555L61.336552734375,109.61571763461981L61.452269531249996,113.13596575921173L62.513671875,116.30418874717242L62.556234375,119.15558917373463L62.645349609375,121.72184934493305L62.812939453125,124.03148332675072L63.919564453125,126.11015377082916L63.922224609375,127.98095705744892L64.190900390625,129.66467992385617L64.225482421875,131.18003042946643L64.403712890625,132.5438458244452L64.44760546875,133.77127963124468L64.789435546875,134.87597001796652L65.164517578125,135.87019133410735L65.27757421875,136.76499049275057L65.49570703125,137.57030971458656L65.587482421875,138.2950969972934L65.858818359375,138.94740553796962L65.91069140625,139.53448321345934L66.010447265625,140.06285311237923L66.324345703125,140.538386014087L66.55444921875001,140.96636561972295L66.590361328125,141.35154726000908L66.744650390625,116.55616407775716L67.05056835937499,119.38236597320142L67.199537109375,121.9259476560532L67.60787109374999,124.21517115192924L67.843294921875,126.27547228308433L67.949701171875,128.12974328885312L67.95901171874999,129.79858718411379L68.3500546875,131.30054668182225L68.367345703125,132.65231022322146L68.52163476562501,133.86889740521144L68.7118359375,134.9638258647278L68.71449609375,135.94926147484966L68.83686328125,136.8361535211382L68.9033671875,137.63435636052407L68.9884921875,138.35273891414346L69.00046289062499,138.99928321090889L69.48062109374999,139.58117307678012L69.59234765625,140.1048739550981L69.6482109375,140.5762047447754L69.803830078125,141.00040245485755L69.813140625,141.38218039340842L70.25206640625,141.72578053768547L70.303939453125,142.03502066718752L70.59256640625,142.31333678346212L70.705623046875,142.56382128789488L71.200412109375,142.78925734169854L71.439826171875,142.99214978997324L71.93328515625,143.17475299330755L72.458666015625,143.33909587620553L72.493248046875,143.4870044707394L72.50920898437501,143.62012220575986L72.59034375,143.73992816721398L72.78054492187499,143.84775353248264L72.902912109375,143.9447963611987L73.195529296875,118.8900894190914L73.246072265625,121.48289866208927L73.533369140625,98.67438149863364L73.86455859374999,103.2887615350564L74.046779296875,107.44170356698224L74.073380859375,111.1793513950438L74.5216171875,114.54323443972469L74.70782812499999,117.57072917949301L75.368876953125,120.29547444492292L75.398138671875,122.74774518350401L76.2347578125,124.95478884799117L76.275990234375,126.9411281458481L76.448900390625,103.58678804978594L76.48082226562501,107.70992742801077L76.5965390625,111.4207528681473L77.395916015625,89.61845030265495L77.82819140625,95.13842345556144L77.84814257812499,100.10639929292289L78.20593359374999,104.57757754634383L78.22721484375,108.60163797424259L78.398794921875,112.22329235922572L79.52537109375,115.48278130560763L79.65837890625,118.41632135724845L80.08799414062501,121.05650740365516L80.4803671875,123.43267484535832L80.585443359375,100.42918008589784L80.72377148437499,104.86808025951537L81.567041015625,108.8630904156868L81.878279296875,112.45859955619966L82.226759765625,115.6945577825955L82.52070703125,106.03589745833169L82.97160351562499,109.91412589451575L83.241609375,113.40453148704569L83.2682109375,116.54589652028116L83.386587890625,119.37312505018166L83.70314648437501,121.91763072707496L83.90398828125001,124.20768583625892L84.01438476562501,126.26873543450448L84.139412109375,128.12368007292548L84.158033203125,129.7931302474944L84.977361328125,81.01154449452278L85.57589648437501,87.39220822700054L86.28482812499999,93.13480558621623L86.36330273437501,98.30314320948035L86.39921484375,102.95464707040948L86.456408203125,107.1410005452357L86.5295625,110.908718672575L87.461947265625,114.29966498716752L87.78249609375,92.20947121554552L87.874271484375,97.47034227584383L88.00594921875,102.2051262301166L88.087083984375,106.4664317889464L88.172208984375,110.30160679190318L88.44886523437499,113.75326429453716L88.56591210937499,116.85975604692632L89.70179882812499,119.6555986240594L89.7057890625,97.02981148885253L90.138064453125,101.80864852179728L90.473244140625,106.10960185145471L90.529107421875,109.98045984813496L90.694037109375,113.4642320451629L90.72994921875,116.59962702246804L91.159564453125,94.27943704743461L91.438880859375,99.33331152450829L92.04406640625,103.88179855389461L92.18239453125,107.975436880318L92.26884960937501,111.65971137411192L93.3661640625,114.97555841853216L93.367494140625,117.95982075850608L93.38744531249999,120.64565686448407L93.731935546875,97.92086390528618L94.04450390625,102.61059569657327L94.06179492187499,106.83135430873737L94.404955078125,110.63003705968077L94.537962890625,114.04885153553414L94.543283203125,117.12578456380643L94.882453125,119.89502428925579L95.3027578125,122.3873400421545L95.588724609375,124.63042421975763L95.599365234375,126.64919997961044L95.748333984375,103.3240527089085L96.11809570312501,107.4734656198348L96.47455664062501,111.20793723966418L96.559681640625,114.56896169752204L96.8562890625,117.59388370958555L97.001267578125,120.31631352044556L97.09703320312501,122.76650035021386L97.126294921875,124.97166849701247L97.22339062500001,126.9563198291398L97.41226171875,128.7425060280401L97.62640429687501,130.35007360706467L97.9363125,131.7968844281739L98.2714921875,133.09901416717508L98.46701367187501,134.27093093227472L98.59337109375001,135.32565602087726L98.940521484375,111.1328631460572L99.24377929687499,114.5013950132672L99.41801953125,117.53307369377049L99.46856249999999,120.26158450622344L99.47654296875,122.71724423742683L99.55368750000001,124.92733799550984L99.68935546875001,126.91642237777458L100.00857421875,128.7065983218157L100.5273046875,130.31775667144984L100.80662109375,106.62575373156967L100.88376562500001,110.44499654023413L100.9848515625,113.88231506804073L101.153771484375,116.97590174304523L101.4530390625,119.76012975057355L101.621958984375,122.26593495733334L101.63658984375,124.52115964341573L101.637919921875,126.55086186088843L101.9371875,128.3775938566239L102.33355078125,130.02165265279294L102.922775390625,131.5013055693422L103.11031640625,107.69094773967852L103.38165234374999,111.40367114753211L103.41490429687501,114.7451222145989L103.63170703125,117.75242817496043L104.10787499999999,120.4590035392801L104.66384765625,122.89492136717209L104.88996093749999,125.08724741228488L105.003017578125,127.06034085287068L105.16927734375,128.83612494940218L105.56963085937501,130.4343306362891L105.5922421875,131.8727157544802L105.77579296875,133.1672623608536L106.04180859374999,134.33235430658397L106.13225390625,135.38093705775557L106.737439453125,136.32466153378144L106.801283203125,137.17401356222902L107.0287265625,137.9384303878304L107.13513281249999,138.62640553088164L107.157744140625,139.24558315961065L108.64344140625,139.80284302547386L108.91477734375,140.30437690474218L109.2100546875,140.75575739608223L109.575826171875,141.16199983830546L109.682232421875,91.24352712720884L109.748736328125,96.60099259630653L109.83253125,101.42271151849587L109.992140625,105.76225854845772L110.26746679687501,109.66785087543481L110.333970703125,113.18288396971562L110.39781445312501,91.2043683000103L110.62259765625,71.42370419728837L110.748955078125,53.62110650482008L111.05886328125001,62.74081403616235L111.10940624999999,70.94855081437326L111.70395117187499,53.193468460206475L111.770455078125,62.35593979600583L111.77311523437501,70.60216399822382L112.358349609375,78.02376578022573L112.531259765625,84.70320738402745L112.79328515625,90.71470482744755L112.886390625,96.1250525265228L113.049990234375,100.99436545568767L113.12580468750001,105.37674709194175L113.15772656249999,109.32089056457473L113.600642578125,112.87061968994155L113.66315625,116.0653759027631L113.8280859375,118.94065649430823L113.919861328125,121.52840902669024L114.05419921875,98.7153408512889L114.239080078125,103.32562494797858L115.03446679687501,107.47488063500359L115.51462500000001,35.783074389680536L115.52393554687501,46.686585132535356L115.70349609375,56.499744801106104L115.72477734374999,40.18954304826747L115.78862109375,50.65240692525499L115.9349296875,60.06898441455235L116.16503320312499,68.54390415491999L116.29671093750001,76.17133192124797L116.4563203125,83.03601691094605L116.61858984375,89.21423340167144L117.04421484375,94.77462824333143L117.295599609375,99.77898360082258L117.4458984375,104.28290342256747L117.8396015625,108.33643126213217L117.84625195312499,111.98460631773608L118.45409765625,115.2679638677839L118.5312421875,118.22298566282265L118.694841796875,120.8825052783561L118.798587890625,123.27607293234192L118.99676953125,100.28823836637541L119.11514648437499,104.74123271156215L119.30268749999999,108.74892762222451L119.51150976562501,112.3558530418192L119.524810546875,115.60208591945442L119.77885546875,118.52369550933614L119.828068359375,121.15314414022394L119.91053320312501,123.51964790801584L120.21911132812501,125.64950129903997L120.551630859375,127.56636935095311L120.56493164062499,129.2915505976821L120.6061640625,130.8442137197396L120.60882421875,132.24161052958277L120.924052734375,133.49926765844594L121.18341796875,134.6311590744242L121.519927734375,135.6498613487975L121.695498046875,136.56669339573347L122.176986328125,137.39184223798011L122.469603515625,138.13447619600925L122.544087890625,113.66080130367743L122.714337890625,116.77653935512825L122.90852929687499,119.58070360143401L122.96971289062499,122.10445142311488L123.062818359375,124.37582446262627L123.09341015624999,126.42006019817792L123.15858398437501,128.25987236018298L123.190505859375,129.9157033059904L123.392677734375,131.4059511572128L123.56159765625,132.74717422331724L123.7983515625,133.9542749827998L124.672212890625,135.04066566634268L125.13108984374999,136.01841728152556L125.252126953125,136.89839373518728L125.54075390625,137.69037254349428L125.6072578125,138.4031534709677L125.66844140625,139.0446563056952L125.683072265625,139.62200885694568L125.78016796874999,140.1416261530754L126.421265625,140.60928171958787L126.422595703125,141.03017172944482L126.46116796874999,91.12488182923425L126.542302734375,71.35216637358137L126.949306640625,78.69876791804037L126.981228515625,85.31070930805348L127.00383984375,91.26145655907384L127.28581640625,96.6171290849936L127.800556640625,101.43723435832139L128.359189453125,105.77532910431354L129.194478515625,109.67961437569791L129.327486328125,113.19347111995526L129.38201953125,116.35594218977974L129.476455078125,119.20216615262319L129.6506953125,121.76376771917944L129.7464609375,98.92716367452917L130.21198828125,103.51626548889625L130.63229296875,107.64645712182663L130.83180468749998,111.36362959146683L130.904958984375,114.70908481413586L131.30265234375,117.71999451454656L131.846654296875,95.28776779036815L132.080748046875,100.24080919314848L132.125970703125,104.69854645566078L132.149912109375,108.71050999190898L132.16720312500001,112.3212771745338L132.28558007812498,115.57096763890328L133.445408203125,118.49568905684009L133.47466992187498,121.12793833298181L133.775267578125,123.49696268150933L133.82980078125001,125.62908459518127L134.274046875,127.54799431748886L134.355181640625,129.27501306755568L134.663759765625,130.8293299426144L134.751544921875,107.08616967562206L134.919134765625,110.85937088987558L135.171849609375,114.25525198271231L135.387322265625,117.31154496626107L135.493728515625,120.06220865146211L135.602794921875,122.53780596814019L135.932654296875,124.76584355314333L136.086943359375,101.62903192509236L136.18403906249998,105.94794691439742L136.19201953125,109.83497040477768L136.555130859375,113.33329154612134L136.96878515625,116.48178057332635L136.97942578125,119.31542069781229L137.2693828125,121.86569680985104L137.3225859375,124.16094531068023L137.98629492187501,126.22666896142792L138.079400390625,128.0858202471037L138.132603515625,129.75905640420905L138.249650390625,131.2649689456053L138.39196875000002,132.62029023286047L138.5675390625,133.84007939139155L139.473322265625,134.9378896340667L139.598349609375,135.92591885247572L139.6635234375,136.81514514904387L139.678154296875,137.6154488159652L139.84175390625,138.33572211618582L140.130380859375,138.98396808638154L140.59324804687498,139.56738945956766L140.888525390625,140.09246869543375L141.460458984375,140.56504000771181L141.771697265625,140.9903541887649L141.91135546875,141.373136951707L142.04303320312502,141.71764143836344L142.21195312499998,142.0276954763414L142.6269375,142.3067441105258L143.141677734375,142.5578878812961L143.63912695312501,142.78391727498075L144.051451171875,142.9873437293084L144.059431640625,143.17042753819612L144.176478515625,143.33520296620367L144.6114140625,143.48350085141044L144.94393359375,143.61696894809083L144.95457421875,143.7370902351089L144.971865234375,143.84519939341658L145.03437890625,143.94249763590207L145.053,144.0300660541276L145.382859375,144.10887763053196L146.437611328125,144.1798080492959L146.442931640625,144.2436454261906L146.49081445312498,144.30109906539727L146.85525585937498,144.35280734068039L147.347384765625,144.39934478843665L147.405908203125,144.4412284914087L147.879416015625,144.47892382409356L147.92862890625,144.5128496234999L148.06296679687497,144.5433828429642L148.26646875,144.5708627404892L148.28908007812498,144.59559464826742L148.38617578125002,119.47580791071266L149.16826171875,122.01004530145853L149.51275195312502,124.29085895313125L149.63245898437498,126.34359123964097L149.905125,128.19105029749687L150.04345312499998,129.8537634495715L150.39193359375,106.20815983188058L150.42518554687499,84.92711657595734L150.64996875,90.91622310018161L150.73243359375,96.30641897197773L150.973177734375,101.15759525659567L151.08357421875,105.52365391275468L151.15805859375,109.4531067033035L151.829748046875,112.98961421479459L151.981376953125,116.17247097513798L152.079802734375,119.0370420594399L152.10507421875002,96.47311058077216L152.70892968750002,101.30761770451352L152.91243164062502,105.65867411588788L153.28618359375,109.57462488611623L154.08423046875,113.0989805793289L154.36620703124998,116.27090070321887L154.410099609375,119.12562881471985L154.54709765625,96.55283866051981L155.22277734374998,101.37937297628784L155.4222890625,105.72325386047619L155.64175195312498,109.63274665625286L155.668353515625,113.15129017244901L155.72022656250002,116.31797933702697L155.766779296875,94.02595413059765L155.878505859375,99.10517689936076L156.15915234375,103.67647739124897L156.16314257812502,82.64860237939604L156.548865234375,88.86556032327071L156.665912109375,94.4608224727608L156.72310546875,74.35451295275526L157.09552734375,81.40087983929544L157.22720507812502,87.74261003718588L157.24981640625,93.45016721528444L157.2524765625,98.58696867558172L157.626228515625,103.21008998984641L158.17954101562498,107.37089917268891L158.3910234375,111.11562743724431L158.474818359375,114.48588287534272L158.49742968750002,117.51911276963132L159.083994140625,120.24901967449105L159.20237109374997,122.70593588886624L159.741052734375,124.91716048180533L160.666787109375,126.90726261544052L161.2427109375,128.69835453572216L161.350447265625,130.3103372639714L161.6683359375,131.76112171938854L161.701587890625,107.92478227472165L161.80400390625,111.61412222907663L161.97026367187502,114.93452818799611L162.116572265625,117.92289355101936L162.212337890625,120.61242237773743L162.270861328125,123.0329983217851L162.973142578125,125.21151667142945L163.4825625,127.17218318610222L163.58364843750002,128.93678304931487L163.75921875,130.52492292620053L164.199474609375,131.95424881540475L164.35775390625,108.09859666112766L165.22230468749999,86.62850972227828L165.493640625,92.44747693187045L165.75832617187498,97.68454742049771L165.84212109375002,102.39791086026649L165.91128515625,106.639937956057L165.95916796875002,110.45776234227844L165.98709960937498,113.89380428986775L166.199912109375,116.98624204269811L167.003279296875,94.62739056570312L167.2014609375,99.6464696909571L167.35575,104.16364090367996L167.394322265625,108.22909499512768L167.444865234375,111.88800367743347L167.785365234375,115.18102149151727L168.46769531249998,118.14473752418841L168.527548828125,120.81208195359386L168.80021484374998,123.21269194005733L169.088841796875,125.37324092786875L169.418701171875,127.31773501690186L169.43998242187502,129.06777969703023L169.664765625,130.64281990914722L169.84565625000002,132.06035610005966L170.14758398437502,133.33613867187225L170.44153125,134.48434298650932L170.63439257812502,110.37568141512321L170.92301953125002,88.67788600087428L171.367265625,94.2919155826097L171.37790625,99.34454220616445L171.452390625,103.89190616736371L171.69313476562502,107.98453373245164L171.8939765625,111.66789854102362L172.613548828125,114.98292686874554L172.74788671875,117.96645236368526L173.635048828125,120.65162530913675L173.78800781249998,123.06828096003736L173.946287109375,125.24327104584933L174.08993554687498,102.0587166685278L174.58871484374998,106.33466318349787L174.624626953125,110.18301504696237L174.6818203125,113.64653172409184L174.880001953125,91.6216512789489L174.95847656249998,96.94130433287259L175.199220703125,101.72899208140105L175.612875,80.89586560053147L175.901501953125,62.14605176774457L175.957365234375,70.41326477278582L176.13559570312498,77.8537564773344L176.73147070312498,84.5501990114181L176.776693359375,90.57699729209772L177.191677734375,96.00111574470367L177.2728125,100.88282235205044L177.327345703125,105.27635829866111L177.63193359374998,109.23054065062215L178.27303125,112.78930476738279L178.31160351562502,115.99219247246594L178.624171875,118.87479140703792L178.77048046875,121.46913044816127L178.795751953125,123.80403558516801L179.48872265625002,125.90545020846692L180.02474414062502,127.79672336943594L180.198984375,129.49886921431806L180.80816015625,131.0308004747077L180.8427421875,107.26749315450174L180.96776953124998,111.02256202087727L180.982400390625,114.40212400061098L181.667390625,117.4437297823656L181.80571875,120.1811749859519L181.858921875,97.50283021463297L181.985279296875,102.23436537498966L182.16483984375,106.49274701931499L182.2685859375,110.32529049920349L182.58248437499998,113.77457963111029L182.8644609375,116.8789398498221L182.998798828125,119.67286404666277L183.381861328125,122.18739582382364L183.512208984375,124.45047442325841L183.795515625,126.48724516274828L184.0136484375,128.3203388283006L185.036478515625,129.97012312728768L185.37298828125,131.45492899637605L185.3862890625,132.79125427855274L186.201626953125,133.99394703252318L186.27478125,109.93432505653998L186.675134765625,113.42271073270311L186.68178515625002,116.56225784124709L186.717697265625,119.3878502389438L186.85203515625,121.93088339686514L187.052876953125,124.21961323900149L187.17524414062498,101.13742464236759L187.457220703125,105.50550035994654L187.829642578125,109.43676850577188L188.06639648437502,112.97490983701469L188.32576171875,116.15923703513036L188.611728515625,119.02513151343734L188.77798828125,121.60443654391217L189.26745703125,123.9258110713424L189.319330078125,126.01504814602671L189.431056640625,127.8953615132512L190.0256015625,129.5876435437518L190.12402734375,131.1106973712009L190.392703125,132.48144581590796L190.497779296875,133.71511941613286L190.80901757812498,134.82542565634387L190.894142578125,135.82470127253663L191.08168359375,111.58200387254635L191.56982226562502,114.90562166710887L192.28274414062503,117.8968776822137L192.498216796875,120.58900809581804L192.74694140625002,123.01192546805765L193.926720703125,125.19255110306761L193.9626328125,127.15511417457657L193.966623046875,128.92142093894319L194.3244140625,130.51109702686603L194.82186328125,131.9418055060037L195.16768359375,133.22944313721763L195.34059374999998,134.38831700532015L195.40842773437498,135.43130348660813L195.538775390625,136.3699913197659L195.945779296875,137.21481036960643L196.312880859375,137.97514751446866L196.5376640625,138.65945094484323L196.67865234374997,139.27532403217606L197.174771484375,139.82960981077844L197.5059609375,140.3284670115163L197.978138671875,140.77743849218325L198.12045703125,141.18151282478493L198.30134765625,141.54517972413072L198.60992578125,141.87247993354336L198.611255859375,142.16705012201476L199.020919921875,142.43216329162755L199.0275703125,142.67076514428481L199.50905859375,142.8855068116706L199.534330078125,143.0787743123207L199.5383203125,143.25271506290863L199.951974609375,143.40926173844062L200.011828125,143.55015374641084L200.15547656249998,143.6769565535869L200.178087890625,143.7910790800425L200.188728515625,143.8937893538597L200.361638671875,143.98622860030085L201.3365859375,118.92737846753559L202.16788476562502,121.51645880260918L202.340794921875,123.84663110416969L202.35010546875,125.94378617557558L202.39665820312499,127.83122573983374L202.699916015625,129.52992134766464L203.27051953125,131.05874739472247L205.211103515625,132.43469083706452L205.747125,133.67303993517234L205.76840625,109.64550866892277L206.336349609375,113.16277598385764L206.35763085937498,91.1862711127367L206.472017578125,71.40741672872785L206.54251171874998,78.74849323767363L206.642267578125,85.3554620957277L206.7207421875,91.30173406798208L206.85108984375,96.65337884299959L207.85662890625,76.32781368597016L207.959044921875,83.17685049919315L208.205109375,89.34098363110098L208.29289453125,94.88870344980516L208.545609375,99.88165128664893L209.015126953125,104.37530433979975L209.29178320312502,108.41959208764406L209.31971484374998,112.05945106070395L209.37823828125,90.19327868190551L209.940861328125,95.65576899554068L210.26540039062502,100.57201027781376L210.76151953125,104.99662743185525L210.98630273437502,83.83673741593881L211.21241601562502,64.79283640160834L211.5835078125,47.65332548871373L211.818931640625,57.36981112165951L211.896076171875,66.11464819130785L212.142140625,73.98500155399992L212.215294921875,81.0683195804228L212.397515625,87.44330580419908L212.96944921875001,93.18079340560203L213.170291015625,98.34453224686754L213.399064453125,102.99189720400365L213.66375,82.0324802108724L213.830009765625,88.31105037160373L214.378001953125,93.96176351625905L214.87678125000002,99.04740534645316L215.16141796875002,103.624482993625L215.319697265625,107.74385287608678L215.468666015625,111.45128577029524L215.483296875,114.78797537508714L215.6588671875,117.79099601940558L215.763943359375,120.49371459928216L216.2228203125,122.92616132117394L216.36247851562499,125.11536337087941L216.43829296874998,127.08564521561718L216.49681640625,128.85889887586976L216.833326171875,105.31278171554904L216.951703125,109.26332172581127L217.36668749999998,112.81880773504443L217.55023828125002,116.0187451433614L217.676595703125,118.89868881084669L218.122171875,121.49063811158774L218.503904296875,123.82339248225611L218.75927929687498,125.9228714158505L218.77391015625,127.81240245607975L219.001353515625,129.5129803922889L219.0745078125,131.04350053488574L219.735556640625,132.42096866322004L219.847283203125,133.66068997871946L219.90713671875,134.77643916267465L220.589466796875,135.7806134282229L220.61606835937502,136.6843702672163L220.839521484375,137.49775142231897L221.12016796875,138.22979446191422L221.2558359375,138.8886331975471L221.73200390625,139.4815880596181L221.82377929687502,140.01524743547057L221.84373046874998,140.49554087374352L222.124376953125,140.9278049681963L222.33851953125,141.3168426531924L223.0221796875,141.66697656969887L223.111294921875,141.98209709454613L223.35469921875,117.12366011235919L223.42652343749998,119.8931122829447L223.48105664062498,122.38561923647595L223.70983007812498,124.62887549465407L224.425412109375,126.64780612701153L224.784533203125,128.4648436961318L225.271341796875,130.10017750833862L225.7887421875,131.57197793932335L225.953671875,132.89659832720815L226.109291015625,108.94671122176072L226.311462890625,112.53385828140608L226.489693359375,115.76229063509119L226.630681640625,118.66787975340779L227.15872265624998,96.14086450533611L227.16138281250002,101.00859623662822L227.1826640625,105.38955479477968L227.46065039062498,109.33241749712744L228.434267578125,112.88099392923897L228.64575,116.07471271813364L228.8000390625,118.94905962813456L228.98625,96.39392639259022L229.51828125,101.23635193515548L229.656609375,55.31044401437529L230.02637109375,39.11917234021402L230.06361328125,49.68907328801117L230.11681640625,59.201984141034345L230.56239257812499,67.76360390874949L230.67943945312498,75.46906169969883L230.684759765625,82.40397371155466L230.708701171875,63.5033490676626L230.83638867187503,71.63483234271204L230.908212890625,78.953167290258L231.019939453125,85.53966874305077L231.2899453125,91.46752005056854L231.304576171875,96.8025862273374L231.4601953125,101.6041457864308L231.477486328125,105.92554938961058L231.480146484375,59.53072172337774L231.522708984375,68.05946773285996L231.7368515625,50.59329368684021L231.81000585937502,60.01578249997334L231.8645390625,68.49602243179028L231.982916015625,76.1282383704327L232.411201171875,82.99723271521371L232.440462890625,89.17932762551806L232.61337304687498,94.74321304478053L233.13343359375,99.75070992212248L233.21323828125,104.25745711173738L233.21589843750002,108.31352958238222L233.22387890625,111.96399480595971L233.233189453125,115.24941350717944L233.23983984375,93.06424488373776L233.249150390625,98.23963857717827L233.26644140624998,102.89749290128186L233.274421875,107.08956179297368L233.27708203125,110.8624237955006L233.29836328124998,114.25799959777626L233.30235351562501,117.31401781981863L233.305013671875,120.06443421965392L233.30634375000002,122.53980897950424L233.331615234375,124.76764626337095L233.3435859375,126.77269981885243L233.359546875,128.57724801879434L233.363537109375,130.20134139873062L233.36752734375,131.6630254406761L233.384818359375,132.97854107843278L233.395458984375,134.1625051524124L233.406099609375,135.22807281898685L233.40742968749998,136.1870837189096L233.411419921875,137.05019352883292L233.414080078125,137.82699235776676L233.41541015624998,138.5261113038058L233.43403125,139.15531835524095L233.444671875,114.57955924698595L233.464623046875,117.6034215041145L233.47393359375,120.32489753552736L233.4819140625,122.77422596380175L233.48590429687502,124.9786215492473L233.49521484375,126.96257757614256L233.512505859375,128.74813800035116L233.515166015625,105.2130969275823L233.51649609375,109.1736054166455L233.51782617187502,112.73806305680095L233.525806640625,115.94607493294515L233.549748046875,93.69124016691973L233.571029296875,98.80393433205205L233.58033984375,103.40535908066113L233.58699023437498,107.54664135442073L233.5883203125,111.27379540079724L233.59630078125,114.62823404254179L233.60827148437502,117.64722882010476L233.613591796875,120.36432411992L233.61625195312502,122.80970988975372L233.624232421875,125.01055708259406L233.62822265625,126.99131955615894L233.658814453125,128.77400578236018L233.66546484375,130.37842338593845L233.6734453125,131.8223992291589L233.682755859375,133.12197748806014L233.688076171875,134.291597921077L233.69206640625,135.344256310795L233.712017578125,136.29164886154265L233.72265820312498,112.00225670265893L233.727978515625,115.28384921421733L233.72930859375,118.23728247461987L233.75324999999998,120.89537240897504L233.75724023437502,123.28765334990038L233.75857031249998,125.44070619672749L233.76123046875,127.37845375888189L233.763890625,129.122426564818L233.765220703125,130.69200209015332L233.770541015625,132.1046200629537L233.77187109374998,133.37597623848262L233.786501953125,134.52019679645866L233.794482421875,110.4079498440819L233.799802734375,113.84897304149085L233.83039453125,116.94589391916034L233.84768554687503,94.5910772545177L233.858326171875,99.61378771088022L233.866306640625,104.13422712160789L233.86896679687501,108.20262259126424L233.870296875,111.86417851395211L233.88359765625,115.15957884437262L233.884927734375,118.12543914176248L233.90487890625,120.79471340940626L233.908869140625,123.1970602502842L233.92350000000002,125.35917240707434L233.92483007812498,127.30507334818691L233.92882031250002,129.05638419518823L233.94212109375002,130.63256395749227L233.951431640625,132.0511257435616L233.95675195312498,133.32783135102116L233.96207226562498,134.4768663977462L233.97404296875,135.51099793979728L233.980693359375,136.44171632763755L233.983353515625,137.27936287669525L233.986013671875,138.03324477084143L233.997984375,138.71173847558015L234.004634765625,139.32238280983785L234.01128515624998,139.87196271067836L234.02990625,115.22453916687533L234.031236328125,118.18390343200208L234.033896484375,120.84733127062759L234.04054687500002,123.24441632538769L234.052517578125,125.40179287467606L234.06049804687498,127.3434317690256L234.07778906250002,103.94886131939786L234.08975976562502,108.03579336928523L234.092419921875,86.57198675962152L234.097740234375,92.39660626547794L234.0990703125,97.63876382074729L234.104390625,102.35670562049256L234.11237109375,106.60285324026616L234.1203515625,110.42438609805527L234.12700195312502,88.72172021552456L234.1309921875,94.33136637579783L234.13365234375,99.38004792004375L234.148283203125,103.92386130985508L234.153603515625,108.01329336069101L234.16557421875,111.69378220644334L234.17089453125,89.86417671307096L234.17621484375002,95.35957722358387L234.182865234375,100.30543768304835L234.189515625,104.75671209655923L234.198826171875,108.7628590687276L234.2054765625,112.36839134367197L234.20813671875,115.61337039112763L234.210796875,118.5338515338363L234.21212695312502,96.02023910771607L234.22409765625,100.90003337875874L234.22542773437502,105.29184822269715L234.22675781249998,109.24448158224457L234.23473828125,112.80185160583584L234.25069921875,116.00348462707368L234.257349609375,118.88495434618488L234.267990234375,121.47827709338068L234.270650390625,123.81226756585832L234.283951171875,125.91285899109964L234.286611328125,127.80339127381681L234.3065625,129.5048703282494L234.321193359375,131.0362014772416L234.323853515625,132.4143995113389L234.32917382812502,133.65477774202213L234.331833984375,134.77111814964422L234.345134765625,135.7758245165041L234.349125,136.6800602466737L234.359765625,137.49387240382202L234.377056640625,113.08425789071035L234.37971679687502,116.25765028345504L234.39434765625,119.11370343692525L234.403658203125,121.68415127504986L234.4076484375,98.85550887481969L234.41296875,103.45177616916487L234.419619140625,107.58841673406695L234.43158984375,111.3113932424874L234.446220703125,114.66207210005294L234.45553125,117.67768307187194L234.46484179687502,120.39173294649903L234.47814257812502,97.69233237911823L234.4821328125,102.40491732303356L234.487453125,106.6462437725502L234.488783203125,110.46343757711519L234.49543359375,113.89891200122366L234.50341406249998,116.99083898292415L234.50607421874997,119.77357326645031L234.51937500000003,122.27803412161956L234.520705078125,124.53204889127332L234.5353359375,126.56066218397314" style="fill: none;" fill="none"></path></g></g></g></g><g opacity="0.2"><g><g><g><path stroke="rgb(255, 112, 67)" stroke-width="2px" d="M27.247980468749997,144.81818181818574L27.580499999999997,144.81818181818574L27.725478515625,-106.60227272726604L28.385197265625,144.81818181818574L28.507564453125,144.81818181818574L28.715056640625,144.81818181818574L29.119400390625003,144.81818181818574L29.181914062500002,144.81818181818574L29.47187109375,144.81818181818574L29.606208984375,-106.60227272726604L30.63169921875,144.81818181818574L30.816580078125,144.81818181818574L30.91899609375,144.81818181818574L30.981509765625,144.81818181818574L31.54679296875,144.81818181818574L32.093455078125004,144.81818181818574L32.528390625,144.81818181818574L33.269244140625005,144.81818181818574L33.47540625,144.81818181818574L33.5020078125,144.81818181818574L33.82920703125,144.81818181818574L33.874429687500005,144.81818181818574L34.466314453125,144.81818181818574L34.772232421874996,144.81818181818574L34.829425781249995,144.81818181818574L34.852037109375,144.81818181818574L34.933171875,144.81818181818574L35.18056640625,144.81818181818574L35.546337890625,144.81818181818574L35.6194921875,144.81818181818574L35.973292968749995,144.81818181818574L36.360345703125,144.81818181818574L36.533255859375004,144.81818181818574L36.83784375,144.81818181818574L37.49490234375,144.81818181818574L37.727666015625005,144.81818181818574L37.89924609375,144.81818181818574L38.221125,144.81818181818574L38.529703125,144.81818181818574L38.573595703125,144.81818181818574L39.297158203125,144.81818181818574L39.600416015625,144.81818181818574L39.720123046875,144.81818181818574L39.861111328125,144.81818181818574L40.061953125,144.81818181818574L40.131117187499996,144.81818181818574L40.411763671875,144.81818181818574L40.4716171875,-358.02272727271793L41.140646484375,144.81818181818574L41.396021484375,144.81818181818574L41.65538671875,144.81818181818574L42.542548828125,144.81818181818574L42.6210234375,144.81818181818574L42.936251953125,144.81818181818574L44.924718750000004,144.81818181818574L44.9406796875,144.81818181818574L45.311771484374994,144.81818181818574L45.575126953125,144.81818181818574L45.604388671875,144.81818181818574L45.81055078125,144.81818181818574L45.960849609375,144.81818181818574L46.07390625,144.81818181818574L46.57135546875,144.81818181818574L46.599287109375,144.81818181818574L46.605937499999996,144.81818181818574L47.070134765625,144.81818181818574L47.837589843749996,144.81818181818574L47.946656250000004,144.81818181818574L48.682189453125,144.81818181818574L48.746033203124995,144.81818181818574L48.940224609375,144.81818181818574L49.365849609375,144.81818181818574L49.5480703125,144.81818181818574L49.5906328125,144.81818181818574L49.83802734375,144.81818181818574L50.012267578125,144.81818181818574L50.163896484374995,144.81818181818574L50.656025390625004,144.81818181818574L50.8355859375,144.81818181818574L51.225298828125,144.81818181818574L51.390228515625,144.81818181818574L51.572449218749995,144.81818181818574L51.600380859375,144.81818181818574L51.69481640625,144.81818181818574L51.783931640625,144.81818181818574L51.906298828124996,144.81818181818574L52.120441406249995,144.81818181818574L52.16034375,144.81818181818574L52.62055078125,144.81818181818574L52.85464453125,144.81818181818574L53.0594765625,-106.60227272726604L53.3254921875,144.81818181818574L53.48776171875,144.81818181818574L53.958609374999995,144.81818181818574L54.23260546875,-106.60227272726604L54.23792578125,144.81818181818574L54.311080078125,144.81818181818574L54.489310546875,144.81818181818574L54.603697265625,144.81818181818574L55.234154296875,144.81818181818574L55.263416015625005,-106.60227272726604L55.462927734375,144.81818181818574L55.53076171875,-106.60227272726604L55.66376953125,144.81818181818574L55.77549609375,144.81818181818574L55.788796874999996,-106.60227272726604L55.965697265624996,144.81818181818574L56.266294921875,144.81818181818574L57.019119140625,144.81818181818574L57.23326171875,144.81818181818574L57.581742187500005,144.81818181818574L57.77061328125,144.81818181818574L57.77593359375,144.81818181818574L58.165646484374996,144.81818181818574L58.463583984375,144.81818181818574L58.609892578125,144.81818181818574L58.683046874999995,144.81818181818574L58.83999609375,144.81818181818574L59.064779296875,144.81818181818574L59.34010546875,144.81818181818574L59.60878125,144.81818181818574L59.680605468749995,144.81818181818574L59.761740234375,-106.60227272726604L59.77105078125,144.81818181818574L59.846865234375,144.81818181818574L59.926669921875,144.81818181818574L60.0822890625,144.81818181818574L60.353625,144.81818181818574L60.413478515625,144.81818181818574L60.612990234375,144.81818181818574L60.7366875,-358.02272727271793L60.81915234375,144.81818181818574L60.825802734374996,144.81818181818574L60.966791015625,144.81818181818574L61.188914062500004,144.81818181818574L61.31394140625,144.81818181818574L61.336552734375,144.81818181818574L61.452269531249996,144.81818181818574L62.513671875,144.81818181818574L62.556234375,144.81818181818574L62.645349609375,144.81818181818574L62.812939453125,144.81818181818574L63.919564453125,144.81818181818574L63.922224609375,144.81818181818574L64.190900390625,144.81818181818574L64.225482421875,144.81818181818574L64.403712890625,144.81818181818574L64.44760546875,144.81818181818574L64.789435546875,144.81818181818574L65.164517578125,144.81818181818574L65.27757421875,144.81818181818574L65.49570703125,144.81818181818574L65.587482421875,144.81818181818574L65.858818359375,144.81818181818574L65.91069140625,144.81818181818574L66.010447265625,144.81818181818574L66.324345703125,144.81818181818574L66.55444921875001,144.81818181818574L66.590361328125,144.81818181818574L66.744650390625,-106.60227272726604L67.05056835937499,144.81818181818574L67.199537109375,144.81818181818574L67.60787109374999,144.81818181818574L67.843294921875,144.81818181818574L67.949701171875,144.81818181818574L67.95901171874999,144.81818181818574L68.3500546875,144.81818181818574L68.367345703125,144.81818181818574L68.52163476562501,144.81818181818574L68.7118359375,144.81818181818574L68.71449609375,144.81818181818574L68.83686328125,144.81818181818574L68.9033671875,144.81818181818574L68.9884921875,144.81818181818574L69.00046289062499,144.81818181818574L69.48062109374999,144.81818181818574L69.59234765625,144.81818181818574L69.6482109375,144.81818181818574L69.803830078125,144.81818181818574L69.813140625,144.81818181818574L70.25206640625,144.81818181818574L70.303939453125,144.81818181818574L70.59256640625,144.81818181818574L70.705623046875,144.81818181818574L71.200412109375,144.81818181818574L71.439826171875,144.81818181818574L71.93328515625,144.81818181818574L72.458666015625,144.81818181818574L72.493248046875,144.81818181818574L72.50920898437501,144.81818181818574L72.59034375,144.81818181818574L72.78054492187499,144.81818181818574L72.902912109375,144.81818181818574L73.195529296875,-106.60227272726604L73.246072265625,144.81818181818574L73.533369140625,-106.60227272726604L73.86455859374999,144.81818181818574L74.046779296875,144.81818181818574L74.073380859375,144.81818181818574L74.5216171875,144.81818181818574L74.70782812499999,144.81818181818574L75.368876953125,144.81818181818574L75.398138671875,144.81818181818574L76.2347578125,144.81818181818574L76.275990234375,144.81818181818574L76.448900390625,-106.60227272726604L76.48082226562501,144.81818181818574L76.5965390625,144.81818181818574L77.395916015625,-106.60227272726604L77.82819140625,144.81818181818574L77.84814257812499,144.81818181818574L78.20593359374999,144.81818181818574L78.22721484375,144.81818181818574L78.398794921875,144.81818181818574L79.52537109375,144.81818181818574L79.65837890625,144.81818181818574L80.08799414062501,144.81818181818574L80.4803671875,144.81818181818574L80.585443359375,-106.60227272726604L80.72377148437499,144.81818181818574L81.567041015625,144.81818181818574L81.878279296875,144.81818181818574L82.226759765625,144.81818181818574L82.52070703125,19.10795454545982L82.97160351562499,144.81818181818574L83.241609375,144.81818181818574L83.2682109375,144.81818181818574L83.386587890625,144.81818181818574L83.70314648437501,144.81818181818574L83.90398828125001,144.81818181818574L84.01438476562501,144.81818181818574L84.139412109375,144.81818181818574L84.158033203125,144.81818181818574L84.977361328125,-358.02272727271793L85.57589648437501,144.81818181818574L86.28482812499999,144.81818181818574L86.36330273437501,144.81818181818574L86.39921484375,144.81818181818574L86.456408203125,144.81818181818574L86.5295625,144.81818181818574L87.461947265625,144.81818181818574L87.78249609375,-106.60227272726604L87.874271484375,144.81818181818574L88.00594921875,144.81818181818574L88.087083984375,144.81818181818574L88.172208984375,144.81818181818574L88.44886523437499,144.81818181818574L88.56591210937499,144.81818181818574L89.70179882812499,144.81818181818574L89.7057890625,-106.60227272726604L90.138064453125,144.81818181818574L90.473244140625,144.81818181818574L90.529107421875,144.81818181818574L90.694037109375,144.81818181818574L90.72994921875,144.81818181818574L91.159564453125,-106.60227272726604L91.438880859375,144.81818181818574L92.04406640625,144.81818181818574L92.18239453125,144.81818181818574L92.26884960937501,144.81818181818574L93.3661640625,144.81818181818574L93.367494140625,144.81818181818574L93.38744531249999,144.81818181818574L93.731935546875,-106.60227272726604L94.04450390625,144.81818181818574L94.06179492187499,144.81818181818574L94.404955078125,144.81818181818574L94.537962890625,144.81818181818574L94.543283203125,144.81818181818574L94.882453125,144.81818181818574L95.3027578125,144.81818181818574L95.588724609375,144.81818181818574L95.599365234375,144.81818181818574L95.748333984375,-106.60227272726604L96.11809570312501,144.81818181818574L96.47455664062501,144.81818181818574L96.559681640625,144.81818181818574L96.8562890625,144.81818181818574L97.001267578125,144.81818181818574L97.09703320312501,144.81818181818574L97.126294921875,144.81818181818574L97.22339062500001,144.81818181818574L97.41226171875,144.81818181818574L97.62640429687501,144.81818181818574L97.9363125,144.81818181818574L98.2714921875,144.81818181818574L98.46701367187501,144.81818181818574L98.59337109375001,144.81818181818574L98.940521484375,-106.60227272726604L99.24377929687499,144.81818181818574L99.41801953125,144.81818181818574L99.46856249999999,144.81818181818574L99.47654296875,144.81818181818574L99.55368750000001,144.81818181818574L99.68935546875001,144.81818181818574L100.00857421875,144.81818181818574L100.5273046875,144.81818181818574L100.80662109375,-106.60227272726604L100.88376562500001,144.81818181818574L100.9848515625,144.81818181818574L101.153771484375,144.81818181818574L101.4530390625,144.81818181818574L101.621958984375,144.81818181818574L101.63658984375,144.81818181818574L101.637919921875,144.81818181818574L101.9371875,144.81818181818574L102.33355078125,144.81818181818574L102.922775390625,144.81818181818574L103.11031640625,-106.60227272726604L103.38165234374999,144.81818181818574L103.41490429687501,144.81818181818574L103.63170703125,144.81818181818574L104.10787499999999,144.81818181818574L104.66384765625,144.81818181818574L104.88996093749999,144.81818181818574L105.003017578125,144.81818181818574L105.16927734375,144.81818181818574L105.56963085937501,144.81818181818574L105.5922421875,144.81818181818574L105.77579296875,144.81818181818574L106.04180859374999,144.81818181818574L106.13225390625,144.81818181818574L106.737439453125,144.81818181818574L106.801283203125,144.81818181818574L107.0287265625,144.81818181818574L107.13513281249999,144.81818181818574L107.157744140625,144.81818181818574L108.64344140625,144.81818181818574L108.91477734375,144.81818181818574L109.2100546875,144.81818181818574L109.575826171875,144.81818181818574L109.682232421875,-358.02272727271793L109.748736328125,144.81818181818574L109.83253125,144.81818181818574L109.992140625,144.81818181818574L110.26746679687501,144.81818181818574L110.333970703125,144.81818181818574L110.39781445312501,-106.60227272726604L110.748955078125,-106.60227272726604L111.05886328125001,144.81818181818574L111.10940624999999,144.81818181818574L111.70395117187499,-106.60227272726604L111.770455078125,144.81818181818574L111.77311523437501,144.81818181818574L112.358349609375,144.81818181818574L112.531259765625,144.81818181818574L112.79328515625,144.81818181818574L112.886390625,144.81818181818574L113.049990234375,144.81818181818574L113.12580468750001,144.81818181818574L113.15772656249999,144.81818181818574L113.600642578125,144.81818181818574L113.66315625,144.81818181818574L113.8280859375,144.81818181818574L113.919861328125,144.81818181818574L114.05419921875,-106.60227272726604L114.239080078125,144.81818181818574L115.03446679687501,144.81818181818574L115.51462500000001,-609.4431818181696L115.52393554687501,144.81818181818574L115.70349609375,144.81818181818574L115.72477734374999,-106.60227272726604L115.78862109375,144.81818181818574L115.9349296875,144.81818181818574L116.16503320312499,144.81818181818574L116.29671093750001,144.81818181818574L116.4563203125,144.81818181818574L116.61858984375,144.81818181818574L117.04421484375,144.81818181818574L117.295599609375,144.81818181818574L117.4458984375,144.81818181818574L117.8396015625,144.81818181818574L117.84625195312499,144.81818181818574L118.45409765625,144.81818181818574L118.5312421875,144.81818181818574L118.694841796875,144.81818181818574L118.798587890625,144.81818181818574L118.99676953125,-106.60227272726604L119.11514648437499,144.81818181818574L119.30268749999999,144.81818181818574L119.51150976562501,144.81818181818574L119.524810546875,144.81818181818574L119.77885546875,144.81818181818574L119.828068359375,144.81818181818574L119.91053320312501,144.81818181818574L120.21911132812501,144.81818181818574L120.551630859375,144.81818181818574L120.56493164062499,144.81818181818574L120.6061640625,144.81818181818574L120.60882421875,144.81818181818574L120.924052734375,144.81818181818574L121.18341796875,144.81818181818574L121.519927734375,144.81818181818574L121.695498046875,144.81818181818574L122.176986328125,144.81818181818574L122.469603515625,144.81818181818574L122.544087890625,-106.60227272726604L122.714337890625,144.81818181818574L122.90852929687499,144.81818181818574L122.96971289062499,144.81818181818574L123.062818359375,144.81818181818574L123.09341015624999,144.81818181818574L123.15858398437501,144.81818181818574L123.190505859375,144.81818181818574L123.392677734375,144.81818181818574L123.56159765625,144.81818181818574L123.7983515625,144.81818181818574L124.672212890625,144.81818181818574L125.13108984374999,144.81818181818574L125.252126953125,144.81818181818574L125.54075390625,144.81818181818574L125.6072578125,144.81818181818574L125.66844140625,144.81818181818574L125.683072265625,144.81818181818574L125.78016796874999,144.81818181818574L126.421265625,144.81818181818574L126.422595703125,144.81818181818574L126.46116796874999,-358.02272727271793L126.542302734375,-106.60227272726604L126.949306640625,144.81818181818574L126.981228515625,144.81818181818574L127.00383984375,144.81818181818574L127.28581640625,144.81818181818574L127.800556640625,144.81818181818574L128.359189453125,144.81818181818574L129.194478515625,144.81818181818574L129.327486328125,144.81818181818574L129.38201953125,144.81818181818574L129.476455078125,144.81818181818574L129.6506953125,144.81818181818574L129.7464609375,-106.60227272726604L130.21198828125,144.81818181818574L130.63229296875,144.81818181818574L130.83180468749998,144.81818181818574L130.904958984375,144.81818181818574L131.30265234375,144.81818181818574L131.846654296875,-106.60227272726604L132.080748046875,144.81818181818574L132.125970703125,144.81818181818574L132.149912109375,144.81818181818574L132.16720312500001,144.81818181818574L132.28558007812498,144.81818181818574L133.445408203125,144.81818181818574L133.47466992187498,144.81818181818574L133.775267578125,144.81818181818574L133.82980078125001,144.81818181818574L134.274046875,144.81818181818574L134.355181640625,144.81818181818574L134.663759765625,144.81818181818574L134.751544921875,-106.60227272726604L134.919134765625,144.81818181818574L135.171849609375,144.81818181818574L135.387322265625,144.81818181818574L135.493728515625,144.81818181818574L135.602794921875,144.81818181818574L135.932654296875,144.81818181818574L136.086943359375,-106.60227272726604L136.18403906249998,144.81818181818574L136.19201953125,144.81818181818574L136.555130859375,144.81818181818574L136.96878515625,144.81818181818574L136.97942578125,144.81818181818574L137.2693828125,144.81818181818574L137.3225859375,144.81818181818574L137.98629492187501,144.81818181818574L138.079400390625,144.81818181818574L138.132603515625,144.81818181818574L138.249650390625,144.81818181818574L138.39196875000002,144.81818181818574L138.5675390625,144.81818181818574L139.473322265625,144.81818181818574L139.598349609375,144.81818181818574L139.6635234375,144.81818181818574L139.678154296875,144.81818181818574L139.84175390625,144.81818181818574L140.130380859375,144.81818181818574L140.59324804687498,144.81818181818574L140.888525390625,144.81818181818574L141.460458984375,144.81818181818574L141.771697265625,144.81818181818574L141.91135546875,144.81818181818574L142.04303320312502,144.81818181818574L142.21195312499998,144.81818181818574L142.6269375,144.81818181818574L143.141677734375,144.81818181818574L143.63912695312501,144.81818181818574L144.051451171875,144.81818181818574L144.059431640625,144.81818181818574L144.176478515625,144.81818181818574L144.6114140625,144.81818181818574L144.94393359375,144.81818181818574L144.95457421875,144.81818181818574L144.971865234375,144.81818181818574L145.03437890625,144.81818181818574L145.053,144.81818181818574L145.382859375,144.81818181818574L146.437611328125,144.81818181818574L146.442931640625,144.81818181818574L146.49081445312498,144.81818181818574L146.85525585937498,144.81818181818574L147.347384765625,144.81818181818574L147.405908203125,144.81818181818574L147.879416015625,144.81818181818574L147.92862890625,144.81818181818574L148.06296679687497,144.81818181818574L148.26646875,144.81818181818574L148.28908007812498,144.81818181818574L148.38617578125002,-106.60227272726604L149.16826171875,144.81818181818574L149.51275195312502,144.81818181818574L149.63245898437498,144.81818181818574L149.905125,144.81818181818574L150.04345312499998,144.81818181818574L150.39193359375,-106.60227272726604L150.42518554687499,-106.60227272726604L150.64996875,144.81818181818574L150.73243359375,144.81818181818574L150.973177734375,144.81818181818574L151.08357421875,144.81818181818574L151.15805859375,144.81818181818574L151.829748046875,144.81818181818574L151.981376953125,144.81818181818574L152.079802734375,144.81818181818574L152.10507421875002,-106.60227272726604L152.70892968750002,144.81818181818574L152.91243164062502,144.81818181818574L153.28618359375,144.81818181818574L154.08423046875,144.81818181818574L154.36620703124998,144.81818181818574L154.410099609375,144.81818181818574L154.54709765625,-106.60227272726604L155.22277734374998,144.81818181818574L155.4222890625,144.81818181818574L155.64175195312498,144.81818181818574L155.668353515625,144.81818181818574L155.72022656250002,144.81818181818574L155.766779296875,-106.60227272726604L155.878505859375,144.81818181818574L156.15915234375,144.81818181818574L156.16314257812502,-106.60227272726604L156.548865234375,144.81818181818574L156.665912109375,144.81818181818574L156.72310546875,-106.60227272726604L157.09552734375,144.81818181818574L157.22720507812502,144.81818181818574L157.24981640625,144.81818181818574L157.2524765625,144.81818181818574L157.626228515625,144.81818181818574L158.17954101562498,144.81818181818574L158.3910234375,144.81818181818574L158.474818359375,144.81818181818574L158.49742968750002,144.81818181818574L159.083994140625,144.81818181818574L159.20237109374997,144.81818181818574L159.741052734375,144.81818181818574L160.666787109375,144.81818181818574L161.2427109375,144.81818181818574L161.350447265625,144.81818181818574L161.6683359375,144.81818181818574L161.701587890625,-106.60227272726604L161.80400390625,144.81818181818574L161.97026367187502,144.81818181818574L162.116572265625,144.81818181818574L162.212337890625,144.81818181818574L162.270861328125,144.81818181818574L162.973142578125,144.81818181818574L163.4825625,144.81818181818574L163.58364843750002,144.81818181818574L163.75921875,144.81818181818574L164.199474609375,144.81818181818574L164.35775390625,-106.60227272726604L165.22230468749999,-106.60227272726604L165.493640625,144.81818181818574L165.75832617187498,144.81818181818574L165.84212109375002,144.81818181818574L165.91128515625,144.81818181818574L165.95916796875002,144.81818181818574L165.98709960937498,144.81818181818574L166.199912109375,144.81818181818574L167.003279296875,-106.60227272726604L167.2014609375,144.81818181818574L167.35575,144.81818181818574L167.394322265625,144.81818181818574L167.444865234375,144.81818181818574L167.785365234375,144.81818181818574L168.46769531249998,144.81818181818574L168.527548828125,144.81818181818574L168.80021484374998,144.81818181818574L169.088841796875,144.81818181818574L169.418701171875,144.81818181818574L169.43998242187502,144.81818181818574L169.664765625,144.81818181818574L169.84565625000002,144.81818181818574L170.14758398437502,144.81818181818574L170.44153125,144.81818181818574L170.63439257812502,-106.60227272726604L170.92301953125002,-106.60227272726604L171.367265625,144.81818181818574L171.37790625,144.81818181818574L171.452390625,144.81818181818574L171.69313476562502,144.81818181818574L171.8939765625,144.81818181818574L172.613548828125,144.81818181818574L172.74788671875,144.81818181818574L173.635048828125,144.81818181818574L173.78800781249998,144.81818181818574L173.946287109375,144.81818181818574L174.08993554687498,-106.60227272726604L174.58871484374998,144.81818181818574L174.624626953125,144.81818181818574L174.6818203125,144.81818181818574L174.880001953125,-106.60227272726604L174.95847656249998,144.81818181818574L175.199220703125,144.81818181818574L175.612875,-106.60227272726604L175.901501953125,-106.60227272726604L175.957365234375,144.81818181818574L176.13559570312498,144.81818181818574L176.73147070312498,144.81818181818574L176.776693359375,144.81818181818574L177.191677734375,144.81818181818574L177.2728125,144.81818181818574L177.327345703125,144.81818181818574L177.63193359374998,144.81818181818574L178.27303125,144.81818181818574L178.31160351562502,144.81818181818574L178.624171875,144.81818181818574L178.77048046875,144.81818181818574L178.795751953125,144.81818181818574L179.48872265625002,144.81818181818574L180.02474414062502,144.81818181818574L180.198984375,144.81818181818574L180.80816015625,144.81818181818574L180.8427421875,-106.60227272726604L180.96776953124998,144.81818181818574L180.982400390625,144.81818181818574L181.667390625,144.81818181818574L181.80571875,144.81818181818574L181.858921875,-106.60227272726604L181.985279296875,144.81818181818574L182.16483984375,144.81818181818574L182.2685859375,144.81818181818574L182.58248437499998,144.81818181818574L182.8644609375,144.81818181818574L182.998798828125,144.81818181818574L183.381861328125,144.81818181818574L183.512208984375,144.81818181818574L183.795515625,144.81818181818574L184.0136484375,144.81818181818574L185.036478515625,144.81818181818574L185.37298828125,144.81818181818574L185.3862890625,144.81818181818574L186.201626953125,144.81818181818574L186.27478125,-106.60227272726604L186.675134765625,144.81818181818574L186.68178515625002,144.81818181818574L186.717697265625,144.81818181818574L186.85203515625,144.81818181818574L187.052876953125,144.81818181818574L187.17524414062498,-106.60227272726604L187.457220703125,144.81818181818574L187.829642578125,144.81818181818574L188.06639648437502,144.81818181818574L188.32576171875,144.81818181818574L188.611728515625,144.81818181818574L188.77798828125,144.81818181818574L189.26745703125,144.81818181818574L189.319330078125,144.81818181818574L189.431056640625,144.81818181818574L190.0256015625,144.81818181818574L190.12402734375,144.81818181818574L190.392703125,144.81818181818574L190.497779296875,144.81818181818574L190.80901757812498,144.81818181818574L190.894142578125,144.81818181818574L191.08168359375,-106.60227272726604L191.56982226562502,144.81818181818574L192.28274414062503,144.81818181818574L192.498216796875,144.81818181818574L192.74694140625002,144.81818181818574L193.926720703125,144.81818181818574L193.9626328125,144.81818181818574L193.966623046875,144.81818181818574L194.3244140625,144.81818181818574L194.82186328125,144.81818181818574L195.16768359375,144.81818181818574L195.34059374999998,144.81818181818574L195.40842773437498,144.81818181818574L195.538775390625,144.81818181818574L195.945779296875,144.81818181818574L196.312880859375,144.81818181818574L196.5376640625,144.81818181818574L196.67865234374997,144.81818181818574L197.174771484375,144.81818181818574L197.5059609375,144.81818181818574L197.978138671875,144.81818181818574L198.12045703125,144.81818181818574L198.30134765625,144.81818181818574L198.60992578125,144.81818181818574L198.611255859375,144.81818181818574L199.020919921875,144.81818181818574L199.0275703125,144.81818181818574L199.50905859375,144.81818181818574L199.534330078125,144.81818181818574L199.5383203125,144.81818181818574L199.951974609375,144.81818181818574L200.011828125,144.81818181818574L200.15547656249998,144.81818181818574L200.178087890625,144.81818181818574L200.188728515625,144.81818181818574L200.361638671875,144.81818181818574L201.3365859375,-106.60227272726604L202.16788476562502,144.81818181818574L202.340794921875,144.81818181818574L202.35010546875,144.81818181818574L202.39665820312499,144.81818181818574L202.699916015625,144.81818181818574L203.27051953125,144.81818181818574L205.211103515625,144.81818181818574L205.747125,144.81818181818574L205.76840625,-106.60227272726604L206.336349609375,144.81818181818574L206.35763085937498,-106.60227272726604L206.472017578125,-106.60227272726604L206.54251171874998,144.81818181818574L206.642267578125,144.81818181818574L206.7207421875,144.81818181818574L206.85108984375,144.81818181818574L207.85662890625,-106.60227272726604L207.959044921875,144.81818181818574L208.205109375,144.81818181818574L208.29289453125,144.81818181818574L208.545609375,144.81818181818574L209.015126953125,144.81818181818574L209.29178320312502,144.81818181818574L209.31971484374998,144.81818181818574L209.37823828125,-106.60227272726604L209.940861328125,144.81818181818574L210.26540039062502,144.81818181818574L210.76151953125,144.81818181818574L210.98630273437502,-106.60227272726604L211.5835078125,-106.60227272726604L211.818931640625,144.81818181818574L211.896076171875,144.81818181818574L212.142140625,144.81818181818574L212.215294921875,144.81818181818574L212.397515625,144.81818181818574L212.96944921875001,144.81818181818574L213.170291015625,144.81818181818574L213.399064453125,144.81818181818574L213.66375,-106.60227272726604L213.830009765625,144.81818181818574L214.378001953125,144.81818181818574L214.87678125000002,144.81818181818574L215.16141796875002,144.81818181818574L215.319697265625,144.81818181818574L215.468666015625,144.81818181818574L215.483296875,144.81818181818574L215.6588671875,144.81818181818574L215.763943359375,144.81818181818574L216.2228203125,144.81818181818574L216.36247851562499,144.81818181818574L216.43829296874998,144.81818181818574L216.49681640625,144.81818181818574L216.833326171875,-106.60227272726604L216.951703125,144.81818181818574L217.36668749999998,144.81818181818574L217.55023828125002,144.81818181818574L217.676595703125,144.81818181818574L218.122171875,144.81818181818574L218.503904296875,144.81818181818574L218.75927929687498,144.81818181818574L218.77391015625,144.81818181818574L219.001353515625,144.81818181818574L219.0745078125,144.81818181818574L219.735556640625,144.81818181818574L219.847283203125,144.81818181818574L219.90713671875,144.81818181818574L220.589466796875,144.81818181818574L220.61606835937502,144.81818181818574L220.839521484375,144.81818181818574L221.12016796875,144.81818181818574L221.2558359375,144.81818181818574L221.73200390625,144.81818181818574L221.82377929687502,144.81818181818574L221.84373046874998,144.81818181818574L222.124376953125,144.81818181818574L222.33851953125,144.81818181818574L223.0221796875,144.81818181818574L223.111294921875,144.81818181818574L223.35469921875,-106.60227272726604L223.42652343749998,144.81818181818574L223.48105664062498,144.81818181818574L223.70983007812498,144.81818181818574L224.425412109375,144.81818181818574L224.784533203125,144.81818181818574L225.271341796875,144.81818181818574L225.7887421875,144.81818181818574L225.953671875,144.81818181818574L226.109291015625,-106.60227272726604L226.311462890625,144.81818181818574L226.489693359375,144.81818181818574L226.630681640625,144.81818181818574L227.15872265624998,-106.60227272726604L227.16138281250002,144.81818181818574L227.1826640625,144.81818181818574L227.46065039062498,144.81818181818574L228.434267578125,144.81818181818574L228.64575,144.81818181818574L228.8000390625,144.81818181818574L228.98625,-106.60227272726604L229.51828125,144.81818181818574L229.656609375,-358.02272727271793L230.02637109375,-106.60227272726604L230.06361328125,144.81818181818574L230.11681640625,144.81818181818574L230.56239257812499,144.81818181818574L230.67943945312498,144.81818181818574L230.684759765625,144.81818181818574L230.708701171875,-106.60227272726604L230.83638867187503,144.81818181818574L230.908212890625,144.81818181818574L231.019939453125,144.81818181818574L231.2899453125,144.81818181818574L231.304576171875,144.81818181818574L231.4601953125,144.81818181818574L231.477486328125,144.81818181818574L231.480146484375,-358.02272727271793L231.522708984375,144.81818181818574L231.7368515625,-106.60227272726604L231.81000585937502,144.81818181818574L231.8645390625,144.81818181818574L231.982916015625,144.81818181818574L232.411201171875,144.81818181818574L232.440462890625,144.81818181818574L232.61337304687498,144.81818181818574L233.13343359375,144.81818181818574L233.21323828125,144.81818181818574L233.21589843750002,144.81818181818574L233.22387890625,144.81818181818574L233.233189453125,144.81818181818574L233.23983984375,-106.60227272726604L233.249150390625,144.81818181818574L233.26644140624998,144.81818181818574L233.274421875,144.81818181818574L233.27708203125,144.81818181818574L233.29836328124998,144.81818181818574L233.30235351562501,144.81818181818574L233.305013671875,144.81818181818574L233.30634375000002,144.81818181818574L233.331615234375,144.81818181818574L233.3435859375,144.81818181818574L233.359546875,144.81818181818574L233.363537109375,144.81818181818574L233.36752734375,144.81818181818574L233.384818359375,144.81818181818574L233.395458984375,144.81818181818574L233.406099609375,144.81818181818574L233.40742968749998,144.81818181818574L233.411419921875,144.81818181818574L233.414080078125,144.81818181818574L233.41541015624998,144.81818181818574L233.43403125,144.81818181818574L233.444671875,-106.60227272726604L233.464623046875,144.81818181818574L233.47393359375,144.81818181818574L233.4819140625,144.81818181818574L233.48590429687502,144.81818181818574L233.49521484375,144.81818181818574L233.512505859375,144.81818181818574L233.515166015625,-106.60227272726604L233.51649609375,144.81818181818574L233.51782617187502,144.81818181818574L233.525806640625,144.81818181818574L233.549748046875,-106.60227272726604L233.571029296875,144.81818181818574L233.58033984375,144.81818181818574L233.58699023437498,144.81818181818574L233.5883203125,144.81818181818574L233.59630078125,144.81818181818574L233.60827148437502,144.81818181818574L233.613591796875,144.81818181818574L233.61625195312502,144.81818181818574L233.624232421875,144.81818181818574L233.62822265625,144.81818181818574L233.658814453125,144.81818181818574L233.66546484375,144.81818181818574L233.6734453125,144.81818181818574L233.682755859375,144.81818181818574L233.688076171875,144.81818181818574L233.69206640625,144.81818181818574L233.712017578125,144.81818181818574L233.72265820312498,-106.60227272726604L233.727978515625,144.81818181818574L233.72930859375,144.81818181818574L233.75324999999998,144.81818181818574L233.75724023437502,144.81818181818574L233.75857031249998,144.81818181818574L233.76123046875,144.81818181818574L233.763890625,144.81818181818574L233.765220703125,144.81818181818574L233.770541015625,144.81818181818574L233.77187109374998,144.81818181818574L233.786501953125,144.81818181818574L233.794482421875,-106.60227272726604L233.799802734375,144.81818181818574L233.83039453125,144.81818181818574L233.84768554687503,-106.60227272726604L233.858326171875,144.81818181818574L233.866306640625,144.81818181818574L233.86896679687501,144.81818181818574L233.870296875,144.81818181818574L233.88359765625,144.81818181818574L233.884927734375,144.81818181818574L233.90487890625,144.81818181818574L233.908869140625,144.81818181818574L233.92350000000002,144.81818181818574L233.92483007812498,144.81818181818574L233.92882031250002,144.81818181818574L233.94212109375002,144.81818181818574L233.951431640625,144.81818181818574L233.95675195312498,144.81818181818574L233.96207226562498,144.81818181818574L233.97404296875,144.81818181818574L233.980693359375,144.81818181818574L233.983353515625,144.81818181818574L233.986013671875,144.81818181818574L233.997984375,144.81818181818574L234.004634765625,144.81818181818574L234.01128515624998,144.81818181818574L234.02990625,-106.60227272726604L234.031236328125,144.81818181818574L234.033896484375,144.81818181818574L234.04054687500002,144.81818181818574L234.052517578125,144.81818181818574L234.06049804687498,144.81818181818574L234.07778906250002,-106.60227272726604L234.08975976562502,144.81818181818574L234.092419921875,-106.60227272726604L234.097740234375,144.81818181818574L234.0990703125,144.81818181818574L234.104390625,144.81818181818574L234.11237109375,144.81818181818574L234.1203515625,144.81818181818574L234.12700195312502,-106.60227272726604L234.1309921875,144.81818181818574L234.13365234375,144.81818181818574L234.148283203125,144.81818181818574L234.153603515625,144.81818181818574L234.16557421875,144.81818181818574L234.17089453125,-106.60227272726604L234.17621484375002,144.81818181818574L234.182865234375,144.81818181818574L234.189515625,144.81818181818574L234.198826171875,144.81818181818574L234.2054765625,144.81818181818574L234.20813671875,144.81818181818574L234.210796875,144.81818181818574L234.21212695312502,-106.60227272726604L234.22409765625,144.81818181818574L234.22542773437502,144.81818181818574L234.22675781249998,144.81818181818574L234.23473828125,144.81818181818574L234.25069921875,144.81818181818574L234.257349609375,144.81818181818574L234.267990234375,144.81818181818574L234.270650390625,144.81818181818574L234.283951171875,144.81818181818574L234.286611328125,144.81818181818574L234.3065625,144.81818181818574L234.321193359375,144.81818181818574L234.323853515625,144.81818181818574L234.32917382812502,144.81818181818574L234.331833984375,144.81818181818574L234.345134765625,144.81818181818574L234.349125,144.81818181818574L234.359765625,144.81818181818574L234.377056640625,-106.60227272726604L234.37971679687502,144.81818181818574L234.39434765625,144.81818181818574L234.403658203125,144.81818181818574L234.4076484375,-106.60227272726604L234.41296875,144.81818181818574L234.419619140625,144.81818181818574L234.43158984375,144.81818181818574L234.446220703125,144.81818181818574L234.45553125,144.81818181818574L234.46484179687502,144.81818181818574L234.47814257812502,-106.60227272726604L234.4821328125,144.81818181818574L234.487453125,144.81818181818574L234.488783203125,144.81818181818574L234.49543359375,144.81818181818574L234.50341406249998,144.81818181818574L234.50607421874997,144.81818181818574L234.51937500000003,144.81818181818574L234.520705078125,144.81818181818574L234.5353359375,144.81818181818574" style="fill: none;" fill="none"></path></g></g></g></g></g></g><g transform="translate(63, 177)" clip-path="url(#clip_1)"><clipPath id="clip_1"><rect width="266" height="23"></rect></clipPath><g><g><line x1="0" y1="0" x2="0" y2="5" style="visibility: inherit;" fill="rgb(0, 0, 0)" stroke="rgb(204, 204, 204)" stroke-width="1px"></line><line x1="26.6015625" y1="0" x2="26.6015625" y2="5" style="visibility: inherit;" fill="rgb(0, 0, 0)" stroke="rgb(204, 204, 204)" stroke-width="1px"></line><line x1="53.203125" y1="0" x2="53.203125" y2="5" style="visibility: inherit;" fill="rgb(0, 0, 0)" stroke="rgb(204, 204, 204)" stroke-width="1px"></line><line x1="79.8046875" y1="0" x2="79.8046875" y2="5" style="visibility: inherit;" fill="rgb(0, 0, 0)" stroke="rgb(204, 204, 204)" stroke-width="1px"></line><line x1="106.40625" y1="0" x2="106.40625" y2="5" style="visibility: inherit;" fill="rgb(0, 0, 0)" stroke="rgb(204, 204, 204)" stroke-width="1px"></line><line x1="133.0078125" y1="0" x2="133.0078125" y2="5" style="visibility: inherit;" fill="rgb(0, 0, 0)" stroke="rgb(204, 204, 204)" stroke-width="1px"></line><line x1="159.609375" y1="0" x2="159.609375" y2="5" style="visibility: inherit;" fill="rgb(0, 0, 0)" stroke="rgb(204, 204, 204)" stroke-width="1px"></line><line x1="186.2109375" y1="0" x2="186.2109375" y2="5" style="visibility: inherit;" fill="rgb(0, 0, 0)" stroke="rgb(204, 204, 204)" stroke-width="1px"></line><line x1="212.8125" y1="0" x2="212.8125" y2="5" style="visibility: inherit;" fill="rgb(0, 0, 0)" stroke="rgb(204, 204, 204)" stroke-width="1px"></line><line x1="239.4140625" y1="0" x2="239.4140625" y2="5" style="visibility: inherit;" fill="rgb(0, 0, 0)" stroke="rgb(204, 204, 204)" stroke-width="1px"></line><line x1="266.015625" y1="0" x2="266.015625" y2="5" style="visibility: inherit;" fill="rgb(0, 0, 0)" stroke="rgb(204, 204, 204)" stroke-width="1px"></line></g><g transform="translate(0, 8)"><text x="0" y="0" dx="0em" dy="0.95em" style="text-anchor: middle; visibility: hidden; font-family: &quot;Helvetica Neue&quot;, sans-serif; font-size: 12px; font-weight: 200;" fill="rgb(50, 49, 63)" stroke="none" stroke-width="1px">-20k</text><text x="26.6015625" y="0" dx="0em" dy="0.95em" style="text-anchor: middle; visibility: inherit; font-family: &quot;Helvetica Neue&quot;, sans-serif; font-size: 12px; font-weight: 200;" fill="rgb(50, 49, 63)" stroke="none" stroke-width="1px">0</text><text x="53.203125" y="0" dx="0em" dy="0.95em" style="text-anchor: middle; visibility: hidden; font-family: &quot;Helvetica Neue&quot;, sans-serif; font-size: 12px; font-weight: 200;" fill="rgb(50, 49, 63)" stroke="none" stroke-width="1px">20k</text><text x="79.8046875" y="0" dx="0em" dy="0.95em" style="text-anchor: middle; visibility: inherit; font-family: &quot;Helvetica Neue&quot;, sans-serif; font-size: 12px; font-weight: 200;" fill="rgb(50, 49, 63)" stroke="none" stroke-width="1px">40k</text><text x="106.40625" y="0" dx="0em" dy="0.95em" style="text-anchor: middle; visibility: hidden; font-family: &quot;Helvetica Neue&quot;, sans-serif; font-size: 12px; font-weight: 200;" fill="rgb(50, 49, 63)" stroke="none" stroke-width="1px">60k</text><text x="133.0078125" y="0" dx="0em" dy="0.95em" style="text-anchor: middle; visibility: inherit; font-family: &quot;Helvetica Neue&quot;, sans-serif; font-size: 12px; font-weight: 200;" fill="rgb(50, 49, 63)" stroke="none" stroke-width="1px">80k</text><text x="159.609375" y="0" dx="0em" dy="0.95em" style="text-anchor: middle; visibility: hidden; font-family: &quot;Helvetica Neue&quot;, sans-serif; font-size: 12px; font-weight: 200;" fill="rgb(50, 49, 63)" stroke="none" stroke-width="1px">100k</text><text x="186.2109375" y="0" dx="0em" dy="0.95em" style="text-anchor: middle; visibility: inherit; font-family: &quot;Helvetica Neue&quot;, sans-serif; font-size: 12px; font-weight: 200;" fill="rgb(50, 49, 63)" stroke="none" stroke-width="1px">120k</text><text x="212.8125" y="0" dx="0em" dy="0.95em" style="text-anchor: middle; visibility: hidden; font-family: &quot;Helvetica Neue&quot;, sans-serif; font-size: 12px; font-weight: 200;" fill="rgb(50, 49, 63)" stroke="none" stroke-width="1px">140k</text><text x="239.4140625" y="0" dx="0em" dy="0.95em" style="text-anchor: middle; visibility: inherit; font-family: &quot;Helvetica Neue&quot;, sans-serif; font-size: 12px; font-weight: 200;" fill="rgb(50, 49, 63)" stroke="none" stroke-width="1px">160k</text><text x="266.015625" y="0" dx="0em" dy="0.95em" style="text-anchor: middle; visibility: hidden; font-family: &quot;Helvetica Neue&quot;, sans-serif; font-size: 12px; font-weight: 200;" fill="rgb(50, 49, 63)" stroke="none" stroke-width="1px">180k</text></g><line x1="0" y1="0" x2="266.015625" y2="0" fill="rgb(0, 0, 0)" stroke="rgb(204, 204, 204)" stroke-width="1px"></line></g></g></g></g></svg>