<svg viewBox="0 0 330 200" xmlns="http://www.w3.org/2000/svg"><g><g><g><g><g><line x1="63.984375" y1="177" x2="58.984375" y2="177" style="visibility: inherit;" fill="rgb(0, 0, 0)" stroke="rgb(204, 204, 204)" stroke-width="1px"></line><line x1="63.984375" y1="159.3" x2="58.984375" y2="159.3" style="visibility: inherit;" fill="rgb(0, 0, 0)" stroke="rgb(204, 204, 204)" stroke-width="1px"></line><line x1="63.984375" y1="141.6" x2="58.984375" y2="141.6" style="visibility: inherit;" fill="rgb(0, 0, 0)" stroke="rgb(204, 204, 204)" stroke-width="1px"></line><line x1="63.984375" y1="123.9" x2="58.984375" y2="123.9" style="visibility: inherit;" fill="rgb(0, 0, 0)" stroke="rgb(204, 204, 204)" stroke-width="1px"></line><line x1="63.984375" y1="106.2" x2="58.984375" y2="106.2" style="visibility: inherit;" fill="rgb(0, 0, 0)" stroke="rgb(204, 204, 204)" stroke-width="1px"></line><line x1="63.984375" y1="88.5" x2="58.984375" y2="88.5" style="visibility: inherit;" fill="rgb(0, 0, 0)" stroke="rgb(204, 204, 204)" stroke-width="1px"></line><line x1="63.984375" y1="70.8" x2="58.984375" y2="70.8" style="visibility: inherit;" fill="rgb(0, 0, 0)" stroke="rgb(204, 204, 204)" stroke-width="1px"></line><line x1="63.984375" y1="53.10000000000001" x2="58.984375" y2="53.10000000000001" style="visibility: inherit;" fill="rgb(0, 0, 0)" stroke="rgb(204, 204, 204)" stroke-width="1px"></line><line x1="63.984375" y1="35.400000000000006" x2="58.984375" y2="35.400000000000006" style="visibility: inherit;" fill="rgb(0, 0, 0)" stroke="rgb(204, 204, 204)" stroke-width="1px"></line><line x1="63.984375" y1="17.69999999999999" x2="58.984375" y2="17.69999999999999" style="visibility: inherit;" fill="rgb(0, 0, 0)" stroke="rgb(204, 204, 204)" stroke-width="1px"></line><line x1="63.984375" y1="0" x2="58.984375" y2="0" style="visibility: inherit;" fill="rgb(0, 0, 0)" stroke="rgb(204, 204, 204)" stroke-width="1px"></line></g><g transform="translate(53.984375, 0)"><text x="0" y="177" dx="0em" dy="0.3em" style="text-anchor: end; visibility: hidden; font-family: &quot;Helvetica Neue&quot;, sans-serif; font-size: 12px; font-weight: 200;" fill="rgb(50, 49, 63)" stroke="none" stroke-width="1px">-25</text><text x="0" y="159.3" dx="0em" dy="0.3em" style="text-anchor: end; visibility: inherit; font-family: &quot;Helvetica Neue&quot;, sans-serif; font-size: 12px; font-weight: 200;" fill="rgb(50, 49, 63)" stroke="none" stroke-width="1px">-24.5</text><text x="0" y="141.6" dx="0em" dy="0.3em" style="text-anchor: end; visibility: hidden; font-family: &quot;Helvetica Neue&quot;, sans-serif; font-size: 12px; font-weight: 200;" fill="rgb(50, 49, 63)" stroke="none" stroke-width="1px">-24</text><text x="0" y="123.9" dx="0em" dy="0.3em" style="text-anchor: end; visibility: inherit; font-family: &quot;Helvetica Neue&quot;, sans-serif; font-size: 12px; font-weight: 200;" fill="rgb(50, 49, 63)" stroke="none" stroke-width="1px">-23.5</text><text x="0" y="106.2" dx="0em" dy="0.3em" style="text-anchor: end; visibility: hidden; font-family: &quot;Helvetica Neue&quot;, sans-serif; font-size: 12px; font-weight: 200;" fill="rgb(50, 49, 63)" stroke="none" stroke-width="1px">-23</text><text x="0" y="88.5" dx="0em" dy="0.3em" style="text-anchor: end; visibility: inherit; font-family: &quot;Helvetica Neue&quot;, sans-serif; font-size: 12px; font-weight: 200;" fill="rgb(50, 49, 63)" stroke="none" stroke-width="1px">-22.5</text><text x="0" y="70.8" dx="0em" dy="0.3em" style="text-anchor: end; visibility: hidden; font-family: &quot;Helvetica Neue&quot;, sans-serif; font-size: 12px; font-weight: 200;" fill="rgb(50, 49, 63)" stroke="none" stroke-width="1px">-22</text><text x="0" y="53.10000000000001" dx="0em" dy="0.3em" style="text-anchor: end; visibility: inherit; font-family: &quot;Helvetica Neue&quot;, sans-serif; font-size: 12px; font-weight: 200;" fill="rgb(50, 49, 63)" stroke="none" stroke-width="1px">-21.5</text><text x="0" y="35.400000000000006" dx="0em" dy="0.3em" style="text-anchor: end; visibility: hidden; font-family: &quot;Helvetica Neue&quot;, sans-serif; font-size: 12px; font-weight: 200;" fill="rgb(50, 49, 63)" stroke="none" stroke-width="1px">-21</text><text x="0" y="17.69999999999999" dx="0em" dy="0.3em" style="text-anchor: end; visibility: inherit; font-family: &quot;Helvetica Neue&quot;, sans-serif; font-size: 12px; font-weight: 200;" fill="rgb(50, 49, 63)" stroke="none" stroke-width="1px">-20.5</text><text x="0" y="0" dx="0em" dy="0.3em" style="text-anchor: end; visibility: hidden; font-family: &quot;Helvetica Neue&quot;, sans-serif; font-size: 12px; font-weight: 200;" fill="rgb(50, 49, 63)" stroke="none" stroke-width="1px">-20</text></g><line x1="63.984375" y1="0" x2="63.984375" y2="177" fill="rgb(0, 0, 0)" stroke="rgb(204, 204, 204)" stroke-width="1px"></line></g></g><g transform="translate(63, 0)" clip-path="url(#clip_0)"><clipPath id="clip_0"><rect width="266" height="177"></rect></clipPath><g><g><g><line x1="0" y1="0" x2="0" y2="177" fill="rgb(0, 0, 0)" stroke="rgb(60, 60, 60)" stroke-width="1px" opacity="0.25"></line><line x1="24.183238636363637" y1="0" x2="24.183238636363637" y2="177" fill="rgb(0, 0, 0)" stroke="rgb(60, 60, 60)" stroke-width="1px" opacity="0.25"></line><line x1="48.36647727272727" y1="0" x2="48.36647727272727" y2="177" fill="rgb(0, 0, 0)" stroke="rgb(60, 60, 60)" stroke-width="1px" opacity="0.25"></line><line x1="72.5497159090909" y1="0" x2="72.5497159090909" y2="177" fill="rgb(0, 0, 0)" stroke="rgb(60, 60, 60)" stroke-width="1px" opacity="0.25"></line><line x1="96.73295454545455" y1="0" x2="96.73295454545455" y2="177" fill="rgb(0, 0, 0)" stroke="rgb(60, 60, 60)" stroke-width="1px" opacity="0.25"></line><line x1="120.91619318181817" y1="0" x2="120.91619318181817" y2="177" fill="rgb(0, 0, 0)" stroke="rgb(60, 60, 60)" stroke-width="1px" opacity="0.25"></line><line x1="145.0994318181818" y1="0" x2="145.0994318181818" y2="177" fill="rgb(0, 0, 0)" stroke="rgb(60, 60, 60)" stroke-width="1px" opacity="0.25"></line><line x1="169.28267045454544" y1="0" x2="169.28267045454544" y2="177" fill="rgb(0, 0, 0)" stroke="rgb(60, 60, 60)" stroke-width="1px" opacity="0.25"></line><line x1="193.4659090909091" y1="0" x2="193.4659090909091" y2="177" fill="rgb(0, 0, 0)" stroke="rgb(60, 60, 60)" stroke-width="1px" opacity="0.25"></line><line x1="217.64914772727275" y1="0" x2="217.64914772727275" y2="177" fill="rgb(0, 0, 0)" stroke="rgb(60, 60, 60)" stroke-width="1px" opacity="0.25"></line><line x1="241.83238636363635" y1="0" x2="241.83238636363635" y2="177" fill="rgb(0, 0, 0)" stroke="rgb(60, 60, 60)" stroke-width="1px" opacity="0.25"></line><line x1="266.015625" y1="0" x2="266.015625" y2="177" fill="rgb(0, 0, 0)" stroke="rgb(60, 60, 60)" stroke-width="1px" opacity="0.25"></line></g><g><line x1="0" y1="177" x2="266.015625" y2="177" fill="rgb(0, 0, 0)" stroke="rgb(60, 60, 60)" stroke-width="1px" opacity="0.25"></line><line x1="0" y1="159.3" x2="266.015625" y2="159.3" fill="rgb(0, 0, 0)" stroke="rgb(60, 60, 60)" stroke-width="1px" opacity="0.25"></line><line x1="0" y1="141.6" x2="266.015625" y2="141.6" fill="rgb(0, 0, 0)" stroke="rgb(60, 60, 60)" stroke-width="1px" opacity="0.25"></line><line x1="0" y1="123.9" x2="266.015625" y2="123.9" fill="rgb(0, 0, 0)" stroke="rgb(60, 60, 60)" stroke-width="1px" opacity="0.25"></line><line x1="0" y1="106.2" x2="266.015625" y2="106.2" fill="rgb(0, 0, 0)" stroke="rgb(60, 60, 60)" stroke-width="1px" opacity="0.25"></line><line x1="0" y1="88.5" x2="266.015625" y2="88.5" fill="rgb(0, 0, 0)" stroke="rgb(60, 60, 60)" stroke-width="1px" opacity="0.25"></line><line x1="0" y1="70.8" x2="266.015625" y2="70.8" fill="rgb(0, 0, 0)" stroke="rgb(60, 60, 60)" stroke-width="1px" opacity="0.25"></line><line x1="0" y1="53.10000000000001" x2="266.015625" y2="53.10000000000001" fill="rgb(0, 0, 0)" stroke="rgb(60, 60, 60)" stroke-width="1px" opacity="0.25"></line><line x1="0" y1="35.400000000000006" x2="266.015625" y2="35.400000000000006" fill="rgb(0, 0, 0)" stroke="rgb(60, 60, 60)" stroke-width="1px" opacity="0.25"></line><line x1="0" y1="17.69999999999999" x2="266.015625" y2="17.69999999999999" fill="rgb(0, 0, 0)" stroke="rgb(60, 60, 60)" stroke-width="1px" opacity="0.25"></line><line x1="0" y1="0" x2="266.015625" y2="0" fill="rgb(0, 0, 0)" stroke="rgb(60, 60, 60)" stroke-width="1px" opacity="0.25"></line></g></g></g><g><g><line x1="0" y1="-708" x2="266.015625" y2="-708" fill="rgb(0, 0, 0)" stroke="rgb(153, 153, 153)" stroke-width="1.5px"></line></g></g><g><g><line x1="24.183238636363637" y1="0" x2="24.183238636363637" y2="177" fill="rgb(0, 0, 0)" stroke="rgb(153, 153, 153)" stroke-width="1.5px"></line></g></g><g><g><g><g><g><path stroke="rgb(255, 112, 67)" stroke-width="2px" d="M24.66690340909091,138.28125L26.53384943181818,138.86348684210546L26.625745738636365,138.24042896678984L26.84823153409091,138.89565462343734L27.114247159090908,139.2859003748383L27.370589488636362,139.07148759547886L27.47699573863636,138.70796903569314L27.892947443181818,138.43880647602845L28.241186079545454,138.9548527144688L28.337919034090906,138.51173783970356L28.366938920454547,138.31693188203548L28.826420454545456,138.31195928577506L29.363288352272725,137.86285778013325L29.498714488636367,138.06054694120417L29.518061079545454,138.2276465811181L29.711526988636365,138.64158567229734L29.929176136363637,138.7311066874189L30.069438920454548,138.41785337734603L30.11780539772727,138.52996229154226L30.25323153409091,138.37571294256685L30.427350852272728,138.24088939165864L30.485390624999997,138.49078438422046L30.49022727272727,138.71055947620326L30.543430397727274,138.6639072461282L30.659509943181817,138.8610439239461L30.973892045454544,138.6807933974274L31.05127840909091,138.755827256878L31.481740056818182,138.939217200481L31.74291903409091,138.98626131895767L31.839651988636366,138.9126392628279L31.868671875,138.96200888860335L32.057301136363634,138.7769537928619L32.42004971590909,138.72580268292862L32.49259943181818,138.68007561506187L32.58449573863636,138.8660995212029L32.81181818181818,138.91944127338832L32.82149147727272,138.628472593236L32.89404119318182,138.7057861520138L33.266463068181814,138.55015151757544L33.97745028409091,138.29828860965887L34.13705965909091,138.29656177699246L34.48529829545454,137.9591155188443L34.73680397727273,138.1035098539927L34.910923295454545,138.12145792426406L35.655767045454546,137.9143797611744L36.207144886363636,138.06285810729315L36.27002130681818,138.19626543977736L36.70531960227272,138.2048183150547L37.34859375,138.10124337023512L37.55656960227273,138.11933728518184L38.485205965909095,138.13560400819418L38.828607954545454,137.92805217020597L38.86246448863637,138.18558954741297L39.084950284090915,138.52818905587918L39.3703125,138.6143824585987L39.46220880681818,138.58097771958228L39.57828835227273,138.55093088112443L39.679857954545454,138.5239028304374L39.96038352272727,138.61043532493127L40.061953125,138.5774575310028L40.22639914772727,138.4369845897124L40.28443892045455,138.75374720354168L40.531107954545455,138.37412517053878L40.67137073863636,138.25407110752866L40.78745028409091,138.2567918838367L40.913203124999995,138.25924003344815L41.00509943181819,137.929282430073L41.19856534090909,137.85379579407575L41.25660511363636,137.78586892407571L41.41137784090909,137.83543809065452L41.42105113636364,137.5479821792005L41.60484375,137.62134619563062L42.15138494318182,137.6873667326583L42.44158380681818,137.74677948387455L43.08969460227272,137.9109122627253L43.254140625,137.61597282467642L43.46211647727273,137.7931786491417L43.69911221590909,137.95265379812074L45.33873579545455,136.9896546508001L45.493508522727275,137.22949158397432L46.02553977272727,136.78145432933297L46.19482244318182,136.5995267016961L46.233515625,136.54644057661025L46.33508522727273,136.38802381131265L47.065419034090915,136.57737085727723L47.11378551136364,136.74777855695817L47.360454545454544,136.5692320439236L47.63614346590909,136.62981453707906L47.75222301136363,136.57370333403483L48.55026988636364,136.19130387045442L48.598636363636366,136.40031281298127L49.06779119318182,136.2565226593056L49.14517755681818,136.1271132068427L49.43053977272727,135.9000155358264L49.78845170454545,135.91688974127865L50.23342329545454,135.48955846717146L50.528458806818186,135.21559263840265L50.562315340909095,135.41153980003247L50.96375710227273,134.8134931700792L51.002450284090905,135.04965012573035L51.171732954545455,135.04093490481787L51.660234375,134.81183648534474L52.550177556818184,134.16314027593697L52.87906960227272,133.91119685774197L53.116065340909095,134.01632882088262L54.2671875,133.77906758965847L54.30588068181818,133.78678592874826L55.9696875,133.35122735577895L56.66616477272728,132.84859944794368L57.943039772727275,133.28124351003342L58.75075994318181,133.33874463831643L60.41456676136363,133.61174722247463L64.08558238636364,133.746823412201L64.57408380681818,132.98338643203533L65.7252059659091,133.18129887116675L65.81710227272727,133.58067094971182L66.41200994318181,133.16572701666647L67.0359375,133.23477959029336L67.408359375,132.3012982818854L68.47242187500001,132.01429252688473L73.09625710227273,132.19848880952992L74.16515625,131.9217642047514L76.84465909090909,131.78333745840303L80.12390625,131.10562727669247L80.62208096590909,131.38069007352337L82.82275568181818,131.73887168086563L83.42733664772727,130.73373296030383L85.98108664772727,131.0459850983304L89.36190340909091,131.32701194008325L89.36674005681819,131.24806065717834L90.31472301136364,131.17700451945416L90.40661931818182,130.89180380739592L93.78743607954546,130.52449812516053L97.10053977272727,130.747048477053L98.319375,130.61546854186383L99.45115056818182,129.9439212858332L102.05326704545453,130.33515436794735L103.29628551136364,129.35976345838793L105.55499999999999,128.92441192263865L107.46547585227272,128.75384566341035L113.32749289772727,128.3790859646514L114.90907670454546,127.26742701467121L122.21725142045455,125.93505893187219L122.29463778409091,126.50592818573256L123.0926846590909,125.58158515287178L125.2062997159091,123.97530130244294L125.87859375000001,122.86152096305315L133.4527840909091,121.63786865994837L133.58337357954545,119.87283152548855L133.80102272727274,118.50554818577024L135.75502840909093,116.27936809292251L140.1321946022727,115.27143117186822L140.89154829545456,115.58116308559073L142.84071732954544,113.53679659341792L146.68585227272726,112.24999183005988L150.62288352272728,111.53436759499239L152.15126420454544,109.00968067018984L154.1487997159091,106.73746246927503L160.40258522727274,104.24996609042438L161.3844247159091,103.89184446428844L161.66495028409093,101.46765991372139L164.5379190340909,100.17089387221345L171.1737997159091,97.45505439049178L171.35759232954547,99.21454900654365L174.57879971590907,98.36434408192652L177.3743821022727,98.15228466835458L180.62944602272728,95.52768114160051L180.82774857954544,97.03741305846032L183.13966619318182,95.29867172046148L184.0876491477273,95.28255454814709L186.76715198863636,92.50242405169027L191.09595170454543,88.11968158743888L191.84563210227273,84.50708838486479L193.43205255681818,83.57887953624292L196.63875,79.75661654505568L200.0292400568182,79.63532988947726L203.44875000000002,75.65429686883986L204.47411931818183,76.05386718481847L214.97931818181817,73.75848045153647L216.60926846590908,70.80763238925906L216.86077414772728,68.26249413704083L223.63208096590907,68.07374472244952L226.75171875,65.2488702382542L227.35629971590907,60.16210819506186L230.63071022727271,57.35402236593352L233.40694602272725,49.295495104488154L235.4093181818182,48.790945592638906L236.38148437499999,44.13310102173966L237.36332386363637,38.72416590740542L241.09721590909092,43.812374326960196L241.65343039772728,39.87363688709161L242.98834517045452,37.10314819384183" style="fill: none;" fill="none"></path></g></g></g></g><g opacity="0.2"><g><g><g><path stroke="rgb(255, 112, 67)" stroke-width="2px" d="M24.66690340909091,138.28125L26.53384943181818,139.3875L26.625745738636365,137.175L26.84823153409091,140.49375L27.114247159090908,140.49375L27.370589488636362,138.28125L27.47699573863636,137.175L27.892947443181818,137.175L28.241186079545454,141.6L28.337919034090906,136.06875L28.366938920454547,137.175L28.826420454545456,138.28125L29.363288352272725,134.9625L29.498714488636367,139.3875L29.518061079545454,139.3875L29.711526988636365,141.6L29.929176136363637,139.3875L30.069438920454548,136.06875L30.11780539772727,139.3875L30.25323153409091,137.175L30.427350852272728,137.175L30.485390624999997,140.49375L30.49022727272727,140.49375L30.543430397727274,138.28125L30.659509943181817,140.49375L30.973892045454544,137.175L31.05127840909091,139.3875L31.481740056818182,140.49375L31.74291903409091,139.3875L31.839651988636366,138.28125L31.868671875,139.3875L32.057301136363634,137.175L32.42004971590909,138.28125L32.49259943181818,138.28125L32.58449573863636,140.49375L32.81181818181818,139.3875L32.82149147727272,136.06875L32.89404119318182,139.3875L33.266463068181814,137.175L33.97745028409091,136.06875L34.13705965909091,138.28125L34.48529829545454,134.9625L34.73680397727273,139.3875L34.910923295454545,138.28125L35.655767045454546,136.06875L36.207144886363636,139.3875L36.27002130681818,139.3875L36.70531960227272,138.28125L37.34859375,137.175L37.55656960227273,138.28125L38.485205965909095,138.28125L38.828607954545454,136.06875L38.86246448863637,140.49375L39.084950284090915,141.6L39.3703125,139.3875L39.46220880681818,138.28125L39.57828835227273,138.28125L39.679857954545454,138.28125L39.96038352272727,139.3875L40.061953125,138.28125L40.22639914772727,137.175L40.28443892045455,141.6L40.531107954545455,134.9625L40.67137073863636,137.175L40.78745028409091,138.28125L40.913203124999995,138.28125L41.00509943181819,134.9625L41.19856534090909,137.175L41.25660511363636,137.175L41.41137784090909,138.28125L41.42105113636364,134.9625L41.60484375,138.28125L42.15138494318182,138.28125L42.44158380681818,138.28125L43.08969460227272,139.3875L43.254140625,134.9625L43.46211647727273,139.3875L43.69911221590909,139.3875L45.33873579545455,128.325L45.493508522727275,139.3875L46.02553977272727,132.75L46.19482244318182,134.9625L46.233515625,136.06875L46.33508522727273,134.9625L47.065419034090915,138.28125L47.11378551136364,138.28125L47.360454545454544,134.9625L47.63614346590909,137.175L47.75222301136363,136.06875L48.55026988636364,132.75L48.598636363636366,138.28125L49.06779119318182,134.9625L49.14517755681818,134.9625L49.43053977272727,133.85625L49.78845170454545,136.06875L50.23342329545454,131.64375L50.528458806818186,132.75L50.562315340909095,137.175L50.96375710227273,129.43125L51.002450284090905,137.175L51.171732954545455,134.9625L51.660234375,132.75L52.550177556818184,128.325L52.87906960227272,131.64375L53.116065340909095,134.9625L54.2671875,131.64375L54.30588068181818,133.85625L55.9696875,129.43125L56.66616477272728,128.325L57.943039772727275,137.175L58.75075994318181,133.85625L60.41456676136363,136.06875L64.08558238636364,134.9625L64.57408380681818,126.11250000000001L65.7252059659091,134.9625L65.81710227272727,137.175L66.41200994318181,129.43125L67.0359375,133.85625L67.408359375,123.9L68.47242187500001,129.43125L73.09625710227273,133.85625L74.16515625,129.43125L76.84465909090909,130.5375L80.12390625,125.00625L80.62208096590909,133.85625L82.82275568181818,134.9625L83.42733664772727,121.6875L85.98108664772727,133.85625L89.36190340909091,133.85625L89.36674005681819,130.5375L90.31472301136364,130.5375L90.40661931818182,128.325L93.78743607954546,127.21875L97.10053977272727,132.75L98.319375,129.43125L99.45115056818182,123.9L102.05326704545453,133.85625L103.29628551136364,120.58125000000001L105.55499999999999,125.00625L107.46547585227272,127.21875L113.32749289772727,125.00625L114.90907670454546,117.26249999999999L122.21725142045455,113.94375L122.29463778409091,131.64375L123.0926846590909,117.26249999999999L125.2062997159091,109.51875L125.87859375000001,112.8375L133.4527840909091,110.625L133.58337357954545,103.9875L133.80102272727274,106.2L135.75502840909093,96.24375L140.1321946022727,106.2L140.89154829545456,118.36875L142.84071732954544,95.1375L146.68585227272726,100.66875L150.62288352272728,105.09375L152.15126420454544,86.28750000000001L154.1487997159091,86.28750000000001L160.40258522727274,81.8625L161.3844247159091,100.66875L161.66495028409093,79.64999999999999L164.5379190340909,88.5L171.1737997159091,73.0125L171.35759232954547,115.05000000000001L174.57879971590907,90.7125L177.3743821022727,96.24375L180.62944602272728,71.90625L180.82774857954544,110.625L183.13966619318182,79.64999999999999L184.0876491477273,95.1375L186.76715198863636,67.48125L191.09595170454543,48.67500000000001L191.84563210227273,51.99374999999999L193.43205255681818,75.22500000000001L196.63875,45.35624999999999L200.0292400568182,78.54375L203.44875000000002,39.82499999999999L204.47411931818183,79.64999999999999L214.97931818181817,53.10000000000001L216.60926846590908,44.25L216.86077414772728,45.35624999999999L223.63208096590907,66.375L226.75171875,39.82499999999999L227.35629971590907,14.381249999999994L230.63071022727271,32.08125000000001L233.40694602272725,-23.231250000000017L235.4093181818182,44.25L236.38148437499999,2.2125000000000057L237.36332386363637,-9.956249999999983L241.09721590909092,89.60625L241.65343039772728,4.425000000000011L242.98834517045452,12.168749999999989" style="fill: none;" fill="none"></path></g></g></g></g></g></g><g transform="translate(63, 177)" clip-path="url(#clip_1)"><clipPath id="clip_1"><rect width="266" height="23"></rect></clipPath><g><g><line x1="0" y1="0" x2="0" y2="5" style="visibility: inherit;" fill="rgb(0, 0, 0)" stroke="rgb(204, 204, 204)" stroke-width="1px"></line><line x1="24.183238636363637" y1="0" x2="24.183238636363637" y2="5" style="visibility: inherit;" fill="rgb(0, 0, 0)" stroke="rgb(204, 204, 204)" stroke-width="1px"></line><line x1="48.36647727272727" y1="0" x2="48.36647727272727" y2="5" style="visibility: inherit;" fill="rgb(0, 0, 0)" stroke="rgb(204, 204, 204)" stroke-width="1px"></line><line x1="72.5497159090909" y1="0" x2="72.5497159090909" y2="5" style="visibility: inherit;" fill="rgb(0, 0, 0)" stroke="rgb(204, 204, 204)" stroke-width="1px"></line><line x1="96.73295454545455" y1="0" x2="96.73295454545455" y2="5" style="visibility: inherit;" fill="rgb(0, 0, 0)" stroke="rgb(204, 204, 204)" stroke-width="1px"></line><line x1="120.91619318181817" y1="0" x2="120.91619318181817" y2="5" style="visibility: inherit;" fill="rgb(0, 0, 0)" stroke="rgb(204, 204, 204)" stroke-width="1px"></line><line x1="145.0994318181818" y1="0" x2="145.0994318181818" y2="5" style="visibility: inherit;" fill="rgb(0, 0, 0)" stroke="rgb(204, 204, 204)" stroke-width="1px"></line><line x1="169.28267045454544" y1="0" x2="169.28267045454544" y2="5" style="visibility: inherit;" fill="rgb(0, 0, 0)" stroke="rgb(204, 204, 204)" stroke-width="1px"></line><line x1="193.4659090909091" y1="0" x2="193.4659090909091" y2="5" style="visibility: inherit;" fill="rgb(0, 0, 0)" stroke="rgb(204, 204, 204)" stroke-width="1px"></line><line x1="217.64914772727275" y1="0" x2="217.64914772727275" y2="5" style="visibility: inherit;" fill="rgb(0, 0, 0)" stroke="rgb(204, 204, 204)" stroke-width="1px"></line><line x1="241.83238636363635" y1="0" x2="241.83238636363635" y2="5" style="visibility: inherit;" fill="rgb(0, 0, 0)" stroke="rgb(204, 204, 204)" stroke-width="1px"></line><line x1="266.015625" y1="0" x2="266.015625" y2="5" style="visibility: inherit;" fill="rgb(0, 0, 0)" stroke="rgb(204, 204, 204)" stroke-width="1px"></line></g><g transform="translate(0, 8)"><text x="0" y="0" dx="0em" dy="0.95em" style="text-anchor: middle; visibility: hidden; font-family: &quot;Helvetica Neue&quot;, sans-serif; font-size: 12px; font-weight: 200;" fill="rgb(50, 49, 63)" stroke="none" stroke-width="1px">-5k</text><text x="24.183238636363637" y="0" dx="0em" dy="0.95em" style="text-anchor: middle; visibility: inherit; font-family: &quot;Helvetica Neue&quot;, sans-serif; font-size: 12px; font-weight: 200;" fill="rgb(50, 49, 63)" stroke="none" stroke-width="1px">0</text><text x="48.36647727272727" y="0" dx="0em" dy="0.95em" style="text-anchor: middle; visibility: hidden; font-family: &quot;Helvetica Neue&quot;, sans-serif; font-size: 12px; font-weight: 200;" fill="rgb(50, 49, 63)" stroke="none" stroke-width="1px">5k</text><text x="72.5497159090909" y="0" dx="0em" dy="0.95em" style="text-anchor: middle; visibility: inherit; font-family: &quot;Helvetica Neue&quot;, sans-serif; font-size: 12px; font-weight: 200;" fill="rgb(50, 49, 63)" stroke="none" stroke-width="1px">10k</text><text x="96.73295454545455" y="0" dx="0em" dy="0.95em" style="text-anchor: middle; visibility: hidden; font-family: &quot;Helvetica Neue&quot;, sans-serif; font-size: 12px; font-weight: 200;" fill="rgb(50, 49, 63)" stroke="none" stroke-width="1px">15k</text><text x="120.91619318181817" y="0" dx="0em" dy="0.95em" style="text-anchor: middle; visibility: inherit; font-family: &quot;Helvetica Neue&quot;, sans-serif; font-size: 12px; font-weight: 200;" fill="rgb(50, 49, 63)" stroke="none" stroke-width="1px">20k</text><text x="145.0994318181818" y="0" dx="0em" dy="0.95em" style="text-anchor: middle; visibility: hidden; font-family: &quot;Helvetica Neue&quot;, sans-serif; font-size: 12px; font-weight: 200;" fill="rgb(50, 49, 63)" stroke="none" stroke-width="1px">25k</text><text x="169.28267045454544" y="0" dx="0em" dy="0.95em" style="text-anchor: middle; visibility: inherit; font-family: &quot;Helvetica Neue&quot;, sans-serif; font-size: 12px; font-weight: 200;" fill="rgb(50, 49, 63)" stroke="none" stroke-width="1px">30k</text><text x="193.4659090909091" y="0" dx="0em" dy="0.95em" style="text-anchor: middle; visibility: hidden; font-family: &quot;Helvetica Neue&quot;, sans-serif; font-size: 12px; font-weight: 200;" fill="rgb(50, 49, 63)" stroke="none" stroke-width="1px">35k</text><text x="217.64914772727275" y="0" dx="0em" dy="0.95em" style="text-anchor: middle; visibility: inherit; font-family: &quot;Helvetica Neue&quot;, sans-serif; font-size: 12px; font-weight: 200;" fill="rgb(50, 49, 63)" stroke="none" stroke-width="1px">40k</text><text x="241.83238636363635" y="0" dx="0em" dy="0.95em" style="text-anchor: middle; visibility: hidden; font-family: &quot;Helvetica Neue&quot;, sans-serif; font-size: 12px; font-weight: 200;" fill="rgb(50, 49, 63)" stroke="none" stroke-width="1px">45k</text><text x="266.015625" y="0" dx="0em" dy="0.95em" style="text-anchor: middle; visibility: hidden; font-family: &quot;Helvetica Neue&quot;, sans-serif; font-size: 12px; font-weight: 200;" fill="rgb(50, 49, 63)" stroke="none" stroke-width="1px">50k</text></g><line x1="0" y1="0" x2="266.015625" y2="0" fill="rgb(0, 0, 0)" stroke="rgb(204, 204, 204)" stroke-width="1px"></line></g></g></g></g></svg>