<svg viewBox="0 0 330 200" xmlns="http://www.w3.org/2000/svg"><g><g><g><g><g><line x1="74.78125" y1="177" x2="69.78125" y2="177" style="visibility: inherit;" fill="rgb(0, 0, 0)" stroke="rgb(204, 204, 204)" stroke-width="1px"></line><line x1="74.78125" y1="162.25" x2="69.78125" y2="162.25" style="visibility: inherit;" fill="rgb(0, 0, 0)" stroke="rgb(204, 204, 204)" stroke-width="1px"></line><line x1="74.78125" y1="147.5" x2="69.78125" y2="147.5" style="visibility: inherit;" fill="rgb(0, 0, 0)" stroke="rgb(204, 204, 204)" stroke-width="1px"></line><line x1="74.78125" y1="132.75" x2="69.78125" y2="132.75" style="visibility: inherit;" fill="rgb(0, 0, 0)" stroke="rgb(204, 204, 204)" stroke-width="1px"></line><line x1="74.78125" y1="118" x2="69.78125" y2="118" style="visibility: inherit;" fill="rgb(0, 0, 0)" stroke="rgb(204, 204, 204)" stroke-width="1px"></line><line x1="74.78125" y1="103.25" x2="69.78125" y2="103.25" style="visibility: inherit;" fill="rgb(0, 0, 0)" stroke="rgb(204, 204, 204)" stroke-width="1px"></line><line x1="74.78125" y1="88.5" x2="69.78125" y2="88.5" style="visibility: inherit;" fill="rgb(0, 0, 0)" stroke="rgb(204, 204, 204)" stroke-width="1px"></line><line x1="74.78125" y1="73.75" x2="69.78125" y2="73.75" style="visibility: inherit;" fill="rgb(0, 0, 0)" stroke="rgb(204, 204, 204)" stroke-width="1px"></line><line x1="74.78125" y1="59" x2="69.78125" y2="59" style="visibility: inherit;" fill="rgb(0, 0, 0)" stroke="rgb(204, 204, 204)" stroke-width="1px"></line><line x1="74.78125" y1="44.25" x2="69.78125" y2="44.25" style="visibility: inherit;" fill="rgb(0, 0, 0)" stroke="rgb(204, 204, 204)" stroke-width="1px"></line><line x1="74.78125" y1="29.5" x2="69.78125" y2="29.5" style="visibility: inherit;" fill="rgb(0, 0, 0)" stroke="rgb(204, 204, 204)" stroke-width="1px"></line><line x1="74.78125" y1="14.75" x2="69.78125" y2="14.75" style="visibility: inherit;" fill="rgb(0, 0, 0)" stroke="rgb(204, 204, 204)" stroke-width="1px"></line><line x1="74.78125" y1="0" x2="69.78125" y2="0" style="visibility: inherit;" fill="rgb(0, 0, 0)" stroke="rgb(204, 204, 204)" stroke-width="1px"></line></g><g transform="translate(64.78125, 0)"><text x="0" y="177" dx="0em" dy="0.3em" style="text-anchor: end; visibility: hidden; font-family: &quot;Helvetica Neue&quot;, sans-serif; font-size: 12px; font-weight: 200;" fill="rgb(50, 49, 63)" stroke="none" stroke-width="1px">-1e+4</text><text x="0" y="162.25" dx="0em" dy="0.3em" style="text-anchor: end; visibility: inherit; font-family: &quot;Helvetica Neue&quot;, sans-serif; font-size: 12px; font-weight: 200;" fill="rgb(50, 49, 63)" stroke="none" stroke-width="1px">0</text><text x="0" y="147.5" dx="0em" dy="0.3em" style="text-anchor: end; visibility: hidden; font-family: &quot;Helvetica Neue&quot;, sans-serif; font-size: 12px; font-weight: 200;" fill="rgb(50, 49, 63)" stroke="none" stroke-width="1px">1e+4</text><text x="0" y="132.75" dx="0em" dy="0.3em" style="text-anchor: end; visibility: inherit; font-family: &quot;Helvetica Neue&quot;, sans-serif; font-size: 12px; font-weight: 200;" fill="rgb(50, 49, 63)" stroke="none" stroke-width="1px">2e+4</text><text x="0" y="118" dx="0em" dy="0.3em" style="text-anchor: end; visibility: hidden; font-family: &quot;Helvetica Neue&quot;, sans-serif; font-size: 12px; font-weight: 200;" fill="rgb(50, 49, 63)" stroke="none" stroke-width="1px">3e+4</text><text x="0" y="103.25" dx="0em" dy="0.3em" style="text-anchor: end; visibility: inherit; font-family: &quot;Helvetica Neue&quot;, sans-serif; font-size: 12px; font-weight: 200;" fill="rgb(50, 49, 63)" stroke="none" stroke-width="1px">4e+4</text><text x="0" y="88.5" dx="0em" dy="0.3em" style="text-anchor: end; visibility: hidden; font-family: &quot;Helvetica Neue&quot;, sans-serif; font-size: 12px; font-weight: 200;" fill="rgb(50, 49, 63)" stroke="none" stroke-width="1px">5e+4</text><text x="0" y="73.75" dx="0em" dy="0.3em" style="text-anchor: end; visibility: inherit; font-family: &quot;Helvetica Neue&quot;, sans-serif; font-size: 12px; font-weight: 200;" fill="rgb(50, 49, 63)" stroke="none" stroke-width="1px">6e+4</text><text x="0" y="59" dx="0em" dy="0.3em" style="text-anchor: end; visibility: hidden; font-family: &quot;Helvetica Neue&quot;, sans-serif; font-size: 12px; font-weight: 200;" fill="rgb(50, 49, 63)" stroke="none" stroke-width="1px">7e+4</text><text x="0" y="44.25" dx="0em" dy="0.3em" style="text-anchor: end; visibility: inherit; font-family: &quot;Helvetica Neue&quot;, sans-serif; font-size: 12px; font-weight: 200;" fill="rgb(50, 49, 63)" stroke="none" stroke-width="1px">8e+4</text><text x="0" y="29.5" dx="0em" dy="0.3em" style="text-anchor: end; visibility: hidden; font-family: &quot;Helvetica Neue&quot;, sans-serif; font-size: 12px; font-weight: 200;" fill="rgb(50, 49, 63)" stroke="none" stroke-width="1px">9e+4</text><text x="0" y="14.75" dx="0em" dy="0.3em" style="text-anchor: end; visibility: inherit; font-family: &quot;Helvetica Neue&quot;, sans-serif; font-size: 12px; font-weight: 200;" fill="rgb(50, 49, 63)" stroke="none" stroke-width="1px">1e+5</text><text x="0" y="0" dx="0em" dy="0.3em" style="text-anchor: end; visibility: hidden; font-family: &quot;Helvetica Neue&quot;, sans-serif; font-size: 12px; font-weight: 200;" fill="rgb(50, 49, 63)" stroke="none" stroke-width="1px">1.1e+5</text></g><line x1="74.78125" y1="0" x2="74.78125" y2="177" fill="rgb(0, 0, 0)" stroke="rgb(204, 204, 204)" stroke-width="1px"></line></g></g><g transform="translate(74, 0)" clip-path="url(#clip_0)"><clipPath id="clip_0"><rect width="255" height="177"></rect></clipPath><g><g><g><line x1="0" y1="0" x2="0" y2="177" fill="rgb(0, 0, 0)" stroke="rgb(60, 60, 60)" stroke-width="1px" opacity="0.25"></line><line x1="28.357638888888886" y1="0" x2="28.357638888888886" y2="177" fill="rgb(0, 0, 0)" stroke="rgb(60, 60, 60)" stroke-width="1px" opacity="0.25"></line><line x1="56.71527777777777" y1="0" x2="56.71527777777777" y2="177" fill="rgb(0, 0, 0)" stroke="rgb(60, 60, 60)" stroke-width="1px" opacity="0.25"></line><line x1="85.07291666666666" y1="0" x2="85.07291666666666" y2="177" fill="rgb(0, 0, 0)" stroke="rgb(60, 60, 60)" stroke-width="1px" opacity="0.25"></line><line x1="113.43055555555554" y1="0" x2="113.43055555555554" y2="177" fill="rgb(0, 0, 0)" stroke="rgb(60, 60, 60)" stroke-width="1px" opacity="0.25"></line><line x1="141.78819444444446" y1="0" x2="141.78819444444446" y2="177" fill="rgb(0, 0, 0)" stroke="rgb(60, 60, 60)" stroke-width="1px" opacity="0.25"></line><line x1="170.14583333333331" y1="0" x2="170.14583333333331" y2="177" fill="rgb(0, 0, 0)" stroke="rgb(60, 60, 60)" stroke-width="1px" opacity="0.25"></line><line x1="198.50347222222223" y1="0" x2="198.50347222222223" y2="177" fill="rgb(0, 0, 0)" stroke="rgb(60, 60, 60)" stroke-width="1px" opacity="0.25"></line><line x1="226.8611111111111" y1="0" x2="226.8611111111111" y2="177" fill="rgb(0, 0, 0)" stroke="rgb(60, 60, 60)" stroke-width="1px" opacity="0.25"></line><line x1="255.21875" y1="0" x2="255.21875" y2="177" fill="rgb(0, 0, 0)" stroke="rgb(60, 60, 60)" stroke-width="1px" opacity="0.25"></line></g><g><line x1="0" y1="177" x2="255.21875" y2="177" fill="rgb(0, 0, 0)" stroke="rgb(60, 60, 60)" stroke-width="1px" opacity="0.25"></line><line x1="0" y1="162.25" x2="255.21875" y2="162.25" fill="rgb(0, 0, 0)" stroke="rgb(60, 60, 60)" stroke-width="1px" opacity="0.25"></line><line x1="0" y1="147.5" x2="255.21875" y2="147.5" fill="rgb(0, 0, 0)" stroke="rgb(60, 60, 60)" stroke-width="1px" opacity="0.25"></line><line x1="0" y1="132.75" x2="255.21875" y2="132.75" fill="rgb(0, 0, 0)" stroke="rgb(60, 60, 60)" stroke-width="1px" opacity="0.25"></line><line x1="0" y1="118" x2="255.21875" y2="118" fill="rgb(0, 0, 0)" stroke="rgb(60, 60, 60)" stroke-width="1px" opacity="0.25"></line><line x1="0" y1="103.25" x2="255.21875" y2="103.25" fill="rgb(0, 0, 0)" stroke="rgb(60, 60, 60)" stroke-width="1px" opacity="0.25"></line><line x1="0" y1="88.5" x2="255.21875" y2="88.5" fill="rgb(0, 0, 0)" stroke="rgb(60, 60, 60)" stroke-width="1px" opacity="0.25"></line><line x1="0" y1="73.75" x2="255.21875" y2="73.75" fill="rgb(0, 0, 0)" stroke="rgb(60, 60, 60)" stroke-width="1px" opacity="0.25"></line><line x1="0" y1="59" x2="255.21875" y2="59" fill="rgb(0, 0, 0)" stroke="rgb(60, 60, 60)" stroke-width="1px" opacity="0.25"></line><line x1="0" y1="44.25" x2="255.21875" y2="44.25" fill="rgb(0, 0, 0)" stroke="rgb(60, 60, 60)" stroke-width="1px" opacity="0.25"></line><line x1="0" y1="29.5" x2="255.21875" y2="29.5" fill="rgb(0, 0, 0)" stroke="rgb(60, 60, 60)" stroke-width="1px" opacity="0.25"></line><line x1="0" y1="14.75" x2="255.21875" y2="14.75" fill="rgb(0, 0, 0)" stroke="rgb(60, 60, 60)" stroke-width="1px" opacity="0.25"></line><line x1="0" y1="0" x2="255.21875" y2="0" fill="rgb(0, 0, 0)" stroke="rgb(60, 60, 60)" stroke-width="1px" opacity="0.25"></line></g></g></g><g><g><line x1="0" y1="162.25" x2="255.21875" y2="162.25" fill="rgb(0, 0, 0)" stroke="rgb(153, 153, 153)" stroke-width="1.5px"></line></g></g><g><g><line x1="28.357638888888886" y1="0" x2="28.357638888888886" y2="177" fill="rgb(0, 0, 0)" stroke="rgb(153, 153, 153)" stroke-width="1.5px"></line></g></g><g><g><g><g><g><path stroke="rgb(255, 112, 67)" stroke-width="2px" d="M28.719198784722224,158.20296875L29.015536111111114,157.36600328947367L29.816639409722224,157.45373270295204L29.99812829861111,157.71984888412328L30.11864826388889,157.70725636278723L30.13140920138889,157.45300473966458L30.209392708333333,157.52519227992175L30.232078819444443,157.45562509926447L30.2561828125,157.3285624959146L30.356852430555556,157.40549022408044L30.373867013888887,157.43639829402602L30.430582291666667,157.40640452617072L30.522744618055555,157.43162889455817L30.541177083333334,157.44498161726253L30.60781753472222,157.33727672290482L30.634757291666666,157.42882577474788L30.665950694444444,157.54275605754634L30.69572621527778,157.52390030439994L30.75811302083333,157.46225294190884L30.770873958333333,157.47258895285L30.796395833333335,157.49559764545057L30.887140277777778,157.46362353893338L30.888558159722223,157.34446594634397L30.899901215277776,157.27246347030308L30.97646684027778,157.30219531653046L31.023256944444444,157.2299651870639L31.349369791666668,157.24958618683385L31.465636111111113,157.28841761421097L31.556380555555556,157.20009545282016L32.478003819444446,157.3081916688404L32.98276979166667,157.29147699033246L33.168512326388885,157.3228600099667L33.18410902777778,157.33662437114862L33.202541493055556,157.37500599855522L33.240824305555556,157.43581664627575L33.29895746527777,157.5039256177706L33.3698515625,157.50893940074909L33.54141527777778,157.42328716588128L33.67327829861111,157.4050813260855L33.74275451388889,157.39296440721756L33.84200625,157.35266309643444L33.94692951388889,157.34262029924923L33.99371961805556,157.3280133758736L34.03058454861111,157.32420636893306L34.07028524305556,157.31102222380136L34.11140381944445,157.2308842542706L34.134089930555554,157.24708221778423L34.13976145833333,157.17767456444037L34.15110451388889,157.19039400732902L34.38647291666667,157.17958797724617L34.39781597222222,157.18145031779767L34.46162065972222,157.0789790763857L34.59631944444445,157.0904759260856L35.213098090277775,157.08138979721434L35.29249947916667,157.0787662709394L35.31376770833333,157.0643893289444L35.448466493055555,157.04406435678823L35.5902546875,157.1246413712327L35.59167256944444,157.1440127875925L35.614358680555554,157.16836620968357L35.90218871527778,157.23875280060116L36.14606440972222,157.28130664850048L36.216958506944444,157.3006701001692L36.26233072916667,157.28348126169448L36.501952777777774,157.37137483835932L36.55725017361111,157.38955940837778L36.574264756944444,157.35379147484176L36.69762048611111,157.40971339848588L36.723142361111115,157.47248888784566L36.82664774305556,157.4810109638128L36.98970416666667,157.4771498775844L37.001047222222226,157.4561507946869L37.0450015625,157.40312868349525L37.11873142361111,157.31806209441416L37.169775173611114,157.30053064853962L37.256265972222224,157.32025759005276L37.43917274305555,157.28314258302606L37.46327673611111,157.18242615932795L37.528499305555556,157.1720091396694L37.53700659722222,157.14096550596008L37.606482812500005,157.16835090257385L37.851776388888894,157.20821036602032L38.12542760416667,157.1707818057497L38.42034704861111,157.19979372127517L38.47989809027778,157.22590365501208L38.852801041666666,157.23326726947295L38.99317135416666,157.23067464660778L39.015857465277776,157.2546172461553L39.11936284722223,157.2715553927099L39.12219861111111,157.2148877241462L39.18600329861111,157.2828176714825L39.385924652777774,157.20428105833838L39.45681875,157.1377476951882L39.5206234375,157.10322120003661L39.5971890625,157.03158335762222L39.618457291666665,157.07773939043005L39.6227109375,157.1815082947475L39.62696458333333,157.22096813423389L39.84390052083333,157.24403606410658L39.902033680555554,157.28507886035L39.91337673611111,157.34091605911772L39.96300260416666,157.38748170505337L40.106208680555554,157.40657374798224L40.1076265625,157.4368934640637L40.11471597222222,157.40471923802903L40.259339930555555,157.4001925628284L40.294786979166666,157.36615724915296L40.308965798611105,157.35672891643588L40.55284149305556,157.28878188808815L40.664854166666665,157.30783356322428L40.772613194444446,157.38582429447396L41.100143923611114,157.46292994345183L41.30573680555556,157.52587174906148L41.48864357638889,157.56269886043145L41.71975833333334,157.50088957386836L41.773637847222226,157.5093319080337L41.84736770833334,157.5090940286766L41.974977083333336,157.46693445773036L42.060050000000004,157.49951456635642L42.061467881944445,157.57078208986115L42.11109375,157.59482113824023L42.12669045138889,157.5611436238263L42.18482361111111,157.5423573422185L42.3663125,157.53374658975298L42.586084201388886,157.58223139823033L42.591755729166664,157.63416459753265L42.59459149305556,157.5555292663241L42.6342921875,157.5668044803652L42.77749826388889,157.5898584361709L42.89518246527778,157.58248977175694L42.950479861111106,157.5836939208015L42.96040503472222,157.60413704736618L43.24256354166666,157.57505925626162L43.31345763888889,157.52261579189295L43.49920017361111,157.58097143900275L43.68636059027778,157.60353055860153L43.784194444444445,157.65886503254163L43.8082984375,157.70221292529786L43.85367065972222,157.69098381536966L43.92172899305555,157.65414323186906L44.023816493055556,157.72884612257772L44.05217413194445,157.70296931459094L44.20814114583333,157.70503175872216L44.297467708333336,157.74883328163256L44.35276510416667,157.83296559797344L44.43783802083333,157.75703620983387L44.76395086805555,157.86846542227465L44.87029201388889,157.88486107031807L44.90006753472222,157.9000780906008L44.99931927083333,157.93866403682281L45.04894513888889,157.8853523140724L45.063123958333335,157.82999676402721L45.073049131944444,157.81474708610267L45.11700347222222,157.82499112841248L45.11983923611111,157.84481232967343L45.12834652777777,157.79304984294038L45.349536111111114,157.7994714215668L45.45587725694444,157.8098602175223L45.57356145833334,157.80031169526367L45.57639722222222,157.7041398961469L45.81034774305556,157.77983528478396L46.05847708333333,157.8272189456375L46.12228177083333,157.82653611355L46.28533819444444,157.88169500392237L46.316531597222216,157.77461925051222L46.317949479166664,157.77504795047187L46.4370515625,157.69476971609197L46.64831597222223,157.68705055682418L46.65256961805556,157.75339237736856L46.66249479166666,157.78083439008842L46.723463715277774,157.8815868900887L47.042487152777774,157.93585007681133L47.24524427083334,157.96947600703817L47.27643767361111,158.00619246923526L47.29061649305556,157.9498154092577L47.31755625,157.88985730530163L47.34166024305555,157.91102782494L47.36009270833333,157.87476879218622L47.36576423611111,157.90159660064057L47.38277881944444,157.95708537839852L47.41539010416667,157.92820496540782L47.47635902777778,157.96029071901785L47.635161805555555,157.9905507097441L47.72590625,157.97169095119787L47.76560694444444,157.9643968560531L47.76702482638889,158.02374623313082L48.019407812500006,157.95962160963975L48.07895885416667,157.89730007352009L48.244851041666664,157.94446069127412L48.29589479166667,157.98506149722886L48.37104253472222,158.00685222254566L48.46178697916666,158.02646387532323L48.517084374999996,158.03166905029858L48.551113541666666,157.97827558269785L48.56103871527778,157.92192458686074L48.73260243055555,157.89563837814637L48.79357135416667,157.86783235280484L48.833272048611114,157.81008036747406L49.045954340277774,157.80880670572566L49.17214583333334,157.77539478512952L49.194831944444445,157.7757459316168L49.308262500000005,157.7193666509229L49.32244131944445,157.70503936082324L49.33520225694445,157.7151916747456L49.42027517361111,157.68422719475814L49.42452881944445,157.66742166277604L49.42594670138889,157.64722637149163L49.627285937500005,157.67790998435177L49.65564357638889,157.63085336090373L49.66273298611111,157.60647896230736L49.678329687499996,157.62787012858135L49.964741840277775,157.57613780321293L50.09660486111112,157.59410996039486L50.119290972222224,157.52362865184398L50.158991666666665,157.53117984916068L50.42980711805555,157.64629623925967L50.54465555555556,157.54294005282154L50.58577413194444,157.54717729753983L50.632564236111115,157.46940488027843L50.70062256944445,157.48744876725215L50.81972465277778,157.4313210780226L50.914722743055556,157.4236733452198L50.97852743055556,157.44997788569947L50.98561684027778,157.37823790962548L51.01397447916666,157.30537505615925L51.160016319444445,157.3356734880447L51.18128454861111,157.31592645173941L51.25217864583333,157.31013849406526L51.280536284722224,157.35747620716032L51.38404166666667,157.34384577394388L51.47053246527778,157.28548463404792L51.56836631944444,157.24909242064223L51.602395486111114,157.31175349107937L51.764034027777775,157.3036172044713L51.81507777777777,157.28615392152386L52.088728993055554,157.1874682168699L52.27163576388889,157.12123702018195L52.38648420138889,157.08813284941334L52.441781597222224,157.03137425197133L52.53536180555555,157.00748682677397L52.62468836805556,157.0131834565966L52.68849305555556,156.96530261093656L52.800505729166666,156.90930359984247L52.89125017361111,156.83355292735772L53.00184496527778,156.78980700962165L53.075574826388895,156.85691224615988L53.22303454861111,156.80668195904363L53.366240625,156.79558407563923L53.38467309027778,156.71368973057497L53.42012013888889,156.6971410700174L53.434298958333336,156.63984102551547L53.444224131944445,156.66386473546402L53.54064010416666,156.60482201191746L53.573251388888885,156.58763668572567L53.642727604166666,156.53391207965296L53.69235347222222,156.55608337168772L53.698025,156.5188812845189L53.70936805555555,156.521352531067L54.00145173611111,156.42493602796017L54.043988194444445,156.37365336266407L54.10353923611111,156.3062958388976L54.1191359375,156.2936115675078L54.14040416666667,156.243016035757L54.211298263888885,156.2426519321813L54.365847395833335,156.23402736396315L54.55017204861111,156.1976871275668L54.63949861111111,156.18203560231012L54.640916493055556,156.1527382920791L54.686288715277776,156.11484727537118L54.74867552083333,156.13744067283406L55.11590694444445,156.07434504305064L55.21799444444444,156.05028553874556L55.23075538194444,156.029092922371L55.23217326388889,156.0137070676339L55.287470659722224,156.0076957358705L55.31157465277778,155.89811366228344L55.46754166666666,155.90873198355507L55.494481423611106,155.9132181601996L55.65328420138889,155.90434946917964L55.721342534722226,155.90189889726167L55.739775,155.8489902575355L55.7525359375,155.79538029428193L55.75820746527778,155.79875632735374L55.77096840277778,155.79534163211835L55.94253211805555,155.76853012515653L56.06730572916667,155.75661461264087L56.14670711805555,155.62881252637678L56.18215416666666,155.5575797112391L56.331031770833334,155.54555611511518L56.4543875,155.51998487860365L56.58483263888889,155.5490567032433L56.78191822916667,155.47450650166897L56.82729045138889,155.42561835150207L57.0286296875,155.43554870385185L57.14489600694444,155.38825164596668L57.16332847222222,155.33830929387L57.23989409722222,155.355126801983L57.24414774305556,155.2997391217847L57.26683385416666,155.33746833460623L57.27675902777778,155.2741668136456L57.3859359375,155.23240638228106L57.492277083333335,155.12660324405294L57.566006944444446,155.05534916964763L57.687944791666666,154.94604862768287L57.94599930555555,155.01407657741458L57.99278940972222,154.92780173217312L58.043833159722226,154.9234434339558L58.052340451388886,154.87941940306024L58.10480208333333,154.7614384002542L58.256515451388886,154.79215393522878L58.293380381944445,154.8207197917059L58.300469791666664,154.7929603125353L58.30755920138889,154.7831877187818L58.491883854166666,154.5863298844036L58.731505902777776,154.53130627096326L58.76553506944444,154.4698006438669L58.775460243055555,154.34945339198023L58.820832465277775,154.35084399028221L58.84777222222222,154.37790802875398L58.87471197916666,154.36585160087859L59.24052552083333,154.32964925329074L59.3000765625,154.26572339046166L59.39791041666666,154.17085417641547L59.58790659722222,154.05735469627393L59.64887552083333,153.98654891414654L59.67439739583333,153.9159096477319L59.98633142361111,153.8325139954587L60.0657328125,153.75330947091282L60.17065607638889,153.58891602382155L60.210356770833336,153.5031884839394L60.24013229166667,153.39653369804546L60.29826545138889,153.2507631407409L60.30535486111111,153.09513995166682L60.48967951388889,153.07722751900013L60.68676510416667,153.07677820460012L60.88243281250001,152.9726628841401L60.898029513888886,152.9315059707261L61.07242899305556,152.8884725611535L61.28511128472222,152.89214874253815L61.29787222222222,152.93187136828433L61.496375694444446,152.8694420439559L61.500629340277776,152.7851384645603L61.60555260416667,152.72631993060426L61.63249236111111,152.61115668754385L61.71756527777777,152.50013476878945L61.91323298611111,152.46705097941052L62.04934965277778,152.44096306896947L62.20815243055556,152.35203082457252L62.27904652777778,152.38215586711527L62.56404079861111,152.29403403040374L62.775305208333336,152.15941187736337L62.822095312500004,152.10508787712703L62.826348958333334,152.0156337769143L62.980898090277776,151.9743047742229L63.04612065972223,151.8983899218006L63.61610920138889,151.85541811712054L63.63595954861111,151.7660403679085L63.65439201388889,151.79991289361763L63.88834253472222,151.7349841042559L63.89684982638888,151.61201694383027L63.96632604166666,151.57048712444725L63.99468368055555,151.54278997450254L64.01028038194444,151.49758128955227L64.05565260416667,151.39005753559707L64.24564878472222,151.35597365703734L64.2867673611111,151.28427472883362L64.30661770833333,151.25108944345024L64.33922899305556,151.1585351866052L64.45833107638889,151.1084238554447L64.64549149305556,151.04811271990025L65.09212430555556,151.01042644791022L65.13891440972222,150.9013759906192L65.24241979166666,150.82351182905728L65.41540138888888,150.71425439615155L65.55435381944444,150.6836805190364L65.58554722222223,150.57642184213273L65.65644131944445,150.53151403291946L65.76420034722223,150.41642512962753L65.84643750000001,150.37783730416476L65.89748125,150.3292801362483L65.92158524305556,150.28650056012347L65.99247934027777,150.24892081661113L66.15411788194444,150.15794279745L66.24769809027778,150.16686726770502L66.33702465277777,150.1647586659345L66.35120347222221,150.15686873684106L66.4235154513889,150.15299436315695L66.85313368055554,150.08497617684125L66.92402777777778,150.05879105915713L66.98074305555555,150.03937289074142L66.98357881944445,149.98916997666728L67.37916788194444,149.93108110400055L67.42170434027777,149.89862143110048L67.43021163194445,149.84267335049043L67.5152845486111,149.8181325779414L67.59468593749999,149.82093650764727L67.7478171875,149.75431941938254L67.75207083333333,149.76995778994427L67.81587552083333,149.71350888594986L68.23131493055556,149.66731424735485L68.28235868055555,149.6460203226194L68.41280381944445,149.58537141535743L68.90480885416667,149.4814670863217L68.93883802083333,149.40500787768954L69.18271371527777,149.33942115242058L69.23517534722222,149.3633618496785L69.44785763888889,149.33743191471066L69.47763315972223,149.2514074732396L69.52442326388889,149.20071985091565L69.68606180555555,149.1739994283241L69.7257625,149.07343542299168L69.80941753472221,149.0557559431925L69.93135538194444,149.07856316137324L69.94695208333334,149.13642559523592L70.11000850694444,149.20878303571234L70.12844097222222,149.1642016071411L70.2773185763889,149.09780488392698L70.34112326388889,149.1325400205343L70.35671996527778,149.09051258098086L70.44321076388889,149.00613319788278L70.46447899305555,148.9808948780945L70.55805920138889,148.97569601528505L70.59350625,148.98300141375654L70.94797673611112,148.86558408488088L70.98767743055556,148.8285881763928L71.22871736111111,148.68144029625353L71.36483402777777,148.72370251662818L71.90930069444444,148.59487913996534L72.0383279513889,148.53056310096883L72.05676041666666,148.36850679087195L72.09362534722221,148.29364048678474L72.38145538194445,148.17555768810627L72.456603125,148.15363473179565L72.5360045138889,148.16432594611607L72.6735390625,148.01815116400448L72.6891357638889,148.01242979760403L72.81958090277777,147.98884306784362L72.92450416666667,147.86805251105926L72.99965190972222,147.80589569745334L73.09890364583333,147.652235815208L73.15987256944445,147.6015200461872L73.28889982638889,147.57154772906847L73.39240520833334,147.57868201866162L73.47322447916666,147.49568100429548L73.50158211805555,147.3642847788659L73.88441024305556,147.23496567597934L74.20343368055556,147.1098206708814L74.20910520833334,146.87826829129327L74.28992447916667,146.82428521216394L74.30410329861111,146.81995044094754L74.44163784722221,146.6805335218528L74.48417430555556,146.43152704466752L74.50827829861112,146.20834309020074L74.54088958333332,146.13561815618067L74.93647864583335,146.12547821556262L75.21012986111111,146.03707101900636L75.29094913194444,145.8620904796057L75.29236701388889,145.68939705664513L75.42706579861111,145.44455110098062L75.53624270833333,145.37583817838257L75.54758576388889,145.2803481105443L75.7517607638889,145.1870320494899L75.86944496527778,144.9163679070409L75.99563645833334,144.8317936163368L76.05802326388888,144.71741894220312L76.06653055555556,144.6186301729828L76.2692876736111,144.44352496818453L76.40824010416667,144.36198497136607L76.52167065972223,144.22314584922947L76.60674357638888,144.17240157680652L76.8591265625,144.10184110662587L76.93002065972223,143.99823512096327L77.16680694444445,143.75472410886695L77.22919375,143.56137669798025L77.32844548611111,143.48646559068223L77.38374288194444,143.322709656614L77.57941059027777,143.2357121284526L77.77082465277778,143.23346904060736L77.78216770833333,143.1503252615466L78.07992291666666,142.99068336039196L78.0969375,142.94011502435274L78.54640607638889,142.8498925844175L78.66267239583334,142.80695020097573L78.9136375,142.84020830587815L79.07244027777777,142.79362497529036L79.08520121527778,142.7659890402613L79.33049479166667,142.63233544873518L79.40280677083334,142.50236752886167L79.60981753472223,142.22637296347548L79.75727725694443,141.90607160462793L79.82533559027777,141.90496444416516L79.99548142361111,141.80809299974862L80.20391006944445,141.66697901227377L80.39390625,141.3108904860464L80.5371123263889,141.36146549994174L80.71576545138889,141.03546738744757L81.00359548611111,140.8374831487028L81.20493472222222,140.59292233383252L81.27299305555555,140.30137228794928L81.60477743055556,140.11549287165434L82.42147743055556,139.61263889698893L82.54483315972222,139.24764844479003L82.84400625,138.872602350311L82.87378177083333,138.5742405527799L82.93616857638888,138.25639462250194L83.29205694444445,138.35752078525172L83.29489270833334,138.25355776922657L83.4976498263889,137.9650144923039L84.06054895833333,137.84683335557352L84.35688628472222,137.56807970751618L84.44195920138888,137.34854517426456L84.64046267361111,137.00346409433809L85.09985642361112,136.49514893490428L85.23455520833333,136.20682935391386L85.28701684027777,136.23911516852246L85.59327934027779,135.73164115167023L85.98603263888889,135.5007739115032L86.09379166666666,134.92470433285288L86.34617465277779,134.4315932745676L86.36886076388889,133.96290269711085L86.4326654513889,133.46917492739976L86.61840798611111,133.26035899715978L86.63542256944444,132.7552996599438L86.67228750000001,132.51323844394943L87.10190572916666,131.98148491205447L87.12600972222222,131.80850829584904L87.14160642361111,131.52330590376414L87.76689236111112,131.29796750088772L88.09725885416667,131.51599887579894L88.127034375,131.40247711321905L88.69418715277779,131.28279190189716L88.99903177083334,130.98378614920742L89.0103748263889,130.70223565928669L89.10253715277778,130.61800428085803L89.69804756944446,130.2670163527722L89.7958814236111,130.11337721749499L90.48355416666666,129.2707894957455L90.56579131944444,128.79271054617095L90.57855225694443,128.34861136655385L90.74586232638889,127.77468772989846L90.83377100694443,127.3171564569086L91.02802083333334,126.78691737371776L91.33995486111111,126.80843657384597L91.60084513888889,126.59503041646137L91.64338159722222,126.41172268731523L92.31687552083334,125.71666760608372L92.3764265625,125.17961803297534L92.4785140625,125.4531327921778L92.54090086805556,124.25840545046003L92.68410694444445,124.48115084291402L92.92231111111111,124.30964513362261L93.23991666666667,124.02115718276035L93.41856979166667,123.82097896448431L93.44976319444444,124.07409981803589L93.51498576388889,124.13643202373231L93.82691979166665,124.15012475885908L93.90348541666667,124.19655759547315L93.9332609375,123.96501121092584L94.60533697916667,123.98247883983326L94.84779479166666,124.38123876834993L95.2476375,123.85005239151494L96.04023350694445,123.53561746486344L96.07284479166667,122.9106104058771L96.30963107638888,122.23840092778937L96.32806354166667,121.96851396001044L96.81581493055555,121.7071781890094L97.51199496527778,121.12489005760847L98.182653125,121.10048698934762L98.50876597222222,120.41108672791285L98.75264166666668,120.33176711762157L98.91428020833334,120.35763728085942L99.01353194444444,120.08545949027346L99.34106267361112,119.28645260374611L99.45307534722222,119.0213698433715L99.73381597222222,118.49056098403436L100.173359375,118.17692676063092L100.91349374999999,117.88174970956783L100.93334409722222,117.21277005111105L101.066625,116.43553210849993L101.16020520833332,116.33247108514993L101.21124895833334,115.75988022663495L101.67206059027778,115.22611095397144L102.12720069444444,115.0900389210743L102.3044359375,115.29115221646687L102.98218350694445,115.05270105732018L103.0062875,114.75697001408817L103.70955694444446,114.92178863767933L104.39864756944445,114.5796878989114L105.11326006944444,113.75093785902027L105.54854982638889,112.98201594811825L105.69175590277779,112.79609560330641L105.88033420138889,112.72372041797577L106.07033038194444,112.40875462617821L106.34823524305556,112.33178541356038L106.43330815972222,112.33902874720435L106.86576215277778,111.7933446224839L107.56619583333332,111.39579922273552L107.60589652777779,111.72019586296197L107.89514444444444,111.14512940166577L108.57005625,110.4238352114992L108.77423125,109.72949856534927L108.89333333333335,109.09261120881435L109.21377465277777,108.91120946293292L109.49876892361112,109.06322914163962L109.51152986111111,108.56395310247566L109.65473593749999,108.11690935472811L109.92271562500001,107.81781998175529L110.18927743055555,107.24856923357976L110.27151458333333,107.89089199772178L110.46292864583334,107.7955527979496L110.8698607638889,107.50416939315463L111.00172378472223,106.55789307883917L111.25977829861111,106.71754127095525L112.25938506944445,106.77687308135972L112.3983375,106.21676389822375L113.04489166666667,105.86154844590138L113.62338749999999,105.16987797631124L113.81480156250001,104.9341011161801L114.25009131944444,104.1904410045621L114.45001267361111,103.47689690410589L114.90657065972222,102.73744940119529L115.26813055555556,102.72509508607575L116.10326302083334,101.97970276496818L116.54138854166666,101.25077155097136L116.86891927083335,101.78856158337422L117.06600486111111,101.34885386253679L117.47577274305556,101.34399191378311L117.73099149305555,101.11191303490482L118.19038524305554,100.16784673141433L118.36620260416666,99.94690580827289L118.96029513888888,99.2299652274456L119.48774722222223,98.85482807970104L119.64087847222223,98.73107964673093L119.78408454861112,97.40006543205783L119.82236736111112,97.09959795135205L119.90035086805555,97.43991940621684L121.23032413194444,96.26060715309515L121.29129305555556,95.42324175028564L121.38770902777777,94.80697226275707L121.68688211805556,94.69805628648136L121.8286703125,93.91646159533322L121.93926510416667,94.1611748107999L122.09806788194443,94.30029170471992L123.40393715277779,93.53404378424793L123.69034930555556,92.81169409332313L123.75131822916667,93.75135280899082L124.09728142361111,93.64705346559172L124.29720277777778,93.32133249403256L124.96502517361111,93.3425429946293L125.23158697916668,92.57296838266636L125.68530920138889,93.19171841939972L126.38999652777778,93.61814813995974L126.81110746527777,93.60691145096378L127.23788993055555,93.17504061836739L127.36408142361111,92.25627874403065L127.43355763888889,91.54785399462757L127.47042256944444,91.40808422016482L127.609375,89.84923673564833L127.6221359375,89.0395005620835L128.26727222222223,88.49234738087516L128.87128993055555,88.44932358028763L128.99322777777778,88.76460215975887L129.12650868055556,89.33782163128298L129.15770208333333,89.95189884315467L129.76171979166665,90.1422714588392L129.76455555555557,88.12599743795529L130.71453645833333,88.02603831915975L131.58936961805557,87.06582511224377L131.8247380208333,87.51668791351939L133.18165104166667,87.25733162216746L133.18732256944443,86.9994812724507L133.64529843749997,86.94764252020563L133.95865034722223,86.27595639318507L134.95258559027778,85.81755606636656L135.1156420138889,85.57323795972991L135.76644982638888,84.88642197625691L135.9323420138889,85.60546727863122L136.73202743055558,84.81770961326811L136.89508385416667,83.9570792769413L137.7132017361111,83.13273072424717L137.88901909722222,83.66899671432245L137.98543506944443,82.6033470428902L138.21229618055557,82.46104358860116L138.34557708333335,82.03151735474106L139.18638107638887,81.91459218176695L139.78189149305555,82.36847671359025L139.94069427083335,81.29828529223121L140.32068663194445,80.79051926300811L140.37881979166667,80.7921626492073L140.50926493055553,80.14925107178655L140.95022621527778,79.14380252710791L141.1260435763889,79.37649258689709L141.18275885416668,79.9721792657074L142.64743090277778,80.75674258913665L142.76369722222222,80.09386520522297L143.4456984375,79.6217286847007L143.48539913194443,79.13826675373063L143.71934965277777,80.24452601585755L143.80867621527779,79.5614249767718L144.3233673611111,79.90123560409462L147.04002916666667,79.50644016868515L147.56748125000001,78.58140552681662L147.65964357638887,78.47116341163496L148.23246788194444,79.04767988297145L148.54298402777778,78.96133376967431L148.96693072916668,79.38189570520689L149.6574392361111,77.34554988468619L150.94487604166667,76.6103308337176L151.16039409722222,76.8995477503458L151.25964583333334,76.81229610031124L151.9600795138889,75.35787117778011L152.71864635416668,74.2503184350021L152.7895404513889,73.7481069040019L153.3425144097222,74.0857024636017L153.47579531250003,72.81681971724151L154.44137291666667,73.14705962051735L156.5639421875,71.97158022096563L157.24736128472225,71.78297688636908L157.25161493055558,70.81442919773215L157.28422621527778,70.35850190295895L157.9492128472222,67.95830015016305L158.08249375,68.31161076014672L158.13779114583335,70.18018405913207L158.40577083333335,71.27973596571884L158.80419565972224,71.40968424414697L160.4432671875,70.82370800723228L161.13944722222223,70.77662626900904L162.089428125,70.33922926710817L162.21845538194444,71.08362665289734L162.57150798611113,70.60769367510758L162.63105902777778,70.13372118259683L162.9089638888889,68.47920843933716L162.96284340277776,69.39577978290345L163.33574635416667,68.5677721171131L163.6335015625,67.54323709290179L164.37505381944445,66.92491338361161L164.4757234375,66.39838298275046L164.50549895833333,66.87219312197539L164.95071388888888,64.94461443477786L164.95922118055557,65.11438736630008L165.88084444444442,64.39923769217008L166.03822934027778,64.34975142295306L166.54441319444445,64.87677628065775L166.7542597222222,66.46702834009197L167.40364965277777,66.44538019358279L167.4079032986111,65.7049906117245L168.76056267361113,65.37281967555207L170.57119791666668,64.58481114549684L171.30140711805555,63.648822218447165L171.5552079861111,64.81427593410245L171.7012498263889,64.93439521569222L171.9763189236111,64.408252569123L172.2216125,64.02829449971067L172.45272725694446,62.53537129973962L173.85359461805555,62.68056854476566L174.12157430555555,61.63816012778909L175.207671875,62.35706286501021L175.33102760416665,61.80195032850918L175.44162239583335,62.08271623315828L175.54654565972223,61.46653835984246L176.37600659722222,61.03919702385822L176.65249357638888,60.23098825897239L177.6166532986111,60.43285037057517L177.6676970486111,59.645174708517644L178.49574010416669,59.34880567516589L179.74631197916668,58.3708469826493L180.43540260416665,58.68128572188438L180.50204305555556,58.75233683719594L180.70480017361112,59.41642346597635L181.06636006944444,60.362570181878695L181.52717170138888,60.22216472619084L182.23185902777777,59.16839356607174L182.97199340277777,59.71758545946456L184.33316006944443,58.22890503851812L185.16971041666667,58.40465515966629L185.47171927083335,58.60477558119966L185.94387395833334,57.680477710579694L186.43020746527776,57.64787525202172L186.9860171875,57.20553303931955L187.4964546875,58.56313598538759L187.7105548611111,58.33118176184884L189.24328524305557,58.19709483566396L189.5538013888889,58.49725253959757L190.163490625,56.3580741606378L190.90646076388887,58.290860494574034L191.41548038194446,59.306235382616634L192.07054184027777,58.68745559435499L192.8787345486111,58.04804597241947L193.18641493055554,58.02754606267753L193.20201163194446,58.01739301890977L193.92938506944444,57.7879271545188L194.69787708333334,56.7581735015669L195.08779461805557,55.74704365141024L196.80910329861112,54.02208928626922L197.4400607638889,52.67428660764229L198.15892690972223,51.33081888437805L198.17877725694444,51.33903387094024L199.56263003472222,51.041286733846206L200.24888489583333,51.74727524796158L200.5735798611111,51.85627428566541L202.15451822916668,51.31228748209887L202.19138315972222,52.57702748388898L202.50473506944445,53.94345754800007L202.70323854166668,54.87686179320005L202.7145815972222,53.70631623888005L203.22218333333333,53.66043461499204L203.75530694444444,52.120172403492816L204.23596892361113,51.80653797564355L205.5120626736111,53.08039199057919L205.9005623263889,52.59698560402127L206.2266751736111,52.42327141861914L206.77114184027778,53.919850526757216L209.6948144097222,52.133779536581486L209.77563368055556,51.064690645423326L209.9500331597222,50.308088768381L210.00816631944446,50.5665377040429L210.45763489583334,51.362407371138616L210.68166024305555,50.54745569652475L212.11230312499998,50.57592887687227L213.3543677083333,49.96131255168504L214.01793645833334,48.13090004651653L214.2334545138889,47.68657566686488L214.51986666666667,46.347293100178376L214.6418045138889,46.00343097766054L216.14901302083334,45.83915037989448L217.43786770833333,46.29374315440501L217.5456267361111,45.453736026464526L217.67748975694445,44.65854992381807L218.64164947916666,45.63590586893628L220.46504565972222,45.36087778204265L221.39942986111112,46.16060250383836L222.69679184027777,45.95986256595455L222.89671319444443,46.44432943435908L222.92790659722223,45.08269336592318L223.54184947916667,45.98767402933083L223.8878126736111,46.59196912639774L225.1156984375,46.764780026257995L226.30246562500002,46.04176296113218L226.51231215277778,42.904750727518945L227.60408125,40.50780690476705L228.33854409722224,41.12494027679034L228.4562282986111,42.03251656161132L229.51963975694446,40.53220240545019L230.72909305555555,40.24345872740517L231.42952673611111,39.77386285466463L232.78643975694442,40.156023444198155L233.9689532986111,41.39879609977834L234.40707881944445,41.1510727398005L235.68459045138889,39.00094202832045L236.95643055555556,40.74134001298839L237.19605260416668,41.65547163668958L237.56895555555556,42.828963535520614L238.43669930555555,43.59840311946854L238.88475000000003,40.406578432521684L239.38809809027777,42.046053401769484L239.9410720486111,41.09797149909252L239.9892800347222,40.15389309918328L240.2076338541667,38.63401941426494L241.10231736111112,37.87457059783847L241.27246319444444,38.34617603805461L241.6567092013889,38.10963655924914L244.43150416666666,38.55957915332422L244.8597045138889,37.94816030049179L245.12910208333335,36.80465677044262L245.86781857638888,37.41736296839835L245.86923645833335,36.51223604655851L245.87065434027778,36.576629629402646L245.87207222222222,38.61753697896239L245.8749079861111,38.31698640606615L245.87632586805555,37.78974870295954L245.87774375,36.602625395163585L245.87916163194444,36.09978473064723L245.88057951388888,36.22017344508251L245.88625104166667,37.04021078807426L245.8876689236111,37.03152564676682L245.88908680555556,36.709349644590134L245.8905046875,36.13683655513111L245.89192256944443,36.644395087118L245.8933404513889,37.49391651590622L245.89475833333333,37.48595455181561L245.89617621527776,38.46104659663402L245.89759409722222,39.38149662447063L245.8990119791667,37.747112587023565L245.9004298611111,35.91479195332121L245.90184774305555,36.4943361954891L245.90326562500002,35.38466820094021L245.90468350694442,36.55836544334616L245.90610138888889,36.06870858651155L245.90751927083335,36.48397835286039L245.90893715277775,37.07390083007434L245.91035503472222,36.083276372066905L245.91177291666668,35.306487797360205L245.91319079861108,33.784604642624174L245.91460868055555,31.60319886586177L245.9160265625,31.485527416775597L245.91744444444447,32.17520123759803L245.91886232638888,33.22227486383821L245.92028020833334,33.13168018995441L245.9231159722222,32.63207467095896L245.92595173611113,32.556710953863046L245.92736961805554,32.29989923347674L245.9287875,33.084674935129044L245.93020538194446,30.277246504116164L245.9316232638889,30.133607791204525L245.9344590277778,29.373309512084063L245.93729479166666,32.451673873375654L245.93871267361112,34.42800648603807L245.94013055555556,33.15483864993428L245.9415484375,34.409089159940834L245.94438420138889,33.469688056446756L245.94580208333335,34.74546143830207L245.94721996527778,33.08193873197183L245.94863784722222,34.28816673377466L245.95005572916668,34.3564828728972L245.954309375,36.10684239810746L245.95572725694444,34.12465034579671L245.95714513888888,34.72049781121703L245.9599809027778,33.271963655095306L245.9613987847222,35.80328291458579L245.96281666666667,38.405048373127215L245.9670703125,37.125512285814494L245.96848819444446,38.69253918223302L245.96990607638887,38.81592588900972L245.97132395833333,38.049348925108745L245.9727418402778,38.814148407597855L245.9741597222222,40.360272629338056L245.97557760416666,39.74301880390425L245.97699548611112,40.0577403610138L245.97841336805556,40.48710694991243L245.97983125,41.36120875492119L245.98124913194445,41.101572254429044L245.98266701388889,40.836094716486144L245.98408489583332,40.68520399483751L245.98692065972222,41.02140234535378L245.98833854166665,40.452808985818365L245.9897564236111,40.78735621223652L245.9925921875,40.291026841012865L245.99401006944444,38.579056969411596L245.99542795138888,39.659174709970415L245.99684583333334,38.28556973897338L245.99826371527777,36.76354401507601L245.99968159722224,37.69149430106842L246.00109947916667,37.45220424596158L246.0025173611111,37.54613225886544L246.00393524305557,38.98674559547888L246.005353125,39.05904759843099L246.00677100694446,39.6620334635879L246.00960677083333,40.08026761722911L246.0110246527778,40.187490855506184L246.01244253472223,39.82858551995557L246.01386041666666,38.60075040546002L246.01527829861112,36.252089427414035L246.01669618055556,36.722771109672635L246.0181140625,37.829033061205365L246.01953194444445,36.67716100508483L246.02094982638891,35.03111677957634L246.02236770833332,36.65316916411871L246.02378559027778,38.70163349770684L246.02520347222224,38.03175921043618L246.02662135416665,39.32148172689256L246.0280392361111,37.89498980420328L246.03087499999998,37.70356894878296L246.03229288194444,38.35221986640465L246.0337107638889,37.16923225476418L246.0351286458333,38.53368402928774L246.03654652777777,39.40999531385896L246.03796440972224,38.99839421997308L246.03938229166667,38.923414172975754L246.04505381944443,38.614861818178156L246.0464717013889,38.39293813636033L246.04788958333333,39.351542760224305L246.04930746527776,38.27742754670189L246.05214322916666,36.99221604203166L246.05356111111112,38.18953350032851L246.05497899305556,39.331650462795665L246.056396875,40.74766510401611L246.05781475694445,41.724773593614486L246.06065052083332,41.750975921753025L246.06206840277778,40.86743301707773L246.06348628472222,39.87173659036995L246.06490416666665,38.33260199383295L246.0663220486111,38.47584960694965L246.06773993055558,38.70156933375469L246.06915781249998,38.68807646287922L246.07057569444444,40.4132063165913L246.0719935763889,37.92939349743216L246.0734114583333,37.40219633518896L246.07482934027777,38.53639076417005L246.07624722222224,37.02431418775305L246.07766510416664,35.476765581477736L246.0790829861111,37.17040933582996L246.08050086805557,39.48796215224695L246.08191875,39.73000968702226L246.08333663194443,41.708172780820036L246.0847545138889,40.37580862773805L246.08617239583336,41.21171995246425L246.08759027777776,40.088946394717794L246.0904260416667,40.78622363024601L246.0918439236111,39.872398142221414L246.09326180555556,37.84644739049929" style="fill: none;" fill="none"></path></g></g></g></g><g opacity="0.2"><g><g><g><path stroke="rgb(255, 112, 67)" stroke-width="2px" d="M28.719198784722224,158.20296875L29.015536111111114,156.612734375L29.816639409722224,157.60375L29.99812829861111,158.36890625L30.11864826388889,157.66828125L30.13140920138889,156.5159375L30.209392708333333,157.829609375L30.232078819444443,157.12898437500002L30.2561828125,156.677265625L30.356852430555556,157.829609375L30.373867013888887,157.617578125L30.430582291666667,157.221171875L30.522744618055555,157.59453125L30.541177083333334,157.534609375L30.60781753472222,156.5896875L30.634757291666666,158.083125L30.665950694444444,158.378125L30.69572621527778,157.3825L30.75811302083333,156.990703125L30.770873958333333,157.553046875L30.796395833333335,157.6775L30.887140277777778,157.20734375L30.888558159722223,156.37765625L30.899901215277776,156.681875L30.97646684027778,157.5484375L31.023256944444444,156.6265625L31.349369791666668,157.414765625L31.465636111111113,157.617578125L31.556380555555556,156.446796875L32.478003819444446,158.235234375L32.98276979166667,157.147421875L33.168512326388885,157.59453125L33.18410902777778,157.45625L33.202541493055556,157.709765625L33.240824305555556,157.967890625L33.29895746527777,158.1015625L33.3698515625,157.553046875L33.54141527777778,156.66804687500002L33.67327829861111,157.24421875L33.74275451388889,157.285703125L33.84200625,156.9953125L33.94692951388889,157.2534375L33.99371961805556,157.198125L34.03058454861111,157.2903125L34.07028524305556,157.193515625L34.11140381944445,156.5159375L34.134089930555554,157.39171875L34.13976145833333,156.557421875L34.15110451388889,157.304140625L34.38647291666667,157.082890625L34.39781597222222,157.198125L34.46162065972222,156.161015625L34.59631944444445,157.193515625L35.213098090277775,156.999921875L35.29249947916667,157.055234375L35.31376770833333,156.935390625L35.448466493055555,156.861640625L35.5902546875,157.848046875L35.59167256944444,157.31796875L35.614358680555554,157.387109375L35.90218871527778,157.87109375L36.14606440972222,157.663671875L36.216958506944444,157.47468750000002L36.26233072916667,157.12898437500002L36.501952777777774,158.161484375L36.55725017361111,157.553046875L36.574264756944444,157.0321875L36.69762048611111,157.912578125L36.723142361111115,158.03703125L36.82664774305556,157.55765625L36.98970416666667,157.442421875L37.001047222222226,157.267265625L37.0450015625,156.926171875L37.11873142361111,156.5528125L37.169775173611114,157.1428125L37.256265972222224,157.497734375L37.43917274305555,156.94921875L37.46327673611111,156.27625L37.528499305555556,157.07828125L37.53700659722222,156.861640625L37.606482812500005,157.414765625L37.851776388888894,157.566875L38.12542760416667,156.833984375L38.42034704861111,157.46085937499998L38.47989809027778,157.46085937499998L38.852801041666666,157.29953125L38.99317135416666,157.20734375L39.015857465277776,157.470078125L39.11936284722223,157.423984375L39.12219861111111,156.704921875L39.18600329861111,157.894140625L39.385924652777774,156.4975L39.45681875,156.53898437499998L39.5206234375,156.7925L39.5971890625,156.386875L39.618457291666665,157.493125L39.6227109375,158.115390625L39.62696458333333,157.57609374999998L39.84390052083333,157.451640625L39.902033680555554,157.654453125L39.91337673611111,157.8434375L39.96300260416666,157.80656249999998L40.106208680555554,157.5783984375L40.1076265625,157.709765625L40.11471597222222,157.11515624999998L40.259339930555555,157.35945312500002L40.294786979166666,157.05984375L40.308965798611105,157.271875L40.55284149305556,156.677265625L40.664854166666665,157.479296875L40.772613194444446,158.087734375L41.100143923611114,158.156875L41.30573680555556,158.09234375L41.48864357638889,157.894140625L41.71975833333334,156.944609375L41.773637847222226,157.5853125L41.84736770833334,157.506953125L41.974977083333336,157.0875L42.060050000000004,157.792734375L42.061467881944445,158.2121875L42.11109375,157.811171875L42.12669045138889,157.258046875L42.18482361111111,157.37328125L42.3663125,157.45625L42.586084201388886,158.01859375L42.591755729166664,158.1015625L42.59459149305556,156.8478125L42.6342921875,157.66828125L42.77749826388889,157.79734375L42.89518246527778,157.516171875L42.950479861111106,157.59453125L42.96040503472222,157.788125L43.24256354166666,157.313359375L43.31345763888889,157.050625L43.49920017361111,158.106171875L43.68636059027778,157.80656249999998L43.784194444444445,158.156875L43.8082984375,158.09234375L43.85367065972222,157.589921875L43.92172899305555,157.322578125L44.023816493055556,158.401171875L44.05217413194445,157.470078125L44.20814114583333,157.72359375L44.297467708333336,158.143046875L44.35276510416667,158.59015625L44.43783802083333,157.073671875L44.76395086805555,158.871328125L44.87029201388889,158.032421875L44.90006753472222,158.03703125L44.99931927083333,158.2859375L45.04894513888889,157.405546875L45.063123958333335,157.331796875L45.073049131944444,157.6775L45.11700347222222,157.9171875L45.11983923611111,158.023203125L45.12834652777777,157.3271875L45.349536111111114,157.857265625L45.45587725694444,157.903359375L45.57356145833334,157.714375L45.57639722222222,156.83859375L45.81034774305556,158.46109375L46.05847708333333,158.253671875L46.12228177083333,157.82039062500002L46.28533819444444,158.378125L46.316531597222216,156.8109375L46.317949479166664,157.77890625L46.4370515625,156.972265625L46.64831597222223,157.617578125L46.65256961805556,158.35046875L46.66249479166666,158.0278125L46.723463715277774,158.788359375L47.042487152777774,158.42421875L47.24524427083334,158.272109375L47.27643767361111,158.336640625L47.29061649305556,157.442421875L47.31755625,157.350234375L47.34166024305555,158.1015625L47.36009270833333,157.5484375L47.36576423611111,158.143046875L47.38277881944444,158.456484375L47.41539010416667,157.66828125L47.47635902777778,158.2490625L47.635161805555555,158.262890625L47.72590625,157.801953125L47.76560694444444,157.89875L47.76702482638889,158.557890625L48.019407812500006,157.3825L48.07895885416667,157.33640625L48.244851041666664,158.36890625L48.29589479166667,158.35046875L48.37104253472222,158.20296875L48.46178697916666,158.20296875L48.517084374999996,158.078515625L48.551113541666666,157.497734375L48.56103871527778,157.414765625L48.73260243055555,157.6590625L48.79357135416667,157.617578125L48.833272048611114,157.2903125L49.045954340277774,157.79734375L49.17214583333334,157.47468750000002L49.194831944444445,157.77890625L49.308262500000005,157.211953125L49.32244131944445,157.57609374999998L49.33520225694445,157.80656249999998L49.42027517361111,157.405546875L49.42452881944445,157.516171875L49.42594670138889,157.46546875L49.627285937500005,157.9540625L49.65564357638889,157.20734375L49.66273298611111,157.387109375L49.678329687499996,157.82039062500002L49.964741840277775,157.110546875L50.09660486111112,157.755859375L50.119290972222224,156.889296875L50.158991666666665,157.599140625L50.42980711805555,158.68234375L50.54465555555556,156.612734375L50.58577413194444,157.5853125L50.632564236111115,156.76945312499998L50.70062256944445,157.64984375L50.81972465277778,156.926171875L50.914722743055556,157.35484375L50.97852743055556,157.68671875L50.98561684027778,156.732578125L51.01397447916666,156.649609375L51.160016319444445,157.608359375L51.18128454861111,157.138203125L51.25217864583333,157.258046875L51.280536284722224,157.783515625L51.38404166666667,157.221171875L51.47053246527778,156.760234375L51.56836631944444,156.9215625L51.602395486111114,157.875703125L51.764034027777775,157.23039062499998L51.81507777777777,157.12898437500002L52.088728993055554,156.299296875L52.27163576388889,156.52515625L52.38648420138889,156.7901953125L52.441781597222224,156.520546875L52.53536180555555,156.7925L52.62468836805556,157.064453125L52.68849305555556,156.534375L52.800505729166666,156.4053125L52.89125017361111,156.151796875L53.00184496527778,156.39609375L53.075574826388895,157.46085937499998L53.22303454861111,156.354609375L53.366240625,156.695703125L53.38467309027778,155.97664062500002L53.42012013888889,156.548203125L53.434298958333336,156.124140625L53.444224131944445,156.880078125L53.54064010416666,156.0734375L53.573251388888885,156.43296875L53.642727604166666,156.050390625L53.69235347222222,156.755625L53.698025,156.1840625L53.70936805555555,156.54359375L54.00145173611111,155.5571875L54.043988194444445,155.912109375L54.10353923611111,155.700078125L54.1191359375,156.179453125L54.14040416666667,155.78765625L54.211298263888885,156.239375L54.365847395833335,156.15640625L54.55017204861111,155.870625L54.63949861111111,156.041171875L54.640916493055556,155.8890625L54.686288715277776,155.773828125L54.74867552083333,156.34078125L55.11590694444445,155.506484375L55.21799444444444,155.83375L55.23075538194444,155.838359375L55.23217326388889,155.875234375L55.287470659722224,155.95359375L55.31157465277778,154.911875L55.46754166666666,156.004296875L55.494481423611106,155.95359375L55.65328420138889,155.82453125L55.721342534722226,155.87984375L55.739775,155.3728125L55.7525359375,155.312890625L55.75820746527778,155.829140625L55.77096840277778,155.764609375L55.94253211805555,155.5272265625L56.06730572916667,155.649375L56.14670711805555,154.47859375000002L56.18215416666666,154.916484375L56.331031770833334,155.43734375L56.4543875,155.28984375L56.58483263888889,155.810703125L56.78191822916667,154.8035546875L56.82729045138889,154.985625L57.0286296875,155.524921875L57.14489600694444,154.962578125L57.16332847222222,154.888828125L57.23989409722222,155.506484375L57.24414774305556,154.80125L57.26683385416666,155.67703125L57.27675902777778,154.704453125L57.3859359375,154.8565625L57.492277083333335,154.174375L57.566006944444446,154.4140625L57.687944791666666,153.96234375L57.94599930555555,155.626328125L57.99278940972222,154.151328125L58.043833159722226,154.88421875L58.052340451388886,154.483203125L58.10480208333333,153.699609375L58.256515451388886,155.06859375L58.293380381944445,155.0778125L58.300469791666664,154.543125L58.30755920138889,154.695234375L58.491883854166666,152.814609375L58.731505902777776,154.03609375L58.76553506944444,153.91625L58.775460243055555,153.266328125L58.820832465277775,154.363359375L58.84777222222222,154.621484375L58.87471197916666,154.25734375L59.24052552083333,154.003828125L59.3000765625,153.690390625L59.39791041666666,153.31703125L59.58790659722222,153.035859375L59.64887552083333,153.349296875L59.67439739583333,153.28015625L59.98633142361111,153.08195312499998L60.0657328125,153.04046875L60.17065607638889,152.109375L60.210356770833336,152.731640625L60.24013229166667,152.436640625L60.29826545138889,151.938828125L60.30535486111111,151.69453125L60.48967951388889,152.916015625L60.68676510416667,153.072734375L60.88243281250001,152.035625L60.898029513888886,152.56109375L61.07242899305556,152.501171875L61.28511128472222,152.925234375L61.29787222222222,153.289375L61.496375694444446,152.307578125L61.500629340277776,152.02640625L61.60555260416667,152.196953125L61.63249236111111,151.5746875L61.71756527777777,151.5009375L61.91323298611111,152.169296875L62.04934965277778,152.206171875L62.20815243055556,151.551640625L62.27904652777778,152.65328125L62.56404079861111,151.5009375L62.775305208333336,150.9478125L62.822095312500004,151.616171875L62.826348958333334,151.210546875L62.980898090277776,151.60234375L63.04612065972223,151.21515625L63.61610920138889,151.46867187499998L63.63595954861111,150.961640625L63.65439201388889,152.104765625L63.88834253472222,151.150625L63.89684982638888,150.5053125L63.96632604166666,151.19671875L63.99468368055555,151.293515625L64.01028038194444,151.090703125L64.05565260416667,150.42234375L64.24564878472222,151.04921875L64.2867673611111,150.638984375L64.30661770833333,150.952421875L64.33922899305556,150.325546875L64.45833107638889,150.657421875L64.64549149305556,150.5053125L65.09212430555556,150.67125L65.13891440972222,149.919921875L65.24241979166666,150.122734375L65.41540138888888,149.7309375L65.55435381944444,150.408515625L65.58554722222223,149.61109375L65.65644131944445,150.12734375L65.76420034722223,149.380625L65.84643750000001,150.030546875L65.89748125,149.892265625L65.92158524305556,149.901484375L65.99247934027777,149.910703125L66.15411788194444,149.339140625L66.24769809027778,150.2471875L66.33702465277777,150.14578125L66.35120347222221,150.08585937499998L66.4235154513889,150.118125L66.85313368055554,149.4728125L66.92402777777778,149.823125L66.98074305555555,149.864609375L66.98357881944445,149.53734375L67.37916788194444,149.40828125000002L67.42170434027777,149.606484375L67.43021163194445,149.339140625L67.5152845486111,149.597265625L67.59468593749999,149.846171875L67.7478171875,149.154765625L67.75207083333333,149.910703125L67.81587552083333,149.20546875L68.23131493055556,149.2515625L68.28235868055555,149.454375L68.41280381944445,149.03953125L68.90480885416667,148.546328125L68.93883802083333,148.71687500000002L69.18271371527777,148.749140625L69.23517534722222,149.578828125L69.44785763888889,149.1040625L69.47763315972223,148.4771875L69.52442326388889,148.74453125L69.68606180555555,148.93351562499998L69.7257625,148.168359375L69.80941753472221,148.896640625L69.93135538194444,149.283828125L69.94695208333334,149.6571875L70.11000850694444,149.86L70.12844097222222,148.76296875L70.2773185763889,148.500234375L70.34112326388889,149.44515625L70.35671996527778,148.712265625L70.44321076388889,148.24671875L70.46447899305555,148.75375L70.55805920138889,148.92890625L70.59350625,149.04874999999998L70.94797673611112,147.808828125L70.98767743055556,148.495625L71.22871736111111,147.357109375L71.36483402777777,149.1040625L71.90930069444444,147.43546875L72.0383279513889,147.95171875L72.05676041666666,146.91L72.09362534722221,147.61984375L72.38145538194445,147.1128125L72.456603125,147.956328125L72.5360045138889,148.260546875L72.6735390625,146.702578125L72.6891357638889,147.9609375L72.81958090277777,147.7765625L72.92450416666667,146.7809375L72.99965190972222,147.246484375L73.09890364583333,146.269296875L73.15987256944445,147.145078125L73.28889982638889,147.301796875L73.39240520833334,147.642890625L73.47322447916666,146.748671875L73.50158211805555,146.18171875000002L73.88441024305556,146.07109375L74.20343368055556,145.983515625L74.20910520833334,144.794296875L74.28992447916667,146.3384375L74.30410329861111,146.7809375L74.44163784722221,145.42578125L74.48417430555556,144.19046875L74.50827829861112,144.1996875L74.54088958333332,145.48109375L74.93647864583335,146.03421875L75.21012986111111,145.24140625L75.29094913194444,144.287265625L75.29236701388889,144.13515625L75.42706579861111,143.2409375L75.53624270833333,144.757421875L75.54758576388889,144.4209375L75.7517607638889,144.3471875L75.86944496527778,142.48039062499998L75.99563645833334,144.070625L76.05802326388888,143.688046875L76.06653055555556,143.72953125L76.2692876736111,142.867578125L76.40824010416667,143.628125L76.52167065972223,142.97359375L76.60674357638888,143.715703125L76.8591265625,143.466796875L76.93002065972223,143.06578125L77.16680694444445,141.563125L77.22919375,141.82125L77.32844548611111,142.812265625L77.38374288194444,141.84890625L77.57941059027777,142.452734375L77.77082465277778,143.21328125L77.78216770833333,142.40203125L78.07992291666666,141.55390625L78.0969375,142.485L78.54640607638889,142.037890625L78.66267239583334,142.42046875L78.9136375,143.13953125L79.07244027777777,142.374375L79.08520121527778,142.517265625L79.33049479166667,141.429453125L79.40280677083334,141.33265625L79.60981753472223,139.742421875L79.75727725694443,139.02335937499998L79.82533559027777,141.895L79.99548142361111,140.93625L80.20391006944445,140.396953125L80.39390625,138.10609375L80.5371123263889,141.816640625L80.71576545138889,138.10148437499998L81.00359548611111,139.055625L81.20493472222222,138.391875L81.27299305555555,137.677421875L81.60477743055556,138.442578125L82.42147743055556,135.086953125L82.54483315972222,135.962734375L82.84400625,135.4971875L82.87378177083333,135.888984375L82.93616857638888,135.39578125L83.29205694444445,139.26765625000002L83.29489270833334,137.31789062500002L83.4976498263889,135.368125L84.06054895833333,136.783203125L84.35688628472222,135.059296875L84.44195920138888,135.372734375L84.64046267361111,133.897734375L85.09985642361112,131.9203125L85.23455520833333,133.611953125L85.28701684027777,136.5296875L85.59327934027779,131.164375L85.98603263888889,133.42296875L86.09379166666666,129.740078125L86.34617465277779,129.99359375L86.36886076388889,129.7446875L86.4326654513889,129.025625L86.61840798611111,131.381015625L86.63542256944444,128.209765625L86.67228750000001,130.3346875L87.10190572916666,127.195703125L87.12600972222222,130.25171875L87.14160642361111,128.956484375L87.76689236111112,129.269921875L88.09725885416667,133.47828125L88.127034375,130.38078125L88.69418715277779,130.205625L88.99903177083334,128.292734375L89.0103748263889,128.16828125L89.10253715277778,129.859921875L89.69804756944446,127.108125L89.7958814236111,128.730625L90.48355416666666,121.6875L90.56579131944444,124.49L90.57855225694443,124.35171875L90.74586232638889,122.609375L90.83377100694443,123.199375L91.02802083333334,122.014765625L91.33995486111111,127.002109375L91.60084513888889,124.674375L91.64338159722222,124.761953125L92.31687552083334,119.46117187499999L92.3764265625,120.34617187500001L92.4785140625,127.914765625L92.54090086805556,113.505859375L92.68410694444445,126.48585937499999L92.92231111111111,122.76609375000001L93.23991666666667,121.424765625L93.41856979166667,122.019375L93.44976319444444,126.3521875L93.51498576388889,124.697421875L93.82691979166665,124.273359375L93.90348541666667,124.614453125L93.9332609375,121.88109374999999L94.60533697916667,124.13968750000001L94.84779479166666,127.97007812500001L95.2476375,119.06937500000001L96.04023350694445,120.705703125L96.07284479166667,117.285546875L96.30963107638888,116.18851562500001L96.32806354166667,119.53953125L96.81581493055555,119.35515625L97.51199496527778,115.884296875L98.182653125,120.880859375L98.50876597222222,114.206484375L98.75264166666668,119.617890625L98.91428020833334,120.59046874999999L99.01353194444444,117.635859375L99.34106267361112,112.095390625L99.45307534722222,116.635625L99.73381597222222,113.71328125L100.173359375,115.35421875L100.91349374999999,115.22515625L100.93334409722222,111.191953125L101.066625,109.44039062499999L101.16020520833332,115.40492187499999L101.21124895833334,110.6065625L101.67206059027778,110.42218749999999L102.12720069444444,113.865390625L102.3044359375,117.101171875L102.98218350694445,112.906640625L103.0062875,112.095390625L103.70955694444446,116.40515625L104.39864756944445,111.50078125L105.11326006944444,106.2921875L105.54854982638889,106.06171875L105.69175590277779,111.1228125L105.88033420138889,112.07234375L106.07033038194444,109.5740625L106.34823524305556,111.6390625L106.43330815972222,112.40421875L106.86576215277778,106.8821875L107.56619583333332,107.817890625L107.60589652777779,114.639765625L107.89514444444444,105.96953125L108.57005625,103.9321875L108.77423125,103.48046875L108.89333333333335,103.360625L109.21377465277777,107.27859375L109.49876892361112,110.43140625L109.51152986111111,104.07046875L109.65473593749999,104.093515625L109.92271562500001,105.126015625L110.18927743055555,102.12531249999999L110.27151458333333,113.671796875L110.46292864583334,106.9375L110.8698607638889,104.88171874999999L111.00172378472223,98.04140625L111.25977829861111,108.154375L112.25938506944445,107.31085937499999L112.3983375,101.17578125L113.04489166666667,102.664609375L113.62338749999999,98.94484375L113.81480156250001,102.812109375L114.25009131944444,97.4975L114.45001267361111,97.055L114.90657065972222,96.082421875L115.26813055555556,102.61390625L116.10326302083334,95.27117187500001L116.54138854166666,94.690390625L116.86891927083335,106.628671875L117.06600486111111,97.391484375L117.47577274305556,101.300234375L117.73099149305555,99.023203125L118.19038524305554,91.67125L118.36620260416666,97.9584375L118.96029513888888,92.7775L119.48774722222223,95.47859375L119.64087847222223,97.61734375L119.78408454861112,85.4209375L119.82236736111112,94.395390625L119.90035086805555,100.5028125L121.23032413194444,85.646796875L121.29129305555556,87.886953125L121.38770902777777,89.260546875L121.68688211805556,93.7178125L121.8286703125,86.882109375L121.93926510416667,96.36359375L122.09806788194443,95.55234375L123.40393715277779,86.63781250000001L123.69034930555556,86.310546875L123.75131822916667,102.20828125L124.09728142361111,92.708359375L124.29720277777778,90.38984375L124.96502517361111,93.5334375L125.23158697916668,85.646796875L125.68530920138889,98.76046875L126.38999652777778,97.456015625L126.81110746527777,93.50578125L127.23788993055555,89.288203125L127.36408142361111,83.987421875L127.43355763888889,85.17203125L127.47042256944444,90.15015625000001L127.609375,75.819609375L127.6221359375,81.75187500000001L128.26727222222223,83.56796875L128.87128993055555,88.062109375L128.99322777777778,91.602109375L129.12650868055556,94.496796875L129.15770208333333,95.47859375L129.76171979166665,91.855625L129.76455555555557,69.97953125000001L130.71453645833333,87.12640624999999L131.58936961805557,78.42390625L131.8247380208333,91.574453125L133.18165104166667,84.92312499999998L133.18732256944443,84.678828125L133.64529843749997,86.48109375000001L133.95865034722223,80.23078124999999L134.95258559027778,81.691953125L135.1156420138889,83.374375L135.76644982638888,78.705078125L135.9323420138889,92.076875L136.73202743055558,77.72789062499999L136.89508385416667,76.21140625L137.7132017361111,75.71359375L137.88901909722222,88.495390625L137.98543506944443,73.0125L138.21229618055557,81.1803125L138.34557708333335,78.16578125000001L139.18638107638887,80.862265625L139.78189149305555,86.45343749999999L139.94069427083335,71.6665625L140.32068663194445,76.22062500000001L140.37881979166667,80.806953125L140.50926493055553,74.36304687500001L140.95022621527778,70.094765625L141.1260435763889,81.470703125L141.18275885416668,85.33335937499999L142.64743090277778,87.81781249999999L142.76369722222222,74.12796875000001L143.4456984375,75.37249999999999L143.48539913194443,74.787109375L143.71934965277777,90.200859375L143.80867621527779,73.413515625L144.3233673611111,82.95953125000001L147.04002916666667,75.95328124999999L147.56748125000001,70.25609375L147.65964357638887,77.478984375L148.23246788194444,84.236328125L148.54298402777778,78.18421875000001L148.96693072916668,83.16695312499999L149.6574392361111,59.018437500000005L150.94487604166667,69.993359375L151.16039409722222,79.50250000000001L151.25964583333334,76.02703125000001L151.9600795138889,62.268046874999996L152.71864635416668,64.28234375L152.7895404513889,69.228203125L153.3425144097222,77.1240625L153.47579531250003,61.39687500000001L154.44137291666667,76.11921875L156.5639421875,61.39226562499999L157.24736128472225,70.085546875L157.25161493055558,62.0975L157.28422621527778,66.25515624999998L157.9492128472222,46.35648437499998L158.08249375,71.49140625L158.13779114583335,86.99734374999998L158.40577083333335,81.175703125L158.80419565972224,72.57921875L160.4432671875,65.54992187500001L161.13944722222223,70.352890625L162.089428125,66.40265624999999L162.21845538194444,77.783203125L162.57150798611113,66.324296875L162.63105902777778,65.86796875L162.9089638888889,53.58859375L162.96284340277776,77.64492187500001L163.33574635416667,61.11570312500001L163.6335015625,58.32242187499999L164.37505381944445,61.36L164.4757234375,61.659609375L164.50549895833333,71.136484375L164.95071388888888,47.59640625L164.95922118055557,66.64234375L165.88084444444442,57.962890625L166.03822934027778,63.904375L166.54441319444445,69.61999999999999L166.7542597222222,80.779296875L167.40364965277777,66.250546875L167.4079032986111,59.04148437500001L168.76056267361113,62.383281249999996L170.57119791666668,57.492734375L171.30140711805555,55.22492187500001L171.5552079861111,75.303359375L171.7012498263889,66.01546875L171.9763189236111,59.67296875000001L172.2216125,60.608671875L172.45272725694446,49.09906249999999L173.85359461805555,63.987343749999994L174.12157430555555,52.256484375000014L175.207671875,68.8271875L175.33102760416665,56.8059375L175.44162239583335,64.60960937499999L175.54654565972223,55.920937499999994L176.37600659722222,57.193124999999995L176.65249357638888,52.957109375L177.6166532986111,62.249609375000006L177.6676970486111,52.55609374999999L178.49574010416669,56.681484375L179.74631197916668,49.56921874999999L180.43540260416665,61.475234375L180.50204305555556,59.391796875L180.70480017361112,65.39320312500001L181.06636006944444,68.877890625L181.52717170138888,58.958515625000004L182.23185902777777,49.684453125000005L182.97199340277777,64.6603125L184.33316006944443,44.83078125L185.16971041666667,59.98640624999999L185.47171927083335,60.405859375000006L185.94387395833334,49.36179687500001L186.43020746527776,57.354453125000006L186.9860171875,53.224453125L187.4964546875,70.7815625L187.7105548611111,56.24359375L189.24328524305557,56.9903125L189.5538013888889,61.19867187499999L190.163490625,37.10546875L190.90646076388887,75.6859375L191.41548038194446,68.444609375L192.07054184027777,53.118437499999985L192.8787345486111,52.293359374999994L193.18641493055554,57.843046875L193.20201163194446,57.926015625000005L193.92938506944444,55.722734375L194.69787708333334,47.490390625L195.08779461805557,46.646874999999994L196.80910329861112,38.4975L197.4400607638889,40.544062499999995L198.15892690972223,39.239609374999986L198.17877725694444,51.412968750000005L199.56263003472222,48.36156249999999L200.24888489583333,58.101171875000006L200.5735798611111,52.837265624999986L202.15451822916668,46.416406249999994L202.19138315972222,63.9596875L202.50473506944445,66.24132812500001L202.70323854166668,63.2775L202.7145815972222,43.17140624999999L203.22218333333333,53.24749999999999L203.75530694444444,38.2578125L204.23596892361113,48.983828125L205.5120626736111,64.54507812499999L205.9005623263889,48.24632812499999L206.2266751736111,50.859843749999996L206.77114184027778,67.3890625L209.6948144097222,36.059140625L209.77563368055556,41.44289062499999L209.9500331597222,43.498671874999985L210.00816631944446,52.892578125L210.45763489583334,58.52523437500001L210.68166024305555,43.212890625L212.11230312499998,50.8321875L213.3543677083333,44.42976562499999L214.01793645833334,31.657187499999992L214.2334545138889,43.68765625L214.51986666666667,34.29374999999999L214.6418045138889,42.90867187500001L216.14901302083334,44.360625L217.43786770833333,50.38507812500001L217.5456267361111,37.893671874999995L217.67748975694445,37.50187500000001L218.64164947916666,54.432109374999996L220.46504565972222,42.885625000000005L221.39942986111112,53.358125000000015L222.69679184027777,44.153203125000005L222.89671319444443,50.80453125L222.92790659722223,32.82796875L223.54184947916667,54.13249999999999L223.8878126736111,52.030625L225.1156984375,48.32007812499998L226.30246562500002,39.534609375L226.51231215277778,14.671640625000009L227.60408125,18.93531249999998L228.33854409722224,46.679140625L228.4562282986111,50.20070312499999L229.51963975694446,27.029374999999987L230.72909305555555,37.64476562499999L231.42952673611111,35.547499999999985L232.78643975694442,43.59546875000001L233.9689532986111,52.58375000000001L234.40707881944445,38.92156249999999L235.68459045138889,19.649765624999986L236.95643055555556,56.404921875000014L237.19605260416668,49.88265625000001L237.56895555555556,53.390390624999995L238.43669930555555,50.523359375L238.88475000000003,11.68015625000001L239.38809809027777,56.801328125L239.9410720486111,32.56523437499999L239.9892800347222,31.657187499999992L240.2076338541667,24.955156249999987L241.10231736111112,31.03953125000001L241.27246319444444,42.59062499999999L241.6567092013889,35.98078125000001L244.43150416666666,42.60906249999999L244.8597045138889,32.445390625000016L245.12910208333335,26.513125000000002L245.86781857638888,42.93171874999999L245.86923645833335,28.366093750000005L245.87065434027778,37.15617187500001L245.87207222222222,56.985703124999986L245.8749079861111,35.61203125L245.87632586805555,33.04460937499999L245.87774375,25.918515624999998L245.87916163194444,31.57421875L245.88057951388888,37.30367187500002L245.88625104166667,44.420546875000014L245.8876689236111,36.95335937499999L245.88908680555556,33.80976562500001L245.8905046875,30.984218749999997L245.89192256944443,41.21242187499999L245.8933404513889,45.13960937499999L245.89475833333333,37.41429687500002L245.89617621527776,47.236875L245.89759409722222,47.66554687499999L245.8990119791667,23.037656249999998L245.9004298611111,19.423906249999987L245.90184774305555,41.710234375L245.90326562500002,25.397656249999983L245.90468350694442,47.121640625L245.90610138888889,31.661796874999993L245.90751927083335,40.22140625L245.90893715277775,42.383203124999994L245.91035503472222,27.167656249999993L245.91177291666668,28.31539062500002L245.91319079861108,20.08765625000001L245.91460868055555,11.970546874999997L245.9160265625,30.426484375L245.91744444444447,38.382265625L245.91886232638888,42.6459375L245.92028020833334,32.31632812500001L245.9231159722222,28.135625000000005L245.92595173611113,31.87843749999999L245.92736961805554,29.988593750000007L245.9287875,40.14765625000001L245.93020538194446,5.010390625000014L245.9316232638889,28.840859375000008L245.9344590277778,22.530625000000015L245.93729479166666,60.156953125L245.93871267361112,52.215L245.94013055555556,21.696328125000008L245.9415484375,45.69734374999999L245.94438420138889,25.015078125000002L245.94580208333335,46.227421875000005L245.94721996527778,18.110234375000005L245.94863784722222,45.14421874999999L245.95005572916668,34.971328125000014L245.954309375,51.860078125L245.95572725694444,16.28492187500001L245.95714513888888,40.083124999999995L245.9599809027778,20.235156250000017L245.9613987847222,58.58515625L245.96281666666667,61.8209375L245.9670703125,25.609687500000007L245.96848819444446,52.795781250000005L245.96990607638887,39.926406250000014L245.97132395833333,31.15015625000001L245.9727418402778,45.69734374999999L245.9741597222222,54.275390625L245.97557760416666,34.18773437499999L245.97699548611112,42.890234375000006L245.97841336805556,44.35140625L245.97983125,49.22812499999999L245.98124913194445,38.76484375000001L245.98266701388889,38.44679687499999L245.98408489583332,39.32718750000001L245.98692065972222,44.04718750000001L245.98833854166665,35.33546874999999L245.9897564236111,43.79828125L245.9925921875,35.8240625L245.99401006944444,23.171328125000002L245.99542795138888,49.380234374999986L245.99684583333334,25.923125L245.99826371527777,23.065312500000005L245.99968159722224,46.04304687499999L246.00109947916667,35.29859375000001L246.0025173611111,38.391484375000005L246.00393524305557,51.952265624999995L246.005353125,39.70976562499999L246.00677100694446,45.08890625000001L246.00960677083333,43.844374999999985L246.0110246527778,41.1525L246.01244253472223,36.59843749999999L246.01386041666666,27.550234375000002L246.01527829861112,15.114140625000005L246.01669618055556,40.95890625000001L246.0181140625,47.78539062500002L246.01953194444445,26.31031250000001L246.02094982638891,20.216718750000013L246.02236770833332,51.25164062499999L246.02378559027778,57.137812499999995L246.02520347222224,32.00289062499999L246.02662135416665,50.928984375L246.0280392361111,25.056562500000013L246.03087499999998,35.98078125000001L246.03229288194444,44.190078124999985L246.0337107638889,26.522343750000005L246.0351286458333,50.81375L246.03654652777777,47.29679687500001L246.03796440972224,35.29398437499998L246.03938229166667,38.24859375L246.04505381944443,35.837890625L246.0464717013889,36.395624999999995L246.04788958333333,47.97898437500001L246.04930746527776,28.610390625000008L246.05214322916666,25.425312500000018L246.05356111111112,48.965390625L246.05497899305556,49.610703125L246.056396875,53.491796875000006L246.05781475694445,50.51875L246.06065052083332,41.98679687499998L246.06206840277778,32.91554687499999L246.06348628472222,30.910468750000007L246.06490416666665,24.480390625000013L246.0663220486111,39.765078125L246.06773993055558,40.733046874999985L246.06915781249998,38.56664062499999L246.07057569444444,55.939375L246.0719935763889,15.575078125000005L246.0734114583333,32.65742187499998L246.07482934027777,48.744140625L246.07624722222224,23.415625000000006L246.07766510416664,21.548828125L246.0790829861111,52.41320312500001L246.08050086805557,60.345937500000005L246.08191875,41.90843750000002L246.08333663194443,59.511640625L246.0847545138889,28.38453125000001L246.08617239583336,48.734921875L246.08759027777776,29.983984375000006L246.0904260416667,47.06171875000001L246.0918439236111,31.647968750000018L246.09326180555556,19.612890625000006" style="fill: none;" fill="none"></path></g></g></g></g></g></g><g transform="translate(74, 177)" clip-path="url(#clip_1)"><clipPath id="clip_1"><rect width="255" height="23"></rect></clipPath><g><g><line x1="0" y1="0" x2="0" y2="5" style="visibility: inherit;" fill="rgb(0, 0, 0)" stroke="rgb(204, 204, 204)" stroke-width="1px"></line><line x1="28.357638888888886" y1="0" x2="28.357638888888886" y2="5" style="visibility: inherit;" fill="rgb(0, 0, 0)" stroke="rgb(204, 204, 204)" stroke-width="1px"></line><line x1="56.71527777777777" y1="0" x2="56.71527777777777" y2="5" style="visibility: inherit;" fill="rgb(0, 0, 0)" stroke="rgb(204, 204, 204)" stroke-width="1px"></line><line x1="85.07291666666666" y1="0" x2="85.07291666666666" y2="5" style="visibility: inherit;" fill="rgb(0, 0, 0)" stroke="rgb(204, 204, 204)" stroke-width="1px"></line><line x1="113.43055555555554" y1="0" x2="113.43055555555554" y2="5" style="visibility: inherit;" fill="rgb(0, 0, 0)" stroke="rgb(204, 204, 204)" stroke-width="1px"></line><line x1="141.78819444444446" y1="0" x2="141.78819444444446" y2="5" style="visibility: inherit;" fill="rgb(0, 0, 0)" stroke="rgb(204, 204, 204)" stroke-width="1px"></line><line x1="170.14583333333331" y1="0" x2="170.14583333333331" y2="5" style="visibility: inherit;" fill="rgb(0, 0, 0)" stroke="rgb(204, 204, 204)" stroke-width="1px"></line><line x1="198.50347222222223" y1="0" x2="198.50347222222223" y2="5" style="visibility: inherit;" fill="rgb(0, 0, 0)" stroke="rgb(204, 204, 204)" stroke-width="1px"></line><line x1="226.8611111111111" y1="0" x2="226.8611111111111" y2="5" style="visibility: inherit;" fill="rgb(0, 0, 0)" stroke="rgb(204, 204, 204)" stroke-width="1px"></line><line x1="255.21875" y1="0" x2="255.21875" y2="5" style="visibility: inherit;" fill="rgb(0, 0, 0)" stroke="rgb(204, 204, 204)" stroke-width="1px"></line></g><g transform="translate(0, 8)"><text x="0" y="0" dx="0em" dy="0.95em" style="text-anchor: middle; visibility: hidden; font-family: &quot;Helvetica Neue&quot;, sans-serif; font-size: 12px; font-weight: 200;" fill="rgb(50, 49, 63)" stroke="none" stroke-width="1px">-20k</text><text x="28.357638888888886" y="0" dx="0em" dy="0.95em" style="text-anchor: middle; visibility: inherit; font-family: &quot;Helvetica Neue&quot;, sans-serif; font-size: 12px; font-weight: 200;" fill="rgb(50, 49, 63)" stroke="none" stroke-width="1px">0</text><text x="56.71527777777777" y="0" dx="0em" dy="0.95em" style="text-anchor: middle; visibility: hidden; font-family: &quot;Helvetica Neue&quot;, sans-serif; font-size: 12px; font-weight: 200;" fill="rgb(50, 49, 63)" stroke="none" stroke-width="1px">20k</text><text x="85.07291666666666" y="0" dx="0em" dy="0.95em" style="text-anchor: middle; visibility: inherit; font-family: &quot;Helvetica Neue&quot;, sans-serif; font-size: 12px; font-weight: 200;" fill="rgb(50, 49, 63)" stroke="none" stroke-width="1px">40k</text><text x="113.43055555555554" y="0" dx="0em" dy="0.95em" style="text-anchor: middle; visibility: hidden; font-family: &quot;Helvetica Neue&quot;, sans-serif; font-size: 12px; font-weight: 200;" fill="rgb(50, 49, 63)" stroke="none" stroke-width="1px">60k</text><text x="141.78819444444446" y="0" dx="0em" dy="0.95em" style="text-anchor: middle; visibility: inherit; font-family: &quot;Helvetica Neue&quot;, sans-serif; font-size: 12px; font-weight: 200;" fill="rgb(50, 49, 63)" stroke="none" stroke-width="1px">80k</text><text x="170.14583333333331" y="0" dx="0em" dy="0.95em" style="text-anchor: middle; visibility: hidden; font-family: &quot;Helvetica Neue&quot;, sans-serif; font-size: 12px; font-weight: 200;" fill="rgb(50, 49, 63)" stroke="none" stroke-width="1px">100k</text><text x="198.50347222222223" y="0" dx="0em" dy="0.95em" style="text-anchor: middle; visibility: inherit; font-family: &quot;Helvetica Neue&quot;, sans-serif; font-size: 12px; font-weight: 200;" fill="rgb(50, 49, 63)" stroke="none" stroke-width="1px">120k</text><text x="226.8611111111111" y="0" dx="0em" dy="0.95em" style="text-anchor: middle; visibility: hidden; font-family: &quot;Helvetica Neue&quot;, sans-serif; font-size: 12px; font-weight: 200;" fill="rgb(50, 49, 63)" stroke="none" stroke-width="1px">140k</text><text x="255.21875" y="0" dx="0em" dy="0.95em" style="text-anchor: middle; visibility: hidden; font-family: &quot;Helvetica Neue&quot;, sans-serif; font-size: 12px; font-weight: 200;" fill="rgb(50, 49, 63)" stroke="none" stroke-width="1px">160k</text></g><line x1="0" y1="0" x2="255.21875" y2="0" fill="rgb(0, 0, 0)" stroke="rgb(204, 204, 204)" stroke-width="1px"></line></g></g></g></g></svg>