<svg viewBox="0 0 330 200" xmlns="http://www.w3.org/2000/svg"><g><g><g><g><g><line x1="42.390625" y1="177" x2="37.390625" y2="177" style="visibility: inherit;" fill="rgb(0, 0, 0)" stroke="rgb(204, 204, 204)" stroke-width="1px"></line><line x1="42.390625" y1="160.9090909090909" x2="37.390625" y2="160.9090909090909" style="visibility: inherit;" fill="rgb(0, 0, 0)" stroke="rgb(204, 204, 204)" stroke-width="1px"></line><line x1="42.390625" y1="144.8181818181818" x2="37.390625" y2="144.8181818181818" style="visibility: inherit;" fill="rgb(0, 0, 0)" stroke="rgb(204, 204, 204)" stroke-width="1px"></line><line x1="42.390625" y1="128.72727272727275" x2="37.390625" y2="128.72727272727275" style="visibility: inherit;" fill="rgb(0, 0, 0)" stroke="rgb(204, 204, 204)" stroke-width="1px"></line><line x1="42.390625" y1="112.63636363636364" x2="37.390625" y2="112.63636363636364" style="visibility: inherit;" fill="rgb(0, 0, 0)" stroke="rgb(204, 204, 204)" stroke-width="1px"></line><line x1="42.390625" y1="96.54545454545455" x2="37.390625" y2="96.54545454545455" style="visibility: inherit;" fill="rgb(0, 0, 0)" stroke="rgb(204, 204, 204)" stroke-width="1px"></line><line x1="42.390625" y1="80.45454545454547" x2="37.390625" y2="80.45454545454547" style="visibility: inherit;" fill="rgb(0, 0, 0)" stroke="rgb(204, 204, 204)" stroke-width="1px"></line><line x1="42.390625" y1="64.36363636363636" x2="37.390625" y2="64.36363636363636" style="visibility: inherit;" fill="rgb(0, 0, 0)" stroke="rgb(204, 204, 204)" stroke-width="1px"></line><line x1="42.390625" y1="48.27272727272728" x2="37.390625" y2="48.27272727272728" style="visibility: inherit;" fill="rgb(0, 0, 0)" stroke="rgb(204, 204, 204)" stroke-width="1px"></line><line x1="42.390625" y1="32.18181818181819" x2="37.390625" y2="32.18181818181819" style="visibility: inherit;" fill="rgb(0, 0, 0)" stroke="rgb(204, 204, 204)" stroke-width="1px"></line><line x1="42.390625" y1="16.090909090909093" x2="37.390625" y2="16.090909090909093" style="visibility: inherit;" fill="rgb(0, 0, 0)" stroke="rgb(204, 204, 204)" stroke-width="1px"></line><line x1="42.390625" y1="0" x2="37.390625" y2="0" style="visibility: inherit;" fill="rgb(0, 0, 0)" stroke="rgb(204, 204, 204)" stroke-width="1px"></line></g><g transform="translate(32.390625, 0)"><text x="0" y="177" dx="0em" dy="0.3em" style="text-anchor: end; visibility: hidden; font-family: &quot;Helvetica Neue&quot;, sans-serif; font-size: 12px; font-weight: 200;" fill="rgb(50, 49, 63)" stroke="none" stroke-width="1px">-50</text><text x="0" y="160.9090909090909" dx="0em" dy="0.3em" style="text-anchor: end; visibility: inherit; font-family: &quot;Helvetica Neue&quot;, sans-serif; font-size: 12px; font-weight: 200;" fill="rgb(50, 49, 63)" stroke="none" stroke-width="1px">0</text><text x="0" y="144.8181818181818" dx="0em" dy="0.3em" style="text-anchor: end; visibility: hidden; font-family: &quot;Helvetica Neue&quot;, sans-serif; font-size: 12px; font-weight: 200;" fill="rgb(50, 49, 63)" stroke="none" stroke-width="1px">50</text><text x="0" y="128.72727272727275" dx="0em" dy="0.3em" style="text-anchor: end; visibility: inherit; font-family: &quot;Helvetica Neue&quot;, sans-serif; font-size: 12px; font-weight: 200;" fill="rgb(50, 49, 63)" stroke="none" stroke-width="1px">100</text><text x="0" y="112.63636363636364" dx="0em" dy="0.3em" style="text-anchor: end; visibility: hidden; font-family: &quot;Helvetica Neue&quot;, sans-serif; font-size: 12px; font-weight: 200;" fill="rgb(50, 49, 63)" stroke="none" stroke-width="1px">150</text><text x="0" y="96.54545454545455" dx="0em" dy="0.3em" style="text-anchor: end; visibility: inherit; font-family: &quot;Helvetica Neue&quot;, sans-serif; font-size: 12px; font-weight: 200;" fill="rgb(50, 49, 63)" stroke="none" stroke-width="1px">200</text><text x="0" y="80.45454545454547" dx="0em" dy="0.3em" style="text-anchor: end; visibility: hidden; font-family: &quot;Helvetica Neue&quot;, sans-serif; font-size: 12px; font-weight: 200;" fill="rgb(50, 49, 63)" stroke="none" stroke-width="1px">250</text><text x="0" y="64.36363636363636" dx="0em" dy="0.3em" style="text-anchor: end; visibility: inherit; font-family: &quot;Helvetica Neue&quot;, sans-serif; font-size: 12px; font-weight: 200;" fill="rgb(50, 49, 63)" stroke="none" stroke-width="1px">300</text><text x="0" y="48.27272727272728" dx="0em" dy="0.3em" style="text-anchor: end; visibility: hidden; font-family: &quot;Helvetica Neue&quot;, sans-serif; font-size: 12px; font-weight: 200;" fill="rgb(50, 49, 63)" stroke="none" stroke-width="1px">350</text><text x="0" y="32.18181818181819" dx="0em" dy="0.3em" style="text-anchor: end; visibility: inherit; font-family: &quot;Helvetica Neue&quot;, sans-serif; font-size: 12px; font-weight: 200;" fill="rgb(50, 49, 63)" stroke="none" stroke-width="1px">400</text><text x="0" y="16.090909090909093" dx="0em" dy="0.3em" style="text-anchor: end; visibility: hidden; font-family: &quot;Helvetica Neue&quot;, sans-serif; font-size: 12px; font-weight: 200;" fill="rgb(50, 49, 63)" stroke="none" stroke-width="1px">450</text><text x="0" y="0" dx="0em" dy="0.3em" style="text-anchor: end; visibility: hidden; font-family: &quot;Helvetica Neue&quot;, sans-serif; font-size: 12px; font-weight: 200;" fill="rgb(50, 49, 63)" stroke="none" stroke-width="1px">500</text></g><line x1="42.390625" y1="0" x2="42.390625" y2="177" fill="rgb(0, 0, 0)" stroke="rgb(204, 204, 204)" stroke-width="1px"></line></g></g><g transform="translate(42, 0)" clip-path="url(#clip_0)"><clipPath id="clip_0"><rect width="287" height="177"></rect></clipPath><g><g><g><line x1="0" y1="0" x2="0" y2="177" fill="rgb(0, 0, 0)" stroke="rgb(60, 60, 60)" stroke-width="1px" opacity="0.25"></line><line x1="31.95659722222222" y1="0" x2="31.95659722222222" y2="177" fill="rgb(0, 0, 0)" stroke="rgb(60, 60, 60)" stroke-width="1px" opacity="0.25"></line><line x1="63.91319444444444" y1="0" x2="63.91319444444444" y2="177" fill="rgb(0, 0, 0)" stroke="rgb(60, 60, 60)" stroke-width="1px" opacity="0.25"></line><line x1="95.86979166666666" y1="0" x2="95.86979166666666" y2="177" fill="rgb(0, 0, 0)" stroke="rgb(60, 60, 60)" stroke-width="1px" opacity="0.25"></line><line x1="127.82638888888889" y1="0" x2="127.82638888888889" y2="177" fill="rgb(0, 0, 0)" stroke="rgb(60, 60, 60)" stroke-width="1px" opacity="0.25"></line><line x1="159.78298611111111" y1="0" x2="159.78298611111111" y2="177" fill="rgb(0, 0, 0)" stroke="rgb(60, 60, 60)" stroke-width="1px" opacity="0.25"></line><line x1="191.73958333333331" y1="0" x2="191.73958333333331" y2="177" fill="rgb(0, 0, 0)" stroke="rgb(60, 60, 60)" stroke-width="1px" opacity="0.25"></line><line x1="223.69618055555557" y1="0" x2="223.69618055555557" y2="177" fill="rgb(0, 0, 0)" stroke="rgb(60, 60, 60)" stroke-width="1px" opacity="0.25"></line><line x1="255.65277777777777" y1="0" x2="255.65277777777777" y2="177" fill="rgb(0, 0, 0)" stroke="rgb(60, 60, 60)" stroke-width="1px" opacity="0.25"></line><line x1="287.609375" y1="0" x2="287.609375" y2="177" fill="rgb(0, 0, 0)" stroke="rgb(60, 60, 60)" stroke-width="1px" opacity="0.25"></line></g><g><line x1="0" y1="177" x2="287.609375" y2="177" fill="rgb(0, 0, 0)" stroke="rgb(60, 60, 60)" stroke-width="1px" opacity="0.25"></line><line x1="0" y1="160.9090909090909" x2="287.609375" y2="160.9090909090909" fill="rgb(0, 0, 0)" stroke="rgb(60, 60, 60)" stroke-width="1px" opacity="0.25"></line><line x1="0" y1="144.8181818181818" x2="287.609375" y2="144.8181818181818" fill="rgb(0, 0, 0)" stroke="rgb(60, 60, 60)" stroke-width="1px" opacity="0.25"></line><line x1="0" y1="128.72727272727275" x2="287.609375" y2="128.72727272727275" fill="rgb(0, 0, 0)" stroke="rgb(60, 60, 60)" stroke-width="1px" opacity="0.25"></line><line x1="0" y1="112.63636363636364" x2="287.609375" y2="112.63636363636364" fill="rgb(0, 0, 0)" stroke="rgb(60, 60, 60)" stroke-width="1px" opacity="0.25"></line><line x1="0" y1="96.54545454545455" x2="287.609375" y2="96.54545454545455" fill="rgb(0, 0, 0)" stroke="rgb(60, 60, 60)" stroke-width="1px" opacity="0.25"></line><line x1="0" y1="80.45454545454547" x2="287.609375" y2="80.45454545454547" fill="rgb(0, 0, 0)" stroke="rgb(60, 60, 60)" stroke-width="1px" opacity="0.25"></line><line x1="0" y1="64.36363636363636" x2="287.609375" y2="64.36363636363636" fill="rgb(0, 0, 0)" stroke="rgb(60, 60, 60)" stroke-width="1px" opacity="0.25"></line><line x1="0" y1="48.27272727272728" x2="287.609375" y2="48.27272727272728" fill="rgb(0, 0, 0)" stroke="rgb(60, 60, 60)" stroke-width="1px" opacity="0.25"></line><line x1="0" y1="32.18181818181819" x2="287.609375" y2="32.18181818181819" fill="rgb(0, 0, 0)" stroke="rgb(60, 60, 60)" stroke-width="1px" opacity="0.25"></line><line x1="0" y1="16.090909090909093" x2="287.609375" y2="16.090909090909093" fill="rgb(0, 0, 0)" stroke="rgb(60, 60, 60)" stroke-width="1px" opacity="0.25"></line><line x1="0" y1="0" x2="287.609375" y2="0" fill="rgb(0, 0, 0)" stroke="rgb(60, 60, 60)" stroke-width="1px" opacity="0.25"></line></g></g></g><g><g><line x1="0" y1="160.9090909090909" x2="287.609375" y2="160.9090909090909" fill="rgb(0, 0, 0)" stroke="rgb(153, 153, 153)" stroke-width="1.5px"></line></g></g><g><g><line x1="31.95659722222222" y1="0" x2="31.95659722222222" y2="177" fill="rgb(0, 0, 0)" stroke="rgb(153, 153, 153)" stroke-width="1.5px"></line></g></g><g><g><g><g><g><path stroke="rgb(255, 112, 67)" stroke-width="2px" d="M34.08330876736111,153.19618165449663L34.489157552083334,152.99383865100916L34.52430980902778,153.1832977197411L34.77516909722222,153.9717996573058L34.823103993055554,154.22248070004872L34.92216944444444,154.55061852259644L35.01963706597222,154.414306109497L35.168235243055555,154.6852189415863L35.17302873263889,154.75051670544735L35.17942005208334,154.74930721582612L35.22895277777778,154.45984791746184L35.55171440972222,154.6858842925381L35.586866666666666,154.39435875609442L35.84411727430555,154.53977583342314L36.382585937500004,154.62775581719606L36.38578159722222,154.4296532676495L37.14155512152778,154.38872432233484L37.34927300347223,154.263555619788L37.871763368055554,153.99123782541776L38.35430798611111,152.62526525888333L39.84508324652777,152.12693335020447L40.228562413194446,152.5430144780402L40.74945494791667,150.6493066998719L41.224010416666665,148.3413958248059L41.24158654513889,147.45801461974082L41.259162673611115,145.5232945361087L41.26235833333333,144.83873180325676L41.40456519097223,143.9223640499473L41.524402430555554,142.5905390173496L41.617076562499996,141.7575153462283L42.22584973958334,140.49899883629746L42.38563272569444,139.08834332064865L42.45433940972222,139.28006445831778L42.68123125,138.91250561203725L42.92889487847223,137.6996977196745L43.476950520833334,136.7169577062169L43.54565720486111,135.7628776559548L44.4931703125,134.7553175665527L45.44068342013889,134.88680895607928L45.69154270833333,136.8895365808085L47.40920980902778,135.33049098661508L47.487503472222215,133.34097464608791L47.60893854166667,132.08770238790862L47.866189149305555,130.7693975753672L48.21291822916667,130.16771774179983L48.55645164930555,128.4868618819646L48.60438654513889,127.52355293620761L48.78973480902778,126.47873159120826L49.040594097222225,125.73588869488316L49.05018107638889,124.8780948578756L49.93378098958333,123.8715084695677L50.32205364583333,122.9402141989213L50.596880381944445,122.03616549389922L50.739087239583334,121.41489705607387L50.91804418402778,120.73510561877897L50.97237039930556,120.47462594014092L51.53320868055555,119.8955370081759L53.4090609375,119.17909271695686L54.05298637152777,118.40157986600701L54.148856163194445,117.81193045515985L54.701705295138886,117.19884813865745L56.25479592013888,116.88696389830051L56.66703602430555,116.41401725685247L57.600168663194445,116.10427306431976L57.83025616319445,115.72892474227525L57.87819105902778,115.29555589865654L58.58123619791667,114.98008711651246L58.812921527777775,114.67608756296931L58.84168246527777,114.34818802346905L59.54632543402778,114.04205240304832L59.56709722222222,113.82895426498263L61.43975381944444,113.53153857327757L61.87436354166667,113.26590542658273L61.89673315972222,113.0107611308976L62.89697465277777,112.73487271499809L62.959290017361106,112.62944692871311L63.02000755208333,112.43699001284465L63.19736666666667,112.24970640621599L63.964324999999995,112.0550066841631L63.9930859375,111.94215181438094L64.17364071180556,111.75508735100917L64.5379459201389,111.62395313710064L65.00131657986111,111.63870790062367L65.17867569444445,111.60370709350643L65.18986050347222,111.5460562195163L65.93924270833334,111.40364997239212L66.16293888888889,111.30968424704999L66.97783211805556,111.3045732962254L67.18874565972222,111.2366102141058L67.89338862847222,111.07185141453407L68.72106449652777,110.98089867375955L69.02944565972223,110.77634163901297L69.07738055555555,110.73304597985232L69.56631649305555,110.62870775795624L69.60146875,110.40305410454376L70.79025416666667,110.20399063525046L71.41500564236111,110.01477785950244L71.67864756944445,109.94606486578053L72.07810503472223,109.85405225457416L72.189953125,109.72497882801869L72.46637769097222,109.64904162991843L72.56064965277778,109.62595515204536L73.01762899305555,109.72284446747926L73.14545538194444,109.62197871749605L73.45223871527777,109.48896057763977L73.61681519097222,109.09167254819455L73.65835876736111,108.85882051698641L74.31666467013888,108.92079144657896L74.78163315972223,108.69899411044017L76.02474479166666,108.34450050720275L77.36053055555556,107.90175699337802L79.03505625,107.50328853211269L79.24596979166667,107.10343425199204L79.42013324652777,106.69529289221883L80.09601527777778,106.3521026352639L80.11998272569444,105.96780525299886L80.30533098958334,105.73356914465045L80.40759210069444,105.50063175607389L80.99719131944444,105.02448164474283L81.12022421875001,104.57784453796744L81.64431241319446,104.31566159491007L81.78172578125,104.0465095041281L81.82326935763889,103.88472749104278L82.25628124999999,103.52189601865898L82.28823784722222,103.35826860478221L82.62697777777777,103.06719124477048L82.78676076388889,102.85148315076037L83.28688151041668,102.50850481346092L83.34440338541667,102.41805762804943L84.30150347222222,102.02187641915694L84.50762352430556,101.70151799805366L84.82239600694443,101.67970140562353L85.62610442708333,101.27690138897589L86.06071414930555,100.94958032645236L87.27985833333334,100.55643453241505L87.53391328125001,100.16740448274712L87.64096788194445,99.90678321229737L87.78477256944444,99.58875246419325L88.1394907986111,99.19089408967338L88.39194791666667,98.88310569623167L90.34289817708333,98.68655073897578L90.77591006944445,98.44830468022344L90.85420373263888,98.00659908578228L90.9005407986111,97.74985956561714L91.11465000000001,97.78630543568637L91.64193385416667,97.70948737609008L92.7540234375,97.33261243134793L93.39794887152779,96.91397611746284L94.29113576388889,96.5412261762934L94.60111475694444,96.14138759483865L94.90949592013888,95.54519762553915L95.14597473958332,94.8738652885465L95.79629149305555,94.28072870050045L96.02797682291666,93.93899102703013L96.36192326388888,93.25228505063676L96.55685850694444,92.60106218001496L97.17681649305555,92.00892751415269L97.64657847222222,91.8259836155934L99.15013637152778,91.42701023287466L99.63268098958333,90.76522395072669L100.4044328125,90.32348562758692L101.22092387152779,89.91385295808185L101.29442404513888,89.3249392326909L101.53409852430555,89.06846234684443L101.75140338541667,88.41926950295357L102.15405651041667,87.68112662484337L102.24353498263889,87.20687190607742L102.64459027777777,86.40492333535595L102.9050365451389,85.95671508444116L103.02167812500001,85.54226516000853L103.52339670138889,84.94499318051595L104.67702986111111,84.59752226687114L105.49352092013888,84.10880412516367L106.08152230902778,83.75946916337826L106.18857690972222,83.37668133418772L106.74941519097221,82.80187115023038L107.12969869791667,82.30867834946325L107.20959019097222,81.98448096673977L107.77362413194444,81.6615271861653L107.85671128472222,81.22906764685737L108.33606024305556,80.91829724418494L108.8601484375,80.51490501787035L108.9176703125,80.28158496964174L110.06491215277778,79.97203442604444L111.03479487847223,79.50336507274316L111.21534965277779,79.04837515497476L111.45821979166666,78.81890127520401L111.65475286458333,78.56007932885524L112.38176545138889,78.25372480437188L112.60386380208334,78.28675005127425L112.78122291666666,78.21489890965235L113.70636640625,77.97826129102656L113.9220734375,77.99458288922071L114.55641189236111,77.71863028175046L115.44480529513889,77.40188657137881L115.67808845486111,77.10776609574283L116.36195963541667,76.97781903149736L116.3955140625,76.82365644639515L116.61921024305555,76.66077375617341L116.88285217013889,76.62782138053284L117.9901482638889,76.61023242428658L118.04926796875,76.1468739543204L118.11318116319444,76.15223769525474L118.23301840277777,75.91771278925707L119.19650980902779,75.89068014668375L119.20929244791667,76.09866326845696L119.40262986111111,76.07968330524123L119.51767361111112,75.89766952011637L120.09129453125,75.63731165894268L120.22231657986111,75.61619412940686L120.31179505208334,75.54589858008697L120.94453567708332,75.47157008569982L121.09792734375,75.6842539862589L121.65556996527779,75.58703881489005L121.94317934027778,75.65442016068357L122.97218177083333,75.61751223551946L123.21185625,75.62552805742298L123.33169348958333,75.46479343348187L123.41158498263889,75.35130840830467L124.11303229166667,75.31856393110779L124.51568541666667,75.29613367435893L124.75535989583334,75.21057712509891L125.5398943576389,75.05412736712465L127.11855026041667,75.10339644859677L127.63145364583333,75.04214203100672L127.79922578125,74.97192782790285L127.87272595486111,74.72469527237516L128.4623251736111,74.91954392696303L130.73603706597223,75.08786794336322L130.87504826388889,75.05733114902597L131.09874444444446,75.01074007957668L131.85451796875,74.99395016252768L132.65662855902778,74.88430514627254L133.19989071180555,75.09034622255841L133.46513046875,75.20035705484996L133.5945546875,74.96447475845213L134.27523020833334,75.10014660079068L135.02780807291666,75.14179671343942L135.70049444444444,75.43271363300794L136.39075694444443,75.72672067880112L137.60510763888888,75.42915088364546L137.63546640625,75.10200284073274L137.71535789930556,75.49746732938972L137.7616949652778,75.21176036917605L137.77128194444444,75.26135705953148L139.42663368055554,75.202408853578L139.74460182291668,75.1312531954926L140.6282017361111,74.99681537594273L141.51979079861113,74.7591622474384L141.81698715277778,74.88519488633139L141.8329654513889,74.87995380678915L141.95599835069444,74.9094300170194L142.01352022569444,74.81628246986266L142.91629409722222,75.06231331378609L142.96902248263888,74.97399107331637L142.98500078125,75.11072264780317L143.3732734375,75.3655253830233L143.80788315972222,75.30219443562994L143.93730737847224,75.15669658297587L144.0507532986111,74.82159510649602L144.76018975694444,74.97457195948296L145.25711484375,75.08409203626206L146.35003046875002,75.19975669627233L147.91909939236112,75.35112193573612L148.43360060763888,75.5517142876172L148.45597022569444,75.61860535885552L148.69724253472222,75.77937550478826L149.42425512152778,75.88082431794585L149.95633246527777,76.09582711342411L150.33981163194443,76.05601144753622L151.4103576388889,76.31987053005544L151.70755399305557,75.99818461341343L152.62790399305555,76.35532069752674L153.05772022569445,76.5258909005014L153.54665616319443,76.6562734013604L153.65850425347222,76.59862901576977L154.2321251736111,76.64027747782919L154.37752769097222,76.47059063913716L154.6172021701389,76.39128725704161L155.30107335069442,76.11676648588286L155.48961727430557,75.95518074638547L155.54554131944445,75.8047251717469L155.7692375,75.67736060911766L156.9180771701389,75.92276659366046L157.59875269097222,75.98775129793077L157.82884019097224,75.76062389541042L159.61681180555556,75.8880842331421L160.03224756944445,75.89921330982789L160.10894340277778,76.0872351606633L160.19203055555556,75.74054005368787L160.48283559027777,75.73524741195544L161.46869661458334,75.87027380712355L161.53580546875,75.82887710822936L161.75311032986113,75.81676212467914L161.79305607638886,75.72942682130213L161.809034375,75.71518868462647L162.19251354166664,75.46000504343652L162.2356549479167,75.73418635727471L162.32193776041666,75.43788135791084L163.31419010416667,75.04851367666522L163.35733151041666,74.71417367263506L163.69926710069444,74.59529607809883L164.71868255208332,74.08804487937985L165.02227022569446,73.75018925507823L165.0861834201389,73.65831805684314L165.62624991319444,73.56557716024972L165.82917430555554,73.22465580786111L166.2206426215278,73.15416181798406L166.22863177083332,73.00724563618564L166.5561868923611,72.83177675438526L166.83900277777778,72.62457635167402L166.87575286458335,72.51151076196113L167.98784244791665,72.48417218576503L168.2786474826389,71.97885155809763L168.95133385416668,71.51400617501514L169.10312769097223,71.36717942115001L169.69432473958332,71.05501829721682L169.97873845486112,70.41906760385876L170.26475,70.15646197983651L170.36541328125,69.99856010003467L170.59070729166666,69.7418006809403L171.29375243055554,69.47250129466445L171.80346015625003,69.25426821065255L172.0463302951389,68.75514820776911L172.18534149305555,68.41555952335581L172.27322213541666,67.92488425283842L172.53526623263886,67.71056060028184L172.853234375,67.42816363116278L172.87560399305556,67.25244954077375L173.4875728298611,67.10436367760549L173.5466925347222,66.99622844620856L173.65374713541667,66.81744651067861L174.0324328125,66.6555370868835L174.13788958333333,66.74715951455877L174.2737051215278,66.4223185631029L174.46544470486108,66.00324579770171L174.7386736111111,66.00924508156788L175.46568619791665,65.80445693704743L175.7117519965278,65.48337487970632L175.97699175347222,65.4619123917357L176.91811354166666,65.41041433438032L177.04274427083334,65.34294676457866L177.55884331597224,65.2299304972117L178.08133368055556,65.35952267476326L178.260290625,65.43291131637784L179.07518385416668,65.6628872301946L179.4650543402778,65.41932009808423L179.51778272569445,65.4766721791849L179.70632664930554,65.71836291581185L180.08341449652778,65.55372548786704L180.17608862847223,65.25067680271671L180.69058984375,64.86529662244503L180.75769869791665,64.2931817329278L181.0660798611111,64.39476128690772L181.92731015624997,64.32326243094424L183.1816065972222,64.21768050603166L183.82393420138888,63.74150336451939L184.32405494791666,63.77958030079472L185.07343715277779,63.30497454344254L185.23002447916667,62.790335043643736L185.24120928819445,62.77669926655207L185.25399192708335,62.417466839896875L185.4665032986111,62.42402129227084L185.55118828125,62.10407939031646L185.57515572916665,62.07459190583026L185.9666240451389,62.03497930615633L185.9698197048611,62.06972569372252L186.28938567708335,62.128150851623005L186.38525546875002,61.972557357369794L186.5130818576389,62.00751184890555L187.5085298611111,62.227033391287705L187.70186727430556,62.07563118852258L188.06297682291668,61.983619206033964L188.27868385416664,61.65341069452147L188.36336883680556,61.178217352342045L188.42089071180555,60.936594480744205L189.08558793402779,60.81869639630614L189.38597994791667,60.589894938493714L189.66560017361113,60.285416808280715L189.67199149305557,60.47500580927081L189.88450286458334,60.333874546525564L190.09381857638888,60.06807231914573L190.77289626736112,60.214026450867536L191.18194071180557,59.86668062396258L191.19791901041665,59.907063697929985L191.30177795138889,60.08923232813697L191.55743072916667,59.978632958959636L191.72200720486111,59.81372420851821L192.32918255208332,59.72665292403002L192.3515521701389,59.72270922253611L192.84847725694445,59.85291557300978L192.92996657986112,60.21548765207244L193.16644539930556,60.406035477774296L193.18721718749998,60.142068293633244L194.2673501736111,60.06842396426991L194.92725390625,59.98303611329746L195.11579782986112,60.16163022924046L195.38103758680555,59.856734251770945L195.62550555555555,59.54612332659387L195.86997352430555,59.743266675752665L195.9067236111111,59.64715023545013L195.94027803819444,59.49628180281421L196.1080501736111,59.587784304350976L196.34133333333332,59.5675570102795L196.71043203124998,59.72534676379699L197.19457447916668,59.69337458741731L197.7490214409722,59.70281553776647L197.8768478298611,59.69823852944438L198.21239210069444,59.57042035831812L199.50982994791667,59.67059991339541L199.70156953125002,59.3594944675104L199.74790659722223,59.177050702577546L199.89490694444444,59.13554449595617L199.90928741319445,59.24401277363326L200.08984218749998,59.41102626899719L200.39183203125,59.67296909664296L200.61872387152778,60.18125741425138L201.71483515625002,60.28471690009896L201.73560694444444,60.61416566463453L202.13186875,60.6411468254438L203.50600243055555,61.208498051990304L203.7696443576389,61.445568701336725L203.94700347222224,61.45880160393034L203.95179696180557,61.49585326171912L204.48547213541667,62.1054554355472L204.65164644097223,62.51933602835612L204.75710321180557,63.05776606188414L204.92807100694444,63.51620536478664L205.27320225694444,63.511442782853436L206.19515008680557,63.88730418638626L206.20313923611113,63.719721495020366L206.39168315972222,63.966141390972865L206.4044657986111,64.14467497914833L206.4571941840278,64.04488361759712L207.05957604166667,64.20246911947379L207.51815321180555,64.50419948025367L207.93838246527778,64.56154657768286L208.05182838541668,64.25614191991457L208.6046775173611,64.12810727337767L208.79322144097222,63.89621700058535L209.39879895833332,63.6865100732541L209.63208211805554,63.481682929565025L209.76470199652778,63.53870213660851L209.84459348958333,63.356701241129485L210.24884444444444,62.736320889743794L210.41981223958334,62.243347891678496L210.58279088541664,61.94147332978336L210.86081328125,61.81158736044139L211.35294487847221,61.60216726076088L211.49035824652776,61.8250130346848L211.57184756944443,62.006466276670864L211.69967395833334,62.02294464900379L212.71269809027777,61.53795132046703L213.04664453125,61.439366415693044L213.19843836805558,61.72173659230556L213.31348211805556,61.210545887620455L214.0948209201389,60.80980948067658L214.13476666666668,60.227896714427104L214.35686501736112,59.40146499752984L214.45113697916668,58.88998895232231L214.82662699652778,58.80377414799915L215.32514991319442,58.432521733199266L215.81408585069445,57.74137751442477L216.64176171875,57.79516589934593L216.73124019097222,57.50667203668408L217.01884956597223,56.986555969379296L217.08116493055556,56.488281054259545L217.15626293402778,55.85780522156087L217.40872005208334,55.883729244859325L217.50778550347223,55.71195859310066L218.38339626736112,55.64888205197242L218.51601614583333,55.59613589222974L218.6566251736111,55.032749575734016L218.69976657986112,54.951105299978806L218.79563637152776,54.79013113361728L219.00335425347222,54.42098733843737L219.83742144097224,54.31101360459364L220.24486805555554,54.05012247140702L220.26883550347222,53.80626931517541L220.42702065972225,53.51036965638515L220.99265243055558,53.383849736201185L221.82671961805553,53.457541467126504L222.08716588541665,53.06074754768659L222.62883020833334,53.294973929281554L222.68635208333333,53.351908354535226L222.96757013888887,53.219109564536225L223.23121206597222,53.152891789900764L223.5411910590278,53.078210565456175L224.72518298611112,52.75153155436509L225.0127923611111,52.2543727171104L225.21092326388887,52.45358317267208L225.2572603298611,52.03650326449579L225.4266302951389,51.95881316531893L225.96829461805555,51.417227303332496L226.22394739583333,51.09372616390834L226.34698029513888,50.7362001384266L226.36295859375,50.464710806402124L226.6234048611111,49.830165862125554L227.11234079861111,49.48334245773118L227.5261787326389,49.3119968483217L227.80739678819444,49.067274436216806L228.01990815972223,48.822887901686016L228.03748428819443,48.3615763842447L228.22443038194444,48.535725564002036L228.94345381944444,48.43902800760182L229.1112259548611,48.58330702502346L229.12400859374998,48.44162404979383L229.1831282986111,48.373444599359914L229.94848880208332,48.14111718487845L230.17857630208334,47.92096001184518L230.71544713541667,47.993346965206115L231.1101111111111,47.73164863232188L231.1500568576389,47.4548871781806L231.51915555555556,47.37877914218072L232.26853776041665,46.793361455235356L232.34044010416665,46.78038894607545L232.75747369791668,46.541429596922455L232.8197890625,46.61901959177564L233.24161614583332,46.29965172350717L233.67942152777778,46.10675473297465L233.85678064236112,46.03974971422264L233.9398677951389,45.95028042461857L234.1843357638889,45.95121829124761L234.2562381076389,45.78612487121376L234.85542430555554,45.591279429546915L235.14782717013887,45.711588986592204L235.19895772569444,45.36027099702389L235.53130633680556,45.00888594277606L235.67990451388889,45.08083257577118L236.26311241319445,45.0228913636486L236.31743862847222,44.57551131819284L236.94059227430557,44.38808518637356L237.1594949652778,44.28175394046346L237.20103854166666,43.96178877368985L237.44710434027778,43.482740578139044L237.7347137152778,42.98321083850695L238.1996822048611,42.52759998192897L238.7429443576389,41.9586524837361L239.22708680555553,42.16867928081703L239.6201529513889,42.17567498909895L239.67607699652777,42.38411317200726L239.85822960069444,42.31827571844289L239.9253384548611,42.23086291932586L239.96208854166667,42.11699253648419L240.7562099826389,41.91695805556304L241.1045368923611,41.77916565909766L241.81716901041668,41.34137977500609L241.94020190972222,41.212872479323664L241.95777803819445,40.96547159502765L242.04565868055556,40.81924261734309L242.95961736111113,40.77311949197241L244.2938052951389,40.567682542775174L244.99045911458333,40.462238152134006L245.69829774305558,40.34823024601155L245.80535234375,39.96604358504675L246.2495490451389,39.859416499269315L246.46845173611112,39.6729407584333L247.10758368055556,39.87520350077179L247.23541006944444,39.80783087796735L247.40637786458333,39.97045688107971L247.67800894097223,40.156041874789906L247.78027005208335,40.012312687310924L247.83938975694443,40.16756437312526L248.0646837673611,40.007597708540004L248.13658611111111,39.86161634677694L248.35548880208336,39.74531834846286L248.37306493055556,39.74222401361658L248.76293541666666,39.662001612254926L248.8795769965278,39.6239946328476L248.8987509548611,39.64208380592646L249.25346918402778,39.660375425333825L249.28382795138887,39.96546856461862L249.47077404513888,39.83677398088403L249.97089479166667,39.71692612825018L250.6100267361111,39.788074424516054L250.64677682291668,39.861159027518994L251.0957670138889,40.12103176113072L251.20921293402776,39.948621766835856L252.2621828125,39.79848118106136L252.60092274305558,39.59496829022794L252.62169453125,39.567687370296056L252.62489019097222,39.344009542357384L252.92847786458333,39.28651199721253L253.80888211805555,39.024576706582195L254.79793880208334,39.21624971774216L254.9065912326389,39.195664518695196L255.35398359375,39.41045602137115L255.60484288194445,39.56555246468858L256.08419184027775,39.49595744549245L256.11295277777776,39.316662837306836L256.29510538194444,38.877729508121604L256.6594105902778,38.6979054209458L257.1387595486111,38.95543306066941L257.1643248263889,38.88952611823882L257.4008036458333,38.59085759732403L257.52863003472226,38.5382775194098L257.69640217013887,38.389381585650625L258.0031855034722,38.36700592708556L259.1312533854167,38.366981470740626L260.5756915798611,38.52887423275749L260.63640911458333,38.9330379458454L260.9799425347222,39.12380801489721L261.1604973090278,39.020949940680225L261.59990052083333,38.76746858297582L262.15594531249997,38.70125013376915L262.32691310763886,38.86189784766495L262.46432647569446,38.600185335625724L262.60173984375,38.566786120244984L262.72477274305555,38.62019841731137L262.83981649305554,38.37360471194387L263.0874801215278,38.489579468022185L263.1354150173611,38.4270135666745L263.33035026041665,38.371709937279775L263.3399372395833,38.24852189809724L263.3910677951389,38.19397084465115L265.0320390625,38.23438057836785L265.5832903645833,38.22247661144016L265.6599861979167,38.04884258665976L265.93800859375,38.12589014617558L266.0674328125,38.07555681337621L266.4013792534722,37.909574995674944L266.41895538194444,37.90098681428927L266.48286857638885,37.70821199649674L266.53080347222226,37.885697615028874L267.9560677083333,37.865417626253276L268.05513315972223,38.08249518180975L268.21811180555557,38.19338770908334L268.5824170138889,38.23687280181136L268.6303519097222,38.13621961253932L269.13846180555555,38.109995378558125L269.3445818576389,37.867154931611424L270.1482902777778,37.84269512026847L270.17065989583335,37.804590380968875L270.32724722222224,37.972438161053816L271.12775998263885,37.89420570858479L271.17569487847226,37.8066999104536L271.46010859374996,38.02864355577188L271.5352065972222,38.32493829110379L271.5879349826389,38.62881378017522L271.63746770833336,38.64183012943042L271.7748810763889,38.66259598012371L271.8499790798611,38.82208070029316L271.97940329861115,38.72727035753658L272.6313178819444,38.698259230873845L273.0675254340278,38.63695035324099L273.12185164930554,38.939795090644196L274.30105008680556,38.85533830885248L274.44325694444444,38.819554477967245L274.8746710069444,38.72097403017051L275.1878456597222,38.74187094533528L275.4674658854167,38.44589975989268L275.56493350694444,38.200645011176135L275.9452170138889,38.27256914642217L276.52842491319444,38.27394291359812L277.12761111111115,38.024764531329225L277.1324046006945,38.26915171455994L277.13560026041665,38.248742224922125L277.14039375,38.11874300242991L277.1451872395833,38.40200506582329L277.14678506944443,38.18829319560456L277.14998072916666,38.11261160331685L277.15157855902777,38.109867488439704L277.1531763888889,37.92034096686848L277.15477421875,37.98207959745437L277.1563720486111,38.052729592254394L277.1579698784722,38.18671231484714L277.1595677083333,38.74879108336242L277.16276336805555,38.88054833866255L277.16436119791666,38.737652595705356L277.1659590277778,38.523563472498466L277.1707525173611,38.43647985252133L277.1723503472222,38.24446254908739L277.17554600694444,38.48699356690591L277.17714383680556,38.32009534657897L277.18832864583334,38.41225626646653L277.18992647569445,38.319206776183506L277.19152430555556,38.014212234928806L277.1931221354167,38.022313738708675L277.1947199652778,38.041673273928694L277.197915625,37.98065367380855L277.1995134548611,38.14396898824589L277.20111128472223,37.76799822578491L277.20270911458334,37.849999539570064L277.20590477430557,37.9006700401585L277.2075026041667,37.56310871796086L277.2091004340278,37.50770693707386L277.21229609375,37.686135107002855L277.2138939236111,37.87689091448439L277.21708958333335,38.123997277581395L277.23306788194446,38.244819140732346L277.2378613715278,38.185609953931845L277.2394592013889,38.28116259490227L277.24105703124997,38.249495199048425L277.24265486111113,38.0641081791436L277.2458505208333,38.13258940668376L277.24744835069447,38.34205773874268L277.2490461805556,38.46219287395934L277.2522418402778,38.43153040474522L277.25703532986114,38.513553500634345L277.25863315972225,38.82773224148002L277.2602309895833,38.61469197187745L277.2618288194444,38.72063754741697L277.2634266493056,38.677204474493465L277.26502447916664,38.14834766340775L277.26662230902775,38.0645924425215L277.2682201388889,38.04050251645117L277.2714157986111,37.98865112844243L277.2746114583333,37.6965985155982L277.2762092881944,37.650978436765655L277.27940494791665,37.64310786581635L277.2826006076389,37.79894480650745L277.2857962673611,37.92813555312944L277.2873940972222,38.19827654327102L277.2889919270833,38.30060797985303L277.2905897569444,38.31728013641319L277.29218758680554,38.46503507731734L277.29378541666665,38.35564520594923L277.3001767361111,38.20288750353612L277.30816588541666,38.157928298637046L277.30976371527777,37.915322968773324L277.312959375,37.85185317189601L277.3145572048611,37.82791785470641L277.3161550347222,37.956222660144874L277.32094852430555,37.89771403049403L277.32254635416666,37.78873808199006L277.3241441840278,37.669540410154696L277.3257420138889,37.56527955095743L277.32733984375,37.49558114131622L277.3305355034722,37.625943481730076L277.33213333333333,37.94038322446616L277.33692682291667,37.9538562656559L277.3401224826389,38.32098768454486L277.3433181423611,38.00173550699947L277.3449159722222,38.083493774481326L277.34811163194445,38.23551939703319L277.34970946180556,38.218473139148074L277.3545029513889,37.98389287068781L277.35610078125,38.07246381089175L277.3576986111111,37.923887884348005L277.35929644097223,38.10394227773139L277.36089427083334,37.821479868140045L277.36249210069445,37.763371654053344L277.36408993055556,37.958471988648L277.3672855902778,38.151158880692265L277.3688834201389,37.98264526535033L277.37048125,37.91344892063347L277.3720790798611,37.736524483115545L277.37367690972223,37.69696862571308L277.37527473958335,37.75891949041451L277.37847039930557,37.66382299591851L277.3832638888889,37.48772478723575L277.38486171875,37.79989549033036L277.38805737847224,38.013468441297334L277.3944486979167,38.05282046080396L277.39604652777774,38.12544750563265L277.3992421875,38.09527207325121L277.4008400173611,38.19885282047156L277.4056335069444,38.25184822024255L277.4088291666667,38.419220216400134L277.41042699652775,38.49644024021467L277.41202482638886,38.55889848892048L277.41522048611114,38.763951821846604L277.4168183159722,38.727249821480115L277.41841614583336,38.51218961205939L277.4200139756945,38.41618655994435L277.4232096354167,38.347886085768096L277.4248074652778,38.29446111355492L277.42800312500003,38.174975229472125L277.42960095486114,38.03626179743398L277.4327966145833,38.03914129950877L277.4343944444445,37.84562489683066L277.43599227430553,37.813261270783926L277.4391879340278,37.830395370978266L277.44078576388887,37.98560583388047L277.4455792534722,38.017687295946956L277.4487749131945,38.168248111806804L277.45037274305554,38.101610800626105L277.45356840277776,38.04264290238169L277.4551662326389,37.77837861214351L277.4567640625,37.617978250929156L277.4583618923611,37.497754289472624L277.4599597222222,37.695279996888985L277.4615575520833,37.66889972447282L277.46315538194443,37.978038161116444L277.46794887152777,38.17681389045933L277.4695467013889,38.02484272868611L277.47114453125,37.772415273999314L277.4727423611111,37.78056011023574L277.4743401909722,37.74464614466672L277.4759380208333,37.66103380292731L277.47753585069444,37.61796451354368L277.48073151041666,37.5450089712802L277.4823293402778,37.661377392334L277.4839271701389,37.682637380373336L277.485525,37.53583386960872L277.4871228298611,37.608869800829666L277.4887206597222,37.64040895711034L277.49351414930555,37.841771470490215L277.4983076388889,37.72129318707758L277.5015032986111,37.61185705018801L277.50469895833334,37.73562020880556L277.50629678819445,37.957632051561376L277.50789461805556,38.0920733918598L277.50949244791667,38.08635468903745L277.5110902777778,37.818724901951896L277.51748159722223,37.86045468448398L277.5238729166667,38.186642170581024L277.5270685763889,38.33941545352292L277.52866640625,38.57043981726156L277.5302642361111,38.6576799264445L277.53345989583335,38.56724147925459L277.53505772569446,38.19419914951092L277.53665555555557,38.110887189105284L277.5414490451389,37.91924733383112L277.543046875,37.58385100953893L277.54624253472224,37.703374999494116L277.54784036458335,37.737531817726534L277.54943819444446,37.977454772317515L277.55263385416663,37.908777476903936L277.5542316840278,37.78360995648626L277.5558295138889,37.68906146083765L277.55902517361113,37.65224054202662L277.56062300347224,37.434056260551216L277.56381866319447,37.33423586176883L277.5654164930556,37.61649977559193L277.56701432291663,37.69253161621458L277.5686121527778,37.462272772774924L277.5702099826389,37.53160231367923L277.57180781249997,37.5738852641295L277.57500347222225,37.769831964989265L277.5766013020833,37.70180331394488L277.58139479166664,37.63253207345949L277.58938394097225,37.47967659338627L277.59577526041664,37.317970297683985L277.60855789930554,37.39267894973378L277.6101557291667,37.73647923657859L277.61175355902776,37.52797335837528L277.6133513888889,37.409710113446835L277.61494921875004,37.259023193011245L277.6197427083333,37.46533678280102L277.62134053819443,37.680183786339114L277.62453619791665,37.67442108952338L277.62613402777777,37.571683526025566L277.6293296875,37.52749244615029L277.6309275173611,37.715004565171654L277.6325253472222,37.71179388138174L277.6341231770833,37.79941562960721L277.63731883680555,38.14276952119195L277.63891666666666,38.04448688725455L277.64051449652777,38.08878251671092L277.6421123263889,38.34487017413076L277.64371015625,38.104689974899514L277.6469058159722,38.06753915922772L277.64850364583333,38.079359106941325L277.65010147569444,38.07994024170176L277.65329713541666,37.86323599025886L277.6564927951389,37.71345784577841L277.658090625,37.81800978847329L277.66607977430556,37.70996449144417L277.6692754340278,37.463882815027006L277.6756667534722,37.55417066988795L277.67726458333334,37.45842973926278L277.67886241319445,37.514064038063765L277.6852537326389,37.743146270621025L277.6884493923611,37.50883164355892L277.69324288194446,37.63082916102121L277.69484071180557,37.677268972191825L277.6996342013889,37.48775798406356L277.70123203125,37.711425367475385L277.70602552083335,37.647226012546014L277.70762335069446,37.52106022947322L277.7124168402778,37.48595420652592L277.7140146701389,37.62633037678242L277.7156125,37.75468029364961L277.71721032986113,37.82493953701194L277.71880815972224,37.94046831058347L277.72040598958336,38.11886466134331L277.72200381944447,38.08834183157259L277.7251994791667,37.9542690120517L277.7267973090278,38.00054665630108L277.72839513888886,37.962747672489144L277.72999296875,37.899563814331145L277.73159079861114,37.89599947835259L277.7331886284722,37.89882566688098L277.73478645833336,37.94964196382924L277.7363842881945,37.870672085628115L277.7379821180555,37.900167377065316L277.7443734375,37.81608813935878L277.7491669270833,37.69918387087742L277.7507647569445,37.973112074698776L277.75236258680553,37.95213609450164L277.75396041666664,38.14445089414238L277.75715607638887,38.289375122909945L277.75875390625,38.238784201528034L277.76035173611115,38.32499669046615L277.7619495659722,38.05763906687406L277.7635473958333,37.8059547056412L277.7651452256944,38.126529689622544L277.76674305555554,37.89812672066029L277.76834088541665,38.4910754122306L277.76993871527776,38.47864400737117L277.7747322048611,38.17379665208861L277.7779278645833,38.31578630506158L277.77952569444443,38.53509403819177L277.7859170138889,38.38349940709989L277.78751484375,38.213876739117154L277.7891126736111,38.00389247429635L277.7923083333333,37.764622545048525L277.79869965277777,37.61464892690731L277.8034931423611,37.564149943307484L277.80668880208333,37.483501994431265L277.8130801215278,37.907725658624514L277.8146779513889,37.93854400185296L277.81627578125,37.951195283485845L277.8178736111111,37.776530300591816L277.82266710069445,37.82147386144172L277.82586276041667,37.64670715711574L277.8274605902778,37.450195532313245L277.8290584201389,37.441283933627375L277.83065625,37.53986576753735L277.8322540798611,37.257492827147246L277.83544973958334,37.03252195352346L277.83704756944445,37.40228112180745L277.8418410590278,37.422297327808536L277.8434388888889,37.344772140482206L277.84503671875,37.120124471888516L277.8466345486111,37.03258929742694L277.84823237847223,37.1700292313206L277.84983020833334,37.88808312637036L277.8578193576389,37.99025776827878L277.8594171875,38.07316380963272L277.8610150173611,37.92049515594215L277.8690041666666,37.84645132216613L277.8721998263889,37.85121528085858L277.87379765624996,37.93495170731819L277.87539548611113,37.81320085476821L277.87699331597224,37.64931826929137L277.88018897569447,37.64965916963496L277.8817868055556,37.54638075267147L277.88338463541663,37.49868585922252L277.8849824652778,37.509061591482066L277.8865802951389,37.50532588687932L277.88817812499997,37.65482738910046L277.8897759548611,37.34889010473586L277.8929716145833,37.54521132153499L277.8961672743056,37.59820155301787L277.8977651041667,37.90737003407972L277.89936293402775,37.57215575794447L277.90255859375003,37.29560495487729L277.9041564236111,37.15230582302593L277.90735208333336,37.09272864981426L277.91054774305553,36.890268284832814L277.9121455729167,37.05300281998592L277.91374340277775,36.935975265260055L277.91534123263887,37.18263910237039L277.91693906250003,37.254789964860635L277.9233303819444,37.25234505928367L277.92492821180554,37.16466168971894L277.9265260416667,37.145081884383416L277.92812387152776,37.00174983230869L277.92972170138887,37.44498393998691L277.93131953125004,37.48687759144278L277.9329173611111,37.42300801411665L277.9361130208333,37.466093576341365L277.93771085069443,37.36306944597996L277.93930868055554,37.419188637745606L277.94090651041665,37.351025455789255L277.9472978298611,37.677871773846675L277.9504934895833,37.81313573282563L277.95209131944443,37.825253977724884L277.95368914930555,38.03528539813422L277.95688480902777,38.2021886765026L277.96008046875,38.09695844521596L277.9616782986111,38.16818873705802L277.9632761284722,38.341915317897644L277.9648739583333,38.45100219519881L277.96647178819444,38.26557811204256L277.96806961805555,38.188202119020104L277.96966744791666,38.084370543481725L277.9728631076389,38.208149398224464L277.9744609375,38.16366968567473L277.9760587673611,38.0079845352891L277.9776565972222,37.95033380903291L277.97925442708333,37.76167542812962L277.98085225694444,37.68641697622576L277.98245008680556,37.97268436951225L277.98404791666667,38.05734775074288L277.9856457465278,38.09331752112311L277.9904392361111,38.195082359919894L277.9920370659722,37.983960487564275L277.99523272569445,38.23242807517147L277.99683055555556,38.09500913129071L278.0016240451389,38.005525263616164L278.003221875,38.09897273725457L278.0048197048611,38.0835129635291L278.00641753472223,38.47690030353982L278.00801536458334,38.314028455004006L278.01121102430557,38.5767562913218L278.0128088541667,38.35763748037141L278.0144066840278,38.30524873233426" style="fill: none;" fill="none"></path></g></g></g></g><g opacity="0.2"><g><g><g><path stroke="rgb(255, 112, 67)" stroke-width="2px" d="M34.08330876736111,153.19618165449663L34.489157552083334,152.81172994787042L34.52430980902778,153.50727272727272L34.77516909722222,155.8949558830261L34.823103993055554,154.99836359544233L34.92216944444444,155.76L35.01963706597222,153.8394724377719L35.168235243055555,155.9572435205633L35.17302873263889,155.08521966414017L35.17942005208334,154.74263903877952L35.22895277777778,152.76306818181817L35.55171440972222,156.0818181818182L35.586866666666666,152.51164772727273L35.84411727430555,155.515861899636L36.382585937500004,155.23843268654562L36.38578159722222,153.01381834550338L37.14155512152778,154.08862176028165L37.34927300347223,153.32490880446L37.871763368055554,151.90823863636365L38.35430798611111,141.9922159090909L39.84508324652777,148.18721590909092L40.228562413194446,155.8780000409213L40.74945494791667,135.28431818181818L41.224010416666665,129.41113636363636L41.24158654513889,140.14176136363636L41.259162673611115,129.36085227272727L41.26235833333333,139.07573863636364L41.40456519097223,136.1546331648393L41.524402430555554,131.23142045454546L41.617076562499996,134.61343068903142L42.22584973958334,129.6525L42.38563272569444,126.87681818181818L42.45433940972222,140.94630681818182L42.68123125,135.70670454545456L42.92889487847223,127.08801136363635L43.476950520833334,128.0936931818182L43.54565720486111,127.36960227272726L44.4931703125,125.87113636363637L45.44068342013889,136.04863636363638L45.69154270833333,154.61806437752463L47.40920980902778,121.50647727272727L47.487503472222215,115.67352272727273L47.60893854166667,120.94329545454545L47.866189149305555,119.0325L48.21291822916667,124.80511363636364L48.55645164930555,113.49119318181818L48.60438654513889,118.921875L48.78973480902778,117.14181818181818L49.040594097222225,119.09284090909091L49.05018107638889,117.20215909090909L49.93378098958333,114.85892045454545L50.32205364583333,114.59744318181819L50.596880381944445,113.93369318181817L50.739087239583334,115.84448863636364L50.91804418402778,114.63767045454546L50.97237039930556,118.13744318181818L51.53320868055555,114.69801136363637L53.4090609375,112.74698863636364L54.05298637152777,111.41948863636364L54.148856163194445,112.51568181818182L54.701705295138886,111.69102272727272L56.25479592013888,114.08454545454545L56.66703602430555,112.16369318181818L57.600168663194445,113.32022727272727L57.83025616319445,112.35477272727273L57.87819105902778,111.399375L58.58123619791667,112.14357954545454L58.812921527777775,111.94244318181818L58.84168246527777,111.399375L59.54632543402778,111.28875L59.56709722222222,111.91227272727272L61.43975381944444,110.85630681818182L61.87436354166667,110.87642045454545L61.89673315972222,110.71551136363637L62.89697465277777,110.25289772727272L62.959290017361106,111.68096590909092L63.02000755208333,110.70545454545454L63.19736666666667,110.56465909090909L63.964324999999995,110.30318181818181L63.9930859375,110.92670454545454L64.17364071180556,110.071875L64.5379459201389,110.44397727272727L65.00131657986111,111.77147727272727L65.17867569444445,111.28875L65.18986050347222,111.02727272727273L65.93924270833334,110.1221590909091L66.16293888888889,110.46409090909091L66.97783211805556,111.25857954545455L67.18874565972222,110.625L67.89338862847222,109.58914772727273L68.72106449652777,110.16238636363636L69.02944565972223,108.93545454545455L69.07738055555555,110.34340909090909L69.56631649305555,109.6897159090909L69.60146875,108.37227272727272L70.79025416666667,108.4125L71.41500564236111,108.31193181818182L71.67864756944445,109.32767045454545L72.07810503472223,109.02596590909091L72.189953125,108.56335227272727L72.46637769097222,108.965625L72.56064965277778,109.41818181818182L73.01762899305555,110.59482954545454L73.14545538194444,108.71420454545455L73.45223871527777,108.29181818181819L73.61681519097222,105.51613636363636L73.65835876736111,106.76318181818182L74.31666467013888,109.47852272727273L74.78163315972223,106.70284090909091L76.02474479166666,105.15409090909091L77.36053055555556,103.91710227272728L79.03505625,103.91710227272728L79.24596979166667,103.50477272727272L79.42013324652777,103.02204545454545L80.09601527777778,103.2634090909091L80.11998272569444,102.50914772727273L80.30533098958334,103.62545454545455L80.40759210069444,103.40420454545455L80.99719131944444,100.73914772727272L81.12022421875001,100.558125L81.64431241319446,101.95602272727272L81.78172578125,101.62414772727273L81.82326935763889,102.42869318181818L82.25628124999999,100.25642045454545L82.28823784722222,101.885625L82.62697777777777,100.4475L82.78676076388889,100.91011363636363L83.28688151041668,99.42170454545455L83.34440338541667,101.6040340909091L84.30150347222222,98.45625L84.50762352430556,98.81829545454545L84.82239600694443,101.48335227272727L85.62610442708333,97.65170454545455L86.06071414930555,98.00369318181818L87.27985833333334,97.018125L87.53391328125001,96.66613636363637L87.64096788194445,97.56119318181818L87.78477256944444,96.72647727272727L88.1394907986111,95.61017045454545L88.39194791666667,96.11301136363636L90.34289817708333,96.91755681818182L90.77591006944445,96.3040909090909L90.85420373263888,94.03125L90.9005407986111,95.43920454545454L91.11465000000001,98.11431818181818L91.64193385416667,97.018125L92.7540234375,93.94073863636363L93.39794887152779,93.14625L94.29113576388889,93.18647727272727L94.60111475694444,92.54284090909091L94.90949592013888,90.17948863636363L95.14597473958332,88.831875L95.79629149305555,88.9425L96.02797682291666,90.86335227272727L96.36192326388888,87.07193181818182L96.55685850694444,86.74005681818183L97.17681649305555,86.67971590909092L97.64657847222222,90.17948863636363L99.15013637152778,87.83624999999999L99.63268098958333,84.80914772727273L100.4044328125,86.3478409090909L101.22092387152779,86.2271590909091L101.29442404513888,84.02471590909092L101.53409852430555,86.76017045454545L101.75140338541667,82.57653409090909L102.15405651041667,81.03784090909092L102.24353498263889,82.93857954545456L102.64459027777777,79.18738636363636L102.9050365451389,81.92284090909092L103.02167812500001,81.8122159090909L103.52339670138889,79.56954545454546L104.67702986111111,81.4702840909091L105.49352092013888,79.7103409090909L106.08152230902778,80.61545454545454L106.18857690972222,79.9315909090909L106.74941519097221,77.62857954545454L107.12969869791667,77.86994318181819L107.20959019097222,79.06670454545454L107.77362413194444,78.75494318181818L107.85671128472222,77.33693181818181L108.33606024305556,78.12136363636364L108.8601484375,76.88437499999999L108.9176703125,78.18170454545454L110.06491215277778,77.18607954545453L111.03479487847223,75.2853409090909L111.21534965277779,74.95346590909091L111.45821979166666,76.75363636363636L111.65475286458333,76.23068181818182L112.38176545138889,75.4965340909091L112.60386380208334,78.58397727272727L112.78122291666666,77.56823863636363L113.70636640625,75.84852272727272L113.9220734375,78.14147727272729L114.55641189236111,75.23505681818182L115.44480529513889,74.55119318181818L115.67808845486111,74.46068181818181L116.36195963541667,75.80829545454546L116.3955140625,75.43619318181817L116.61921024305555,75.19482954545454L116.88285217013889,76.33125L117.9901482638889,76.4519318181818L118.04926796875,71.97664772727272L118.11318116319444,76.20051136363637L118.23301840277777,73.80698863636364L119.19650980902779,75.64738636363636L119.20929244791667,77.97051136363638L119.40262986111111,75.90886363636363L119.51767361111112,74.25954545454546L120.09129453125,73.2940909090909L120.22231657986111,75.42613636363636L120.31179505208334,74.91323863636363L120.94453567708332,74.80261363636363L121.09792734375,77.59840909090909L121.65556996527779,74.71210227272728L121.94317934027778,76.26085227272728L122.97218177083333,75.2853409090909L123.21185625,75.69767045454545L123.33169348958333,74.01818181818183L123.41158498263889,74.32994318181818L124.11303229166667,75.02386363636363L124.51568541666667,75.09426136363638L124.75535989583334,74.44056818181818L125.5398943576389,73.64607954545455L127.11855026041667,75.54681818181817L127.63145364583333,74.49085227272728L127.79922578125,74.34L127.87272595486111,72.49960227272726L128.4623251736111,76.67318181818183L130.73603706597223,76.60278409090908L130.87504826388889,74.7825L131.09874444444446,74.59142045454544L131.85451796875,74.84284090909091L132.65662855902778,73.8975L133.19989071180555,76.9447159090909L133.46513046875,76.19045454545454L133.5945546875,72.84153409090908L134.27523020833334,76.32119318181817L135.02780807291666,75.51664772727273L135.70049444444444,78.0509659090909L136.39075694444443,78.37278409090908L137.60510763888888,72.75102272727273L137.63546640625,72.15767045454547L137.71535789930556,79.05664772727273L137.7616949652778,72.64039772727273L137.77128194444444,75.70772727272727L139.42663368055554,74.671875L139.74460182291668,74.49085227272728L140.6282017361111,73.786875L141.51979079861113,72.6202840909091L141.81698715277778,76.01948863636363L141.8329654513889,74.83278409090909L141.95599835069444,75.1747159090909L142.01352022569444,73.97795454545455L142.91629409722222,77.27659090909091L142.96902248263888,74.1790909090909L142.98500078125,76.3413068181818L143.3732734375,77.65875L143.80788315972222,74.73221590909091L143.93730737847224,73.8472159090909L144.0507532986111,71.80568181818181L144.76018975694444,76.35136363636364L145.25711484375,76.06977272727273L146.35003046875002,76.24073863636364L147.91909939236112,76.71340909090908L148.43360060763888,77.35704545454544L148.45597022569444,76.22062500000001L148.69724253472222,77.22630681818181L149.42425512152778,76.79386363636364L149.95633246527777,78.03085227272726L150.33981163194443,75.69767045454545L151.4103576388889,78.69460227272727L151.70755399305557,73.10301136363636L152.62790399305555,79.56954545454546L153.05772022569445,78.06102272727273L153.54665616319443,77.82971590909091L153.65850425347222,76.07982954545454L154.2321251736111,77.01511363636362L154.37752769097222,74.9434090909091L154.6172021701389,75.67755681818183L155.30107335069442,73.64607954545455L155.48961727430557,74.50090909090909L155.54554131944445,74.450625L155.7692375,74.53107954545453L156.9180771701389,78.13142045454545L157.59875269097222,76.57261363636364L157.82884019097224,73.71647727272727L159.61681180555556,77.03522727272727L160.03224756944445,75.99937499999999L160.10894340277778,77.77943181818182L160.19203055555556,72.6202840909091L160.48283559027777,75.68761363636364L161.46869661458334,77.08551136363637L161.53580546875,75.45630681818182L161.75311032986113,75.70772727272727L161.79305607638886,74.9434090909091L161.809034375,75.58704545454545L162.19251354166664,73.16335227272727L162.2356549479167,78.20181818181817L162.32193776041666,72.77113636363636L163.31419010416667,71.54420454545453L163.35733151041666,71.70511363636365L163.69926710069444,73.52539772727273L164.71868255208332,69.5227840909091L165.02227022569446,70.70948863636364L165.0861834201389,72.83147727272727L165.62624991319444,72.7309090909091L165.82917430555554,70.15636363636364L166.2206426215278,72.5197159090909L166.22863177083332,71.685L166.5561868923611,71.25255681818183L166.83900277777778,70.75977272727273L166.87575286458335,71.49392045454546L167.98784244791665,72.238125L168.2786474826389,67.43096590909092L168.95133385416668,67.33039772727273L169.10312769097223,70.04573863636364L169.69432473958332,68.24556818181819L169.97873845486112,64.69551136363636L170.26475,67.79301136363637L170.36541328125,68.57744318181818L170.59070729166666,67.43096590909092L171.29375243055554,67.04880681818182L171.80346015625003,67.29017045454545L172.0463302951389,64.26306818181817L172.18534149305555,65.35926136363636L172.27322213541666,63.50880681818181L172.53526623263886,65.78164772727274L172.853234375,64.88659090909091L172.87560399305556,65.67102272727271L173.4875728298611,65.7715909090909L173.5466925347222,66.02301136363637L173.65374713541667,65.20840909090909L174.0324328125,65.19835227272728L174.13788958333333,67.57176136363636L174.2737051215278,63.49875L174.46544470486108,62.2315909090909L174.7386736111111,66.06323863636365L175.46568619791665,63.96136363636363L175.7117519965278,62.593636363636364L175.97699175347222,65.26875L176.91811354166666,64.94693181818182L177.04274427083334,64.73573863636364L177.55884331597224,64.2127840909091L178.08133368055556,66.52585227272728L178.260290625,66.09340909090909L179.07518385416668,67.73267045454546L179.4650543402778,63.2272159090909L179.51778272569445,65.9928409090909L179.70632664930554,67.89357954545454L180.08341449652778,64.07198863636363L180.17608862847223,62.523238636363644L180.69058984375,61.39687500000001L180.75769869791665,59.144147727272724L181.0660798611111,65.30897727272728L181.92731015624997,63.67977272727272L183.1816065972222,63.26744318181818L183.82393420138888,59.4559090909091L184.32405494791666,64.12227272727273L185.07343715277779,59.033522727272725L185.23002447916667,58.15857954545456L185.24120928819445,62.653977272727275L185.25399192708335,59.184375L185.4665032986111,62.483011363636365L185.55118828125,59.22460227272727L185.57515572916665,61.80920454545455L185.9666240451389,61.67846590909092L185.9698197048611,62.382443181818175L186.28938567708335,62.653977272727275L186.38525546875002,60.5722159090909L186.5130818576389,62.322102272727264L187.5085298611111,64.20272727272726L187.70186727430556,60.71301136363637L188.06297682291668,61.15551136363635L188.27868385416664,58.681534090909096L188.36336883680556,56.90147727272728L188.42089071180555,58.76198863636364L189.08558793402779,59.757613636363644L189.38597994791667,58.53068181818182L189.66560017361113,57.545113636363624L189.67199149305557,62.181306818181824L189.88450286458334,59.063693181818195L190.09381857638888,57.67585227272727L190.77289626736112,61.52761363636364L191.18194071180557,56.740568181818176L191.19791901041665,60.27051136363636L191.30177795138889,61.728750000000005L191.55743072916667,58.98323863636364L191.72200720486111,58.32954545454547L192.32918255208332,58.94301136363636L192.3515521701389,59.687215909090895L192.84847725694445,61.02477272727272L192.92996657986112,63.47863636363637L193.16644539930556,62.12096590909091L193.18721718749998,57.76636363636365L194.2673501736111,59.405624999999986L194.92725390625,59.21454545454546L195.11579782986112,61.76897727272727L195.38103758680555,57.11267045454545L195.62550555555555,56.750625000000014L195.86997352430555,61.517556818181816L195.9067236111111,58.782102272727286L195.94027803819444,58.13846590909091L196.1080501736111,60.411306818181814L196.34133333333332,59.38551136363637L196.71043203124998,61.14545454545454L197.19457447916668,59.405624999999986L197.7490214409722,59.787784090909085L197.8768478298611,59.657045454545454L198.21239210069444,58.42005681818182L199.50982994791667,60.5722159090909L199.70156953125002,56.55954545454546L199.74790659722223,57.535056818181815L199.89490694444444,58.76198863636364L199.90928741319445,60.22022727272727L200.08984218749998,60.91414772727272L200.39183203125,62.030454545454546L200.61872387152778,64.75585227272727L201.71483515625002,61.215852272727275L201.73560694444444,63.57920454545456L202.13186875,60.88397727272728L203.50600243055555,66.31465909090909L203.7696443576389,63.57920454545456L203.94700347222224,61.57789772727273L203.95179696180557,61.829318181818195L204.48547213541667,67.59187499999999L204.65164644097223,66.24426136363637L204.75710321180557,67.90363636363637L204.92807100694444,67.6421590909091L205.27320225694444,63.46857954545453L206.19515008680557,67.27005681818181L206.20313923611113,62.211477272727265L206.39168315972222,66.18392045454546L206.4044657986111,65.75147727272727L206.4571941840278,63.14676136363637L207.05957604166667,65.62073863636364L207.51815321180555,67.21977272727273L207.93838246527778,65.07767045454545L208.05182838541668,61.50750000000001L208.6046775173611,62.97579545454546L208.79322144097222,61.80920454545455L209.39879895833332,61.799147727272725L209.63208211805554,61.63823863636364L209.76470199652778,64.051875L209.84459348958333,61.71869318181817L210.24884444444444,57.15289772727273L210.41981223958334,57.8065909090909L210.58279088541664,59.22460227272727L210.86081328125,60.64261363636365L211.35294487847221,59.717386363636365L211.49035824652776,63.830625L211.57184756944443,63.63954545454544L211.69967395833334,62.171249999999986L212.71269809027777,57.17301136363636L213.04664453125,60.55210227272728L213.19843836805558,64.26306818181817L213.31348211805556,56.609829545454545L214.0948209201389,57.20318181818183L214.13476666666668,54.99068181818181L214.35686501736112,51.96357954545455L214.45113697916668,54.286704545454555L214.82662699652778,58.02784090909091L215.32514991319442,55.09125L215.81408585069445,51.521079545454555L216.64176171875,58.27926136363635L216.73124019097222,54.91022727272727L217.01884956597223,52.30551136363637L217.08116493055556,52.003806818181815L217.15626293402778,50.18352272727273L217.40872005208334,56.11704545454545L217.50778550347223,54.16602272727273L218.38339626736112,55.08119318181818L218.51601614583333,55.12142045454546L218.6566251736111,49.96227272727272L218.69976657986112,54.216306818181806L218.79563637152776,53.34136363636364L219.00335425347222,51.09869318181818L219.83742144097224,53.321250000000006L220.24486805555554,51.702102272727274L220.26883550347222,51.61159090909092L220.42702065972225,50.847272727272724L220.99265243055558,52.24517045454546L221.82671961805553,54.12076704545454L222.08716588541665,49.48960227272728L222.62883020833334,55.40301136363637L222.68635208333333,53.86431818181818L222.96757013888887,52.02392045454546L223.23121206597222,52.55693181818181L223.5411910590278,52.40607954545453L224.72518298611112,49.81142045454544L225.0127923611111,47.77994318181817L225.21092326388887,54.246477272727276L225.2572603298611,48.282784090909104L225.4266302951389,51.259602272727264L225.96829461805555,46.542954545454535L226.22394739583333,48.1822159090909L226.34698029513888,47.51846590909091L226.36295859375,48.02130681818181L226.6234048611111,44.119261363636355L227.11234079861111,46.36193181818183L227.5261787326389,47.769886363636374L227.80739678819444,46.86477272727274L228.01990815972223,46.62340909090909L228.03748428819443,44.209772727272735L228.22443038194444,50.10306818181819L228.94345381944444,47.568749999999994L229.1112259548611,49.88181818181819L229.12400859374998,47.16647727272726L229.1831282986111,47.75982954545455L229.94848880208332,46.05017045454545L230.17857630208334,45.93954545454545L230.71544713541667,48.64482954545454L231.1101111111111,45.376363636363635L231.1500568576389,44.96403409090908L231.51915555555556,46.69380681818183L232.26853776041665,41.524602272727265L232.34044010416665,46.66363636363636L232.75747369791668,44.39079545454547L232.8197890625,47.317329545454555L233.24161614583332,43.42534090909092L233.67942152777778,44.37068181818182L233.85678064236112,45.436704545454546L233.9398677951389,45.145056818181814L234.1843357638889,45.9596590909091L234.2562381076389,44.30028409090909L234.85542430555554,43.837670454545446L235.14782717013887,46.794375L235.19895772569444,42.19840909090908L235.53130633680556,41.846420454545466L235.67990451388889,45.72835227272728L236.26311241319445,44.50142045454547L236.31743862847222,40.54909090909092L236.94059227430557,42.70124999999999L237.1594949652778,43.324772727272716L237.20103854166666,41.08210227272727L237.44710434027778,39.17130681818182L237.7347137152778,38.48744318181818L238.1996822048611,38.427102272727296L238.7429443576389,36.83812499999999L239.22708680555553,44.058920454545444L239.6201529513889,42.238636363636374L239.67607699652777,44.260056818181795L239.85822960069444,41.725738636363644L239.9253384548611,41.444147727272735L239.96208854166667,41.09215909090909L240.7562099826389,40.11664772727272L241.1045368923611,40.5390340909091L241.81716901041668,37.40130681818181L241.94020190972222,40.05630681818181L241.95777803819445,38.73886363636365L242.04565868055556,39.503181818181815L242.95961736111113,40.358011363636365L244.2938052951389,38.71875L244.99045911458333,39.51323863636364L245.69829774305558,39.32215909090908L245.80535234375,36.52636363636364L246.2495490451389,38.89977272727273L246.46845173611112,37.99465909090907L247.10758368055556,41.695568181818174L247.23541006944444,39.20147727272726L247.40637786458333,41.43409090909091L247.67800894097223,41.82630681818182L247.78027005208335,38.71875L247.83938975694443,41.56482954545456L248.0646837673611,38.56789772727274L248.13658611111111,38.54778409090909L248.35548880208336,38.69863636363635L248.37306493055556,39.71437499999999L248.76293541666666,38.94L248.8795769965278,39.28193181818182L248.8987509548611,39.80488636363637L249.25346918402778,39.82499999999999L249.28382795138887,42.71130681818181L249.47077404513888,38.678522727272735L249.97089479166667,38.63829545454544L250.6100267361111,40.4284090909091L250.64677682291668,40.51892045454545L251.0957670138889,42.45988636363637L251.20921293402776,38.39693181818183L252.2621828125,38.447215909090914L252.60092274305558,37.763352272727275L252.62169453125,39.32215909090908L252.62489019097222,37.3309090909091L252.92847786458333,38.76903409090909L253.80888211805555,36.66715909090908L254.79793880208334,40.94130681818183L254.9065912326389,39.010397727272704L255.35398359375,41.34357954545453L255.60484288194445,40.96142045454545L256.08419184027775,38.86960227272726L256.11295277777776,37.703011363636364L256.29510538194444,34.92732954545457L256.6594105902778,37.079488636363635L257.1387595486111,41.273181818181826L257.1643248263889,38.29636363636362L257.4008036458333,35.90284090909091L257.52863003472226,38.06505681818183L257.69640217013887,37.049318181818194L258.0031855034722,38.165625000000006L259.1312533854167,38.36676136363636L260.5756915798611,39.985909090909104L260.63640911458333,42.57051136363637L260.9799425347222,40.840738636363625L261.1604973090278,38.09522727272727L261.59990052083333,36.486136363636376L262.15594531249997,38.105284090909095L262.32691310763886,40.30772727272728L262.46432647569446,36.244772727272704L262.60173984375,38.26619318181818L262.72477274305555,39.100909090909084L262.83981649305554,36.15426136363635L263.0874801215278,39.533352272727285L263.1354150173611,37.86392045454545L263.33035026041665,37.873977272727274L263.3399372395833,37.139829545454546L263.3910677951389,37.703011363636364L265.0320390625,38.59806818181818L265.5832903645833,38.11534090909092L265.6599861979167,36.486136363636376L265.93800859375,38.819318181818176L266.0674328125,37.622556818181806L266.4013792534722,36.41573863636364L266.41895538194444,37.823693181818186L266.48286857638885,35.97323863636365L266.53080347222226,39.48306818181817L267.9560677083333,37.68289772727272L268.05513315972223,40.03619318181819L268.21811180555557,39.191420454545465L268.5824170138889,38.62823863636365L268.6303519097222,37.2303409090909L269.13846180555555,37.873977272727274L269.3445818576389,35.681590909090914L270.1482902777778,37.622556818181806L270.17065989583335,37.46164772727272L270.32724722222224,39.48306818181817L271.12775998263885,37.190113636363634L271.17569487847226,37.019147727272724L271.46010859374996,40.02613636363637L271.5352065972222,40.99159090909092L271.5879349826389,41.36369318181818L271.63746770833336,38.758977272727265L271.7748810763889,38.849488636363645L271.8499790798611,40.25744318181819L271.97940329861115,37.873977272727274L272.6313178819444,38.43715909090909L273.0675254340278,38.08517045454545L273.12185164930554,41.66539772727273L274.30105008680556,38.09522727272727L274.44325694444444,38.4975L274.8746710069444,37.83375000000001L275.1878456597222,38.929943181818174L275.4674658854167,35.78215909090909L275.56493350694444,35.993352272727265L275.9452170138889,38.91988636363635L276.52842491319444,38.28630681818183L277.12761111111115,35.78215909090909L277.1324046006945,40.468636363636364L277.13560026041665,38.06505681818183L277.14039375,36.94874999999999L277.1451872395833,40.951363636363624L277.14678506944443,36.26488636363635L277.14998072916666,37.43147727272728L277.15157855902777,38.08517045454545L277.1531763888889,36.21460227272726L277.15477421875,38.53772727272727L277.1563720486111,38.68857954545456L277.1579698784722,39.392556818181816L277.1595677083333,43.807500000000005L277.16276336805555,40.06636363636363L277.16436119791666,37.451590909090896L277.1659590277778,36.596761363636375L277.1707525173611,37.652727272727276L277.1723503472222,36.51630681818182L277.17554600694444,40.669772727272715L277.17714383680556,36.81801136363637L277.18832864583334,39.24170454545455L277.18992647569445,37.481761363636366L277.19152430555556,35.26926136363636L277.1931221354167,38.09522727272727L277.1947199652778,38.21590909090909L277.197915625,37.43147727272728L277.1995134548611,39.613806818181814L277.20111128472223,34.38426136363637L277.20270911458334,38.588011363636355L277.20590477430557,38.356704545454534L277.2075026041667,34.52505681818181L277.2091004340278,37.0090909090909L277.21229609375,39.29198863636364L277.2138939236111,39.59369318181817L277.21708958333335,40.34795454545454L277.23306788194446,39.332215909090905L277.2378613715278,37.652727272727276L277.2394592013889,39.14113636363638L277.24105703124997,37.964488636363626L277.24265486111113,36.395624999999995L277.2458505208333,38.74892045454544L277.24744835069447,40.22727272727272L277.2490461805556,39.54340909090908L277.2522418402778,38.15556818181818L277.25703532986114,39.251761363636376L277.25863315972225,41.65534090909091L277.2602309895833,36.69732954545455L277.2618288194444,39.674147727272725L277.2634266493056,38.28630681818183L277.26502447916664,33.38863636363635L277.26662230902775,37.310795454545456L277.2682201388889,37.823693181818186L277.2714157986111,37.52198863636363L277.2746114583333,35.06812500000001L277.2762092881944,37.24039772727272L277.27940494791665,37.57227272727272L277.2826006076389,39.20147727272726L277.2857962673611,39.09085227272726L277.2873940972222,40.62954545454545L277.2889919270833,39.22159090909091L277.2905897569444,38.46732954545453L277.29218758680554,39.79482954545455L277.29378541666665,37.37113636363637L277.3001767361111,36.82806818181817L277.30816588541666,37.75329545454545L277.30976371527777,35.731875L277.312959375,37.280624999999986L277.3145572048611,37.61250000000001L277.3161550347222,39.11096590909091L277.32094852430555,37.37113636363637L277.32254635416666,36.80795454545455L277.3241441840278,36.596761363636375L277.3257420138889,36.626931818181816L277.32733984375,36.86829545454546L277.3305355034722,38.79920454545456L277.33213333333333,40.77034090909092L277.33692682291667,38.075113636363625L277.3401224826389,41.62517045454547L277.3433181423611,35.12846590909092L277.3449159722222,38.819318181818176L277.34811163194445,39.60374999999999L277.34970946180556,38.06505681818183L277.3545029513889,35.87267045454544L277.35610078125,38.86960227272726L277.3576986111111,36.58670454545455L277.35929644097223,39.72443181818181L277.36089427083334,35.279318181818184L277.36249210069445,37.24039772727272L277.36408993055556,39.71437499999999L277.3672855902778,39.8853409090909L277.3688834201389,36.46602272727273L277.37048125,37.29068181818181L277.3720790798611,36.144204545454556L277.37367690972223,37.3409659090909L277.37527473958335,38.31647727272727L277.37847039930557,36.80795454545455L277.3832638888889,35.90284090909091L277.38486171875,40.60943181818183L277.38805737847224,39.93562499999999L277.3944486979167,38.40698863636365L277.39604652777774,38.77909090909091L277.3992421875,37.823693181818186L277.4008400173611,39.131079545454554L277.4056335069444,38.728806818181795L277.4088291666667,39.92556818181819L277.41042699652775,39.191420454545465L277.41202482638886,39.12102272727273L277.41522048611114,40.60943181818183L277.4168183159722,38.39693181818183L277.41841614583336,36.57664772727273L277.4200139756945,37.5521590909091L277.4232096354167,37.733181818181805L277.4248074652778,37.81363636363636L277.42800312500003,37.09960227272728L277.42960095486114,36.7878409090909L277.4327966145833,38.06505681818183L277.4343944444445,36.10397727272726L277.43599227430553,37.52198863636363L277.4391879340278,37.98460227272727L277.44078576388887,39.38249999999999L277.4455792534722,38.306420454545446L277.4487749131945,39.52329545454546L277.45037274305554,37.50187500000001L277.45356840277776,37.51193181818181L277.4551662326389,35.400000000000006L277.4567640625,36.174375L277.4583618923611,36.41573863636364L277.4599597222222,39.473011363636374L277.4615575520833,37.43147727272728L277.46315538194443,40.76028409090907L277.46794887152777,39.96579545454546L277.4695467013889,36.657102272727286L277.47114453125,35.50056818181818L277.4727423611111,37.85386363636363L277.4743401909722,37.421420454545455L277.4759380208333,36.908522727272725L277.47753585069444,37.2303409090909L277.48073151041666,36.88840909090908L277.4823293402778,38.708693181818205L277.4839271701389,37.873977272727274L277.485525,36.21460227272726L277.4871228298611,38.26619318181818L277.4887206597222,37.92426136363636L277.49351414930555,39.65403409090908L277.4983076388889,36.63698863636364L277.5015032986111,36.626931818181816L277.50469895833334,38.849488636363645L277.50629678819445,39.955738636363634L277.50789461805556,39.302045454545464L277.50949244791667,38.03488636363636L277.5110902777778,35.41005681818183L277.51748159722223,38.23602272727274L277.5238729166667,41.122329545454534L277.5270685763889,39.71437499999999L277.52866640625,40.6496590909091L277.5302642361111,39.44284090909093L277.53345989583335,37.75329545454545L277.53505772569446,34.83681818181819L277.53665555555557,37.361079545454544L277.5414490451389,36.194488636363644L277.543046875,34.5652840909091L277.54624253472224,38.77909090909091L277.54784036458335,38.044943181818184L277.54943819444446,40.13676136363637L277.55263385416663,37.29068181818181L277.5542316840278,36.657102272727286L277.5558295138889,36.83812499999999L277.55902517361113,37.32085227272728L277.56062300347224,35.47039772727274L277.56381866319447,36.43585227272726L277.5654164930556,40.156875000000014L277.56701432291663,38.37681818181818L277.5686121527778,35.38994318181818L277.5702099826389,38.15556818181818L277.57180781249997,37.95443181818183L277.57500347222225,39.533352272727285L277.5766013020833,37.08954545454546L277.58139479166664,37.0090909090909L277.58938394097225,36.10397727272726L277.59577526041664,35.86261363636365L277.60855789930554,38.06505681818183L277.6101557291667,40.83068181818183L277.61175355902776,35.651420454545445L277.6133513888889,36.34534090909091L277.61494921875004,35.90284090909091L277.6197427083333,39.32215909090908L277.62134053819443,39.613806818181814L277.62453619791665,37.622556818181806L277.62613402777777,36.64704545454546L277.6293296875,37.12977272727272L277.6309275173611,39.40261363636364L277.6325253472222,37.68289772727272L277.6341231770833,38.588011363636355L277.63731883680555,41.23295454545453L277.63891666666666,37.15994318181819L277.64051449652777,38.48744318181818L277.6421123263889,40.6496590909091L277.64371015625,35.943068181818205L277.6469058159722,37.733181818181805L277.64850364583333,38.185738636363624L277.65010147569444,38.08517045454545L277.65329713541666,35.912897727272735L277.6564927951389,36.365454545454554L277.658090625,38.758977272727265L277.66607977430556,36.737556818181815L277.6692754340278,35.249147727272714L277.6756667534722,38.36676136363636L277.67726458333334,36.596761363636375L277.67886241319445,38.014772727272714L277.6852537326389,39.80488636363637L277.6884493923611,35.400000000000006L277.69324288194446,38.728806818181795L277.69484071180557,38.09522727272727L277.6996342013889,35.78215909090909L277.70123203125,39.72443181818181L277.70602552083335,37.06943181818181L277.70762335069446,36.38556818181817L277.7124168402778,37.16999999999999L277.7140146701389,38.88971590909091L277.7156125,38.909829545454556L277.71721032986113,38.45727272727274L277.71880815972224,38.98022727272726L277.72040598958336,39.72443181818181L277.72200381944447,37.81363636363636L277.7251994791667,36.74761363636364L277.7267973090278,38.417045454545445L277.72839513888886,37.622556818181806L277.72999296875,37.3309090909091L277.73159079861114,37.86392045454545L277.7331886284722,37.92426136363636L277.73478645833336,38.40698863636365L277.7363842881945,37.15994318181819L277.7379821180555,38.165625000000006L277.7443734375,37.05937499999999L277.7491669270833,36.64704545454546L277.7507647569445,40.43846590909092L277.75236258680553,37.763352272727275L277.75396041666664,39.875284090909105L277.75715607638887,39.59369318181817L277.75875390625,37.78346590909092L277.76035173611115,39.100909090909084L277.7619495659722,35.651420454545445L277.7635473958333,35.540795454545446L277.7651452256944,41.011704545454535L277.76674305555554,35.8425L277.76834088541665,43.82761363636362L277.76993871527776,38.36676136363636L277.7747322048611,35.43017045454545L277.7779278645833,39.59369318181817L277.77952569444443,40.50886363636363L277.7859170138889,37.019147727272724L277.78751484375,36.68727272727273L277.7891126736111,36.11403409090909L277.7923083333333,35.61119318181818L277.79869965277777,36.26488636363635L277.8034931423611,37.109659090909105L277.80668880208333,36.75767045454546L277.8130801215278,41.725738636363644L277.8146779513889,38.21590909090909L277.81627578125,38.06505681818183L277.8178736111111,36.20454545454547L277.82266710069445,38.22596590909092L277.82586276041667,36.07380681818182L277.8274605902778,35.681590909090914L277.8290584201389,37.361079545454544L277.83065625,38.427102272727296L277.8322540798611,34.716136363636366L277.83544973958334,35.0077840909091L277.83704756944445,40.730113636363626L277.8418410590278,37.60244318181819L277.8434388888889,36.64704545454546L277.84503671875,35.09829545454545L277.8466345486111,36.244772727272704L277.84823237847223,38.40698863636365L277.84983020833334,44.350568181818176L277.8578193576389,38.909829545454556L277.8594171875,38.819318181818176L277.8610150173611,36.54647727272726L277.8690041666666,37.18005681818181L277.8721998263889,37.89409090909092L277.87379765624996,38.68857954545456L277.87539548611113,36.71744318181817L277.87699331597224,36.174375L277.88018897569447,37.652727272727276L277.8817868055556,36.61687499999999L277.88338463541663,37.06943181818181L277.8849824652778,37.60244318181819L277.8865802951389,37.47170454545454L277.88817812499997,39.00034090909091L277.8897759548611,34.595454545454544L277.8929716145833,39.31210227272726L277.8961672743056,38.075113636363625L277.8977651041667,40.68988636363636L277.89936293402775,34.55522727272728L277.90255859375003,34.80664772727272L277.9041564236111,35.86261363636365L277.90735208333336,36.55653409090908L277.91054774305553,35.06812500000001L277.9121455729167,38.51761363636365L277.91374340277775,35.882727272727266L277.91534123263887,39.40261363636364L277.91693906250003,37.904147727272715L277.9233303819444,37.2303409090909L277.92492821180554,36.37551136363638L277.9265260416667,36.968863636363636L277.92812387152776,35.711761363636356L277.92972170138887,41.43409090909091L277.93131953125004,37.86392045454545L277.9329173611111,36.848181818181814L277.9361130208333,37.85386363636363L277.93771085069443,36.43585227272726L277.93930868055554,37.92426136363636L277.94090651041665,36.737556818181815L277.9472978298611,40.61948863636363L277.9504934895833,39.03051136363635L277.95209131944443,37.934318181818185L277.95368914930555,39.92556818181819L277.95688480902777,39.704318181818195L277.96008046875,37.14988636363637L277.9616782986111,38.80926136363635L277.9632761284722,39.905454545454546L277.9648739583333,39.43278409090908L277.96647178819444,36.596761363636375L277.96806961805555,37.49181818181819L277.96966744791666,37.14988636363637L277.9728631076389,39.32215909090908L277.9744609375,37.763352272727275L277.9760587673611,36.60681818181817L277.9776565972222,37.43147727272728L277.97925442708333,36.06375L277.98085225694444,37.0090909090909L277.98245008680556,40.54909090909092L277.98404791666667,38.819318181818176L277.9856457465278,38.417045454545445L277.9904392361111,39.11096590909091L277.9920370659722,36.083863636363645L277.99523272569445,40.468636363636364L277.99683055555556,36.85823863636364L278.0016240451389,37.20017045454546L278.003221875,38.94L278.0048197048611,37.94437500000001L278.00641753472223,42.017386363636376L278.00801536458334,36.848181818181814L278.01121102430557,40.94130681818183L278.0128088541667,36.38556818181817L278.0144066840278,37.83375000000001" style="fill: none;" fill="none"></path></g></g></g></g></g></g><g transform="translate(42, 177)" clip-path="url(#clip_1)"><clipPath id="clip_1"><rect width="287" height="23"></rect></clipPath><g><g><line x1="0" y1="0" x2="0" y2="5" style="visibility: inherit;" fill="rgb(0, 0, 0)" stroke="rgb(204, 204, 204)" stroke-width="1px"></line><line x1="31.95659722222222" y1="0" x2="31.95659722222222" y2="5" style="visibility: inherit;" fill="rgb(0, 0, 0)" stroke="rgb(204, 204, 204)" stroke-width="1px"></line><line x1="63.91319444444444" y1="0" x2="63.91319444444444" y2="5" style="visibility: inherit;" fill="rgb(0, 0, 0)" stroke="rgb(204, 204, 204)" stroke-width="1px"></line><line x1="95.86979166666666" y1="0" x2="95.86979166666666" y2="5" style="visibility: inherit;" fill="rgb(0, 0, 0)" stroke="rgb(204, 204, 204)" stroke-width="1px"></line><line x1="127.82638888888889" y1="0" x2="127.82638888888889" y2="5" style="visibility: inherit;" fill="rgb(0, 0, 0)" stroke="rgb(204, 204, 204)" stroke-width="1px"></line><line x1="159.78298611111111" y1="0" x2="159.78298611111111" y2="5" style="visibility: inherit;" fill="rgb(0, 0, 0)" stroke="rgb(204, 204, 204)" stroke-width="1px"></line><line x1="191.73958333333331" y1="0" x2="191.73958333333331" y2="5" style="visibility: inherit;" fill="rgb(0, 0, 0)" stroke="rgb(204, 204, 204)" stroke-width="1px"></line><line x1="223.69618055555557" y1="0" x2="223.69618055555557" y2="5" style="visibility: inherit;" fill="rgb(0, 0, 0)" stroke="rgb(204, 204, 204)" stroke-width="1px"></line><line x1="255.65277777777777" y1="0" x2="255.65277777777777" y2="5" style="visibility: inherit;" fill="rgb(0, 0, 0)" stroke="rgb(204, 204, 204)" stroke-width="1px"></line><line x1="287.609375" y1="0" x2="287.609375" y2="5" style="visibility: inherit;" fill="rgb(0, 0, 0)" stroke="rgb(204, 204, 204)" stroke-width="1px"></line></g><g transform="translate(0, 8)"><text x="0" y="0" dx="0em" dy="0.95em" style="text-anchor: middle; visibility: hidden; font-family: &quot;Helvetica Neue&quot;, sans-serif; font-size: 12px; font-weight: 200;" fill="rgb(50, 49, 63)" stroke="none" stroke-width="1px">-20k</text><text x="31.95659722222222" y="0" dx="0em" dy="0.95em" style="text-anchor: middle; visibility: inherit; font-family: &quot;Helvetica Neue&quot;, sans-serif; font-size: 12px; font-weight: 200;" fill="rgb(50, 49, 63)" stroke="none" stroke-width="1px">0</text><text x="63.91319444444444" y="0" dx="0em" dy="0.95em" style="text-anchor: middle; visibility: inherit; font-family: &quot;Helvetica Neue&quot;, sans-serif; font-size: 12px; font-weight: 200;" fill="rgb(50, 49, 63)" stroke="none" stroke-width="1px">20k</text><text x="95.86979166666666" y="0" dx="0em" dy="0.95em" style="text-anchor: middle; visibility: inherit; font-family: &quot;Helvetica Neue&quot;, sans-serif; font-size: 12px; font-weight: 200;" fill="rgb(50, 49, 63)" stroke="none" stroke-width="1px">40k</text><text x="127.82638888888889" y="0" dx="0em" dy="0.95em" style="text-anchor: middle; visibility: inherit; font-family: &quot;Helvetica Neue&quot;, sans-serif; font-size: 12px; font-weight: 200;" fill="rgb(50, 49, 63)" stroke="none" stroke-width="1px">60k</text><text x="159.78298611111111" y="0" dx="0em" dy="0.95em" style="text-anchor: middle; visibility: inherit; font-family: &quot;Helvetica Neue&quot;, sans-serif; font-size: 12px; font-weight: 200;" fill="rgb(50, 49, 63)" stroke="none" stroke-width="1px">80k</text><text x="191.73958333333331" y="0" dx="0em" dy="0.95em" style="text-anchor: middle; visibility: inherit; font-family: &quot;Helvetica Neue&quot;, sans-serif; font-size: 12px; font-weight: 200;" fill="rgb(50, 49, 63)" stroke="none" stroke-width="1px">100k</text><text x="223.69618055555557" y="0" dx="0em" dy="0.95em" style="text-anchor: middle; visibility: inherit; font-family: &quot;Helvetica Neue&quot;, sans-serif; font-size: 12px; font-weight: 200;" fill="rgb(50, 49, 63)" stroke="none" stroke-width="1px">120k</text><text x="255.65277777777777" y="0" dx="0em" dy="0.95em" style="text-anchor: middle; visibility: inherit; font-family: &quot;Helvetica Neue&quot;, sans-serif; font-size: 12px; font-weight: 200;" fill="rgb(50, 49, 63)" stroke="none" stroke-width="1px">140k</text><text x="287.609375" y="0" dx="0em" dy="0.95em" style="text-anchor: middle; visibility: hidden; font-family: &quot;Helvetica Neue&quot;, sans-serif; font-size: 12px; font-weight: 200;" fill="rgb(50, 49, 63)" stroke="none" stroke-width="1px">160k</text></g><line x1="0" y1="0" x2="287.609375" y2="0" fill="rgb(0, 0, 0)" stroke="rgb(204, 204, 204)" stroke-width="1px"></line></g></g></g></g></svg>