<svg viewBox="0 0 330 200" xmlns="http://www.w3.org/2000/svg"><g><g><g><g><g><line x1="63.984375" y1="177" x2="58.984375" y2="177" style="visibility: inherit;" fill="rgb(0, 0, 0)" stroke="rgb(204, 204, 204)" stroke-width="1px"></line><line x1="63.984375" y1="157.33333333333334" x2="58.984375" y2="157.33333333333334" style="visibility: inherit;" fill="rgb(0, 0, 0)" stroke="rgb(204, 204, 204)" stroke-width="1px"></line><line x1="63.984375" y1="137.66666666666669" x2="58.984375" y2="137.66666666666669" style="visibility: inherit;" fill="rgb(0, 0, 0)" stroke="rgb(204, 204, 204)" stroke-width="1px"></line><line x1="63.984375" y1="118" x2="58.984375" y2="118" style="visibility: inherit;" fill="rgb(0, 0, 0)" stroke="rgb(204, 204, 204)" stroke-width="1px"></line><line x1="63.984375" y1="98.33333333333334" x2="58.984375" y2="98.33333333333334" style="visibility: inherit;" fill="rgb(0, 0, 0)" stroke="rgb(204, 204, 204)" stroke-width="1px"></line><line x1="63.984375" y1="78.66666666666666" x2="58.984375" y2="78.66666666666666" style="visibility: inherit;" fill="rgb(0, 0, 0)" stroke="rgb(204, 204, 204)" stroke-width="1px"></line><line x1="63.984375" y1="59" x2="58.984375" y2="59" style="visibility: inherit;" fill="rgb(0, 0, 0)" stroke="rgb(204, 204, 204)" stroke-width="1px"></line><line x1="63.984375" y1="39.33333333333334" x2="58.984375" y2="39.33333333333334" style="visibility: inherit;" fill="rgb(0, 0, 0)" stroke="rgb(204, 204, 204)" stroke-width="1px"></line><line x1="63.984375" y1="19.666666666666686" x2="58.984375" y2="19.666666666666686" style="visibility: inherit;" fill="rgb(0, 0, 0)" stroke="rgb(204, 204, 204)" stroke-width="1px"></line><line x1="63.984375" y1="0" x2="58.984375" y2="0" style="visibility: inherit;" fill="rgb(0, 0, 0)" stroke="rgb(204, 204, 204)" stroke-width="1px"></line></g><g transform="translate(53.984375, 0)"><text x="0" y="177" dx="0em" dy="0.3em" style="text-anchor: end; visibility: hidden; font-family: &quot;Helvetica Neue&quot;, sans-serif; font-size: 12px; font-weight: 200;" fill="rgb(50, 49, 63)" stroke="none" stroke-width="1px">-1e+5</text><text x="0" y="157.33333333333334" dx="0em" dy="0.3em" style="text-anchor: end; visibility: inherit; font-family: &quot;Helvetica Neue&quot;, sans-serif; font-size: 12px; font-weight: 200;" fill="rgb(50, 49, 63)" stroke="none" stroke-width="1px">0</text><text x="0" y="137.66666666666669" dx="0em" dy="0.3em" style="text-anchor: end; visibility: hidden; font-family: &quot;Helvetica Neue&quot;, sans-serif; font-size: 12px; font-weight: 200;" fill="rgb(50, 49, 63)" stroke="none" stroke-width="1px">1e+5</text><text x="0" y="118" dx="0em" dy="0.3em" style="text-anchor: end; visibility: inherit; font-family: &quot;Helvetica Neue&quot;, sans-serif; font-size: 12px; font-weight: 200;" fill="rgb(50, 49, 63)" stroke="none" stroke-width="1px">2e+5</text><text x="0" y="98.33333333333334" dx="0em" dy="0.3em" style="text-anchor: end; visibility: hidden; font-family: &quot;Helvetica Neue&quot;, sans-serif; font-size: 12px; font-weight: 200;" fill="rgb(50, 49, 63)" stroke="none" stroke-width="1px">3e+5</text><text x="0" y="78.66666666666666" dx="0em" dy="0.3em" style="text-anchor: end; visibility: inherit; font-family: &quot;Helvetica Neue&quot;, sans-serif; font-size: 12px; font-weight: 200;" fill="rgb(50, 49, 63)" stroke="none" stroke-width="1px">4e+5</text><text x="0" y="59" dx="0em" dy="0.3em" style="text-anchor: end; visibility: hidden; font-family: &quot;Helvetica Neue&quot;, sans-serif; font-size: 12px; font-weight: 200;" fill="rgb(50, 49, 63)" stroke="none" stroke-width="1px">5e+5</text><text x="0" y="39.33333333333334" dx="0em" dy="0.3em" style="text-anchor: end; visibility: inherit; font-family: &quot;Helvetica Neue&quot;, sans-serif; font-size: 12px; font-weight: 200;" fill="rgb(50, 49, 63)" stroke="none" stroke-width="1px">6e+5</text><text x="0" y="19.666666666666686" dx="0em" dy="0.3em" style="text-anchor: end; visibility: hidden; font-family: &quot;Helvetica Neue&quot;, sans-serif; font-size: 12px; font-weight: 200;" fill="rgb(50, 49, 63)" stroke="none" stroke-width="1px">7e+5</text><text x="0" y="0" dx="0em" dy="0.3em" style="text-anchor: end; visibility: hidden; font-family: &quot;Helvetica Neue&quot;, sans-serif; font-size: 12px; font-weight: 200;" fill="rgb(50, 49, 63)" stroke="none" stroke-width="1px">8e+5</text></g><line x1="63.984375" y1="0" x2="63.984375" y2="177" fill="rgb(0, 0, 0)" stroke="rgb(204, 204, 204)" stroke-width="1px"></line></g></g><g transform="translate(63, 0)" clip-path="url(#clip_0)"><clipPath id="clip_0"><rect width="266" height="177"></rect></clipPath><g><g><g><line x1="0" y1="0" x2="0" y2="177" fill="rgb(0, 0, 0)" stroke="rgb(60, 60, 60)" stroke-width="1px" opacity="0.25"></line><line x1="29.557291666666664" y1="0" x2="29.557291666666664" y2="177" fill="rgb(0, 0, 0)" stroke="rgb(60, 60, 60)" stroke-width="1px" opacity="0.25"></line><line x1="59.11458333333333" y1="0" x2="59.11458333333333" y2="177" fill="rgb(0, 0, 0)" stroke="rgb(60, 60, 60)" stroke-width="1px" opacity="0.25"></line><line x1="88.671875" y1="0" x2="88.671875" y2="177" fill="rgb(0, 0, 0)" stroke="rgb(60, 60, 60)" stroke-width="1px" opacity="0.25"></line><line x1="118.22916666666666" y1="0" x2="118.22916666666666" y2="177" fill="rgb(0, 0, 0)" stroke="rgb(60, 60, 60)" stroke-width="1px" opacity="0.25"></line><line x1="147.78645833333334" y1="0" x2="147.78645833333334" y2="177" fill="rgb(0, 0, 0)" stroke="rgb(60, 60, 60)" stroke-width="1px" opacity="0.25"></line><line x1="177.34375" y1="0" x2="177.34375" y2="177" fill="rgb(0, 0, 0)" stroke="rgb(60, 60, 60)" stroke-width="1px" opacity="0.25"></line><line x1="206.90104166666666" y1="0" x2="206.90104166666666" y2="177" fill="rgb(0, 0, 0)" stroke="rgb(60, 60, 60)" stroke-width="1px" opacity="0.25"></line><line x1="236.45833333333331" y1="0" x2="236.45833333333331" y2="177" fill="rgb(0, 0, 0)" stroke="rgb(60, 60, 60)" stroke-width="1px" opacity="0.25"></line><line x1="266.015625" y1="0" x2="266.015625" y2="177" fill="rgb(0, 0, 0)" stroke="rgb(60, 60, 60)" stroke-width="1px" opacity="0.25"></line></g><g><line x1="0" y1="177" x2="266.015625" y2="177" fill="rgb(0, 0, 0)" stroke="rgb(60, 60, 60)" stroke-width="1px" opacity="0.25"></line><line x1="0" y1="157.33333333333334" x2="266.015625" y2="157.33333333333334" fill="rgb(0, 0, 0)" stroke="rgb(60, 60, 60)" stroke-width="1px" opacity="0.25"></line><line x1="0" y1="137.66666666666669" x2="266.015625" y2="137.66666666666669" fill="rgb(0, 0, 0)" stroke="rgb(60, 60, 60)" stroke-width="1px" opacity="0.25"></line><line x1="0" y1="118" x2="266.015625" y2="118" fill="rgb(0, 0, 0)" stroke="rgb(60, 60, 60)" stroke-width="1px" opacity="0.25"></line><line x1="0" y1="98.33333333333334" x2="266.015625" y2="98.33333333333334" fill="rgb(0, 0, 0)" stroke="rgb(60, 60, 60)" stroke-width="1px" opacity="0.25"></line><line x1="0" y1="78.66666666666666" x2="266.015625" y2="78.66666666666666" fill="rgb(0, 0, 0)" stroke="rgb(60, 60, 60)" stroke-width="1px" opacity="0.25"></line><line x1="0" y1="59" x2="266.015625" y2="59" fill="rgb(0, 0, 0)" stroke="rgb(60, 60, 60)" stroke-width="1px" opacity="0.25"></line><line x1="0" y1="39.33333333333334" x2="266.015625" y2="39.33333333333334" fill="rgb(0, 0, 0)" stroke="rgb(60, 60, 60)" stroke-width="1px" opacity="0.25"></line><line x1="0" y1="19.666666666666686" x2="266.015625" y2="19.666666666666686" fill="rgb(0, 0, 0)" stroke="rgb(60, 60, 60)" stroke-width="1px" opacity="0.25"></line><line x1="0" y1="0" x2="266.015625" y2="0" fill="rgb(0, 0, 0)" stroke="rgb(60, 60, 60)" stroke-width="1px" opacity="0.25"></line></g></g></g><g><g><line x1="0" y1="157.33333333333334" x2="266.015625" y2="157.33333333333334" fill="rgb(0, 0, 0)" stroke="rgb(153, 153, 153)" stroke-width="1.5px"></line></g></g><g><g><line x1="29.557291666666664" y1="0" x2="29.557291666666664" y2="177" fill="rgb(0, 0, 0)" stroke="rgb(153, 153, 153)" stroke-width="1.5px"></line></g></g><g><g><g><g><g><path stroke="rgb(255, 112, 67)" stroke-width="2px" d="M29.575026041666668,157.26572916666666L29.879466145833334,157.26142708333333L29.89572265625,157.26432991236163L29.903111979166667,157.2573560718959L29.914934895833333,157.26088650333122L29.932669270833333,157.26353335001124L29.93710286458333,157.26913758800063L29.951881510416666,157.26996354196652L29.957792968750002,157.270907637048L29.982916666666664,157.26931051062763L30.00212890625,157.27160988029863L30.003606770833333,157.27383084611475L30.0154296875,157.27243966200052L30.024296875,157.2697686010679L30.031686197916667,157.270954828924L30.039075520833332,157.26983060917593L30.04055338541667,157.26876305136997L30.043509114583333,157.26961369395485L30.05533203125,157.26985382523452L30.061243489583333,157.26992299838457L30.06419921875,157.27127738358945L30.07011067708333,157.27054606456053L30.07306640625,157.27076606036297L30.081933593749998,157.27204195724974L30.09080078125,157.27451352845776L30.09966796875,157.27538126138L30.115924479166665,157.2735864773564L30.132180989583333,157.27088960617235L30.166171875,157.27235388584555L30.167649739583332,157.2708919403654L30.176516927083334,157.26900058734827L30.645,157.26484955788644L30.650911458333333,157.2614459834103L30.763229166666665,157.25619074274024L30.782441406249998,157.25092848770632L30.80017578125,157.24940581471688L30.80313151041667,157.24572104327558L30.804609375,157.24154279848864L30.81052083333333,157.2356726325446L30.819388020833333,157.23116911583685L30.82234375,157.22864545543374L30.828255208333335,157.2249654973699L30.882936197916667,157.22679375172228L30.890325520833333,157.22736796596223L30.9021484375,157.22508131573278L30.90953776041667,157.22139800110722L30.913971354166666,157.21910983697583L30.962740885416665,157.22015854672182L30.978997395833336,157.21636010726843L30.980475260416668,157.2119201724489L30.989342447916666,157.21149744442334L30.992298177083335,157.2124319134762L31.064713541666666,157.21170526286133L31.08392578125,157.21073113015072L31.094270833333333,157.208924184811L31.098704427083334,157.20934500225167L31.123828125000003,157.20953868780146L31.129739583333333,157.20668860017955L31.150429687499997,157.20783191883427L31.227278645833334,157.20304836001304L31.623346354166667,157.20323236326857L31.698717447916664,157.20002508349472L31.765221354166666,157.1997055941076L31.769654947916663,157.19723378705737L31.80807942708333,157.19351469112382L31.834680989583333,157.1928750069432L31.867194010416664,157.19187498005468L31.8775390625,157.18997872352568L31.893795572916666,157.18313702549247L31.899707031250003,157.1814450753032L31.955865885416667,157.18341532467093L31.9662109375,157.18058892022225L31.99724609375,157.1757581341133L31.998723958333333,157.17271429855296L32.0016796875,157.16992589952213L32.004635416666666,157.16959903406044L32.01350260416667,157.1718868996397L32.02680338541666,157.17216922332454L32.031236979166664,157.16981068679198L32.07852864583333,157.16855486458098L32.09330729166667,157.16813158656163L32.130253906250005,157.16913370941216L32.13764322916666,157.1678104402166L32.15981119791667,157.16520579367534L32.18493489583334,157.16808016845562L32.220403645833336,157.16113374091935L32.25143880208333,157.15979928988304L32.26917317708333,157.15562959375106L32.27951822916667,157.15479645969157L32.291341145833336,157.1537086058526L32.39626953125,157.1537928552101L32.56770182291667,157.14313739137472L32.696276041666664,157.1421215124888L32.770169270833335,157.13796207001786L32.84849609375,157.13119472527427L32.86623046875,157.13303876490053L32.90317708333333,157.13606895715003L32.915,157.13548954243495L32.966725260416666,157.12811526639024L32.97411458333333,157.12858937734427L33.002194010416666,157.12628725957714L33.01697265625,157.12628655443757L33.039140625,157.1265440498131L33.04948567708333,157.12405314308958L33.068697916666665,157.1256341035768L33.07017578125,157.1271798817057L33.077565104166666,157.1206797276223L33.08938802083333,157.11386469777165L33.19727213541667,157.11301051087122L33.229785156249996,157.10972192932726L33.25047526041667,157.10800982629038L33.27264322916667,157.10410277268505L33.27707682291667,157.0956512925226L33.28889973958333,157.0995992080928L33.2962890625,157.1035210795646L33.30663411458333,157.10113229318415L33.34653645833333,157.10295261359585L33.37461588541667,157.1022247451678L33.390872395833334,157.10052486871845L33.441119791666665,157.09710820414668L33.481022135416666,157.09679884116625L33.53126953125,157.09896646271943L33.63028645833333,157.09563189193085L33.758860677083334,157.08895556359258L33.83570963541666,157.08629021048426L33.89630208333333,157.08151295207065L33.94359375,157.07002893079274L33.974628906250004,157.06625707413693L34.11354817708334,157.06230313260988L34.11650390625,157.05644604192068L34.206653645833335,157.05521862398479L34.21404296875,157.05297082203623L34.23325520833333,157.05143946774228L34.23473307291667,157.04695760099042L34.25837890625,157.04057621164856L34.267246093749996,157.0374695261247L34.28793619791667,157.032442570805L34.38104166666667,157.0342300854242L34.397298177083336,157.03203457592406L34.428333333333335,157.02483465717162L34.44163411458333,157.0241318162061L34.44458984375,157.02183988385667L34.48153645833333,157.01433193498883L34.54065104166667,157.01355467878975L34.553951822916666,157.00937045994075L34.57464192708333,157.006243829961L34.59680989583334,157.00468975917306L34.624889322916665,157.00692328363323L34.64114583333333,157.0055163717226L34.67218098958333,157.0044345260689L34.78449869791667,157.00151878143612L34.796321614583334,156.99930638221386L34.82292317708333,156.99450043101285L34.87908203125,156.9926887210822L34.88203776041667,156.99494234915613L34.95001953125,156.99550790594833L34.961842447916666,156.993865865246L35.1229296875,156.99053813269197L35.31652994791666,156.98358525655402L35.37564453125,156.98294496003473L35.3889453125,156.98152671397034L35.42736979166667,156.9755671673429L35.44362630208333,156.97533534643387L35.4598828125,156.9743707700936L35.56481119791667,156.9703068179697L35.57515625,156.9644490526908L35.58845703125,156.96040623066276L35.6017578125,156.96425331600886L35.62983723958333,156.96976840117662L35.64018229166667,156.96778104019256L35.68008463541667,156.95821179019663L35.71407552083333,156.96008425703556L35.737721354166666,156.95918208132105L35.79092447916666,156.95375460229636L35.86186197916666,156.94387945446965L35.87072916666666,156.93250890475545L35.960878906249995,156.92613499339583L36.00669270833333,156.92341607737012L36.01703776041667,156.9242140529716L36.11901041666667,156.91669681429747L36.15300130208333,156.91112359117196L36.197337239583334,156.9056651903624L36.281575520833336,156.90222762964498L36.28453125,156.90028309583974L36.293398437499995,156.90316697376565L36.30078776041667,156.90018819304657L36.308177083333334,156.89844760290373L36.42492838541667,156.89211190509755L36.44266276041667,156.89336686042395L36.48108723958333,156.89092559104327L36.4884765625,156.8881200111005L36.62887369791667,156.88313050998227L36.905234375,156.87565922980636L36.92444661458333,156.86601580681292L36.95400390625,156.8606493302919L36.98208333333333,156.85306616808788L37.017552083333335,156.85050038460994L37.05154296875,156.8398082628063L37.07666666666666,156.83363931152084L37.12543619791666,156.8406800678737L37.15055989583333,156.84197716525384L37.203763020833335,156.84112257372797L37.22149739583333,156.8374956288533L37.316080729166664,156.836161170134L37.4638671875,156.82498546978263L37.521503906250004,156.81477369363387L37.68850260416667,156.81185799093618L37.7653515625,156.7960879210044L37.81116536458334,156.78536110806772L37.868802083333335,156.77417666392486L37.933828125,156.7705392058649L37.935305989583334,156.77369403527905L38.0668359375,156.75115109008044L38.10969401041667,156.7378010852369L38.26634765625,156.72625931004487L38.37127604166667,156.7095599415382L38.41117838541666,156.69128550988222L38.49689453125,156.67425466722554L38.58556640625,156.67032742966927L38.63138020833333,156.662472395035L38.680149739583335,156.65000067636387L38.70970703125,156.64911956706075L38.789511718750006,156.6426047978543L39.05257161458333,156.63133931806823L39.24026041666667,156.61192017792706L39.798893229166666,156.57566743096606L39.825494791666664,156.5449144378682L40.10481119791667,156.4958922649129L40.36639322916666,156.46647928842063L40.70482421875,156.39411052624305L41.13340494791667,156.37847103611833L41.154095052083335,156.34117653667226L41.708294270833335,156.32394711217134L41.80435546875,156.33072542178766L42.036380208333334,156.31336110877527L42.479739583333334,156.28547228956396L42.5713671875,156.25645745644047L42.81373697916667,156.2369938982962L42.988125,156.20534742513286L43.604394531249994,156.14911101595231L44.68619140625,156.01673408102252L44.84580078125,155.90636494375266L45.13841796875,155.85431261604367L45.1428515625,155.8060581252723L45.56404296875,155.77208137524485L45.784244791666666,155.67714927938653L46.000013020833336,155.6356838306143L46.01922526041667,155.56138544755257L46.0384375,155.483085652797L46.40938151041667,155.41580552501705L47.476399739583336,155.35072393084846L49.246881510416664,155.33989132943026L51.468111979166665,155.28160219648709L115.96951171875,153.3908617685005L126.55693359375,153.10022340414986L134.4354296875,152.8126520012343L134.88913411458336,152.53303409277706L139.76608723958333,150.76854422516325L141.48779947916665,150.72685646931353L142.05677734375,150.12173905154808L148.41750651041667,148.23489566722446L149.6692578125,146.0074943296664L152.60577473958335,141.0788177091952L153.28115885416668,138.2031900007733L156.47186848958333,134.90502318819347L156.52211588541667,129.5951535777039L157.82411458333334,123.76433165742998L160.6823046875,120.27122734585174L165.03757161458333,115.27132419459744L166.082421875,107.77387333763438L166.41346354166666,101.4139635038684L167.32530598958334,98.27774163264712L167.77309895833332,94.95560861521466L168.58444661458333,88.84286806619143L173.00326171875,81.58585657207038L173.0608984375,74.95885560236178L175.01611328125,68.08285722962414L175.54518880208332,64.44965036082772L178.45510416666667,60.57547511641094L179.34182291666667,56.20187979226918L180.22263020833333,52.326948688041725L180.31721354166666,46.63052611090353L181.02511067708335,40.8645729789792L181.70640625000001,37.45047599358091L184.25720052083335,33.79148849838916L206.44290364583335,39.45754975271737L243.4841015625,44.988436235779346L249.69852213541665,48.855264070535014L251.16604166666667,53.28176297598179L254.86218098958332,57.60385407421718L255.39421223958334,60.35762345846226L255.39569010416668,62.17036684178274L255.39716796874998,65.1124717201046L255.39864583333332,66.64519236059418L255.40012369791668,67.79206416620148L255.4016015625,69.77744295791472L255.40307942708333,70.5422748079566L255.40455729166666,70.62805524382762L255.40603515625,72.46695461527821L255.40751302083333,73.06764019541707L255.40899088541667,74.56358398837538L255.41046874999998,75.27704777703785L255.41194661458334,75.25936081183406L255.41342447916668,76.087277751484L255.41490234375,76.80226383050227L255.41638020833332,76.61849140578536L255.41785807291666,76.16973028604015L255.4193359375,75.55862006993614L255.42081380208333,75.94919150044252L255.42229166666667,74.64978745456492L255.42376953125,74.46355266744176L255.42524739583334,74.72753250486424L255.42672526041667,74.46012352521116L255.428203125,74.3234675268567L255.42968098958332,74.6834105658377L255.43115885416668,75.29879471758724L255.43263671875002,75.58052139166186L255.43411458333333,75.51550612749567" style="fill: none;" fill="none"></path></g></g></g></g><g opacity="0.2"><g><g><g><path stroke="rgb(255, 112, 67)" stroke-width="2px" d="M29.575026041666668,157.26572916666666L29.879466145833334,157.25755520833334L29.89572265625,157.26929375L29.903111979166667,157.240346875L29.914934895833333,157.27181354166666L29.932669270833333,157.27328854166666L29.93710286458333,157.29277083333335L29.951881510416666,157.27384166666667L29.957792968750002,157.275746875L29.982916666666664,157.26050520833334L30.00212890625,157.28508854166665L30.003606770833333,157.287546875L30.0154296875,157.26345520833334L30.024296875,157.25183958333332L30.031686197916667,157.27918854166666L30.039075520833332,157.26179583333334L30.04055338541667,157.26093541666665L30.043509114583333,157.27599270833332L30.05533203125,157.271690625L30.061243489583333,157.27046145833333L30.06419921875,157.28198489583335L30.07011067708333,157.264684375L30.07306640625,157.27255104166667L30.081933593749998,157.28250729166666L30.09080078125,157.29498333333333L30.09966796875,157.28263020833333L30.115924479166665,157.25847708333333L30.132180989583333,157.24802916666667L30.166171875,157.28484270833334L30.167649739583332,157.25835416666666L30.176516927083334,157.2527L30.645,157.228915625L30.650911458333333,157.231865625L30.763229166666665,157.21035520833334L30.782441406249998,157.20488541666666L30.80017578125,157.23604479166667L30.80313151041667,157.21330520833334L30.804609375,157.20470104166668L30.81052083333333,157.18380520833333L30.819388020833333,157.191303125L30.82234375,157.20626822916665L30.828255208333335,157.19228645833334L30.882936197916667,157.24305104166666L30.890325520833333,157.23248020833333L30.9021484375,157.20470104166668L30.90953776041667,157.1885375L30.913971354166666,157.19867812500001L30.962740885416665,157.22953020833333L30.978997395833336,157.18239166666666L30.980475260416668,157.17218958333333L30.989342447916666,157.2077125L30.992298177083335,157.220803125L31.064713541666666,157.20519270833333L31.08392578125,157.201996875L31.094270833333333,157.19271666666668L31.098704427083334,157.21312083333333L31.123828125000003,157.21127708333333L31.129739583333333,157.18110104166666L31.150429687499997,157.21809895833334L31.227278645833334,157.16008229166667L31.623346354166667,157.20488541666666L31.698717447916664,157.17120625L31.765221354166666,157.196834375L31.769654947916663,157.17501666666666L31.80807942708333,157.16008229166667L31.834680989583333,157.18712395833333L31.867194010416664,157.18288333333334L31.8775390625,157.17292708333332L31.893795572916666,157.121609375L31.899707031250003,157.166228125L31.955865885416667,157.20113645833334L31.9662109375,157.155165625L31.99724609375,157.132303125L31.998723958333333,157.14533229166668L32.0016796875,157.144840625L32.004635416666666,157.16665833333334L32.01350260416667,157.19247083333335L32.02680338541666,157.174709375L32.031236979166664,157.14858958333332L32.07852864583333,157.15725520833334L32.09330729166667,157.16432291666666L32.130253906250005,157.17815104166667L32.13764322916666,157.155903125L32.15981119791667,157.14176770833333L32.18493489583334,157.19394583333334L32.220403645833336,157.09862395833335L32.25143880208333,157.147790625L32.26917317708333,157.11810625L32.27951822916667,157.14729895833332L32.291341145833336,157.14391875L32.39626953125,157.15455104166665L32.56770182291667,157.04724479166666L32.696276041666664,157.13297916666667L32.770169270833335,157.10052916666666L32.84849609375,157.07029166666666L32.86623046875,157.149634375L32.90317708333333,157.16333958333334L32.915,157.130275L32.966725260416666,157.06174895833334L32.97411458333333,157.13285625L33.002194010416666,157.10556875L33.01697265625,157.12628020833333L33.039140625,157.12886145833335L33.04948567708333,157.10163541666668L33.068697916666665,157.1398625L33.07017578125,157.14109166666665L33.077565104166666,157.06217916666668L33.08938802083333,157.05253020833334L33.19727213541667,157.10532291666667L33.229785156249996,157.080125L33.25047526041667,157.09260104166668L33.27264322916667,157.06893958333333L33.27707682291667,157.01958854166668L33.28889973958333,157.13513020833332L33.2962890625,157.13881770833333L33.30663411458333,157.07963333333333L33.34653645833333,157.11933541666667L33.37461588541667,157.09567395833332L33.390872395833334,157.08522604166666L33.441119791666665,157.06635833333334L33.481022135416666,157.09401458333332L33.53126953125,157.118475L33.63028645833333,157.06562083333333L33.758860677083334,157.02886875000002L33.83570963541666,157.06230208333332L33.89630208333333,157.03851770833333L33.94359375,156.96667291666665L33.974628906250004,157.03231041666666L34.11354817708334,157.02671770833334L34.11650390625,157.00373229166667L34.206653645833335,157.044171875L34.21404296875,157.032740625L34.23325520833333,157.03765729166668L34.23473307291667,157.00662083333333L34.25837890625,156.98314375L34.267246093749996,157.009509375L34.28793619791667,156.9872L34.38104166666667,157.05031770833332L34.397298177083336,157.012275L34.428333333333335,156.96003541666667L34.44163411458333,157.01780625L34.44458984375,157.0012125L34.48153645833333,156.94676041666668L34.54065104166667,157.006559375L34.553951822916666,156.9717125L34.57464192708333,156.97810416666667L34.59680989583334,156.990703125L34.624889322916665,157.027025L34.64114583333333,156.99285416666666L34.67218098958333,156.99469791666667L34.78449869791667,156.97527708333334L34.796321614583334,156.97939479166666L34.82292317708333,156.951246875L34.87908203125,156.97638333333333L34.88203776041667,157.015225L34.95001953125,157.00059791666666L34.961842447916666,156.9790875L35.1229296875,156.96058854166665L35.31652994791666,156.921009375L35.37564453125,156.97718229166668L35.3889453125,156.9687625L35.42736979166667,156.92193125L35.44362630208333,156.97324895833333L35.4598828125,156.96568958333333L35.56481119791667,156.93373125L35.57515625,156.91172916666667L35.58845703125,156.92402083333334L35.6017578125,156.99887708333333L35.62983723958333,157.01940416666667L35.64018229166667,156.94989479166668L35.68008463541667,156.87208854166667L35.71407552083333,156.97693645833334L35.737721354166666,156.9510625L35.79092447916666,156.90490729166666L35.86186197916666,156.855003125L35.87072916666666,156.83017395833332L35.960878906249995,156.86876979166667L36.00669270833333,156.89894583333333L36.01703776041667,156.93139583333334L36.11901041666667,156.84904166666666L36.15300130208333,156.86096458333333L36.197337239583334,156.85653958333333L36.281575520833336,156.87128958333332L36.28453125,156.88278229166667L36.293398437499995,156.929121875L36.30078776041667,156.87337916666667L36.308177083333334,156.88278229166667L36.42492838541667,156.835090625L36.44266276041667,156.90466145833332L36.48108723958333,156.86895416666667L36.4884765625,156.86286979166667L36.62887369791667,156.838225L36.905234375,156.80841770833334L36.92444661458333,156.779225L36.95400390625,156.81235104166666L36.98208333333333,156.78481770833332L37.017552083333335,156.82740833333332L37.05154296875,156.74357916666668L37.07666666666666,156.77811875L37.12543619791666,156.904046875L37.15055989583333,156.85365104166667L37.203763020833335,156.83343125L37.22149739583333,156.804853125L37.316080729166664,156.82415104166665L37.4638671875,156.72440416666666L37.521503906250004,156.72286770833333L37.68850260416667,156.78561666666667L37.7653515625,156.65415729166668L37.81116536458334,156.68881979166667L37.868802083333335,156.67351666666667L37.933828125,156.73780208333335L37.935305989583334,156.8020875L38.0668359375,156.54826458333332L38.10969401041667,156.61765104166668L38.26634765625,156.62238333333335L38.37127604166667,156.559265625L38.41117838541666,156.526815625L38.49689453125,156.52097708333332L38.58556640625,156.63498229166666L38.63138020833333,156.59177708333334L38.680149739583335,156.53775520833332L38.70970703125,156.64118958333333L38.789511718750006,156.583971875L39.05257161458333,156.52994999999999L39.24026041666667,156.43714791666667L39.798893229166666,156.24939270833335L39.825494791666664,156.2681375L40.10481119791667,156.05469270833333L40.36639322916666,156.2017625L40.70482421875,155.74279166666668L41.13340494791667,156.237715625L41.154095052083335,156.00552604166666L41.708294270833335,156.16888229166668L41.80435546875,156.39173020833334L42.036380208333334,156.15708229166665L42.479739583333334,156.03447291666666L42.5713671875,155.99532395833333L42.81373697916667,156.061821875L42.988125,155.92052916666665L43.604394531249994,155.64298333333335L44.68619140625,154.82534166666667L44.84580078125,154.91304270833334L45.13841796875,155.38584166666666L45.1428515625,155.37176770833332L45.56404296875,155.466290625L45.784244791666666,154.82276041666665L46.000013020833336,155.26249479166665L46.01922526041667,154.8927L46.0384375,154.7783875L46.40938151041667,154.810284375L47.476399739583336,154.76498958333335L49.246881510416664,155.24239791666668L51.468111979166665,154.757L115.96951171875,136.37419791666667L126.55693359375,150.484478125L134.4354296875,150.224509375L134.88913411458336,150.01647291666666L139.76608723958333,134.88813541666667L141.48779947916665,150.35166666666666L142.05677734375,144.67568229166667L148.41750651041667,131.25330520833333L149.6692578125,125.96088229166666L152.60577473958335,96.720728125L153.28115885416668,112.322540625L156.47186848958333,105.221521875L156.52211588541667,81.80632708333333L157.82411458333334,71.286934375L160.6823046875,88.83328854166666L165.03757161458333,70.27219583333334L166.082421875,40.296815624999994L166.41346354166666,44.17477500000001L167.32530598958334,70.05174479166668L167.77309895833332,65.05641145833334L168.58444661458333,33.828203125000016L173.00326171875,16.27275312500001L173.0608984375,15.315846875000005L175.01611328125,6.198871875000009L175.54518880208332,31.75078854166668L178.45510416666667,25.707897916666667L179.34182291666667,16.839521875000003L180.22263020833333,17.452568749999983L180.31721354166666,-4.637277083333345L181.02511067708335,-11.02900520833333L181.70640625000001,6.723603125000011L184.25720052083335,0.8606010416666834L206.44290364583335,90.45210104166667L243.4841015625,94.76641458333333L249.69852213541665,83.65671458333333L251.16604166666667,93.120253125L254.86218098958332,96.50267395833333L255.39421223958334,85.14154791666667L255.39569010416668,78.48505729166666L255.39716796874998,91.591415625L255.39864583333332,80.43967812499999L255.40012369791668,78.11391041666667L255.4016015625,87.64585208333332L255.40307942708333,77.42576145833333L255.40455729166666,71.40007916666667L255.40603515625,89.01704895833333L255.40751302083333,78.47381041666667L255.40899088541667,88.027078125L255.41046874999998,81.69822187499999L255.41194661458334,75.10017812499999L255.41342447916668,83.53853020833334L255.41490234375,83.23713854166667L255.41638020833332,74.96453958333333L255.41785807291666,72.13088020833334L255.4193359375,70.058628125L255.42081380208333,79.46433437499999L255.42229166666667,62.95515104166667L255.42376953125,72.78743958333334L255.42524739583334,77.10335104166667L255.42672526041667,72.05344270833334L255.428203125,73.09356354166667L255.42968098958332,77.92289791666667L255.43115885416668,80.83725208333333L255.43263671875002,78.11606145833333L255.43411458333333,74.93036875" style="fill: none;" fill="none"></path></g></g></g></g></g></g><g transform="translate(63, 177)" clip-path="url(#clip_1)"><clipPath id="clip_1"><rect width="266" height="23"></rect></clipPath><g><g><line x1="0" y1="0" x2="0" y2="5" style="visibility: inherit;" fill="rgb(0, 0, 0)" stroke="rgb(204, 204, 204)" stroke-width="1px"></line><line x1="29.557291666666664" y1="0" x2="29.557291666666664" y2="5" style="visibility: inherit;" fill="rgb(0, 0, 0)" stroke="rgb(204, 204, 204)" stroke-width="1px"></line><line x1="59.11458333333333" y1="0" x2="59.11458333333333" y2="5" style="visibility: inherit;" fill="rgb(0, 0, 0)" stroke="rgb(204, 204, 204)" stroke-width="1px"></line><line x1="88.671875" y1="0" x2="88.671875" y2="5" style="visibility: inherit;" fill="rgb(0, 0, 0)" stroke="rgb(204, 204, 204)" stroke-width="1px"></line><line x1="118.22916666666666" y1="0" x2="118.22916666666666" y2="5" style="visibility: inherit;" fill="rgb(0, 0, 0)" stroke="rgb(204, 204, 204)" stroke-width="1px"></line><line x1="147.78645833333334" y1="0" x2="147.78645833333334" y2="5" style="visibility: inherit;" fill="rgb(0, 0, 0)" stroke="rgb(204, 204, 204)" stroke-width="1px"></line><line x1="177.34375" y1="0" x2="177.34375" y2="5" style="visibility: inherit;" fill="rgb(0, 0, 0)" stroke="rgb(204, 204, 204)" stroke-width="1px"></line><line x1="206.90104166666666" y1="0" x2="206.90104166666666" y2="5" style="visibility: inherit;" fill="rgb(0, 0, 0)" stroke="rgb(204, 204, 204)" stroke-width="1px"></line><line x1="236.45833333333331" y1="0" x2="236.45833333333331" y2="5" style="visibility: inherit;" fill="rgb(0, 0, 0)" stroke="rgb(204, 204, 204)" stroke-width="1px"></line><line x1="266.015625" y1="0" x2="266.015625" y2="5" style="visibility: inherit;" fill="rgb(0, 0, 0)" stroke="rgb(204, 204, 204)" stroke-width="1px"></line></g><g transform="translate(0, 8)"><text x="0" y="0" dx="0em" dy="0.95em" style="text-anchor: middle; visibility: hidden; font-family: &quot;Helvetica Neue&quot;, sans-serif; font-size: 12px; font-weight: 200;" fill="rgb(50, 49, 63)" stroke="none" stroke-width="1px">-20k</text><text x="29.557291666666664" y="0" dx="0em" dy="0.95em" style="text-anchor: middle; visibility: inherit; font-family: &quot;Helvetica Neue&quot;, sans-serif; font-size: 12px; font-weight: 200;" fill="rgb(50, 49, 63)" stroke="none" stroke-width="1px">0</text><text x="59.11458333333333" y="0" dx="0em" dy="0.95em" style="text-anchor: middle; visibility: inherit; font-family: &quot;Helvetica Neue&quot;, sans-serif; font-size: 12px; font-weight: 200;" fill="rgb(50, 49, 63)" stroke="none" stroke-width="1px">20k</text><text x="88.671875" y="0" dx="0em" dy="0.95em" style="text-anchor: middle; visibility: inherit; font-family: &quot;Helvetica Neue&quot;, sans-serif; font-size: 12px; font-weight: 200;" fill="rgb(50, 49, 63)" stroke="none" stroke-width="1px">40k</text><text x="118.22916666666666" y="0" dx="0em" dy="0.95em" style="text-anchor: middle; visibility: inherit; font-family: &quot;Helvetica Neue&quot;, sans-serif; font-size: 12px; font-weight: 200;" fill="rgb(50, 49, 63)" stroke="none" stroke-width="1px">60k</text><text x="147.78645833333334" y="0" dx="0em" dy="0.95em" style="text-anchor: middle; visibility: inherit; font-family: &quot;Helvetica Neue&quot;, sans-serif; font-size: 12px; font-weight: 200;" fill="rgb(50, 49, 63)" stroke="none" stroke-width="1px">80k</text><text x="177.34375" y="0" dx="0em" dy="0.95em" style="text-anchor: middle; visibility: inherit; font-family: &quot;Helvetica Neue&quot;, sans-serif; font-size: 12px; font-weight: 200;" fill="rgb(50, 49, 63)" stroke="none" stroke-width="1px">100k</text><text x="206.90104166666666" y="0" dx="0em" dy="0.95em" style="text-anchor: middle; visibility: inherit; font-family: &quot;Helvetica Neue&quot;, sans-serif; font-size: 12px; font-weight: 200;" fill="rgb(50, 49, 63)" stroke="none" stroke-width="1px">120k</text><text x="236.45833333333331" y="0" dx="0em" dy="0.95em" style="text-anchor: middle; visibility: inherit; font-family: &quot;Helvetica Neue&quot;, sans-serif; font-size: 12px; font-weight: 200;" fill="rgb(50, 49, 63)" stroke="none" stroke-width="1px">140k</text><text x="266.015625" y="0" dx="0em" dy="0.95em" style="text-anchor: middle; visibility: hidden; font-family: &quot;Helvetica Neue&quot;, sans-serif; font-size: 12px; font-weight: 200;" fill="rgb(50, 49, 63)" stroke="none" stroke-width="1px">160k</text></g><line x1="0" y1="0" x2="266.015625" y2="0" fill="rgb(0, 0, 0)" stroke="rgb(204, 204, 204)" stroke-width="1px"></line></g></g></g></g></svg>