<svg viewBox="0 0 330 200" xmlns="http://www.w3.org/2000/svg"><g><g><g><g><g><line x1="53.1875" y1="177" x2="48.1875" y2="177" style="visibility: inherit;" fill="rgb(0, 0, 0)" stroke="rgb(204, 204, 204)" stroke-width="1px"></line><line x1="53.1875" y1="162.25" x2="48.1875" y2="162.25" style="visibility: inherit;" fill="rgb(0, 0, 0)" stroke="rgb(204, 204, 204)" stroke-width="1px"></line><line x1="53.1875" y1="147.5" x2="48.1875" y2="147.5" style="visibility: inherit;" fill="rgb(0, 0, 0)" stroke="rgb(204, 204, 204)" stroke-width="1px"></line><line x1="53.1875" y1="132.75" x2="48.1875" y2="132.75" style="visibility: inherit;" fill="rgb(0, 0, 0)" stroke="rgb(204, 204, 204)" stroke-width="1px"></line><line x1="53.1875" y1="118" x2="48.1875" y2="118" style="visibility: inherit;" fill="rgb(0, 0, 0)" stroke="rgb(204, 204, 204)" stroke-width="1px"></line><line x1="53.1875" y1="103.25" x2="48.1875" y2="103.25" style="visibility: inherit;" fill="rgb(0, 0, 0)" stroke="rgb(204, 204, 204)" stroke-width="1px"></line><line x1="53.1875" y1="88.5" x2="48.1875" y2="88.5" style="visibility: inherit;" fill="rgb(0, 0, 0)" stroke="rgb(204, 204, 204)" stroke-width="1px"></line><line x1="53.1875" y1="73.75" x2="48.1875" y2="73.75" style="visibility: inherit;" fill="rgb(0, 0, 0)" stroke="rgb(204, 204, 204)" stroke-width="1px"></line><line x1="53.1875" y1="58.999999999999986" x2="48.1875" y2="58.999999999999986" style="visibility: inherit;" fill="rgb(0, 0, 0)" stroke="rgb(204, 204, 204)" stroke-width="1px"></line><line x1="53.1875" y1="44.25" x2="48.1875" y2="44.25" style="visibility: inherit;" fill="rgb(0, 0, 0)" stroke="rgb(204, 204, 204)" stroke-width="1px"></line><line x1="53.1875" y1="29.5" x2="48.1875" y2="29.5" style="visibility: inherit;" fill="rgb(0, 0, 0)" stroke="rgb(204, 204, 204)" stroke-width="1px"></line><line x1="53.1875" y1="14.75" x2="48.1875" y2="14.75" style="visibility: inherit;" fill="rgb(0, 0, 0)" stroke="rgb(204, 204, 204)" stroke-width="1px"></line><line x1="53.1875" y1="0" x2="48.1875" y2="0" style="visibility: inherit;" fill="rgb(0, 0, 0)" stroke="rgb(204, 204, 204)" stroke-width="1px"></line></g><g transform="translate(43.1875, 0)"><text x="0" y="177" dx="0em" dy="0.3em" style="text-anchor: end; visibility: hidden; font-family: &quot;Helvetica Neue&quot;, sans-serif; font-size: 12px; font-weight: 200;" fill="rgb(50, 49, 63)" stroke="none" stroke-width="1px">-1.2</text><text x="0" y="162.25" dx="0em" dy="0.3em" style="text-anchor: end; visibility: inherit; font-family: &quot;Helvetica Neue&quot;, sans-serif; font-size: 12px; font-weight: 200;" fill="rgb(50, 49, 63)" stroke="none" stroke-width="1px">-1</text><text x="0" y="147.5" dx="0em" dy="0.3em" style="text-anchor: end; visibility: hidden; font-family: &quot;Helvetica Neue&quot;, sans-serif; font-size: 12px; font-weight: 200;" fill="rgb(50, 49, 63)" stroke="none" stroke-width="1px">-0.8</text><text x="0" y="132.75" dx="0em" dy="0.3em" style="text-anchor: end; visibility: inherit; font-family: &quot;Helvetica Neue&quot;, sans-serif; font-size: 12px; font-weight: 200;" fill="rgb(50, 49, 63)" stroke="none" stroke-width="1px">-0.6</text><text x="0" y="118" dx="0em" dy="0.3em" style="text-anchor: end; visibility: hidden; font-family: &quot;Helvetica Neue&quot;, sans-serif; font-size: 12px; font-weight: 200;" fill="rgb(50, 49, 63)" stroke="none" stroke-width="1px">-0.4</text><text x="0" y="103.25" dx="0em" dy="0.3em" style="text-anchor: end; visibility: inherit; font-family: &quot;Helvetica Neue&quot;, sans-serif; font-size: 12px; font-weight: 200;" fill="rgb(50, 49, 63)" stroke="none" stroke-width="1px">-0.2</text><text x="0" y="88.5" dx="0em" dy="0.3em" style="text-anchor: end; visibility: hidden; font-family: &quot;Helvetica Neue&quot;, sans-serif; font-size: 12px; font-weight: 200;" fill="rgb(50, 49, 63)" stroke="none" stroke-width="1px">0</text><text x="0" y="73.75" dx="0em" dy="0.3em" style="text-anchor: end; visibility: inherit; font-family: &quot;Helvetica Neue&quot;, sans-serif; font-size: 12px; font-weight: 200;" fill="rgb(50, 49, 63)" stroke="none" stroke-width="1px">0.2</text><text x="0" y="58.999999999999986" dx="0em" dy="0.3em" style="text-anchor: end; visibility: hidden; font-family: &quot;Helvetica Neue&quot;, sans-serif; font-size: 12px; font-weight: 200;" fill="rgb(50, 49, 63)" stroke="none" stroke-width="1px">0.4</text><text x="0" y="44.25" dx="0em" dy="0.3em" style="text-anchor: end; visibility: inherit; font-family: &quot;Helvetica Neue&quot;, sans-serif; font-size: 12px; font-weight: 200;" fill="rgb(50, 49, 63)" stroke="none" stroke-width="1px">0.6</text><text x="0" y="29.5" dx="0em" dy="0.3em" style="text-anchor: end; visibility: hidden; font-family: &quot;Helvetica Neue&quot;, sans-serif; font-size: 12px; font-weight: 200;" fill="rgb(50, 49, 63)" stroke="none" stroke-width="1px">0.8</text><text x="0" y="14.75" dx="0em" dy="0.3em" style="text-anchor: end; visibility: inherit; font-family: &quot;Helvetica Neue&quot;, sans-serif; font-size: 12px; font-weight: 200;" fill="rgb(50, 49, 63)" stroke="none" stroke-width="1px">1</text><text x="0" y="0" dx="0em" dy="0.3em" style="text-anchor: end; visibility: hidden; font-family: &quot;Helvetica Neue&quot;, sans-serif; font-size: 12px; font-weight: 200;" fill="rgb(50, 49, 63)" stroke="none" stroke-width="1px">1.2</text></g><line x1="53.1875" y1="0" x2="53.1875" y2="177" fill="rgb(0, 0, 0)" stroke="rgb(204, 204, 204)" stroke-width="1px"></line></g></g><g transform="translate(53, 0)" clip-path="url(#clip_0)"><clipPath id="clip_0"><rect width="276" height="177"></rect></clipPath><g><g><g><line x1="0" y1="0" x2="0" y2="177" fill="rgb(0, 0, 0)" stroke="rgb(60, 60, 60)" stroke-width="1px" opacity="0.25"></line><line x1="30.756944444444443" y1="0" x2="30.756944444444443" y2="177" fill="rgb(0, 0, 0)" stroke="rgb(60, 60, 60)" stroke-width="1px" opacity="0.25"></line><line x1="61.513888888888886" y1="0" x2="61.513888888888886" y2="177" fill="rgb(0, 0, 0)" stroke="rgb(60, 60, 60)" stroke-width="1px" opacity="0.25"></line><line x1="92.27083333333333" y1="0" x2="92.27083333333333" y2="177" fill="rgb(0, 0, 0)" stroke="rgb(60, 60, 60)" stroke-width="1px" opacity="0.25"></line><line x1="123.02777777777777" y1="0" x2="123.02777777777777" y2="177" fill="rgb(0, 0, 0)" stroke="rgb(60, 60, 60)" stroke-width="1px" opacity="0.25"></line><line x1="153.78472222222223" y1="0" x2="153.78472222222223" y2="177" fill="rgb(0, 0, 0)" stroke="rgb(60, 60, 60)" stroke-width="1px" opacity="0.25"></line><line x1="184.54166666666666" y1="0" x2="184.54166666666666" y2="177" fill="rgb(0, 0, 0)" stroke="rgb(60, 60, 60)" stroke-width="1px" opacity="0.25"></line><line x1="215.29861111111111" y1="0" x2="215.29861111111111" y2="177" fill="rgb(0, 0, 0)" stroke="rgb(60, 60, 60)" stroke-width="1px" opacity="0.25"></line><line x1="246.05555555555554" y1="0" x2="246.05555555555554" y2="177" fill="rgb(0, 0, 0)" stroke="rgb(60, 60, 60)" stroke-width="1px" opacity="0.25"></line><line x1="276.8125" y1="0" x2="276.8125" y2="177" fill="rgb(0, 0, 0)" stroke="rgb(60, 60, 60)" stroke-width="1px" opacity="0.25"></line></g><g><line x1="0" y1="177" x2="276.8125" y2="177" fill="rgb(0, 0, 0)" stroke="rgb(60, 60, 60)" stroke-width="1px" opacity="0.25"></line><line x1="0" y1="162.25" x2="276.8125" y2="162.25" fill="rgb(0, 0, 0)" stroke="rgb(60, 60, 60)" stroke-width="1px" opacity="0.25"></line><line x1="0" y1="147.5" x2="276.8125" y2="147.5" fill="rgb(0, 0, 0)" stroke="rgb(60, 60, 60)" stroke-width="1px" opacity="0.25"></line><line x1="0" y1="132.75" x2="276.8125" y2="132.75" fill="rgb(0, 0, 0)" stroke="rgb(60, 60, 60)" stroke-width="1px" opacity="0.25"></line><line x1="0" y1="118" x2="276.8125" y2="118" fill="rgb(0, 0, 0)" stroke="rgb(60, 60, 60)" stroke-width="1px" opacity="0.25"></line><line x1="0" y1="103.25" x2="276.8125" y2="103.25" fill="rgb(0, 0, 0)" stroke="rgb(60, 60, 60)" stroke-width="1px" opacity="0.25"></line><line x1="0" y1="88.5" x2="276.8125" y2="88.5" fill="rgb(0, 0, 0)" stroke="rgb(60, 60, 60)" stroke-width="1px" opacity="0.25"></line><line x1="0" y1="73.75" x2="276.8125" y2="73.75" fill="rgb(0, 0, 0)" stroke="rgb(60, 60, 60)" stroke-width="1px" opacity="0.25"></line><line x1="0" y1="58.999999999999986" x2="276.8125" y2="58.999999999999986" fill="rgb(0, 0, 0)" stroke="rgb(60, 60, 60)" stroke-width="1px" opacity="0.25"></line><line x1="0" y1="44.25" x2="276.8125" y2="44.25" fill="rgb(0, 0, 0)" stroke="rgb(60, 60, 60)" stroke-width="1px" opacity="0.25"></line><line x1="0" y1="29.5" x2="276.8125" y2="29.5" fill="rgb(0, 0, 0)" stroke="rgb(60, 60, 60)" stroke-width="1px" opacity="0.25"></line><line x1="0" y1="14.75" x2="276.8125" y2="14.75" fill="rgb(0, 0, 0)" stroke="rgb(60, 60, 60)" stroke-width="1px" opacity="0.25"></line><line x1="0" y1="0" x2="276.8125" y2="0" fill="rgb(0, 0, 0)" stroke="rgb(60, 60, 60)" stroke-width="1px" opacity="0.25"></line></g></g></g><g><g><line x1="0" y1="88.5" x2="276.8125" y2="88.5" fill="rgb(0, 0, 0)" stroke="rgb(153, 153, 153)" stroke-width="1.5px"></line></g></g><g><g><line x1="30.756944444444443" y1="0" x2="30.756944444444443" y2="177" fill="rgb(0, 0, 0)" stroke="rgb(153, 153, 153)" stroke-width="1.5px"></line></g></g><g><g><g><g><g><path stroke="rgb(255, 112, 67)" stroke-width="2px" d="M30.823071875,88.5L31.01530277777778,88.5L31.110649305555555,88.5L31.487421875000003,88.5L31.582768402777777,88.5L31.64889583333333,88.5L31.65966076388889,88.5L31.733477430555556,88.5L31.753469444444445,88.5L31.85650520833333,88.5L32.00106284722222,88.5L32.317859375000005,88.5L32.80843263888889,88.5L32.88840069444445,88.5L32.899165625,88.5L32.96683090277778,88.5L33.425109375,88.5L33.42972291666666,88.5L33.64502152777778,88.5L33.70653541666667,88.5L33.88953923611111,88.5L34.30629583333334,88.5L34.432399305555556,88.5L34.58003263888889,88.5L34.58157048611111,88.5L34.887602083333334,88.5L35.43046215277778,88.5L35.72572881944444,88.5L35.750334374999994,88.5L35.84106736111111,88.5L36.32241354166667,88.5L36.32548923611111,88.5L36.40238159722222,88.5L36.634596527777774,88.5L36.84220590277778,88.5L37.39736875,88.5L37.52501006944444,88.5L37.66649201388889,88.5L37.69263541666666,88.5L37.94945590277778,88.5L38.12169479166666,88.5L38.40312083333333,88.5L38.653789930555554,88.5L38.97827569444444,88.5L38.99980555555556,88.5L39.55958194444444,88.5L39.77641840277778,88.5L39.84254583333333,88.5L39.970187152777775,88.5L40.293135069444446,88.5L40.32235416666666,88.5L41.060520833333335,88.5L41.078975,88.5L41.29888715277777,88.5L41.471126041666665,88.5L41.76177916666667,88.5L42.23082256944445,88.5L42.23543611111111,88.5L42.75061493055555,88.5L42.804439583333334,88.5L43.16275798611111,88.5L43.33807256944445,88.5L43.401124305555555,88.5L43.827107986111116,88.5L43.84248645833333,88.5L43.98550625,88.5L44.411489930555554,88.5L44.49914722222223,88.5L44.99894756944444,88.5L45.31881979166667,88.5L45.45107465277778,88.5L45.471066666666665,88.5L45.672524652777774,88.5L46.75055555555556,88.5L46.873583333333336,88.5L46.93971076388889,88.5L47.07042777777778,88.5L47.33647534722222,88.5L47.524092708333335,88.5L47.52870625,88.5L47.62251493055555,88.5L47.70555868055556,88.5L47.83166215277778,88.5L48.49293645833333,88.5L48.54522326388889,88.5L48.72822708333334,88.5L48.84202777777777,88.5L49.16497569444444,88.5L49.17266493055556,88.5L49.46485590277778,88.5L49.658624652777775,88.5L50.56134097222222,88.5L50.80278298611111,88.5L50.84430486111111,88.5L51.66859097222222,88.5L51.70396145833333,88.5L51.996152430555554,88.5L52.62820763888889,88.5L52.74047048611111,88.5L52.80813576388889,88.5L52.97576111111111,88.5L53.26948993055555,88.5L53.31562534722222,88.5L53.486326388888884,88.5L53.630884027777775,88.5L54.55359236111111,88.5L54.60587916666667,88.5L55.00110590277778,88.5L55.542428125,88.5L55.85768680555555,88.5L56.68197291666667,88.5L57.003382986111106,88.5L57.05105625,88.5L57.38938263888889,88.5L57.42321527777777,88.5L57.73693611111111,88.5L57.758465972222226,88.5L59.13330138888889,88.5L60.155969791666664,88.5L60.23747569444445,88.5L60.794176388888886,88.5L60.96180173611111,88.5L60.983331597222225,88.5L61.10174583333333,88.5L61.507737500000005,88.5L61.596932638888894,88.5L61.61077326388889,88.5L61.72764965277778,88.5L61.890661458333334,88.5L61.90296423611111,88.5L62.012151388888896,88.5L62.192079513888885,88.5L62.34432638888889,88.5L62.40430243055555,88.5L62.713409722222224,88.5L62.71802326388889,88.5L62.830286111111114,88.5L63.176301736111114,88.5L63.27472395833333,88.5L63.410054513888895,88.5L63.543847222222226,88.5L63.857568055555554,88.5L64.35736840277778,88.5L64.96789375,88.5L65.09861076388889,88.5L65.14167048611111,88.5L66.34119131944445,88.5L66.35656979166667,88.5L66.42423506944444,88.5L66.46421909722221,88.5L66.56879270833333,88.5L66.68413125000001,88.5L66.78562916666667,88.5L66.95940590277777,88.5L67.15932604166667,88.5L67.17624236111111,88.5L67.20699930555556,88.5L67.57146909722222,88.5L67.89287916666666,88.5L68.10048854166666,88.5L68.10356423611111,88.5L68.16200243055556,88.5L68.62181875,88.5L68.77252777777778,88.5L68.78483055555556,88.5L69.05241597222222,88.5L69.10316493055555,88.5L69.59373819444444,88.5L69.71522812500001,88.5L69.80596111111112,88.5L70.45339479166667,88.5L70.50721944444444,88.5L70.62102013888888,88.5L71.20847777777777,88.5L71.96817430555555,88.5L71.96971215277777,88.5L72.51718576388889,88.5L72.52487500000001,88.5L73.05697013888889,88.5L73.20767916666667,88.5L73.26150381944444,88.5L73.54908125,88.5L73.68902534722221,88.5L74.49178159722221,88.5L74.65325555555555,88.5L75.30991631944444,88.5L75.34990034722222,88.5L75.45139826388889,88.5L75.66515902777778,88.5L75.76050555555555,88.5L76.08037777777778,88.5L76.10498333333332,88.5L76.2956763888889,88.5L76.63092708333333,88.5L76.90158819444444,88.5L76.94157222222222,88.5L77.161484375,88.5L77.396775,88.5L77.61668715277777,88.5L77.83506145833334,88.5L77.97961909722221,88.5L78.00114895833333,88.5L79.05611215277777,88.5L79.1130125,88.5L79.50208784722221,88.5L79.78505173611111,88.5L79.87117118055556,88.5L79.97574479166666,88.5L80.28792777777778,88.5L80.63855694444445,88.5L80.80310659722221,88.5L80.97995902777778,88.5L81.14143298611111,88.5L81.34442881944445,88.5L81.35673159722222,88.5L81.55972743055555,88.5L81.78579097222223,88.5L81.92419722222223,88.5L82.08413333333333,88.5L82.12719305555555,88.5L82.64083402777777,88.5L82.65928819444444,88.5L82.68850729166667,88.5L82.71465069444446,88.5L82.79769444444445,88.5L82.85459479166667,88.5L82.9114951388889,88.5L83.10065034722223,88.5L83.26212430555556,88.5L83.60198854166666,88.5L83.63428333333333,88.5L83.85265763888889,88.5L83.96645833333334,88.5L84.24942222222222,88.5L85.09523819444445,88.5L85.12753298611112,88.5L85.16290347222223,88.5L85.32591527777778,88.5L85.46432152777777,88.5L85.76881527777778,88.5L85.8887673611111,88.5L86.04870347222221,88.5L86.074846875,88.5L86.17788263888889,88.5L86.49929270833333,88.5L86.54389027777778,88.5L87.08828819444444,88.5L87.1344236111111,88.5L87.3005111111111,88.5L87.42815243055556,88.5L87.51580972222223,88.5L87.96947465277778,88.5L88.41083680555556,88.5L88.83374479166667,88.5L89.00598368055554,88.5L89.49194340277778,88.5L89.87179166666667,88.5L89.89639722222223,88.5L90.30392673611111,88.5L90.48846840277777,88.5L90.70530486111112,88.5L91.18972673611111,88.5L91.81409270833333,88.5L91.93558263888889,88.5L92.08475381944444,88.5L92.13242708333333,88.5L92.303128125,88.5L92.72757395833334,88.5L93.04129479166667,88.5L93.29196388888889,88.5L93.29811527777777,88.5L93.34886423611111,88.5L93.37962118055556,88.5L93.49188402777779,88.5L93.87173229166667,88.5L94.185453125,88.5L94.226975,88.5L94.33462430555555,88.5L94.63911805555556,88.5L94.66372361111111,88.5L95.55413715277778,88.5L96.04009687499999,88.5L96.067778125,88.5L96.39072604166667,88.5L97.68251770833334,88.5L97.81938611111111,88.5L97.86859722222222,88.5L97.97932222222222,88.5L98.02084409722222,88.5L98.0269954861111,88.5L98.1238798611111,88.5L98.41299513888889,88.5L98.53602291666667,88.5L98.7313295138889,88.5L98.74209444444443,88.5L98.80975972222222,88.5L98.891265625,88.5L99.67864340277778,88.5L99.90624479166667,88.5L100.43833993055556,88.5L100.45218055555556,88.5L100.53368645833334,88.5L100.74129583333334,88.5L100.97351076388888,88.5L101.98848993055555,88.5L102.01309548611111,88.5L102.13458541666667,88.5L102.26684027777779,88.5L103.50019375000001,88.5L103.93694236111112,88.5L104.01844826388889,88.5L104.06612152777778,88.5L104.12148402777778,88.5L104.18146006944444,88.5L104.39368298611112,88.5L104.49364305555555,88.5L104.52901354166666,88.5L104.69202534722223,88.5L104.85349930555556,88.5L104.92424027777778,88.5L105.37790520833333,88.5L105.8730920138889,88.5L106.53129062500001,88.5L106.65278055555557,88.5L106.84654930555556,88.5L107.66007048611111,88.5L107.73696284722223,88.5L107.87998263888889,88.5L107.90458819444444,88.5L107.9507236111111,88.5L108.06298645833334,88.5L108.61814930555556,88.5L108.91034027777778,88.5L109.15639583333333,88.5L109.39476215277779,88.5L109.53778194444445,88.5L109.62236354166667,88.5L110.41589270833333,88.5L110.42819548611111,88.5L110.655796875,88.5L110.72807569444444,88.5L111.17558923611111,88.5L111.26939791666668,88.5L111.51083993055556,88.5L111.77534965277778,88.5L112.11982743055556,88.5L112.17057638888889,88.5L112.4058670138889,88.5L112.42893472222222,88.5L112.98409756944444,88.5L113.35010520833333,88.5L113.36087013888888,88.5L113.36702152777778,88.5L113.37317291666668,88.5L113.590009375,88.5L113.65767465277777,88.5L113.91295729166666,88.5L113.96831979166667,88.5L113.9913875,88.5L114.17285347222223,88.5L114.86488472222223,88.5L115.04327500000001,88.5L115.24319513888888,88.5L115.3123982638889,88.5L115.63688402777777,88.5L115.79989583333334,88.5L116.17513055555555,88.5L116.18743333333333,88.5L116.43656458333334,88.5L116.51807048611111,88.5L117.39618125,88.5L117.65761527777778,88.5L117.6791451388889,88.5L117.81293784722223,88.5L118.0882125,88.5L118.13896145833334,88.5L118.41423611111111,88.5L118.87559027777779,88.5L118.88481736111112,88.5L119.16009201388889,88.5L119.58453784722222,88.5L120.40728611111112,88.5L120.63027395833333,88.5L120.80866423611111,88.5L120.93938125,88.5L121.05933333333334,88.5L121.10085520833333,88.5L121.12699861111112,88.5L121.89746006944443,88.5L121.9697388888889,88.5L122.15581840277777,88.5L122.475690625,88.5L122.52182604166667,88.5L123.30459027777778,88.5L123.3138173611111,88.5L123.34765,88.5L123.48605625,88.5L123.75979305555555,88.5L124.88242152777778,88.5L124.99160868055556,88.5L125.24073993055556,88.5L125.3883732638889,88.5L125.61289895833333,88.5L126.31877083333333,88.5L126.44179861111111,88.5L126.8985392361111,88.5L126.9462125,88.5L127.44908854166665,88.5L127.679765625,88.5L127.98118368055556,88.5L128.1934065972222,88.5L128.30105590277776,88.5L128.30259375,88.5L128.4317729166667,88.5L128.67475277777777,88.5L128.97309513888888,88.5L129.16225034722223,88.5L129.33141354166668,88.5L129.5267201388889,88.5L129.96654444444445,88.5L129.98192291666666,88.5L130.23720555555556,88.5L130.54785069444443,88.5L131.09532430555555,88.5L131.167603125,88.5L131.4105829861111,88.5L131.45825625,88.5L131.64279791666667,88.5L131.7073875,88.5L131.80888541666667,88.5L132.11337916666668,88.5L132.33175347222223,88.5L132.71467743055555,88.5L133.46668472222223,88.5L133.714278125,88.5L133.75733784722223,88.5L133.82654097222223,88.5L134.47089895833335,88.5L135.7365472222222,88.5L135.76422847222221,88.5L135.91339965277777,88.5L135.9918298611111,88.5L136.23942326388888,88.5L136.76075347222223,88.5L136.85148645833334,88.5L137.1329125,88.5L137.1544423611111,88.5L137.56966111111112,88.5L137.60195590277777,88.5L137.97565277777778,88.5L138.09714270833334,88.5L138.27707083333334,88.5L139.11827326388888,88.5L139.29973923611112,88.5L139.41661562500002,88.5L139.81491805555555,88.5L139.93948368055555,88.5L140.60383368055557,88.5L140.79760243055554,88.5L140.83758645833333,88.5L141.01597673611113,88.5L141.2528052083333,88.5L141.3389246527778,88.5L141.4173548611111,88.5L141.4511875,88.5L141.50193645833332,88.5L141.5403826388889,88.5L141.94022291666667,88.5L141.94329861111112,88.5L142.10015902777778,88.5L142.10477256944446,88.5L142.34160104166665,88.5L142.59534583333334,88.5L142.82602291666666,88.5L143.03517013888887,88.5L143.29660416666667,88.5L143.51036493055557,88.5L144.23469097222224,88.5L144.24238020833334,88.5L144.3146590277778,88.5L144.4069298611111,88.5L144.44230034722221,88.5L144.84675416666667,88.5L144.85751909722222,88.5L145.94477708333332,88.5L146.35999583333336,88.5L146.81827430555555,88.5L146.84595555555555,88.5L146.96898333333334,88.5L147.52414618055553,88.5L147.78711805555554,88.5L147.970121875,88.5L148.2976833333333,88.5L148.37611354166668,88.5L148.5975635416667,88.5L148.6698423611111,88.5L148.8497704861111,88.5L149.0281607638889,88.5L149.03892569444443,88.5L149.47721215277778,88.5L149.98777743055555,88.5L150.406071875,88.5L150.55831875,88.5L150.918175,88.5L151.03043784722223,88.5L151.1180951388889,88.5L151.90239722222222,88.5L152.00697083333336,88.5L152.12538506944443,88.5L152.14691493055557,88.5L152.20689097222223,88.5L152.25610208333333,88.5L152.8912329861111,88.5L153.1665076388889,88.5L153.7478138888889,88.5L153.83393333333333,88.5L153.84008472222223,88.5L153.94004479166668,88.5L154.0400048611111,88.5L154.38602048611114,88.5L154.41062604166666,88.5L154.63207604166666,88.5L154.67206006944446,88.5L154.72896041666664,88.5L155.31795590277778,88.5L155.34717500000002,88.5L155.50403541666665,88.5L155.91002708333335,88.5L156.08380381944446,88.5L156.13762847222222,88.5L156.78813784722223,88.5L157.99381006944446,88.5L158.046096875,88.5L158.16758680555554,88.5L158.51514027777776,88.5L158.59510833333331,88.5L158.81040694444442,88.5L159.18410381944446,88.5L159.57164131944444,88.5L159.8192347222222,88.5L160.19139375,88.5L160.24060486111114,88.5L160.56662847222222,88.5L160.86189513888888,88.5L160.99261215277778,88.5L161.1956079861111,88.5L161.506253125,88.5L161.5554642361111,88.5L161.61236458333332,88.5L161.7353923611111,88.5L161.96760729166667,88.5L162.25672256944446,88.5L162.30439583333333,88.5L162.35514479166667,88.5L162.530459375,88.5L162.62734375,88.5L162.99027569444442,88.5L163.0348732638889,88.5L164.21286423611113,88.5L164.23285625000003,88.5L164.34358125,88.5L164.56349340277777,88.5L165.15556458333333,88.5L165.243221875,88.5L165.40623368055554,88.5L165.50619375,88.5L165.575396875,88.5L165.82606597222224,88.5L166.29972291666667,88.5L167.125546875,88.5L167.34238333333334,88.5L168.02980104166667,88.5L168.16051805555554,88.5L168.18512361111112,88.5L168.77258125,88.5L168.79872465277776,88.5L168.9986447916667,88.5L169.12321041666667,88.5L169.21855694444446,88.5L169.52920208333336,88.5L169.85676354166668,88.5L170.81638020833333,88.5L170.84713715277778,88.5L171.16393368055554,88.5L171.43151909722224,88.5L171.66219618055555,88.5L171.692953125,88.5L171.69756666666666,88.5L171.82828368055553,88.5L171.83289722222221,88.5L172.38498437500002,88.5L172.42496840277778,88.5L173.3615173611111,88.5L173.45225034722222,88.5L173.97204270833333,88.5L174.1212138888889,88.5L174.5026,88.5L175.16387430555554,88.5L175.900503125,88.5L176.14040729166666,88.5L176.52179340277777,88.5L176.68634305555557,88.5L176.94162569444444,88.5L177.13693229166668,88.5L177.3476173611111,88.5L177.43373680555558,88.5L177.48294791666666,88.5L177.59213506944445,88.5L178.17651701388888,88.5L178.31338541666668,88.5L178.34875590277775,88.5L178.8547076388889,88.5L179.2145638888889,88.5L179.31452395833335,88.5L179.95734409722223,88.5L180.16956701388887,88.5L180.27721631944442,88.5L180.38486562499997,88.5L180.56940729166666,88.5L180.63707256944446,88.5L180.84621979166667,88.5L181.0707454861111,88.5L181.15378923611112,88.5L181.2768170138889,88.5L181.44598020833334,88.5L181.68127083333334,88.5L181.79353368055556,88.5L182.08880034722222,88.5L182.19644965277777,88.5L182.27180416666667,88.5L183.0899388888889,88.5L183.78350798611112,88.5L183.94651979166667,88.5L183.94959548611112,88.5L184.3648142361111,88.5L184.979953125,88.5L185.41362604166665,88.5L185.44899652777778,88.5L185.69812777777778,88.5L185.86267743055555,88.5L185.95341041666666,88.5L185.96725104166666,88.5L186.07643819444445,88.5L186.19177673611114,88.5L186.31941805555553,88.5L186.44090798611109,88.5L186.59623055555554,88.5L186.6269875,88.5L186.74386388888888,88.5L186.83152118055554,88.5L186.84843750000002,88.5L187.50048472222224,88.5L187.53124166666666,88.5L188.09101805555557,88.5L188.40166319444444,88.5L188.45087430555554,88.5L188.53391805555555,88.5L188.67232430555555,88.5L188.9722045138889,88.5L189.0198777777778,88.5L189.104459375,88.5L189.15828402777777,88.5L189.1736625,88.5L189.47354270833333,88.5L189.86723159722223,88.5L189.95181319444444,88.5L190.6130875,88.5L191.1190392361111,88.5L191.208234375,88.5L191.77723784722224,88.5L191.93717395833335,88.5L191.95870381944442,88.5L191.98792291666666,88.5L192.0509746527778,88.5L192.0725045138889,88.5L192.09557222222222,88.5L192.1155642361111,88.5L192.17554027777777,88.5L192.37546041666664,88.5L192.63997013888888,88.5L192.89986631944447,88.5L193.17052743055555,88.5L193.312009375,88.5L193.422734375,88.5L193.44426423611114,88.5L194.09323576388888,88.5L194.18089305555557,88.5L194.3700482638889,88.5L194.64070937500003,88.5L194.79449409722224,88.5L194.9528923611111,88.5L195.46653333333333,88.5L196.48305034722222,88.5L196.5445642361111,88.5L196.59531319444446,88.5L196.87827708333336,88.5L197.53647569444445,88.5L197.74716076388887,88.5L198.75598854166665,88.5L198.7575263888889,88.5L198.8467215277778,88.5L199.1542909722222,88.5L199.27578090277777,88.5L199.64793993055554,88.5L200.0185611111111,88.5L200.21540555555555,88.5L200.26615451388886,88.5L200.564496875,88.5L200.65676770833332,88.5L200.82285520833335,88.5L200.87821770833332,88.5L200.90743680555556,88.5L201.05507013888888,88.5L201.75786631944445,88.5L201.82091805555555,88.5L201.9562486111111,88.5L202.29765069444443,88.5L202.53294131944443,88.5L202.82359444444444,88.5L202.86665416666668,88.5L203.720159375,88.5L204.0185017361111,88.5L204.07847777777778,88.5L204.384509375,88.5L205.03040520833335,88.5L205.24724166666667,88.5L205.44101041666667,88.5L205.67476319444444,88.5L206.04230868055555,88.5L206.5221170138889,88.5L206.7789375,88.5L206.79124027777777,88.5L207.33410034722223,88.5L207.75854618055556,88.5L207.84005208333335,88.5L208.38906354166667,88.5L208.40751770833333,88.5L208.78736597222223,88.5L208.79813090277779,88.5L208.96114270833334,88.5L209.2087361111111,88.5L209.3471423611111,88.5L209.8454048611111,88.5L210.1083767361111,88.5L210.18373125,88.5L210.24216944444444,88.5L210.29445625000002,88.5L210.35289444444444,88.5L210.4128704861111,88.5L210.59126076388887,88.5L210.71121284722224,88.5L210.73274270833332,88.5L210.7588861111111,88.5L210.9249736111111,88.5L211.66314027777779,88.5L211.95533125,88.5L212.1337215277778,88.5L212.47204791666664,88.5L212.51664548611112,88.5L213.22559305555555,88.5L213.6208197916667,88.5L213.6654173611111,88.5L213.75922604166666,88.5L214.2267315972222,88.5L214.48508993055555,88.5L215.26785416666667,88.5L215.290921875,88.5L215.7476625,88.5L216.6134704861111,88.5L216.70574131944446,88.5L217.13326284722223,88.5L217.13480069444444,88.5L217.3055017361111,88.5L217.34856145833334,88.5L217.394696875,88.5L217.45774861111113,88.5L217.6361388888889,88.5L218.1220986111111,88.5L218.18668819444443,88.5L218.24205069444443,88.5L218.69110208333333,88.5L218.73877534722223,88.5L219.18936458333332,88.5L219.332384375,88.5L219.35083854166666,88.5L219.5123125,88.5L220.01826423611112,88.5L220.85023958333332,88.5L220.8871479166667,88.5L220.937896875,88.5L221.60993611111113,88.5L221.71143402777778,88.5L221.75449375000002,88.5L222.26967256944445,88.5L222.54494722222222,88.5L222.62030173611112,88.5L222.62491527777777,88.5L222.64183159722225,88.5L222.70949687499999,88.5L223.0555125,88.5L223.43536076388887,88.5L225.21003645833332,88.5L225.58373333333333,88.5L225.96511944444444,88.5L226.04662534722223,88.5L226.21425069444444,88.5L226.418784375,88.5L226.70174826388887,88.5L226.89859270833333,88.5L226.98009861111112,88.5L227.04468819444443,88.5L227.21231354166665,88.5L227.22307847222223,88.5L227.27228958333333,88.5L227.32150069444444,88.5L227.415309375,88.5L227.442990625,88.5L227.775165625,88.5L228.07043229166666,88.5L228.23036840277777,88.5L228.32571493055556,88.5L228.59330034722223,88.5L228.91317256944444,88.5L229.36529965277776,88.5L229.42681354166666,88.5L229.629809375,88.5L229.76513993055556,88.5L229.78359409722222,88.5L229.795896875,88.5L229.83895659722222,88.5L229.9127732638889,88.5L229.97890069444443,88.5L230.17420729166668,88.5L230.40796006944444,88.5L230.5632826388889,88.5L230.78780833333334,88.5L230.93236597222221,88.5L231.16458090277777,88.5L231.75972777777778,88.5L231.80586319444444,88.5L232.10266770833334,88.5L232.19493854166666,88.5L232.2333847222222,88.5L232.9715513888889,88.5L232.98846770833333,88.5L233.2622045138889,88.5L233.297575,88.5L233.3452482638889,88.5L233.56362256944445,88.5L233.58515243055555,88.5L234.53246631944444,88.5L234.7939003472222,88.5L235.16298368055556,88.5L235.1875892361111,88.5L235.3951986111111,88.5L235.60895937499998,88.5L235.7811982638889,88.5L236.05493506944444,88.5L236.10414618055557,88.5L236.21487118055555,88.5L236.61471145833335,88.5L236.840775,88.5L237.40824062500002,88.5L237.42823263888891,88.5L237.55894965277778,88.5L237.8219215277778,88.5L238.10488541666666,88.5L238.1402559027778,88.5L238.14794513888887,88.5L238.17870208333335,88.5L238.3417138888889,88.5L238.87073333333333,88.5L239.31363333333334,88.5L239.70886006944443,88.5L240.22711458333333,88.5L240.33630173611112,88.5L240.45625381944444,88.5L240.94067569444445,88.5L240.94836493055556,88.5L240.97143263888887,88.5L241.47892222222222,88.5L241.52813333333336,88.5L241.83108923611113,88.5L242.18479409722224,88.5L242.31243541666666,88.5L242.3416545138889,88.5L242.50005277777777,88.5L242.58771006944446,88.5L242.92911215277778,88.5L243.22130312500002,88.5L243.664203125,88.5L243.7072628472222,88.5L243.83951770833335,88.5L244.42543750000002,88.5L244.4592701388889,88.5L244.9160107638889,88.5L245.1389986111111,88.5L245.20973958333335,88.5L246.0186472222222,88.5L246.0801611111111,88.5L246.09246388888891,88.5L246.12629652777775,88.5L246.141675,88.5L246.2585513888889,88.5L246.31083819444444,88.5L246.4446309027778,88.5L246.49230416666666,88.5L247.21047881944443,88.5L247.48267777777778,88.5L247.57802430555554,88.5L247.93634270833334,88.5L247.94556979166668,88.5L248.90672430555557,88.5L248.96208680555557,88.5L249.1112579861111,88.5L249.4080625,88.5L249.43420590277776,88.5L249.43574375,88.5L249.89556006944446,88.5L249.95092256944443,88.5L250.2877111111111,88.5L250.50454756944444,88.5L250.9566746527778,88.5L251.19657881944445,88.5L251.41649097222222,88.5L251.54874583333333,88.5L251.56412430555554,88.5L251.78096076388888,88.5L251.8501638888889,88.5L251.88861006944444,88.5L252.08237881944444,88.5L252.190028125,88.5L252.44992430555556,88.5L252.5560357638889,88.5L252.64676874999998,88.5L252.82977256944443,88.5L253.020465625,88.5L253.05276041666667,88.5L254.1769267361111,88.5L254.68749201388889,88.5L254.70440833333333,88.5L254.8397388888889,88.5L254.89971493055555,88.5L254.96276666666668,88.5L255.17960312499997,88.5L255.76398506944446,88.5L255.89777777777778,88.5L256.3545184027778,88.5L257.2772267361111,88.5L257.36949756944443,88.5L257.38487604166664,88.5L257.57710694444444,88.5L258.45675555555556,88.5L258.65052430555556,88.5L258.80277118055557,88.5L259.0119184027778,88.5L259.1995357638889,88.5L259.2887309027778,88.5L259.3948423611111,88.5L259.40099375,88.5L259.5563163194444,88.5L259.6885711805555,88.5L259.7116388888889,88.5L260.577446875,88.5L260.75122361111113,88.5L260.94806805555555,88.5L260.97113576388887,88.5L261.07878506944445,88.5L261.26025104166666,88.5L261.33868125000004,88.5L261.44479270833335,88.5L261.45094409722225,88.5L262.2613895833333,88.5L262.2906086805556,88.5L262.4136364583333,88.5L262.6012538194444,88.5L262.7627277777778,88.5L263.03800243055554,88.5L263.0595322916667,88.5L263.11489479166664,88.5L263.17794652777775,88.5L263.3225041666667,88.5L263.39785868055554,88.5L263.4224642361111,88.5L263.5470298611111,88.5L263.67467118055555,88.5L263.80846388888887,88.5L263.83614513888887,88.5L264.04375451388887,88.5L264.2529017361111,88.5L264.8480486111111,88.5L264.9049489583333,88.5L265.3155541666667,88.5L265.6323506944444,88.5L265.68925104166664,88.5L266.90415034722224,88.5L267.0071861111111,88.5L267.10099479166666,88.5L267.2563173611111,88.5L267.3255204861111,88.5" style="fill: none;" fill="none"></path></g></g></g></g><g opacity="0.2"><g><g><g><path stroke="rgb(255, 112, 67)" stroke-width="2px" d="M30.823071875,88.5L31.01530277777778,88.5L31.110649305555555,88.5L31.487421875000003,88.5L31.582768402777777,88.5L31.64889583333333,88.5L31.65966076388889,88.5L31.733477430555556,88.5L31.753469444444445,88.5L31.85650520833333,88.5L32.00106284722222,88.5L32.317859375000005,88.5L32.80843263888889,88.5L32.88840069444445,88.5L32.899165625,88.5L32.96683090277778,88.5L33.425109375,88.5L33.42972291666666,88.5L33.64502152777778,88.5L33.70653541666667,88.5L33.88953923611111,88.5L34.30629583333334,88.5L34.432399305555556,88.5L34.58003263888889,88.5L34.58157048611111,88.5L34.887602083333334,88.5L35.43046215277778,88.5L35.72572881944444,88.5L35.750334374999994,88.5L35.84106736111111,88.5L36.32241354166667,88.5L36.32548923611111,88.5L36.40238159722222,88.5L36.634596527777774,88.5L36.84220590277778,88.5L37.39736875,88.5L37.52501006944444,88.5L37.66649201388889,88.5L37.69263541666666,88.5L37.94945590277778,88.5L38.12169479166666,88.5L38.40312083333333,88.5L38.653789930555554,88.5L38.97827569444444,88.5L38.99980555555556,88.5L39.55958194444444,88.5L39.77641840277778,88.5L39.84254583333333,88.5L39.970187152777775,88.5L40.293135069444446,88.5L40.32235416666666,88.5L41.060520833333335,88.5L41.078975,88.5L41.29888715277777,88.5L41.471126041666665,88.5L41.76177916666667,88.5L42.23082256944445,88.5L42.23543611111111,88.5L42.75061493055555,88.5L42.804439583333334,88.5L43.16275798611111,88.5L43.33807256944445,88.5L43.401124305555555,88.5L43.827107986111116,88.5L43.84248645833333,88.5L43.98550625,88.5L44.411489930555554,88.5L44.49914722222223,88.5L44.99894756944444,88.5L45.31881979166667,88.5L45.45107465277778,88.5L45.471066666666665,88.5L45.672524652777774,88.5L46.75055555555556,88.5L46.873583333333336,88.5L46.93971076388889,88.5L47.07042777777778,88.5L47.33647534722222,88.5L47.524092708333335,88.5L47.52870625,88.5L47.62251493055555,88.5L47.70555868055556,88.5L47.83166215277778,88.5L48.49293645833333,88.5L48.54522326388889,88.5L48.72822708333334,88.5L48.84202777777777,88.5L49.16497569444444,88.5L49.17266493055556,88.5L49.46485590277778,88.5L49.658624652777775,88.5L50.56134097222222,88.5L50.80278298611111,88.5L50.84430486111111,88.5L51.66859097222222,88.5L51.70396145833333,88.5L51.996152430555554,88.5L52.62820763888889,88.5L52.74047048611111,88.5L52.80813576388889,88.5L52.97576111111111,88.5L53.26948993055555,88.5L53.31562534722222,88.5L53.486326388888884,88.5L53.630884027777775,88.5L54.55359236111111,88.5L54.60587916666667,88.5L55.00110590277778,88.5L55.542428125,88.5L55.85768680555555,88.5L56.68197291666667,88.5L57.003382986111106,88.5L57.05105625,88.5L57.38938263888889,88.5L57.42321527777777,88.5L57.73693611111111,88.5L57.758465972222226,88.5L59.13330138888889,88.5L60.155969791666664,88.5L60.23747569444445,88.5L60.794176388888886,88.5L60.96180173611111,88.5L60.983331597222225,88.5L61.10174583333333,88.5L61.507737500000005,88.5L61.596932638888894,88.5L61.61077326388889,88.5L61.72764965277778,88.5L61.890661458333334,88.5L61.90296423611111,88.5L62.012151388888896,88.5L62.192079513888885,88.5L62.34432638888889,88.5L62.40430243055555,88.5L62.713409722222224,88.5L62.71802326388889,88.5L62.830286111111114,88.5L63.176301736111114,88.5L63.27472395833333,88.5L63.410054513888895,88.5L63.543847222222226,88.5L63.857568055555554,88.5L64.35736840277778,88.5L64.96789375,88.5L65.09861076388889,88.5L65.14167048611111,88.5L66.34119131944445,88.5L66.35656979166667,88.5L66.42423506944444,88.5L66.46421909722221,88.5L66.56879270833333,88.5L66.68413125000001,88.5L66.78562916666667,88.5L66.95940590277777,88.5L67.15932604166667,88.5L67.17624236111111,88.5L67.20699930555556,88.5L67.57146909722222,88.5L67.89287916666666,88.5L68.10048854166666,88.5L68.10356423611111,88.5L68.16200243055556,88.5L68.62181875,88.5L68.77252777777778,88.5L68.78483055555556,88.5L69.05241597222222,88.5L69.10316493055555,88.5L69.59373819444444,88.5L69.71522812500001,88.5L69.80596111111112,88.5L70.45339479166667,88.5L70.50721944444444,88.5L70.62102013888888,88.5L71.20847777777777,88.5L71.96817430555555,88.5L71.96971215277777,88.5L72.51718576388889,88.5L72.52487500000001,88.5L73.05697013888889,88.5L73.20767916666667,88.5L73.26150381944444,88.5L73.54908125,88.5L73.68902534722221,88.5L74.49178159722221,88.5L74.65325555555555,88.5L75.30991631944444,88.5L75.34990034722222,88.5L75.45139826388889,88.5L75.66515902777778,88.5L75.76050555555555,88.5L76.08037777777778,88.5L76.10498333333332,88.5L76.2956763888889,88.5L76.63092708333333,88.5L76.90158819444444,88.5L76.94157222222222,88.5L77.161484375,88.5L77.396775,88.5L77.61668715277777,88.5L77.83506145833334,88.5L77.97961909722221,88.5L78.00114895833333,88.5L79.05611215277777,88.5L79.1130125,88.5L79.50208784722221,88.5L79.78505173611111,88.5L79.87117118055556,88.5L79.97574479166666,88.5L80.28792777777778,88.5L80.63855694444445,88.5L80.80310659722221,88.5L80.97995902777778,88.5L81.14143298611111,88.5L81.34442881944445,88.5L81.35673159722222,88.5L81.55972743055555,88.5L81.78579097222223,88.5L81.92419722222223,88.5L82.08413333333333,88.5L82.12719305555555,88.5L82.64083402777777,88.5L82.65928819444444,88.5L82.68850729166667,88.5L82.71465069444446,88.5L82.79769444444445,88.5L82.85459479166667,88.5L82.9114951388889,88.5L83.10065034722223,88.5L83.26212430555556,88.5L83.60198854166666,88.5L83.63428333333333,88.5L83.85265763888889,88.5L83.96645833333334,88.5L84.24942222222222,88.5L85.09523819444445,88.5L85.12753298611112,88.5L85.16290347222223,88.5L85.32591527777778,88.5L85.46432152777777,88.5L85.76881527777778,88.5L85.8887673611111,88.5L86.04870347222221,88.5L86.074846875,88.5L86.17788263888889,88.5L86.49929270833333,88.5L86.54389027777778,88.5L87.08828819444444,88.5L87.1344236111111,88.5L87.3005111111111,88.5L87.42815243055556,88.5L87.51580972222223,88.5L87.96947465277778,88.5L88.41083680555556,88.5L88.83374479166667,88.5L89.00598368055554,88.5L89.49194340277778,88.5L89.87179166666667,88.5L89.89639722222223,88.5L90.30392673611111,88.5L90.48846840277777,88.5L90.70530486111112,88.5L91.18972673611111,88.5L91.81409270833333,88.5L91.93558263888889,88.5L92.08475381944444,88.5L92.13242708333333,88.5L92.303128125,88.5L92.72757395833334,88.5L93.04129479166667,88.5L93.29196388888889,88.5L93.29811527777777,88.5L93.34886423611111,88.5L93.37962118055556,88.5L93.49188402777779,88.5L93.87173229166667,88.5L94.185453125,88.5L94.226975,88.5L94.33462430555555,88.5L94.63911805555556,88.5L94.66372361111111,88.5L95.55413715277778,88.5L96.04009687499999,88.5L96.067778125,88.5L96.39072604166667,88.5L97.68251770833334,88.5L97.81938611111111,88.5L97.86859722222222,88.5L97.97932222222222,88.5L98.02084409722222,88.5L98.0269954861111,88.5L98.1238798611111,88.5L98.41299513888889,88.5L98.53602291666667,88.5L98.7313295138889,88.5L98.74209444444443,88.5L98.80975972222222,88.5L98.891265625,88.5L99.67864340277778,88.5L99.90624479166667,88.5L100.43833993055556,88.5L100.45218055555556,88.5L100.53368645833334,88.5L100.74129583333334,88.5L100.97351076388888,88.5L101.98848993055555,88.5L102.01309548611111,88.5L102.13458541666667,88.5L102.26684027777779,88.5L103.50019375000001,88.5L103.93694236111112,88.5L104.01844826388889,88.5L104.06612152777778,88.5L104.12148402777778,88.5L104.18146006944444,88.5L104.39368298611112,88.5L104.49364305555555,88.5L104.52901354166666,88.5L104.69202534722223,88.5L104.85349930555556,88.5L104.92424027777778,88.5L105.37790520833333,88.5L105.8730920138889,88.5L106.53129062500001,88.5L106.65278055555557,88.5L106.84654930555556,88.5L107.66007048611111,88.5L107.73696284722223,88.5L107.87998263888889,88.5L107.90458819444444,88.5L107.9507236111111,88.5L108.06298645833334,88.5L108.61814930555556,88.5L108.91034027777778,88.5L109.15639583333333,88.5L109.39476215277779,88.5L109.53778194444445,88.5L109.62236354166667,88.5L110.41589270833333,88.5L110.42819548611111,88.5L110.655796875,88.5L110.72807569444444,88.5L111.17558923611111,88.5L111.26939791666668,88.5L111.51083993055556,88.5L111.77534965277778,88.5L112.11982743055556,88.5L112.17057638888889,88.5L112.4058670138889,88.5L112.42893472222222,88.5L112.98409756944444,88.5L113.35010520833333,88.5L113.36087013888888,88.5L113.36702152777778,88.5L113.37317291666668,88.5L113.590009375,88.5L113.65767465277777,88.5L113.91295729166666,88.5L113.96831979166667,88.5L113.9913875,88.5L114.17285347222223,88.5L114.86488472222223,88.5L115.04327500000001,88.5L115.24319513888888,88.5L115.3123982638889,88.5L115.63688402777777,88.5L115.79989583333334,88.5L116.17513055555555,88.5L116.18743333333333,88.5L116.43656458333334,88.5L116.51807048611111,88.5L117.39618125,88.5L117.65761527777778,88.5L117.6791451388889,88.5L117.81293784722223,88.5L118.0882125,88.5L118.13896145833334,88.5L118.41423611111111,88.5L118.87559027777779,88.5L118.88481736111112,88.5L119.16009201388889,88.5L119.58453784722222,88.5L120.40728611111112,88.5L120.63027395833333,88.5L120.80866423611111,88.5L120.93938125,88.5L121.05933333333334,88.5L121.10085520833333,88.5L121.12699861111112,88.5L121.89746006944443,88.5L121.9697388888889,88.5L122.15581840277777,88.5L122.475690625,88.5L122.52182604166667,88.5L123.30459027777778,88.5L123.3138173611111,88.5L123.34765,88.5L123.48605625,88.5L123.75979305555555,88.5L124.88242152777778,88.5L124.99160868055556,88.5L125.24073993055556,88.5L125.3883732638889,88.5L125.61289895833333,88.5L126.31877083333333,88.5L126.44179861111111,88.5L126.8985392361111,88.5L126.9462125,88.5L127.44908854166665,88.5L127.679765625,88.5L127.98118368055556,88.5L128.1934065972222,88.5L128.30105590277776,88.5L128.30259375,88.5L128.4317729166667,88.5L128.67475277777777,88.5L128.97309513888888,88.5L129.16225034722223,88.5L129.33141354166668,88.5L129.5267201388889,88.5L129.96654444444445,88.5L129.98192291666666,88.5L130.23720555555556,88.5L130.54785069444443,88.5L131.09532430555555,88.5L131.167603125,88.5L131.4105829861111,88.5L131.45825625,88.5L131.64279791666667,88.5L131.7073875,88.5L131.80888541666667,88.5L132.11337916666668,88.5L132.33175347222223,88.5L132.71467743055555,88.5L133.46668472222223,88.5L133.714278125,88.5L133.75733784722223,88.5L133.82654097222223,88.5L134.47089895833335,88.5L135.7365472222222,88.5L135.76422847222221,88.5L135.91339965277777,88.5L135.9918298611111,88.5L136.23942326388888,88.5L136.76075347222223,88.5L136.85148645833334,88.5L137.1329125,88.5L137.1544423611111,88.5L137.56966111111112,88.5L137.60195590277777,88.5L137.97565277777778,88.5L138.09714270833334,88.5L138.27707083333334,88.5L139.11827326388888,88.5L139.29973923611112,88.5L139.41661562500002,88.5L139.81491805555555,88.5L139.93948368055555,88.5L140.60383368055557,88.5L140.79760243055554,88.5L140.83758645833333,88.5L141.01597673611113,88.5L141.2528052083333,88.5L141.3389246527778,88.5L141.4173548611111,88.5L141.4511875,88.5L141.50193645833332,88.5L141.5403826388889,88.5L141.94022291666667,88.5L141.94329861111112,88.5L142.10015902777778,88.5L142.10477256944446,88.5L142.34160104166665,88.5L142.59534583333334,88.5L142.82602291666666,88.5L143.03517013888887,88.5L143.29660416666667,88.5L143.51036493055557,88.5L144.23469097222224,88.5L144.24238020833334,88.5L144.3146590277778,88.5L144.4069298611111,88.5L144.44230034722221,88.5L144.84675416666667,88.5L144.85751909722222,88.5L145.94477708333332,88.5L146.35999583333336,88.5L146.81827430555555,88.5L146.84595555555555,88.5L146.96898333333334,88.5L147.52414618055553,88.5L147.78711805555554,88.5L147.970121875,88.5L148.2976833333333,88.5L148.37611354166668,88.5L148.5975635416667,88.5L148.6698423611111,88.5L148.8497704861111,88.5L149.0281607638889,88.5L149.03892569444443,88.5L149.47721215277778,88.5L149.98777743055555,88.5L150.406071875,88.5L150.55831875,88.5L150.918175,88.5L151.03043784722223,88.5L151.1180951388889,88.5L151.90239722222222,88.5L152.00697083333336,88.5L152.12538506944443,88.5L152.14691493055557,88.5L152.20689097222223,88.5L152.25610208333333,88.5L152.8912329861111,88.5L153.1665076388889,88.5L153.7478138888889,88.5L153.83393333333333,88.5L153.84008472222223,88.5L153.94004479166668,88.5L154.0400048611111,88.5L154.38602048611114,88.5L154.41062604166666,88.5L154.63207604166666,88.5L154.67206006944446,88.5L154.72896041666664,88.5L155.31795590277778,88.5L155.34717500000002,88.5L155.50403541666665,88.5L155.91002708333335,88.5L156.08380381944446,88.5L156.13762847222222,88.5L156.78813784722223,88.5L157.99381006944446,88.5L158.046096875,88.5L158.16758680555554,88.5L158.51514027777776,88.5L158.59510833333331,88.5L158.81040694444442,88.5L159.18410381944446,88.5L159.57164131944444,88.5L159.8192347222222,88.5L160.19139375,88.5L160.24060486111114,88.5L160.56662847222222,88.5L160.86189513888888,88.5L160.99261215277778,88.5L161.1956079861111,88.5L161.506253125,88.5L161.5554642361111,88.5L161.61236458333332,88.5L161.7353923611111,88.5L161.96760729166667,88.5L162.25672256944446,88.5L162.30439583333333,88.5L162.35514479166667,88.5L162.530459375,88.5L162.62734375,88.5L162.99027569444442,88.5L163.0348732638889,88.5L164.21286423611113,88.5L164.23285625000003,88.5L164.34358125,88.5L164.56349340277777,88.5L165.15556458333333,88.5L165.243221875,88.5L165.40623368055554,88.5L165.50619375,88.5L165.575396875,88.5L165.82606597222224,88.5L166.29972291666667,88.5L167.125546875,88.5L167.34238333333334,88.5L168.02980104166667,88.5L168.16051805555554,88.5L168.18512361111112,88.5L168.77258125,88.5L168.79872465277776,88.5L168.9986447916667,88.5L169.12321041666667,88.5L169.21855694444446,88.5L169.52920208333336,88.5L169.85676354166668,88.5L170.81638020833333,88.5L170.84713715277778,88.5L171.16393368055554,88.5L171.43151909722224,88.5L171.66219618055555,88.5L171.692953125,88.5L171.69756666666666,88.5L171.82828368055553,88.5L171.83289722222221,88.5L172.38498437500002,88.5L172.42496840277778,88.5L173.3615173611111,88.5L173.45225034722222,88.5L173.97204270833333,88.5L174.1212138888889,88.5L174.5026,88.5L175.16387430555554,88.5L175.900503125,88.5L176.14040729166666,88.5L176.52179340277777,88.5L176.68634305555557,88.5L176.94162569444444,88.5L177.13693229166668,88.5L177.3476173611111,88.5L177.43373680555558,88.5L177.48294791666666,88.5L177.59213506944445,88.5L178.17651701388888,88.5L178.31338541666668,88.5L178.34875590277775,88.5L178.8547076388889,88.5L179.2145638888889,88.5L179.31452395833335,88.5L179.95734409722223,88.5L180.16956701388887,88.5L180.27721631944442,88.5L180.38486562499997,88.5L180.56940729166666,88.5L180.63707256944446,88.5L180.84621979166667,88.5L181.0707454861111,88.5L181.15378923611112,88.5L181.2768170138889,88.5L181.44598020833334,88.5L181.68127083333334,88.5L181.79353368055556,88.5L182.08880034722222,88.5L182.19644965277777,88.5L182.27180416666667,88.5L183.0899388888889,88.5L183.78350798611112,88.5L183.94651979166667,88.5L183.94959548611112,88.5L184.3648142361111,88.5L184.979953125,88.5L185.41362604166665,88.5L185.44899652777778,88.5L185.69812777777778,88.5L185.86267743055555,88.5L185.95341041666666,88.5L185.96725104166666,88.5L186.07643819444445,88.5L186.19177673611114,88.5L186.31941805555553,88.5L186.44090798611109,88.5L186.59623055555554,88.5L186.6269875,88.5L186.74386388888888,88.5L186.83152118055554,88.5L186.84843750000002,88.5L187.50048472222224,88.5L187.53124166666666,88.5L188.09101805555557,88.5L188.40166319444444,88.5L188.45087430555554,88.5L188.53391805555555,88.5L188.67232430555555,88.5L188.9722045138889,88.5L189.0198777777778,88.5L189.104459375,88.5L189.15828402777777,88.5L189.1736625,88.5L189.47354270833333,88.5L189.86723159722223,88.5L189.95181319444444,88.5L190.6130875,88.5L191.1190392361111,88.5L191.208234375,88.5L191.77723784722224,88.5L191.93717395833335,88.5L191.95870381944442,88.5L191.98792291666666,88.5L192.0509746527778,88.5L192.0725045138889,88.5L192.09557222222222,88.5L192.1155642361111,88.5L192.17554027777777,88.5L192.37546041666664,88.5L192.63997013888888,88.5L192.89986631944447,88.5L193.17052743055555,88.5L193.312009375,88.5L193.422734375,88.5L193.44426423611114,88.5L194.09323576388888,88.5L194.18089305555557,88.5L194.3700482638889,88.5L194.64070937500003,88.5L194.79449409722224,88.5L194.9528923611111,88.5L195.46653333333333,88.5L196.48305034722222,88.5L196.5445642361111,88.5L196.59531319444446,88.5L196.87827708333336,88.5L197.53647569444445,88.5L197.74716076388887,88.5L198.75598854166665,88.5L198.7575263888889,88.5L198.8467215277778,88.5L199.1542909722222,88.5L199.27578090277777,88.5L199.64793993055554,88.5L200.0185611111111,88.5L200.21540555555555,88.5L200.26615451388886,88.5L200.564496875,88.5L200.65676770833332,88.5L200.82285520833335,88.5L200.87821770833332,88.5L200.90743680555556,88.5L201.05507013888888,88.5L201.75786631944445,88.5L201.82091805555555,88.5L201.9562486111111,88.5L202.29765069444443,88.5L202.53294131944443,88.5L202.82359444444444,88.5L202.86665416666668,88.5L203.720159375,88.5L204.0185017361111,88.5L204.07847777777778,88.5L204.384509375,88.5L205.03040520833335,88.5L205.24724166666667,88.5L205.44101041666667,88.5L205.67476319444444,88.5L206.04230868055555,88.5L206.5221170138889,88.5L206.7789375,88.5L206.79124027777777,88.5L207.33410034722223,88.5L207.75854618055556,88.5L207.84005208333335,88.5L208.38906354166667,88.5L208.40751770833333,88.5L208.78736597222223,88.5L208.79813090277779,88.5L208.96114270833334,88.5L209.2087361111111,88.5L209.3471423611111,88.5L209.8454048611111,88.5L210.1083767361111,88.5L210.18373125,88.5L210.24216944444444,88.5L210.29445625000002,88.5L210.35289444444444,88.5L210.4128704861111,88.5L210.59126076388887,88.5L210.71121284722224,88.5L210.73274270833332,88.5L210.7588861111111,88.5L210.9249736111111,88.5L211.66314027777779,88.5L211.95533125,88.5L212.1337215277778,88.5L212.47204791666664,88.5L212.51664548611112,88.5L213.22559305555555,88.5L213.6208197916667,88.5L213.6654173611111,88.5L213.75922604166666,88.5L214.2267315972222,88.5L214.48508993055555,88.5L215.26785416666667,88.5L215.290921875,88.5L215.7476625,88.5L216.6134704861111,88.5L216.70574131944446,88.5L217.13326284722223,88.5L217.13480069444444,88.5L217.3055017361111,88.5L217.34856145833334,88.5L217.394696875,88.5L217.45774861111113,88.5L217.6361388888889,88.5L218.1220986111111,88.5L218.18668819444443,88.5L218.24205069444443,88.5L218.69110208333333,88.5L218.73877534722223,88.5L219.18936458333332,88.5L219.332384375,88.5L219.35083854166666,88.5L219.5123125,88.5L220.01826423611112,88.5L220.85023958333332,88.5L220.8871479166667,88.5L220.937896875,88.5L221.60993611111113,88.5L221.71143402777778,88.5L221.75449375000002,88.5L222.26967256944445,88.5L222.54494722222222,88.5L222.62030173611112,88.5L222.62491527777777,88.5L222.64183159722225,88.5L222.70949687499999,88.5L223.0555125,88.5L223.43536076388887,88.5L225.21003645833332,88.5L225.58373333333333,88.5L225.96511944444444,88.5L226.04662534722223,88.5L226.21425069444444,88.5L226.418784375,88.5L226.70174826388887,88.5L226.89859270833333,88.5L226.98009861111112,88.5L227.04468819444443,88.5L227.21231354166665,88.5L227.22307847222223,88.5L227.27228958333333,88.5L227.32150069444444,88.5L227.415309375,88.5L227.442990625,88.5L227.775165625,88.5L228.07043229166666,88.5L228.23036840277777,88.5L228.32571493055556,88.5L228.59330034722223,88.5L228.91317256944444,88.5L229.36529965277776,88.5L229.42681354166666,88.5L229.629809375,88.5L229.76513993055556,88.5L229.78359409722222,88.5L229.795896875,88.5L229.83895659722222,88.5L229.9127732638889,88.5L229.97890069444443,88.5L230.17420729166668,88.5L230.40796006944444,88.5L230.5632826388889,88.5L230.78780833333334,88.5L230.93236597222221,88.5L231.16458090277777,88.5L231.75972777777778,88.5L231.80586319444444,88.5L232.10266770833334,88.5L232.19493854166666,88.5L232.2333847222222,88.5L232.9715513888889,88.5L232.98846770833333,88.5L233.2622045138889,88.5L233.297575,88.5L233.3452482638889,88.5L233.56362256944445,88.5L233.58515243055555,88.5L234.53246631944444,88.5L234.7939003472222,88.5L235.16298368055556,88.5L235.1875892361111,88.5L235.3951986111111,88.5L235.60895937499998,88.5L235.7811982638889,88.5L236.05493506944444,88.5L236.10414618055557,88.5L236.21487118055555,88.5L236.61471145833335,88.5L236.840775,88.5L237.40824062500002,88.5L237.42823263888891,88.5L237.55894965277778,88.5L237.8219215277778,88.5L238.10488541666666,88.5L238.1402559027778,88.5L238.14794513888887,88.5L238.17870208333335,88.5L238.3417138888889,88.5L238.87073333333333,88.5L239.31363333333334,88.5L239.70886006944443,88.5L240.22711458333333,88.5L240.33630173611112,88.5L240.45625381944444,88.5L240.94067569444445,88.5L240.94836493055556,88.5L240.97143263888887,88.5L241.47892222222222,88.5L241.52813333333336,88.5L241.83108923611113,88.5L242.18479409722224,88.5L242.31243541666666,88.5L242.3416545138889,88.5L242.50005277777777,88.5L242.58771006944446,88.5L242.92911215277778,88.5L243.22130312500002,88.5L243.664203125,88.5L243.7072628472222,88.5L243.83951770833335,88.5L244.42543750000002,88.5L244.4592701388889,88.5L244.9160107638889,88.5L245.1389986111111,88.5L245.20973958333335,88.5L246.0186472222222,88.5L246.0801611111111,88.5L246.09246388888891,88.5L246.12629652777775,88.5L246.141675,88.5L246.2585513888889,88.5L246.31083819444444,88.5L246.4446309027778,88.5L246.49230416666666,88.5L247.21047881944443,88.5L247.48267777777778,88.5L247.57802430555554,88.5L247.93634270833334,88.5L247.94556979166668,88.5L248.90672430555557,88.5L248.96208680555557,88.5L249.1112579861111,88.5L249.4080625,88.5L249.43420590277776,88.5L249.43574375,88.5L249.89556006944446,88.5L249.95092256944443,88.5L250.2877111111111,88.5L250.50454756944444,88.5L250.9566746527778,88.5L251.19657881944445,88.5L251.41649097222222,88.5L251.54874583333333,88.5L251.56412430555554,88.5L251.78096076388888,88.5L251.8501638888889,88.5L251.88861006944444,88.5L252.08237881944444,88.5L252.190028125,88.5L252.44992430555556,88.5L252.5560357638889,88.5L252.64676874999998,88.5L252.82977256944443,88.5L253.020465625,88.5L253.05276041666667,88.5L254.1769267361111,88.5L254.68749201388889,88.5L254.70440833333333,88.5L254.8397388888889,88.5L254.89971493055555,88.5L254.96276666666668,88.5L255.17960312499997,88.5L255.76398506944446,88.5L255.89777777777778,88.5L256.3545184027778,88.5L257.2772267361111,88.5L257.36949756944443,88.5L257.38487604166664,88.5L257.57710694444444,88.5L258.45675555555556,88.5L258.65052430555556,88.5L258.80277118055557,88.5L259.0119184027778,88.5L259.1995357638889,88.5L259.2887309027778,88.5L259.3948423611111,88.5L259.40099375,88.5L259.5563163194444,88.5L259.6885711805555,88.5L259.7116388888889,88.5L260.577446875,88.5L260.75122361111113,88.5L260.94806805555555,88.5L260.97113576388887,88.5L261.07878506944445,88.5L261.26025104166666,88.5L261.33868125000004,88.5L261.44479270833335,88.5L261.45094409722225,88.5L262.2613895833333,88.5L262.2906086805556,88.5L262.4136364583333,88.5L262.6012538194444,88.5L262.7627277777778,88.5L263.03800243055554,88.5L263.0595322916667,88.5L263.11489479166664,88.5L263.17794652777775,88.5L263.3225041666667,88.5L263.39785868055554,88.5L263.4224642361111,88.5L263.5470298611111,88.5L263.67467118055555,88.5L263.80846388888887,88.5L263.83614513888887,88.5L264.04375451388887,88.5L264.2529017361111,88.5L264.8480486111111,88.5L264.9049489583333,88.5L265.3155541666667,88.5L265.6323506944444,88.5L265.68925104166664,88.5L266.90415034722224,88.5L267.0071861111111,88.5L267.10099479166666,88.5L267.2563173611111,88.5L267.3255204861111,88.5" style="fill: none;" fill="none"></path></g></g></g></g></g></g><g transform="translate(53, 177)" clip-path="url(#clip_1)"><clipPath id="clip_1"><rect width="276" height="23"></rect></clipPath><g><g><line x1="0" y1="0" x2="0" y2="5" style="visibility: inherit;" fill="rgb(0, 0, 0)" stroke="rgb(204, 204, 204)" stroke-width="1px"></line><line x1="30.756944444444443" y1="0" x2="30.756944444444443" y2="5" style="visibility: inherit;" fill="rgb(0, 0, 0)" stroke="rgb(204, 204, 204)" stroke-width="1px"></line><line x1="61.513888888888886" y1="0" x2="61.513888888888886" y2="5" style="visibility: inherit;" fill="rgb(0, 0, 0)" stroke="rgb(204, 204, 204)" stroke-width="1px"></line><line x1="92.27083333333333" y1="0" x2="92.27083333333333" y2="5" style="visibility: inherit;" fill="rgb(0, 0, 0)" stroke="rgb(204, 204, 204)" stroke-width="1px"></line><line x1="123.02777777777777" y1="0" x2="123.02777777777777" y2="5" style="visibility: inherit;" fill="rgb(0, 0, 0)" stroke="rgb(204, 204, 204)" stroke-width="1px"></line><line x1="153.78472222222223" y1="0" x2="153.78472222222223" y2="5" style="visibility: inherit;" fill="rgb(0, 0, 0)" stroke="rgb(204, 204, 204)" stroke-width="1px"></line><line x1="184.54166666666666" y1="0" x2="184.54166666666666" y2="5" style="visibility: inherit;" fill="rgb(0, 0, 0)" stroke="rgb(204, 204, 204)" stroke-width="1px"></line><line x1="215.29861111111111" y1="0" x2="215.29861111111111" y2="5" style="visibility: inherit;" fill="rgb(0, 0, 0)" stroke="rgb(204, 204, 204)" stroke-width="1px"></line><line x1="246.05555555555554" y1="0" x2="246.05555555555554" y2="5" style="visibility: inherit;" fill="rgb(0, 0, 0)" stroke="rgb(204, 204, 204)" stroke-width="1px"></line><line x1="276.8125" y1="0" x2="276.8125" y2="5" style="visibility: inherit;" fill="rgb(0, 0, 0)" stroke="rgb(204, 204, 204)" stroke-width="1px"></line></g><g transform="translate(0, 8)"><text x="0" y="0" dx="0em" dy="0.95em" style="text-anchor: middle; visibility: hidden; font-family: &quot;Helvetica Neue&quot;, sans-serif; font-size: 12px; font-weight: 200;" fill="rgb(50, 49, 63)" stroke="none" stroke-width="1px">-20k</text><text x="30.756944444444443" y="0" dx="0em" dy="0.95em" style="text-anchor: middle; visibility: inherit; font-family: &quot;Helvetica Neue&quot;, sans-serif; font-size: 12px; font-weight: 200;" fill="rgb(50, 49, 63)" stroke="none" stroke-width="1px">0</text><text x="61.513888888888886" y="0" dx="0em" dy="0.95em" style="text-anchor: middle; visibility: inherit; font-family: &quot;Helvetica Neue&quot;, sans-serif; font-size: 12px; font-weight: 200;" fill="rgb(50, 49, 63)" stroke="none" stroke-width="1px">20k</text><text x="92.27083333333333" y="0" dx="0em" dy="0.95em" style="text-anchor: middle; visibility: inherit; font-family: &quot;Helvetica Neue&quot;, sans-serif; font-size: 12px; font-weight: 200;" fill="rgb(50, 49, 63)" stroke="none" stroke-width="1px">40k</text><text x="123.02777777777777" y="0" dx="0em" dy="0.95em" style="text-anchor: middle; visibility: inherit; font-family: &quot;Helvetica Neue&quot;, sans-serif; font-size: 12px; font-weight: 200;" fill="rgb(50, 49, 63)" stroke="none" stroke-width="1px">60k</text><text x="153.78472222222223" y="0" dx="0em" dy="0.95em" style="text-anchor: middle; visibility: inherit; font-family: &quot;Helvetica Neue&quot;, sans-serif; font-size: 12px; font-weight: 200;" fill="rgb(50, 49, 63)" stroke="none" stroke-width="1px">80k</text><text x="184.54166666666666" y="0" dx="0em" dy="0.95em" style="text-anchor: middle; visibility: inherit; font-family: &quot;Helvetica Neue&quot;, sans-serif; font-size: 12px; font-weight: 200;" fill="rgb(50, 49, 63)" stroke="none" stroke-width="1px">100k</text><text x="215.29861111111111" y="0" dx="0em" dy="0.95em" style="text-anchor: middle; visibility: inherit; font-family: &quot;Helvetica Neue&quot;, sans-serif; font-size: 12px; font-weight: 200;" fill="rgb(50, 49, 63)" stroke="none" stroke-width="1px">120k</text><text x="246.05555555555554" y="0" dx="0em" dy="0.95em" style="text-anchor: middle; visibility: inherit; font-family: &quot;Helvetica Neue&quot;, sans-serif; font-size: 12px; font-weight: 200;" fill="rgb(50, 49, 63)" stroke="none" stroke-width="1px">140k</text><text x="276.8125" y="0" dx="0em" dy="0.95em" style="text-anchor: middle; visibility: hidden; font-family: &quot;Helvetica Neue&quot;, sans-serif; font-size: 12px; font-weight: 200;" fill="rgb(50, 49, 63)" stroke="none" stroke-width="1px">160k</text></g><line x1="0" y1="0" x2="276.8125" y2="0" fill="rgb(0, 0, 0)" stroke="rgb(204, 204, 204)" stroke-width="1px"></line></g></g></g></g></svg>