<svg viewBox="0 0 330 200" xmlns="http://www.w3.org/2000/svg"><g><g><g><g><g><line x1="74.78125" y1="177" x2="69.78125" y2="177" style="visibility: inherit;" fill="rgb(0, 0, 0)" stroke="rgb(204, 204, 204)" stroke-width="1px"></line><line x1="74.78125" y1="157.33333333333334" x2="69.78125" y2="157.33333333333334" style="visibility: inherit;" fill="rgb(0, 0, 0)" stroke="rgb(204, 204, 204)" stroke-width="1px"></line><line x1="74.78125" y1="137.66666666666669" x2="69.78125" y2="137.66666666666669" style="visibility: inherit;" fill="rgb(0, 0, 0)" stroke="rgb(204, 204, 204)" stroke-width="1px"></line><line x1="74.78125" y1="118" x2="69.78125" y2="118" style="visibility: inherit;" fill="rgb(0, 0, 0)" stroke="rgb(204, 204, 204)" stroke-width="1px"></line><line x1="74.78125" y1="98.33333333333334" x2="69.78125" y2="98.33333333333334" style="visibility: inherit;" fill="rgb(0, 0, 0)" stroke="rgb(204, 204, 204)" stroke-width="1px"></line><line x1="74.78125" y1="78.66666666666666" x2="69.78125" y2="78.66666666666666" style="visibility: inherit;" fill="rgb(0, 0, 0)" stroke="rgb(204, 204, 204)" stroke-width="1px"></line><line x1="74.78125" y1="59" x2="69.78125" y2="59" style="visibility: inherit;" fill="rgb(0, 0, 0)" stroke="rgb(204, 204, 204)" stroke-width="1px"></line><line x1="74.78125" y1="39.33333333333334" x2="69.78125" y2="39.33333333333334" style="visibility: inherit;" fill="rgb(0, 0, 0)" stroke="rgb(204, 204, 204)" stroke-width="1px"></line><line x1="74.78125" y1="19.666666666666686" x2="69.78125" y2="19.666666666666686" style="visibility: inherit;" fill="rgb(0, 0, 0)" stroke="rgb(204, 204, 204)" stroke-width="1px"></line><line x1="74.78125" y1="0" x2="69.78125" y2="0" style="visibility: inherit;" fill="rgb(0, 0, 0)" stroke="rgb(204, 204, 204)" stroke-width="1px"></line></g><g transform="translate(64.78125, 0)"><text x="0" y="177" dx="0em" dy="0.3em" style="text-anchor: end; visibility: hidden; font-family: &quot;Helvetica Neue&quot;, sans-serif; font-size: 12px; font-weight: 200;" fill="rgb(50, 49, 63)" stroke="none" stroke-width="1px">-5e+4</text><text x="0" y="157.33333333333334" dx="0em" dy="0.3em" style="text-anchor: end; visibility: inherit; font-family: &quot;Helvetica Neue&quot;, sans-serif; font-size: 12px; font-weight: 200;" fill="rgb(50, 49, 63)" stroke="none" stroke-width="1px">0</text><text x="0" y="137.66666666666669" dx="0em" dy="0.3em" style="text-anchor: end; visibility: hidden; font-family: &quot;Helvetica Neue&quot;, sans-serif; font-size: 12px; font-weight: 200;" fill="rgb(50, 49, 63)" stroke="none" stroke-width="1px">5e+4</text><text x="0" y="118" dx="0em" dy="0.3em" style="text-anchor: end; visibility: inherit; font-family: &quot;Helvetica Neue&quot;, sans-serif; font-size: 12px; font-weight: 200;" fill="rgb(50, 49, 63)" stroke="none" stroke-width="1px">1e+5</text><text x="0" y="98.33333333333334" dx="0em" dy="0.3em" style="text-anchor: end; visibility: hidden; font-family: &quot;Helvetica Neue&quot;, sans-serif; font-size: 12px; font-weight: 200;" fill="rgb(50, 49, 63)" stroke="none" stroke-width="1px">1.5e+5</text><text x="0" y="78.66666666666666" dx="0em" dy="0.3em" style="text-anchor: end; visibility: inherit; font-family: &quot;Helvetica Neue&quot;, sans-serif; font-size: 12px; font-weight: 200;" fill="rgb(50, 49, 63)" stroke="none" stroke-width="1px">2e+5</text><text x="0" y="59" dx="0em" dy="0.3em" style="text-anchor: end; visibility: hidden; font-family: &quot;Helvetica Neue&quot;, sans-serif; font-size: 12px; font-weight: 200;" fill="rgb(50, 49, 63)" stroke="none" stroke-width="1px">2.5e+5</text><text x="0" y="39.33333333333334" dx="0em" dy="0.3em" style="text-anchor: end; visibility: inherit; font-family: &quot;Helvetica Neue&quot;, sans-serif; font-size: 12px; font-weight: 200;" fill="rgb(50, 49, 63)" stroke="none" stroke-width="1px">3e+5</text><text x="0" y="19.666666666666686" dx="0em" dy="0.3em" style="text-anchor: end; visibility: hidden; font-family: &quot;Helvetica Neue&quot;, sans-serif; font-size: 12px; font-weight: 200;" fill="rgb(50, 49, 63)" stroke="none" stroke-width="1px">3.5e+5</text><text x="0" y="0" dx="0em" dy="0.3em" style="text-anchor: end; visibility: hidden; font-family: &quot;Helvetica Neue&quot;, sans-serif; font-size: 12px; font-weight: 200;" fill="rgb(50, 49, 63)" stroke="none" stroke-width="1px">4e+5</text></g><line x1="74.78125" y1="0" x2="74.78125" y2="177" fill="rgb(0, 0, 0)" stroke="rgb(204, 204, 204)" stroke-width="1px"></line></g></g><g transform="translate(74, 0)" clip-path="url(#clip_0)"><clipPath id="clip_0"><rect width="255" height="177"></rect></clipPath><g><g><g><line x1="0" y1="0" x2="0" y2="177" fill="rgb(0, 0, 0)" stroke="rgb(60, 60, 60)" stroke-width="1px" opacity="0.25"></line><line x1="28.357638888888886" y1="0" x2="28.357638888888886" y2="177" fill="rgb(0, 0, 0)" stroke="rgb(60, 60, 60)" stroke-width="1px" opacity="0.25"></line><line x1="56.71527777777777" y1="0" x2="56.71527777777777" y2="177" fill="rgb(0, 0, 0)" stroke="rgb(60, 60, 60)" stroke-width="1px" opacity="0.25"></line><line x1="85.07291666666666" y1="0" x2="85.07291666666666" y2="177" fill="rgb(0, 0, 0)" stroke="rgb(60, 60, 60)" stroke-width="1px" opacity="0.25"></line><line x1="113.43055555555554" y1="0" x2="113.43055555555554" y2="177" fill="rgb(0, 0, 0)" stroke="rgb(60, 60, 60)" stroke-width="1px" opacity="0.25"></line><line x1="141.78819444444446" y1="0" x2="141.78819444444446" y2="177" fill="rgb(0, 0, 0)" stroke="rgb(60, 60, 60)" stroke-width="1px" opacity="0.25"></line><line x1="170.14583333333331" y1="0" x2="170.14583333333331" y2="177" fill="rgb(0, 0, 0)" stroke="rgb(60, 60, 60)" stroke-width="1px" opacity="0.25"></line><line x1="198.50347222222223" y1="0" x2="198.50347222222223" y2="177" fill="rgb(0, 0, 0)" stroke="rgb(60, 60, 60)" stroke-width="1px" opacity="0.25"></line><line x1="226.8611111111111" y1="0" x2="226.8611111111111" y2="177" fill="rgb(0, 0, 0)" stroke="rgb(60, 60, 60)" stroke-width="1px" opacity="0.25"></line><line x1="255.21875" y1="0" x2="255.21875" y2="177" fill="rgb(0, 0, 0)" stroke="rgb(60, 60, 60)" stroke-width="1px" opacity="0.25"></line></g><g><line x1="0" y1="177" x2="255.21875" y2="177" fill="rgb(0, 0, 0)" stroke="rgb(60, 60, 60)" stroke-width="1px" opacity="0.25"></line><line x1="0" y1="157.33333333333334" x2="255.21875" y2="157.33333333333334" fill="rgb(0, 0, 0)" stroke="rgb(60, 60, 60)" stroke-width="1px" opacity="0.25"></line><line x1="0" y1="137.66666666666669" x2="255.21875" y2="137.66666666666669" fill="rgb(0, 0, 0)" stroke="rgb(60, 60, 60)" stroke-width="1px" opacity="0.25"></line><line x1="0" y1="118" x2="255.21875" y2="118" fill="rgb(0, 0, 0)" stroke="rgb(60, 60, 60)" stroke-width="1px" opacity="0.25"></line><line x1="0" y1="98.33333333333334" x2="255.21875" y2="98.33333333333334" fill="rgb(0, 0, 0)" stroke="rgb(60, 60, 60)" stroke-width="1px" opacity="0.25"></line><line x1="0" y1="78.66666666666666" x2="255.21875" y2="78.66666666666666" fill="rgb(0, 0, 0)" stroke="rgb(60, 60, 60)" stroke-width="1px" opacity="0.25"></line><line x1="0" y1="59" x2="255.21875" y2="59" fill="rgb(0, 0, 0)" stroke="rgb(60, 60, 60)" stroke-width="1px" opacity="0.25"></line><line x1="0" y1="39.33333333333334" x2="255.21875" y2="39.33333333333334" fill="rgb(0, 0, 0)" stroke="rgb(60, 60, 60)" stroke-width="1px" opacity="0.25"></line><line x1="0" y1="19.666666666666686" x2="255.21875" y2="19.666666666666686" fill="rgb(0, 0, 0)" stroke="rgb(60, 60, 60)" stroke-width="1px" opacity="0.25"></line><line x1="0" y1="0" x2="255.21875" y2="0" fill="rgb(0, 0, 0)" stroke="rgb(60, 60, 60)" stroke-width="1px" opacity="0.25"></line></g></g></g><g><g><line x1="0" y1="157.33333333333334" x2="255.21875" y2="157.33333333333334" fill="rgb(0, 0, 0)" stroke="rgb(153, 153, 153)" stroke-width="1.5px"></line></g></g><g><g><line x1="28.357638888888886" y1="0" x2="28.357638888888886" y2="177" fill="rgb(0, 0, 0)" stroke="rgb(153, 153, 153)" stroke-width="1.5px"></line></g></g><g><g><g><g><g><path stroke="rgb(255, 112, 67)" stroke-width="2px" d="M29.48769079861111,151.08381979166666L31.594663368055556,150.26965860745614L31.7619734375,150.57439143988316L32.2724109375,150.7527618533125L32.514868750000005,150.79227590181458L32.82396701388889,150.94610261090608L33.04090295138889,150.82359453222313L33.06500694444445,150.7664688063178L33.33015086805556,150.76212541537723L33.362762152777776,150.64265457000403L33.494625173611105,150.73399156842234L33.53999739583333,150.4961229564138L33.572608680555554,150.709376774144L33.606637847222224,150.64946880387353L33.99088385416666,150.61989550101399L33.99230173611111,150.37877484895844L34.09580711805555,150.38490659078903L34.2375953125,150.43324097615377L34.25460989583333,150.34806689383103L34.39923385416667,150.24861515281538L34.480053125,150.32855803150872L34.49139618055556,150.24550995825564L34.930939583333334,150.17676460424389L35.1053390625,150.19464620374126L35.12377152777778,150.16232239712826L35.4371234375,150.0833392855654L35.777415104166664,149.8309638103313L36.16024322916667,149.8300730841897L36.455162673611106,149.80735202200023L37.21798315972222,149.7160616005975L37.35551770833334,149.6014527539558L37.71140607638889,149.45007549546102L38.17221770833333,149.50108625598935L38.40475034722222,149.54189857004144L39.208689409722226,149.79518120885393L39.486594270833336,149.91454071238695L39.63972552083333,149.8714799135215L39.75173819444445,149.9693373330496L39.79002100694444,150.08596815561768L40.12747690972222,150.0788257904254L40.381277777777775,150.08844192450653L40.79955295138889,150.0079796462073L40.907311979166664,150.17784441509193L40.92290868055556,150.12509260875623L41.18238107638889,150.32289091176307L41.22491753472222,150.56990133711417L41.855875000000005,150.54255734929922L42.1238546875,150.54544695837623L42.183405729166665,150.48539362209902L42.187659375,150.6803072174109L42.24579253472222,150.30094530173776L42.32944756944445,150.47254962290833L42.36205885416667,150.39877128034982L42.60451666666666,150.11849020381578L42.78175190972222,150.07747998313516L42.788841319444444,150.12836761234615L43.60128767361111,150.05184121087606L43.65091354166667,150.2897020414706L43.655167187500005,150.26266932001366L43.76009045138889,150.2754786982636L44.072024479166664,150.21852945306173L44.69022100694444,150.34322123558042L45.384983159722225,150.4973961050967L46.08399895833333,150.67928144075495L46.220115625000005,150.7378243550383L46.883684375,150.71251718856522L46.92338506944444,150.65699061937505L47.08927725694445,150.6515757437388L47.33457083333333,150.80604894255774L47.73015989583333,150.71265525897127L47.8152328125,150.41624718654174L48.29022326388889,150.44701408297317L48.6829765625,150.2312470758387L48.772303125,150.21862922274332L48.82051111111112,150.35030126760938L48.93394166666667,150.23488229085868L49.121102083333334,150.23234588496894L49.21042864583333,150.30313480644028L49.400424826388885,149.997061130748L49.53512361111111,150.09644408448105L49.9335484375,150.15322661184715L50.23413940972222,149.9126364581167L50.252571875,149.75732336758023L50.49786545138888,149.79012635783957L50.61271388888889,149.9000988884494L51.81791354166667,150.0486900853129L53.316614756944446,150.18965328599327L53.53922222222222,150.1705622244539L53.56757986111111,150.04102280843165L53.78309791666666,150.1177664153796L54.22547708333333,150.10045754548554L54.327564583333334,149.99132951567236L54.518978645833336,149.88171810202306L54.62815555555556,149.84669752066023L55.364036284722225,149.84782500681075L55.62350868055555,149.87869494336098L55.93827847222222,150.03961599974622L56.128274652777776,150.11712017044346L56.301256249999994,150.13215301372503L56.492670312499996,150.07033134111578L56.6585625,149.9653546766765L56.67274131944445,149.922776990878L56.71669565972222,149.90437136248056L57.014450868055555,149.87624523608034L57.39160746527778,149.86479334535812L58.257933333333334,149.55648453379172L58.87187621527778,149.59230755634997L59.18806388888889,149.59513143716936L59.20649635416667,149.56283429443425L60.03028576388889,149.6436148839645L60.133791145833335,149.6939155231697L60.22595347222222,149.76787006730595L60.39042777777778,149.66880632924145L60.46982916666666,149.56504281580908L61.538912152777776,149.6582737940857L61.974201909722225,149.62609481879605L62.20389878472222,149.57628086625593L62.308822048611106,149.42882112924914L62.72567934027778,149.42868832834773L62.8859,149.09260943106486L62.936943750000005,149.0785904680481L63.348129513888885,149.07941192339194L63.67566024305555,149.2571541078126L63.79901597222222,149.30483615222232L63.94222204861111,149.28578879234655L63.9705796875,149.05368176478055L65.72449965277778,149.01405431876304L65.90457065972222,148.82990117256497L66.0378515625,148.8238925686246L66.3923220486111,148.38616675639668L66.59933281250001,148.37946788646855L67.23596180555555,148.2953633961155L67.42170434027777,148.33727367423856L68.01721475694444,147.98299908676177L70.08306875000001,147.9183266350866L70.14403767361112,147.86312798021453L70.67007187499999,147.91631329416919L72.83092395833333,147.26568119106244L73.46046354166667,146.9644629822245L73.49449270833333,146.56218498440063L74.8428984375,146.66712981470855L77.23911892361112,146.27009401947763L77.7041842013889,145.65410821206433L78.09126597222223,145.79959886583416L78.20611440972223,145.19694042287162L78.63715052083333,143.95718737191714L79.16743836805556,143.7376235309958L79.89197604166667,143.338500318777L81.82171336805555,143.0557706605623L82.63841336805555,141.65384248592738L82.93616857638888,139.98177809383242L83.07370312500001,138.58369298359324L83.29914635416667,137.39100721204449L83.36862256944444,136.8687422772664L83.98823697916667,135.11828942887865L84.98075434027778,134.9242244093726L85.47843090277777,133.87707875404038L85.91513854166666,132.63136061772957L87.32734895833333,132.33325574848007L89.59737795138889,130.66396573978835L90.52892638888888,130.62523133081223L91.31726875,128.51858036628323L92.02762760416667,126.98796063056218L92.21195225694444,125.04882488177924L92.7493295138889,122.74235291192734L95.01368697916668,121.76725430433333L95.69143454861111,119.56619351115057L96.31955625,118.31958600942187L98.93838420138889,117.67644639658675L99.33822690972222,117.20439354073845L101.31191857638889,118.6334894789037L102.31152534722222,114.981149585944L105.11609583333333,111.36787816684452L105.27348072916666,111.63846256144801L106.73957065972222,108.44083560721215L106.76651041666666,104.24072480100901L107.727834375,100.93767941961521L108.26946527777778,100.99227408221148L109.30593697916667,100.9172400901732L109.54839479166667,97.90785148035908L109.86316458333333,93.09444889051761L110.01771371527778,92.42704128999542L111.99707690972222,93.18755485171313L112.31042881944444,91.49672867260426L114.19337604166667,88.43073877400458L116.05221927083333,85.43830769987562L116.36840694444444,84.07533742610507L117.90113732638889,81.52572438545896L118.85111822916667,81.70877765565794L119.14603767361112,80.81226801327817L120.35265520833335,77.7179731854822L122.938871875,77.4209116789471L122.95021493055555,74.35435048569576L123.55848628472222,71.83328478794604L125.14084253472221,72.32329226807025L126.19149305555555,69.7258493926368L128.62457847222223,66.81321424222104L130.8222954861111,65.71342065037435L131.90413940972223,63.38712366684665L132.59464791666664,61.16252800692588L133.41134791666667,60.670863205921094L133.80835486111113,54.60057490269337L135.25743020833335,51.31183786906594L135.99189305555555,53.22639106221223L136.5193451388889,62.79470541831046L139.51958333333332,61.24823823006622L140.17039114583335,62.93432484512857L140.344790625,71.77184675913298L140.98992690972221,79.66058250204256L141.9214753472222,72.42458533339162L142.30855711805555,65.8548792152646L143.6725595486111,74.2178021495712L144.13337118055557,74.46937141382584L145.34566024305556,81.97791529448845L146.3140736111111,76.7418475559457L148.2182890625,67.30471084078404L148.85208229166668,60.18473036003459L149.5496802083333,58.43030655301202L150.35645503472222,56.23620341833505L153.28579913194443,48.88008740920395L154.60584722222222,44.47393535544339L155.49060555555556,41.72562627804146L156.50155538194446,39.90164960845658L156.60080711805554,38.513535835032826L157.6812331597222,37.319870438969104L158.3859204861111,36.50976866586859L159.1544125,32.081737215766736L167.81908906249998,42.96499197375857L168.94488732638888,52.45927815169824L170.83775972222222,50.44778196146824L181.53284322916667,55.72626572379683L224.74421336805557,50.02149758877894L237.6795503472222,48.732241184039594L239.13429722222222,43.9955701072094L239.79219444444445,40.15190003392058" style="fill: none;" fill="none"></path></g></g></g></g><g opacity="0.2"><g><g><g><path stroke="rgb(255, 112, 67)" stroke-width="2px" d="M29.48769079861111,151.08381979166666L31.594663368055556,149.53691354166665L31.7619734375,151.09548458333333L32.2724109375,151.18780729166667L32.514868750000005,150.91457583333334L32.82396701388889,151.51304479166666L33.04090295138889,150.30697416666666L33.06500694444445,150.49824479166665L33.33015086805556,150.73986208333332L33.362762152777776,149.98398604166667L33.494625173611105,151.269399375L33.53999739583333,149.02711666666667L33.572608680555554,152.08659854166666L33.606637847222224,150.24734729166667L33.99088385416666,150.41462458333334L33.99230173611111,148.65549041666668L34.09580711805555,150.42986625L34.2375953125,150.795703125L34.25460989583333,149.69655770833333L34.39923385416667,149.47445958333333L34.480053125,150.96057125L34.49139618055556,149.579860625L34.930939583333334,149.618985L35.1053390625,150.34131708333334L35.12377152777778,149.89461333333333L35.4371234375,149.42352291666668L35.777415104166664,147.70634020833333L36.16024322916667,149.82252270833334L36.455162673611106,149.613564375L37.21798315972222,148.933146875L37.35551770833334,148.61369875L37.71140607638889,148.13965833333333L38.17221770833333,149.94441916666668L38.40475034722222,149.89785833333332L39.208689409722226,152.01132437500002L39.486594270833336,150.96188645833334L39.63972552083333,149.49266354166667L39.75173819444445,150.83219708333334L39.79002100694444,151.11649104166668L40.12747690972222,150.01560020833332L40.381277777777775,150.17370791666667L40.79955295138889,149.2934525L40.907311979166664,151.68832395833334L40.92290868055556,149.65544208333333L41.18238107638889,152.085811875L41.22491753472222,152.77359208333334L41.855875000000005,150.29839458333333L42.1238546875,150.57126958333333L42.183405729166665,149.9483525L42.187659375,152.42448416666667L42.24579253472222,146.904284375L42.32944756944445,152.00982479166666L42.36205885416667,149.73753812500001L42.60451666666666,147.60543791666666L42.78175190972222,149.70963604166667L42.788841319444444,150.5849625L43.60128767361111,149.36499L43.65091354166667,152.4251725L43.655167187500005,150.01991458333333L43.76009045138889,150.39053291666667L44.072024479166664,149.70690729166665L44.69022100694444,151.46363229166667L45.384983159722225,151.88295020833334L46.08399895833333,152.314105L46.220115625000005,151.264089375L46.883684375,150.48499437499999L46.92338506944444,150.15772875L47.08927725694445,150.60288375L47.33457083333333,152.19523229166668L47.73015989583333,149.87269729166667L47.8152328125,147.75024604166666L48.29022326388889,150.72376L48.6829765625,148.29032958333335L48.772303125,150.10512041666667L48.82051111111112,151.5348625L48.93394166666667,149.19649583333333L49.121102083333334,150.20952583333332L49.21042864583333,150.94004416666667L49.400424826388885,147.24314104166666L49.53512361111111,150.99067354166667L49.9335484375,150.66415770833333L50.23413940972222,147.74775083333333L50.252571875,148.35975291666665L50.49786545138888,150.08530625L50.61271388888889,150.88970979166666L51.81791354166667,151.38583833333334L53.316614756944446,151.45817479166666L53.53922222222222,149.998760625L53.56757986111111,148.87527770833333L53.78309791666666,150.80840041666667L54.22547708333333,149.94468958333334L54.327564583333334,149.00924458333333L54.518978645833336,148.89527625L54.62815555555556,149.53152979166666L55.364036284722225,149.857971875L55.62350868055555,150.156511875L55.93827847222222,151.487846875L56.128274652777776,150.81463229166667L56.301256249999994,150.26744416666668L56.492670312499996,149.51395270833333L56.6585625,149.02058979166668L56.67274131944445,149.53958697916667L56.71669565972222,149.73872427083333L57.014450868055555,149.62311499999998L57.39160746527778,149.761728125L58.257933333333334,146.78174875L58.87187621527778,149.91471020833333L59.18806388888889,149.62054604166667L59.20649635416667,149.27216333333334L60.03028576388889,150.37063270833335L60.133791145833335,150.14661708333333L60.22595347222222,150.43345541666667L60.39042777777778,148.777239375L60.46982916666666,148.6311775L61.538912152777776,150.4973475L61.974201909722225,149.336485625L62.20389878472222,149.1279575L62.308822048611106,148.101689375L62.72567934027778,149.427493125L62.8859,146.06791020833333L62.936943750000005,148.95242020833334L63.348129513888885,149.086805L63.67566024305555,150.85682958333334L63.79901597222222,149.73397354166667L63.94222204861111,149.11436291666666L63.9705796875,146.9647225L65.72449965277778,148.65740791666667L65.90457065972222,147.17252541666667L66.0378515625,148.76981520833334L66.3923220486111,144.446639375L66.59933281250001,148.319178125L67.23596180555555,147.53842375L67.42170434027777,148.71446583333332L68.01721475694444,144.79453041666667L70.08306875000001,147.336275L70.14403767361112,147.36634041666667L70.67007187499999,148.39498083333334L72.83092395833333,141.40999541666667L73.46046354166667,144.25350041666667L73.49449270833333,142.94168458333334L74.8428984375,147.61163291666668L77.23911892361112,142.696773125L77.7041842013889,140.11023770833333L78.09126597222223,147.10901437500002L78.20611440972223,139.77301583333332L78.63715052083333,132.79941250000002L79.16743836805556,141.76154937500002L79.89197604166667,139.74639208333332L81.82171336805555,140.51120416666666L82.63841336805555,129.03649083333335L82.93616857638888,124.933200625L83.07370312500001,126.00092854166667L83.29914635416667,126.65683645833333L83.36862256944444,132.16835833333334L83.98823697916667,119.36421520833333L84.98075434027778,133.177639375L85.47843090277777,124.45276854166667L85.91513854166666,121.419898125L87.32734895833333,129.65031208333335L89.59737795138889,115.64035645833333L90.52892638888888,130.27662166666667L91.31726875,109.5587225L92.02762760416667,113.21238354166667L92.21195225694444,107.59660375L92.7493295138889,101.98410583333333L95.01368697916668,112.99136708333333L95.69143454861111,99.756646875L96.31955625,107.10011875L98.93838420138889,111.88819000000001L99.33822690972222,112.95591791666666L101.31191857638889,131.49535270833334L102.31152534722222,82.11009104166666L105.11609583333333,78.84843583333334L105.27348072916666,114.07372208333334L106.73957065972222,79.66219333333332L106.76651041666666,66.43972791666667L107.727834375,71.21027125L108.26946527777778,101.48362604166667L109.30593697916667,100.24193416666667L109.54839479166667,70.82335416666666L109.86316458333333,49.77382583333332L110.01771371527778,86.42037291666666L111.99707690972222,100.03217687499999L112.31042881944444,76.279293125L114.19337604166667,60.83682979166667L116.05221927083333,58.506428124999985L116.36840694444444,71.80860500000001L117.90113732638889,58.57920708333333L118.85111822916667,83.35625708333333L119.14603767361112,72.74368125L120.35265520833335,49.86931979166667L122.938871875,74.747358125L122.95021493055555,46.75529979166666L123.55848628472222,49.143693541666664L125.14084253472221,76.73335958333332L126.19149305555555,46.348863541666674L128.62457847222223,40.59949791666665L130.8222954861111,55.815278333333325L131.90413940972223,42.45045083333332L132.59464791666664,41.14116708333333L133.41134791666667,56.24588L133.80835486111113,-0.032019791666641595L135.25743020833335,21.71320458333335L135.99189305555555,70.45736979166666L136.5193451388889,148.90953458333334L139.51958333333332,47.330033541666666L140.17039114583335,78.109104375L140.344790625,151.30954395833334L140.98992690972221,150.65920416666665L141.9214753472222,7.300610833333337L142.30855711805555,6.7275241666666545L143.6725595486111,149.48410854166667L144.13337118055557,76.73349479166667L145.34566024305556,149.55481020833332L146.3140736111111,29.61723791666668L148.2182890625,-17.629519583333348L148.85208229166668,-3.895093958333348L149.5496802083333,42.640492291666675L150.35645503472222,36.48927520833334L153.28579913194443,-17.32495666666665L154.60584722222222,4.818566874999988L155.49060555555556,16.99084458333334L156.50155538194446,23.485859583333337L156.60080711805554,26.02051187500001L157.6812331597222,26.576881874999998L158.3859204861111,29.218852708333344L159.1544125,-7.77054583333333L167.81908906249998,140.91428479166666L168.94488732638888,137.90785375000002L170.83775972222222,32.34431625000002L181.53284322916667,103.23261958333333L224.74421336805557,-1.3214156250000144L237.6795503472222,37.12893354166667L239.13429722222222,1.3655304166666724L239.79219444444445,5.5588693750000004" style="fill: none;" fill="none"></path></g></g></g></g></g></g><g transform="translate(74, 177)" clip-path="url(#clip_1)"><clipPath id="clip_1"><rect width="255" height="23"></rect></clipPath><g><g><line x1="0" y1="0" x2="0" y2="5" style="visibility: inherit;" fill="rgb(0, 0, 0)" stroke="rgb(204, 204, 204)" stroke-width="1px"></line><line x1="28.357638888888886" y1="0" x2="28.357638888888886" y2="5" style="visibility: inherit;" fill="rgb(0, 0, 0)" stroke="rgb(204, 204, 204)" stroke-width="1px"></line><line x1="56.71527777777777" y1="0" x2="56.71527777777777" y2="5" style="visibility: inherit;" fill="rgb(0, 0, 0)" stroke="rgb(204, 204, 204)" stroke-width="1px"></line><line x1="85.07291666666666" y1="0" x2="85.07291666666666" y2="5" style="visibility: inherit;" fill="rgb(0, 0, 0)" stroke="rgb(204, 204, 204)" stroke-width="1px"></line><line x1="113.43055555555554" y1="0" x2="113.43055555555554" y2="5" style="visibility: inherit;" fill="rgb(0, 0, 0)" stroke="rgb(204, 204, 204)" stroke-width="1px"></line><line x1="141.78819444444446" y1="0" x2="141.78819444444446" y2="5" style="visibility: inherit;" fill="rgb(0, 0, 0)" stroke="rgb(204, 204, 204)" stroke-width="1px"></line><line x1="170.14583333333331" y1="0" x2="170.14583333333331" y2="5" style="visibility: inherit;" fill="rgb(0, 0, 0)" stroke="rgb(204, 204, 204)" stroke-width="1px"></line><line x1="198.50347222222223" y1="0" x2="198.50347222222223" y2="5" style="visibility: inherit;" fill="rgb(0, 0, 0)" stroke="rgb(204, 204, 204)" stroke-width="1px"></line><line x1="226.8611111111111" y1="0" x2="226.8611111111111" y2="5" style="visibility: inherit;" fill="rgb(0, 0, 0)" stroke="rgb(204, 204, 204)" stroke-width="1px"></line><line x1="255.21875" y1="0" x2="255.21875" y2="5" style="visibility: inherit;" fill="rgb(0, 0, 0)" stroke="rgb(204, 204, 204)" stroke-width="1px"></line></g><g transform="translate(0, 8)"><text x="0" y="0" dx="0em" dy="0.95em" style="text-anchor: middle; visibility: hidden; font-family: &quot;Helvetica Neue&quot;, sans-serif; font-size: 12px; font-weight: 200;" fill="rgb(50, 49, 63)" stroke="none" stroke-width="1px">-20k</text><text x="28.357638888888886" y="0" dx="0em" dy="0.95em" style="text-anchor: middle; visibility: inherit; font-family: &quot;Helvetica Neue&quot;, sans-serif; font-size: 12px; font-weight: 200;" fill="rgb(50, 49, 63)" stroke="none" stroke-width="1px">0</text><text x="56.71527777777777" y="0" dx="0em" dy="0.95em" style="text-anchor: middle; visibility: hidden; font-family: &quot;Helvetica Neue&quot;, sans-serif; font-size: 12px; font-weight: 200;" fill="rgb(50, 49, 63)" stroke="none" stroke-width="1px">20k</text><text x="85.07291666666666" y="0" dx="0em" dy="0.95em" style="text-anchor: middle; visibility: inherit; font-family: &quot;Helvetica Neue&quot;, sans-serif; font-size: 12px; font-weight: 200;" fill="rgb(50, 49, 63)" stroke="none" stroke-width="1px">40k</text><text x="113.43055555555554" y="0" dx="0em" dy="0.95em" style="text-anchor: middle; visibility: hidden; font-family: &quot;Helvetica Neue&quot;, sans-serif; font-size: 12px; font-weight: 200;" fill="rgb(50, 49, 63)" stroke="none" stroke-width="1px">60k</text><text x="141.78819444444446" y="0" dx="0em" dy="0.95em" style="text-anchor: middle; visibility: inherit; font-family: &quot;Helvetica Neue&quot;, sans-serif; font-size: 12px; font-weight: 200;" fill="rgb(50, 49, 63)" stroke="none" stroke-width="1px">80k</text><text x="170.14583333333331" y="0" dx="0em" dy="0.95em" style="text-anchor: middle; visibility: hidden; font-family: &quot;Helvetica Neue&quot;, sans-serif; font-size: 12px; font-weight: 200;" fill="rgb(50, 49, 63)" stroke="none" stroke-width="1px">100k</text><text x="198.50347222222223" y="0" dx="0em" dy="0.95em" style="text-anchor: middle; visibility: inherit; font-family: &quot;Helvetica Neue&quot;, sans-serif; font-size: 12px; font-weight: 200;" fill="rgb(50, 49, 63)" stroke="none" stroke-width="1px">120k</text><text x="226.8611111111111" y="0" dx="0em" dy="0.95em" style="text-anchor: middle; visibility: hidden; font-family: &quot;Helvetica Neue&quot;, sans-serif; font-size: 12px; font-weight: 200;" fill="rgb(50, 49, 63)" stroke="none" stroke-width="1px">140k</text><text x="255.21875" y="0" dx="0em" dy="0.95em" style="text-anchor: middle; visibility: hidden; font-family: &quot;Helvetica Neue&quot;, sans-serif; font-size: 12px; font-weight: 200;" fill="rgb(50, 49, 63)" stroke="none" stroke-width="1px">160k</text></g><line x1="0" y1="0" x2="255.21875" y2="0" fill="rgb(0, 0, 0)" stroke="rgb(204, 204, 204)" stroke-width="1px"></line></g></g></g></g></svg>