<svg viewBox="0 0 330 200" xmlns="http://www.w3.org/2000/svg"><g><g><g><g><g><line x1="74.78125" y1="177" x2="69.78125" y2="177" style="visibility: inherit;" fill="rgb(0, 0, 0)" stroke="rgb(204, 204, 204)" stroke-width="1px"></line><line x1="74.78125" y1="154.875" x2="69.78125" y2="154.875" style="visibility: inherit;" fill="rgb(0, 0, 0)" stroke="rgb(204, 204, 204)" stroke-width="1px"></line><line x1="74.78125" y1="132.75" x2="69.78125" y2="132.75" style="visibility: inherit;" fill="rgb(0, 0, 0)" stroke="rgb(204, 204, 204)" stroke-width="1px"></line><line x1="74.78125" y1="110.625" x2="69.78125" y2="110.625" style="visibility: inherit;" fill="rgb(0, 0, 0)" stroke="rgb(204, 204, 204)" stroke-width="1px"></line><line x1="74.78125" y1="88.5" x2="69.78125" y2="88.5" style="visibility: inherit;" fill="rgb(0, 0, 0)" stroke="rgb(204, 204, 204)" stroke-width="1px"></line><line x1="74.78125" y1="66.375" x2="69.78125" y2="66.375" style="visibility: inherit;" fill="rgb(0, 0, 0)" stroke="rgb(204, 204, 204)" stroke-width="1px"></line><line x1="74.78125" y1="44.25" x2="69.78125" y2="44.25" style="visibility: inherit;" fill="rgb(0, 0, 0)" stroke="rgb(204, 204, 204)" stroke-width="1px"></line><line x1="74.78125" y1="22.125" x2="69.78125" y2="22.125" style="visibility: inherit;" fill="rgb(0, 0, 0)" stroke="rgb(204, 204, 204)" stroke-width="1px"></line><line x1="74.78125" y1="0" x2="69.78125" y2="0" style="visibility: inherit;" fill="rgb(0, 0, 0)" stroke="rgb(204, 204, 204)" stroke-width="1px"></line></g><g transform="translate(64.78125, 0)"><text x="0" y="177" dx="0em" dy="0.3em" style="text-anchor: end; visibility: hidden; font-family: &quot;Helvetica Neue&quot;, sans-serif; font-size: 12px; font-weight: 200;" fill="rgb(50, 49, 63)" stroke="none" stroke-width="1px">-5e+3</text><text x="0" y="154.875" dx="0em" dy="0.3em" style="text-anchor: end; visibility: inherit; font-family: &quot;Helvetica Neue&quot;, sans-serif; font-size: 12px; font-weight: 200;" fill="rgb(50, 49, 63)" stroke="none" stroke-width="1px">0</text><text x="0" y="132.75" dx="0em" dy="0.3em" style="text-anchor: end; visibility: hidden; font-family: &quot;Helvetica Neue&quot;, sans-serif; font-size: 12px; font-weight: 200;" fill="rgb(50, 49, 63)" stroke="none" stroke-width="1px">5e+3</text><text x="0" y="110.625" dx="0em" dy="0.3em" style="text-anchor: end; visibility: inherit; font-family: &quot;Helvetica Neue&quot;, sans-serif; font-size: 12px; font-weight: 200;" fill="rgb(50, 49, 63)" stroke="none" stroke-width="1px">1e+4</text><text x="0" y="88.5" dx="0em" dy="0.3em" style="text-anchor: end; visibility: hidden; font-family: &quot;Helvetica Neue&quot;, sans-serif; font-size: 12px; font-weight: 200;" fill="rgb(50, 49, 63)" stroke="none" stroke-width="1px">1.5e+4</text><text x="0" y="66.375" dx="0em" dy="0.3em" style="text-anchor: end; visibility: inherit; font-family: &quot;Helvetica Neue&quot;, sans-serif; font-size: 12px; font-weight: 200;" fill="rgb(50, 49, 63)" stroke="none" stroke-width="1px">2e+4</text><text x="0" y="44.25" dx="0em" dy="0.3em" style="text-anchor: end; visibility: hidden; font-family: &quot;Helvetica Neue&quot;, sans-serif; font-size: 12px; font-weight: 200;" fill="rgb(50, 49, 63)" stroke="none" stroke-width="1px">2.5e+4</text><text x="0" y="22.125" dx="0em" dy="0.3em" style="text-anchor: end; visibility: inherit; font-family: &quot;Helvetica Neue&quot;, sans-serif; font-size: 12px; font-weight: 200;" fill="rgb(50, 49, 63)" stroke="none" stroke-width="1px">3e+4</text><text x="0" y="0" dx="0em" dy="0.3em" style="text-anchor: end; visibility: hidden; font-family: &quot;Helvetica Neue&quot;, sans-serif; font-size: 12px; font-weight: 200;" fill="rgb(50, 49, 63)" stroke="none" stroke-width="1px">3.5e+4</text></g><line x1="74.78125" y1="0" x2="74.78125" y2="177" fill="rgb(0, 0, 0)" stroke="rgb(204, 204, 204)" stroke-width="1px"></line></g></g><g transform="translate(74, 0)" clip-path="url(#clip_0)"><clipPath id="clip_0"><rect width="255" height="177"></rect></clipPath><g><g><g><line x1="0" y1="0" x2="0" y2="177" fill="rgb(0, 0, 0)" stroke="rgb(60, 60, 60)" stroke-width="1px" opacity="0.25"></line><line x1="28.357638888888886" y1="0" x2="28.357638888888886" y2="177" fill="rgb(0, 0, 0)" stroke="rgb(60, 60, 60)" stroke-width="1px" opacity="0.25"></line><line x1="56.71527777777777" y1="0" x2="56.71527777777777" y2="177" fill="rgb(0, 0, 0)" stroke="rgb(60, 60, 60)" stroke-width="1px" opacity="0.25"></line><line x1="85.07291666666666" y1="0" x2="85.07291666666666" y2="177" fill="rgb(0, 0, 0)" stroke="rgb(60, 60, 60)" stroke-width="1px" opacity="0.25"></line><line x1="113.43055555555554" y1="0" x2="113.43055555555554" y2="177" fill="rgb(0, 0, 0)" stroke="rgb(60, 60, 60)" stroke-width="1px" opacity="0.25"></line><line x1="141.78819444444446" y1="0" x2="141.78819444444446" y2="177" fill="rgb(0, 0, 0)" stroke="rgb(60, 60, 60)" stroke-width="1px" opacity="0.25"></line><line x1="170.14583333333331" y1="0" x2="170.14583333333331" y2="177" fill="rgb(0, 0, 0)" stroke="rgb(60, 60, 60)" stroke-width="1px" opacity="0.25"></line><line x1="198.50347222222223" y1="0" x2="198.50347222222223" y2="177" fill="rgb(0, 0, 0)" stroke="rgb(60, 60, 60)" stroke-width="1px" opacity="0.25"></line><line x1="226.8611111111111" y1="0" x2="226.8611111111111" y2="177" fill="rgb(0, 0, 0)" stroke="rgb(60, 60, 60)" stroke-width="1px" opacity="0.25"></line><line x1="255.21875" y1="0" x2="255.21875" y2="177" fill="rgb(0, 0, 0)" stroke="rgb(60, 60, 60)" stroke-width="1px" opacity="0.25"></line></g><g><line x1="0" y1="177" x2="255.21875" y2="177" fill="rgb(0, 0, 0)" stroke="rgb(60, 60, 60)" stroke-width="1px" opacity="0.25"></line><line x1="0" y1="154.875" x2="255.21875" y2="154.875" fill="rgb(0, 0, 0)" stroke="rgb(60, 60, 60)" stroke-width="1px" opacity="0.25"></line><line x1="0" y1="132.75" x2="255.21875" y2="132.75" fill="rgb(0, 0, 0)" stroke="rgb(60, 60, 60)" stroke-width="1px" opacity="0.25"></line><line x1="0" y1="110.625" x2="255.21875" y2="110.625" fill="rgb(0, 0, 0)" stroke="rgb(60, 60, 60)" stroke-width="1px" opacity="0.25"></line><line x1="0" y1="88.5" x2="255.21875" y2="88.5" fill="rgb(0, 0, 0)" stroke="rgb(60, 60, 60)" stroke-width="1px" opacity="0.25"></line><line x1="0" y1="66.375" x2="255.21875" y2="66.375" fill="rgb(0, 0, 0)" stroke="rgb(60, 60, 60)" stroke-width="1px" opacity="0.25"></line><line x1="0" y1="44.25" x2="255.21875" y2="44.25" fill="rgb(0, 0, 0)" stroke="rgb(60, 60, 60)" stroke-width="1px" opacity="0.25"></line><line x1="0" y1="22.125" x2="255.21875" y2="22.125" fill="rgb(0, 0, 0)" stroke="rgb(60, 60, 60)" stroke-width="1px" opacity="0.25"></line><line x1="0" y1="0" x2="255.21875" y2="0" fill="rgb(0, 0, 0)" stroke="rgb(60, 60, 60)" stroke-width="1px" opacity="0.25"></line></g></g></g><g><g><line x1="0" y1="154.875" x2="255.21875" y2="154.875" fill="rgb(0, 0, 0)" stroke="rgb(153, 153, 153)" stroke-width="1.5px"></line></g></g><g><g><line x1="28.357638888888886" y1="0" x2="28.357638888888886" y2="177" fill="rgb(0, 0, 0)" stroke="rgb(153, 153, 153)" stroke-width="1.5px"></line></g></g><g><g><g><g><g><path stroke="rgb(255, 112, 67)" stroke-width="2px" d="M31.311086979166667,152.538046875L31.44295,152.36289067238255L31.645707118055558,152.18259775821926L31.730780034722223,152.28893933055332L31.981745138888893,152.25184424604907L32.00017760416667,152.3099744930299L32.02144583333333,152.39344999029456L32.11219027777778,152.37051410874716L32.394348784722226,152.4405970088546L32.49218263888889,152.46405122495162L32.571584027777774,152.3942265749029L32.682178819444445,152.35602184585278L32.84381736111111,152.19424058221216L32.94590486111111,152.24200054358886L33.00970954861111,152.26883283195923L33.047992361111106,152.27811483520384L33.36701579861111,152.23859089504242L33.42231319444444,152.2315224292417L34.411994791666665,152.23360097619204L34.66863142361111,152.24548580534423L35.201755034722225,152.17119951950718L35.322275,152.16515980283557L35.42294461805555,152.21649350095194L35.71361041666667,152.16568663528776L35.77599722222222,152.18537842892346L35.974500694444444,152.19823583864326L35.98442586805556,152.2607423016646L36.03121597222223,152.23017786388127L36.045394791666666,152.2175004552302L36.34456788194445,152.20332121008187L36.779857638888885,152.16825109245744L36.890452430555555,152.21056436226976L37.042165798611116,152.18004762206087L37.098881076388885,152.13712404224512L37.16693940972222,152.10307496158364L37.293130902777776,152.13256075585406L37.294548784722224,152.06667984544376L37.51432048611111,152.09356496057796L38.016250694444444,152.1572134554148L38.20199322916667,152.17227932151792L38.220425694444444,152.13082246754138L38.59900017361111,152.09786121671124L38.61885052083333,152.11165111463572L38.72519166666667,152.05340503024075L38.732281076388894,152.05086738776833L38.96623159722222,151.9988559729247L39.40719288194444,151.97656277048267L39.42846111111111,151.98018736810894L39.43413263888888,152.00430674892792L39.461072395833334,151.97720413081316L39.534802256944445,151.9571406553537L39.65815798611111,152.03800610848282L39.73046996527778,151.9559779520211L39.8268859375,151.8853444422402L39.897780034722224,151.8273679358553L40.089194097222226,151.78834926395555L40.11471597222222,151.6943842730965L40.137402083333335,151.70687198767166L40.3245625,151.58647564616479L40.39829236111111,151.5459967067492L40.64642170138889,151.55533401238523L40.89171527777778,151.55471098938315L41.023578298611106,151.51194167426488L41.04910017361111,151.48851021549385L41.39648125,151.52436129862434L41.98773802083333,151.50846170591615L42.0217671875,151.5713727326323L42.05579635416667,151.64771387081504L42.13236197916667,151.6725097555967L42.40743107638889,151.5833904397677L42.84272083333333,151.45200073989662L42.95756927083333,151.47488259160536L43.028463368055554,151.39234051150498L43.04689583333333,151.3464860471614L43.459499479166666,151.3010706392673L43.4765140625,151.341813079651L43.629645312499996,151.30277006185491L43.9997125,151.16905855328665L44.03232378472222,151.184273578897L44.348511458333334,151.19105082666312L44.56686527777778,151.15150828136277L44.79798003472222,151.10900618187026L45.17088298611111,151.1440564585676L45.20207638888889,151.00754252974662L45.2247625,150.99741978336675L45.237523437499995,151.01458604814167L45.28005989583333,150.95812154303087L45.302746006944446,151.0027276462582L45.53953229166667,150.97105219157177L45.68557413194444,150.95213303120312L45.97623993055556,150.8950017486842L46.24989114583333,150.78273683416054L46.27824878472222,150.60564081602055L46.56182517361111,150.52369763890192L46.56891458333333,150.41814343947672L46.76316440972222,150.33144277305956L46.89360954861111,150.24373280000657L46.910624131944445,150.19383444624657L47.004204340277774,150.1392462655792L47.09353090277778,150.2131907905913L47.26367673611111,150.15265249976125L47.433822569444445,150.14919967549852L47.46501597222222,150.02163661291195L47.56993923611111,150.00777739759712L47.791128819444445,149.98977281294918L47.95843888888889,149.97633440446015L48.06761579861111,149.88265289886232L48.24626892361111,149.80801956813266L48.349774305555556,149.66894274265903L48.41641475694444,149.59493840801034L48.603575173611105,149.53524875718125L48.72267725694444,149.51253013651038L48.77655677083333,149.5263417409504L49.00767152777778,149.57307503832538L49.04311857638889,149.6206662322575L49.13528090277778,149.4602238193533L49.13811666666667,149.47070148383082L49.82011788194444,149.4386468326547L50.354659375000004,149.37384441687485L50.52905885416667,149.10671692506696L50.643907291666665,148.8884274106408L50.69353315972222,148.81503760261177L51.229492534722226,148.71026797071028L51.31314756944444,148.50673292990786L51.37978802083333,148.47842677044184L51.398220486111114,148.22755241285867L51.471950347222226,148.17185177304103L51.61941006944444,147.9343276046696L51.68463263888889,147.7890274749211L51.74418368055556,147.71771839713722L51.803734722222224,147.73512626256414L51.891643402777774,147.7743011720366L52.1029078125,147.66075001130923L52.18514496527778,147.46951861890653L52.23618871527778,147.41218390639557L52.55521215277778,147.37302799232566L52.61901684027778,147.46777211911729L52.753715625,147.38019017725526L52.807595138888885,147.24743672661958L52.844460069444445,147.3035758884979L52.91677204861111,147.19231201033404L53.238631250000005,147.13780735446778L53.40735920138889,146.989190638986L53.48817847222222,146.89553717596363L53.963168923611114,146.88177251767627L54.02271996527778,146.70897804235605L54.11204652777778,146.64749428907504L54.19428368055556,146.74150268855513L54.19853732638889,146.75143835871086L54.24958107638889,146.88621641628973L54.34457916666667,147.03379010534218L54.51330711805556,146.74623137542284L54.78837621527777,146.69899885816704L54.82524114583333,146.51820833111273L54.893299479166664,146.33890310850768L54.90038888888889,146.52323156106675L55.281799131944446,146.34065839300615L56.016261979166664,146.17772535660433L56.053126909722224,146.19010907160066L56.19207934027778,146.0494126285502L56.27006284722222,146.100901055407L56.411851041666665,146.0767171989313L56.55363923611111,145.91252203582485L56.65998038194445,145.8338870172798L56.889677256944445,145.6746154985628L57.005943576388894,145.58796644650855L57.06833038194444,145.6095448023503L57.13780659722222,145.37314500475807L57.27392326388889,145.26409612726573L57.50503802083333,145.21849901378027L57.70637725694444,145.1788444243083L57.95450659722222,145.19985060716064L58.211143229166666,145.08324054502978L58.36427447916667,145.0958305531643L58.408228819444446,144.65083343097467L58.411064583333335,144.55455477452566L58.63225416666667,144.4983258591255L58.63792569444444,144.25274327145357L58.79105694444445,144.09671113080213L58.810907291666666,144.15540720556254L58.98672465277778,144.1902571101883L59.169631423611115,143.98239546069243L59.410671354166666,143.72756216354514L59.54962378472222,143.63787625934916L59.83887170138889,143.50876050797183L60.16356666666666,143.15609539358704L60.574752430555556,143.19269679182992L60.58184184027778,142.61720054870932L60.61728888888889,142.4656992434978L60.665496874999995,142.23255119367627L60.83847847222222,142.15823357417332L60.95616267361111,142.03880084156023L61.16600920138889,141.85931589752033L61.35600538194445,142.12654055812305L61.45242135416667,141.96540259281647L61.62823871527778,142.20404202129143L61.7246546875,142.0343956314981L61.86644288194445,141.80980763065267L62.53284739583333,141.3712174922436L62.99933055555556,141.4549394930783L63.16096909722222,141.0304025747509L63.173730034722226,140.66560450456734L63.22335590277778,140.10497374132228L63.511185937499995,140.19916386723364L63.68558541666667,139.53168498023223L63.80326961805555,139.82701648231972L63.88125312500001,139.55904920899732L63.90252135416667,139.15747241297564L64.21729114583333,139.07261579665487L64.32221440972222,138.8413698419325L64.57176163194444,138.9084281702541L64.74899687499999,138.77933535320295L64.87093472222222,138.39073775531298L64.95033611111111,138.15024210474286L64.96167916666667,138.0250616442504L64.9914546875,138.00228204232238L65.11197465277777,138.0052882130905L65.12048194444445,137.59038439173753L65.1474217013889,137.58065064006283L65.21264427083334,137.26352307602934L65.47778819444444,137.87417076847356L65.58129357638889,137.68948025411336L65.99389722222223,137.74450879120548L66.2647126736111,138.01113603709993L66.51851354166666,137.8210458708803L66.94813177083333,137.86844909629443L67.14096371527778,136.75508074911932L67.1608140625,136.43754142419567L67.21469357638888,136.64265446928292L67.30969166666667,136.55899058485213L67.41745069444444,136.7256852763714L67.51953819444444,136.97250737374023L67.6811767361111,136.58067851135766L67.81020399305555,135.64033722270344L68.0285578125,135.9466042816885L68.04840815972223,136.0998657285221L68.05833333333334,136.2405666556719L68.13773472222222,136.18190061510396L68.19728576388889,135.960398053591L68.27385138888889,136.05143637323283L68.32064149305556,135.72958961090654L69.32733767361111,134.71809939980736L69.6619578125,134.65680508482615L69.700240625,134.65971832634355L69.81083541666668,134.5282074312084L70.17097743055555,134.85787887558936L70.70977256944444,134.57103630052902L71.12379409722223,134.7539951704769L71.4385638888889,134.16087690342684L71.66967864583333,134.5549376505856L72.00004513888888,134.4504985730267L72.05392465277777,134.04537059072283L72.06952135416667,134.15920853165085L72.10071475694444,134.18699080348583L72.52324357638888,134.068182348137L72.64092777777778,134.09400473832335L72.711821875,134.35647145199147L72.91316111111111,133.6509961817912L73.43494166666667,133.53877156361193L73.87873871527778,133.38798815725053L73.91560364583334,133.36290809152547L74.0999282986111,133.30714853237285L74.18216545138888,132.51439461663483L74.4345484375,132.94311921747172L74.45298090277778,132.57948698322426L74.86983819444444,131.83184297240135L74.90103159722223,131.74665867516114L75.22005503472222,131.96729749514515L75.56743611111112,131.6763568081305L76.14451406250001,131.49471331481737L76.15869288194443,131.6492810458357L76.16436440972222,131.20207950375197L76.30048107638889,131.49930124087686L76.30189895833333,131.6202226792892L76.43234409722223,131.39855978636024L76.45503020833333,130.0236725577239L76.48055208333334,129.7113756144514L76.76838211805556,130.21989430300638L76.90449878472224,129.01127206020553L76.93143854166667,127.77416829168479L77.09449496527779,128.54139990001642L77.37948923611111,128.7437755350148L77.48866614583334,128.5428745440133L77.49575555555555,128.30536833961193L77.87716579861112,128.36264400565074L77.87858368055555,128.23027804258567L79.11214097222222,127.53036742582704L79.26101857638889,127.56281505824435L79.30355503472222,128.54339292741997L79.41698559027778,128.41645988467798L79.56586319444445,128.27871233371016L79.62257847222223,127.93763797533913L79.95578072916668,127.57950699030519L80.15853784722222,127.47152504127467L80.23652135416667,126.64974753714716L80.78807743055556,126.71771028343247L81.38925937500001,125.35181425508918L81.4020203125,125.36842189208026L81.48992899305556,125.59493907787224L81.57216614583334,125.93432017008502L81.65582118055555,125.5428256530765L81.67708940972223,125.86252746276887L82.06133541666667,125.46714971649197L82.58736961805556,126.04885661984278L82.88654270833332,125.7219631453585L83.02549513888889,124.60636839332264L83.11482170138889,124.92983311649039L83.20273038194445,125.15734199234134L83.40832326388889,124.8822640431072L83.48063524305556,124.82275638879648L83.8549560763889,123.87866824991683L83.87622430555555,122.46203579992513L84.38240815972223,122.52562909493263L84.5894189236111,122.25375368543936L84.61210503472222,121.07843300439541L84.6532236111111,120.21562095395586L84.84180190972222,119.96041042106029L85.09134913194444,120.55072875395425L85.35649305555555,120.64919494105882L85.36074670138889,120.23723638445294L85.4500732638889,120.41959868350764L85.49402760416667,121.27098256515688L85.58902569444444,121.0817046211412L85.75208211805555,119.94476853402708L86.05409097222223,120.38177605562437L86.26677326388888,120.40448907506195L86.62549739583332,120.36546985505572L86.71765972222222,121.01761036955017L86.96720694444444,121.05002902009514L87.04802621527777,121.81347924308562L87.4351079861111,122.17424069377707L87.50316631944445,122.40351193689938L87.54144913194445,122.14315683695942L87.66055121527778,121.84730209076349L87.83778645833334,121.47732188168713L87.95688854166667,120.31741781851841L88.05472239583334,120.52633228666659L88.5481453125,121.04346468299991L88.84590052083334,120.82577446469993L88.8515720486111,121.03501733072994L89.03589670138889,121.22471872265695L89.05716493055556,120.73031716289125L89.15925243055555,120.06272294660212L89.69804756944446,118.70548971444191L89.87386493055556,118.90274543049773L89.89513315972222,118.94614276244795L90.37295937500001,119.07370036120315L90.55586614583333,118.37955688758284L90.71608680555556,118.78225744882455L90.80824913194444,119.1350082664421L90.89615781250001,119.2077261897979L91.036528125,119.7281176333181L91.09607916666667,118.92704805748629L91.291746875,118.75506200173766L91.54129409722222,119.1298917390639L91.66606770833334,117.8023322526575L91.72136510416667,116.18577090239175L91.75255850694445,116.36535006215257L91.98509114583334,116.61408849343734L92.05882100694444,116.68031245659361L92.1850125,117.00679683593424L92.47000677083334,117.32414058984082L92.60186979166667,116.82431246835674L92.71104670138888,117.89832653402105L92.84007395833333,118.90504075561896L93.25551336805556,119.03394293005705L93.31222864583333,119.12229863705134L93.46535989583334,118.8796234608462L93.56461163194444,117.8965204897616L93.60573020833334,117.30350125328543L93.87370989583334,117.38651831545688L94.56563628472223,116.1683039839112L94.67055954861111,115.1991298355201L94.71451388888889,114.83574810196808L95.24480173611111,114.90418891677128L95.78217899305555,114.87037158759415L95.79352204861111,114.78877192883473L95.96366788194445,114.82042598595126L96.14373888888889,114.43268807485615L96.1536640625,114.76130207987052L96.46985173611111,114.79155468438347L96.60596840277778,114.97780546594512L96.64425121527778,115.06384523185062L96.94626006944445,114.79557789616555L97.22416493055555,114.55552010654901L97.68923020833333,114.5745462208941L98.27623333333334,114.50593534880468L98.46906527777779,115.03049806392423L98.84055034722222,114.8402373200318L99.07024722222222,114.64134640052862L99.18509565972222,115.35840707297575L99.19502083333333,113.17729292817819L99.38218125,112.90408707286036L99.62747482638889,113.23621742807433L99.66575763888888,113.2696347477669L99.92381215277777,112.8392337729902L99.95925920138889,114.05593539569118L100.42290659722222,113.97281060612207L100.48954704861112,114.47463110800986L100.55193385416668,113.06915237220886L100.89647916666667,113.70697150998798L100.9744626736111,111.88736029648919L101.05528194444445,112.84386645434027L101.18998072916668,113.33412824640624L101.20557743055555,113.12267635926561L101.26087482638889,111.88972903583905L101.39273784722222,112.05779519475516L101.52885451388889,111.85228911277964L101.6309420138889,112.32555238900167L101.86772829861111,112.32973152510151L101.91735416666667,112.72621149759135L101.96839791666667,112.67926222283222L102.44905989583333,112.852726625549L102.52704340277778,112.67005552549409L102.8630814236111,112.13920622294468L103.16650815972223,111.93938716315022L103.26008836805555,112.41915157183519L103.65567743055554,112.21761141465167L103.69254236111111,113.40520964818651L103.91940347222223,112.17857930836784L104.17462222222221,111.66507294003107L104.22850173611111,111.48501095852795L104.4737953125,110.90672861267517L104.47946684027778,111.98065731390764L104.54894305555555,111.85338845751689L104.55461458333333,112.0430652367652L104.62834444444445,111.32186027558868L105.022515625,112.2754554980298L105.22243697916667,111.85320682322683L105.51168489583333,112.73983926590414L105.56981805555554,112.44538658931373L105.5939220486111,113.07920730538234L105.71444201388888,112.78123969984411L105.77966458333333,112.0940766673597L105.80802222222222,111.28065337562373L106.02212239583334,110.83066616306135L106.04906215277778,110.05784954675522L106.65733350694444,110.1795567795797L106.82322569444445,108.78182766412174L106.93807413194445,109.61468396020956L106.95934236111111,110.09322337668861L107.70940190972222,110.89588541401974L107.76044565972222,111.97642968511776L107.97171006944446,112.14135702910599L108.11633402777778,111.58455726369539L108.41976076388889,111.33787497482585L108.66505434027778,111.46847810234327L108.75296302083333,109.62657560460895L108.86355781249999,107.93014460664804L108.95713802083333,106.83617702098324L108.98265989583334,105.5708952563849L109.34563767361111,104.2649103743011L109.45906822916666,103.576184961871L109.57108090277778,102.76135552818388L110.13681579861112,103.88650903786551L110.16375555555555,105.03742844657896L110.40904913194446,105.58097466442105L110.4714359375,105.76871313547895L110.97053038194444,105.62377932193105L111.29380746527778,105.75330763973794L111.59014479166666,105.82563312576416L111.80708072916667,106.45076512568774L111.88081059027778,106.17194251936897L112.40684479166667,104.33975607993206L112.48057465277778,104.53407734693886L112.5925873263889,104.91085711224495L112.6407953125,105.39930265102048L112.78683715277778,105.92325519841843L112.79534444444444,106.04219530357658L113.00944461805555,105.96532733571891L113.38234756944445,104.81893522714702L113.4830171875,105.86554951693232L113.89845659722222,105.6473226902391L114.14942170138889,105.31955135871517L114.15083958333332,105.05774466034366L114.3734470486111,105.2203686318093L114.81582621527778,104.38355051862837L114.9859720486111,104.38404702926553L115.02000121527777,103.03486888883897L115.02141909722222,101.72796012495508L115.1008204861111,101.83914067495957L115.23551927083334,102.7412344199636L115.41700815972223,102.47175941546726L115.50066319444444,101.45070847392053L115.86789461805554,101.73342668902846L116.68884826388889,103.32505277012561L116.69451979166666,103.62775843061304L116.93272395833333,103.08709977505175L117.06316909722223,103.44817104754658L117.06742274305556,103.01535394279192L117.11846649305555,103.24531854851271L117.41338593750001,103.08860700616144L117.4899515625,102.71663693054529L117.50980190972221,101.90617636249077L117.72390208333333,101.30951185124167L117.86569027777779,102.56187316611752L117.94225590277777,102.45552959950577L118.01031423611111,102.33631257705518L118.2910548611111,103.19283756934966L118.4853046875,102.0554288124147L118.7688810763889,103.66187030617321L118.85678975694444,102.5231910880559L119.67490763888888,102.52580947925031L120.10877951388889,102.32212696882527L120.57668055555555,100.72696114694276L120.61779913194445,100.92164784474848L120.70854357638889,100.8534908727736L120.8843609375,100.20860272299626L120.89570399305555,100.70956276319662L120.99495572916668,100.51465336187697L121.04458159722223,99.36573490068926L121.33808315972222,99.02173172312034L121.38770902777777,99.8446523008083L121.63442048611111,100.43870269572747L121.99314461805555,99.83252773865473L122.18030503472221,98.19454840228926L122.64253454861111,97.15457012456034L122.65104184027778,96.54908186210429L122.98140833333333,96.74671273839385L123.07498854166667,96.67567427705448L123.16006145833333,97.75809122434903L124.05616284722223,99.38080553941413L124.19369739583333,98.89977967297271L124.317053125,98.70608295567543L124.3907829861111,98.70875591010788L124.75234288194444,99.61690375659711L125.04159079861111,98.52042431843739L125.21173663194445,97.66772563659366L125.26703402777778,96.47715619793429L125.44994079861112,96.25745620314085L125.45135868055556,96.91568714532677L125.66404097222222,97.99899343079409L126.2694765625,97.43904721271467L126.29783420138888,97.6168221789432L126.37865347222223,97.27485871104888L126.39566805555555,97.63913846494401L126.78133194444445,99.0400527434496L127.02662552083332,97.78139121910463L127.30311250000001,98.06874428469418L127.35840989583333,96.49513548122475L127.35982777777777,97.68410630810227L127.37826024305556,96.19874255229205L127.43639340277778,95.85615735956284L128.38921006944446,95.33764318610656L128.49696909722223,93.29457417999589L128.50689427083333,92.83862457449631L128.68554739583334,93.04223867954668L129.5958276041667,94.06071012409203L129.66246805555554,93.77428754918282L129.68798993055555,93.32844473176453L129.70500451388887,92.76816275858808L129.74470520833333,92.98850273272926L129.8553,92.91301183445634L130.26506788194445,92.41778096351071L130.37424479166668,94.13755755465962L130.38133420138888,93.78952054919365L130.48200381944446,92.8139200567743L130.72304375,92.72408273859686L130.97968038194446,91.55633852723717L131.14982621527776,91.85361092451348L131.37526944444443,92.06999201956212L131.39795555555554,90.70768813010591L131.50004305555555,90.93909900459532L131.80205190972222,90.61913441663577L131.8942142361111,91.7388694124722L132.54360416666665,92.48942778372499L132.5506935763889,92.79986781785247L132.6726314236111,91.74899822356723L132.84277725694443,91.33144996371051L133.59141892361112,91.68301590483946L133.7218640625,91.96762056435551L133.75731111111114,93.01196788291996L133.8905920138889,92.67692734462797L134.04514114583333,91.30371117266517L134.25640555555555,91.45892599289864L134.3443142361111,91.68435370610878L134.62505486111112,90.9538402104979L134.6661734375,91.50633900194812L134.96534652777777,92.14740041425328L135.01213663194443,92.89029318532798L135.02489756944442,92.33787324179517L135.37369652777778,90.52840623011565L135.43891909722223,91.1123859196041L135.55376753472223,91.95324889014367L135.597721875,91.7351427511293L135.75794253472222,91.69095660101637L137.28925503472223,90.72332187841474L137.3360451388889,88.49729437807326L137.4891763888889,88.92485400276593L137.82379652777777,89.49357172748932L138.19528159722222,90.7659645547404L138.69579392361112,91.39118059926638L139.27854340277779,89.95847660183973L139.8698001736111,91.07375394165577L139.885396875,89.6271597974902L139.99882743055554,89.43838913024116L140.00166319444446,88.74026115471706L140.0059168402778,88.63326628924533L140.01158836805556,86.81260372282081L140.2526282986111,86.33280428803873L140.51351857638886,85.03534417173485L140.75455850694445,85.72336444206137L140.79000555555558,85.57927018535523L141.13029722222223,85.03197597931971L141.46633524305554,86.59980181888776L141.5131253472222,86.00576694949896L141.54006510416667,85.89289337954908L142.1157251736111,87.01509622909418L142.48012083333333,88.01678191868473L142.61340173611111,88.13700997681626L142.82183038194444,88.42083241663465L143.09973524305556,89.74242104997117L143.17204722222223,89.37480394497408L143.3365215277778,89.76992511297665L143.64420190972223,88.75654978917899L143.65554496527778,85.92655106026108L144.00009027777776,85.99306782923497L144.12344600694445,86.10133135881148L144.54455694444442,84.75787791043032L144.5686609375,85.16942605688729L144.77992534722222,85.96019438869857L144.78134322916668,84.6045811998287L144.80686510416666,83.68459964234583L144.80970086805556,83.50238967811124L145.36267482638888,83.17799446030011L145.5384921875,83.81805438927012L146.76921371527777,83.5879286378431L147.00741788194443,83.16371389905878L147.21726440972225,82.70586594665289L147.2711439236111,81.80705278948761L147.73904496527777,79.85176938553884L147.8255357638889,81.44118619698496L147.84255034722221,80.77393476478647L148.10911215277775,80.17755691330782L148.17717048611112,79.66709028447706L148.40403159722223,80.62643594352933L148.47776145833333,81.4608079741764L148.5968635416667,82.04718811425876L148.74432326388887,81.84203961533291L148.8279782986111,82.68760127879962L148.8563359375,83.23427083841966L149.16685208333334,84.15771094207767L149.57236631944446,83.98073672286992L149.87862881944443,83.34162398808292L150.47839288194444,82.53411002677464L150.55921215277777,83.13899589909718L151.11076822916667,82.65319787168745L151.3674048611111,82.5284952720187L152.12171805555556,83.47688011981684L152.15432934027777,82.87432492033514L152.4138017361111,82.67772836580163L152.47477065972222,81.76928365422147L152.4761885416667,80.34048028879933L152.50171041666667,79.91190100991939L152.6619310763889,79.99633590892745L152.71864635416668,80.4360070055347L152.86185243055553,81.61023442998123L153.03199826388888,81.49303129948312L153.25744149305555,79.74338441953482L153.85720555555554,80.92464754008134L153.91533871527778,81.26872184857321L153.94227847222223,79.7406309137159L154.0089189236111,79.53382563484432L154.51368489583334,77.8584118213599L155.1857609375,76.0546175142239L155.49060555555556,76.0089917003015L155.56291753472223,76.27214721777135L155.56717118055556,75.21329187099421L156.24208298611111,75.84917362139478L156.45901892361113,75.79643594675532L156.627746875,76.35879235207979L156.7326701388889,76.7480654606218L156.97938159722221,77.50426672705962L157.01766440972224,77.83637911685365L157.18781024305554,77.81861620516828L157.36646336805555,77.19557489715146L157.7053371527778,76.91140021993631L157.77197760416666,77.67339301044268L157.95913802083334,76.54908495939841L158.005928125,79.12007490095856L158.09241892361112,78.83566116086273L158.1434626736111,79.93622785727645L158.19876006944446,79.3738394465488L158.35472708333336,78.69760393939393L158.46957552083333,77.28834354545454L158.6723326388889,75.87481387840909L158.80419565972224,76.70451217806817L158.8098671875,76.21777189776137L159.82648854166666,76.82787752048522L160.3950592013889,77.9273319559367L160.70415746527777,78.05120032284304L160.71691840277776,77.36894747805873L160.9026609375,77.35229491775286L161.28123541666668,77.44931542597759L161.3592189236111,77.49376669587983L161.56906545138887,78.91796815129186L161.86114913194444,77.92225727366267L162.00719097222222,78.6523049837964L162.36875086805554,76.91431667291677L162.5233,76.24618969312509L162.94582881944444,76.28650041131259L163.07910972222223,75.28843630768132L163.4449232638889,74.00299111441319L163.8433480902778,72.84470762797187L164.51258836805556,70.57154936517469L165.19458958333334,68.91427724115721L165.35197447916667,69.60066201704147L165.4001824652778,69.95705675283732L165.81420399305557,68.55206201505358L165.87375503472222,68.78238706354821L165.994275,68.3881561696934L166.05382604166667,67.08750461522405L166.06516909722222,66.58343384120165L166.38277465277775,66.03159045708148L166.4862800347222,67.43768141137332L166.59262118055557,68.58700702023599L166.71739479166666,69.71957975571239L166.80530347222222,69.05739521764113L167.00664270833332,67.70641350837703L167.25051840277777,66.82517059503932L167.45894704861112,65.51902853553537L167.63192864583334,66.72332099448182L167.74819496527778,67.85419983253365L167.95095208333333,67.3813189117803L168.71377256944444,66.10253077060226L168.94488732638888,65.12447300604202L169.13913715277778,66.03081476793783L169.22988159722223,66.65431141614404L169.48368246527775,66.70381777452964L169.58435208333333,68.05513130957665L169.65524618055557,69.37225880361899L170.12881875,68.24284542325711L170.1699373263889,68.48888119343138L170.256428125,67.20581338658825L170.28053211805556,67.27898986042942L170.307471875,68.39716899938647L170.89872864583333,67.70958491194781L170.92566840277777,69.20784517075303L171.24043819444444,67.98839659117773L171.31700381944447,67.85333036955996L171.39073368055557,67.29895045760395L171.3921515625,67.97678197434355L172.49668159722222,66.6647209644092L173.30487430555556,66.25547543046828L173.35875381944442,68.26974038742145L173.6735236111111,68.0761179111793L174.2307512152778,67.74559987006135L174.36686788194444,65.43614144555522L174.3810467013889,63.789066363499714L174.43776197916668,63.57473785214974L174.69298072916666,64.34151406693475L175.18356788194447,64.22819859774128L175.25162621527778,64.47191780046717L175.258715625,62.85903852042044L175.40759322916668,64.25189248087838L175.56072447916665,63.71057042029054L176.0045215277778,65.13719306576147L176.03004340277778,65.88185657168532L176.27675486111113,64.6811084145168L176.34339531249998,63.29483351056511L176.6709260416667,62.438522034508594L176.85808645833333,60.07069326855773L177.06226145833332,59.83686612920195L177.39829947916667,60.146359203781756L177.5500128472222,59.094637345903564L177.7187407986111,59.57791579881321L177.8264998263889,58.95086640643187L178.27313263888888,58.89954539078872L178.64461770833333,57.20227835170982L178.68290052083336,56.73673801653885L178.79065954861113,58.30347046488495L179.01326701388888,57.56740466839646L179.04304253472222,60.00382826405681L180.3148826388889,60.26620325015112L180.43823836805558,59.04900480013599L180.5133861111111,60.4481199451224L180.54032586805556,59.59576888811016L180.72606840277777,59.68876231179915L181.0649421875,60.245378268119225L181.18404427083334,61.2773326288073L181.36978680555555,60.380779053426565L181.49172465277778,60.18923239808392L181.55836510416668,60.28648884577552L182.01066944444443,62.05413683619797L182.20208350694446,62.49728565257816L182.22051597222224,61.77327583732034L183.4228798611111,59.8646904410883L183.4512375,60.39541670947946L183.54198194444444,59.302195351031514L183.63556215277777,60.877882065928375L183.74899270833333,57.753461046835554L183.84257291666668,57.93803681715198L183.87660208333335,57.83865501043678L184.04958368055557,58.63144575939312L184.05525520833334,58.03819962095379L184.22114739583333,55.699707783858415L184.50614166666665,57.50980731797256L184.89464131944445,57.20710783617531L185.0151612847222,57.400686115057766L185.30866284722222,56.52950031605198L185.48164444444444,57.43246434694677L185.50858420138889,56.96049916225209L185.55112065972224,55.7129570585269L185.6844015625,57.49684104017419L186.0232753472222,58.12883662365678L186.29976232638887,60.102570148791116L186.55781684027778,60.928938133912L186.96758472222223,59.5555833830208L187.25825052083334,59.57654066971871L187.73040520833334,59.58848816524683L188.9058293402778,60.18140497372214L188.99090225694442,60.52696760134994L189.15537656249998,60.59459896621492L189.41626684027779,56.89560000709342L189.4389529513889,57.914063443884075L189.51693645833333,58.24851647449567L189.79484131944443,57.64101638954611L189.84163142361112,58.22955537559149L189.9238685763889,59.45064671303234L190.14222239583333,58.3357461042291L190.2911,57.21617930630619L190.60586979166666,56.29568637567557L190.8710137152778,56.64539898810801L190.89653559027778,57.84237471429721L190.903625,57.216027867867496L191.00996614583332,57.717081331080735L191.77136875,59.405646635472664L192.0237517361111,56.7091600969254L192.02516961805557,55.67481439973285L192.1598684027778,55.54593452225956L192.65612708333333,57.71573169503358L192.7227675347222,56.420322588030245L193.91945989583334,56.515579391727215L194.170425,54.20627926505448L194.26116944444445,55.413471651049036L194.36609270833333,55.067351048444124L194.41855434027778,54.984006568599696L194.42847951388887,56.233730911739755L194.64257968750002,56.142990633065764L194.6681015625,55.765402507259196L194.81556128472224,54.593120069033276L194.8368295138889,55.94692524962994L194.9899607638889,56.247162412166944L195.5613671875,56.33622742095025L196.07038680555556,57.23224530385521L196.09307291666667,57.67498171096969L196.28590486111113,56.87592885237274L196.34262013888886,56.08625784213545L196.38657447916665,55.0616554954219L196.50425868055555,54.788052445879714L196.51701961805554,54.143559701291736L196.5638097222222,53.83593029366256L196.80626753472222,51.97574351429631L197.1720810763889,51.47973166286668L197.3478984375,51.60718818408L198.23974618055556,51.50341467817202L199.00682031250003,52.07238571035481L199.18689131944444,51.09517057681933L199.2974861111111,52.804301956637374L199.48748229166665,52.55039519847364L199.5427796875,53.13359005362628L199.6448671875,53.119168548263644L199.67606059027779,53.201603255937286L199.71717916666665,50.797794492843536L199.74837256944446,51.723569731059186L199.89016076388887,49.037509632953245L200.34813663194444,49.915297732157924L200.36089756944443,52.31628358394212L200.49134270833332,51.9134364755479L200.6600706597222,52.388858452993105L201.25983472222222,53.1527616701938L201.32931093750003,53.011969878174426L201.43565208333334,54.060647890356975L202.06802743055556,53.43496591382129L202.08220624999998,51.230453697439145L202.19138315972222,49.860361452695244L202.38705086805555,48.596856557425724L203.30016684027777,47.15548340168314L203.81485798611112,47.6890913115148L203.99351111111113,47.87341655536335L204.08992708333332,48.928457712327L204.12253836805556,47.30458069109429L204.30544513888887,45.643966371984874L204.31111666666666,45.136741609786384L204.37350347222224,46.22069244880774L204.83856875,46.49101382892695L204.8669263888889,46.35541244603425L205.2979625,46.355058701430835L205.30079826388888,47.05029501878775L205.31214131944446,47.84194520440897L205.55034548611113,49.25275068396809L205.69922309027777,49.30283499057127L205.8211609375,49.26909055401414L206.39114947916667,47.85037681111274L206.52443038194443,48.86070631750147L206.98382413194443,48.135518498251315L207.29292239583333,46.888240085926185L207.69134722222222,45.14065826483355L208.89371111111112,46.53120181335021L209.73735086805556,46.50912069451519L209.8890642361111,43.99050550006365L210.1854015625,44.13261120005728L210.21659496527778,42.04109226755156L210.2293559027778,40.8446002282964L210.67598871527778,44.61589801796677L210.75964374999998,43.990230091170076L211.10844270833334,42.12313676955307L211.6358947916667,40.76079965509777L212.32356753472223,39.451727502088005L212.46251996527778,41.888234439379204L212.49513125000001,41.672231307941274L212.65109826388888,38.968023802147144L213.0637019097222,39.61237767193245L213.34869618055558,40.489600842239184L213.67055538194444,41.912429820515285L213.69465937500001,41.63039777596373L213.7612998263889,40.27585018586737L214.10159149305557,41.162780792280614L214.12144184027778,40.65979177555255L214.29016979166667,40.5237657229973L214.50994149305555,43.32599071319757L214.69710190972222,45.193922891877804L214.74672777777778,46.458835290190024L215.21179305555557,47.01647519867103L215.47410121527778,47.411874553803926L216.502065625,46.74030428592354L216.66653993055553,47.66528166983119L216.85795399305556,47.87549569034806L217.1713059027778,46.20203987131325L217.676071875,44.346078071681916L217.72711562499998,43.31595463951376L218.8330635416667,42.61424198806236L218.88127152777776,42.76260685175612L219.18895190972222,43.34416647908051L219.35342621527778,43.33518733117248L219.70789670138888,44.55366078555522L219.7589404513889,43.121122831999685L220.43527013888888,44.785526173799724L220.48631388888887,44.09034855641974L220.5217609375,45.77951682577776L220.67063854166668,45.75793233069999L220.6975782986111,46.80880316013L220.95705069444443,46.234875969116985L220.97690104166668,45.28828680970531L221.30868541666666,45.503887816234766L221.43629479166668,44.64975684711129L221.53412864583333,45.13110147490016L221.88718125,42.972921014910156L222.0814310763889,43.2485898509191L222.21754774305555,43.0873793033272L222.33097829861111,43.5493444979945L222.40470815972222,43.905652235695044L222.576271875,45.7156182621255L223.96579618055557,46.03782987341296L224.4067574652778,45.69449219857165L224.4549654513889,44.98308985371449L224.49891979166668,45.37855430584304L224.5570529513889,45.91147231275872L224.95122413194446,45.86286414398285L224.96398506944445,44.00624960458455L225.05189375,45.1963355816261L225.18375677083333,44.86109264846348L225.20077135416665,45.84400682111715L225.46166163194445,48.40874676400543L225.52263055555557,47.86980177510489L225.54106302083335,48.48408722259438L226.08836545138888,49.938537875334944L226.39604583333335,51.03873877530144L226.63425,51.15913052277129L226.91640850694446,51.40576434549416L227.3134154513889,52.49199259844474L227.32759427083334,47.86782458860026L227.42117447916667,49.21104994224024L228.18399496527778,51.20815588551619L228.32861892361112,51.921426234464576L229.24740642361112,51.93833829851813L229.49837152777778,50.847309156166304L229.69545711805554,49.587437615549675L230.30798211805558,49.1795297914947L230.5192465277778,47.681272124845236L230.62416979166665,48.74308241236071L230.6312592013889,47.20135229612464L231.54153940972222,46.054404566512176L231.69183489583335,44.365315672360964L232.0519769097222,42.373596605124874L232.20510815972222,41.14385413211238L232.3639109375,41.371499968901134L232.51278854166668,39.39706872201103L232.62196545138892,40.66918216230991L232.67017343749998,40.76176394607893L233.01471875000001,38.49983755147102L233.20755069444445,39.25047098382393L233.23732621527776,42.070783260441544L233.77186770833333,42.75609555939738L233.94201354166665,43.16545475345765L234.0455189236111,44.28889365311187L234.72610225694444,42.159621475300696L234.81968246527777,41.25549526527061L235.01251440972223,41.53282073874357L235.54705590277777,41.4104371023692" style="fill: none;" fill="none"></path></g></g></g></g><g opacity="0.2"><g><g><g><path stroke="rgb(255, 112, 67)" stroke-width="2px" d="M31.311086979166667,152.538046875L31.44295,152.20525009002685L31.645707118055558,151.874296875L31.730780034722223,152.54830642547608L31.981745138888893,152.13703125L32.00017760416667,152.52421875L32.02144583333333,152.74546875L32.11219027777778,152.26282262420654L32.394348784722226,152.79982759552001L32.49218263888889,152.593359375L32.571584027777774,151.984921875L32.682178819444445,152.1200807235718L32.84381736111111,151.1494354751587L32.94590486111111,152.56258072357178L33.00970954861111,152.455078125L33.047992361111106,152.344453125L33.36701579861111,151.94879022674561L33.42231319444444,152.178515625L34.411994791666665,152.24950009002686L34.66863142361111,152.33800009002687L35.201755034722225,151.58390625L35.322275,152.11675009002687L35.42294461805555,152.63300004501343L35.71361041666667,151.74895167388917L35.77599722222222,152.34846787261964L35.974500694444444,152.3056452484131L35.98442586805556,152.786953125L36.03121597222223,151.97109375L36.045394791666666,152.109375L36.34456788194445,152.08171875L36.779857638888885,151.866L36.890452430555555,152.57685475158692L37.042165798611116,151.91482759552002L37.098881076388885,151.76275009002686L37.16693940972222,151.80515625L37.293130902777776,152.3912902267456L37.294548784722224,151.487109375L37.51432048611111,152.330625L38.016250694444444,152.71959678726196L38.20199322916667,152.3056452484131L38.220425694444444,151.7632257019043L38.59900017361111,151.80515625L38.61885052083333,152.2342742980957L38.72519166666667,151.53483882293702L38.732281076388894,152.02825009002686L38.96623159722222,151.53483882293702L39.40719288194444,151.7775L39.42846111111111,152.012578125L39.43413263888888,152.22L39.461072395833334,151.73467737579347L39.534802256944445,151.7775L39.65815798611111,152.7624194114685L39.73046996527778,151.22080642547607L39.8268859375,151.25203125L39.897780034722224,151.30734375L40.089194097222226,151.43824990997314L40.11471597222222,150.851015625L40.137402083333335,151.818984375L40.3245625,150.5053125L40.39829236111111,151.18241366271974L40.64642170138889,151.63921875L40.89171527777778,151.54911285095216L41.023578298611106,151.127578125L41.04910017361111,151.2779033477783L41.39648125,151.846640625L41.98773802083333,151.36551721343994L42.0217671875,152.13703125L42.05579635416667,152.33419357452394L42.13236197916667,151.89550009002684L42.40743107638889,150.781875L42.84272083333333,150.270234375L42.95756927083333,151.680703125L43.028463368055554,150.649838822937L43.04689583333333,150.933984375L43.459499479166666,150.8925L43.4765140625,151.708359375L43.629645312499996,150.95149990997314L43.9997125,149.966015625L44.03232378472222,151.321171875L44.348511458333334,151.25203125L44.56686527777778,150.795703125L44.79798003472222,150.7265625L45.17088298611111,151.459453125L45.20207638888889,149.77911285095215L45.2247625,150.906328125L45.237523437499995,151.1690625L45.28005989583333,150.45L45.302746006944446,151.404140625L45.53953229166667,150.68599990997313L45.68557413194444,150.781875L45.97623993055556,150.380859375L46.24989114583333,149.772421875L46.27824878472222,149.011875L46.56182517361111,149.78625L46.56891458333333,149.468203125L46.76316440972222,149.551171875L46.89360954861111,149.454375L46.910624131944445,149.744765625L47.004204340277774,149.64796875L47.09353090277778,150.878671875L47.26367673611111,149.60782235412597L47.433822569444445,150.118125L47.46501597222222,148.87359375L47.56993923611111,149.883046875L47.791128819444445,149.827734375L47.95843888888889,149.855390625L48.06761579861111,149.03953125L48.24626892361111,149.136328125L48.349774305555556,148.417265625L48.41641475694444,148.92890625L48.603575173611105,148.998046875L48.72267725694444,149.30806425476075L48.77655677083333,149.65064524841307L49.00767152777778,149.993671875L49.04311857638889,150.048984375L49.13528090277778,148.01625L49.13811666666667,149.565L49.82011788194444,149.15015625L50.354659375000004,148.790625L50.52905885416667,146.702578125L50.643907291666665,146.923828125L50.69353315972222,148.15453125L51.229492534722226,147.76734375L51.31314756944444,146.674921875L51.37978802083333,148.223671875L51.398220486111114,145.9696875L51.471950347222226,147.670546875L51.61941006944444,145.79661339111328L51.68463263888889,146.481328125L51.74418368055556,147.0759375L51.803734722222224,147.891796875L51.891643402777774,148.126875L52.1029078125,146.63879049682618L52.18514496527778,145.7484375L52.23618871527778,146.896171875L52.55521215277778,147.020625L52.61901684027778,148.32046875L52.753715625,146.591953125L52.807595138888885,146.05265625L52.844460069444445,147.808828125L52.91677204861111,146.1909375L53.238631250000005,146.647265625L53.40735920138889,145.651640625L53.48817847222222,146.05265625L53.963168923611114,146.757890625L54.02271996527778,145.153828125L54.11204652777778,146.094140625L54.19428368055556,147.587578125L54.19853732638889,146.840859375L54.24958107638889,148.09921875L54.34457916666667,148.361953125L54.51330711805556,144.158203125L54.78837621527777,146.27390625L54.82524114583333,144.89109375L54.893299479166664,144.72515625L54.90038888888889,148.1821875L55.281799131944446,144.6975L56.016261979166664,144.711328125L56.053126909722224,146.3015625L56.19207934027778,144.78314470825194L56.27006284722222,146.564296875L56.411851041666665,145.8590625L56.55363923611111,144.434765625L56.65998038194445,145.126171875L56.889677256944445,144.241171875L57.005943576388894,144.808125L57.06833038194444,145.80375L57.13780659722222,143.245546875L57.27392326388889,144.28265625L57.50503802083333,144.808125L57.70637725694444,144.821953125L57.95450659722222,145.38890625L58.211143229166666,144.03375L58.36427447916667,145.209140625L58.408228819444446,140.645859375L58.411064583333335,143.688046875L58.63225416666667,143.99226562500002L58.63792569444444,142.0425L58.79105694444445,142.692421875L58.810907291666666,144.68367187500002L58.98672465277778,144.50390625L59.169631423611115,142.111640625L59.410671354166666,141.4340625L59.54962378472222,142.830703125L59.83887170138889,142.34671875L60.16356666666666,139.982109375L60.574752430555556,143.522109375L60.58184184027778,137.437734375L60.61728888888889,141.1021875L60.665496874999995,140.13421875L60.83847847222222,141.489375L60.95616267361111,140.96390625L61.16600920138889,140.24395140380858L61.35600538194445,144.5315625L61.45242135416667,140.51516090698243L61.62823871527778,144.351796875L61.7246546875,140.507578125L61.86644288194445,139.788515625L62.53284739583333,137.42390625000002L62.99933055555556,142.2084375L63.16096909722222,137.2095703125L63.173730034722226,137.382421875L63.22335590277778,135.059296875L63.511185937499995,141.046875L63.68558541666667,133.524375L63.80326961805555,142.485L63.88125312500001,137.14734375L63.90252135416667,135.54328125L64.21729114583333,138.30890625L64.32221440972222,136.76015625L64.57176163194444,139.511953125L64.74899687499999,137.6175L64.87093472222222,134.893359375L64.95033611111111,135.98578125L64.96167916666667,136.8984375L64.9914546875,137.797265625L65.11197465277777,138.03234375L65.12048194444445,133.85625L65.1474217013889,137.493046875L65.21264427083334,134.409375L65.47778819444444,143.37L65.58129357638889,136.02726562499998L65.99389722222223,138.239765625L66.2647126736111,140.41078125L66.51851354166666,136.110234375L66.94813177083333,138.295078125L67.14096371527778,126.734765625L67.1608140625,133.5796875L67.21469357638888,138.488671875L67.30969166666667,135.806015625L67.41745069444444,138.2259375L67.51953819444444,139.19390625L67.6811767361111,133.05421875L67.81020399305555,127.17726562499999L68.0285578125,138.7030078125L68.04840815972223,137.47921875L68.05833333333334,137.506875L68.13773472222222,135.65390625L68.19728576388889,133.96687500000002L68.27385138888889,136.87078125L68.32064149305556,132.83296875L69.32733767361111,125.6146875L69.6619578125,134.10515625L69.700240625,134.6859375L69.81083541666668,133.344609375L70.17097743055555,137.824921875L70.70977256944444,131.989453125L71.12379409722223,136.400625L71.4385638888889,128.8228125L71.66967864583333,138.10148437499998L72.00004513888888,133.510546875L72.05392465277777,130.39921875L72.06952135416667,135.18375L72.10071475694444,134.43703125L72.52324357638888,132.99890625L72.64092777777778,134.32640625L72.711821875,136.71867187499998L72.91316111111111,127.30171875L73.43494166666667,132.52875L73.87873871527778,132.0309375L73.91560364583334,133.1371875L74.0999282986111,132.8053125L74.18216545138888,125.379609375L74.4345484375,136.801640625L74.45298090277778,129.306796875L74.86983819444444,125.10304687499999L74.90103159722223,130.98L75.22005503472222,133.95304687499998L75.56743611111112,129.057890625L76.14451406250001,129.859921875L76.15869288194443,133.040390625L76.16436440972222,127.17726562499999L76.30048107638889,134.174296875L76.30189895833333,132.708515625L76.43234409722223,129.40359375L76.45503020833333,117.6496875L76.48055208333334,126.900703125L76.76838211805556,134.7965625L76.90449878472224,118.133671875L76.93143854166667,116.640234375L77.09449496527779,135.446484375L77.37948923611111,130.56515625L77.48866614583334,126.734765625L77.49575555555555,126.1678125L77.87716579861112,128.878125L77.87858368055555,127.038984375L79.11214097222222,121.231171875L79.26101857638889,127.85484375L79.30355503472222,137.36859375L79.41698559027778,127.2740625L79.56586319444445,127.038984375L79.62257847222223,124.86796874999999L79.95578072916668,124.356328125L80.15853784722222,126.4996875L80.23652135416667,119.25375L80.78807743055556,127.329375L81.38925937500001,113.05875L81.4020203125,125.517890625L81.48992899305556,127.63359374999999L81.57216614583334,128.98875L81.65582118055555,122.019375L81.67708940972223,128.73984375L82.06133541666667,121.90875L82.58736961805556,131.28421874999998L82.88654270833332,122.779921875L83.02549513888889,114.566015625L83.11482170138889,127.84101562500001L83.20273038194445,127.204921875L83.40832326388889,122.4065625L83.48063524305556,124.2871875L83.8549560763889,115.381875L83.87622430555555,109.71234375L84.38240815972223,123.09796875L84.5894189236111,119.80687499999999L84.61210503472222,110.500546875L84.6532236111111,112.4503125L84.84180190972222,117.663515625L85.09134913194444,125.86359375L85.35649305555555,121.53539062499999L85.36074670138889,116.529609375L85.4500732638889,122.060859375L85.49402760416667,128.9334375L85.58902569444444,119.378203125L85.75208211805555,109.71234375L86.05409097222223,124.31484375L86.26677326388888,120.60890624999999L86.62549739583332,120.014296875L86.71765972222222,126.886875L86.96720694444444,121.341796875L87.04802621527777,128.68453125000002L87.4351079861111,125.42109375000001L87.50316631944445,124.466953125L87.54144913194445,119.7999609375L87.66055121527778,119.184609375L87.83778645833334,118.1475L87.95688854166667,109.87828125L88.05472239583334,122.4065625L88.5481453125,125.69765625L88.84590052083334,118.8665625L88.8515720486111,122.91820312499999L89.03589670138889,122.93203125L89.05716493055556,116.280703125L89.15925243055555,114.054375L89.69804756944446,106.490390625L89.87386493055556,120.678046875L89.89513315972222,119.33671874999999L90.37295937500001,120.22171875L90.55586614583333,112.132265625L90.71608680555556,122.4065625L90.80824913194444,122.30976562500001L90.89615781250001,119.8621875L91.036528125,124.41164062499999L91.09607916666667,111.717421875L91.291746875,117.2071875L91.54129409722222,122.503359375L91.66606770833334,105.854296875L91.72136510416667,101.63671875L91.75255850694445,117.9815625L91.98509114583334,118.85273437500001L92.05882100694444,117.276328125L92.1850125,119.94515625L92.47000677083334,120.180234375L92.60186979166667,112.325859375L92.71104670138888,127.564453125L92.84007395833333,127.96546875L93.25551336805556,120.1940625L93.31222864583333,119.91749999999999L93.46535989583334,116.69554687499999L93.56461163194444,109.04859375L93.60573020833334,111.966328125L93.87370989583334,118.133671875L94.56563628472223,105.204375L94.67055954861111,106.4765625L94.71451388888889,111.5653125L95.24480173611111,115.52015625L95.78217899305555,114.566015625L95.79352204861111,114.054375L95.96366788194445,115.1053125L96.14373888888889,110.943046875L96.1536640625,117.718828125L96.46985173611111,115.063828125L96.60596840277778,116.65406250000001L96.64425121527778,115.838203125L96.94626006944445,112.381171875L97.22416493055555,112.395L97.68923020833333,114.74578125L98.27623333333334,113.88843750000001L98.46906527777779,119.7515625L98.84055034722222,113.127890625L99.07024722222222,112.851328125L99.18509565972222,121.811953125L99.19502083333333,93.547265625L99.38218125,110.445234375L99.62747482638889,116.22539062499999L99.66575763888888,113.570390625L99.92381215277777,108.965625L99.95925920138889,125.00625L100.42290659722222,113.2246875L100.48954704861112,118.99101562499999L100.55193385416668,100.41984375L100.89647916666667,119.44734375L100.9744626736111,95.510859375L101.05528194444445,121.452421875L101.18998072916668,117.746484375L101.20557743055555,111.219609375L101.26087482638889,100.793203125L101.39273784722222,113.570390625L101.52885451388889,110.002734375L101.6309420138889,116.584921875L101.86772829861111,112.36734375L101.91735416666667,116.29453125L101.96839791666667,112.25671875L102.44905989583333,114.41390625L102.52704340277778,111.026015625L102.8630814236111,107.3615625L103.16650815972223,110.141015625L103.26008836805555,116.73703125L103.65567743055554,110.40375L103.69254236111111,124.09359375L103.91940347222223,101.13890625L104.17462222222221,107.043515625L104.22850173611111,109.864453125L104.4737953125,105.7021875L104.47946684027778,121.64601562499999L104.54894305555555,110.70796875L104.55461458333333,113.75015625L104.62834444444445,104.831015625L105.022515625,120.8578125L105.22243697916667,108.05296875L105.51168489583333,120.71953124999999L105.56981805555554,109.7953125L105.5939220486111,118.78359375L105.71444201388888,110.09953125L105.77966458333333,105.909609375L105.80802222222222,103.95984375L106.02212239583334,106.78078125L106.04906215277778,103.1025L106.65733350694444,111.274921875L106.82322569444445,96.202265625L106.93807413194445,117.110390625L106.95934236111111,114.400078125L107.70940190972222,118.11984375L107.76044565972222,121.701328125L107.97171006944446,113.625703125L108.11633402777778,106.573359375L108.41976076388889,109.117734375L108.66505434027778,112.64390625L108.75296302083333,93.049453125L108.86355781249999,92.662265625L108.95713802083333,96.99046875L108.98265989583334,94.183359375L109.34563767361111,92.51104643554687L109.45906822916666,97.37765625L109.57108090277778,95.427890625L110.13681579861112,114.01289062500001L110.16375555555555,115.39570312500001L110.40904913194446,110.472890625L110.4714359375,107.458359375L110.97053038194444,104.319375L111.29380746527778,106.9190625L111.59014479166666,106.4765625L111.80708072916667,112.076953125L111.88081059027778,103.6625390625L112.40684479166667,87.850078125L112.48057465277778,106.28296875L112.5925873263889,108.301875L112.6407953125,109.7953125L112.78683715277778,110.638828125L112.79534444444444,107.11265625L113.00944461805555,105.273515625L113.38234756944445,94.50140625L113.4830171875,115.285078125L113.89845659722222,103.68328125L114.14942170138889,102.369609375L114.15083958333332,102.701484375L114.3734470486111,106.683984375L114.81582621527778,96.8521875L114.9859720486111,104.388515625L115.02000121527777,90.892265625L115.02141909722222,89.96578125L115.1008204861111,102.839765625L115.23551927083334,110.860078125L115.41700815972223,100.046484375L115.50066319444444,92.26125L115.86789461805554,104.277890625L116.68884826388889,117.6496875L116.69451979166666,106.352109375L116.93272395833333,98.221171875L117.06316909722223,106.6978125L117.06742274305556,99.12L117.11846649305555,105.315L117.41338593750001,101.678203125L117.4899515625,99.36890625L117.50980190972221,94.61203125L117.72390208333333,95.93953125L117.86569027777779,113.833125L117.94225590277777,101.4984375L118.01031423611111,101.263359375L118.2910548611111,110.9015625L118.4853046875,91.81875L118.7688810763889,118.11984375L118.85678975694444,92.275078125L119.67490763888888,102.549375L120.10877951388889,100.488984375L120.57668055555555,86.37046874999999L120.61779913194445,102.673828125L120.70854357638889,100.240078125L120.8843609375,94.404609375L120.89570399305555,105.218203125L120.99495572916668,98.76046875L121.04458159722223,89.02546875L121.33808315972222,95.925703125L121.38770902777777,107.2509375L121.63442048611111,105.78515625L121.99314461805555,94.376953125L122.18030503472221,83.45273437499999L122.64253454861111,87.794765625L122.65104184027778,91.0996875L122.98140833333333,98.525390625L123.07498854166667,96.036328125L123.16006145833333,107.49984375L124.05616284722223,113.985234375L124.19369739583333,94.570546875L124.317053125,96.9628125L124.3907829861111,98.7328125L124.75234288194444,107.790234375L125.04159079861111,88.652109375L125.21173663194445,89.9934375L125.26703402777778,85.76203124999999L125.44994079861112,94.28015625L125.45135868055556,102.839765625L125.66404097222222,107.74875L126.2694765625,92.39953125L126.29783420138888,99.216796875L126.37865347222223,94.1971875L126.39566805555555,100.91765625L126.78133194444445,111.64828125L127.02662552083332,86.45343749999999L127.30311250000001,100.654921875L127.35840989583333,82.33265625000001L127.35982777777777,108.38484375L127.37826024305556,82.83046875000001L127.43639340277778,92.772890625L128.38921006944446,90.671015625L128.49696909722223,74.906953125L128.50689427083333,88.735078125L128.68554739583334,94.874765625L129.5958276041667,103.226953125L129.66246805555554,91.196484375L129.68798993055555,89.315859375L129.70500451388887,87.725625L129.74470520833333,94.9715625L129.8553,92.23359375L130.26506788194445,87.960703125L130.37424479166668,109.615546875L130.38133420138888,90.6571875L130.48200381944446,84.03351562499999L130.72304375,91.915546875L130.97968038194446,81.046640625L131.14982621527776,94.5290625L131.37526944444443,94.017421875L131.39795555555554,78.44695312500001L131.50004305555555,93.021796875L131.80205190972222,87.739453125L131.8942142361111,101.816484375L132.54360416666665,99.244453125L132.5506935763889,95.593828125L132.6726314236111,82.291171875L132.84277725694443,87.573515625L133.59141892361112,94.847109375L133.7218640625,94.5290625L133.75731111111114,102.41109375L133.8905920138889,89.6615625L134.04514114583333,78.944765625L134.25640555555555,92.855859375L134.3443142361111,93.713203125L134.62505486111112,84.37921874999999L134.6661734375,96.478828125L134.96534652777777,97.916953125L135.01213663194443,99.576328125L135.02489756944442,87.36609375L135.37369652777778,74.243203125L135.43891909722223,96.368203125L135.55376753472223,99.521015625L135.597721875,89.7721875L135.75794253472222,91.29328125L137.28925503472223,82.014609375L137.3360451388889,68.463046875L137.4891763888889,92.772890625L137.82379652777777,94.61203125L138.19528159722222,102.2175L138.69579392361112,97.018125L139.27854340277779,77.06414062500001L139.8698001736111,101.11125L139.885396875,76.60781250000001L139.99882743055554,87.739453125L140.00166319444446,82.45710937499999L140.0059168402778,87.67031250000001L140.01158836805556,70.426640625L140.2526282986111,82.014609375L140.51351857638886,73.358203125L140.75455850694445,91.915546875L140.79000555555558,84.282421875L141.13029722222223,80.106328125L141.46633524305554,100.710234375L141.5131253472222,80.659453125L141.54006510416667,84.87703124999999L142.1157251736111,97.114921875L142.48012083333333,97.031953125L142.61340173611111,89.2190625L142.82183038194444,90.975234375L143.09973524305556,101.63671875L143.17204722222223,86.06625L143.3365215277778,93.326015625L143.64420190972223,79.636171875L143.65554496527778,60.456562500000004L144.00009027777776,86.59171875000001L144.12344600694445,87.075703125L144.54455694444442,72.666796875L144.5686609375,88.873359375L144.77992534722222,93.077109375L144.78134322916668,72.4040625L144.80686510416666,75.404765625L144.80970086805556,81.8625L145.36267482638888,80.25843750000001L145.5384921875,89.57859375L146.76921371527777,81.516796875L147.00741788194443,79.34578124999999L147.21726440972225,78.585234375L147.2711439236111,73.717734375L147.73904496527777,62.25421874999999L147.8255357638889,95.7459375L147.84255034722221,74.768671875L148.10911215277775,74.81015624999999L148.17717048611112,75.07289062500001L148.40403159722223,89.260546875L148.47776145833333,88.97015625L148.5968635416667,87.32460937500001L148.74432326388887,79.99570312499999L148.8279782986111,90.29765625L148.8563359375,88.154296875L149.16685208333334,92.468671875L149.57236631944446,82.38796875L149.87862881944443,77.589609375L150.47839288194444,75.266484375L150.55921215277777,88.58296875L151.11076822916667,78.281015625L151.3674048611111,81.40617187500001L152.12171805555556,92.01234375L152.15432934027777,77.451328125L152.4138017361111,80.908359375L152.47477065972222,73.59328125L152.4761885416667,67.48125L152.50171041666667,76.0546875L152.6619310763889,80.75625000000001L152.71864635416668,84.393046875L152.86185243055553,92.17828125L153.03199826388888,80.438203125L153.25744149305555,63.996562499999996L153.85720555555554,91.556015625L153.91533871527778,84.365390625L153.94227847222223,65.9878125L154.0089189236111,77.672578125L154.51368489583334,62.77968750000001L155.1857609375,59.82046875L155.49060555555556,75.598359375L155.56291753472223,78.64054687500001L155.56717118055556,65.68359375L156.24208298611111,81.572109375L156.45901892361113,75.321796875L156.627746875,81.41999999999999L156.7326701388889,80.2515234375L156.97938159722221,84.310078125L157.01766440972224,80.825390625L157.18781024305554,77.65875L157.36646336805555,71.58820312499999L157.7053371527778,74.35382812499999L157.77197760416666,84.53132812499999L157.95913802083334,66.43031250000001L158.005928125,102.258984375L158.09241892361112,76.2759375L158.1434626736111,89.841328125L158.19876006944446,74.31234375L158.35472708333336,72.611484375L158.46957552083333,64.605L158.6723326388889,63.153046875L158.80419565972224,84.17179687500001L158.8098671875,71.837109375L159.82648854166666,82.318828125L160.3950592013889,87.822421875L160.70415746527777,79.166015625L160.71691840277776,71.228671875L160.9026609375,77.202421875L161.28123541666668,78.3225L161.3592189236111,77.893828125L161.56906545138887,91.73578125L161.86114913194444,68.96085937500001L162.00719097222222,85.22273437499999L162.36875086805554,61.272421875000006L162.5233,70.23304687500001L162.94582881944444,76.649296875L163.07910972222223,66.305859375L163.4449232638889,62.43398437500001L163.8433480902778,62.420156250000005L164.51258836805556,50.113125L165.19458958333334,53.998828125L165.35197447916667,75.778125L165.4001824652778,73.164609375L165.81420399305557,55.907109375000005L165.87375503472222,70.8553125L165.994275,64.840078125L166.05382604166667,55.381640625L166.06516909722222,62.04679687500001L166.38277465277775,61.065L166.4862800347222,80.0925L166.59262118055557,78.9309375L166.71739479166666,79.91273437500001L166.80530347222222,63.09773437499999L167.00664270833332,55.547578125L167.25051840277777,58.893984375L167.45894704861112,53.76374999999999L167.63192864583334,77.561953125L167.74819496527778,78.032109375L167.95095208333333,63.12539062500001L168.71377256944444,54.59343750000001L168.94488732638888,56.32195312500001L169.13913715277778,74.18789062500001L169.22988159722223,72.26578125L169.48368246527775,67.149375L169.58435208333333,80.216953125L169.65524618055557,81.22640625L170.12881875,58.078125L170.1699373263889,70.70320312499999L170.256428125,55.658203125L170.28053211805556,67.93757812499999L170.307471875,78.46078125L170.89872864583333,61.521328125L170.92566840277777,82.6921875L171.24043819444444,57.01335937500001L171.31700381944447,66.637734375L171.39073368055557,62.309531250000006L171.3921515625,74.077265625L172.49668159722222,54.856171875L173.30487430555556,62.572265625L173.35875381944442,86.39812500000001L173.6735236111111,66.333515625L174.2307512152778,64.7709375L174.36686788194444,44.651015625000014L174.3810467013889,48.965390625L174.43776197916668,61.64578125L174.69298072916666,71.24249999999999L175.18356788194447,63.208359374999986L175.25162621527778,66.66539062499999L175.258715625,48.343124999999986L175.40759322916668,76.787578125L175.56072447916665,58.838671875L176.0045215277778,77.976796875L176.03004340277778,72.583828125L176.27675486111113,53.874374999999986L176.34339531249998,50.818359375L176.6709260416667,54.73171875L176.85808645833333,38.76023437500001L177.06226145833332,57.732421875L177.39829947916667,62.931796875L177.5500128472222,49.629140625000005L177.7187407986111,63.92742187500001L177.8264998263889,53.307421875L178.27313263888888,58.43765625L178.64461770833333,41.926874999999995L178.68290052083336,52.546875L178.79065954861113,72.4040625L179.01326701388888,50.9428125L179.04304253472222,81.931640625L180.3148826388889,62.627578125000014L180.43823836805558,48.09421875000001L180.5133861111111,73.04015625L180.54032586805556,51.924609375L180.72606840277777,60.52570312499999L181.0649421875,65.254921875L181.18404427083334,70.564921875L181.36978680555555,52.311796875L181.49172465277778,58.465312499999996L181.55836510416668,61.16179687500001L182.01066944444443,77.96296874999999L182.20208350694446,66.485625L182.22051597222224,55.257187499999986L183.4228798611111,42.68742187500001L183.4512375,65.17195312499999L183.54198194444444,49.46320312499999L183.63556215277777,75.0590625L183.74899270833333,29.633671875000005L183.84257291666668,59.59921874999999L183.87660208333335,56.944218750000005L184.04958368055557,65.7665625L184.05525520833334,52.698984374999995L184.22114739583333,34.65328124999999L184.50614166666665,73.80070312500001L184.89464131944445,54.48281250000001L185.0151612847222,59.14289062499999L185.30866284722222,48.688828124999986L185.48164444444444,65.559140625L185.50858420138889,52.71281250000001L185.55112065972224,44.485078125L185.6844015625,73.551796875L186.0232753472222,63.81679687500001L186.29976232638887,77.866171875L186.55781684027778,68.36625L186.96758472222223,47.19539062499999L187.25825052083334,59.765156250000004L187.73040520833334,59.696015625L188.9058293402778,65.51765624999999L188.99090225694442,63.63703124999999L189.15537656249998,61.20328125L189.41626684027779,23.604609374999995L189.4389529513889,67.080234375L189.51693645833333,61.25859375L189.79484131944443,52.17351562500001L189.84163142361112,63.526406249999994L189.9238685763889,70.44046875L190.14222239583333,48.301640625000005L190.2911,47.140078125L190.60586979166666,48.01124999999999L190.8710137152778,59.7928125L190.89653559027778,68.61515625000001L190.903625,51.57890625L191.00996614583332,62.2265625L191.77136875,74.602734375L192.0237517361111,32.440781249999986L192.02516961805557,46.36570312500001L192.1598684027778,54.386015625L192.65612708333333,77.24390625L192.7227675347222,44.76164062500001L193.91945989583334,57.372890625L194.170425,33.422578125L194.26116944444445,66.278203125L194.36609270833333,51.952265624999995L194.41855434027778,54.233906250000004L194.42847951388887,67.48125L194.64257968750002,55.326328125L194.6681015625,52.36710937500001L194.81556128472224,44.042578125000006L194.8368295138889,68.13117187499999L194.9899607638889,58.94929687499999L195.5613671875,57.137812499999995L196.07038680555556,65.29640625L196.09307291666667,61.659609375L196.28590486111113,49.684453125000005L196.34262013888886,48.97921875L196.38657447916665,45.840234374999994L196.50425868055555,52.325625L196.51701961805554,48.343124999999986L196.5638097222222,51.067265625000005L196.80626753472222,35.23406249999999L197.1720810763889,47.015625L197.3478984375,52.75429687500001L198.23974618055556,50.569453124999995L199.00682031250003,57.193124999999995L199.18689131944444,42.300234375L199.2974861111111,68.186484375L199.48748229166665,50.26523437499999L199.5427796875,58.382343750000004L199.6448671875,52.989374999999995L199.67606059027779,53.943515625L199.71717916666665,29.163515625000002L199.74837256944446,60.055546875000005L199.89016076388887,24.862968749999993L200.34813663194444,57.815390625000006L200.36089756944443,73.92515624999999L200.49134270833332,48.2878125L200.6600706597222,56.66765625000001L201.25983472222222,60.027890625L201.32931093750003,51.74484375L201.43565208333334,63.49875L202.06802743055556,47.803828124999995L202.08220624999998,31.38984375000001L202.19138315972222,37.52953124999999L202.38705086805555,37.2253125L203.30016684027777,34.18312499999999L203.81485798611112,52.491562499999986L203.99351111111113,49.532343749999995L204.08992708333332,58.423828125L204.12253836805556,32.68968749999999L204.30544513888887,30.69843750000001L204.31111666666666,40.57171875L204.37350347222224,55.97625000000001L204.83856875,48.92390624999999L204.8669263888889,45.13499999999999L205.2979625,46.35187500000001L205.30079826388888,53.307421875L205.31214131944446,54.966796875L205.55034548611113,61.95L205.69922309027777,49.75359375000001L205.8211609375,48.965390625L206.39114947916667,35.08195312500001L206.52443038194443,57.953671875L206.98382413194443,41.608828125L207.29292239583333,35.662734375000014L207.69134722222222,29.412421875000007L208.89371111111112,59.04609375L209.73735086805556,46.310390625L209.8890642361111,21.32296875L210.1854015625,45.4115625L210.21659496527778,23.217421875000014L210.2293559027778,30.076171875L210.67598871527778,78.557578125L210.75964374999998,38.35921875L211.10844270833334,25.319296874999992L211.6358947916667,28.49976562500001L212.32356753472223,27.670078125000003L212.46251996527778,63.81679687500001L212.49513125000001,39.72820312499999L212.65109826388888,14.630156249999999L213.0637019097222,45.4115625L213.34869618055558,48.384609375L213.67055538194444,54.717890624999995L213.69465937500001,39.09210937500001L213.7612998263889,28.084921874999992L214.10159149305557,49.145156250000014L214.12144184027778,36.13289062499999L214.29016979166667,39.29953125L214.50994149305555,68.546015625L214.69710190972222,62.0053125L214.74672777777778,57.843046875L215.21179305555557,52.03523437499999L215.47410121527778,50.970468749999995L216.502065625,40.696171875000005L216.66653993055553,55.990078125L216.85795399305556,49.767421875L217.1713059027778,31.140937500000007L217.676071875,27.642421874999997L217.72711562499998,34.04484375000001L218.8330635416667,36.298828125L218.88127152777776,44.09789062499999L219.18895190972222,48.57820312499999L219.35342621527778,43.25437500000001L219.70789670138888,55.51992187500001L219.7589404513889,30.22828125000001L220.43527013888888,59.765156250000004L220.48631388888887,37.83375000000001L220.5217609375,60.98203124999999L220.67063854166668,45.56367187500001L220.6975782986111,56.266640624999994L220.95705069444443,41.06953125000001L220.97690104166668,36.768984375L221.30868541666666,47.44429687499999L221.43629479166668,36.96257812499999L221.53412864583333,49.46320312499999L221.88718125,23.54929687500001L222.0814310763889,45.729609374999995L222.21754774305555,41.63648437500001L222.33097829861111,47.70703125L222.40470815972222,47.112421874999995L222.576271875,62.0053125L223.96579618055557,48.93773437499999L224.4067574652778,42.60445312499999L224.4549654513889,38.580468749999994L224.49891979166668,48.93773437499999L224.5570529513889,50.707734375L224.95122413194446,45.425390625000006L224.96398506944445,27.296718749999997L225.05189375,55.907109375000005L225.18375677083333,41.84390625L225.20077135416665,54.690234375L225.46166163194445,71.49140625L225.52263055555557,43.01929687500001L225.54106302083335,54.012656250000006L226.08836545138888,63.02859375L226.39604583333335,60.940546874999995L226.63425,52.242656249999996L226.91640850694446,53.625468749999996L227.3134154513889,62.268046874999996L227.32759427083334,6.250312500000007L227.42117447916667,61.300078125L228.18399496527778,69.182109375L228.32861892361112,58.340859374999994L229.24740642361112,52.090546875L229.49837152777778,41.028046875L229.69545711805554,38.24859375L230.30798211805558,45.508359375L230.5192465277778,34.19695312499999L230.62416979166665,58.299375L230.6312592013889,33.325781250000006L231.54153940972222,35.731875L231.69183489583335,29.163515625000002L232.0519769097222,24.448125000000005L232.20510815972222,30.076171875L232.3639109375,43.420312499999994L232.51278854166668,21.62718749999999L232.62196545138892,52.118203124999994L232.67017343749998,41.595L233.01471875000001,18.142500000000013L233.20755069444445,46.00617187500001L233.23732621527776,67.45359375L233.77186770833333,48.92390624999999L233.94201354166665,46.84968749999999L234.0455189236111,54.39984375L234.72610225694444,22.996171874999987L234.81968246527777,33.11835937500001L235.01251440972223,44.02875L235.54705590277777,40.308984374999994" style="fill: none;" fill="none"></path></g></g></g></g></g></g><g transform="translate(74, 177)" clip-path="url(#clip_1)"><clipPath id="clip_1"><rect width="255" height="23"></rect></clipPath><g><g><line x1="0" y1="0" x2="0" y2="5" style="visibility: inherit;" fill="rgb(0, 0, 0)" stroke="rgb(204, 204, 204)" stroke-width="1px"></line><line x1="28.357638888888886" y1="0" x2="28.357638888888886" y2="5" style="visibility: inherit;" fill="rgb(0, 0, 0)" stroke="rgb(204, 204, 204)" stroke-width="1px"></line><line x1="56.71527777777777" y1="0" x2="56.71527777777777" y2="5" style="visibility: inherit;" fill="rgb(0, 0, 0)" stroke="rgb(204, 204, 204)" stroke-width="1px"></line><line x1="85.07291666666666" y1="0" x2="85.07291666666666" y2="5" style="visibility: inherit;" fill="rgb(0, 0, 0)" stroke="rgb(204, 204, 204)" stroke-width="1px"></line><line x1="113.43055555555554" y1="0" x2="113.43055555555554" y2="5" style="visibility: inherit;" fill="rgb(0, 0, 0)" stroke="rgb(204, 204, 204)" stroke-width="1px"></line><line x1="141.78819444444446" y1="0" x2="141.78819444444446" y2="5" style="visibility: inherit;" fill="rgb(0, 0, 0)" stroke="rgb(204, 204, 204)" stroke-width="1px"></line><line x1="170.14583333333331" y1="0" x2="170.14583333333331" y2="5" style="visibility: inherit;" fill="rgb(0, 0, 0)" stroke="rgb(204, 204, 204)" stroke-width="1px"></line><line x1="198.50347222222223" y1="0" x2="198.50347222222223" y2="5" style="visibility: inherit;" fill="rgb(0, 0, 0)" stroke="rgb(204, 204, 204)" stroke-width="1px"></line><line x1="226.8611111111111" y1="0" x2="226.8611111111111" y2="5" style="visibility: inherit;" fill="rgb(0, 0, 0)" stroke="rgb(204, 204, 204)" stroke-width="1px"></line><line x1="255.21875" y1="0" x2="255.21875" y2="5" style="visibility: inherit;" fill="rgb(0, 0, 0)" stroke="rgb(204, 204, 204)" stroke-width="1px"></line></g><g transform="translate(0, 8)"><text x="0" y="0" dx="0em" dy="0.95em" style="text-anchor: middle; visibility: hidden; font-family: &quot;Helvetica Neue&quot;, sans-serif; font-size: 12px; font-weight: 200;" fill="rgb(50, 49, 63)" stroke="none" stroke-width="1px">-20k</text><text x="28.357638888888886" y="0" dx="0em" dy="0.95em" style="text-anchor: middle; visibility: inherit; font-family: &quot;Helvetica Neue&quot;, sans-serif; font-size: 12px; font-weight: 200;" fill="rgb(50, 49, 63)" stroke="none" stroke-width="1px">0</text><text x="56.71527777777777" y="0" dx="0em" dy="0.95em" style="text-anchor: middle; visibility: hidden; font-family: &quot;Helvetica Neue&quot;, sans-serif; font-size: 12px; font-weight: 200;" fill="rgb(50, 49, 63)" stroke="none" stroke-width="1px">20k</text><text x="85.07291666666666" y="0" dx="0em" dy="0.95em" style="text-anchor: middle; visibility: inherit; font-family: &quot;Helvetica Neue&quot;, sans-serif; font-size: 12px; font-weight: 200;" fill="rgb(50, 49, 63)" stroke="none" stroke-width="1px">40k</text><text x="113.43055555555554" y="0" dx="0em" dy="0.95em" style="text-anchor: middle; visibility: hidden; font-family: &quot;Helvetica Neue&quot;, sans-serif; font-size: 12px; font-weight: 200;" fill="rgb(50, 49, 63)" stroke="none" stroke-width="1px">60k</text><text x="141.78819444444446" y="0" dx="0em" dy="0.95em" style="text-anchor: middle; visibility: inherit; font-family: &quot;Helvetica Neue&quot;, sans-serif; font-size: 12px; font-weight: 200;" fill="rgb(50, 49, 63)" stroke="none" stroke-width="1px">80k</text><text x="170.14583333333331" y="0" dx="0em" dy="0.95em" style="text-anchor: middle; visibility: hidden; font-family: &quot;Helvetica Neue&quot;, sans-serif; font-size: 12px; font-weight: 200;" fill="rgb(50, 49, 63)" stroke="none" stroke-width="1px">100k</text><text x="198.50347222222223" y="0" dx="0em" dy="0.95em" style="text-anchor: middle; visibility: inherit; font-family: &quot;Helvetica Neue&quot;, sans-serif; font-size: 12px; font-weight: 200;" fill="rgb(50, 49, 63)" stroke="none" stroke-width="1px">120k</text><text x="226.8611111111111" y="0" dx="0em" dy="0.95em" style="text-anchor: middle; visibility: hidden; font-family: &quot;Helvetica Neue&quot;, sans-serif; font-size: 12px; font-weight: 200;" fill="rgb(50, 49, 63)" stroke="none" stroke-width="1px">140k</text><text x="255.21875" y="0" dx="0em" dy="0.95em" style="text-anchor: middle; visibility: hidden; font-family: &quot;Helvetica Neue&quot;, sans-serif; font-size: 12px; font-weight: 200;" fill="rgb(50, 49, 63)" stroke="none" stroke-width="1px">160k</text></g><line x1="0" y1="0" x2="255.21875" y2="0" fill="rgb(0, 0, 0)" stroke="rgb(204, 204, 204)" stroke-width="1px"></line></g></g></g></g></svg>