<svg viewBox="0 0 330 200" xmlns="http://www.w3.org/2000/svg"><g><g><g><g><g><line x1="74.78125" y1="177" x2="69.78125" y2="177" style="visibility: inherit;" fill="rgb(0, 0, 0)" stroke="rgb(204, 204, 204)" stroke-width="1px"></line><line x1="74.78125" y1="163.3846153846154" x2="69.78125" y2="163.3846153846154" style="visibility: inherit;" fill="rgb(0, 0, 0)" stroke="rgb(204, 204, 204)" stroke-width="1px"></line><line x1="74.78125" y1="149.76923076923077" x2="69.78125" y2="149.76923076923077" style="visibility: inherit;" fill="rgb(0, 0, 0)" stroke="rgb(204, 204, 204)" stroke-width="1px"></line><line x1="74.78125" y1="136.15384615384616" x2="69.78125" y2="136.15384615384616" style="visibility: inherit;" fill="rgb(0, 0, 0)" stroke="rgb(204, 204, 204)" stroke-width="1px"></line><line x1="74.78125" y1="122.53846153846153" x2="69.78125" y2="122.53846153846153" style="visibility: inherit;" fill="rgb(0, 0, 0)" stroke="rgb(204, 204, 204)" stroke-width="1px"></line><line x1="74.78125" y1="108.92307692307692" x2="69.78125" y2="108.92307692307692" style="visibility: inherit;" fill="rgb(0, 0, 0)" stroke="rgb(204, 204, 204)" stroke-width="1px"></line><line x1="74.78125" y1="95.3076923076923" x2="69.78125" y2="95.3076923076923" style="visibility: inherit;" fill="rgb(0, 0, 0)" stroke="rgb(204, 204, 204)" stroke-width="1px"></line><line x1="74.78125" y1="81.6923076923077" x2="69.78125" y2="81.6923076923077" style="visibility: inherit;" fill="rgb(0, 0, 0)" stroke="rgb(204, 204, 204)" stroke-width="1px"></line><line x1="74.78125" y1="68.07692307692307" x2="69.78125" y2="68.07692307692307" style="visibility: inherit;" fill="rgb(0, 0, 0)" stroke="rgb(204, 204, 204)" stroke-width="1px"></line><line x1="74.78125" y1="54.46153846153847" x2="69.78125" y2="54.46153846153847" style="visibility: inherit;" fill="rgb(0, 0, 0)" stroke="rgb(204, 204, 204)" stroke-width="1px"></line><line x1="74.78125" y1="40.84615384615384" x2="69.78125" y2="40.84615384615384" style="visibility: inherit;" fill="rgb(0, 0, 0)" stroke="rgb(204, 204, 204)" stroke-width="1px"></line><line x1="74.78125" y1="27.230769230769226" x2="69.78125" y2="27.230769230769226" style="visibility: inherit;" fill="rgb(0, 0, 0)" stroke="rgb(204, 204, 204)" stroke-width="1px"></line><line x1="74.78125" y1="13.615384615384613" x2="69.78125" y2="13.615384615384613" style="visibility: inherit;" fill="rgb(0, 0, 0)" stroke="rgb(204, 204, 204)" stroke-width="1px"></line><line x1="74.78125" y1="0" x2="69.78125" y2="0" style="visibility: inherit;" fill="rgb(0, 0, 0)" stroke="rgb(204, 204, 204)" stroke-width="1px"></line></g><g transform="translate(64.78125, 0)"><text x="0" y="177" dx="0em" dy="0.3em" style="text-anchor: end; visibility: hidden; font-family: &quot;Helvetica Neue&quot;, sans-serif; font-size: 12px; font-weight: 200;" fill="rgb(50, 49, 63)" stroke="none" stroke-width="1px">-1e+4</text><text x="0" y="163.3846153846154" dx="0em" dy="0.3em" style="text-anchor: end; visibility: inherit; font-family: &quot;Helvetica Neue&quot;, sans-serif; font-size: 12px; font-weight: 200;" fill="rgb(50, 49, 63)" stroke="none" stroke-width="1px">0</text><text x="0" y="149.76923076923077" dx="0em" dy="0.3em" style="text-anchor: end; visibility: hidden; font-family: &quot;Helvetica Neue&quot;, sans-serif; font-size: 12px; font-weight: 200;" fill="rgb(50, 49, 63)" stroke="none" stroke-width="1px">1e+4</text><text x="0" y="136.15384615384616" dx="0em" dy="0.3em" style="text-anchor: end; visibility: inherit; font-family: &quot;Helvetica Neue&quot;, sans-serif; font-size: 12px; font-weight: 200;" fill="rgb(50, 49, 63)" stroke="none" stroke-width="1px">2e+4</text><text x="0" y="122.53846153846153" dx="0em" dy="0.3em" style="text-anchor: end; visibility: hidden; font-family: &quot;Helvetica Neue&quot;, sans-serif; font-size: 12px; font-weight: 200;" fill="rgb(50, 49, 63)" stroke="none" stroke-width="1px">3e+4</text><text x="0" y="108.92307692307692" dx="0em" dy="0.3em" style="text-anchor: end; visibility: inherit; font-family: &quot;Helvetica Neue&quot;, sans-serif; font-size: 12px; font-weight: 200;" fill="rgb(50, 49, 63)" stroke="none" stroke-width="1px">4e+4</text><text x="0" y="95.3076923076923" dx="0em" dy="0.3em" style="text-anchor: end; visibility: hidden; font-family: &quot;Helvetica Neue&quot;, sans-serif; font-size: 12px; font-weight: 200;" fill="rgb(50, 49, 63)" stroke="none" stroke-width="1px">5e+4</text><text x="0" y="81.6923076923077" dx="0em" dy="0.3em" style="text-anchor: end; visibility: inherit; font-family: &quot;Helvetica Neue&quot;, sans-serif; font-size: 12px; font-weight: 200;" fill="rgb(50, 49, 63)" stroke="none" stroke-width="1px">6e+4</text><text x="0" y="68.07692307692307" dx="0em" dy="0.3em" style="text-anchor: end; visibility: hidden; font-family: &quot;Helvetica Neue&quot;, sans-serif; font-size: 12px; font-weight: 200;" fill="rgb(50, 49, 63)" stroke="none" stroke-width="1px">7e+4</text><text x="0" y="54.46153846153847" dx="0em" dy="0.3em" style="text-anchor: end; visibility: inherit; font-family: &quot;Helvetica Neue&quot;, sans-serif; font-size: 12px; font-weight: 200;" fill="rgb(50, 49, 63)" stroke="none" stroke-width="1px">8e+4</text><text x="0" y="40.84615384615384" dx="0em" dy="0.3em" style="text-anchor: end; visibility: hidden; font-family: &quot;Helvetica Neue&quot;, sans-serif; font-size: 12px; font-weight: 200;" fill="rgb(50, 49, 63)" stroke="none" stroke-width="1px">9e+4</text><text x="0" y="27.230769230769226" dx="0em" dy="0.3em" style="text-anchor: end; visibility: inherit; font-family: &quot;Helvetica Neue&quot;, sans-serif; font-size: 12px; font-weight: 200;" fill="rgb(50, 49, 63)" stroke="none" stroke-width="1px">1e+5</text><text x="0" y="13.615384615384613" dx="0em" dy="0.3em" style="text-anchor: end; visibility: hidden; font-family: &quot;Helvetica Neue&quot;, sans-serif; font-size: 12px; font-weight: 200;" fill="rgb(50, 49, 63)" stroke="none" stroke-width="1px">1.1e+5</text><text x="0" y="0" dx="0em" dy="0.3em" style="text-anchor: end; visibility: hidden; font-family: &quot;Helvetica Neue&quot;, sans-serif; font-size: 12px; font-weight: 200;" fill="rgb(50, 49, 63)" stroke="none" stroke-width="1px">1.2e+5</text></g><line x1="74.78125" y1="0" x2="74.78125" y2="177" fill="rgb(0, 0, 0)" stroke="rgb(204, 204, 204)" stroke-width="1px"></line></g></g><g transform="translate(74, 0)" clip-path="url(#clip_0)"><clipPath id="clip_0"><rect width="255" height="177"></rect></clipPath><g><g><g><line x1="0" y1="0" x2="0" y2="177" fill="rgb(0, 0, 0)" stroke="rgb(60, 60, 60)" stroke-width="1px" opacity="0.25"></line><line x1="31.90234375" y1="0" x2="31.90234375" y2="177" fill="rgb(0, 0, 0)" stroke="rgb(60, 60, 60)" stroke-width="1px" opacity="0.25"></line><line x1="63.8046875" y1="0" x2="63.8046875" y2="177" fill="rgb(0, 0, 0)" stroke="rgb(60, 60, 60)" stroke-width="1px" opacity="0.25"></line><line x1="95.70703125" y1="0" x2="95.70703125" y2="177" fill="rgb(0, 0, 0)" stroke="rgb(60, 60, 60)" stroke-width="1px" opacity="0.25"></line><line x1="127.609375" y1="0" x2="127.609375" y2="177" fill="rgb(0, 0, 0)" stroke="rgb(60, 60, 60)" stroke-width="1px" opacity="0.25"></line><line x1="159.51171875" y1="0" x2="159.51171875" y2="177" fill="rgb(0, 0, 0)" stroke="rgb(60, 60, 60)" stroke-width="1px" opacity="0.25"></line><line x1="191.4140625" y1="0" x2="191.4140625" y2="177" fill="rgb(0, 0, 0)" stroke="rgb(60, 60, 60)" stroke-width="1px" opacity="0.25"></line><line x1="223.31640625" y1="0" x2="223.31640625" y2="177" fill="rgb(0, 0, 0)" stroke="rgb(60, 60, 60)" stroke-width="1px" opacity="0.25"></line><line x1="255.21875" y1="0" x2="255.21875" y2="177" fill="rgb(0, 0, 0)" stroke="rgb(60, 60, 60)" stroke-width="1px" opacity="0.25"></line></g><g><line x1="0" y1="177" x2="255.21875" y2="177" fill="rgb(0, 0, 0)" stroke="rgb(60, 60, 60)" stroke-width="1px" opacity="0.25"></line><line x1="0" y1="163.3846153846154" x2="255.21875" y2="163.3846153846154" fill="rgb(0, 0, 0)" stroke="rgb(60, 60, 60)" stroke-width="1px" opacity="0.25"></line><line x1="0" y1="149.76923076923077" x2="255.21875" y2="149.76923076923077" fill="rgb(0, 0, 0)" stroke="rgb(60, 60, 60)" stroke-width="1px" opacity="0.25"></line><line x1="0" y1="136.15384615384616" x2="255.21875" y2="136.15384615384616" fill="rgb(0, 0, 0)" stroke="rgb(60, 60, 60)" stroke-width="1px" opacity="0.25"></line><line x1="0" y1="122.53846153846153" x2="255.21875" y2="122.53846153846153" fill="rgb(0, 0, 0)" stroke="rgb(60, 60, 60)" stroke-width="1px" opacity="0.25"></line><line x1="0" y1="108.92307692307692" x2="255.21875" y2="108.92307692307692" fill="rgb(0, 0, 0)" stroke="rgb(60, 60, 60)" stroke-width="1px" opacity="0.25"></line><line x1="0" y1="95.3076923076923" x2="255.21875" y2="95.3076923076923" fill="rgb(0, 0, 0)" stroke="rgb(60, 60, 60)" stroke-width="1px" opacity="0.25"></line><line x1="0" y1="81.6923076923077" x2="255.21875" y2="81.6923076923077" fill="rgb(0, 0, 0)" stroke="rgb(60, 60, 60)" stroke-width="1px" opacity="0.25"></line><line x1="0" y1="68.07692307692307" x2="255.21875" y2="68.07692307692307" fill="rgb(0, 0, 0)" stroke="rgb(60, 60, 60)" stroke-width="1px" opacity="0.25"></line><line x1="0" y1="54.46153846153847" x2="255.21875" y2="54.46153846153847" fill="rgb(0, 0, 0)" stroke="rgb(60, 60, 60)" stroke-width="1px" opacity="0.25"></line><line x1="0" y1="40.84615384615384" x2="255.21875" y2="40.84615384615384" fill="rgb(0, 0, 0)" stroke="rgb(60, 60, 60)" stroke-width="1px" opacity="0.25"></line><line x1="0" y1="27.230769230769226" x2="255.21875" y2="27.230769230769226" fill="rgb(0, 0, 0)" stroke="rgb(60, 60, 60)" stroke-width="1px" opacity="0.25"></line><line x1="0" y1="13.615384615384613" x2="255.21875" y2="13.615384615384613" fill="rgb(0, 0, 0)" stroke="rgb(60, 60, 60)" stroke-width="1px" opacity="0.25"></line><line x1="0" y1="0" x2="255.21875" y2="0" fill="rgb(0, 0, 0)" stroke="rgb(60, 60, 60)" stroke-width="1px" opacity="0.25"></line></g></g></g><g><g><line x1="0" y1="163.3846153846154" x2="255.21875" y2="163.3846153846154" fill="rgb(0, 0, 0)" stroke="rgb(153, 153, 153)" stroke-width="1.5px"></line></g></g><g><g><line x1="31.90234375" y1="0" x2="31.90234375" y2="177" fill="rgb(0, 0, 0)" stroke="rgb(153, 153, 153)" stroke-width="1.5px"></line></g></g><g><g><g><g><g><path stroke="rgb(255, 112, 67)" stroke-width="2px" d="M32.4207568359375,158.37185625L32.58505390625,158.3443329627404L32.6026001953125,158.2864778895212L32.693521874999995,158.26830564992224L32.7062828125,158.28858189792078L32.7972044921875,158.29328026903195L32.958311328125,158.24232372349684L33.012545312499995,158.27883703678094L33.0269013671875,158.35491749549533L33.05720859375,158.37892547204305L33.105062109375005,158.44615457304042L33.13377421875,158.36994300166805L33.156105859374996,158.44061348617362L33.213530078125,158.52173983876918L33.296476171875,158.36136561309328L33.328378515625,158.3208409161628L33.3650662109375,158.29074589792413L33.3905880859375,158.1929489526548L33.4480123046875,158.17590871784495L33.4575830078125,158.13591751856538L33.4990560546875,158.26552566203898L33.510221875,158.35280260366966L33.538933984375,158.2823903330579L33.5564802734375,158.31295194080113L33.5740265625,158.27791635333503L33.7191822265625,158.22636251252112L33.73991875,158.22778385512126L33.822864843750004,158.34348249950725L33.8755037109375,158.22526455230002L33.9233572265625,158.1413991936088L34.1753857421875,158.0583179666835L34.1945271484375,158.10212607195817L34.374775390625,158.1371588179247L34.5199310546875,158.13152634828575L34.591711328125,158.07254503872676L34.6028771484375,158.1695658703906L34.62680390625,158.07674971396764L34.815027734375,158.2395529059082L34.821408203124996,158.159554051059L34.9314712890625,158.215423103787L35.001656445312506,158.22287107381663L35.143621874999994,158.33961572126924L35.178714453125004,158.30907885582965L35.2313533203125,158.28301298657018L35.2664458984375,158.1539402919287L35.2760166015625,157.94818869437515L35.293562890625005,158.03249148585903L35.319084765625,158.10349623767084L35.3462017578125,158.2140909156809L35.422767382812495,158.1337249340233L35.440313671875,158.27562717195312L35.459455078124996,158.1122707262483L35.4865720703125,158.23509839728766L35.523259765625,158.12641692298786L35.5376158203125,158.049413711485L35.574303515625,157.7759710153524L35.6492740234375,157.77588568613453L35.6620349609375,158.0125890078346L35.6684154296875,158.1167432123931L35.8024052734375,158.22333256205124L35.8406880859375,158.3487596333846L35.9013025390625,158.4534421261846L36.001794921875,158.4877103718646L36.0352923828125,158.389136703888L36.046458203125,158.25005317617894L36.091121484375,158.25828565570737L36.127809179687496,158.04018812419366L36.2171357421875,158.03527191297772L36.225111328124996,158.1381137247097L36.231491796875,157.94224977328736L36.266584375,158.04378592166472L36.31124765625,157.91751309146036L36.3383646484375,157.83608198949162L36.5090421875,157.46375582831035L36.627080859375,157.35444003544774L36.80892421875,157.55659709819173L36.8264705078125,157.71992883583812L36.8551826171875,157.59693316688748L36.879109375,157.6689905732094L36.882299609374996,157.7935769400795L36.952484765625,157.67798568327845L37.025860156250005,157.45634285227476L37.150279296875006,157.3674709998264L37.1582548828125,157.31596894604968L37.175801171875,157.4902005022452L37.204513281249994,157.3315710705779L37.3257421875,157.2917059115775L37.418258984375,157.43908537386957L37.4326150390625,157.64365228201405L37.4389955078125,157.04327934997767L37.51077578125,157.15178222537122L37.5554390625,157.10714395060734L37.593721875,157.15364579344134L37.673477734375005,157.09587209144942L37.6910240234375,157.14882287025426L37.7261166015625,156.9444515106141L37.746853125,157.16451090636846L37.754828710937495,156.93194356305185L37.756423828125,157.15161104167726L37.7803505859375,157.25678494231406L37.7835408203125,157.08038615769613L37.785135937499994,156.80506938692537L37.842560156249995,156.9195393244629L37.8951990234375,156.59550253698544L38.25091015625,156.5421528683451L38.450299804687496,156.96933893254553L38.461465625,157.0725796095273L38.5507921875,156.8029213234087L38.6784015625,156.6302851017375L38.692757617187496,156.5437055802733L38.694352734375,156.55797969431782L38.732635546874995,156.8067365665907L38.8267474609375,156.6080835745698L38.865030273437505,156.79680370243418L38.9352154296875,156.82883702915282L38.94000078125,156.93425942903016L38.968712890625,156.98505479203348L38.975093359375,156.82156383675854L39.0245419921875,156.78827849436283L39.0309224609375,156.66139248123307L39.16969765625,156.54723991181677L39.1904341796875,156.79083000478238L39.2350974609375,156.46189223363865L39.2701900390625,156.59902553249088L39.28454609375,156.53117887718685L39.319638671875,156.34529684554286L39.326019140625,156.59432003040266L39.3339947265625,156.43502211439542L39.3818482421875,156.41902528786804L39.4009896484375,156.32477353810543L39.4328919921875,156.6600392190171L39.4488431640625,156.60570593525642L39.554120898437496,156.41433356115385L39.6051646484375,156.60810282900002L39.734369140625,156.26103285124617L39.9529001953125,156.27130076844L40.195358007812494,156.55948719183323L40.212904296874996,156.7206557766384L40.289469921874996,156.66859183136765L40.3118015625,156.6566532718975L40.3325380859375,156.5350698477539L40.386772070312496,156.6609214278831L40.4218646484375,156.7120608374991L40.5590447265625,156.8420176563456L40.672298046875,156.56270703611506L40.686654101562496,156.67813345243826L40.6898443359375,156.7825169945399L40.8780681640625,156.76445894672392L40.8844486328125,156.72620613726514L40.8876388671875,156.73091070158983L40.921136328125,156.77793238249237L41.0375798828125,156.73740471795696L41.080648046875005,156.61444465769725L41.0886236328125,156.5617554484645L41.1300966796875,156.676966826771L41.13488203125,156.71028519221645L41.1795453125,156.59836015379142L41.246540234375,156.73475513073637L41.2704669921875,156.82433586690337L41.3183205078125,156.80922450091126L41.3853154296875,156.52919450823907L41.404456835937495,156.44822987802036L41.4778322265625,156.58560321527375L41.65808046875,156.49182712147194L41.6692462890625,156.66731233057547L41.7713337890625,156.75674153296066L41.81121171875,156.72884290054563L42.063240234375,156.800059105712L42.127044921875,156.7836640211195L42.229132421875,156.76795533574864L42.299317578125006,156.75776425914148L42.33441015625,156.76938365163875L42.524229101562504,156.65182557559862L42.631101953125004,156.4558760184361L42.632697070312496,156.58043888029243L42.6342921875,156.43236082817546L42.7443552734375,156.41409274690528L42.854418359374996,156.53629035968163L42.89589140625,156.5592320042705L42.9293888671875,156.5707674717931L43.026691015625,156.68824567538354L43.055403125,156.68657105907627L43.0936859375,156.75408571236883L43.146324804687495,156.73482296588284L43.1702515625,156.68774618337585L43.179822265625,156.71028549848705L43.281909765625,156.611839568323L43.3026462890625,156.55735018330148L43.310621874999995,156.5682257830578L43.44461171875,156.5386363352193L43.447801953125,156.4851933395931L43.4844896484375,156.47589927298665L43.54031875,156.52000196763814L43.7907521484375,156.49508252673672L43.79713261718749,156.51078249681126L44.041185546875,156.40302507500985L44.2629068359375,156.23472350654436L44.2756677734375,156.35051650777277L44.323521289062505,156.3990926931252L44.333091992187505,156.3716324427982L44.45910625,156.34834860029432L44.634569140625,156.35669050633044L44.666471484374995,156.3520627653367L44.83555390625,156.29914746689434L44.945616992187496,156.29558213398275L45.0381337890625,156.30859004962042L45.1051287109375,156.3127526836184L45.2008357421875,156.3113188217095L45.2359283203125,156.34350985071802L45.2582599609375,156.30089148735388L45.3220646484375,156.29416075779693L45.32685,156.22037751237048L45.425747265625,156.22365929588383L45.454459375,156.1763066352226L45.4879568359375,156.24131359651818L45.53740546875,156.2022335425263L45.5693078125,156.17596031782347L45.661824609375,156.1627833060787L45.763912109375006,156.13826632980107L45.8931166015625,156.18143854788065L45.923423828125,156.148812744113L45.993608984375,155.87663783877548L46.216925390625,155.90627991480375L46.287110546875006,155.9690980450361L46.3397494140625,155.86135959625244L46.532758593749996,155.9372783539053L46.6172998046875,155.84133172388164L46.6555826171875,155.89467807279053L46.8198796875,155.9579161705974L46.906016015625,156.01575451005073L47.0065083984375,155.93586703295352L47.03043515625,155.84565026784904L47.2266345703125,155.66837756455558L47.5265166015625,155.78191942334874L47.646150390625,155.52790453862463L47.703574609375,155.685551953944L47.754618359374994,155.5668724223664L48.343216601562496,155.6511694149583L48.373523828125,155.72780405282114L48.5856744140625,155.26530127784653L48.686166796875,155.35207922824637L48.7084984375,155.56460330617858L48.8440833984375,155.54194006063022L49.2699796875,155.479905382532L49.515627734375,155.50339217182687L49.7213978515625,155.40840799540382L49.9989482421875,155.53993950878075L50.211098828125,155.6938791860377L50.332327734375006,155.45527001162262L50.3785861328125,155.58819046851204L50.498219921875,155.63788678110723L50.5795708984375,155.64088226097203L50.62901953125,155.66274522196784L50.785341015625,155.56636126779608L50.869882226562495,155.60659570298535L51.123505859375,155.67064646025273L51.137861914062505,155.57016595307473L51.15221796875,155.25016418722944L51.276637109374995,155.4484481277223L51.326085742187495,155.4883641650949L51.850879296875,155.57264696059542L51.9418009765625,155.65796990712647L52.090146875,155.73276934812205L52.19861484375,155.74037689733476L52.4203361328125,155.72948796532393L52.6659841796875,155.70974768304052L52.83028125,155.6667923598243L52.929178515625,155.6832779158946L52.999363671875,155.6589605956906L53.1508998046875,155.08193568433742L53.216299609375,155.04771727598708L53.2848896484375,155.2709867117461L53.292865234375,155.43622971935534L53.682073828125006,155.52950388930552L54.0282142578125,155.17921935281407L54.0425703125,155.21155565015L54.0473556640625,155.39839262085923L54.061711718750004,155.26167364943862L54.178155273437504,155.15479418966316L54.3312865234375,155.34954603302867L54.415827734375,155.4173306967403L54.48282265625,155.4997326488134L55.181483984375,155.42675449313418L55.302712890625,155.28253711895744L55.379278515625,155.20815842522063L55.4127759765625,155.359967170517L55.602594921874996,154.92754087923328L55.9646865234375,155.0253187583092L56.3730365234375,155.1415785626778L56.384202343750005,154.94603867606824L56.46076796875,155.06729032102555L56.5437140625,154.96695573107687L56.776601171875,154.97438940018458L56.97120546875,154.7322239285723L56.999917578125,154.67501618406646L57.006298046874996,155.05058269120912L57.025439453125,155.07337673011008L57.1450732421875,154.64976103806606L57.1929267578125,155.03437441130117L57.2248291015625,155.28057887754994L57.369984765625,155.2627384803761L57.4002919921875,154.74353366514873L57.577349999999996,154.70065933370464L57.5885158203125,154.41617435022278L57.62201328125,154.47599182167212L57.77514453125,154.64929557377252L57.8979685546875,154.8863682096481L57.9266806640625,155.0381765988658L58.0383388671875,155.15814326701178L58.1515921875,155.01319615251475L58.197850585937495,155.01151124920116L58.322269726562496,154.77092059567454L58.4211669921875,154.95423745355856L58.679575976562504,154.88210477982744L58.741785546875,154.84840700251186L58.78325859375,155.13014352843018L58.893321679687496,155.05826121321195L58.96191171875,154.8569550933118L59.194798828124995,154.982916229064L59.201179296875,154.48137079513072L59.252223046874995,154.53766016938613L59.335169140625005,154.09736312086244L59.344739843750006,154.5357217186713L59.4388517578125,154.29222755043355L59.4707541015625,153.90932547256782L59.5887927734375,154.03271624507917L59.7100216796875,154.5012224393552L59.7594703125,154.46586206938235L59.807323828125,154.56983079932172L59.88548457031251,154.3181561719007L59.9110064453125,154.13774216467888L59.970025781249994,154.37964741419196L60.013093945312505,154.1764239292844L60.03383046875,154.23863791526296L60.075303515625,153.9531625568501L60.0928498046875,153.9572605148793L60.1757958984375,154.24201727046602L60.35285390625,154.10644007381808L60.40389765625,153.97878442890624L60.568194726562496,153.8990424842668L60.789916015624996,154.25245972132933L60.828198828125004,154.1123481404899L60.968569140625,153.98360571121702L61.116915039062505,154.28999073442253L61.1296759765625,152.8298321329612L61.156792968750004,152.69063562593055L61.1871001953125,153.51866772171218L61.2700462890625,153.41457197918115L61.3147095703125,153.2796806875087L61.3338509765625,153.717151681736L61.4423189453125,153.2042381244262L61.493362695312506,153.63173777850187L61.7230595703125,153.73370295556268L61.785269140625005,154.12214485026067L61.786864257812496,154.22591489092565L61.8283373046875,153.90679297301693L61.8570494140625,154.24049924534862L61.903307812499996,153.68597118182456L61.979873437500004,153.52375299755627L62.0644146484375,153.49557122161067L62.1122681640625,153.33964907912025L62.3419650390625,153.0310918513183L62.3898185546875,153.39081116848328L62.4408623046875,153.99605977801306L62.5333791015625,153.66523278988475L62.667368945312504,153.53760467393084L62.6801298828125,152.8207813620508L62.831666015625004,153.40096593261512L62.8396416015625,152.76031042495367L62.849212304687505,153.15752529343374L62.927373046875,153.56175767606024L62.976821679687504,154.15167662486692L63.0055337890625,153.7772219364586L63.043816601562504,154.29880835418285L63.1299529296875,154.6138705894328L63.29425,154.49242610365968L63.3835765625,154.42180595065733L63.4744982421875,153.2268575127021L63.519161523437496,154.1248772960828L63.6403904296875,153.81534858918815L63.675483007812495,154.16837511505133L63.7026,154.31369689595388L63.96579433593751,153.98282957988002L63.986530859375,154.55252322869725L63.9976966796875,154.35275345644914L64.0088625,154.1394900546387L64.0359794921875,153.3074294173986L64.0902134765625,153.46979861197764L64.2114423828125,153.26278012872504L64.369358984375,153.33517519261963L64.3773345703125,153.51885069249485L64.5655583984375,153.62071656934307L64.71868964843749,154.0142046531443L64.752187109375,153.99065211880966L64.82237226562499,153.0123641559012L64.88298671874999,152.78742445507916L64.905318359375,153.1008152499706L64.91488906250001,153.40886934229005L64.96433769531251,153.69945929768173L65.1557517578125,153.69100971322442L65.18286875,153.5143350587039L65.3439755859375,154.10080872753002L65.412565625,154.05624696728725L65.43170703125,153.89919366114157L65.5098677734375,153.67542831206956L65.84962773437499,153.13175448724172L65.85281796875,153.74126750003734L65.94054941406249,153.89532415386856L65.9852126953125,153.723534588475L65.99956875,153.84611883000807L66.021900390625,153.66455110569714L66.0330662109375,153.91309941341828L66.06975390625,153.8328772442048L66.162270703125,153.3792607695998L66.18938769531249,153.5344948271445L66.232455859375,153.3853324732098L66.34251894531249,154.16092256084895L66.449391796875,154.45208478650937L66.59295234375,153.87911029498255L66.6168791015625,153.89147002314337L66.7093958984375,153.5504681677322L66.90719042968749,153.26601282371624L67.0332046875,153.6073461557682L67.12572148437499,153.68668038576863L67.15762382812501,153.57428313530733L67.176765234375,153.94192440041516L67.419223046875,153.73723262101834L67.5420470703125,153.54581303414946L67.5675689453125,153.1730008012589L67.581925,153.61165086537073L67.70953437499999,153.5889518653763L67.8610705078125,153.96282631153346L67.9009484375,153.93499405615086L68.0285578125,153.61800739522897L68.06046015625,153.6784576102143L68.15297695312499,153.44987446997473L68.2056158203125,153.34952016275406L68.3077033203125,152.68343998226783L68.3459861328125,152.77382658551454L68.37948359375001,153.10926729746257L68.5342099609375,153.17585855155448L68.5565416015625,153.44890868862498L68.56770742187501,153.52131146317498L68.59163417968749,152.5836795702127L68.63470234375,152.963131876743L68.67617539062499,153.50234027989194L68.76869218750001,152.91130291793516L68.8468529296875,152.86202251999188L68.8532333984375,153.63700437737975L69.00476953124999,153.94301685719708L69.07016933593749,153.66336088354902L69.08133515625,153.78237537628326L69.205754296875,153.79527195653918L69.20894453125,154.1993537508466L69.2679638671875,153.1449714812772L69.339744140625,153.01095452338168L69.422690234375,153.24116232941364L69.460973046875,153.08626691687894L69.54072890625001,153.58326726551198L69.6858845703125,153.5759212246918L69.7145966796875,153.06001763866124L69.716191796875,153.39014327550444L69.78797207031249,153.3985733691488L70.28724374999999,153.04794652148928L70.379760546875,153.60963079750894L70.47546757812499,153.2219795361977L70.51056015625,154.0551670486417L70.5504380859375,154.2188306138004L70.628598828125,153.78604577212639L70.63816953125,153.5121127517374L70.64455,152.70127745873472L70.78173007812501,152.93069022524082L70.9332662109375,152.55891826975989L71.0162123046875,152.90936913493286L71.062470703125,153.00983157711354L71.09437304687499,153.52666692703735L71.1023486328125,153.67389409853013L71.119894921875,152.88907578604113L71.12468027343749,152.30868306777853L71.2714310546875,152.46673551374403L71.48039140625,153.1937122697849L71.496342578125,153.07175265033248L71.5170791015625,153.3930826478918L71.55217167968749,153.1581363195043L71.5904544921875,153.2661939070872L71.65904453125,153.5453175942523L71.6797810546875,153.36655257578215L71.713278515625,152.94345068008468L71.7403955078125,152.59685175420466L71.8456732421875,152.52783739867664L72.0338970703125,152.3556359968983L72.1997892578125,152.02517650198513L72.242857421875,152.9658107088834L72.542739453125,152.52704373302234L72.638446484375,153.16016941289033L72.66715859375,152.92852684004188L72.71501210937501,152.63951677710205L72.864953125,152.65800256626125L73.0196794921875,152.80189509744906L73.1058158203125,153.07809715462326L73.1472888671875,152.8255537735432L73.16483515625,152.392240341049L73.174405859375,151.99145218539863L73.2079033203125,152.8222717920084L73.538092578125,151.79550009443582L73.5412828125,151.51844313358458L73.5556388671875,152.19169953399688L73.69122382812499,152.23613914347507L73.7199359375,152.66571617839273L73.89220859375,153.13033114934333L73.99589121093749,152.044259939606L74.010247265625,151.85705500222514L74.07086171875001,152.28024213595046L74.1282859375,152.07982605080105L74.21601738281251,152.234471015096L74.26546601562501,152.7008471282884L74.3244853515625,152.88621606543455L74.3850998046875,153.42080781233767L74.57332363281249,152.24484064894105L74.9194640625,152.1542332355185L74.9529615234375,151.653454364388L74.98805410156251,151.55012079170973L74.99762480468749,152.4181875711797L75.114068359375,152.0262522542463L75.1188537109375,153.1127364487016L75.1762779296875,152.34939283075943L75.2368923828125,152.4495493523018L75.27677031249999,151.7437438421503L75.382048046875,151.51761553605942L75.43787714843751,151.8425129754818L75.55272558593751,151.08194076605832L75.7824224609375,150.9630717673273L75.790398046875,151.03969854116562L75.80634921875,151.0692340285455L75.927578125,151.26356387866576L75.9770267578125,152.48270159643025L76.02966562499999,152.45449682324275L76.06156796875,151.36743876702258L76.131753125,151.15555951021355L76.1429189453125,151.37999820612814L76.14451406250001,151.00662036598456L76.16046523437501,150.8313877965138L76.1700359375,150.7204106586775L76.233840625,150.37110091443728L76.31678671875,151.4611035294316L76.428444921875,151.54431413688974L76.4970349609375,151.8221280013646L76.76341953125001,150.7092424738957L76.8192486328125,151.58755509972204L76.8639119140625,151.39204229060243L76.95802382812501,150.588468162823L76.9659994140625,151.1834537823092L76.9723798828125,151.73056698092398L76.999496875,152.19606095778516L77.0872283203125,151.03289244005572L77.28661796875001,150.68560450249495L77.2945935546875,151.60332616303543L77.32490078125,151.75325839012896L77.359993359375,151.4669055148466L77.411037109375,150.67263244352336L77.5179099609375,150.8638521584217L77.5593830078125,150.67237398736071L77.6901826171875,150.58436045010873L77.851289453125,150.9419030008345L77.857669921875,150.74393343511608L77.8815966796875,151.45019294568502L78.0634400390625,151.8976224020264L78.09374726562501,151.9587688258312L78.1623373046875,151.68871908396028L78.163932421875,151.9234926042223L78.36651230468749,151.69299710099494L78.3856537109375,151.0052679721354L78.387248828125,150.90767347558895L78.55633125,151.04080437381492L78.72860390625,150.52919656659662L78.83069140625,150.35445428611183L78.89130585937501,150.3197621870517L79.0029640625,148.88338942761564L79.0077494140625,149.6043372142617L79.0332712890625,151.0673352131724L79.0875052734375,150.15009872405727L79.2948705078125,150.204671349819L79.3395337890625,150.22616521373754L79.3602703125,149.95089191670405L79.4878796875,148.90499976540704L79.5022357421875,149.66133216693655L79.6649376953125,150.06822660785423L79.80052265625,149.18614971471254L79.8116884765625,148.44792444421213L79.8148787109375,147.9257307242196L79.816473828125,148.9660049729933L79.82604453125,147.9142688491806L79.8308298828125,148.25529755950834L80.2327994140625,149.39952949724346L80.26948710937499,148.9353644291153L80.2742724609375,148.42348067669997L80.40347695312501,147.45137504063536L80.4066671875,147.3455691589966L80.41145253906251,146.7538087069364L80.435379296875,146.92352339723877L80.460901171875,147.17896778834327L80.5326814453125,148.29892673069827L80.5518228515625,148.67492065380358L80.55341796875,148.64109287305138L80.722500390625,147.77500851229235L81.031953125,147.89703395352927L81.188274609375,147.1714856605791L81.29355234375,146.23429360788592L81.3015279296875,145.16552010703924L81.3174791015625,145.5976759103774L81.3844740234375,146.3637340077649L81.49134687499999,147.05038838542816L81.70190234374999,147.61184389664152L81.72104374999999,146.9330265302926L81.75294609375001,147.3202788989448L81.79760937500001,148.03010483936689L81.80079960937499,147.0138588651586L81.80398984375,147.31675051140286L81.851843359375,147.16890809530324L81.88215058593751,146.82317822256655L82.1086572265625,146.55784087584763L82.145344921875,145.83322558320089L82.1979837890625,146.8433040037667L82.25221777343751,148.02260980610617L82.2809298828125,146.1880137682791L82.3032615234375,146.51333153019823L82.44044160156251,147.55813920658048L82.4532025390625,147.98879208164058L82.540933984375,145.95309361436898L82.716396875,147.35426991862138L82.7530845703125,145.23274454732666L82.8615525390625,145.4239086514729L82.93971328125001,145.23443942165298L82.9476888671875,145.34602442222257L82.9540693359375,146.61640523025662L83.02265937499999,145.77663054200013L83.1550541015625,146.26902044058468L83.1837662109375,147.01119216819697L83.319351171875,146.55211030091817L83.408677734375,147.2226240651663L83.5825455078125,146.91728972756133L83.6208283203125,146.5305391249983L83.6335892578125,146.67105674422976L83.7069646484375,145.13437068115326L83.7516279296875,145.18245519715347L83.80745703125,144.89784571444594L83.8696666015625,146.75098992866756L83.92868593749999,145.31855251489284L84.17114375,145.15839323970494L84.3354408203125,144.14628863613066L84.502928125,145.2453058739861L84.5045232421875,145.2980742455455L84.5332353515625,144.5787191627119L84.61139609375,144.38273736301176L84.7597419921875,144.55459434088397L84.8586392578125,143.33339112376115L84.9415853515625,143.72972496271825L84.9639169921875,142.0464625737848L85.04845820312501,142.99667802504013L85.1298091796875,144.10893787271635L85.239872265625,144.56770608901445L85.268584375,144.29814740340868L85.2925111328125,144.5036871920452L85.370671875,143.62217866138096L85.444047265625,144.2123730622132L85.57006152343749,144.71343374117407L85.72000253906249,145.01778034085828L85.731168359375,144.62156426220727L85.7519048828125,145.46230923040127L85.79975839843749,145.10696169208694L85.9784115234375,143.89407759217522L86.062952734375,143.55314318992052L86.0773087890625,143.2604569716446L86.0900697265625,144.67508812529445L86.120376953125,144.217708932869L86.340503125,145.16007132125986L86.35964453125,144.4322654850636L86.3803810546875,145.79967150257662L86.40271269531249,144.83986953616136L86.509585546875,144.95422027938912L86.5303220703125,145.7065953407104L86.55105859375,146.90724095442624L86.73609218749999,146.4674784188096L86.898794140625,145.688448782055L86.937076953125,145.11372475000223L87.313524609375,143.50859927307826L87.38051953125,142.70142014077004L87.3853048828125,143.55320737292357L87.626167578125,142.52380105836951L87.6596650390625,144.27114957732942L87.80163046875,144.66998570793612L87.8606498046875,144.3359265209155L88.1445806640625,144.3210006240878L88.178078125,143.02619114368343L88.23390722656251,142.21819430159468L88.238692578125,141.34343456172604L88.2626193359375,141.80043516011256L88.442867578125,142.48491811529829L88.48115039062499,144.22819663840974L88.538574609375,142.75853423304585L88.5497404296875,142.0479332321352L88.637471875,141.36985820851189L88.678944921875,142.84699098279944L88.68213515625,142.94905853198736L88.77624707031251,142.54175963842317L88.82250546875,140.71867645613082L88.9309734375,141.66944885444772L88.994778125,141.61692335113017L89.01391953125,142.2261820876012L89.0633681640625,142.1277250217915L89.291469921875,142.0607708784595L89.3313478515625,142.17618820015264L89.597732421875,140.8100707085531L89.6471810546875,140.12755819436262L89.74288808593751,139.72707087815604L90.0778626953125,139.86824752689364L90.1863306640625,138.71114534305926L90.363388671875,137.54871903275864L90.52449550781249,138.4559554581167L90.6552951171875,139.57706202487003L90.69517304687501,137.96011183030663L90.7222900390625,139.26462998279936L90.982294140625,138.4577106819873L91.00462578125,139.61620419765393L91.0062208984375,140.05677771090004L91.13383027343751,141.4289375880785L91.167327734375,140.82544332207786L91.4305220703125,139.26633320478518L91.49751699218751,138.1363203074865L91.5932240234375,137.7825969921842L91.652243359375,136.7374248299259L91.72561875,137.111767109494L91.77187714843751,137.9858348330041L91.811755078125,139.19197224595632L91.9728619140625,139.70844555911225L91.9888130859375,139.65045887392887L92.22489042968749,141.24677292051118L92.264768359375,140.561303559999L92.31900234375,140.51030203984556L92.4035435546875,139.33658747390734L92.52477246093751,137.0694997920367L92.532748046875,136.12829468291434L92.6013380859375,136.56139209821015L93.0001173828125,137.5770575666184L93.11018046875,137.25189684766335L93.1500583984375,138.62200801244416L93.2553361328125,137.61387769208187L93.2680970703125,138.29013911524913L93.35582851562499,137.08140068068795L93.39092109375,137.68233011995122L93.73068105468751,136.71647701427844L93.82957832031249,136.5901702470286L94.05129960937501,136.56015089821716L94.159767578125,136.0872492889303L94.42934238281251,135.5950908233582L94.456459375,132.2769591093995L94.54419082031251,132.1673858502551L94.61597109375,133.6297816063069L94.67658554687499,132.84665271378415L94.8010046875,135.42103922442433L94.8153607421875,137.58835372696228L94.989228515625,136.58891675540815L95.0769599609375,134.62735870709105L95.12002812499999,132.91940685887L95.2093546875,133.27060651916815L95.21573515624999,134.25725006534705L95.2428521484375,134.62836061613132L95.30506171875,132.4204595427557L95.72457753906251,131.58126053334573L95.73893359374999,131.8422279546228L95.9096111328125,132.1040042727737L95.9319427734375,133.11339314058728L96.04519609375001,132.97691992281392L96.2892490234375,133.36648570368834L96.335507421875,134.04347401836685L96.79809140625,133.94000912255856L96.8252083984375,133.58393999276592L96.922510546875,131.58574707258262L96.9368666015625,132.60877699354958L97.1825146484375,131.14938033074515L97.27981679687501,131.78360339075476L97.314909375,130.54845059214517L97.43932851562501,131.83982948990248L97.6514791015625,133.09970490547994L97.7471861328125,131.31860746251874L97.924244140625,130.67857832366508L97.95933671875001,132.00645718650674L97.97209765625,132.13953661959636L98.05025839843749,131.83832370252705L98.34056972656249,132.53806883690083L98.4617986328125,132.01246360983282L98.5575056640625,130.2393352812843L98.7138271484375,129.8893128995398L98.71542226562501,127.6089100474162L98.868553515625,129.46150670152664L98.95468984375,130.10166604014677L98.95947519531249,127.77287923947267L99.02806523437499,126.03886465906822L99.213098828125,127.36938793005632L99.2306451171875,126.17929410418763L99.308805859375,125.10123050097411L99.64218535156249,125.03806685827678L99.6549462890625,123.09450838419684L100.1143400390625,123.79007291513349L100.1621935546875,121.87358153754164L100.406246484375,122.59753805714037L100.43495859375,125.02197062274576L100.450909765625,125.48357506595515L100.4668609375,126.09617398188078L100.5418314453125,126.79606785066693L100.58808984375,126.85080551809247L100.68858222656249,125.72421302239394L100.785884375,124.4998468518979L101.23570742187499,124.5819630149849L101.2947267578125,124.54879155899094L101.3856484375,123.27058036808688L101.4542384765625,120.07671985546752L101.548350390625,122.55298191328052L101.6041794921875,121.63012655181447L101.6488427734375,120.25865631570406L101.8705640625,121.00299003942243L102.11142675781251,119.74494411980731L102.11461699218749,121.14167070265361L102.1752314453125,119.10510751774602L102.186397265625,116.70674931833992L102.2230849609375,117.53217709100394L102.9185560546875,116.86345452383314L103.2056771484375,116.09205271429988L103.26788671875,116.81791980165684L103.30297929687501,116.38971409253259L103.366783984375,115.52307672475033L103.73366093749999,117.79101449638866L103.947406640625,115.89399004398705L103.953787109375,113.14662412254609L104.030352734375,113.89592485814305L104.1755083984375,114.63714683796275L104.2185765625,115.86267127585457L104.42115644531249,115.04433440012812L104.48655624999999,115.73916419776918L104.4993171875,111.41355130712304L104.5503609375,114.54889895735076L104.7561310546875,114.68367918210276L104.82312597656251,116.51058424003088L104.9953986328125,114.11266217863391L105.06717890625,115.06019230718034L105.25859296875,116.06164557661589L105.2729490234375,113.48523138443107L105.3622755859375,113.66360113835094L105.740318359375,113.04546760608748L105.8647375,114.6383003713448L106.2651119140625,116.2267069535761L106.3002044921875,115.6808332106072L106.50597460937499,114.25454742636433L106.6064669921875,113.54279268658783L106.742051953125,111.91423320810654L106.8329736328125,112.32438607871008L106.95420253906249,110.76536712799528L107.00365117187499,109.23559316141255L107.02279257812499,108.485061858386L107.27482109375,108.05642557657006L107.4008353515625,108.50052121132666L107.6273419921875,108.77938561141139L107.756546484375,109.56331098223144L107.775687890625,106.21495928164656L108.05961875,107.14278672283407L108.132994140625,107.6724396298543L108.190418359375,106.9096633932972L108.21913046875,106.12196072828601L108.22710605468751,103.42133461004852L108.24146210937501,103.23496528525989L108.46956386718749,100.8739161903867L108.47434921874999,99.76198202192433L109.0150939453125,100.36513690546228L109.49522421875,97.53439233558505L109.5063900390625,97.17803107442796L109.543077734375,95.07999826004139L109.7584185546875,94.70942924448639L109.94026191406249,94.78400533515337L110.28640234375,94.8826508933997L110.5607625,94.16605063219366L110.6421134765625,94.37398826393158L110.84628847656249,92.5931416122051L110.87340546875001,93.9045688134769L111.1397900390625,91.83929138423998L111.18764355468751,93.1867246382363L111.2291166015625,92.40812430217255L111.52580839843749,90.77676361976506L111.591208203125,87.17656019108982L111.623110546875,90.15609265311542L111.62630078125001,91.67529972648464L111.9820119140625,91.4071019512754L112.2069234375,91.38022674768831L112.2276599609375,87.65261585630529L112.3456986328125,89.56509951378317L112.937487109375,84.28682595826992L113.090618359375,84.61368865188501L113.57872421875,84.5419235757464L113.5866998046875,83.773624049294L113.98388398437501,85.220670294961L114.39542421875,83.57063054236122L114.5214384765625,83.07135621003212L114.7335890625,80.07957055294236L114.86598378906251,80.5136950240731L115.07175390625001,79.74203845675156L115.2185046875,77.75515961251247L115.3923724609375,80.53897990212289L115.5008404296875,77.97243669127371L115.553479296875,76.04741663014885L115.690659375,72.67721555501238L115.92673671874999,77.20186539069975L115.9283318359375,75.78008019595829L116.61104199218751,76.54135119449806L117.19964023437501,72.84101350516038L117.42455175781251,74.15453079540393L117.563326953125,75.1653548233962L117.895111328125,76.5207634709608L118.4677583984375,75.93783606334573L118.96862519531251,74.98345442646895L119.1472783203125,76.90587871357367L119.458326171875,74.83177232429807L119.63538417968749,71.04278031765574L119.707164453125,70.91673549828575L119.9528125,69.01091158743299L120.6977322265625,70.86506541399825L120.874790234375,69.37407492147587L121.27835488281251,67.15555466442399L121.602163671875,69.89445539480825L122.57678027343749,68.17704237150033L123.3615779296875,67.90949859597711L123.5817041015625,68.76309723450937L123.62158203125,66.05247785993639L123.8241619140625,63.75743767750032L124.0028150390625,65.00357058726942L124.237297265625,64.63952014082318L124.51484765625,65.08652477680158L124.581842578125,64.55242400069635L125.928121484375,62.38512170811009L125.95683359374999,60.94793975563529L126.9824939453125,64.62819943030425L127.83747675781251,63.411592446644065L128.30803632812498,59.76255787183261L128.3925775390625,59.212463473099575L128.403743359375,58.55817346847512L128.60153789062502,57.41882965800815L128.82804453125,57.7281252948049L128.87908828124998,58.46657238842138L130.49972734375,58.87723602920667L130.85703359375,58.2784932521394L132.5717845703125,54.641326720514385L132.7887205078125,53.261568628462484L132.79669609375,51.6886799270775L132.857310546875,50.23304228316957L133.14602675781248,50.15874661990175L133.2194021484375,52.77100729886412L135.3345275390625,53.72885399470309L135.62643398437498,53.050112685283395L137.180078125,51.14745616886235L137.24707304687502,50.62071600900971L137.50548203125,53.61819700925197L138.1546947265625,50.83709993632041L138.53911796875,50.19933053871533L140.23632265625002,47.1281239963061L140.3703125,47.64532064778368L142.5508376953125,45.99795056174713L143.8269314453125,46.38600985627903L145.3295318359375,45.74994562530591L147.3457599609375,46.348989202106594L149.0525353515625,43.88101054049474L149.9553716796875,43.257294785835285L153.4805806640625,41.777904563808846L154.7758158203125,39.049844853669924L157.339169140625,36.18835623912503L159.9344248046875,34.59473335885963L162.3558126953125,33.00532511146963L163.62393085937498,31.961495259189434L168.3119802734375,31.579848790129063L173.1579462890625,29.83461763946204L175.49479296875,79.36963692983107L177.50304550781252,60.38739658097556L191.8973830078125,83.4431714101238L195.55658183593752,59.848505634535826L199.788427734375,45.75729828456767L214.57675917968749,73.09245041304828L220.05120136718747,98.64374390167512L222.2492728515625,95.09394701408199L222.719832421875,110.36502397767997L224.38194453125,100.47969602122338L225.86221328124998,114.22165780504172L228.66961953125,100.29275141379426L230.01908867187498,105.26464786750732L230.99849062500002,93.4758422781967L231.7434103515625,83.511876616918L233.4501857421875,98.09928039322773L234.9208837890625,100.25632823593665L235.55255019531248,87.62870703771584L236.1905970703125,78.45258191493721L239.1256126953125,72.14970905280846L240.96318769531248,48.702315239377384L242.0095845703125,34.91117327824185L245.24448222656252,50.87035800540663" style="fill: none;" fill="none"></path></g></g></g></g><g opacity="0.2"><g><g><g><path stroke="rgb(255, 112, 67)" stroke-width="2px" d="M32.4207568359375,158.37185625L32.58505390625,158.32781899038463L32.6026001953125,158.23093701923077L32.693521874999995,158.24693509615383L32.7062828125,158.3150545673077L32.7972044921875,158.29977980769232L32.958311328125,158.1694550480769L33.012545312499995,158.33207379807692L33.0269013671875,158.46712139423076L33.05720859375,158.41457451923077L33.105062109375005,158.54638846153847L33.13377421875,158.25604038461537L33.156105859374996,158.54638846153847L33.213530078125,158.6432704326923L33.296476171875,158.12099278846154L33.328378515625,158.26008245192307L33.3650662109375,158.24561610576922L33.3905880859375,158.0462783653846L33.4480123046875,158.15035096153846L33.4575830078125,158.075934375L33.4990560546875,158.45993076923077L33.510221875,158.48371514423076L33.538933984375,158.1767733173077L33.5564802734375,158.3587939903846L33.5740265625,158.22536322115386L33.7191822265625,158.14903197115385L33.73991875,158.2299158653846L33.822864843750004,158.51703028846154L33.8755037109375,158.0479377403846L33.9233572265625,158.01560120192306L34.1753857421875,157.93369615384614L34.1945271484375,158.16783822115386L34.374775390625,158.1897079326923L34.5199310546875,158.12307764423076L34.591711328125,157.98407307692307L34.6028771484375,158.31509711538462L34.62680390625,157.93752548076924L34.815027734375,158.48375769230768L34.821408203124996,158.03955576923076L34.9314712890625,158.2992266826923L35.001656445312506,158.23404302884614L35.143621874999994,158.5147326923077L35.178714453125004,158.26327355769232L35.2313533203125,158.24391418269232L35.2664458984375,157.96033125L35.2760166015625,157.63956129807693L35.293562890625005,158.15894567307691L35.319084765625,158.2100033653846L35.3462017578125,158.37998293269231L35.422767382812495,158.01317596153845L35.440313671875,158.48848052884614L35.459455078124996,157.8672360576923L35.4865720703125,158.41933990384615L35.523259765625,157.96339471153846L35.5376158203125,157.93390889423077L35.574303515625,157.36580697115386L35.6492740234375,157.7757576923077L35.6620349609375,158.3676439903846L35.6684154296875,158.27297451923076L35.8024052734375,158.38321658653845L35.8406880859375,158.53690024038463L35.9013025390625,158.6104658653846L36.001794921875,158.5391127403846L36.0352923828125,158.24127620192309L36.046458203125,158.0414278846154L36.091121484375,158.270634375L36.127809179687496,157.71304182692307L36.2171357421875,158.02789759615385L36.225111328124996,158.2923764423077L36.231491796875,157.64845384615384L36.266584375,158.19609014423077L36.31124765625,157.72810384615386L36.3383646484375,157.71393533653847L36.5090421875,156.90526658653846L36.627080859375,157.19046634615384L36.80892421875,157.8598326923077L36.8264705078125,157.9649264423077L36.8551826171875,157.41243966346153L36.879109375,157.7770766826923L36.882299609374996,157.98045649038463L36.952484765625,157.50459879807693L37.025860156250005,157.12387860576922L37.150279296875006,157.23416322115384L37.1582548828125,157.23871586538462L37.175801171875,157.75154783653846L37.204513281249994,157.09362692307693L37.3257421875,157.23190817307693L37.418258984375,157.6601545673077L37.4326150390625,157.95050264423077L37.4389955078125,156.14271995192308L37.51077578125,157.31453653846154L37.5554390625,157.04018653846154L37.593721875,157.22339855769232L37.673477734375005,157.00921153846153L37.6910240234375,157.22824903846154L37.7261166015625,156.63789447115386L37.746853125,157.4946L37.754828710937495,156.58309254807693L37.756423828125,157.48111225961537L37.7803505859375,157.41454579326924L37.7835408203125,156.81578798076924L37.785135937499994,156.39209423076923L37.842560156249995,157.09124423076923L37.8951990234375,156.10944735576922L38.25091015625,156.46212836538461L38.450299804687496,157.61011802884616L38.461465625,157.22744062499999L38.5507921875,156.39843389423078L38.6784015625,156.37133076923078L38.692757617187496,156.41383629807692L38.694352734375,156.57939086538462L38.732635546874995,157.179871875L38.8267474609375,156.31010408653847L38.865030273437505,157.07988389423076L38.9352154296875,156.87688701923076L38.94000078125,157.09239302884615L38.968712890625,157.06124783653846L38.975093359375,156.57632740384616L39.0245419921875,156.73835048076924L39.0309224609375,156.47106346153845L39.16969765625,156.3760110576923L39.1904341796875,157.15621514423077L39.2350974609375,155.9684855769231L39.2701900390625,156.80472548076924L39.28454609375,156.42940889423076L39.319638671875,156.0664737980769L39.326019140625,156.9678548076923L39.3339947265625,156.19607524038463L39.3818482421875,156.39503004807693L39.4009896484375,156.18339591346154L39.4328919921875,157.16293774038462L39.4488431640625,156.5242060096154L39.554120898437496,156.127275L39.6051646484375,156.89875673076924L39.734369140625,155.74042788461537L39.9529001953125,156.28670264423076L40.195358007812494,156.99176682692308L40.212904296874996,156.96240865384615L40.289469921874996,156.59049591346155L40.3118015625,156.6387454326923L40.3325380859375,156.35269471153845L40.386772070312496,156.84969879807693L40.4218646484375,156.7887699519231L40.5590447265625,157.03695288461537L40.672298046875,156.14374110576924L40.686654101562496,156.85127307692306L40.6898443359375,156.9390923076923L40.8780681640625,156.737371875L40.8844486328125,156.66882692307692L40.8876388671875,156.73796754807694L40.921136328125,156.84846490384615L41.0375798828125,156.67661322115384L41.080648046875005,156.4300045673077L41.0886236328125,156.4827216346154L41.1300966796875,156.84978389423077L41.13488203125,156.7602627403846L41.1795453125,156.43047259615383L41.246540234375,156.93934759615385L41.2704669921875,156.95870697115384L41.3183205078125,156.78655745192307L41.3853154296875,156.10914951923075L41.404456835937495,156.3267829326923L41.4778322265625,156.79166322115384L41.65808046875,156.35116298076923L41.6692462890625,156.93054014423078L41.7713337890625,156.89088533653847L41.81121171875,156.68699495192308L42.063240234375,156.90688341346154L42.127044921875,156.75907139423077L42.229132421875,156.7443923076923L42.299317578125006,156.74247764423077L42.33441015625,156.78681274038462L42.524229101562504,156.47548846153848L42.631101953125004,156.16195168269232L42.632697070312496,156.76728317307692L42.6342921875,156.21024375L42.7443552734375,156.386690625L42.854418359374996,156.71958677884615L42.89589140625,156.59364447115385L42.9293888671875,156.5880706730769L43.026691015625,156.86446298076925L43.055403125,156.68405913461538L43.0936859375,156.85535769230768L43.146324804687495,156.70592884615385L43.1702515625,156.61713100961538L43.179822265625,156.74409447115386L43.281909765625,156.46417067307692L43.3026462890625,156.47561610576923L43.310621874999995,156.5845391826923L43.44461171875,156.49425216346154L43.447801953125,156.40502884615384L43.4844896484375,156.46195817307694L43.54031875,156.5861560096154L43.7907521484375,156.45770336538462L43.79713261718749,156.5343324519231L44.041185546875,156.2413889423077L44.2629068359375,155.98227115384614L44.2756677734375,156.5242060096154L44.323521289062505,156.47195697115384L44.333091992187505,156.3304420673077L44.45910625,156.31342283653845L44.634569140625,156.3692033653846L44.666471484374995,156.34512115384615L44.83555390625,156.21977451923078L44.945616992187496,156.2902341346154L45.0381337890625,156.32810192307693L45.1051287109375,156.3189966346154L45.2008357421875,156.30916802884616L45.2359283203125,156.39179639423077L45.2582599609375,156.23696394230768L45.3220646484375,156.28406466346155L45.32685,156.10970264423077L45.425747265625,156.22858197115386L45.454459375,156.10527764423077L45.4879568359375,156.33882403846155L45.53740546875,156.14361346153845L45.5693078125,156.13655048076924L45.661824609375,156.14301778846155L45.763912109375006,156.10149086538462L45.8931166015625,156.246196875L45.923423828125,156.09987403846154L45.993608984375,155.46837548076923L46.216925390625,155.95074302884615L46.287110546875006,156.06332524038461L46.3397494140625,155.69975192307692L46.532758593749996,156.0511564903846L46.6172998046875,155.69741177884615L46.6555826171875,155.97469759615385L46.8198796875,156.0527733173077L46.906016015625,156.10251201923077L47.0065083984375,155.8160358173077L47.03043515625,155.7103251201923L47.2266345703125,155.40246850961537L47.5265166015625,155.95223221153847L47.646150390625,155.14688221153847L47.703574609375,155.92202307692307L47.754618359374994,155.388853125L48.343216601562496,155.77761490384614L48.373523828125,155.84275600961539L48.5856744140625,154.57154711538462L48.686166796875,155.48224615384615L48.7084984375,155.88338942307692L48.8440833984375,155.5079451923077L49.2699796875,155.3868533653846L49.515627734375,155.53862235576923L49.7213978515625,155.26593173076924L49.9989482421875,155.73723677884615L50.211098828125,155.9247887019231L50.332327734375006,155.09735625L50.3785861328125,155.78757115384616L50.498219921875,155.71243125L50.5795708984375,155.64537548076925L50.62901953125,155.69553966346155L50.785341015625,155.42178533653845L50.869882226562495,155.66694735576922L51.123505859375,155.76672259615384L51.137861914062505,155.4194451923077L51.15221796875,154.77016153846154L51.276637109374995,155.74587403846152L51.326085742187495,155.54823822115384L51.850879296875,155.69907115384615L51.9418009765625,155.78595432692308L52.090146875,155.8449685096154L52.19861484375,155.75178822115384L52.4203361328125,155.7131545673077L52.6659841796875,155.68013725961538L52.83028125,155.602359375L52.929178515625,155.70800625L52.999363671875,155.62248461538462L53.1508998046875,154.2163983173077L53.216299609375,154.99638966346154L53.2848896484375,155.60589086538462L53.292865234375,155.68409423076923L53.682073828125006,155.66941514423075L54.0282142578125,154.65379254807692L54.0425703125,155.26006009615384L54.0473556640625,155.67864807692308L54.061711718750004,155.0565951923077L54.178155273437504,154.994475L54.3312865234375,155.6416737980769L54.415827734375,155.5190076923077L54.48282265625,155.62333557692307L55.181483984375,155.3172872596154L55.302712890625,155.0662110576923L55.379278515625,155.09659038461538L55.4127759765625,155.58768028846154L55.602594921874996,154.2789014423077L55.9646865234375,155.17198557692308L56.3730365234375,155.31596826923078L56.384202343750005,154.65272884615385L56.46076796875,155.24916778846153L56.5437140625,154.81645384615385L56.776601171875,154.98553990384616L56.97120546875,154.36897572115384L56.999917578125,154.5892045673077L57.006298046874996,155.61393245192306L57.025439453125,155.10756778846155L57.1450732421875,154.0143375L57.1929267578125,155.61129447115385L57.2248291015625,155.64988557692308L57.369984765625,155.23597788461538L57.4002919921875,153.9647264423077L57.577349999999996,154.63634783653845L57.5885158203125,153.989446875L57.62201328125,154.56571802884616L57.77514453125,154.90925120192307L57.8979685546875,155.24197716346154L57.9266806640625,155.26588918269232L58.0383388671875,155.33809326923077L58.1515921875,154.79577548076924L58.197850585937495,155.00898389423077L58.322269726562496,154.4100346153846L58.4211669921875,155.2292127403846L58.679575976562504,154.77390576923077L58.741785546875,154.79786033653846L58.78325859375,155.5527483173077L58.893321679687496,154.95043774038461L58.96191171875,154.55499591346154L59.194798828124995,155.17185793269232L59.201179296875,153.72905264423076L59.252223046874995,154.62209423076922L59.335169140625005,153.43691754807693L59.344739843750006,155.19325961538462L59.4388517578125,153.9269862980769L59.4707541015625,153.33497235576922L59.5887927734375,154.21780240384615L59.7100216796875,155.20398173076921L59.7594703125,154.4128215144231L59.807323828125,154.72578389423077L59.88548457031251,153.94064423076924L59.9110064453125,153.86712115384614L59.970025781249994,154.74250528846153L60.013093945312505,153.8715887019231L60.03383046875,154.33195889423078L60.075303515625,153.52494951923077L60.0928498046875,153.96340745192308L60.1757958984375,154.66915240384617L60.35285390625,153.90307427884616L60.40389765625,153.78730096153845L60.568194726562496,153.7794295673077L60.789916015624996,154.78258557692308L60.828198828125004,153.90218076923077L60.968569140625,153.7904920673077L61.116915039062505,154.74956826923076L61.1296759765625,150.63959423076923L61.156792968750004,152.4818408653846L61.1871001953125,154.7607158653846L61.2700462890625,153.25842836538462L61.3147095703125,153.07734375L61.3338509765625,154.37335817307692L61.4423189453125,152.43486778846153L61.493362695312506,154.27298725961538L61.7230595703125,153.88665072115384L61.785269140625005,154.7048076923077L61.786864257812496,154.38156995192307L61.8283373046875,153.42811009615386L61.8570494140625,154.74105865384615L61.903307812499996,152.85417908653847L61.979873437500004,153.28042572115385L62.0644146484375,153.4532985576923L62.1122681640625,153.10576586538463L62.3419650390625,152.5682560096154L62.3898185546875,153.93039014423076L62.4408623046875,154.9039326923077L62.5333791015625,153.1689923076923L62.667368945312504,153.3461625L62.6801298828125,151.74554639423076L62.831666015625004,154.27124278846154L62.8396416015625,151.79932716346153L62.849212304687505,153.75334759615384L62.927373046875,154.16810625L62.976821679687504,155.03655504807693L63.0055337890625,153.21553990384615L63.043816601562504,155.08118798076924L63.1299529296875,155.0864639423077L63.29425,154.310259375L63.3835765625,154.31587572115384L63.4744982421875,151.43443485576924L63.519161523437496,155.47190697115386L63.6403904296875,153.35105552884616L63.675483007812495,154.69791490384614L63.7026,154.5316795673077L63.96579433593751,153.48652860576922L63.986530859375,155.40706370192308L63.9976966796875,154.05309879807692L64.0088625,153.81959495192308L64.0359794921875,152.05933846153846L64.0902134765625,153.71335240384616L64.2114423828125,152.95225240384616L64.369358984375,153.44376778846154L64.3773345703125,153.79436394230768L64.5655583984375,153.7735153846154L64.71868964843749,154.60443677884615L64.752187109375,153.9553233173077L64.82237226562499,151.54493221153845L64.88298671874999,152.45001490384615L64.905318359375,153.5709014423077L64.91488906250001,153.87095048076924L64.96433769531251,154.13534423076922L65.1557517578125,153.67833533653845L65.18286875,153.24932307692308L65.3439755859375,154.98051923076923L65.412565625,153.98940432692308L65.43170703125,153.66361370192308L65.5098677734375,153.33978028846155L65.84962773437499,152.31624375L65.85281796875,154.65553701923076L65.94054941406249,154.1264091346154L65.9852126953125,153.4658502403846L65.99956875,154.0299951923077L66.021900390625,153.39219951923076L66.0330662109375,154.285921875L66.06975390625,153.7125439903846L66.162270703125,152.69883605769232L66.18938769531249,153.76734591346153L66.232455859375,153.1615889423077L66.34251894531249,155.32430769230768L66.449391796875,154.888828125L66.59295234375,153.0196485576923L66.6168791015625,153.9100096153846L66.7093958984375,153.03896538461538L66.90719042968749,152.8393298076923L67.0332046875,154.11934615384615L67.12572148437499,153.80568173076924L67.15762382812501,153.40568725961538L67.176765234375,154.49338629807693L67.419223046875,153.43019495192308L67.5420470703125,153.25868365384616L67.5675689453125,152.61378245192307L67.581925,154.26962596153845L67.70953437499999,153.55490336538463L67.8610705078125,154.52363798076922L67.9009484375,153.89324567307693L68.0285578125,153.14252740384615L68.06046015625,153.76913293269232L68.15297695312499,153.10699975961538L68.2056158203125,153.19898870192307L68.3077033203125,151.68431971153845L68.3459861328125,152.9094064903846L68.37948359375001,153.61242836538463L68.5342099609375,153.2757454326923L68.5565416015625,153.85848389423077L68.56770742187501,153.629915625L68.59163417968749,151.17723173076922L68.63470234375,153.53231033653847L68.67617539062499,154.31115288461538L68.76869218750001,152.024746875L68.8468529296875,152.7881019230769L68.8532333984375,154.79947716346155L69.00476953124999,154.40203557692308L69.07016933593749,153.24387692307693L69.08133515625,153.96089711538463L69.205754296875,153.81461682692307L69.20894453125,154.80547644230768L69.2679638671875,151.56339807692308L69.339744140625,152.80992908653846L69.422690234375,153.58647403846155L69.460973046875,152.85392379807692L69.54072890625001,154.32876778846153L69.6858845703125,153.56490216346154L69.7145966796875,152.2861622596154L69.716191796875,153.88533173076922L69.78797207031249,153.4112185096154L70.28724374999999,152.52200625L70.379760546875,154.45215721153846L70.47546757812499,152.64050264423076L70.51056015625,155.3049483173077L70.5504380859375,154.46432596153846L70.628598828125,153.1368685096154L70.63816953125,153.10121322115384L70.64455,151.48502451923076L70.78173007812501,153.274809375L70.9332662109375,152.00126033653845L71.0162123046875,153.4350454326923L71.062470703125,153.1605252403846L71.09437304687499,154.30191995192308L71.1023486328125,153.89473485576923L71.119894921875,151.7118483173077L71.12468027343749,151.43809399038463L71.2714310546875,152.7038141826923L71.48039140625,154.28417740384614L71.496342578125,152.88881322115384L71.5170791015625,153.87507764423077L71.55217167968749,152.80571682692306L71.5904544921875,153.42828028846154L71.65904453125,153.964003125L71.6797810546875,153.09840504807693L71.713278515625,152.30879783653847L71.7403955078125,152.0769533653846L71.8456732421875,152.4243158653846L72.0338970703125,152.09733389423076L72.1997892578125,151.5294872596154L72.242857421875,154.37676201923077L72.542739453125,151.86889326923077L72.638446484375,154.1098579326923L72.66715859375,152.58106298076922L72.71501210937501,152.20600168269232L72.864953125,152.68573125L73.0196794921875,153.01773389423076L73.1058158203125,153.49240024038463L73.1472888671875,152.44673870192307L73.16483515625,151.7422701923077L73.174405859375,151.39026995192307L73.2079033203125,154.06850120192308L73.538092578125,150.25534254807692L73.5412828125,151.10285769230768L73.5556388671875,153.2015841346154L73.69122382812499,152.3027985576923L73.7199359375,153.31008173076924L73.89220859375,153.82725360576922L73.99589121093749,150.415153125L74.010247265625,151.57624759615385L74.07086171875001,152.91502283653847L74.1282859375,151.77920192307693L74.21601738281251,152.46643846153847L74.26546601562501,153.40041129807693L74.3244853515625,153.16426947115386L74.3850998046875,154.22269543269232L74.57332363281249,150.48088990384616L74.9194640625,152.01832211538462L74.9529615234375,150.90228605769232L74.98805410156251,151.3951204326923L74.99762480468749,153.7202877403846L75.114068359375,151.43834927884615L75.1188537109375,154.7424627403846L75.1762779296875,151.20437740384614L75.2368923828125,152.5997841346154L75.27677031249999,150.68503557692307L75.382048046875,151.17842307692308L75.43787714843751,152.3298591346154L75.55272558593751,149.94108245192308L75.7824224609375,150.78476826923077L75.790398046875,151.1546387019231L75.80634921875,151.11353725961538L75.927578125,151.55505865384615L75.9770267578125,154.31140817307693L76.02966562499999,152.41218966346153L76.06156796875,149.7368516826923L76.131753125,150.837740625L76.1429189453125,151.71665625L76.14451406250001,150.44655360576922L76.16046523437501,150.5685389423077L76.1700359375,150.55394495192309L76.233840625,149.84713629807692L76.31678671875,153.09610745192307L76.428444921875,151.6691300480769L76.4970349609375,152.23884879807693L76.76341953125001,149.0399141826923L76.8192486328125,152.90502403846153L76.8639119140625,151.09877307692307L76.95802382812501,149.38310697115384L76.9659994140625,152.07593221153846L76.9723798828125,152.55123677884615L76.999496875,152.8943019230769L77.0872283203125,149.28813966346155L77.28661796875001,150.16467259615385L77.2945935546875,152.97990865384617L77.32490078125,151.97815673076923L77.359993359375,151.03737620192308L77.411037109375,149.48122283653845L77.5179099609375,151.15068173076924L77.5593830078125,150.38515673076924L77.6901826171875,150.45234014423076L77.851289453125,151.47821682692307L77.857669921875,150.44697908653845L77.8815966796875,152.50958221153846L78.0634400390625,152.56876658653846L78.09374726562501,152.05048846153846L78.1623373046875,151.28364447115385L78.163932421875,152.2756528846154L78.36651230468749,151.34725384615385L78.3856537109375,149.97367427884615L78.387248828125,150.76128173076924L78.55633125,151.24050072115384L78.72860390625,149.76178485576924L78.83069140625,150.0923408653846L78.89130585937501,150.26772403846155L79.0029640625,146.72883028846155L79.0077494140625,150.68575889423076L79.0332712890625,153.26183221153846L79.0875052734375,148.7742439903846L79.2948705078125,150.28653028846153L79.3395337890625,150.25840600961538L79.3602703125,149.53798197115384L79.4878796875,147.33616153846154L79.5022357421875,150.79583076923078L79.6649376953125,150.67856826923077L79.80052265625,147.863034375L79.8116884765625,147.34058653846154L79.8148787109375,147.14244014423076L79.816473828125,150.52641634615384L79.82604453125,146.33666466346153L79.8308298828125,148.766840625L80.2327994140625,151.11587740384616L80.26948710937499,148.23911682692307L80.2742724609375,147.65565504807694L80.40347695312501,145.99321658653847L80.4066671875,147.18686033653847L80.41145253906251,145.86616802884615L80.435379296875,147.17809543269232L80.460901171875,147.562134375L80.5326814453125,149.97886514423078L80.5518228515625,149.23891153846154L80.55341796875,148.59035120192308L80.722500390625,146.47588197115385L81.031953125,148.0800721153846L81.188274609375,146.08316322115385L81.29355234375,144.82850552884616L81.3015279296875,143.56235985576922L81.3174791015625,146.24590961538462L81.3844740234375,147.51282115384615L81.49134687499999,148.08036995192307L81.70190234374999,148.45402716346155L81.72104374999999,145.91480048076923L81.75294609375001,147.90115745192307L81.79760937500001,149.09484375L81.80079960937499,145.48948990384616L81.80398984375,147.77108798076924L81.851843359375,146.94714447115385L81.88215058593751,146.30458341346153L82.1086572265625,146.15983485576922L82.145344921875,144.74630264423075L82.1979837890625,148.35842163461538L82.25221777343751,149.7915685096154L82.2809298828125,143.43611971153848L82.3032615234375,147.00130817307692L82.44044160156251,149.12535072115384L82.4532025390625,148.63477139423077L82.540933984375,142.89954591346154L82.716396875,149.456034375L82.7530845703125,142.05045649038462L82.8615525390625,145.71065480769232L82.93971328125001,144.9502355769231L82.9476888671875,145.5134019230769L82.9540693359375,148.5219764423077L83.02265937499999,144.51696850961537L83.1550541015625,147.00760528846155L83.1837662109375,148.12444975961537L83.319351171875,145.8634875L83.408677734375,148.22839471153847L83.5825455078125,146.45928822115386L83.6208283203125,145.95041322115384L83.6335892578125,146.88183317307693L83.7069646484375,142.82934158653848L83.7516279296875,145.25458197115384L83.80745703125,144.4709314903846L83.8696666015625,149.53070625L83.92868593749999,143.16989639423076L84.17114375,144.91815432692306L84.3354408203125,142.62813173076924L84.502928125,146.89383173076922L84.5045232421875,145.37722680288462L84.5332353515625,143.49968653846153L84.61139609375,144.08876466346155L84.7597419921875,144.8123798076923L84.8586392578125,141.50158629807692L84.9415853515625,144.32422572115385L84.9639169921875,139.52156899038462L85.04845820312501,144.42200120192308L85.1298091796875,145.77732764423078L85.239872265625,145.25585841346154L85.268584375,143.893809375L85.2925111328125,144.811996875L85.370671875,142.2999158653846L85.444047265625,145.09766466346153L85.57006152343749,145.46502475961537L85.72000253906249,145.47430024038462L85.731168359375,144.02724014423077L85.7519048828125,146.72342668269232L85.79975839843749,144.57394038461538L85.9784115234375,142.0747514423077L86.062952734375,143.04174158653845L86.0773087890625,142.82142764423077L86.0900697265625,146.79703485576923L86.120376953125,143.53164014423078L86.340503125,146.57361490384616L86.35964453125,143.34055673076924L86.3803810546875,147.85078052884614L86.40271269531249,143.40016658653846L86.509585546875,145.12574639423076L86.5303220703125,146.8351579326923L86.55105859375,148.708209375L86.73609218749999,145.80783461538462L86.898794140625,144.51990432692307L86.937076953125,144.25163870192307L87.313524609375,141.10091105769231L87.38051953125,141.4906514423077L87.3853048828125,144.83088822115383L87.626167578125,140.97969158653845L87.6596650390625,146.89217235576922L87.80163046875,145.26823990384617L87.8606498046875,143.83483774038461L88.1445806640625,144.29861177884615L88.178078125,141.08397692307693L88.23390722656251,141.00619903846155L88.238692578125,140.0312949519231L88.2626193359375,142.4859360576923L88.442867578125,143.5116425480769L88.48115039062499,146.8431144230769L88.538574609375,140.554040625L88.5497404296875,140.98203173076922L88.637471875,140.35274567307692L88.678944921875,145.06269014423077L88.68213515625,143.10215985576923L88.77624707031251,141.93081129807692L88.82250546875,137.9840516826923L88.9309734375,143.0956074519231L88.994778125,141.53813509615384L89.01391953125,143.1400701923077L89.0633681640625,141.98003942307693L89.291469921875,141.96033966346153L89.3313478515625,142.3493141826923L89.597732421875,138.76089447115385L89.6471810546875,139.10378942307693L89.74288808593751,139.12633990384614L90.0778626953125,140.0800125L90.1863306640625,136.9754920673077L90.363388671875,135.8050795673077L90.52449550781249,139.81681009615386L90.6552951171875,141.258721875L90.69517304687501,135.53468653846153L90.7222900390625,141.22140721153846L90.982294140625,137.24733173076925L91.00462578125,141.35394447115385L91.0062208984375,140.7176379807692L91.13383027343751,143.48717740384615L91.167327734375,139.92020192307692L91.4305220703125,136.92766802884614L91.49751699218751,136.44130096153845L91.5932240234375,137.25201201923076L91.652243359375,135.16966658653845L91.72561875,137.67328052884613L91.77187714843751,139.29693641826924L91.811755078125,141.00117836538462L91.9728619140625,140.48315552884617L91.9888130859375,139.56347884615386L92.22489042968749,143.64124399038462L92.264768359375,139.53309951923077L92.31900234375,140.4337997596154L92.4035435546875,137.576015625L92.52477246093751,133.66886826923076L92.532748046875,134.71648701923078L92.6013380859375,137.21103822115384L93.0001173828125,139.10055576923077L93.11018046875,136.76415576923077L93.1500583984375,140.67717475961538L93.2553361328125,136.10168221153845L93.2680970703125,139.30453125L93.35582851562499,135.26829302884616L93.39092109375,138.58372427884615L93.73068105468751,135.26769735576923L93.82957832031249,136.40071009615383L94.05129960937501,136.515121875L94.159767578125,135.377896875L94.42934238281251,134.856853125L94.456459375,127.29976153846154L94.54419082031251,132.00302596153847L94.61597109375,135.82337524038462L94.67658554687499,131.671959375L94.8010046875,139.2826189903846L94.8153607421875,140.83932548076922L94.989228515625,135.08976129807692L95.0769599609375,131.6850216346154L95.12002812499999,130.35747908653846L95.2093546875,133.79740600961537L95.21573515624999,135.73721538461538L95.2428521484375,135.1850264423077L95.30506171875,129.1086079326923L95.72457753906251,130.32246201923076L95.73893359374999,132.23367908653847L95.9096111328125,132.49666875L95.9319427734375,134.62747644230768L96.04519609375001,132.77221009615386L96.2892490234375,133.950834375L96.335507421875,135.05895649038462L96.79809140625,133.78481177884615L96.8252083984375,133.0498362980769L96.922510546875,128.58845769230768L96.9368666015625,134.143321875L97.1825146484375,128.96028533653845L97.27981679687501,132.73493798076925L97.314909375,128.69572139423076L97.43932851562501,133.77689783653847L97.6514791015625,134.98951802884616L97.7471861328125,128.64696129807692L97.924244140625,129.7185346153846L97.95933671875001,133.99827548076922L97.97209765625,132.33915576923079L98.05025839843749,131.38650432692307L98.34056972656249,133.58768653846153L98.4617986328125,131.22405576923077L98.5575056640625,127.57964278846154L98.7138271484375,129.36427932692308L98.71542226562501,124.18830576923077L98.868553515625,132.24040168269232L98.95468984375,131.06190504807694L98.95947519531249,124.27969903846153L99.02806523437499,123.43784278846155L99.213098828125,129.36517283653848L99.2306451171875,124.39415336538461L99.308805859375,123.48413509615384L99.64218535156249,124.94332139423076L99.6549462890625,120.17917067307692L100.1143400390625,124.83341971153845L100.1621935546875,118.99884447115384L100.406246484375,123.68347283653847L100.43495859375,128.65861947115386L100.450909765625,126.17598173076922L100.4668609375,127.01507235576923L100.5418314453125,127.84590865384615L100.58808984375,126.93291201923077L100.68858222656249,124.03432427884616L100.785884375,122.66329759615385L101.23570742187499,124.70513725961538L101.2947267578125,124.49903437500001L101.3856484375,121.35326358173077L101.4542384765625,115.28592908653846L101.548350390625,126.26737499999999L101.6041794921875,120.24584350961538L101.6488427734375,118.20145096153846L101.8705640625,122.119490625L102.11142675781251,117.85787524038462L102.11461699218749,123.23676057692307L102.1752314453125,116.05026274038461L102.186397265625,113.10921201923077L102.2230849609375,118.77031875L102.9185560546875,115.86037067307691L103.2056771484375,114.93494999999999L103.26788671875,117.90672043269231L103.30297929687501,115.74740552884616L103.366783984375,114.22312067307692L103.73366093749999,121.19292115384616L103.947406640625,113.0484533653846L103.953787109375,109.02557524038461L104.030352734375,115.01987596153846L104.1755083984375,115.74897980769231L104.2185765625,117.7009579326923L104.42115644531249,113.81682908653846L104.48655624999999,116.78140889423076L104.4993171875,104.92513197115385L104.5503609375,119.25192043269232L104.7561310546875,114.88584951923076L104.82312597656251,119.25094182692308L104.9953986328125,110.51577908653846L105.06717890625,116.4814875L105.25859296875,117.56382548076922L105.2729490234375,109.62061009615385L105.3622755859375,113.93115576923077L105.740318359375,112.1182673076923L105.8647375,117.02754951923077L106.2651119140625,118.60931682692308L106.3002044921875,114.86202259615385L106.50597460937499,112.11511875L106.6064669921875,112.47516057692307L106.742051953125,109.47139399038461L106.8329736328125,112.9396153846154L106.95420253906249,108.42683870192309L107.00365117187499,106.94093221153847L107.02279257812499,107.35926490384615L107.27482109375,107.41347115384616L107.4008353515625,109.16666466346155L107.6273419921875,109.19768221153846L107.756546484375,110.73919903846155L107.775687890625,101.19243173076923L108.05961875,108.53452788461539L108.132994140625,108.46691899038461L108.190418359375,105.76549903846154L108.21913046875,104.94040673076923L108.22710605468751,99.3703954326923L108.24146210937501,102.95541129807692L108.46956386718749,97.33234254807692L108.47434921874999,98.09408076923077L109.0150939453125,101.26986923076923L109.49522421875,93.28827548076923L109.5063900390625,96.6434891826923L109.543077734375,91.93294903846154L109.7584185546875,94.15357572115384L109.94026191406249,94.89586947115384L110.28640234375,95.03061923076923L110.5607625,93.09115024038461L110.6421134765625,94.68589471153847L110.84628847656249,89.92187163461539L110.87340546875001,95.87170961538462L111.1397900390625,88.74137524038461L111.18764355468751,95.20787451923077L111.2291166015625,91.24022379807693L111.52580839843749,88.32972259615384L111.591208203125,81.77625504807692L111.623110546875,94.62539134615385L111.62630078125001,93.95411033653846L111.9820119140625,91.00480528846154L112.2069234375,91.33991394230769L112.2276599609375,82.06119951923077L112.3456986328125,92.433825L112.937487109375,76.36941562499999L113.090618359375,85.10398269230768L113.57872421875,84.43427596153848L113.5866998046875,82.62117475961539L113.98388398437501,87.39123966346155L114.39542421875,81.09557091346154L114.5214384765625,82.32244471153845L114.7335890625,75.59189206730768L114.86598378906251,81.16488173076922L115.07175390625001,78.58455360576922L115.2185046875,74.77484134615383L115.3923724609375,84.71471033653846L115.5008404296875,74.12262187500001L115.553479296875,73.15988653846154L115.690659375,67.62191394230769L115.92673671874999,83.98884014423078L115.9283318359375,73.64740240384614L116.61104199218751,77.68325769230769L117.19964023437501,67.29050697115385L117.42455175781251,76.12480673076924L117.563326953125,76.68159086538462L117.895111328125,78.5538764423077L118.4677583984375,75.06344495192307L118.96862519531251,73.55188197115385L119.1472783203125,79.78951514423078L119.458326171875,71.72061274038462L119.63538417968749,65.3592923076923L119.707164453125,70.72766826923078L119.9528125,66.15217572115385L120.6977322265625,73.64629615384615L120.874790234375,67.1375891826923L121.27835488281251,63.827774278846164L121.602163671875,74.00280649038461L122.57678027343749,65.60092283653846L123.3615779296875,67.5081829326923L123.5817041015625,70.04349519230769L123.62158203125,61.986548798076925L123.8241619140625,60.314877403846154L124.0028150390625,66.87276995192306L124.237297265625,64.09344447115383L124.51484765625,65.75703173076923L124.581842578125,63.751272836538476L125.928121484375,59.13416826923077L125.95683359374999,58.79216682692308L126.9824939453125,70.1485889423077L127.83747675781251,61.58668197115384L128.30803632812498,54.28900600961539L128.3925775390625,58.38732187500001L128.403743359375,57.576738461538454L128.60153789062502,55.70981394230769L128.82804453125,58.192068750000004L128.87908828124998,59.57424302884614L130.49972734375,59.49323149038463L130.85703359375,57.380379086538454L132.5717845703125,49.18557692307692L132.7887205078125,51.19193149038462L132.79669609375,49.329346875L132.857310546875,48.0495858173077L133.14602675781248,50.04730312500001L133.2194021484375,56.68939831730768L135.3345275390625,55.165624038461544L135.62643398437498,52.03200072115385L137.180078125,48.29347139423078L137.24707304687502,49.83060576923076L137.50548203125,58.11441850961539L138.1546947265625,46.66545432692308L138.53911796875,49.24267644230768L140.23632265625002,42.52131418269232L140.3703125,48.421115625L142.5508376953125,43.5268954326923L143.8269314453125,46.96809879807694L145.3295318359375,44.79584927884616L147.3457599609375,47.2475545673077L149.0525353515625,40.17904254807692L149.9553716796875,42.32172115384614L153.4805806640625,39.55881923076922L154.7758158203125,34.95775528846153L157.339169140625,31.896123317307683L159.9344248046875,32.204299038461556L162.3558126953125,30.621212740384607L163.62393085937498,30.395750480769237L168.3119802734375,31.007379086538464L173.1579462890625,27.216770913461545L175.49479296875,153.6721658653846L177.50304550781252,31.9140360576923L191.8973830078125,118.02683365384615L195.55658183593752,24.456506971153857L199.788427734375,24.620487259615373L214.57675917968749,114.09517860576923L220.05120136718747,136.9706841346154L222.2492728515625,89.76925168269231L222.719832421875,133.27163942307692L224.38194453125,85.65170408653846L225.86221328124998,134.8346004807692L228.66961953125,79.39939182692308L230.01908867187498,112.72249254807693L230.99849062500002,75.79263389423078L231.7434103515625,68.565928125L233.4501857421875,119.9803860576923L234.9208837890625,103.4919L235.55255019531248,68.68727524038462L236.1905970703125,64.68839423076922L239.1256126953125,62.695399759615384L240.96318769531248,13.531224519230761L242.0095845703125,14.22446033653847L245.24448222656252,74.80913509615384" style="fill: none;" fill="none"></path></g></g></g></g></g></g><g transform="translate(74, 177)" clip-path="url(#clip_1)"><clipPath id="clip_1"><rect width="255" height="23"></rect></clipPath><g><g><line x1="0" y1="0" x2="0" y2="5" style="visibility: inherit;" fill="rgb(0, 0, 0)" stroke="rgb(204, 204, 204)" stroke-width="1px"></line><line x1="31.90234375" y1="0" x2="31.90234375" y2="5" style="visibility: inherit;" fill="rgb(0, 0, 0)" stroke="rgb(204, 204, 204)" stroke-width="1px"></line><line x1="63.8046875" y1="0" x2="63.8046875" y2="5" style="visibility: inherit;" fill="rgb(0, 0, 0)" stroke="rgb(204, 204, 204)" stroke-width="1px"></line><line x1="95.70703125" y1="0" x2="95.70703125" y2="5" style="visibility: inherit;" fill="rgb(0, 0, 0)" stroke="rgb(204, 204, 204)" stroke-width="1px"></line><line x1="127.609375" y1="0" x2="127.609375" y2="5" style="visibility: inherit;" fill="rgb(0, 0, 0)" stroke="rgb(204, 204, 204)" stroke-width="1px"></line><line x1="159.51171875" y1="0" x2="159.51171875" y2="5" style="visibility: inherit;" fill="rgb(0, 0, 0)" stroke="rgb(204, 204, 204)" stroke-width="1px"></line><line x1="191.4140625" y1="0" x2="191.4140625" y2="5" style="visibility: inherit;" fill="rgb(0, 0, 0)" stroke="rgb(204, 204, 204)" stroke-width="1px"></line><line x1="223.31640625" y1="0" x2="223.31640625" y2="5" style="visibility: inherit;" fill="rgb(0, 0, 0)" stroke="rgb(204, 204, 204)" stroke-width="1px"></line><line x1="255.21875" y1="0" x2="255.21875" y2="5" style="visibility: inherit;" fill="rgb(0, 0, 0)" stroke="rgb(204, 204, 204)" stroke-width="1px"></line></g><g transform="translate(0, 8)"><text x="0" y="0" dx="0em" dy="0.95em" style="text-anchor: middle; visibility: hidden; font-family: &quot;Helvetica Neue&quot;, sans-serif; font-size: 12px; font-weight: 200;" fill="rgb(50, 49, 63)" stroke="none" stroke-width="1px">-20k</text><text x="31.90234375" y="0" dx="0em" dy="0.95em" style="text-anchor: middle; visibility: inherit; font-family: &quot;Helvetica Neue&quot;, sans-serif; font-size: 12px; font-weight: 200;" fill="rgb(50, 49, 63)" stroke="none" stroke-width="1px">0</text><text x="63.8046875" y="0" dx="0em" dy="0.95em" style="text-anchor: middle; visibility: inherit; font-family: &quot;Helvetica Neue&quot;, sans-serif; font-size: 12px; font-weight: 200;" fill="rgb(50, 49, 63)" stroke="none" stroke-width="1px">20k</text><text x="95.70703125" y="0" dx="0em" dy="0.95em" style="text-anchor: middle; visibility: inherit; font-family: &quot;Helvetica Neue&quot;, sans-serif; font-size: 12px; font-weight: 200;" fill="rgb(50, 49, 63)" stroke="none" stroke-width="1px">40k</text><text x="127.609375" y="0" dx="0em" dy="0.95em" style="text-anchor: middle; visibility: inherit; font-family: &quot;Helvetica Neue&quot;, sans-serif; font-size: 12px; font-weight: 200;" fill="rgb(50, 49, 63)" stroke="none" stroke-width="1px">60k</text><text x="159.51171875" y="0" dx="0em" dy="0.95em" style="text-anchor: middle; visibility: inherit; font-family: &quot;Helvetica Neue&quot;, sans-serif; font-size: 12px; font-weight: 200;" fill="rgb(50, 49, 63)" stroke="none" stroke-width="1px">80k</text><text x="191.4140625" y="0" dx="0em" dy="0.95em" style="text-anchor: middle; visibility: inherit; font-family: &quot;Helvetica Neue&quot;, sans-serif; font-size: 12px; font-weight: 200;" fill="rgb(50, 49, 63)" stroke="none" stroke-width="1px">100k</text><text x="223.31640625" y="0" dx="0em" dy="0.95em" style="text-anchor: middle; visibility: inherit; font-family: &quot;Helvetica Neue&quot;, sans-serif; font-size: 12px; font-weight: 200;" fill="rgb(50, 49, 63)" stroke="none" stroke-width="1px">120k</text><text x="255.21875" y="0" dx="0em" dy="0.95em" style="text-anchor: middle; visibility: hidden; font-family: &quot;Helvetica Neue&quot;, sans-serif; font-size: 12px; font-weight: 200;" fill="rgb(50, 49, 63)" stroke="none" stroke-width="1px">140k</text></g><line x1="0" y1="0" x2="255.21875" y2="0" fill="rgb(0, 0, 0)" stroke="rgb(204, 204, 204)" stroke-width="1px"></line></g></g></g></g></svg>