<svg viewBox="0 0 330 200" xmlns="http://www.w3.org/2000/svg"><g><g><g><g><g><line x1="74.78125" y1="177" x2="69.78125" y2="177" style="visibility: inherit;" fill="rgb(0, 0, 0)" stroke="rgb(204, 204, 204)" stroke-width="1px"></line><line x1="74.78125" y1="163.3846153846154" x2="69.78125" y2="163.3846153846154" style="visibility: inherit;" fill="rgb(0, 0, 0)" stroke="rgb(204, 204, 204)" stroke-width="1px"></line><line x1="74.78125" y1="149.76923076923077" x2="69.78125" y2="149.76923076923077" style="visibility: inherit;" fill="rgb(0, 0, 0)" stroke="rgb(204, 204, 204)" stroke-width="1px"></line><line x1="74.78125" y1="136.15384615384616" x2="69.78125" y2="136.15384615384616" style="visibility: inherit;" fill="rgb(0, 0, 0)" stroke="rgb(204, 204, 204)" stroke-width="1px"></line><line x1="74.78125" y1="122.53846153846153" x2="69.78125" y2="122.53846153846153" style="visibility: inherit;" fill="rgb(0, 0, 0)" stroke="rgb(204, 204, 204)" stroke-width="1px"></line><line x1="74.78125" y1="108.92307692307692" x2="69.78125" y2="108.92307692307692" style="visibility: inherit;" fill="rgb(0, 0, 0)" stroke="rgb(204, 204, 204)" stroke-width="1px"></line><line x1="74.78125" y1="95.3076923076923" x2="69.78125" y2="95.3076923076923" style="visibility: inherit;" fill="rgb(0, 0, 0)" stroke="rgb(204, 204, 204)" stroke-width="1px"></line><line x1="74.78125" y1="81.6923076923077" x2="69.78125" y2="81.6923076923077" style="visibility: inherit;" fill="rgb(0, 0, 0)" stroke="rgb(204, 204, 204)" stroke-width="1px"></line><line x1="74.78125" y1="68.07692307692307" x2="69.78125" y2="68.07692307692307" style="visibility: inherit;" fill="rgb(0, 0, 0)" stroke="rgb(204, 204, 204)" stroke-width="1px"></line><line x1="74.78125" y1="54.46153846153847" x2="69.78125" y2="54.46153846153847" style="visibility: inherit;" fill="rgb(0, 0, 0)" stroke="rgb(204, 204, 204)" stroke-width="1px"></line><line x1="74.78125" y1="40.84615384615384" x2="69.78125" y2="40.84615384615384" style="visibility: inherit;" fill="rgb(0, 0, 0)" stroke="rgb(204, 204, 204)" stroke-width="1px"></line><line x1="74.78125" y1="27.230769230769226" x2="69.78125" y2="27.230769230769226" style="visibility: inherit;" fill="rgb(0, 0, 0)" stroke="rgb(204, 204, 204)" stroke-width="1px"></line><line x1="74.78125" y1="13.615384615384613" x2="69.78125" y2="13.615384615384613" style="visibility: inherit;" fill="rgb(0, 0, 0)" stroke="rgb(204, 204, 204)" stroke-width="1px"></line><line x1="74.78125" y1="0" x2="69.78125" y2="0" style="visibility: inherit;" fill="rgb(0, 0, 0)" stroke="rgb(204, 204, 204)" stroke-width="1px"></line></g><g transform="translate(64.78125, 0)"><text x="0" y="177" dx="0em" dy="0.3em" style="text-anchor: end; visibility: hidden; font-family: &quot;Helvetica Neue&quot;, sans-serif; font-size: 12px; font-weight: 200;" fill="rgb(50, 49, 63)" stroke="none" stroke-width="1px">-5e+3</text><text x="0" y="163.3846153846154" dx="0em" dy="0.3em" style="text-anchor: end; visibility: inherit; font-family: &quot;Helvetica Neue&quot;, sans-serif; font-size: 12px; font-weight: 200;" fill="rgb(50, 49, 63)" stroke="none" stroke-width="1px">0</text><text x="0" y="149.76923076923077" dx="0em" dy="0.3em" style="text-anchor: end; visibility: hidden; font-family: &quot;Helvetica Neue&quot;, sans-serif; font-size: 12px; font-weight: 200;" fill="rgb(50, 49, 63)" stroke="none" stroke-width="1px">5e+3</text><text x="0" y="136.15384615384616" dx="0em" dy="0.3em" style="text-anchor: end; visibility: inherit; font-family: &quot;Helvetica Neue&quot;, sans-serif; font-size: 12px; font-weight: 200;" fill="rgb(50, 49, 63)" stroke="none" stroke-width="1px">1e+4</text><text x="0" y="122.53846153846153" dx="0em" dy="0.3em" style="text-anchor: end; visibility: hidden; font-family: &quot;Helvetica Neue&quot;, sans-serif; font-size: 12px; font-weight: 200;" fill="rgb(50, 49, 63)" stroke="none" stroke-width="1px">1.5e+4</text><text x="0" y="108.92307692307692" dx="0em" dy="0.3em" style="text-anchor: end; visibility: inherit; font-family: &quot;Helvetica Neue&quot;, sans-serif; font-size: 12px; font-weight: 200;" fill="rgb(50, 49, 63)" stroke="none" stroke-width="1px">2e+4</text><text x="0" y="95.3076923076923" dx="0em" dy="0.3em" style="text-anchor: end; visibility: hidden; font-family: &quot;Helvetica Neue&quot;, sans-serif; font-size: 12px; font-weight: 200;" fill="rgb(50, 49, 63)" stroke="none" stroke-width="1px">2.5e+4</text><text x="0" y="81.6923076923077" dx="0em" dy="0.3em" style="text-anchor: end; visibility: inherit; font-family: &quot;Helvetica Neue&quot;, sans-serif; font-size: 12px; font-weight: 200;" fill="rgb(50, 49, 63)" stroke="none" stroke-width="1px">3e+4</text><text x="0" y="68.07692307692307" dx="0em" dy="0.3em" style="text-anchor: end; visibility: hidden; font-family: &quot;Helvetica Neue&quot;, sans-serif; font-size: 12px; font-weight: 200;" fill="rgb(50, 49, 63)" stroke="none" stroke-width="1px">3.5e+4</text><text x="0" y="54.46153846153847" dx="0em" dy="0.3em" style="text-anchor: end; visibility: inherit; font-family: &quot;Helvetica Neue&quot;, sans-serif; font-size: 12px; font-weight: 200;" fill="rgb(50, 49, 63)" stroke="none" stroke-width="1px">4e+4</text><text x="0" y="40.84615384615384" dx="0em" dy="0.3em" style="text-anchor: end; visibility: hidden; font-family: &quot;Helvetica Neue&quot;, sans-serif; font-size: 12px; font-weight: 200;" fill="rgb(50, 49, 63)" stroke="none" stroke-width="1px">4.5e+4</text><text x="0" y="27.230769230769226" dx="0em" dy="0.3em" style="text-anchor: end; visibility: inherit; font-family: &quot;Helvetica Neue&quot;, sans-serif; font-size: 12px; font-weight: 200;" fill="rgb(50, 49, 63)" stroke="none" stroke-width="1px">5e+4</text><text x="0" y="13.615384615384613" dx="0em" dy="0.3em" style="text-anchor: end; visibility: hidden; font-family: &quot;Helvetica Neue&quot;, sans-serif; font-size: 12px; font-weight: 200;" fill="rgb(50, 49, 63)" stroke="none" stroke-width="1px">5.5e+4</text><text x="0" y="0" dx="0em" dy="0.3em" style="text-anchor: end; visibility: hidden; font-family: &quot;Helvetica Neue&quot;, sans-serif; font-size: 12px; font-weight: 200;" fill="rgb(50, 49, 63)" stroke="none" stroke-width="1px">6e+4</text></g><line x1="74.78125" y1="0" x2="74.78125" y2="177" fill="rgb(0, 0, 0)" stroke="rgb(204, 204, 204)" stroke-width="1px"></line></g></g><g transform="translate(74, 0)" clip-path="url(#clip_0)"><clipPath id="clip_0"><rect width="255" height="177"></rect></clipPath><g><g><g><line x1="0" y1="0" x2="0" y2="177" fill="rgb(0, 0, 0)" stroke="rgb(60, 60, 60)" stroke-width="1px" opacity="0.25"></line><line x1="28.357638888888886" y1="0" x2="28.357638888888886" y2="177" fill="rgb(0, 0, 0)" stroke="rgb(60, 60, 60)" stroke-width="1px" opacity="0.25"></line><line x1="56.71527777777777" y1="0" x2="56.71527777777777" y2="177" fill="rgb(0, 0, 0)" stroke="rgb(60, 60, 60)" stroke-width="1px" opacity="0.25"></line><line x1="85.07291666666666" y1="0" x2="85.07291666666666" y2="177" fill="rgb(0, 0, 0)" stroke="rgb(60, 60, 60)" stroke-width="1px" opacity="0.25"></line><line x1="113.43055555555554" y1="0" x2="113.43055555555554" y2="177" fill="rgb(0, 0, 0)" stroke="rgb(60, 60, 60)" stroke-width="1px" opacity="0.25"></line><line x1="141.78819444444446" y1="0" x2="141.78819444444446" y2="177" fill="rgb(0, 0, 0)" stroke="rgb(60, 60, 60)" stroke-width="1px" opacity="0.25"></line><line x1="170.14583333333331" y1="0" x2="170.14583333333331" y2="177" fill="rgb(0, 0, 0)" stroke="rgb(60, 60, 60)" stroke-width="1px" opacity="0.25"></line><line x1="198.50347222222223" y1="0" x2="198.50347222222223" y2="177" fill="rgb(0, 0, 0)" stroke="rgb(60, 60, 60)" stroke-width="1px" opacity="0.25"></line><line x1="226.8611111111111" y1="0" x2="226.8611111111111" y2="177" fill="rgb(0, 0, 0)" stroke="rgb(60, 60, 60)" stroke-width="1px" opacity="0.25"></line><line x1="255.21875" y1="0" x2="255.21875" y2="177" fill="rgb(0, 0, 0)" stroke="rgb(60, 60, 60)" stroke-width="1px" opacity="0.25"></line></g><g><line x1="0" y1="177" x2="255.21875" y2="177" fill="rgb(0, 0, 0)" stroke="rgb(60, 60, 60)" stroke-width="1px" opacity="0.25"></line><line x1="0" y1="163.3846153846154" x2="255.21875" y2="163.3846153846154" fill="rgb(0, 0, 0)" stroke="rgb(60, 60, 60)" stroke-width="1px" opacity="0.25"></line><line x1="0" y1="149.76923076923077" x2="255.21875" y2="149.76923076923077" fill="rgb(0, 0, 0)" stroke="rgb(60, 60, 60)" stroke-width="1px" opacity="0.25"></line><line x1="0" y1="136.15384615384616" x2="255.21875" y2="136.15384615384616" fill="rgb(0, 0, 0)" stroke="rgb(60, 60, 60)" stroke-width="1px" opacity="0.25"></line><line x1="0" y1="122.53846153846153" x2="255.21875" y2="122.53846153846153" fill="rgb(0, 0, 0)" stroke="rgb(60, 60, 60)" stroke-width="1px" opacity="0.25"></line><line x1="0" y1="108.92307692307692" x2="255.21875" y2="108.92307692307692" fill="rgb(0, 0, 0)" stroke="rgb(60, 60, 60)" stroke-width="1px" opacity="0.25"></line><line x1="0" y1="95.3076923076923" x2="255.21875" y2="95.3076923076923" fill="rgb(0, 0, 0)" stroke="rgb(60, 60, 60)" stroke-width="1px" opacity="0.25"></line><line x1="0" y1="81.6923076923077" x2="255.21875" y2="81.6923076923077" fill="rgb(0, 0, 0)" stroke="rgb(60, 60, 60)" stroke-width="1px" opacity="0.25"></line><line x1="0" y1="68.07692307692307" x2="255.21875" y2="68.07692307692307" fill="rgb(0, 0, 0)" stroke="rgb(60, 60, 60)" stroke-width="1px" opacity="0.25"></line><line x1="0" y1="54.46153846153847" x2="255.21875" y2="54.46153846153847" fill="rgb(0, 0, 0)" stroke="rgb(60, 60, 60)" stroke-width="1px" opacity="0.25"></line><line x1="0" y1="40.84615384615384" x2="255.21875" y2="40.84615384615384" fill="rgb(0, 0, 0)" stroke="rgb(60, 60, 60)" stroke-width="1px" opacity="0.25"></line><line x1="0" y1="27.230769230769226" x2="255.21875" y2="27.230769230769226" fill="rgb(0, 0, 0)" stroke="rgb(60, 60, 60)" stroke-width="1px" opacity="0.25"></line><line x1="0" y1="13.615384615384613" x2="255.21875" y2="13.615384615384613" fill="rgb(0, 0, 0)" stroke="rgb(60, 60, 60)" stroke-width="1px" opacity="0.25"></line><line x1="0" y1="0" x2="255.21875" y2="0" fill="rgb(0, 0, 0)" stroke="rgb(60, 60, 60)" stroke-width="1px" opacity="0.25"></line></g></g></g><g><g><line x1="0" y1="163.3846153846154" x2="255.21875" y2="163.3846153846154" fill="rgb(0, 0, 0)" stroke="rgb(153, 153, 153)" stroke-width="1.5px"></line></g></g><g><g><line x1="28.357638888888886" y1="0" x2="28.357638888888886" y2="177" fill="rgb(0, 0, 0)" stroke="rgb(153, 153, 153)" stroke-width="1.5px"></line></g></g><g><g><g><g><g><path stroke="rgb(255, 112, 67)" stroke-width="2px" d="M28.930463194444446,162.84L29.097773263888886,162.84L29.209785937499998,162.63903491342606L29.333141666666666,162.4599252913414L29.476347743055555,162.41974539928583L29.564256423611113,162.45132027212074L29.732984375,162.4214305404446L29.791117534722222,162.49492401911778L29.80387847222222,162.46235038579343L29.83223611111111,162.20676878361883L29.871936805555556,162.14031489344632L29.87619045138889,161.9342338871775L29.974024305555556,161.94614612070058L30.0009640625,161.55007757578454L30.257600694444445,161.60964111504333L30.26610798611111,161.45984200247617L30.30013715277778,161.6254818626822L30.3837921875,161.73634249307005L30.704233506944444,161.8324617625617L30.711322916666667,161.94716024396064L30.76378454861111,161.99645319143386L30.836096527777777,161.9843037370692L30.90273697916667,162.07819487699362L30.952362847222222,162.08700089060045L30.9963171875,162.168124660669L31.03885364583333,161.90516853803194L31.06295763888889,161.90805001619714L31.116837152777777,161.89145335533658L31.173552430555556,161.99099663645296L31.217506770833335,162.0227828904712L31.448621527777778,161.83879269186457L31.4557109375,161.88607542373043L31.468471875000002,161.95641069383728L31.474143402777777,162.0402949926384L31.630110416666668,162.0385289796304L31.668393229166668,161.98123141304043L31.701004513888886,161.916016777743L31.89667222222222,161.89918487441253L32.06256440972222,161.7364397332022L32.18733802083333,161.80699243729623L32.19300954861111,161.8633895871155L32.195845312500005,161.90711256394636L32.22562083333333,161.7922093489605L32.374498437499994,161.79352424247946L32.398602430555556,161.74113766703263L32.4255421875,161.01477977610242L32.428377951388896,161.04502330195726L32.46098923611111,161.14345495370677L32.52337604166667,161.02651674447577L32.602777430555555,160.96245800259555L32.78710208333334,161.03253726335709L32.86366770833333,161.02262678052142L32.87075711805555,160.92260367899704L32.91612934027778,161.01116585143413L32.92038298611111,160.98975333335602L32.972844618055554,161.17528616097485L33.03097777777778,161.15108249739126L33.079185763888894,161.24393408795981L33.216720312499994,161.1816801166601L33.23231701388889,161.3478106432615L33.26492829861111,161.46999642189704L33.36701579861111,161.33449184987924L33.4719390625,161.29437472602092L33.50738611111112,161.29917368070576L33.51447552083333,161.01726486681738L33.5995484375,161.14519901942322L33.62365243055555,161.15811329428075L33.62648819444444,161.25830254357132L33.7016359375,160.9533368956312L33.813648611111105,160.8859917782795L33.849095659722224,160.84991071512536L33.89446788194445,160.90598656525944L33.969615624999996,160.7889036588519L34.07312100694444,160.66719402757295L34.07737465277778,160.68024868565806L34.25460989583333,160.68226844332023L34.285803298611114,160.6302567697253L34.37654774305555,160.69126677923973L34.38505503472222,160.6921842777076L34.563708159722225,160.79063771519654L34.67997447916667,160.6843442427988L34.69840694444444,160.59581724039919L34.844448784722225,160.61672467970197L34.86004548611111,160.7029107195814L34.89832829861111,160.64702782295336L34.95362569444444,160.55839757502207L35.06989201388889,160.54964921104596L35.10817482638889,160.49275586242024L35.13369670138889,160.45063056786427L35.171979513888886,160.31740352712157L35.208844444444445,160.3813213972076L35.283992187500004,160.39787854872992L35.371900868055555,160.40246017905915L35.49525659722222,160.51517171754813L35.563314930555556,160.38305885212083L35.5902546875,160.4120426073589L35.646969965277776,160.46422486328842L35.693760069444444,160.34661458681992L35.87383107638889,160.31062097230821L35.95606822916667,160.26683623241348L36.35732881944445,160.09172380767964L36.36016458333333,160.00222058995323L36.48068454861111,159.85466028909408L36.489191840277776,159.76223661981345L36.57568263888889,159.67879627559853L36.606876041666666,159.65355915368764L36.64515885416667,159.55435051103944L36.72172447916667,159.5289151691126L36.723142361111115,159.38439140683911L36.75575364583333,159.35574851192493L36.811051041666666,159.18508569975396L37.032240625,159.08589647207663L37.03933003472222,158.94128597810612L37.059180381944444,158.8482644962876L37.08044861111111,158.77362225384323L37.42641180555555,158.6540907077921L37.44200850694445,158.56550816769638L37.461858854166664,158.47118026776113L37.60506493055556,158.34851343734354L37.64051197916667,158.24835140470162L37.67312326388889,158.20289593981556L37.83050815972223,158.11109841341252L38.00065399305556,158.0138441123537L38.03893680555556,157.96205574524004L38.23318663194444,157.85247496176328L38.38064635416667,157.79299659428216L38.39624305555555,157.56428121913936L38.43736163194444,157.51745399367007L38.610343229166666,157.32062644075515L38.63019357638889,157.2283858082042L38.689744618055556,157.12920097302654L38.86839774305556,157.0423502432528L38.88399444444444,156.99844274561224L38.91944149305555,157.0592571698237L38.95205277777777,156.98038909271176L39.02578263888889,156.89834532665446L39.102348263888885,156.83987997111143L39.18174965277778,156.75004579877265L39.205853645833336,156.6290808404816L39.306523263888884,156.5566390741466L39.37316371527778,156.52547996341445L39.68793350694445,156.28895112262447L39.72763420138889,156.2913685110539L39.76024548611111,156.1670802738922L39.859497222222224,156.22678572188278L39.863750868055554,156.18606387196735L39.99986753472222,156.27110173150822L40.55709513888889,156.16467904037177L40.72865885416667,155.97188899162632L40.80664236111111,155.85319637128777L40.81940329861111,155.90344404804193L40.85201458333333,155.84605747040825L40.90589409722222,155.83617528007355L41.01648888888889,155.65024014109068L41.08880086805556,155.58973535286006L41.10723333333333,155.53698296758247L41.12708368055556,155.47078466648992L41.22349965277778,155.32270619111506L41.31566197916666,155.25487723645014L41.413495833333336,155.22539912678272L41.6134171875,155.14185440282324L42.1621375,155.18069300250403L42.16497326388889,155.05907081340627L42.19333090277778,154.95963025163783L42.24153888888889,154.8841883075809L42.272732291666664,154.91050024672103L42.27982170138889,154.88652714457854L42.41735625,154.71603308046377L42.48399670138889,154.52352656235215L42.50810069444445,154.39331286391075L42.900853993055556,154.3334094612378L43.00577725694444,154.42926563179083L43.017120312500005,154.3181131057247L43.14189392361111,154.4452825657716L43.20286284722222,154.42868700133906L43.20995225694444,154.49033753251967L43.25532447916667,154.4181787786933L43.44815642361111,154.24090897647704L43.5530796875,154.30409849127102L43.665092361111114,154.24501869663882L43.707628819444444,154.18718028821132L43.710464583333334,154.17171706700984L43.76009045138889,154.0905742061194L43.81113420138889,154.17582447813976L43.9359078125,154.22787183819642L44.066352951388886,154.15728176954372L44.498806944444446,154.09034686163432L44.64910243055556,153.97394198287242L44.65193819444445,153.8036535534331L44.792308506944444,153.74229781335026L44.951111284722224,153.77642860900048L44.987976215277776,153.78672324811728L45.05036302083333,153.6748499262956L45.105660416666666,153.56850916429408L45.41901232638889,153.55874959400688L45.42043020833333,153.42742751908037L45.468638194444445,153.2879636131912L45.60617274305555,153.21265282872955L45.760721874999994,153.0095702380051L45.92803194444445,152.91189206028952L46.186086458333335,152.85121246960665L46.24989114583333,152.81702391493414L46.265487847222225,152.7896580618882L46.28675607638889,152.77013456338264L46.359068055555554,152.7212699689531L46.48667743055555,152.64391220279802L46.60436163194444,152.52323252093905L46.84965520833333,152.32441888416938L46.87801284722222,152.27057795727617L46.98435399305556,152.26288497299498L47.33598871527778,152.2747647449289L47.436658333333334,152.31098538582782L47.548671006944446,152.39804550110682L47.586953819444446,152.28833710482456L47.73299565972222,152.098793708317L48.21649340277778,152.07006818363539L48.28171597222222,151.98209501910765L48.38238559027778,151.7735730171748L48.57379965277778,151.84544648469495L48.68439444444445,151.76717106698797L48.77088524305556,151.7009779987456L48.79498923611111,151.47881566985922L48.85312239583334,151.46953987210347L48.90133038194445,151.42951394603872L49.10975902777778,151.45325005143604L49.13244513888889,151.38441062321237L49.163638541666664,151.17353686857479L49.21610017361111,151.00162068171096L49.2189359375,150.9243336135373L49.5762421875,150.83265025218083L49.603181944444444,150.67354868849694L49.709523090277784,150.4648332427191L50.283765277777775,150.38676337998396L50.636817881944445,150.2237456958285L50.804127951388885,150.04389719370042L50.82823194444445,150.10663247433138L50.917558506944445,149.89844518843373L51.02957118055556,149.85233624651283L51.06360034722222,149.95720358340122L51.073525520833336,149.99967553275386L51.208224305555554,150.13235701794125L51.29471510416667,150.0543472776849L51.30464027777778,150.05136447299333L51.315983333333335,149.88104052569284L51.320236979166665,149.86815762696963L51.40814565972222,149.86507263350342L51.579709375,149.7831567163065L51.598141840277776,149.72219681390635L51.69739357638889,149.76178963251587L51.83067447916667,149.59489432310983L52.01499913194444,149.54425104464485L52.29999340277778,149.46633555556474L52.478646527777784,149.31707219231558L52.55095850694445,149.07125920385266L52.62185260416667,148.98362847577488L52.722522222222224,148.92943870512036L53.091171527777774,148.85939387306976L53.19609479166667,148.7759304473011L53.23012395833334,148.79441913334026L53.75899392361111,148.66979933539068L53.825634375,148.49126651723603L53.966004687499996,148.49141871166626L54.10353923611111,148.27626241742252L54.19711944444444,148.1115544449109L54.22547708333333,148.04245669272746L54.367265277777776,147.83220140806995L54.37719045138889,147.5944668441859L54.43674149305556,147.55325092899804L54.727407291666665,147.4268056437905L54.744421875,147.47468757941147L54.81956961805556,147.41226209070106L54.87486701388889,147.18078107393856L54.948596875,146.8218279665446L55.03083402777778,146.69278940065934L55.06060954861111,146.70259699905495L55.083295659722225,146.65781326068787L55.09605659722222,146.60219058846525L55.10031024305555,146.53085614500333L55.20665138888889,146.67684264588763L55.298813715277774,146.4703987659142L55.43493038194445,146.11015215855352L55.70574583333333,145.8012475196212L55.769550520833334,145.77511795996676L56.31968871527778,145.669058087047L56.39625434027777,145.2323686244961L56.42461197916666,145.35673272358497L56.75781423611111,145.157208489688L56.888259375,144.9470020637961L57.42989027777778,144.88801339587803L57.448322743055556,144.70302455629022L57.63973680555555,144.5186644083535L57.69786996527778,144.31359604444123L57.818389930555554,144.3009287476894L58.15584583333333,143.80618202676658L58.211143229166666,143.5149340163976L58.2919625,143.4136425378348L58.34442413194444,143.45437924558976L58.46919774305555,143.2595807441077L58.5599421875,143.11659863123538L58.59964288194445,143.005784921958L58.70881979166667,143.09156219899296L58.94702395833333,143.09813194063213L59.41208923611111,142.8334389388766L59.42201440972222,142.55777292960434L59.48723697916667,142.57432255972083L59.5170125,142.12969799605642L59.58932447916666,142.06992050414308L60.48117222222223,141.45703903065186L60.51094774305555,141.10031589681745L61.12914427083333,140.778414114828L61.468018055555554,140.50146693411443L61.60413472222222,140.23604620224145L61.95718732638889,139.94696081278653L62.07770729166666,139.8442118468925L62.27762864583333,139.35689162374172L62.55695138888889,139.316553422906L62.69306805555556,139.44363365753847L62.700157465277776,138.82192413793848L62.80366284722222,138.77551537799079L63.09149288194445,138.25635807096094L63.274399652777774,137.713380917711L63.423277256944445,138.0663024413245L63.523946875,138.0358885433459L63.89259618055555,137.59069391978053L64.01736979166667,137.52104279703326L64.06415989583333,137.18094332502224L64.41863038194444,136.5634018771354L64.92765,136.41267226634494L65.78830434027778,135.93748196278736L65.79681163194445,135.42131068958554L66.10023836805556,135.14226615908854L66.16120729166666,134.68689531241046L66.54261753472223,134.27025385809247L66.72977795138888,133.924209241514L66.83044756944444,133.7957258173626L66.84888003472221,133.6341388125494L66.93111718749999,133.3968066620637L66.943878125,133.16789041893423L67.38909305555556,132.89804368473312L67.49826996527777,133.0006720085675L67.57625347222222,132.41907596155693L67.69393767361112,132.1407164423243L67.6967734375,131.84849575963034L67.84281527777779,131.5514586836673L67.9009484375,131.09946666145441L67.9293060763889,131.3921642260782L68.0002001736111,130.861644918855L68.07534791666666,130.32971600389257L68.526234375,130.22285017273407L68.71623055555555,129.85521419392222L68.83958628472223,129.72857258222228L68.90764461805556,129.84265282400006L68.95159895833334,129.73003177236927L69.17137065972221,129.58527378744006L69.20398194444444,129.34606852408066L69.24651840277778,129.0737693639803L69.59957100694444,128.90273377373612L69.92568385416668,128.54542193482402L70.60201354166666,128.10215377980316L70.94655885416667,127.83426051720747L71.0302138888889,127.46295946548672L71.13797291666667,127.44279332663035L71.65408194444444,127.01618226319809L71.67251440972223,126.83561211380135L72.08653593749999,126.54545474857505L72.45943888888888,126.33622177371757L72.58704826388889,126.52658998096119L72.61257013888888,126.464757905942L72.75010468750001,126.3342244230401L72.82241666666667,126.3120519807361L72.86778888888888,125.8181112057394L72.98689097222223,125.77351643131931L73.07621753472223,125.71295805741815L73.46046354166667,125.30105167475327L74.00209444444445,125.08265804573946L74.03754149305556,124.79590185655013L74.23746284722222,124.45612897858743L75.76593958333333,124.18096800380562L75.8992204861111,124.03118370342506L76.1544392361111,123.88446437154407L76.17712534722223,123.33034004977428L76.29906319444444,122.93714739095071L76.66062309027778,122.76112495954794L76.68614496527778,122.3891134251316L76.81517222222223,121.70540881338766L76.82651527777779,121.61681985512584L76.91442395833333,120.89291190807478L77.15971753472222,120.547740909575L77.24762621527778,120.39536585707904L77.54254565972222,119.75616100214035L77.56664965277777,119.87185740192632L77.62336493055555,119.93003223865676L77.69284114583333,119.22418286094494L77.91119496527777,119.35733669023506L78.0969375,119.2908145596731L78.35073836805556,119.1449975267827L78.61446440972223,118.59083431256597L79.3886279513889,118.5396931890017L79.55452013888889,118.78724790856306L80.5087546875,118.72582600232212L80.55838055555556,118.28676263285917L81.15389097222223,117.82863444649632L81.29284340277778,117.04444888646208L81.45164618055556,116.79649919012355L81.48425746527778,116.62525311726506L81.77634114583334,116.19286722861547L81.8103703125,115.46333531344622L81.85007100694445,115.06715082056314L82.09678246527778,114.3514790077376L82.22864548611112,113.77034553004077L82.31797204861111,113.68982540011362L82.3718515625,113.6896890139484L82.46259600694444,113.09304222793817L82.69512864583334,112.67859858206742L82.74475451388889,112.34048872386067L82.91206458333335,111.16565619762846L83.03258454861111,111.01458096248099L83.04959913194445,110.54844017392521L83.47354583333333,110.31612500268653L83.89891041666667,109.83473365626402L84.15554704861111,109.54444298294531L84.22360538194444,108.91556599234309L84.30300677083333,108.85504785464724L84.73120711805555,108.6142209537979L84.73404288194445,108.35918347380273L84.73829652777778,108.07433724180707L85.35649305555555,107.91243236378021L85.69962048611112,107.62716028124834L86.33624947916667,107.19681925312351L86.49505225694445,107.0494834816573L86.75168888888889,106.97389571041464L86.78855381944445,107.15009267783472L86.96011753472223,107.20144879466663L87.20257534722222,106.98557314596918L87.208246875,106.91212160060303L87.53152395833332,106.57540944054273L87.58114982638888,105.7200944580269L87.65913333333333,105.34771001222421L88.01360381944446,105.2559390110018L88.0277826388889,105.04144607144006L88.04479722222221,104.6586380027576L88.11852708333333,103.95415401017415L88.25606163194443,103.2435318783875L88.26031527777778,103.47876042131799L88.26882256944445,103.35603822534003L88.46307239583334,103.80637190280603L88.80052829861111,103.03223952021773L88.96074895833334,102.91417422204212L89.08835833333335,102.49646353060713L89.42581423611112,102.55111044677719L89.44850034722222,102.26075901748408L89.47969375000001,102.0300773465049L89.87102916666667,102.12030038108517L90.29781163194444,102.27638572759204L90.30064739583334,102.10115580867898L90.65795364583333,101.99791042011877L91.59659149305556,101.47525399349152L91.6263670138889,101.47374301721929L91.67315711805556,101.2860225616512L92.02053819444446,100.672872228563L92.25448871527777,100.31760904416822L92.4529921875,99.90937217821293L92.66142083333332,99.43303592193011L92.8967892361111,99.64255444512172L92.93932569444445,99.546899962148L93.16618680555555,99.10681092747166L93.4738671875,98.57883175780141L93.6142375,98.20576588971358L94.048109375,97.51345372381914L94.23668767361112,97.44519969759106L94.62944097222221,97.33952107398581L95.13137118055555,96.42833819735645L95.14838576388888,95.99120630069773L95.27883090277778,95.68798951678178L95.34263559027778,95.30021460356515L95.38517204861111,95.10183737397786L96.36067482638889,94.93180748273393L96.447165625,94.46988154215283L97.27379079861112,94.1971097340914L97.30640208333332,94.14733626068225L97.43542934027778,93.47793436538326L97.85228663194444,92.58444381346031L98.4222751736111,92.05686481672967L98.4407076388889,91.47312064274901L98.55697395833333,91.17410665539718L98.72853767361111,90.83181137447285L98.85756493055555,90.98581773702557L98.8944298611111,90.58831769409224L99.08584392361112,90.24673592468301L99.11845520833334,89.78869213990701L99.31554079861111,89.6623758105317L99.54098402777778,89.36233053717083L99.59202777777779,88.62511190653068L99.66717552083334,88.43474975433915L99.88127569444445,88.23704400967445L100.00463142361112,88.73647422409162L100.03724270833334,88.16736045552862L100.39596684027778,88.40825902536037L100.44275694444444,87.86430812282433L101.23818871527777,87.62323307977267L101.31475434027777,87.20543861794924L101.57280885416667,86.75283706384663L101.7939984375,86.7250245113081L102.27324253472223,86.59192109863884L102.35973333333334,86.10536360415956L102.7638296875,85.96444743605132L103.21471614583332,85.93378153860003L103.2742671875,85.9095860770477L103.35225069444445,86.0741707385737L103.75209340277777,86.6384171262548L103.81589809027777,86.91222445209085L104.01014791666667,86.71955489149714L104.31641041666667,87.24308978696283L104.37737934027778,87.24283850057422L104.86513072916667,87.22814599667065L104.89915989583332,87.24470639700357L104.92184600694445,87.15579344961093L105.47765572916667,86.76431987388057L105.54429618055555,87.01107057880022L105.65489097222222,87.01104525168944L105.65772673611112,87.2748205342128L105.92996006944445,87.45860771156073L105.93279583333333,86.95601136348158L106.12137413194444,86.52750157328728L106.33547430555555,86.71113603134316L106.44465121527779,86.8908733897473L106.90404496527778,86.63396393538795L106.93382048611112,85.91429350338761L107.35067777777778,86.34560934535656L107.45276527777779,86.8597359108209L107.75619201388888,86.64848828127725L108.52326614583333,86.17669714545723L109.23220711805556,86.28053223860381L109.50869409722222,86.0387049762819L109.5810060763889,85.7938296709614L109.88017916666666,85.28922074232679L109.96950572916667,85.16354386040182L110.36225902777777,84.65643947436163L110.66852152777778,84.19153591154085L110.79471302083333,84.318589051156L111.12507951388889,84.23976860757885L111.22574913194444,84.35178693912864L111.2626140625,84.87382939906193L111.29522534722223,84.85606665146344L111.57171232638889,84.657974409394L111.72484357638889,84.09675869922384L112.01267361111111,83.83844340622453L112.04103125,83.67658945021745L112.12185052083333,83.48752185134956L112.730121875,83.05271197390691L112.75706163194445,83.16345039190082L113.88711354166666,82.99591304501844L114.05867725694445,82.95320154820888L114.08419913194444,82.5990544703111L114.13098923611112,82.29649036943384L114.1721078125,81.89483652479814L114.26568802083332,81.87968941077986L115.25536961805557,81.91541277739418L115.32201006944445,81.75354457657785L115.87356614583334,81.67338723430467L115.98841458333334,81.44466870318188L116.52437395833334,81.55878356363294L116.6987734375,81.31003982265425L116.70160920138889,81.73119930192729L117.170928125,81.39032937173454L117.4615939236111,81.18821470379187L117.50413038194445,80.75868169495114L117.60905364583333,80.63675102545604L117.69554444444444,80.48276342291041L117.8756154513889,80.21482842677322L117.89830156250001,80.62041769948053L118.12658055555556,80.18469323722476L118.26695086805556,79.92103641350228L118.36620260416666,80.21219238753667L118.41015694444445,80.02832891801376L118.8525361111111,80.32407294928932L118.92768385416667,80.30857430820654L119.90885815972223,79.69129380046282L119.95706614583334,79.76119807426268L120.02228871527777,79.45990038222104L120.1598232638889,79.39211226707585L120.42071354166667,78.85286257882979L120.68727534722223,78.70281670556219L121.2955467013889,78.59075138115983L121.73225434027778,78.21247912765924L121.77479079861111,78.06094756104714L121.9945625,78.08369895878859L122.41992708333333,77.77315117829436L122.87648506944446,77.71575913738799L122.92894670138888,77.71601495441841L123.01543749999999,77.85239903589967L123.49468159722223,77.82792836307891L123.78818315972222,77.93354898830948L123.90728524305555,77.81756908947854L124.01220850694443,77.40428814206913L124.11429600694444,76.94809009709302L124.266009375,76.43114166430676L124.3553359375,76.46880634402994L124.66443420138889,76.45419974808847L124.69988124999999,75.43011150404887L124.72398524305555,75.36109554595167L125.36345,74.92370714520266L125.50949184027778,74.78789893068237L126.46514427083333,74.26657057607571L126.511934375,74.0467067876989L126.67640868055555,73.97817553200593L126.73170607638889,73.67993009418996L126.88483732638889,73.29237458477097L127.19960711805555,72.83294962629385L127.47467621527777,72.41521235597217L127.94541302083333,72.82638823575957L128.0248144097222,72.76330710449133L128.0815296875,72.00449081711912L128.16943836805558,71.86532058156106L128.56928107638888,71.44223083109726L129.04427152777777,71.02826255567986L129.05561458333335,70.74589303088109L129.2838935763889,70.66620757394683L129.33351944444442,70.58087527809062L129.97156631944443,70.85552332720464L130.21827777777779,71.03122580217648L130.22253142361112,71.03533399118962L130.65498541666668,70.97606020745526L130.74289409722223,70.90143976363282L130.94281545138887,70.67089674880802L130.9725909722222,70.68040322777337L131.0931109375,70.5187667511499L131.21788454861112,70.94939488372721L131.5525046875,70.39834962612373L131.7566796875,70.50744254812673L132.41599479166666,70.1665300240833L132.70949635416667,69.85715586782881L132.85837395833332,69.66551720412285L132.9874012152778,70.00617221447982L133.39858697916668,70.25064153149337L134.35140364583333,70.32940430142096L134.56550381944444,70.75429079435578L134.60945815972224,70.74439536876636L135.1255671875,70.4231866011205L135.6360046875,70.18430544100846L135.67570538194445,70.60498066613839L135.84159756944445,70.8270114456784L135.8883876736111,70.7724016472644L136.61008958333332,70.90876244407644L136.6994161458333,70.92001119966879L136.73202743055558,71.34625527200961L136.86956197916666,71.47543743711634L136.8865765625,71.49724465494316L137.19425694444445,71.32710672791039L137.52036979166667,71.09058836281166L137.53029496527776,70.9772843342228L137.57708506944442,71.08975301618513L137.97125624999998,71.02163348379737L138.60221371527777,71.20965763541764L138.62631770833335,72.02646110264511L138.8772828125,72.32248806930369L139.5054045138889,71.70221041621949L139.55644826388888,71.25288360536676L139.6939828125,70.84508562944546L140.03427447916667,70.48998091265477L140.6482173611111,70.28101166754314L140.7786625,70.30227588540421L141.5499902777778,70.32056271994071L141.60386979166665,69.89792471717742L141.91863958333334,69.75071397622891L142.05333836805553,69.8054358478368L142.3454220486111,69.47430572459159L143.06712395833333,69.6119809213632L143.3748043402778,69.62526359845765L143.71226024305557,68.82880454630421L143.95471805555556,68.75616928398148L144.07807378472222,68.83375908635257L144.2850845486111,68.7189312546404L144.31769583333335,69.0342592830225L144.34888923611112,68.61175643164333L144.51336354166668,68.29447501924822L144.66224114583332,68.20038809424648L144.93872812499998,68.78711851559108L145.37118211805554,68.19105570249351L145.50020937500003,68.16943090147494L146.40481805555555,67.88787242671206L146.49414461805557,68.05144095327164L146.52392013888888,67.540008396406L146.64444010416668,67.36904601830386L147.1534597222222,67.18965103185809L147.37748506944445,66.7422724671338L147.79576024305555,66.80000195118969L147.89075833333334,66.9345017560707L147.93329479166667,66.83600350354055L147.94463784722222,66.77203296087883L148.38276336805555,66.49831524171402L148.58410260416667,66.820411602158L148.5911920138889,66.67971178809606L149.1980454861111,66.08760599390183L149.23065677083332,66.14612904835779L149.81198836805558,66.30346806659894L149.8516890625,66.43401068301598L149.9537765625,66.68935480702207L150.31959010416665,66.66472701862757L150.82860972222224,66.75999470138021L150.99591979166667,66.16071157739601L151.14054374999998,65.88770772734873L151.1561404513889,65.47606676230617L151.32628628472224,65.10133508607555L151.42837378472223,64.84406696208339L151.64956336805557,64.80739584279813L151.99694444444444,64.72588702774911L152.41663749999998,65.15289447882036L152.61230520833334,64.43095118478448L152.91998559027778,64.4534618355368L153.46161649305557,64.39883680582929L153.61758350694444,64.35988581755404L153.67713454861112,64.12995973579864L153.9819791666667,64.2983003006803L154.67957708333333,64.16133084753535L154.7745751736111,63.264534301243344L155.0737482638889,62.96203760188824L155.2112828125,62.86168480323788L155.21837222222223,63.164511515221776L155.65224409722222,62.46695940216111L155.69194479166666,62.38462884656039L155.7188845486111,62.67219000036589L156.75535625,62.233206577252375L156.81207152777776,62.580159957988684L157.04743993055556,61.879773769882135L157.4033282986111,62.32163773904777L157.53944496527777,62.58486338821989L157.60183177083334,62.52818474170559L157.9520486111111,62.67374607522734L158.31786215277776,62.45160223693536L159.1317263888889,62.45675451324183L159.15866614583334,62.25716079268686L159.16575555555556,61.983069713418175L159.74992291666666,61.87849831899943L160.30431475694445,61.874585987099465L160.3227472222222,61.499194696081844L160.65311371527778,61.05241945724288L160.94803315972223,61.0068746269032L161.42018784722222,60.88759581805904L161.52085746527777,60.86789392856082L161.7193609375,60.85101318955088L162.32479652777778,60.66477725521118L162.3474826388889,60.59502549122851L162.39001909722222,60.42162390364412L162.50203177083336,59.753283628664306L162.5233,59.47344084272095L163.34850729166666,58.98756791229502L163.78096128472222,58.16224381337321L163.79939375,58.24063000895896L164.0744628472222,58.01589393113997L164.20916163194445,57.463035307256746L164.7210170138889,57.01396735345416L165.02727951388889,56.63022927195489L165.28108038194443,56.3903842293748L165.37466059027776,56.07836503720654L166.54157743055558,55.848605456562794L166.63657552083333,55.432485295521914L166.68478350694446,54.98224157366201L166.7656027777778,54.09027222398812L166.90597309027777,53.65596615543545L167.31148732638889,54.03776377066113L167.46887222222222,53.60955950897963L167.51424444444444,53.76198336577397L167.73968767361112,53.81151579842734L167.9112513888889,53.59314787243076L168.32952656249998,54.383732123649224L168.5081796875,54.01794064205353L169.0115277777778,53.66745427015586L169.0384675347222,53.421795381601825L169.30361145833334,53.23388988190318L169.40995260416665,53.0800922398667L169.44114600694445,53.579895515880025L169.52338315972221,54.14204538736894L170.4705282986111,53.947638925555125L171.05894930555556,54.0356202253073L171.08447118055554,54.09523127969965L171.634609375,53.93358795942197L171.96639374999998,53.17371474040286L172.33078940972223,53.098266343285644L172.5689935763889,52.7061464397263L172.61720156250001,52.09539718036905L172.81712291666668,51.90142477002445L173.61680833333332,51.47071017763737L173.84650520833335,51.097533390642866L174.18396111111113,51.33607332080935L174.24351215277778,51.12102368103608L174.63626545138888,51.18872419754787L174.75536753472224,50.723760431639235L174.7582032986111,51.029461311552225L175.3125951388889,50.70891902655086L175.60042517361111,51.007594431588075L175.91235920138888,51.33511864227542L176.3405595486111,51.43502023958632L176.36040989583333,51.53684513870461L177.019725,51.628487547911064L177.2083032986111,51.40206667773535L177.2366609375,51.08425904842335L177.77403819444444,51.33859275896563L178.0094065972222,50.95139694460754L178.96364114583335,51.17391590399292L179.01893854166667,51.74350027513211L179.10117569444444,51.375381016849644L179.1536373263889,50.97259291516468L179.68817881944443,51.35042016210976L179.8242954861111,50.89311372282185L180.2638388888889,49.8875667736166L180.6239809027778,49.88459375010109L180.6977107638889,49.57216802893713L181.11740381944446,49.31225891835112L181.48321736111112,48.971970526516L181.64485590277778,49.01205232001824L181.71291423611112,49.50849612647795L182.02484826388888,48.894997475368626L182.91386024305555,48.63983426629329L182.9408,48.675687378125474L183.01169409722223,47.86550325569755L183.42713350694444,48.02559235320473L183.52354947916666,47.562086002499626L183.80287222222222,48.33882932532657L183.83406562500002,49.16469158510162L183.9077954861111,48.77023204197607L184.20271493055554,48.51478095316307L184.4494263888889,47.83897112707754L186.19909270833335,47.79492978360054L186.2203609375,48.07780699754818L186.30826961805553,47.709492643947215L186.52520555555554,47.873269341090946L186.90094427083332,47.58497606082801L187.01579270833332,47.05916114705289L187.4680970486111,46.56975945542453L187.4936189236111,46.70284600988208L187.841,46.52308544735541L188.14442673611111,46.20387305646602L188.38263090277778,46.65862036620405L188.49747934027778,47.20574871419902L188.53576215277778,47.26076999662527L189.08731822916667,47.07627472773197L189.21350972222223,47.00468571649722L189.4361171875,46.835587337155204L189.61051666666665,46.10219206497811L189.84446718750002,45.716145935403404L189.857228125,45.39508422647842L190.73347916666665,45.75966714998441L190.74907586805557,46.30819081960135L190.7689262152778,46.25639577610275L190.91213229166667,46.430179275415554L191.2127232638889,46.2402430786432L191.31622864583335,46.50414184770196L191.46794201388892,46.503381509085614L191.62674479166668,46.33420681971549L191.7742045138889,46.64146883005165L192.58665086805556,46.11214406243107L192.97231475694446,45.977838310034116L193.9378923611111,45.75569870979993L194.0711732638889,45.427277877281455L194.45258350694442,45.66865585878409L194.46676232638887,45.86377104213645L194.51922395833333,46.55250451484591L195.0792873263889,46.15546560182284L195.42383263888888,45.82876519548671L195.49756250000002,45.962768483630356L196.00232847222222,46.28334740449807L196.0150894097222,45.849402087125185L196.55955607638887,45.40268783995114L196.77649201388888,45.201471940571395L197.78318819444442,44.61702186189888L197.8654253472222,44.24078602186282L197.922140625,43.481798765830376L198.3560125,43.85049869693967L198.48929340277778,43.56112671186108L198.86503211805555,43.57640346375189L199.16278732638887,43.580791963530544L199.19398072916667,43.51240988256211L199.99083038194445,42.857745817382806L200.0560529513889,43.66752892795222L200.70260711805554,43.50027122746471L201.21729826388886,43.19316237394898L201.26975989583332,42.700620175015644L201.33640034722222,42.355192772898704L201.47535277777777,42.2485388802242L201.77169010416665,42.80438691527871L201.8369126736111,42.722592454520054L202.40406545138887,42.65067936291422L203.21934756944447,42.985909503545855L203.47598420138888,42.468991630114346L203.70142743055555,42.269265544025956L203.72694930555556,42.674973605008006L203.85030503472223,42.672495475276406L203.8715732638889,42.48220265851799L204.08425555555556,42.74918431574309L204.3380564236111,42.40655915339957L204.66984079861112,42.16031669959804L204.93356684027776,42.30886676040748L205.323484375,41.90730700744365L205.34475260416667,42.14498015285312L205.9586954861111,42.11551098372166L206.07212604166668,41.29333969304179L206.18981024305558,41.549861492968375L206.2805546875,42.05218784367153L206.65912916666667,42.293243097765924L206.6988298611111,42.01323128798933L207.68000416666666,41.51614373611346L207.75231614583333,41.81420724711751L208.13514427083334,41.144704791636514L208.6030453125,41.38375354324208L208.69378975694445,41.90183972737941L208.93482968749998,42.18516056233378L209.05818541666667,41.7074714291773L209.40840225694444,41.56432524779805L209.8054092013889,41.19552253071055L209.89331788194443,40.75722989302412L210.7015105902778,40.54997805756784L210.85605972222223,40.52853794411874L211.53664305555557,40.10078030355302L211.79186180555556,39.89364938858233L211.99320104166668,39.92422675741639L212.13073559027777,39.7075204278286L212.17468993055556,39.21464819273805L212.46110208333334,38.671500681156544L212.8113189236111,38.695797728425504L213.04526944444444,38.64618430173681L213.67622690972223,38.89681587156312L213.7527925347222,38.535220822868325L213.86764097222223,38.788439125196874L213.9115953125,38.90826348190794L214.54113489583332,38.933562133717146L214.9041126736111,38.9486722664993L215.5449953125,39.33839638600321L215.68111197916664,39.17857117047981L215.84842204861113,38.519896745739516L215.86401874999999,38.60190226347325L216.1390878472222,38.33021684481821L216.2241607638889,37.932526891105624L216.91183350694445,37.87839920199508L217.51585121527776,37.6739583202571L217.54137309027777,37.3487019113083L218.0433032986111,37.29679325863901L218.08300399305557,37.35644566354435L218.52821892361112,37.11229628949761L218.6643355902778,37.047436852855526L218.8727642361111,36.73207297526227L219.12940086805554,37.18432721619757L219.1946234375,37.72070218688552L219.3264864583333,37.97027619896619L219.3987984375,38.21871973291573L219.59446614583334,37.50370833654722L219.95035451388887,38.177486541354L220.1417685763889,38.560084041064755L220.82235190972224,38.48574871388135L220.993915625,38.75497672710861L221.39659409722222,38.48074828516698L221.81203350694446,38.34201480280413L223.18454322916665,38.61370274560065L223.2043935763889,38.03789497104057L223.30789895833334,38.19788432009037L223.37595729166665,38.381018965004415L223.39722552083333,38.02079687619624L224.52869531250002,38.4275729578074L225.08308715277778,38.03886854664205L225.3269628472222,38.32555380736247L225.58643524305555,38.170854195857004L225.60486770833333,38.08523512242513L225.8303109375,38.722134687105694L225.95366666666666,38.49203660301052L226.07135086805556,37.796496404247904L226.39746371527778,37.81979387920774L226.44567170138887,38.319852952825414L226.51231215277778,38.32910804215825L226.68812951388887,39.18669723794244L226.8228282986111,39.132243860302026L227.170209375,38.932615628117986L227.28931145833332,38.61934925761389L228.40376666666668,38.5229191395448L228.49876475694444,38.08979068712878L228.52854027777778,38.51519623380051L228.58809131944443,38.53555161042047L228.78517690972222,38.563232026301506L229.05741024305556,38.23584632367135L229.1226328125,38.18882899899651L229.13681163194443,37.41723936832764L229.9492579861111,37.757577931494865L230.31648940972224,37.71839225373L230.57312604166665,37.13765879758776L230.82692690972223,37.40639291782898L231.09632447916667,37.712926702969156L231.81093697916666,37.440787878826086L232.09876701388887,37.40009370632811L232.66591979166665,37.12519972031066L232.8743484375,36.72802590212575L233.11397048611113,35.978276196528554L233.3138918402778,36.0710687691834L233.6088112847222,36.36306766149585L233.7832107638889,36.59948685688471L233.9207453125,36.42167278658084L234.04977256944443,36.318654546384295L234.17312829861112,36.11190928405355L234.57013524305555,36.227929894109735L234.82818975694443,36.041319597006435L234.8551295138889,35.72019725269044L235.16848142361113,35.90091791203676" style="fill: none;" fill="none"></path></g></g></g></g><g opacity="0.2"><g><g><g><path stroke="rgb(255, 112, 67)" stroke-width="2px" d="M28.930463194444446,162.84L29.097773263888886,162.84L29.209785937499998,162.29538461538462L29.333141666666666,162.02307692307693L29.476347743055555,162.29538461538462L29.564256423611113,162.5676923076923L29.732984375,162.29538461538462L29.791117534722222,162.84L29.80387847222222,162.29538461538462L29.83223611111111,160.7976923076923L29.871936805555556,161.75076923076924L29.87619045138889,160.66153846153847L29.974024305555556,162.02307692307693L30.0009640625,158.89153846153846L30.257600694444445,162.02307692307693L30.26610798611111,160.38923076923078L30.30013715277778,162.84L30.3837921875,162.5676923076923L30.704233506944444,162.5676923076923L30.711322916666667,162.84L30.76378454861111,162.38615387385443L30.836096527777777,161.88692307692307L30.90273697916667,162.84L30.952362847222222,162.15923076923076L30.9963171875,162.84L31.03885364583333,159.70846153846153L31.06295763888889,161.93230774770882L31.116837152777777,161.75076923076924L31.173552430555556,162.84L31.217506770833335,162.29538461538462L31.448621527777778,160.25307692307692L31.4557109375,162.29538461538462L31.468471875000002,162.5676923076923L31.474143402777777,162.7719230769231L31.630110416666668,162.02307692307693L31.668393229166668,161.47846153846154L31.701004513888886,161.34230769230768L31.89667222222222,161.75076923076924L32.06256440972222,160.29846142765925L32.18733802083333,162.43153846153845L32.19300954861111,162.36346153846154L32.195845312500005,162.29538461538462L32.22562083333333,160.77046153846155L32.374498437499994,161.80523076923077L32.398602430555556,161.27423076923077L32.4255421875,154.5346153846154L32.428377951388896,161.31507692307693L32.46098923611111,162.02307692307693L32.52337604166667,159.98076923076923L32.602777430555555,160.38923076923078L32.78710208333334,161.66000005540116L32.86366770833333,160.93384615384616L32.87075711805555,160.02615373535156L32.91612934027778,161.80523076923077L32.92038298611111,160.7976923076923L32.972844618055554,162.84L33.03097777777778,160.93384615384616L33.079185763888894,162.07753846153847L33.216720312499994,160.62263738638072L33.23231701388889,162.84L33.26492829861111,162.5676923076923L33.36701579861111,160.1169230769231L33.4719390625,160.93384615384616L33.50738611111112,161.34230769230768L33.51447552083333,158.48307692307694L33.5995484375,162.29538461538462L33.62365243055555,161.27423076923077L33.62648819444444,162.15923076923076L33.7016359375,158.21076923076924L33.813648611111105,160.2803076923077L33.849095659722224,160.5253846153846L33.89446788194445,161.4103846153846L33.969615624999996,159.73569230769232L34.07312100694444,159.5723076923077L34.07737465277778,160.7976923076923L34.25460989583333,160.70043953669622L34.285803298611114,160.16230758150542L34.37654774305555,161.2401923076923L34.38505503472222,160.70043953669622L34.563708159722225,161.6765035569411L34.67997447916667,159.7279119929387L34.69840694444444,159.79923088003306L34.844448784722225,160.80485833458533L34.86004548611111,161.47846153846154L34.89832829861111,160.14415384615384L34.95362569444444,159.76082824894831L35.06989201388889,160.47092307692307L35.10817482638889,159.98076923076923L35.13369670138889,160.07153857234076L35.171979513888886,159.11846164926382L35.208844444444445,160.95653840613733L35.283992187500004,160.5468826960637L35.371900868055555,160.44369230769232L35.49525659722222,161.52951923076924L35.563314930555556,159.19410249023437L35.5902546875,160.67288467078575L35.646969965277776,160.93384615384616L35.693760069444444,159.2881606651893L35.87383107638889,159.986689064378L35.95606822916667,159.87278520320012L36.35732881944445,158.51575384615384L36.36016458333333,159.19671088679388L36.48068454861111,158.52664615384614L36.489191840277776,158.93043970289963L36.57568263888889,158.92784626464845L36.606876041666666,159.42642861891525L36.64515885416667,158.66148533090444L36.72172447916667,159.3L36.723142361111115,158.0836924184946L36.75575364583333,159.09796511042668L36.811051041666666,157.6491346153846L37.032240625,158.19320086388223L37.03933003472222,157.6398012958233L37.059180381944444,158.01107681227464L37.08044861111111,158.10184615384617L37.42641180555555,157.57831267653245L37.44200850694445,157.76826923076922L37.461858854166664,157.62223292893628L37.60506493055556,157.2445163649339L37.64051197916667,157.34689634540266L37.67312326388889,157.79379807692308L37.83050815972223,157.28492307692306L38.00065399305556,157.1385576923077L38.03893680555556,157.49596153846153L38.23318663194444,156.86625L38.38064635416667,157.2576923076923L38.39624305555555,155.50584637545072L38.43736163194444,157.09600961538462L38.610343229166666,155.54918092698318L38.63019357638889,156.39822115384615L38.689744618055556,156.23653846153846L38.86839774305556,156.26069446739783L38.88399444444444,156.6032756272536L38.91944149305555,157.60658653846153L38.95205277777777,156.27057692307693L39.02578263888889,156.15995192307693L39.102348263888885,156.31369208608774L39.18174965277778,155.94153868314302L39.205853645833336,155.54039674353967L39.306523263888884,155.90466346153846L39.37316371527778,156.24504807692307L39.68793350694445,154.1601923076923L39.72763420138889,156.313125L39.76024548611111,155.04848645958535L39.859497222222224,156.76413461538462L39.863750868055554,155.8195673076923L39.99986753472222,157.0364423076923L40.55709513888889,155.206875L40.72865885416667,154.23677884615384L40.80664236111111,154.78496295072114L40.81940329861111,156.35567307692307L40.85201458333333,155.32957833533655L40.90589409722222,155.74723557692306L41.01648888888889,153.97682405724157L41.08880086805556,155.0451923076923L41.10723333333333,155.06221153846153L41.12708368055556,154.875L41.22349965277778,153.99L41.31566197916666,154.6444166804387L41.413495833333336,154.96009615384617L41.6134171875,154.38995192307692L42.1621375,155.53024038461538L42.16497326388889,153.96447115384615L42.19333090277778,154.06466522686299L42.24153888888889,154.20521083233174L42.272732291666664,155.1473076923077L42.27982170138889,154.67076923076922L42.41735625,153.18158653846154L42.48399670138889,152.7909679349459L42.50810069444445,153.22138959960938L42.900853993055556,153.79427884615384L43.00577725694444,155.29197115384616L43.017120312500005,153.31774038461538L43.14189392361111,155.5898076923077L43.20286284722222,154.27932692307692L43.20995225694444,155.0451923076923L43.25532447916667,153.76875L43.44815642361111,152.64548076923077L43.5530796875,154.87280412034255L43.665092361111114,153.7133005483774L43.707628819444444,153.66663461538462L43.710464583333334,154.03254807692306L43.76009045138889,153.36028846153846L43.81113420138889,154.94307692307692L43.9359078125,154.69629807692309L44.066352951388886,153.52197115384615L44.498806944444446,153.4879326923077L44.64910243055556,152.92629807692308L44.65193819444445,152.2710576923077L44.792308506944444,153.19009615384616L44.951111284722224,154.08360576923076L44.987976215277776,153.879375L45.05036302083333,152.6679900315505L45.105660416666666,152.6114423076923L45.41901232638889,153.47091346153846L45.42043020833333,152.24552884615383L45.468638194444445,152.03278846153847L45.60617274305555,152.53485576923077L45.760721874999994,151.18182692307693L45.92803194444445,152.03278846153847L46.186086458333335,152.30509615384616L46.24989114583333,152.5093269230769L46.265487847222225,152.54336538461538L46.28675607638889,152.59442307692308L46.359068055555554,152.28148861929085L46.48667743055555,151.9476923076923L46.60436163194444,151.43711538461537L46.84965520833333,150.53509615384615L46.87801284722222,151.78600961538461L46.98435399305556,152.19364811448318L47.33598871527778,152.3816826923077L47.436658333333334,152.63697115384616L47.548671006944446,153.18158653846154L47.586953819444446,151.30096153846154L47.73299565972222,150.39290314002403L48.21649340277778,151.81153846153848L48.28171597222222,151.19033653846154L48.38238559027778,149.896875L48.57379965277778,152.4923076923077L48.68439444444445,151.06269230769232L48.77088524305556,151.1052403846154L48.79498923611111,149.47935471003606L48.85312239583334,151.3860576923077L48.90133038194445,151.06928061147835L49.10975902777778,151.666875L49.13244513888889,150.76485576923076L49.163638541666664,149.27567307692308L49.21610017361111,149.454375L49.2189359375,150.22875L49.5762421875,150.0075L49.603181944444444,149.2416346153846L49.709523090277784,148.58639423076923L50.283765277777775,149.6841346153846L50.636817881944445,148.75658653846153L50.804127951388885,148.42526067457933L50.82823194444445,150.67125L50.917558506944445,148.02475961538462L51.02957118055556,149.43735576923078L51.06360034722222,150.90100961538462L51.073525520833336,150.38192307692307L51.208224305555554,151.3264903846154L51.29471510416667,149.3522596153846L51.30464027777778,150.02451923076922L51.315983333333335,148.348125L51.320236979166665,149.75221153846155L51.40814565972222,149.8373076923077L51.579709375,149.04591346153848L51.598141840277776,149.1735576923077L51.69739357638889,150.118125L51.83067447916667,148.09283653846154L52.01499913194444,149.08846153846153L52.29999340277778,148.76509615384614L52.478646527777784,147.97370192307693L52.55095850694445,146.8589423076923L52.62185260416667,148.19495192307693L52.722522222222224,148.4417307692308L53.091171527777774,148.22899038461537L53.19609479166667,148.02475961538462L53.23012395833334,148.9608173076923L53.75899392361111,147.54822115384616L53.825634375,146.88447115384616L53.966004687499996,148.49278846153845L54.10353923611111,146.33985576923078L54.19711944444444,146.6291826923077L54.22547708333333,147.42057692307694L54.367265277777776,145.93990384615384L54.37719045138889,145.45485576923076L54.43674149305556,147.1823076923077L54.727407291666665,146.2887980769231L54.744421875,147.905625L54.81956961805556,146.8504326923077L54.87486701388889,145.09745192307693L54.948596875,143.59125L55.03083402777778,145.53144230769232L55.06060954861111,146.7908653846154L55.083295659722225,146.25475961538461L55.09605659722222,146.10158653846153L55.10031024305555,145.88884615384615L55.20665138888889,147.99072115384615L55.298813715277774,144.61240384615385L55.43493038194445,142.8679326923077L55.70574583333333,143.02110576923076L55.769550520833334,145.53995192307693L56.31968871527778,144.7145192307692L56.39625434027777,141.30216346153847L56.42461197916666,146.4760096153846L56.75781423611111,143.3614903846154L56.888259375,143.05514423076923L57.42989027777778,144.35711538461538L57.448322743055556,143.038125L57.63973680555555,142.85942307692306L57.69786996527778,142.46798076923076L57.818389930555554,144.18692307692308L58.15584583333333,139.35346153846154L58.211143229166666,140.89370192307692L58.2919625,142.50201923076924L58.34442413194444,143.8210096153846L58.46919774305555,141.50639423076922L58.5599421875,141.8297596153846L58.59964288194445,142.00846153846155L58.70881979166667,143.8635576923077L58.94702395833333,143.15725961538462L59.41208923611111,140.45120192307692L59.42201440972222,140.07677884615384L59.48723697916667,142.72326923076923L59.5170125,138.12807692307692L59.58932447916666,141.53192307692308L60.48117222222223,135.94110576923077L60.51094774305555,137.8898076923077L61.12914427083333,137.8812980769231L61.468018055555554,138.0089423076923L61.60413472222222,137.84725961538462L61.95718732638889,137.34519230769232L62.07770729166666,138.91947115384616L62.27762864583333,134.97100961538462L62.55695138888889,138.95350961538463L62.69306805555556,140.58735576923078L62.700157465277776,133.22653846153847L62.80366284722222,138.35783653846153L63.09149288194445,133.58394230769233L63.274399652777774,132.82658653846153L63.423277256944445,141.24259615384616L63.523946875,137.76216346153848L63.89259618055555,133.58394230769233L64.01736979166667,136.8941826923077L64.06415989583333,134.12004807692307L64.41863038194444,131.00552884615385L64.92765,135.05610576923078L65.78830434027778,131.66076923076923L65.79681163194445,130.77576923076924L66.10023836805556,132.6308653846154L66.16120729166666,130.5885576923077L66.54261753472223,130.52048076923077L66.72977795138888,130.8098076923077L66.83044756944444,132.639375L66.84888003472221,132.17985576923076L66.93111718749999,131.26081730769232L66.943878125,131.10764423076924L67.38909305555556,130.46942307692308L67.49826996527777,133.92432692307693L67.57625347222222,127.18471153846153L67.69393767361112,129.63548076923075L67.6967734375,129.21850961538462L67.84281527777779,128.878125L67.9009484375,127.03153846153846L67.9293060763889,134.02644230769232L68.0002001736111,126.08697115384615L68.07534791666666,125.54235576923077L68.526234375,129.2610576923077L68.71623055555555,126.54649038461538L68.83958628472223,128.58879807692307L68.90764461805556,130.869375L68.95159895833334,128.71644230769232L69.17137065972221,128.2824519230769L69.20398194444444,127.19322115384615L69.24651840277778,126.62307692307692L69.59957100694444,127.36341346153847L69.92568385416668,125.32961538461538L70.60201354166666,124.11274038461539L70.94655885416667,125.42322115384616L71.0302138888889,124.12125L71.13797291666667,127.26129807692308L71.65408194444444,123.1766826923077L71.67251440972223,125.21048076923077L72.08653593749999,123.93403846153845L72.45943888888888,124.453125L72.58704826388889,128.23990384615385L72.61257013888888,125.90826923076924L72.75010468750001,125.15942307692308L72.82241666666667,126.11250000000001L72.86778888888888,121.37264423076923L72.98689097222223,125.37216346153846L73.07621753472223,125.16793269230769L73.46046354166667,121.59389423076924L74.00209444444445,123.11711538461539L74.03754149305556,122.21509615384616L74.23746284722222,121.39817307692307L75.76593958333333,121.70451923076924L75.8992204861111,122.68312499999999L76.1544392361111,122.56399038461538L76.17712534722223,118.34322115384616L76.29906319444444,119.39841346153847L76.66062309027778,121.17692307692309L76.68614496527778,119.04100961538461L76.81517222222223,115.55206730769231L76.82651527777779,120.81951923076923L76.91442395833333,114.37774038461538L77.15971753472222,117.44120192307693L77.24762621527778,119.02399038461539L77.54254565972222,114.0033173076923L77.56664965277777,120.913125L77.62336493055555,120.45360576923078L77.69284114583333,112.87153846153846L77.91119496527777,120.55572115384615L78.0969375,118.69211538461539L78.35073836805556,117.83264423076923L78.61446440972223,113.60336538461539L79.3886279513889,118.07942307692308L79.55452013888889,121.01524038461538L80.5087546875,118.17302884615384L80.55838055555556,114.33519230769231L81.15389097222223,113.70548076923077L81.29284340277778,109.98677884615385L81.45164618055556,114.56495192307693L81.48425746527778,115.08403846153846L81.77634114583334,112.30139423076923L81.8103703125,108.89754807692307L81.85007100694445,111.5014903846154L82.09678246527778,107.9104326923077L82.22864548611112,108.54014423076923L82.31797204861111,112.96514423076923L82.3718515625,113.68846153846154L82.46259600694444,107.72322115384615L82.69512864583334,108.94860576923077L82.74475451388889,109.2975L82.91206458333335,100.59216346153846L83.03258454861111,109.65490384615384L83.04959913194445,106.35317307692308L83.47354583333333,108.22528846153845L83.89891041666667,105.50221153846154L84.15554704861111,106.93182692307693L84.22360538194444,103.25567307692307L84.30300677083333,108.3103846153846L84.73120711805555,106.44677884615385L84.73404288194445,106.06384615384616L84.73829652777778,105.51072115384616L85.35649305555555,106.45528846153846L85.69962048611112,105.05971153846153L86.33624947916667,103.32375L86.49505225694445,105.72346153846154L86.75168888888889,106.29360576923077L86.78855381944445,108.7358653846154L86.96011753472223,107.66365384615385L87.20257534722222,105.0426923076923L87.208246875,106.2510576923077L87.53152395833332,103.545L87.58114982638888,98.02225961538461L87.65913333333333,101.99625L88.01360381944446,104.43L88.0277826388889,103.11100961538462L88.04479722222221,101.21336538461539L88.11852708333333,97.61379807692308L88.25606163194443,96.8479326923077L88.26031527777778,105.59581730769231L88.26882256944445,102.25153846153846L88.46307239583334,107.859375L88.80052829861111,96.06504807692308L88.96074895833334,101.85158653846153L89.08835833333335,98.73706730769231L89.42581423611112,103.04293269230769L89.44850034722222,99.64759615384615L89.47969375000001,99.95394230769232L89.87102916666667,102.9323076923077L90.29781163194444,103.68115384615385L90.30064739583334,100.52408653846155L90.65795364583333,101.06870192307692L91.59659149305556,96.77134615384615L91.6263670138889,101.46014423076923L91.67315711805556,99.59653846153847L92.02053819444446,95.15451923076922L92.25448871527777,97.12024038461539L92.4529921875,96.23524038461538L92.66142083333332,95.14600961538461L92.8967892361111,101.52822115384615L92.93932569444445,98.6860096153846L93.16618680555555,95.14600961538461L93.4738671875,93.82701923076922L93.6142375,94.84817307692308L94.048109375,91.28264423076924L94.23668767361112,96.83091346153847L94.62944097222221,96.38841346153846L95.13137118055555,88.22769230769232L95.14838576388888,92.05701923076923L95.27883090277778,92.95903846153846L95.34263559027778,91.81024038461538L95.38517204861111,93.31644230769231L96.36067482638889,93.40153846153846L96.447165625,90.31254807692308L97.27379079861112,91.74216346153847L97.30640208333332,93.699375L97.43542934027778,87.45331730769232L97.85228663194444,84.54302884615385L98.4222751736111,87.30865384615385L98.4407076388889,86.21942307692308L98.55697395833333,88.48298076923078L98.72853767361111,87.75115384615384L98.85756493055555,92.371875L98.8944298611111,87.0108173076923L99.08584392361112,87.17250000000001L99.11845520833334,85.66629807692307L99.31554079861111,88.52552884615385L99.54098402777778,86.66192307692307L99.59202777777779,81.99014423076922L99.66717552083334,86.72149038461538L99.88127569444445,86.45769230769231L100.00463142361112,93.23134615384615L100.03724270833334,83.04533653846153L100.39596684027778,90.57634615384615L100.44275694444444,82.96875L101.23818871527777,85.4535576923077L101.31475434027777,83.44528846153845L101.57280885416667,82.67942307692307L101.7939984375,86.47471153846153L102.27324253472223,85.39399038461539L102.35973333333334,81.72634615384617L102.7638296875,84.69620192307691L103.21471614583332,85.65778846153847L103.2742671875,85.69182692307692L103.35225069444445,87.55543269230769L103.75209340277777,91.7166346153846L103.81589809027777,89.3764903846154L104.01014791666667,84.98552884615384L104.31641041666667,91.95490384615385L104.37737934027778,87.24057692307692L104.86513072916667,87.09591346153846L104.89915989583332,87.39375L104.92184600694445,86.35557692307692L105.47765572916667,83.24105769230768L105.54429618055555,89.23182692307692L105.65489097222222,87.0108173076923L105.65772673611112,89.64879807692307L105.92996006944445,89.11269230769231L105.93279583333333,82.43264423076923L106.12137413194444,82.67091346153845L106.33547430555555,88.36384615384615L106.44465121527779,88.50850961538461L106.90404496527778,84.32177884615386L106.93382048611112,79.43725961538462L107.35067777777778,90.22745192307693L107.45276527777779,91.486875L107.75619201388888,84.74725961538462L108.52326614583333,81.93057692307691L109.23220711805556,87.21504807692308L109.50869409722222,83.86225961538462L109.5810060763889,83.58995192307692L109.88017916666666,80.74774038461538L109.96950572916667,84.03245192307693L110.36225902777777,80.0925L110.66852152777778,80.00740384615385L110.79471302083333,85.46206730769232L111.12507951388889,83.5303846153846L111.22574913194444,85.35995192307692L111.2626140625,89.57221153846154L111.29522534722223,84.69620192307691L111.57171232638889,82.87514423076922L111.72484357638889,79.04581730769232L112.01267361111111,81.51360576923076L112.04103125,82.21990384615384L112.12185052083333,81.78591346153846L112.730121875,79.13942307692307L112.75706163194445,84.16009615384615L113.88711354166666,81.48807692307692L114.05867725694445,82.56879807692307L114.08419913194444,79.41173076923077L114.13098923611112,79.57341346153846L114.1721078125,78.27995192307691L114.26568802083332,81.74336538461539L115.25536961805557,82.23692307692308L115.32201006944445,80.29673076923078L115.87356614583334,80.95197115384616L115.98841458333334,79.38620192307692L116.52437395833334,82.5858173076923L116.6987734375,79.07134615384616L116.70160920138889,85.52163461538461L117.170928125,78.3225L117.4615939236111,79.36918269230769L117.50413038194445,76.89288461538462L117.60905364583333,79.53937499999999L117.69554444444444,79.096875L117.8756154513889,77.80341346153845L117.89830156250001,84.27072115384615L118.12658055555556,76.26317307692307L118.26695086805556,77.548125L118.36620260416666,82.83259615384615L118.41015694444445,78.37355769230768L118.8525361111111,82.98576923076922L118.92768385416667,80.16908653846153L119.90885815972223,74.13576923076923L119.95706614583334,80.39033653846153L120.02228871527777,76.74822115384615L120.1598232638889,78.78201923076924L120.42071354166667,73.9996153846154L120.68727534722223,77.35240384615385L121.2955467013889,77.58216346153846L121.73225434027778,74.80802884615385L121.77479079861111,76.69716346153847L121.9945625,78.28846153846153L122.41992708333333,74.97822115384615L122.87648506944446,77.19923076923077L122.92894670138888,77.7183173076923L123.01543749999999,79.07985576923076L123.49468159722223,77.6076923076923L123.78818315972222,78.88413461538461L123.90728524305555,76.77374999999999L124.01220850694443,73.68475961538462L124.11429600694444,72.84230769230768L124.266009375,71.77860576923077L124.3553359375,76.80778846153846L124.66443420138889,76.32274038461539L124.69988124999999,66.21331730769231L124.72398524305555,74.73995192307693L125.36345,70.98721153846154L125.50949184027778,73.565625L126.46514427083333,69.57461538461538L126.511934375,72.06793269230769L126.67640868055555,73.36139423076924L126.73170607638889,70.99572115384616L126.88483732638889,69.80437500000001L127.19960711805555,68.698125L127.47467621527777,68.65557692307692L127.94541302083333,76.52697115384616L128.0248144097222,72.19557692307693L128.0815296875,65.17514423076923L128.16943836805558,70.61278846153846L128.56928107638888,67.63442307692308L129.04427152777777,67.30254807692307L129.05561458333335,68.20456730769232L129.2838935763889,69.94903846153846L129.33351944444442,69.8128846153846L129.97156631944443,73.32735576923076L130.21827777777779,72.61254807692308L130.22253142361112,71.07230769230769L130.65498541666668,70.44259615384615L130.74289409722223,70.22985576923077L130.94281545138887,68.59600961538462L130.9725909722222,70.76596153846154L131.0931109375,69.06403846153847L131.21788454861112,74.82504807692308L131.5525046875,65.43894230769232L131.7566796875,71.48927884615385L132.41599479166666,67.09831730769231L132.70949635416667,67.07278846153847L132.85837395833332,67.94076923076923L132.9874012152778,73.07206730769231L133.39858697916668,72.45086538461538L134.35140364583333,71.03826923076922L134.56550381944444,74.57826923076922L134.60945815972224,70.65533653846154L135.1255671875,67.53230769230768L135.6360046875,68.034375L135.67570538194445,74.3910576923077L135.84159756944445,72.82528846153846L135.8883876736111,70.28091346153846L136.61008958333332,72.13600961538462L136.6994161458333,71.02125L136.73202743055558,75.18245192307693L136.86956197916666,72.63807692307692L136.8865765625,71.69350961538461L137.19425694444445,69.79586538461538L137.52036979166667,68.96192307692307L137.53029496527776,69.95754807692308L137.57708506944442,72.10197115384615L137.97125624999998,70.4085576923077L138.60221371527777,72.901875L138.62631770833335,79.37769230769231L138.8772828125,74.98673076923077L139.5054045138889,66.11971153846154L139.55644826388888,67.20894230769231L139.6939828125,67.17490384615385L140.03427447916667,67.29403846153846L140.6482173611111,68.40028846153847L140.7786625,70.49365384615386L141.5499902777778,70.48514423076924L141.60386979166665,66.0941826923077L141.91863958333334,68.42581730769231L142.05333836805553,70.29793269230768L142.3454220486111,66.49413461538462L143.06712395833333,70.85105769230769L143.3748043402778,69.7448076923077L143.71226024305557,61.660673076923075L143.95471805555556,68.10245192307691L144.07807378472222,69.5320673076923L144.2850845486111,67.68548076923076L144.31769583333335,71.87221153846153L144.34888923611112,64.80923076923077L144.51336354166668,65.43894230769232L144.66224114583332,67.35360576923078L144.93872812499998,74.0676923076923L145.37118211805554,62.82649038461537L145.50020937500003,67.97480769230769L146.40481805555555,65.35384615384616L146.49414461805557,69.5235576923077L146.52392013888888,62.937115384615396L146.64444010416668,65.83038461538462L147.1534597222222,65.57509615384615L147.37748506944445,62.715865384615384L147.79576024305555,67.31956730769231L147.89075833333334,68.145L147.93329479166667,65.94951923076923L147.94463784722222,66.19629807692307L148.38276336805555,64.03485576923077L148.58410260416667,69.71927884615386L148.5911920138889,65.41341346153847L149.1980454861111,60.75865384615385L149.23065677083332,66.67283653846155L149.81198836805558,67.71951923076924L149.8516890625,67.60889423076924L149.9537765625,68.98745192307692L150.31959010416665,66.44307692307693L150.82860972222224,67.61740384615383L150.99591979166667,60.76716346153847L151.14054374999998,63.43067307692307L151.1561404513889,61.771298076923074L151.32628628472224,61.728750000000005L151.42837378472223,62.528653846153844L151.64956336805557,64.47735576923078L151.99694444444444,63.992307692307705L152.41663749999998,68.99596153846154L152.61230520833334,57.93346153846154L152.91998559027778,64.65605769230768L153.46161649305557,63.90721153846155L153.61758350694444,64.00932692307693L153.67713454861112,62.06062499999999L153.9819791666667,65.8133653846154L154.67957708333333,62.92860576923077L154.7745751736111,55.193365384615376L155.0737482638889,60.2395673076923L155.2112828125,61.958509615384614L155.21837222222223,65.88995192307692L155.65224409722222,56.18899038461538L155.69194479166666,61.64365384615385L155.7188845486111,65.26024038461539L156.75535625,58.282355769230776L156.81207152777776,65.7027403846154L157.04743993055556,55.57629807692308L157.4033282986111,66.29841346153847L157.53944496527777,64.95389423076924L157.60183177083334,62.01807692307693L157.9520486111111,63.98379807692308L158.31786215277776,60.4523076923077L159.1317263888889,62.503125L159.15866614583334,60.460817307692295L159.16575555555556,59.516250000000014L159.74992291666666,60.93735576923078L160.30431475694445,61.839375000000004L160.3227472222222,58.12067307692308L160.65311371527778,57.031442307692316L160.94803315972223,60.596971153846155L161.42018784722222,59.81408653846154L161.52085746527777,60.69057692307692L161.7193609375,60.69908653846154L162.32479652777778,58.98865384615384L162.3474826388889,59.96725961538462L162.39001909722222,58.86100961538463L162.50203177083336,53.738221153846155L162.5233,56.95485576923076L163.34850729166666,54.614711538461535L163.78096128472222,50.734326923076935L163.79939375,58.94610576923078L164.0744628472222,55.99326923076923L164.20916163194445,52.487307692307695L164.7210170138889,52.972355769230774L165.02727951388889,53.176586538461535L165.28108038194443,54.231778846153844L165.37466059027776,53.27019230769231L166.54157743055558,53.78076923076924L166.63657552083333,51.68740384615384L166.68478350694446,50.930048076923086L166.7656027777778,46.062548076923065L166.90597309027777,49.74721153846153L167.31148732638889,57.4739423076923L167.46887222222222,49.75572115384615L167.51424444444444,55.13379807692307L167.73968767361112,54.25730769230769L167.9112513888889,51.62783653846154L168.32952656249998,61.49899038461538L168.5081796875,50.72581730769231L169.0115277777778,50.51307692307692L169.0384675347222,51.21086538461539L169.30361145833334,51.542740384615385L169.40995260416665,51.69591346153847L169.44114600694445,58.078125L169.52338315972221,59.20139423076924L170.4705282986111,52.19798076923077L171.05894930555556,54.82745192307692L171.08447118055554,54.63173076923077L171.634609375,52.47879807692307L171.96639374999998,46.334855769230785L172.33078940972223,52.419230769230765L172.5689935763889,49.1770673076923L172.61720156250001,46.598653846153866L172.81712291666668,50.15567307692308L173.61680833333332,47.594278846153856L173.84650520833335,47.73894230769233L174.18396111111113,53.482932692307685L174.24351215277778,49.18557692307692L174.63626545138888,51.79802884615384L174.75536753472224,46.53908653846153L174.7582032986111,53.78076923076924L175.3125951388889,47.824038461538464L175.60042517361111,53.695673076923086L175.91235920138888,54.28283653846154L176.3405595486111,52.33413461538461L176.36040989583333,52.45326923076922L177.019725,52.45326923076922L177.2083032986111,49.36427884615385L177.2366609375,48.223990384615405L177.77403819444444,53.627596153846156L178.0094065972222,47.466634615384606L178.96364114583335,53.176586538461535L179.01893854166667,56.86975961538461L179.10117569444444,48.062307692307684L179.1536373263889,47.3475L179.68817881944443,54.750865384615395L179.8242954861111,46.77735576923075L180.2638388888889,40.83764423076923L180.6239809027778,49.85783653846153L180.6977107638889,46.76033653846153L181.11740381944446,46.97307692307692L181.48321736111112,45.90937500000001L181.64485590277778,49.37278846153845L181.71291423611112,53.97649038461539L182.02484826388888,43.37350961538462L182.91386024305555,46.343365384615396L182.9408,48.99836538461537L183.01169409722223,40.57384615384615L183.42713350694444,49.466394230769225L183.52354947916666,43.39052884615384L183.80287222222222,55.32951923076922L183.83406562500002,56.59745192307692L183.9077954861111,45.22009615384616L184.20271493055554,46.21572115384615L184.4494263888889,41.75668269230769L186.19909270833335,47.39855769230769L186.2203609375,50.62370192307691L186.30826961805553,44.39466346153847L186.52520555555554,49.347259615384615L186.90094427083332,44.99033653846155L187.01579270833332,42.32682692307691L187.4680970486111,42.165144230769215L187.4936189236111,47.90062499999999L187.841,44.90524038461538L188.14442673611111,43.33096153846154L188.38263090277778,50.75134615384616L188.49747934027778,52.12990384615385L188.53576215277778,47.75596153846155L189.08731822916667,45.41581730769229L189.21350972222223,46.36038461538462L189.4361171875,45.313701923076934L189.61051666666665,39.50163461538463L189.84446718750002,42.24173076923077L189.857228125,42.50552884615385L190.73347916666665,49.040913461538466L190.74907586805557,51.244903846153846L190.7689262152778,45.79024038461537L190.91213229166667,47.99423076923077L191.2127232638889,44.5308173076923L191.31622864583335,48.87923076923079L191.46794201388892,46.49653846153845L191.62674479166668,44.811634615384605L191.7742045138889,49.40682692307692L192.58665086805556,41.34822115384617L192.97231475694446,44.76908653846155L193.9378923611111,43.75644230769231L194.0711732638889,42.47149038461538L194.45258350694442,47.841057692307686L194.46676232638887,47.61980769230769L194.51922395833333,52.751105769230776L195.0792873263889,42.58211538461538L195.42383263888888,42.88846153846154L195.49756250000002,47.16879807692308L196.00232847222222,49.16855769230769L196.0150894097222,41.943894230769246L196.55955607638887,41.38225961538461L196.77649201388888,43.39052884615384L197.78318819444442,39.35697115384616L197.8654253472222,40.85466346153845L197.922140625,36.650913461538465L198.3560125,47.16879807692308L198.48929340277778,40.95677884615387L198.86503211805555,43.71389423076923L199.16278732638887,43.62028846153845L199.19398072916667,42.89697115384615L199.99083038194445,36.96576923076921L200.0560529513889,50.95557692307693L200.70260711805554,41.99495192307691L201.21729826388886,40.429182692307705L201.26975989583332,38.267740384615394L201.33640034722222,39.24634615384613L201.47535277777777,41.288653846153835L201.77169010416665,47.807019230769214L201.8369126736111,41.9864423076923L202.40406545138887,42.00346153846155L203.21934756944447,46.00298076923079L203.47598420138888,37.81673076923079L203.70142743055555,40.47173076923079L203.72694930555556,46.326346153846146L203.85030503472223,42.65019230769229L203.8715732638889,40.76956730769231L204.08425555555556,45.15201923076921L204.3380564236111,39.32293269230769L204.66984079861112,39.94413461538463L204.93356684027776,43.64581730769231L205.323484375,38.293269230769226L205.34475260416667,44.28403846153847L205.9586954861111,41.85028846153847L206.07212604166668,33.893798076923076L206.18981024305558,43.8585576923077L206.2805546875,46.573125000000005L206.65912916666667,44.46274038461539L206.6988298611111,39.49312499999999L207.68000416666666,37.04235576923077L207.75231614583333,44.49677884615383L208.13514427083334,35.119182692307675L208.6030453125,43.53519230769231L208.69378975694445,46.564615384615394L208.93482968749998,44.73504807692308L209.05818541666667,37.408269230769235L209.40840225694444,40.276009615384595L209.8054092013889,37.87629807692309L209.89331788194443,36.81259615384616L210.7015105902778,38.68471153846153L210.85605972222223,40.33557692307693L211.53664305555557,36.25096153846155L211.79186180555556,38.029471153846146L211.99320104166668,40.19942307692307L212.13073559027777,37.757163461538454L212.17468993055556,34.77879807692307L212.46110208333334,33.78317307692308L212.8113189236111,38.914471153846165L213.04526944444444,38.19966346153845L213.67622690972223,41.1525L213.7527925347222,35.280865384615396L213.86764097222223,41.067403846153866L213.9115953125,39.98668269230771L214.54113489583332,39.161249999999995L214.9041126736111,39.08466346153847L215.5449953125,42.84591346153846L215.68111197916664,37.74014423076923L215.84842204861113,32.59182692307692L215.86401874999999,39.33995192307691L216.1390878472222,35.885048076923056L216.2241607638889,34.35331730769229L216.91183350694445,37.391250000000014L217.51585121527776,35.83399038461539L217.54137309027777,34.42139423076924L218.0433032986111,36.82961538461538L218.08300399305557,37.893317307692314L218.52821892361112,34.91495192307693L218.6643355902778,36.46370192307691L218.8727642361111,33.893798076923076L219.12940086805554,41.25461538461539L219.1946234375,42.548076923076934L219.3264864583333,40.21644230769229L219.3987984375,40.45471153846154L219.59446614583334,31.06860576923077L219.95035451388887,44.24149038461539L220.1417685763889,42.00346153846155L220.82235190972224,37.81673076923079L220.993915625,41.178028846153865L221.39659409722222,36.012692307692305L221.81203350694446,37.09341346153846L223.18454322916665,41.058894230769226L223.2043935763889,32.855625L223.30789895833334,39.63778846153846L223.37595729166665,40.029230769230765L223.39722552083333,34.77879807692307L224.52869531250002,42.08855769230769L225.08308715277778,34.54052884615385L225.3269628472222,40.905721153846144L225.58643524305555,36.778557692307686L225.60486770833333,37.31466346153846L225.8303109375,44.454230769230776L225.95366666666666,36.42115384615386L226.07135086805556,31.536634615384628L226.39746371527778,38.029471153846146L226.44567170138887,42.820384615384626L226.51231215277778,38.412403846153865L226.68812951388887,46.905L226.8228282986111,38.64216346153847L227.170209375,37.135961538461544L227.28931145833332,35.79995192307692L228.40376666666668,37.655048076923066L228.49876475694444,34.19163461538463L228.52854027777778,42.34384615384616L228.58809131944443,38.71875L228.78517690972222,38.81235576923078L229.05741024305556,35.28937500000001L229.1226328125,37.765673076923065L229.13681163194443,30.472932692307694L229.9492579861111,40.82062500000001L230.31648940972224,37.36572115384615L230.57312604166665,31.911057692307708L230.82692690972223,39.82499999999999L231.09632447916667,40.47173076923079L231.81093697916666,34.991538461538454L232.09876701388887,37.033846153846156L232.66591979166665,34.651153846153846L232.8743484375,33.15346153846153L233.11397048611113,29.230528846153845L233.3138918402778,36.906201923076935L233.6088112847222,38.99105769230769L233.7832107638889,38.72725961538461L233.9207453125,34.82134615384615L234.04977256944443,35.391490384615395L234.17312829861112,34.251201923076934L234.57013524305555,37.272115384615404L234.82818975694443,34.36182692307693L234.8551295138889,32.83009615384617L235.16848142361113,37.527403846153845" style="fill: none;" fill="none"></path></g></g></g></g></g></g><g transform="translate(74, 177)" clip-path="url(#clip_1)"><clipPath id="clip_1"><rect width="255" height="23"></rect></clipPath><g><g><line x1="0" y1="0" x2="0" y2="5" style="visibility: inherit;" fill="rgb(0, 0, 0)" stroke="rgb(204, 204, 204)" stroke-width="1px"></line><line x1="28.357638888888886" y1="0" x2="28.357638888888886" y2="5" style="visibility: inherit;" fill="rgb(0, 0, 0)" stroke="rgb(204, 204, 204)" stroke-width="1px"></line><line x1="56.71527777777777" y1="0" x2="56.71527777777777" y2="5" style="visibility: inherit;" fill="rgb(0, 0, 0)" stroke="rgb(204, 204, 204)" stroke-width="1px"></line><line x1="85.07291666666666" y1="0" x2="85.07291666666666" y2="5" style="visibility: inherit;" fill="rgb(0, 0, 0)" stroke="rgb(204, 204, 204)" stroke-width="1px"></line><line x1="113.43055555555554" y1="0" x2="113.43055555555554" y2="5" style="visibility: inherit;" fill="rgb(0, 0, 0)" stroke="rgb(204, 204, 204)" stroke-width="1px"></line><line x1="141.78819444444446" y1="0" x2="141.78819444444446" y2="5" style="visibility: inherit;" fill="rgb(0, 0, 0)" stroke="rgb(204, 204, 204)" stroke-width="1px"></line><line x1="170.14583333333331" y1="0" x2="170.14583333333331" y2="5" style="visibility: inherit;" fill="rgb(0, 0, 0)" stroke="rgb(204, 204, 204)" stroke-width="1px"></line><line x1="198.50347222222223" y1="0" x2="198.50347222222223" y2="5" style="visibility: inherit;" fill="rgb(0, 0, 0)" stroke="rgb(204, 204, 204)" stroke-width="1px"></line><line x1="226.8611111111111" y1="0" x2="226.8611111111111" y2="5" style="visibility: inherit;" fill="rgb(0, 0, 0)" stroke="rgb(204, 204, 204)" stroke-width="1px"></line><line x1="255.21875" y1="0" x2="255.21875" y2="5" style="visibility: inherit;" fill="rgb(0, 0, 0)" stroke="rgb(204, 204, 204)" stroke-width="1px"></line></g><g transform="translate(0, 8)"><text x="0" y="0" dx="0em" dy="0.95em" style="text-anchor: middle; visibility: hidden; font-family: &quot;Helvetica Neue&quot;, sans-serif; font-size: 12px; font-weight: 200;" fill="rgb(50, 49, 63)" stroke="none" stroke-width="1px">-20k</text><text x="28.357638888888886" y="0" dx="0em" dy="0.95em" style="text-anchor: middle; visibility: inherit; font-family: &quot;Helvetica Neue&quot;, sans-serif; font-size: 12px; font-weight: 200;" fill="rgb(50, 49, 63)" stroke="none" stroke-width="1px">0</text><text x="56.71527777777777" y="0" dx="0em" dy="0.95em" style="text-anchor: middle; visibility: hidden; font-family: &quot;Helvetica Neue&quot;, sans-serif; font-size: 12px; font-weight: 200;" fill="rgb(50, 49, 63)" stroke="none" stroke-width="1px">20k</text><text x="85.07291666666666" y="0" dx="0em" dy="0.95em" style="text-anchor: middle; visibility: inherit; font-family: &quot;Helvetica Neue&quot;, sans-serif; font-size: 12px; font-weight: 200;" fill="rgb(50, 49, 63)" stroke="none" stroke-width="1px">40k</text><text x="113.43055555555554" y="0" dx="0em" dy="0.95em" style="text-anchor: middle; visibility: hidden; font-family: &quot;Helvetica Neue&quot;, sans-serif; font-size: 12px; font-weight: 200;" fill="rgb(50, 49, 63)" stroke="none" stroke-width="1px">60k</text><text x="141.78819444444446" y="0" dx="0em" dy="0.95em" style="text-anchor: middle; visibility: inherit; font-family: &quot;Helvetica Neue&quot;, sans-serif; font-size: 12px; font-weight: 200;" fill="rgb(50, 49, 63)" stroke="none" stroke-width="1px">80k</text><text x="170.14583333333331" y="0" dx="0em" dy="0.95em" style="text-anchor: middle; visibility: hidden; font-family: &quot;Helvetica Neue&quot;, sans-serif; font-size: 12px; font-weight: 200;" fill="rgb(50, 49, 63)" stroke="none" stroke-width="1px">100k</text><text x="198.50347222222223" y="0" dx="0em" dy="0.95em" style="text-anchor: middle; visibility: inherit; font-family: &quot;Helvetica Neue&quot;, sans-serif; font-size: 12px; font-weight: 200;" fill="rgb(50, 49, 63)" stroke="none" stroke-width="1px">120k</text><text x="226.8611111111111" y="0" dx="0em" dy="0.95em" style="text-anchor: middle; visibility: hidden; font-family: &quot;Helvetica Neue&quot;, sans-serif; font-size: 12px; font-weight: 200;" fill="rgb(50, 49, 63)" stroke="none" stroke-width="1px">140k</text><text x="255.21875" y="0" dx="0em" dy="0.95em" style="text-anchor: middle; visibility: hidden; font-family: &quot;Helvetica Neue&quot;, sans-serif; font-size: 12px; font-weight: 200;" fill="rgb(50, 49, 63)" stroke="none" stroke-width="1px">160k</text></g><line x1="0" y1="0" x2="255.21875" y2="0" fill="rgb(0, 0, 0)" stroke="rgb(204, 204, 204)" stroke-width="1px"></line></g></g></g></g></svg>